%TF.GenerationSoftware,KiCad,Pcbnew,10.0.6*%
%TF.CreationDate,2026-09-15T22:38:58-07:00*%
%TF.ProjectId,plush-toy-mainboard,706c7573-682d-4746-9f79-2d6d61696e62,rev?*%
%TF.SameCoordinates,Original*%
%TF.FileFunction,Legend,Top*%
%TF.FilePolarity,Positive*%
%FSLAX46Y46*%
G04 Gerber Fmt 4.6, Leading zero omitted, Abs format (unit mm)*
G04 Created by KiCad (PCBNEW 10.0.6) date 2026-09-15 22:38:58*
%MOMM*%
%LPD*%
G01*
G04 APERTURE LIST*
G04 Aperture macros list*
%AMRoundRect*
0 Rectangle with rounded corners*
0 $1 Rounding radius*
0 $2 $3 $4 $5 $6 $7 $8 $9 X,Y pos of 4 corners*
0 Add a 4 corners polygon primitive as box body*
4,1,4,$2,$3,$4,$5,$6,$7,$8,$9,$2,$3,0*
0 Add four circle primitives for the rounded corners*
1,1,$1+$1,$2,$3*
1,1,$1+$1,$4,$5*
1,1,$1+$1,$6,$7*
1,1,$1+$1,$8,$9*
0 Add four rect primitives between the rounded corners*
20,1,$1+$1,$2,$3,$4,$5,0*
20,1,$1+$1,$4,$5,$6,$7,0*
20,1,$1+$1,$6,$7,$8,$9,0*
20,1,$1+$1,$8,$9,$2,$3,0*%
%AMFreePoly0*
4,1,14,0.354215,0.088284,0.450784,-0.008285,0.462500,-0.036569,0.462500,-0.060000,0.450784,-0.088284,0.422500,-0.100000,-0.422500,-0.100000,-0.450784,-0.088284,-0.462500,-0.060000,-0.462500,0.060000,-0.450784,0.088284,-0.422500,0.100000,0.325931,0.100000,0.354215,0.088284,0.354215,0.088284,$1*%
%AMFreePoly1*
4,1,14,0.450784,0.088284,0.462500,0.060000,0.462500,0.036569,0.450784,0.008285,0.354215,-0.088284,0.325931,-0.100000,-0.422500,-0.100000,-0.450784,-0.088284,-0.462500,-0.060000,-0.462500,0.060000,-0.450784,0.088284,-0.422500,0.100000,0.422500,0.100000,0.450784,0.088284,0.450784,0.088284,$1*%
%AMFreePoly2*
4,1,14,0.088284,0.450784,0.100000,0.422500,0.100000,-0.422500,0.088284,-0.450784,0.060000,-0.462500,-0.060000,-0.462500,-0.088284,-0.450784,-0.100000,-0.422500,-0.100000,0.325931,-0.088284,0.354215,0.008285,0.450784,0.036569,0.462500,0.060000,0.462500,0.088284,0.450784,0.088284,0.450784,$1*%
%AMFreePoly3*
4,1,14,-0.008285,0.450784,0.088284,0.354215,0.100000,0.325931,0.100000,-0.422500,0.088284,-0.450784,0.060000,-0.462500,-0.060000,-0.462500,-0.088284,-0.450784,-0.100000,-0.422500,-0.100000,0.422500,-0.088284,0.450784,-0.060000,0.462500,-0.036569,0.462500,-0.008285,0.450784,-0.008285,0.450784,$1*%
%AMFreePoly4*
4,1,14,0.450784,0.088284,0.462500,0.060000,0.462500,-0.060000,0.450784,-0.088284,0.422500,-0.100000,-0.325931,-0.100000,-0.354215,-0.088284,-0.450784,0.008285,-0.462500,0.036569,-0.462500,0.060000,-0.450784,0.088284,-0.422500,0.100000,0.422500,0.100000,0.450784,0.088284,0.450784,0.088284,$1*%
%AMFreePoly5*
4,1,14,0.450784,0.088284,0.462500,0.060000,0.462500,-0.060000,0.450784,-0.088284,0.422500,-0.100000,-0.422500,-0.100000,-0.450784,-0.088284,-0.462500,-0.060000,-0.462500,-0.036569,-0.450784,-0.008285,-0.354215,0.088284,-0.325931,0.100000,0.422500,0.100000,0.450784,0.088284,0.450784,0.088284,$1*%
%AMFreePoly6*
4,1,14,0.088284,0.450784,0.100000,0.422500,0.100000,-0.325931,0.088284,-0.354215,-0.008285,-0.450784,-0.036569,-0.462500,-0.060000,-0.462500,-0.088284,-0.450784,-0.100000,-0.422500,-0.100000,0.422500,-0.088284,0.450784,-0.060000,0.462500,0.060000,0.462500,0.088284,0.450784,0.088284,0.450784,$1*%
%AMFreePoly7*
4,1,14,0.088284,0.450784,0.100000,0.422500,0.100000,-0.422500,0.088284,-0.450784,0.060000,-0.462500,0.036569,-0.462500,0.008285,-0.450784,-0.088284,-0.354215,-0.100000,-0.325931,-0.100000,0.422500,-0.088284,0.450784,-0.060000,0.462500,0.060000,0.462500,0.088284,0.450784,0.088284,0.450784,$1*%
%AMFreePoly8*
4,1,64,-0.403578,0.746413,-0.262311,0.687899,-0.135173,0.602948,-0.027052,0.494827,0.057899,0.367689,0.116413,0.226422,0.146244,0.076453,0.146244,0.031373,0.147118,0.029264,0.147118,-0.029264,0.146244,-0.031373,0.146244,-0.076453,0.116413,-0.226422,0.057899,-0.367689,-0.027052,-0.494827,-0.135173,-0.602948,-0.262311,-0.687899,-0.403578,-0.746413,-0.553547,-0.776244,-0.706453,-0.776244,
-0.856422,-0.746413,-0.997689,-0.687899,-1.124827,-0.602948,-1.232948,-0.494827,-1.317899,-0.367689,-1.376413,-0.226422,-1.406244,-0.076453,-1.406244,0.063193,-1.110000,0.063193,-1.110000,-0.063193,-1.077289,-0.185273,-1.014096,-0.294727,-0.924727,-0.384096,-0.815273,-0.447289,-0.693193,-0.480000,-0.566807,-0.480000,-0.444727,-0.447289,-0.335273,-0.384096,-0.245904,-0.294727,-0.182711,-0.185273,
-0.150000,-0.063193,-0.150000,0.063193,-0.182711,0.185273,-0.245904,0.294727,-0.335273,0.384096,-0.444727,0.447289,-0.566807,0.480000,-0.693193,0.480000,-0.815273,0.447289,-0.924727,0.384096,-1.014096,0.294727,-1.077289,0.185273,-1.110000,0.063193,-1.406244,0.063193,-1.406244,0.076453,-1.376413,0.226422,-1.317899,0.367689,-1.232948,0.494827,-1.124827,0.602948,-0.997689,0.687899,
-0.856422,0.746413,-0.706453,0.776244,-0.553547,0.776244,-0.403578,0.746413,-0.403578,0.746413,$1*%
G04 Aperture macros list end*
%ADD10C,0.150000*%
%ADD11C,0.120000*%
%ADD12C,0.060000*%
%ADD13C,0.000000*%
%ADD14C,0.250000*%
%ADD15C,0.400000*%
%ADD16RoundRect,0.140000X-0.140000X-0.170000X0.140000X-0.170000X0.140000X0.170000X-0.140000X0.170000X0*%
%ADD17RoundRect,0.062500X-0.237500X-0.062500X0.237500X-0.062500X0.237500X0.062500X-0.237500X0.062500X0*%
%ADD18R,0.900000X1.600000*%
%ADD19RoundRect,0.250000X0.250000X0.475000X-0.250000X0.475000X-0.250000X-0.475000X0.250000X-0.475000X0*%
%ADD20R,4.500000X1.650000*%
%ADD21RoundRect,0.135000X0.185000X-0.135000X0.185000X0.135000X-0.185000X0.135000X-0.185000X-0.135000X0*%
%ADD22C,1.000000*%
%ADD23C,3.200000*%
%ADD24C,0.650000*%
%ADD25RoundRect,0.150000X0.150000X0.575000X-0.150000X0.575000X-0.150000X-0.575000X0.150000X-0.575000X0*%
%ADD26RoundRect,0.075000X0.075000X0.650000X-0.075000X0.650000X-0.075000X-0.650000X0.075000X-0.650000X0*%
%ADD27O,1.000000X2.100000*%
%ADD28O,1.000000X1.600000*%
%ADD29RoundRect,0.135000X-0.135000X-0.185000X0.135000X-0.185000X0.135000X0.185000X-0.135000X0.185000X0*%
%ADD30R,0.900000X1.500000*%
%ADD31R,1.500000X0.900000*%
%ADD32C,0.600000*%
%ADD33R,3.900000X3.900000*%
%ADD34RoundRect,0.250001X-1.099999X1.099999X-1.099999X-1.099999X1.099999X-1.099999X1.099999X1.099999X0*%
%ADD35C,2.700000*%
%ADD36RoundRect,0.150000X-0.587500X-0.150000X0.587500X-0.150000X0.587500X0.150000X-0.587500X0.150000X0*%
%ADD37RoundRect,0.075000X-0.650000X-0.075000X0.650000X-0.075000X0.650000X0.075000X-0.650000X0.075000X0*%
%ADD38RoundRect,0.050000X0.300000X-0.150000X0.300000X0.150000X-0.300000X0.150000X-0.300000X-0.150000X0*%
%ADD39RoundRect,0.140000X-0.170000X0.140000X-0.170000X-0.140000X0.170000X-0.140000X0.170000X0.140000X0*%
%ADD40RoundRect,0.075000X-0.350000X-0.075000X0.350000X-0.075000X0.350000X0.075000X-0.350000X0.075000X0*%
%ADD41RoundRect,0.075000X0.075000X-0.350000X0.075000X0.350000X-0.075000X0.350000X-0.075000X-0.350000X0*%
%ADD42RoundRect,0.140000X0.170000X-0.140000X0.170000X0.140000X-0.170000X0.140000X-0.170000X-0.140000X0*%
%ADD43RoundRect,0.250000X0.625000X-0.375000X0.625000X0.375000X-0.625000X0.375000X-0.625000X-0.375000X0*%
%ADD44R,0.300000X1.300000*%
%ADD45R,2.000000X1.600000*%
%ADD46RoundRect,0.250000X-0.350000X-0.625000X0.350000X-0.625000X0.350000X0.625000X-0.350000X0.625000X0*%
%ADD47O,1.200000X1.750000*%
%ADD48R,1.000000X0.750000*%
%ADD49RoundRect,0.225000X-0.250000X0.225000X-0.250000X-0.225000X0.250000X-0.225000X0.250000X0.225000X0*%
%ADD50RoundRect,0.250000X-1.000000X-0.900000X1.000000X-0.900000X1.000000X0.900000X-1.000000X0.900000X0*%
%ADD51R,1.700000X1.700000*%
%ADD52C,1.700000*%
%ADD53RoundRect,0.225000X-0.225000X-0.250000X0.225000X-0.250000X0.225000X0.250000X-0.225000X0.250000X0*%
%ADD54R,1.100000X3.700000*%
%ADD55RoundRect,0.250000X0.475000X-0.250000X0.475000X0.250000X-0.475000X0.250000X-0.475000X-0.250000X0*%
%ADD56RoundRect,0.100000X-0.637500X-0.100000X0.637500X-0.100000X0.637500X0.100000X-0.637500X0.100000X0*%
%ADD57RoundRect,0.150000X-0.512500X-0.150000X0.512500X-0.150000X0.512500X0.150000X-0.512500X0.150000X0*%
%ADD58RoundRect,0.250001X0.949999X-0.949999X0.949999X0.949999X-0.949999X0.949999X-0.949999X-0.949999X0*%
%ADD59C,2.400000*%
%ADD60RoundRect,0.150000X0.625000X-0.150000X0.625000X0.150000X-0.625000X0.150000X-0.625000X-0.150000X0*%
%ADD61RoundRect,0.250000X0.650000X-0.350000X0.650000X0.350000X-0.650000X0.350000X-0.650000X-0.350000X0*%
%ADD62RoundRect,0.250000X-0.250000X-0.475000X0.250000X-0.475000X0.250000X0.475000X-0.250000X0.475000X0*%
%ADD63RoundRect,0.140000X0.140000X0.170000X-0.140000X0.170000X-0.140000X-0.170000X0.140000X-0.170000X0*%
%ADD64FreePoly0,0.000000*%
%ADD65RoundRect,0.050000X-0.412500X-0.050000X0.412500X-0.050000X0.412500X0.050000X-0.412500X0.050000X0*%
%ADD66FreePoly1,0.000000*%
%ADD67FreePoly2,0.000000*%
%ADD68RoundRect,0.050000X-0.050000X-0.412500X0.050000X-0.412500X0.050000X0.412500X-0.050000X0.412500X0*%
%ADD69FreePoly3,0.000000*%
%ADD70FreePoly4,0.000000*%
%ADD71FreePoly5,0.000000*%
%ADD72FreePoly6,0.000000*%
%ADD73FreePoly7,0.000000*%
%ADD74C,0.400000*%
%ADD75R,0.400000X0.600000*%
%ADD76FreePoly8,0.000000*%
%ADD77RoundRect,0.050000X-0.150000X-0.300000X0.150000X-0.300000X0.150000X0.300000X-0.150000X0.300000X0*%
%ADD78RoundRect,0.062500X-0.350000X-0.062500X0.350000X-0.062500X0.350000X0.062500X-0.350000X0.062500X0*%
%ADD79RoundRect,0.062500X-0.062500X-0.350000X0.062500X-0.350000X0.062500X0.350000X-0.062500X0.350000X0*%
%ADD80R,1.230000X1.230000*%
G04 APERTURE END LIST*
D10*
X73193922Y-2554818D02*
X73527255Y-3554818D01*
X73527255Y-3554818D02*
X73860588Y-2554818D01*
X74193922Y-3554818D02*
X74193922Y-2554818D01*
X74193922Y-2554818D02*
X74527255Y-3269103D01*
X74527255Y-3269103D02*
X74860588Y-2554818D01*
X74860588Y-2554818D02*
X74860588Y-3554818D01*
X75527255Y-2554818D02*
X75717731Y-2554818D01*
X75717731Y-2554818D02*
X75812969Y-2602437D01*
X75812969Y-2602437D02*
X75908207Y-2697675D01*
X75908207Y-2697675D02*
X75955826Y-2888151D01*
X75955826Y-2888151D02*
X75955826Y-3221484D01*
X75955826Y-3221484D02*
X75908207Y-3411960D01*
X75908207Y-3411960D02*
X75812969Y-3507199D01*
X75812969Y-3507199D02*
X75717731Y-3554818D01*
X75717731Y-3554818D02*
X75527255Y-3554818D01*
X75527255Y-3554818D02*
X75432017Y-3507199D01*
X75432017Y-3507199D02*
X75336779Y-3411960D01*
X75336779Y-3411960D02*
X75289160Y-3221484D01*
X75289160Y-3221484D02*
X75289160Y-2888151D01*
X75289160Y-2888151D02*
X75336779Y-2697675D01*
X75336779Y-2697675D02*
X75432017Y-2602437D01*
X75432017Y-2602437D02*
X75527255Y-2554818D01*
X76241541Y-2554818D02*
X76812969Y-2554818D01*
X76527255Y-3554818D02*
X76527255Y-2554818D01*
X78051065Y-2697675D02*
X78051065Y-3554818D01*
X78146303Y-2411960D02*
X78003446Y-2745294D01*
X78003446Y-2745294D02*
X77765351Y-2935770D01*
X78289160Y-2602437D02*
X78384398Y-2840532D01*
X78384398Y-2840532D02*
X78527255Y-3221484D01*
X78527255Y-3221484D02*
X78765351Y-3459579D01*
X78765351Y-3459579D02*
X79003446Y-3554818D01*
X78193922Y-2602437D02*
X78908208Y-2602437D01*
X78908208Y-2602437D02*
X78860589Y-2792913D01*
X78860589Y-2792913D02*
X78670113Y-3126246D01*
X78670113Y-3126246D02*
X78384398Y-3411960D01*
X78384398Y-3411960D02*
X78146303Y-3554818D01*
X79241541Y-2459579D02*
X79241541Y-3554818D01*
X79765350Y-2983389D02*
X80384398Y-2983389D01*
X79765350Y-2745294D02*
X80384398Y-2745294D01*
X79765350Y-2459579D02*
X79765350Y-3507199D01*
X80146303Y-3459579D02*
X79574874Y-3507199D01*
X80384398Y-3126246D02*
X80146303Y-3221484D01*
X79241541Y-2507199D02*
X79622493Y-2507199D01*
X79622493Y-2507199D02*
X79432017Y-2792913D01*
X79765350Y-2459579D02*
X80384398Y-2459579D01*
X80384398Y-2459579D02*
X80384398Y-2983389D01*
X80051064Y-3031008D02*
X80146303Y-3269103D01*
X80146303Y-3269103D02*
X80432017Y-3554818D01*
X79432017Y-2840532D02*
X79574874Y-3078627D01*
X79574874Y-3078627D02*
X79574874Y-3221484D01*
X79574874Y-3221484D02*
X79384398Y-3221484D01*
X82098683Y-2554818D02*
X81622493Y-2554818D01*
X81622493Y-2554818D02*
X81574874Y-3031008D01*
X81574874Y-3031008D02*
X81622493Y-2983389D01*
X81622493Y-2983389D02*
X81717731Y-2935770D01*
X81717731Y-2935770D02*
X81955826Y-2935770D01*
X81955826Y-2935770D02*
X82051064Y-2983389D01*
X82051064Y-2983389D02*
X82098683Y-3031008D01*
X82098683Y-3031008D02*
X82146302Y-3126246D01*
X82146302Y-3126246D02*
X82146302Y-3364341D01*
X82146302Y-3364341D02*
X82098683Y-3459579D01*
X82098683Y-3459579D02*
X82051064Y-3507199D01*
X82051064Y-3507199D02*
X81955826Y-3554818D01*
X81955826Y-3554818D02*
X81717731Y-3554818D01*
X81717731Y-3554818D02*
X81622493Y-3507199D01*
X81622493Y-3507199D02*
X81574874Y-3459579D01*
X82432017Y-2554818D02*
X82765350Y-3554818D01*
X82765350Y-3554818D02*
X83098683Y-2554818D01*
X73193922Y-5121485D02*
X74289160Y-5121485D01*
X73193922Y-4835771D02*
X74289160Y-4835771D01*
X73765350Y-5454819D02*
X74384398Y-5454819D01*
X73765350Y-4311961D02*
X73765350Y-5454819D01*
X74432017Y-5216723D02*
X74384398Y-5454819D01*
X73193922Y-5169104D02*
X73193922Y-4502438D01*
X73193922Y-4502438D02*
X74289160Y-4502438D01*
X74289160Y-4502438D02*
X74289160Y-5169104D01*
X74717731Y-4597676D02*
X75193921Y-4597676D01*
X74955826Y-4788152D02*
X75193921Y-4978628D01*
X74955826Y-4311961D02*
X74955826Y-5454819D01*
X74955826Y-4597676D02*
X74717731Y-5169104D01*
X75717731Y-5454819D02*
X75908207Y-5454819D01*
X75955826Y-5264342D02*
X75908207Y-5454819D01*
X75336778Y-4407200D02*
X75717731Y-4407200D01*
X75717731Y-4407200D02*
X75717731Y-5454819D01*
X75336778Y-4407200D02*
X75336778Y-4835771D01*
X75336778Y-4835771D02*
X75289159Y-5121485D01*
X75289159Y-5121485D02*
X75146302Y-5454819D01*
X77003444Y-4407200D02*
X76146302Y-5692914D01*
X77527254Y-5454819D02*
X77717730Y-5454819D01*
X78003444Y-5359580D02*
X78432016Y-5359580D01*
X78003444Y-4502438D02*
X78003444Y-5454819D01*
X77479635Y-4359580D02*
X77479635Y-4788152D01*
X77479635Y-4788152D02*
X77384397Y-5264342D01*
X78003444Y-4502438D02*
X78432016Y-4502438D01*
X78432016Y-4502438D02*
X78432016Y-5454819D01*
X77241540Y-4597676D02*
X77812968Y-4597676D01*
X77812968Y-4597676D02*
X77812968Y-5169104D01*
X77812968Y-5169104D02*
X77765349Y-5407200D01*
X78717730Y-4502438D02*
X79098682Y-4502438D01*
X78765349Y-5169104D02*
X78908206Y-5169104D01*
X78812968Y-5311961D02*
X78670111Y-5454819D01*
X78955825Y-4311961D02*
X78955825Y-5121485D01*
X79146301Y-4740533D02*
X78670111Y-4883390D01*
X79146301Y-5264342D02*
X79146301Y-5454819D01*
X79336777Y-4931009D02*
X79146301Y-5121485D01*
X79384396Y-5264342D02*
X79479634Y-5454819D01*
X79717730Y-5264342D02*
X79860587Y-5407200D01*
X79765349Y-5121485D02*
X79860587Y-5169104D01*
X79908206Y-5026247D02*
X79908206Y-5169104D01*
X79241539Y-4788152D02*
X79432015Y-4883390D01*
X79432015Y-4883390D02*
X79574873Y-4978628D01*
X79432015Y-4311961D02*
X79432015Y-4645295D01*
X79432015Y-4645295D02*
X79336777Y-4978628D01*
X79193920Y-4502438D02*
X79717730Y-4502438D01*
X79717730Y-4502438D02*
X79717730Y-4931009D01*
X79717730Y-4931009D02*
X79765349Y-5169104D01*
X80146301Y-4740533D02*
X81384396Y-4740533D01*
X80241539Y-4502438D02*
X81289158Y-4502438D01*
X80479634Y-5264342D02*
X81051063Y-5407200D01*
X80432015Y-4978628D02*
X81193920Y-4978628D01*
X81193920Y-4978628D02*
X80765348Y-5359580D01*
X80717729Y-4311961D02*
X80622491Y-4645295D01*
X80622491Y-4645295D02*
X80432015Y-4978628D01*
X81812967Y-5073866D02*
X82860586Y-5073866D01*
X81812967Y-4740533D02*
X82860586Y-4740533D01*
X82289157Y-4407200D02*
X82289157Y-5454819D01*
X82574872Y-5454819D02*
X82860586Y-5454819D01*
X81812967Y-4407200D02*
X81812967Y-5026247D01*
X81812967Y-5026247D02*
X81765348Y-5311961D01*
X81812967Y-4407200D02*
X82860586Y-4407200D01*
X82860586Y-4407200D02*
X82860586Y-5454819D01*
X8742858Y-55126037D02*
X9980953Y-55126037D01*
X8838096Y-54840323D02*
X9123810Y-54935561D01*
X8980953Y-54602228D02*
X9266667Y-54745085D01*
X9457143Y-55364132D02*
X9838096Y-55554608D01*
X9457143Y-54554608D02*
X9457143Y-54935561D01*
X9457143Y-54935561D02*
X9361905Y-55268894D01*
X9409524Y-55078418D02*
X9314286Y-55364132D01*
X9314286Y-55364132D02*
X9171429Y-55506989D01*
X9171429Y-55506989D02*
X8838096Y-55649847D01*
X10219048Y-55030799D02*
X10933333Y-55030799D01*
X10266667Y-54697466D02*
X10885714Y-54697466D01*
X10314286Y-55554608D02*
X10790476Y-55554608D01*
X10314286Y-55221275D02*
X10314286Y-55649847D01*
X10361905Y-54792704D02*
X10409524Y-54935561D01*
X10552381Y-54506989D02*
X10552381Y-54697466D01*
X10790476Y-54745085D02*
X10695238Y-54983180D01*
X11028571Y-54602228D02*
X11028571Y-55649847D01*
X10314286Y-55221275D02*
X10790476Y-55221275D01*
X10790476Y-55221275D02*
X10838095Y-55649847D01*
X11028571Y-54602228D02*
X11457143Y-54602228D01*
X11457143Y-54602228D02*
X11219048Y-54983180D01*
X11219048Y-54983180D02*
X11409524Y-55126037D01*
X11409524Y-55126037D02*
X11457143Y-55268894D01*
X11457143Y-55268894D02*
X11457143Y-55459370D01*
X11457143Y-55459370D02*
X11219048Y-55459370D01*
X11742857Y-55316513D02*
X12219047Y-55316513D01*
X11790476Y-55078418D02*
X12219047Y-55078418D01*
X11838095Y-54649847D02*
X11742857Y-54887942D01*
X12028571Y-54840323D02*
X12028571Y-55316513D01*
X12361904Y-55173656D02*
X12885714Y-55173656D01*
X12361904Y-54792704D02*
X12361904Y-55173656D01*
X12361904Y-55602228D02*
X12885714Y-55554608D01*
X12600000Y-54506989D02*
X12600000Y-55554608D01*
X12790476Y-55316513D02*
X12933333Y-55649847D01*
X11838095Y-54649847D02*
X12123809Y-54649847D01*
X12123809Y-54649847D02*
X12028571Y-54840323D01*
X12361904Y-54792704D02*
X12885714Y-54792704D01*
X12885714Y-54792704D02*
X12885714Y-55173656D01*
X11742857Y-54840323D02*
X11742857Y-55316513D01*
X11742857Y-55316513D02*
X11742857Y-55506989D01*
X11742857Y-55506989D02*
X11695238Y-55649847D01*
X11742857Y-54840323D02*
X12219047Y-54840323D01*
X12219047Y-54840323D02*
X12219047Y-55649847D01*
X12219047Y-55649847D02*
X12076190Y-55649847D01*
X13171428Y-54792704D02*
X13504761Y-54792704D01*
X13171428Y-55649847D02*
X13361904Y-55649847D01*
X13361904Y-54506989D02*
X13361904Y-55649847D01*
X13552380Y-55126037D02*
X13171428Y-55221275D01*
X13552380Y-55364132D02*
X14409523Y-55364132D01*
X13599999Y-54649847D02*
X14409523Y-54649847D01*
X13647618Y-55173656D02*
X14314285Y-55173656D01*
X13647618Y-54983180D02*
X14314285Y-54983180D01*
X13647618Y-54840323D02*
X13647618Y-55173656D01*
X13838094Y-54506989D02*
X13838094Y-54745085D01*
X13980951Y-55173656D02*
X13885713Y-55506989D01*
X14171428Y-54506989D02*
X14171428Y-54745085D01*
X13647618Y-54840323D02*
X14314285Y-54840323D01*
X14314285Y-54840323D02*
X14314285Y-55173656D01*
X13933332Y-55411751D02*
X13790475Y-55554608D01*
X13790475Y-55554608D02*
X13552380Y-55649847D01*
X13933332Y-55316513D02*
X14123809Y-55554608D01*
X14123809Y-55554608D02*
X14409523Y-55649847D01*
X8100000Y-56735981D02*
X8433333Y-56735981D01*
X8576190Y-57259791D02*
X8100000Y-57259791D01*
X8100000Y-57259791D02*
X8100000Y-56259791D01*
X8100000Y-56259791D02*
X8576190Y-56259791D01*
X9195238Y-56259791D02*
X9290476Y-56259791D01*
X9290476Y-56259791D02*
X9385714Y-56307410D01*
X9385714Y-56307410D02*
X9433333Y-56355029D01*
X9433333Y-56355029D02*
X9480952Y-56450267D01*
X9480952Y-56450267D02*
X9528571Y-56640743D01*
X9528571Y-56640743D02*
X9528571Y-56878838D01*
X9528571Y-56878838D02*
X9480952Y-57069314D01*
X9480952Y-57069314D02*
X9433333Y-57164552D01*
X9433333Y-57164552D02*
X9385714Y-57212172D01*
X9385714Y-57212172D02*
X9290476Y-57259791D01*
X9290476Y-57259791D02*
X9195238Y-57259791D01*
X9195238Y-57259791D02*
X9100000Y-57212172D01*
X9100000Y-57212172D02*
X9052381Y-57164552D01*
X9052381Y-57164552D02*
X9004762Y-57069314D01*
X9004762Y-57069314D02*
X8957143Y-56878838D01*
X8957143Y-56878838D02*
X8957143Y-56640743D01*
X8957143Y-56640743D02*
X9004762Y-56450267D01*
X9004762Y-56450267D02*
X9052381Y-56355029D01*
X9052381Y-56355029D02*
X9100000Y-56307410D01*
X9100000Y-56307410D02*
X9195238Y-56259791D01*
X11433333Y-56212172D02*
X10576191Y-57497886D01*
X13052381Y-56307410D02*
X12957143Y-56259791D01*
X12957143Y-56259791D02*
X12814286Y-56259791D01*
X12814286Y-56259791D02*
X12671429Y-56307410D01*
X12671429Y-56307410D02*
X12576191Y-56402648D01*
X12576191Y-56402648D02*
X12528572Y-56497886D01*
X12528572Y-56497886D02*
X12480953Y-56688362D01*
X12480953Y-56688362D02*
X12480953Y-56831219D01*
X12480953Y-56831219D02*
X12528572Y-57021695D01*
X12528572Y-57021695D02*
X12576191Y-57116933D01*
X12576191Y-57116933D02*
X12671429Y-57212172D01*
X12671429Y-57212172D02*
X12814286Y-57259791D01*
X12814286Y-57259791D02*
X12909524Y-57259791D01*
X12909524Y-57259791D02*
X13052381Y-57212172D01*
X13052381Y-57212172D02*
X13100000Y-57164552D01*
X13100000Y-57164552D02*
X13100000Y-56831219D01*
X13100000Y-56831219D02*
X12909524Y-56831219D01*
X13528572Y-57259791D02*
X13528572Y-56259791D01*
X13528572Y-56259791D02*
X14100000Y-57259791D01*
X14100000Y-57259791D02*
X14100000Y-56259791D01*
X14576191Y-57259791D02*
X14576191Y-56259791D01*
X14576191Y-56259791D02*
X14814286Y-56259791D01*
X14814286Y-56259791D02*
X14957143Y-56307410D01*
X14957143Y-56307410D02*
X15052381Y-56402648D01*
X15052381Y-56402648D02*
X15100000Y-56497886D01*
X15100000Y-56497886D02*
X15147619Y-56688362D01*
X15147619Y-56688362D02*
X15147619Y-56831219D01*
X15147619Y-56831219D02*
X15100000Y-57021695D01*
X15100000Y-57021695D02*
X15052381Y-57116933D01*
X15052381Y-57116933D02*
X14957143Y-57212172D01*
X14957143Y-57212172D02*
X14814286Y-57259791D01*
X14814286Y-57259791D02*
X14576191Y-57259791D01*
X60333334Y-39388152D02*
X60238096Y-39769104D01*
X60619048Y-40054819D02*
X61095239Y-40054819D01*
X60619048Y-39245295D02*
X60619048Y-40054819D01*
X61142858Y-39816723D02*
X61142858Y-40054819D01*
X61238096Y-39388152D02*
X61428572Y-39769104D01*
X60619048Y-38959580D02*
X60761905Y-39054819D01*
X60761905Y-39054819D02*
X60904762Y-39197676D01*
X61238096Y-39007200D02*
X61142858Y-39292914D01*
X61142858Y-39292914D02*
X60619048Y-39769104D01*
X60619048Y-39769104D02*
X60190477Y-39959580D01*
X62000000Y-38959580D02*
X61761905Y-39197676D01*
X62190476Y-39007200D02*
X62809524Y-39007200D01*
X62238095Y-39197676D02*
X62238095Y-39769104D01*
X62476190Y-39007200D02*
X62428571Y-39197676D01*
X62000000Y-39292914D02*
X61857143Y-39483390D01*
X61857143Y-39483390D02*
X61666667Y-39531009D01*
X62047619Y-39673866D02*
X61857143Y-39911961D01*
X61857143Y-39911961D02*
X61666667Y-40007200D01*
X62238095Y-39197676D02*
X62714286Y-39197676D01*
X62714286Y-39197676D02*
X62714286Y-39769104D01*
X62476190Y-39769104D02*
X62619048Y-39864342D01*
X62619048Y-39864342D02*
X62761905Y-40054819D01*
X62476190Y-39340533D02*
X62476190Y-39673866D01*
X62476190Y-39673866D02*
X62428571Y-39864342D01*
X62428571Y-39864342D02*
X62285714Y-40007200D01*
X62285714Y-40007200D02*
X62142857Y-40054819D01*
X63142857Y-39816723D02*
X64380952Y-39816723D01*
X63142857Y-39531009D02*
X63142857Y-39911961D01*
X63190476Y-39388152D02*
X64333333Y-39388152D01*
X63190476Y-39102438D02*
X63190476Y-39388152D01*
X63761904Y-38911961D02*
X63761904Y-40054819D01*
X63142857Y-39531009D02*
X64380952Y-39531009D01*
X64380952Y-39531009D02*
X64380952Y-39911961D01*
X63190476Y-39102438D02*
X64333333Y-39102438D01*
X64333333Y-39102438D02*
X64333333Y-39388152D01*
X65523809Y-40054819D02*
X65523809Y-39054819D01*
X66095237Y-40054819D02*
X65666666Y-39483390D01*
X66095237Y-39054819D02*
X65523809Y-39626247D01*
X66476190Y-40007200D02*
X66619047Y-40054819D01*
X66619047Y-40054819D02*
X66857142Y-40054819D01*
X66857142Y-40054819D02*
X66952380Y-40007200D01*
X66952380Y-40007200D02*
X66999999Y-39959580D01*
X66999999Y-39959580D02*
X67047618Y-39864342D01*
X67047618Y-39864342D02*
X67047618Y-39769104D01*
X67047618Y-39769104D02*
X66999999Y-39673866D01*
X66999999Y-39673866D02*
X66952380Y-39626247D01*
X66952380Y-39626247D02*
X66857142Y-39578628D01*
X66857142Y-39578628D02*
X66666666Y-39531009D01*
X66666666Y-39531009D02*
X66571428Y-39483390D01*
X66571428Y-39483390D02*
X66523809Y-39435771D01*
X66523809Y-39435771D02*
X66476190Y-39340533D01*
X66476190Y-39340533D02*
X66476190Y-39245295D01*
X66476190Y-39245295D02*
X66523809Y-39150057D01*
X66523809Y-39150057D02*
X66571428Y-39102438D01*
X66571428Y-39102438D02*
X66666666Y-39054819D01*
X66666666Y-39054819D02*
X66904761Y-39054819D01*
X66904761Y-39054819D02*
X67047618Y-39102438D01*
X67476190Y-40054819D02*
X67476190Y-39054819D01*
X67476190Y-39054819D02*
X67714285Y-39054819D01*
X67714285Y-39054819D02*
X67857142Y-39102438D01*
X67857142Y-39102438D02*
X67952380Y-39197676D01*
X67952380Y-39197676D02*
X67999999Y-39292914D01*
X67999999Y-39292914D02*
X68047618Y-39483390D01*
X68047618Y-39483390D02*
X68047618Y-39626247D01*
X68047618Y-39626247D02*
X67999999Y-39816723D01*
X67999999Y-39816723D02*
X67952380Y-39911961D01*
X67952380Y-39911961D02*
X67857142Y-40007200D01*
X67857142Y-40007200D02*
X67714285Y-40054819D01*
X67714285Y-40054819D02*
X67476190Y-40054819D01*
X68523809Y-40054819D02*
X68714285Y-40054819D01*
X68714285Y-40054819D02*
X68809523Y-40007200D01*
X68809523Y-40007200D02*
X68857142Y-39959580D01*
X68857142Y-39959580D02*
X68952380Y-39816723D01*
X68952380Y-39816723D02*
X68999999Y-39626247D01*
X68999999Y-39626247D02*
X68999999Y-39245295D01*
X68999999Y-39245295D02*
X68952380Y-39150057D01*
X68952380Y-39150057D02*
X68904761Y-39102438D01*
X68904761Y-39102438D02*
X68809523Y-39054819D01*
X68809523Y-39054819D02*
X68619047Y-39054819D01*
X68619047Y-39054819D02*
X68523809Y-39102438D01*
X68523809Y-39102438D02*
X68476190Y-39150057D01*
X68476190Y-39150057D02*
X68428571Y-39245295D01*
X68428571Y-39245295D02*
X68428571Y-39483390D01*
X68428571Y-39483390D02*
X68476190Y-39578628D01*
X68476190Y-39578628D02*
X68523809Y-39626247D01*
X68523809Y-39626247D02*
X68619047Y-39673866D01*
X68619047Y-39673866D02*
X68809523Y-39673866D01*
X68809523Y-39673866D02*
X68904761Y-39626247D01*
X68904761Y-39626247D02*
X68952380Y-39578628D01*
X68952380Y-39578628D02*
X68999999Y-39483390D01*
X69333333Y-39054819D02*
X69999999Y-39054819D01*
X69999999Y-39054819D02*
X69571428Y-40054819D01*
X70571428Y-39054819D02*
X70666666Y-39054819D01*
X70666666Y-39054819D02*
X70761904Y-39102438D01*
X70761904Y-39102438D02*
X70809523Y-39150057D01*
X70809523Y-39150057D02*
X70857142Y-39245295D01*
X70857142Y-39245295D02*
X70904761Y-39435771D01*
X70904761Y-39435771D02*
X70904761Y-39673866D01*
X70904761Y-39673866D02*
X70857142Y-39864342D01*
X70857142Y-39864342D02*
X70809523Y-39959580D01*
X70809523Y-39959580D02*
X70761904Y-40007200D01*
X70761904Y-40007200D02*
X70666666Y-40054819D01*
X70666666Y-40054819D02*
X70571428Y-40054819D01*
X70571428Y-40054819D02*
X70476190Y-40007200D01*
X70476190Y-40007200D02*
X70428571Y-39959580D01*
X70428571Y-39959580D02*
X70380952Y-39864342D01*
X70380952Y-39864342D02*
X70333333Y-39673866D01*
X70333333Y-39673866D02*
X70333333Y-39435771D01*
X70333333Y-39435771D02*
X70380952Y-39245295D01*
X70380952Y-39245295D02*
X70428571Y-39150057D01*
X70428571Y-39150057D02*
X70476190Y-39102438D01*
X70476190Y-39102438D02*
X70571428Y-39054819D01*
X71523809Y-39054819D02*
X71619047Y-39054819D01*
X71619047Y-39054819D02*
X71714285Y-39102438D01*
X71714285Y-39102438D02*
X71761904Y-39150057D01*
X71761904Y-39150057D02*
X71809523Y-39245295D01*
X71809523Y-39245295D02*
X71857142Y-39435771D01*
X71857142Y-39435771D02*
X71857142Y-39673866D01*
X71857142Y-39673866D02*
X71809523Y-39864342D01*
X71809523Y-39864342D02*
X71761904Y-39959580D01*
X71761904Y-39959580D02*
X71714285Y-40007200D01*
X71714285Y-40007200D02*
X71619047Y-40054819D01*
X71619047Y-40054819D02*
X71523809Y-40054819D01*
X71523809Y-40054819D02*
X71428571Y-40007200D01*
X71428571Y-40007200D02*
X71380952Y-39959580D01*
X71380952Y-39959580D02*
X71333333Y-39864342D01*
X71333333Y-39864342D02*
X71285714Y-39673866D01*
X71285714Y-39673866D02*
X71285714Y-39435771D01*
X71285714Y-39435771D02*
X71333333Y-39245295D01*
X71333333Y-39245295D02*
X71380952Y-39150057D01*
X71380952Y-39150057D02*
X71428571Y-39102438D01*
X71428571Y-39102438D02*
X71523809Y-39054819D01*
X73476190Y-39054819D02*
X73285714Y-39054819D01*
X73285714Y-39054819D02*
X73190476Y-39102438D01*
X73190476Y-39102438D02*
X73142857Y-39150057D01*
X73142857Y-39150057D02*
X73047619Y-39292914D01*
X73047619Y-39292914D02*
X73000000Y-39483390D01*
X73000000Y-39483390D02*
X73000000Y-39864342D01*
X73000000Y-39864342D02*
X73047619Y-39959580D01*
X73047619Y-39959580D02*
X73095238Y-40007200D01*
X73095238Y-40007200D02*
X73190476Y-40054819D01*
X73190476Y-40054819D02*
X73380952Y-40054819D01*
X73380952Y-40054819D02*
X73476190Y-40007200D01*
X73476190Y-40007200D02*
X73523809Y-39959580D01*
X73523809Y-39959580D02*
X73571428Y-39864342D01*
X73571428Y-39864342D02*
X73571428Y-39626247D01*
X73571428Y-39626247D02*
X73523809Y-39531009D01*
X73523809Y-39531009D02*
X73476190Y-39483390D01*
X73476190Y-39483390D02*
X73380952Y-39435771D01*
X73380952Y-39435771D02*
X73190476Y-39435771D01*
X73190476Y-39435771D02*
X73095238Y-39483390D01*
X73095238Y-39483390D02*
X73047619Y-39531009D01*
X73047619Y-39531009D02*
X73000000Y-39626247D01*
X74476190Y-39054819D02*
X74000000Y-39054819D01*
X74000000Y-39054819D02*
X73952381Y-39531009D01*
X73952381Y-39531009D02*
X74000000Y-39483390D01*
X74000000Y-39483390D02*
X74095238Y-39435771D01*
X74095238Y-39435771D02*
X74333333Y-39435771D01*
X74333333Y-39435771D02*
X74428571Y-39483390D01*
X74428571Y-39483390D02*
X74476190Y-39531009D01*
X74476190Y-39531009D02*
X74523809Y-39626247D01*
X74523809Y-39626247D02*
X74523809Y-39864342D01*
X74523809Y-39864342D02*
X74476190Y-39959580D01*
X74476190Y-39959580D02*
X74428571Y-40007200D01*
X74428571Y-40007200D02*
X74333333Y-40054819D01*
X74333333Y-40054819D02*
X74095238Y-40054819D01*
X74095238Y-40054819D02*
X74000000Y-40007200D01*
X74000000Y-40007200D02*
X73952381Y-39959580D01*
X74952381Y-39054819D02*
X76047619Y-39054819D01*
X75047619Y-39292914D02*
X76000000Y-39292914D01*
X75285714Y-39531009D02*
X75761905Y-39531009D01*
X75285714Y-39150057D02*
X75285714Y-39531009D01*
X75476190Y-38911961D02*
X75476190Y-39054819D01*
X75761905Y-39150057D02*
X75761905Y-39531009D01*
X74952381Y-39054819D02*
X74952381Y-39673866D01*
X74952381Y-39673866D02*
X74857143Y-40007200D01*
X75238095Y-39721485D02*
X75380952Y-39864342D01*
X75380952Y-39864342D02*
X75571428Y-39959580D01*
X75571428Y-39959580D02*
X76047619Y-40054819D01*
X75095238Y-39673866D02*
X75904762Y-39673866D01*
X75904762Y-39673866D02*
X75761905Y-39864342D01*
X75761905Y-39864342D02*
X75571428Y-39959580D01*
X75571428Y-39959580D02*
X75095238Y-40054819D01*
X77047619Y-39150057D02*
X77047619Y-39340533D01*
X77142857Y-39721485D02*
X77142857Y-40007200D01*
X77190476Y-38959580D02*
X77333333Y-39054819D01*
X77285714Y-39531009D02*
X78047619Y-39531009D01*
X77285714Y-39292914D02*
X77285714Y-39531009D01*
X77666666Y-39531009D02*
X77666666Y-40054819D01*
X77666666Y-38911961D02*
X77666666Y-39150057D01*
X78142857Y-38959580D02*
X78000000Y-39054819D01*
X77047619Y-39150057D02*
X78285714Y-39150057D01*
X78285714Y-39150057D02*
X78285714Y-39340533D01*
X77285714Y-39292914D02*
X78047619Y-39292914D01*
X78047619Y-39292914D02*
X78047619Y-39531009D01*
X77142857Y-39721485D02*
X78190476Y-39721485D01*
X78190476Y-39721485D02*
X78190476Y-40007200D01*
X78190476Y-40007200D02*
X77952381Y-40007200D01*
X78523809Y-39197676D02*
X78523809Y-40054819D01*
X78571428Y-38959580D02*
X78714285Y-39102438D01*
X78761904Y-39340533D02*
X79571428Y-39340533D01*
X79047618Y-39959580D02*
X79285713Y-39959580D01*
X79333332Y-39150057D02*
X79333332Y-39911961D01*
X79571428Y-40054819D02*
X79761904Y-40054819D01*
X78952380Y-39007200D02*
X79761904Y-39007200D01*
X79761904Y-39007200D02*
X79761904Y-40054819D01*
X79333332Y-39340533D02*
X78999999Y-39626247D01*
X78999999Y-39626247D02*
X78666666Y-39816723D01*
X71690476Y-28359580D02*
X71642857Y-28407200D01*
X71642857Y-28407200D02*
X71500000Y-28454819D01*
X71500000Y-28454819D02*
X71404762Y-28454819D01*
X71404762Y-28454819D02*
X71261905Y-28407200D01*
X71261905Y-28407200D02*
X71166667Y-28311961D01*
X71166667Y-28311961D02*
X71119048Y-28216723D01*
X71119048Y-28216723D02*
X71071429Y-28026247D01*
X71071429Y-28026247D02*
X71071429Y-27883390D01*
X71071429Y-27883390D02*
X71119048Y-27692914D01*
X71119048Y-27692914D02*
X71166667Y-27597676D01*
X71166667Y-27597676D02*
X71261905Y-27502438D01*
X71261905Y-27502438D02*
X71404762Y-27454819D01*
X71404762Y-27454819D02*
X71500000Y-27454819D01*
X71500000Y-27454819D02*
X71642857Y-27502438D01*
X71642857Y-27502438D02*
X71690476Y-27550057D01*
X72119048Y-28454819D02*
X72119048Y-27454819D01*
X72119048Y-27931009D02*
X72690476Y-27931009D01*
X72690476Y-28454819D02*
X72690476Y-27454819D01*
X73357143Y-27454819D02*
X73452381Y-27454819D01*
X73452381Y-27454819D02*
X73547619Y-27502438D01*
X73547619Y-27502438D02*
X73595238Y-27550057D01*
X73595238Y-27550057D02*
X73642857Y-27645295D01*
X73642857Y-27645295D02*
X73690476Y-27835771D01*
X73690476Y-27835771D02*
X73690476Y-28073866D01*
X73690476Y-28073866D02*
X73642857Y-28264342D01*
X73642857Y-28264342D02*
X73595238Y-28359580D01*
X73595238Y-28359580D02*
X73547619Y-28407200D01*
X73547619Y-28407200D02*
X73452381Y-28454819D01*
X73452381Y-28454819D02*
X73357143Y-28454819D01*
X73357143Y-28454819D02*
X73261905Y-28407200D01*
X73261905Y-28407200D02*
X73214286Y-28359580D01*
X73214286Y-28359580D02*
X73166667Y-28264342D01*
X73166667Y-28264342D02*
X73119048Y-28073866D01*
X73119048Y-28073866D02*
X73119048Y-27835771D01*
X73119048Y-27835771D02*
X73166667Y-27645295D01*
X73166667Y-27645295D02*
X73214286Y-27550057D01*
X73214286Y-27550057D02*
X73261905Y-27502438D01*
X73261905Y-27502438D02*
X73357143Y-27454819D01*
X74785715Y-27597676D02*
X75976191Y-27597676D01*
X74976191Y-28454819D02*
X75976191Y-28454819D01*
X75119048Y-27931009D02*
X75880953Y-27931009D01*
X75500000Y-27931009D02*
X75500000Y-28454819D01*
X75214286Y-27359580D02*
X75119048Y-27883390D01*
X75119048Y-27883390D02*
X74928572Y-28216723D01*
X74928572Y-28216723D02*
X74738096Y-28407200D01*
X80419048Y-11493866D02*
X81180953Y-11493866D01*
X80419048Y-16573866D02*
X81180953Y-16573866D01*
X80800000Y-16954819D02*
X80800000Y-16192914D01*
X79190476Y-32359580D02*
X79142857Y-32407200D01*
X79142857Y-32407200D02*
X79000000Y-32454819D01*
X79000000Y-32454819D02*
X78904762Y-32454819D01*
X78904762Y-32454819D02*
X78761905Y-32407200D01*
X78761905Y-32407200D02*
X78666667Y-32311961D01*
X78666667Y-32311961D02*
X78619048Y-32216723D01*
X78619048Y-32216723D02*
X78571429Y-32026247D01*
X78571429Y-32026247D02*
X78571429Y-31883390D01*
X78571429Y-31883390D02*
X78619048Y-31692914D01*
X78619048Y-31692914D02*
X78666667Y-31597676D01*
X78666667Y-31597676D02*
X78761905Y-31502438D01*
X78761905Y-31502438D02*
X78904762Y-31454819D01*
X78904762Y-31454819D02*
X79000000Y-31454819D01*
X79000000Y-31454819D02*
X79142857Y-31502438D01*
X79142857Y-31502438D02*
X79190476Y-31550057D01*
X79619048Y-32454819D02*
X79619048Y-31454819D01*
X79619048Y-31931009D02*
X80190476Y-31931009D01*
X80190476Y-32454819D02*
X80190476Y-31454819D01*
X81190476Y-32454819D02*
X80619048Y-32454819D01*
X80904762Y-32454819D02*
X80904762Y-31454819D01*
X80904762Y-31454819D02*
X80809524Y-31597676D01*
X80809524Y-31597676D02*
X80714286Y-31692914D01*
X80714286Y-31692914D02*
X80619048Y-31740533D01*
X82285715Y-31597676D02*
X83476191Y-31597676D01*
X82571429Y-32407200D02*
X83380953Y-32407200D01*
X82571429Y-31883390D02*
X82571429Y-32454819D01*
X82571429Y-31835771D02*
X82238096Y-32169104D01*
X82809524Y-31407200D02*
X82523810Y-31931009D01*
X82523810Y-31931009D02*
X83380953Y-31931009D01*
X83380953Y-31931009D02*
X83380953Y-32454819D01*
X33045000Y-20549819D02*
X33045000Y-21359342D01*
X33045000Y-21359342D02*
X33092619Y-21454580D01*
X33092619Y-21454580D02*
X33140238Y-21502200D01*
X33140238Y-21502200D02*
X33235476Y-21549819D01*
X33235476Y-21549819D02*
X33425952Y-21549819D01*
X33425952Y-21549819D02*
X33521190Y-21502200D01*
X33521190Y-21502200D02*
X33568809Y-21454580D01*
X33568809Y-21454580D02*
X33616428Y-21359342D01*
X33616428Y-21359342D02*
X33616428Y-20549819D01*
X33854524Y-21645057D02*
X34616428Y-21645057D01*
X34854524Y-21026009D02*
X35187857Y-21026009D01*
X35330714Y-21549819D02*
X34854524Y-21549819D01*
X34854524Y-21549819D02*
X34854524Y-20549819D01*
X34854524Y-20549819D02*
X35330714Y-20549819D01*
X36092619Y-21026009D02*
X35759286Y-21026009D01*
X35759286Y-21549819D02*
X35759286Y-20549819D01*
X35759286Y-20549819D02*
X36235476Y-20549819D01*
X36616429Y-20549819D02*
X36616429Y-21359342D01*
X36616429Y-21359342D02*
X36664048Y-21454580D01*
X36664048Y-21454580D02*
X36711667Y-21502200D01*
X36711667Y-21502200D02*
X36806905Y-21549819D01*
X36806905Y-21549819D02*
X36997381Y-21549819D01*
X36997381Y-21549819D02*
X37092619Y-21502200D01*
X37092619Y-21502200D02*
X37140238Y-21454580D01*
X37140238Y-21454580D02*
X37187857Y-21359342D01*
X37187857Y-21359342D02*
X37187857Y-20549819D01*
X37616429Y-21502200D02*
X37759286Y-21549819D01*
X37759286Y-21549819D02*
X37997381Y-21549819D01*
X37997381Y-21549819D02*
X38092619Y-21502200D01*
X38092619Y-21502200D02*
X38140238Y-21454580D01*
X38140238Y-21454580D02*
X38187857Y-21359342D01*
X38187857Y-21359342D02*
X38187857Y-21264104D01*
X38187857Y-21264104D02*
X38140238Y-21168866D01*
X38140238Y-21168866D02*
X38092619Y-21121247D01*
X38092619Y-21121247D02*
X37997381Y-21073628D01*
X37997381Y-21073628D02*
X37806905Y-21026009D01*
X37806905Y-21026009D02*
X37711667Y-20978390D01*
X37711667Y-20978390D02*
X37664048Y-20930771D01*
X37664048Y-20930771D02*
X37616429Y-20835533D01*
X37616429Y-20835533D02*
X37616429Y-20740295D01*
X37616429Y-20740295D02*
X37664048Y-20645057D01*
X37664048Y-20645057D02*
X37711667Y-20597438D01*
X37711667Y-20597438D02*
X37806905Y-20549819D01*
X37806905Y-20549819D02*
X38045000Y-20549819D01*
X38045000Y-20549819D02*
X38187857Y-20597438D01*
X38616429Y-21026009D02*
X38949762Y-21026009D01*
X39092619Y-21549819D02*
X38616429Y-21549819D01*
X38616429Y-21549819D02*
X38616429Y-20549819D01*
X38616429Y-20549819D02*
X39092619Y-20549819D01*
X20974912Y-43301090D02*
X21546340Y-43301090D01*
X21260626Y-44301090D02*
X21260626Y-43301090D01*
X21879674Y-44301090D02*
X21879674Y-43301090D01*
X21879674Y-43301090D02*
X22260626Y-43301090D01*
X22260626Y-43301090D02*
X22355864Y-43348709D01*
X22355864Y-43348709D02*
X22403483Y-43396328D01*
X22403483Y-43396328D02*
X22451102Y-43491566D01*
X22451102Y-43491566D02*
X22451102Y-43634423D01*
X22451102Y-43634423D02*
X22403483Y-43729661D01*
X22403483Y-43729661D02*
X22355864Y-43777280D01*
X22355864Y-43777280D02*
X22260626Y-43824899D01*
X22260626Y-43824899D02*
X21879674Y-43824899D01*
X22641579Y-44396328D02*
X23403483Y-44396328D01*
X23498722Y-43301090D02*
X24070150Y-43301090D01*
X23784436Y-44301090D02*
X23784436Y-43301090D01*
X24308246Y-43301090D02*
X24974912Y-44301090D01*
X24974912Y-43301090D02*
X24308246Y-44301090D01*
X85239359Y-9552345D02*
X85239359Y-8552345D01*
X85239359Y-9028535D02*
X85810787Y-9028535D01*
X85810787Y-9552345D02*
X85810787Y-8552345D01*
X86191740Y-8552345D02*
X86810787Y-8552345D01*
X86810787Y-8552345D02*
X86477454Y-8933297D01*
X86477454Y-8933297D02*
X86620311Y-8933297D01*
X86620311Y-8933297D02*
X86715549Y-8980916D01*
X86715549Y-8980916D02*
X86763168Y-9028535D01*
X86763168Y-9028535D02*
X86810787Y-9123773D01*
X86810787Y-9123773D02*
X86810787Y-9361868D01*
X86810787Y-9361868D02*
X86763168Y-9457106D01*
X86763168Y-9457106D02*
X86715549Y-9504726D01*
X86715549Y-9504726D02*
X86620311Y-9552345D01*
X86620311Y-9552345D02*
X86334597Y-9552345D01*
X86334597Y-9552345D02*
X86239359Y-9504726D01*
X86239359Y-9504726D02*
X86191740Y-9457106D01*
X20896903Y-10269819D02*
X20896903Y-10984104D01*
X20896903Y-10984104D02*
X20849284Y-11126961D01*
X20849284Y-11126961D02*
X20754046Y-11222200D01*
X20754046Y-11222200D02*
X20611189Y-11269819D01*
X20611189Y-11269819D02*
X20515951Y-11269819D01*
X21134999Y-11365057D02*
X21896903Y-11365057D01*
X22134999Y-10269819D02*
X22134999Y-11079342D01*
X22134999Y-11079342D02*
X22182618Y-11174580D01*
X22182618Y-11174580D02*
X22230237Y-11222200D01*
X22230237Y-11222200D02*
X22325475Y-11269819D01*
X22325475Y-11269819D02*
X22515951Y-11269819D01*
X22515951Y-11269819D02*
X22611189Y-11222200D01*
X22611189Y-11222200D02*
X22658808Y-11174580D01*
X22658808Y-11174580D02*
X22706427Y-11079342D01*
X22706427Y-11079342D02*
X22706427Y-10269819D01*
X23134999Y-11222200D02*
X23277856Y-11269819D01*
X23277856Y-11269819D02*
X23515951Y-11269819D01*
X23515951Y-11269819D02*
X23611189Y-11222200D01*
X23611189Y-11222200D02*
X23658808Y-11174580D01*
X23658808Y-11174580D02*
X23706427Y-11079342D01*
X23706427Y-11079342D02*
X23706427Y-10984104D01*
X23706427Y-10984104D02*
X23658808Y-10888866D01*
X23658808Y-10888866D02*
X23611189Y-10841247D01*
X23611189Y-10841247D02*
X23515951Y-10793628D01*
X23515951Y-10793628D02*
X23325475Y-10746009D01*
X23325475Y-10746009D02*
X23230237Y-10698390D01*
X23230237Y-10698390D02*
X23182618Y-10650771D01*
X23182618Y-10650771D02*
X23134999Y-10555533D01*
X23134999Y-10555533D02*
X23134999Y-10460295D01*
X23134999Y-10460295D02*
X23182618Y-10365057D01*
X23182618Y-10365057D02*
X23230237Y-10317438D01*
X23230237Y-10317438D02*
X23325475Y-10269819D01*
X23325475Y-10269819D02*
X23563570Y-10269819D01*
X23563570Y-10269819D02*
X23706427Y-10317438D01*
X24468332Y-10746009D02*
X24611189Y-10793628D01*
X24611189Y-10793628D02*
X24658808Y-10841247D01*
X24658808Y-10841247D02*
X24706427Y-10936485D01*
X24706427Y-10936485D02*
X24706427Y-11079342D01*
X24706427Y-11079342D02*
X24658808Y-11174580D01*
X24658808Y-11174580D02*
X24611189Y-11222200D01*
X24611189Y-11222200D02*
X24515951Y-11269819D01*
X24515951Y-11269819D02*
X24134999Y-11269819D01*
X24134999Y-11269819D02*
X24134999Y-10269819D01*
X24134999Y-10269819D02*
X24468332Y-10269819D01*
X24468332Y-10269819D02*
X24563570Y-10317438D01*
X24563570Y-10317438D02*
X24611189Y-10365057D01*
X24611189Y-10365057D02*
X24658808Y-10460295D01*
X24658808Y-10460295D02*
X24658808Y-10555533D01*
X24658808Y-10555533D02*
X24611189Y-10650771D01*
X24611189Y-10650771D02*
X24563570Y-10698390D01*
X24563570Y-10698390D02*
X24468332Y-10746009D01*
X24468332Y-10746009D02*
X24134999Y-10746009D01*
X21763095Y-29454819D02*
X21763095Y-30264342D01*
X21763095Y-30264342D02*
X21810714Y-30359580D01*
X21810714Y-30359580D02*
X21858333Y-30407200D01*
X21858333Y-30407200D02*
X21953571Y-30454819D01*
X21953571Y-30454819D02*
X22144047Y-30454819D01*
X22144047Y-30454819D02*
X22239285Y-30407200D01*
X22239285Y-30407200D02*
X22286904Y-30359580D01*
X22286904Y-30359580D02*
X22334523Y-30264342D01*
X22334523Y-30264342D02*
X22334523Y-29454819D01*
X23334523Y-30454819D02*
X22763095Y-30454819D01*
X23048809Y-30454819D02*
X23048809Y-29454819D01*
X23048809Y-29454819D02*
X22953571Y-29597676D01*
X22953571Y-29597676D02*
X22858333Y-29692914D01*
X22858333Y-29692914D02*
X22763095Y-29740533D01*
X79445625Y-56454819D02*
X79445625Y-55454819D01*
X79445625Y-55931009D02*
X80017053Y-55931009D01*
X80017053Y-56454819D02*
X80017053Y-55454819D01*
X80921815Y-55788152D02*
X80921815Y-56454819D01*
X80683720Y-55407200D02*
X80445625Y-56121485D01*
X80445625Y-56121485D02*
X81064672Y-56121485D01*
X81926189Y-49709818D02*
X81926189Y-50424103D01*
X81926189Y-50424103D02*
X81878570Y-50566960D01*
X81878570Y-50566960D02*
X81783332Y-50662199D01*
X81783332Y-50662199D02*
X81640475Y-50709818D01*
X81640475Y-50709818D02*
X81545237Y-50709818D01*
X82164285Y-50805056D02*
X82926189Y-50805056D01*
X83164285Y-50709818D02*
X83164285Y-49709818D01*
X83164285Y-50186008D02*
X83735713Y-50186008D01*
X83735713Y-50709818D02*
X83735713Y-49709818D01*
X84211904Y-50186008D02*
X84545237Y-50186008D01*
X84688094Y-50709818D02*
X84211904Y-50709818D01*
X84211904Y-50709818D02*
X84211904Y-49709818D01*
X84211904Y-49709818D02*
X84688094Y-49709818D01*
X85069047Y-50424103D02*
X85545237Y-50424103D01*
X84973809Y-50709818D02*
X85307142Y-49709818D01*
X85307142Y-49709818D02*
X85640475Y-50709818D01*
X85830952Y-49709818D02*
X86402380Y-49709818D01*
X86116666Y-50709818D02*
X86116666Y-49709818D01*
X55334523Y-16095057D02*
X55239285Y-16047438D01*
X55239285Y-16047438D02*
X55144047Y-15952200D01*
X55144047Y-15952200D02*
X55001190Y-15809342D01*
X55001190Y-15809342D02*
X54905952Y-15761723D01*
X54905952Y-15761723D02*
X54810714Y-15761723D01*
X54858333Y-15999819D02*
X54763095Y-15952200D01*
X54763095Y-15952200D02*
X54667857Y-15856961D01*
X54667857Y-15856961D02*
X54620238Y-15666485D01*
X54620238Y-15666485D02*
X54620238Y-15333152D01*
X54620238Y-15333152D02*
X54667857Y-15142676D01*
X54667857Y-15142676D02*
X54763095Y-15047438D01*
X54763095Y-15047438D02*
X54858333Y-14999819D01*
X54858333Y-14999819D02*
X55048809Y-14999819D01*
X55048809Y-14999819D02*
X55144047Y-15047438D01*
X55144047Y-15047438D02*
X55239285Y-15142676D01*
X55239285Y-15142676D02*
X55286904Y-15333152D01*
X55286904Y-15333152D02*
X55286904Y-15666485D01*
X55286904Y-15666485D02*
X55239285Y-15856961D01*
X55239285Y-15856961D02*
X55144047Y-15952200D01*
X55144047Y-15952200D02*
X55048809Y-15999819D01*
X55048809Y-15999819D02*
X54858333Y-15999819D01*
X55477381Y-16095057D02*
X56239285Y-16095057D01*
X56953571Y-15999819D02*
X56477381Y-15999819D01*
X56477381Y-15999819D02*
X56477381Y-14999819D01*
X57858333Y-15904580D02*
X57810714Y-15952200D01*
X57810714Y-15952200D02*
X57667857Y-15999819D01*
X57667857Y-15999819D02*
X57572619Y-15999819D01*
X57572619Y-15999819D02*
X57429762Y-15952200D01*
X57429762Y-15952200D02*
X57334524Y-15856961D01*
X57334524Y-15856961D02*
X57286905Y-15761723D01*
X57286905Y-15761723D02*
X57239286Y-15571247D01*
X57239286Y-15571247D02*
X57239286Y-15428390D01*
X57239286Y-15428390D02*
X57286905Y-15237914D01*
X57286905Y-15237914D02*
X57334524Y-15142676D01*
X57334524Y-15142676D02*
X57429762Y-15047438D01*
X57429762Y-15047438D02*
X57572619Y-14999819D01*
X57572619Y-14999819D02*
X57667857Y-14999819D01*
X57667857Y-14999819D02*
X57810714Y-15047438D01*
X57810714Y-15047438D02*
X57858333Y-15095057D01*
X58286905Y-15999819D02*
X58286905Y-14999819D01*
X58286905Y-14999819D02*
X58525000Y-14999819D01*
X58525000Y-14999819D02*
X58667857Y-15047438D01*
X58667857Y-15047438D02*
X58763095Y-15142676D01*
X58763095Y-15142676D02*
X58810714Y-15237914D01*
X58810714Y-15237914D02*
X58858333Y-15428390D01*
X58858333Y-15428390D02*
X58858333Y-15571247D01*
X58858333Y-15571247D02*
X58810714Y-15761723D01*
X58810714Y-15761723D02*
X58763095Y-15856961D01*
X58763095Y-15856961D02*
X58667857Y-15952200D01*
X58667857Y-15952200D02*
X58525000Y-15999819D01*
X58525000Y-15999819D02*
X58286905Y-15999819D01*
X59048810Y-16095057D02*
X59810714Y-16095057D01*
X60382143Y-15476009D02*
X60525000Y-15523628D01*
X60525000Y-15523628D02*
X60572619Y-15571247D01*
X60572619Y-15571247D02*
X60620238Y-15666485D01*
X60620238Y-15666485D02*
X60620238Y-15809342D01*
X60620238Y-15809342D02*
X60572619Y-15904580D01*
X60572619Y-15904580D02*
X60525000Y-15952200D01*
X60525000Y-15952200D02*
X60429762Y-15999819D01*
X60429762Y-15999819D02*
X60048810Y-15999819D01*
X60048810Y-15999819D02*
X60048810Y-14999819D01*
X60048810Y-14999819D02*
X60382143Y-14999819D01*
X60382143Y-14999819D02*
X60477381Y-15047438D01*
X60477381Y-15047438D02*
X60525000Y-15095057D01*
X60525000Y-15095057D02*
X60572619Y-15190295D01*
X60572619Y-15190295D02*
X60572619Y-15285533D01*
X60572619Y-15285533D02*
X60525000Y-15380771D01*
X60525000Y-15380771D02*
X60477381Y-15428390D01*
X60477381Y-15428390D02*
X60382143Y-15476009D01*
X60382143Y-15476009D02*
X60048810Y-15476009D01*
X61525000Y-15999819D02*
X61048810Y-15999819D01*
X61048810Y-15999819D02*
X61048810Y-14999819D01*
X61629762Y-47454819D02*
X61629762Y-48264342D01*
X61629762Y-48264342D02*
X61677381Y-48359580D01*
X61677381Y-48359580D02*
X61725000Y-48407200D01*
X61725000Y-48407200D02*
X61820238Y-48454819D01*
X61820238Y-48454819D02*
X62010714Y-48454819D01*
X62010714Y-48454819D02*
X62105952Y-48407200D01*
X62105952Y-48407200D02*
X62153571Y-48359580D01*
X62153571Y-48359580D02*
X62201190Y-48264342D01*
X62201190Y-48264342D02*
X62201190Y-47454819D01*
X62439286Y-48550057D02*
X63201190Y-48550057D01*
X63391667Y-48169104D02*
X63867857Y-48169104D01*
X63296429Y-48454819D02*
X63629762Y-47454819D01*
X63629762Y-47454819D02*
X63963095Y-48454819D01*
X64296429Y-48454819D02*
X64296429Y-47454819D01*
X64296429Y-47454819D02*
X64534524Y-47454819D01*
X64534524Y-47454819D02*
X64677381Y-47502438D01*
X64677381Y-47502438D02*
X64772619Y-47597676D01*
X64772619Y-47597676D02*
X64820238Y-47692914D01*
X64820238Y-47692914D02*
X64867857Y-47883390D01*
X64867857Y-47883390D02*
X64867857Y-48026247D01*
X64867857Y-48026247D02*
X64820238Y-48216723D01*
X64820238Y-48216723D02*
X64772619Y-48311961D01*
X64772619Y-48311961D02*
X64677381Y-48407200D01*
X64677381Y-48407200D02*
X64534524Y-48454819D01*
X64534524Y-48454819D02*
X64296429Y-48454819D01*
X65867857Y-48359580D02*
X65820238Y-48407200D01*
X65820238Y-48407200D02*
X65677381Y-48454819D01*
X65677381Y-48454819D02*
X65582143Y-48454819D01*
X65582143Y-48454819D02*
X65439286Y-48407200D01*
X65439286Y-48407200D02*
X65344048Y-48311961D01*
X65344048Y-48311961D02*
X65296429Y-48216723D01*
X65296429Y-48216723D02*
X65248810Y-48026247D01*
X65248810Y-48026247D02*
X65248810Y-47883390D01*
X65248810Y-47883390D02*
X65296429Y-47692914D01*
X65296429Y-47692914D02*
X65344048Y-47597676D01*
X65344048Y-47597676D02*
X65439286Y-47502438D01*
X65439286Y-47502438D02*
X65582143Y-47454819D01*
X65582143Y-47454819D02*
X65677381Y-47454819D01*
X65677381Y-47454819D02*
X65820238Y-47502438D01*
X65820238Y-47502438D02*
X65867857Y-47550057D01*
X44000000Y-25959819D02*
X44000000Y-26769342D01*
X44000000Y-26769342D02*
X44047619Y-26864580D01*
X44047619Y-26864580D02*
X44095238Y-26912200D01*
X44095238Y-26912200D02*
X44190476Y-26959819D01*
X44190476Y-26959819D02*
X44380952Y-26959819D01*
X44380952Y-26959819D02*
X44476190Y-26912200D01*
X44476190Y-26912200D02*
X44523809Y-26864580D01*
X44523809Y-26864580D02*
X44571428Y-26769342D01*
X44571428Y-26769342D02*
X44571428Y-25959819D01*
X44809524Y-27055057D02*
X45571428Y-27055057D01*
X45809524Y-26959819D02*
X45809524Y-25959819D01*
X46285714Y-26959819D02*
X46285714Y-25959819D01*
X46285714Y-25959819D02*
X46619047Y-26674104D01*
X46619047Y-26674104D02*
X46952380Y-25959819D01*
X46952380Y-25959819D02*
X46952380Y-26959819D01*
X47428571Y-25959819D02*
X47428571Y-26769342D01*
X47428571Y-26769342D02*
X47476190Y-26864580D01*
X47476190Y-26864580D02*
X47523809Y-26912200D01*
X47523809Y-26912200D02*
X47619047Y-26959819D01*
X47619047Y-26959819D02*
X47809523Y-26959819D01*
X47809523Y-26959819D02*
X47904761Y-26912200D01*
X47904761Y-26912200D02*
X47952380Y-26864580D01*
X47952380Y-26864580D02*
X47999999Y-26769342D01*
X47999999Y-26769342D02*
X47999999Y-25959819D01*
X34436904Y-1556008D02*
X34103571Y-1556008D01*
X34103571Y-2079818D02*
X34103571Y-1079818D01*
X34103571Y-1079818D02*
X34579761Y-1079818D01*
X34722619Y-2175056D02*
X35484523Y-2175056D01*
X35722619Y-1079818D02*
X35722619Y-1889341D01*
X35722619Y-1889341D02*
X35770238Y-1984579D01*
X35770238Y-1984579D02*
X35817857Y-2032199D01*
X35817857Y-2032199D02*
X35913095Y-2079818D01*
X35913095Y-2079818D02*
X36103571Y-2079818D01*
X36103571Y-2079818D02*
X36198809Y-2032199D01*
X36198809Y-2032199D02*
X36246428Y-1984579D01*
X36246428Y-1984579D02*
X36294047Y-1889341D01*
X36294047Y-1889341D02*
X36294047Y-1079818D01*
X36722619Y-2032199D02*
X36865476Y-2079818D01*
X36865476Y-2079818D02*
X37103571Y-2079818D01*
X37103571Y-2079818D02*
X37198809Y-2032199D01*
X37198809Y-2032199D02*
X37246428Y-1984579D01*
X37246428Y-1984579D02*
X37294047Y-1889341D01*
X37294047Y-1889341D02*
X37294047Y-1794103D01*
X37294047Y-1794103D02*
X37246428Y-1698865D01*
X37246428Y-1698865D02*
X37198809Y-1651246D01*
X37198809Y-1651246D02*
X37103571Y-1603627D01*
X37103571Y-1603627D02*
X36913095Y-1556008D01*
X36913095Y-1556008D02*
X36817857Y-1508389D01*
X36817857Y-1508389D02*
X36770238Y-1460770D01*
X36770238Y-1460770D02*
X36722619Y-1365532D01*
X36722619Y-1365532D02*
X36722619Y-1270294D01*
X36722619Y-1270294D02*
X36770238Y-1175056D01*
X36770238Y-1175056D02*
X36817857Y-1127437D01*
X36817857Y-1127437D02*
X36913095Y-1079818D01*
X36913095Y-1079818D02*
X37151190Y-1079818D01*
X37151190Y-1079818D02*
X37294047Y-1127437D01*
X38055952Y-1556008D02*
X38198809Y-1603627D01*
X38198809Y-1603627D02*
X38246428Y-1651246D01*
X38246428Y-1651246D02*
X38294047Y-1746484D01*
X38294047Y-1746484D02*
X38294047Y-1889341D01*
X38294047Y-1889341D02*
X38246428Y-1984579D01*
X38246428Y-1984579D02*
X38198809Y-2032199D01*
X38198809Y-2032199D02*
X38103571Y-2079818D01*
X38103571Y-2079818D02*
X37722619Y-2079818D01*
X37722619Y-2079818D02*
X37722619Y-1079818D01*
X37722619Y-1079818D02*
X38055952Y-1079818D01*
X38055952Y-1079818D02*
X38151190Y-1127437D01*
X38151190Y-1127437D02*
X38198809Y-1175056D01*
X38198809Y-1175056D02*
X38246428Y-1270294D01*
X38246428Y-1270294D02*
X38246428Y-1365532D01*
X38246428Y-1365532D02*
X38198809Y-1460770D01*
X38198809Y-1460770D02*
X38151190Y-1508389D01*
X38151190Y-1508389D02*
X38055952Y-1556008D01*
X38055952Y-1556008D02*
X37722619Y-1556008D01*
X39654828Y-8358545D02*
X40226256Y-8358545D01*
X39940542Y-9358545D02*
X39940542Y-8358545D01*
X40559590Y-9358545D02*
X40559590Y-8358545D01*
X40559590Y-8358545D02*
X40940542Y-8358545D01*
X40940542Y-8358545D02*
X41035780Y-8406164D01*
X41035780Y-8406164D02*
X41083399Y-8453783D01*
X41083399Y-8453783D02*
X41131018Y-8549021D01*
X41131018Y-8549021D02*
X41131018Y-8691878D01*
X41131018Y-8691878D02*
X41083399Y-8787116D01*
X41083399Y-8787116D02*
X41035780Y-8834735D01*
X41035780Y-8834735D02*
X40940542Y-8882354D01*
X40940542Y-8882354D02*
X40559590Y-8882354D01*
X41321495Y-9453783D02*
X42083399Y-9453783D01*
X42226257Y-8358545D02*
X42845304Y-8358545D01*
X42845304Y-8358545D02*
X42511971Y-8739497D01*
X42511971Y-8739497D02*
X42654828Y-8739497D01*
X42654828Y-8739497D02*
X42750066Y-8787116D01*
X42750066Y-8787116D02*
X42797685Y-8834735D01*
X42797685Y-8834735D02*
X42845304Y-8929973D01*
X42845304Y-8929973D02*
X42845304Y-9168068D01*
X42845304Y-9168068D02*
X42797685Y-9263306D01*
X42797685Y-9263306D02*
X42750066Y-9310926D01*
X42750066Y-9310926D02*
X42654828Y-9358545D01*
X42654828Y-9358545D02*
X42369114Y-9358545D01*
X42369114Y-9358545D02*
X42273876Y-9310926D01*
X42273876Y-9310926D02*
X42226257Y-9263306D01*
X43131019Y-8358545D02*
X43464352Y-9358545D01*
X43464352Y-9358545D02*
X43797685Y-8358545D01*
X44035781Y-8358545D02*
X44654828Y-8358545D01*
X44654828Y-8358545D02*
X44321495Y-8739497D01*
X44321495Y-8739497D02*
X44464352Y-8739497D01*
X44464352Y-8739497D02*
X44559590Y-8787116D01*
X44559590Y-8787116D02*
X44607209Y-8834735D01*
X44607209Y-8834735D02*
X44654828Y-8929973D01*
X44654828Y-8929973D02*
X44654828Y-9168068D01*
X44654828Y-9168068D02*
X44607209Y-9263306D01*
X44607209Y-9263306D02*
X44559590Y-9310926D01*
X44559590Y-9310926D02*
X44464352Y-9358545D01*
X44464352Y-9358545D02*
X44178638Y-9358545D01*
X44178638Y-9358545D02*
X44083400Y-9310926D01*
X44083400Y-9310926D02*
X44035781Y-9263306D01*
X46506904Y-47419819D02*
X46506904Y-48134104D01*
X46506904Y-48134104D02*
X46459285Y-48276961D01*
X46459285Y-48276961D02*
X46364047Y-48372200D01*
X46364047Y-48372200D02*
X46221190Y-48419819D01*
X46221190Y-48419819D02*
X46125952Y-48419819D01*
X46745000Y-48515057D02*
X47506904Y-48515057D01*
X48316428Y-48324580D02*
X48268809Y-48372200D01*
X48268809Y-48372200D02*
X48125952Y-48419819D01*
X48125952Y-48419819D02*
X48030714Y-48419819D01*
X48030714Y-48419819D02*
X47887857Y-48372200D01*
X47887857Y-48372200D02*
X47792619Y-48276961D01*
X47792619Y-48276961D02*
X47745000Y-48181723D01*
X47745000Y-48181723D02*
X47697381Y-47991247D01*
X47697381Y-47991247D02*
X47697381Y-47848390D01*
X47697381Y-47848390D02*
X47745000Y-47657914D01*
X47745000Y-47657914D02*
X47792619Y-47562676D01*
X47792619Y-47562676D02*
X47887857Y-47467438D01*
X47887857Y-47467438D02*
X48030714Y-47419819D01*
X48030714Y-47419819D02*
X48125952Y-47419819D01*
X48125952Y-47419819D02*
X48268809Y-47467438D01*
X48268809Y-47467438D02*
X48316428Y-47515057D01*
X48697381Y-48134104D02*
X49173571Y-48134104D01*
X48602143Y-48419819D02*
X48935476Y-47419819D01*
X48935476Y-47419819D02*
X49268809Y-48419819D01*
X49602143Y-48419819D02*
X49602143Y-47419819D01*
X49602143Y-47419819D02*
X49935476Y-48134104D01*
X49935476Y-48134104D02*
X50268809Y-47419819D01*
X50268809Y-47419819D02*
X50268809Y-48419819D01*
X73357142Y-51409819D02*
X73357142Y-52124104D01*
X73357142Y-52124104D02*
X73309523Y-52266961D01*
X73309523Y-52266961D02*
X73214285Y-52362200D01*
X73214285Y-52362200D02*
X73071428Y-52409819D01*
X73071428Y-52409819D02*
X72976190Y-52409819D01*
X73595238Y-52505057D02*
X74357142Y-52505057D01*
X74595238Y-52409819D02*
X74595238Y-51409819D01*
X74595238Y-51409819D02*
X75166666Y-52409819D01*
X75166666Y-52409819D02*
X75166666Y-51409819D01*
X75500000Y-51409819D02*
X76071428Y-51409819D01*
X75785714Y-52409819D02*
X75785714Y-51409819D01*
X76976190Y-52314580D02*
X76928571Y-52362200D01*
X76928571Y-52362200D02*
X76785714Y-52409819D01*
X76785714Y-52409819D02*
X76690476Y-52409819D01*
X76690476Y-52409819D02*
X76547619Y-52362200D01*
X76547619Y-52362200D02*
X76452381Y-52266961D01*
X76452381Y-52266961D02*
X76404762Y-52171723D01*
X76404762Y-52171723D02*
X76357143Y-51981247D01*
X76357143Y-51981247D02*
X76357143Y-51838390D01*
X76357143Y-51838390D02*
X76404762Y-51647914D01*
X76404762Y-51647914D02*
X76452381Y-51552676D01*
X76452381Y-51552676D02*
X76547619Y-51457438D01*
X76547619Y-51457438D02*
X76690476Y-51409819D01*
X76690476Y-51409819D02*
X76785714Y-51409819D01*
X76785714Y-51409819D02*
X76928571Y-51457438D01*
X76928571Y-51457438D02*
X76976190Y-51505057D01*
X9404762Y-2212199D02*
X9547619Y-2259818D01*
X9547619Y-2259818D02*
X9785714Y-2259818D01*
X9785714Y-2259818D02*
X9880952Y-2212199D01*
X9880952Y-2212199D02*
X9928571Y-2164579D01*
X9928571Y-2164579D02*
X9976190Y-2069341D01*
X9976190Y-2069341D02*
X9976190Y-1974103D01*
X9976190Y-1974103D02*
X9928571Y-1878865D01*
X9928571Y-1878865D02*
X9880952Y-1831246D01*
X9880952Y-1831246D02*
X9785714Y-1783627D01*
X9785714Y-1783627D02*
X9595238Y-1736008D01*
X9595238Y-1736008D02*
X9500000Y-1688389D01*
X9500000Y-1688389D02*
X9452381Y-1640770D01*
X9452381Y-1640770D02*
X9404762Y-1545532D01*
X9404762Y-1545532D02*
X9404762Y-1450294D01*
X9404762Y-1450294D02*
X9452381Y-1355056D01*
X9452381Y-1355056D02*
X9500000Y-1307437D01*
X9500000Y-1307437D02*
X9595238Y-1259818D01*
X9595238Y-1259818D02*
X9833333Y-1259818D01*
X9833333Y-1259818D02*
X9976190Y-1307437D01*
X10309524Y-1259818D02*
X10547619Y-2259818D01*
X10547619Y-2259818D02*
X10738095Y-1545532D01*
X10738095Y-1545532D02*
X10928571Y-2259818D01*
X10928571Y-2259818D02*
X11166667Y-1259818D01*
X11309524Y-2355056D02*
X12071428Y-2355056D01*
X12880952Y-2259818D02*
X12547619Y-1783627D01*
X12309524Y-2259818D02*
X12309524Y-1259818D01*
X12309524Y-1259818D02*
X12690476Y-1259818D01*
X12690476Y-1259818D02*
X12785714Y-1307437D01*
X12785714Y-1307437D02*
X12833333Y-1355056D01*
X12833333Y-1355056D02*
X12880952Y-1450294D01*
X12880952Y-1450294D02*
X12880952Y-1593151D01*
X12880952Y-1593151D02*
X12833333Y-1688389D01*
X12833333Y-1688389D02*
X12785714Y-1736008D01*
X12785714Y-1736008D02*
X12690476Y-1783627D01*
X12690476Y-1783627D02*
X12309524Y-1783627D01*
X13261905Y-2212199D02*
X13404762Y-2259818D01*
X13404762Y-2259818D02*
X13642857Y-2259818D01*
X13642857Y-2259818D02*
X13738095Y-2212199D01*
X13738095Y-2212199D02*
X13785714Y-2164579D01*
X13785714Y-2164579D02*
X13833333Y-2069341D01*
X13833333Y-2069341D02*
X13833333Y-1974103D01*
X13833333Y-1974103D02*
X13785714Y-1878865D01*
X13785714Y-1878865D02*
X13738095Y-1831246D01*
X13738095Y-1831246D02*
X13642857Y-1783627D01*
X13642857Y-1783627D02*
X13452381Y-1736008D01*
X13452381Y-1736008D02*
X13357143Y-1688389D01*
X13357143Y-1688389D02*
X13309524Y-1640770D01*
X13309524Y-1640770D02*
X13261905Y-1545532D01*
X13261905Y-1545532D02*
X13261905Y-1450294D01*
X13261905Y-1450294D02*
X13309524Y-1355056D01*
X13309524Y-1355056D02*
X13357143Y-1307437D01*
X13357143Y-1307437D02*
X13452381Y-1259818D01*
X13452381Y-1259818D02*
X13690476Y-1259818D01*
X13690476Y-1259818D02*
X13833333Y-1307437D01*
X14119048Y-1259818D02*
X14690476Y-1259818D01*
X14404762Y-2259818D02*
X14404762Y-1259818D01*
X25653484Y-15551090D02*
X26224912Y-15551090D01*
X25939198Y-16551090D02*
X25939198Y-15551090D01*
X26558246Y-16551090D02*
X26558246Y-15551090D01*
X26558246Y-15551090D02*
X26939198Y-15551090D01*
X26939198Y-15551090D02*
X27034436Y-15598709D01*
X27034436Y-15598709D02*
X27082055Y-15646328D01*
X27082055Y-15646328D02*
X27129674Y-15741566D01*
X27129674Y-15741566D02*
X27129674Y-15884423D01*
X27129674Y-15884423D02*
X27082055Y-15979661D01*
X27082055Y-15979661D02*
X27034436Y-16027280D01*
X27034436Y-16027280D02*
X26939198Y-16074899D01*
X26939198Y-16074899D02*
X26558246Y-16074899D01*
X27320151Y-16646328D02*
X28082055Y-16646328D01*
X28177294Y-15551090D02*
X28510627Y-16551090D01*
X28510627Y-16551090D02*
X28843960Y-15551090D01*
X29510627Y-16027280D02*
X29653484Y-16074899D01*
X29653484Y-16074899D02*
X29701103Y-16122518D01*
X29701103Y-16122518D02*
X29748722Y-16217756D01*
X29748722Y-16217756D02*
X29748722Y-16360613D01*
X29748722Y-16360613D02*
X29701103Y-16455851D01*
X29701103Y-16455851D02*
X29653484Y-16503471D01*
X29653484Y-16503471D02*
X29558246Y-16551090D01*
X29558246Y-16551090D02*
X29177294Y-16551090D01*
X29177294Y-16551090D02*
X29177294Y-15551090D01*
X29177294Y-15551090D02*
X29510627Y-15551090D01*
X29510627Y-15551090D02*
X29605865Y-15598709D01*
X29605865Y-15598709D02*
X29653484Y-15646328D01*
X29653484Y-15646328D02*
X29701103Y-15741566D01*
X29701103Y-15741566D02*
X29701103Y-15836804D01*
X29701103Y-15836804D02*
X29653484Y-15932042D01*
X29653484Y-15932042D02*
X29605865Y-15979661D01*
X29605865Y-15979661D02*
X29510627Y-16027280D01*
X29510627Y-16027280D02*
X29177294Y-16027280D01*
X30177294Y-15551090D02*
X30177294Y-16360613D01*
X30177294Y-16360613D02*
X30224913Y-16455851D01*
X30224913Y-16455851D02*
X30272532Y-16503471D01*
X30272532Y-16503471D02*
X30367770Y-16551090D01*
X30367770Y-16551090D02*
X30558246Y-16551090D01*
X30558246Y-16551090D02*
X30653484Y-16503471D01*
X30653484Y-16503471D02*
X30701103Y-16455851D01*
X30701103Y-16455851D02*
X30748722Y-16360613D01*
X30748722Y-16360613D02*
X30748722Y-15551090D01*
X31177294Y-16503471D02*
X31320151Y-16551090D01*
X31320151Y-16551090D02*
X31558246Y-16551090D01*
X31558246Y-16551090D02*
X31653484Y-16503471D01*
X31653484Y-16503471D02*
X31701103Y-16455851D01*
X31701103Y-16455851D02*
X31748722Y-16360613D01*
X31748722Y-16360613D02*
X31748722Y-16265375D01*
X31748722Y-16265375D02*
X31701103Y-16170137D01*
X31701103Y-16170137D02*
X31653484Y-16122518D01*
X31653484Y-16122518D02*
X31558246Y-16074899D01*
X31558246Y-16074899D02*
X31367770Y-16027280D01*
X31367770Y-16027280D02*
X31272532Y-15979661D01*
X31272532Y-15979661D02*
X31224913Y-15932042D01*
X31224913Y-15932042D02*
X31177294Y-15836804D01*
X31177294Y-15836804D02*
X31177294Y-15741566D01*
X31177294Y-15741566D02*
X31224913Y-15646328D01*
X31224913Y-15646328D02*
X31272532Y-15598709D01*
X31272532Y-15598709D02*
X31367770Y-15551090D01*
X31367770Y-15551090D02*
X31605865Y-15551090D01*
X31605865Y-15551090D02*
X31748722Y-15598709D01*
X61058246Y-35851091D02*
X61629674Y-35851091D01*
X61343960Y-36851091D02*
X61343960Y-35851091D01*
X61963008Y-36851091D02*
X61963008Y-35851091D01*
X61963008Y-35851091D02*
X62343960Y-35851091D01*
X62343960Y-35851091D02*
X62439198Y-35898710D01*
X62439198Y-35898710D02*
X62486817Y-35946329D01*
X62486817Y-35946329D02*
X62534436Y-36041567D01*
X62534436Y-36041567D02*
X62534436Y-36184424D01*
X62534436Y-36184424D02*
X62486817Y-36279662D01*
X62486817Y-36279662D02*
X62439198Y-36327281D01*
X62439198Y-36327281D02*
X62343960Y-36374900D01*
X62343960Y-36374900D02*
X61963008Y-36374900D01*
X62724913Y-36946329D02*
X63486817Y-36946329D01*
X63724913Y-36851091D02*
X63724913Y-35851091D01*
X63724913Y-35851091D02*
X64105865Y-35851091D01*
X64105865Y-35851091D02*
X64201103Y-35898710D01*
X64201103Y-35898710D02*
X64248722Y-35946329D01*
X64248722Y-35946329D02*
X64296341Y-36041567D01*
X64296341Y-36041567D02*
X64296341Y-36184424D01*
X64296341Y-36184424D02*
X64248722Y-36279662D01*
X64248722Y-36279662D02*
X64201103Y-36327281D01*
X64201103Y-36327281D02*
X64105865Y-36374900D01*
X64105865Y-36374900D02*
X63724913Y-36374900D01*
X65248722Y-35898710D02*
X65153484Y-35851091D01*
X65153484Y-35851091D02*
X65010627Y-35851091D01*
X65010627Y-35851091D02*
X64867770Y-35898710D01*
X64867770Y-35898710D02*
X64772532Y-35993948D01*
X64772532Y-35993948D02*
X64724913Y-36089186D01*
X64724913Y-36089186D02*
X64677294Y-36279662D01*
X64677294Y-36279662D02*
X64677294Y-36422519D01*
X64677294Y-36422519D02*
X64724913Y-36612995D01*
X64724913Y-36612995D02*
X64772532Y-36708233D01*
X64772532Y-36708233D02*
X64867770Y-36803472D01*
X64867770Y-36803472D02*
X65010627Y-36851091D01*
X65010627Y-36851091D02*
X65105865Y-36851091D01*
X65105865Y-36851091D02*
X65248722Y-36803472D01*
X65248722Y-36803472D02*
X65296341Y-36755852D01*
X65296341Y-36755852D02*
X65296341Y-36422519D01*
X65296341Y-36422519D02*
X65105865Y-36422519D01*
X65724913Y-36851091D02*
X65724913Y-35851091D01*
X65724913Y-35851091D02*
X66296341Y-36851091D01*
X66296341Y-36851091D02*
X66296341Y-35851091D01*
X66772532Y-36851091D02*
X66772532Y-35851091D01*
X66772532Y-35851091D02*
X67010627Y-35851091D01*
X67010627Y-35851091D02*
X67153484Y-35898710D01*
X67153484Y-35898710D02*
X67248722Y-35993948D01*
X67248722Y-35993948D02*
X67296341Y-36089186D01*
X67296341Y-36089186D02*
X67343960Y-36279662D01*
X67343960Y-36279662D02*
X67343960Y-36422519D01*
X67343960Y-36422519D02*
X67296341Y-36612995D01*
X67296341Y-36612995D02*
X67248722Y-36708233D01*
X67248722Y-36708233D02*
X67153484Y-36803472D01*
X67153484Y-36803472D02*
X67010627Y-36851091D01*
X67010627Y-36851091D02*
X66772532Y-36851091D01*
X3239359Y-52157293D02*
X3239359Y-51157293D01*
X3239359Y-51633483D02*
X3810787Y-51633483D01*
X3810787Y-52157293D02*
X3810787Y-51157293D01*
X4239359Y-51252531D02*
X4286978Y-51204912D01*
X4286978Y-51204912D02*
X4382216Y-51157293D01*
X4382216Y-51157293D02*
X4620311Y-51157293D01*
X4620311Y-51157293D02*
X4715549Y-51204912D01*
X4715549Y-51204912D02*
X4763168Y-51252531D01*
X4763168Y-51252531D02*
X4810787Y-51347769D01*
X4810787Y-51347769D02*
X4810787Y-51443007D01*
X4810787Y-51443007D02*
X4763168Y-51585864D01*
X4763168Y-51585864D02*
X4191740Y-52157293D01*
X4191740Y-52157293D02*
X4810787Y-52157293D01*
X76584999Y-33994819D02*
X76584999Y-34709104D01*
X76584999Y-34709104D02*
X76537380Y-34851961D01*
X76537380Y-34851961D02*
X76442142Y-34947200D01*
X76442142Y-34947200D02*
X76299285Y-34994819D01*
X76299285Y-34994819D02*
X76204047Y-34994819D01*
X76823095Y-35090057D02*
X77584999Y-35090057D01*
X77775476Y-34947200D02*
X77918333Y-34994819D01*
X77918333Y-34994819D02*
X78156428Y-34994819D01*
X78156428Y-34994819D02*
X78251666Y-34947200D01*
X78251666Y-34947200D02*
X78299285Y-34899580D01*
X78299285Y-34899580D02*
X78346904Y-34804342D01*
X78346904Y-34804342D02*
X78346904Y-34709104D01*
X78346904Y-34709104D02*
X78299285Y-34613866D01*
X78299285Y-34613866D02*
X78251666Y-34566247D01*
X78251666Y-34566247D02*
X78156428Y-34518628D01*
X78156428Y-34518628D02*
X77965952Y-34471009D01*
X77965952Y-34471009D02*
X77870714Y-34423390D01*
X77870714Y-34423390D02*
X77823095Y-34375771D01*
X77823095Y-34375771D02*
X77775476Y-34280533D01*
X77775476Y-34280533D02*
X77775476Y-34185295D01*
X77775476Y-34185295D02*
X77823095Y-34090057D01*
X77823095Y-34090057D02*
X77870714Y-34042438D01*
X77870714Y-34042438D02*
X77965952Y-33994819D01*
X77965952Y-33994819D02*
X78204047Y-33994819D01*
X78204047Y-33994819D02*
X78346904Y-34042438D01*
X78775476Y-34471009D02*
X79108809Y-34471009D01*
X79251666Y-34994819D02*
X78775476Y-34994819D01*
X78775476Y-34994819D02*
X78775476Y-33994819D01*
X78775476Y-33994819D02*
X79251666Y-33994819D01*
X80251666Y-34994819D02*
X79918333Y-34518628D01*
X79680238Y-34994819D02*
X79680238Y-33994819D01*
X79680238Y-33994819D02*
X80061190Y-33994819D01*
X80061190Y-33994819D02*
X80156428Y-34042438D01*
X80156428Y-34042438D02*
X80204047Y-34090057D01*
X80204047Y-34090057D02*
X80251666Y-34185295D01*
X80251666Y-34185295D02*
X80251666Y-34328152D01*
X80251666Y-34328152D02*
X80204047Y-34423390D01*
X80204047Y-34423390D02*
X80156428Y-34471009D01*
X80156428Y-34471009D02*
X80061190Y-34518628D01*
X80061190Y-34518628D02*
X79680238Y-34518628D01*
X80537381Y-33994819D02*
X80870714Y-34994819D01*
X80870714Y-34994819D02*
X81204047Y-33994819D01*
X81727857Y-33994819D02*
X81918333Y-33994819D01*
X81918333Y-33994819D02*
X82013571Y-34042438D01*
X82013571Y-34042438D02*
X82108809Y-34137676D01*
X82108809Y-34137676D02*
X82156428Y-34328152D01*
X82156428Y-34328152D02*
X82156428Y-34661485D01*
X82156428Y-34661485D02*
X82108809Y-34851961D01*
X82108809Y-34851961D02*
X82013571Y-34947200D01*
X82013571Y-34947200D02*
X81918333Y-34994819D01*
X81918333Y-34994819D02*
X81727857Y-34994819D01*
X81727857Y-34994819D02*
X81632619Y-34947200D01*
X81632619Y-34947200D02*
X81537381Y-34851961D01*
X81537381Y-34851961D02*
X81489762Y-34661485D01*
X81489762Y-34661485D02*
X81489762Y-34328152D01*
X81489762Y-34328152D02*
X81537381Y-34137676D01*
X81537381Y-34137676D02*
X81632619Y-34042438D01*
X81632619Y-34042438D02*
X81727857Y-33994819D01*
X82346905Y-35090057D02*
X83108809Y-35090057D01*
X83918333Y-34994819D02*
X83585000Y-34518628D01*
X83346905Y-34994819D02*
X83346905Y-33994819D01*
X83346905Y-33994819D02*
X83727857Y-33994819D01*
X83727857Y-33994819D02*
X83823095Y-34042438D01*
X83823095Y-34042438D02*
X83870714Y-34090057D01*
X83870714Y-34090057D02*
X83918333Y-34185295D01*
X83918333Y-34185295D02*
X83918333Y-34328152D01*
X83918333Y-34328152D02*
X83870714Y-34423390D01*
X83870714Y-34423390D02*
X83823095Y-34471009D01*
X83823095Y-34471009D02*
X83727857Y-34518628D01*
X83727857Y-34518628D02*
X83346905Y-34518628D01*
X20427293Y-39301090D02*
X20998721Y-39301090D01*
X20713007Y-40301090D02*
X20713007Y-39301090D01*
X21332055Y-40301090D02*
X21332055Y-39301090D01*
X21332055Y-39301090D02*
X21713007Y-39301090D01*
X21713007Y-39301090D02*
X21808245Y-39348709D01*
X21808245Y-39348709D02*
X21855864Y-39396328D01*
X21855864Y-39396328D02*
X21903483Y-39491566D01*
X21903483Y-39491566D02*
X21903483Y-39634423D01*
X21903483Y-39634423D02*
X21855864Y-39729661D01*
X21855864Y-39729661D02*
X21808245Y-39777280D01*
X21808245Y-39777280D02*
X21713007Y-39824899D01*
X21713007Y-39824899D02*
X21332055Y-39824899D01*
X22093960Y-40396328D02*
X22855864Y-40396328D01*
X23046341Y-40253471D02*
X23189198Y-40301090D01*
X23189198Y-40301090D02*
X23427293Y-40301090D01*
X23427293Y-40301090D02*
X23522531Y-40253471D01*
X23522531Y-40253471D02*
X23570150Y-40205851D01*
X23570150Y-40205851D02*
X23617769Y-40110613D01*
X23617769Y-40110613D02*
X23617769Y-40015375D01*
X23617769Y-40015375D02*
X23570150Y-39920137D01*
X23570150Y-39920137D02*
X23522531Y-39872518D01*
X23522531Y-39872518D02*
X23427293Y-39824899D01*
X23427293Y-39824899D02*
X23236817Y-39777280D01*
X23236817Y-39777280D02*
X23141579Y-39729661D01*
X23141579Y-39729661D02*
X23093960Y-39682042D01*
X23093960Y-39682042D02*
X23046341Y-39586804D01*
X23046341Y-39586804D02*
X23046341Y-39491566D01*
X23046341Y-39491566D02*
X23093960Y-39396328D01*
X23093960Y-39396328D02*
X23141579Y-39348709D01*
X23141579Y-39348709D02*
X23236817Y-39301090D01*
X23236817Y-39301090D02*
X23474912Y-39301090D01*
X23474912Y-39301090D02*
X23617769Y-39348709D01*
X24046341Y-40301090D02*
X24046341Y-39301090D01*
X24046341Y-39301090D02*
X24284436Y-39301090D01*
X24284436Y-39301090D02*
X24427293Y-39348709D01*
X24427293Y-39348709D02*
X24522531Y-39443947D01*
X24522531Y-39443947D02*
X24570150Y-39539185D01*
X24570150Y-39539185D02*
X24617769Y-39729661D01*
X24617769Y-39729661D02*
X24617769Y-39872518D01*
X24617769Y-39872518D02*
X24570150Y-40062994D01*
X24570150Y-40062994D02*
X24522531Y-40158232D01*
X24522531Y-40158232D02*
X24427293Y-40253471D01*
X24427293Y-40253471D02*
X24284436Y-40301090D01*
X24284436Y-40301090D02*
X24046341Y-40301090D01*
X24998722Y-40015375D02*
X25474912Y-40015375D01*
X24903484Y-40301090D02*
X25236817Y-39301090D01*
X25236817Y-39301090D02*
X25570150Y-40301090D01*
X3239359Y-8752344D02*
X3239359Y-7752344D01*
X3239359Y-8228534D02*
X3810787Y-8228534D01*
X3810787Y-8752344D02*
X3810787Y-7752344D01*
X4810787Y-8752344D02*
X4239359Y-8752344D01*
X4525073Y-8752344D02*
X4525073Y-7752344D01*
X4525073Y-7752344D02*
X4429835Y-7895201D01*
X4429835Y-7895201D02*
X4334597Y-7990439D01*
X4334597Y-7990439D02*
X4239359Y-8038058D01*
X80619047Y-27845057D02*
X80523809Y-27797438D01*
X80523809Y-27797438D02*
X80428571Y-27702200D01*
X80428571Y-27702200D02*
X80285714Y-27559342D01*
X80285714Y-27559342D02*
X80190476Y-27511723D01*
X80190476Y-27511723D02*
X80095238Y-27511723D01*
X80142857Y-27749819D02*
X80047619Y-27702200D01*
X80047619Y-27702200D02*
X79952381Y-27606961D01*
X79952381Y-27606961D02*
X79904762Y-27416485D01*
X79904762Y-27416485D02*
X79904762Y-27083152D01*
X79904762Y-27083152D02*
X79952381Y-26892676D01*
X79952381Y-26892676D02*
X80047619Y-26797438D01*
X80047619Y-26797438D02*
X80142857Y-26749819D01*
X80142857Y-26749819D02*
X80333333Y-26749819D01*
X80333333Y-26749819D02*
X80428571Y-26797438D01*
X80428571Y-26797438D02*
X80523809Y-26892676D01*
X80523809Y-26892676D02*
X80571428Y-27083152D01*
X80571428Y-27083152D02*
X80571428Y-27416485D01*
X80571428Y-27416485D02*
X80523809Y-27606961D01*
X80523809Y-27606961D02*
X80428571Y-27702200D01*
X80428571Y-27702200D02*
X80333333Y-27749819D01*
X80333333Y-27749819D02*
X80142857Y-27749819D01*
X80761905Y-27845057D02*
X81523809Y-27845057D01*
X82333333Y-27749819D02*
X82000000Y-27273628D01*
X81761905Y-27749819D02*
X81761905Y-26749819D01*
X81761905Y-26749819D02*
X82142857Y-26749819D01*
X82142857Y-26749819D02*
X82238095Y-26797438D01*
X82238095Y-26797438D02*
X82285714Y-26845057D01*
X82285714Y-26845057D02*
X82333333Y-26940295D01*
X82333333Y-26940295D02*
X82333333Y-27083152D01*
X82333333Y-27083152D02*
X82285714Y-27178390D01*
X82285714Y-27178390D02*
X82238095Y-27226009D01*
X82238095Y-27226009D02*
X82142857Y-27273628D01*
X82142857Y-27273628D02*
X81761905Y-27273628D01*
X82761905Y-27226009D02*
X83095238Y-27226009D01*
X83238095Y-27749819D02*
X82761905Y-27749819D01*
X82761905Y-27749819D02*
X82761905Y-26749819D01*
X82761905Y-26749819D02*
X83238095Y-26749819D01*
X83523810Y-26749819D02*
X83857143Y-27749819D01*
X83857143Y-27749819D02*
X84190476Y-26749819D01*
X27409760Y-14454819D02*
X26933570Y-14454819D01*
X26933570Y-14454819D02*
X26933570Y-13454819D01*
X27504999Y-14550057D02*
X28266903Y-14550057D01*
X28838332Y-13931009D02*
X28981189Y-13978628D01*
X28981189Y-13978628D02*
X29028808Y-14026247D01*
X29028808Y-14026247D02*
X29076427Y-14121485D01*
X29076427Y-14121485D02*
X29076427Y-14264342D01*
X29076427Y-14264342D02*
X29028808Y-14359580D01*
X29028808Y-14359580D02*
X28981189Y-14407200D01*
X28981189Y-14407200D02*
X28885951Y-14454819D01*
X28885951Y-14454819D02*
X28504999Y-14454819D01*
X28504999Y-14454819D02*
X28504999Y-13454819D01*
X28504999Y-13454819D02*
X28838332Y-13454819D01*
X28838332Y-13454819D02*
X28933570Y-13502438D01*
X28933570Y-13502438D02*
X28981189Y-13550057D01*
X28981189Y-13550057D02*
X29028808Y-13645295D01*
X29028808Y-13645295D02*
X29028808Y-13740533D01*
X29028808Y-13740533D02*
X28981189Y-13835771D01*
X28981189Y-13835771D02*
X28933570Y-13883390D01*
X28933570Y-13883390D02*
X28838332Y-13931009D01*
X28838332Y-13931009D02*
X28504999Y-13931009D01*
X29504999Y-13454819D02*
X29504999Y-14264342D01*
X29504999Y-14264342D02*
X29552618Y-14359580D01*
X29552618Y-14359580D02*
X29600237Y-14407200D01*
X29600237Y-14407200D02*
X29695475Y-14454819D01*
X29695475Y-14454819D02*
X29885951Y-14454819D01*
X29885951Y-14454819D02*
X29981189Y-14407200D01*
X29981189Y-14407200D02*
X30028808Y-14359580D01*
X30028808Y-14359580D02*
X30076427Y-14264342D01*
X30076427Y-14264342D02*
X30076427Y-13454819D01*
X31124046Y-14359580D02*
X31076427Y-14407200D01*
X31076427Y-14407200D02*
X30933570Y-14454819D01*
X30933570Y-14454819D02*
X30838332Y-14454819D01*
X30838332Y-14454819D02*
X30695475Y-14407200D01*
X30695475Y-14407200D02*
X30600237Y-14311961D01*
X30600237Y-14311961D02*
X30552618Y-14216723D01*
X30552618Y-14216723D02*
X30504999Y-14026247D01*
X30504999Y-14026247D02*
X30504999Y-13883390D01*
X30504999Y-13883390D02*
X30552618Y-13692914D01*
X30552618Y-13692914D02*
X30600237Y-13597676D01*
X30600237Y-13597676D02*
X30695475Y-13502438D01*
X30695475Y-13502438D02*
X30838332Y-13454819D01*
X30838332Y-13454819D02*
X30933570Y-13454819D01*
X30933570Y-13454819D02*
X31076427Y-13502438D01*
X31076427Y-13502438D02*
X31124046Y-13550057D01*
X31552618Y-14454819D02*
X31552618Y-13454819D01*
X32124046Y-14454819D02*
X31695475Y-13883390D01*
X32124046Y-13454819D02*
X31552618Y-14026247D01*
X65308246Y-34101091D02*
X65879674Y-34101091D01*
X65593960Y-35101091D02*
X65593960Y-34101091D01*
X66213008Y-35101091D02*
X66213008Y-34101091D01*
X66213008Y-34101091D02*
X66593960Y-34101091D01*
X66593960Y-34101091D02*
X66689198Y-34148710D01*
X66689198Y-34148710D02*
X66736817Y-34196329D01*
X66736817Y-34196329D02*
X66784436Y-34291567D01*
X66784436Y-34291567D02*
X66784436Y-34434424D01*
X66784436Y-34434424D02*
X66736817Y-34529662D01*
X66736817Y-34529662D02*
X66689198Y-34577281D01*
X66689198Y-34577281D02*
X66593960Y-34624900D01*
X66593960Y-34624900D02*
X66213008Y-34624900D01*
X66974913Y-35196329D02*
X67736817Y-35196329D01*
X68498722Y-34148710D02*
X68403484Y-34101091D01*
X68403484Y-34101091D02*
X68260627Y-34101091D01*
X68260627Y-34101091D02*
X68117770Y-34148710D01*
X68117770Y-34148710D02*
X68022532Y-34243948D01*
X68022532Y-34243948D02*
X67974913Y-34339186D01*
X67974913Y-34339186D02*
X67927294Y-34529662D01*
X67927294Y-34529662D02*
X67927294Y-34672519D01*
X67927294Y-34672519D02*
X67974913Y-34862995D01*
X67974913Y-34862995D02*
X68022532Y-34958233D01*
X68022532Y-34958233D02*
X68117770Y-35053472D01*
X68117770Y-35053472D02*
X68260627Y-35101091D01*
X68260627Y-35101091D02*
X68355865Y-35101091D01*
X68355865Y-35101091D02*
X68498722Y-35053472D01*
X68498722Y-35053472D02*
X68546341Y-35005852D01*
X68546341Y-35005852D02*
X68546341Y-34672519D01*
X68546341Y-34672519D02*
X68355865Y-34672519D01*
X68974913Y-35101091D02*
X68974913Y-34101091D01*
X68974913Y-34101091D02*
X69546341Y-35101091D01*
X69546341Y-35101091D02*
X69546341Y-34101091D01*
X70022532Y-35101091D02*
X70022532Y-34101091D01*
X70022532Y-34101091D02*
X70260627Y-34101091D01*
X70260627Y-34101091D02*
X70403484Y-34148710D01*
X70403484Y-34148710D02*
X70498722Y-34243948D01*
X70498722Y-34243948D02*
X70546341Y-34339186D01*
X70546341Y-34339186D02*
X70593960Y-34529662D01*
X70593960Y-34529662D02*
X70593960Y-34672519D01*
X70593960Y-34672519D02*
X70546341Y-34862995D01*
X70546341Y-34862995D02*
X70498722Y-34958233D01*
X70498722Y-34958233D02*
X70403484Y-35053472D01*
X70403484Y-35053472D02*
X70260627Y-35101091D01*
X70260627Y-35101091D02*
X70022532Y-35101091D01*
X55795476Y-30999819D02*
X55795476Y-31809342D01*
X55795476Y-31809342D02*
X55843095Y-31904580D01*
X55843095Y-31904580D02*
X55890714Y-31952200D01*
X55890714Y-31952200D02*
X55985952Y-31999819D01*
X55985952Y-31999819D02*
X56176428Y-31999819D01*
X56176428Y-31999819D02*
X56271666Y-31952200D01*
X56271666Y-31952200D02*
X56319285Y-31904580D01*
X56319285Y-31904580D02*
X56366904Y-31809342D01*
X56366904Y-31809342D02*
X56366904Y-30999819D01*
X56605000Y-32095057D02*
X57366904Y-32095057D01*
X57605000Y-31999819D02*
X57605000Y-30999819D01*
X57605000Y-30999819D02*
X57985952Y-30999819D01*
X57985952Y-30999819D02*
X58081190Y-31047438D01*
X58081190Y-31047438D02*
X58128809Y-31095057D01*
X58128809Y-31095057D02*
X58176428Y-31190295D01*
X58176428Y-31190295D02*
X58176428Y-31333152D01*
X58176428Y-31333152D02*
X58128809Y-31428390D01*
X58128809Y-31428390D02*
X58081190Y-31476009D01*
X58081190Y-31476009D02*
X57985952Y-31523628D01*
X57985952Y-31523628D02*
X57605000Y-31523628D01*
X58509762Y-30999819D02*
X58747857Y-31999819D01*
X58747857Y-31999819D02*
X58938333Y-31285533D01*
X58938333Y-31285533D02*
X59128809Y-31999819D01*
X59128809Y-31999819D02*
X59366905Y-30999819D01*
X59747857Y-31999819D02*
X59747857Y-30999819D01*
X59747857Y-30999819D02*
X60081190Y-31714104D01*
X60081190Y-31714104D02*
X60414523Y-30999819D01*
X60414523Y-30999819D02*
X60414523Y-31999819D01*
X8833333Y-18602200D02*
X8976190Y-18649819D01*
X8976190Y-18649819D02*
X9214285Y-18649819D01*
X9214285Y-18649819D02*
X9309523Y-18602200D01*
X9309523Y-18602200D02*
X9357142Y-18554580D01*
X9357142Y-18554580D02*
X9404761Y-18459342D01*
X9404761Y-18459342D02*
X9404761Y-18364104D01*
X9404761Y-18364104D02*
X9357142Y-18268866D01*
X9357142Y-18268866D02*
X9309523Y-18221247D01*
X9309523Y-18221247D02*
X9214285Y-18173628D01*
X9214285Y-18173628D02*
X9023809Y-18126009D01*
X9023809Y-18126009D02*
X8928571Y-18078390D01*
X8928571Y-18078390D02*
X8880952Y-18030771D01*
X8880952Y-18030771D02*
X8833333Y-17935533D01*
X8833333Y-17935533D02*
X8833333Y-17840295D01*
X8833333Y-17840295D02*
X8880952Y-17745057D01*
X8880952Y-17745057D02*
X8928571Y-17697438D01*
X8928571Y-17697438D02*
X9023809Y-17649819D01*
X9023809Y-17649819D02*
X9261904Y-17649819D01*
X9261904Y-17649819D02*
X9404761Y-17697438D01*
X9738095Y-17649819D02*
X9976190Y-18649819D01*
X9976190Y-18649819D02*
X10166666Y-17935533D01*
X10166666Y-17935533D02*
X10357142Y-18649819D01*
X10357142Y-18649819D02*
X10595238Y-17649819D01*
X10738095Y-18745057D02*
X11499999Y-18745057D01*
X12071428Y-18126009D02*
X12214285Y-18173628D01*
X12214285Y-18173628D02*
X12261904Y-18221247D01*
X12261904Y-18221247D02*
X12309523Y-18316485D01*
X12309523Y-18316485D02*
X12309523Y-18459342D01*
X12309523Y-18459342D02*
X12261904Y-18554580D01*
X12261904Y-18554580D02*
X12214285Y-18602200D01*
X12214285Y-18602200D02*
X12119047Y-18649819D01*
X12119047Y-18649819D02*
X11738095Y-18649819D01*
X11738095Y-18649819D02*
X11738095Y-17649819D01*
X11738095Y-17649819D02*
X12071428Y-17649819D01*
X12071428Y-17649819D02*
X12166666Y-17697438D01*
X12166666Y-17697438D02*
X12214285Y-17745057D01*
X12214285Y-17745057D02*
X12261904Y-17840295D01*
X12261904Y-17840295D02*
X12261904Y-17935533D01*
X12261904Y-17935533D02*
X12214285Y-18030771D01*
X12214285Y-18030771D02*
X12166666Y-18078390D01*
X12166666Y-18078390D02*
X12071428Y-18126009D01*
X12071428Y-18126009D02*
X11738095Y-18126009D01*
X12928571Y-17649819D02*
X13119047Y-17649819D01*
X13119047Y-17649819D02*
X13214285Y-17697438D01*
X13214285Y-17697438D02*
X13309523Y-17792676D01*
X13309523Y-17792676D02*
X13357142Y-17983152D01*
X13357142Y-17983152D02*
X13357142Y-18316485D01*
X13357142Y-18316485D02*
X13309523Y-18506961D01*
X13309523Y-18506961D02*
X13214285Y-18602200D01*
X13214285Y-18602200D02*
X13119047Y-18649819D01*
X13119047Y-18649819D02*
X12928571Y-18649819D01*
X12928571Y-18649819D02*
X12833333Y-18602200D01*
X12833333Y-18602200D02*
X12738095Y-18506961D01*
X12738095Y-18506961D02*
X12690476Y-18316485D01*
X12690476Y-18316485D02*
X12690476Y-17983152D01*
X12690476Y-17983152D02*
X12738095Y-17792676D01*
X12738095Y-17792676D02*
X12833333Y-17697438D01*
X12833333Y-17697438D02*
X12928571Y-17649819D01*
X13976190Y-17649819D02*
X14166666Y-17649819D01*
X14166666Y-17649819D02*
X14261904Y-17697438D01*
X14261904Y-17697438D02*
X14357142Y-17792676D01*
X14357142Y-17792676D02*
X14404761Y-17983152D01*
X14404761Y-17983152D02*
X14404761Y-18316485D01*
X14404761Y-18316485D02*
X14357142Y-18506961D01*
X14357142Y-18506961D02*
X14261904Y-18602200D01*
X14261904Y-18602200D02*
X14166666Y-18649819D01*
X14166666Y-18649819D02*
X13976190Y-18649819D01*
X13976190Y-18649819D02*
X13880952Y-18602200D01*
X13880952Y-18602200D02*
X13785714Y-18506961D01*
X13785714Y-18506961D02*
X13738095Y-18316485D01*
X13738095Y-18316485D02*
X13738095Y-17983152D01*
X13738095Y-17983152D02*
X13785714Y-17792676D01*
X13785714Y-17792676D02*
X13880952Y-17697438D01*
X13880952Y-17697438D02*
X13976190Y-17649819D01*
X14690476Y-17649819D02*
X15261904Y-17649819D01*
X14976190Y-18649819D02*
X14976190Y-17649819D01*
X24953541Y-36901345D02*
X24953541Y-36329917D01*
X25953541Y-36615631D02*
X24953541Y-36615631D01*
X25953541Y-35996583D02*
X24953541Y-35996583D01*
X24953541Y-35996583D02*
X24953541Y-35615631D01*
X24953541Y-35615631D02*
X25001160Y-35520393D01*
X25001160Y-35520393D02*
X25048779Y-35472774D01*
X25048779Y-35472774D02*
X25144017Y-35425155D01*
X25144017Y-35425155D02*
X25286874Y-35425155D01*
X25286874Y-35425155D02*
X25382112Y-35472774D01*
X25382112Y-35472774D02*
X25429731Y-35520393D01*
X25429731Y-35520393D02*
X25477350Y-35615631D01*
X25477350Y-35615631D02*
X25477350Y-35996583D01*
X26048779Y-35234679D02*
X26048779Y-34472774D01*
X25905922Y-34282297D02*
X25953541Y-34139440D01*
X25953541Y-34139440D02*
X25953541Y-33901345D01*
X25953541Y-33901345D02*
X25905922Y-33806107D01*
X25905922Y-33806107D02*
X25858302Y-33758488D01*
X25858302Y-33758488D02*
X25763064Y-33710869D01*
X25763064Y-33710869D02*
X25667826Y-33710869D01*
X25667826Y-33710869D02*
X25572588Y-33758488D01*
X25572588Y-33758488D02*
X25524969Y-33806107D01*
X25524969Y-33806107D02*
X25477350Y-33901345D01*
X25477350Y-33901345D02*
X25429731Y-34091821D01*
X25429731Y-34091821D02*
X25382112Y-34187059D01*
X25382112Y-34187059D02*
X25334493Y-34234678D01*
X25334493Y-34234678D02*
X25239255Y-34282297D01*
X25239255Y-34282297D02*
X25144017Y-34282297D01*
X25144017Y-34282297D02*
X25048779Y-34234678D01*
X25048779Y-34234678D02*
X25001160Y-34187059D01*
X25001160Y-34187059D02*
X24953541Y-34091821D01*
X24953541Y-34091821D02*
X24953541Y-33853726D01*
X24953541Y-33853726D02*
X25001160Y-33710869D01*
X25858302Y-32710869D02*
X25905922Y-32758488D01*
X25905922Y-32758488D02*
X25953541Y-32901345D01*
X25953541Y-32901345D02*
X25953541Y-32996583D01*
X25953541Y-32996583D02*
X25905922Y-33139440D01*
X25905922Y-33139440D02*
X25810683Y-33234678D01*
X25810683Y-33234678D02*
X25715445Y-33282297D01*
X25715445Y-33282297D02*
X25524969Y-33329916D01*
X25524969Y-33329916D02*
X25382112Y-33329916D01*
X25382112Y-33329916D02*
X25191636Y-33282297D01*
X25191636Y-33282297D02*
X25096398Y-33234678D01*
X25096398Y-33234678D02*
X25001160Y-33139440D01*
X25001160Y-33139440D02*
X24953541Y-32996583D01*
X24953541Y-32996583D02*
X24953541Y-32901345D01*
X24953541Y-32901345D02*
X25001160Y-32758488D01*
X25001160Y-32758488D02*
X25048779Y-32710869D01*
X25953541Y-31806107D02*
X25953541Y-32282297D01*
X25953541Y-32282297D02*
X24953541Y-32282297D01*
X45649819Y-16690475D02*
X46459342Y-16690475D01*
X46459342Y-16690475D02*
X46554580Y-16642856D01*
X46554580Y-16642856D02*
X46602200Y-16595237D01*
X46602200Y-16595237D02*
X46649819Y-16499999D01*
X46649819Y-16499999D02*
X46649819Y-16309523D01*
X46649819Y-16309523D02*
X46602200Y-16214285D01*
X46602200Y-16214285D02*
X46554580Y-16166666D01*
X46554580Y-16166666D02*
X46459342Y-16119047D01*
X46459342Y-16119047D02*
X45649819Y-16119047D01*
X46745057Y-15880952D02*
X46745057Y-15119047D01*
X46126009Y-14547618D02*
X46173628Y-14404761D01*
X46173628Y-14404761D02*
X46221247Y-14357142D01*
X46221247Y-14357142D02*
X46316485Y-14309523D01*
X46316485Y-14309523D02*
X46459342Y-14309523D01*
X46459342Y-14309523D02*
X46554580Y-14357142D01*
X46554580Y-14357142D02*
X46602200Y-14404761D01*
X46602200Y-14404761D02*
X46649819Y-14499999D01*
X46649819Y-14499999D02*
X46649819Y-14880951D01*
X46649819Y-14880951D02*
X45649819Y-14880951D01*
X45649819Y-14880951D02*
X45649819Y-14547618D01*
X45649819Y-14547618D02*
X45697438Y-14452380D01*
X45697438Y-14452380D02*
X45745057Y-14404761D01*
X45745057Y-14404761D02*
X45840295Y-14357142D01*
X45840295Y-14357142D02*
X45935533Y-14357142D01*
X45935533Y-14357142D02*
X46030771Y-14404761D01*
X46030771Y-14404761D02*
X46078390Y-14452380D01*
X46078390Y-14452380D02*
X46126009Y-14547618D01*
X46126009Y-14547618D02*
X46126009Y-14880951D01*
X45649819Y-13880951D02*
X46459342Y-13880951D01*
X46459342Y-13880951D02*
X46554580Y-13833332D01*
X46554580Y-13833332D02*
X46602200Y-13785713D01*
X46602200Y-13785713D02*
X46649819Y-13690475D01*
X46649819Y-13690475D02*
X46649819Y-13499999D01*
X46649819Y-13499999D02*
X46602200Y-13404761D01*
X46602200Y-13404761D02*
X46554580Y-13357142D01*
X46554580Y-13357142D02*
X46459342Y-13309523D01*
X46459342Y-13309523D02*
X45649819Y-13309523D01*
X46554580Y-12261904D02*
X46602200Y-12309523D01*
X46602200Y-12309523D02*
X46649819Y-12452380D01*
X46649819Y-12452380D02*
X46649819Y-12547618D01*
X46649819Y-12547618D02*
X46602200Y-12690475D01*
X46602200Y-12690475D02*
X46506961Y-12785713D01*
X46506961Y-12785713D02*
X46411723Y-12833332D01*
X46411723Y-12833332D02*
X46221247Y-12880951D01*
X46221247Y-12880951D02*
X46078390Y-12880951D01*
X46078390Y-12880951D02*
X45887914Y-12833332D01*
X45887914Y-12833332D02*
X45792676Y-12785713D01*
X45792676Y-12785713D02*
X45697438Y-12690475D01*
X45697438Y-12690475D02*
X45649819Y-12547618D01*
X45649819Y-12547618D02*
X45649819Y-12452380D01*
X45649819Y-12452380D02*
X45697438Y-12309523D01*
X45697438Y-12309523D02*
X45745057Y-12261904D01*
X46649819Y-11833332D02*
X45649819Y-11833332D01*
X46649819Y-11261904D02*
X46078390Y-11690475D01*
X45649819Y-11261904D02*
X46221247Y-11833332D01*
X25047381Y-57999818D02*
X25047381Y-58809341D01*
X25047381Y-58809341D02*
X25095000Y-58904579D01*
X25095000Y-58904579D02*
X25142619Y-58952199D01*
X25142619Y-58952199D02*
X25237857Y-58999818D01*
X25237857Y-58999818D02*
X25428333Y-58999818D01*
X25428333Y-58999818D02*
X25523571Y-58952199D01*
X25523571Y-58952199D02*
X25571190Y-58904579D01*
X25571190Y-58904579D02*
X25618809Y-58809341D01*
X25618809Y-58809341D02*
X25618809Y-57999818D01*
X25856905Y-59095056D02*
X26618809Y-59095056D01*
X27333095Y-58999818D02*
X26856905Y-58999818D01*
X26856905Y-58999818D02*
X26856905Y-57999818D01*
X27666429Y-58999818D02*
X27666429Y-57999818D01*
X27666429Y-57999818D02*
X27904524Y-57999818D01*
X27904524Y-57999818D02*
X28047381Y-58047437D01*
X28047381Y-58047437D02*
X28142619Y-58142675D01*
X28142619Y-58142675D02*
X28190238Y-58237913D01*
X28190238Y-58237913D02*
X28237857Y-58428389D01*
X28237857Y-58428389D02*
X28237857Y-58571246D01*
X28237857Y-58571246D02*
X28190238Y-58761722D01*
X28190238Y-58761722D02*
X28142619Y-58856960D01*
X28142619Y-58856960D02*
X28047381Y-58952199D01*
X28047381Y-58952199D02*
X27904524Y-58999818D01*
X27904524Y-58999818D02*
X27666429Y-58999818D01*
X28856905Y-57999818D02*
X29047381Y-57999818D01*
X29047381Y-57999818D02*
X29142619Y-58047437D01*
X29142619Y-58047437D02*
X29237857Y-58142675D01*
X29237857Y-58142675D02*
X29285476Y-58333151D01*
X29285476Y-58333151D02*
X29285476Y-58666484D01*
X29285476Y-58666484D02*
X29237857Y-58856960D01*
X29237857Y-58856960D02*
X29142619Y-58952199D01*
X29142619Y-58952199D02*
X29047381Y-58999818D01*
X29047381Y-58999818D02*
X28856905Y-58999818D01*
X28856905Y-58999818D02*
X28761667Y-58952199D01*
X28761667Y-58952199D02*
X28666429Y-58856960D01*
X28666429Y-58856960D02*
X28618810Y-58666484D01*
X28618810Y-58666484D02*
X28618810Y-58333151D01*
X28618810Y-58333151D02*
X28666429Y-58142675D01*
X28666429Y-58142675D02*
X28761667Y-58047437D01*
X28761667Y-58047437D02*
X28856905Y-57999818D01*
X29666429Y-58095056D02*
X29714048Y-58047437D01*
X29714048Y-58047437D02*
X29809286Y-57999818D01*
X29809286Y-57999818D02*
X30047381Y-57999818D01*
X30047381Y-57999818D02*
X30142619Y-58047437D01*
X30142619Y-58047437D02*
X30190238Y-58095056D01*
X30190238Y-58095056D02*
X30237857Y-58190294D01*
X30237857Y-58190294D02*
X30237857Y-58285532D01*
X30237857Y-58285532D02*
X30190238Y-58428389D01*
X30190238Y-58428389D02*
X29618810Y-58999818D01*
X29618810Y-58999818D02*
X30237857Y-58999818D01*
X30809286Y-58428389D02*
X30714048Y-58380770D01*
X30714048Y-58380770D02*
X30666429Y-58333151D01*
X30666429Y-58333151D02*
X30618810Y-58237913D01*
X30618810Y-58237913D02*
X30618810Y-58190294D01*
X30618810Y-58190294D02*
X30666429Y-58095056D01*
X30666429Y-58095056D02*
X30714048Y-58047437D01*
X30714048Y-58047437D02*
X30809286Y-57999818D01*
X30809286Y-57999818D02*
X30999762Y-57999818D01*
X30999762Y-57999818D02*
X31095000Y-58047437D01*
X31095000Y-58047437D02*
X31142619Y-58095056D01*
X31142619Y-58095056D02*
X31190238Y-58190294D01*
X31190238Y-58190294D02*
X31190238Y-58237913D01*
X31190238Y-58237913D02*
X31142619Y-58333151D01*
X31142619Y-58333151D02*
X31095000Y-58380770D01*
X31095000Y-58380770D02*
X30999762Y-58428389D01*
X30999762Y-58428389D02*
X30809286Y-58428389D01*
X30809286Y-58428389D02*
X30714048Y-58476008D01*
X30714048Y-58476008D02*
X30666429Y-58523627D01*
X30666429Y-58523627D02*
X30618810Y-58618865D01*
X30618810Y-58618865D02*
X30618810Y-58809341D01*
X30618810Y-58809341D02*
X30666429Y-58904579D01*
X30666429Y-58904579D02*
X30714048Y-58952199D01*
X30714048Y-58952199D02*
X30809286Y-58999818D01*
X30809286Y-58999818D02*
X30999762Y-58999818D01*
X30999762Y-58999818D02*
X31095000Y-58952199D01*
X31095000Y-58952199D02*
X31142619Y-58904579D01*
X31142619Y-58904579D02*
X31190238Y-58809341D01*
X31190238Y-58809341D02*
X31190238Y-58618865D01*
X31190238Y-58618865D02*
X31142619Y-58523627D01*
X31142619Y-58523627D02*
X31095000Y-58476008D01*
X31095000Y-58476008D02*
X30999762Y-58428389D01*
X64071190Y-4339819D02*
X64071190Y-5054104D01*
X64071190Y-5054104D02*
X64023571Y-5196961D01*
X64023571Y-5196961D02*
X63928333Y-5292200D01*
X63928333Y-5292200D02*
X63785476Y-5339819D01*
X63785476Y-5339819D02*
X63690238Y-5339819D01*
X64309286Y-5435057D02*
X65071190Y-5435057D01*
X65785476Y-5339819D02*
X65309286Y-5339819D01*
X65309286Y-5339819D02*
X65309286Y-4339819D01*
X66690238Y-5244580D02*
X66642619Y-5292200D01*
X66642619Y-5292200D02*
X66499762Y-5339819D01*
X66499762Y-5339819D02*
X66404524Y-5339819D01*
X66404524Y-5339819D02*
X66261667Y-5292200D01*
X66261667Y-5292200D02*
X66166429Y-5196961D01*
X66166429Y-5196961D02*
X66118810Y-5101723D01*
X66118810Y-5101723D02*
X66071191Y-4911247D01*
X66071191Y-4911247D02*
X66071191Y-4768390D01*
X66071191Y-4768390D02*
X66118810Y-4577914D01*
X66118810Y-4577914D02*
X66166429Y-4482676D01*
X66166429Y-4482676D02*
X66261667Y-4387438D01*
X66261667Y-4387438D02*
X66404524Y-4339819D01*
X66404524Y-4339819D02*
X66499762Y-4339819D01*
X66499762Y-4339819D02*
X66642619Y-4387438D01*
X66642619Y-4387438D02*
X66690238Y-4435057D01*
X67118810Y-5339819D02*
X67118810Y-4339819D01*
X67118810Y-4339819D02*
X67356905Y-4339819D01*
X67356905Y-4339819D02*
X67499762Y-4387438D01*
X67499762Y-4387438D02*
X67595000Y-4482676D01*
X67595000Y-4482676D02*
X67642619Y-4577914D01*
X67642619Y-4577914D02*
X67690238Y-4768390D01*
X67690238Y-4768390D02*
X67690238Y-4911247D01*
X67690238Y-4911247D02*
X67642619Y-5101723D01*
X67642619Y-5101723D02*
X67595000Y-5196961D01*
X67595000Y-5196961D02*
X67499762Y-5292200D01*
X67499762Y-5292200D02*
X67356905Y-5339819D01*
X67356905Y-5339819D02*
X67118810Y-5339819D01*
X67880715Y-5435057D02*
X68642619Y-5435057D01*
X69452143Y-5339819D02*
X69118810Y-4863628D01*
X68880715Y-5339819D02*
X68880715Y-4339819D01*
X68880715Y-4339819D02*
X69261667Y-4339819D01*
X69261667Y-4339819D02*
X69356905Y-4387438D01*
X69356905Y-4387438D02*
X69404524Y-4435057D01*
X69404524Y-4435057D02*
X69452143Y-4530295D01*
X69452143Y-4530295D02*
X69452143Y-4673152D01*
X69452143Y-4673152D02*
X69404524Y-4768390D01*
X69404524Y-4768390D02*
X69356905Y-4816009D01*
X69356905Y-4816009D02*
X69261667Y-4863628D01*
X69261667Y-4863628D02*
X68880715Y-4863628D01*
X53461428Y-4569818D02*
X53461428Y-5284103D01*
X53461428Y-5284103D02*
X53413809Y-5426960D01*
X53413809Y-5426960D02*
X53318571Y-5522199D01*
X53318571Y-5522199D02*
X53175714Y-5569818D01*
X53175714Y-5569818D02*
X53080476Y-5569818D01*
X53699524Y-5665056D02*
X54461428Y-5665056D01*
X55175714Y-5569818D02*
X54699524Y-5569818D01*
X54699524Y-5569818D02*
X54699524Y-4569818D01*
X56080476Y-5474579D02*
X56032857Y-5522199D01*
X56032857Y-5522199D02*
X55890000Y-5569818D01*
X55890000Y-5569818D02*
X55794762Y-5569818D01*
X55794762Y-5569818D02*
X55651905Y-5522199D01*
X55651905Y-5522199D02*
X55556667Y-5426960D01*
X55556667Y-5426960D02*
X55509048Y-5331722D01*
X55509048Y-5331722D02*
X55461429Y-5141246D01*
X55461429Y-5141246D02*
X55461429Y-4998389D01*
X55461429Y-4998389D02*
X55509048Y-4807913D01*
X55509048Y-4807913D02*
X55556667Y-4712675D01*
X55556667Y-4712675D02*
X55651905Y-4617437D01*
X55651905Y-4617437D02*
X55794762Y-4569818D01*
X55794762Y-4569818D02*
X55890000Y-4569818D01*
X55890000Y-4569818D02*
X56032857Y-4617437D01*
X56032857Y-4617437D02*
X56080476Y-4665056D01*
X56509048Y-5569818D02*
X56509048Y-4569818D01*
X56509048Y-4569818D02*
X56747143Y-4569818D01*
X56747143Y-4569818D02*
X56890000Y-4617437D01*
X56890000Y-4617437D02*
X56985238Y-4712675D01*
X56985238Y-4712675D02*
X57032857Y-4807913D01*
X57032857Y-4807913D02*
X57080476Y-4998389D01*
X57080476Y-4998389D02*
X57080476Y-5141246D01*
X57080476Y-5141246D02*
X57032857Y-5331722D01*
X57032857Y-5331722D02*
X56985238Y-5426960D01*
X56985238Y-5426960D02*
X56890000Y-5522199D01*
X56890000Y-5522199D02*
X56747143Y-5569818D01*
X56747143Y-5569818D02*
X56509048Y-5569818D01*
X57270953Y-5665056D02*
X58032857Y-5665056D01*
X58747143Y-5569818D02*
X58270953Y-5569818D01*
X58270953Y-5569818D02*
X58270953Y-4569818D01*
X81382141Y-6389819D02*
X81382141Y-7104104D01*
X81382141Y-7104104D02*
X81334522Y-7246961D01*
X81334522Y-7246961D02*
X81239284Y-7342200D01*
X81239284Y-7342200D02*
X81096427Y-7389819D01*
X81096427Y-7389819D02*
X81001189Y-7389819D01*
X81620237Y-7485057D02*
X82382141Y-7485057D01*
X82477380Y-6389819D02*
X82810713Y-7389819D01*
X82810713Y-7389819D02*
X83144046Y-6389819D01*
X83477380Y-7389819D02*
X83477380Y-6389819D01*
X83477380Y-6389819D02*
X83810713Y-7104104D01*
X83810713Y-7104104D02*
X84144046Y-6389819D01*
X84144046Y-6389819D02*
X84144046Y-7389819D01*
X84810713Y-6389819D02*
X85001189Y-6389819D01*
X85001189Y-6389819D02*
X85096427Y-6437438D01*
X85096427Y-6437438D02*
X85191665Y-6532676D01*
X85191665Y-6532676D02*
X85239284Y-6723152D01*
X85239284Y-6723152D02*
X85239284Y-7056485D01*
X85239284Y-7056485D02*
X85191665Y-7246961D01*
X85191665Y-7246961D02*
X85096427Y-7342200D01*
X85096427Y-7342200D02*
X85001189Y-7389819D01*
X85001189Y-7389819D02*
X84810713Y-7389819D01*
X84810713Y-7389819D02*
X84715475Y-7342200D01*
X84715475Y-7342200D02*
X84620237Y-7246961D01*
X84620237Y-7246961D02*
X84572618Y-7056485D01*
X84572618Y-7056485D02*
X84572618Y-6723152D01*
X84572618Y-6723152D02*
X84620237Y-6532676D01*
X84620237Y-6532676D02*
X84715475Y-6437438D01*
X84715475Y-6437438D02*
X84810713Y-6389819D01*
X85524999Y-6389819D02*
X86096427Y-6389819D01*
X85810713Y-7389819D02*
X85810713Y-6389819D01*
X18847380Y-14449819D02*
X18847380Y-15164104D01*
X18847380Y-15164104D02*
X18799761Y-15306961D01*
X18799761Y-15306961D02*
X18704523Y-15402200D01*
X18704523Y-15402200D02*
X18561666Y-15449819D01*
X18561666Y-15449819D02*
X18466428Y-15449819D01*
X19085476Y-15545057D02*
X19847380Y-15545057D01*
X20085476Y-14926009D02*
X20418809Y-14926009D01*
X20561666Y-15449819D02*
X20085476Y-15449819D01*
X20085476Y-15449819D02*
X20085476Y-14449819D01*
X20085476Y-14449819D02*
X20561666Y-14449819D01*
X20895000Y-14449819D02*
X21561666Y-15449819D01*
X21561666Y-14449819D02*
X20895000Y-15449819D01*
X21799762Y-14449819D02*
X22371190Y-14449819D01*
X22085476Y-15449819D02*
X22085476Y-14449819D01*
X17309523Y-52409819D02*
X17309523Y-53124104D01*
X17309523Y-53124104D02*
X17261904Y-53266961D01*
X17261904Y-53266961D02*
X17166666Y-53362200D01*
X17166666Y-53362200D02*
X17023809Y-53409819D01*
X17023809Y-53409819D02*
X16928571Y-53409819D01*
X17547619Y-53505057D02*
X18309523Y-53505057D01*
X18404762Y-52409819D02*
X18976190Y-52409819D01*
X18690476Y-53409819D02*
X18690476Y-52409819D01*
X19500000Y-52409819D02*
X19690476Y-52409819D01*
X19690476Y-52409819D02*
X19785714Y-52457438D01*
X19785714Y-52457438D02*
X19880952Y-52552676D01*
X19880952Y-52552676D02*
X19928571Y-52743152D01*
X19928571Y-52743152D02*
X19928571Y-53076485D01*
X19928571Y-53076485D02*
X19880952Y-53266961D01*
X19880952Y-53266961D02*
X19785714Y-53362200D01*
X19785714Y-53362200D02*
X19690476Y-53409819D01*
X19690476Y-53409819D02*
X19500000Y-53409819D01*
X19500000Y-53409819D02*
X19404762Y-53362200D01*
X19404762Y-53362200D02*
X19309524Y-53266961D01*
X19309524Y-53266961D02*
X19261905Y-53076485D01*
X19261905Y-53076485D02*
X19261905Y-52743152D01*
X19261905Y-52743152D02*
X19309524Y-52552676D01*
X19309524Y-52552676D02*
X19404762Y-52457438D01*
X19404762Y-52457438D02*
X19500000Y-52409819D01*
X20357143Y-52409819D02*
X20357143Y-53219342D01*
X20357143Y-53219342D02*
X20404762Y-53314580D01*
X20404762Y-53314580D02*
X20452381Y-53362200D01*
X20452381Y-53362200D02*
X20547619Y-53409819D01*
X20547619Y-53409819D02*
X20738095Y-53409819D01*
X20738095Y-53409819D02*
X20833333Y-53362200D01*
X20833333Y-53362200D02*
X20880952Y-53314580D01*
X20880952Y-53314580D02*
X20928571Y-53219342D01*
X20928571Y-53219342D02*
X20928571Y-52409819D01*
X21976190Y-53314580D02*
X21928571Y-53362200D01*
X21928571Y-53362200D02*
X21785714Y-53409819D01*
X21785714Y-53409819D02*
X21690476Y-53409819D01*
X21690476Y-53409819D02*
X21547619Y-53362200D01*
X21547619Y-53362200D02*
X21452381Y-53266961D01*
X21452381Y-53266961D02*
X21404762Y-53171723D01*
X21404762Y-53171723D02*
X21357143Y-52981247D01*
X21357143Y-52981247D02*
X21357143Y-52838390D01*
X21357143Y-52838390D02*
X21404762Y-52647914D01*
X21404762Y-52647914D02*
X21452381Y-52552676D01*
X21452381Y-52552676D02*
X21547619Y-52457438D01*
X21547619Y-52457438D02*
X21690476Y-52409819D01*
X21690476Y-52409819D02*
X21785714Y-52409819D01*
X21785714Y-52409819D02*
X21928571Y-52457438D01*
X21928571Y-52457438D02*
X21976190Y-52505057D01*
X22404762Y-53409819D02*
X22404762Y-52409819D01*
X22404762Y-52886009D02*
X22976190Y-52886009D01*
X22976190Y-53409819D02*
X22976190Y-52409819D01*
X61807265Y-28642855D02*
X61807265Y-28071427D01*
X62807265Y-28357141D02*
X61807265Y-28357141D01*
X62807265Y-27738093D02*
X61807265Y-27738093D01*
X61807265Y-27738093D02*
X61807265Y-27357141D01*
X61807265Y-27357141D02*
X61854884Y-27261903D01*
X61854884Y-27261903D02*
X61902503Y-27214284D01*
X61902503Y-27214284D02*
X61997741Y-27166665D01*
X61997741Y-27166665D02*
X62140598Y-27166665D01*
X62140598Y-27166665D02*
X62235836Y-27214284D01*
X62235836Y-27214284D02*
X62283455Y-27261903D01*
X62283455Y-27261903D02*
X62331074Y-27357141D01*
X62331074Y-27357141D02*
X62331074Y-27738093D01*
X62902503Y-26976189D02*
X62902503Y-26214284D01*
X61807265Y-25785712D02*
X61807265Y-25595236D01*
X61807265Y-25595236D02*
X61854884Y-25499998D01*
X61854884Y-25499998D02*
X61950122Y-25404760D01*
X61950122Y-25404760D02*
X62140598Y-25357141D01*
X62140598Y-25357141D02*
X62473931Y-25357141D01*
X62473931Y-25357141D02*
X62664407Y-25404760D01*
X62664407Y-25404760D02*
X62759646Y-25499998D01*
X62759646Y-25499998D02*
X62807265Y-25595236D01*
X62807265Y-25595236D02*
X62807265Y-25785712D01*
X62807265Y-25785712D02*
X62759646Y-25880950D01*
X62759646Y-25880950D02*
X62664407Y-25976188D01*
X62664407Y-25976188D02*
X62473931Y-26023807D01*
X62473931Y-26023807D02*
X62140598Y-26023807D01*
X62140598Y-26023807D02*
X61950122Y-25976188D01*
X61950122Y-25976188D02*
X61854884Y-25880950D01*
X61854884Y-25880950D02*
X61807265Y-25785712D01*
X62283455Y-24928569D02*
X62283455Y-24595236D01*
X62807265Y-24452379D02*
X62807265Y-24928569D01*
X62807265Y-24928569D02*
X61807265Y-24928569D01*
X61807265Y-24928569D02*
X61807265Y-24452379D01*
X33125952Y-45454819D02*
X33125952Y-46264342D01*
X33125952Y-46264342D02*
X33173571Y-46359580D01*
X33173571Y-46359580D02*
X33221190Y-46407200D01*
X33221190Y-46407200D02*
X33316428Y-46454819D01*
X33316428Y-46454819D02*
X33506904Y-46454819D01*
X33506904Y-46454819D02*
X33602142Y-46407200D01*
X33602142Y-46407200D02*
X33649761Y-46359580D01*
X33649761Y-46359580D02*
X33697380Y-46264342D01*
X33697380Y-46264342D02*
X33697380Y-45454819D01*
X33935476Y-46550057D02*
X34697380Y-46550057D01*
X34792619Y-45454819D02*
X35364047Y-45454819D01*
X35078333Y-46454819D02*
X35078333Y-45454819D01*
X35887857Y-45454819D02*
X36078333Y-45454819D01*
X36078333Y-45454819D02*
X36173571Y-45502438D01*
X36173571Y-45502438D02*
X36268809Y-45597676D01*
X36268809Y-45597676D02*
X36316428Y-45788152D01*
X36316428Y-45788152D02*
X36316428Y-46121485D01*
X36316428Y-46121485D02*
X36268809Y-46311961D01*
X36268809Y-46311961D02*
X36173571Y-46407200D01*
X36173571Y-46407200D02*
X36078333Y-46454819D01*
X36078333Y-46454819D02*
X35887857Y-46454819D01*
X35887857Y-46454819D02*
X35792619Y-46407200D01*
X35792619Y-46407200D02*
X35697381Y-46311961D01*
X35697381Y-46311961D02*
X35649762Y-46121485D01*
X35649762Y-46121485D02*
X35649762Y-45788152D01*
X35649762Y-45788152D02*
X35697381Y-45597676D01*
X35697381Y-45597676D02*
X35792619Y-45502438D01*
X35792619Y-45502438D02*
X35887857Y-45454819D01*
X36745000Y-45454819D02*
X36745000Y-46264342D01*
X36745000Y-46264342D02*
X36792619Y-46359580D01*
X36792619Y-46359580D02*
X36840238Y-46407200D01*
X36840238Y-46407200D02*
X36935476Y-46454819D01*
X36935476Y-46454819D02*
X37125952Y-46454819D01*
X37125952Y-46454819D02*
X37221190Y-46407200D01*
X37221190Y-46407200D02*
X37268809Y-46359580D01*
X37268809Y-46359580D02*
X37316428Y-46264342D01*
X37316428Y-46264342D02*
X37316428Y-45454819D01*
X38364047Y-46359580D02*
X38316428Y-46407200D01*
X38316428Y-46407200D02*
X38173571Y-46454819D01*
X38173571Y-46454819D02*
X38078333Y-46454819D01*
X38078333Y-46454819D02*
X37935476Y-46407200D01*
X37935476Y-46407200D02*
X37840238Y-46311961D01*
X37840238Y-46311961D02*
X37792619Y-46216723D01*
X37792619Y-46216723D02*
X37745000Y-46026247D01*
X37745000Y-46026247D02*
X37745000Y-45883390D01*
X37745000Y-45883390D02*
X37792619Y-45692914D01*
X37792619Y-45692914D02*
X37840238Y-45597676D01*
X37840238Y-45597676D02*
X37935476Y-45502438D01*
X37935476Y-45502438D02*
X38078333Y-45454819D01*
X38078333Y-45454819D02*
X38173571Y-45454819D01*
X38173571Y-45454819D02*
X38316428Y-45502438D01*
X38316428Y-45502438D02*
X38364047Y-45550057D01*
X38792619Y-46454819D02*
X38792619Y-45454819D01*
X38792619Y-45931009D02*
X39364047Y-45931009D01*
X39364047Y-46454819D02*
X39364047Y-45454819D01*
X7068809Y-49454819D02*
X7068809Y-50264342D01*
X7068809Y-50264342D02*
X7116428Y-50359580D01*
X7116428Y-50359580D02*
X7164047Y-50407200D01*
X7164047Y-50407200D02*
X7259285Y-50454819D01*
X7259285Y-50454819D02*
X7449761Y-50454819D01*
X7449761Y-50454819D02*
X7544999Y-50407200D01*
X7544999Y-50407200D02*
X7592618Y-50359580D01*
X7592618Y-50359580D02*
X7640237Y-50264342D01*
X7640237Y-50264342D02*
X7640237Y-49454819D01*
X7878333Y-50550057D02*
X8640237Y-50550057D01*
X8878333Y-50454819D02*
X8878333Y-49454819D01*
X8878333Y-49454819D02*
X9211666Y-50169104D01*
X9211666Y-50169104D02*
X9544999Y-49454819D01*
X9544999Y-49454819D02*
X9544999Y-50454819D01*
X10021190Y-50454819D02*
X10021190Y-49454819D01*
X11068808Y-50359580D02*
X11021189Y-50407200D01*
X11021189Y-50407200D02*
X10878332Y-50454819D01*
X10878332Y-50454819D02*
X10783094Y-50454819D01*
X10783094Y-50454819D02*
X10640237Y-50407200D01*
X10640237Y-50407200D02*
X10544999Y-50311961D01*
X10544999Y-50311961D02*
X10497380Y-50216723D01*
X10497380Y-50216723D02*
X10449761Y-50026247D01*
X10449761Y-50026247D02*
X10449761Y-49883390D01*
X10449761Y-49883390D02*
X10497380Y-49692914D01*
X10497380Y-49692914D02*
X10544999Y-49597676D01*
X10544999Y-49597676D02*
X10640237Y-49502438D01*
X10640237Y-49502438D02*
X10783094Y-49454819D01*
X10783094Y-49454819D02*
X10878332Y-49454819D01*
X10878332Y-49454819D02*
X11021189Y-49502438D01*
X11021189Y-49502438D02*
X11068808Y-49550057D01*
X74214285Y-50095056D02*
X74119047Y-50047437D01*
X74119047Y-50047437D02*
X74023809Y-49952199D01*
X74023809Y-49952199D02*
X73880952Y-49809341D01*
X73880952Y-49809341D02*
X73785714Y-49761722D01*
X73785714Y-49761722D02*
X73690476Y-49761722D01*
X73738095Y-49999818D02*
X73642857Y-49952199D01*
X73642857Y-49952199D02*
X73547619Y-49856960D01*
X73547619Y-49856960D02*
X73500000Y-49666484D01*
X73500000Y-49666484D02*
X73500000Y-49333151D01*
X73500000Y-49333151D02*
X73547619Y-49142675D01*
X73547619Y-49142675D02*
X73642857Y-49047437D01*
X73642857Y-49047437D02*
X73738095Y-48999818D01*
X73738095Y-48999818D02*
X73928571Y-48999818D01*
X73928571Y-48999818D02*
X74023809Y-49047437D01*
X74023809Y-49047437D02*
X74119047Y-49142675D01*
X74119047Y-49142675D02*
X74166666Y-49333151D01*
X74166666Y-49333151D02*
X74166666Y-49666484D01*
X74166666Y-49666484D02*
X74119047Y-49856960D01*
X74119047Y-49856960D02*
X74023809Y-49952199D01*
X74023809Y-49952199D02*
X73928571Y-49999818D01*
X73928571Y-49999818D02*
X73738095Y-49999818D01*
X74357143Y-50095056D02*
X75119047Y-50095056D01*
X75357143Y-49999818D02*
X75357143Y-48999818D01*
X75357143Y-49476008D02*
X75928571Y-49476008D01*
X75928571Y-49999818D02*
X75928571Y-48999818D01*
X76404762Y-49476008D02*
X76738095Y-49476008D01*
X76880952Y-49999818D02*
X76404762Y-49999818D01*
X76404762Y-49999818D02*
X76404762Y-48999818D01*
X76404762Y-48999818D02*
X76880952Y-48999818D01*
X77261905Y-49714103D02*
X77738095Y-49714103D01*
X77166667Y-49999818D02*
X77500000Y-48999818D01*
X77500000Y-48999818D02*
X77833333Y-49999818D01*
X78023810Y-48999818D02*
X78595238Y-48999818D01*
X78309524Y-49999818D02*
X78309524Y-48999818D01*
X61285713Y-51409819D02*
X61285713Y-52124104D01*
X61285713Y-52124104D02*
X61238094Y-52266961D01*
X61238094Y-52266961D02*
X61142856Y-52362200D01*
X61142856Y-52362200D02*
X60999999Y-52409819D01*
X60999999Y-52409819D02*
X60904761Y-52409819D01*
X61523809Y-52505057D02*
X62285713Y-52505057D01*
X62476190Y-52362200D02*
X62619047Y-52409819D01*
X62619047Y-52409819D02*
X62857142Y-52409819D01*
X62857142Y-52409819D02*
X62952380Y-52362200D01*
X62952380Y-52362200D02*
X62999999Y-52314580D01*
X62999999Y-52314580D02*
X63047618Y-52219342D01*
X63047618Y-52219342D02*
X63047618Y-52124104D01*
X63047618Y-52124104D02*
X62999999Y-52028866D01*
X62999999Y-52028866D02*
X62952380Y-51981247D01*
X62952380Y-51981247D02*
X62857142Y-51933628D01*
X62857142Y-51933628D02*
X62666666Y-51886009D01*
X62666666Y-51886009D02*
X62571428Y-51838390D01*
X62571428Y-51838390D02*
X62523809Y-51790771D01*
X62523809Y-51790771D02*
X62476190Y-51695533D01*
X62476190Y-51695533D02*
X62476190Y-51600295D01*
X62476190Y-51600295D02*
X62523809Y-51505057D01*
X62523809Y-51505057D02*
X62571428Y-51457438D01*
X62571428Y-51457438D02*
X62666666Y-51409819D01*
X62666666Y-51409819D02*
X62904761Y-51409819D01*
X62904761Y-51409819D02*
X63047618Y-51457438D01*
X63476190Y-52409819D02*
X63476190Y-51409819D01*
X63476190Y-51409819D02*
X63857142Y-51409819D01*
X63857142Y-51409819D02*
X63952380Y-51457438D01*
X63952380Y-51457438D02*
X63999999Y-51505057D01*
X63999999Y-51505057D02*
X64047618Y-51600295D01*
X64047618Y-51600295D02*
X64047618Y-51743152D01*
X64047618Y-51743152D02*
X63999999Y-51838390D01*
X63999999Y-51838390D02*
X63952380Y-51886009D01*
X63952380Y-51886009D02*
X63857142Y-51933628D01*
X63857142Y-51933628D02*
X63476190Y-51933628D01*
X64476190Y-52409819D02*
X64476190Y-51409819D01*
X65047618Y-52409819D02*
X64619047Y-51838390D01*
X65047618Y-51409819D02*
X64476190Y-51981247D01*
X76680237Y-24994819D02*
X76680237Y-25709104D01*
X76680237Y-25709104D02*
X76632618Y-25851961D01*
X76632618Y-25851961D02*
X76537380Y-25947200D01*
X76537380Y-25947200D02*
X76394523Y-25994819D01*
X76394523Y-25994819D02*
X76299285Y-25994819D01*
X76918333Y-26090057D02*
X77680237Y-26090057D01*
X77870714Y-25947200D02*
X78013571Y-25994819D01*
X78013571Y-25994819D02*
X78251666Y-25994819D01*
X78251666Y-25994819D02*
X78346904Y-25947200D01*
X78346904Y-25947200D02*
X78394523Y-25899580D01*
X78394523Y-25899580D02*
X78442142Y-25804342D01*
X78442142Y-25804342D02*
X78442142Y-25709104D01*
X78442142Y-25709104D02*
X78394523Y-25613866D01*
X78394523Y-25613866D02*
X78346904Y-25566247D01*
X78346904Y-25566247D02*
X78251666Y-25518628D01*
X78251666Y-25518628D02*
X78061190Y-25471009D01*
X78061190Y-25471009D02*
X77965952Y-25423390D01*
X77965952Y-25423390D02*
X77918333Y-25375771D01*
X77918333Y-25375771D02*
X77870714Y-25280533D01*
X77870714Y-25280533D02*
X77870714Y-25185295D01*
X77870714Y-25185295D02*
X77918333Y-25090057D01*
X77918333Y-25090057D02*
X77965952Y-25042438D01*
X77965952Y-25042438D02*
X78061190Y-24994819D01*
X78061190Y-24994819D02*
X78299285Y-24994819D01*
X78299285Y-24994819D02*
X78442142Y-25042438D01*
X78870714Y-25471009D02*
X79204047Y-25471009D01*
X79346904Y-25994819D02*
X78870714Y-25994819D01*
X78870714Y-25994819D02*
X78870714Y-24994819D01*
X78870714Y-24994819D02*
X79346904Y-24994819D01*
X80346904Y-25994819D02*
X80013571Y-25518628D01*
X79775476Y-25994819D02*
X79775476Y-24994819D01*
X79775476Y-24994819D02*
X80156428Y-24994819D01*
X80156428Y-24994819D02*
X80251666Y-25042438D01*
X80251666Y-25042438D02*
X80299285Y-25090057D01*
X80299285Y-25090057D02*
X80346904Y-25185295D01*
X80346904Y-25185295D02*
X80346904Y-25328152D01*
X80346904Y-25328152D02*
X80299285Y-25423390D01*
X80299285Y-25423390D02*
X80251666Y-25471009D01*
X80251666Y-25471009D02*
X80156428Y-25518628D01*
X80156428Y-25518628D02*
X79775476Y-25518628D01*
X80632619Y-24994819D02*
X80965952Y-25994819D01*
X80965952Y-25994819D02*
X81299285Y-24994819D01*
X81823095Y-24994819D02*
X82013571Y-24994819D01*
X82013571Y-24994819D02*
X82108809Y-25042438D01*
X82108809Y-25042438D02*
X82204047Y-25137676D01*
X82204047Y-25137676D02*
X82251666Y-25328152D01*
X82251666Y-25328152D02*
X82251666Y-25661485D01*
X82251666Y-25661485D02*
X82204047Y-25851961D01*
X82204047Y-25851961D02*
X82108809Y-25947200D01*
X82108809Y-25947200D02*
X82013571Y-25994819D01*
X82013571Y-25994819D02*
X81823095Y-25994819D01*
X81823095Y-25994819D02*
X81727857Y-25947200D01*
X81727857Y-25947200D02*
X81632619Y-25851961D01*
X81632619Y-25851961D02*
X81585000Y-25661485D01*
X81585000Y-25661485D02*
X81585000Y-25328152D01*
X81585000Y-25328152D02*
X81632619Y-25137676D01*
X81632619Y-25137676D02*
X81727857Y-25042438D01*
X81727857Y-25042438D02*
X81823095Y-24994819D01*
X82442143Y-26090057D02*
X83204047Y-26090057D01*
X83918333Y-25994819D02*
X83442143Y-25994819D01*
X83442143Y-25994819D02*
X83442143Y-24994819D01*
X51833333Y-44709818D02*
X51833333Y-45519341D01*
X51833333Y-45519341D02*
X51880952Y-45614579D01*
X51880952Y-45614579D02*
X51928571Y-45662199D01*
X51928571Y-45662199D02*
X52023809Y-45709818D01*
X52023809Y-45709818D02*
X52214285Y-45709818D01*
X52214285Y-45709818D02*
X52309523Y-45662199D01*
X52309523Y-45662199D02*
X52357142Y-45614579D01*
X52357142Y-45614579D02*
X52404761Y-45519341D01*
X52404761Y-45519341D02*
X52404761Y-44709818D01*
X52642857Y-45805056D02*
X53404761Y-45805056D01*
X53595238Y-45424103D02*
X54071428Y-45424103D01*
X53500000Y-45709818D02*
X53833333Y-44709818D01*
X53833333Y-44709818D02*
X54166666Y-45709818D01*
X54500000Y-45709818D02*
X54500000Y-44709818D01*
X54500000Y-44709818D02*
X54833333Y-45424103D01*
X54833333Y-45424103D02*
X55166666Y-44709818D01*
X55166666Y-44709818D02*
X55166666Y-45709818D01*
X55642857Y-45709818D02*
X55642857Y-44709818D01*
X55642857Y-44709818D02*
X56023809Y-44709818D01*
X56023809Y-44709818D02*
X56119047Y-44757437D01*
X56119047Y-44757437D02*
X56166666Y-44805056D01*
X56166666Y-44805056D02*
X56214285Y-44900294D01*
X56214285Y-44900294D02*
X56214285Y-45043151D01*
X56214285Y-45043151D02*
X56166666Y-45138389D01*
X56166666Y-45138389D02*
X56119047Y-45186008D01*
X56119047Y-45186008D02*
X56023809Y-45233627D01*
X56023809Y-45233627D02*
X55642857Y-45233627D01*
X56649819Y-59047618D02*
X57459342Y-59047618D01*
X57459342Y-59047618D02*
X57554580Y-58999999D01*
X57554580Y-58999999D02*
X57602200Y-58952380D01*
X57602200Y-58952380D02*
X57649819Y-58857142D01*
X57649819Y-58857142D02*
X57649819Y-58666666D01*
X57649819Y-58666666D02*
X57602200Y-58571428D01*
X57602200Y-58571428D02*
X57554580Y-58523809D01*
X57554580Y-58523809D02*
X57459342Y-58476190D01*
X57459342Y-58476190D02*
X56649819Y-58476190D01*
X57745057Y-58238095D02*
X57745057Y-57476190D01*
X57649819Y-56761904D02*
X57649819Y-57238094D01*
X57649819Y-57238094D02*
X56649819Y-57238094D01*
X57649819Y-56428570D02*
X56649819Y-56428570D01*
X56649819Y-56428570D02*
X56649819Y-56190475D01*
X56649819Y-56190475D02*
X56697438Y-56047618D01*
X56697438Y-56047618D02*
X56792676Y-55952380D01*
X56792676Y-55952380D02*
X56887914Y-55904761D01*
X56887914Y-55904761D02*
X57078390Y-55857142D01*
X57078390Y-55857142D02*
X57221247Y-55857142D01*
X57221247Y-55857142D02*
X57411723Y-55904761D01*
X57411723Y-55904761D02*
X57506961Y-55952380D01*
X57506961Y-55952380D02*
X57602200Y-56047618D01*
X57602200Y-56047618D02*
X57649819Y-56190475D01*
X57649819Y-56190475D02*
X57649819Y-56428570D01*
X56649819Y-55238094D02*
X56649819Y-55047618D01*
X56649819Y-55047618D02*
X56697438Y-54952380D01*
X56697438Y-54952380D02*
X56792676Y-54857142D01*
X56792676Y-54857142D02*
X56983152Y-54809523D01*
X56983152Y-54809523D02*
X57316485Y-54809523D01*
X57316485Y-54809523D02*
X57506961Y-54857142D01*
X57506961Y-54857142D02*
X57602200Y-54952380D01*
X57602200Y-54952380D02*
X57649819Y-55047618D01*
X57649819Y-55047618D02*
X57649819Y-55238094D01*
X57649819Y-55238094D02*
X57602200Y-55333332D01*
X57602200Y-55333332D02*
X57506961Y-55428570D01*
X57506961Y-55428570D02*
X57316485Y-55476189D01*
X57316485Y-55476189D02*
X56983152Y-55476189D01*
X56983152Y-55476189D02*
X56792676Y-55428570D01*
X56792676Y-55428570D02*
X56697438Y-55333332D01*
X56697438Y-55333332D02*
X56649819Y-55238094D01*
X57649819Y-53857142D02*
X57649819Y-54428570D01*
X57649819Y-54142856D02*
X56649819Y-54142856D01*
X56649819Y-54142856D02*
X56792676Y-54238094D01*
X56792676Y-54238094D02*
X56887914Y-54333332D01*
X56887914Y-54333332D02*
X56935533Y-54428570D01*
X56649819Y-52952380D02*
X56649819Y-53428570D01*
X56649819Y-53428570D02*
X57126009Y-53476189D01*
X57126009Y-53476189D02*
X57078390Y-53428570D01*
X57078390Y-53428570D02*
X57030771Y-53333332D01*
X57030771Y-53333332D02*
X57030771Y-53095237D01*
X57030771Y-53095237D02*
X57078390Y-52999999D01*
X57078390Y-52999999D02*
X57126009Y-52952380D01*
X57126009Y-52952380D02*
X57221247Y-52904761D01*
X57221247Y-52904761D02*
X57459342Y-52904761D01*
X57459342Y-52904761D02*
X57554580Y-52952380D01*
X57554580Y-52952380D02*
X57602200Y-52999999D01*
X57602200Y-52999999D02*
X57649819Y-53095237D01*
X57649819Y-53095237D02*
X57649819Y-53333332D01*
X57649819Y-53333332D02*
X57602200Y-53428570D01*
X57602200Y-53428570D02*
X57554580Y-53476189D01*
%TO.C,C_CAM_AVDD*%
D11*
X41142164Y-47440000D02*
X41357836Y-47440000D01*
X41142164Y-48160000D02*
X41357836Y-48160000D01*
%TO.C,U_EFUSE*%
X33804432Y-17865000D02*
X35610000Y-17865000D01*
X35610000Y-20135000D02*
X33390000Y-20135000D01*
X33510000Y-17860000D02*
X33370000Y-17670000D01*
X33650000Y-17670000D01*
X33510000Y-17860000D01*
G36*
X33510000Y-17860000D02*
G01*
X33370000Y-17670000D01*
X33650000Y-17670000D01*
X33510000Y-17860000D01*
G37*
%TO.C,C_BUCK_IN*%
X40261252Y-10265000D02*
X39738748Y-10265000D01*
X40261252Y-11735000D02*
X39738748Y-11735000D01*
%TO.C,C_VMOT_BULK*%
D10*
X65270000Y-11710000D02*
X65270000Y-13790000D01*
X65270000Y-15810000D02*
X65270000Y-17890000D01*
X67410000Y-9570000D02*
X65270000Y-11710000D01*
X67410000Y-20030000D02*
X65270000Y-17890000D01*
X75730000Y-9570000D02*
X67410000Y-9570000D01*
X75730000Y-13790000D02*
X75730000Y-9570000D01*
X75730000Y-20030000D02*
X67410000Y-20030000D01*
X75730000Y-20030000D02*
X75730000Y-15810000D01*
D12*
X64880000Y-19950000D02*
G75*
G02*
X64820000Y-19950000I-30000J0D01*
G01*
X64820000Y-19950000D02*
G75*
G02*
X64880000Y-19950000I30000J0D01*
G01*
D13*
G36*
X66895003Y-17323490D02*
G01*
X65658989Y-17323490D01*
X65658989Y-17014499D01*
X66895003Y-17014499D01*
X66895003Y-17323490D01*
G37*
G36*
X66431504Y-18199003D02*
G01*
X66122488Y-18199003D01*
X66122488Y-16139012D01*
X66431504Y-16139012D01*
X66431504Y-18199003D01*
G37*
G36*
X75341011Y-17323490D02*
G01*
X74104997Y-17323490D01*
X74104997Y-17014499D01*
X75341011Y-17014499D01*
X75341011Y-17323490D01*
G37*
%TO.C,R_LCD_MOSI*%
D11*
X44120000Y-3403641D02*
X44120000Y-3096359D01*
X44880000Y-3403641D02*
X44880000Y-3096359D01*
%TO.C,TP_TX*%
X23700000Y-42000000D02*
G75*
G02*
X22300000Y-42000000I-700000J0D01*
G01*
X22300000Y-42000000D02*
G75*
G02*
X23700000Y-42000000I700000J0D01*
G01*
%TO.C,TP_VMOT*%
X79450000Y-21250000D02*
G75*
G02*
X78050000Y-21250000I-700000J0D01*
G01*
X78050000Y-21250000D02*
G75*
G02*
X79450000Y-21250000I700000J0D01*
G01*
%TO.C,J_USB*%
X23300000Y-2700000D02*
X23300000Y-800000D01*
X23300000Y-6600000D02*
X23300000Y-4600000D01*
X32700000Y-800000D02*
X23300000Y-800000D01*
X32700000Y-2700000D02*
X32700000Y-800000D01*
X32700000Y-6600000D02*
X32700000Y-4600000D01*
%TO.C,C_VMOT_HF*%
X69642164Y-8390000D02*
X69857836Y-8390000D01*
X69642164Y-9110000D02*
X69857836Y-9110000D01*
%TO.C,R_LCD_BL_OFF*%
X56846359Y-9920000D02*
X57153641Y-9920000D01*
X56846359Y-10680000D02*
X57153641Y-10680000D01*
%TO.C,TP_E1*%
X30700000Y-38000000D02*
G75*
G02*
X29300000Y-38000000I-700000J0D01*
G01*
X29300000Y-38000000D02*
G75*
G02*
X30700000Y-38000000I700000J0D01*
G01*
%TO.C,U1*%
X-6150000Y-20800000D02*
X50000Y-20800000D01*
X-6150000Y-39200000D02*
X-6150000Y-20800000D01*
X-6150000Y-39200000D02*
X50000Y-39200000D01*
X18700000Y-39200000D02*
X19700000Y-39200000D01*
X19700000Y-20800000D02*
X18700000Y-20800000D01*
X19700000Y-20800000D02*
X19700000Y-22300000D01*
X19700000Y-39200000D02*
X19700000Y-37700000D01*
X725000Y-39200000D02*
X725000Y-39700000D01*
X225000Y-39200000D01*
X725000Y-39200000D01*
G36*
X725000Y-39700000D02*
G01*
X225000Y-39200000D01*
X725000Y-39200000D01*
X725000Y-39700000D01*
G37*
%TO.C,J_HEAT*%
X79590000Y-40940000D02*
X86610000Y-40940000D01*
X79590000Y-49020000D02*
X79590000Y-40940000D01*
X84200000Y-40140000D02*
X84800000Y-40140000D01*
X84500000Y-40740000D02*
X84200000Y-40140000D01*
X84800000Y-40140000D02*
X84500000Y-40740000D01*
X86610000Y-40940000D02*
X86610000Y-42140000D01*
X86610000Y-42140000D02*
X88310000Y-42140000D01*
X86610000Y-47820000D02*
X86610000Y-49020000D01*
X86610000Y-49020000D02*
X79590000Y-49020000D01*
X88310000Y-42140000D02*
X88310000Y-47820000D01*
X88310000Y-47820000D02*
X86610000Y-47820000D01*
%TO.C,TP_GATE*%
X77450000Y-47000000D02*
G75*
G02*
X76050000Y-47000000I-700000J0D01*
G01*
X76050000Y-47000000D02*
G75*
G02*
X77450000Y-47000000I700000J0D01*
G01*
%TO.C,Q_LCD_BL*%
X59240000Y-11440000D02*
X60760000Y-11440000D01*
X59240000Y-11490000D02*
X59240000Y-11440000D01*
X59240000Y-13390000D02*
X59240000Y-12610000D01*
X59240000Y-14560000D02*
X59240000Y-14510000D01*
X60760000Y-11440000D02*
X60760000Y-12440000D01*
X60760000Y-13560000D02*
X60760000Y-14560000D01*
X60760000Y-14560000D02*
X59240000Y-14560000D01*
X58700000Y-12620000D02*
X58940000Y-12950000D01*
X58460000Y-12950000D01*
X58700000Y-12620000D01*
G36*
X58940000Y-12950000D02*
G01*
X58460000Y-12950000D01*
X58700000Y-12620000D01*
X58940000Y-12950000D01*
G37*
%TO.C,U_ADC*%
X68390000Y-46390000D02*
X71610000Y-46390000D01*
X68390000Y-46590000D02*
X68390000Y-46390000D01*
X68390000Y-49610000D02*
X68390000Y-49410000D01*
X71610000Y-46390000D02*
X71610000Y-46590000D01*
X71610000Y-49410000D02*
X71610000Y-49610000D01*
X71610000Y-49610000D02*
X68390000Y-49610000D01*
X67840000Y-46590000D02*
X67600000Y-46260000D01*
X68080000Y-46260000D01*
X67840000Y-46590000D01*
G36*
X67840000Y-46590000D02*
G01*
X67600000Y-46260000D01*
X68080000Y-46260000D01*
X67840000Y-46590000D01*
G37*
%TO.C,R_MIC_SD*%
X14596359Y-52620000D02*
X14903641Y-52620000D01*
X14596359Y-53380000D02*
X14903641Y-53380000D01*
%TO.C,D_USB_DN*%
X21140000Y-7310000D02*
X21140000Y-6000000D01*
X21140000Y-7310000D02*
X22360000Y-7310000D01*
X22360000Y-7310000D02*
X22360000Y-6000000D01*
%TO.C,TP_E5*%
X31200000Y-35500000D02*
G75*
G02*
X29800000Y-35500000I-700000J0D01*
G01*
X29800000Y-35500000D02*
G75*
G02*
X31200000Y-35500000I700000J0D01*
G01*
%TO.C,R_FB1*%
X36596359Y-10370000D02*
X36903641Y-10370000D01*
X36596359Y-11130000D02*
X36903641Y-11130000D01*
%TO.C,R_EFUSE_ILM*%
X37346359Y-18370000D02*
X37653641Y-18370000D01*
X37346359Y-19130000D02*
X37653641Y-19130000D01*
%TO.C,C_ADC*%
X69142164Y-45140000D02*
X69357836Y-45140000D01*
X69142164Y-45860000D02*
X69357836Y-45860000D01*
%TO.C,C_U1*%
X2640000Y-41892164D02*
X2640000Y-42107836D01*
X3360000Y-41892164D02*
X3360000Y-42107836D01*
%TO.C,U_IMU*%
X43850000Y-28315000D02*
X43850000Y-28090000D01*
X43850000Y-32150000D02*
X43850000Y-31625000D01*
X43850000Y-32150000D02*
X44375000Y-32150000D01*
X44375000Y-27850000D02*
X44150000Y-27850000D01*
X48150000Y-27850000D02*
X47625000Y-27850000D01*
X48150000Y-27850000D02*
X48150000Y-28375000D01*
X48150000Y-32150000D02*
X47625000Y-32150000D01*
X48150000Y-32150000D02*
X48150000Y-31625000D01*
X43850000Y-27850000D02*
X43610000Y-27520000D01*
X44090000Y-27520000D01*
X43850000Y-27850000D01*
G36*
X43850000Y-27850000D02*
G01*
X43610000Y-27520000D01*
X44090000Y-27520000D01*
X43850000Y-27850000D01*
G37*
%TO.C,C_LDO15_OUT*%
X54640000Y-56107836D02*
X54640000Y-55892164D01*
X55360000Y-56107836D02*
X55360000Y-55892164D01*
%TO.C,C_IMU_REG*%
X45890000Y-34892164D02*
X45890000Y-35107836D01*
X46610000Y-34892164D02*
X46610000Y-35107836D01*
%TO.C,F_USB*%
X34090000Y-5352064D02*
X34090000Y-4147936D01*
X35910000Y-5352064D02*
X35910000Y-4147936D01*
%TO.C,TP_E8*%
X43700000Y-43200000D02*
G75*
G02*
X42300000Y-43200000I-700000J0D01*
G01*
X42300000Y-43200000D02*
G75*
G02*
X43700000Y-43200000I700000J0D01*
G01*
%TO.C,TP_3V3*%
X43950000Y-10750000D02*
G75*
G02*
X42550000Y-10750000I-700000J0D01*
G01*
X42550000Y-10750000D02*
G75*
G02*
X43950000Y-10750000I700000J0D01*
G01*
%TO.C,R_BOOT*%
X12846359Y-16120000D02*
X13153641Y-16120000D01*
X12846359Y-16880000D02*
X13153641Y-16880000D01*
%TO.C,C_CAM_RST*%
X38892164Y-47440000D02*
X39107836Y-47440000D01*
X38892164Y-48160000D02*
X39107836Y-48160000D01*
%TO.C,J_CAM*%
D14*
X31740000Y-49550000D02*
X31740000Y-49680000D01*
X31740000Y-53710000D02*
X31740000Y-55090000D01*
X31740000Y-55090000D02*
X33870000Y-55090000D01*
X31750000Y-49650000D02*
X31740000Y-51640000D01*
X46130000Y-55090000D02*
X48260000Y-55090000D01*
X48260000Y-49550000D02*
X31740000Y-49550000D01*
X48260000Y-51640000D02*
X48260000Y-49550000D01*
X48260000Y-55090000D02*
X48260000Y-53710000D01*
D15*
X46750000Y-55700000D02*
G75*
G02*
X46350000Y-55700000I-200000J0D01*
G01*
X46350000Y-55700000D02*
G75*
G02*
X46750000Y-55700000I200000J0D01*
G01*
D12*
X48230000Y-55710000D02*
G75*
G02*
X48170000Y-55710000I-30000J0D01*
G01*
X48170000Y-55710000D02*
G75*
G02*
X48230000Y-55710000I30000J0D01*
G01*
%TO.C,J_NTC*%
D11*
X71640000Y-52890000D02*
X71640000Y-54140000D01*
X71940000Y-54500000D02*
X72550000Y-54500000D01*
X71940000Y-55800000D02*
X72550000Y-55800000D01*
X72550000Y-53800000D02*
X72550000Y-57300000D01*
X72550000Y-57300000D02*
X77450000Y-57300000D01*
X72890000Y-52890000D02*
X71640000Y-52890000D01*
X73400000Y-52990000D02*
X73400000Y-53190000D01*
X73700000Y-52990000D02*
X73400000Y-52990000D01*
X73700000Y-53090000D02*
X73400000Y-53090000D01*
X73700000Y-53190000D02*
X73700000Y-52990000D01*
X74500000Y-53190000D02*
X74500000Y-53800000D01*
X74500000Y-53800000D02*
X72550000Y-53800000D01*
X74900000Y-56800000D02*
X75100000Y-56800000D01*
X74900000Y-57300000D02*
X74900000Y-56800000D01*
X75000000Y-57300000D02*
X75000000Y-56800000D01*
X75100000Y-56800000D02*
X75100000Y-57300000D01*
X75500000Y-53800000D02*
X75500000Y-53190000D01*
X77450000Y-53800000D02*
X75500000Y-53800000D01*
X77450000Y-57300000D02*
X77450000Y-53800000D01*
X78060000Y-54500000D02*
X77450000Y-54500000D01*
X78060000Y-55800000D02*
X77450000Y-55800000D01*
X71940000Y-53190000D02*
X78060000Y-53190000D01*
X78060000Y-57910000D01*
X71940000Y-57910000D01*
X71940000Y-53190000D01*
%TO.C,SW_RST*%
D14*
X9450000Y-4830000D02*
X9450000Y-7170000D01*
X9830000Y-7660000D02*
X10720000Y-8550000D01*
X10200000Y-5000000D02*
X11000000Y-4200000D01*
X10200000Y-7000000D02*
X10200000Y-5000000D01*
X10720000Y-3450000D02*
X9830000Y-4340000D01*
X10720000Y-3450000D02*
X13280000Y-3450000D01*
X10720000Y-8550000D02*
X13280000Y-8550000D01*
X11000000Y-4200000D02*
X12900000Y-4200000D01*
X11100000Y-7900000D02*
X10200000Y-7000000D01*
X12800000Y-7900000D02*
X11100000Y-7900000D01*
X12900000Y-4200000D02*
X13800000Y-5100000D01*
X13280000Y-3450000D02*
X14170000Y-4340000D01*
X13800000Y-5100000D02*
X13800000Y-6900000D01*
X13800000Y-6900000D02*
X12800000Y-7900000D01*
X14170000Y-7660000D02*
X13280000Y-8550000D01*
X14550000Y-4830000D02*
X14550000Y-7170000D01*
D12*
X8780000Y-3450000D02*
G75*
G02*
X8720000Y-3450000I-30000J0D01*
G01*
X8720000Y-3450000D02*
G75*
G02*
X8780000Y-3450000I30000J0D01*
G01*
D14*
X13280000Y-6000000D02*
G75*
G02*
X10720000Y-6000000I-1280000J0D01*
G01*
X10720000Y-6000000D02*
G75*
G02*
X13280000Y-6000000I1280000J0D01*
G01*
%TO.C,TP_VBUS*%
D11*
X29450000Y-11250000D02*
G75*
G02*
X28050000Y-11250000I-700000J0D01*
G01*
X28050000Y-11250000D02*
G75*
G02*
X29450000Y-11250000I700000J0D01*
G01*
%TO.C,TP_E9*%
X40700000Y-42200000D02*
G75*
G02*
X39300000Y-42200000I-700000J0D01*
G01*
X39300000Y-42200000D02*
G75*
G02*
X40700000Y-42200000I700000J0D01*
G01*
%TO.C,R_BUCK_EN*%
X39620000Y-18653641D02*
X39620000Y-18346359D01*
X40380000Y-18653641D02*
X40380000Y-18346359D01*
%TO.C,C_IMU*%
X49140000Y-30107836D02*
X49140000Y-29892164D01*
X49860000Y-30107836D02*
X49860000Y-29892164D01*
%TO.C,C_AMP*%
X53392164Y-46640000D02*
X53607836Y-46640000D01*
X53392164Y-47360000D02*
X53607836Y-47360000D01*
%TO.C,TP_PGND*%
X64950000Y-32750000D02*
G75*
G02*
X63550000Y-32750000I-700000J0D01*
G01*
X63550000Y-32750000D02*
G75*
G02*
X64950000Y-32750000I700000J0D01*
G01*
%TO.C,C_U1_BULK*%
X790000Y-42359420D02*
X790000Y-42640580D01*
X1810000Y-42359420D02*
X1810000Y-42640580D01*
%TO.C,D_VMOT_TVS*%
X68340000Y-20600000D02*
X68340000Y-24900000D01*
X68340000Y-20600000D02*
X74150000Y-20600000D01*
X68340000Y-24900000D02*
X74150000Y-24900000D01*
%TO.C,C_LDO28_IN*%
X26392164Y-55140000D02*
X26607836Y-55140000D01*
X26392164Y-55860000D02*
X26607836Y-55860000D01*
%TO.C,J_SERVO_R*%
X84620000Y-30620000D02*
X86000000Y-30620000D01*
X84620000Y-32000000D02*
X84620000Y-30620000D01*
X84620000Y-33270000D02*
X84620000Y-38460000D01*
X84620000Y-33270000D02*
X87380000Y-33270000D01*
X84620000Y-38460000D02*
X87380000Y-38460000D01*
X87380000Y-33270000D02*
X87380000Y-38460000D01*
%TO.C,R_NTC*%
X70346359Y-50120000D02*
X70653641Y-50120000D01*
X70346359Y-50880000D02*
X70653641Y-50880000D01*
%TO.C,R_GATE_PD*%
X72620000Y-44903641D02*
X72620000Y-44596359D01*
X73380000Y-44903641D02*
X73380000Y-44596359D01*
%TO.C,TP_SDA*%
X23700000Y-38000000D02*
G75*
G02*
X22300000Y-38000000I-700000J0D01*
G01*
X22300000Y-38000000D02*
G75*
G02*
X23700000Y-38000000I700000J0D01*
G01*
%TO.C,Q_REV*%
X81240000Y-20190000D02*
X82760000Y-20190000D01*
X81240000Y-20240000D02*
X81240000Y-20190000D01*
X81240000Y-22140000D02*
X81240000Y-21360000D01*
X81240000Y-23310000D02*
X81240000Y-23260000D01*
X82760000Y-20190000D02*
X82760000Y-21190000D01*
X82760000Y-22310000D02*
X82760000Y-23310000D01*
X82760000Y-23310000D02*
X81240000Y-23310000D01*
X80700000Y-21370000D02*
X80940000Y-21700000D01*
X80460000Y-21700000D01*
X80700000Y-21370000D01*
G36*
X80940000Y-21700000D02*
G01*
X80460000Y-21700000D01*
X80700000Y-21370000D01*
X80940000Y-21700000D01*
G37*
%TO.C,R_EN*%
X4120000Y-42153641D02*
X4120000Y-41846359D01*
X4880000Y-42153641D02*
X4880000Y-41846359D01*
%TO.C,TP_E3*%
X28450000Y-39250000D02*
G75*
G02*
X27050000Y-39250000I-700000J0D01*
G01*
X27050000Y-39250000D02*
G75*
G02*
X28450000Y-39250000I700000J0D01*
G01*
%TO.C,R_SCL*%
X22846359Y-33620000D02*
X23153641Y-33620000D01*
X22846359Y-34380000D02*
X23153641Y-34380000D01*
%TO.C,C_AMP_BULK*%
X58359420Y-48490000D02*
X58640580Y-48490000D01*
X58359420Y-49510000D02*
X58640580Y-49510000D01*
%TO.C,L_BUCK*%
D14*
X36550000Y-12000000D02*
X34750000Y-12000000D01*
X36550000Y-16000000D02*
X34750000Y-16000000D01*
D12*
X37680000Y-12000000D02*
G75*
G02*
X37620000Y-12000000I-30000J0D01*
G01*
X37620000Y-12000000D02*
G75*
G02*
X37680000Y-12000000I30000J0D01*
G01*
%TO.C,C_BUCK_OUT1*%
D11*
X42765000Y-14261252D02*
X42765000Y-13738748D01*
X44235000Y-14261252D02*
X44235000Y-13738748D01*
%TO.C,C_LCD*%
X45142164Y-4640000D02*
X45357836Y-4640000D01*
X45142164Y-5360000D02*
X45357836Y-5360000D01*
%TO.C,TP_GND*%
X68700000Y-32000000D02*
G75*
G02*
X67300000Y-32000000I-700000J0D01*
G01*
X67300000Y-32000000D02*
G75*
G02*
X68700000Y-32000000I700000J0D01*
G01*
%TO.C,U_PWM*%
X59690000Y-20640000D02*
X64310000Y-20640000D01*
X59690000Y-20915000D02*
X59690000Y-20640000D01*
X59690000Y-30560000D02*
X59690000Y-30285000D01*
X64310000Y-20640000D02*
X64310000Y-20915000D01*
X64310000Y-30285000D02*
X64310000Y-30560000D01*
X64310000Y-30560000D02*
X59690000Y-30560000D01*
X59050000Y-20910000D02*
X58710000Y-20440000D01*
X59390000Y-20440000D01*
X59050000Y-20910000D01*
G36*
X59050000Y-20910000D02*
G01*
X58710000Y-20440000D01*
X59390000Y-20440000D01*
X59050000Y-20910000D01*
G37*
%TO.C,TP_E2*%
X31450000Y-40250000D02*
G75*
G02*
X30050000Y-40250000I-700000J0D01*
G01*
X30050000Y-40250000D02*
G75*
G02*
X31450000Y-40250000I700000J0D01*
G01*
%TO.C,SW_BOOT*%
D14*
X9450000Y-11830000D02*
X9450000Y-14170000D01*
X9830000Y-14660000D02*
X10720000Y-15550000D01*
X10200000Y-12000000D02*
X11000000Y-11200000D01*
X10200000Y-14000000D02*
X10200000Y-12000000D01*
X10720000Y-10450000D02*
X9830000Y-11340000D01*
X10720000Y-10450000D02*
X13280000Y-10450000D01*
X10720000Y-15550000D02*
X13280000Y-15550000D01*
X11000000Y-11200000D02*
X12900000Y-11200000D01*
X11100000Y-14900000D02*
X10200000Y-14000000D01*
X12800000Y-14900000D02*
X11100000Y-14900000D01*
X12900000Y-11200000D02*
X13800000Y-12100000D01*
X13280000Y-10450000D02*
X14170000Y-11340000D01*
X13800000Y-12100000D02*
X13800000Y-13900000D01*
X13800000Y-13900000D02*
X12800000Y-14900000D01*
X14170000Y-14660000D02*
X13280000Y-15550000D01*
X14550000Y-11830000D02*
X14550000Y-14170000D01*
D12*
X8780000Y-10450000D02*
G75*
G02*
X8720000Y-10450000I-30000J0D01*
G01*
X8720000Y-10450000D02*
G75*
G02*
X8780000Y-10450000I30000J0D01*
G01*
D14*
X13280000Y-13000000D02*
G75*
G02*
X10720000Y-13000000I-1280000J0D01*
G01*
X10720000Y-13000000D02*
G75*
G02*
X13280000Y-13000000I1280000J0D01*
G01*
%TO.C,TP_SCL*%
D11*
X26200000Y-38000000D02*
G75*
G02*
X24800000Y-38000000I-700000J0D01*
G01*
X24800000Y-38000000D02*
G75*
G02*
X26200000Y-38000000I700000J0D01*
G01*
%TO.C,U_BUCK*%
X39090000Y-12440000D02*
X40910000Y-12440000D01*
X39090000Y-12490000D02*
X39090000Y-12440000D01*
X39090000Y-15560000D02*
X39090000Y-15510000D01*
X40910000Y-12440000D02*
X40910000Y-12490000D01*
X40910000Y-13610000D02*
X40910000Y-14390000D01*
X40910000Y-15510000D02*
X40910000Y-15560000D01*
X40910000Y-15560000D02*
X39090000Y-15560000D01*
X38550000Y-12490000D02*
X38310000Y-12160000D01*
X38790000Y-12160000D01*
X38550000Y-12490000D01*
G36*
X38550000Y-12490000D02*
G01*
X38310000Y-12160000D01*
X38790000Y-12160000D01*
X38550000Y-12490000D01*
G37*
%TO.C,TP_E4*%
X28450000Y-36750000D02*
G75*
G02*
X27050000Y-36750000I-700000J0D01*
G01*
X27050000Y-36750000D02*
G75*
G02*
X28450000Y-36750000I700000J0D01*
G01*
%TO.C,R_SIOD*%
X30096359Y-56620000D02*
X30403641Y-56620000D01*
X30096359Y-57380000D02*
X30403641Y-57380000D01*
%TO.C,U_LDO28*%
X25090000Y-51440000D02*
X26910000Y-51440000D01*
X25090000Y-51490000D02*
X25090000Y-51440000D01*
X25090000Y-54560000D02*
X25090000Y-54510000D01*
X26910000Y-51440000D02*
X26910000Y-51490000D01*
X26910000Y-52610000D02*
X26910000Y-53390000D01*
X26910000Y-54510000D02*
X26910000Y-54560000D01*
X26910000Y-54560000D02*
X25090000Y-54560000D01*
X24550000Y-51490000D02*
X24310000Y-51160000D01*
X24790000Y-51160000D01*
X24550000Y-51490000D01*
G36*
X24550000Y-51490000D02*
G01*
X24310000Y-51160000D01*
X24790000Y-51160000D01*
X24550000Y-51490000D01*
G37*
%TO.C,R_CC1*%
X21346359Y-4120000D02*
X21653641Y-4120000D01*
X21346359Y-4880000D02*
X21653641Y-4880000D01*
%TO.C,R_SIOC*%
X27596359Y-56620000D02*
X27903641Y-56620000D01*
X27596359Y-57380000D02*
X27903641Y-57380000D01*
%TO.C,J_LCD_R*%
X45620000Y-8880000D02*
X45620000Y-7500000D01*
X47000000Y-8880000D02*
X45620000Y-8880000D01*
X48270000Y-6120000D02*
X66160000Y-6120000D01*
X48270000Y-8880000D02*
X48270000Y-6120000D01*
X48270000Y-8880000D02*
X66160000Y-8880000D01*
X66160000Y-8880000D02*
X66160000Y-6120000D01*
%TO.C,TP_E6*%
X33700000Y-36000000D02*
G75*
G02*
X32300000Y-36000000I-700000J0D01*
G01*
X32300000Y-36000000D02*
G75*
G02*
X33700000Y-36000000I700000J0D01*
G01*
%TO.C,R_TOUCH_REXT*%
X34346359Y-43620000D02*
X34653641Y-43620000D01*
X34346359Y-44380000D02*
X34653641Y-44380000D01*
%TO.C,J_LCD_L*%
X45620000Y-3880000D02*
X45620000Y-2500000D01*
X47000000Y-3880000D02*
X45620000Y-3880000D01*
X48270000Y-1120000D02*
X66160000Y-1120000D01*
X48270000Y-3880000D02*
X48270000Y-1120000D01*
X48270000Y-3880000D02*
X66160000Y-3880000D01*
X66160000Y-3880000D02*
X66160000Y-1120000D01*
%TO.C,J_VMOT*%
X78280000Y-8160000D02*
X88770000Y-8160000D01*
X78280000Y-19160000D02*
X78280000Y-8160000D01*
X79900000Y-19160000D02*
X79900000Y-8160000D01*
X87650000Y-19160000D02*
X87650000Y-8160000D01*
X88770000Y-8160000D02*
X88770000Y-16200000D01*
X88770000Y-16800000D02*
X88770000Y-19160000D01*
X88770000Y-19160000D02*
X78280000Y-19160000D01*
X88770000Y-16500000D02*
X89380000Y-16060000D01*
X89380000Y-16940000D01*
X88770000Y-16500000D01*
G36*
X89380000Y-16940000D02*
G01*
X88770000Y-16500000D01*
X89380000Y-16060000D01*
X89380000Y-16940000D01*
G37*
%TO.C,TP_E11*%
X34700000Y-39000000D02*
G75*
G02*
X33300000Y-39000000I-700000J0D01*
G01*
X33300000Y-39000000D02*
G75*
G02*
X34700000Y-39000000I700000J0D01*
G01*
%TO.C,C_NTC*%
X68142164Y-50140000D02*
X68357836Y-50140000D01*
X68142164Y-50860000D02*
X68357836Y-50860000D01*
%TO.C,R_CAM_RST*%
X36596359Y-47420000D02*
X36903641Y-47420000D01*
X36596359Y-48180000D02*
X36903641Y-48180000D01*
%TO.C,C_CAM_DVDD*%
X43392164Y-47440000D02*
X43607836Y-47440000D01*
X43392164Y-48160000D02*
X43607836Y-48160000D01*
%TO.C,R_GATE*%
X75096359Y-41120000D02*
X75403641Y-41120000D01*
X75096359Y-41880000D02*
X75403641Y-41880000D01*
%TO.C,J_EXT*%
X15740000Y-12190000D02*
X15740000Y-7310000D01*
X17710000Y-6140000D02*
X18860000Y-6140000D01*
X17710000Y-13360000D02*
X18860000Y-13360000D01*
X18860000Y-6140000D02*
X18860000Y-7190000D01*
X18860000Y-12310000D02*
X19850000Y-12310000D01*
X18860000Y-13360000D02*
X18860000Y-12310000D01*
%TO.C,C_PWM*%
X56640000Y-24607836D02*
X56640000Y-24392164D01*
X57360000Y-24607836D02*
X57360000Y-24392164D01*
%TO.C,R_OE*%
X56870000Y-27153641D02*
X56870000Y-26846359D01*
X57630000Y-27153641D02*
X57630000Y-26846359D01*
%TO.C,C_BUCK_OUT2*%
X42238748Y-16265000D02*
X42761252Y-16265000D01*
X42238748Y-17735000D02*
X42761252Y-17735000D01*
%TO.C,R_STAR*%
X65620000Y-32153641D02*
X65620000Y-31846359D01*
X66380000Y-32153641D02*
X66380000Y-31846359D01*
%TO.C,C_EFUSE_IN*%
X31107836Y-18890000D02*
X30892164Y-18890000D01*
X31107836Y-19610000D02*
X30892164Y-19610000D01*
%TO.C,C_BUCK_HF*%
X39307836Y-16130000D02*
X39092164Y-16130000D01*
X39307836Y-16850000D02*
X39092164Y-16850000D01*
%TO.C,J_TOUCH*%
X16640000Y-53890000D02*
X16640000Y-55140000D01*
X16940000Y-55500000D02*
X17550000Y-55500000D01*
X16940000Y-56800000D02*
X17550000Y-56800000D01*
X17550000Y-54800000D02*
X17550000Y-58300000D01*
X17550000Y-58300000D02*
X22450000Y-58300000D01*
X17890000Y-53890000D02*
X16640000Y-53890000D01*
X18400000Y-53990000D02*
X18400000Y-54190000D01*
X18700000Y-53990000D02*
X18400000Y-53990000D01*
X18700000Y-54090000D02*
X18400000Y-54090000D01*
X18700000Y-54190000D02*
X18700000Y-53990000D01*
X19500000Y-54190000D02*
X19500000Y-54800000D01*
X19500000Y-54800000D02*
X17550000Y-54800000D01*
X19900000Y-57800000D02*
X20100000Y-57800000D01*
X19900000Y-58300000D02*
X19900000Y-57800000D01*
X20000000Y-58300000D02*
X20000000Y-57800000D01*
X20100000Y-57800000D02*
X20100000Y-58300000D01*
X20500000Y-54800000D02*
X20500000Y-54190000D01*
X22450000Y-54800000D02*
X20500000Y-54800000D01*
X22450000Y-58300000D02*
X22450000Y-54800000D01*
X23060000Y-55500000D02*
X22450000Y-55500000D01*
X23060000Y-56800000D02*
X22450000Y-56800000D01*
X16940000Y-54190000D02*
X23060000Y-54190000D01*
X23060000Y-58910000D01*
X16940000Y-58910000D01*
X16940000Y-54190000D01*
%TO.C,TP_OE*%
X68200000Y-26500000D02*
G75*
G02*
X66800000Y-26500000I-700000J0D01*
G01*
X66800000Y-26500000D02*
G75*
G02*
X68200000Y-26500000I700000J0D01*
G01*
%TO.C,R_REV*%
X85096359Y-20120000D02*
X85403641Y-20120000D01*
X85096359Y-20880000D02*
X85403641Y-20880000D01*
%TO.C,U_TOUCH*%
X28390000Y-44390000D02*
X28840000Y-44390000D01*
X28390000Y-44840000D02*
X28390000Y-44390000D01*
X28390000Y-47610000D02*
X28390000Y-47160000D01*
X28840000Y-47610000D02*
X28390000Y-47610000D01*
X31160000Y-44390000D02*
X31610000Y-44390000D01*
X31610000Y-44390000D02*
X31610000Y-44840000D01*
X31610000Y-47160000D02*
X31610000Y-47610000D01*
X31610000Y-47610000D02*
X31160000Y-47610000D01*
X27880000Y-45200000D02*
X27550000Y-45440000D01*
X27550000Y-44960000D01*
X27880000Y-45200000D01*
G36*
X27880000Y-45200000D02*
G01*
X27550000Y-45440000D01*
X27550000Y-44960000D01*
X27880000Y-45200000D01*
G37*
%TO.C,C_IMU_VLOGIC*%
X49392164Y-33640000D02*
X49607836Y-33640000D01*
X49392164Y-34360000D02*
X49607836Y-34360000D01*
%TO.C,U_MIC*%
X11540000Y-48020000D02*
X16460000Y-48020000D01*
X11540000Y-51980000D02*
X11540000Y-48020000D01*
X11540000Y-52230000D02*
X12340000Y-52230000D01*
X16460000Y-48020000D02*
X16460000Y-51980000D01*
X16460000Y-51980000D02*
X11540000Y-51980000D01*
%TO.C,R_LCD_CLK*%
X47346359Y-4620000D02*
X47653641Y-4620000D01*
X47346359Y-5380000D02*
X47653641Y-5380000D01*
%TO.C,D_USB_DP*%
X25690000Y-10390000D02*
X25690000Y-11610000D01*
X25690000Y-10390000D02*
X27000000Y-10390000D01*
X25690000Y-11610000D02*
X27000000Y-11610000D01*
%TO.C,C_FF*%
X41642164Y-18390000D02*
X41857836Y-18390000D01*
X41642164Y-19110000D02*
X41857836Y-19110000D01*
%TO.C,R_CC2*%
X31596359Y-10370000D02*
X31903641Y-10370000D01*
X31596359Y-11130000D02*
X31903641Y-11130000D01*
%TO.C,C_EFUSE_DVDT*%
X31640000Y-21607836D02*
X31640000Y-21392164D01*
X32360000Y-21607836D02*
X32360000Y-21392164D01*
%TO.C,Q_HEAT*%
X75240000Y-42440000D02*
X76760000Y-42440000D01*
X75240000Y-42490000D02*
X75240000Y-42440000D01*
X75240000Y-44390000D02*
X75240000Y-43610000D01*
X75240000Y-45560000D02*
X75240000Y-45510000D01*
X76760000Y-42440000D02*
X76760000Y-43440000D01*
X76760000Y-44560000D02*
X76760000Y-45560000D01*
X76760000Y-45560000D02*
X75240000Y-45560000D01*
X74700000Y-43620000D02*
X74940000Y-43950000D01*
X74460000Y-43950000D01*
X74700000Y-43620000D01*
G36*
X74940000Y-43950000D02*
G01*
X74460000Y-43950000D01*
X74700000Y-43620000D01*
X74940000Y-43950000D01*
G37*
%TO.C,J_SPK*%
X59640000Y-52890000D02*
X59640000Y-54140000D01*
X59940000Y-54500000D02*
X60550000Y-54500000D01*
X59940000Y-55800000D02*
X60550000Y-55800000D01*
X60550000Y-53800000D02*
X60550000Y-57300000D01*
X60550000Y-57300000D02*
X65450000Y-57300000D01*
X60890000Y-52890000D02*
X59640000Y-52890000D01*
X61400000Y-52990000D02*
X61400000Y-53190000D01*
X61700000Y-52990000D02*
X61400000Y-52990000D01*
X61700000Y-53090000D02*
X61400000Y-53090000D01*
X61700000Y-53190000D02*
X61700000Y-52990000D01*
X62500000Y-53190000D02*
X62500000Y-53800000D01*
X62500000Y-53800000D02*
X60550000Y-53800000D01*
X62900000Y-56800000D02*
X63100000Y-56800000D01*
X62900000Y-57300000D02*
X62900000Y-56800000D01*
X63000000Y-57300000D02*
X63000000Y-56800000D01*
X63100000Y-56800000D02*
X63100000Y-57300000D01*
X63500000Y-53800000D02*
X63500000Y-53190000D01*
X65450000Y-53800000D02*
X63500000Y-53800000D01*
X65450000Y-57300000D02*
X65450000Y-53800000D01*
X66060000Y-54500000D02*
X65450000Y-54500000D01*
X66060000Y-55800000D02*
X65450000Y-55800000D01*
X59940000Y-53190000D02*
X66060000Y-53190000D01*
X66060000Y-57910000D01*
X59940000Y-57910000D01*
X59940000Y-53190000D01*
%TO.C,C_EN*%
X5640000Y-42107836D02*
X5640000Y-41892164D01*
X6360000Y-42107836D02*
X6360000Y-41892164D01*
%TO.C,C_LDO15_IN*%
X52392164Y-58140000D02*
X52607836Y-58140000D01*
X52392164Y-58860000D02*
X52607836Y-58860000D01*
%TO.C,R_FB2*%
X38096359Y-8870000D02*
X38403641Y-8870000D01*
X38096359Y-9630000D02*
X38403641Y-9630000D01*
%TO.C,C_TOUCH*%
X24392164Y-49140000D02*
X24607836Y-49140000D01*
X24392164Y-49860000D02*
X24607836Y-49860000D01*
%TO.C,R_SDA*%
X22846359Y-31620000D02*
X23153641Y-31620000D01*
X22846359Y-32380000D02*
X23153641Y-32380000D01*
%TO.C,TP_E10*%
X37700000Y-41200000D02*
G75*
G02*
X36300000Y-41200000I-700000J0D01*
G01*
X36300000Y-41200000D02*
G75*
G02*
X37700000Y-41200000I700000J0D01*
G01*
%TO.C,J_SERVO_L*%
X84620000Y-21620000D02*
X86000000Y-21620000D01*
X84620000Y-23000000D02*
X84620000Y-21620000D01*
X84620000Y-24270000D02*
X84620000Y-29460000D01*
X84620000Y-24270000D02*
X87380000Y-24270000D01*
X84620000Y-29460000D02*
X87380000Y-29460000D01*
X87380000Y-24270000D02*
X87380000Y-29460000D01*
%TO.C,R_LCD_BL_GATE*%
X56646359Y-11670000D02*
X56953641Y-11670000D01*
X56646359Y-12430000D02*
X56953641Y-12430000D01*
%TO.C,C_LDO28_OUT*%
X28640000Y-53107836D02*
X28640000Y-52892164D01*
X29360000Y-53107836D02*
X29360000Y-52892164D01*
%TO.C,U_AMP*%
X52390000Y-48390000D02*
X52865000Y-48390000D01*
X52390000Y-48865000D02*
X52390000Y-48390000D01*
X52390000Y-51610000D02*
X52390000Y-51135000D01*
X52865000Y-51610000D02*
X52390000Y-51610000D01*
X55135000Y-48390000D02*
X55610000Y-48390000D01*
X55610000Y-48390000D02*
X55610000Y-48865000D01*
X55610000Y-51135000D02*
X55610000Y-51610000D01*
X55610000Y-51610000D02*
X55135000Y-51610000D01*
X51880000Y-49250000D02*
X51550000Y-49490000D01*
X51550000Y-49010000D01*
X51880000Y-49250000D01*
G36*
X51880000Y-49250000D02*
G01*
X51550000Y-49490000D01*
X51550000Y-49010000D01*
X51880000Y-49250000D01*
G37*
%TO.C,C_TOUCH_VREG*%
X24392164Y-46640000D02*
X24607836Y-46640000D01*
X24392164Y-47360000D02*
X24607836Y-47360000D01*
%TO.C,C_MIC*%
X13392164Y-46640000D02*
X13607836Y-46640000D01*
X13392164Y-47360000D02*
X13607836Y-47360000D01*
%TO.C,U_LDO15*%
X51090000Y-54440000D02*
X52910000Y-54440000D01*
X51090000Y-54490000D02*
X51090000Y-54440000D01*
X51090000Y-57560000D02*
X51090000Y-57510000D01*
X52910000Y-54440000D02*
X52910000Y-54490000D01*
X52910000Y-55610000D02*
X52910000Y-56390000D01*
X52910000Y-57510000D02*
X52910000Y-57560000D01*
X52910000Y-57560000D02*
X51090000Y-57560000D01*
X50550000Y-54490000D02*
X50310000Y-54160000D01*
X50790000Y-54160000D01*
X50550000Y-54490000D01*
G36*
X50550000Y-54490000D02*
G01*
X50310000Y-54160000D01*
X50790000Y-54160000D01*
X50550000Y-54490000D01*
G37*
%TO.C,R_AMP_SD*%
X54596359Y-52620000D02*
X54903641Y-52620000D01*
X54596359Y-53380000D02*
X54903641Y-53380000D01*
%TO.C,C_IMU_CP*%
X49392164Y-26140000D02*
X49607836Y-26140000D01*
X49392164Y-26860000D02*
X49607836Y-26860000D01*
%TO.C,TP_E7*%
X28950000Y-41500000D02*
G75*
G02*
X27550000Y-41500000I-700000J0D01*
G01*
X27550000Y-41500000D02*
G75*
G02*
X28950000Y-41500000I700000J0D01*
G01*
%TO.C,R_CAM_PWDN*%
X34346359Y-47420000D02*
X34653641Y-47420000D01*
X34346359Y-48180000D02*
X34653641Y-48180000D01*
%TD*%
%LPC*%
D16*
%TO.C,C_CAM_AVDD*%
X40770000Y-47800000D03*
X41730000Y-47800000D03*
%TD*%
D17*
%TO.C,U_EFUSE*%
X33550000Y-18250000D03*
X33550000Y-18750000D03*
X33550000Y-19250000D03*
X33550000Y-19750000D03*
X35450000Y-19750000D03*
X35450000Y-19250000D03*
X35450000Y-18750000D03*
X35450000Y-18250000D03*
D18*
X34500000Y-19000000D03*
%TD*%
D19*
%TO.C,C_BUCK_IN*%
X40950000Y-11000000D03*
X39050000Y-11000000D03*
%TD*%
D20*
%TO.C,C_VMOT_BULK*%
X66000000Y-14800000D03*
X75000000Y-14800000D03*
%TD*%
D21*
%TO.C,R_LCD_MOSI*%
X44500000Y-3760000D03*
X44500000Y-2740000D03*
%TD*%
D22*
%TO.C,TP_TX*%
X23000000Y-42000000D03*
%TD*%
%TO.C,TP_VMOT*%
X78750000Y-21250000D03*
%TD*%
D23*
%TO.C,H3*%
X86000000Y-4000000D03*
%TD*%
D24*
%TO.C,J_USB*%
X30890000Y-7300000D03*
X25110000Y-7300000D03*
D25*
X31250000Y-8745000D03*
X30450000Y-8745000D03*
D26*
X29250000Y-8745000D03*
X28250000Y-8745000D03*
X27750000Y-8745000D03*
X26750000Y-8745000D03*
D25*
X25550000Y-8745000D03*
X24750000Y-8745000D03*
X24750000Y-8745000D03*
X25550000Y-8745000D03*
D26*
X26250000Y-8745000D03*
X27250000Y-8745000D03*
X28750000Y-8745000D03*
X29750000Y-8745000D03*
D25*
X30450000Y-8745000D03*
X31250000Y-8745000D03*
D27*
X32320000Y-7830000D03*
D28*
X32320000Y-3650000D03*
D27*
X23680000Y-7830000D03*
D28*
X23680000Y-3650000D03*
%TD*%
D16*
%TO.C,C_VMOT_HF*%
X69270000Y-8750000D03*
X70230000Y-8750000D03*
%TD*%
D29*
%TO.C,R_LCD_BL_OFF*%
X56490000Y-10300000D03*
X57510000Y-10300000D03*
%TD*%
D22*
%TO.C,TP_E1*%
X30000000Y-38000000D03*
%TD*%
D30*
%TO.C,U1*%
X1490000Y-38750000D03*
X2760000Y-38750000D03*
X4030000Y-38750000D03*
X5300000Y-38750000D03*
X6570000Y-38750000D03*
X7840000Y-38750000D03*
X9110000Y-38750000D03*
X10380000Y-38750000D03*
X11650000Y-38750000D03*
X12920000Y-38750000D03*
X14190000Y-38750000D03*
X15460000Y-38750000D03*
X16730000Y-38750000D03*
X18000000Y-38750000D03*
D31*
X19250000Y-36985000D03*
X19250000Y-35715000D03*
X19250000Y-34445000D03*
X19250000Y-33175000D03*
X19250000Y-31905000D03*
X19250000Y-30635000D03*
X19250000Y-29365000D03*
X19250000Y-28095000D03*
X19250000Y-26825000D03*
X19250000Y-25555000D03*
X19250000Y-24285000D03*
X19250000Y-23015000D03*
D30*
X18000000Y-21250000D03*
X16730000Y-21250000D03*
X15460000Y-21250000D03*
X14190000Y-21250000D03*
X12920000Y-21250000D03*
X11650000Y-21250000D03*
X10380000Y-21250000D03*
X9110000Y-21250000D03*
X7840000Y-21250000D03*
X6570000Y-21250000D03*
X5300000Y-21250000D03*
X4030000Y-21250000D03*
X2760000Y-21250000D03*
X1490000Y-21250000D03*
D32*
X8510000Y-32900000D03*
X9910000Y-32900000D03*
X7810000Y-32200000D03*
X9210000Y-32200000D03*
X10610000Y-32200000D03*
X8510000Y-31500000D03*
D33*
X9210000Y-31500000D03*
D32*
X9910000Y-31500000D03*
X7810000Y-30800000D03*
X9210000Y-30800000D03*
X10610000Y-30800000D03*
X8510000Y-30100000D03*
X9910000Y-30100000D03*
%TD*%
D23*
%TO.C,H4*%
X86000000Y-56000000D03*
%TD*%
D34*
%TO.C,J_HEAT*%
X84500000Y-43000000D03*
D35*
X84500000Y-46960000D03*
%TD*%
D22*
%TO.C,TP_GATE*%
X76750000Y-47000000D03*
%TD*%
D36*
%TO.C,Q_LCD_BL*%
X59062500Y-12050000D03*
X59062500Y-13950000D03*
X60937500Y-13000000D03*
%TD*%
D37*
%TO.C,U_ADC*%
X67850000Y-47000000D03*
X67850000Y-47500000D03*
X67850000Y-48000000D03*
X67850000Y-48500000D03*
X67850000Y-49000000D03*
X72150000Y-49000000D03*
X72150000Y-48500000D03*
X72150000Y-48000000D03*
X72150000Y-47500000D03*
X72150000Y-47000000D03*
%TD*%
D29*
%TO.C,R_MIC_SD*%
X14240000Y-53000000D03*
X15260000Y-53000000D03*
%TD*%
D38*
%TO.C,D_USB_DN*%
X21750000Y-6850000D03*
X21750000Y-6150000D03*
%TD*%
D22*
%TO.C,TP_E5*%
X30500000Y-35500000D03*
%TD*%
D29*
%TO.C,R_FB1*%
X36240000Y-10750000D03*
X37260000Y-10750000D03*
%TD*%
%TO.C,R_EFUSE_ILM*%
X36990000Y-18750000D03*
X38010000Y-18750000D03*
%TD*%
D16*
%TO.C,C_ADC*%
X68770000Y-45500000D03*
X69730000Y-45500000D03*
%TD*%
D39*
%TO.C,C_U1*%
X3000000Y-41520000D03*
X3000000Y-42480000D03*
%TD*%
D40*
%TO.C,U_IMU*%
X44050000Y-28750000D03*
X44050000Y-29250000D03*
X44050000Y-29750000D03*
X44050000Y-30250000D03*
X44050000Y-30750000D03*
X44050000Y-31250000D03*
D41*
X44750000Y-31950000D03*
X45250000Y-31950000D03*
X45750000Y-31950000D03*
X46250000Y-31950000D03*
X46750000Y-31950000D03*
X47250000Y-31950000D03*
D40*
X47950000Y-31250000D03*
X47950000Y-30750000D03*
X47950000Y-30250000D03*
X47950000Y-29750000D03*
X47950000Y-29250000D03*
X47950000Y-28750000D03*
D41*
X47250000Y-28050000D03*
X46750000Y-28050000D03*
X46250000Y-28050000D03*
X45750000Y-28050000D03*
X45250000Y-28050000D03*
X44750000Y-28050000D03*
%TD*%
D42*
%TO.C,C_LDO15_OUT*%
X55000000Y-56480000D03*
X55000000Y-55520000D03*
%TD*%
D39*
%TO.C,C_IMU_REG*%
X46250000Y-34520000D03*
X46250000Y-35480000D03*
%TD*%
D43*
%TO.C,F_USB*%
X35000000Y-6150000D03*
X35000000Y-3350000D03*
%TD*%
D22*
%TO.C,TP_E8*%
X43000000Y-43200000D03*
%TD*%
%TO.C,TP_3V3*%
X43250000Y-10750000D03*
%TD*%
D29*
%TO.C,R_BOOT*%
X12490000Y-16500000D03*
X13510000Y-16500000D03*
%TD*%
D16*
%TO.C,C_CAM_RST*%
X38520000Y-47800000D03*
X39480000Y-47800000D03*
%TD*%
D44*
%TO.C,J_CAM*%
X45750000Y-55330000D03*
X45250000Y-55330000D03*
X44750000Y-55330000D03*
X44250000Y-55330000D03*
X43750000Y-55330000D03*
X43250000Y-55330000D03*
X42750000Y-55330000D03*
X42250000Y-55330000D03*
X41750000Y-55330000D03*
X41250000Y-55330000D03*
X40750000Y-55330000D03*
X40250000Y-55330000D03*
X39750000Y-55330000D03*
X39250000Y-55330000D03*
X38750000Y-55330000D03*
X38250000Y-55330000D03*
X37750000Y-55330000D03*
X37250000Y-55330000D03*
X36750000Y-55330000D03*
X36250000Y-55330000D03*
X35750000Y-55330000D03*
X35250000Y-55330000D03*
X34750000Y-55330000D03*
X34250000Y-55330000D03*
D45*
X32550000Y-52670000D03*
X47450000Y-52670000D03*
%TD*%
D46*
%TO.C,J_NTC*%
X74000000Y-55000000D03*
D47*
X76000000Y-55000000D03*
%TD*%
D48*
%TO.C,SW_RST*%
X9000000Y-4150000D03*
X15000000Y-4150000D03*
X9000000Y-7850000D03*
X15000000Y-7850000D03*
%TD*%
D22*
%TO.C,TP_VBUS*%
X28750000Y-11250000D03*
%TD*%
%TO.C,TP_E9*%
X40000000Y-42200000D03*
%TD*%
D21*
%TO.C,R_BUCK_EN*%
X40000000Y-19010000D03*
X40000000Y-17990000D03*
%TD*%
D42*
%TO.C,C_IMU*%
X49500000Y-30480000D03*
X49500000Y-29520000D03*
%TD*%
D16*
%TO.C,C_AMP*%
X53020000Y-47000000D03*
X53980000Y-47000000D03*
%TD*%
D22*
%TO.C,TP_PGND*%
X64250000Y-32750000D03*
%TD*%
D49*
%TO.C,C_U1_BULK*%
X1300000Y-41725000D03*
X1300000Y-43275000D03*
%TD*%
D50*
%TO.C,D_VMOT_TVS*%
X69850000Y-22750000D03*
X74150000Y-22750000D03*
%TD*%
D16*
%TO.C,C_LDO28_IN*%
X26020000Y-55500000D03*
X26980000Y-55500000D03*
%TD*%
D23*
%TO.C,H2*%
X4000000Y-56000000D03*
%TD*%
D51*
%TO.C,J_SERVO_R*%
X86000000Y-32000000D03*
D52*
X86000000Y-34540000D03*
X86000000Y-37080000D03*
%TD*%
D29*
%TO.C,R_NTC*%
X69990000Y-50500000D03*
X71010000Y-50500000D03*
%TD*%
D21*
%TO.C,R_GATE_PD*%
X73000000Y-45260000D03*
X73000000Y-44240000D03*
%TD*%
D22*
%TO.C,TP_SDA*%
X23000000Y-38000000D03*
%TD*%
D23*
%TO.C,H1*%
X4000000Y-4000000D03*
%TD*%
D36*
%TO.C,Q_REV*%
X81062500Y-20800000D03*
X81062500Y-22700000D03*
X82937500Y-21750000D03*
%TD*%
D21*
%TO.C,R_EN*%
X4500000Y-42510000D03*
X4500000Y-41490000D03*
%TD*%
D22*
%TO.C,TP_E3*%
X27750000Y-39250000D03*
%TD*%
D29*
%TO.C,R_SCL*%
X22490000Y-34000000D03*
X23510000Y-34000000D03*
%TD*%
D53*
%TO.C,C_AMP_BULK*%
X57725000Y-49000000D03*
X59275000Y-49000000D03*
%TD*%
D54*
%TO.C,L_BUCK*%
X37150000Y-14000000D03*
X34150000Y-14000000D03*
%TD*%
D55*
%TO.C,C_BUCK_OUT1*%
X43500000Y-14950000D03*
X43500000Y-13050000D03*
%TD*%
D16*
%TO.C,C_LCD*%
X44770000Y-5000000D03*
X45730000Y-5000000D03*
%TD*%
D22*
%TO.C,TP_GND*%
X68000000Y-32000000D03*
%TD*%
D56*
%TO.C,U_PWM*%
X59137500Y-21375000D03*
X59137500Y-22025000D03*
X59137500Y-22675000D03*
X59137500Y-23325000D03*
X59137500Y-23975000D03*
X59137500Y-24625000D03*
X59137500Y-25275000D03*
X59137500Y-25925000D03*
X59137500Y-26575000D03*
X59137500Y-27225000D03*
X59137500Y-27875000D03*
X59137500Y-28525000D03*
X59137500Y-29175000D03*
X59137500Y-29825000D03*
X64862500Y-29825000D03*
X64862500Y-29175000D03*
X64862500Y-28525000D03*
X64862500Y-27875000D03*
X64862500Y-27225000D03*
X64862500Y-26575000D03*
X64862500Y-25925000D03*
X64862500Y-25275000D03*
X64862500Y-24625000D03*
X64862500Y-23975000D03*
X64862500Y-23325000D03*
X64862500Y-22675000D03*
X64862500Y-22025000D03*
X64862500Y-21375000D03*
%TD*%
D22*
%TO.C,TP_E2*%
X30750000Y-40250000D03*
%TD*%
D48*
%TO.C,SW_BOOT*%
X9000000Y-11150000D03*
X15000000Y-11150000D03*
X9000000Y-14850000D03*
X15000000Y-14850000D03*
%TD*%
D22*
%TO.C,TP_SCL*%
X25500000Y-38000000D03*
%TD*%
D57*
%TO.C,U_BUCK*%
X38862500Y-13050000D03*
X38862500Y-14000000D03*
X38862500Y-14950000D03*
X41137500Y-14950000D03*
X41137500Y-13050000D03*
%TD*%
D22*
%TO.C,TP_E4*%
X27750000Y-36750000D03*
%TD*%
D29*
%TO.C,R_SIOD*%
X29740000Y-57000000D03*
X30760000Y-57000000D03*
%TD*%
D57*
%TO.C,U_LDO28*%
X24862500Y-52050000D03*
X24862500Y-53000000D03*
X24862500Y-53950000D03*
X27137500Y-53950000D03*
X27137500Y-52050000D03*
%TD*%
D29*
%TO.C,R_CC1*%
X20990000Y-4500000D03*
X22010000Y-4500000D03*
%TD*%
%TO.C,R_SIOC*%
X27240000Y-57000000D03*
X28260000Y-57000000D03*
%TD*%
D51*
%TO.C,J_LCD_R*%
X47000000Y-7500000D03*
D52*
X49540000Y-7500000D03*
X52080000Y-7500000D03*
X54620000Y-7500000D03*
X57160000Y-7500000D03*
X59700000Y-7500000D03*
X62240000Y-7500000D03*
X64780000Y-7500000D03*
%TD*%
D22*
%TO.C,TP_E6*%
X33000000Y-36000000D03*
%TD*%
D29*
%TO.C,R_TOUCH_REXT*%
X33990000Y-44000000D03*
X35010000Y-44000000D03*
%TD*%
D51*
%TO.C,J_LCD_L*%
X47000000Y-2500000D03*
D52*
X49540000Y-2500000D03*
X52080000Y-2500000D03*
X54620000Y-2500000D03*
X57160000Y-2500000D03*
X59700000Y-2500000D03*
X62240000Y-2500000D03*
X64780000Y-2500000D03*
%TD*%
D58*
%TO.C,J_VMOT*%
X83300000Y-16500000D03*
D59*
X83300000Y-11420000D03*
%TD*%
D22*
%TO.C,TP_E11*%
X34000000Y-39000000D03*
%TD*%
D16*
%TO.C,C_NTC*%
X67770000Y-50500000D03*
X68730000Y-50500000D03*
%TD*%
D29*
%TO.C,R_CAM_RST*%
X36240000Y-47800000D03*
X37260000Y-47800000D03*
%TD*%
D16*
%TO.C,C_CAM_DVDD*%
X43020000Y-47800000D03*
X43980000Y-47800000D03*
%TD*%
D29*
%TO.C,R_GATE*%
X74740000Y-41500000D03*
X75760000Y-41500000D03*
%TD*%
D60*
%TO.C,J_EXT*%
X19075000Y-11750000D03*
X19075000Y-10750000D03*
X19075000Y-9750000D03*
X19075000Y-8750000D03*
X19075000Y-7750000D03*
D61*
X16550000Y-13050000D03*
X16550000Y-6450000D03*
%TD*%
D42*
%TO.C,C_PWM*%
X57000000Y-24980000D03*
X57000000Y-24020000D03*
%TD*%
D21*
%TO.C,R_OE*%
X57250000Y-27510000D03*
X57250000Y-26490000D03*
%TD*%
D62*
%TO.C,C_BUCK_OUT2*%
X41550000Y-17000000D03*
X43450000Y-17000000D03*
%TD*%
D21*
%TO.C,R_STAR*%
X66000000Y-32510000D03*
X66000000Y-31490000D03*
%TD*%
D63*
%TO.C,C_EFUSE_IN*%
X31480000Y-19250000D03*
X30520000Y-19250000D03*
%TD*%
%TO.C,C_BUCK_HF*%
X39680000Y-16490000D03*
X38720000Y-16490000D03*
%TD*%
D46*
%TO.C,J_TOUCH*%
X19000000Y-56000000D03*
D47*
X21000000Y-56000000D03*
%TD*%
D22*
%TO.C,TP_OE*%
X67500000Y-26500000D03*
%TD*%
D29*
%TO.C,R_REV*%
X84740000Y-20500000D03*
X85760000Y-20500000D03*
%TD*%
D64*
%TO.C,U_TOUCH*%
X28612500Y-45200000D03*
D65*
X28612500Y-45600000D03*
X28612500Y-46000000D03*
X28612500Y-46400000D03*
D66*
X28612500Y-46800000D03*
D67*
X29200000Y-47387500D03*
D68*
X29600000Y-47387500D03*
X30000000Y-47387500D03*
X30400000Y-47387500D03*
D69*
X30800000Y-47387500D03*
D70*
X31387500Y-46800000D03*
D65*
X31387500Y-46400000D03*
X31387500Y-46000000D03*
X31387500Y-45600000D03*
D71*
X31387500Y-45200000D03*
D72*
X30800000Y-44612500D03*
D68*
X30400000Y-44612500D03*
X30000000Y-44612500D03*
X29600000Y-44612500D03*
D73*
X29200000Y-44612500D03*
%TD*%
D16*
%TO.C,C_IMU_VLOGIC*%
X49020000Y-34000000D03*
X49980000Y-34000000D03*
%TD*%
D74*
%TO.C,U_MIC*%
X15290000Y-50000000D03*
D75*
X12140000Y-51330000D03*
X13190000Y-51330000D03*
X14240000Y-51330000D03*
X15290000Y-51330000D03*
D76*
X15920000Y-50000000D03*
D75*
X15290000Y-48670000D03*
X14240000Y-48670000D03*
X13190000Y-48670000D03*
X12140000Y-48670000D03*
%TD*%
D29*
%TO.C,R_LCD_CLK*%
X46990000Y-5000000D03*
X48010000Y-5000000D03*
%TD*%
D77*
%TO.C,D_USB_DP*%
X26150000Y-11000000D03*
X26850000Y-11000000D03*
%TD*%
D16*
%TO.C,C_FF*%
X41270000Y-18750000D03*
X42230000Y-18750000D03*
%TD*%
D29*
%TO.C,R_CC2*%
X31240000Y-10750000D03*
X32260000Y-10750000D03*
%TD*%
D42*
%TO.C,C_EFUSE_DVDT*%
X32000000Y-21980000D03*
X32000000Y-21020000D03*
%TD*%
D36*
%TO.C,Q_HEAT*%
X75062500Y-43050000D03*
X75062500Y-44950000D03*
X76937500Y-44000000D03*
%TD*%
D46*
%TO.C,J_SPK*%
X62000000Y-55000000D03*
D47*
X64000000Y-55000000D03*
%TD*%
D42*
%TO.C,C_EN*%
X6000000Y-42480000D03*
X6000000Y-41520000D03*
%TD*%
D16*
%TO.C,C_LDO15_IN*%
X52020000Y-58500000D03*
X52980000Y-58500000D03*
%TD*%
D29*
%TO.C,R_FB2*%
X37740000Y-9250000D03*
X38760000Y-9250000D03*
%TD*%
D16*
%TO.C,C_TOUCH*%
X24020000Y-49500000D03*
X24980000Y-49500000D03*
%TD*%
D29*
%TO.C,R_SDA*%
X22490000Y-32000000D03*
X23510000Y-32000000D03*
%TD*%
D22*
%TO.C,TP_E10*%
X37000000Y-41200000D03*
%TD*%
D51*
%TO.C,J_SERVO_L*%
X86000000Y-23000000D03*
D52*
X86000000Y-25540000D03*
X86000000Y-28080000D03*
%TD*%
D29*
%TO.C,R_LCD_BL_GATE*%
X56290000Y-12050000D03*
X57310000Y-12050000D03*
%TD*%
D42*
%TO.C,C_LDO28_OUT*%
X29000000Y-53480000D03*
X29000000Y-52520000D03*
%TD*%
D78*
%TO.C,U_AMP*%
X52562500Y-49250000D03*
X52562500Y-49750000D03*
X52562500Y-50250000D03*
X52562500Y-50750000D03*
D79*
X53250000Y-51437500D03*
X53750000Y-51437500D03*
X54250000Y-51437500D03*
X54750000Y-51437500D03*
D78*
X55437500Y-50750000D03*
X55437500Y-50250000D03*
X55437500Y-49750000D03*
X55437500Y-49250000D03*
D79*
X54750000Y-48562500D03*
X54250000Y-48562500D03*
X53750000Y-48562500D03*
X53250000Y-48562500D03*
D80*
X54000000Y-50000000D03*
%TD*%
D16*
%TO.C,C_TOUCH_VREG*%
X24020000Y-47000000D03*
X24980000Y-47000000D03*
%TD*%
%TO.C,C_MIC*%
X13020000Y-47000000D03*
X13980000Y-47000000D03*
%TD*%
D57*
%TO.C,U_LDO15*%
X50862500Y-55050000D03*
X50862500Y-56000000D03*
X50862500Y-56950000D03*
X53137500Y-56950000D03*
X53137500Y-55050000D03*
%TD*%
D29*
%TO.C,R_AMP_SD*%
X54240000Y-53000000D03*
X55260000Y-53000000D03*
%TD*%
D16*
%TO.C,C_IMU_CP*%
X49020000Y-26500000D03*
X49980000Y-26500000D03*
%TD*%
D22*
%TO.C,TP_E7*%
X28250000Y-41500000D03*
%TD*%
D29*
%TO.C,R_CAM_PWDN*%
X33990000Y-47800000D03*
X35010000Y-47800000D03*
%TD*%
%LPD*%
M02*
