%TF.GenerationSoftware,KiCad,Pcbnew,10.0.6*%
%TF.CreationDate,2026-09-14T22:10:41-07:00*%
%TF.ProjectId,plush-toy-mainboard,706c7573-682d-4746-9f79-2d6d61696e62,rev?*%
%TF.SameCoordinates,Original*%
%TF.FileFunction,Soldermask,Bot*%
%TF.FilePolarity,Negative*%
%FSLAX46Y46*%
G04 Gerber Fmt 4.6, Leading zero omitted, Abs format (unit mm)*
G04 Created by KiCad (PCBNEW 10.0.6) date 2026-09-14 22:10:41*
%MOMM*%
%LPD*%
G01*
G04 APERTURE LIST*
G04 Aperture macros list*
%AMRoundRect*
0 Rectangle with rounded corners*
0 $1 Rounding radius*
0 $2 $3 $4 $5 $6 $7 $8 $9 X,Y pos of 4 corners*
0 Add a 4 corners polygon primitive as box body*
4,1,4,$2,$3,$4,$5,$6,$7,$8,$9,$2,$3,0*
0 Add four circle primitives for the rounded corners*
1,1,$1+$1,$2,$3*
1,1,$1+$1,$4,$5*
1,1,$1+$1,$6,$7*
1,1,$1+$1,$8,$9*
0 Add four rect primitives between the rounded corners*
20,1,$1+$1,$2,$3,$4,$5,0*
20,1,$1+$1,$4,$5,$6,$7,0*
20,1,$1+$1,$6,$7,$8,$9,0*
20,1,$1+$1,$8,$9,$2,$3,0*%
G04 Aperture macros list end*
%ADD10C,3.200000*%
%ADD11C,0.650000*%
%ADD12O,1.000000X2.100000*%
%ADD13O,1.000000X1.600000*%
%ADD14RoundRect,0.250001X-1.099999X1.099999X-1.099999X-1.099999X1.099999X-1.099999X1.099999X1.099999X0*%
%ADD15C,2.700000*%
%ADD16RoundRect,0.250000X-0.350000X-0.625000X0.350000X-0.625000X0.350000X0.625000X-0.350000X0.625000X0*%
%ADD17O,1.200000X1.750000*%
%ADD18R,1.700000X1.700000*%
%ADD19C,1.700000*%
%ADD20RoundRect,0.250001X0.949999X-0.949999X0.949999X0.949999X-0.949999X0.949999X-0.949999X-0.949999X0*%
%ADD21C,2.400000*%
%ADD22C,0.400000*%
G04 APERTURE END LIST*
D10*
%TO.C,H3*%
X86000000Y-4000000D03*
%TD*%
D11*
%TO.C,J_USB*%
X30890000Y-7300000D03*
X25110000Y-7300000D03*
D12*
X32320000Y-7830000D03*
D13*
X32320000Y-3650000D03*
D12*
X23680000Y-7830000D03*
D13*
X23680000Y-3650000D03*
%TD*%
D10*
%TO.C,H4*%
X86000000Y-56000000D03*
%TD*%
D14*
%TO.C,J_HEAT*%
X84500000Y-43000000D03*
D15*
X84500000Y-46960000D03*
%TD*%
D16*
%TO.C,J_NTC*%
X74000000Y-55000000D03*
D17*
X76000000Y-55000000D03*
%TD*%
D18*
%TO.C,J_LCD_R*%
X47000000Y-7500000D03*
D19*
X49540000Y-7500000D03*
X52080000Y-7500000D03*
X54620000Y-7500000D03*
X57160000Y-7500000D03*
X59700000Y-7500000D03*
X62240000Y-7500000D03*
%TD*%
D10*
%TO.C,H2*%
X4000000Y-56000000D03*
%TD*%
D18*
%TO.C,J_SERVO_R*%
X86000000Y-32000000D03*
D19*
X86000000Y-34540000D03*
X86000000Y-37080000D03*
%TD*%
D10*
%TO.C,H1*%
X4000000Y-4000000D03*
%TD*%
D20*
%TO.C,J_VMOT*%
X83300000Y-16500000D03*
D21*
X83300000Y-11420000D03*
%TD*%
D16*
%TO.C,J_TOUCH*%
X19000000Y-56000000D03*
D17*
X21000000Y-56000000D03*
%TD*%
D22*
%TO.C,U_MIC*%
X15290000Y-50000000D03*
%TD*%
D16*
%TO.C,J_SPK*%
X62000000Y-55000000D03*
D17*
X64000000Y-55000000D03*
%TD*%
D18*
%TO.C,J_SERVO_L*%
X86000000Y-23000000D03*
D19*
X86000000Y-25540000D03*
X86000000Y-28080000D03*
%TD*%
D18*
%TO.C,J_LCD_L*%
X47000000Y-2500000D03*
D19*
X49540000Y-2500000D03*
X52080000Y-2500000D03*
X54620000Y-2500000D03*
X57160000Y-2500000D03*
X59700000Y-2500000D03*
X62240000Y-2500000D03*
%TD*%
M02*
