%TF.GenerationSoftware,KiCad,Pcbnew,10.0.6*%
%TF.CreationDate,2026-09-14T07:10:18-07:00*%
%TF.ProjectId,plush-toy-mainboard,706c7573-682d-4746-9f79-2d6d61696e62,rev?*%
%TF.SameCoordinates,Original*%
%TF.FileFunction,Copper,L1,Top*%
%TF.FilePolarity,Positive*%
%FSLAX46Y46*%
G04 Gerber Fmt 4.6, Leading zero omitted, Abs format (unit mm)*
G04 Created by KiCad (PCBNEW 10.0.6) date 2026-09-14 07:10:18*
%MOMM*%
%LPD*%
G01*
G04 APERTURE LIST*
G04 Aperture macros list*
%AMRoundRect*
0 Rectangle with rounded corners*
0 $1 Rounding radius*
0 $2 $3 $4 $5 $6 $7 $8 $9 X,Y pos of 4 corners*
0 Add a 4 corners polygon primitive as box body*
4,1,4,$2,$3,$4,$5,$6,$7,$8,$9,$2,$3,0*
0 Add four circle primitives for the rounded corners*
1,1,$1+$1,$2,$3*
1,1,$1+$1,$4,$5*
1,1,$1+$1,$6,$7*
1,1,$1+$1,$8,$9*
0 Add four rect primitives between the rounded corners*
20,1,$1+$1,$2,$3,$4,$5,0*
20,1,$1+$1,$4,$5,$6,$7,0*
20,1,$1+$1,$6,$7,$8,$9,0*
20,1,$1+$1,$8,$9,$2,$3,0*%
%AMFreePoly0*
4,1,14,0.354215,0.088284,0.450784,-0.008285,0.462500,-0.036569,0.462500,-0.060000,0.450784,-0.088284,0.422500,-0.100000,-0.422500,-0.100000,-0.450784,-0.088284,-0.462500,-0.060000,-0.462500,0.060000,-0.450784,0.088284,-0.422500,0.100000,0.325931,0.100000,0.354215,0.088284,0.354215,0.088284,$1*%
%AMFreePoly1*
4,1,14,0.450784,0.088284,0.462500,0.060000,0.462500,0.036569,0.450784,0.008285,0.354215,-0.088284,0.325931,-0.100000,-0.422500,-0.100000,-0.450784,-0.088284,-0.462500,-0.060000,-0.462500,0.060000,-0.450784,0.088284,-0.422500,0.100000,0.422500,0.100000,0.450784,0.088284,0.450784,0.088284,$1*%
%AMFreePoly2*
4,1,14,0.088284,0.450784,0.100000,0.422500,0.100000,-0.422500,0.088284,-0.450784,0.060000,-0.462500,-0.060000,-0.462500,-0.088284,-0.450784,-0.100000,-0.422500,-0.100000,0.325931,-0.088284,0.354215,0.008285,0.450784,0.036569,0.462500,0.060000,0.462500,0.088284,0.450784,0.088284,0.450784,$1*%
%AMFreePoly3*
4,1,14,-0.008285,0.450784,0.088284,0.354215,0.100000,0.325931,0.100000,-0.422500,0.088284,-0.450784,0.060000,-0.462500,-0.060000,-0.462500,-0.088284,-0.450784,-0.100000,-0.422500,-0.100000,0.422500,-0.088284,0.450784,-0.060000,0.462500,-0.036569,0.462500,-0.008285,0.450784,-0.008285,0.450784,$1*%
%AMFreePoly4*
4,1,14,0.450784,0.088284,0.462500,0.060000,0.462500,-0.060000,0.450784,-0.088284,0.422500,-0.100000,-0.325931,-0.100000,-0.354215,-0.088284,-0.450784,0.008285,-0.462500,0.036569,-0.462500,0.060000,-0.450784,0.088284,-0.422500,0.100000,0.422500,0.100000,0.450784,0.088284,0.450784,0.088284,$1*%
%AMFreePoly5*
4,1,14,0.450784,0.088284,0.462500,0.060000,0.462500,-0.060000,0.450784,-0.088284,0.422500,-0.100000,-0.422500,-0.100000,-0.450784,-0.088284,-0.462500,-0.060000,-0.462500,-0.036569,-0.450784,-0.008285,-0.354215,0.088284,-0.325931,0.100000,0.422500,0.100000,0.450784,0.088284,0.450784,0.088284,$1*%
%AMFreePoly6*
4,1,14,0.088284,0.450784,0.100000,0.422500,0.100000,-0.325931,0.088284,-0.354215,-0.008285,-0.450784,-0.036569,-0.462500,-0.060000,-0.462500,-0.088284,-0.450784,-0.100000,-0.422500,-0.100000,0.422500,-0.088284,0.450784,-0.060000,0.462500,0.060000,0.462500,0.088284,0.450784,0.088284,0.450784,$1*%
%AMFreePoly7*
4,1,14,0.088284,0.450784,0.100000,0.422500,0.100000,-0.422500,0.088284,-0.450784,0.060000,-0.462500,0.036569,-0.462500,0.008285,-0.450784,-0.088284,-0.354215,-0.100000,-0.325931,-0.100000,0.422500,-0.088284,0.450784,-0.060000,0.462500,0.060000,0.462500,0.088284,0.450784,0.088284,0.450784,$1*%
%AMFreePoly8*
4,1,64,-0.403578,0.746413,-0.262311,0.687899,-0.135173,0.602948,-0.027052,0.494827,0.057899,0.367689,0.116413,0.226422,0.146244,0.076453,0.146244,0.031373,0.147118,0.029264,0.147118,-0.029264,0.146244,-0.031373,0.146244,-0.076453,0.116413,-0.226422,0.057899,-0.367689,-0.027052,-0.494827,-0.135173,-0.602948,-0.262311,-0.687899,-0.403578,-0.746413,-0.553547,-0.776244,-0.706453,-0.776244,
-0.856422,-0.746413,-0.997689,-0.687899,-1.124827,-0.602948,-1.232948,-0.494827,-1.317899,-0.367689,-1.376413,-0.226422,-1.406244,-0.076453,-1.406244,0.063193,-1.110000,0.063193,-1.110000,-0.063193,-1.077289,-0.185273,-1.014096,-0.294727,-0.924727,-0.384096,-0.815273,-0.447289,-0.693193,-0.480000,-0.566807,-0.480000,-0.444727,-0.447289,-0.335273,-0.384096,-0.245904,-0.294727,-0.182711,-0.185273,
-0.150000,-0.063193,-0.150000,0.063193,-0.182711,0.185273,-0.245904,0.294727,-0.335273,0.384096,-0.444727,0.447289,-0.566807,0.480000,-0.693193,0.480000,-0.815273,0.447289,-0.924727,0.384096,-1.014096,0.294727,-1.077289,0.185273,-1.110000,0.063193,-1.406244,0.063193,-1.406244,0.076453,-1.376413,0.226422,-1.317899,0.367689,-1.232948,0.494827,-1.124827,0.602948,-0.997689,0.687899,
-0.856422,0.746413,-0.706453,0.776244,-0.553547,0.776244,-0.403578,0.746413,-0.403578,0.746413,$1*%
G04 Aperture macros list end*
%TA.AperFunction,SMDPad,CuDef*%
%ADD10RoundRect,0.225000X-0.225000X-0.250000X0.225000X-0.250000X0.225000X0.250000X-0.225000X0.250000X0*%
%TD*%
%TA.AperFunction,SMDPad,CuDef*%
%ADD11RoundRect,0.140000X-0.140000X-0.170000X0.140000X-0.170000X0.140000X0.170000X-0.140000X0.170000X0*%
%TD*%
%TA.AperFunction,SMDPad,CuDef*%
%ADD12RoundRect,0.150000X-0.512500X-0.150000X0.512500X-0.150000X0.512500X0.150000X-0.512500X0.150000X0*%
%TD*%
%TA.AperFunction,SMDPad,CuDef*%
%ADD13RoundRect,0.135000X-0.135000X-0.185000X0.135000X-0.185000X0.135000X0.185000X-0.135000X0.185000X0*%
%TD*%
%TA.AperFunction,ComponentPad*%
%ADD14R,1.700000X1.700000*%
%TD*%
%TA.AperFunction,ComponentPad*%
%ADD15C,1.700000*%
%TD*%
%TA.AperFunction,SMDPad,CuDef*%
%ADD16C,1.000000*%
%TD*%
%TA.AperFunction,SMDPad,CuDef*%
%ADD17RoundRect,0.135000X0.185000X-0.135000X0.185000X0.135000X-0.185000X0.135000X-0.185000X-0.135000X0*%
%TD*%
%TA.AperFunction,SMDPad,CuDef*%
%ADD18RoundRect,0.050000X0.300000X-0.150000X0.300000X0.150000X-0.300000X0.150000X-0.300000X-0.150000X0*%
%TD*%
%TA.AperFunction,SMDPad,CuDef*%
%ADD19RoundRect,0.140000X0.170000X-0.140000X0.170000X0.140000X-0.170000X0.140000X-0.170000X-0.140000X0*%
%TD*%
%TA.AperFunction,SMDPad,CuDef*%
%ADD20R,1.000000X0.750000*%
%TD*%
%TA.AperFunction,SMDPad,CuDef*%
%ADD21RoundRect,0.062500X-0.350000X-0.062500X0.350000X-0.062500X0.350000X0.062500X-0.350000X0.062500X0*%
%TD*%
%TA.AperFunction,SMDPad,CuDef*%
%ADD22RoundRect,0.062500X-0.062500X-0.350000X0.062500X-0.350000X0.062500X0.350000X-0.062500X0.350000X0*%
%TD*%
%TA.AperFunction,HeatsinkPad*%
%ADD23R,1.230000X1.230000*%
%TD*%
%TA.AperFunction,SMDPad,CuDef*%
%ADD24R,3.700000X1.100000*%
%TD*%
%TA.AperFunction,SMDPad,CuDef*%
%ADD25FreePoly0,0.000000*%
%TD*%
%TA.AperFunction,SMDPad,CuDef*%
%ADD26RoundRect,0.050000X-0.412500X-0.050000X0.412500X-0.050000X0.412500X0.050000X-0.412500X0.050000X0*%
%TD*%
%TA.AperFunction,SMDPad,CuDef*%
%ADD27FreePoly1,0.000000*%
%TD*%
%TA.AperFunction,SMDPad,CuDef*%
%ADD28FreePoly2,0.000000*%
%TD*%
%TA.AperFunction,SMDPad,CuDef*%
%ADD29RoundRect,0.050000X-0.050000X-0.412500X0.050000X-0.412500X0.050000X0.412500X-0.050000X0.412500X0*%
%TD*%
%TA.AperFunction,SMDPad,CuDef*%
%ADD30FreePoly3,0.000000*%
%TD*%
%TA.AperFunction,SMDPad,CuDef*%
%ADD31FreePoly4,0.000000*%
%TD*%
%TA.AperFunction,SMDPad,CuDef*%
%ADD32FreePoly5,0.000000*%
%TD*%
%TA.AperFunction,SMDPad,CuDef*%
%ADD33FreePoly6,0.000000*%
%TD*%
%TA.AperFunction,SMDPad,CuDef*%
%ADD34FreePoly7,0.000000*%
%TD*%
%TA.AperFunction,SMDPad,CuDef*%
%ADD35RoundRect,0.250000X-0.250000X-0.475000X0.250000X-0.475000X0.250000X0.475000X-0.250000X0.475000X0*%
%TD*%
%TA.AperFunction,SMDPad,CuDef*%
%ADD36R,0.700000X0.700000*%
%TD*%
%TA.AperFunction,SMDPad,CuDef*%
%ADD37RoundRect,0.250000X-1.000000X-0.900000X1.000000X-0.900000X1.000000X0.900000X-1.000000X0.900000X0*%
%TD*%
%TA.AperFunction,ComponentPad*%
%ADD38RoundRect,0.250001X-1.099999X1.099999X-1.099999X-1.099999X1.099999X-1.099999X1.099999X1.099999X0*%
%TD*%
%TA.AperFunction,ComponentPad*%
%ADD39C,2.700000*%
%TD*%
%TA.AperFunction,SMDPad,CuDef*%
%ADD40RoundRect,0.140000X-0.170000X0.140000X-0.170000X-0.140000X0.170000X-0.140000X0.170000X0.140000X0*%
%TD*%
%TA.AperFunction,SMDPad,CuDef*%
%ADD41RoundRect,0.150000X0.150000X0.575000X-0.150000X0.575000X-0.150000X-0.575000X0.150000X-0.575000X0*%
%TD*%
%TA.AperFunction,SMDPad,CuDef*%
%ADD42RoundRect,0.075000X0.075000X0.650000X-0.075000X0.650000X-0.075000X-0.650000X0.075000X-0.650000X0*%
%TD*%
%TA.AperFunction,ComponentPad*%
%ADD43O,1.000000X2.100000*%
%TD*%
%TA.AperFunction,ComponentPad*%
%ADD44O,1.000000X1.600000*%
%TD*%
%TA.AperFunction,ComponentPad*%
%ADD45RoundRect,0.250001X0.949999X-0.949999X0.949999X0.949999X-0.949999X0.949999X-0.949999X-0.949999X0*%
%TD*%
%TA.AperFunction,ComponentPad*%
%ADD46C,2.400000*%
%TD*%
%TA.AperFunction,SMDPad,CuDef*%
%ADD47RoundRect,0.100000X-0.637500X-0.100000X0.637500X-0.100000X0.637500X0.100000X-0.637500X0.100000X0*%
%TD*%
%TA.AperFunction,SMDPad,CuDef*%
%ADD48RoundRect,0.150000X-0.587500X-0.150000X0.587500X-0.150000X0.587500X0.150000X-0.587500X0.150000X0*%
%TD*%
%TA.AperFunction,ComponentPad*%
%ADD49RoundRect,0.250000X-0.350000X-0.625000X0.350000X-0.625000X0.350000X0.625000X-0.350000X0.625000X0*%
%TD*%
%TA.AperFunction,ComponentPad*%
%ADD50O,1.200000X1.750000*%
%TD*%
%TA.AperFunction,SMDPad,CuDef*%
%ADD51RoundRect,0.050000X-0.150000X-0.300000X0.150000X-0.300000X0.150000X0.300000X-0.150000X0.300000X0*%
%TD*%
%TA.AperFunction,SMDPad,CuDef*%
%ADD52RoundRect,0.075000X-0.650000X-0.075000X0.650000X-0.075000X0.650000X0.075000X-0.650000X0.075000X0*%
%TD*%
%TA.AperFunction,SMDPad,CuDef*%
%ADD53RoundRect,0.075000X-0.350000X-0.075000X0.350000X-0.075000X0.350000X0.075000X-0.350000X0.075000X0*%
%TD*%
%TA.AperFunction,SMDPad,CuDef*%
%ADD54RoundRect,0.075000X0.075000X-0.350000X0.075000X0.350000X-0.075000X0.350000X-0.075000X-0.350000X0*%
%TD*%
%TA.AperFunction,SMDPad,CuDef*%
%ADD55R,0.300000X1.300000*%
%TD*%
%TA.AperFunction,SMDPad,CuDef*%
%ADD56R,2.000000X1.600000*%
%TD*%
%TA.AperFunction,SMDPad,CuDef*%
%ADD57R,0.900000X1.500000*%
%TD*%
%TA.AperFunction,SMDPad,CuDef*%
%ADD58R,1.500000X0.900000*%
%TD*%
%TA.AperFunction,HeatsinkPad*%
%ADD59C,0.600000*%
%TD*%
%TA.AperFunction,HeatsinkPad*%
%ADD60R,3.900000X3.900000*%
%TD*%
%TA.AperFunction,SMDPad,CuDef*%
%ADD61R,0.400000X0.600000*%
%TD*%
%TA.AperFunction,SMDPad,CuDef*%
%ADD62FreePoly8,0.000000*%
%TD*%
%TA.AperFunction,SMDPad,CuDef*%
%ADD63RoundRect,0.250000X0.475000X-0.250000X0.475000X0.250000X-0.475000X0.250000X-0.475000X-0.250000X0*%
%TD*%
%TA.AperFunction,SMDPad,CuDef*%
%ADD64RoundRect,0.250000X-0.375000X-0.625000X0.375000X-0.625000X0.375000X0.625000X-0.375000X0.625000X0*%
%TD*%
%TA.AperFunction,SMDPad,CuDef*%
%ADD65R,4.500000X1.650000*%
%TD*%
%TA.AperFunction,ViaPad*%
%ADD66C,0.600000*%
%TD*%
%TA.AperFunction,ViaPad*%
%ADD67C,0.450000*%
%TD*%
%TA.AperFunction,ViaPad*%
%ADD68C,0.800000*%
%TD*%
%TA.AperFunction,Conductor*%
%ADD69C,0.500000*%
%TD*%
%TA.AperFunction,Conductor*%
%ADD70C,0.375000*%
%TD*%
%TA.AperFunction,Conductor*%
%ADD71C,0.250200*%
%TD*%
%TA.AperFunction,Conductor*%
%ADD72C,0.400000*%
%TD*%
%TA.AperFunction,Conductor*%
%ADD73C,0.200000*%
%TD*%
%TA.AperFunction,Conductor*%
%ADD74C,0.300000*%
%TD*%
%TA.AperFunction,Conductor*%
%ADD75C,0.250000*%
%TD*%
%TA.AperFunction,Conductor*%
%ADD76C,0.300400*%
%TD*%
%TA.AperFunction,Conductor*%
%ADD77C,1.000000*%
%TD*%
%TA.AperFunction,Conductor*%
%ADD78C,0.601000*%
%TD*%
%TA.AperFunction,Conductor*%
%ADD79C,0.560800*%
%TD*%
%TA.AperFunction,Conductor*%
%ADD80C,0.150000*%
%TD*%
%TA.AperFunction,Conductor*%
%ADD81C,0.299800*%
%TD*%
G04 APERTURE END LIST*
D10*
%TO.P,C_AMP_BULK,1*%
%TO.N,VBUS*%
X57725000Y-49000000D03*
%TO.P,C_AMP_BULK,2*%
%TO.N,GND*%
X59275000Y-49000000D03*
%TD*%
%TO.P,C_U1_BULK,1*%
%TO.N,+3V3*%
X22225000Y-22000000D03*
%TO.P,C_U1_BULK,2*%
%TO.N,GND*%
X23775000Y-22000000D03*
%TD*%
D11*
%TO.P,C_U1,1*%
%TO.N,+3V3*%
X22520000Y-25000000D03*
%TO.P,C_U1,2*%
%TO.N,GND*%
X23480000Y-25000000D03*
%TD*%
D12*
%TO.P,U_LDO15,1*%
%TO.N,+3V3*%
X50862500Y-55050000D03*
%TO.P,U_LDO15,2*%
%TO.N,GND*%
X50862500Y-56000000D03*
%TO.P,U_LDO15,3*%
%TO.N,+3V3*%
X50862500Y-56950000D03*
%TO.P,U_LDO15,4*%
%TO.N,unconnected-(U_LDO15-NC-Pad4)*%
X53137500Y-56950000D03*
%TO.P,U_LDO15,5*%
%TO.N,+1V5*%
X53137500Y-55050000D03*
%TD*%
D13*
%TO.P,R_CC2,1*%
%TO.N,USB_CC2*%
X20740000Y-3000000D03*
%TO.P,R_CC2,2*%
%TO.N,GND*%
X21760000Y-3000000D03*
%TD*%
%TO.P,R_LCD_CLK,1*%
%TO.N,LCD_CLK*%
X46990000Y-5000000D03*
%TO.P,R_LCD_CLK,2*%
%TO.N,LCD_CLK_S*%
X48010000Y-5000000D03*
%TD*%
D14*
%TO.P,J_SERVO_R,1*%
%TO.N,SERVO_R_PWM*%
X86000000Y-32000000D03*
D15*
%TO.P,J_SERVO_R,2*%
%TO.N,VMOT*%
X86000000Y-34540000D03*
%TO.P,J_SERVO_R,3*%
%TO.N,PGND*%
X86000000Y-37080000D03*
%TD*%
D16*
%TO.P,TP_SCL,1*%
%TO.N,I2C_SCL*%
X25250000Y-36750000D03*
%TD*%
D13*
%TO.P,R_TOUCH_REXT,1*%
%TO.N,TOUCH_REXT*%
X33990000Y-44000000D03*
%TO.P,R_TOUCH_REXT,2*%
%TO.N,GND*%
X35010000Y-44000000D03*
%TD*%
D11*
%TO.P,C_AMP,1*%
%TO.N,VBUS*%
X53020000Y-47000000D03*
%TO.P,C_AMP,2*%
%TO.N,GND*%
X53980000Y-47000000D03*
%TD*%
D17*
%TO.P,R_LCD_MOSI,1*%
%TO.N,LCD_MOSI*%
X44500000Y-3760000D03*
%TO.P,R_LCD_MOSI,2*%
%TO.N,LCD_MOSI_S*%
X44500000Y-2740000D03*
%TD*%
D16*
%TO.P,TP_TX,1*%
%TO.N,UART_TX*%
X23000000Y-42000000D03*
%TD*%
D13*
%TO.P,R_BOOT,1*%
%TO.N,+3V3*%
X12490000Y-16500000D03*
%TO.P,R_BOOT,2*%
%TO.N,BOOT*%
X13510000Y-16500000D03*
%TD*%
D16*
%TO.P,TP_GATE,1*%
%TO.N,HEAT_GATE*%
X76750000Y-47000000D03*
%TD*%
D18*
%TO.P,D_USB_DP,1*%
%TO.N,USB_DP*%
X21750000Y-6850000D03*
%TO.P,D_USB_DP,2*%
%TO.N,GND*%
X21750000Y-6150000D03*
%TD*%
D13*
%TO.P,R_REV,1*%
%TO.N,REV_GATE*%
X84740000Y-20500000D03*
%TO.P,R_REV,2*%
%TO.N,PGND*%
X85760000Y-20500000D03*
%TD*%
D17*
%TO.P,R_CC1,1*%
%TO.N,USB_CC1*%
X34250000Y-3260000D03*
%TO.P,R_CC1,2*%
%TO.N,GND*%
X34250000Y-2240000D03*
%TD*%
D12*
%TO.P,U_LDO28,1*%
%TO.N,+3V3*%
X24862500Y-52050000D03*
%TO.P,U_LDO28,2*%
%TO.N,GND*%
X24862500Y-53000000D03*
%TO.P,U_LDO28,3*%
%TO.N,+3V3*%
X24862500Y-53950000D03*
%TO.P,U_LDO28,4*%
%TO.N,unconnected-(U_LDO28-NC-Pad4)*%
X27137500Y-53950000D03*
%TO.P,U_LDO28,5*%
%TO.N,+2V8*%
X27137500Y-52050000D03*
%TD*%
D19*
%TO.P,C_PWM,1*%
%TO.N,+3V3*%
X57000000Y-24980000D03*
%TO.P,C_PWM,2*%
%TO.N,GND*%
X57000000Y-24020000D03*
%TD*%
D20*
%TO.P,SW_BOOT,1*%
%TO.N,BOOT*%
X9000000Y-11150000D03*
%TO.P,SW_BOOT,2*%
X15000000Y-11150000D03*
%TO.P,SW_BOOT,3*%
%TO.N,GND*%
X9000000Y-14850000D03*
%TO.P,SW_BOOT,4*%
X15000000Y-14850000D03*
%TD*%
D21*
%TO.P,U_AMP,1*%
%TO.N,AMP_DIN*%
X52562500Y-49250000D03*
%TO.P,U_AMP,2*%
%TO.N,unconnected-(U_AMP-GAIN_SLOT-Pad2)*%
X52562500Y-49750000D03*
%TO.P,U_AMP,3*%
%TO.N,GND*%
X52562500Y-50250000D03*
%TO.P,U_AMP,4*%
%TO.N,AMP_SD*%
X52562500Y-50750000D03*
D22*
%TO.P,U_AMP,5*%
%TO.N,unconnected-(U_AMP-NC-Pad5)*%
X53250000Y-51437500D03*
%TO.P,U_AMP,6*%
%TO.N,unconnected-(U_AMP-NC-Pad6)*%
X53750000Y-51437500D03*
%TO.P,U_AMP,7*%
%TO.N,VBUS*%
X54250000Y-51437500D03*
%TO.P,U_AMP,8*%
X54750000Y-51437500D03*
D21*
%TO.P,U_AMP,9*%
%TO.N,SPK_P*%
X55437500Y-50750000D03*
%TO.P,U_AMP,10*%
%TO.N,SPK_N*%
X55437500Y-50250000D03*
%TO.P,U_AMP,11*%
%TO.N,GND*%
X55437500Y-49750000D03*
%TO.P,U_AMP,12*%
%TO.N,unconnected-(U_AMP-NC-Pad12)*%
X55437500Y-49250000D03*
D22*
%TO.P,U_AMP,13*%
%TO.N,unconnected-(U_AMP-NC-Pad13)*%
X54750000Y-48562500D03*
%TO.P,U_AMP,14*%
%TO.N,AMP_LRCLK*%
X54250000Y-48562500D03*
%TO.P,U_AMP,15*%
%TO.N,GND*%
X53750000Y-48562500D03*
%TO.P,U_AMP,16*%
%TO.N,AMP_BCLK*%
X53250000Y-48562500D03*
D23*
%TO.P,U_AMP,17*%
%TO.N,GND*%
X54000000Y-50000000D03*
%TD*%
D17*
%TO.P,R_OE,1*%
%TO.N,PWM_OE*%
X57250000Y-27510000D03*
%TO.P,R_OE,2*%
%TO.N,GND*%
X57250000Y-26490000D03*
%TD*%
D16*
%TO.P,TP_E1,1*%
%TO.N,TOUCH_E1*%
X32500000Y-38000000D03*
%TD*%
D24*
%TO.P,L_BUCK,1*%
%TO.N,BUCK_SW*%
X37750000Y-14500000D03*
%TO.P,L_BUCK,2*%
%TO.N,+3V3*%
X37750000Y-11500000D03*
%TD*%
D16*
%TO.P,TP_GND,1*%
%TO.N,GND*%
X68000000Y-32000000D03*
%TD*%
D19*
%TO.P,C_LDO15_OUT,1*%
%TO.N,+1V5*%
X55000000Y-56480000D03*
%TO.P,C_LDO15_OUT,2*%
%TO.N,GND*%
X55000000Y-55520000D03*
%TD*%
D16*
%TO.P,TP_VBUS,1*%
%TO.N,VBUS*%
X26000000Y-11250000D03*
%TD*%
D17*
%TO.P,R_STAR,1*%
%TO.N,PGND*%
X66000000Y-32510000D03*
%TO.P,R_STAR,2*%
%TO.N,GND*%
X66000000Y-31490000D03*
%TD*%
D25*
%TO.P,U_TOUCH,1*%
%TO.N,unconnected-(U_TOUCH-~{IRQ}-Pad1)*%
X28612500Y-45200000D03*
D26*
%TO.P,U_TOUCH,2*%
%TO.N,I2C_SCL*%
X28612500Y-45600000D03*
%TO.P,U_TOUCH,3*%
%TO.N,I2C_SDA*%
X28612500Y-46000000D03*
%TO.P,U_TOUCH,4*%
%TO.N,GND*%
X28612500Y-46400000D03*
D27*
%TO.P,U_TOUCH,5*%
%TO.N,TOUCH_VREG*%
X28612500Y-46800000D03*
D28*
%TO.P,U_TOUCH,6*%
%TO.N,GND*%
X29200000Y-47387500D03*
D29*
%TO.P,U_TOUCH,7*%
%TO.N,TOUCH_REXT*%
X29600000Y-47387500D03*
%TO.P,U_TOUCH,8*%
%TO.N,TOUCH_E0*%
X30000000Y-47387500D03*
%TO.P,U_TOUCH,9*%
%TO.N,TOUCH_E1*%
X30400000Y-47387500D03*
D30*
%TO.P,U_TOUCH,10*%
%TO.N,TOUCH_E2*%
X30800000Y-47387500D03*
D31*
%TO.P,U_TOUCH,11*%
%TO.N,TOUCH_E3*%
X31387500Y-46800000D03*
D26*
%TO.P,U_TOUCH,12*%
%TO.N,TOUCH_E4*%
X31387500Y-46400000D03*
%TO.P,U_TOUCH,13*%
%TO.N,TOUCH_E5*%
X31387500Y-46000000D03*
%TO.P,U_TOUCH,14*%
%TO.N,TOUCH_E6*%
X31387500Y-45600000D03*
D32*
%TO.P,U_TOUCH,15*%
%TO.N,TOUCH_E7*%
X31387500Y-45200000D03*
D33*
%TO.P,U_TOUCH,16*%
%TO.N,TOUCH_E8*%
X30800000Y-44612500D03*
D29*
%TO.P,U_TOUCH,17*%
%TO.N,TOUCH_E9*%
X30400000Y-44612500D03*
%TO.P,U_TOUCH,18*%
%TO.N,TOUCH_E10*%
X30000000Y-44612500D03*
%TO.P,U_TOUCH,19*%
%TO.N,TOUCH_E11*%
X29600000Y-44612500D03*
D34*
%TO.P,U_TOUCH,20*%
%TO.N,+3V3*%
X29200000Y-44612500D03*
%TD*%
D11*
%TO.P,C_CAM_AVDD,1*%
%TO.N,+2V8*%
X40770000Y-47800000D03*
%TO.P,C_CAM_AVDD,2*%
%TO.N,GND*%
X41730000Y-47800000D03*
%TD*%
D35*
%TO.P,C_BUCK_OUT1,1*%
%TO.N,+3V3*%
X34800000Y-5750000D03*
%TO.P,C_BUCK_OUT1,2*%
%TO.N,GND*%
X36700000Y-5750000D03*
%TD*%
D11*
%TO.P,C_IMU_VLOGIC,1*%
%TO.N,+3V3*%
X49020000Y-34000000D03*
%TO.P,C_IMU_VLOGIC,2*%
%TO.N,GND*%
X49980000Y-34000000D03*
%TD*%
%TO.P,C_EN,1*%
%TO.N,EN*%
X10770000Y-2500000D03*
%TO.P,C_EN,2*%
%TO.N,GND*%
X11730000Y-2500000D03*
%TD*%
D36*
%TO.P,D_LED,1*%
%TO.N,unconnected-(D_LED-DOUT-Pad1)*%
X17085000Y-15450000D03*
%TO.P,D_LED,2*%
%TO.N,GND*%
X17085000Y-16550000D03*
%TO.P,D_LED,3*%
%TO.N,LED_RGB*%
X18915000Y-16550000D03*
%TO.P,D_LED,4*%
%TO.N,+3V3*%
X18915000Y-15450000D03*
%TD*%
D37*
%TO.P,D_VMOT_TVS,1*%
%TO.N,VMOT*%
X69850000Y-22750000D03*
%TO.P,D_VMOT_TVS,2*%
%TO.N,PGND*%
X74150000Y-22750000D03*
%TD*%
D38*
%TO.P,J_HEAT,1*%
%TO.N,VMOT*%
X84500000Y-43000000D03*
D39*
%TO.P,J_HEAT,2*%
%TO.N,HEAT_LOW*%
X84500000Y-46960000D03*
%TD*%
D11*
%TO.P,C_CAM_RST,1*%
%TO.N,CAM_RESET*%
X38520000Y-47800000D03*
%TO.P,C_CAM_RST,2*%
%TO.N,GND*%
X39480000Y-47800000D03*
%TD*%
D19*
%TO.P,C_FF,1*%
%TO.N,+3V3*%
X42500000Y-9480000D03*
%TO.P,C_FF,2*%
%TO.N,BUCK_FB*%
X42500000Y-8520000D03*
%TD*%
D13*
%TO.P,R_NTC,1*%
%TO.N,+3V3*%
X69990000Y-50500000D03*
%TO.P,R_NTC,2*%
%TO.N,NTC_SENSE*%
X71010000Y-50500000D03*
%TD*%
D40*
%TO.P,C_IMU_REG,1*%
%TO.N,IMU_REGOUT*%
X46250000Y-34520000D03*
%TO.P,C_IMU_REG,2*%
%TO.N,GND*%
X46250000Y-35480000D03*
%TD*%
D11*
%TO.P,C_IMU_CP,1*%
%TO.N,IMU_CPOUT*%
X49020000Y-26500000D03*
%TO.P,C_IMU_CP,2*%
%TO.N,GND*%
X49980000Y-26500000D03*
%TD*%
D16*
%TO.P,TP_3V3,1*%
%TO.N,+3V3*%
X34250000Y-12500000D03*
%TD*%
D13*
%TO.P,R_CAM_PWDN,1*%
%TO.N,CAM_PWDN*%
X33990000Y-47800000D03*
%TO.P,R_CAM_PWDN,2*%
%TO.N,GND*%
X35010000Y-47800000D03*
%TD*%
D41*
%TO.P,J_USB,A1*%
%TO.N,GND*%
X31250000Y-8745000D03*
%TO.P,J_USB,A4*%
%TO.N,VBUS_IN*%
X30450000Y-8745000D03*
D42*
%TO.P,J_USB,A5*%
%TO.N,USB_CC1*%
X29250000Y-8745000D03*
%TO.P,J_USB,A6*%
%TO.N,USB_DP*%
X28250000Y-8745000D03*
%TO.P,J_USB,A7*%
%TO.N,USB_DN*%
X27750000Y-8745000D03*
%TO.P,J_USB,A8*%
%TO.N,unconnected-(J_USB-SBU1-PadA8)*%
X26750000Y-8745000D03*
D41*
%TO.P,J_USB,A9*%
%TO.N,VBUS_IN*%
X25550000Y-8745000D03*
%TO.P,J_USB,A12*%
%TO.N,GND*%
X24750000Y-8745000D03*
%TO.P,J_USB,B1*%
X24750000Y-8745000D03*
%TO.P,J_USB,B4*%
%TO.N,VBUS_IN*%
X25550000Y-8745000D03*
D42*
%TO.P,J_USB,B5*%
%TO.N,USB_CC2*%
X26250000Y-8745000D03*
%TO.P,J_USB,B6*%
%TO.N,USB_DP*%
X27250000Y-8745000D03*
%TO.P,J_USB,B7*%
%TO.N,USB_DN*%
X28750000Y-8745000D03*
%TO.P,J_USB,B8*%
%TO.N,unconnected-(J_USB-SBU2-PadB8)*%
X29750000Y-8745000D03*
D41*
%TO.P,J_USB,B9*%
%TO.N,VBUS_IN*%
X30450000Y-8745000D03*
%TO.P,J_USB,B12*%
%TO.N,GND*%
X31250000Y-8745000D03*
D43*
%TO.P,J_USB,SH*%
X32320000Y-7830000D03*
D44*
X32320000Y-3650000D03*
D43*
X23680000Y-7830000D03*
D44*
X23680000Y-3650000D03*
%TD*%
D45*
%TO.P,J_VMOT,1*%
%TO.N,VMOT_IN*%
X83300000Y-16500000D03*
D46*
%TO.P,J_VMOT,2*%
%TO.N,PGND*%
X83300000Y-11420000D03*
%TD*%
D13*
%TO.P,R_EN,1*%
%TO.N,+3V3*%
X12490000Y-9500000D03*
%TO.P,R_EN,2*%
%TO.N,EN*%
X13510000Y-9500000D03*
%TD*%
D47*
%TO.P,U_PWM,1*%
%TO.N,GND*%
X59137500Y-21375000D03*
%TO.P,U_PWM,2*%
X59137500Y-22025000D03*
%TO.P,U_PWM,3*%
X59137500Y-22675000D03*
%TO.P,U_PWM,4*%
X59137500Y-23325000D03*
%TO.P,U_PWM,5*%
X59137500Y-23975000D03*
%TO.P,U_PWM,6*%
%TO.N,SERVO_L_PWM*%
X59137500Y-24625000D03*
%TO.P,U_PWM,7*%
%TO.N,SERVO_R_PWM*%
X59137500Y-25275000D03*
%TO.P,U_PWM,8*%
%TO.N,unconnected-(U_PWM-LED2-Pad8)*%
X59137500Y-25925000D03*
%TO.P,U_PWM,9*%
%TO.N,unconnected-(U_PWM-LED3-Pad9)*%
X59137500Y-26575000D03*
%TO.P,U_PWM,10*%
%TO.N,unconnected-(U_PWM-LED4-Pad10)*%
X59137500Y-27225000D03*
%TO.P,U_PWM,11*%
%TO.N,unconnected-(U_PWM-LED5-Pad11)*%
X59137500Y-27875000D03*
%TO.P,U_PWM,12*%
%TO.N,unconnected-(U_PWM-LED6-Pad12)*%
X59137500Y-28525000D03*
%TO.P,U_PWM,13*%
%TO.N,unconnected-(U_PWM-LED7-Pad13)*%
X59137500Y-29175000D03*
%TO.P,U_PWM,14*%
%TO.N,GND*%
X59137500Y-29825000D03*
%TO.P,U_PWM,15*%
%TO.N,unconnected-(U_PWM-LED8-Pad15)*%
X64862500Y-29825000D03*
%TO.P,U_PWM,16*%
%TO.N,unconnected-(U_PWM-LED9-Pad16)*%
X64862500Y-29175000D03*
%TO.P,U_PWM,17*%
%TO.N,unconnected-(U_PWM-LED10-Pad17)*%
X64862500Y-28525000D03*
%TO.P,U_PWM,18*%
%TO.N,unconnected-(U_PWM-LED11-Pad18)*%
X64862500Y-27875000D03*
%TO.P,U_PWM,19*%
%TO.N,unconnected-(U_PWM-LED12-Pad19)*%
X64862500Y-27225000D03*
%TO.P,U_PWM,20*%
%TO.N,unconnected-(U_PWM-LED13-Pad20)*%
X64862500Y-26575000D03*
%TO.P,U_PWM,21*%
%TO.N,unconnected-(U_PWM-LED14-Pad21)*%
X64862500Y-25925000D03*
%TO.P,U_PWM,22*%
%TO.N,HEAT_PWM*%
X64862500Y-25275000D03*
%TO.P,U_PWM,23*%
%TO.N,PWM_OE*%
X64862500Y-24625000D03*
%TO.P,U_PWM,24*%
%TO.N,GND*%
X64862500Y-23975000D03*
%TO.P,U_PWM,25*%
X64862500Y-23325000D03*
%TO.P,U_PWM,26*%
%TO.N,I2C_SCL*%
X64862500Y-22675000D03*
%TO.P,U_PWM,27*%
%TO.N,I2C_SDA*%
X64862500Y-22025000D03*
%TO.P,U_PWM,28*%
%TO.N,+3V3*%
X64862500Y-21375000D03*
%TD*%
D11*
%TO.P,C_NTC,1*%
%TO.N,NTC_SENSE*%
X67770000Y-50500000D03*
%TO.P,C_NTC,2*%
%TO.N,GND*%
X68730000Y-50500000D03*
%TD*%
%TO.P,C_MIC,1*%
%TO.N,+3V3*%
X13020000Y-47000000D03*
%TO.P,C_MIC,2*%
%TO.N,GND*%
X13980000Y-47000000D03*
%TD*%
D16*
%TO.P,TP_OE,1*%
%TO.N,PWM_OE*%
X67500000Y-26500000D03*
%TD*%
D11*
%TO.P,C_TOUCH_VREG,1*%
%TO.N,TOUCH_VREG*%
X24020000Y-47000000D03*
%TO.P,C_TOUCH_VREG,2*%
%TO.N,GND*%
X24980000Y-47000000D03*
%TD*%
D13*
%TO.P,R_AMP_SD,1*%
%TO.N,VBUS*%
X54240000Y-53000000D03*
%TO.P,R_AMP_SD,2*%
%TO.N,AMP_SD*%
X55260000Y-53000000D03*
%TD*%
%TO.P,R_SCL,1*%
%TO.N,I2C_SCL*%
X22490000Y-34000000D03*
%TO.P,R_SCL,2*%
%TO.N,+3V3*%
X23510000Y-34000000D03*
%TD*%
D48*
%TO.P,Q_HEAT,1*%
%TO.N,HEAT_GATE*%
X75062500Y-43050000D03*
%TO.P,Q_HEAT,2*%
%TO.N,PGND*%
X75062500Y-44950000D03*
%TO.P,Q_HEAT,3*%
%TO.N,HEAT_LOW*%
X76937500Y-44000000D03*
%TD*%
D11*
%TO.P,C_TOUCH,1*%
%TO.N,+3V3*%
X24020000Y-49500000D03*
%TO.P,C_TOUCH,2*%
%TO.N,GND*%
X24980000Y-49500000D03*
%TD*%
D16*
%TO.P,TP_VMOT,1*%
%TO.N,VMOT*%
X78750000Y-21250000D03*
%TD*%
D12*
%TO.P,U_BUCK,1*%
%TO.N,BUCK_EN*%
X35862500Y-8050000D03*
%TO.P,U_BUCK,2*%
%TO.N,GND*%
X35862500Y-9000000D03*
%TO.P,U_BUCK,3*%
%TO.N,BUCK_SW*%
X35862500Y-9950000D03*
%TO.P,U_BUCK,4*%
%TO.N,VBUS*%
X38137500Y-9950000D03*
%TO.P,U_BUCK,5*%
%TO.N,BUCK_FB*%
X38137500Y-8050000D03*
%TD*%
D49*
%TO.P,J_SPK,1*%
%TO.N,SPK_P*%
X62000000Y-55000000D03*
D50*
%TO.P,J_SPK,2*%
%TO.N,SPK_N*%
X64000000Y-55000000D03*
%TD*%
D13*
%TO.P,R_BUCK_EN,1*%
%TO.N,VBUS*%
X40740000Y-11500000D03*
%TO.P,R_BUCK_EN,2*%
%TO.N,BUCK_EN*%
X41760000Y-11500000D03*
%TD*%
D51*
%TO.P,D_USB_DN,1*%
%TO.N,USB_DN*%
X21150000Y-4500000D03*
%TO.P,D_USB_DN,2*%
%TO.N,GND*%
X21850000Y-4500000D03*
%TD*%
D52*
%TO.P,U_ADC,1*%
%TO.N,GND*%
X67850000Y-47000000D03*
%TO.P,U_ADC,2*%
%TO.N,unconnected-(U_ADC-ALERT{slash}RDY-Pad2)*%
X67850000Y-47500000D03*
%TO.P,U_ADC,3*%
%TO.N,GND*%
X67850000Y-48000000D03*
%TO.P,U_ADC,4*%
%TO.N,NTC_SENSE*%
X67850000Y-48500000D03*
%TO.P,U_ADC,5*%
%TO.N,unconnected-(U_ADC-AIN1-Pad5)*%
X67850000Y-49000000D03*
%TO.P,U_ADC,6*%
%TO.N,unconnected-(U_ADC-AIN2-Pad6)*%
X72150000Y-49000000D03*
%TO.P,U_ADC,7*%
%TO.N,unconnected-(U_ADC-AIN3-Pad7)*%
X72150000Y-48500000D03*
%TO.P,U_ADC,8*%
%TO.N,+3V3*%
X72150000Y-48000000D03*
%TO.P,U_ADC,9*%
%TO.N,I2C_SDA*%
X72150000Y-47500000D03*
%TO.P,U_ADC,10*%
%TO.N,I2C_SCL*%
X72150000Y-47000000D03*
%TD*%
D16*
%TO.P,TP_E2,1*%
%TO.N,TOUCH_E2*%
X30750000Y-40250000D03*
%TD*%
D11*
%TO.P,C_LCD,1*%
%TO.N,+3V3*%
X44770000Y-5000000D03*
%TO.P,C_LCD,2*%
%TO.N,GND*%
X45730000Y-5000000D03*
%TD*%
D13*
%TO.P,R_CAM_RST,1*%
%TO.N,+2V8*%
X36240000Y-47800000D03*
%TO.P,R_CAM_RST,2*%
%TO.N,CAM_RESET*%
X37260000Y-47800000D03*
%TD*%
D17*
%TO.P,R_FB2,1*%
%TO.N,BUCK_FB*%
X40750000Y-6260000D03*
%TO.P,R_FB2,2*%
%TO.N,GND*%
X40750000Y-5240000D03*
%TD*%
D19*
%TO.P,C_IMU,1*%
%TO.N,+3V3*%
X49500000Y-30480000D03*
%TO.P,C_IMU,2*%
%TO.N,GND*%
X49500000Y-29520000D03*
%TD*%
D53*
%TO.P,U_IMU,1*%
%TO.N,GND*%
X44050000Y-28750000D03*
%TO.P,U_IMU,2*%
%TO.N,unconnected-(U_IMU-NC-Pad2)*%
X44050000Y-29250000D03*
%TO.P,U_IMU,3*%
%TO.N,unconnected-(U_IMU-NC-Pad3)*%
X44050000Y-29750000D03*
%TO.P,U_IMU,4*%
%TO.N,unconnected-(U_IMU-NC-Pad4)*%
X44050000Y-30250000D03*
%TO.P,U_IMU,5*%
%TO.N,unconnected-(U_IMU-NC-Pad5)*%
X44050000Y-30750000D03*
%TO.P,U_IMU,6*%
%TO.N,unconnected-(U_IMU-AUX_DA-Pad6)*%
X44050000Y-31250000D03*
D54*
%TO.P,U_IMU,7*%
%TO.N,unconnected-(U_IMU-AUX_CL-Pad7)*%
X44750000Y-31950000D03*
%TO.P,U_IMU,8*%
%TO.N,+3V3*%
X45250000Y-31950000D03*
%TO.P,U_IMU,9*%
%TO.N,GND*%
X45750000Y-31950000D03*
%TO.P,U_IMU,10*%
%TO.N,IMU_REGOUT*%
X46250000Y-31950000D03*
%TO.P,U_IMU,11*%
%TO.N,GND*%
X46750000Y-31950000D03*
%TO.P,U_IMU,12*%
%TO.N,unconnected-(U_IMU-INT-Pad12)*%
X47250000Y-31950000D03*
D53*
%TO.P,U_IMU,13*%
%TO.N,+3V3*%
X47950000Y-31250000D03*
%TO.P,U_IMU,14*%
%TO.N,unconnected-(U_IMU-NC-Pad14)*%
X47950000Y-30750000D03*
%TO.P,U_IMU,15*%
%TO.N,unconnected-(U_IMU-NC-Pad15)*%
X47950000Y-30250000D03*
%TO.P,U_IMU,16*%
%TO.N,unconnected-(U_IMU-NC-Pad16)*%
X47950000Y-29750000D03*
%TO.P,U_IMU,17*%
%TO.N,unconnected-(U_IMU-NC-Pad17)*%
X47950000Y-29250000D03*
%TO.P,U_IMU,18*%
%TO.N,GND*%
X47950000Y-28750000D03*
D54*
%TO.P,U_IMU,19*%
%TO.N,unconnected-(U_IMU-RESV-Pad19)*%
X47250000Y-28050000D03*
%TO.P,U_IMU,20*%
%TO.N,IMU_CPOUT*%
X46750000Y-28050000D03*
%TO.P,U_IMU,21*%
%TO.N,unconnected-(U_IMU-RESV-Pad21)*%
X46250000Y-28050000D03*
%TO.P,U_IMU,22*%
%TO.N,unconnected-(U_IMU-RESV-Pad22)*%
X45750000Y-28050000D03*
%TO.P,U_IMU,23*%
%TO.N,I2C_SCL*%
X45250000Y-28050000D03*
%TO.P,U_IMU,24*%
%TO.N,I2C_SDA*%
X44750000Y-28050000D03*
%TD*%
D14*
%TO.P,J_LCD_R,1*%
%TO.N,LCD_RST*%
X47000000Y-7500000D03*
D15*
%TO.P,J_LCD_R,2*%
%TO.N,LCD_CS_R*%
X49540000Y-7500000D03*
%TO.P,J_LCD_R,3*%
%TO.N,LCD_DC*%
X52080000Y-7500000D03*
%TO.P,J_LCD_R,4*%
%TO.N,LCD_MOSI_S*%
X54620000Y-7500000D03*
%TO.P,J_LCD_R,5*%
%TO.N,LCD_CLK_S*%
X57160000Y-7500000D03*
%TO.P,J_LCD_R,6*%
%TO.N,GND*%
X59700000Y-7500000D03*
%TO.P,J_LCD_R,7*%
%TO.N,+3V3*%
X62240000Y-7500000D03*
%TD*%
D11*
%TO.P,C_LDO28_IN,1*%
%TO.N,+3V3*%
X26020000Y-55500000D03*
%TO.P,C_LDO28_IN,2*%
%TO.N,GND*%
X26980000Y-55500000D03*
%TD*%
D49*
%TO.P,J_NTC,1*%
%TO.N,NTC_SENSE*%
X74000000Y-55000000D03*
D50*
%TO.P,J_NTC,2*%
%TO.N,GND*%
X76000000Y-55000000D03*
%TD*%
D16*
%TO.P,TP_SDA,1*%
%TO.N,I2C_SDA*%
X23000000Y-38000000D03*
%TD*%
D55*
%TO.P,J_CAM,1*%
%TO.N,unconnected-(J_CAM-Pad1)*%
X45750000Y-55330000D03*
%TO.P,J_CAM,2*%
%TO.N,GND*%
X45250000Y-55330000D03*
%TO.P,J_CAM,3*%
%TO.N,CAM_SIOD*%
X44750000Y-55330000D03*
%TO.P,J_CAM,4*%
%TO.N,+2V8*%
X44250000Y-55330000D03*
%TO.P,J_CAM,5*%
%TO.N,CAM_SIOC*%
X43750000Y-55330000D03*
%TO.P,J_CAM,6*%
%TO.N,CAM_RESET*%
X43250000Y-55330000D03*
%TO.P,J_CAM,7*%
%TO.N,CAM_VSYNC*%
X42750000Y-55330000D03*
%TO.P,J_CAM,8*%
%TO.N,CAM_PWDN*%
X42250000Y-55330000D03*
%TO.P,J_CAM,9*%
%TO.N,CAM_HREF*%
X41750000Y-55330000D03*
%TO.P,J_CAM,10*%
%TO.N,+1V5*%
X41250000Y-55330000D03*
%TO.P,J_CAM,11*%
%TO.N,+2V8*%
X40750000Y-55330000D03*
%TO.P,J_CAM,12*%
%TO.N,CAM_Y9*%
X40250000Y-55330000D03*
%TO.P,J_CAM,13*%
%TO.N,CAM_XCLK*%
X39750000Y-55330000D03*
%TO.P,J_CAM,14*%
%TO.N,CAM_Y8*%
X39250000Y-55330000D03*
%TO.P,J_CAM,15*%
%TO.N,GND*%
X38750000Y-55330000D03*
%TO.P,J_CAM,16*%
%TO.N,CAM_Y7*%
X38250000Y-55330000D03*
%TO.P,J_CAM,17*%
%TO.N,CAM_PCLK*%
X37750000Y-55330000D03*
%TO.P,J_CAM,18*%
%TO.N,CAM_Y6*%
X37250000Y-55330000D03*
%TO.P,J_CAM,19*%
%TO.N,CAM_Y2*%
X36750000Y-55330000D03*
%TO.P,J_CAM,20*%
%TO.N,CAM_Y5*%
X36250000Y-55330000D03*
%TO.P,J_CAM,21*%
%TO.N,CAM_Y3*%
X35750000Y-55330000D03*
%TO.P,J_CAM,22*%
%TO.N,CAM_Y4*%
X35250000Y-55330000D03*
%TO.P,J_CAM,23*%
%TO.N,unconnected-(J_CAM-Pad23)*%
X34750000Y-55330000D03*
%TO.P,J_CAM,24*%
%TO.N,unconnected-(J_CAM-Pad24)*%
X34250000Y-55330000D03*
D56*
%TO.P,J_CAM,25*%
%TO.N,GND*%
X32550000Y-52670000D03*
%TO.P,J_CAM,26*%
X47450000Y-52670000D03*
%TD*%
D57*
%TO.P,U1,1*%
%TO.N,GND*%
X1490000Y-38750000D03*
%TO.P,U1,2*%
%TO.N,+3V3*%
X2760000Y-38750000D03*
%TO.P,U1,3*%
%TO.N,EN*%
X4030000Y-38750000D03*
%TO.P,U1,4*%
%TO.N,CAM_SIOD*%
X5300000Y-38750000D03*
%TO.P,U1,5*%
%TO.N,CAM_SIOC*%
X6570000Y-38750000D03*
%TO.P,U1,6*%
%TO.N,CAM_VSYNC*%
X7840000Y-38750000D03*
%TO.P,U1,7*%
%TO.N,CAM_HREF*%
X9110000Y-38750000D03*
%TO.P,U1,8*%
%TO.N,CAM_XCLK*%
X10380000Y-38750000D03*
%TO.P,U1,9*%
%TO.N,CAM_Y9*%
X11650000Y-38750000D03*
%TO.P,U1,10*%
%TO.N,CAM_Y8*%
X12920000Y-38750000D03*
%TO.P,U1,11*%
%TO.N,CAM_Y7*%
X14190000Y-38750000D03*
%TO.P,U1,12*%
%TO.N,CAM_Y4*%
X15460000Y-38750000D03*
%TO.P,U1,13*%
%TO.N,USB_DN*%
X16730000Y-38750000D03*
%TO.P,U1,14*%
%TO.N,USB_DP*%
X18000000Y-38750000D03*
D58*
%TO.P,U1,15*%
%TO.N,I2C_SCL*%
X19250000Y-36985000D03*
%TO.P,U1,16*%
%TO.N,LCD_CS_R*%
X19250000Y-35715000D03*
%TO.P,U1,17*%
%TO.N,CAM_Y3*%
X19250000Y-34445000D03*
%TO.P,U1,18*%
%TO.N,CAM_Y5*%
X19250000Y-33175000D03*
%TO.P,U1,19*%
%TO.N,CAM_Y2*%
X19250000Y-31905000D03*
%TO.P,U1,20*%
%TO.N,CAM_Y6*%
X19250000Y-30635000D03*
%TO.P,U1,21*%
%TO.N,CAM_PCLK*%
X19250000Y-29365000D03*
%TO.P,U1,22*%
%TO.N,LCD_MOSI*%
X19250000Y-28095000D03*
%TO.P,U1,23*%
%TO.N,LCD_RST*%
X19250000Y-26825000D03*
%TO.P,U1,24*%
%TO.N,LCD_DC*%
X19250000Y-25555000D03*
%TO.P,U1,25*%
%TO.N,LED_RGB*%
X19250000Y-24285000D03*
%TO.P,U1,26*%
%TO.N,LCD_CS_L*%
X19250000Y-23015000D03*
D57*
%TO.P,U1,27*%
%TO.N,BOOT*%
X18000000Y-21250000D03*
%TO.P,U1,28*%
%TO.N,unconnected-(U1-IO35-Pad28)*%
X16730000Y-21250000D03*
%TO.P,U1,29*%
%TO.N,unconnected-(U1-IO36-Pad29)*%
X15460000Y-21250000D03*
%TO.P,U1,30*%
%TO.N,unconnected-(U1-IO37-Pad30)*%
X14190000Y-21250000D03*
%TO.P,U1,31*%
%TO.N,LCD_CLK*%
X12920000Y-21250000D03*
%TO.P,U1,32*%
%TO.N,AMP_DIN*%
X11650000Y-21250000D03*
%TO.P,U1,33*%
%TO.N,AMP_BCLK*%
X10380000Y-21250000D03*
%TO.P,U1,34*%
%TO.N,AMP_LRCLK*%
X9110000Y-21250000D03*
%TO.P,U1,35*%
%TO.N,MIC_SD*%
X7840000Y-21250000D03*
%TO.P,U1,36*%
%TO.N,I2C_SDA*%
X6570000Y-21250000D03*
%TO.P,U1,37*%
%TO.N,UART_TX*%
X5300000Y-21250000D03*
%TO.P,U1,38*%
%TO.N,MIC_SCK*%
X4030000Y-21250000D03*
%TO.P,U1,39*%
%TO.N,MIC_WS*%
X2760000Y-21250000D03*
%TO.P,U1,40*%
%TO.N,GND*%
X1490000Y-21250000D03*
D59*
%TO.P,U1,41*%
X8510000Y-32900000D03*
X9910000Y-32900000D03*
X7810000Y-32200000D03*
X9210000Y-32200000D03*
X10610000Y-32200000D03*
X8510000Y-31500000D03*
D60*
X9210000Y-31500000D03*
D59*
X9910000Y-31500000D03*
X7810000Y-30800000D03*
X9210000Y-30800000D03*
X10610000Y-30800000D03*
X8510000Y-30100000D03*
X9910000Y-30100000D03*
%TD*%
D61*
%TO.P,U_MIC,1*%
%TO.N,MIC_SCK*%
X12140000Y-51330000D03*
%TO.P,U_MIC,2*%
%TO.N,MIC_SD*%
X13190000Y-51330000D03*
%TO.P,U_MIC,3*%
%TO.N,MIC_WS*%
X14240000Y-51330000D03*
%TO.P,U_MIC,4*%
%TO.N,GND*%
X15290000Y-51330000D03*
D62*
%TO.P,U_MIC,5*%
X15920000Y-50000000D03*
D61*
%TO.P,U_MIC,6*%
X15290000Y-48670000D03*
%TO.P,U_MIC,7*%
%TO.N,+3V3*%
X14240000Y-48670000D03*
%TO.P,U_MIC,8*%
X13190000Y-48670000D03*
%TO.P,U_MIC,9*%
%TO.N,GND*%
X12140000Y-48670000D03*
%TD*%
D63*
%TO.P,C_BUCK_IN,1*%
%TO.N,VBUS*%
X40500000Y-9950000D03*
%TO.P,C_BUCK_IN,2*%
%TO.N,GND*%
X40500000Y-8050000D03*
%TD*%
D16*
%TO.P,TP_E0,1*%
%TO.N,TOUCH_E0*%
X30000000Y-38000000D03*
%TD*%
D13*
%TO.P,R_SDA,1*%
%TO.N,I2C_SDA*%
X22490000Y-32000000D03*
%TO.P,R_SDA,2*%
%TO.N,+3V3*%
X23510000Y-32000000D03*
%TD*%
D16*
%TO.P,TP_E6,1*%
%TO.N,TOUCH_E6*%
X33250000Y-40250000D03*
%TD*%
%TO.P,TP_E11,1*%
%TO.N,TOUCH_E11*%
X25500000Y-39000000D03*
%TD*%
D48*
%TO.P,Q_REV,1*%
%TO.N,REV_GATE*%
X81062500Y-20800000D03*
%TO.P,Q_REV,2*%
%TO.N,VMOT*%
X81062500Y-22700000D03*
%TO.P,Q_REV,3*%
%TO.N,VMOT_IN*%
X82937500Y-21750000D03*
%TD*%
D11*
%TO.P,C_LED,1*%
%TO.N,+3V3*%
X18020000Y-18000000D03*
%TO.P,C_LED,2*%
%TO.N,GND*%
X18980000Y-18000000D03*
%TD*%
D13*
%TO.P,R_MIC_SD,1*%
%TO.N,MIC_SD*%
X14240000Y-53000000D03*
%TO.P,R_MIC_SD,2*%
%TO.N,GND*%
X15260000Y-53000000D03*
%TD*%
D16*
%TO.P,TP_E3,1*%
%TO.N,TOUCH_E3*%
X27750000Y-39250000D03*
%TD*%
%TO.P,TP_E5,1*%
%TO.N,TOUCH_E5*%
X30500000Y-35500000D03*
%TD*%
D64*
%TO.P,F_USB,1*%
%TO.N,VBUS_IN*%
X28350000Y-11500000D03*
%TO.P,F_USB,2*%
%TO.N,VBUS*%
X31150000Y-11500000D03*
%TD*%
D16*
%TO.P,TP_E9,1*%
%TO.N,TOUCH_E9*%
X33000000Y-35250000D03*
%TD*%
D13*
%TO.P,R_GATE,1*%
%TO.N,HEAT_PWM*%
X74740000Y-41500000D03*
%TO.P,R_GATE,2*%
%TO.N,HEAT_GATE*%
X75760000Y-41500000D03*
%TD*%
D11*
%TO.P,C_LDO15_IN,1*%
%TO.N,+3V3*%
X52020000Y-58500000D03*
%TO.P,C_LDO15_IN,2*%
%TO.N,GND*%
X52980000Y-58500000D03*
%TD*%
D16*
%TO.P,TP_E4,1*%
%TO.N,TOUCH_E4*%
X27750000Y-36750000D03*
%TD*%
D11*
%TO.P,C_ADC,1*%
%TO.N,+3V3*%
X68770000Y-45500000D03*
%TO.P,C_ADC,2*%
%TO.N,GND*%
X69730000Y-45500000D03*
%TD*%
D16*
%TO.P,TP_PGND,1*%
%TO.N,PGND*%
X64250000Y-32750000D03*
%TD*%
%TO.P,TP_E8,1*%
%TO.N,TOUCH_E8*%
X27750000Y-34500000D03*
%TD*%
D17*
%TO.P,R_GATE_PD,1*%
%TO.N,HEAT_GATE*%
X73000000Y-45260000D03*
%TO.P,R_GATE_PD,2*%
%TO.N,PGND*%
X73000000Y-44240000D03*
%TD*%
D13*
%TO.P,R_FB1,1*%
%TO.N,+3V3*%
X35740000Y-4000000D03*
%TO.P,R_FB1,2*%
%TO.N,BUCK_FB*%
X36760000Y-4000000D03*
%TD*%
D16*
%TO.P,TP_E10,1*%
%TO.N,TOUCH_E10*%
X31000000Y-42500000D03*
%TD*%
D14*
%TO.P,J_SERVO_L,1*%
%TO.N,SERVO_L_PWM*%
X86000000Y-23000000D03*
D15*
%TO.P,J_SERVO_L,2*%
%TO.N,VMOT*%
X86000000Y-25540000D03*
%TO.P,J_SERVO_L,3*%
%TO.N,PGND*%
X86000000Y-28080000D03*
%TD*%
D19*
%TO.P,C_LDO28_OUT,1*%
%TO.N,+2V8*%
X29000000Y-53480000D03*
%TO.P,C_LDO28_OUT,2*%
%TO.N,GND*%
X29000000Y-52520000D03*
%TD*%
D16*
%TO.P,TP_E7,1*%
%TO.N,TOUCH_E7*%
X28250000Y-41500000D03*
%TD*%
D65*
%TO.P,C_VMOT_BULK,1*%
%TO.N,VMOT*%
X66000000Y-14800000D03*
%TO.P,C_VMOT_BULK,2*%
%TO.N,PGND*%
X75000000Y-14800000D03*
%TD*%
D14*
%TO.P,J_LCD_L,1*%
%TO.N,LCD_RST*%
X47000000Y-2500000D03*
D15*
%TO.P,J_LCD_L,2*%
%TO.N,LCD_CS_L*%
X49540000Y-2500000D03*
%TO.P,J_LCD_L,3*%
%TO.N,LCD_DC*%
X52080000Y-2500000D03*
%TO.P,J_LCD_L,4*%
%TO.N,LCD_MOSI_S*%
X54620000Y-2500000D03*
%TO.P,J_LCD_L,5*%
%TO.N,LCD_CLK_S*%
X57160000Y-2500000D03*
%TO.P,J_LCD_L,6*%
%TO.N,GND*%
X59700000Y-2500000D03*
%TO.P,J_LCD_L,7*%
%TO.N,+3V3*%
X62240000Y-2500000D03*
%TD*%
D20*
%TO.P,SW_RST,1*%
%TO.N,EN*%
X9000000Y-4150000D03*
%TO.P,SW_RST,2*%
X15000000Y-4150000D03*
%TO.P,SW_RST,3*%
%TO.N,GND*%
X9000000Y-7850000D03*
%TO.P,SW_RST,4*%
X15000000Y-7850000D03*
%TD*%
D63*
%TO.P,C_BUCK_OUT2,1*%
%TO.N,+3V3*%
X39000000Y-5950000D03*
%TO.P,C_BUCK_OUT2,2*%
%TO.N,GND*%
X39000000Y-4050000D03*
%TD*%
D11*
%TO.P,C_CAM_DVDD,1*%
%TO.N,+1V5*%
X43020000Y-47800000D03*
%TO.P,C_CAM_DVDD,2*%
%TO.N,GND*%
X43980000Y-47800000D03*
%TD*%
%TO.P,C_VMOT_HF,1*%
%TO.N,VMOT*%
X69270000Y-8750000D03*
%TO.P,C_VMOT_HF,2*%
%TO.N,PGND*%
X70230000Y-8750000D03*
%TD*%
D66*
%TO.N,VBUS*%
X46225500Y-13401800D03*
X54721800Y-46202100D03*
%TO.N,GND*%
X1490000Y-21250000D03*
X14710000Y-47000000D03*
X55000000Y-54790000D03*
X15850200Y-51907600D03*
X58560200Y-30677100D03*
X25710000Y-49500000D03*
X40750000Y-4520000D03*
X23750000Y-53000000D03*
X49500000Y-28790000D03*
D67*
X45250000Y-57080000D03*
D66*
X70460000Y-45500000D03*
X15850200Y-48092400D03*
X29000000Y-51790000D03*
X39000000Y-4050000D03*
X15912800Y-8412900D03*
X34750000Y-9000000D03*
X11499700Y-48212100D03*
X54710000Y-47000000D03*
X8087200Y-15412900D03*
X58102500Y-23387500D03*
X69343200Y-51113200D03*
X36700000Y-5750000D03*
X15980000Y-53000000D03*
X66675000Y-48000000D03*
D67*
X38750000Y-58180000D03*
D66*
X53599600Y-47697700D03*
X60175000Y-49000000D03*
X46250000Y-36210000D03*
X58362000Y-21882600D03*
X57000000Y-23290000D03*
X24675000Y-22000000D03*
X19710000Y-18000000D03*
X16287700Y-17029300D03*
X27710000Y-55500000D03*
X45000000Y-33500000D03*
X58560200Y-20522900D03*
X25710000Y-47000000D03*
X66788600Y-46506300D03*
X68000000Y-32000000D03*
X28750100Y-48167700D03*
X40500000Y-8050000D03*
X35623200Y-48413200D03*
X22480000Y-3000000D03*
X44710000Y-47800000D03*
X32550000Y-52670000D03*
X59217800Y-21299500D03*
X51697700Y-50400400D03*
X59054300Y-22597200D03*
X35730000Y-44000000D03*
X46343200Y-5613200D03*
X38715800Y-54226200D03*
X50710000Y-34000000D03*
X1490000Y-38750000D03*
X56302300Y-49599600D03*
X66000000Y-30770000D03*
X34250000Y-1520000D03*
X63664900Y-23188000D03*
X26500000Y-46400000D03*
X49750000Y-56000000D03*
X56480000Y-26490000D03*
X12460000Y-2500000D03*
X53710000Y-58500000D03*
X65897500Y-23387500D03*
X48698200Y-28270400D03*
X43301800Y-28270400D03*
X15912800Y-15412900D03*
X8087200Y-8412900D03*
X47450000Y-52670000D03*
X24210000Y-25000000D03*
X50710000Y-26500000D03*
X42343200Y-48413200D03*
X40093200Y-48413200D03*
%TO.N,+3V3*%
X21325000Y-22000000D03*
X35020000Y-4000000D03*
X24230000Y-34000000D03*
X49500000Y-31210000D03*
X12290000Y-47000000D03*
X23979200Y-54687700D03*
X49979200Y-57687700D03*
X23979200Y-51312300D03*
X34800000Y-5750000D03*
X50900000Y-54900000D03*
X11770000Y-9500000D03*
X2760000Y-38750000D03*
X57000000Y-25710000D03*
X28750100Y-43832300D03*
X17290000Y-18000000D03*
X23290000Y-49500000D03*
X42500000Y-10210000D03*
X49979200Y-54312300D03*
X21790000Y-25000000D03*
X48698200Y-31729600D03*
X37750000Y-11500000D03*
X19712300Y-14970700D03*
X44040000Y-5000000D03*
X51290000Y-58500000D03*
X43800000Y-33500000D03*
X25290000Y-55500000D03*
X63900000Y-21300000D03*
X12768500Y-47978000D03*
X34250000Y-12500000D03*
X14378600Y-47901700D03*
X70000000Y-50500000D03*
X11770000Y-16500000D03*
X57000000Y-24800000D03*
X39000000Y-5950000D03*
X24230000Y-32000000D03*
X48290000Y-34000000D03*
%TO.N,+1V5*%
X43020000Y-46800000D03*
D67*
X41250000Y-57080000D03*
D66*
%TO.N,USB_CC2*%
X26445800Y-7543800D03*
X24746900Y-3598500D03*
%TO.N,LCD_CLK*%
X43264400Y-4437800D03*
X25937200Y-13683600D03*
X19928700Y-20476100D03*
X40069300Y-13683600D03*
%TO.N,SERVO_R_PWM*%
X63199600Y-25275000D03*
D68*
%TO.N,PGND*%
X74150000Y-17176700D03*
X86640800Y-21080200D03*
X75062500Y-45995400D03*
X65104200Y-33604200D03*
D66*
%TO.N,I2C_SCL*%
X45300000Y-27100000D03*
X42300000Y-28400000D03*
%TO.N,TOUCH_REXT*%
X29302400Y-48802100D03*
X33068900Y-48565000D03*
%TO.N,LCD_MOSI*%
X26627600Y-28095000D03*
X42495500Y-4411100D03*
%TO.N,UART_TX*%
X7820800Y-23528800D03*
X16607300Y-40302500D03*
%TO.N,USB_DP*%
X17468700Y-37516500D03*
X18600000Y-7702000D03*
%TO.N,AMP_DIN*%
X19363200Y-19896600D03*
X48026600Y-49250000D03*
X23744400Y-29723400D03*
X38946700Y-29999000D03*
%TO.N,AMP_LRCLK*%
X17251500Y-24673300D03*
X55192300Y-47849500D03*
%TO.N,AMP_BCLK*%
X52645300Y-48292800D03*
X35974800Y-21885800D03*
%TO.N,TOUCH_E1*%
X33387700Y-38540500D03*
X31720900Y-49108500D03*
%TO.N,BUCK_SW*%
X35285400Y-10705500D03*
X35285400Y-14500000D03*
%TO.N,I2C_SDA*%
X23800000Y-40000000D03*
X23800000Y-38200000D03*
X20723500Y-37769800D03*
X15549400Y-18427900D03*
X70070800Y-46775600D03*
X67258700Y-23148000D03*
%TO.N,TOUCH_E0*%
X28217900Y-47431200D03*
X29033000Y-38000000D03*
%TO.N,TOUCH_E2*%
X31371100Y-47552500D03*
X31676000Y-40672800D03*
%TO.N,TOUCH_E3*%
X28707300Y-39825400D03*
X31924200Y-48063500D03*
%TO.N,TOUCH_E4*%
X28539800Y-37359700D03*
X30085000Y-46400000D03*
%TO.N,TOUCH_E5*%
X32607200Y-47359000D03*
X31174800Y-36174800D03*
%TO.N,TOUCH_E8*%
X31000000Y-43500000D03*
X31000000Y-37400000D03*
%TO.N,TOUCH_E9*%
X32004600Y-35782400D03*
X30400000Y-45551100D03*
%TO.N,LED_RGB*%
X18038300Y-24285000D03*
X19734500Y-16546500D03*
%TO.N,CAM_PWDN*%
X34498800Y-48473400D03*
D67*
X42250000Y-57080000D03*
D66*
%TO.N,USB_DN*%
X16730000Y-37190300D03*
X18600000Y-5472300D03*
%TO.N,SERVO_L_PWM*%
X63646500Y-24625000D03*
%TO.N,HEAT_PWM*%
X66538100Y-26466500D03*
X67086200Y-38831700D03*
%TO.N,LCD_RST*%
X20458200Y-26825000D03*
%TO.N,LCD_CS_R*%
X20457700Y-35715000D03*
D67*
%TO.N,CAM_SIOC*%
X43750000Y-58180000D03*
D66*
X17955700Y-33685100D03*
%TO.N,CAM_VSYNC*%
X8058500Y-37529800D03*
D67*
X42750000Y-58180000D03*
%TO.N,CAM_Y9*%
X40250000Y-57080000D03*
D66*
X12261900Y-37529900D03*
%TO.N,CAM_XCLK*%
X10584400Y-37543900D03*
X22199700Y-50089200D03*
X35603900Y-50089200D03*
D67*
X39750000Y-58180000D03*
D66*
%TO.N,CAM_Y8*%
X34047300Y-56806000D03*
D67*
X39250000Y-57080000D03*
D66*
X13143500Y-37524800D03*
X30681400Y-56806000D03*
%TO.N,CAM_Y7*%
X14391000Y-37547300D03*
D67*
X38250000Y-57080000D03*
D66*
%TO.N,CAM_PCLK*%
X21729500Y-31284400D03*
X32742900Y-53922700D03*
%TO.N,CAM_Y6*%
X32186000Y-55185000D03*
X20817000Y-30690600D03*
%TO.N,CAM_Y2*%
X20756400Y-31906100D03*
D67*
X36750000Y-58180000D03*
D66*
%TO.N,CAM_Y5*%
X26843100Y-50711700D03*
X20759700Y-33175000D03*
%TO.N,CAM_Y3*%
X17894400Y-34445000D03*
D67*
X35750000Y-58180000D03*
D66*
%TO.N,LCD_CS_L*%
X21515200Y-23015000D03*
%TO.N,MIC_SD*%
X7941900Y-45250200D03*
X7840000Y-22460500D03*
%TO.N,MIC_SCK*%
X4001900Y-22459200D03*
X11713000Y-50010600D03*
%TO.N,MIC_WS*%
X2760000Y-22464900D03*
X12291400Y-50576800D03*
%TD*%
%TO.N,VBUS*%
D69*
X49253000Y-47000000D02*
X47323800Y-48929200D01*
X35400000Y-12500000D02*
X40100000Y-12500000D01*
X40000200Y-12450200D02*
X40740000Y-11710400D01*
X54721800Y-46239100D02*
X54721800Y-46202100D01*
X55000200Y-53827400D02*
X55469600Y-53827400D01*
X34631700Y-11500000D02*
X35307900Y-12176200D01*
X40740000Y-11710400D02*
X40740000Y-11500000D01*
D70*
X40000200Y-12450200D02*
X40100000Y-12500000D01*
D69*
X54750000Y-51437500D02*
X54277100Y-51437500D01*
X53020000Y-47000000D02*
X49253000Y-47000000D01*
X46225500Y-13401800D02*
X42431400Y-13401800D01*
X55822900Y-53720700D02*
X55961500Y-53582100D01*
X54721800Y-46239100D02*
X54964100Y-46239100D01*
X52007000Y-53000000D02*
X54240000Y-53000000D01*
X31150000Y-11500000D02*
X29841600Y-12808400D01*
X48518500Y-50742800D02*
X49749800Y-50742800D01*
X27558400Y-12808400D02*
X26000000Y-11250000D01*
X54893600Y-51929100D02*
X54750000Y-51785500D01*
X40500000Y-9950000D02*
X38137500Y-9950000D01*
X54240000Y-53067200D02*
X55000200Y-53827400D01*
X53020000Y-47000000D02*
X53020000Y-46809700D01*
X54964100Y-46239100D02*
X57725000Y-49000000D01*
X54240000Y-53000000D02*
X54240000Y-53067200D01*
X31150000Y-11500000D02*
X34631700Y-11500000D01*
X54750000Y-51785500D02*
X54750000Y-51437500D01*
X29841600Y-12808400D02*
X27558400Y-12808400D01*
D71*
X55576300Y-53720700D02*
X55822900Y-53720700D01*
D69*
X53590600Y-46239100D02*
X54721800Y-46239100D01*
X47323800Y-49548100D02*
X48518500Y-50742800D01*
X47323800Y-48929200D02*
X47323800Y-49548100D01*
X55961500Y-53582100D02*
X55961500Y-52404500D01*
X53020000Y-46809700D02*
X53590600Y-46239100D01*
X40740000Y-10190000D02*
X40740000Y-11500000D01*
D71*
X54277100Y-51437500D02*
X54250000Y-51437500D01*
X55469600Y-53827400D02*
X55576300Y-53720700D01*
D69*
X40500000Y-9950000D02*
X40740000Y-10190000D01*
X35307900Y-12176200D02*
X35307900Y-12450200D01*
X42431400Y-13401800D02*
X40740000Y-11710400D01*
D71*
X55486100Y-51929100D02*
X54893600Y-51929100D01*
D70*
X35307900Y-12450200D02*
X35400000Y-12500000D01*
D69*
X55961500Y-52404500D02*
X55486100Y-51929100D01*
X49749800Y-50742800D02*
X52007000Y-53000000D01*
%TO.N,GND*%
X8510000Y-31500000D02*
X9210000Y-31500000D01*
D72*
X13980000Y-47000000D02*
X14710000Y-47000000D01*
D73*
X29200000Y-47387500D02*
X28750100Y-48167700D01*
D72*
X55000000Y-55520000D02*
X55000000Y-54790000D01*
X59137500Y-23975000D02*
X58102500Y-23387500D01*
X57000000Y-24020000D02*
X57000000Y-23290000D01*
X41730000Y-47800000D02*
X42343200Y-48413200D01*
X24862500Y-53000000D02*
X23750000Y-53000000D01*
X15290000Y-51330000D02*
X15850200Y-51907600D01*
D69*
X32320000Y-9281700D02*
X31786700Y-9281700D01*
X46800000Y-32800000D02*
X47800000Y-32800000D01*
D72*
X40750000Y-5240000D02*
X40750000Y-4520000D01*
D69*
X22201700Y-4851700D02*
X21850000Y-4500000D01*
D73*
X46750000Y-31950000D02*
X46750000Y-32725000D01*
D72*
X24980000Y-49500000D02*
X25710000Y-49500000D01*
D73*
X53800000Y-48700000D02*
X53750000Y-48562500D01*
D69*
X32320000Y-7830000D02*
X32320000Y-9281700D01*
D73*
X15300000Y-49400000D02*
X15600000Y-49400000D01*
D72*
X53980000Y-47000000D02*
X54710000Y-47000000D01*
D69*
X21850000Y-4500000D02*
X21850000Y-6050000D01*
D72*
X15000000Y-7850000D02*
X15912800Y-8412900D01*
D73*
X45250000Y-55330000D02*
X45250000Y-57080000D01*
D72*
X9000000Y-14850000D02*
X8087200Y-15412900D01*
D74*
X38750000Y-55330000D02*
X38715800Y-54226200D01*
D69*
X23680000Y-4851700D02*
X22201700Y-4851700D01*
D72*
X59137500Y-22025000D02*
X59217800Y-21299500D01*
X45730000Y-5000000D02*
X46343200Y-5613200D01*
X59137500Y-21375000D02*
X58560200Y-20522900D01*
D75*
X52562500Y-50250000D02*
X51697700Y-50400400D01*
D72*
X26980000Y-55500000D02*
X27710000Y-55500000D01*
D73*
X45750000Y-32725000D02*
X45000000Y-33500000D01*
D72*
X24980000Y-47000000D02*
X25710000Y-47000000D01*
X23775000Y-22000000D02*
X24675000Y-22000000D01*
D69*
X23680000Y-9281700D02*
X24213300Y-9281700D01*
D73*
X45750000Y-31950000D02*
X45750000Y-32725000D01*
D72*
X46250000Y-35480000D02*
X46250000Y-36210000D01*
X35010000Y-47800000D02*
X35623200Y-48413200D01*
X15260000Y-53000000D02*
X15980000Y-53000000D01*
D74*
X44050000Y-28750000D02*
X43301800Y-28270400D01*
D72*
X39480000Y-47800000D02*
X40093200Y-48413200D01*
X66000000Y-31490000D02*
X66000000Y-30770000D01*
D73*
X38750000Y-55330000D02*
X38750000Y-58180000D01*
D69*
X24213300Y-9281700D02*
X24750000Y-8745000D01*
D72*
X59137500Y-29825000D02*
X58560200Y-30677100D01*
X15290000Y-48670000D02*
X15850200Y-48092400D01*
X50862500Y-56000000D02*
X49750000Y-56000000D01*
D73*
X49980000Y-32725000D02*
X49980000Y-34000000D01*
D72*
X18980000Y-18000000D02*
X19710000Y-18000000D01*
X11730000Y-2500000D02*
X12460000Y-2500000D01*
X68730000Y-50500000D02*
X69343200Y-51113200D01*
X57250000Y-26490000D02*
X56480000Y-26490000D01*
D73*
X15800000Y-49500000D02*
X15800000Y-49700000D01*
D72*
X69730000Y-45500000D02*
X70460000Y-45500000D01*
D73*
X15600000Y-49400000D02*
X15600000Y-49500000D01*
D72*
X35862500Y-9000000D02*
X34750000Y-9000000D01*
X59137500Y-23325000D02*
X59054300Y-22597200D01*
D73*
X15900000Y-49700000D02*
X15900000Y-49900000D01*
D74*
X47950000Y-28750000D02*
X48698200Y-28270400D01*
D69*
X23680000Y-7830000D02*
X23680000Y-9281700D01*
D72*
X49980000Y-26500000D02*
X50710000Y-26500000D01*
D75*
X55437500Y-49750000D02*
X56302300Y-49599600D01*
D69*
X47800000Y-32700000D02*
X50100000Y-32700000D01*
D72*
X23480000Y-25000000D02*
X24210000Y-25000000D01*
X17085000Y-16550000D02*
X16287700Y-17029300D01*
X59137500Y-22675000D02*
X58362000Y-21882600D01*
X21760000Y-3000000D02*
X22480000Y-3000000D01*
X12140000Y-48670000D02*
X11499700Y-48212100D01*
D73*
X15900000Y-49900000D02*
X15920000Y-50000000D01*
D75*
X53750000Y-48562500D02*
X53599600Y-47697700D01*
D72*
X29000000Y-52520000D02*
X29000000Y-51790000D01*
X52980000Y-58500000D02*
X53710000Y-58500000D01*
D69*
X21850000Y-6050000D02*
X21750000Y-6150000D01*
D72*
X49500000Y-29520000D02*
X49500000Y-28790000D01*
D73*
X15600000Y-49500000D02*
X15800000Y-49500000D01*
D72*
X49980000Y-34000000D02*
X50710000Y-34000000D01*
D73*
X15800000Y-49700000D02*
X15900000Y-49700000D01*
D72*
X43980000Y-47800000D02*
X44710000Y-47800000D01*
D73*
X49980000Y-32725000D02*
X50100000Y-32700000D01*
D72*
X35010000Y-44000000D02*
X35730000Y-44000000D01*
D73*
X54000000Y-50000000D02*
X53800000Y-50000000D01*
X15290000Y-48670000D02*
X15300000Y-48800000D01*
D72*
X64862500Y-23975000D02*
X65897500Y-23387500D01*
D74*
X67850000Y-48000000D02*
X66675000Y-48000000D01*
D69*
X31786700Y-9281700D02*
X31250000Y-8745000D01*
D73*
X15300000Y-48800000D02*
X15300000Y-49400000D01*
X28612500Y-46400000D02*
X26500000Y-46400000D01*
D72*
X64862500Y-23325000D02*
X63664900Y-23188000D01*
D73*
X46750000Y-32725000D02*
X46800000Y-32800000D01*
D74*
X67850000Y-47000000D02*
X66788600Y-46506300D01*
D69*
X23680000Y-3650000D02*
X23680000Y-4851700D01*
D72*
X15000000Y-14850000D02*
X15912800Y-15412900D01*
D73*
X53800000Y-50000000D02*
X53800000Y-48700000D01*
D72*
X9000000Y-7850000D02*
X8087200Y-8412900D01*
X34250000Y-2240000D02*
X34250000Y-1520000D01*
D69*
X47800000Y-32800000D02*
X47800000Y-32700000D01*
D72*
X59275000Y-49000000D02*
X60175000Y-49000000D01*
%TO.N,+3V3*%
D69*
X69990000Y-48000000D02*
X71022800Y-48000000D01*
D73*
X63900000Y-21300000D02*
X63900000Y-21400000D01*
D69*
X68770000Y-46467100D02*
X69990000Y-47687100D01*
D73*
X63900000Y-21400000D02*
X64800000Y-21400000D01*
X57000000Y-24980000D02*
X57000000Y-24800000D01*
D72*
X22225000Y-22000000D02*
X21325000Y-22000000D01*
D69*
X69990000Y-47687100D02*
X69990000Y-48000000D01*
D72*
X57000000Y-24980000D02*
X57000000Y-25710000D01*
D73*
X50862500Y-55050000D02*
X50900000Y-54900000D01*
D69*
X69990000Y-50500000D02*
X69990000Y-48000000D01*
D72*
X14240000Y-48670000D02*
X14378600Y-47901700D01*
D74*
X47950000Y-31250000D02*
X48698200Y-31729600D01*
D72*
X42500000Y-9480000D02*
X42500000Y-10210000D01*
D73*
X45250000Y-32725000D02*
X43800000Y-33500000D01*
D72*
X18915000Y-15450000D02*
X19712300Y-14970700D01*
D73*
X64800000Y-21400000D02*
X64862500Y-21375000D01*
D72*
X18020000Y-18000000D02*
X17290000Y-18000000D01*
X52020000Y-58500000D02*
X51290000Y-58500000D01*
X44770000Y-5000000D02*
X44040000Y-5000000D01*
X23510000Y-32000000D02*
X24230000Y-32000000D01*
D69*
X68770000Y-45500000D02*
X68770000Y-46467100D01*
D72*
X35740000Y-4000000D02*
X35020000Y-4000000D01*
X12490000Y-9500000D02*
X11770000Y-9500000D01*
X26020000Y-55500000D02*
X25290000Y-55500000D01*
X13190000Y-48670000D02*
X12768500Y-47978000D01*
X24862500Y-53950000D02*
X23979200Y-54687700D01*
D73*
X45250000Y-31950000D02*
X45250000Y-32725000D01*
D72*
X24862500Y-52050000D02*
X23979200Y-51312300D01*
X50862500Y-55050000D02*
X49979200Y-54312300D01*
D73*
X29200000Y-44612500D02*
X28750100Y-43832300D01*
D72*
X23510000Y-34000000D02*
X24230000Y-34000000D01*
X50862500Y-56950000D02*
X49979200Y-57687700D01*
X12490000Y-16500000D02*
X11770000Y-16500000D01*
D76*
X71022800Y-48000000D02*
X72150000Y-48000000D01*
D72*
X49020000Y-34000000D02*
X48290000Y-34000000D01*
X49500000Y-30480000D02*
X49500000Y-31210000D01*
X13020000Y-47000000D02*
X12290000Y-47000000D01*
X24020000Y-49500000D02*
X23290000Y-49500000D01*
X22520000Y-25000000D02*
X21790000Y-25000000D01*
%TO.N,+1V5*%
D73*
X41250000Y-55330000D02*
X41250000Y-57080000D01*
D69*
X43020000Y-47800000D02*
X43020000Y-47931400D01*
X48560300Y-51394500D02*
X51444300Y-54278500D01*
D73*
X43020000Y-47800000D02*
X43020000Y-46800000D01*
D69*
X54567500Y-56480000D02*
X53137500Y-55050000D01*
X51444300Y-54278500D02*
X52366000Y-54278500D01*
X55000000Y-56480000D02*
X54567500Y-56480000D01*
X43020000Y-47931400D02*
X46483100Y-51394500D01*
X46483100Y-51394500D02*
X48560300Y-51394500D01*
X52366000Y-54278500D02*
X53137500Y-55050000D01*
%TO.N,USB_CC2*%
D73*
X26250000Y-8745000D02*
X26250000Y-7739600D01*
X24746900Y-3306600D02*
X23803300Y-2363000D01*
X26250000Y-7739600D02*
X26445800Y-7543800D01*
X21377000Y-2363000D02*
X20740000Y-3000000D01*
X23803300Y-2363000D02*
X21377000Y-2363000D01*
X24746900Y-3598500D02*
X24746900Y-3306600D01*
%TO.N,LCD_CLK*%
X18822000Y-20476100D02*
X19928700Y-20476100D01*
X46990000Y-5000000D02*
X46427800Y-4437800D01*
X46427800Y-4437800D02*
X43264400Y-4437800D01*
X12920000Y-21250000D02*
X12920000Y-20248300D01*
X18594200Y-20248300D02*
X18822000Y-20476100D01*
X12920000Y-20248300D02*
X18594200Y-20248300D01*
X25937200Y-13683600D02*
X40069300Y-13683600D01*
%TO.N,LCD_CLK_S*%
X54660000Y-5000000D02*
X48010000Y-5000000D01*
X57160000Y-7500000D02*
X54660000Y-5000000D01*
%TO.N,SERVO_R_PWM*%
X59137500Y-25275000D02*
X63199600Y-25275000D01*
%TO.N,VMOT*%
D77*
X83902500Y-25540000D02*
X81062500Y-22700000D01*
X66000000Y-16326700D02*
X69850000Y-20176700D01*
X68999300Y-10274000D02*
X68999300Y-9020700D01*
X66000000Y-13273300D02*
X68999300Y-10274000D01*
X86000000Y-25540000D02*
X83902500Y-25540000D01*
X79147100Y-24615400D02*
X81062500Y-22700000D01*
D78*
X79709300Y-21800800D02*
X80163300Y-21800800D01*
D77*
X71715400Y-24615400D02*
X79147100Y-24615400D01*
X66000000Y-14800000D02*
X66000000Y-16326700D01*
X69850000Y-22750000D02*
X71715400Y-24615400D01*
D78*
X80163300Y-21800800D02*
X81062500Y-22700000D01*
D77*
X78750000Y-21250000D02*
X79300800Y-21800800D01*
X69850000Y-20176700D02*
X69850000Y-22750000D01*
D79*
X68999300Y-9020700D02*
X69270000Y-8750000D01*
D77*
X79300800Y-21800800D02*
X79709300Y-21800800D01*
X66000000Y-14800000D02*
X66000000Y-13273300D01*
%TO.N,PGND*%
X75000000Y-16326700D02*
X74150000Y-17176700D01*
X86340200Y-21080200D02*
X85760000Y-20500000D01*
X75062500Y-45995400D02*
X75062500Y-44950000D01*
X86640800Y-21080200D02*
X86340200Y-21080200D01*
X75000000Y-14800000D02*
X75000000Y-13273300D01*
X73000000Y-44240000D02*
X74352500Y-44240000D01*
X74753300Y-13273300D02*
X70500700Y-9020700D01*
X86300000Y-21400000D02*
X86300000Y-21200000D01*
X74352500Y-44240000D02*
X75062500Y-44950000D01*
X64250000Y-32750000D02*
X65760000Y-32750000D01*
X65104200Y-33604200D02*
X64250000Y-32750000D01*
X86300000Y-21200000D02*
X86340200Y-21080200D01*
X87600000Y-27100000D02*
X87600000Y-21400000D01*
X86000000Y-27100000D02*
X87600000Y-27100000D01*
X75000000Y-14800000D02*
X75000000Y-16326700D01*
X65760000Y-32750000D02*
X66000000Y-32510000D01*
X87600000Y-21400000D02*
X86300000Y-21400000D01*
X74150000Y-17176700D02*
X74150000Y-22750000D01*
X75000000Y-13273300D02*
X74753300Y-13273300D01*
D79*
X70500700Y-9020700D02*
X70230000Y-8750000D01*
D77*
X86000000Y-27300000D02*
X86000000Y-27100000D01*
%TO.N,I2C_SCL*%
D73*
X22249800Y-36415200D02*
X22490000Y-36175000D01*
X37700000Y-32700000D02*
X37600000Y-32700000D01*
X38800000Y-31500000D02*
X38800000Y-31600000D01*
X40500000Y-29900000D02*
X40400000Y-29900000D01*
X37200000Y-33100000D02*
X37200000Y-33200000D01*
X42300000Y-28400000D02*
X41900000Y-28400000D01*
X39300000Y-31100000D02*
X39200000Y-31100000D01*
X41300000Y-29000000D02*
X41300000Y-29100000D01*
X40000000Y-30300000D02*
X40000000Y-30400000D01*
X41900000Y-28400000D02*
X41900000Y-28500000D01*
X39200000Y-31100000D02*
X39200000Y-31200000D01*
X65983700Y-22675000D02*
X68790400Y-25481700D01*
X41100000Y-29300000D02*
X41000000Y-29300000D01*
X39400000Y-31000000D02*
X39300000Y-31000000D01*
X37400000Y-33000000D02*
X37300000Y-33000000D01*
X32372000Y-40804500D02*
X32372000Y-40033600D01*
X40000000Y-30400000D02*
X39900000Y-30400000D01*
X37300000Y-33000000D02*
X37300000Y-33100000D01*
X41800000Y-28500000D02*
X41800000Y-28600000D01*
X20547200Y-36664500D02*
X21273900Y-37391100D01*
X40100000Y-30200000D02*
X40100000Y-30300000D01*
X37200000Y-33200000D02*
X37100000Y-33200000D01*
X38000000Y-32400000D02*
X37900000Y-32400000D01*
X33000000Y-39100000D02*
X33000000Y-39400000D01*
X40300000Y-30000000D02*
X40300000Y-30100000D01*
X37000000Y-33400000D02*
X34000000Y-33400000D01*
X26998300Y-39404100D02*
X26998300Y-39561400D01*
X40600000Y-29800000D02*
X40500000Y-29800000D01*
X39700000Y-30700000D02*
X39600000Y-30700000D01*
X37600000Y-32800000D02*
X37500000Y-32800000D01*
X24748000Y-38759400D02*
X20886600Y-38759400D01*
X38700000Y-31700000D02*
X38600000Y-31700000D01*
X64862500Y-22675000D02*
X65983700Y-22675000D01*
X39100000Y-31300000D02*
X39000000Y-31300000D01*
X38800000Y-31600000D02*
X38700000Y-31600000D01*
X37900000Y-32500000D02*
X37800000Y-32500000D01*
X27250000Y-45600000D02*
X24748000Y-43098000D01*
X25770100Y-38175900D02*
X26998300Y-39404100D01*
X68790400Y-25481700D02*
X68790400Y-35903600D01*
X19250000Y-37122800D02*
X19250000Y-36985000D01*
X31348000Y-41125100D02*
X31523900Y-41301000D01*
X41900000Y-28500000D02*
X41800000Y-28500000D01*
X32952600Y-39453000D02*
X65241000Y-39453000D01*
X38100000Y-32300000D02*
X38000000Y-32300000D01*
X41600000Y-28700000D02*
X41600000Y-28800000D01*
X32372000Y-40033600D02*
X32952600Y-39453000D01*
X37700000Y-32600000D02*
X37700000Y-32700000D01*
X38300000Y-32000000D02*
X38300000Y-32100000D01*
X37500000Y-32900000D02*
X37400000Y-32900000D01*
X38500000Y-31800000D02*
X38500000Y-31900000D01*
X39600000Y-30700000D02*
X39600000Y-30800000D01*
X38400000Y-32000000D02*
X38300000Y-32000000D01*
X40500000Y-29800000D02*
X40500000Y-29900000D01*
X41500000Y-28900000D02*
X41400000Y-28900000D01*
X38100000Y-32200000D02*
X38100000Y-32300000D01*
X34000000Y-38800000D02*
X33900000Y-38800000D01*
X38200000Y-32100000D02*
X38200000Y-32200000D01*
X39600000Y-30800000D02*
X39500000Y-30800000D01*
X45250000Y-28050000D02*
X45250000Y-26725000D01*
X41400000Y-28900000D02*
X41400000Y-29000000D01*
D80*
X22249800Y-36415200D02*
X21273900Y-37391100D01*
D73*
X41700000Y-28700000D02*
X41600000Y-28700000D01*
X40800000Y-29500000D02*
X40800000Y-29600000D01*
X41200000Y-29200000D02*
X41100000Y-29200000D01*
X37600000Y-32700000D02*
X37600000Y-32800000D01*
X41800000Y-28600000D02*
X41700000Y-28600000D01*
X37800000Y-32500000D02*
X37800000Y-32600000D01*
X31523900Y-41301000D02*
X31875500Y-41301000D01*
X38400000Y-31900000D02*
X38400000Y-32000000D01*
X39300000Y-31000000D02*
X39300000Y-31100000D01*
X37400000Y-32900000D02*
X37400000Y-33000000D01*
X40600000Y-29700000D02*
X40600000Y-29800000D01*
X41700000Y-28600000D02*
X41700000Y-28700000D01*
X37900000Y-32400000D02*
X37900000Y-32500000D01*
X45200000Y-27100000D02*
X45300000Y-27100000D01*
X39900000Y-30500000D02*
X39800000Y-30500000D01*
X72150000Y-46362000D02*
X72150000Y-47000000D01*
X25250000Y-38175900D02*
X25770100Y-38175900D01*
X40300000Y-30100000D02*
X40200000Y-30100000D01*
X27814000Y-40377100D02*
X29314400Y-40377100D01*
D80*
X20547200Y-36664500D02*
X20226700Y-36985000D01*
D73*
X39700000Y-30600000D02*
X39700000Y-30700000D01*
X37800000Y-32600000D02*
X37700000Y-32600000D01*
X40900000Y-29500000D02*
X40800000Y-29500000D01*
X39100000Y-31200000D02*
X39100000Y-31300000D01*
X41100000Y-29200000D02*
X41100000Y-29300000D01*
X41200000Y-29100000D02*
X41200000Y-29200000D01*
X41000000Y-29400000D02*
X40900000Y-29400000D01*
X34000000Y-33400000D02*
X34000000Y-38800000D01*
X33000000Y-39400000D02*
X32952599Y-39453000D01*
X39200000Y-31200000D02*
X39100000Y-31200000D01*
X38500000Y-31900000D02*
X38400000Y-31900000D01*
X37100000Y-33200000D02*
X37100000Y-33300000D01*
X39500000Y-30800000D02*
X39500000Y-30900000D01*
X39800000Y-30500000D02*
X39800000Y-30600000D01*
X37300000Y-33100000D02*
X37200000Y-33100000D01*
X40100000Y-30300000D02*
X40000000Y-30300000D01*
X38600000Y-31700000D02*
X38600000Y-31800000D01*
X40400000Y-29900000D02*
X40400000Y-30000000D01*
X38000000Y-32300000D02*
X38000000Y-32400000D01*
X38900000Y-31500000D02*
X38800000Y-31500000D01*
X29314400Y-40377100D02*
X30062400Y-41125100D01*
X68790400Y-35903600D02*
X65241000Y-39453000D01*
X26998300Y-39561400D02*
X27814000Y-40377100D01*
X40900000Y-29400000D02*
X40900000Y-29500000D01*
X41500000Y-28800000D02*
X41500000Y-28900000D01*
X33700000Y-39000000D02*
X33700000Y-39100000D01*
X28612500Y-45600000D02*
X27250000Y-45600000D01*
X38900000Y-31400000D02*
X38900000Y-31500000D01*
X33900000Y-38800000D02*
X33900000Y-39000000D01*
X40200000Y-30200000D02*
X40100000Y-30200000D01*
X31875500Y-41301000D02*
X32372000Y-40804500D01*
X40700000Y-29700000D02*
X40600000Y-29700000D01*
X40200000Y-30100000D02*
X40200000Y-30200000D01*
X24748000Y-38677900D02*
X25250000Y-38175900D01*
X37000000Y-33300000D02*
X37000000Y-33400000D01*
X38600000Y-31800000D02*
X38500000Y-31800000D01*
X40700000Y-29600000D02*
X40700000Y-29700000D01*
X38300000Y-32100000D02*
X38200000Y-32100000D01*
X45250000Y-28050000D02*
X45200000Y-27900000D01*
X22490000Y-36175000D02*
X22490000Y-34000000D01*
X38200000Y-32200000D02*
X38100000Y-32200000D01*
X40400000Y-30000000D02*
X40300000Y-30000000D01*
X33900000Y-39000000D02*
X33700000Y-39000000D01*
X39500000Y-30900000D02*
X39400000Y-30900000D01*
X41600000Y-28800000D02*
X41500000Y-28800000D01*
X37100000Y-33300000D02*
X37000000Y-33300000D01*
X20886600Y-38759400D02*
X19250000Y-37122800D01*
X39400000Y-30900000D02*
X39400000Y-31000000D01*
X24748000Y-38759400D02*
X24748000Y-38677900D01*
X24748000Y-43098000D02*
X24748000Y-38759400D01*
X30062400Y-41125100D02*
X31348000Y-41125100D01*
X65241000Y-39453000D02*
X72150000Y-46362000D01*
X39900000Y-30400000D02*
X39900000Y-30500000D01*
X38700000Y-31600000D02*
X38700000Y-31700000D01*
X25250000Y-38175900D02*
X25250000Y-36750000D01*
X39000000Y-31400000D02*
X38900000Y-31400000D01*
X45200000Y-27900000D02*
X45200000Y-27100000D01*
X39000000Y-31300000D02*
X39000000Y-31400000D01*
X39800000Y-30600000D02*
X39700000Y-30600000D01*
X37500000Y-32800000D02*
X37500000Y-32900000D01*
X41300000Y-29100000D02*
X41200000Y-29100000D01*
X40800000Y-29600000D02*
X40700000Y-29600000D01*
D80*
X19250000Y-36985000D02*
X20226700Y-36985000D01*
D73*
X41400000Y-29000000D02*
X41300000Y-29000000D01*
X33700000Y-39100000D02*
X33000000Y-39100000D01*
X41000000Y-29300000D02*
X41000000Y-29400000D01*
%TO.N,TOUCH_REXT*%
X33068900Y-48565000D02*
X33068900Y-47853500D01*
X33068900Y-47853500D02*
X33990000Y-46932400D01*
X33990000Y-46932400D02*
X33990000Y-44000000D01*
X29547900Y-48802100D02*
X29600000Y-48750000D01*
X29600000Y-47387500D02*
X29600000Y-48750000D01*
X29302400Y-48802100D02*
X29547900Y-48802100D01*
%TO.N,LCD_MOSI*%
X43146600Y-3760000D02*
X44500000Y-3760000D01*
X42495500Y-4411100D02*
X43146600Y-3760000D01*
X19250000Y-28095000D02*
X26627600Y-28095000D01*
%TO.N,LCD_MOSI_S*%
X53474800Y-3645200D02*
X54620000Y-2500000D01*
X44500000Y-2740000D02*
X45405200Y-3645200D01*
X45405200Y-3645200D02*
X53474800Y-3645200D01*
%TO.N,UART_TX*%
X5300000Y-22251700D02*
X6543700Y-22251700D01*
X6543700Y-22251700D02*
X7820800Y-23528800D01*
X23000000Y-42000000D02*
X21302500Y-40302500D01*
X5300000Y-21250000D02*
X5300000Y-22251700D01*
X21302500Y-40302500D02*
X16607300Y-40302500D01*
%TO.N,BOOT*%
X18000000Y-21250000D02*
X19976900Y-21250000D01*
X14534600Y-16500000D02*
X13510000Y-16500000D01*
X19976900Y-21250000D02*
X20529500Y-20697400D01*
X13510000Y-11150000D02*
X9000000Y-11150000D01*
X19005100Y-18627700D02*
X16662300Y-18627700D01*
X16662300Y-18627700D02*
X14534600Y-16500000D01*
X20529500Y-20697400D02*
X20529500Y-20152100D01*
X15000000Y-11150000D02*
X13510000Y-11150000D01*
X13510000Y-11150000D02*
X13510000Y-16500000D01*
X20529500Y-20152100D02*
X19005100Y-18627700D01*
%TO.N,HEAT_GATE*%
D80*
X75702700Y-44349200D02*
X74878500Y-43525000D01*
D73*
X75760000Y-41500000D02*
X75760000Y-42352500D01*
D80*
X76100800Y-45375600D02*
X76100800Y-45200400D01*
X76394400Y-44906800D02*
X75951900Y-44464300D01*
D73*
X75760000Y-42352500D02*
X75062500Y-43050000D01*
X74543600Y-46803600D02*
X75648000Y-46803600D01*
X75951900Y-44426900D02*
X75951900Y-44401900D01*
X74878500Y-43234000D02*
X75062500Y-43050000D01*
D80*
X75951900Y-44464300D02*
X75951900Y-44426900D01*
X75899200Y-44349200D02*
X75702700Y-44349200D01*
D73*
X75648000Y-46803600D02*
X76100800Y-46350800D01*
X76100800Y-46350800D02*
X76100800Y-45375600D01*
X76750000Y-47000000D02*
X76100800Y-46350800D01*
D80*
X76100800Y-45200400D02*
X76270500Y-45030700D01*
D73*
X76270500Y-45030700D02*
X76394400Y-44906800D01*
X73000000Y-45260000D02*
X74543600Y-46803600D01*
X75951900Y-44401900D02*
X75899200Y-44349200D01*
X74878500Y-43525000D02*
X74878500Y-43234000D01*
%TO.N,USB_DP*%
X18000000Y-38750000D02*
X18000000Y-37748300D01*
X17471900Y-37516500D02*
X17468700Y-37516500D01*
X28250000Y-8038100D02*
X27974000Y-7762100D01*
X18000000Y-37748300D02*
X17703700Y-37748300D01*
X27250000Y-7762100D02*
X27250000Y-7567800D01*
D80*
X21999600Y-6600400D02*
X21750000Y-6850000D01*
X22929800Y-6600400D02*
X21999600Y-6600400D01*
D73*
X27974000Y-7762100D02*
X27250000Y-7762100D01*
X20898000Y-7702000D02*
X21750000Y-6850000D01*
X27250000Y-8745000D02*
X27250000Y-7762100D01*
X23073200Y-6457000D02*
X22929800Y-6600400D01*
X18600000Y-7702000D02*
X20898000Y-7702000D01*
X27250000Y-7567800D02*
X26139200Y-6457000D01*
X28250000Y-8745000D02*
X28250000Y-8038100D01*
X26139200Y-6457000D02*
X23073200Y-6457000D01*
X17703700Y-37748300D02*
X17471900Y-37516500D01*
%TO.N,REV_GATE*%
X83594400Y-22587100D02*
X82387100Y-22587100D01*
X81062500Y-21262500D02*
X81062500Y-20800000D01*
X84740000Y-20500000D02*
X84740000Y-21441500D01*
X84740000Y-21441500D02*
X83594400Y-22587100D01*
X82387100Y-22587100D02*
X81062500Y-21262500D01*
%TO.N,USB_CC1*%
X31842000Y-5171700D02*
X32338300Y-5171700D01*
X29250000Y-8745000D02*
X29250000Y-7763700D01*
X32338300Y-5171700D02*
X34250000Y-3260000D01*
X29250000Y-7763700D02*
X31842000Y-5171700D01*
%TO.N,+2V8*%
D69*
X40010500Y-47040500D02*
X40770000Y-47800000D01*
X27137500Y-52050000D02*
X28244900Y-50942600D01*
X28244900Y-50942600D02*
X35809900Y-50942600D01*
D81*
X44250000Y-54279800D02*
X44250000Y-55330000D01*
D69*
X36869400Y-47040500D02*
X40010500Y-47040500D01*
X28567500Y-53480000D02*
X27137500Y-52050000D01*
X44250000Y-51495200D02*
X40770000Y-48015200D01*
X40770000Y-48015200D02*
X40770000Y-47800000D01*
X36240000Y-47669900D02*
X36869400Y-47040500D01*
X44250000Y-54279800D02*
X44250000Y-51495200D01*
X36240000Y-47800000D02*
X36240000Y-47669900D01*
X29000000Y-53480000D02*
X28567500Y-53480000D01*
X40750000Y-54278100D02*
X36897100Y-50425200D01*
X35809900Y-50942600D02*
X36327300Y-50425200D01*
X36897100Y-50425200D02*
X36327300Y-50425200D01*
X36327300Y-50425200D02*
X36327300Y-47887300D01*
X36327300Y-47887300D02*
X36240000Y-47800000D01*
D81*
X40750000Y-54278100D02*
X40750000Y-55330000D01*
%TO.N,AMP_DIN*%
D73*
X12001700Y-19896600D02*
X19363200Y-19896600D01*
X24020000Y-29999000D02*
X23744400Y-29723400D01*
X38946700Y-29999000D02*
X24020000Y-29999000D01*
X11650000Y-20248300D02*
X12001700Y-19896600D01*
X11650000Y-21250000D02*
X11650000Y-20248300D01*
X48026600Y-49250000D02*
X52562500Y-49250000D01*
%TO.N,AMP_SD*%
X54357500Y-52264800D02*
X53215600Y-52264800D01*
X52562500Y-51611700D02*
X52562500Y-50750000D01*
D80*
X55260000Y-52429300D02*
X54522000Y-52429300D01*
D73*
X53215600Y-52264800D02*
X52562500Y-51611700D01*
X55260000Y-53000000D02*
X55260000Y-52429300D01*
D80*
X54522000Y-52429300D02*
X54357500Y-52264800D01*
%TO.N,SPK_P*%
D69*
X62000000Y-55000000D02*
X59660400Y-55000000D01*
D71*
X55437500Y-50777100D02*
X55437500Y-50750000D01*
D69*
X59660400Y-55000000D02*
X55437500Y-50777100D01*
%TO.N,SPK_N*%
D73*
X58200000Y-52700000D02*
X58100000Y-52700000D01*
X57600000Y-52100000D02*
X57500000Y-52100000D01*
X57600000Y-52200000D02*
X57600000Y-52100000D01*
X62900000Y-53800000D02*
X62900000Y-53700000D01*
X59100000Y-53700000D02*
X59100000Y-53600000D01*
D69*
X62900000Y-53700000D02*
X59400000Y-53700000D01*
D73*
X59000000Y-53500000D02*
X58900000Y-53500000D01*
X58700000Y-53300000D02*
X58700000Y-53200000D01*
X57800000Y-52400000D02*
X57800000Y-52300000D01*
X58000000Y-52600000D02*
X58000000Y-52500000D01*
X57500000Y-52000000D02*
X57400000Y-52000000D01*
X58100000Y-52700000D02*
X58100000Y-52600000D01*
X58800000Y-53400000D02*
X58800000Y-53300000D01*
X59100000Y-53600000D02*
X59000000Y-53600000D01*
X57400000Y-51900000D02*
X57300000Y-51900000D01*
X57700000Y-52200000D02*
X57600000Y-52200000D01*
X56900000Y-51400000D02*
X56800000Y-51400000D01*
D69*
X59400000Y-53700000D02*
X59400000Y-53800000D01*
D73*
X62900000Y-55000000D02*
X62900000Y-53800000D01*
X56900000Y-51500000D02*
X56900000Y-51400000D01*
X59200000Y-53800000D02*
X59300000Y-53800000D01*
X58400000Y-53000000D02*
X58400000Y-52900000D01*
X57300000Y-51900000D02*
X57300000Y-51800000D01*
X56800000Y-51400000D02*
X56800000Y-50300000D01*
X57500000Y-52100000D02*
X57500000Y-52000000D01*
X58100000Y-52600000D02*
X58000000Y-52600000D01*
X58900000Y-53400000D02*
X58800000Y-53400000D01*
X58900000Y-53500000D02*
X58900000Y-53400000D01*
X57400000Y-52000000D02*
X57400000Y-51900000D01*
X57000000Y-51600000D02*
X57000000Y-51500000D01*
X57800000Y-52300000D02*
X57700000Y-52300000D01*
X58500000Y-53000000D02*
X58400000Y-53000000D01*
X58600000Y-53100000D02*
X58500000Y-53100000D01*
X57200000Y-51800000D02*
X57200000Y-51700000D01*
X58800000Y-53300000D02*
X58700000Y-53300000D01*
X59300000Y-53800000D02*
X59400000Y-53800000D01*
X57300000Y-51800000D02*
X57200000Y-51800000D01*
X57900000Y-52500000D02*
X57900000Y-52400000D01*
X58500000Y-53100000D02*
X58500000Y-53000000D01*
X64000000Y-55000000D02*
X62900000Y-55000000D01*
X58300000Y-52900000D02*
X58300000Y-52800000D01*
X58200000Y-52800000D02*
X58200000Y-52700000D01*
X58700000Y-53200000D02*
X58600000Y-53200000D01*
X58300000Y-52800000D02*
X58200000Y-52800000D01*
X56800000Y-50300000D02*
X56750000Y-50250000D01*
X57100000Y-51700000D02*
X57100000Y-51600000D01*
X57200000Y-51700000D02*
X57100000Y-51700000D01*
X59200000Y-53700000D02*
X59100000Y-53700000D01*
X57100000Y-51600000D02*
X57000000Y-51600000D01*
X59200000Y-53800000D02*
X59200000Y-53700000D01*
X57900000Y-52400000D02*
X57800000Y-52400000D01*
X59000000Y-53600000D02*
X59000000Y-53500000D01*
X57700000Y-52300000D02*
X57700000Y-52200000D01*
X58600000Y-53200000D02*
X58600000Y-53100000D01*
X58400000Y-52900000D02*
X58300000Y-52900000D01*
X58000000Y-52500000D02*
X57900000Y-52500000D01*
X55437500Y-50250000D02*
X56750000Y-50250000D01*
X57000000Y-51500000D02*
X56900000Y-51500000D01*
%TO.N,AMP_LRCLK*%
X11531600Y-24673300D02*
X17251500Y-24673300D01*
X9110000Y-22251700D02*
X11531600Y-24673300D01*
X54250000Y-48116800D02*
X54250000Y-48562500D01*
X54517300Y-47849500D02*
X54250000Y-48116800D01*
X9110000Y-21250000D02*
X9110000Y-22251700D01*
X55192300Y-47849500D02*
X54517300Y-47849500D01*
%TO.N,AMP_BCLK*%
X19626800Y-22251700D02*
X20643800Y-21234700D01*
X52980300Y-48292800D02*
X52645300Y-48292800D01*
X53250000Y-48562500D02*
X52980300Y-48292800D01*
X35323700Y-21234700D02*
X35974800Y-21885800D01*
X20643800Y-21234700D02*
X35323700Y-21234700D01*
X10380000Y-21250000D02*
X10380000Y-22251700D01*
X10380000Y-22251700D02*
X19626800Y-22251700D01*
%TO.N,PWM_OE*%
X67500000Y-26500000D02*
X67351100Y-26351100D01*
X57250000Y-30206000D02*
X58309500Y-31265500D01*
X64690900Y-31265500D02*
X67500000Y-28456400D01*
D80*
X67351100Y-24824400D02*
X65061900Y-24824400D01*
D73*
X67351100Y-26351100D02*
X67351100Y-24824400D01*
X57250000Y-27510000D02*
X57250000Y-30206000D01*
X67500000Y-28456400D02*
X67500000Y-26500000D01*
D80*
X65061900Y-24824400D02*
X64862500Y-24625000D01*
D73*
X58309500Y-31265500D02*
X64690900Y-31265500D01*
%TO.N,TOUCH_E1*%
X30400000Y-48853100D02*
X30655400Y-49108500D01*
X33387700Y-38540500D02*
X33040500Y-38540500D01*
X30655400Y-49108500D02*
X31720900Y-49108500D01*
X33040500Y-38540500D02*
X32500000Y-38000000D01*
X30400000Y-47387500D02*
X30400000Y-48750000D01*
X30400000Y-48750000D02*
X30400000Y-48853100D01*
%TO.N,BUCK_SW*%
D69*
X35862500Y-9950000D02*
X35285400Y-10527100D01*
X35285400Y-10527100D02*
X35285400Y-10705500D01*
X37750000Y-14500000D02*
X35285400Y-14500000D01*
%TO.N,I2C_SDA*%
D73*
X23800000Y-45800000D02*
X26800000Y-45800000D01*
X43049300Y-26725000D02*
X44750000Y-26725000D01*
X23000000Y-38200000D02*
X23800000Y-38200000D01*
X26900000Y-45900000D02*
X26900000Y-46000000D01*
X70656100Y-46775600D02*
X70070800Y-46775600D01*
X44750000Y-28050000D02*
X44750000Y-26725000D01*
X26800000Y-45800000D02*
X26800000Y-45900000D01*
X20723500Y-37769800D02*
X23000000Y-37769800D01*
X67258700Y-23148000D02*
X66135700Y-22025000D01*
X23800000Y-40000000D02*
X23800000Y-45800000D01*
X22490000Y-32000000D02*
X23490000Y-33000000D01*
X26800000Y-45900000D02*
X26900000Y-45900000D01*
X23490000Y-33000000D02*
X24801800Y-33000000D01*
X6570000Y-21250000D02*
X6570000Y-20248300D01*
X8390400Y-18427900D02*
X15549400Y-18427900D01*
X23000000Y-38000000D02*
X23000000Y-37769800D01*
X26900000Y-46000000D02*
X27250000Y-46000000D01*
X61609900Y-19918000D02*
X51557000Y-19918000D01*
X63716900Y-22025000D02*
X61609900Y-19918000D01*
X28612500Y-46000000D02*
X27250000Y-46000000D01*
X24801800Y-33000000D02*
X36774300Y-33000000D01*
X36774300Y-33000000D02*
X43049300Y-26725000D01*
X23000000Y-38000000D02*
X23000000Y-38200000D01*
X24801800Y-33000000D02*
X24801800Y-35968000D01*
X66135700Y-22025000D02*
X64862500Y-22025000D01*
X71380500Y-47500000D02*
X70656100Y-46775600D01*
X6570000Y-20248300D02*
X8390400Y-18427900D01*
X72150000Y-47500000D02*
X71380500Y-47500000D01*
X51557000Y-19918000D02*
X44750000Y-26725000D01*
X24801800Y-35968000D02*
X23000000Y-37769800D01*
X64862500Y-22025000D02*
X63716900Y-22025000D01*
%TO.N,TOUCH_VREG*%
D80*
X24587500Y-47567500D02*
X26482500Y-47567500D01*
D73*
X28612500Y-46800000D02*
X27250000Y-46800000D01*
D80*
X26482500Y-47567500D02*
X27250000Y-46800000D01*
D73*
X24020000Y-47000000D02*
X24587500Y-47567500D01*
%TO.N,TOUCH_E0*%
X28217900Y-47431200D02*
X28192500Y-47456600D01*
X28192500Y-47456600D02*
X28192500Y-48472300D01*
X30000000Y-38000000D02*
X29033000Y-38000000D01*
X30000000Y-47387500D02*
X30000000Y-48750000D01*
X29530900Y-49353800D02*
X30000000Y-48884700D01*
X30000000Y-48884700D02*
X30000000Y-48750000D01*
X29074000Y-49353800D02*
X29530900Y-49353800D01*
X28192500Y-48472300D02*
X29074000Y-49353800D01*
%TO.N,TOUCH_E2*%
X31172800Y-40672800D02*
X31676000Y-40672800D01*
X30750000Y-40250000D02*
X31172800Y-40672800D01*
X30965000Y-47552500D02*
X30800000Y-47387500D01*
X31371100Y-47552500D02*
X30965000Y-47552500D01*
%TO.N,TOUCH_E3*%
X31461700Y-46800000D02*
X31387500Y-46800000D01*
X28707300Y-39825400D02*
X28325400Y-39825400D01*
X28325400Y-39825400D02*
X27750000Y-39250000D01*
X31924200Y-47262500D02*
X31461700Y-46800000D01*
X31924200Y-48063500D02*
X31924200Y-47262500D01*
%TO.N,TOUCH_E4*%
X27930100Y-36750000D02*
X28539800Y-37359700D01*
X27750000Y-36750000D02*
X27930100Y-36750000D01*
X31387500Y-46400000D02*
X30085000Y-46400000D01*
%TO.N,TOUCH_E5*%
X32886800Y-46000000D02*
X33165300Y-46278500D01*
X33165300Y-46278500D02*
X33165300Y-46955500D01*
X32761800Y-47359000D02*
X32607200Y-47359000D01*
X31387500Y-46000000D02*
X32750000Y-46000000D01*
X30500000Y-35500000D02*
X31174800Y-36174800D01*
X32750000Y-46000000D02*
X32886800Y-46000000D01*
X33165300Y-46955500D02*
X32761800Y-47359000D01*
%TO.N,TOUCH_E6*%
X33250000Y-40250000D02*
X33250000Y-45550200D01*
D80*
X32799800Y-45550200D02*
X32750000Y-45600000D01*
D73*
X31387500Y-45600000D02*
X32750000Y-45600000D01*
D80*
X33250000Y-45550200D02*
X32799800Y-45550200D01*
%TO.N,TOUCH_E7*%
D73*
X31753600Y-44833900D02*
X31753600Y-42187500D01*
X31753600Y-42187500D02*
X31066100Y-41500000D01*
X31387500Y-45200000D02*
X31753600Y-44833900D01*
X31066100Y-41500000D02*
X28250000Y-41500000D01*
%TO.N,TOUCH_E8*%
X27100000Y-35900000D02*
X27100000Y-35300000D01*
X27100000Y-35300000D02*
X27068600Y-35181400D01*
X28900000Y-36900000D02*
X28900000Y-36800000D01*
X29100000Y-37000000D02*
X29000000Y-37000000D01*
X28900000Y-36800000D02*
X28600000Y-36800000D01*
X30800000Y-37200000D02*
X29100000Y-37200000D01*
X30800000Y-37400000D02*
X30800000Y-37200000D01*
X30800000Y-44612500D02*
X30800000Y-43250000D01*
X31000000Y-37400000D02*
X30800000Y-37400000D01*
X29100000Y-37200000D02*
X29100000Y-37000000D01*
X28600000Y-35900000D02*
X27100000Y-35900000D01*
X29000000Y-36900000D02*
X28900000Y-36900000D01*
X30800000Y-43500000D02*
X31000000Y-43500000D01*
X28600000Y-36800000D02*
X28600000Y-35900000D01*
X30800000Y-43250000D02*
X30800000Y-43500000D01*
X29000000Y-37000000D02*
X29000000Y-36900000D01*
X27750000Y-34500000D02*
X27068600Y-35181400D01*
%TO.N,TOUCH_E9*%
X32467600Y-35782400D02*
X32004600Y-35782400D01*
X30400000Y-44612500D02*
X30400000Y-45551100D01*
X33000000Y-35250000D02*
X32467600Y-35782400D01*
%TO.N,TOUCH_E10*%
X30000000Y-43105500D02*
X30000000Y-43250000D01*
X30000000Y-44612500D02*
X30000000Y-43250000D01*
X30605500Y-42500000D02*
X30000000Y-43105500D01*
X31000000Y-42500000D02*
X30605500Y-42500000D01*
%TO.N,TOUCH_E11*%
X28907200Y-43250000D02*
X29600000Y-43250000D01*
X29600000Y-44612500D02*
X29600000Y-43250000D01*
X25500000Y-39000000D02*
X25500000Y-39842800D01*
X25500000Y-39842800D02*
X28907200Y-43250000D01*
%TO.N,EN*%
X9000000Y-3836600D02*
X9000000Y-3523300D01*
X13510000Y-8916400D02*
X13510000Y-9500000D01*
X10770000Y-2500000D02*
X10023300Y-2500000D01*
X13510000Y-4150000D02*
X13510000Y-8916400D01*
X13510000Y-8916400D02*
X9933800Y-8916400D01*
X13510000Y-4150000D02*
X15000000Y-4150000D01*
X9000000Y-4150000D02*
X9000000Y-3836600D01*
X9313400Y-4150000D02*
X13510000Y-4150000D01*
X788300Y-18061900D02*
X788300Y-23274500D01*
X9000000Y-3836600D02*
X9313400Y-4150000D01*
X788300Y-23274500D02*
X4030000Y-26516200D01*
X4030000Y-26516200D02*
X4030000Y-38750000D01*
X10023300Y-2500000D02*
X9000000Y-3523300D01*
X9933800Y-8916400D02*
X788300Y-18061900D01*
%TO.N,LED_RGB*%
X19520200Y-16546500D02*
X19516700Y-16550000D01*
X19250000Y-24285000D02*
X18038300Y-24285000D01*
X19734500Y-16546500D02*
X19520200Y-16546500D01*
X18915000Y-16550000D02*
X19516700Y-16550000D01*
%TO.N,HEAT_LOW*%
D77*
X79897500Y-46960000D02*
X76937500Y-44000000D01*
X84500000Y-46960000D02*
X79897500Y-46960000D01*
%TO.N,CAM_RESET*%
D73*
X38520000Y-47800000D02*
X43250000Y-52530000D01*
X37260000Y-47800000D02*
X38520000Y-47800000D01*
X43250000Y-52530000D02*
X43250000Y-55330000D01*
%TO.N,BUCK_FB*%
X41943300Y-7963300D02*
X41943300Y-7298800D01*
D80*
X39548800Y-6701200D02*
X39523800Y-6726200D01*
D73*
X40750000Y-6260000D02*
X40415100Y-6594900D01*
X39980500Y-5000000D02*
X37760000Y-5000000D01*
X37760000Y-5000000D02*
X36760000Y-4000000D01*
X40415100Y-6594900D02*
X40415100Y-6701200D01*
D80*
X40415100Y-6701200D02*
X39548800Y-6701200D01*
X40179300Y-5695600D02*
X40179300Y-5198800D01*
D73*
X40750000Y-6260000D02*
X40185600Y-5695600D01*
D80*
X40179300Y-5198800D02*
X39980500Y-5000000D01*
D73*
X39523800Y-6726200D02*
X39461300Y-6726200D01*
D80*
X41012700Y-7298800D02*
X40415100Y-6701200D01*
X41943300Y-7298800D02*
X41012700Y-7298800D01*
D73*
X39461300Y-6726200D02*
X38137500Y-8050000D01*
X42500000Y-8520000D02*
X41943300Y-7963300D01*
X40185600Y-5695600D02*
X40179300Y-5695600D01*
%TO.N,NTC_SENSE*%
X66853700Y-49583700D02*
X66853700Y-48599500D01*
X69830600Y-51679400D02*
X68949400Y-51679400D01*
X71010000Y-50500000D02*
X70255000Y-51255000D01*
X67770000Y-50500000D02*
X66853700Y-49583700D01*
X70255000Y-51255000D02*
X69830600Y-51679400D01*
X74000000Y-55000000D02*
X70255000Y-51255000D01*
D80*
X66853700Y-48599500D02*
X67750500Y-48599500D01*
X67750500Y-48599500D02*
X67850000Y-48500000D01*
D73*
X68949400Y-51679400D02*
X67770000Y-50500000D01*
%TO.N,IMU_REGOUT*%
X46250000Y-31950000D02*
X46250000Y-34520000D01*
%TO.N,IMU_CPOUT*%
X46750000Y-28050000D02*
X46750000Y-26725000D01*
X46975000Y-26500000D02*
X46750000Y-26725000D01*
X49020000Y-26500000D02*
X46975000Y-26500000D01*
%TO.N,CAM_PWDN*%
X33990000Y-47964600D02*
X33990000Y-47800000D01*
X34498800Y-48473400D02*
X33990000Y-47964600D01*
X42250000Y-55330000D02*
X42250000Y-57080000D01*
%TO.N,VBUS_IN*%
D70*
X26457400Y-10349800D02*
X25699500Y-10349800D01*
D69*
X28350000Y-11500000D02*
X27607600Y-11500000D01*
X27607600Y-11500000D02*
X26457400Y-10349800D01*
X28484200Y-11500000D02*
X30450000Y-9534200D01*
X28350000Y-11500000D02*
X28484200Y-11500000D01*
D70*
X25699500Y-10349800D02*
X25550000Y-10200300D01*
D69*
X25550000Y-10200300D02*
X25550000Y-8745000D01*
X30450000Y-9534200D02*
X30450000Y-8745000D01*
%TO.N,USB_DN*%
D73*
X28750000Y-9454900D02*
X28750000Y-8745000D01*
X18600000Y-5472300D02*
X20177700Y-5472300D01*
X28054400Y-9736800D02*
X28468100Y-9736800D01*
X16730000Y-38750000D02*
X16730000Y-37190300D01*
X27750000Y-8745000D02*
X27750000Y-9432400D01*
X28750000Y-6812300D02*
X23949000Y-2011300D01*
X28468100Y-9736800D02*
X28750000Y-9454900D01*
X20215300Y-3565300D02*
X21150000Y-4500000D01*
X20177700Y-5472300D02*
X21150000Y-4500000D01*
X27750000Y-9432400D02*
X28054400Y-9736800D01*
X28750000Y-8745000D02*
X28750000Y-6812300D01*
X23949000Y-2011300D02*
X20842600Y-2011300D01*
X20842600Y-2011300D02*
X20215300Y-2638600D01*
X20215300Y-2638600D02*
X20215300Y-3565300D01*
%TO.N,VMOT_IN*%
D77*
X82937500Y-16862500D02*
X82937500Y-21750000D01*
X83300000Y-16500000D02*
X82937500Y-16862500D01*
%TO.N,SERVO_L_PWM*%
D73*
X59137500Y-24625000D02*
X63646500Y-24625000D01*
%TO.N,HEAT_PWM*%
X66538100Y-26349800D02*
X66538100Y-26466500D01*
X65463300Y-25275000D02*
X66538100Y-26349800D01*
X67086200Y-38831700D02*
X72071700Y-38831700D01*
X72071700Y-38831700D02*
X74740000Y-41500000D01*
X64862500Y-25275000D02*
X65463300Y-25275000D01*
%TO.N,BUCK_EN*%
X37650100Y-9123900D02*
X36576200Y-8050000D01*
X41760000Y-9742700D02*
X41141200Y-9123900D01*
X41141200Y-9123900D02*
X37650100Y-9123900D01*
X36576200Y-8050000D02*
X35862500Y-8050000D01*
X41760000Y-11500000D02*
X41760000Y-9742700D01*
%TO.N,LCD_RST*%
D80*
X19250000Y-26825000D02*
X20226700Y-26825000D01*
X20226700Y-26825000D02*
X20458200Y-26825000D01*
%TO.N,LCD_CS_R*%
X20226700Y-35715000D02*
X20457700Y-35715000D01*
X19250000Y-35715000D02*
X20226700Y-35715000D01*
%TO.N,LCD_DC*%
D73*
X52080000Y-8395400D02*
X52080000Y-7500000D01*
X37337400Y-23138000D02*
X52080000Y-8395400D01*
X20297900Y-25555000D02*
X22714900Y-23138000D01*
X22714900Y-23138000D02*
X37337400Y-23138000D01*
X19250000Y-25555000D02*
X20297900Y-25555000D01*
%TO.N,CAM_SIOD*%
X5300000Y-39751700D02*
X8340000Y-39751700D01*
X8340000Y-39751700D02*
X22018900Y-53430600D01*
X5300000Y-38750000D02*
X5300000Y-39751700D01*
X22018900Y-53430600D02*
X22018900Y-54529100D01*
X43849800Y-59080200D02*
X44750000Y-58180000D01*
X22018900Y-54529100D02*
X26570000Y-59080200D01*
X26570000Y-59080200D02*
X43849800Y-59080200D01*
X44750000Y-55330000D02*
X44750000Y-58180000D01*
%TO.N,CAM_SIOC*%
X6570000Y-37748300D02*
X10545500Y-33772800D01*
X10545500Y-33772800D02*
X17868000Y-33772800D01*
X6570000Y-38750000D02*
X6570000Y-37748300D01*
X17868000Y-33772800D02*
X17955700Y-33685100D01*
X43750000Y-55330000D02*
X43750000Y-58180000D01*
%TO.N,CAM_VSYNC*%
X42750000Y-55330000D02*
X42750000Y-58180000D01*
X7840000Y-37748300D02*
X8058500Y-37529800D01*
X7840000Y-38750000D02*
X7840000Y-37748300D01*
%TO.N,CAM_HREF*%
X26683300Y-58687200D02*
X41242800Y-58687200D01*
X22370600Y-54374500D02*
X26683300Y-58687200D01*
X9110000Y-40022400D02*
X22370600Y-53283000D01*
X9110000Y-38750000D02*
X9110000Y-40022400D01*
X22370600Y-53283000D02*
X22370600Y-54374500D01*
X41750000Y-55330000D02*
X41750000Y-58180000D01*
X41242800Y-58687200D02*
X41750000Y-58180000D01*
%TO.N,CAM_Y9*%
X40250000Y-55330000D02*
X40250000Y-57080000D01*
X11868400Y-37529900D02*
X12261900Y-37529900D01*
X11650000Y-38750000D02*
X11650000Y-37748300D01*
X11650000Y-37748300D02*
X11868400Y-37529900D01*
%TO.N,CAM_XCLK*%
X35603900Y-50089200D02*
X22199700Y-50089200D01*
X39750000Y-55330000D02*
X39750000Y-58180000D01*
X10380000Y-38750000D02*
X10380000Y-37748300D01*
X10584400Y-37543900D02*
X10380000Y-37748300D01*
%TO.N,CAM_Y8*%
X12920000Y-37748300D02*
X13143500Y-37524800D01*
X34047300Y-56806000D02*
X30681400Y-56806000D01*
X39250000Y-55330000D02*
X39250000Y-57080000D01*
X12920000Y-38750000D02*
X12920000Y-37748300D01*
%TO.N,CAM_Y7*%
X14190000Y-38750000D02*
X14190000Y-37748300D01*
X14190000Y-37748300D02*
X14391000Y-37547300D01*
X38250000Y-55330000D02*
X38250000Y-57080000D01*
%TO.N,CAM_PCLK*%
X37046600Y-53724900D02*
X32940700Y-53724900D01*
X20458200Y-29365000D02*
X21729500Y-30636300D01*
X37750000Y-55330000D02*
X37750000Y-54428300D01*
X32940700Y-53724900D02*
X32742900Y-53922700D01*
X37750000Y-54428300D02*
X37046600Y-53724900D01*
D80*
X20226700Y-29365000D02*
X20458200Y-29365000D01*
D73*
X21729500Y-30636300D02*
X21729500Y-31284400D01*
D80*
X19250000Y-29365000D02*
X20226700Y-29365000D01*
%TO.N,CAM_Y6*%
D73*
X37250000Y-54428300D02*
X36898300Y-54076600D01*
X33830500Y-54076600D02*
X32722100Y-55185000D01*
X32722100Y-55185000D02*
X32186000Y-55185000D01*
D80*
X19250000Y-30635000D02*
X20226700Y-30635000D01*
X20761400Y-30635000D02*
X20817000Y-30690600D01*
X20226700Y-30635000D02*
X20761400Y-30635000D01*
D73*
X37250000Y-55330000D02*
X37250000Y-54428300D01*
X36898300Y-54076600D02*
X33830500Y-54076600D01*
%TO.N,CAM_Y2*%
X20755300Y-31905000D02*
X20756400Y-31906100D01*
X36750000Y-55330000D02*
X36750000Y-58180000D01*
X19250000Y-31905000D02*
X20755300Y-31905000D01*
%TO.N,CAM_Y5*%
X26195800Y-54252200D02*
X26195800Y-51359000D01*
X36250000Y-54428300D02*
X33976200Y-54428300D01*
X19250000Y-33175000D02*
X20759700Y-33175000D01*
X32599600Y-55804900D02*
X30404600Y-55804900D01*
X26616400Y-54672800D02*
X26195800Y-54252200D01*
X26195800Y-51359000D02*
X26843100Y-50711700D01*
X30404600Y-55804900D02*
X29272500Y-54672800D01*
X29272500Y-54672800D02*
X26616400Y-54672800D01*
X33976200Y-54428300D02*
X32599600Y-55804900D01*
X36250000Y-55330000D02*
X36250000Y-54428300D01*
%TO.N,CAM_Y3*%
X35750000Y-55330000D02*
X35750000Y-58180000D01*
D80*
X18273300Y-34445000D02*
X17894400Y-34445000D01*
X19250000Y-34445000D02*
X18273300Y-34445000D01*
%TO.N,CAM_Y4*%
D73*
X34915900Y-57414100D02*
X25916500Y-57414100D01*
X35250000Y-57080000D02*
X34915900Y-57414100D01*
X15460000Y-45651200D02*
X15460000Y-38750000D01*
X22722300Y-54219900D02*
X22722300Y-52913500D01*
X25916500Y-57414100D02*
X22722300Y-54219900D01*
X35250000Y-55330000D02*
X35250000Y-57080000D01*
X22722300Y-52913500D02*
X15460000Y-45651200D01*
%TO.N,LCD_CS_L*%
X20251700Y-23015000D02*
X21515200Y-23015000D01*
X19250000Y-23015000D02*
X20251700Y-23015000D01*
%TO.N,MIC_SD*%
X11847500Y-51902500D02*
X7941900Y-47996900D01*
X7941900Y-47996900D02*
X7941900Y-45250200D01*
X13190000Y-51950000D02*
X13190000Y-51902500D01*
X7840000Y-22460500D02*
X7840000Y-21250000D01*
X13190000Y-51902500D02*
X11847500Y-51902500D01*
X13190000Y-51902500D02*
X13190000Y-51330000D01*
X14240000Y-53000000D02*
X13190000Y-51950000D01*
%TO.N,MIC_SCK*%
X4001900Y-22459200D02*
X4030000Y-22431100D01*
X11713000Y-50903000D02*
X11713000Y-50010600D01*
X4030000Y-22431100D02*
X4030000Y-21250000D01*
X12140000Y-51330000D02*
X11713000Y-50903000D01*
%TO.N,MIC_WS*%
X2760000Y-22464900D02*
X2760000Y-21250000D01*
X12492900Y-50778300D02*
X12291400Y-50576800D01*
X14240000Y-51330000D02*
X14240000Y-50778300D01*
X14240000Y-50778300D02*
X12492900Y-50778300D01*
%TD*%
M02*
