%TF.GenerationSoftware,KiCad,Pcbnew,10.0.6*%
%TF.CreationDate,2026-09-14T07:10:18-07:00*%
%TF.ProjectId,plush-toy-mainboard,706c7573-682d-4746-9f79-2d6d61696e62,rev?*%
%TF.SameCoordinates,Original*%
%TF.FileFunction,Drillmap*%
%TF.FilePolarity,Positive*%
%FSLAX45Y45*%
G04 Gerber Fmt 4.5, Leading zero omitted, Abs format (unit mm)*
G04 Created by KiCad (PCBNEW 10.0.6) date 2026-09-14 07:10:18*
%MOMM*%
%LPD*%
G01*
G04 APERTURE LIST*
%ADD10C,0.100000*%
%ADD11C,0.200000*%
%ADD12C,0.160000*%
%ADD13C,0.170000*%
G04 APERTURE END LIST*
D10*
X0Y0D02*
X9000000Y0D01*
X0Y-6000000D02*
X0Y0D01*
X9000000Y0D02*
X9000000Y-6000000D01*
X9000000Y-6000000D02*
X0Y-6000000D01*
D11*
D10*
X3565000Y-5808000D02*
X3585000Y-5828000D01*
X3585000Y-5808000D02*
X3565000Y-5828000D01*
X3665000Y-5808000D02*
X3685000Y-5828000D01*
X3685000Y-5808000D02*
X3665000Y-5828000D01*
X3815000Y-5698000D02*
X3835000Y-5718000D01*
X3835000Y-5698000D02*
X3815000Y-5718000D01*
X3865000Y-5808000D02*
X3885000Y-5828000D01*
X3885000Y-5808000D02*
X3865000Y-5828000D01*
X3915000Y-5698000D02*
X3935000Y-5718000D01*
X3935000Y-5698000D02*
X3915000Y-5718000D01*
X3965000Y-5808000D02*
X3985000Y-5828000D01*
X3985000Y-5808000D02*
X3965000Y-5828000D01*
X4015000Y-5698000D02*
X4035000Y-5718000D01*
X4035000Y-5698000D02*
X4015000Y-5718000D01*
X4115000Y-5698000D02*
X4135000Y-5718000D01*
X4135000Y-5698000D02*
X4115000Y-5718000D01*
X4215000Y-5698000D02*
X4235000Y-5718000D01*
X4235000Y-5698000D02*
X4215000Y-5718000D01*
X4265000Y-5808000D02*
X4285000Y-5828000D01*
X4285000Y-5808000D02*
X4265000Y-5828000D01*
X4365000Y-5808000D02*
X4385000Y-5828000D01*
X4385000Y-5808000D02*
X4365000Y-5828000D01*
X4515000Y-5698000D02*
X4535000Y-5718000D01*
X4535000Y-5698000D02*
X4515000Y-5718000D01*
X791000Y-3080000D02*
G75*
G02*
X771000Y-3080000I-10000J0D01*
G01*
X771000Y-3080000D02*
G75*
G02*
X791000Y-3080000I10000J0D01*
G01*
X791000Y-3220000D02*
G75*
G02*
X771000Y-3220000I-10000J0D01*
G01*
X771000Y-3220000D02*
G75*
G02*
X791000Y-3220000I10000J0D01*
G01*
X861000Y-3010000D02*
G75*
G02*
X841000Y-3010000I-10000J0D01*
G01*
X841000Y-3010000D02*
G75*
G02*
X861000Y-3010000I10000J0D01*
G01*
X861000Y-3150000D02*
G75*
G02*
X841000Y-3150000I-10000J0D01*
G01*
X841000Y-3150000D02*
G75*
G02*
X861000Y-3150000I10000J0D01*
G01*
X861000Y-3290000D02*
G75*
G02*
X841000Y-3290000I-10000J0D01*
G01*
X841000Y-3290000D02*
G75*
G02*
X861000Y-3290000I10000J0D01*
G01*
X931000Y-3080000D02*
G75*
G02*
X911000Y-3080000I-10000J0D01*
G01*
X911000Y-3080000D02*
G75*
G02*
X931000Y-3080000I10000J0D01*
G01*
X931000Y-3220000D02*
G75*
G02*
X911000Y-3220000I-10000J0D01*
G01*
X911000Y-3220000D02*
G75*
G02*
X931000Y-3220000I10000J0D01*
G01*
X1001000Y-3010000D02*
G75*
G02*
X981000Y-3010000I-10000J0D01*
G01*
X981000Y-3010000D02*
G75*
G02*
X1001000Y-3010000I10000J0D01*
G01*
X1001000Y-3150000D02*
G75*
G02*
X981000Y-3150000I-10000J0D01*
G01*
X981000Y-3150000D02*
G75*
G02*
X1001000Y-3150000I10000J0D01*
G01*
X1001000Y-3290000D02*
G75*
G02*
X981000Y-3290000I-10000J0D01*
G01*
X981000Y-3290000D02*
G75*
G02*
X1001000Y-3290000I10000J0D01*
G01*
X1071000Y-3080000D02*
G75*
G02*
X1051000Y-3080000I-10000J0D01*
G01*
X1051000Y-3080000D02*
G75*
G02*
X1071000Y-3080000I10000J0D01*
G01*
X1071000Y-3220000D02*
G75*
G02*
X1051000Y-3220000I-10000J0D01*
G01*
X1051000Y-3220000D02*
G75*
G02*
X1071000Y-3220000I10000J0D01*
G01*
X149000Y-2110000D02*
X149000Y-2140000D01*
X134000Y-2125000D02*
X164000Y-2125000D01*
X149000Y-3860000D02*
X149000Y-3890000D01*
X134000Y-3875000D02*
X164000Y-3875000D01*
X276000Y-2231490D02*
X276000Y-2261490D01*
X261000Y-2246490D02*
X291000Y-2246490D01*
X276000Y-3860000D02*
X276000Y-3890000D01*
X261000Y-3875000D02*
X291000Y-3875000D01*
X400190Y-2230920D02*
X400190Y-2260920D01*
X385190Y-2245920D02*
X415190Y-2245920D01*
X782080Y-2337880D02*
X782080Y-2367880D01*
X767080Y-2352880D02*
X797080Y-2352880D01*
X784000Y-2231050D02*
X784000Y-2261050D01*
X769000Y-2246050D02*
X799000Y-2246050D01*
X794190Y-4510020D02*
X794190Y-4540020D01*
X779190Y-4525020D02*
X809190Y-4525020D01*
X805850Y-3737980D02*
X805850Y-3767980D01*
X790850Y-3752980D02*
X820850Y-3752980D01*
X808720Y-826290D02*
X808720Y-856290D01*
X793720Y-841290D02*
X823720Y-841290D01*
X808720Y-1526290D02*
X808720Y-1556290D01*
X793720Y-1541290D02*
X823720Y-1541290D01*
X1058440Y-3739390D02*
X1058440Y-3769390D01*
X1043440Y-3754390D02*
X1073440Y-3754390D01*
X1149970Y-4806210D02*
X1149970Y-4836210D01*
X1134970Y-4821210D02*
X1164970Y-4821210D01*
X1171300Y-4986060D02*
X1171300Y-5016060D01*
X1156300Y-5001060D02*
X1186300Y-5001060D01*
X1177000Y-935000D02*
X1177000Y-965000D01*
X1162000Y-950000D02*
X1192000Y-950000D01*
X1177000Y-1635000D02*
X1177000Y-1665000D01*
X1162000Y-1650000D02*
X1192000Y-1650000D01*
X1226190Y-3737990D02*
X1226190Y-3767990D01*
X1211190Y-3752990D02*
X1241190Y-3752990D01*
X1229000Y-4685000D02*
X1229000Y-4715000D01*
X1214000Y-4700000D02*
X1244000Y-4700000D01*
X1229140Y-5042680D02*
X1229140Y-5072680D01*
X1214140Y-5057680D02*
X1244140Y-5057680D01*
X1246000Y-235000D02*
X1246000Y-265000D01*
X1231000Y-250000D02*
X1261000Y-250000D01*
X1276850Y-4782800D02*
X1276850Y-4812800D01*
X1261850Y-4797800D02*
X1291850Y-4797800D01*
X1314350Y-3737480D02*
X1314350Y-3767480D01*
X1299350Y-3752480D02*
X1329350Y-3752480D01*
X1437860Y-4775170D02*
X1437860Y-4805170D01*
X1422860Y-4790170D02*
X1452860Y-4790170D01*
X1439100Y-3739730D02*
X1439100Y-3769730D01*
X1424100Y-3754730D02*
X1454100Y-3754730D01*
X1471000Y-4685000D02*
X1471000Y-4715000D01*
X1456000Y-4700000D02*
X1486000Y-4700000D01*
X1554940Y-1827790D02*
X1554940Y-1857790D01*
X1539940Y-1842790D02*
X1569940Y-1842790D01*
X1585020Y-4794240D02*
X1585020Y-4824240D01*
X1570020Y-4809240D02*
X1600020Y-4809240D01*
X1585020Y-5175760D02*
X1585020Y-5205760D01*
X1570020Y-5190760D02*
X1600020Y-5190760D01*
X1591280Y-826290D02*
X1591280Y-856290D01*
X1576280Y-841290D02*
X1606280Y-841290D01*
X1591280Y-1526290D02*
X1591280Y-1556290D01*
X1576280Y-1541290D02*
X1606280Y-1541290D01*
X1598000Y-5285000D02*
X1598000Y-5315000D01*
X1583000Y-5300000D02*
X1613000Y-5300000D01*
X1628770Y-1687930D02*
X1628770Y-1717930D01*
X1613770Y-1702930D02*
X1643770Y-1702930D01*
X1660730Y-4015250D02*
X1660730Y-4045250D01*
X1645730Y-4030250D02*
X1675730Y-4030250D01*
X1673000Y-3704030D02*
X1673000Y-3734030D01*
X1658000Y-3719030D02*
X1688000Y-3719030D01*
X1725150Y-2452330D02*
X1725150Y-2482330D01*
X1710150Y-2467330D02*
X1740150Y-2467330D01*
X1729000Y-1785000D02*
X1729000Y-1815000D01*
X1714000Y-1800000D02*
X1744000Y-1800000D01*
X1746870Y-3736650D02*
X1746870Y-3766650D01*
X1731870Y-3751650D02*
X1761870Y-3751650D01*
X1789440Y-3429500D02*
X1789440Y-3459500D01*
X1774440Y-3444500D02*
X1804440Y-3444500D01*
X1795570Y-3353510D02*
X1795570Y-3383510D01*
X1780570Y-3368510D02*
X1810570Y-3368510D01*
X1803830Y-2413500D02*
X1803830Y-2443500D01*
X1788830Y-2428500D02*
X1818830Y-2428500D01*
X1860000Y-532230D02*
X1860000Y-562230D01*
X1845000Y-547230D02*
X1875000Y-547230D01*
X1860000Y-755200D02*
X1860000Y-785200D01*
X1845000Y-770200D02*
X1875000Y-770200D01*
X1936320Y-1974660D02*
X1936320Y-2004660D01*
X1921320Y-1989660D02*
X1951320Y-1989660D01*
X1971000Y-1785000D02*
X1971000Y-1815000D01*
X1956000Y-1800000D02*
X1986000Y-1800000D01*
X1971230Y-1482070D02*
X1971230Y-1512070D01*
X1956230Y-1497070D02*
X1986230Y-1497070D01*
X1973450Y-1639650D02*
X1973450Y-1669650D01*
X1958450Y-1654650D02*
X1988450Y-1654650D01*
X1992870Y-2032610D02*
X1992870Y-2062610D01*
X1977870Y-2047610D02*
X2007870Y-2047610D01*
X2045770Y-3556500D02*
X2045770Y-3586500D01*
X2030770Y-3571500D02*
X2060770Y-3571500D01*
X2045820Y-2667500D02*
X2045820Y-2697500D01*
X2030820Y-2682500D02*
X2060820Y-2682500D01*
X2072350Y-3761980D02*
X2072350Y-3791980D01*
X2057350Y-3776980D02*
X2087350Y-3776980D01*
X2075640Y-3175610D02*
X2075640Y-3205610D01*
X2060640Y-3190610D02*
X2090640Y-3190610D01*
X2075970Y-3302500D02*
X2075970Y-3332500D01*
X2060970Y-3317500D02*
X2090970Y-3317500D01*
X2081700Y-3054060D02*
X2081700Y-3084060D01*
X2066700Y-3069060D02*
X2096700Y-3069060D01*
X2132500Y-2185000D02*
X2132500Y-2215000D01*
X2117500Y-2200000D02*
X2147500Y-2200000D01*
X2151520Y-2286500D02*
X2151520Y-2316500D01*
X2136520Y-2301500D02*
X2166520Y-2301500D01*
X2172950Y-3113440D02*
X2172950Y-3143440D01*
X2157950Y-3128440D02*
X2187950Y-3128440D01*
X2179000Y-2485000D02*
X2179000Y-2515000D01*
X2164000Y-2500000D02*
X2194000Y-2500000D01*
X2219970Y-4993920D02*
X2219970Y-5023920D01*
X2204970Y-5008920D02*
X2234970Y-5008920D01*
X2248000Y-285000D02*
X2248000Y-315000D01*
X2233000Y-300000D02*
X2263000Y-300000D01*
X2329000Y-4935000D02*
X2329000Y-4965000D01*
X2314000Y-4950000D02*
X2344000Y-4950000D01*
X2374440Y-2957340D02*
X2374440Y-2987340D01*
X2359440Y-2972340D02*
X2389440Y-2972340D01*
X2375000Y-5285000D02*
X2375000Y-5315000D01*
X2360000Y-5300000D02*
X2390000Y-5300000D01*
X2380000Y-3805000D02*
X2380000Y-3835000D01*
X2365000Y-3820000D02*
X2395000Y-3820000D01*
X2380000Y-3985000D02*
X2380000Y-4015000D01*
X2365000Y-4000000D02*
X2395000Y-4000000D01*
X2397920Y-5116230D02*
X2397920Y-5146230D01*
X2382920Y-5131230D02*
X2412920Y-5131230D01*
X2397920Y-5453770D02*
X2397920Y-5483770D01*
X2382920Y-5468770D02*
X2412920Y-5468770D01*
X2421000Y-2485000D02*
X2421000Y-2515000D01*
X2406000Y-2500000D02*
X2436000Y-2500000D01*
X2423000Y-3185000D02*
X2423000Y-3215000D01*
X2408000Y-3200000D02*
X2438000Y-3200000D01*
X2423000Y-3385000D02*
X2423000Y-3415000D01*
X2408000Y-3400000D02*
X2438000Y-3400000D01*
X2467500Y-2185000D02*
X2467500Y-2215000D01*
X2452500Y-2200000D02*
X2482500Y-2200000D01*
X2474690Y-344850D02*
X2474690Y-374850D01*
X2459690Y-359850D02*
X2489690Y-359850D01*
X2529000Y-5535000D02*
X2529000Y-5565000D01*
X2514000Y-5550000D02*
X2544000Y-5550000D01*
X2571000Y-4685000D02*
X2571000Y-4715000D01*
X2556000Y-4700000D02*
X2586000Y-4700000D01*
X2571000Y-4935000D02*
X2571000Y-4965000D01*
X2556000Y-4950000D02*
X2586000Y-4950000D01*
X2593720Y-1353360D02*
X2593720Y-1383360D01*
X2578720Y-1368360D02*
X2608720Y-1368360D01*
X2644580Y-739380D02*
X2644580Y-769380D01*
X2629580Y-754380D02*
X2659580Y-754380D01*
X2650000Y-4625000D02*
X2650000Y-4655000D01*
X2635000Y-4640000D02*
X2665000Y-4640000D01*
X2662760Y-2794500D02*
X2662760Y-2824500D01*
X2647760Y-2809500D02*
X2677760Y-2809500D01*
X2684310Y-5056170D02*
X2684310Y-5086170D01*
X2669310Y-5071170D02*
X2699310Y-5071170D01*
X2771000Y-5535000D02*
X2771000Y-5565000D01*
X2756000Y-5550000D02*
X2786000Y-5550000D01*
X2821790Y-4728120D02*
X2821790Y-4758120D01*
X2806790Y-4743120D02*
X2836790Y-4743120D01*
X2853980Y-3720970D02*
X2853980Y-3750970D01*
X2838980Y-3735970D02*
X2868980Y-3735970D01*
X2870730Y-3967540D02*
X2870730Y-3997540D01*
X2855730Y-3982540D02*
X2885730Y-3982540D01*
X2875010Y-4368230D02*
X2875010Y-4398230D01*
X2860010Y-4383230D02*
X2890010Y-4383230D01*
X2875010Y-4801770D02*
X2875010Y-4831770D01*
X2860010Y-4816770D02*
X2890010Y-4816770D01*
X2900000Y-5164000D02*
X2900000Y-5194000D01*
X2885000Y-5179000D02*
X2915000Y-5179000D01*
X2903300Y-3785000D02*
X2903300Y-3815000D01*
X2888300Y-3800000D02*
X2918300Y-3800000D01*
X2930240Y-4865210D02*
X2930240Y-4895210D01*
X2915240Y-4880210D02*
X2945240Y-4880210D01*
X3008500Y-4625000D02*
X3008500Y-4655000D01*
X2993500Y-4640000D02*
X3023500Y-4640000D01*
X3040000Y-4540110D02*
X3040000Y-4570110D01*
X3025000Y-4555110D02*
X3055000Y-4555110D01*
X3068140Y-5665600D02*
X3068140Y-5695600D01*
X3053140Y-5680600D02*
X3083140Y-5680600D01*
X3100000Y-3725000D02*
X3100000Y-3755000D01*
X3085000Y-3740000D02*
X3115000Y-3740000D01*
X3100000Y-4335000D02*
X3100000Y-4365000D01*
X3085000Y-4350000D02*
X3115000Y-4350000D01*
X3117480Y-3602480D02*
X3117480Y-3632480D01*
X3102480Y-3617480D02*
X3132480Y-3617480D01*
X3137110Y-4740250D02*
X3137110Y-4770250D01*
X3122110Y-4755250D02*
X3152110Y-4755250D01*
X3167600Y-4052280D02*
X3167600Y-4082280D01*
X3152600Y-4067280D02*
X3182600Y-4067280D01*
X3172090Y-4895850D02*
X3172090Y-4925850D01*
X3157090Y-4910850D02*
X3187090Y-4910850D01*
X3192420Y-4791350D02*
X3192420Y-4821350D01*
X3177420Y-4806350D02*
X3207420Y-4806350D01*
X3200460Y-3563240D02*
X3200460Y-3593240D01*
X3185460Y-3578240D02*
X3215460Y-3578240D01*
X3218600Y-5503500D02*
X3218600Y-5533500D01*
X3203600Y-5518500D02*
X3233600Y-5518500D01*
X3255000Y-5252000D02*
X3255000Y-5282000D01*
X3240000Y-5267000D02*
X3270000Y-5267000D01*
X3260720Y-4720900D02*
X3260720Y-4750900D01*
X3245720Y-4735900D02*
X3275720Y-4735900D01*
X3274290Y-5377270D02*
X3274290Y-5407270D01*
X3259290Y-5392270D02*
X3289290Y-5392270D01*
X3306890Y-4841500D02*
X3306890Y-4871500D01*
X3291890Y-4856500D02*
X3321890Y-4856500D01*
X3338770Y-3839050D02*
X3338770Y-3869050D01*
X3323770Y-3854050D02*
X3353770Y-3854050D01*
X3404730Y-5665600D02*
X3404730Y-5695600D01*
X3389730Y-5680600D02*
X3419730Y-5680600D01*
X3425000Y-137000D02*
X3425000Y-167000D01*
X3410000Y-152000D02*
X3440000Y-152000D01*
X3425000Y-1235000D02*
X3425000Y-1265000D01*
X3410000Y-1250000D02*
X3440000Y-1250000D01*
X3449880Y-4832340D02*
X3449880Y-4862340D01*
X3434880Y-4847340D02*
X3464880Y-4847340D01*
X3475000Y-885000D02*
X3475000Y-915000D01*
X3460000Y-900000D02*
X3490000Y-900000D01*
X3480000Y-560000D02*
X3480000Y-590000D01*
X3465000Y-575000D02*
X3495000Y-575000D01*
X3502000Y-385000D02*
X3502000Y-415000D01*
X3487000Y-400000D02*
X3517000Y-400000D01*
X3528540Y-1055550D02*
X3528540Y-1085550D01*
X3513540Y-1070550D02*
X3543540Y-1070550D01*
X3528540Y-1435000D02*
X3528540Y-1465000D01*
X3513540Y-1450000D02*
X3543540Y-1450000D01*
X3560390Y-4993920D02*
X3560390Y-5023920D01*
X3545390Y-5008920D02*
X3575390Y-5008920D01*
X3562320Y-4826320D02*
X3562320Y-4856320D01*
X3547320Y-4841320D02*
X3577320Y-4841320D01*
X3573000Y-4385000D02*
X3573000Y-4415000D01*
X3558000Y-4400000D02*
X3588000Y-4400000D01*
X3597480Y-2173580D02*
X3597480Y-2203580D01*
X3582480Y-2188580D02*
X3612480Y-2188580D01*
X3670000Y-560000D02*
X3670000Y-590000D01*
X3655000Y-575000D02*
X3685000Y-575000D01*
X3775000Y-1135000D02*
X3775000Y-1165000D01*
X3760000Y-1150000D02*
X3790000Y-1150000D01*
X3871580Y-5407620D02*
X3871580Y-5437620D01*
X3856580Y-5422620D02*
X3886580Y-5422620D01*
X3894670Y-2984900D02*
X3894670Y-3014900D01*
X3879670Y-2999900D02*
X3909670Y-2999900D01*
X3900000Y-390000D02*
X3900000Y-420000D01*
X3885000Y-405000D02*
X3915000Y-405000D01*
X3900000Y-580000D02*
X3900000Y-610000D01*
X3885000Y-595000D02*
X3915000Y-595000D01*
X4006930Y-1353360D02*
X4006930Y-1383360D01*
X3991930Y-1368360D02*
X4021930Y-1368360D01*
X4009320Y-4826320D02*
X4009320Y-4856320D01*
X3994320Y-4841320D02*
X4024320Y-4841320D01*
X4050000Y-790000D02*
X4050000Y-820000D01*
X4035000Y-805000D02*
X4065000Y-805000D01*
X4075000Y-437000D02*
X4075000Y-467000D01*
X4060000Y-452000D02*
X4090000Y-452000D01*
X4230000Y-2825000D02*
X4230000Y-2855000D01*
X4215000Y-2840000D02*
X4245000Y-2840000D01*
X4234320Y-4826320D02*
X4234320Y-4856320D01*
X4219320Y-4841320D02*
X4249320Y-4841320D01*
X4249550Y-426110D02*
X4249550Y-456110D01*
X4234550Y-441110D02*
X4264550Y-441110D01*
X4250000Y-1006000D02*
X4250000Y-1036000D01*
X4235000Y-1021000D02*
X4265000Y-1021000D01*
X4302000Y-4665000D02*
X4302000Y-4695000D01*
X4287000Y-4680000D02*
X4317000Y-4680000D01*
X4326440Y-428780D02*
X4326440Y-458780D01*
X4311440Y-443780D02*
X4341440Y-443780D01*
X4330180Y-2812040D02*
X4330180Y-2842040D01*
X4315180Y-2827040D02*
X4345180Y-2827040D01*
X4380000Y-3335000D02*
X4380000Y-3365000D01*
X4365000Y-3350000D02*
X4395000Y-3350000D01*
X4404000Y-485000D02*
X4404000Y-515000D01*
X4389000Y-500000D02*
X4419000Y-500000D01*
X4471000Y-4765000D02*
X4471000Y-4795000D01*
X4456000Y-4780000D02*
X4486000Y-4780000D01*
X4500000Y-3335000D02*
X4500000Y-3365000D01*
X4485000Y-3350000D02*
X4515000Y-3350000D01*
X4530000Y-2695000D02*
X4530000Y-2725000D01*
X4515000Y-2710000D02*
X4545000Y-2710000D01*
X4622550Y-1325180D02*
X4622550Y-1355180D01*
X4607550Y-1340180D02*
X4637550Y-1340180D01*
X4625000Y-3606000D02*
X4625000Y-3636000D01*
X4610000Y-3621000D02*
X4640000Y-3621000D01*
X4634320Y-546320D02*
X4634320Y-576320D01*
X4619320Y-561320D02*
X4649320Y-561320D01*
X4745000Y-5252000D02*
X4745000Y-5282000D01*
X4730000Y-5267000D02*
X4760000Y-5267000D01*
X4802660Y-4910000D02*
X4802660Y-4940000D01*
X4787660Y-4925000D02*
X4817660Y-4925000D01*
X4829000Y-3385000D02*
X4829000Y-3415000D01*
X4814000Y-3400000D02*
X4844000Y-3400000D01*
X4869820Y-2812040D02*
X4869820Y-2842040D01*
X4854820Y-2827040D02*
X4884820Y-2827040D01*
X4869820Y-3157960D02*
X4869820Y-3187960D01*
X4854820Y-3172960D02*
X4884820Y-3172960D01*
X4950000Y-2864000D02*
X4950000Y-2894000D01*
X4935000Y-2879000D02*
X4965000Y-2879000D01*
X4950000Y-3106000D02*
X4950000Y-3136000D01*
X4935000Y-3121000D02*
X4965000Y-3121000D01*
X4975000Y-5585000D02*
X4975000Y-5615000D01*
X4960000Y-5600000D02*
X4990000Y-5600000D01*
X4997920Y-5416230D02*
X4997920Y-5446230D01*
X4982920Y-5431230D02*
X5012920Y-5431230D01*
X4997920Y-5753770D02*
X4997920Y-5783770D01*
X4982920Y-5768770D02*
X5012920Y-5768770D01*
X5071000Y-2635000D02*
X5071000Y-2665000D01*
X5056000Y-2650000D02*
X5086000Y-2650000D01*
X5071000Y-3385000D02*
X5071000Y-3415000D01*
X5056000Y-3400000D02*
X5086000Y-3400000D01*
X5090000Y-5475000D02*
X5090000Y-5505000D01*
X5075000Y-5490000D02*
X5105000Y-5490000D01*
X5129000Y-5835000D02*
X5129000Y-5865000D01*
X5114000Y-5850000D02*
X5144000Y-5850000D01*
X5169770Y-5025040D02*
X5169770Y-5055040D01*
X5154770Y-5040040D02*
X5184770Y-5040040D01*
X5264530Y-4814280D02*
X5264530Y-4844280D01*
X5249530Y-4829280D02*
X5279530Y-4829280D01*
X5359960Y-4754770D02*
X5359960Y-4784770D01*
X5344960Y-4769770D02*
X5374960Y-4769770D01*
X5371000Y-5835000D02*
X5371000Y-5865000D01*
X5356000Y-5850000D02*
X5386000Y-5850000D01*
X5471000Y-4685000D02*
X5471000Y-4715000D01*
X5456000Y-4700000D02*
X5486000Y-4700000D01*
X5472180Y-4605210D02*
X5472180Y-4635210D01*
X5457180Y-4620210D02*
X5487180Y-4620210D01*
X5500000Y-5464000D02*
X5500000Y-5494000D01*
X5485000Y-5479000D02*
X5515000Y-5479000D01*
X5519230Y-4769950D02*
X5519230Y-4799950D01*
X5504230Y-4784950D02*
X5534230Y-4784950D01*
X5630230Y-4944960D02*
X5630230Y-4974960D01*
X5615230Y-4959960D02*
X5645230Y-4959960D01*
X5648000Y-2634000D02*
X5648000Y-2664000D01*
X5633000Y-2649000D02*
X5663000Y-2649000D01*
X5700000Y-2314000D02*
X5700000Y-2344000D01*
X5685000Y-2329000D02*
X5715000Y-2329000D01*
X5700000Y-2465000D02*
X5700000Y-2495000D01*
X5685000Y-2480000D02*
X5715000Y-2480000D01*
X5700000Y-2556000D02*
X5700000Y-2586000D01*
X5685000Y-2571000D02*
X5715000Y-2571000D01*
X5810250Y-2323750D02*
X5810250Y-2353750D01*
X5795250Y-2338750D02*
X5825250Y-2338750D01*
X5836200Y-2173260D02*
X5836200Y-2203260D01*
X5821200Y-2188260D02*
X5851200Y-2188260D01*
X5856020Y-2037290D02*
X5856020Y-2067290D01*
X5841020Y-2052290D02*
X5871020Y-2052290D01*
X5856020Y-3052710D02*
X5856020Y-3082710D01*
X5841020Y-3067710D02*
X5871020Y-3067710D01*
X5905430Y-2244720D02*
X5905430Y-2274720D01*
X5890430Y-2259720D02*
X5920430Y-2259720D01*
X5921780Y-2114950D02*
X5921780Y-2144950D01*
X5906780Y-2129950D02*
X5936780Y-2129950D01*
X6017500Y-4885000D02*
X6017500Y-4915000D01*
X6002500Y-4900000D02*
X6032500Y-4900000D01*
X6319960Y-2512500D02*
X6319960Y-2542500D01*
X6304960Y-2527500D02*
X6334960Y-2527500D01*
X6364650Y-2447500D02*
X6364650Y-2477500D01*
X6349650Y-2462500D02*
X6379650Y-2462500D01*
X6366490Y-2303800D02*
X6366490Y-2333800D01*
X6351490Y-2318800D02*
X6381490Y-2318800D01*
X6390000Y-2115000D02*
X6390000Y-2145000D01*
X6375000Y-2130000D02*
X6405000Y-2130000D01*
X6589750Y-2323750D02*
X6589750Y-2353750D01*
X6574750Y-2338750D02*
X6604750Y-2338750D01*
X6600000Y-3062000D02*
X6600000Y-3092000D01*
X6585000Y-3077000D02*
X6615000Y-3077000D01*
X6653810Y-2631650D02*
X6653810Y-2661650D01*
X6638810Y-2646650D02*
X6668810Y-2646650D01*
X6667500Y-4785000D02*
X6667500Y-4815000D01*
X6652500Y-4800000D02*
X6682500Y-4800000D01*
X6678860Y-4635630D02*
X6678860Y-4665630D01*
X6663860Y-4650630D02*
X6693860Y-4650630D01*
X6708620Y-3868170D02*
X6708620Y-3898170D01*
X6693620Y-3883170D02*
X6723620Y-3883170D01*
X6725870Y-2299800D02*
X6725870Y-2329800D01*
X6710870Y-2314800D02*
X6740870Y-2314800D01*
X6800000Y-3185000D02*
X6800000Y-3215000D01*
X6785000Y-3200000D02*
X6815000Y-3200000D01*
X6934320Y-5096320D02*
X6934320Y-5126320D01*
X6919320Y-5111320D02*
X6949320Y-5111320D01*
X7000000Y-5035000D02*
X7000000Y-5065000D01*
X6985000Y-5050000D02*
X7015000Y-5050000D01*
X7007080Y-4662560D02*
X7007080Y-4692560D01*
X6992080Y-4677560D02*
X7022080Y-4677560D01*
X7046000Y-4535000D02*
X7046000Y-4565000D01*
X7031000Y-4550000D02*
X7061000Y-4550000D01*
X6524562Y-3374562D02*
X6524562Y-3346278D01*
X6496278Y-3346278D01*
X6496278Y-3374562D01*
X6524562Y-3374562D01*
X7429142Y-1731812D02*
X7429142Y-1703528D01*
X7400858Y-1703528D01*
X7400858Y-1731812D01*
X7429142Y-1731812D01*
X7520392Y-4613682D02*
X7520392Y-4585398D01*
X7492108Y-4585398D01*
X7492108Y-4613682D01*
X7520392Y-4613682D01*
X8678222Y-2122162D02*
X8678222Y-2093878D01*
X8649938Y-2093878D01*
X8649938Y-2122162D01*
X8678222Y-2122162D01*
X2368000Y-395000D02*
X2398000Y-365000D01*
X2368000Y-335000D01*
X2338000Y-365000D01*
X2368000Y-395000D01*
X2398000Y-395000D02*
X2398000Y-335000D01*
X2338000Y-335000D02*
G75*
G02*
X2398000Y-335000I30000J0D01*
G01*
X2338000Y-335000D02*
X2338000Y-395000D01*
X2338000Y-395000D02*
G75*
G03*
X2398000Y-395000I30000J0D01*
G01*
X2368000Y-813000D02*
X2398000Y-783000D01*
X2368000Y-753000D01*
X2338000Y-783000D01*
X2368000Y-813000D01*
X2398000Y-838000D02*
X2398000Y-728000D01*
X2338000Y-728000D02*
G75*
G02*
X2398000Y-728000I30000J0D01*
G01*
X2338000Y-728000D02*
X2338000Y-838000D01*
X2338000Y-838000D02*
G75*
G03*
X2398000Y-838000I30000J0D01*
G01*
X3232000Y-395000D02*
X3262000Y-365000D01*
X3232000Y-335000D01*
X3202000Y-365000D01*
X3232000Y-395000D01*
X3262000Y-395000D02*
X3262000Y-335000D01*
X3202000Y-335000D02*
G75*
G02*
X3262000Y-335000I30000J0D01*
G01*
X3202000Y-335000D02*
X3202000Y-395000D01*
X3202000Y-395000D02*
G75*
G03*
X3262000Y-395000I30000J0D01*
G01*
X3232000Y-813000D02*
X3262000Y-783000D01*
X3232000Y-753000D01*
X3202000Y-783000D01*
X3232000Y-813000D01*
X3262000Y-838000D02*
X3262000Y-728000D01*
X3202000Y-728000D02*
G75*
G02*
X3262000Y-728000I30000J0D01*
G01*
X3202000Y-728000D02*
X3202000Y-838000D01*
X3202000Y-838000D02*
G75*
G03*
X3262000Y-838000I30000J0D01*
G01*
X6162500Y-5462500D02*
X6237500Y-5537500D01*
X6237500Y-5462500D02*
X6162500Y-5537500D01*
X6237500Y-5500000D02*
G75*
G02*
X6162500Y-5500000I-37500J0D01*
G01*
X6162500Y-5500000D02*
G75*
G02*
X6237500Y-5500000I37500J0D01*
G01*
X6362500Y-5462500D02*
X6437500Y-5537500D01*
X6437500Y-5462500D02*
X6362500Y-5537500D01*
X6437500Y-5500000D02*
G75*
G02*
X6362500Y-5500000I-37500J0D01*
G01*
X6362500Y-5500000D02*
G75*
G02*
X6437500Y-5500000I37500J0D01*
G01*
X7362500Y-5462500D02*
X7437500Y-5537500D01*
X7437500Y-5462500D02*
X7362500Y-5537500D01*
X7437500Y-5500000D02*
G75*
G02*
X7362500Y-5500000I-37500J0D01*
G01*
X7362500Y-5500000D02*
G75*
G02*
X7437500Y-5500000I37500J0D01*
G01*
X7562500Y-5462500D02*
X7637500Y-5537500D01*
X7637500Y-5462500D02*
X7562500Y-5537500D01*
X7637500Y-5500000D02*
G75*
G02*
X7562500Y-5500000I-37500J0D01*
G01*
X7562500Y-5500000D02*
G75*
G02*
X7637500Y-5500000I37500J0D01*
G01*
X4650000Y-200000D02*
X4750000Y-300000D01*
X4750000Y-200000D02*
X4650000Y-300000D01*
X4700000Y-200000D02*
X4700000Y-300000D01*
X4650000Y-250000D02*
X4750000Y-250000D01*
X4650000Y-700000D02*
X4750000Y-800000D01*
X4750000Y-700000D02*
X4650000Y-800000D01*
X4700000Y-700000D02*
X4700000Y-800000D01*
X4650000Y-750000D02*
X4750000Y-750000D01*
X4904000Y-200000D02*
X5004000Y-300000D01*
X5004000Y-200000D02*
X4904000Y-300000D01*
X4954000Y-200000D02*
X4954000Y-300000D01*
X4904000Y-250000D02*
X5004000Y-250000D01*
X4904000Y-700000D02*
X5004000Y-800000D01*
X5004000Y-700000D02*
X4904000Y-800000D01*
X4954000Y-700000D02*
X4954000Y-800000D01*
X4904000Y-750000D02*
X5004000Y-750000D01*
X5158000Y-200000D02*
X5258000Y-300000D01*
X5258000Y-200000D02*
X5158000Y-300000D01*
X5208000Y-200000D02*
X5208000Y-300000D01*
X5158000Y-250000D02*
X5258000Y-250000D01*
X5158000Y-700000D02*
X5258000Y-800000D01*
X5258000Y-700000D02*
X5158000Y-800000D01*
X5208000Y-700000D02*
X5208000Y-800000D01*
X5158000Y-750000D02*
X5258000Y-750000D01*
X5412000Y-200000D02*
X5512000Y-300000D01*
X5512000Y-200000D02*
X5412000Y-300000D01*
X5462000Y-200000D02*
X5462000Y-300000D01*
X5412000Y-250000D02*
X5512000Y-250000D01*
X5412000Y-700000D02*
X5512000Y-800000D01*
X5512000Y-700000D02*
X5412000Y-800000D01*
X5462000Y-700000D02*
X5462000Y-800000D01*
X5412000Y-750000D02*
X5512000Y-750000D01*
X5666000Y-200000D02*
X5766000Y-300000D01*
X5766000Y-200000D02*
X5666000Y-300000D01*
X5716000Y-200000D02*
X5716000Y-300000D01*
X5666000Y-250000D02*
X5766000Y-250000D01*
X5666000Y-700000D02*
X5766000Y-800000D01*
X5766000Y-700000D02*
X5666000Y-800000D01*
X5716000Y-700000D02*
X5716000Y-800000D01*
X5666000Y-750000D02*
X5766000Y-750000D01*
X5920000Y-200000D02*
X6020000Y-300000D01*
X6020000Y-200000D02*
X5920000Y-300000D01*
X5970000Y-200000D02*
X5970000Y-300000D01*
X5920000Y-250000D02*
X6020000Y-250000D01*
X5920000Y-700000D02*
X6020000Y-800000D01*
X6020000Y-700000D02*
X5920000Y-800000D01*
X5970000Y-700000D02*
X5970000Y-800000D01*
X5920000Y-750000D02*
X6020000Y-750000D01*
X6174000Y-200000D02*
X6274000Y-300000D01*
X6274000Y-200000D02*
X6174000Y-300000D01*
X6224000Y-200000D02*
X6224000Y-300000D01*
X6174000Y-250000D02*
X6274000Y-250000D01*
X6174000Y-700000D02*
X6274000Y-800000D01*
X6274000Y-700000D02*
X6174000Y-800000D01*
X6224000Y-700000D02*
X6224000Y-800000D01*
X6174000Y-750000D02*
X6274000Y-750000D01*
X8550000Y-2250000D02*
X8650000Y-2350000D01*
X8650000Y-2250000D02*
X8550000Y-2350000D01*
X8600000Y-2250000D02*
X8600000Y-2350000D01*
X8550000Y-2300000D02*
X8650000Y-2300000D01*
X8550000Y-2504000D02*
X8650000Y-2604000D01*
X8650000Y-2504000D02*
X8550000Y-2604000D01*
X8600000Y-2504000D02*
X8600000Y-2604000D01*
X8550000Y-2554000D02*
X8650000Y-2554000D01*
X8550000Y-2758000D02*
X8650000Y-2858000D01*
X8650000Y-2758000D02*
X8550000Y-2858000D01*
X8600000Y-2758000D02*
X8600000Y-2858000D01*
X8550000Y-2808000D02*
X8650000Y-2808000D01*
X8550000Y-3150000D02*
X8650000Y-3250000D01*
X8650000Y-3150000D02*
X8550000Y-3250000D01*
X8600000Y-3150000D02*
X8600000Y-3250000D01*
X8550000Y-3200000D02*
X8650000Y-3200000D01*
X8550000Y-3404000D02*
X8650000Y-3504000D01*
X8650000Y-3404000D02*
X8550000Y-3504000D01*
X8600000Y-3404000D02*
X8600000Y-3504000D01*
X8550000Y-3454000D02*
X8650000Y-3454000D01*
X8550000Y-3658000D02*
X8650000Y-3758000D01*
X8650000Y-3658000D02*
X8550000Y-3758000D01*
X8600000Y-3658000D02*
X8600000Y-3758000D01*
X8550000Y-3708000D02*
X8650000Y-3708000D01*
D12*
X8250000Y-1062000D02*
X8410000Y-1222000D01*
X8410000Y-1062000D02*
X8250000Y-1222000D01*
X8386569Y-1198569D02*
X8386569Y-1085431D01*
X8273431Y-1085431D01*
X8273431Y-1198569D01*
X8386569Y-1198569D01*
X8250000Y-1570000D02*
X8410000Y-1730000D01*
X8410000Y-1570000D02*
X8250000Y-1730000D01*
X8386569Y-1706569D02*
X8386569Y-1593431D01*
X8273431Y-1593431D01*
X8273431Y-1706569D01*
X8386569Y-1706569D01*
D13*
X8365000Y-4215000D02*
X8535000Y-4385000D01*
X8535000Y-4215000D02*
X8365000Y-4385000D01*
X8450000Y-4385000D02*
X8535000Y-4300000D01*
X8450000Y-4215000D01*
X8365000Y-4300000D01*
X8450000Y-4385000D01*
X8365000Y-4611000D02*
X8535000Y-4781000D01*
X8535000Y-4611000D02*
X8365000Y-4781000D01*
X8450000Y-4781000D02*
X8535000Y-4696000D01*
X8450000Y-4611000D01*
X8365000Y-4696000D01*
X8450000Y-4781000D01*
D11*
X255777Y-6316484D02*
X255777Y-6116484D01*
X255777Y-6116484D02*
X303396Y-6116484D01*
X303396Y-6116484D02*
X331967Y-6126008D01*
X331967Y-6126008D02*
X351015Y-6145055D01*
X351015Y-6145055D02*
X360539Y-6164103D01*
X360539Y-6164103D02*
X370062Y-6202198D01*
X370062Y-6202198D02*
X370062Y-6230769D01*
X370062Y-6230769D02*
X360539Y-6268865D01*
X360539Y-6268865D02*
X351015Y-6287912D01*
X351015Y-6287912D02*
X331967Y-6306960D01*
X331967Y-6306960D02*
X303396Y-6316484D01*
X303396Y-6316484D02*
X255777Y-6316484D01*
X455777Y-6316484D02*
X455777Y-6183150D01*
X455777Y-6221246D02*
X465301Y-6202198D01*
X465301Y-6202198D02*
X474824Y-6192674D01*
X474824Y-6192674D02*
X493872Y-6183150D01*
X493872Y-6183150D02*
X512920Y-6183150D01*
X579586Y-6316484D02*
X579586Y-6183150D01*
X579586Y-6116484D02*
X570063Y-6126008D01*
X570063Y-6126008D02*
X579586Y-6135531D01*
X579586Y-6135531D02*
X589110Y-6126008D01*
X589110Y-6126008D02*
X579586Y-6116484D01*
X579586Y-6116484D02*
X579586Y-6135531D01*
X703396Y-6316484D02*
X684348Y-6306960D01*
X684348Y-6306960D02*
X674824Y-6287912D01*
X674824Y-6287912D02*
X674824Y-6116484D01*
X808158Y-6316484D02*
X789110Y-6306960D01*
X789110Y-6306960D02*
X779586Y-6287912D01*
X779586Y-6287912D02*
X779586Y-6116484D01*
X1036729Y-6316484D02*
X1036729Y-6116484D01*
X1036729Y-6116484D02*
X1103396Y-6259341D01*
X1103396Y-6259341D02*
X1170063Y-6116484D01*
X1170063Y-6116484D02*
X1170063Y-6316484D01*
X1351015Y-6316484D02*
X1351015Y-6211722D01*
X1351015Y-6211722D02*
X1341491Y-6192674D01*
X1341491Y-6192674D02*
X1322444Y-6183150D01*
X1322444Y-6183150D02*
X1284348Y-6183150D01*
X1284348Y-6183150D02*
X1265301Y-6192674D01*
X1351015Y-6306960D02*
X1331967Y-6316484D01*
X1331967Y-6316484D02*
X1284348Y-6316484D01*
X1284348Y-6316484D02*
X1265301Y-6306960D01*
X1265301Y-6306960D02*
X1255777Y-6287912D01*
X1255777Y-6287912D02*
X1255777Y-6268865D01*
X1255777Y-6268865D02*
X1265301Y-6249817D01*
X1265301Y-6249817D02*
X1284348Y-6240293D01*
X1284348Y-6240293D02*
X1331967Y-6240293D01*
X1331967Y-6240293D02*
X1351015Y-6230769D01*
X1446253Y-6183150D02*
X1446253Y-6383150D01*
X1446253Y-6192674D02*
X1465301Y-6183150D01*
X1465301Y-6183150D02*
X1503396Y-6183150D01*
X1503396Y-6183150D02*
X1522443Y-6192674D01*
X1522443Y-6192674D02*
X1531967Y-6202198D01*
X1531967Y-6202198D02*
X1541491Y-6221246D01*
X1541491Y-6221246D02*
X1541491Y-6278388D01*
X1541491Y-6278388D02*
X1531967Y-6297436D01*
X1531967Y-6297436D02*
X1522443Y-6306960D01*
X1522443Y-6306960D02*
X1503396Y-6316484D01*
X1503396Y-6316484D02*
X1465301Y-6316484D01*
X1465301Y-6316484D02*
X1446253Y-6306960D01*
X1627205Y-6297436D02*
X1636729Y-6306960D01*
X1636729Y-6306960D02*
X1627205Y-6316484D01*
X1627205Y-6316484D02*
X1617682Y-6306960D01*
X1617682Y-6306960D02*
X1627205Y-6297436D01*
X1627205Y-6297436D02*
X1627205Y-6316484D01*
X1627205Y-6192674D02*
X1636729Y-6202198D01*
X1636729Y-6202198D02*
X1627205Y-6211722D01*
X1627205Y-6211722D02*
X1617682Y-6202198D01*
X1617682Y-6202198D02*
X1627205Y-6192674D01*
X1627205Y-6192674D02*
X1627205Y-6211722D01*
D10*
X-25000Y-6635000D02*
X-5000Y-6655000D01*
X-5000Y-6635000D02*
X-25000Y-6655000D01*
D11*
X293872Y-6536484D02*
X312920Y-6536484D01*
X312920Y-6536484D02*
X331967Y-6546008D01*
X331967Y-6546008D02*
X341491Y-6555531D01*
X341491Y-6555531D02*
X351015Y-6574579D01*
X351015Y-6574579D02*
X360539Y-6612674D01*
X360539Y-6612674D02*
X360539Y-6660293D01*
X360539Y-6660293D02*
X351015Y-6698388D01*
X351015Y-6698388D02*
X341491Y-6717436D01*
X341491Y-6717436D02*
X331967Y-6726960D01*
X331967Y-6726960D02*
X312920Y-6736484D01*
X312920Y-6736484D02*
X293872Y-6736484D01*
X293872Y-6736484D02*
X274824Y-6726960D01*
X274824Y-6726960D02*
X265301Y-6717436D01*
X265301Y-6717436D02*
X255777Y-6698388D01*
X255777Y-6698388D02*
X246253Y-6660293D01*
X246253Y-6660293D02*
X246253Y-6612674D01*
X246253Y-6612674D02*
X255777Y-6574579D01*
X255777Y-6574579D02*
X265301Y-6555531D01*
X265301Y-6555531D02*
X274824Y-6546008D01*
X274824Y-6546008D02*
X293872Y-6536484D01*
X446253Y-6717436D02*
X455777Y-6726960D01*
X455777Y-6726960D02*
X446253Y-6736484D01*
X446253Y-6736484D02*
X436729Y-6726960D01*
X436729Y-6726960D02*
X446253Y-6717436D01*
X446253Y-6717436D02*
X446253Y-6736484D01*
X531967Y-6555531D02*
X541491Y-6546008D01*
X541491Y-6546008D02*
X560539Y-6536484D01*
X560539Y-6536484D02*
X608158Y-6536484D01*
X608158Y-6536484D02*
X627205Y-6546008D01*
X627205Y-6546008D02*
X636729Y-6555531D01*
X636729Y-6555531D02*
X646253Y-6574579D01*
X646253Y-6574579D02*
X646253Y-6593627D01*
X646253Y-6593627D02*
X636729Y-6622198D01*
X636729Y-6622198D02*
X522443Y-6736484D01*
X522443Y-6736484D02*
X646253Y-6736484D01*
X770062Y-6536484D02*
X789110Y-6536484D01*
X789110Y-6536484D02*
X808158Y-6546008D01*
X808158Y-6546008D02*
X817682Y-6555531D01*
X817682Y-6555531D02*
X827205Y-6574579D01*
X827205Y-6574579D02*
X836729Y-6612674D01*
X836729Y-6612674D02*
X836729Y-6660293D01*
X836729Y-6660293D02*
X827205Y-6698388D01*
X827205Y-6698388D02*
X817682Y-6717436D01*
X817682Y-6717436D02*
X808158Y-6726960D01*
X808158Y-6726960D02*
X789110Y-6736484D01*
X789110Y-6736484D02*
X770062Y-6736484D01*
X770062Y-6736484D02*
X751015Y-6726960D01*
X751015Y-6726960D02*
X741491Y-6717436D01*
X741491Y-6717436D02*
X731967Y-6698388D01*
X731967Y-6698388D02*
X722443Y-6660293D01*
X722443Y-6660293D02*
X722443Y-6612674D01*
X722443Y-6612674D02*
X731967Y-6574579D01*
X731967Y-6574579D02*
X741491Y-6555531D01*
X741491Y-6555531D02*
X751015Y-6546008D01*
X751015Y-6546008D02*
X770062Y-6536484D01*
X960539Y-6536484D02*
X979586Y-6536484D01*
X979586Y-6536484D02*
X998634Y-6546008D01*
X998634Y-6546008D02*
X1008158Y-6555531D01*
X1008158Y-6555531D02*
X1017682Y-6574579D01*
X1017682Y-6574579D02*
X1027205Y-6612674D01*
X1027205Y-6612674D02*
X1027205Y-6660293D01*
X1027205Y-6660293D02*
X1017682Y-6698388D01*
X1017682Y-6698388D02*
X1008158Y-6717436D01*
X1008158Y-6717436D02*
X998634Y-6726960D01*
X998634Y-6726960D02*
X979586Y-6736484D01*
X979586Y-6736484D02*
X960539Y-6736484D01*
X960539Y-6736484D02*
X941491Y-6726960D01*
X941491Y-6726960D02*
X931967Y-6717436D01*
X931967Y-6717436D02*
X922443Y-6698388D01*
X922443Y-6698388D02*
X912920Y-6660293D01*
X912920Y-6660293D02*
X912920Y-6612674D01*
X912920Y-6612674D02*
X922443Y-6574579D01*
X922443Y-6574579D02*
X931967Y-6555531D01*
X931967Y-6555531D02*
X941491Y-6546008D01*
X941491Y-6546008D02*
X960539Y-6536484D01*
X1112920Y-6736484D02*
X1112920Y-6603150D01*
X1112920Y-6622198D02*
X1122444Y-6612674D01*
X1122444Y-6612674D02*
X1141491Y-6603150D01*
X1141491Y-6603150D02*
X1170063Y-6603150D01*
X1170063Y-6603150D02*
X1189110Y-6612674D01*
X1189110Y-6612674D02*
X1198634Y-6631722D01*
X1198634Y-6631722D02*
X1198634Y-6736484D01*
X1198634Y-6631722D02*
X1208158Y-6612674D01*
X1208158Y-6612674D02*
X1227205Y-6603150D01*
X1227205Y-6603150D02*
X1255777Y-6603150D01*
X1255777Y-6603150D02*
X1274825Y-6612674D01*
X1274825Y-6612674D02*
X1284348Y-6631722D01*
X1284348Y-6631722D02*
X1284348Y-6736484D01*
X1379586Y-6736484D02*
X1379586Y-6603150D01*
X1379586Y-6622198D02*
X1389110Y-6612674D01*
X1389110Y-6612674D02*
X1408158Y-6603150D01*
X1408158Y-6603150D02*
X1436729Y-6603150D01*
X1436729Y-6603150D02*
X1455777Y-6612674D01*
X1455777Y-6612674D02*
X1465301Y-6631722D01*
X1465301Y-6631722D02*
X1465301Y-6736484D01*
X1465301Y-6631722D02*
X1474824Y-6612674D01*
X1474824Y-6612674D02*
X1493872Y-6603150D01*
X1493872Y-6603150D02*
X1522443Y-6603150D01*
X1522443Y-6603150D02*
X1541491Y-6612674D01*
X1541491Y-6612674D02*
X1551015Y-6631722D01*
X1551015Y-6631722D02*
X1551015Y-6736484D01*
X1941491Y-6526960D02*
X1770063Y-6784103D01*
X2198634Y-6536484D02*
X2217682Y-6536484D01*
X2217682Y-6536484D02*
X2236729Y-6546008D01*
X2236729Y-6546008D02*
X2246253Y-6555531D01*
X2246253Y-6555531D02*
X2255777Y-6574579D01*
X2255777Y-6574579D02*
X2265301Y-6612674D01*
X2265301Y-6612674D02*
X2265301Y-6660293D01*
X2265301Y-6660293D02*
X2255777Y-6698388D01*
X2255777Y-6698388D02*
X2246253Y-6717436D01*
X2246253Y-6717436D02*
X2236729Y-6726960D01*
X2236729Y-6726960D02*
X2217682Y-6736484D01*
X2217682Y-6736484D02*
X2198634Y-6736484D01*
X2198634Y-6736484D02*
X2179587Y-6726960D01*
X2179587Y-6726960D02*
X2170063Y-6717436D01*
X2170063Y-6717436D02*
X2160539Y-6698388D01*
X2160539Y-6698388D02*
X2151015Y-6660293D01*
X2151015Y-6660293D02*
X2151015Y-6612674D01*
X2151015Y-6612674D02*
X2160539Y-6574579D01*
X2160539Y-6574579D02*
X2170063Y-6555531D01*
X2170063Y-6555531D02*
X2179587Y-6546008D01*
X2179587Y-6546008D02*
X2198634Y-6536484D01*
X2351015Y-6717436D02*
X2360539Y-6726960D01*
X2360539Y-6726960D02*
X2351015Y-6736484D01*
X2351015Y-6736484D02*
X2341491Y-6726960D01*
X2341491Y-6726960D02*
X2351015Y-6717436D01*
X2351015Y-6717436D02*
X2351015Y-6736484D01*
X2484348Y-6536484D02*
X2503396Y-6536484D01*
X2503396Y-6536484D02*
X2522444Y-6546008D01*
X2522444Y-6546008D02*
X2531968Y-6555531D01*
X2531968Y-6555531D02*
X2541491Y-6574579D01*
X2541491Y-6574579D02*
X2551015Y-6612674D01*
X2551015Y-6612674D02*
X2551015Y-6660293D01*
X2551015Y-6660293D02*
X2541491Y-6698388D01*
X2541491Y-6698388D02*
X2531968Y-6717436D01*
X2531968Y-6717436D02*
X2522444Y-6726960D01*
X2522444Y-6726960D02*
X2503396Y-6736484D01*
X2503396Y-6736484D02*
X2484348Y-6736484D01*
X2484348Y-6736484D02*
X2465301Y-6726960D01*
X2465301Y-6726960D02*
X2455777Y-6717436D01*
X2455777Y-6717436D02*
X2446253Y-6698388D01*
X2446253Y-6698388D02*
X2436729Y-6660293D01*
X2436729Y-6660293D02*
X2436729Y-6612674D01*
X2436729Y-6612674D02*
X2446253Y-6574579D01*
X2446253Y-6574579D02*
X2455777Y-6555531D01*
X2455777Y-6555531D02*
X2465301Y-6546008D01*
X2465301Y-6546008D02*
X2484348Y-6536484D01*
X2674825Y-6536484D02*
X2693872Y-6536484D01*
X2693872Y-6536484D02*
X2712920Y-6546008D01*
X2712920Y-6546008D02*
X2722444Y-6555531D01*
X2722444Y-6555531D02*
X2731968Y-6574579D01*
X2731968Y-6574579D02*
X2741491Y-6612674D01*
X2741491Y-6612674D02*
X2741491Y-6660293D01*
X2741491Y-6660293D02*
X2731968Y-6698388D01*
X2731968Y-6698388D02*
X2722444Y-6717436D01*
X2722444Y-6717436D02*
X2712920Y-6726960D01*
X2712920Y-6726960D02*
X2693872Y-6736484D01*
X2693872Y-6736484D02*
X2674825Y-6736484D01*
X2674825Y-6736484D02*
X2655777Y-6726960D01*
X2655777Y-6726960D02*
X2646253Y-6717436D01*
X2646253Y-6717436D02*
X2636729Y-6698388D01*
X2636729Y-6698388D02*
X2627206Y-6660293D01*
X2627206Y-6660293D02*
X2627206Y-6612674D01*
X2627206Y-6612674D02*
X2636729Y-6574579D01*
X2636729Y-6574579D02*
X2646253Y-6555531D01*
X2646253Y-6555531D02*
X2655777Y-6546008D01*
X2655777Y-6546008D02*
X2674825Y-6536484D01*
X2808158Y-6536484D02*
X2941491Y-6536484D01*
X2941491Y-6536484D02*
X2855777Y-6736484D01*
X3027206Y-6736484D02*
X3065301Y-6736484D01*
X3065301Y-6736484D02*
X3084348Y-6726960D01*
X3084348Y-6726960D02*
X3093872Y-6717436D01*
X3093872Y-6717436D02*
X3112920Y-6688865D01*
X3112920Y-6688865D02*
X3122444Y-6650769D01*
X3122444Y-6650769D02*
X3122444Y-6574579D01*
X3122444Y-6574579D02*
X3112920Y-6555531D01*
X3112920Y-6555531D02*
X3103396Y-6546008D01*
X3103396Y-6546008D02*
X3084348Y-6536484D01*
X3084348Y-6536484D02*
X3046253Y-6536484D01*
X3046253Y-6536484D02*
X3027206Y-6546008D01*
X3027206Y-6546008D02*
X3017682Y-6555531D01*
X3017682Y-6555531D02*
X3008158Y-6574579D01*
X3008158Y-6574579D02*
X3008158Y-6622198D01*
X3008158Y-6622198D02*
X3017682Y-6641246D01*
X3017682Y-6641246D02*
X3027206Y-6650769D01*
X3027206Y-6650769D02*
X3046253Y-6660293D01*
X3046253Y-6660293D02*
X3084348Y-6660293D01*
X3084348Y-6660293D02*
X3103396Y-6650769D01*
X3103396Y-6650769D02*
X3112920Y-6641246D01*
X3112920Y-6641246D02*
X3122444Y-6622198D01*
X3198634Y-6536484D02*
X3198634Y-6574579D01*
X3274825Y-6536484D02*
X3274825Y-6574579D01*
X3570063Y-6812674D02*
X3560539Y-6803150D01*
X3560539Y-6803150D02*
X3541491Y-6774579D01*
X3541491Y-6774579D02*
X3531968Y-6755531D01*
X3531968Y-6755531D02*
X3522444Y-6726960D01*
X3522444Y-6726960D02*
X3512920Y-6679341D01*
X3512920Y-6679341D02*
X3512920Y-6641246D01*
X3512920Y-6641246D02*
X3522444Y-6593627D01*
X3522444Y-6593627D02*
X3531968Y-6565055D01*
X3531968Y-6565055D02*
X3541491Y-6546008D01*
X3541491Y-6546008D02*
X3560539Y-6517436D01*
X3560539Y-6517436D02*
X3570063Y-6507912D01*
X3751015Y-6736484D02*
X3636729Y-6736484D01*
X3693872Y-6736484D02*
X3693872Y-6536484D01*
X3693872Y-6536484D02*
X3674825Y-6565055D01*
X3674825Y-6565055D02*
X3655777Y-6584103D01*
X3655777Y-6584103D02*
X3636729Y-6593627D01*
X3827206Y-6555531D02*
X3836729Y-6546008D01*
X3836729Y-6546008D02*
X3855777Y-6536484D01*
X3855777Y-6536484D02*
X3903396Y-6536484D01*
X3903396Y-6536484D02*
X3922444Y-6546008D01*
X3922444Y-6546008D02*
X3931968Y-6555531D01*
X3931968Y-6555531D02*
X3941491Y-6574579D01*
X3941491Y-6574579D02*
X3941491Y-6593627D01*
X3941491Y-6593627D02*
X3931968Y-6622198D01*
X3931968Y-6622198D02*
X3817682Y-6736484D01*
X3817682Y-6736484D02*
X3941491Y-6736484D01*
X4179587Y-6736484D02*
X4179587Y-6536484D01*
X4265301Y-6736484D02*
X4265301Y-6631722D01*
X4265301Y-6631722D02*
X4255777Y-6612674D01*
X4255777Y-6612674D02*
X4236730Y-6603150D01*
X4236730Y-6603150D02*
X4208158Y-6603150D01*
X4208158Y-6603150D02*
X4189110Y-6612674D01*
X4189110Y-6612674D02*
X4179587Y-6622198D01*
X4389111Y-6736484D02*
X4370063Y-6726960D01*
X4370063Y-6726960D02*
X4360539Y-6717436D01*
X4360539Y-6717436D02*
X4351015Y-6698388D01*
X4351015Y-6698388D02*
X4351015Y-6641246D01*
X4351015Y-6641246D02*
X4360539Y-6622198D01*
X4360539Y-6622198D02*
X4370063Y-6612674D01*
X4370063Y-6612674D02*
X4389111Y-6603150D01*
X4389111Y-6603150D02*
X4417682Y-6603150D01*
X4417682Y-6603150D02*
X4436730Y-6612674D01*
X4436730Y-6612674D02*
X4446253Y-6622198D01*
X4446253Y-6622198D02*
X4455777Y-6641246D01*
X4455777Y-6641246D02*
X4455777Y-6698388D01*
X4455777Y-6698388D02*
X4446253Y-6717436D01*
X4446253Y-6717436D02*
X4436730Y-6726960D01*
X4436730Y-6726960D02*
X4417682Y-6736484D01*
X4417682Y-6736484D02*
X4389111Y-6736484D01*
X4570063Y-6736484D02*
X4551015Y-6726960D01*
X4551015Y-6726960D02*
X4541492Y-6707912D01*
X4541492Y-6707912D02*
X4541492Y-6536484D01*
X4722444Y-6726960D02*
X4703396Y-6736484D01*
X4703396Y-6736484D02*
X4665301Y-6736484D01*
X4665301Y-6736484D02*
X4646253Y-6726960D01*
X4646253Y-6726960D02*
X4636730Y-6707912D01*
X4636730Y-6707912D02*
X4636730Y-6631722D01*
X4636730Y-6631722D02*
X4646253Y-6612674D01*
X4646253Y-6612674D02*
X4665301Y-6603150D01*
X4665301Y-6603150D02*
X4703396Y-6603150D01*
X4703396Y-6603150D02*
X4722444Y-6612674D01*
X4722444Y-6612674D02*
X4731968Y-6631722D01*
X4731968Y-6631722D02*
X4731968Y-6650769D01*
X4731968Y-6650769D02*
X4636730Y-6669817D01*
X4808158Y-6726960D02*
X4827206Y-6736484D01*
X4827206Y-6736484D02*
X4865301Y-6736484D01*
X4865301Y-6736484D02*
X4884349Y-6726960D01*
X4884349Y-6726960D02*
X4893873Y-6707912D01*
X4893873Y-6707912D02*
X4893873Y-6698388D01*
X4893873Y-6698388D02*
X4884349Y-6679341D01*
X4884349Y-6679341D02*
X4865301Y-6669817D01*
X4865301Y-6669817D02*
X4836730Y-6669817D01*
X4836730Y-6669817D02*
X4817682Y-6660293D01*
X4817682Y-6660293D02*
X4808158Y-6641246D01*
X4808158Y-6641246D02*
X4808158Y-6631722D01*
X4808158Y-6631722D02*
X4817682Y-6612674D01*
X4817682Y-6612674D02*
X4836730Y-6603150D01*
X4836730Y-6603150D02*
X4865301Y-6603150D01*
X4865301Y-6603150D02*
X4884349Y-6612674D01*
X4960539Y-6812674D02*
X4970063Y-6803150D01*
X4970063Y-6803150D02*
X4989111Y-6774579D01*
X4989111Y-6774579D02*
X4998634Y-6755531D01*
X4998634Y-6755531D02*
X5008158Y-6726960D01*
X5008158Y-6726960D02*
X5017682Y-6679341D01*
X5017682Y-6679341D02*
X5017682Y-6641246D01*
X5017682Y-6641246D02*
X5008158Y-6593627D01*
X5008158Y-6593627D02*
X4998634Y-6565055D01*
X4998634Y-6565055D02*
X4989111Y-6546008D01*
X4989111Y-6546008D02*
X4970063Y-6517436D01*
X4970063Y-6517436D02*
X4960539Y-6507912D01*
D10*
X-5000Y-6909000D02*
G75*
G02*
X-25000Y-6909000I-10000J0D01*
G01*
X-25000Y-6909000D02*
G75*
G02*
X-5000Y-6909000I10000J0D01*
G01*
D11*
X293872Y-6800484D02*
X312920Y-6800484D01*
X312920Y-6800484D02*
X331967Y-6810008D01*
X331967Y-6810008D02*
X341491Y-6819531D01*
X341491Y-6819531D02*
X351015Y-6838579D01*
X351015Y-6838579D02*
X360539Y-6876674D01*
X360539Y-6876674D02*
X360539Y-6924293D01*
X360539Y-6924293D02*
X351015Y-6962388D01*
X351015Y-6962388D02*
X341491Y-6981436D01*
X341491Y-6981436D02*
X331967Y-6990960D01*
X331967Y-6990960D02*
X312920Y-7000484D01*
X312920Y-7000484D02*
X293872Y-7000484D01*
X293872Y-7000484D02*
X274824Y-6990960D01*
X274824Y-6990960D02*
X265301Y-6981436D01*
X265301Y-6981436D02*
X255777Y-6962388D01*
X255777Y-6962388D02*
X246253Y-6924293D01*
X246253Y-6924293D02*
X246253Y-6876674D01*
X246253Y-6876674D02*
X255777Y-6838579D01*
X255777Y-6838579D02*
X265301Y-6819531D01*
X265301Y-6819531D02*
X274824Y-6810008D01*
X274824Y-6810008D02*
X293872Y-6800484D01*
X446253Y-6981436D02*
X455777Y-6990960D01*
X455777Y-6990960D02*
X446253Y-7000484D01*
X446253Y-7000484D02*
X436729Y-6990960D01*
X436729Y-6990960D02*
X446253Y-6981436D01*
X446253Y-6981436D02*
X446253Y-7000484D01*
X531967Y-6819531D02*
X541491Y-6810008D01*
X541491Y-6810008D02*
X560539Y-6800484D01*
X560539Y-6800484D02*
X608158Y-6800484D01*
X608158Y-6800484D02*
X627205Y-6810008D01*
X627205Y-6810008D02*
X636729Y-6819531D01*
X636729Y-6819531D02*
X646253Y-6838579D01*
X646253Y-6838579D02*
X646253Y-6857627D01*
X646253Y-6857627D02*
X636729Y-6886198D01*
X636729Y-6886198D02*
X522443Y-7000484D01*
X522443Y-7000484D02*
X646253Y-7000484D01*
X770062Y-6800484D02*
X789110Y-6800484D01*
X789110Y-6800484D02*
X808158Y-6810008D01*
X808158Y-6810008D02*
X817682Y-6819531D01*
X817682Y-6819531D02*
X827205Y-6838579D01*
X827205Y-6838579D02*
X836729Y-6876674D01*
X836729Y-6876674D02*
X836729Y-6924293D01*
X836729Y-6924293D02*
X827205Y-6962388D01*
X827205Y-6962388D02*
X817682Y-6981436D01*
X817682Y-6981436D02*
X808158Y-6990960D01*
X808158Y-6990960D02*
X789110Y-7000484D01*
X789110Y-7000484D02*
X770062Y-7000484D01*
X770062Y-7000484D02*
X751015Y-6990960D01*
X751015Y-6990960D02*
X741491Y-6981436D01*
X741491Y-6981436D02*
X731967Y-6962388D01*
X731967Y-6962388D02*
X722443Y-6924293D01*
X722443Y-6924293D02*
X722443Y-6876674D01*
X722443Y-6876674D02*
X731967Y-6838579D01*
X731967Y-6838579D02*
X741491Y-6819531D01*
X741491Y-6819531D02*
X751015Y-6810008D01*
X751015Y-6810008D02*
X770062Y-6800484D01*
X960539Y-6800484D02*
X979586Y-6800484D01*
X979586Y-6800484D02*
X998634Y-6810008D01*
X998634Y-6810008D02*
X1008158Y-6819531D01*
X1008158Y-6819531D02*
X1017682Y-6838579D01*
X1017682Y-6838579D02*
X1027205Y-6876674D01*
X1027205Y-6876674D02*
X1027205Y-6924293D01*
X1027205Y-6924293D02*
X1017682Y-6962388D01*
X1017682Y-6962388D02*
X1008158Y-6981436D01*
X1008158Y-6981436D02*
X998634Y-6990960D01*
X998634Y-6990960D02*
X979586Y-7000484D01*
X979586Y-7000484D02*
X960539Y-7000484D01*
X960539Y-7000484D02*
X941491Y-6990960D01*
X941491Y-6990960D02*
X931967Y-6981436D01*
X931967Y-6981436D02*
X922443Y-6962388D01*
X922443Y-6962388D02*
X912920Y-6924293D01*
X912920Y-6924293D02*
X912920Y-6876674D01*
X912920Y-6876674D02*
X922443Y-6838579D01*
X922443Y-6838579D02*
X931967Y-6819531D01*
X931967Y-6819531D02*
X941491Y-6810008D01*
X941491Y-6810008D02*
X960539Y-6800484D01*
X1112920Y-7000484D02*
X1112920Y-6867150D01*
X1112920Y-6886198D02*
X1122444Y-6876674D01*
X1122444Y-6876674D02*
X1141491Y-6867150D01*
X1141491Y-6867150D02*
X1170063Y-6867150D01*
X1170063Y-6867150D02*
X1189110Y-6876674D01*
X1189110Y-6876674D02*
X1198634Y-6895722D01*
X1198634Y-6895722D02*
X1198634Y-7000484D01*
X1198634Y-6895722D02*
X1208158Y-6876674D01*
X1208158Y-6876674D02*
X1227205Y-6867150D01*
X1227205Y-6867150D02*
X1255777Y-6867150D01*
X1255777Y-6867150D02*
X1274825Y-6876674D01*
X1274825Y-6876674D02*
X1284348Y-6895722D01*
X1284348Y-6895722D02*
X1284348Y-7000484D01*
X1379586Y-7000484D02*
X1379586Y-6867150D01*
X1379586Y-6886198D02*
X1389110Y-6876674D01*
X1389110Y-6876674D02*
X1408158Y-6867150D01*
X1408158Y-6867150D02*
X1436729Y-6867150D01*
X1436729Y-6867150D02*
X1455777Y-6876674D01*
X1455777Y-6876674D02*
X1465301Y-6895722D01*
X1465301Y-6895722D02*
X1465301Y-7000484D01*
X1465301Y-6895722D02*
X1474824Y-6876674D01*
X1474824Y-6876674D02*
X1493872Y-6867150D01*
X1493872Y-6867150D02*
X1522443Y-6867150D01*
X1522443Y-6867150D02*
X1541491Y-6876674D01*
X1541491Y-6876674D02*
X1551015Y-6895722D01*
X1551015Y-6895722D02*
X1551015Y-7000484D01*
X1941491Y-6790960D02*
X1770063Y-7048103D01*
X2198634Y-6800484D02*
X2217682Y-6800484D01*
X2217682Y-6800484D02*
X2236729Y-6810008D01*
X2236729Y-6810008D02*
X2246253Y-6819531D01*
X2246253Y-6819531D02*
X2255777Y-6838579D01*
X2255777Y-6838579D02*
X2265301Y-6876674D01*
X2265301Y-6876674D02*
X2265301Y-6924293D01*
X2265301Y-6924293D02*
X2255777Y-6962388D01*
X2255777Y-6962388D02*
X2246253Y-6981436D01*
X2246253Y-6981436D02*
X2236729Y-6990960D01*
X2236729Y-6990960D02*
X2217682Y-7000484D01*
X2217682Y-7000484D02*
X2198634Y-7000484D01*
X2198634Y-7000484D02*
X2179587Y-6990960D01*
X2179587Y-6990960D02*
X2170063Y-6981436D01*
X2170063Y-6981436D02*
X2160539Y-6962388D01*
X2160539Y-6962388D02*
X2151015Y-6924293D01*
X2151015Y-6924293D02*
X2151015Y-6876674D01*
X2151015Y-6876674D02*
X2160539Y-6838579D01*
X2160539Y-6838579D02*
X2170063Y-6819531D01*
X2170063Y-6819531D02*
X2179587Y-6810008D01*
X2179587Y-6810008D02*
X2198634Y-6800484D01*
X2351015Y-6981436D02*
X2360539Y-6990960D01*
X2360539Y-6990960D02*
X2351015Y-7000484D01*
X2351015Y-7000484D02*
X2341491Y-6990960D01*
X2341491Y-6990960D02*
X2351015Y-6981436D01*
X2351015Y-6981436D02*
X2351015Y-7000484D01*
X2484348Y-6800484D02*
X2503396Y-6800484D01*
X2503396Y-6800484D02*
X2522444Y-6810008D01*
X2522444Y-6810008D02*
X2531968Y-6819531D01*
X2531968Y-6819531D02*
X2541491Y-6838579D01*
X2541491Y-6838579D02*
X2551015Y-6876674D01*
X2551015Y-6876674D02*
X2551015Y-6924293D01*
X2551015Y-6924293D02*
X2541491Y-6962388D01*
X2541491Y-6962388D02*
X2531968Y-6981436D01*
X2531968Y-6981436D02*
X2522444Y-6990960D01*
X2522444Y-6990960D02*
X2503396Y-7000484D01*
X2503396Y-7000484D02*
X2484348Y-7000484D01*
X2484348Y-7000484D02*
X2465301Y-6990960D01*
X2465301Y-6990960D02*
X2455777Y-6981436D01*
X2455777Y-6981436D02*
X2446253Y-6962388D01*
X2446253Y-6962388D02*
X2436729Y-6924293D01*
X2436729Y-6924293D02*
X2436729Y-6876674D01*
X2436729Y-6876674D02*
X2446253Y-6838579D01*
X2446253Y-6838579D02*
X2455777Y-6819531D01*
X2455777Y-6819531D02*
X2465301Y-6810008D01*
X2465301Y-6810008D02*
X2484348Y-6800484D01*
X2674825Y-6800484D02*
X2693872Y-6800484D01*
X2693872Y-6800484D02*
X2712920Y-6810008D01*
X2712920Y-6810008D02*
X2722444Y-6819531D01*
X2722444Y-6819531D02*
X2731968Y-6838579D01*
X2731968Y-6838579D02*
X2741491Y-6876674D01*
X2741491Y-6876674D02*
X2741491Y-6924293D01*
X2741491Y-6924293D02*
X2731968Y-6962388D01*
X2731968Y-6962388D02*
X2722444Y-6981436D01*
X2722444Y-6981436D02*
X2712920Y-6990960D01*
X2712920Y-6990960D02*
X2693872Y-7000484D01*
X2693872Y-7000484D02*
X2674825Y-7000484D01*
X2674825Y-7000484D02*
X2655777Y-6990960D01*
X2655777Y-6990960D02*
X2646253Y-6981436D01*
X2646253Y-6981436D02*
X2636729Y-6962388D01*
X2636729Y-6962388D02*
X2627206Y-6924293D01*
X2627206Y-6924293D02*
X2627206Y-6876674D01*
X2627206Y-6876674D02*
X2636729Y-6838579D01*
X2636729Y-6838579D02*
X2646253Y-6819531D01*
X2646253Y-6819531D02*
X2655777Y-6810008D01*
X2655777Y-6810008D02*
X2674825Y-6800484D01*
X2808158Y-6800484D02*
X2941491Y-6800484D01*
X2941491Y-6800484D02*
X2855777Y-7000484D01*
X3027206Y-7000484D02*
X3065301Y-7000484D01*
X3065301Y-7000484D02*
X3084348Y-6990960D01*
X3084348Y-6990960D02*
X3093872Y-6981436D01*
X3093872Y-6981436D02*
X3112920Y-6952865D01*
X3112920Y-6952865D02*
X3122444Y-6914769D01*
X3122444Y-6914769D02*
X3122444Y-6838579D01*
X3122444Y-6838579D02*
X3112920Y-6819531D01*
X3112920Y-6819531D02*
X3103396Y-6810008D01*
X3103396Y-6810008D02*
X3084348Y-6800484D01*
X3084348Y-6800484D02*
X3046253Y-6800484D01*
X3046253Y-6800484D02*
X3027206Y-6810008D01*
X3027206Y-6810008D02*
X3017682Y-6819531D01*
X3017682Y-6819531D02*
X3008158Y-6838579D01*
X3008158Y-6838579D02*
X3008158Y-6886198D01*
X3008158Y-6886198D02*
X3017682Y-6905246D01*
X3017682Y-6905246D02*
X3027206Y-6914769D01*
X3027206Y-6914769D02*
X3046253Y-6924293D01*
X3046253Y-6924293D02*
X3084348Y-6924293D01*
X3084348Y-6924293D02*
X3103396Y-6914769D01*
X3103396Y-6914769D02*
X3112920Y-6905246D01*
X3112920Y-6905246D02*
X3122444Y-6886198D01*
X3198634Y-6800484D02*
X3198634Y-6838579D01*
X3274825Y-6800484D02*
X3274825Y-6838579D01*
X3570063Y-7076674D02*
X3560539Y-7067150D01*
X3560539Y-7067150D02*
X3541491Y-7038579D01*
X3541491Y-7038579D02*
X3531968Y-7019531D01*
X3531968Y-7019531D02*
X3522444Y-6990960D01*
X3522444Y-6990960D02*
X3512920Y-6943341D01*
X3512920Y-6943341D02*
X3512920Y-6905246D01*
X3512920Y-6905246D02*
X3522444Y-6857627D01*
X3522444Y-6857627D02*
X3531968Y-6829055D01*
X3531968Y-6829055D02*
X3541491Y-6810008D01*
X3541491Y-6810008D02*
X3560539Y-6781436D01*
X3560539Y-6781436D02*
X3570063Y-6771912D01*
X3751015Y-7000484D02*
X3636729Y-7000484D01*
X3693872Y-7000484D02*
X3693872Y-6800484D01*
X3693872Y-6800484D02*
X3674825Y-6829055D01*
X3674825Y-6829055D02*
X3655777Y-6848103D01*
X3655777Y-6848103D02*
X3636729Y-6857627D01*
X3827206Y-6819531D02*
X3836729Y-6810008D01*
X3836729Y-6810008D02*
X3855777Y-6800484D01*
X3855777Y-6800484D02*
X3903396Y-6800484D01*
X3903396Y-6800484D02*
X3922444Y-6810008D01*
X3922444Y-6810008D02*
X3931968Y-6819531D01*
X3931968Y-6819531D02*
X3941491Y-6838579D01*
X3941491Y-6838579D02*
X3941491Y-6857627D01*
X3941491Y-6857627D02*
X3931968Y-6886198D01*
X3931968Y-6886198D02*
X3817682Y-7000484D01*
X3817682Y-7000484D02*
X3941491Y-7000484D01*
X4179587Y-7000484D02*
X4179587Y-6800484D01*
X4265301Y-7000484D02*
X4265301Y-6895722D01*
X4265301Y-6895722D02*
X4255777Y-6876674D01*
X4255777Y-6876674D02*
X4236730Y-6867150D01*
X4236730Y-6867150D02*
X4208158Y-6867150D01*
X4208158Y-6867150D02*
X4189110Y-6876674D01*
X4189110Y-6876674D02*
X4179587Y-6886198D01*
X4389111Y-7000484D02*
X4370063Y-6990960D01*
X4370063Y-6990960D02*
X4360539Y-6981436D01*
X4360539Y-6981436D02*
X4351015Y-6962388D01*
X4351015Y-6962388D02*
X4351015Y-6905246D01*
X4351015Y-6905246D02*
X4360539Y-6886198D01*
X4360539Y-6886198D02*
X4370063Y-6876674D01*
X4370063Y-6876674D02*
X4389111Y-6867150D01*
X4389111Y-6867150D02*
X4417682Y-6867150D01*
X4417682Y-6867150D02*
X4436730Y-6876674D01*
X4436730Y-6876674D02*
X4446253Y-6886198D01*
X4446253Y-6886198D02*
X4455777Y-6905246D01*
X4455777Y-6905246D02*
X4455777Y-6962388D01*
X4455777Y-6962388D02*
X4446253Y-6981436D01*
X4446253Y-6981436D02*
X4436730Y-6990960D01*
X4436730Y-6990960D02*
X4417682Y-7000484D01*
X4417682Y-7000484D02*
X4389111Y-7000484D01*
X4570063Y-7000484D02*
X4551015Y-6990960D01*
X4551015Y-6990960D02*
X4541492Y-6971912D01*
X4541492Y-6971912D02*
X4541492Y-6800484D01*
X4722444Y-6990960D02*
X4703396Y-7000484D01*
X4703396Y-7000484D02*
X4665301Y-7000484D01*
X4665301Y-7000484D02*
X4646253Y-6990960D01*
X4646253Y-6990960D02*
X4636730Y-6971912D01*
X4636730Y-6971912D02*
X4636730Y-6895722D01*
X4636730Y-6895722D02*
X4646253Y-6876674D01*
X4646253Y-6876674D02*
X4665301Y-6867150D01*
X4665301Y-6867150D02*
X4703396Y-6867150D01*
X4703396Y-6867150D02*
X4722444Y-6876674D01*
X4722444Y-6876674D02*
X4731968Y-6895722D01*
X4731968Y-6895722D02*
X4731968Y-6914769D01*
X4731968Y-6914769D02*
X4636730Y-6933817D01*
X4808158Y-6990960D02*
X4827206Y-7000484D01*
X4827206Y-7000484D02*
X4865301Y-7000484D01*
X4865301Y-7000484D02*
X4884349Y-6990960D01*
X4884349Y-6990960D02*
X4893873Y-6971912D01*
X4893873Y-6971912D02*
X4893873Y-6962388D01*
X4893873Y-6962388D02*
X4884349Y-6943341D01*
X4884349Y-6943341D02*
X4865301Y-6933817D01*
X4865301Y-6933817D02*
X4836730Y-6933817D01*
X4836730Y-6933817D02*
X4817682Y-6924293D01*
X4817682Y-6924293D02*
X4808158Y-6905246D01*
X4808158Y-6905246D02*
X4808158Y-6895722D01*
X4808158Y-6895722D02*
X4817682Y-6876674D01*
X4817682Y-6876674D02*
X4836730Y-6867150D01*
X4836730Y-6867150D02*
X4865301Y-6867150D01*
X4865301Y-6867150D02*
X4884349Y-6876674D01*
X4960539Y-7076674D02*
X4970063Y-7067150D01*
X4970063Y-7067150D02*
X4989111Y-7038579D01*
X4989111Y-7038579D02*
X4998634Y-7019531D01*
X4998634Y-7019531D02*
X5008158Y-6990960D01*
X5008158Y-6990960D02*
X5017682Y-6943341D01*
X5017682Y-6943341D02*
X5017682Y-6905246D01*
X5017682Y-6905246D02*
X5008158Y-6857627D01*
X5008158Y-6857627D02*
X4998634Y-6829055D01*
X4998634Y-6829055D02*
X4989111Y-6810008D01*
X4989111Y-6810008D02*
X4970063Y-6781436D01*
X4970063Y-6781436D02*
X4960539Y-6771912D01*
D10*
X-20000Y-7158000D02*
X-20000Y-7188000D01*
X-35000Y-7173000D02*
X-5000Y-7173000D01*
D11*
X293872Y-7064484D02*
X312920Y-7064484D01*
X312920Y-7064484D02*
X331967Y-7074008D01*
X331967Y-7074008D02*
X341491Y-7083531D01*
X341491Y-7083531D02*
X351015Y-7102579D01*
X351015Y-7102579D02*
X360539Y-7140674D01*
X360539Y-7140674D02*
X360539Y-7188293D01*
X360539Y-7188293D02*
X351015Y-7226388D01*
X351015Y-7226388D02*
X341491Y-7245436D01*
X341491Y-7245436D02*
X331967Y-7254960D01*
X331967Y-7254960D02*
X312920Y-7264484D01*
X312920Y-7264484D02*
X293872Y-7264484D01*
X293872Y-7264484D02*
X274824Y-7254960D01*
X274824Y-7254960D02*
X265301Y-7245436D01*
X265301Y-7245436D02*
X255777Y-7226388D01*
X255777Y-7226388D02*
X246253Y-7188293D01*
X246253Y-7188293D02*
X246253Y-7140674D01*
X246253Y-7140674D02*
X255777Y-7102579D01*
X255777Y-7102579D02*
X265301Y-7083531D01*
X265301Y-7083531D02*
X274824Y-7074008D01*
X274824Y-7074008D02*
X293872Y-7064484D01*
X446253Y-7245436D02*
X455777Y-7254960D01*
X455777Y-7254960D02*
X446253Y-7264484D01*
X446253Y-7264484D02*
X436729Y-7254960D01*
X436729Y-7254960D02*
X446253Y-7245436D01*
X446253Y-7245436D02*
X446253Y-7264484D01*
X522443Y-7064484D02*
X646253Y-7064484D01*
X646253Y-7064484D02*
X579586Y-7140674D01*
X579586Y-7140674D02*
X608158Y-7140674D01*
X608158Y-7140674D02*
X627205Y-7150198D01*
X627205Y-7150198D02*
X636729Y-7159722D01*
X636729Y-7159722D02*
X646253Y-7178769D01*
X646253Y-7178769D02*
X646253Y-7226388D01*
X646253Y-7226388D02*
X636729Y-7245436D01*
X636729Y-7245436D02*
X627205Y-7254960D01*
X627205Y-7254960D02*
X608158Y-7264484D01*
X608158Y-7264484D02*
X551015Y-7264484D01*
X551015Y-7264484D02*
X531967Y-7254960D01*
X531967Y-7254960D02*
X522443Y-7245436D01*
X770062Y-7064484D02*
X789110Y-7064484D01*
X789110Y-7064484D02*
X808158Y-7074008D01*
X808158Y-7074008D02*
X817682Y-7083531D01*
X817682Y-7083531D02*
X827205Y-7102579D01*
X827205Y-7102579D02*
X836729Y-7140674D01*
X836729Y-7140674D02*
X836729Y-7188293D01*
X836729Y-7188293D02*
X827205Y-7226388D01*
X827205Y-7226388D02*
X817682Y-7245436D01*
X817682Y-7245436D02*
X808158Y-7254960D01*
X808158Y-7254960D02*
X789110Y-7264484D01*
X789110Y-7264484D02*
X770062Y-7264484D01*
X770062Y-7264484D02*
X751015Y-7254960D01*
X751015Y-7254960D02*
X741491Y-7245436D01*
X741491Y-7245436D02*
X731967Y-7226388D01*
X731967Y-7226388D02*
X722443Y-7188293D01*
X722443Y-7188293D02*
X722443Y-7140674D01*
X722443Y-7140674D02*
X731967Y-7102579D01*
X731967Y-7102579D02*
X741491Y-7083531D01*
X741491Y-7083531D02*
X751015Y-7074008D01*
X751015Y-7074008D02*
X770062Y-7064484D01*
X960539Y-7064484D02*
X979586Y-7064484D01*
X979586Y-7064484D02*
X998634Y-7074008D01*
X998634Y-7074008D02*
X1008158Y-7083531D01*
X1008158Y-7083531D02*
X1017682Y-7102579D01*
X1017682Y-7102579D02*
X1027205Y-7140674D01*
X1027205Y-7140674D02*
X1027205Y-7188293D01*
X1027205Y-7188293D02*
X1017682Y-7226388D01*
X1017682Y-7226388D02*
X1008158Y-7245436D01*
X1008158Y-7245436D02*
X998634Y-7254960D01*
X998634Y-7254960D02*
X979586Y-7264484D01*
X979586Y-7264484D02*
X960539Y-7264484D01*
X960539Y-7264484D02*
X941491Y-7254960D01*
X941491Y-7254960D02*
X931967Y-7245436D01*
X931967Y-7245436D02*
X922443Y-7226388D01*
X922443Y-7226388D02*
X912920Y-7188293D01*
X912920Y-7188293D02*
X912920Y-7140674D01*
X912920Y-7140674D02*
X922443Y-7102579D01*
X922443Y-7102579D02*
X931967Y-7083531D01*
X931967Y-7083531D02*
X941491Y-7074008D01*
X941491Y-7074008D02*
X960539Y-7064484D01*
X1112920Y-7264484D02*
X1112920Y-7131150D01*
X1112920Y-7150198D02*
X1122444Y-7140674D01*
X1122444Y-7140674D02*
X1141491Y-7131150D01*
X1141491Y-7131150D02*
X1170063Y-7131150D01*
X1170063Y-7131150D02*
X1189110Y-7140674D01*
X1189110Y-7140674D02*
X1198634Y-7159722D01*
X1198634Y-7159722D02*
X1198634Y-7264484D01*
X1198634Y-7159722D02*
X1208158Y-7140674D01*
X1208158Y-7140674D02*
X1227205Y-7131150D01*
X1227205Y-7131150D02*
X1255777Y-7131150D01*
X1255777Y-7131150D02*
X1274825Y-7140674D01*
X1274825Y-7140674D02*
X1284348Y-7159722D01*
X1284348Y-7159722D02*
X1284348Y-7264484D01*
X1379586Y-7264484D02*
X1379586Y-7131150D01*
X1379586Y-7150198D02*
X1389110Y-7140674D01*
X1389110Y-7140674D02*
X1408158Y-7131150D01*
X1408158Y-7131150D02*
X1436729Y-7131150D01*
X1436729Y-7131150D02*
X1455777Y-7140674D01*
X1455777Y-7140674D02*
X1465301Y-7159722D01*
X1465301Y-7159722D02*
X1465301Y-7264484D01*
X1465301Y-7159722D02*
X1474824Y-7140674D01*
X1474824Y-7140674D02*
X1493872Y-7131150D01*
X1493872Y-7131150D02*
X1522443Y-7131150D01*
X1522443Y-7131150D02*
X1541491Y-7140674D01*
X1541491Y-7140674D02*
X1551015Y-7159722D01*
X1551015Y-7159722D02*
X1551015Y-7264484D01*
X1941491Y-7054960D02*
X1770063Y-7312103D01*
X2198634Y-7064484D02*
X2217682Y-7064484D01*
X2217682Y-7064484D02*
X2236729Y-7074008D01*
X2236729Y-7074008D02*
X2246253Y-7083531D01*
X2246253Y-7083531D02*
X2255777Y-7102579D01*
X2255777Y-7102579D02*
X2265301Y-7140674D01*
X2265301Y-7140674D02*
X2265301Y-7188293D01*
X2265301Y-7188293D02*
X2255777Y-7226388D01*
X2255777Y-7226388D02*
X2246253Y-7245436D01*
X2246253Y-7245436D02*
X2236729Y-7254960D01*
X2236729Y-7254960D02*
X2217682Y-7264484D01*
X2217682Y-7264484D02*
X2198634Y-7264484D01*
X2198634Y-7264484D02*
X2179587Y-7254960D01*
X2179587Y-7254960D02*
X2170063Y-7245436D01*
X2170063Y-7245436D02*
X2160539Y-7226388D01*
X2160539Y-7226388D02*
X2151015Y-7188293D01*
X2151015Y-7188293D02*
X2151015Y-7140674D01*
X2151015Y-7140674D02*
X2160539Y-7102579D01*
X2160539Y-7102579D02*
X2170063Y-7083531D01*
X2170063Y-7083531D02*
X2179587Y-7074008D01*
X2179587Y-7074008D02*
X2198634Y-7064484D01*
X2351015Y-7245436D02*
X2360539Y-7254960D01*
X2360539Y-7254960D02*
X2351015Y-7264484D01*
X2351015Y-7264484D02*
X2341491Y-7254960D01*
X2341491Y-7254960D02*
X2351015Y-7245436D01*
X2351015Y-7245436D02*
X2351015Y-7264484D01*
X2484348Y-7064484D02*
X2503396Y-7064484D01*
X2503396Y-7064484D02*
X2522444Y-7074008D01*
X2522444Y-7074008D02*
X2531968Y-7083531D01*
X2531968Y-7083531D02*
X2541491Y-7102579D01*
X2541491Y-7102579D02*
X2551015Y-7140674D01*
X2551015Y-7140674D02*
X2551015Y-7188293D01*
X2551015Y-7188293D02*
X2541491Y-7226388D01*
X2541491Y-7226388D02*
X2531968Y-7245436D01*
X2531968Y-7245436D02*
X2522444Y-7254960D01*
X2522444Y-7254960D02*
X2503396Y-7264484D01*
X2503396Y-7264484D02*
X2484348Y-7264484D01*
X2484348Y-7264484D02*
X2465301Y-7254960D01*
X2465301Y-7254960D02*
X2455777Y-7245436D01*
X2455777Y-7245436D02*
X2446253Y-7226388D01*
X2446253Y-7226388D02*
X2436729Y-7188293D01*
X2436729Y-7188293D02*
X2436729Y-7140674D01*
X2436729Y-7140674D02*
X2446253Y-7102579D01*
X2446253Y-7102579D02*
X2455777Y-7083531D01*
X2455777Y-7083531D02*
X2465301Y-7074008D01*
X2465301Y-7074008D02*
X2484348Y-7064484D01*
X2741491Y-7264484D02*
X2627206Y-7264484D01*
X2684348Y-7264484D02*
X2684348Y-7064484D01*
X2684348Y-7064484D02*
X2665301Y-7093055D01*
X2665301Y-7093055D02*
X2646253Y-7112103D01*
X2646253Y-7112103D02*
X2627206Y-7121627D01*
X2931967Y-7264484D02*
X2817682Y-7264484D01*
X2874825Y-7264484D02*
X2874825Y-7064484D01*
X2874825Y-7064484D02*
X2855777Y-7093055D01*
X2855777Y-7093055D02*
X2836729Y-7112103D01*
X2836729Y-7112103D02*
X2817682Y-7121627D01*
X3046253Y-7150198D02*
X3027206Y-7140674D01*
X3027206Y-7140674D02*
X3017682Y-7131150D01*
X3017682Y-7131150D02*
X3008158Y-7112103D01*
X3008158Y-7112103D02*
X3008158Y-7102579D01*
X3008158Y-7102579D02*
X3017682Y-7083531D01*
X3017682Y-7083531D02*
X3027206Y-7074008D01*
X3027206Y-7074008D02*
X3046253Y-7064484D01*
X3046253Y-7064484D02*
X3084348Y-7064484D01*
X3084348Y-7064484D02*
X3103396Y-7074008D01*
X3103396Y-7074008D02*
X3112920Y-7083531D01*
X3112920Y-7083531D02*
X3122444Y-7102579D01*
X3122444Y-7102579D02*
X3122444Y-7112103D01*
X3122444Y-7112103D02*
X3112920Y-7131150D01*
X3112920Y-7131150D02*
X3103396Y-7140674D01*
X3103396Y-7140674D02*
X3084348Y-7150198D01*
X3084348Y-7150198D02*
X3046253Y-7150198D01*
X3046253Y-7150198D02*
X3027206Y-7159722D01*
X3027206Y-7159722D02*
X3017682Y-7169246D01*
X3017682Y-7169246D02*
X3008158Y-7188293D01*
X3008158Y-7188293D02*
X3008158Y-7226388D01*
X3008158Y-7226388D02*
X3017682Y-7245436D01*
X3017682Y-7245436D02*
X3027206Y-7254960D01*
X3027206Y-7254960D02*
X3046253Y-7264484D01*
X3046253Y-7264484D02*
X3084348Y-7264484D01*
X3084348Y-7264484D02*
X3103396Y-7254960D01*
X3103396Y-7254960D02*
X3112920Y-7245436D01*
X3112920Y-7245436D02*
X3122444Y-7226388D01*
X3122444Y-7226388D02*
X3122444Y-7188293D01*
X3122444Y-7188293D02*
X3112920Y-7169246D01*
X3112920Y-7169246D02*
X3103396Y-7159722D01*
X3103396Y-7159722D02*
X3084348Y-7150198D01*
X3198634Y-7064484D02*
X3198634Y-7102579D01*
X3274825Y-7064484D02*
X3274825Y-7102579D01*
X3570063Y-7340674D02*
X3560539Y-7331150D01*
X3560539Y-7331150D02*
X3541491Y-7302579D01*
X3541491Y-7302579D02*
X3531968Y-7283531D01*
X3531968Y-7283531D02*
X3522444Y-7254960D01*
X3522444Y-7254960D02*
X3512920Y-7207341D01*
X3512920Y-7207341D02*
X3512920Y-7169246D01*
X3512920Y-7169246D02*
X3522444Y-7121627D01*
X3522444Y-7121627D02*
X3531968Y-7093055D01*
X3531968Y-7093055D02*
X3541491Y-7074008D01*
X3541491Y-7074008D02*
X3560539Y-7045436D01*
X3560539Y-7045436D02*
X3570063Y-7035912D01*
X3751015Y-7264484D02*
X3636729Y-7264484D01*
X3693872Y-7264484D02*
X3693872Y-7064484D01*
X3693872Y-7064484D02*
X3674825Y-7093055D01*
X3674825Y-7093055D02*
X3655777Y-7112103D01*
X3655777Y-7112103D02*
X3636729Y-7121627D01*
X3846253Y-7264484D02*
X3884348Y-7264484D01*
X3884348Y-7264484D02*
X3903396Y-7254960D01*
X3903396Y-7254960D02*
X3912920Y-7245436D01*
X3912920Y-7245436D02*
X3931968Y-7216865D01*
X3931968Y-7216865D02*
X3941491Y-7178769D01*
X3941491Y-7178769D02*
X3941491Y-7102579D01*
X3941491Y-7102579D02*
X3931968Y-7083531D01*
X3931968Y-7083531D02*
X3922444Y-7074008D01*
X3922444Y-7074008D02*
X3903396Y-7064484D01*
X3903396Y-7064484D02*
X3865301Y-7064484D01*
X3865301Y-7064484D02*
X3846253Y-7074008D01*
X3846253Y-7074008D02*
X3836729Y-7083531D01*
X3836729Y-7083531D02*
X3827206Y-7102579D01*
X3827206Y-7102579D02*
X3827206Y-7150198D01*
X3827206Y-7150198D02*
X3836729Y-7169246D01*
X3836729Y-7169246D02*
X3846253Y-7178769D01*
X3846253Y-7178769D02*
X3865301Y-7188293D01*
X3865301Y-7188293D02*
X3903396Y-7188293D01*
X3903396Y-7188293D02*
X3922444Y-7178769D01*
X3922444Y-7178769D02*
X3931968Y-7169246D01*
X3931968Y-7169246D02*
X3941491Y-7150198D01*
X4008158Y-7064484D02*
X4131968Y-7064484D01*
X4131968Y-7064484D02*
X4065301Y-7140674D01*
X4065301Y-7140674D02*
X4093872Y-7140674D01*
X4093872Y-7140674D02*
X4112920Y-7150198D01*
X4112920Y-7150198D02*
X4122444Y-7159722D01*
X4122444Y-7159722D02*
X4131968Y-7178769D01*
X4131968Y-7178769D02*
X4131968Y-7226388D01*
X4131968Y-7226388D02*
X4122444Y-7245436D01*
X4122444Y-7245436D02*
X4112920Y-7254960D01*
X4112920Y-7254960D02*
X4093872Y-7264484D01*
X4093872Y-7264484D02*
X4036729Y-7264484D01*
X4036729Y-7264484D02*
X4017682Y-7254960D01*
X4017682Y-7254960D02*
X4008158Y-7245436D01*
X4370063Y-7264484D02*
X4370063Y-7064484D01*
X4455777Y-7264484D02*
X4455777Y-7159722D01*
X4455777Y-7159722D02*
X4446253Y-7140674D01*
X4446253Y-7140674D02*
X4427206Y-7131150D01*
X4427206Y-7131150D02*
X4398634Y-7131150D01*
X4398634Y-7131150D02*
X4379587Y-7140674D01*
X4379587Y-7140674D02*
X4370063Y-7150198D01*
X4579587Y-7264484D02*
X4560539Y-7254960D01*
X4560539Y-7254960D02*
X4551015Y-7245436D01*
X4551015Y-7245436D02*
X4541492Y-7226388D01*
X4541492Y-7226388D02*
X4541492Y-7169246D01*
X4541492Y-7169246D02*
X4551015Y-7150198D01*
X4551015Y-7150198D02*
X4560539Y-7140674D01*
X4560539Y-7140674D02*
X4579587Y-7131150D01*
X4579587Y-7131150D02*
X4608158Y-7131150D01*
X4608158Y-7131150D02*
X4627206Y-7140674D01*
X4627206Y-7140674D02*
X4636730Y-7150198D01*
X4636730Y-7150198D02*
X4646253Y-7169246D01*
X4646253Y-7169246D02*
X4646253Y-7226388D01*
X4646253Y-7226388D02*
X4636730Y-7245436D01*
X4636730Y-7245436D02*
X4627206Y-7254960D01*
X4627206Y-7254960D02*
X4608158Y-7264484D01*
X4608158Y-7264484D02*
X4579587Y-7264484D01*
X4760539Y-7264484D02*
X4741492Y-7254960D01*
X4741492Y-7254960D02*
X4731968Y-7235912D01*
X4731968Y-7235912D02*
X4731968Y-7064484D01*
X4912920Y-7254960D02*
X4893873Y-7264484D01*
X4893873Y-7264484D02*
X4855777Y-7264484D01*
X4855777Y-7264484D02*
X4836730Y-7254960D01*
X4836730Y-7254960D02*
X4827206Y-7235912D01*
X4827206Y-7235912D02*
X4827206Y-7159722D01*
X4827206Y-7159722D02*
X4836730Y-7140674D01*
X4836730Y-7140674D02*
X4855777Y-7131150D01*
X4855777Y-7131150D02*
X4893873Y-7131150D01*
X4893873Y-7131150D02*
X4912920Y-7140674D01*
X4912920Y-7140674D02*
X4922444Y-7159722D01*
X4922444Y-7159722D02*
X4922444Y-7178769D01*
X4922444Y-7178769D02*
X4827206Y-7197817D01*
X4998634Y-7254960D02*
X5017682Y-7264484D01*
X5017682Y-7264484D02*
X5055777Y-7264484D01*
X5055777Y-7264484D02*
X5074825Y-7254960D01*
X5074825Y-7254960D02*
X5084349Y-7235912D01*
X5084349Y-7235912D02*
X5084349Y-7226388D01*
X5084349Y-7226388D02*
X5074825Y-7207341D01*
X5074825Y-7207341D02*
X5055777Y-7197817D01*
X5055777Y-7197817D02*
X5027206Y-7197817D01*
X5027206Y-7197817D02*
X5008158Y-7188293D01*
X5008158Y-7188293D02*
X4998634Y-7169246D01*
X4998634Y-7169246D02*
X4998634Y-7159722D01*
X4998634Y-7159722D02*
X5008158Y-7140674D01*
X5008158Y-7140674D02*
X5027206Y-7131150D01*
X5027206Y-7131150D02*
X5055777Y-7131150D01*
X5055777Y-7131150D02*
X5074825Y-7140674D01*
X5151015Y-7340674D02*
X5160539Y-7331150D01*
X5160539Y-7331150D02*
X5179587Y-7302579D01*
X5179587Y-7302579D02*
X5189111Y-7283531D01*
X5189111Y-7283531D02*
X5198634Y-7254960D01*
X5198634Y-7254960D02*
X5208158Y-7207341D01*
X5208158Y-7207341D02*
X5208158Y-7169246D01*
X5208158Y-7169246D02*
X5198634Y-7121627D01*
X5198634Y-7121627D02*
X5189111Y-7093055D01*
X5189111Y-7093055D02*
X5179587Y-7074008D01*
X5179587Y-7074008D02*
X5160539Y-7045436D01*
X5160539Y-7045436D02*
X5151015Y-7035912D01*
D10*
X-10858Y-7451142D02*
X-10858Y-7422858D01*
X-39142Y-7422858D01*
X-39142Y-7451142D01*
X-10858Y-7451142D01*
D11*
X293872Y-7328484D02*
X312920Y-7328484D01*
X312920Y-7328484D02*
X331967Y-7338008D01*
X331967Y-7338008D02*
X341491Y-7347531D01*
X341491Y-7347531D02*
X351015Y-7366579D01*
X351015Y-7366579D02*
X360539Y-7404674D01*
X360539Y-7404674D02*
X360539Y-7452293D01*
X360539Y-7452293D02*
X351015Y-7490388D01*
X351015Y-7490388D02*
X341491Y-7509436D01*
X341491Y-7509436D02*
X331967Y-7518960D01*
X331967Y-7518960D02*
X312920Y-7528484D01*
X312920Y-7528484D02*
X293872Y-7528484D01*
X293872Y-7528484D02*
X274824Y-7518960D01*
X274824Y-7518960D02*
X265301Y-7509436D01*
X265301Y-7509436D02*
X255777Y-7490388D01*
X255777Y-7490388D02*
X246253Y-7452293D01*
X246253Y-7452293D02*
X246253Y-7404674D01*
X246253Y-7404674D02*
X255777Y-7366579D01*
X255777Y-7366579D02*
X265301Y-7347531D01*
X265301Y-7347531D02*
X274824Y-7338008D01*
X274824Y-7338008D02*
X293872Y-7328484D01*
X446253Y-7509436D02*
X455777Y-7518960D01*
X455777Y-7518960D02*
X446253Y-7528484D01*
X446253Y-7528484D02*
X436729Y-7518960D01*
X436729Y-7518960D02*
X446253Y-7509436D01*
X446253Y-7509436D02*
X446253Y-7528484D01*
X627205Y-7395150D02*
X627205Y-7528484D01*
X579586Y-7318960D02*
X531967Y-7461817D01*
X531967Y-7461817D02*
X655777Y-7461817D01*
X770062Y-7328484D02*
X789110Y-7328484D01*
X789110Y-7328484D02*
X808158Y-7338008D01*
X808158Y-7338008D02*
X817682Y-7347531D01*
X817682Y-7347531D02*
X827205Y-7366579D01*
X827205Y-7366579D02*
X836729Y-7404674D01*
X836729Y-7404674D02*
X836729Y-7452293D01*
X836729Y-7452293D02*
X827205Y-7490388D01*
X827205Y-7490388D02*
X817682Y-7509436D01*
X817682Y-7509436D02*
X808158Y-7518960D01*
X808158Y-7518960D02*
X789110Y-7528484D01*
X789110Y-7528484D02*
X770062Y-7528484D01*
X770062Y-7528484D02*
X751015Y-7518960D01*
X751015Y-7518960D02*
X741491Y-7509436D01*
X741491Y-7509436D02*
X731967Y-7490388D01*
X731967Y-7490388D02*
X722443Y-7452293D01*
X722443Y-7452293D02*
X722443Y-7404674D01*
X722443Y-7404674D02*
X731967Y-7366579D01*
X731967Y-7366579D02*
X741491Y-7347531D01*
X741491Y-7347531D02*
X751015Y-7338008D01*
X751015Y-7338008D02*
X770062Y-7328484D01*
X960539Y-7328484D02*
X979586Y-7328484D01*
X979586Y-7328484D02*
X998634Y-7338008D01*
X998634Y-7338008D02*
X1008158Y-7347531D01*
X1008158Y-7347531D02*
X1017682Y-7366579D01*
X1017682Y-7366579D02*
X1027205Y-7404674D01*
X1027205Y-7404674D02*
X1027205Y-7452293D01*
X1027205Y-7452293D02*
X1017682Y-7490388D01*
X1017682Y-7490388D02*
X1008158Y-7509436D01*
X1008158Y-7509436D02*
X998634Y-7518960D01*
X998634Y-7518960D02*
X979586Y-7528484D01*
X979586Y-7528484D02*
X960539Y-7528484D01*
X960539Y-7528484D02*
X941491Y-7518960D01*
X941491Y-7518960D02*
X931967Y-7509436D01*
X931967Y-7509436D02*
X922443Y-7490388D01*
X922443Y-7490388D02*
X912920Y-7452293D01*
X912920Y-7452293D02*
X912920Y-7404674D01*
X912920Y-7404674D02*
X922443Y-7366579D01*
X922443Y-7366579D02*
X931967Y-7347531D01*
X931967Y-7347531D02*
X941491Y-7338008D01*
X941491Y-7338008D02*
X960539Y-7328484D01*
X1112920Y-7528484D02*
X1112920Y-7395150D01*
X1112920Y-7414198D02*
X1122444Y-7404674D01*
X1122444Y-7404674D02*
X1141491Y-7395150D01*
X1141491Y-7395150D02*
X1170063Y-7395150D01*
X1170063Y-7395150D02*
X1189110Y-7404674D01*
X1189110Y-7404674D02*
X1198634Y-7423722D01*
X1198634Y-7423722D02*
X1198634Y-7528484D01*
X1198634Y-7423722D02*
X1208158Y-7404674D01*
X1208158Y-7404674D02*
X1227205Y-7395150D01*
X1227205Y-7395150D02*
X1255777Y-7395150D01*
X1255777Y-7395150D02*
X1274825Y-7404674D01*
X1274825Y-7404674D02*
X1284348Y-7423722D01*
X1284348Y-7423722D02*
X1284348Y-7528484D01*
X1379586Y-7528484D02*
X1379586Y-7395150D01*
X1379586Y-7414198D02*
X1389110Y-7404674D01*
X1389110Y-7404674D02*
X1408158Y-7395150D01*
X1408158Y-7395150D02*
X1436729Y-7395150D01*
X1436729Y-7395150D02*
X1455777Y-7404674D01*
X1455777Y-7404674D02*
X1465301Y-7423722D01*
X1465301Y-7423722D02*
X1465301Y-7528484D01*
X1465301Y-7423722D02*
X1474824Y-7404674D01*
X1474824Y-7404674D02*
X1493872Y-7395150D01*
X1493872Y-7395150D02*
X1522443Y-7395150D01*
X1522443Y-7395150D02*
X1541491Y-7404674D01*
X1541491Y-7404674D02*
X1551015Y-7423722D01*
X1551015Y-7423722D02*
X1551015Y-7528484D01*
X1941491Y-7318960D02*
X1770063Y-7576103D01*
X2198634Y-7328484D02*
X2217682Y-7328484D01*
X2217682Y-7328484D02*
X2236729Y-7338008D01*
X2236729Y-7338008D02*
X2246253Y-7347531D01*
X2246253Y-7347531D02*
X2255777Y-7366579D01*
X2255777Y-7366579D02*
X2265301Y-7404674D01*
X2265301Y-7404674D02*
X2265301Y-7452293D01*
X2265301Y-7452293D02*
X2255777Y-7490388D01*
X2255777Y-7490388D02*
X2246253Y-7509436D01*
X2246253Y-7509436D02*
X2236729Y-7518960D01*
X2236729Y-7518960D02*
X2217682Y-7528484D01*
X2217682Y-7528484D02*
X2198634Y-7528484D01*
X2198634Y-7528484D02*
X2179587Y-7518960D01*
X2179587Y-7518960D02*
X2170063Y-7509436D01*
X2170063Y-7509436D02*
X2160539Y-7490388D01*
X2160539Y-7490388D02*
X2151015Y-7452293D01*
X2151015Y-7452293D02*
X2151015Y-7404674D01*
X2151015Y-7404674D02*
X2160539Y-7366579D01*
X2160539Y-7366579D02*
X2170063Y-7347531D01*
X2170063Y-7347531D02*
X2179587Y-7338008D01*
X2179587Y-7338008D02*
X2198634Y-7328484D01*
X2351015Y-7509436D02*
X2360539Y-7518960D01*
X2360539Y-7518960D02*
X2351015Y-7528484D01*
X2351015Y-7528484D02*
X2341491Y-7518960D01*
X2341491Y-7518960D02*
X2351015Y-7509436D01*
X2351015Y-7509436D02*
X2351015Y-7528484D01*
X2484348Y-7328484D02*
X2503396Y-7328484D01*
X2503396Y-7328484D02*
X2522444Y-7338008D01*
X2522444Y-7338008D02*
X2531968Y-7347531D01*
X2531968Y-7347531D02*
X2541491Y-7366579D01*
X2541491Y-7366579D02*
X2551015Y-7404674D01*
X2551015Y-7404674D02*
X2551015Y-7452293D01*
X2551015Y-7452293D02*
X2541491Y-7490388D01*
X2541491Y-7490388D02*
X2531968Y-7509436D01*
X2531968Y-7509436D02*
X2522444Y-7518960D01*
X2522444Y-7518960D02*
X2503396Y-7528484D01*
X2503396Y-7528484D02*
X2484348Y-7528484D01*
X2484348Y-7528484D02*
X2465301Y-7518960D01*
X2465301Y-7518960D02*
X2455777Y-7509436D01*
X2455777Y-7509436D02*
X2446253Y-7490388D01*
X2446253Y-7490388D02*
X2436729Y-7452293D01*
X2436729Y-7452293D02*
X2436729Y-7404674D01*
X2436729Y-7404674D02*
X2446253Y-7366579D01*
X2446253Y-7366579D02*
X2455777Y-7347531D01*
X2455777Y-7347531D02*
X2465301Y-7338008D01*
X2465301Y-7338008D02*
X2484348Y-7328484D01*
X2741491Y-7528484D02*
X2627206Y-7528484D01*
X2684348Y-7528484D02*
X2684348Y-7328484D01*
X2684348Y-7328484D02*
X2665301Y-7357055D01*
X2665301Y-7357055D02*
X2646253Y-7376103D01*
X2646253Y-7376103D02*
X2627206Y-7385627D01*
X2922444Y-7328484D02*
X2827206Y-7328484D01*
X2827206Y-7328484D02*
X2817682Y-7423722D01*
X2817682Y-7423722D02*
X2827206Y-7414198D01*
X2827206Y-7414198D02*
X2846253Y-7404674D01*
X2846253Y-7404674D02*
X2893872Y-7404674D01*
X2893872Y-7404674D02*
X2912920Y-7414198D01*
X2912920Y-7414198D02*
X2922444Y-7423722D01*
X2922444Y-7423722D02*
X2931967Y-7442769D01*
X2931967Y-7442769D02*
X2931967Y-7490388D01*
X2931967Y-7490388D02*
X2922444Y-7509436D01*
X2922444Y-7509436D02*
X2912920Y-7518960D01*
X2912920Y-7518960D02*
X2893872Y-7528484D01*
X2893872Y-7528484D02*
X2846253Y-7528484D01*
X2846253Y-7528484D02*
X2827206Y-7518960D01*
X2827206Y-7518960D02*
X2817682Y-7509436D01*
X2998634Y-7328484D02*
X3131967Y-7328484D01*
X3131967Y-7328484D02*
X3046253Y-7528484D01*
X3198634Y-7328484D02*
X3198634Y-7366579D01*
X3274825Y-7328484D02*
X3274825Y-7366579D01*
X3570063Y-7604674D02*
X3560539Y-7595150D01*
X3560539Y-7595150D02*
X3541491Y-7566579D01*
X3541491Y-7566579D02*
X3531968Y-7547531D01*
X3531968Y-7547531D02*
X3522444Y-7518960D01*
X3522444Y-7518960D02*
X3512920Y-7471341D01*
X3512920Y-7471341D02*
X3512920Y-7433246D01*
X3512920Y-7433246D02*
X3522444Y-7385627D01*
X3522444Y-7385627D02*
X3531968Y-7357055D01*
X3531968Y-7357055D02*
X3541491Y-7338008D01*
X3541491Y-7338008D02*
X3560539Y-7309436D01*
X3560539Y-7309436D02*
X3570063Y-7299912D01*
X3731968Y-7395150D02*
X3731968Y-7528484D01*
X3684348Y-7318960D02*
X3636729Y-7461817D01*
X3636729Y-7461817D02*
X3760539Y-7461817D01*
X3989110Y-7528484D02*
X3989110Y-7328484D01*
X4074825Y-7528484D02*
X4074825Y-7423722D01*
X4074825Y-7423722D02*
X4065301Y-7404674D01*
X4065301Y-7404674D02*
X4046253Y-7395150D01*
X4046253Y-7395150D02*
X4017682Y-7395150D01*
X4017682Y-7395150D02*
X3998634Y-7404674D01*
X3998634Y-7404674D02*
X3989110Y-7414198D01*
X4198634Y-7528484D02*
X4179587Y-7518960D01*
X4179587Y-7518960D02*
X4170063Y-7509436D01*
X4170063Y-7509436D02*
X4160539Y-7490388D01*
X4160539Y-7490388D02*
X4160539Y-7433246D01*
X4160539Y-7433246D02*
X4170063Y-7414198D01*
X4170063Y-7414198D02*
X4179587Y-7404674D01*
X4179587Y-7404674D02*
X4198634Y-7395150D01*
X4198634Y-7395150D02*
X4227206Y-7395150D01*
X4227206Y-7395150D02*
X4246253Y-7404674D01*
X4246253Y-7404674D02*
X4255777Y-7414198D01*
X4255777Y-7414198D02*
X4265301Y-7433246D01*
X4265301Y-7433246D02*
X4265301Y-7490388D01*
X4265301Y-7490388D02*
X4255777Y-7509436D01*
X4255777Y-7509436D02*
X4246253Y-7518960D01*
X4246253Y-7518960D02*
X4227206Y-7528484D01*
X4227206Y-7528484D02*
X4198634Y-7528484D01*
X4379587Y-7528484D02*
X4360539Y-7518960D01*
X4360539Y-7518960D02*
X4351015Y-7499912D01*
X4351015Y-7499912D02*
X4351015Y-7328484D01*
X4531968Y-7518960D02*
X4512920Y-7528484D01*
X4512920Y-7528484D02*
X4474825Y-7528484D01*
X4474825Y-7528484D02*
X4455777Y-7518960D01*
X4455777Y-7518960D02*
X4446253Y-7499912D01*
X4446253Y-7499912D02*
X4446253Y-7423722D01*
X4446253Y-7423722D02*
X4455777Y-7404674D01*
X4455777Y-7404674D02*
X4474825Y-7395150D01*
X4474825Y-7395150D02*
X4512920Y-7395150D01*
X4512920Y-7395150D02*
X4531968Y-7404674D01*
X4531968Y-7404674D02*
X4541492Y-7423722D01*
X4541492Y-7423722D02*
X4541492Y-7442769D01*
X4541492Y-7442769D02*
X4446253Y-7461817D01*
X4617682Y-7518960D02*
X4636730Y-7528484D01*
X4636730Y-7528484D02*
X4674825Y-7528484D01*
X4674825Y-7528484D02*
X4693873Y-7518960D01*
X4693873Y-7518960D02*
X4703396Y-7499912D01*
X4703396Y-7499912D02*
X4703396Y-7490388D01*
X4703396Y-7490388D02*
X4693873Y-7471341D01*
X4693873Y-7471341D02*
X4674825Y-7461817D01*
X4674825Y-7461817D02*
X4646253Y-7461817D01*
X4646253Y-7461817D02*
X4627206Y-7452293D01*
X4627206Y-7452293D02*
X4617682Y-7433246D01*
X4617682Y-7433246D02*
X4617682Y-7423722D01*
X4617682Y-7423722D02*
X4627206Y-7404674D01*
X4627206Y-7404674D02*
X4646253Y-7395150D01*
X4646253Y-7395150D02*
X4674825Y-7395150D01*
X4674825Y-7395150D02*
X4693873Y-7404674D01*
X4770063Y-7604674D02*
X4779587Y-7595150D01*
X4779587Y-7595150D02*
X4798634Y-7566579D01*
X4798634Y-7566579D02*
X4808158Y-7547531D01*
X4808158Y-7547531D02*
X4817682Y-7518960D01*
X4817682Y-7518960D02*
X4827206Y-7471341D01*
X4827206Y-7471341D02*
X4827206Y-7433246D01*
X4827206Y-7433246D02*
X4817682Y-7385627D01*
X4817682Y-7385627D02*
X4808158Y-7357055D01*
X4808158Y-7357055D02*
X4798634Y-7338008D01*
X4798634Y-7338008D02*
X4779587Y-7309436D01*
X4779587Y-7309436D02*
X4770063Y-7299912D01*
D10*
X-35000Y-7731000D02*
X-5000Y-7701000D01*
X-35000Y-7671000D01*
X-65000Y-7701000D01*
X-35000Y-7731000D01*
D11*
X293872Y-7592484D02*
X312920Y-7592484D01*
X312920Y-7592484D02*
X331967Y-7602008D01*
X331967Y-7602008D02*
X341491Y-7611531D01*
X341491Y-7611531D02*
X351015Y-7630579D01*
X351015Y-7630579D02*
X360539Y-7668674D01*
X360539Y-7668674D02*
X360539Y-7716293D01*
X360539Y-7716293D02*
X351015Y-7754388D01*
X351015Y-7754388D02*
X341491Y-7773436D01*
X341491Y-7773436D02*
X331967Y-7782960D01*
X331967Y-7782960D02*
X312920Y-7792484D01*
X312920Y-7792484D02*
X293872Y-7792484D01*
X293872Y-7792484D02*
X274824Y-7782960D01*
X274824Y-7782960D02*
X265301Y-7773436D01*
X265301Y-7773436D02*
X255777Y-7754388D01*
X255777Y-7754388D02*
X246253Y-7716293D01*
X246253Y-7716293D02*
X246253Y-7668674D01*
X246253Y-7668674D02*
X255777Y-7630579D01*
X255777Y-7630579D02*
X265301Y-7611531D01*
X265301Y-7611531D02*
X274824Y-7602008D01*
X274824Y-7602008D02*
X293872Y-7592484D01*
X446253Y-7773436D02*
X455777Y-7782960D01*
X455777Y-7782960D02*
X446253Y-7792484D01*
X446253Y-7792484D02*
X436729Y-7782960D01*
X436729Y-7782960D02*
X446253Y-7773436D01*
X446253Y-7773436D02*
X446253Y-7792484D01*
X627205Y-7592484D02*
X589110Y-7592484D01*
X589110Y-7592484D02*
X570063Y-7602008D01*
X570063Y-7602008D02*
X560539Y-7611531D01*
X560539Y-7611531D02*
X541491Y-7640103D01*
X541491Y-7640103D02*
X531967Y-7678198D01*
X531967Y-7678198D02*
X531967Y-7754388D01*
X531967Y-7754388D02*
X541491Y-7773436D01*
X541491Y-7773436D02*
X551015Y-7782960D01*
X551015Y-7782960D02*
X570063Y-7792484D01*
X570063Y-7792484D02*
X608158Y-7792484D01*
X608158Y-7792484D02*
X627205Y-7782960D01*
X627205Y-7782960D02*
X636729Y-7773436D01*
X636729Y-7773436D02*
X646253Y-7754388D01*
X646253Y-7754388D02*
X646253Y-7706769D01*
X646253Y-7706769D02*
X636729Y-7687722D01*
X636729Y-7687722D02*
X627205Y-7678198D01*
X627205Y-7678198D02*
X608158Y-7668674D01*
X608158Y-7668674D02*
X570063Y-7668674D01*
X570063Y-7668674D02*
X551015Y-7678198D01*
X551015Y-7678198D02*
X541491Y-7687722D01*
X541491Y-7687722D02*
X531967Y-7706769D01*
X770062Y-7592484D02*
X789110Y-7592484D01*
X789110Y-7592484D02*
X808158Y-7602008D01*
X808158Y-7602008D02*
X817682Y-7611531D01*
X817682Y-7611531D02*
X827205Y-7630579D01*
X827205Y-7630579D02*
X836729Y-7668674D01*
X836729Y-7668674D02*
X836729Y-7716293D01*
X836729Y-7716293D02*
X827205Y-7754388D01*
X827205Y-7754388D02*
X817682Y-7773436D01*
X817682Y-7773436D02*
X808158Y-7782960D01*
X808158Y-7782960D02*
X789110Y-7792484D01*
X789110Y-7792484D02*
X770062Y-7792484D01*
X770062Y-7792484D02*
X751015Y-7782960D01*
X751015Y-7782960D02*
X741491Y-7773436D01*
X741491Y-7773436D02*
X731967Y-7754388D01*
X731967Y-7754388D02*
X722443Y-7716293D01*
X722443Y-7716293D02*
X722443Y-7668674D01*
X722443Y-7668674D02*
X731967Y-7630579D01*
X731967Y-7630579D02*
X741491Y-7611531D01*
X741491Y-7611531D02*
X751015Y-7602008D01*
X751015Y-7602008D02*
X770062Y-7592484D01*
X960539Y-7592484D02*
X979586Y-7592484D01*
X979586Y-7592484D02*
X998634Y-7602008D01*
X998634Y-7602008D02*
X1008158Y-7611531D01*
X1008158Y-7611531D02*
X1017682Y-7630579D01*
X1017682Y-7630579D02*
X1027205Y-7668674D01*
X1027205Y-7668674D02*
X1027205Y-7716293D01*
X1027205Y-7716293D02*
X1017682Y-7754388D01*
X1017682Y-7754388D02*
X1008158Y-7773436D01*
X1008158Y-7773436D02*
X998634Y-7782960D01*
X998634Y-7782960D02*
X979586Y-7792484D01*
X979586Y-7792484D02*
X960539Y-7792484D01*
X960539Y-7792484D02*
X941491Y-7782960D01*
X941491Y-7782960D02*
X931967Y-7773436D01*
X931967Y-7773436D02*
X922443Y-7754388D01*
X922443Y-7754388D02*
X912920Y-7716293D01*
X912920Y-7716293D02*
X912920Y-7668674D01*
X912920Y-7668674D02*
X922443Y-7630579D01*
X922443Y-7630579D02*
X931967Y-7611531D01*
X931967Y-7611531D02*
X941491Y-7602008D01*
X941491Y-7602008D02*
X960539Y-7592484D01*
X1112920Y-7792484D02*
X1112920Y-7659150D01*
X1112920Y-7678198D02*
X1122444Y-7668674D01*
X1122444Y-7668674D02*
X1141491Y-7659150D01*
X1141491Y-7659150D02*
X1170063Y-7659150D01*
X1170063Y-7659150D02*
X1189110Y-7668674D01*
X1189110Y-7668674D02*
X1198634Y-7687722D01*
X1198634Y-7687722D02*
X1198634Y-7792484D01*
X1198634Y-7687722D02*
X1208158Y-7668674D01*
X1208158Y-7668674D02*
X1227205Y-7659150D01*
X1227205Y-7659150D02*
X1255777Y-7659150D01*
X1255777Y-7659150D02*
X1274825Y-7668674D01*
X1274825Y-7668674D02*
X1284348Y-7687722D01*
X1284348Y-7687722D02*
X1284348Y-7792484D01*
X1379586Y-7792484D02*
X1379586Y-7659150D01*
X1379586Y-7678198D02*
X1389110Y-7668674D01*
X1389110Y-7668674D02*
X1408158Y-7659150D01*
X1408158Y-7659150D02*
X1436729Y-7659150D01*
X1436729Y-7659150D02*
X1455777Y-7668674D01*
X1455777Y-7668674D02*
X1465301Y-7687722D01*
X1465301Y-7687722D02*
X1465301Y-7792484D01*
X1465301Y-7687722D02*
X1474824Y-7668674D01*
X1474824Y-7668674D02*
X1493872Y-7659150D01*
X1493872Y-7659150D02*
X1522443Y-7659150D01*
X1522443Y-7659150D02*
X1541491Y-7668674D01*
X1541491Y-7668674D02*
X1551015Y-7687722D01*
X1551015Y-7687722D02*
X1551015Y-7792484D01*
X1941491Y-7582960D02*
X1770063Y-7840103D01*
X2198634Y-7592484D02*
X2217682Y-7592484D01*
X2217682Y-7592484D02*
X2236729Y-7602008D01*
X2236729Y-7602008D02*
X2246253Y-7611531D01*
X2246253Y-7611531D02*
X2255777Y-7630579D01*
X2255777Y-7630579D02*
X2265301Y-7668674D01*
X2265301Y-7668674D02*
X2265301Y-7716293D01*
X2265301Y-7716293D02*
X2255777Y-7754388D01*
X2255777Y-7754388D02*
X2246253Y-7773436D01*
X2246253Y-7773436D02*
X2236729Y-7782960D01*
X2236729Y-7782960D02*
X2217682Y-7792484D01*
X2217682Y-7792484D02*
X2198634Y-7792484D01*
X2198634Y-7792484D02*
X2179587Y-7782960D01*
X2179587Y-7782960D02*
X2170063Y-7773436D01*
X2170063Y-7773436D02*
X2160539Y-7754388D01*
X2160539Y-7754388D02*
X2151015Y-7716293D01*
X2151015Y-7716293D02*
X2151015Y-7668674D01*
X2151015Y-7668674D02*
X2160539Y-7630579D01*
X2160539Y-7630579D02*
X2170063Y-7611531D01*
X2170063Y-7611531D02*
X2179587Y-7602008D01*
X2179587Y-7602008D02*
X2198634Y-7592484D01*
X2351015Y-7773436D02*
X2360539Y-7782960D01*
X2360539Y-7782960D02*
X2351015Y-7792484D01*
X2351015Y-7792484D02*
X2341491Y-7782960D01*
X2341491Y-7782960D02*
X2351015Y-7773436D01*
X2351015Y-7773436D02*
X2351015Y-7792484D01*
X2484348Y-7592484D02*
X2503396Y-7592484D01*
X2503396Y-7592484D02*
X2522444Y-7602008D01*
X2522444Y-7602008D02*
X2531968Y-7611531D01*
X2531968Y-7611531D02*
X2541491Y-7630579D01*
X2541491Y-7630579D02*
X2551015Y-7668674D01*
X2551015Y-7668674D02*
X2551015Y-7716293D01*
X2551015Y-7716293D02*
X2541491Y-7754388D01*
X2541491Y-7754388D02*
X2531968Y-7773436D01*
X2531968Y-7773436D02*
X2522444Y-7782960D01*
X2522444Y-7782960D02*
X2503396Y-7792484D01*
X2503396Y-7792484D02*
X2484348Y-7792484D01*
X2484348Y-7792484D02*
X2465301Y-7782960D01*
X2465301Y-7782960D02*
X2455777Y-7773436D01*
X2455777Y-7773436D02*
X2446253Y-7754388D01*
X2446253Y-7754388D02*
X2436729Y-7716293D01*
X2436729Y-7716293D02*
X2436729Y-7668674D01*
X2436729Y-7668674D02*
X2446253Y-7630579D01*
X2446253Y-7630579D02*
X2455777Y-7611531D01*
X2455777Y-7611531D02*
X2465301Y-7602008D01*
X2465301Y-7602008D02*
X2484348Y-7592484D01*
X2627206Y-7611531D02*
X2636729Y-7602008D01*
X2636729Y-7602008D02*
X2655777Y-7592484D01*
X2655777Y-7592484D02*
X2703396Y-7592484D01*
X2703396Y-7592484D02*
X2722444Y-7602008D01*
X2722444Y-7602008D02*
X2731968Y-7611531D01*
X2731968Y-7611531D02*
X2741491Y-7630579D01*
X2741491Y-7630579D02*
X2741491Y-7649627D01*
X2741491Y-7649627D02*
X2731968Y-7678198D01*
X2731968Y-7678198D02*
X2617682Y-7792484D01*
X2617682Y-7792484D02*
X2741491Y-7792484D01*
X2808158Y-7592484D02*
X2931967Y-7592484D01*
X2931967Y-7592484D02*
X2865301Y-7668674D01*
X2865301Y-7668674D02*
X2893872Y-7668674D01*
X2893872Y-7668674D02*
X2912920Y-7678198D01*
X2912920Y-7678198D02*
X2922444Y-7687722D01*
X2922444Y-7687722D02*
X2931967Y-7706769D01*
X2931967Y-7706769D02*
X2931967Y-7754388D01*
X2931967Y-7754388D02*
X2922444Y-7773436D01*
X2922444Y-7773436D02*
X2912920Y-7782960D01*
X2912920Y-7782960D02*
X2893872Y-7792484D01*
X2893872Y-7792484D02*
X2836729Y-7792484D01*
X2836729Y-7792484D02*
X2817682Y-7782960D01*
X2817682Y-7782960D02*
X2808158Y-7773436D01*
X3103396Y-7592484D02*
X3065301Y-7592484D01*
X3065301Y-7592484D02*
X3046253Y-7602008D01*
X3046253Y-7602008D02*
X3036729Y-7611531D01*
X3036729Y-7611531D02*
X3017682Y-7640103D01*
X3017682Y-7640103D02*
X3008158Y-7678198D01*
X3008158Y-7678198D02*
X3008158Y-7754388D01*
X3008158Y-7754388D02*
X3017682Y-7773436D01*
X3017682Y-7773436D02*
X3027206Y-7782960D01*
X3027206Y-7782960D02*
X3046253Y-7792484D01*
X3046253Y-7792484D02*
X3084348Y-7792484D01*
X3084348Y-7792484D02*
X3103396Y-7782960D01*
X3103396Y-7782960D02*
X3112920Y-7773436D01*
X3112920Y-7773436D02*
X3122444Y-7754388D01*
X3122444Y-7754388D02*
X3122444Y-7706769D01*
X3122444Y-7706769D02*
X3112920Y-7687722D01*
X3112920Y-7687722D02*
X3103396Y-7678198D01*
X3103396Y-7678198D02*
X3084348Y-7668674D01*
X3084348Y-7668674D02*
X3046253Y-7668674D01*
X3046253Y-7668674D02*
X3027206Y-7678198D01*
X3027206Y-7678198D02*
X3017682Y-7687722D01*
X3017682Y-7687722D02*
X3008158Y-7706769D01*
X3198634Y-7592484D02*
X3198634Y-7630579D01*
X3274825Y-7592484D02*
X3274825Y-7630579D01*
X3570063Y-7868674D02*
X3560539Y-7859150D01*
X3560539Y-7859150D02*
X3541491Y-7830579D01*
X3541491Y-7830579D02*
X3531968Y-7811531D01*
X3531968Y-7811531D02*
X3522444Y-7782960D01*
X3522444Y-7782960D02*
X3512920Y-7735341D01*
X3512920Y-7735341D02*
X3512920Y-7697246D01*
X3512920Y-7697246D02*
X3522444Y-7649627D01*
X3522444Y-7649627D02*
X3531968Y-7621055D01*
X3531968Y-7621055D02*
X3541491Y-7602008D01*
X3541491Y-7602008D02*
X3560539Y-7573436D01*
X3560539Y-7573436D02*
X3570063Y-7563912D01*
X3684348Y-7592484D02*
X3703396Y-7592484D01*
X3703396Y-7592484D02*
X3722444Y-7602008D01*
X3722444Y-7602008D02*
X3731968Y-7611531D01*
X3731968Y-7611531D02*
X3741491Y-7630579D01*
X3741491Y-7630579D02*
X3751015Y-7668674D01*
X3751015Y-7668674D02*
X3751015Y-7716293D01*
X3751015Y-7716293D02*
X3741491Y-7754388D01*
X3741491Y-7754388D02*
X3731968Y-7773436D01*
X3731968Y-7773436D02*
X3722444Y-7782960D01*
X3722444Y-7782960D02*
X3703396Y-7792484D01*
X3703396Y-7792484D02*
X3684348Y-7792484D01*
X3684348Y-7792484D02*
X3665301Y-7782960D01*
X3665301Y-7782960D02*
X3655777Y-7773436D01*
X3655777Y-7773436D02*
X3646253Y-7754388D01*
X3646253Y-7754388D02*
X3636729Y-7716293D01*
X3636729Y-7716293D02*
X3636729Y-7668674D01*
X3636729Y-7668674D02*
X3646253Y-7630579D01*
X3646253Y-7630579D02*
X3655777Y-7611531D01*
X3655777Y-7611531D02*
X3665301Y-7602008D01*
X3665301Y-7602008D02*
X3684348Y-7592484D01*
X3989110Y-7792484D02*
X3989110Y-7592484D01*
X4074825Y-7792484D02*
X4074825Y-7687722D01*
X4074825Y-7687722D02*
X4065301Y-7668674D01*
X4065301Y-7668674D02*
X4046253Y-7659150D01*
X4046253Y-7659150D02*
X4017682Y-7659150D01*
X4017682Y-7659150D02*
X3998634Y-7668674D01*
X3998634Y-7668674D02*
X3989110Y-7678198D01*
X4198634Y-7792484D02*
X4179587Y-7782960D01*
X4179587Y-7782960D02*
X4170063Y-7773436D01*
X4170063Y-7773436D02*
X4160539Y-7754388D01*
X4160539Y-7754388D02*
X4160539Y-7697246D01*
X4160539Y-7697246D02*
X4170063Y-7678198D01*
X4170063Y-7678198D02*
X4179587Y-7668674D01*
X4179587Y-7668674D02*
X4198634Y-7659150D01*
X4198634Y-7659150D02*
X4227206Y-7659150D01*
X4227206Y-7659150D02*
X4246253Y-7668674D01*
X4246253Y-7668674D02*
X4255777Y-7678198D01*
X4255777Y-7678198D02*
X4265301Y-7697246D01*
X4265301Y-7697246D02*
X4265301Y-7754388D01*
X4265301Y-7754388D02*
X4255777Y-7773436D01*
X4255777Y-7773436D02*
X4246253Y-7782960D01*
X4246253Y-7782960D02*
X4227206Y-7792484D01*
X4227206Y-7792484D02*
X4198634Y-7792484D01*
X4379587Y-7792484D02*
X4360539Y-7782960D01*
X4360539Y-7782960D02*
X4351015Y-7763912D01*
X4351015Y-7763912D02*
X4351015Y-7592484D01*
X4531968Y-7782960D02*
X4512920Y-7792484D01*
X4512920Y-7792484D02*
X4474825Y-7792484D01*
X4474825Y-7792484D02*
X4455777Y-7782960D01*
X4455777Y-7782960D02*
X4446253Y-7763912D01*
X4446253Y-7763912D02*
X4446253Y-7687722D01*
X4446253Y-7687722D02*
X4455777Y-7668674D01*
X4455777Y-7668674D02*
X4474825Y-7659150D01*
X4474825Y-7659150D02*
X4512920Y-7659150D01*
X4512920Y-7659150D02*
X4531968Y-7668674D01*
X4531968Y-7668674D02*
X4541492Y-7687722D01*
X4541492Y-7687722D02*
X4541492Y-7706769D01*
X4541492Y-7706769D02*
X4446253Y-7725817D01*
X4617682Y-7782960D02*
X4636730Y-7792484D01*
X4636730Y-7792484D02*
X4674825Y-7792484D01*
X4674825Y-7792484D02*
X4693873Y-7782960D01*
X4693873Y-7782960D02*
X4703396Y-7763912D01*
X4703396Y-7763912D02*
X4703396Y-7754388D01*
X4703396Y-7754388D02*
X4693873Y-7735341D01*
X4693873Y-7735341D02*
X4674825Y-7725817D01*
X4674825Y-7725817D02*
X4646253Y-7725817D01*
X4646253Y-7725817D02*
X4627206Y-7716293D01*
X4627206Y-7716293D02*
X4617682Y-7697246D01*
X4617682Y-7697246D02*
X4617682Y-7687722D01*
X4617682Y-7687722D02*
X4627206Y-7668674D01*
X4627206Y-7668674D02*
X4646253Y-7659150D01*
X4646253Y-7659150D02*
X4674825Y-7659150D01*
X4674825Y-7659150D02*
X4693873Y-7668674D01*
X4941492Y-7716293D02*
X5093873Y-7716293D01*
X5017682Y-7792484D02*
X5017682Y-7640103D01*
X5427206Y-7659150D02*
X5427206Y-7792484D01*
X5379587Y-7582960D02*
X5331968Y-7725817D01*
X5331968Y-7725817D02*
X5455777Y-7725817D01*
X5674825Y-7782960D02*
X5693873Y-7792484D01*
X5693873Y-7792484D02*
X5731968Y-7792484D01*
X5731968Y-7792484D02*
X5751015Y-7782960D01*
X5751015Y-7782960D02*
X5760539Y-7763912D01*
X5760539Y-7763912D02*
X5760539Y-7754388D01*
X5760539Y-7754388D02*
X5751015Y-7735341D01*
X5751015Y-7735341D02*
X5731968Y-7725817D01*
X5731968Y-7725817D02*
X5703396Y-7725817D01*
X5703396Y-7725817D02*
X5684349Y-7716293D01*
X5684349Y-7716293D02*
X5674825Y-7697246D01*
X5674825Y-7697246D02*
X5674825Y-7687722D01*
X5674825Y-7687722D02*
X5684349Y-7668674D01*
X5684349Y-7668674D02*
X5703396Y-7659150D01*
X5703396Y-7659150D02*
X5731968Y-7659150D01*
X5731968Y-7659150D02*
X5751015Y-7668674D01*
X5874825Y-7792484D02*
X5855777Y-7782960D01*
X5855777Y-7782960D02*
X5846254Y-7763912D01*
X5846254Y-7763912D02*
X5846254Y-7592484D01*
X5979587Y-7792484D02*
X5960539Y-7782960D01*
X5960539Y-7782960D02*
X5951015Y-7773436D01*
X5951015Y-7773436D02*
X5941492Y-7754388D01*
X5941492Y-7754388D02*
X5941492Y-7697246D01*
X5941492Y-7697246D02*
X5951015Y-7678198D01*
X5951015Y-7678198D02*
X5960539Y-7668674D01*
X5960539Y-7668674D02*
X5979587Y-7659150D01*
X5979587Y-7659150D02*
X6008158Y-7659150D01*
X6008158Y-7659150D02*
X6027206Y-7668674D01*
X6027206Y-7668674D02*
X6036730Y-7678198D01*
X6036730Y-7678198D02*
X6046254Y-7697246D01*
X6046254Y-7697246D02*
X6046254Y-7754388D01*
X6046254Y-7754388D02*
X6036730Y-7773436D01*
X6036730Y-7773436D02*
X6027206Y-7782960D01*
X6027206Y-7782960D02*
X6008158Y-7792484D01*
X6008158Y-7792484D02*
X5979587Y-7792484D01*
X6103396Y-7659150D02*
X6179587Y-7659150D01*
X6131968Y-7592484D02*
X6131968Y-7763912D01*
X6131968Y-7763912D02*
X6141492Y-7782960D01*
X6141492Y-7782960D02*
X6160539Y-7792484D01*
X6160539Y-7792484D02*
X6179587Y-7792484D01*
X6236730Y-7782960D02*
X6255777Y-7792484D01*
X6255777Y-7792484D02*
X6293873Y-7792484D01*
X6293873Y-7792484D02*
X6312920Y-7782960D01*
X6312920Y-7782960D02*
X6322444Y-7763912D01*
X6322444Y-7763912D02*
X6322444Y-7754388D01*
X6322444Y-7754388D02*
X6312920Y-7735341D01*
X6312920Y-7735341D02*
X6293873Y-7725817D01*
X6293873Y-7725817D02*
X6265301Y-7725817D01*
X6265301Y-7725817D02*
X6246254Y-7716293D01*
X6246254Y-7716293D02*
X6236730Y-7697246D01*
X6236730Y-7697246D02*
X6236730Y-7687722D01*
X6236730Y-7687722D02*
X6246254Y-7668674D01*
X6246254Y-7668674D02*
X6265301Y-7659150D01*
X6265301Y-7659150D02*
X6293873Y-7659150D01*
X6293873Y-7659150D02*
X6312920Y-7668674D01*
X6389111Y-7868674D02*
X6398635Y-7859150D01*
X6398635Y-7859150D02*
X6417682Y-7830579D01*
X6417682Y-7830579D02*
X6427206Y-7811531D01*
X6427206Y-7811531D02*
X6436730Y-7782960D01*
X6436730Y-7782960D02*
X6446254Y-7735341D01*
X6446254Y-7735341D02*
X6446254Y-7697246D01*
X6446254Y-7697246D02*
X6436730Y-7649627D01*
X6436730Y-7649627D02*
X6427206Y-7621055D01*
X6427206Y-7621055D02*
X6417682Y-7602008D01*
X6417682Y-7602008D02*
X6398635Y-7573436D01*
X6398635Y-7573436D02*
X6389111Y-7563912D01*
D10*
X-80000Y-7927500D02*
X-5000Y-8002500D01*
X-5000Y-7927500D02*
X-80000Y-8002500D01*
X-5000Y-7965000D02*
G75*
G02*
X-80000Y-7965000I-37500J0D01*
G01*
X-80000Y-7965000D02*
G75*
G02*
X-5000Y-7965000I37500J0D01*
G01*
D11*
X293872Y-7856484D02*
X312920Y-7856484D01*
X312920Y-7856484D02*
X331967Y-7866008D01*
X331967Y-7866008D02*
X341491Y-7875531D01*
X341491Y-7875531D02*
X351015Y-7894579D01*
X351015Y-7894579D02*
X360539Y-7932674D01*
X360539Y-7932674D02*
X360539Y-7980293D01*
X360539Y-7980293D02*
X351015Y-8018388D01*
X351015Y-8018388D02*
X341491Y-8037436D01*
X341491Y-8037436D02*
X331967Y-8046960D01*
X331967Y-8046960D02*
X312920Y-8056484D01*
X312920Y-8056484D02*
X293872Y-8056484D01*
X293872Y-8056484D02*
X274824Y-8046960D01*
X274824Y-8046960D02*
X265301Y-8037436D01*
X265301Y-8037436D02*
X255777Y-8018388D01*
X255777Y-8018388D02*
X246253Y-7980293D01*
X246253Y-7980293D02*
X246253Y-7932674D01*
X246253Y-7932674D02*
X255777Y-7894579D01*
X255777Y-7894579D02*
X265301Y-7875531D01*
X265301Y-7875531D02*
X274824Y-7866008D01*
X274824Y-7866008D02*
X293872Y-7856484D01*
X446253Y-8037436D02*
X455777Y-8046960D01*
X455777Y-8046960D02*
X446253Y-8056484D01*
X446253Y-8056484D02*
X436729Y-8046960D01*
X436729Y-8046960D02*
X446253Y-8037436D01*
X446253Y-8037436D02*
X446253Y-8056484D01*
X522443Y-7856484D02*
X655777Y-7856484D01*
X655777Y-7856484D02*
X570063Y-8056484D01*
X827205Y-7856484D02*
X731967Y-7856484D01*
X731967Y-7856484D02*
X722443Y-7951722D01*
X722443Y-7951722D02*
X731967Y-7942198D01*
X731967Y-7942198D02*
X751015Y-7932674D01*
X751015Y-7932674D02*
X798634Y-7932674D01*
X798634Y-7932674D02*
X817682Y-7942198D01*
X817682Y-7942198D02*
X827205Y-7951722D01*
X827205Y-7951722D02*
X836729Y-7970769D01*
X836729Y-7970769D02*
X836729Y-8018388D01*
X836729Y-8018388D02*
X827205Y-8037436D01*
X827205Y-8037436D02*
X817682Y-8046960D01*
X817682Y-8046960D02*
X798634Y-8056484D01*
X798634Y-8056484D02*
X751015Y-8056484D01*
X751015Y-8056484D02*
X731967Y-8046960D01*
X731967Y-8046960D02*
X722443Y-8037436D01*
X960539Y-7856484D02*
X979586Y-7856484D01*
X979586Y-7856484D02*
X998634Y-7866008D01*
X998634Y-7866008D02*
X1008158Y-7875531D01*
X1008158Y-7875531D02*
X1017682Y-7894579D01*
X1017682Y-7894579D02*
X1027205Y-7932674D01*
X1027205Y-7932674D02*
X1027205Y-7980293D01*
X1027205Y-7980293D02*
X1017682Y-8018388D01*
X1017682Y-8018388D02*
X1008158Y-8037436D01*
X1008158Y-8037436D02*
X998634Y-8046960D01*
X998634Y-8046960D02*
X979586Y-8056484D01*
X979586Y-8056484D02*
X960539Y-8056484D01*
X960539Y-8056484D02*
X941491Y-8046960D01*
X941491Y-8046960D02*
X931967Y-8037436D01*
X931967Y-8037436D02*
X922443Y-8018388D01*
X922443Y-8018388D02*
X912920Y-7980293D01*
X912920Y-7980293D02*
X912920Y-7932674D01*
X912920Y-7932674D02*
X922443Y-7894579D01*
X922443Y-7894579D02*
X931967Y-7875531D01*
X931967Y-7875531D02*
X941491Y-7866008D01*
X941491Y-7866008D02*
X960539Y-7856484D01*
X1112920Y-8056484D02*
X1112920Y-7923150D01*
X1112920Y-7942198D02*
X1122444Y-7932674D01*
X1122444Y-7932674D02*
X1141491Y-7923150D01*
X1141491Y-7923150D02*
X1170063Y-7923150D01*
X1170063Y-7923150D02*
X1189110Y-7932674D01*
X1189110Y-7932674D02*
X1198634Y-7951722D01*
X1198634Y-7951722D02*
X1198634Y-8056484D01*
X1198634Y-7951722D02*
X1208158Y-7932674D01*
X1208158Y-7932674D02*
X1227205Y-7923150D01*
X1227205Y-7923150D02*
X1255777Y-7923150D01*
X1255777Y-7923150D02*
X1274825Y-7932674D01*
X1274825Y-7932674D02*
X1284348Y-7951722D01*
X1284348Y-7951722D02*
X1284348Y-8056484D01*
X1379586Y-8056484D02*
X1379586Y-7923150D01*
X1379586Y-7942198D02*
X1389110Y-7932674D01*
X1389110Y-7932674D02*
X1408158Y-7923150D01*
X1408158Y-7923150D02*
X1436729Y-7923150D01*
X1436729Y-7923150D02*
X1455777Y-7932674D01*
X1455777Y-7932674D02*
X1465301Y-7951722D01*
X1465301Y-7951722D02*
X1465301Y-8056484D01*
X1465301Y-7951722D02*
X1474824Y-7932674D01*
X1474824Y-7932674D02*
X1493872Y-7923150D01*
X1493872Y-7923150D02*
X1522443Y-7923150D01*
X1522443Y-7923150D02*
X1541491Y-7932674D01*
X1541491Y-7932674D02*
X1551015Y-7951722D01*
X1551015Y-7951722D02*
X1551015Y-8056484D01*
X1941491Y-7846960D02*
X1770063Y-8104103D01*
X2198634Y-7856484D02*
X2217682Y-7856484D01*
X2217682Y-7856484D02*
X2236729Y-7866008D01*
X2236729Y-7866008D02*
X2246253Y-7875531D01*
X2246253Y-7875531D02*
X2255777Y-7894579D01*
X2255777Y-7894579D02*
X2265301Y-7932674D01*
X2265301Y-7932674D02*
X2265301Y-7980293D01*
X2265301Y-7980293D02*
X2255777Y-8018388D01*
X2255777Y-8018388D02*
X2246253Y-8037436D01*
X2246253Y-8037436D02*
X2236729Y-8046960D01*
X2236729Y-8046960D02*
X2217682Y-8056484D01*
X2217682Y-8056484D02*
X2198634Y-8056484D01*
X2198634Y-8056484D02*
X2179587Y-8046960D01*
X2179587Y-8046960D02*
X2170063Y-8037436D01*
X2170063Y-8037436D02*
X2160539Y-8018388D01*
X2160539Y-8018388D02*
X2151015Y-7980293D01*
X2151015Y-7980293D02*
X2151015Y-7932674D01*
X2151015Y-7932674D02*
X2160539Y-7894579D01*
X2160539Y-7894579D02*
X2170063Y-7875531D01*
X2170063Y-7875531D02*
X2179587Y-7866008D01*
X2179587Y-7866008D02*
X2198634Y-7856484D01*
X2351015Y-8037436D02*
X2360539Y-8046960D01*
X2360539Y-8046960D02*
X2351015Y-8056484D01*
X2351015Y-8056484D02*
X2341491Y-8046960D01*
X2341491Y-8046960D02*
X2351015Y-8037436D01*
X2351015Y-8037436D02*
X2351015Y-8056484D01*
X2484348Y-7856484D02*
X2503396Y-7856484D01*
X2503396Y-7856484D02*
X2522444Y-7866008D01*
X2522444Y-7866008D02*
X2531968Y-7875531D01*
X2531968Y-7875531D02*
X2541491Y-7894579D01*
X2541491Y-7894579D02*
X2551015Y-7932674D01*
X2551015Y-7932674D02*
X2551015Y-7980293D01*
X2551015Y-7980293D02*
X2541491Y-8018388D01*
X2541491Y-8018388D02*
X2531968Y-8037436D01*
X2531968Y-8037436D02*
X2522444Y-8046960D01*
X2522444Y-8046960D02*
X2503396Y-8056484D01*
X2503396Y-8056484D02*
X2484348Y-8056484D01*
X2484348Y-8056484D02*
X2465301Y-8046960D01*
X2465301Y-8046960D02*
X2455777Y-8037436D01*
X2455777Y-8037436D02*
X2446253Y-8018388D01*
X2446253Y-8018388D02*
X2436729Y-7980293D01*
X2436729Y-7980293D02*
X2436729Y-7932674D01*
X2436729Y-7932674D02*
X2446253Y-7894579D01*
X2446253Y-7894579D02*
X2455777Y-7875531D01*
X2455777Y-7875531D02*
X2465301Y-7866008D01*
X2465301Y-7866008D02*
X2484348Y-7856484D01*
X2627206Y-7875531D02*
X2636729Y-7866008D01*
X2636729Y-7866008D02*
X2655777Y-7856484D01*
X2655777Y-7856484D02*
X2703396Y-7856484D01*
X2703396Y-7856484D02*
X2722444Y-7866008D01*
X2722444Y-7866008D02*
X2731968Y-7875531D01*
X2731968Y-7875531D02*
X2741491Y-7894579D01*
X2741491Y-7894579D02*
X2741491Y-7913627D01*
X2741491Y-7913627D02*
X2731968Y-7942198D01*
X2731968Y-7942198D02*
X2617682Y-8056484D01*
X2617682Y-8056484D02*
X2741491Y-8056484D01*
X2836729Y-8056484D02*
X2874825Y-8056484D01*
X2874825Y-8056484D02*
X2893872Y-8046960D01*
X2893872Y-8046960D02*
X2903396Y-8037436D01*
X2903396Y-8037436D02*
X2922444Y-8008865D01*
X2922444Y-8008865D02*
X2931967Y-7970769D01*
X2931967Y-7970769D02*
X2931967Y-7894579D01*
X2931967Y-7894579D02*
X2922444Y-7875531D01*
X2922444Y-7875531D02*
X2912920Y-7866008D01*
X2912920Y-7866008D02*
X2893872Y-7856484D01*
X2893872Y-7856484D02*
X2855777Y-7856484D01*
X2855777Y-7856484D02*
X2836729Y-7866008D01*
X2836729Y-7866008D02*
X2827206Y-7875531D01*
X2827206Y-7875531D02*
X2817682Y-7894579D01*
X2817682Y-7894579D02*
X2817682Y-7942198D01*
X2817682Y-7942198D02*
X2827206Y-7961246D01*
X2827206Y-7961246D02*
X2836729Y-7970769D01*
X2836729Y-7970769D02*
X2855777Y-7980293D01*
X2855777Y-7980293D02*
X2893872Y-7980293D01*
X2893872Y-7980293D02*
X2912920Y-7970769D01*
X2912920Y-7970769D02*
X2922444Y-7961246D01*
X2922444Y-7961246D02*
X2931967Y-7942198D01*
X3112920Y-7856484D02*
X3017682Y-7856484D01*
X3017682Y-7856484D02*
X3008158Y-7951722D01*
X3008158Y-7951722D02*
X3017682Y-7942198D01*
X3017682Y-7942198D02*
X3036729Y-7932674D01*
X3036729Y-7932674D02*
X3084348Y-7932674D01*
X3084348Y-7932674D02*
X3103396Y-7942198D01*
X3103396Y-7942198D02*
X3112920Y-7951722D01*
X3112920Y-7951722D02*
X3122444Y-7970769D01*
X3122444Y-7970769D02*
X3122444Y-8018388D01*
X3122444Y-8018388D02*
X3112920Y-8037436D01*
X3112920Y-8037436D02*
X3103396Y-8046960D01*
X3103396Y-8046960D02*
X3084348Y-8056484D01*
X3084348Y-8056484D02*
X3036729Y-8056484D01*
X3036729Y-8056484D02*
X3017682Y-8046960D01*
X3017682Y-8046960D02*
X3008158Y-8037436D01*
X3198634Y-7856484D02*
X3198634Y-7894579D01*
X3274825Y-7856484D02*
X3274825Y-7894579D01*
X3570063Y-8132674D02*
X3560539Y-8123150D01*
X3560539Y-8123150D02*
X3541491Y-8094579D01*
X3541491Y-8094579D02*
X3531968Y-8075531D01*
X3531968Y-8075531D02*
X3522444Y-8046960D01*
X3522444Y-8046960D02*
X3512920Y-7999341D01*
X3512920Y-7999341D02*
X3512920Y-7961246D01*
X3512920Y-7961246D02*
X3522444Y-7913627D01*
X3522444Y-7913627D02*
X3531968Y-7885055D01*
X3531968Y-7885055D02*
X3541491Y-7866008D01*
X3541491Y-7866008D02*
X3560539Y-7837436D01*
X3560539Y-7837436D02*
X3570063Y-7827912D01*
X3731968Y-7923150D02*
X3731968Y-8056484D01*
X3684348Y-7846960D02*
X3636729Y-7989817D01*
X3636729Y-7989817D02*
X3760539Y-7989817D01*
X3989110Y-8056484D02*
X3989110Y-7856484D01*
X4074825Y-8056484D02*
X4074825Y-7951722D01*
X4074825Y-7951722D02*
X4065301Y-7932674D01*
X4065301Y-7932674D02*
X4046253Y-7923150D01*
X4046253Y-7923150D02*
X4017682Y-7923150D01*
X4017682Y-7923150D02*
X3998634Y-7932674D01*
X3998634Y-7932674D02*
X3989110Y-7942198D01*
X4198634Y-8056484D02*
X4179587Y-8046960D01*
X4179587Y-8046960D02*
X4170063Y-8037436D01*
X4170063Y-8037436D02*
X4160539Y-8018388D01*
X4160539Y-8018388D02*
X4160539Y-7961246D01*
X4160539Y-7961246D02*
X4170063Y-7942198D01*
X4170063Y-7942198D02*
X4179587Y-7932674D01*
X4179587Y-7932674D02*
X4198634Y-7923150D01*
X4198634Y-7923150D02*
X4227206Y-7923150D01*
X4227206Y-7923150D02*
X4246253Y-7932674D01*
X4246253Y-7932674D02*
X4255777Y-7942198D01*
X4255777Y-7942198D02*
X4265301Y-7961246D01*
X4265301Y-7961246D02*
X4265301Y-8018388D01*
X4265301Y-8018388D02*
X4255777Y-8037436D01*
X4255777Y-8037436D02*
X4246253Y-8046960D01*
X4246253Y-8046960D02*
X4227206Y-8056484D01*
X4227206Y-8056484D02*
X4198634Y-8056484D01*
X4379587Y-8056484D02*
X4360539Y-8046960D01*
X4360539Y-8046960D02*
X4351015Y-8027912D01*
X4351015Y-8027912D02*
X4351015Y-7856484D01*
X4531968Y-8046960D02*
X4512920Y-8056484D01*
X4512920Y-8056484D02*
X4474825Y-8056484D01*
X4474825Y-8056484D02*
X4455777Y-8046960D01*
X4455777Y-8046960D02*
X4446253Y-8027912D01*
X4446253Y-8027912D02*
X4446253Y-7951722D01*
X4446253Y-7951722D02*
X4455777Y-7932674D01*
X4455777Y-7932674D02*
X4474825Y-7923150D01*
X4474825Y-7923150D02*
X4512920Y-7923150D01*
X4512920Y-7923150D02*
X4531968Y-7932674D01*
X4531968Y-7932674D02*
X4541492Y-7951722D01*
X4541492Y-7951722D02*
X4541492Y-7970769D01*
X4541492Y-7970769D02*
X4446253Y-7989817D01*
X4617682Y-8046960D02*
X4636730Y-8056484D01*
X4636730Y-8056484D02*
X4674825Y-8056484D01*
X4674825Y-8056484D02*
X4693873Y-8046960D01*
X4693873Y-8046960D02*
X4703396Y-8027912D01*
X4703396Y-8027912D02*
X4703396Y-8018388D01*
X4703396Y-8018388D02*
X4693873Y-7999341D01*
X4693873Y-7999341D02*
X4674825Y-7989817D01*
X4674825Y-7989817D02*
X4646253Y-7989817D01*
X4646253Y-7989817D02*
X4627206Y-7980293D01*
X4627206Y-7980293D02*
X4617682Y-7961246D01*
X4617682Y-7961246D02*
X4617682Y-7951722D01*
X4617682Y-7951722D02*
X4627206Y-7932674D01*
X4627206Y-7932674D02*
X4646253Y-7923150D01*
X4646253Y-7923150D02*
X4674825Y-7923150D01*
X4674825Y-7923150D02*
X4693873Y-7932674D01*
X4770063Y-8132674D02*
X4779587Y-8123150D01*
X4779587Y-8123150D02*
X4798634Y-8094579D01*
X4798634Y-8094579D02*
X4808158Y-8075531D01*
X4808158Y-8075531D02*
X4817682Y-8046960D01*
X4817682Y-8046960D02*
X4827206Y-7999341D01*
X4827206Y-7999341D02*
X4827206Y-7961246D01*
X4827206Y-7961246D02*
X4817682Y-7913627D01*
X4817682Y-7913627D02*
X4808158Y-7885055D01*
X4808158Y-7885055D02*
X4798634Y-7866008D01*
X4798634Y-7866008D02*
X4779587Y-7837436D01*
X4779587Y-7837436D02*
X4770063Y-7827912D01*
D10*
X-105000Y-8179000D02*
X-5000Y-8279000D01*
X-5000Y-8179000D02*
X-105000Y-8279000D01*
X-55000Y-8179000D02*
X-55000Y-8279000D01*
X-105000Y-8229000D02*
X-5000Y-8229000D01*
D11*
X360539Y-8320484D02*
X246253Y-8320484D01*
X303396Y-8320484D02*
X303396Y-8120484D01*
X303396Y-8120484D02*
X284348Y-8149055D01*
X284348Y-8149055D02*
X265301Y-8168103D01*
X265301Y-8168103D02*
X246253Y-8177627D01*
X446253Y-8301436D02*
X455777Y-8310960D01*
X455777Y-8310960D02*
X446253Y-8320484D01*
X446253Y-8320484D02*
X436729Y-8310960D01*
X436729Y-8310960D02*
X446253Y-8301436D01*
X446253Y-8301436D02*
X446253Y-8320484D01*
X579586Y-8120484D02*
X598634Y-8120484D01*
X598634Y-8120484D02*
X617682Y-8130008D01*
X617682Y-8130008D02*
X627205Y-8139531D01*
X627205Y-8139531D02*
X636729Y-8158579D01*
X636729Y-8158579D02*
X646253Y-8196674D01*
X646253Y-8196674D02*
X646253Y-8244293D01*
X646253Y-8244293D02*
X636729Y-8282388D01*
X636729Y-8282388D02*
X627205Y-8301436D01*
X627205Y-8301436D02*
X617682Y-8310960D01*
X617682Y-8310960D02*
X598634Y-8320484D01*
X598634Y-8320484D02*
X579586Y-8320484D01*
X579586Y-8320484D02*
X560539Y-8310960D01*
X560539Y-8310960D02*
X551015Y-8301436D01*
X551015Y-8301436D02*
X541491Y-8282388D01*
X541491Y-8282388D02*
X531967Y-8244293D01*
X531967Y-8244293D02*
X531967Y-8196674D01*
X531967Y-8196674D02*
X541491Y-8158579D01*
X541491Y-8158579D02*
X551015Y-8139531D01*
X551015Y-8139531D02*
X560539Y-8130008D01*
X560539Y-8130008D02*
X579586Y-8120484D01*
X770062Y-8120484D02*
X789110Y-8120484D01*
X789110Y-8120484D02*
X808158Y-8130008D01*
X808158Y-8130008D02*
X817682Y-8139531D01*
X817682Y-8139531D02*
X827205Y-8158579D01*
X827205Y-8158579D02*
X836729Y-8196674D01*
X836729Y-8196674D02*
X836729Y-8244293D01*
X836729Y-8244293D02*
X827205Y-8282388D01*
X827205Y-8282388D02*
X817682Y-8301436D01*
X817682Y-8301436D02*
X808158Y-8310960D01*
X808158Y-8310960D02*
X789110Y-8320484D01*
X789110Y-8320484D02*
X770062Y-8320484D01*
X770062Y-8320484D02*
X751015Y-8310960D01*
X751015Y-8310960D02*
X741491Y-8301436D01*
X741491Y-8301436D02*
X731967Y-8282388D01*
X731967Y-8282388D02*
X722443Y-8244293D01*
X722443Y-8244293D02*
X722443Y-8196674D01*
X722443Y-8196674D02*
X731967Y-8158579D01*
X731967Y-8158579D02*
X741491Y-8139531D01*
X741491Y-8139531D02*
X751015Y-8130008D01*
X751015Y-8130008D02*
X770062Y-8120484D01*
X960539Y-8120484D02*
X979586Y-8120484D01*
X979586Y-8120484D02*
X998634Y-8130008D01*
X998634Y-8130008D02*
X1008158Y-8139531D01*
X1008158Y-8139531D02*
X1017682Y-8158579D01*
X1017682Y-8158579D02*
X1027205Y-8196674D01*
X1027205Y-8196674D02*
X1027205Y-8244293D01*
X1027205Y-8244293D02*
X1017682Y-8282388D01*
X1017682Y-8282388D02*
X1008158Y-8301436D01*
X1008158Y-8301436D02*
X998634Y-8310960D01*
X998634Y-8310960D02*
X979586Y-8320484D01*
X979586Y-8320484D02*
X960539Y-8320484D01*
X960539Y-8320484D02*
X941491Y-8310960D01*
X941491Y-8310960D02*
X931967Y-8301436D01*
X931967Y-8301436D02*
X922443Y-8282388D01*
X922443Y-8282388D02*
X912920Y-8244293D01*
X912920Y-8244293D02*
X912920Y-8196674D01*
X912920Y-8196674D02*
X922443Y-8158579D01*
X922443Y-8158579D02*
X931967Y-8139531D01*
X931967Y-8139531D02*
X941491Y-8130008D01*
X941491Y-8130008D02*
X960539Y-8120484D01*
X1112920Y-8320484D02*
X1112920Y-8187150D01*
X1112920Y-8206198D02*
X1122444Y-8196674D01*
X1122444Y-8196674D02*
X1141491Y-8187150D01*
X1141491Y-8187150D02*
X1170063Y-8187150D01*
X1170063Y-8187150D02*
X1189110Y-8196674D01*
X1189110Y-8196674D02*
X1198634Y-8215722D01*
X1198634Y-8215722D02*
X1198634Y-8320484D01*
X1198634Y-8215722D02*
X1208158Y-8196674D01*
X1208158Y-8196674D02*
X1227205Y-8187150D01*
X1227205Y-8187150D02*
X1255777Y-8187150D01*
X1255777Y-8187150D02*
X1274825Y-8196674D01*
X1274825Y-8196674D02*
X1284348Y-8215722D01*
X1284348Y-8215722D02*
X1284348Y-8320484D01*
X1379586Y-8320484D02*
X1379586Y-8187150D01*
X1379586Y-8206198D02*
X1389110Y-8196674D01*
X1389110Y-8196674D02*
X1408158Y-8187150D01*
X1408158Y-8187150D02*
X1436729Y-8187150D01*
X1436729Y-8187150D02*
X1455777Y-8196674D01*
X1455777Y-8196674D02*
X1465301Y-8215722D01*
X1465301Y-8215722D02*
X1465301Y-8320484D01*
X1465301Y-8215722D02*
X1474824Y-8196674D01*
X1474824Y-8196674D02*
X1493872Y-8187150D01*
X1493872Y-8187150D02*
X1522443Y-8187150D01*
X1522443Y-8187150D02*
X1541491Y-8196674D01*
X1541491Y-8196674D02*
X1551015Y-8215722D01*
X1551015Y-8215722D02*
X1551015Y-8320484D01*
X1941491Y-8110960D02*
X1770063Y-8368103D01*
X2198634Y-8120484D02*
X2217682Y-8120484D01*
X2217682Y-8120484D02*
X2236729Y-8130008D01*
X2236729Y-8130008D02*
X2246253Y-8139531D01*
X2246253Y-8139531D02*
X2255777Y-8158579D01*
X2255777Y-8158579D02*
X2265301Y-8196674D01*
X2265301Y-8196674D02*
X2265301Y-8244293D01*
X2265301Y-8244293D02*
X2255777Y-8282388D01*
X2255777Y-8282388D02*
X2246253Y-8301436D01*
X2246253Y-8301436D02*
X2236729Y-8310960D01*
X2236729Y-8310960D02*
X2217682Y-8320484D01*
X2217682Y-8320484D02*
X2198634Y-8320484D01*
X2198634Y-8320484D02*
X2179587Y-8310960D01*
X2179587Y-8310960D02*
X2170063Y-8301436D01*
X2170063Y-8301436D02*
X2160539Y-8282388D01*
X2160539Y-8282388D02*
X2151015Y-8244293D01*
X2151015Y-8244293D02*
X2151015Y-8196674D01*
X2151015Y-8196674D02*
X2160539Y-8158579D01*
X2160539Y-8158579D02*
X2170063Y-8139531D01*
X2170063Y-8139531D02*
X2179587Y-8130008D01*
X2179587Y-8130008D02*
X2198634Y-8120484D01*
X2351015Y-8301436D02*
X2360539Y-8310960D01*
X2360539Y-8310960D02*
X2351015Y-8320484D01*
X2351015Y-8320484D02*
X2341491Y-8310960D01*
X2341491Y-8310960D02*
X2351015Y-8301436D01*
X2351015Y-8301436D02*
X2351015Y-8320484D01*
X2484348Y-8120484D02*
X2503396Y-8120484D01*
X2503396Y-8120484D02*
X2522444Y-8130008D01*
X2522444Y-8130008D02*
X2531968Y-8139531D01*
X2531968Y-8139531D02*
X2541491Y-8158579D01*
X2541491Y-8158579D02*
X2551015Y-8196674D01*
X2551015Y-8196674D02*
X2551015Y-8244293D01*
X2551015Y-8244293D02*
X2541491Y-8282388D01*
X2541491Y-8282388D02*
X2531968Y-8301436D01*
X2531968Y-8301436D02*
X2522444Y-8310960D01*
X2522444Y-8310960D02*
X2503396Y-8320484D01*
X2503396Y-8320484D02*
X2484348Y-8320484D01*
X2484348Y-8320484D02*
X2465301Y-8310960D01*
X2465301Y-8310960D02*
X2455777Y-8301436D01*
X2455777Y-8301436D02*
X2446253Y-8282388D01*
X2446253Y-8282388D02*
X2436729Y-8244293D01*
X2436729Y-8244293D02*
X2436729Y-8196674D01*
X2436729Y-8196674D02*
X2446253Y-8158579D01*
X2446253Y-8158579D02*
X2455777Y-8139531D01*
X2455777Y-8139531D02*
X2465301Y-8130008D01*
X2465301Y-8130008D02*
X2484348Y-8120484D01*
X2617682Y-8120484D02*
X2741491Y-8120484D01*
X2741491Y-8120484D02*
X2674825Y-8196674D01*
X2674825Y-8196674D02*
X2703396Y-8196674D01*
X2703396Y-8196674D02*
X2722444Y-8206198D01*
X2722444Y-8206198D02*
X2731968Y-8215722D01*
X2731968Y-8215722D02*
X2741491Y-8234769D01*
X2741491Y-8234769D02*
X2741491Y-8282388D01*
X2741491Y-8282388D02*
X2731968Y-8301436D01*
X2731968Y-8301436D02*
X2722444Y-8310960D01*
X2722444Y-8310960D02*
X2703396Y-8320484D01*
X2703396Y-8320484D02*
X2646253Y-8320484D01*
X2646253Y-8320484D02*
X2627206Y-8310960D01*
X2627206Y-8310960D02*
X2617682Y-8301436D01*
X2836729Y-8320484D02*
X2874825Y-8320484D01*
X2874825Y-8320484D02*
X2893872Y-8310960D01*
X2893872Y-8310960D02*
X2903396Y-8301436D01*
X2903396Y-8301436D02*
X2922444Y-8272865D01*
X2922444Y-8272865D02*
X2931967Y-8234769D01*
X2931967Y-8234769D02*
X2931967Y-8158579D01*
X2931967Y-8158579D02*
X2922444Y-8139531D01*
X2922444Y-8139531D02*
X2912920Y-8130008D01*
X2912920Y-8130008D02*
X2893872Y-8120484D01*
X2893872Y-8120484D02*
X2855777Y-8120484D01*
X2855777Y-8120484D02*
X2836729Y-8130008D01*
X2836729Y-8130008D02*
X2827206Y-8139531D01*
X2827206Y-8139531D02*
X2817682Y-8158579D01*
X2817682Y-8158579D02*
X2817682Y-8206198D01*
X2817682Y-8206198D02*
X2827206Y-8225246D01*
X2827206Y-8225246D02*
X2836729Y-8234769D01*
X2836729Y-8234769D02*
X2855777Y-8244293D01*
X2855777Y-8244293D02*
X2893872Y-8244293D01*
X2893872Y-8244293D02*
X2912920Y-8234769D01*
X2912920Y-8234769D02*
X2922444Y-8225246D01*
X2922444Y-8225246D02*
X2931967Y-8206198D01*
X3103396Y-8187150D02*
X3103396Y-8320484D01*
X3055777Y-8110960D02*
X3008158Y-8253817D01*
X3008158Y-8253817D02*
X3131967Y-8253817D01*
X3198634Y-8120484D02*
X3198634Y-8158579D01*
X3274825Y-8120484D02*
X3274825Y-8158579D01*
X3570063Y-8396674D02*
X3560539Y-8387150D01*
X3560539Y-8387150D02*
X3541491Y-8358579D01*
X3541491Y-8358579D02*
X3531968Y-8339531D01*
X3531968Y-8339531D02*
X3522444Y-8310960D01*
X3522444Y-8310960D02*
X3512920Y-8263341D01*
X3512920Y-8263341D02*
X3512920Y-8225246D01*
X3512920Y-8225246D02*
X3522444Y-8177627D01*
X3522444Y-8177627D02*
X3531968Y-8149055D01*
X3531968Y-8149055D02*
X3541491Y-8130008D01*
X3541491Y-8130008D02*
X3560539Y-8101436D01*
X3560539Y-8101436D02*
X3570063Y-8091912D01*
X3636729Y-8139531D02*
X3646253Y-8130008D01*
X3646253Y-8130008D02*
X3665301Y-8120484D01*
X3665301Y-8120484D02*
X3712920Y-8120484D01*
X3712920Y-8120484D02*
X3731968Y-8130008D01*
X3731968Y-8130008D02*
X3741491Y-8139531D01*
X3741491Y-8139531D02*
X3751015Y-8158579D01*
X3751015Y-8158579D02*
X3751015Y-8177627D01*
X3751015Y-8177627D02*
X3741491Y-8206198D01*
X3741491Y-8206198D02*
X3627206Y-8320484D01*
X3627206Y-8320484D02*
X3751015Y-8320484D01*
X3874825Y-8120484D02*
X3893872Y-8120484D01*
X3893872Y-8120484D02*
X3912920Y-8130008D01*
X3912920Y-8130008D02*
X3922444Y-8139531D01*
X3922444Y-8139531D02*
X3931968Y-8158579D01*
X3931968Y-8158579D02*
X3941491Y-8196674D01*
X3941491Y-8196674D02*
X3941491Y-8244293D01*
X3941491Y-8244293D02*
X3931968Y-8282388D01*
X3931968Y-8282388D02*
X3922444Y-8301436D01*
X3922444Y-8301436D02*
X3912920Y-8310960D01*
X3912920Y-8310960D02*
X3893872Y-8320484D01*
X3893872Y-8320484D02*
X3874825Y-8320484D01*
X3874825Y-8320484D02*
X3855777Y-8310960D01*
X3855777Y-8310960D02*
X3846253Y-8301436D01*
X3846253Y-8301436D02*
X3836729Y-8282388D01*
X3836729Y-8282388D02*
X3827206Y-8244293D01*
X3827206Y-8244293D02*
X3827206Y-8196674D01*
X3827206Y-8196674D02*
X3836729Y-8158579D01*
X3836729Y-8158579D02*
X3846253Y-8139531D01*
X3846253Y-8139531D02*
X3855777Y-8130008D01*
X3855777Y-8130008D02*
X3874825Y-8120484D01*
X4179587Y-8320484D02*
X4179587Y-8120484D01*
X4265301Y-8320484D02*
X4265301Y-8215722D01*
X4265301Y-8215722D02*
X4255777Y-8196674D01*
X4255777Y-8196674D02*
X4236730Y-8187150D01*
X4236730Y-8187150D02*
X4208158Y-8187150D01*
X4208158Y-8187150D02*
X4189110Y-8196674D01*
X4189110Y-8196674D02*
X4179587Y-8206198D01*
X4389111Y-8320484D02*
X4370063Y-8310960D01*
X4370063Y-8310960D02*
X4360539Y-8301436D01*
X4360539Y-8301436D02*
X4351015Y-8282388D01*
X4351015Y-8282388D02*
X4351015Y-8225246D01*
X4351015Y-8225246D02*
X4360539Y-8206198D01*
X4360539Y-8206198D02*
X4370063Y-8196674D01*
X4370063Y-8196674D02*
X4389111Y-8187150D01*
X4389111Y-8187150D02*
X4417682Y-8187150D01*
X4417682Y-8187150D02*
X4436730Y-8196674D01*
X4436730Y-8196674D02*
X4446253Y-8206198D01*
X4446253Y-8206198D02*
X4455777Y-8225246D01*
X4455777Y-8225246D02*
X4455777Y-8282388D01*
X4455777Y-8282388D02*
X4446253Y-8301436D01*
X4446253Y-8301436D02*
X4436730Y-8310960D01*
X4436730Y-8310960D02*
X4417682Y-8320484D01*
X4417682Y-8320484D02*
X4389111Y-8320484D01*
X4570063Y-8320484D02*
X4551015Y-8310960D01*
X4551015Y-8310960D02*
X4541492Y-8291912D01*
X4541492Y-8291912D02*
X4541492Y-8120484D01*
X4722444Y-8310960D02*
X4703396Y-8320484D01*
X4703396Y-8320484D02*
X4665301Y-8320484D01*
X4665301Y-8320484D02*
X4646253Y-8310960D01*
X4646253Y-8310960D02*
X4636730Y-8291912D01*
X4636730Y-8291912D02*
X4636730Y-8215722D01*
X4636730Y-8215722D02*
X4646253Y-8196674D01*
X4646253Y-8196674D02*
X4665301Y-8187150D01*
X4665301Y-8187150D02*
X4703396Y-8187150D01*
X4703396Y-8187150D02*
X4722444Y-8196674D01*
X4722444Y-8196674D02*
X4731968Y-8215722D01*
X4731968Y-8215722D02*
X4731968Y-8234769D01*
X4731968Y-8234769D02*
X4636730Y-8253817D01*
X4808158Y-8310960D02*
X4827206Y-8320484D01*
X4827206Y-8320484D02*
X4865301Y-8320484D01*
X4865301Y-8320484D02*
X4884349Y-8310960D01*
X4884349Y-8310960D02*
X4893873Y-8291912D01*
X4893873Y-8291912D02*
X4893873Y-8282388D01*
X4893873Y-8282388D02*
X4884349Y-8263341D01*
X4884349Y-8263341D02*
X4865301Y-8253817D01*
X4865301Y-8253817D02*
X4836730Y-8253817D01*
X4836730Y-8253817D02*
X4817682Y-8244293D01*
X4817682Y-8244293D02*
X4808158Y-8225246D01*
X4808158Y-8225246D02*
X4808158Y-8215722D01*
X4808158Y-8215722D02*
X4817682Y-8196674D01*
X4817682Y-8196674D02*
X4836730Y-8187150D01*
X4836730Y-8187150D02*
X4865301Y-8187150D01*
X4865301Y-8187150D02*
X4884349Y-8196674D01*
X4960539Y-8396674D02*
X4970063Y-8387150D01*
X4970063Y-8387150D02*
X4989111Y-8358579D01*
X4989111Y-8358579D02*
X4998634Y-8339531D01*
X4998634Y-8339531D02*
X5008158Y-8310960D01*
X5008158Y-8310960D02*
X5017682Y-8263341D01*
X5017682Y-8263341D02*
X5017682Y-8225246D01*
X5017682Y-8225246D02*
X5008158Y-8177627D01*
X5008158Y-8177627D02*
X4998634Y-8149055D01*
X4998634Y-8149055D02*
X4989111Y-8130008D01*
X4989111Y-8130008D02*
X4970063Y-8101436D01*
X4970063Y-8101436D02*
X4960539Y-8091912D01*
D12*
X-165000Y-8413000D02*
X-5000Y-8573000D01*
X-5000Y-8413000D02*
X-165000Y-8573000D01*
X-28431Y-8549569D02*
X-28431Y-8436431D01*
X-141569Y-8436431D01*
X-141569Y-8549569D01*
X-28431Y-8549569D01*
D11*
X360539Y-8584484D02*
X246253Y-8584484D01*
X303396Y-8584484D02*
X303396Y-8384484D01*
X303396Y-8384484D02*
X284348Y-8413055D01*
X284348Y-8413055D02*
X265301Y-8432103D01*
X265301Y-8432103D02*
X246253Y-8441627D01*
X446253Y-8565436D02*
X455777Y-8574960D01*
X455777Y-8574960D02*
X446253Y-8584484D01*
X446253Y-8584484D02*
X436729Y-8574960D01*
X436729Y-8574960D02*
X446253Y-8565436D01*
X446253Y-8565436D02*
X446253Y-8584484D01*
X627205Y-8384484D02*
X589110Y-8384484D01*
X589110Y-8384484D02*
X570063Y-8394008D01*
X570063Y-8394008D02*
X560539Y-8403531D01*
X560539Y-8403531D02*
X541491Y-8432103D01*
X541491Y-8432103D02*
X531967Y-8470198D01*
X531967Y-8470198D02*
X531967Y-8546389D01*
X531967Y-8546389D02*
X541491Y-8565436D01*
X541491Y-8565436D02*
X551015Y-8574960D01*
X551015Y-8574960D02*
X570063Y-8584484D01*
X570063Y-8584484D02*
X608158Y-8584484D01*
X608158Y-8584484D02*
X627205Y-8574960D01*
X627205Y-8574960D02*
X636729Y-8565436D01*
X636729Y-8565436D02*
X646253Y-8546389D01*
X646253Y-8546389D02*
X646253Y-8498770D01*
X646253Y-8498770D02*
X636729Y-8479722D01*
X636729Y-8479722D02*
X627205Y-8470198D01*
X627205Y-8470198D02*
X608158Y-8460674D01*
X608158Y-8460674D02*
X570063Y-8460674D01*
X570063Y-8460674D02*
X551015Y-8470198D01*
X551015Y-8470198D02*
X541491Y-8479722D01*
X541491Y-8479722D02*
X531967Y-8498770D01*
X770062Y-8384484D02*
X789110Y-8384484D01*
X789110Y-8384484D02*
X808158Y-8394008D01*
X808158Y-8394008D02*
X817682Y-8403531D01*
X817682Y-8403531D02*
X827205Y-8422579D01*
X827205Y-8422579D02*
X836729Y-8460674D01*
X836729Y-8460674D02*
X836729Y-8508293D01*
X836729Y-8508293D02*
X827205Y-8546389D01*
X827205Y-8546389D02*
X817682Y-8565436D01*
X817682Y-8565436D02*
X808158Y-8574960D01*
X808158Y-8574960D02*
X789110Y-8584484D01*
X789110Y-8584484D02*
X770062Y-8584484D01*
X770062Y-8584484D02*
X751015Y-8574960D01*
X751015Y-8574960D02*
X741491Y-8565436D01*
X741491Y-8565436D02*
X731967Y-8546389D01*
X731967Y-8546389D02*
X722443Y-8508293D01*
X722443Y-8508293D02*
X722443Y-8460674D01*
X722443Y-8460674D02*
X731967Y-8422579D01*
X731967Y-8422579D02*
X741491Y-8403531D01*
X741491Y-8403531D02*
X751015Y-8394008D01*
X751015Y-8394008D02*
X770062Y-8384484D01*
X960539Y-8384484D02*
X979586Y-8384484D01*
X979586Y-8384484D02*
X998634Y-8394008D01*
X998634Y-8394008D02*
X1008158Y-8403531D01*
X1008158Y-8403531D02*
X1017682Y-8422579D01*
X1017682Y-8422579D02*
X1027205Y-8460674D01*
X1027205Y-8460674D02*
X1027205Y-8508293D01*
X1027205Y-8508293D02*
X1017682Y-8546389D01*
X1017682Y-8546389D02*
X1008158Y-8565436D01*
X1008158Y-8565436D02*
X998634Y-8574960D01*
X998634Y-8574960D02*
X979586Y-8584484D01*
X979586Y-8584484D02*
X960539Y-8584484D01*
X960539Y-8584484D02*
X941491Y-8574960D01*
X941491Y-8574960D02*
X931967Y-8565436D01*
X931967Y-8565436D02*
X922443Y-8546389D01*
X922443Y-8546389D02*
X912920Y-8508293D01*
X912920Y-8508293D02*
X912920Y-8460674D01*
X912920Y-8460674D02*
X922443Y-8422579D01*
X922443Y-8422579D02*
X931967Y-8403531D01*
X931967Y-8403531D02*
X941491Y-8394008D01*
X941491Y-8394008D02*
X960539Y-8384484D01*
X1112920Y-8584484D02*
X1112920Y-8451150D01*
X1112920Y-8470198D02*
X1122444Y-8460674D01*
X1122444Y-8460674D02*
X1141491Y-8451150D01*
X1141491Y-8451150D02*
X1170063Y-8451150D01*
X1170063Y-8451150D02*
X1189110Y-8460674D01*
X1189110Y-8460674D02*
X1198634Y-8479722D01*
X1198634Y-8479722D02*
X1198634Y-8584484D01*
X1198634Y-8479722D02*
X1208158Y-8460674D01*
X1208158Y-8460674D02*
X1227205Y-8451150D01*
X1227205Y-8451150D02*
X1255777Y-8451150D01*
X1255777Y-8451150D02*
X1274825Y-8460674D01*
X1274825Y-8460674D02*
X1284348Y-8479722D01*
X1284348Y-8479722D02*
X1284348Y-8584484D01*
X1379586Y-8584484D02*
X1379586Y-8451150D01*
X1379586Y-8470198D02*
X1389110Y-8460674D01*
X1389110Y-8460674D02*
X1408158Y-8451150D01*
X1408158Y-8451150D02*
X1436729Y-8451150D01*
X1436729Y-8451150D02*
X1455777Y-8460674D01*
X1455777Y-8460674D02*
X1465301Y-8479722D01*
X1465301Y-8479722D02*
X1465301Y-8584484D01*
X1465301Y-8479722D02*
X1474824Y-8460674D01*
X1474824Y-8460674D02*
X1493872Y-8451150D01*
X1493872Y-8451150D02*
X1522443Y-8451150D01*
X1522443Y-8451150D02*
X1541491Y-8460674D01*
X1541491Y-8460674D02*
X1551015Y-8479722D01*
X1551015Y-8479722D02*
X1551015Y-8584484D01*
X1941491Y-8374960D02*
X1770063Y-8632103D01*
X2198634Y-8384484D02*
X2217682Y-8384484D01*
X2217682Y-8384484D02*
X2236729Y-8394008D01*
X2236729Y-8394008D02*
X2246253Y-8403531D01*
X2246253Y-8403531D02*
X2255777Y-8422579D01*
X2255777Y-8422579D02*
X2265301Y-8460674D01*
X2265301Y-8460674D02*
X2265301Y-8508293D01*
X2265301Y-8508293D02*
X2255777Y-8546389D01*
X2255777Y-8546389D02*
X2246253Y-8565436D01*
X2246253Y-8565436D02*
X2236729Y-8574960D01*
X2236729Y-8574960D02*
X2217682Y-8584484D01*
X2217682Y-8584484D02*
X2198634Y-8584484D01*
X2198634Y-8584484D02*
X2179587Y-8574960D01*
X2179587Y-8574960D02*
X2170063Y-8565436D01*
X2170063Y-8565436D02*
X2160539Y-8546389D01*
X2160539Y-8546389D02*
X2151015Y-8508293D01*
X2151015Y-8508293D02*
X2151015Y-8460674D01*
X2151015Y-8460674D02*
X2160539Y-8422579D01*
X2160539Y-8422579D02*
X2170063Y-8403531D01*
X2170063Y-8403531D02*
X2179587Y-8394008D01*
X2179587Y-8394008D02*
X2198634Y-8384484D01*
X2351015Y-8565436D02*
X2360539Y-8574960D01*
X2360539Y-8574960D02*
X2351015Y-8584484D01*
X2351015Y-8584484D02*
X2341491Y-8574960D01*
X2341491Y-8574960D02*
X2351015Y-8565436D01*
X2351015Y-8565436D02*
X2351015Y-8584484D01*
X2484348Y-8384484D02*
X2503396Y-8384484D01*
X2503396Y-8384484D02*
X2522444Y-8394008D01*
X2522444Y-8394008D02*
X2531968Y-8403531D01*
X2531968Y-8403531D02*
X2541491Y-8422579D01*
X2541491Y-8422579D02*
X2551015Y-8460674D01*
X2551015Y-8460674D02*
X2551015Y-8508293D01*
X2551015Y-8508293D02*
X2541491Y-8546389D01*
X2541491Y-8546389D02*
X2531968Y-8565436D01*
X2531968Y-8565436D02*
X2522444Y-8574960D01*
X2522444Y-8574960D02*
X2503396Y-8584484D01*
X2503396Y-8584484D02*
X2484348Y-8584484D01*
X2484348Y-8584484D02*
X2465301Y-8574960D01*
X2465301Y-8574960D02*
X2455777Y-8565436D01*
X2455777Y-8565436D02*
X2446253Y-8546389D01*
X2446253Y-8546389D02*
X2436729Y-8508293D01*
X2436729Y-8508293D02*
X2436729Y-8460674D01*
X2436729Y-8460674D02*
X2446253Y-8422579D01*
X2446253Y-8422579D02*
X2455777Y-8403531D01*
X2455777Y-8403531D02*
X2465301Y-8394008D01*
X2465301Y-8394008D02*
X2484348Y-8384484D01*
X2722444Y-8384484D02*
X2684348Y-8384484D01*
X2684348Y-8384484D02*
X2665301Y-8394008D01*
X2665301Y-8394008D02*
X2655777Y-8403531D01*
X2655777Y-8403531D02*
X2636729Y-8432103D01*
X2636729Y-8432103D02*
X2627206Y-8470198D01*
X2627206Y-8470198D02*
X2627206Y-8546389D01*
X2627206Y-8546389D02*
X2636729Y-8565436D01*
X2636729Y-8565436D02*
X2646253Y-8574960D01*
X2646253Y-8574960D02*
X2665301Y-8584484D01*
X2665301Y-8584484D02*
X2703396Y-8584484D01*
X2703396Y-8584484D02*
X2722444Y-8574960D01*
X2722444Y-8574960D02*
X2731968Y-8565436D01*
X2731968Y-8565436D02*
X2741491Y-8546389D01*
X2741491Y-8546389D02*
X2741491Y-8498770D01*
X2741491Y-8498770D02*
X2731968Y-8479722D01*
X2731968Y-8479722D02*
X2722444Y-8470198D01*
X2722444Y-8470198D02*
X2703396Y-8460674D01*
X2703396Y-8460674D02*
X2665301Y-8460674D01*
X2665301Y-8460674D02*
X2646253Y-8470198D01*
X2646253Y-8470198D02*
X2636729Y-8479722D01*
X2636729Y-8479722D02*
X2627206Y-8498770D01*
X2808158Y-8384484D02*
X2931967Y-8384484D01*
X2931967Y-8384484D02*
X2865301Y-8460674D01*
X2865301Y-8460674D02*
X2893872Y-8460674D01*
X2893872Y-8460674D02*
X2912920Y-8470198D01*
X2912920Y-8470198D02*
X2922444Y-8479722D01*
X2922444Y-8479722D02*
X2931967Y-8498770D01*
X2931967Y-8498770D02*
X2931967Y-8546389D01*
X2931967Y-8546389D02*
X2922444Y-8565436D01*
X2922444Y-8565436D02*
X2912920Y-8574960D01*
X2912920Y-8574960D02*
X2893872Y-8584484D01*
X2893872Y-8584484D02*
X2836729Y-8584484D01*
X2836729Y-8584484D02*
X2817682Y-8574960D01*
X2817682Y-8574960D02*
X2808158Y-8565436D01*
X3055777Y-8384484D02*
X3074825Y-8384484D01*
X3074825Y-8384484D02*
X3093872Y-8394008D01*
X3093872Y-8394008D02*
X3103396Y-8403531D01*
X3103396Y-8403531D02*
X3112920Y-8422579D01*
X3112920Y-8422579D02*
X3122444Y-8460674D01*
X3122444Y-8460674D02*
X3122444Y-8508293D01*
X3122444Y-8508293D02*
X3112920Y-8546389D01*
X3112920Y-8546389D02*
X3103396Y-8565436D01*
X3103396Y-8565436D02*
X3093872Y-8574960D01*
X3093872Y-8574960D02*
X3074825Y-8584484D01*
X3074825Y-8584484D02*
X3055777Y-8584484D01*
X3055777Y-8584484D02*
X3036729Y-8574960D01*
X3036729Y-8574960D02*
X3027206Y-8565436D01*
X3027206Y-8565436D02*
X3017682Y-8546389D01*
X3017682Y-8546389D02*
X3008158Y-8508293D01*
X3008158Y-8508293D02*
X3008158Y-8460674D01*
X3008158Y-8460674D02*
X3017682Y-8422579D01*
X3017682Y-8422579D02*
X3027206Y-8403531D01*
X3027206Y-8403531D02*
X3036729Y-8394008D01*
X3036729Y-8394008D02*
X3055777Y-8384484D01*
X3198634Y-8384484D02*
X3198634Y-8422579D01*
X3274825Y-8384484D02*
X3274825Y-8422579D01*
X3570063Y-8660674D02*
X3560539Y-8651150D01*
X3560539Y-8651150D02*
X3541491Y-8622579D01*
X3541491Y-8622579D02*
X3531968Y-8603531D01*
X3531968Y-8603531D02*
X3522444Y-8574960D01*
X3522444Y-8574960D02*
X3512920Y-8527341D01*
X3512920Y-8527341D02*
X3512920Y-8489246D01*
X3512920Y-8489246D02*
X3522444Y-8441627D01*
X3522444Y-8441627D02*
X3531968Y-8413055D01*
X3531968Y-8413055D02*
X3541491Y-8394008D01*
X3541491Y-8394008D02*
X3560539Y-8365436D01*
X3560539Y-8365436D02*
X3570063Y-8355912D01*
X3636729Y-8403531D02*
X3646253Y-8394008D01*
X3646253Y-8394008D02*
X3665301Y-8384484D01*
X3665301Y-8384484D02*
X3712920Y-8384484D01*
X3712920Y-8384484D02*
X3731968Y-8394008D01*
X3731968Y-8394008D02*
X3741491Y-8403531D01*
X3741491Y-8403531D02*
X3751015Y-8422579D01*
X3751015Y-8422579D02*
X3751015Y-8441627D01*
X3751015Y-8441627D02*
X3741491Y-8470198D01*
X3741491Y-8470198D02*
X3627206Y-8584484D01*
X3627206Y-8584484D02*
X3751015Y-8584484D01*
X3989110Y-8584484D02*
X3989110Y-8384484D01*
X4074825Y-8584484D02*
X4074825Y-8479722D01*
X4074825Y-8479722D02*
X4065301Y-8460674D01*
X4065301Y-8460674D02*
X4046253Y-8451150D01*
X4046253Y-8451150D02*
X4017682Y-8451150D01*
X4017682Y-8451150D02*
X3998634Y-8460674D01*
X3998634Y-8460674D02*
X3989110Y-8470198D01*
X4198634Y-8584484D02*
X4179587Y-8574960D01*
X4179587Y-8574960D02*
X4170063Y-8565436D01*
X4170063Y-8565436D02*
X4160539Y-8546389D01*
X4160539Y-8546389D02*
X4160539Y-8489246D01*
X4160539Y-8489246D02*
X4170063Y-8470198D01*
X4170063Y-8470198D02*
X4179587Y-8460674D01*
X4179587Y-8460674D02*
X4198634Y-8451150D01*
X4198634Y-8451150D02*
X4227206Y-8451150D01*
X4227206Y-8451150D02*
X4246253Y-8460674D01*
X4246253Y-8460674D02*
X4255777Y-8470198D01*
X4255777Y-8470198D02*
X4265301Y-8489246D01*
X4265301Y-8489246D02*
X4265301Y-8546389D01*
X4265301Y-8546389D02*
X4255777Y-8565436D01*
X4255777Y-8565436D02*
X4246253Y-8574960D01*
X4246253Y-8574960D02*
X4227206Y-8584484D01*
X4227206Y-8584484D02*
X4198634Y-8584484D01*
X4379587Y-8584484D02*
X4360539Y-8574960D01*
X4360539Y-8574960D02*
X4351015Y-8555912D01*
X4351015Y-8555912D02*
X4351015Y-8384484D01*
X4531968Y-8574960D02*
X4512920Y-8584484D01*
X4512920Y-8584484D02*
X4474825Y-8584484D01*
X4474825Y-8584484D02*
X4455777Y-8574960D01*
X4455777Y-8574960D02*
X4446253Y-8555912D01*
X4446253Y-8555912D02*
X4446253Y-8479722D01*
X4446253Y-8479722D02*
X4455777Y-8460674D01*
X4455777Y-8460674D02*
X4474825Y-8451150D01*
X4474825Y-8451150D02*
X4512920Y-8451150D01*
X4512920Y-8451150D02*
X4531968Y-8460674D01*
X4531968Y-8460674D02*
X4541492Y-8479722D01*
X4541492Y-8479722D02*
X4541492Y-8498770D01*
X4541492Y-8498770D02*
X4446253Y-8517817D01*
X4617682Y-8574960D02*
X4636730Y-8584484D01*
X4636730Y-8584484D02*
X4674825Y-8584484D01*
X4674825Y-8584484D02*
X4693873Y-8574960D01*
X4693873Y-8574960D02*
X4703396Y-8555912D01*
X4703396Y-8555912D02*
X4703396Y-8546389D01*
X4703396Y-8546389D02*
X4693873Y-8527341D01*
X4693873Y-8527341D02*
X4674825Y-8517817D01*
X4674825Y-8517817D02*
X4646253Y-8517817D01*
X4646253Y-8517817D02*
X4627206Y-8508293D01*
X4627206Y-8508293D02*
X4617682Y-8489246D01*
X4617682Y-8489246D02*
X4617682Y-8479722D01*
X4617682Y-8479722D02*
X4627206Y-8460674D01*
X4627206Y-8460674D02*
X4646253Y-8451150D01*
X4646253Y-8451150D02*
X4674825Y-8451150D01*
X4674825Y-8451150D02*
X4693873Y-8460674D01*
X4770063Y-8660674D02*
X4779587Y-8651150D01*
X4779587Y-8651150D02*
X4798634Y-8622579D01*
X4798634Y-8622579D02*
X4808158Y-8603531D01*
X4808158Y-8603531D02*
X4817682Y-8574960D01*
X4817682Y-8574960D02*
X4827206Y-8527341D01*
X4827206Y-8527341D02*
X4827206Y-8489246D01*
X4827206Y-8489246D02*
X4817682Y-8441627D01*
X4817682Y-8441627D02*
X4808158Y-8413055D01*
X4808158Y-8413055D02*
X4798634Y-8394008D01*
X4798634Y-8394008D02*
X4779587Y-8365436D01*
X4779587Y-8365436D02*
X4770063Y-8355912D01*
D13*
X-175000Y-8688000D02*
X-5000Y-8858000D01*
X-5000Y-8688000D02*
X-175000Y-8858000D01*
X-90000Y-8858000D02*
X-5000Y-8773000D01*
X-90000Y-8688000D01*
X-175000Y-8773000D01*
X-90000Y-8858000D01*
D11*
X360539Y-8864484D02*
X246253Y-8864484D01*
X303396Y-8864484D02*
X303396Y-8664484D01*
X303396Y-8664484D02*
X284348Y-8693055D01*
X284348Y-8693055D02*
X265301Y-8712103D01*
X265301Y-8712103D02*
X246253Y-8721627D01*
X446253Y-8845436D02*
X455777Y-8854960D01*
X455777Y-8854960D02*
X446253Y-8864484D01*
X446253Y-8864484D02*
X436729Y-8854960D01*
X436729Y-8854960D02*
X446253Y-8845436D01*
X446253Y-8845436D02*
X446253Y-8864484D01*
X522443Y-8664484D02*
X655777Y-8664484D01*
X655777Y-8664484D02*
X570063Y-8864484D01*
X770062Y-8664484D02*
X789110Y-8664484D01*
X789110Y-8664484D02*
X808158Y-8674008D01*
X808158Y-8674008D02*
X817682Y-8683531D01*
X817682Y-8683531D02*
X827205Y-8702579D01*
X827205Y-8702579D02*
X836729Y-8740674D01*
X836729Y-8740674D02*
X836729Y-8788293D01*
X836729Y-8788293D02*
X827205Y-8826389D01*
X827205Y-8826389D02*
X817682Y-8845436D01*
X817682Y-8845436D02*
X808158Y-8854960D01*
X808158Y-8854960D02*
X789110Y-8864484D01*
X789110Y-8864484D02*
X770062Y-8864484D01*
X770062Y-8864484D02*
X751015Y-8854960D01*
X751015Y-8854960D02*
X741491Y-8845436D01*
X741491Y-8845436D02*
X731967Y-8826389D01*
X731967Y-8826389D02*
X722443Y-8788293D01*
X722443Y-8788293D02*
X722443Y-8740674D01*
X722443Y-8740674D02*
X731967Y-8702579D01*
X731967Y-8702579D02*
X741491Y-8683531D01*
X741491Y-8683531D02*
X751015Y-8674008D01*
X751015Y-8674008D02*
X770062Y-8664484D01*
X960539Y-8664484D02*
X979586Y-8664484D01*
X979586Y-8664484D02*
X998634Y-8674008D01*
X998634Y-8674008D02*
X1008158Y-8683531D01*
X1008158Y-8683531D02*
X1017682Y-8702579D01*
X1017682Y-8702579D02*
X1027205Y-8740674D01*
X1027205Y-8740674D02*
X1027205Y-8788293D01*
X1027205Y-8788293D02*
X1017682Y-8826389D01*
X1017682Y-8826389D02*
X1008158Y-8845436D01*
X1008158Y-8845436D02*
X998634Y-8854960D01*
X998634Y-8854960D02*
X979586Y-8864484D01*
X979586Y-8864484D02*
X960539Y-8864484D01*
X960539Y-8864484D02*
X941491Y-8854960D01*
X941491Y-8854960D02*
X931967Y-8845436D01*
X931967Y-8845436D02*
X922443Y-8826389D01*
X922443Y-8826389D02*
X912920Y-8788293D01*
X912920Y-8788293D02*
X912920Y-8740674D01*
X912920Y-8740674D02*
X922443Y-8702579D01*
X922443Y-8702579D02*
X931967Y-8683531D01*
X931967Y-8683531D02*
X941491Y-8674008D01*
X941491Y-8674008D02*
X960539Y-8664484D01*
X1112920Y-8864484D02*
X1112920Y-8731150D01*
X1112920Y-8750198D02*
X1122444Y-8740674D01*
X1122444Y-8740674D02*
X1141491Y-8731150D01*
X1141491Y-8731150D02*
X1170063Y-8731150D01*
X1170063Y-8731150D02*
X1189110Y-8740674D01*
X1189110Y-8740674D02*
X1198634Y-8759722D01*
X1198634Y-8759722D02*
X1198634Y-8864484D01*
X1198634Y-8759722D02*
X1208158Y-8740674D01*
X1208158Y-8740674D02*
X1227205Y-8731150D01*
X1227205Y-8731150D02*
X1255777Y-8731150D01*
X1255777Y-8731150D02*
X1274825Y-8740674D01*
X1274825Y-8740674D02*
X1284348Y-8759722D01*
X1284348Y-8759722D02*
X1284348Y-8864484D01*
X1379586Y-8864484D02*
X1379586Y-8731150D01*
X1379586Y-8750198D02*
X1389110Y-8740674D01*
X1389110Y-8740674D02*
X1408158Y-8731150D01*
X1408158Y-8731150D02*
X1436729Y-8731150D01*
X1436729Y-8731150D02*
X1455777Y-8740674D01*
X1455777Y-8740674D02*
X1465301Y-8759722D01*
X1465301Y-8759722D02*
X1465301Y-8864484D01*
X1465301Y-8759722D02*
X1474824Y-8740674D01*
X1474824Y-8740674D02*
X1493872Y-8731150D01*
X1493872Y-8731150D02*
X1522443Y-8731150D01*
X1522443Y-8731150D02*
X1541491Y-8740674D01*
X1541491Y-8740674D02*
X1551015Y-8759722D01*
X1551015Y-8759722D02*
X1551015Y-8864484D01*
X1941491Y-8654960D02*
X1770063Y-8912103D01*
X2198634Y-8664484D02*
X2217682Y-8664484D01*
X2217682Y-8664484D02*
X2236729Y-8674008D01*
X2236729Y-8674008D02*
X2246253Y-8683531D01*
X2246253Y-8683531D02*
X2255777Y-8702579D01*
X2255777Y-8702579D02*
X2265301Y-8740674D01*
X2265301Y-8740674D02*
X2265301Y-8788293D01*
X2265301Y-8788293D02*
X2255777Y-8826389D01*
X2255777Y-8826389D02*
X2246253Y-8845436D01*
X2246253Y-8845436D02*
X2236729Y-8854960D01*
X2236729Y-8854960D02*
X2217682Y-8864484D01*
X2217682Y-8864484D02*
X2198634Y-8864484D01*
X2198634Y-8864484D02*
X2179587Y-8854960D01*
X2179587Y-8854960D02*
X2170063Y-8845436D01*
X2170063Y-8845436D02*
X2160539Y-8826389D01*
X2160539Y-8826389D02*
X2151015Y-8788293D01*
X2151015Y-8788293D02*
X2151015Y-8740674D01*
X2151015Y-8740674D02*
X2160539Y-8702579D01*
X2160539Y-8702579D02*
X2170063Y-8683531D01*
X2170063Y-8683531D02*
X2179587Y-8674008D01*
X2179587Y-8674008D02*
X2198634Y-8664484D01*
X2351015Y-8845436D02*
X2360539Y-8854960D01*
X2360539Y-8854960D02*
X2351015Y-8864484D01*
X2351015Y-8864484D02*
X2341491Y-8854960D01*
X2341491Y-8854960D02*
X2351015Y-8845436D01*
X2351015Y-8845436D02*
X2351015Y-8864484D01*
X2484348Y-8664484D02*
X2503396Y-8664484D01*
X2503396Y-8664484D02*
X2522444Y-8674008D01*
X2522444Y-8674008D02*
X2531968Y-8683531D01*
X2531968Y-8683531D02*
X2541491Y-8702579D01*
X2541491Y-8702579D02*
X2551015Y-8740674D01*
X2551015Y-8740674D02*
X2551015Y-8788293D01*
X2551015Y-8788293D02*
X2541491Y-8826389D01*
X2541491Y-8826389D02*
X2531968Y-8845436D01*
X2531968Y-8845436D02*
X2522444Y-8854960D01*
X2522444Y-8854960D02*
X2503396Y-8864484D01*
X2503396Y-8864484D02*
X2484348Y-8864484D01*
X2484348Y-8864484D02*
X2465301Y-8854960D01*
X2465301Y-8854960D02*
X2455777Y-8845436D01*
X2455777Y-8845436D02*
X2446253Y-8826389D01*
X2446253Y-8826389D02*
X2436729Y-8788293D01*
X2436729Y-8788293D02*
X2436729Y-8740674D01*
X2436729Y-8740674D02*
X2446253Y-8702579D01*
X2446253Y-8702579D02*
X2455777Y-8683531D01*
X2455777Y-8683531D02*
X2465301Y-8674008D01*
X2465301Y-8674008D02*
X2484348Y-8664484D01*
X2722444Y-8664484D02*
X2684348Y-8664484D01*
X2684348Y-8664484D02*
X2665301Y-8674008D01*
X2665301Y-8674008D02*
X2655777Y-8683531D01*
X2655777Y-8683531D02*
X2636729Y-8712103D01*
X2636729Y-8712103D02*
X2627206Y-8750198D01*
X2627206Y-8750198D02*
X2627206Y-8826389D01*
X2627206Y-8826389D02*
X2636729Y-8845436D01*
X2636729Y-8845436D02*
X2646253Y-8854960D01*
X2646253Y-8854960D02*
X2665301Y-8864484D01*
X2665301Y-8864484D02*
X2703396Y-8864484D01*
X2703396Y-8864484D02*
X2722444Y-8854960D01*
X2722444Y-8854960D02*
X2731968Y-8845436D01*
X2731968Y-8845436D02*
X2741491Y-8826389D01*
X2741491Y-8826389D02*
X2741491Y-8778770D01*
X2741491Y-8778770D02*
X2731968Y-8759722D01*
X2731968Y-8759722D02*
X2722444Y-8750198D01*
X2722444Y-8750198D02*
X2703396Y-8740674D01*
X2703396Y-8740674D02*
X2665301Y-8740674D01*
X2665301Y-8740674D02*
X2646253Y-8750198D01*
X2646253Y-8750198D02*
X2636729Y-8759722D01*
X2636729Y-8759722D02*
X2627206Y-8778770D01*
X2912920Y-8664484D02*
X2874825Y-8664484D01*
X2874825Y-8664484D02*
X2855777Y-8674008D01*
X2855777Y-8674008D02*
X2846253Y-8683531D01*
X2846253Y-8683531D02*
X2827206Y-8712103D01*
X2827206Y-8712103D02*
X2817682Y-8750198D01*
X2817682Y-8750198D02*
X2817682Y-8826389D01*
X2817682Y-8826389D02*
X2827206Y-8845436D01*
X2827206Y-8845436D02*
X2836729Y-8854960D01*
X2836729Y-8854960D02*
X2855777Y-8864484D01*
X2855777Y-8864484D02*
X2893872Y-8864484D01*
X2893872Y-8864484D02*
X2912920Y-8854960D01*
X2912920Y-8854960D02*
X2922444Y-8845436D01*
X2922444Y-8845436D02*
X2931967Y-8826389D01*
X2931967Y-8826389D02*
X2931967Y-8778770D01*
X2931967Y-8778770D02*
X2922444Y-8759722D01*
X2922444Y-8759722D02*
X2912920Y-8750198D01*
X2912920Y-8750198D02*
X2893872Y-8740674D01*
X2893872Y-8740674D02*
X2855777Y-8740674D01*
X2855777Y-8740674D02*
X2836729Y-8750198D01*
X2836729Y-8750198D02*
X2827206Y-8759722D01*
X2827206Y-8759722D02*
X2817682Y-8778770D01*
X3027206Y-8864484D02*
X3065301Y-8864484D01*
X3065301Y-8864484D02*
X3084348Y-8854960D01*
X3084348Y-8854960D02*
X3093872Y-8845436D01*
X3093872Y-8845436D02*
X3112920Y-8816865D01*
X3112920Y-8816865D02*
X3122444Y-8778770D01*
X3122444Y-8778770D02*
X3122444Y-8702579D01*
X3122444Y-8702579D02*
X3112920Y-8683531D01*
X3112920Y-8683531D02*
X3103396Y-8674008D01*
X3103396Y-8674008D02*
X3084348Y-8664484D01*
X3084348Y-8664484D02*
X3046253Y-8664484D01*
X3046253Y-8664484D02*
X3027206Y-8674008D01*
X3027206Y-8674008D02*
X3017682Y-8683531D01*
X3017682Y-8683531D02*
X3008158Y-8702579D01*
X3008158Y-8702579D02*
X3008158Y-8750198D01*
X3008158Y-8750198D02*
X3017682Y-8769246D01*
X3017682Y-8769246D02*
X3027206Y-8778770D01*
X3027206Y-8778770D02*
X3046253Y-8788293D01*
X3046253Y-8788293D02*
X3084348Y-8788293D01*
X3084348Y-8788293D02*
X3103396Y-8778770D01*
X3103396Y-8778770D02*
X3112920Y-8769246D01*
X3112920Y-8769246D02*
X3122444Y-8750198D01*
X3198634Y-8664484D02*
X3198634Y-8702579D01*
X3274825Y-8664484D02*
X3274825Y-8702579D01*
X3570063Y-8940674D02*
X3560539Y-8931150D01*
X3560539Y-8931150D02*
X3541491Y-8902579D01*
X3541491Y-8902579D02*
X3531968Y-8883531D01*
X3531968Y-8883531D02*
X3522444Y-8854960D01*
X3522444Y-8854960D02*
X3512920Y-8807341D01*
X3512920Y-8807341D02*
X3512920Y-8769246D01*
X3512920Y-8769246D02*
X3522444Y-8721627D01*
X3522444Y-8721627D02*
X3531968Y-8693055D01*
X3531968Y-8693055D02*
X3541491Y-8674008D01*
X3541491Y-8674008D02*
X3560539Y-8645436D01*
X3560539Y-8645436D02*
X3570063Y-8635912D01*
X3636729Y-8683531D02*
X3646253Y-8674008D01*
X3646253Y-8674008D02*
X3665301Y-8664484D01*
X3665301Y-8664484D02*
X3712920Y-8664484D01*
X3712920Y-8664484D02*
X3731968Y-8674008D01*
X3731968Y-8674008D02*
X3741491Y-8683531D01*
X3741491Y-8683531D02*
X3751015Y-8702579D01*
X3751015Y-8702579D02*
X3751015Y-8721627D01*
X3751015Y-8721627D02*
X3741491Y-8750198D01*
X3741491Y-8750198D02*
X3627206Y-8864484D01*
X3627206Y-8864484D02*
X3751015Y-8864484D01*
X3989110Y-8864484D02*
X3989110Y-8664484D01*
X4074825Y-8864484D02*
X4074825Y-8759722D01*
X4074825Y-8759722D02*
X4065301Y-8740674D01*
X4065301Y-8740674D02*
X4046253Y-8731150D01*
X4046253Y-8731150D02*
X4017682Y-8731150D01*
X4017682Y-8731150D02*
X3998634Y-8740674D01*
X3998634Y-8740674D02*
X3989110Y-8750198D01*
X4198634Y-8864484D02*
X4179587Y-8854960D01*
X4179587Y-8854960D02*
X4170063Y-8845436D01*
X4170063Y-8845436D02*
X4160539Y-8826389D01*
X4160539Y-8826389D02*
X4160539Y-8769246D01*
X4160539Y-8769246D02*
X4170063Y-8750198D01*
X4170063Y-8750198D02*
X4179587Y-8740674D01*
X4179587Y-8740674D02*
X4198634Y-8731150D01*
X4198634Y-8731150D02*
X4227206Y-8731150D01*
X4227206Y-8731150D02*
X4246253Y-8740674D01*
X4246253Y-8740674D02*
X4255777Y-8750198D01*
X4255777Y-8750198D02*
X4265301Y-8769246D01*
X4265301Y-8769246D02*
X4265301Y-8826389D01*
X4265301Y-8826389D02*
X4255777Y-8845436D01*
X4255777Y-8845436D02*
X4246253Y-8854960D01*
X4246253Y-8854960D02*
X4227206Y-8864484D01*
X4227206Y-8864484D02*
X4198634Y-8864484D01*
X4379587Y-8864484D02*
X4360539Y-8854960D01*
X4360539Y-8854960D02*
X4351015Y-8835912D01*
X4351015Y-8835912D02*
X4351015Y-8664484D01*
X4531968Y-8854960D02*
X4512920Y-8864484D01*
X4512920Y-8864484D02*
X4474825Y-8864484D01*
X4474825Y-8864484D02*
X4455777Y-8854960D01*
X4455777Y-8854960D02*
X4446253Y-8835912D01*
X4446253Y-8835912D02*
X4446253Y-8759722D01*
X4446253Y-8759722D02*
X4455777Y-8740674D01*
X4455777Y-8740674D02*
X4474825Y-8731150D01*
X4474825Y-8731150D02*
X4512920Y-8731150D01*
X4512920Y-8731150D02*
X4531968Y-8740674D01*
X4531968Y-8740674D02*
X4541492Y-8759722D01*
X4541492Y-8759722D02*
X4541492Y-8778770D01*
X4541492Y-8778770D02*
X4446253Y-8797817D01*
X4617682Y-8854960D02*
X4636730Y-8864484D01*
X4636730Y-8864484D02*
X4674825Y-8864484D01*
X4674825Y-8864484D02*
X4693873Y-8854960D01*
X4693873Y-8854960D02*
X4703396Y-8835912D01*
X4703396Y-8835912D02*
X4703396Y-8826389D01*
X4703396Y-8826389D02*
X4693873Y-8807341D01*
X4693873Y-8807341D02*
X4674825Y-8797817D01*
X4674825Y-8797817D02*
X4646253Y-8797817D01*
X4646253Y-8797817D02*
X4627206Y-8788293D01*
X4627206Y-8788293D02*
X4617682Y-8769246D01*
X4617682Y-8769246D02*
X4617682Y-8759722D01*
X4617682Y-8759722D02*
X4627206Y-8740674D01*
X4627206Y-8740674D02*
X4646253Y-8731150D01*
X4646253Y-8731150D02*
X4674825Y-8731150D01*
X4674825Y-8731150D02*
X4693873Y-8740674D01*
X4770063Y-8940674D02*
X4779587Y-8931150D01*
X4779587Y-8931150D02*
X4798634Y-8902579D01*
X4798634Y-8902579D02*
X4808158Y-8883531D01*
X4808158Y-8883531D02*
X4817682Y-8854960D01*
X4817682Y-8854960D02*
X4827206Y-8807341D01*
X4827206Y-8807341D02*
X4827206Y-8769246D01*
X4827206Y-8769246D02*
X4817682Y-8721627D01*
X4817682Y-8721627D02*
X4808158Y-8693055D01*
X4808158Y-8693055D02*
X4798634Y-8674008D01*
X4798634Y-8674008D02*
X4779587Y-8645436D01*
X4779587Y-8645436D02*
X4770063Y-8635912D01*
M02*
