%TF.GenerationSoftware,KiCad,Pcbnew,10.0.6*%
%TF.CreationDate,2026-09-15T22:38:58-07:00*%
%TF.ProjectId,plush-toy-mainboard,706c7573-682d-4746-9f79-2d6d61696e62,rev?*%
%TF.SameCoordinates,Original*%
%TF.FileFunction,Paste,Top*%
%TF.FilePolarity,Positive*%
%FSLAX46Y46*%
G04 Gerber Fmt 4.6, Leading zero omitted, Abs format (unit mm)*
G04 Created by KiCad (PCBNEW 10.0.6) date 2026-09-15 22:38:58*
%MOMM*%
%LPD*%
G01*
G04 APERTURE LIST*
G04 Aperture macros list*
%AMRoundRect*
0 Rectangle with rounded corners*
0 $1 Rounding radius*
0 $2 $3 $4 $5 $6 $7 $8 $9 X,Y pos of 4 corners*
0 Add a 4 corners polygon primitive as box body*
4,1,4,$2,$3,$4,$5,$6,$7,$8,$9,$2,$3,0*
0 Add four circle primitives for the rounded corners*
1,1,$1+$1,$2,$3*
1,1,$1+$1,$4,$5*
1,1,$1+$1,$6,$7*
1,1,$1+$1,$8,$9*
0 Add four rect primitives between the rounded corners*
20,1,$1+$1,$2,$3,$4,$5,0*
20,1,$1+$1,$4,$5,$6,$7,0*
20,1,$1+$1,$6,$7,$8,$9,0*
20,1,$1+$1,$8,$9,$2,$3,0*%
%AMFreePoly0*
4,1,14,0.354215,0.088284,0.450784,-0.008285,0.462500,-0.036569,0.462500,-0.060000,0.450784,-0.088284,0.422500,-0.100000,-0.422500,-0.100000,-0.450784,-0.088284,-0.462500,-0.060000,-0.462500,0.060000,-0.450784,0.088284,-0.422500,0.100000,0.325931,0.100000,0.354215,0.088284,0.354215,0.088284,$1*%
%AMFreePoly1*
4,1,14,0.450784,0.088284,0.462500,0.060000,0.462500,0.036569,0.450784,0.008285,0.354215,-0.088284,0.325931,-0.100000,-0.422500,-0.100000,-0.450784,-0.088284,-0.462500,-0.060000,-0.462500,0.060000,-0.450784,0.088284,-0.422500,0.100000,0.422500,0.100000,0.450784,0.088284,0.450784,0.088284,$1*%
%AMFreePoly2*
4,1,14,0.088284,0.450784,0.100000,0.422500,0.100000,-0.422500,0.088284,-0.450784,0.060000,-0.462500,-0.060000,-0.462500,-0.088284,-0.450784,-0.100000,-0.422500,-0.100000,0.325931,-0.088284,0.354215,0.008285,0.450784,0.036569,0.462500,0.060000,0.462500,0.088284,0.450784,0.088284,0.450784,$1*%
%AMFreePoly3*
4,1,14,-0.008285,0.450784,0.088284,0.354215,0.100000,0.325931,0.100000,-0.422500,0.088284,-0.450784,0.060000,-0.462500,-0.060000,-0.462500,-0.088284,-0.450784,-0.100000,-0.422500,-0.100000,0.422500,-0.088284,0.450784,-0.060000,0.462500,-0.036569,0.462500,-0.008285,0.450784,-0.008285,0.450784,$1*%
%AMFreePoly4*
4,1,14,0.450784,0.088284,0.462500,0.060000,0.462500,-0.060000,0.450784,-0.088284,0.422500,-0.100000,-0.325931,-0.100000,-0.354215,-0.088284,-0.450784,0.008285,-0.462500,0.036569,-0.462500,0.060000,-0.450784,0.088284,-0.422500,0.100000,0.422500,0.100000,0.450784,0.088284,0.450784,0.088284,$1*%
%AMFreePoly5*
4,1,14,0.450784,0.088284,0.462500,0.060000,0.462500,-0.060000,0.450784,-0.088284,0.422500,-0.100000,-0.422500,-0.100000,-0.450784,-0.088284,-0.462500,-0.060000,-0.462500,-0.036569,-0.450784,-0.008285,-0.354215,0.088284,-0.325931,0.100000,0.422500,0.100000,0.450784,0.088284,0.450784,0.088284,$1*%
%AMFreePoly6*
4,1,14,0.088284,0.450784,0.100000,0.422500,0.100000,-0.325931,0.088284,-0.354215,-0.008285,-0.450784,-0.036569,-0.462500,-0.060000,-0.462500,-0.088284,-0.450784,-0.100000,-0.422500,-0.100000,0.422500,-0.088284,0.450784,-0.060000,0.462500,0.060000,0.462500,0.088284,0.450784,0.088284,0.450784,$1*%
%AMFreePoly7*
4,1,14,0.088284,0.450784,0.100000,0.422500,0.100000,-0.422500,0.088284,-0.450784,0.060000,-0.462500,0.036569,-0.462500,0.008285,-0.450784,-0.088284,-0.354215,-0.100000,-0.325931,-0.100000,0.422500,-0.088284,0.450784,-0.060000,0.462500,0.060000,0.462500,0.088284,0.450784,0.088284,0.450784,$1*%
G04 Aperture macros list end*
%ADD10C,0.000000*%
%ADD11RoundRect,0.140000X-0.140000X-0.170000X0.140000X-0.170000X0.140000X0.170000X-0.140000X0.170000X0*%
%ADD12RoundRect,0.185000X-0.230000X-0.185000X0.230000X-0.185000X0.230000X0.185000X-0.230000X0.185000X0*%
%ADD13RoundRect,0.062500X-0.237500X-0.062500X0.237500X-0.062500X0.237500X0.062500X-0.237500X0.062500X0*%
%ADD14RoundRect,0.250000X0.250000X0.475000X-0.250000X0.475000X-0.250000X-0.475000X0.250000X-0.475000X0*%
%ADD15R,4.500000X1.650000*%
%ADD16RoundRect,0.135000X0.185000X-0.135000X0.185000X0.135000X-0.185000X0.135000X-0.185000X-0.135000X0*%
%ADD17RoundRect,0.150000X0.150000X0.575000X-0.150000X0.575000X-0.150000X-0.575000X0.150000X-0.575000X0*%
%ADD18RoundRect,0.075000X0.075000X0.650000X-0.075000X0.650000X-0.075000X-0.650000X0.075000X-0.650000X0*%
%ADD19RoundRect,0.135000X-0.135000X-0.185000X0.135000X-0.185000X0.135000X0.185000X-0.135000X0.185000X0*%
%ADD20R,0.900000X0.900000*%
%ADD21R,0.900000X1.500000*%
%ADD22R,1.500000X0.900000*%
%ADD23RoundRect,0.150000X-0.587500X-0.150000X0.587500X-0.150000X0.587500X0.150000X-0.587500X0.150000X0*%
%ADD24RoundRect,0.075000X-0.650000X-0.075000X0.650000X-0.075000X0.650000X0.075000X-0.650000X0.075000X0*%
%ADD25RoundRect,0.050000X0.250000X-0.100000X0.250000X0.100000X-0.250000X0.100000X-0.250000X-0.100000X0*%
%ADD26RoundRect,0.140000X-0.170000X0.140000X-0.170000X-0.140000X0.170000X-0.140000X0.170000X0.140000X0*%
%ADD27RoundRect,0.075000X-0.350000X-0.075000X0.350000X-0.075000X0.350000X0.075000X-0.350000X0.075000X0*%
%ADD28RoundRect,0.075000X0.075000X-0.350000X0.075000X0.350000X-0.075000X0.350000X-0.075000X-0.350000X0*%
%ADD29RoundRect,0.140000X0.170000X-0.140000X0.170000X0.140000X-0.170000X0.140000X-0.170000X-0.140000X0*%
%ADD30RoundRect,0.250000X0.625000X-0.375000X0.625000X0.375000X-0.625000X0.375000X-0.625000X-0.375000X0*%
%ADD31R,0.300000X1.300000*%
%ADD32R,2.000000X1.600000*%
%ADD33R,1.000000X0.750000*%
%ADD34RoundRect,0.225000X-0.250000X0.225000X-0.250000X-0.225000X0.250000X-0.225000X0.250000X0.225000X0*%
%ADD35RoundRect,0.250000X-1.000000X-0.900000X1.000000X-0.900000X1.000000X0.900000X-1.000000X0.900000X0*%
%ADD36RoundRect,0.225000X-0.225000X-0.250000X0.225000X-0.250000X0.225000X0.250000X-0.225000X0.250000X0*%
%ADD37R,1.100000X3.700000*%
%ADD38RoundRect,0.250000X0.475000X-0.250000X0.475000X0.250000X-0.475000X0.250000X-0.475000X-0.250000X0*%
%ADD39RoundRect,0.100000X-0.637500X-0.100000X0.637500X-0.100000X0.637500X0.100000X-0.637500X0.100000X0*%
%ADD40RoundRect,0.150000X-0.512500X-0.150000X0.512500X-0.150000X0.512500X0.150000X-0.512500X0.150000X0*%
%ADD41RoundRect,0.150000X0.625000X-0.150000X0.625000X0.150000X-0.625000X0.150000X-0.625000X-0.150000X0*%
%ADD42RoundRect,0.250000X0.650000X-0.350000X0.650000X0.350000X-0.650000X0.350000X-0.650000X-0.350000X0*%
%ADD43RoundRect,0.250000X-0.250000X-0.475000X0.250000X-0.475000X0.250000X0.475000X-0.250000X0.475000X0*%
%ADD44RoundRect,0.140000X0.140000X0.170000X-0.140000X0.170000X-0.140000X-0.170000X0.140000X-0.170000X0*%
%ADD45FreePoly0,0.000000*%
%ADD46RoundRect,0.050000X-0.412500X-0.050000X0.412500X-0.050000X0.412500X0.050000X-0.412500X0.050000X0*%
%ADD47FreePoly1,0.000000*%
%ADD48FreePoly2,0.000000*%
%ADD49RoundRect,0.050000X-0.050000X-0.412500X0.050000X-0.412500X0.050000X0.412500X-0.050000X0.412500X0*%
%ADD50FreePoly3,0.000000*%
%ADD51FreePoly4,0.000000*%
%ADD52FreePoly5,0.000000*%
%ADD53FreePoly6,0.000000*%
%ADD54FreePoly7,0.000000*%
%ADD55R,0.350000X0.550000*%
%ADD56RoundRect,0.050000X-0.100000X-0.250000X0.100000X-0.250000X0.100000X0.250000X-0.100000X0.250000X0*%
%ADD57RoundRect,0.125000X-0.125000X-0.125000X0.125000X-0.125000X0.125000X0.125000X-0.125000X0.125000X0*%
%ADD58RoundRect,0.062500X-0.350000X-0.062500X0.350000X-0.062500X0.350000X0.062500X-0.350000X0.062500X0*%
%ADD59RoundRect,0.062500X-0.062500X-0.350000X0.062500X-0.350000X0.062500X0.350000X-0.062500X0.350000X0*%
G04 APERTURE END LIST*
D10*
%TO.C,U_MIC*%
G36*
X15413700Y-49229900D02*
G01*
X15503500Y-49249800D01*
X15590400Y-49280200D01*
X15673100Y-49320600D01*
X15750500Y-49370400D01*
X15600000Y-49576300D01*
X15547900Y-49542700D01*
X15492200Y-49515500D01*
X15433700Y-49495100D01*
X15373200Y-49481600D01*
X15311600Y-49475400D01*
X15249700Y-49476600D01*
X15188300Y-49485000D01*
X15128300Y-49500500D01*
X15070600Y-49523000D01*
X15015900Y-49552200D01*
X14965100Y-49587600D01*
X14918800Y-49628800D01*
X14877600Y-49675100D01*
X14842200Y-49725900D01*
X14813000Y-49780600D01*
X14790500Y-49838300D01*
X14775000Y-49898300D01*
X14766600Y-49959700D01*
X14765400Y-50021600D01*
X14771600Y-50083200D01*
X14785100Y-50143700D01*
X14805500Y-50202200D01*
X14832700Y-50257900D01*
X14866300Y-50310000D01*
X14660400Y-50460500D01*
X14610600Y-50383100D01*
X14570200Y-50300400D01*
X14539800Y-50213500D01*
X14519900Y-50123700D01*
X14510700Y-50032100D01*
X14512300Y-49940100D01*
X14524800Y-49848900D01*
X14547900Y-49759800D01*
X14581400Y-49674000D01*
X14624700Y-49592800D01*
X14677300Y-49517300D01*
X14738500Y-49448500D01*
X14807300Y-49387300D01*
X14882800Y-49334700D01*
X14964000Y-49291400D01*
X15049800Y-49257900D01*
X15138900Y-49234800D01*
X15230100Y-49222300D01*
X15322100Y-49220700D01*
X15413700Y-49229900D01*
G37*
G36*
X15969400Y-49616900D02*
G01*
X16009800Y-49699600D01*
X16040200Y-49786500D01*
X16060100Y-49876300D01*
X16069300Y-49967900D01*
X16067700Y-50059900D01*
X16055200Y-50151100D01*
X16032100Y-50240200D01*
X15998600Y-50326000D01*
X15955300Y-50407200D01*
X15902700Y-50482700D01*
X15841500Y-50551500D01*
X15772700Y-50612700D01*
X15697200Y-50665300D01*
X15616000Y-50708600D01*
X15530200Y-50742100D01*
X15441100Y-50765200D01*
X15349900Y-50777700D01*
X15257900Y-50779300D01*
X15166300Y-50770100D01*
X15076500Y-50750200D01*
X14989600Y-50719800D01*
X14906900Y-50679400D01*
X14829500Y-50629600D01*
X14980000Y-50423700D01*
X15032100Y-50457300D01*
X15087800Y-50484500D01*
X15146300Y-50504900D01*
X15206800Y-50518400D01*
X15268400Y-50524600D01*
X15330300Y-50523400D01*
X15391700Y-50515000D01*
X15451700Y-50499500D01*
X15509400Y-50477000D01*
X15564100Y-50447800D01*
X15614900Y-50412400D01*
X15661200Y-50371200D01*
X15702400Y-50324900D01*
X15737800Y-50274100D01*
X15767000Y-50219400D01*
X15789500Y-50161700D01*
X15805000Y-50101700D01*
X15813400Y-50040300D01*
X15814600Y-49978400D01*
X15808400Y-49916800D01*
X15794900Y-49856300D01*
X15774500Y-49797800D01*
X15747300Y-49742100D01*
X15713700Y-49690000D01*
X15919600Y-49539500D01*
X15969400Y-49616900D01*
G37*
%TD*%
D11*
%TO.C,C_CAM_AVDD*%
X40770000Y-47800000D03*
X41730000Y-47800000D03*
%TD*%
D12*
%TO.C,U_EFUSE*%
X34500000Y-18600000D03*
X34500000Y-19400000D03*
D13*
X33550000Y-18250000D03*
X33550000Y-18750000D03*
X33550000Y-19250000D03*
X33550000Y-19750000D03*
X35450000Y-19750000D03*
X35450000Y-19250000D03*
X35450000Y-18750000D03*
X35450000Y-18250000D03*
%TD*%
D14*
%TO.C,C_BUCK_IN*%
X40950000Y-11000000D03*
X39050000Y-11000000D03*
%TD*%
D15*
%TO.C,C_VMOT_BULK*%
X66000000Y-14800000D03*
X75000000Y-14800000D03*
%TD*%
D16*
%TO.C,R_LCD_MOSI*%
X44500000Y-3760000D03*
X44500000Y-2740000D03*
%TD*%
D17*
%TO.C,J_USB*%
X31250000Y-8745000D03*
X30450000Y-8745000D03*
D18*
X29250000Y-8745000D03*
X28250000Y-8745000D03*
X27750000Y-8745000D03*
X26750000Y-8745000D03*
D17*
X25550000Y-8745000D03*
X24750000Y-8745000D03*
X24750000Y-8745000D03*
X25550000Y-8745000D03*
D18*
X26250000Y-8745000D03*
X27250000Y-8745000D03*
X28750000Y-8745000D03*
X29750000Y-8745000D03*
D17*
X30450000Y-8745000D03*
X31250000Y-8745000D03*
%TD*%
D11*
%TO.C,C_VMOT_HF*%
X69270000Y-8750000D03*
X70230000Y-8750000D03*
%TD*%
D19*
%TO.C,R_LCD_BL_OFF*%
X56490000Y-10300000D03*
X57510000Y-10300000D03*
%TD*%
D20*
%TO.C,U1*%
X7810000Y-32900000D03*
X9210000Y-32900000D03*
X10610000Y-32900000D03*
X7810000Y-31500000D03*
X9210000Y-31500000D03*
X10610000Y-31500000D03*
X7810000Y-30100000D03*
X9210000Y-30100000D03*
X10610000Y-30100000D03*
D21*
X1490000Y-38750000D03*
X2760000Y-38750000D03*
X4030000Y-38750000D03*
X5300000Y-38750000D03*
X6570000Y-38750000D03*
X7840000Y-38750000D03*
X9110000Y-38750000D03*
X10380000Y-38750000D03*
X11650000Y-38750000D03*
X12920000Y-38750000D03*
X14190000Y-38750000D03*
X15460000Y-38750000D03*
X16730000Y-38750000D03*
X18000000Y-38750000D03*
D22*
X19250000Y-36985000D03*
X19250000Y-35715000D03*
X19250000Y-34445000D03*
X19250000Y-33175000D03*
X19250000Y-31905000D03*
X19250000Y-30635000D03*
X19250000Y-29365000D03*
X19250000Y-28095000D03*
X19250000Y-26825000D03*
X19250000Y-25555000D03*
X19250000Y-24285000D03*
X19250000Y-23015000D03*
D21*
X18000000Y-21250000D03*
X16730000Y-21250000D03*
X15460000Y-21250000D03*
X14190000Y-21250000D03*
X12920000Y-21250000D03*
X11650000Y-21250000D03*
X10380000Y-21250000D03*
X9110000Y-21250000D03*
X7840000Y-21250000D03*
X6570000Y-21250000D03*
X5300000Y-21250000D03*
X4030000Y-21250000D03*
X2760000Y-21250000D03*
X1490000Y-21250000D03*
%TD*%
D23*
%TO.C,Q_LCD_BL*%
X59062500Y-12050000D03*
X59062500Y-13950000D03*
X60937500Y-13000000D03*
%TD*%
D24*
%TO.C,U_ADC*%
X67850000Y-47000000D03*
X67850000Y-47500000D03*
X67850000Y-48000000D03*
X67850000Y-48500000D03*
X67850000Y-49000000D03*
X72150000Y-49000000D03*
X72150000Y-48500000D03*
X72150000Y-48000000D03*
X72150000Y-47500000D03*
X72150000Y-47000000D03*
%TD*%
D19*
%TO.C,R_MIC_SD*%
X14240000Y-53000000D03*
X15260000Y-53000000D03*
%TD*%
D25*
%TO.C,D_USB_DN*%
X21750000Y-6850000D03*
X21750000Y-6150000D03*
%TD*%
D19*
%TO.C,R_FB1*%
X36240000Y-10750000D03*
X37260000Y-10750000D03*
%TD*%
%TO.C,R_EFUSE_ILM*%
X36990000Y-18750000D03*
X38010000Y-18750000D03*
%TD*%
D11*
%TO.C,C_ADC*%
X68770000Y-45500000D03*
X69730000Y-45500000D03*
%TD*%
D26*
%TO.C,C_U1*%
X3000000Y-41520000D03*
X3000000Y-42480000D03*
%TD*%
D27*
%TO.C,U_IMU*%
X44050000Y-28750000D03*
X44050000Y-29250000D03*
X44050000Y-29750000D03*
X44050000Y-30250000D03*
X44050000Y-30750000D03*
X44050000Y-31250000D03*
D28*
X44750000Y-31950000D03*
X45250000Y-31950000D03*
X45750000Y-31950000D03*
X46250000Y-31950000D03*
X46750000Y-31950000D03*
X47250000Y-31950000D03*
D27*
X47950000Y-31250000D03*
X47950000Y-30750000D03*
X47950000Y-30250000D03*
X47950000Y-29750000D03*
X47950000Y-29250000D03*
X47950000Y-28750000D03*
D28*
X47250000Y-28050000D03*
X46750000Y-28050000D03*
X46250000Y-28050000D03*
X45750000Y-28050000D03*
X45250000Y-28050000D03*
X44750000Y-28050000D03*
%TD*%
D29*
%TO.C,C_LDO15_OUT*%
X55000000Y-56480000D03*
X55000000Y-55520000D03*
%TD*%
D26*
%TO.C,C_IMU_REG*%
X46250000Y-34520000D03*
X46250000Y-35480000D03*
%TD*%
D30*
%TO.C,F_USB*%
X35000000Y-6150000D03*
X35000000Y-3350000D03*
%TD*%
D19*
%TO.C,R_BOOT*%
X12490000Y-16500000D03*
X13510000Y-16500000D03*
%TD*%
D11*
%TO.C,C_CAM_RST*%
X38520000Y-47800000D03*
X39480000Y-47800000D03*
%TD*%
D31*
%TO.C,J_CAM*%
X45750000Y-55330000D03*
X45250000Y-55330000D03*
X44750000Y-55330000D03*
X44250000Y-55330000D03*
X43750000Y-55330000D03*
X43250000Y-55330000D03*
X42750000Y-55330000D03*
X42250000Y-55330000D03*
X41750000Y-55330000D03*
X41250000Y-55330000D03*
X40750000Y-55330000D03*
X40250000Y-55330000D03*
X39750000Y-55330000D03*
X39250000Y-55330000D03*
X38750000Y-55330000D03*
X38250000Y-55330000D03*
X37750000Y-55330000D03*
X37250000Y-55330000D03*
X36750000Y-55330000D03*
X36250000Y-55330000D03*
X35750000Y-55330000D03*
X35250000Y-55330000D03*
X34750000Y-55330000D03*
X34250000Y-55330000D03*
D32*
X32550000Y-52670000D03*
X47450000Y-52670000D03*
%TD*%
D33*
%TO.C,SW_RST*%
X9000000Y-4150000D03*
X15000000Y-4150000D03*
X9000000Y-7850000D03*
X15000000Y-7850000D03*
%TD*%
D16*
%TO.C,R_BUCK_EN*%
X40000000Y-19010000D03*
X40000000Y-17990000D03*
%TD*%
D29*
%TO.C,C_IMU*%
X49500000Y-30480000D03*
X49500000Y-29520000D03*
%TD*%
D11*
%TO.C,C_AMP*%
X53020000Y-47000000D03*
X53980000Y-47000000D03*
%TD*%
D34*
%TO.C,C_U1_BULK*%
X1300000Y-41725000D03*
X1300000Y-43275000D03*
%TD*%
D35*
%TO.C,D_VMOT_TVS*%
X69850000Y-22750000D03*
X74150000Y-22750000D03*
%TD*%
D11*
%TO.C,C_LDO28_IN*%
X26020000Y-55500000D03*
X26980000Y-55500000D03*
%TD*%
D19*
%TO.C,R_NTC*%
X69990000Y-50500000D03*
X71010000Y-50500000D03*
%TD*%
D16*
%TO.C,R_GATE_PD*%
X73000000Y-45260000D03*
X73000000Y-44240000D03*
%TD*%
D23*
%TO.C,Q_REV*%
X81062500Y-20800000D03*
X81062500Y-22700000D03*
X82937500Y-21750000D03*
%TD*%
D16*
%TO.C,R_EN*%
X4500000Y-42510000D03*
X4500000Y-41490000D03*
%TD*%
D19*
%TO.C,R_SCL*%
X22490000Y-34000000D03*
X23510000Y-34000000D03*
%TD*%
D36*
%TO.C,C_AMP_BULK*%
X57725000Y-49000000D03*
X59275000Y-49000000D03*
%TD*%
D37*
%TO.C,L_BUCK*%
X37150000Y-14000000D03*
X34150000Y-14000000D03*
%TD*%
D38*
%TO.C,C_BUCK_OUT1*%
X43500000Y-14950000D03*
X43500000Y-13050000D03*
%TD*%
D11*
%TO.C,C_LCD*%
X44770000Y-5000000D03*
X45730000Y-5000000D03*
%TD*%
D39*
%TO.C,U_PWM*%
X59137500Y-21375000D03*
X59137500Y-22025000D03*
X59137500Y-22675000D03*
X59137500Y-23325000D03*
X59137500Y-23975000D03*
X59137500Y-24625000D03*
X59137500Y-25275000D03*
X59137500Y-25925000D03*
X59137500Y-26575000D03*
X59137500Y-27225000D03*
X59137500Y-27875000D03*
X59137500Y-28525000D03*
X59137500Y-29175000D03*
X59137500Y-29825000D03*
X64862500Y-29825000D03*
X64862500Y-29175000D03*
X64862500Y-28525000D03*
X64862500Y-27875000D03*
X64862500Y-27225000D03*
X64862500Y-26575000D03*
X64862500Y-25925000D03*
X64862500Y-25275000D03*
X64862500Y-24625000D03*
X64862500Y-23975000D03*
X64862500Y-23325000D03*
X64862500Y-22675000D03*
X64862500Y-22025000D03*
X64862500Y-21375000D03*
%TD*%
D33*
%TO.C,SW_BOOT*%
X9000000Y-11150000D03*
X15000000Y-11150000D03*
X9000000Y-14850000D03*
X15000000Y-14850000D03*
%TD*%
D40*
%TO.C,U_BUCK*%
X38862500Y-13050000D03*
X38862500Y-14000000D03*
X38862500Y-14950000D03*
X41137500Y-14950000D03*
X41137500Y-13050000D03*
%TD*%
D19*
%TO.C,R_SIOD*%
X29740000Y-57000000D03*
X30760000Y-57000000D03*
%TD*%
D40*
%TO.C,U_LDO28*%
X24862500Y-52050000D03*
X24862500Y-53000000D03*
X24862500Y-53950000D03*
X27137500Y-53950000D03*
X27137500Y-52050000D03*
%TD*%
D19*
%TO.C,R_CC1*%
X20990000Y-4500000D03*
X22010000Y-4500000D03*
%TD*%
%TO.C,R_SIOC*%
X27240000Y-57000000D03*
X28260000Y-57000000D03*
%TD*%
%TO.C,R_TOUCH_REXT*%
X33990000Y-44000000D03*
X35010000Y-44000000D03*
%TD*%
D11*
%TO.C,C_NTC*%
X67770000Y-50500000D03*
X68730000Y-50500000D03*
%TD*%
D19*
%TO.C,R_CAM_RST*%
X36240000Y-47800000D03*
X37260000Y-47800000D03*
%TD*%
D11*
%TO.C,C_CAM_DVDD*%
X43020000Y-47800000D03*
X43980000Y-47800000D03*
%TD*%
D19*
%TO.C,R_GATE*%
X74740000Y-41500000D03*
X75760000Y-41500000D03*
%TD*%
D41*
%TO.C,J_EXT*%
X19075000Y-11750000D03*
X19075000Y-10750000D03*
X19075000Y-9750000D03*
X19075000Y-8750000D03*
X19075000Y-7750000D03*
D42*
X16550000Y-13050000D03*
X16550000Y-6450000D03*
%TD*%
D29*
%TO.C,C_PWM*%
X57000000Y-24980000D03*
X57000000Y-24020000D03*
%TD*%
D16*
%TO.C,R_OE*%
X57250000Y-27510000D03*
X57250000Y-26490000D03*
%TD*%
D43*
%TO.C,C_BUCK_OUT2*%
X41550000Y-17000000D03*
X43450000Y-17000000D03*
%TD*%
D16*
%TO.C,R_STAR*%
X66000000Y-32510000D03*
X66000000Y-31490000D03*
%TD*%
D44*
%TO.C,C_EFUSE_IN*%
X31480000Y-19250000D03*
X30520000Y-19250000D03*
%TD*%
%TO.C,C_BUCK_HF*%
X39680000Y-16490000D03*
X38720000Y-16490000D03*
%TD*%
D19*
%TO.C,R_REV*%
X84740000Y-20500000D03*
X85760000Y-20500000D03*
%TD*%
D45*
%TO.C,U_TOUCH*%
X28612500Y-45200000D03*
D46*
X28612500Y-45600000D03*
X28612500Y-46000000D03*
X28612500Y-46400000D03*
D47*
X28612500Y-46800000D03*
D48*
X29200000Y-47387500D03*
D49*
X29600000Y-47387500D03*
X30000000Y-47387500D03*
X30400000Y-47387500D03*
D50*
X30800000Y-47387500D03*
D51*
X31387500Y-46800000D03*
D46*
X31387500Y-46400000D03*
X31387500Y-46000000D03*
X31387500Y-45600000D03*
D52*
X31387500Y-45200000D03*
D53*
X30800000Y-44612500D03*
D49*
X30400000Y-44612500D03*
X30000000Y-44612500D03*
X29600000Y-44612500D03*
D54*
X29200000Y-44612500D03*
%TD*%
D11*
%TO.C,C_IMU_VLOGIC*%
X49020000Y-34000000D03*
X49980000Y-34000000D03*
%TD*%
D55*
%TO.C,U_MIC*%
X12140000Y-51330000D03*
X13190000Y-51330000D03*
X14240000Y-51330000D03*
X15290000Y-51330000D03*
X15290000Y-48670000D03*
X14240000Y-48670000D03*
X13190000Y-48670000D03*
X12140000Y-48670000D03*
%TD*%
D19*
%TO.C,R_LCD_CLK*%
X46990000Y-5000000D03*
X48010000Y-5000000D03*
%TD*%
D56*
%TO.C,D_USB_DP*%
X26150000Y-11000000D03*
X26850000Y-11000000D03*
%TD*%
D11*
%TO.C,C_FF*%
X41270000Y-18750000D03*
X42230000Y-18750000D03*
%TD*%
D19*
%TO.C,R_CC2*%
X31240000Y-10750000D03*
X32260000Y-10750000D03*
%TD*%
D29*
%TO.C,C_EFUSE_DVDT*%
X32000000Y-21980000D03*
X32000000Y-21020000D03*
%TD*%
D23*
%TO.C,Q_HEAT*%
X75062500Y-43050000D03*
X75062500Y-44950000D03*
X76937500Y-44000000D03*
%TD*%
D29*
%TO.C,C_EN*%
X6000000Y-42480000D03*
X6000000Y-41520000D03*
%TD*%
D11*
%TO.C,C_LDO15_IN*%
X52020000Y-58500000D03*
X52980000Y-58500000D03*
%TD*%
D19*
%TO.C,R_FB2*%
X37740000Y-9250000D03*
X38760000Y-9250000D03*
%TD*%
D11*
%TO.C,C_TOUCH*%
X24020000Y-49500000D03*
X24980000Y-49500000D03*
%TD*%
D19*
%TO.C,R_SDA*%
X22490000Y-32000000D03*
X23510000Y-32000000D03*
%TD*%
%TO.C,R_LCD_BL_GATE*%
X56290000Y-12050000D03*
X57310000Y-12050000D03*
%TD*%
D29*
%TO.C,C_LDO28_OUT*%
X29000000Y-53480000D03*
X29000000Y-52520000D03*
%TD*%
D57*
%TO.C,U_AMP*%
X53690000Y-49690000D03*
X53690000Y-50310000D03*
X54310000Y-49690000D03*
X54310000Y-50310000D03*
D58*
X52562500Y-49250000D03*
X52562500Y-49750000D03*
X52562500Y-50250000D03*
X52562500Y-50750000D03*
D59*
X53250000Y-51437500D03*
X53750000Y-51437500D03*
X54250000Y-51437500D03*
X54750000Y-51437500D03*
D58*
X55437500Y-50750000D03*
X55437500Y-50250000D03*
X55437500Y-49750000D03*
X55437500Y-49250000D03*
D59*
X54750000Y-48562500D03*
X54250000Y-48562500D03*
X53750000Y-48562500D03*
X53250000Y-48562500D03*
%TD*%
D11*
%TO.C,C_TOUCH_VREG*%
X24020000Y-47000000D03*
X24980000Y-47000000D03*
%TD*%
%TO.C,C_MIC*%
X13020000Y-47000000D03*
X13980000Y-47000000D03*
%TD*%
D40*
%TO.C,U_LDO15*%
X50862500Y-55050000D03*
X50862500Y-56000000D03*
X50862500Y-56950000D03*
X53137500Y-56950000D03*
X53137500Y-55050000D03*
%TD*%
D19*
%TO.C,R_AMP_SD*%
X54240000Y-53000000D03*
X55260000Y-53000000D03*
%TD*%
D11*
%TO.C,C_IMU_CP*%
X49020000Y-26500000D03*
X49980000Y-26500000D03*
%TD*%
D19*
%TO.C,R_CAM_PWDN*%
X33990000Y-47800000D03*
X35010000Y-47800000D03*
%TD*%
M02*
