%TF.GenerationSoftware,KiCad,Pcbnew,10.0.6*%
%TF.CreationDate,2026-09-16T01:52:43-07:00*%
%TF.ProjectId,plush-toy-mainboard,706c7573-682d-4746-9f79-2d6d61696e62,rev?*%
%TF.SameCoordinates,Original*%
%TF.FileFunction,Copper,L4,Bot*%
%TF.FilePolarity,Positive*%
%FSLAX46Y46*%
G04 Gerber Fmt 4.6, Leading zero omitted, Abs format (unit mm)*
G04 Created by KiCad (PCBNEW 10.0.6) date 2026-09-16 01:52:43*
%MOMM*%
%LPD*%
G01*
G04 APERTURE LIST*
G04 Aperture macros list*
%AMRoundRect*
0 Rectangle with rounded corners*
0 $1 Rounding radius*
0 $2 $3 $4 $5 $6 $7 $8 $9 X,Y pos of 4 corners*
0 Add a 4 corners polygon primitive as box body*
4,1,4,$2,$3,$4,$5,$6,$7,$8,$9,$2,$3,0*
0 Add four circle primitives for the rounded corners*
1,1,$1+$1,$2,$3*
1,1,$1+$1,$4,$5*
1,1,$1+$1,$6,$7*
1,1,$1+$1,$8,$9*
0 Add four rect primitives between the rounded corners*
20,1,$1+$1,$2,$3,$4,$5,0*
20,1,$1+$1,$4,$5,$6,$7,0*
20,1,$1+$1,$6,$7,$8,$9,0*
20,1,$1+$1,$8,$9,$2,$3,0*%
G04 Aperture macros list end*
%TA.AperFunction,HeatsinkPad*%
%ADD10C,0.500000*%
%TD*%
%TA.AperFunction,HeatsinkPad*%
%ADD11R,0.500000X1.600000*%
%TD*%
%TA.AperFunction,ComponentPad*%
%ADD12O,1.000000X2.100000*%
%TD*%
%TA.AperFunction,ComponentPad*%
%ADD13O,1.000000X1.600000*%
%TD*%
%TA.AperFunction,HeatsinkPad*%
%ADD14C,0.600000*%
%TD*%
%TA.AperFunction,ComponentPad*%
%ADD15RoundRect,0.250001X-1.099999X1.099999X-1.099999X-1.099999X1.099999X-1.099999X1.099999X1.099999X0*%
%TD*%
%TA.AperFunction,ComponentPad*%
%ADD16C,2.700000*%
%TD*%
%TA.AperFunction,ComponentPad*%
%ADD17RoundRect,0.250000X-0.350000X-0.625000X0.350000X-0.625000X0.350000X0.625000X-0.350000X0.625000X0*%
%TD*%
%TA.AperFunction,ComponentPad*%
%ADD18O,1.200000X1.750000*%
%TD*%
%TA.AperFunction,ComponentPad*%
%ADD19R,1.700000X1.700000*%
%TD*%
%TA.AperFunction,ComponentPad*%
%ADD20C,1.700000*%
%TD*%
%TA.AperFunction,ComponentPad*%
%ADD21RoundRect,0.250001X0.949999X-0.949999X0.949999X0.949999X-0.949999X0.949999X-0.949999X-0.949999X0*%
%TD*%
%TA.AperFunction,ComponentPad*%
%ADD22C,2.400000*%
%TD*%
%TA.AperFunction,ViaPad*%
%ADD23C,0.600000*%
%TD*%
%TA.AperFunction,ViaPad*%
%ADD24C,0.450000*%
%TD*%
%TA.AperFunction,ViaPad*%
%ADD25C,0.500000*%
%TD*%
%TA.AperFunction,ViaPad*%
%ADD26C,0.800000*%
%TD*%
%TA.AperFunction,Conductor*%
%ADD27C,0.500000*%
%TD*%
%TA.AperFunction,Conductor*%
%ADD28C,0.200000*%
%TD*%
%TA.AperFunction,Conductor*%
%ADD29C,1.000000*%
%TD*%
%TA.AperFunction,Conductor*%
%ADD30C,0.300000*%
%TD*%
G04 APERTURE END LIST*
D10*
%TO.P,U_EFUSE,9*%
%TO.N,GND*%
X34500000Y-18450000D03*
D11*
X34500000Y-19000000D03*
D10*
X34500000Y-19550000D03*
%TD*%
D12*
%TO.P,J_USB,SH*%
%TO.N,GND*%
X32320000Y-7830000D03*
D13*
X32320000Y-3650000D03*
D12*
X23680000Y-7830000D03*
D13*
X23680000Y-3650000D03*
%TD*%
D14*
%TO.P,U1,41*%
%TO.N,GND*%
X8510000Y-32900000D03*
X9910000Y-32900000D03*
X7810000Y-32200000D03*
X9210000Y-32200000D03*
X10610000Y-32200000D03*
X8510000Y-31500000D03*
X9910000Y-31500000D03*
X7810000Y-30800000D03*
X9210000Y-30800000D03*
X10610000Y-30800000D03*
X8510000Y-30100000D03*
X9910000Y-30100000D03*
%TD*%
D15*
%TO.P,J_HEAT,1*%
%TO.N,VMOT*%
X84500000Y-43000000D03*
D16*
%TO.P,J_HEAT,2*%
%TO.N,HEAT_LOW*%
X84500000Y-46960000D03*
%TD*%
D17*
%TO.P,J_NTC,1*%
%TO.N,NTC_SENSE*%
X74000000Y-55000000D03*
D18*
%TO.P,J_NTC,2*%
%TO.N,GND*%
X76000000Y-55000000D03*
%TD*%
D19*
%TO.P,J_SERVO_R,1*%
%TO.N,SERVO_R_PWM*%
X86000000Y-32000000D03*
D20*
%TO.P,J_SERVO_R,2*%
%TO.N,VMOT*%
X86000000Y-34540000D03*
%TO.P,J_SERVO_R,3*%
%TO.N,PGND*%
X86000000Y-37080000D03*
%TD*%
D19*
%TO.P,J_LCD_R,1*%
%TO.N,LCD_RST*%
X47000000Y-7500000D03*
D20*
%TO.P,J_LCD_R,2*%
%TO.N,LCD_CS_R*%
X49540000Y-7500000D03*
%TO.P,J_LCD_R,3*%
%TO.N,LCD_DC*%
X52080000Y-7500000D03*
%TO.P,J_LCD_R,4*%
%TO.N,LCD_MOSI_S*%
X54620000Y-7500000D03*
%TO.P,J_LCD_R,5*%
%TO.N,LCD_CLK_S*%
X57160000Y-7500000D03*
%TO.P,J_LCD_R,6*%
%TO.N,GND*%
X59700000Y-7500000D03*
%TO.P,J_LCD_R,7*%
%TO.N,+3V3*%
X62240000Y-7500000D03*
%TO.P,J_LCD_R,8*%
%TO.N,LCD_BL*%
X64780000Y-7500000D03*
%TD*%
D19*
%TO.P,J_LCD_L,1*%
%TO.N,LCD_RST*%
X47000000Y-2500000D03*
D20*
%TO.P,J_LCD_L,2*%
%TO.N,LCD_CS_L*%
X49540000Y-2500000D03*
%TO.P,J_LCD_L,3*%
%TO.N,LCD_DC*%
X52080000Y-2500000D03*
%TO.P,J_LCD_L,4*%
%TO.N,LCD_MOSI_S*%
X54620000Y-2500000D03*
%TO.P,J_LCD_L,5*%
%TO.N,LCD_CLK_S*%
X57160000Y-2500000D03*
%TO.P,J_LCD_L,6*%
%TO.N,GND*%
X59700000Y-2500000D03*
%TO.P,J_LCD_L,7*%
%TO.N,+3V3*%
X62240000Y-2500000D03*
%TO.P,J_LCD_L,8*%
%TO.N,LCD_BL*%
X64780000Y-2500000D03*
%TD*%
D21*
%TO.P,J_VMOT,1*%
%TO.N,VMOT_IN*%
X83300000Y-16500000D03*
D22*
%TO.P,J_VMOT,2*%
%TO.N,PGND*%
X83300000Y-11420000D03*
%TD*%
D17*
%TO.P,J_TOUCH,1*%
%TO.N,TOUCH_E0*%
X19000000Y-56000000D03*
D18*
%TO.P,J_TOUCH,2*%
%TO.N,GND*%
X21000000Y-56000000D03*
%TD*%
D17*
%TO.P,J_SPK,1*%
%TO.N,SPK_P*%
X62000000Y-55000000D03*
D18*
%TO.P,J_SPK,2*%
%TO.N,SPK_N*%
X64000000Y-55000000D03*
%TD*%
D19*
%TO.P,J_SERVO_L,1*%
%TO.N,SERVO_L_PWM*%
X86000000Y-23000000D03*
D20*
%TO.P,J_SERVO_L,2*%
%TO.N,VMOT*%
X86000000Y-25540000D03*
%TO.P,J_SERVO_L,3*%
%TO.N,PGND*%
X86000000Y-28080000D03*
%TD*%
D23*
%TO.N,+2V8*%
X44470800Y-50673900D03*
X39818200Y-46042200D03*
D24*
X44250000Y-57080000D03*
D23*
X42228400Y-46128300D03*
%TO.N,GND*%
X47450000Y-52670000D03*
X70460000Y-45500000D03*
X50710000Y-26500000D03*
X42343200Y-48413200D03*
X32980000Y-10750000D03*
X51697700Y-50400400D03*
X15912800Y-8412900D03*
X38715800Y-54226200D03*
X65897500Y-23387500D03*
X53599600Y-47697700D03*
X1490000Y-21250000D03*
D24*
X45250000Y-57080000D03*
D23*
X39373200Y-8636800D03*
X49750000Y-56000000D03*
X2240000Y-42480000D03*
X39050000Y-50150000D03*
X27600000Y-11000000D03*
X11080000Y-42150000D03*
X40093200Y-48413200D03*
X68000000Y-32000000D03*
X66788600Y-46506300D03*
X40575000Y-14000000D03*
X28556300Y-47560400D03*
X25100000Y-44850000D03*
X26200000Y-15500000D03*
X54000000Y-50000000D03*
X55000000Y-54790000D03*
X18800000Y-40850000D03*
X25150000Y-48800000D03*
X43301800Y-28270400D03*
X38500000Y-18750000D03*
X11080000Y-40850000D03*
D25*
X26600000Y-48950000D03*
D23*
X59217800Y-21299500D03*
X38720000Y-17240000D03*
X31520000Y-50150000D03*
X29000000Y-51790000D03*
X46343200Y-5613200D03*
X54710000Y-47000000D03*
X66675000Y-48000000D03*
X29790000Y-19250000D03*
X35623200Y-48413200D03*
X66000000Y-30770000D03*
X20150000Y-44800000D03*
X20150000Y-42200000D03*
X8087200Y-8412900D03*
D25*
X36560000Y-48950000D03*
D23*
X50710000Y-34000000D03*
X69343200Y-51113200D03*
X25100000Y-46150000D03*
X32550000Y-52670000D03*
X19200000Y-7800000D03*
X59054300Y-22597200D03*
X43500000Y-13050000D03*
X36540000Y-50150000D03*
X56480000Y-26490000D03*
D25*
X34070000Y-48950000D03*
D23*
X37990000Y-16490000D03*
D25*
X29090000Y-48950000D03*
D23*
X3000000Y-43230000D03*
X53710000Y-58500000D03*
X1300000Y-44025000D03*
X1490000Y-38750000D03*
X58102500Y-23387500D03*
X26500000Y-50150000D03*
X56302300Y-49599600D03*
D25*
X26300000Y-46600000D03*
D23*
X16227000Y-40850000D03*
X15912800Y-15412900D03*
X20200000Y-46150000D03*
X23750000Y-53000000D03*
X34030000Y-50150000D03*
X18850000Y-44800000D03*
X27500000Y-19500000D03*
X58362000Y-21882600D03*
X32000000Y-20290000D03*
X29010000Y-50150000D03*
X57000000Y-23290000D03*
X49500000Y-28790000D03*
X8087200Y-15412900D03*
X2080700Y-44055700D03*
X58560200Y-20522900D03*
X22650000Y-46150000D03*
X39700000Y-14000000D03*
D25*
X31580000Y-48950000D03*
D23*
X18800000Y-42150000D03*
X44710000Y-47800000D03*
X13653000Y-40850000D03*
D24*
X38750000Y-58180000D03*
D25*
X26600000Y-47000000D03*
D23*
X27710000Y-55500000D03*
X25593200Y-50113200D03*
X46250000Y-36210000D03*
X39100000Y-11000000D03*
X58560200Y-30677100D03*
X35730000Y-44000000D03*
D25*
X39050000Y-48950000D03*
D23*
X22650000Y-44850000D03*
X13653000Y-42150000D03*
X6750000Y-41520000D03*
X60175000Y-49000000D03*
X16227000Y-42150000D03*
X48698200Y-28270400D03*
X45000000Y-33500000D03*
X63664900Y-23188000D03*
X43450000Y-17000000D03*
%TO.N,EFUSE_DVDT*%
X31825000Y-22719900D03*
X34070400Y-17729600D03*
%TO.N,VBUS*%
X47572000Y-47137900D03*
X42068100Y-19531700D03*
X40417300Y-16490000D03*
X40761500Y-19536100D03*
D26*
%TO.N,PGND*%
X86640800Y-21080200D03*
X75000000Y-13273300D03*
X65104200Y-33604200D03*
X74200000Y-22800000D03*
X60600000Y-27300000D03*
X75439900Y-45859000D03*
D23*
%TO.N,LCD_MOSI*%
X24874300Y-28095000D03*
X35286400Y-8381000D03*
X42113500Y-3760000D03*
X37492500Y-8381000D03*
%TO.N,UART_TX*%
X7789700Y-23368100D03*
X20921300Y-40695800D03*
%TO.N,VBUS_IN*%
X31723700Y-9882200D03*
X25825900Y-9927500D03*
X34476000Y-7236200D03*
%TO.N,USB_DP*%
X19246500Y-37888600D03*
X22963900Y-9408200D03*
X17323000Y-30963200D03*
X17978000Y-25429500D03*
%TO.N,+3V3*%
X48290000Y-34000000D03*
X44040000Y-5000000D03*
X24230000Y-32000000D03*
X35520000Y-10750000D03*
X49979200Y-57687700D03*
X3000000Y-40790000D03*
X43800000Y-33500000D03*
X1300000Y-40825000D03*
X59200000Y-13900000D03*
X56600000Y-10300000D03*
X43500000Y-14950000D03*
X70000000Y-50500000D03*
X57000000Y-25710000D03*
X50900000Y-54400000D03*
X51290000Y-58500000D03*
X41270000Y-17990000D03*
X19200000Y-11800000D03*
X23979200Y-51312300D03*
X28750100Y-43832300D03*
X27500000Y-20500000D03*
X23290000Y-49500000D03*
X2760000Y-38750000D03*
X25290000Y-55500000D03*
X34150000Y-14000000D03*
X23979200Y-54687700D03*
X66200000Y-19600000D03*
X49500000Y-31210000D03*
X48698200Y-31729600D03*
X49979200Y-54312300D03*
X24230000Y-34000000D03*
X11770000Y-16500000D03*
X43250000Y-10750000D03*
X60000000Y-19600000D03*
%TO.N,TOUCH_E1*%
X28126500Y-42483100D03*
X30400000Y-45924000D03*
%TO.N,EN*%
X7462500Y-3242600D03*
X4231000Y-37547300D03*
D24*
%TO.N,CAM_SIOD*%
X44750000Y-58180000D03*
D23*
X22348700Y-54675300D03*
X36686000Y-53721700D03*
X31338800Y-57589400D03*
D24*
%TO.N,CAM_VSYNC*%
X42750000Y-58180000D03*
D23*
X15990700Y-34074900D03*
%TO.N,CAM_HREF*%
X9527700Y-37529900D03*
X25183300Y-39758700D03*
X20123700Y-40098300D03*
D24*
X41750000Y-58180000D03*
D23*
%TO.N,CAM_Y9*%
X11600000Y-38800000D03*
X9900000Y-45700000D03*
X39500000Y-58000000D03*
X11100000Y-45700000D03*
D24*
%TO.N,CAM_Y8*%
X39250000Y-57080000D03*
D23*
X25178300Y-38994900D03*
D24*
%TO.N,CAM_Y7*%
X38250000Y-57080000D03*
D23*
X13675400Y-37533100D03*
%TO.N,CAM_Y4*%
X31249300Y-54428300D03*
X15664900Y-37543400D03*
%TO.N,LCD_CS_R*%
X22317100Y-34860000D03*
D24*
%TO.N,CAM_Y3*%
X35750000Y-58180000D03*
D23*
X17131800Y-37350400D03*
%TO.N,CAM_Y5*%
X30054400Y-51032600D03*
D24*
X36250000Y-57080000D03*
D23*
X25200000Y-43368700D03*
X18037100Y-33175000D03*
X24966600Y-42600400D03*
X24804100Y-50332700D03*
%TO.N,CAM_Y2*%
X22523300Y-50066000D03*
X16994300Y-32554000D03*
%TO.N,CAM_Y6*%
X28000000Y-34100000D03*
X21000000Y-33400000D03*
X32200000Y-50900000D03*
X58200000Y-51200000D03*
X40300000Y-49900000D03*
X36800000Y-35300000D03*
D24*
X37250000Y-57080000D03*
D23*
X51600000Y-52500000D03*
X18034700Y-31701700D03*
X43500000Y-49900000D03*
X26100000Y-34100000D03*
X34000000Y-50900000D03*
X43500000Y-53400000D03*
%TO.N,CAM_PCLK*%
X46354500Y-45228300D03*
X33604600Y-29208900D03*
X39165100Y-53100800D03*
X41685500Y-53590100D03*
%TO.N,LCD_RST*%
X20458200Y-26825000D03*
%TO.N,LCD_BL_PWM*%
X22600000Y-25000000D03*
X22600000Y-26200000D03*
%TO.N,LCD_CS_L*%
X20459000Y-23015000D03*
%TO.N,BOOT*%
X18300000Y-8800000D03*
X15000000Y-11200000D03*
%TO.N,LCD_CLK*%
X13009500Y-20041100D03*
X26054900Y-2465200D03*
%TO.N,AMP_DIN*%
X11284200Y-22456900D03*
X51701400Y-48945900D03*
%TO.N,AMP_BCLK*%
X10380000Y-22452400D03*
X51219400Y-48359100D03*
%TO.N,AMP_LRCLK*%
X55230000Y-47898100D03*
X9110000Y-22475000D03*
%TO.N,MIC_SD*%
X15200000Y-22500000D03*
X17200000Y-18500000D03*
X22500000Y-18500000D03*
X21100000Y-18500000D03*
%TO.N,I2C_SDA*%
X21928300Y-31405100D03*
X66095700Y-27704000D03*
X64800000Y-43377200D03*
D25*
X26850000Y-46000000D03*
D23*
X11767300Y-20039500D03*
D25*
X23600000Y-38000000D03*
D23*
%TO.N,MIC_SCK*%
X13600000Y-18300000D03*
X21100000Y-16500000D03*
X5900000Y-18300000D03*
X4000000Y-21200000D03*
X22500000Y-16500000D03*
X16800000Y-16900000D03*
%TO.N,MIC_WS*%
X13600000Y-17500000D03*
X5900000Y-17500000D03*
X21100000Y-17500000D03*
X22500000Y-17500000D03*
X16200000Y-17500000D03*
X2800000Y-21200000D03*
%TO.N,TOUCH_E5*%
X36616400Y-45599800D03*
X36829800Y-39835500D03*
D24*
%TO.N,+1V5*%
X41250000Y-57080000D03*
D23*
X43020000Y-46800000D03*
D24*
%TO.N,CAM_RESET*%
X43250000Y-57080000D03*
D23*
X44053600Y-52774000D03*
%TO.N,CAM_PWDN*%
X37737600Y-46187100D03*
D24*
X42250000Y-57080000D03*
D23*
%TO.N,BUCK_EN*%
X36185900Y-11893000D03*
X39223000Y-18137700D03*
%TO.N,TOUCH_E3*%
X32500000Y-47500000D03*
X27750000Y-38500000D03*
%TO.N,SERVO_L_PWM*%
X63667800Y-24625000D03*
%TO.N,HEAT_PWM*%
X67000000Y-38917800D03*
X66538100Y-25626500D03*
%TO.N,PWM_OE*%
X57912900Y-28142000D03*
X66141400Y-24950000D03*
D25*
%TO.N,TOUCH_E2*%
X31000000Y-48000000D03*
X30900000Y-40200000D03*
D23*
%TO.N,TOUCH_E4*%
X34631500Y-37948200D03*
X35489500Y-46243200D03*
%TO.N,TOUCH_REXT*%
X29700000Y-46300000D03*
X34100000Y-44000000D03*
D25*
%TO.N,TOUCH_E0*%
X29100000Y-48300000D03*
D23*
%TO.N,TOUCH_VREG*%
X23500000Y-47700000D03*
X27500000Y-47700000D03*
%TO.N,TOUCH_E7*%
X32305000Y-40388800D03*
X29061500Y-40770500D03*
%TD*%
%TO.N,+2V8*%
D27*
X42228400Y-46128300D02*
X39904300Y-46128300D01*
X44755300Y-56574700D02*
X44755300Y-50958400D01*
X44755300Y-50958400D02*
X44470800Y-50673900D01*
X44250000Y-57080000D02*
X44755300Y-56574700D01*
X39904300Y-46128300D02*
X39818200Y-46042200D01*
%TO.N,GND*%
X34500000Y-18450000D02*
X34500000Y-19000000D01*
%TO.N,EFUSE_DVDT*%
D28*
X34070400Y-17729600D02*
X32551700Y-19248300D01*
X32551700Y-19248300D02*
X32551700Y-21993200D01*
X32551700Y-21993200D02*
X31825000Y-22719900D01*
%TO.N,VBUS*%
D27*
X40761500Y-19536100D02*
X40417300Y-19191900D01*
X47572000Y-25035600D02*
X42068100Y-19531700D01*
X47572000Y-47137900D02*
X47572000Y-25035600D01*
X40417300Y-19191900D02*
X40417300Y-16490000D01*
%TO.N,VMOT*%
D29*
X87621100Y-27161100D02*
X86000000Y-25540000D01*
X86079000Y-34618900D02*
X87621100Y-33076800D01*
X87621100Y-33076800D02*
X87621100Y-27161100D01*
X87576800Y-39923200D02*
X84500000Y-43000000D01*
X86000000Y-34540000D02*
X86079000Y-34618900D01*
X86079000Y-34618900D02*
X87576800Y-36116800D01*
X87576800Y-36116800D02*
X87576800Y-39923200D01*
%TO.N,PGND*%
X86000000Y-28080000D02*
X83000000Y-28080000D01*
X64200000Y-22200000D02*
X64200000Y-22300000D01*
X66400000Y-22500000D02*
X66600000Y-22500000D01*
X63000000Y-22300000D02*
X63200000Y-22300000D01*
X63500000Y-22200000D02*
X63500000Y-22100000D01*
X63900000Y-22200000D02*
X64200000Y-22200000D01*
X66400000Y-22400000D02*
X66400000Y-22500000D01*
X62900000Y-22400000D02*
X63000000Y-22400000D01*
X63200000Y-22200000D02*
X63500000Y-22200000D01*
X60600000Y-27300000D02*
X60600000Y-22800000D01*
X66600000Y-22600000D02*
X66700000Y-22600000D01*
X62800000Y-22500000D02*
X62900000Y-22500000D01*
X63500000Y-22100000D02*
X63900000Y-22100000D01*
X62900000Y-22500000D02*
X62900000Y-22400000D01*
X66100000Y-22300000D02*
X66100000Y-22400000D01*
X66700000Y-22600000D02*
X66700000Y-22700000D01*
X63900000Y-22100000D02*
X63900000Y-22200000D01*
X66800000Y-22700000D02*
X66800000Y-22800000D01*
X66800000Y-22800000D02*
X74200000Y-22800000D01*
X66700000Y-22700000D02*
X66800000Y-22700000D01*
X62700000Y-22600000D02*
X62800000Y-22600000D01*
X60600000Y-22800000D02*
X62700000Y-22800000D01*
X64200000Y-22300000D02*
X66100000Y-22300000D01*
X66600000Y-22500000D02*
X66600000Y-22600000D01*
X62700000Y-22800000D02*
X62700000Y-22600000D01*
X62800000Y-22600000D02*
X62800000Y-22500000D01*
X66100000Y-22400000D02*
X66400000Y-22400000D01*
X63200000Y-22300000D02*
X63200000Y-22200000D01*
X63000000Y-22400000D02*
X63000000Y-22300000D01*
%TO.N,LCD_MOSI*%
D28*
X35286400Y-9338700D02*
X24874300Y-19750800D01*
X42113500Y-3760000D02*
X37492500Y-8381000D01*
X35286400Y-8381000D02*
X35286400Y-9338700D01*
X24874300Y-19750800D02*
X24874300Y-28095000D01*
%TO.N,LCD_MOSI_S*%
X54620000Y-2500000D02*
X54620000Y-7500000D01*
%TO.N,UART_TX*%
X16969700Y-35894600D02*
X17033400Y-35894600D01*
X19321300Y-39240900D02*
X20046600Y-39240900D01*
X18165300Y-38084900D02*
X19321300Y-39240900D01*
X18165300Y-37026500D02*
X18165300Y-38084900D01*
X20046600Y-39240900D02*
X20921300Y-40115600D01*
X7789700Y-26714600D02*
X16969700Y-35894600D01*
X20921300Y-40115600D02*
X20921300Y-40695800D01*
X7789700Y-23368100D02*
X7789700Y-26714600D01*
X17033400Y-35894600D02*
X18165300Y-37026500D01*
%TO.N,VBUS_IN*%
D27*
X34476000Y-7236200D02*
X34476000Y-7538300D01*
X34476000Y-7538300D02*
X32132100Y-9882200D01*
X25871200Y-9882200D02*
X25825900Y-9927500D01*
X31723700Y-9882200D02*
X25871200Y-9882200D01*
X32132100Y-9882200D02*
X31723700Y-9882200D01*
%TO.N,USB_DP*%
D28*
X17426400Y-34859500D02*
X17426400Y-32902100D01*
X17323000Y-32102300D02*
X17323000Y-30963200D01*
X17555100Y-32773400D02*
X17555100Y-32334400D01*
X19246500Y-37888600D02*
X19246500Y-36679600D01*
X19246500Y-36679600D02*
X17426400Y-34859500D01*
X17555100Y-32334400D02*
X17323000Y-32102300D01*
X17978000Y-14394100D02*
X22963900Y-9408200D01*
X17978000Y-25429500D02*
X17978000Y-14394100D01*
X17426400Y-32902100D02*
X17555100Y-32773400D01*
%TO.N,+3V3*%
D27*
X52100000Y-51000000D02*
X52200000Y-51000000D01*
X52300000Y-50800000D02*
X52400000Y-50800000D01*
X50900000Y-51200000D02*
X51800000Y-51200000D01*
X51800000Y-51100000D02*
X52100000Y-51100000D01*
X52200000Y-50900000D02*
X52300000Y-50900000D01*
X69000000Y-50500000D02*
X69000000Y-50400000D01*
X69000000Y-50400000D02*
X69700000Y-50400000D01*
X52400000Y-50700000D02*
X54400000Y-50700000D01*
X52300000Y-50900000D02*
X52300000Y-50800000D01*
X52400000Y-50800000D02*
X52400000Y-50700000D01*
X54400000Y-50700000D02*
X54400000Y-50600000D01*
X50900000Y-54400000D02*
X50900000Y-51200000D01*
X52100000Y-51100000D02*
X52100000Y-51000000D01*
X51800000Y-51200000D02*
X51800000Y-51100000D01*
X66200000Y-19600000D02*
X60000000Y-19600000D01*
X54500000Y-50500000D02*
X69000000Y-50500000D01*
X54500000Y-50600000D02*
X54500000Y-50500000D01*
X52200000Y-51000000D02*
X52200000Y-50900000D01*
X69700000Y-50500000D02*
X70000000Y-50500000D01*
X54400000Y-50600000D02*
X54500000Y-50600000D01*
X69700000Y-50400000D02*
X69700000Y-50500000D01*
%TO.N,TOUCH_E1*%
D28*
X30400000Y-45924000D02*
X30400000Y-46436800D01*
X28126500Y-45517000D02*
X28126500Y-42483100D01*
X29984900Y-46851900D02*
X29461400Y-46851900D01*
X30400000Y-46436800D02*
X29984900Y-46851900D01*
X29461400Y-46851900D02*
X28126500Y-45517000D01*
%TO.N,EN*%
X4231000Y-24771600D02*
X4231000Y-37547300D01*
X7462500Y-21540100D02*
X4231000Y-24771600D01*
X7462500Y-3242600D02*
X7462500Y-21540100D01*
%TO.N,CAM_SIOD*%
X41750000Y-56143200D02*
X39271600Y-53664800D01*
X39271600Y-53664800D02*
X36742900Y-53664800D01*
X44200000Y-57630000D02*
X42119100Y-57630000D01*
X31338800Y-57589400D02*
X25262800Y-57589400D01*
X41750000Y-57260900D02*
X41750000Y-56143200D01*
X44750000Y-58180000D02*
X44200000Y-57630000D01*
X25262800Y-57589400D02*
X22348700Y-54675300D01*
X36742900Y-53664800D02*
X36686000Y-53721700D01*
X42119100Y-57630000D02*
X41750000Y-57260900D01*
%TO.N,CAM_VSYNC*%
X24000000Y-37600000D02*
X24100000Y-37600000D01*
X20500000Y-36900000D02*
X20600000Y-36900000D01*
X20400000Y-36800000D02*
X20500000Y-36800000D01*
X24600000Y-40400000D02*
X24900000Y-40400000D01*
X24300000Y-40100000D02*
X24400000Y-40100000D01*
X21000000Y-37400000D02*
X21100000Y-37400000D01*
X42574600Y-44798100D02*
X42574600Y-44798000D01*
X15990700Y-31511500D02*
X15990700Y-34074900D01*
X19600000Y-35900000D02*
X19600000Y-36000000D01*
X24400000Y-40200000D02*
X24500000Y-40200000D01*
X20100000Y-36400000D02*
X20100000Y-36500000D01*
X17621000Y-30396100D02*
X17106100Y-30396100D01*
X24100000Y-37600000D02*
X24100000Y-39900000D01*
X20200000Y-36500000D02*
X20200000Y-36600000D01*
X19500000Y-35900000D02*
X19600000Y-35900000D01*
X19500000Y-35800000D02*
X19500000Y-35900000D01*
X21000000Y-37300000D02*
X21000000Y-37400000D01*
X20600000Y-37000000D02*
X20700000Y-37000000D01*
X20900000Y-37200000D02*
X20900000Y-37300000D01*
X24200000Y-40000000D02*
X24300000Y-40000000D01*
X19800000Y-36100000D02*
X19800000Y-36200000D01*
X24500000Y-40300000D02*
X24600000Y-40300000D01*
X20000000Y-36400000D02*
X20100000Y-36400000D01*
X20100000Y-36500000D02*
X20200000Y-36500000D01*
X20300000Y-36600000D02*
X20300000Y-36700000D01*
X19800000Y-36200000D02*
X19900000Y-36200000D01*
X20700000Y-37100000D02*
X20800000Y-37100000D01*
X19700000Y-36000000D02*
X19700000Y-36100000D01*
X43950400Y-46173800D02*
X43950300Y-46173800D01*
X42574600Y-44798000D02*
X42572600Y-44798000D01*
X20600000Y-36900000D02*
X20600000Y-37000000D01*
X19600000Y-36000000D02*
X19700000Y-36000000D01*
X21100000Y-37500000D02*
X24000000Y-37500000D01*
X19900000Y-36200000D02*
X19900000Y-36300000D01*
X25374300Y-40370100D02*
X24986000Y-40370100D01*
X43950400Y-48917700D02*
X43950400Y-46173800D01*
X20200000Y-36600000D02*
X20300000Y-36600000D01*
X20000000Y-36300000D02*
X20000000Y-36400000D01*
X20700000Y-37000000D02*
X20700000Y-37100000D01*
X24300000Y-40000000D02*
X24300000Y-40100000D01*
X20300000Y-36700000D02*
X20400000Y-36700000D01*
X43244000Y-58674000D02*
X44955400Y-58674000D01*
X24000000Y-37500000D02*
X24000000Y-37600000D01*
X24900000Y-40400000D02*
X24986000Y-40370100D01*
X45758600Y-57870800D02*
X45758600Y-50725900D01*
X24100000Y-39900000D02*
X24200000Y-39900000D01*
X45758600Y-50725900D02*
X43950400Y-48917700D01*
X20800000Y-37100000D02*
X20800000Y-37200000D01*
X35284000Y-37384900D02*
X28055900Y-37384900D01*
X19350700Y-34734800D02*
X19400000Y-34800000D01*
X43950300Y-46173800D02*
X42574600Y-44798100D01*
X24500000Y-40200000D02*
X24500000Y-40300000D01*
X19400000Y-35800000D02*
X19500000Y-35800000D01*
X24600000Y-40300000D02*
X24600000Y-40400000D01*
X26556500Y-38884300D02*
X26556500Y-39187900D01*
X36501300Y-38602200D02*
X35284000Y-37384900D01*
X20800000Y-37200000D02*
X20900000Y-37200000D01*
X20500000Y-36800000D02*
X20500000Y-36900000D01*
X36501300Y-38726700D02*
X36501300Y-38602200D01*
X44955400Y-58674000D02*
X45758600Y-57870800D01*
X42572600Y-44798000D02*
X36501300Y-38726700D01*
X19700000Y-36100000D02*
X19800000Y-36100000D01*
X19350700Y-32125800D02*
X17621000Y-30396100D01*
X21100000Y-37400000D02*
X21100000Y-37500000D01*
X19900000Y-36300000D02*
X20000000Y-36300000D01*
X17106100Y-30396100D02*
X15990700Y-31511500D01*
X20900000Y-37300000D02*
X21000000Y-37300000D01*
X19400000Y-34800000D02*
X19400000Y-35800000D01*
X26556500Y-39187900D02*
X25374300Y-40370100D01*
X42750000Y-58180000D02*
X43244000Y-58674000D01*
X24400000Y-40100000D02*
X24400000Y-40200000D01*
X28055900Y-37384900D02*
X26556500Y-38884300D01*
X24200000Y-39900000D02*
X24200000Y-40000000D01*
X20400000Y-36700000D02*
X20400000Y-36800000D01*
X19350700Y-34734800D02*
X19350700Y-32125800D01*
%TO.N,CAM_HREF*%
X35431000Y-37033200D02*
X27868800Y-37033200D01*
X46110300Y-58016400D02*
X46110300Y-50328400D01*
X26202200Y-38854600D02*
X25298100Y-39758700D01*
X20018800Y-39993400D02*
X20018800Y-39993300D01*
X42720200Y-44446300D02*
X42720100Y-44446300D01*
X19576400Y-39993300D02*
X17813600Y-38230500D01*
X10442100Y-36615500D02*
X9527700Y-37529900D01*
X43132500Y-44858600D02*
X43132400Y-44858600D01*
X42595700Y-59025700D02*
X45101000Y-59025700D01*
X42720100Y-44446300D02*
X38509800Y-40236000D01*
X43132400Y-44858500D02*
X42720200Y-44446300D01*
X38509800Y-40236000D02*
X38509800Y-40112000D01*
X17813600Y-37213600D02*
X17215500Y-36615500D01*
X46110300Y-50328400D02*
X45613400Y-49831500D01*
X26202200Y-38699800D02*
X26202200Y-38854600D01*
X45613400Y-47339500D02*
X43132500Y-44858600D01*
X38509800Y-40112000D02*
X35431000Y-37033200D01*
X43132400Y-44858600D02*
X43132400Y-44858500D01*
X45613400Y-49831500D02*
X45613400Y-47339500D01*
X17813600Y-38230500D02*
X17813600Y-37213600D01*
X17215500Y-36615500D02*
X10442100Y-36615500D01*
X20123700Y-40098300D02*
X20018800Y-39993400D01*
X27868800Y-37033200D02*
X26202200Y-38699800D01*
X25298100Y-39758700D02*
X25183300Y-39758700D01*
X20018800Y-39993300D02*
X19576400Y-39993300D01*
X45101000Y-59025700D02*
X46110300Y-58016400D01*
X41750000Y-58180000D02*
X42595700Y-59025700D01*
%TO.N,CAM_Y9*%
X39200000Y-58400000D02*
X39200000Y-58600000D01*
X10200000Y-59000000D02*
X10100000Y-59000000D01*
X39200000Y-58600000D02*
X39000000Y-58600000D01*
X11400000Y-42600000D02*
X11600000Y-42600000D01*
X11600000Y-42600000D02*
X11600000Y-42400000D01*
X11400000Y-42700000D02*
X11400000Y-42600000D01*
X39000000Y-58700000D02*
X38600000Y-58700000D01*
X39500000Y-58000000D02*
X39300000Y-58000000D01*
X11600000Y-40600000D02*
X11600000Y-38800000D01*
X10300000Y-59100000D02*
X10200000Y-59100000D01*
X38500000Y-59200000D02*
X10300000Y-59200000D01*
X10300000Y-59200000D02*
X10300000Y-59100000D01*
X11700000Y-40600000D02*
X11600000Y-40600000D01*
X38600000Y-58700000D02*
X38600000Y-59100000D01*
X38500000Y-59100000D02*
X38500000Y-59200000D01*
X39300000Y-58400000D02*
X39200000Y-58400000D01*
X10100000Y-45700000D02*
X9900000Y-45700000D01*
X39300000Y-58000000D02*
X39300000Y-58400000D01*
X38600000Y-59100000D02*
X38500000Y-59100000D01*
X10100000Y-59000000D02*
X10100000Y-45700000D01*
X10200000Y-59100000D02*
X10200000Y-59000000D01*
X11700000Y-42400000D02*
X11700000Y-40600000D01*
X11100000Y-42700000D02*
X11400000Y-42700000D01*
X11600000Y-42400000D02*
X11700000Y-42400000D01*
X11100000Y-45700000D02*
X11100000Y-42700000D01*
X39000000Y-58600000D02*
X39000000Y-58700000D01*
%TO.N,CAM_Y8*%
X41245300Y-59377400D02*
X40237200Y-58369300D01*
X45246600Y-59377400D02*
X41245300Y-59377400D01*
X25178300Y-38994900D02*
X27491700Y-36681500D01*
X35700300Y-36681500D02*
X38861500Y-39842700D01*
X46462000Y-58162000D02*
X45246600Y-59377400D01*
X45965100Y-47193900D02*
X45965100Y-49023200D01*
X39485300Y-57080000D02*
X39250000Y-57080000D01*
X46462000Y-49520100D02*
X46462000Y-58162000D01*
X38861500Y-40090400D02*
X38861600Y-40090400D01*
X38861500Y-39842700D02*
X38861500Y-40090400D01*
X27491700Y-36681500D02*
X35700300Y-36681500D01*
X40237200Y-57831900D02*
X39485300Y-57080000D01*
X38861600Y-40090400D02*
X45965100Y-47193900D01*
X40237200Y-58369300D02*
X40237200Y-57831900D01*
X45965100Y-49023200D02*
X46462000Y-49520100D01*
%TO.N,CAM_Y7*%
X38250000Y-57080000D02*
X38250000Y-58800000D01*
X13111300Y-36969000D02*
X13675400Y-37533100D01*
X10500000Y-58800000D02*
X10500000Y-37131000D01*
X11457700Y-37131000D02*
X11619700Y-36969000D01*
X11619700Y-36969000D02*
X13111300Y-36969000D01*
X10500000Y-37131000D02*
X11457700Y-37131000D01*
X38250000Y-58800000D02*
X10500000Y-58800000D01*
%TO.N,CAM_Y4*%
X20041300Y-56683900D02*
X20041300Y-55451600D01*
X18406500Y-57163100D02*
X19562100Y-57163100D01*
X17709900Y-56466500D02*
X18406500Y-57163100D01*
X21393400Y-54099500D02*
X30920500Y-54099500D01*
X20041300Y-55451600D02*
X21393400Y-54099500D01*
X17709900Y-39588400D02*
X17709900Y-56466500D01*
X15664900Y-37543400D02*
X17709900Y-39588400D01*
X30920500Y-54099500D02*
X31249300Y-54428300D01*
X19562100Y-57163100D02*
X20041300Y-56683900D01*
%TO.N,LCD_CS_R*%
X41516400Y-19607300D02*
X41516400Y-19303300D01*
X26263700Y-34860000D02*
X41516400Y-19607300D01*
X41839700Y-18980000D02*
X42274500Y-18980000D01*
X22317100Y-34860000D02*
X26263700Y-34860000D01*
X49540000Y-11714500D02*
X49540000Y-7500000D01*
X42274500Y-18980000D02*
X49540000Y-11714500D01*
X41516400Y-19303300D02*
X41839700Y-18980000D01*
%TO.N,CAM_Y3*%
X17358200Y-56612100D02*
X17358200Y-44844600D01*
X35750000Y-58180000D02*
X18926100Y-58180000D01*
X15103600Y-42590000D02*
X15103600Y-37304200D01*
X15103600Y-37304200D02*
X15416200Y-36991600D01*
X16773000Y-36991600D02*
X17131800Y-37350400D01*
X18926100Y-58180000D02*
X17358200Y-56612100D01*
X17358200Y-44844600D02*
X15103600Y-42590000D01*
X15416200Y-36991600D02*
X16773000Y-36991600D01*
%TO.N,CAM_Y5*%
X22919900Y-47471900D02*
X24548300Y-45843500D01*
X18037100Y-34949900D02*
X24966600Y-41879400D01*
X18037100Y-33175000D02*
X18037100Y-34949900D01*
X33770000Y-57575300D02*
X35754700Y-57575300D01*
X31801100Y-53276600D02*
X31801100Y-55606400D01*
X24804100Y-50174200D02*
X22919900Y-48290000D01*
X24548300Y-45843500D02*
X24548300Y-44020400D01*
X31801100Y-55606400D02*
X33770000Y-57575300D01*
X24804100Y-50332700D02*
X24804100Y-50174200D01*
X30054400Y-51529900D02*
X31801100Y-53276600D01*
X24966600Y-41879400D02*
X24966600Y-42600400D01*
X30054400Y-51032600D02*
X30054400Y-51529900D01*
X24548300Y-44020400D02*
X25200000Y-43368700D01*
X35754700Y-57575300D02*
X36250000Y-57080000D01*
X22919900Y-48290000D02*
X22919900Y-47471900D01*
%TO.N,CAM_Y2*%
X19343400Y-38765700D02*
X20068700Y-38765700D01*
X20068700Y-38765700D02*
X23204300Y-41901300D01*
X16994300Y-34924700D02*
X18662000Y-36592400D01*
X22523300Y-47217600D02*
X22523300Y-50066000D01*
X18662000Y-36592400D02*
X18662000Y-38084300D01*
X18662000Y-38084300D02*
X19343400Y-38765700D01*
X16994300Y-32554000D02*
X16994300Y-34924700D01*
X23204300Y-46536600D02*
X22523300Y-47217600D01*
X23204300Y-41901300D02*
X23204300Y-46536600D01*
%TO.N,CAM_Y6*%
X21000000Y-33400000D02*
X24500000Y-33400000D01*
X18500000Y-32800000D02*
X18500000Y-32700000D01*
X33269600Y-56577600D02*
X36747600Y-56577600D01*
X52400000Y-51600000D02*
X52100000Y-51600000D01*
X18700000Y-35000000D02*
X18600000Y-35000000D01*
X32152800Y-53131000D02*
X32152800Y-55460800D01*
X58200000Y-51200000D02*
X52700000Y-51200000D01*
X32157800Y-50292500D02*
X31982500Y-50467800D01*
X52600000Y-51300000D02*
X52600000Y-51400000D01*
X18700000Y-35100000D02*
X18700000Y-35000000D01*
X18900000Y-35300000D02*
X18900000Y-35200000D01*
X18900000Y-35200000D02*
X18800000Y-35200000D01*
X32152800Y-55460800D02*
X33269600Y-56577600D01*
X18034700Y-31701700D02*
X18955700Y-32622700D01*
X39400000Y-50700000D02*
X34000000Y-50700000D01*
X18500000Y-32700000D02*
X18400000Y-32700000D01*
X24700000Y-33500000D02*
X24700000Y-33700000D01*
X43500000Y-53400000D02*
X43500000Y-49900000D01*
X39400000Y-50600000D02*
X39400000Y-50700000D01*
X39600000Y-50500000D02*
X39500000Y-50500000D01*
X32200000Y-50900000D02*
X32200000Y-48300000D01*
X52500000Y-51500000D02*
X52400000Y-51500000D01*
X18400000Y-32700000D02*
X18400000Y-32600000D01*
X52100000Y-51700000D02*
X51600000Y-51700000D01*
X28000000Y-35200000D02*
X36400000Y-35200000D01*
X40300000Y-49900000D02*
X39600000Y-49900000D01*
X52100000Y-51600000D02*
X52100000Y-51700000D01*
X18600000Y-35000000D02*
X18600000Y-32800000D01*
X52700000Y-51200000D02*
X52700000Y-51300000D01*
X52400000Y-51500000D02*
X52400000Y-51600000D01*
X24800000Y-33700000D02*
X24800000Y-34100000D01*
X18000000Y-32600000D02*
X18034700Y-31701700D01*
X52700000Y-51300000D02*
X52600000Y-51300000D01*
X24800000Y-34100000D02*
X26100000Y-34100000D01*
X24500000Y-33500000D02*
X24700000Y-33500000D01*
X19000000Y-35300000D02*
X18900000Y-35300000D01*
X18955700Y-35371200D02*
X19000000Y-35300000D01*
X52600000Y-51400000D02*
X52500000Y-51400000D01*
X34000000Y-50700000D02*
X34000000Y-50900000D01*
X18800000Y-35100000D02*
X18700000Y-35100000D01*
X39600000Y-49900000D02*
X39600000Y-50500000D01*
X31982500Y-52960700D02*
X32152800Y-53131000D01*
X31982500Y-50467800D02*
X31982500Y-52960700D01*
X52500000Y-51400000D02*
X52500000Y-51500000D01*
X28000000Y-34100000D02*
X28000000Y-35200000D01*
X18600000Y-32800000D02*
X18500000Y-32800000D01*
X18400000Y-32600000D02*
X18000000Y-32600000D01*
X51600000Y-51700000D02*
X51600000Y-52500000D01*
X39500000Y-50600000D02*
X39400000Y-50600000D01*
X32200000Y-48300000D02*
X32157800Y-48177500D01*
X39500000Y-50500000D02*
X39500000Y-50600000D01*
X18800000Y-35200000D02*
X18800000Y-35100000D01*
X24500000Y-33400000D02*
X24500000Y-33500000D01*
X32157800Y-48177500D02*
X32157800Y-50292500D01*
X36747600Y-56577600D02*
X37250000Y-57080000D01*
X36400000Y-35300000D02*
X36800000Y-35300000D01*
X24700000Y-33700000D02*
X24800000Y-33700000D01*
X36400000Y-35200000D02*
X36400000Y-35300000D01*
X18955700Y-32622700D02*
X18955700Y-35371200D01*
%TO.N,CAM_PCLK*%
X33604600Y-29208900D02*
X46354500Y-41958800D01*
X46354500Y-41958800D02*
X46354500Y-45228300D01*
X41685500Y-53590100D02*
X41196200Y-53100800D01*
X41196200Y-53100800D02*
X39165100Y-53100800D01*
%TO.N,LCD_RST*%
X39607800Y-3156100D02*
X22018300Y-20745600D01*
X47000000Y-2500000D02*
X47000000Y-3156100D01*
X22018300Y-20745600D02*
X22018300Y-25264900D01*
X47000000Y-3156100D02*
X39607800Y-3156100D01*
X22018300Y-25264900D02*
X20458200Y-26825000D01*
X47000000Y-3156100D02*
X47000000Y-7500000D01*
%TO.N,LCD_DC*%
X52080000Y-2500000D02*
X52080000Y-7500000D01*
%TO.N,LCD_BL_PWM*%
X22600000Y-25000000D02*
X22600000Y-26200000D01*
%TO.N,LCD_CS_L*%
X48438300Y-1398300D02*
X49540000Y-2500000D01*
X28484400Y-6473300D02*
X31742100Y-6473300D01*
X31742100Y-6473300D02*
X36817100Y-1398300D01*
X20459000Y-23015000D02*
X20459000Y-14498700D01*
X20459000Y-14498700D02*
X28484400Y-6473300D01*
X36817100Y-1398300D02*
X48438300Y-1398300D01*
%TO.N,BOOT*%
X16200000Y-8900000D02*
X16200000Y-9000000D01*
X16400000Y-8900000D02*
X16200000Y-8900000D01*
X15000000Y-9000000D02*
X15000000Y-11200000D01*
X18300000Y-8800000D02*
X16400000Y-8800000D01*
X16400000Y-8800000D02*
X16400000Y-8900000D01*
X16200000Y-9000000D02*
X15000000Y-9000000D01*
%TO.N,LCD_CLK*%
X26054900Y-2886600D02*
X26054900Y-2465200D01*
X13009500Y-20041100D02*
X13009500Y-15932000D01*
X13009500Y-15932000D02*
X26054900Y-2886600D01*
%TO.N,AMP_DIN*%
X46668500Y-46833400D02*
X39564900Y-39729800D01*
X11284200Y-22966600D02*
X11284200Y-22456900D01*
X22129300Y-35978100D02*
X20054100Y-33902900D01*
X46668500Y-47572000D02*
X46668500Y-46833400D01*
X51701400Y-48945900D02*
X48042400Y-48945900D01*
X39564900Y-39729800D02*
X39564900Y-39516800D01*
X20054100Y-31736500D02*
X11284200Y-22966600D01*
X36026200Y-35978100D02*
X22129300Y-35978100D01*
X20054100Y-33902900D02*
X20054100Y-31736500D01*
X39564900Y-39516800D02*
X36026200Y-35978100D01*
X48042400Y-48945900D02*
X46668500Y-47572000D01*
%TO.N,AMP_BCLK*%
X36176500Y-35626400D02*
X22303100Y-35626400D01*
X19524200Y-30709300D02*
X19524200Y-29906200D01*
X39916600Y-39574800D02*
X39916600Y-39366500D01*
X11514500Y-21896500D02*
X10935900Y-21896500D01*
X19524200Y-29906200D02*
X11514500Y-21896500D01*
X20405800Y-31590900D02*
X19524200Y-30709300D01*
X47990700Y-48359100D02*
X47020200Y-47388600D01*
X51219400Y-48359100D02*
X47990700Y-48359100D01*
X20405800Y-33729100D02*
X20405800Y-31590900D01*
X22303100Y-35626400D02*
X20405800Y-33729100D01*
X10935900Y-21896500D02*
X10380000Y-22452400D01*
X47020200Y-47388600D02*
X47020200Y-46678400D01*
X47020200Y-46678400D02*
X39916600Y-39574800D01*
X39916600Y-39366500D02*
X36176500Y-35626400D01*
%TO.N,AMP_LRCLK*%
X53628800Y-49499300D02*
X48098500Y-49499300D01*
X46316800Y-46979000D02*
X39213200Y-39875400D01*
X16464500Y-29829500D02*
X9110000Y-22475000D01*
X35880600Y-36329800D02*
X21977600Y-36329800D01*
X39213200Y-39875400D02*
X39213200Y-39662400D01*
X16464500Y-29829600D02*
X16464500Y-29829500D01*
X21977600Y-36329800D02*
X19702400Y-34054600D01*
X48098500Y-49499300D02*
X46316800Y-47717600D01*
X46316800Y-47717600D02*
X46316800Y-46979000D01*
X17575800Y-29829600D02*
X16464500Y-29829600D01*
X19702400Y-31956200D02*
X17575800Y-29829600D01*
X19702400Y-34054600D02*
X19702400Y-31956200D01*
X39213200Y-39662400D02*
X35880600Y-36329800D01*
X55230000Y-47898100D02*
X53628800Y-49499300D01*
%TO.N,MIC_SD*%
X15200000Y-18500000D02*
X15200000Y-22500000D01*
X17200000Y-18500000D02*
X15200000Y-18500000D01*
X22500000Y-18500000D02*
X21100000Y-18500000D01*
%TO.N,I2C_SDA*%
X24200000Y-40500000D02*
X24100000Y-40500000D01*
X25600000Y-42400000D02*
X25500000Y-42400000D01*
X25700000Y-42900000D02*
X25600000Y-42900000D01*
X24500000Y-40800000D02*
X24400000Y-40800000D01*
X23800000Y-40200000D02*
X23800000Y-40100000D01*
X25800000Y-46000000D02*
X25800000Y-43100000D01*
X24900000Y-41300000D02*
X24900000Y-41200000D01*
X24800000Y-41200000D02*
X24800000Y-41100000D01*
X66095700Y-27704000D02*
X66600000Y-28208300D01*
X25200000Y-41600000D02*
X25200000Y-41500000D01*
X26850000Y-46000000D02*
X25800000Y-46000000D01*
X23700000Y-40100000D02*
X23700000Y-40000000D01*
X24300000Y-40600000D02*
X24200000Y-40600000D01*
X24900000Y-41200000D02*
X24800000Y-41200000D01*
X23800000Y-40100000D02*
X23700000Y-40100000D01*
X21928300Y-31405100D02*
X20717300Y-31405100D01*
X25600000Y-42900000D02*
X25600000Y-42400000D01*
X24100000Y-40500000D02*
X24100000Y-40400000D01*
X24300000Y-40700000D02*
X24300000Y-40600000D01*
X19875900Y-28148100D02*
X11767300Y-20039500D01*
X19875900Y-30563700D02*
X19875900Y-28148100D01*
X24400000Y-40700000D02*
X24300000Y-40700000D01*
X24700000Y-41100000D02*
X24700000Y-41000000D01*
X24800000Y-41100000D02*
X24700000Y-41100000D01*
X25700000Y-43100000D02*
X25700000Y-42900000D01*
X24400000Y-40800000D02*
X24400000Y-40700000D01*
X25100000Y-41400000D02*
X25000000Y-41400000D01*
X24100000Y-40400000D02*
X24000000Y-40400000D01*
X25300000Y-41700000D02*
X25300000Y-41600000D01*
X24000000Y-40300000D02*
X23900000Y-40300000D01*
X25300000Y-41600000D02*
X25200000Y-41600000D01*
X24700000Y-41000000D02*
X24600000Y-41000000D01*
X24600000Y-40900000D02*
X24500000Y-40900000D01*
X24000000Y-40400000D02*
X24000000Y-40300000D01*
X25000000Y-41300000D02*
X24900000Y-41300000D01*
X23600000Y-40000000D02*
X23600000Y-38000000D01*
X23900000Y-40300000D02*
X23900000Y-40200000D01*
X20717300Y-31405100D02*
X19875900Y-30563700D01*
X23700000Y-40000000D02*
X23600000Y-40000000D01*
X66600000Y-28208300D02*
X66600000Y-36180700D01*
X25400000Y-41700000D02*
X25300000Y-41700000D01*
X25800000Y-43100000D02*
X25700000Y-43100000D01*
X23900000Y-40200000D02*
X23800000Y-40200000D01*
X25400000Y-42200000D02*
X25400000Y-41700000D01*
X64800000Y-37980700D02*
X64800000Y-43377200D01*
X25500000Y-42200000D02*
X25400000Y-42200000D01*
X24200000Y-40600000D02*
X24200000Y-40500000D01*
X24500000Y-40900000D02*
X24500000Y-40800000D01*
X25500000Y-42400000D02*
X25500000Y-42200000D01*
X25100000Y-41500000D02*
X25100000Y-41400000D01*
X25200000Y-41500000D02*
X25100000Y-41500000D01*
X25000000Y-41400000D02*
X25000000Y-41300000D01*
X24600000Y-41000000D02*
X24600000Y-40900000D01*
X66600000Y-36180700D02*
X64800000Y-37980700D01*
%TO.N,MIC_SCK*%
X16600000Y-17900000D02*
X16600000Y-18000000D01*
X16500000Y-18100000D02*
X13600000Y-18100000D01*
X4000000Y-18300000D02*
X4000000Y-21200000D01*
X16700000Y-17800000D02*
X16700000Y-17900000D01*
X16800000Y-17800000D02*
X16700000Y-17800000D01*
X22500000Y-16500000D02*
X21100000Y-16500000D01*
X16800000Y-16900000D02*
X16800000Y-17800000D01*
X13600000Y-18100000D02*
X13600000Y-18300000D01*
X5900000Y-18300000D02*
X4000000Y-18300000D01*
X16500000Y-18000000D02*
X16500000Y-18100000D01*
X16600000Y-18000000D02*
X16500000Y-18000000D01*
X16700000Y-17900000D02*
X16600000Y-17900000D01*
%TO.N,MIC_WS*%
X22500000Y-17500000D02*
X21100000Y-17500000D01*
X2800000Y-17500000D02*
X2800000Y-21200000D01*
X16200000Y-17500000D02*
X13600000Y-17500000D01*
X5900000Y-17500000D02*
X2800000Y-17500000D01*
%TO.N,TOUCH_E5*%
X36829800Y-45386400D02*
X36616400Y-45599800D01*
X36829800Y-39835500D02*
X36829800Y-45386400D01*
%TO.N,+1V5*%
D30*
X33400000Y-46800000D02*
X33500000Y-46800000D01*
D28*
X33400000Y-46800000D02*
X33500000Y-46800000D01*
X33400000Y-46800000D02*
X33500000Y-46800000D01*
D30*
X35200000Y-46900000D02*
X35800000Y-46900000D01*
D28*
X41250000Y-57080000D02*
X41250000Y-56200000D01*
D30*
X33400000Y-56100000D02*
X33400000Y-46800000D01*
X36900000Y-56200000D02*
X36900000Y-56100000D01*
D28*
X43020000Y-46800000D02*
X43100000Y-46800000D01*
D30*
X36900000Y-56100000D02*
X33400000Y-56100000D01*
X41100000Y-56200000D02*
X36900000Y-56200000D01*
X35800000Y-46900000D02*
X35800000Y-46800000D01*
D28*
X41250000Y-56200000D02*
X41100000Y-56200000D01*
D30*
X33500000Y-46800000D02*
X35200000Y-46800000D01*
X35800000Y-46800000D02*
X43100000Y-46800000D01*
X35200000Y-46800000D02*
X35200000Y-46900000D01*
%TO.N,CAM_RESET*%
D28*
X44053600Y-56276400D02*
X44053600Y-52774000D01*
X43250000Y-57080000D02*
X44053600Y-56276400D01*
%TO.N,CAM_PWDN*%
X43585100Y-47647800D02*
X43585100Y-46557500D01*
X42902000Y-48330900D02*
X43585100Y-47647800D01*
X38439000Y-45485700D02*
X37737600Y-46187100D01*
X43585100Y-46557500D02*
X42513300Y-45485700D01*
X42250000Y-57080000D02*
X42902000Y-56428000D01*
X42513300Y-45485700D02*
X38439000Y-45485700D01*
X42902000Y-56428000D02*
X42902000Y-48330900D01*
%TO.N,BUCK_EN*%
X39271700Y-18089000D02*
X39271700Y-14978800D01*
X39271700Y-14978800D02*
X36185900Y-11893000D01*
X39223000Y-18137700D02*
X39271700Y-18089000D01*
%TO.N,TOUCH_E3*%
X32500000Y-47500000D02*
X32500000Y-45800000D01*
X35000000Y-45800000D02*
X35000000Y-40250000D01*
X35000000Y-40250000D02*
X27750000Y-38500000D01*
X32500000Y-45800000D02*
X35000000Y-45800000D01*
%TO.N,SERVO_L_PWM*%
X83500000Y-24398300D02*
X63894500Y-24398300D01*
X86000000Y-23000000D02*
X84898300Y-23000000D01*
X63894500Y-24398300D02*
X63667800Y-24625000D01*
X84898300Y-23000000D02*
X83500000Y-24398300D01*
%TO.N,HEAT_PWM*%
X67000000Y-26088400D02*
X66538100Y-25626500D01*
X67000000Y-38917800D02*
X67000000Y-26088400D01*
%TO.N,PWM_OE*%
X62949400Y-28142000D02*
X57912900Y-28142000D01*
X66141400Y-24950000D02*
X62949400Y-28142000D01*
%TO.N,TOUCH_E2*%
X27700000Y-45700000D02*
X27700000Y-42900000D01*
X27600000Y-42900000D02*
X27600000Y-42700000D01*
X29400000Y-47200000D02*
X29200000Y-47200000D01*
X28800000Y-46700000D02*
X28700000Y-46700000D01*
X29000000Y-46900000D02*
X28900000Y-46900000D01*
X28400000Y-46400000D02*
X28400000Y-46300000D01*
X28400000Y-46300000D02*
X28300000Y-46300000D01*
X30900000Y-48000000D02*
X30900000Y-47300000D01*
X27500000Y-42700000D02*
X27500000Y-40200000D01*
X28300000Y-46300000D02*
X28300000Y-46200000D01*
X29000000Y-47000000D02*
X29000000Y-46900000D01*
X28300000Y-46200000D02*
X28200000Y-46200000D01*
X29400000Y-47300000D02*
X29400000Y-47200000D01*
X28500000Y-46400000D02*
X28400000Y-46400000D01*
X28800000Y-46800000D02*
X28800000Y-46700000D01*
X27800000Y-45800000D02*
X27800000Y-45700000D01*
X29100000Y-47100000D02*
X29100000Y-47000000D01*
X27700000Y-42900000D02*
X27600000Y-42900000D01*
X30900000Y-47300000D02*
X29400000Y-47300000D01*
X29200000Y-47100000D02*
X29100000Y-47100000D01*
X28000000Y-46000000D02*
X28000000Y-45900000D01*
X27500000Y-40200000D02*
X30900000Y-40200000D01*
X28900000Y-46900000D02*
X28900000Y-46800000D01*
X31000000Y-48000000D02*
X30900000Y-48000000D01*
X27600000Y-42700000D02*
X27500000Y-42700000D01*
X27900000Y-45900000D02*
X27900000Y-45800000D01*
X28700000Y-46700000D02*
X28700000Y-46600000D01*
X28100000Y-46100000D02*
X28100000Y-46000000D01*
X28200000Y-46100000D02*
X28100000Y-46100000D01*
X28900000Y-46800000D02*
X28800000Y-46800000D01*
X27800000Y-45700000D02*
X27700000Y-45700000D01*
X29100000Y-47000000D02*
X29000000Y-47000000D01*
X27900000Y-45800000D02*
X27800000Y-45800000D01*
X28600000Y-46600000D02*
X28600000Y-46500000D01*
X28100000Y-46000000D02*
X28000000Y-46000000D01*
X28600000Y-46500000D02*
X28500000Y-46500000D01*
X28000000Y-45900000D02*
X27900000Y-45900000D01*
X28700000Y-46600000D02*
X28600000Y-46600000D01*
X28500000Y-46500000D02*
X28500000Y-46400000D01*
X28200000Y-46200000D02*
X28200000Y-46100000D01*
X29200000Y-47200000D02*
X29200000Y-47100000D01*
%TO.N,TOUCH_E4*%
X35489500Y-45946600D02*
X35489500Y-46243200D01*
X36289400Y-45146700D02*
X35489500Y-45946600D01*
X34631500Y-37948200D02*
X34631500Y-38417300D01*
X34631500Y-38417300D02*
X36289400Y-40075200D01*
X36289400Y-40075200D02*
X36289400Y-45146700D01*
%TO.N,LCD_CLK_S*%
X57160000Y-2500000D02*
X57160000Y-7500000D01*
%TO.N,TOUCH_REXT*%
X29700000Y-44000000D02*
X34100000Y-44000000D01*
X29700000Y-46300000D02*
X29700000Y-44000000D01*
%TO.N,TOUCH_E0*%
X29300000Y-50900000D02*
X24700000Y-50900000D01*
X19000000Y-52100000D02*
X19000000Y-56000000D01*
X29800000Y-48100000D02*
X29800000Y-50300000D01*
X29700000Y-50300000D02*
X29700000Y-50600000D01*
X29700000Y-50600000D02*
X29600000Y-50600000D01*
X29300000Y-50800000D02*
X29300000Y-50900000D01*
X24400000Y-51900000D02*
X24400000Y-52000000D01*
X24400000Y-52000000D02*
X24200000Y-52000000D01*
X29500000Y-50800000D02*
X29300000Y-50800000D01*
X24600000Y-51800000D02*
X24500000Y-51800000D01*
X24200000Y-52000000D02*
X24200000Y-52100000D01*
X29600000Y-50600000D02*
X29600000Y-50700000D01*
X29800000Y-50300000D02*
X29700000Y-50300000D01*
X29100000Y-48300000D02*
X29800000Y-48100000D01*
X24700000Y-51700000D02*
X24600000Y-51700000D01*
X29500000Y-50700000D02*
X29500000Y-50800000D01*
X24600000Y-51700000D02*
X24600000Y-51800000D01*
X24500000Y-51800000D02*
X24500000Y-51900000D01*
X24200000Y-52100000D02*
X19000000Y-52100000D01*
X24500000Y-51900000D02*
X24400000Y-51900000D01*
X29600000Y-50700000D02*
X29500000Y-50700000D01*
X24700000Y-50900000D02*
X24700000Y-51700000D01*
%TO.N,TOUCH_VREG*%
X27500000Y-47700000D02*
X23500000Y-47700000D01*
%TO.N,TOUCH_E7*%
X29061500Y-40770500D02*
X31923300Y-40770500D01*
X31923300Y-40770500D02*
X32305000Y-40388800D01*
%TD*%
%TA.AperFunction,Conductor*%
%TO.N,PGND*%
G36*
X89642539Y-320185D02*
G01*
X89688294Y-372989D01*
X89699500Y-424500D01*
X89699500Y-59575500D01*
X89679815Y-59642539D01*
X89627011Y-59688294D01*
X89575500Y-59699500D01*
X64124000Y-59699500D01*
X64056961Y-59679815D01*
X64011206Y-59627011D01*
X64000000Y-59575500D01*
X64000000Y-56495123D01*
X64019685Y-56428084D01*
X64072489Y-56382329D01*
X64104600Y-56372650D01*
X64200256Y-56357500D01*
X64257696Y-56348403D01*
X64257696Y-56348402D01*
X64257701Y-56348402D01*
X64422445Y-56294873D01*
X64576788Y-56216232D01*
X64716928Y-56114414D01*
X64839414Y-55991928D01*
X64941232Y-55851788D01*
X65019873Y-55697445D01*
X65073402Y-55532701D01*
X65100500Y-55361611D01*
X65100500Y-54638389D01*
X65073402Y-54467299D01*
X65027160Y-54324983D01*
X72899500Y-54324983D01*
X72899500Y-55675001D01*
X72899501Y-55675018D01*
X72910000Y-55777796D01*
X72910001Y-55777799D01*
X72965185Y-55944331D01*
X72965187Y-55944336D01*
X72988870Y-55982732D01*
X73057288Y-56093656D01*
X73181344Y-56217712D01*
X73330666Y-56309814D01*
X73497203Y-56364999D01*
X73599991Y-56375500D01*
X74400008Y-56375499D01*
X74400016Y-56375498D01*
X74400019Y-56375498D01*
X74456302Y-56369748D01*
X74502797Y-56364999D01*
X74669334Y-56309814D01*
X74818656Y-56217712D01*
X74942712Y-56093656D01*
X74982310Y-56029456D01*
X75034258Y-55982732D01*
X75103220Y-55971509D01*
X75167303Y-55999352D01*
X75175530Y-56006872D01*
X75283072Y-56114414D01*
X75423212Y-56216232D01*
X75577555Y-56294873D01*
X75742299Y-56348402D01*
X75913389Y-56375500D01*
X75913390Y-56375500D01*
X76086610Y-56375500D01*
X76086611Y-56375500D01*
X76257701Y-56348402D01*
X76422445Y-56294873D01*
X76576788Y-56216232D01*
X76716928Y-56114414D01*
X76839414Y-55991928D01*
X76921671Y-55878711D01*
X84149500Y-55878711D01*
X84149500Y-56121288D01*
X84181161Y-56361785D01*
X84243947Y-56596104D01*
X84336773Y-56820205D01*
X84336776Y-56820212D01*
X84458064Y-57030289D01*
X84458066Y-57030292D01*
X84458067Y-57030293D01*
X84605733Y-57222736D01*
X84605739Y-57222743D01*
X84777256Y-57394260D01*
X84777262Y-57394265D01*
X84969711Y-57541936D01*
X85179788Y-57663224D01*
X85403900Y-57756054D01*
X85638211Y-57818838D01*
X85818586Y-57842584D01*
X85878711Y-57850500D01*
X85878712Y-57850500D01*
X86121289Y-57850500D01*
X86169388Y-57844167D01*
X86361789Y-57818838D01*
X86596100Y-57756054D01*
X86820212Y-57663224D01*
X87030289Y-57541936D01*
X87222738Y-57394265D01*
X87394265Y-57222738D01*
X87541936Y-57030289D01*
X87663224Y-56820212D01*
X87756054Y-56596100D01*
X87818838Y-56361789D01*
X87850500Y-56121288D01*
X87850500Y-55878712D01*
X87846955Y-55851788D01*
X87837215Y-55777799D01*
X87818838Y-55638211D01*
X87756054Y-55403900D01*
X87663224Y-55179788D01*
X87541936Y-54969711D01*
X87394265Y-54777262D01*
X87394260Y-54777256D01*
X87222743Y-54605739D01*
X87222736Y-54605733D01*
X87030293Y-54458067D01*
X87030292Y-54458066D01*
X87030289Y-54458064D01*
X86820212Y-54336776D01*
X86820205Y-54336773D01*
X86596104Y-54243947D01*
X86361785Y-54181161D01*
X86121289Y-54149500D01*
X86121288Y-54149500D01*
X85878712Y-54149500D01*
X85878711Y-54149500D01*
X85638214Y-54181161D01*
X85403895Y-54243947D01*
X85179794Y-54336773D01*
X85179785Y-54336777D01*
X84969706Y-54458067D01*
X84777263Y-54605733D01*
X84777256Y-54605739D01*
X84605739Y-54777256D01*
X84605733Y-54777263D01*
X84458067Y-54969706D01*
X84336777Y-55179785D01*
X84336773Y-55179794D01*
X84243947Y-55403895D01*
X84181161Y-55638214D01*
X84149500Y-55878711D01*
X76921671Y-55878711D01*
X76941232Y-55851788D01*
X77019873Y-55697445D01*
X77073402Y-55532701D01*
X77100500Y-55361611D01*
X77100500Y-54638389D01*
X77073402Y-54467299D01*
X77019873Y-54302555D01*
X76941232Y-54148212D01*
X76839414Y-54008072D01*
X76716928Y-53885586D01*
X76576788Y-53783768D01*
X76422445Y-53705127D01*
X76257701Y-53651598D01*
X76257699Y-53651597D01*
X76257698Y-53651597D01*
X76126271Y-53630781D01*
X76086611Y-53624500D01*
X75913389Y-53624500D01*
X75873728Y-53630781D01*
X75742302Y-53651597D01*
X75577552Y-53705128D01*
X75423211Y-53783768D01*
X75283073Y-53885585D01*
X75175530Y-53993128D01*
X75114207Y-54026612D01*
X75044515Y-54021628D01*
X74988582Y-53979756D01*
X74982310Y-53970543D01*
X74942712Y-53906344D01*
X74818656Y-53782288D01*
X74693559Y-53705128D01*
X74669336Y-53690187D01*
X74669331Y-53690185D01*
X74667862Y-53689698D01*
X74502797Y-53635001D01*
X74502795Y-53635000D01*
X74400010Y-53624500D01*
X73599998Y-53624500D01*
X73599980Y-53624501D01*
X73497203Y-53635000D01*
X73497200Y-53635001D01*
X73330668Y-53690185D01*
X73330663Y-53690187D01*
X73181342Y-53782289D01*
X73057289Y-53906342D01*
X72965187Y-54055663D01*
X72965186Y-54055666D01*
X72910001Y-54222203D01*
X72910001Y-54222204D01*
X72910000Y-54222204D01*
X72899500Y-54324983D01*
X65027160Y-54324983D01*
X65019873Y-54302555D01*
X64941232Y-54148212D01*
X64839414Y-54008072D01*
X64716928Y-53885586D01*
X64576788Y-53783768D01*
X64422445Y-53705127D01*
X64257701Y-53651598D01*
X64257699Y-53651597D01*
X64257697Y-53651597D01*
X64104602Y-53627349D01*
X64041467Y-53597420D01*
X64004536Y-53538108D01*
X64000000Y-53504876D01*
X64000000Y-51374500D01*
X64019685Y-51307461D01*
X64072489Y-51261706D01*
X64124000Y-51250500D01*
X68452564Y-51250500D01*
X68519603Y-51270185D01*
X68565358Y-51322989D01*
X68571181Y-51341020D01*
X68571694Y-51340865D01*
X68573464Y-51346701D01*
X68633802Y-51492372D01*
X68633809Y-51492385D01*
X68721410Y-51623488D01*
X68721413Y-51623492D01*
X68832907Y-51734986D01*
X68832911Y-51734989D01*
X68964014Y-51822590D01*
X68964027Y-51822597D01*
X69109698Y-51882935D01*
X69109703Y-51882937D01*
X69264353Y-51913699D01*
X69264356Y-51913700D01*
X69264358Y-51913700D01*
X69422044Y-51913700D01*
X69422045Y-51913699D01*
X69576697Y-51882937D01*
X69722379Y-51822594D01*
X69853489Y-51734989D01*
X69964989Y-51623489D01*
X70052594Y-51492379D01*
X70111489Y-51350191D01*
X70155327Y-51295792D01*
X70201856Y-51276030D01*
X70233497Y-51269737D01*
X70379179Y-51209394D01*
X70510289Y-51121789D01*
X70621789Y-51010289D01*
X70709394Y-50879179D01*
X70769737Y-50733497D01*
X70800500Y-50578842D01*
X70800500Y-50421158D01*
X70800500Y-50421155D01*
X70800499Y-50421153D01*
X70769738Y-50266510D01*
X70769737Y-50266503D01*
X70769735Y-50266498D01*
X70709397Y-50120827D01*
X70709390Y-50120814D01*
X70621789Y-49989711D01*
X70621786Y-49989707D01*
X70510292Y-49878213D01*
X70510288Y-49878210D01*
X70379185Y-49790609D01*
X70379172Y-49790602D01*
X70233501Y-49730264D01*
X70233489Y-49730261D01*
X70078845Y-49699500D01*
X70078842Y-49699500D01*
X69994658Y-49699500D01*
X69947206Y-49690061D01*
X69918917Y-49678343D01*
X69918907Y-49678340D01*
X69773920Y-49649500D01*
X69773918Y-49649500D01*
X69073918Y-49649500D01*
X68926082Y-49649500D01*
X68926080Y-49649500D01*
X68781092Y-49678340D01*
X68781086Y-49678342D01*
X68730007Y-49699500D01*
X68655739Y-49730263D01*
X68638878Y-49737247D01*
X68638520Y-49736385D01*
X68586160Y-49749500D01*
X64124000Y-49749500D01*
X64056961Y-49729815D01*
X64011206Y-49677011D01*
X64000000Y-49625500D01*
X64000000Y-47921153D01*
X65874500Y-47921153D01*
X65874500Y-48078846D01*
X65905261Y-48233489D01*
X65905264Y-48233501D01*
X65965602Y-48379172D01*
X65965609Y-48379185D01*
X66053210Y-48510288D01*
X66053213Y-48510292D01*
X66164707Y-48621786D01*
X66164711Y-48621789D01*
X66295814Y-48709390D01*
X66295827Y-48709397D01*
X66441498Y-48769735D01*
X66441503Y-48769737D01*
X66596153Y-48800499D01*
X66596156Y-48800500D01*
X66596158Y-48800500D01*
X66753844Y-48800500D01*
X66753845Y-48800499D01*
X66908497Y-48769737D01*
X67054179Y-48709394D01*
X67185289Y-48621789D01*
X67296789Y-48510289D01*
X67384394Y-48379179D01*
X67444737Y-48233497D01*
X67475500Y-48078842D01*
X67475500Y-47921158D01*
X67475500Y-47921155D01*
X67475499Y-47921153D01*
X67447464Y-47780212D01*
X67444737Y-47766503D01*
X67444735Y-47766498D01*
X67384397Y-47620827D01*
X67384390Y-47620814D01*
X67296789Y-47489711D01*
X67296786Y-47489707D01*
X67187694Y-47380615D01*
X67154209Y-47319292D01*
X67159193Y-47249600D01*
X67201065Y-47193667D01*
X67206485Y-47189832D01*
X67263588Y-47151676D01*
X67298889Y-47128089D01*
X67410389Y-47016589D01*
X67497994Y-46885479D01*
X67497997Y-46885472D01*
X67517366Y-46838711D01*
X82649500Y-46838711D01*
X82649500Y-47081288D01*
X82681161Y-47321785D01*
X82743947Y-47556104D01*
X82831100Y-47766510D01*
X82836776Y-47780212D01*
X82958064Y-47990289D01*
X82958066Y-47990292D01*
X82958067Y-47990293D01*
X83105733Y-48182736D01*
X83105739Y-48182743D01*
X83277256Y-48354260D01*
X83277263Y-48354266D01*
X83309738Y-48379185D01*
X83469711Y-48501936D01*
X83679788Y-48623224D01*
X83875269Y-48704195D01*
X83887828Y-48709397D01*
X83903900Y-48716054D01*
X84138211Y-48778838D01*
X84302746Y-48800499D01*
X84378711Y-48810500D01*
X84378712Y-48810500D01*
X84621289Y-48810500D01*
X84669388Y-48804167D01*
X84861789Y-48778838D01*
X85096100Y-48716054D01*
X85320212Y-48623224D01*
X85530289Y-48501936D01*
X85722738Y-48354265D01*
X85894265Y-48182738D01*
X86041936Y-47990289D01*
X86163224Y-47780212D01*
X86256054Y-47556100D01*
X86318838Y-47321789D01*
X86350500Y-47081288D01*
X86350500Y-46838712D01*
X86318838Y-46598211D01*
X86256054Y-46363900D01*
X86163224Y-46139788D01*
X86041936Y-45929711D01*
X85894265Y-45737262D01*
X85894260Y-45737256D01*
X85722743Y-45565739D01*
X85722736Y-45565733D01*
X85530293Y-45418067D01*
X85530292Y-45418066D01*
X85530289Y-45418064D01*
X85320212Y-45296776D01*
X85320205Y-45296773D01*
X85096104Y-45203947D01*
X84861785Y-45141161D01*
X84621289Y-45109500D01*
X84621288Y-45109500D01*
X84378712Y-45109500D01*
X84378711Y-45109500D01*
X84138214Y-45141161D01*
X83903895Y-45203947D01*
X83679794Y-45296773D01*
X83679785Y-45296777D01*
X83469706Y-45418067D01*
X83277263Y-45565733D01*
X83277256Y-45565739D01*
X83105739Y-45737256D01*
X83105733Y-45737263D01*
X82958067Y-45929706D01*
X82836777Y-46139785D01*
X82836773Y-46139794D01*
X82743947Y-46363895D01*
X82681161Y-46598214D01*
X82649500Y-46838711D01*
X67517366Y-46838711D01*
X67538702Y-46787201D01*
X67558335Y-46739801D01*
X67558337Y-46739797D01*
X67589100Y-46585142D01*
X67589100Y-46427458D01*
X67589100Y-46427455D01*
X67589099Y-46427453D01*
X67558338Y-46272810D01*
X67558337Y-46272803D01*
X67558335Y-46272798D01*
X67497997Y-46127127D01*
X67497990Y-46127114D01*
X67410389Y-45996011D01*
X67410386Y-45996007D01*
X67298892Y-45884513D01*
X67298888Y-45884510D01*
X67167785Y-45796909D01*
X67167772Y-45796902D01*
X67022101Y-45736564D01*
X67022089Y-45736561D01*
X66867445Y-45705800D01*
X66867442Y-45705800D01*
X66709758Y-45705800D01*
X66709755Y-45705800D01*
X66555110Y-45736561D01*
X66555098Y-45736564D01*
X66409427Y-45796902D01*
X66409414Y-45796909D01*
X66278311Y-45884510D01*
X66278307Y-45884513D01*
X66166813Y-45996007D01*
X66166810Y-45996011D01*
X66079209Y-46127114D01*
X66079202Y-46127127D01*
X66018864Y-46272798D01*
X66018861Y-46272810D01*
X65988100Y-46427453D01*
X65988100Y-46585146D01*
X66018861Y-46739789D01*
X66018864Y-46739801D01*
X66079202Y-46885472D01*
X66079209Y-46885485D01*
X66166810Y-47016588D01*
X66166813Y-47016592D01*
X66275905Y-47125684D01*
X66309390Y-47187007D01*
X66304406Y-47256699D01*
X66262534Y-47312632D01*
X66257116Y-47316467D01*
X66164707Y-47378213D01*
X66053213Y-47489707D01*
X66053210Y-47489711D01*
X65965609Y-47620814D01*
X65965602Y-47620827D01*
X65905264Y-47766498D01*
X65905261Y-47766510D01*
X65874500Y-47921153D01*
X64000000Y-47921153D01*
X64000000Y-45421153D01*
X69659500Y-45421153D01*
X69659500Y-45578846D01*
X69690261Y-45733489D01*
X69690264Y-45733501D01*
X69750602Y-45879172D01*
X69750609Y-45879185D01*
X69838210Y-46010288D01*
X69838213Y-46010292D01*
X69949707Y-46121786D01*
X69949711Y-46121789D01*
X70080814Y-46209390D01*
X70080827Y-46209397D01*
X70226498Y-46269735D01*
X70226503Y-46269737D01*
X70381153Y-46300499D01*
X70381156Y-46300500D01*
X70381158Y-46300500D01*
X70538844Y-46300500D01*
X70538845Y-46300499D01*
X70693497Y-46269737D01*
X70839179Y-46209394D01*
X70970289Y-46121789D01*
X71081789Y-46010289D01*
X71169394Y-45879179D01*
X71229737Y-45733497D01*
X71260500Y-45578842D01*
X71260500Y-45421158D01*
X71260500Y-45421155D01*
X71260499Y-45421153D01*
X71235759Y-45296777D01*
X71229737Y-45266503D01*
X71203826Y-45203947D01*
X71169397Y-45120827D01*
X71169390Y-45120814D01*
X71081789Y-44989711D01*
X71081786Y-44989707D01*
X70970292Y-44878213D01*
X70970288Y-44878210D01*
X70839185Y-44790609D01*
X70839172Y-44790602D01*
X70693501Y-44730264D01*
X70693489Y-44730261D01*
X70538845Y-44699500D01*
X70538842Y-44699500D01*
X70381158Y-44699500D01*
X70381155Y-44699500D01*
X70226510Y-44730261D01*
X70226498Y-44730264D01*
X70080827Y-44790602D01*
X70080814Y-44790609D01*
X69949711Y-44878210D01*
X69949707Y-44878213D01*
X69838213Y-44989707D01*
X69838210Y-44989711D01*
X69750609Y-45120814D01*
X69750602Y-45120827D01*
X69690264Y-45266498D01*
X69690261Y-45266510D01*
X69659500Y-45421153D01*
X64000000Y-45421153D01*
X64000000Y-44008641D01*
X64019685Y-43941602D01*
X64072489Y-43895847D01*
X64141647Y-43885903D01*
X64205203Y-43914928D01*
X64211681Y-43920960D01*
X64289707Y-43998986D01*
X64289711Y-43998989D01*
X64420814Y-44086590D01*
X64420827Y-44086597D01*
X64566498Y-44146935D01*
X64566503Y-44146937D01*
X64721153Y-44177699D01*
X64721156Y-44177700D01*
X64721158Y-44177700D01*
X64878844Y-44177700D01*
X64878845Y-44177699D01*
X65033497Y-44146937D01*
X65179179Y-44086594D01*
X65310289Y-43998989D01*
X65421789Y-43887489D01*
X65509394Y-43756379D01*
X65569737Y-43610697D01*
X65600500Y-43456042D01*
X65600500Y-43298358D01*
X65600500Y-43298355D01*
X65600499Y-43298353D01*
X65569738Y-43143710D01*
X65569737Y-43143703D01*
X65569735Y-43143698D01*
X65509397Y-42998027D01*
X65509390Y-42998014D01*
X65421398Y-42866325D01*
X65400520Y-42799647D01*
X65400500Y-42797434D01*
X65400500Y-38280797D01*
X65420185Y-38213758D01*
X65436819Y-38193116D01*
X66187819Y-37442116D01*
X66249142Y-37408631D01*
X66318834Y-37413615D01*
X66374767Y-37455487D01*
X66399184Y-37520951D01*
X66399500Y-37529797D01*
X66399500Y-38338034D01*
X66379815Y-38405073D01*
X66378602Y-38406925D01*
X66290609Y-38538614D01*
X66290602Y-38538627D01*
X66230264Y-38684298D01*
X66230261Y-38684310D01*
X66199500Y-38838953D01*
X66199500Y-38996646D01*
X66230261Y-39151289D01*
X66230264Y-39151301D01*
X66290602Y-39296972D01*
X66290609Y-39296985D01*
X66378210Y-39428088D01*
X66378213Y-39428092D01*
X66489707Y-39539586D01*
X66489711Y-39539589D01*
X66620814Y-39627190D01*
X66620827Y-39627197D01*
X66766498Y-39687535D01*
X66766503Y-39687537D01*
X66921153Y-39718299D01*
X66921156Y-39718300D01*
X66921158Y-39718300D01*
X67078844Y-39718300D01*
X67078845Y-39718299D01*
X67233497Y-39687537D01*
X67379179Y-39627194D01*
X67510289Y-39539589D01*
X67621789Y-39428089D01*
X67709394Y-39296979D01*
X67769737Y-39151297D01*
X67800500Y-38996642D01*
X67800500Y-38838958D01*
X67800500Y-38838955D01*
X67800499Y-38838953D01*
X67769738Y-38684310D01*
X67769737Y-38684303D01*
X67769735Y-38684298D01*
X67709397Y-38538627D01*
X67709390Y-38538614D01*
X67621398Y-38406925D01*
X67600520Y-38340247D01*
X67600500Y-38338034D01*
X67600500Y-32886555D01*
X67620185Y-32819516D01*
X67672989Y-32773761D01*
X67742147Y-32763817D01*
X67760411Y-32768840D01*
X67760676Y-32767969D01*
X67766492Y-32769732D01*
X67766503Y-32769737D01*
X67921153Y-32800499D01*
X67921156Y-32800500D01*
X67921158Y-32800500D01*
X68078844Y-32800500D01*
X68078845Y-32800499D01*
X68233497Y-32769737D01*
X68379179Y-32709394D01*
X68510289Y-32621789D01*
X68621789Y-32510289D01*
X68709394Y-32379179D01*
X68769737Y-32233497D01*
X68800500Y-32078842D01*
X68800500Y-31921158D01*
X68800500Y-31921155D01*
X68800499Y-31921153D01*
X68769738Y-31766510D01*
X68769737Y-31766503D01*
X68725345Y-31659330D01*
X68709397Y-31620827D01*
X68709390Y-31620814D01*
X68621789Y-31489711D01*
X68621786Y-31489707D01*
X68510292Y-31378213D01*
X68510288Y-31378210D01*
X68379185Y-31290609D01*
X68379172Y-31290602D01*
X68233501Y-31230264D01*
X68233489Y-31230261D01*
X68078845Y-31199500D01*
X68078842Y-31199500D01*
X67921158Y-31199500D01*
X67921155Y-31199500D01*
X67766510Y-31230261D01*
X67760676Y-31232031D01*
X67759873Y-31229385D01*
X67702056Y-31235396D01*
X67639687Y-31203902D01*
X67604245Y-31143689D01*
X67600500Y-31113444D01*
X67600500Y-26009344D01*
X67599522Y-26005691D01*
X67585041Y-25951648D01*
X67559577Y-25856615D01*
X67498311Y-25750500D01*
X67480520Y-25719684D01*
X67480518Y-25719682D01*
X67480517Y-25719680D01*
X67372673Y-25611836D01*
X67339188Y-25550513D01*
X67338737Y-25548346D01*
X67319210Y-25450179D01*
X67307837Y-25393003D01*
X67281311Y-25328962D01*
X67247497Y-25247327D01*
X67247490Y-25247314D01*
X67210324Y-25191691D01*
X67189446Y-25125013D01*
X67207931Y-25057633D01*
X67259910Y-25010943D01*
X67313426Y-24998800D01*
X83413331Y-24998800D01*
X83413347Y-24998801D01*
X83420943Y-24998801D01*
X83579054Y-24998801D01*
X83579057Y-24998801D01*
X83731785Y-24957877D01*
X83802402Y-24917106D01*
X83868716Y-24878820D01*
X83980520Y-24767016D01*
X83980520Y-24767014D01*
X83990724Y-24756811D01*
X83990728Y-24756806D01*
X84583183Y-24164350D01*
X84644504Y-24130867D01*
X84714196Y-24135851D01*
X84770127Y-24177722D01*
X84792453Y-24207544D01*
X84792454Y-24207546D01*
X84792455Y-24207547D01*
X84907664Y-24293793D01*
X84907671Y-24293797D01*
X85039082Y-24342810D01*
X85095016Y-24384681D01*
X85119433Y-24450145D01*
X85104582Y-24518418D01*
X85083431Y-24546673D01*
X84969889Y-24660215D01*
X84844951Y-24832179D01*
X84748444Y-25021585D01*
X84682753Y-25223760D01*
X84660379Y-25365025D01*
X84649500Y-25433713D01*
X84649500Y-25646287D01*
X84682754Y-25856243D01*
X84739368Y-26030483D01*
X84748444Y-26058414D01*
X84844951Y-26247820D01*
X84969890Y-26419786D01*
X85120213Y-26570109D01*
X85292179Y-26695048D01*
X85292181Y-26695049D01*
X85292184Y-26695051D01*
X85301493Y-26699794D01*
X85352290Y-26747766D01*
X85369087Y-26815587D01*
X85346552Y-26881722D01*
X85301505Y-26920760D01*
X85292446Y-26925376D01*
X85292440Y-26925380D01*
X85238282Y-26964727D01*
X85238282Y-26964728D01*
X85870591Y-27597037D01*
X85807007Y-27614075D01*
X85692993Y-27679901D01*
X85599901Y-27772993D01*
X85534075Y-27887007D01*
X85517037Y-27950591D01*
X84884728Y-27318282D01*
X84884727Y-27318282D01*
X84845380Y-27372439D01*
X84748904Y-27561782D01*
X84683242Y-27763869D01*
X84683242Y-27763872D01*
X84650000Y-27973753D01*
X84650000Y-28186246D01*
X84683242Y-28396127D01*
X84683242Y-28396130D01*
X84748904Y-28598217D01*
X84845375Y-28787550D01*
X84884728Y-28841716D01*
X85517037Y-28209408D01*
X85534075Y-28272993D01*
X85599901Y-28387007D01*
X85692993Y-28480099D01*
X85807007Y-28545925D01*
X85870589Y-28562962D01*
X85238282Y-29195269D01*
X85238282Y-29195270D01*
X85292449Y-29234624D01*
X85481782Y-29331095D01*
X85683870Y-29396757D01*
X85893754Y-29430000D01*
X86106246Y-29430000D01*
X86316126Y-29396758D01*
X86458281Y-29350568D01*
X86528122Y-29348573D01*
X86587955Y-29384653D01*
X86618784Y-29447353D01*
X86620600Y-29468499D01*
X86620600Y-30525500D01*
X86600915Y-30592539D01*
X86548111Y-30638294D01*
X86496600Y-30649500D01*
X85102129Y-30649500D01*
X85102123Y-30649501D01*
X85042516Y-30655908D01*
X84907671Y-30706202D01*
X84907664Y-30706206D01*
X84792455Y-30792452D01*
X84792452Y-30792455D01*
X84706206Y-30907664D01*
X84706202Y-30907671D01*
X84655908Y-31042517D01*
X84649501Y-31102116D01*
X84649500Y-31102135D01*
X84649500Y-32897870D01*
X84649501Y-32897876D01*
X84655908Y-32957483D01*
X84706202Y-33092328D01*
X84706206Y-33092335D01*
X84792452Y-33207544D01*
X84792455Y-33207547D01*
X84907664Y-33293793D01*
X84907671Y-33293797D01*
X85039082Y-33342810D01*
X85095016Y-33384681D01*
X85119433Y-33450145D01*
X85104582Y-33518418D01*
X85083431Y-33546673D01*
X84969889Y-33660215D01*
X84844951Y-33832179D01*
X84748444Y-34021585D01*
X84682753Y-34223760D01*
X84649500Y-34433713D01*
X84649500Y-34646286D01*
X84682753Y-34856239D01*
X84748444Y-35058414D01*
X84844951Y-35247820D01*
X84969890Y-35419786D01*
X85120213Y-35570109D01*
X85292179Y-35695048D01*
X85292181Y-35695049D01*
X85292184Y-35695051D01*
X85301493Y-35699794D01*
X85352290Y-35747766D01*
X85369087Y-35815587D01*
X85346552Y-35881722D01*
X85301505Y-35920760D01*
X85292446Y-35925376D01*
X85292440Y-35925380D01*
X85238282Y-35964727D01*
X85238282Y-35964728D01*
X85870591Y-36597037D01*
X85807007Y-36614075D01*
X85692993Y-36679901D01*
X85599901Y-36772993D01*
X85534075Y-36887007D01*
X85517037Y-36950591D01*
X84884728Y-36318282D01*
X84884727Y-36318282D01*
X84845380Y-36372439D01*
X84748904Y-36561782D01*
X84683242Y-36763869D01*
X84683242Y-36763872D01*
X84650000Y-36973753D01*
X84650000Y-37186246D01*
X84683242Y-37396127D01*
X84683242Y-37396130D01*
X84748904Y-37598217D01*
X84845375Y-37787550D01*
X84884728Y-37841716D01*
X85517037Y-37209408D01*
X85534075Y-37272993D01*
X85599901Y-37387007D01*
X85692993Y-37480099D01*
X85807007Y-37545925D01*
X85870589Y-37562962D01*
X85238282Y-38195269D01*
X85238282Y-38195270D01*
X85292449Y-38234624D01*
X85481782Y-38331095D01*
X85683870Y-38396757D01*
X85893754Y-38430000D01*
X86106246Y-38430000D01*
X86316126Y-38396758D01*
X86413981Y-38364962D01*
X86483822Y-38362966D01*
X86543655Y-38399046D01*
X86574484Y-38461747D01*
X86576300Y-38482893D01*
X86576300Y-39457417D01*
X86556615Y-39524456D01*
X86539981Y-39545098D01*
X84971899Y-41113181D01*
X84910576Y-41146666D01*
X84884218Y-41149500D01*
X83349984Y-41149500D01*
X83247204Y-41160000D01*
X83247203Y-41160001D01*
X83080664Y-41215186D01*
X83080662Y-41215187D01*
X82931348Y-41307286D01*
X82931344Y-41307289D01*
X82807289Y-41431344D01*
X82807286Y-41431348D01*
X82715187Y-41580662D01*
X82715186Y-41580664D01*
X82660001Y-41747203D01*
X82660000Y-41747204D01*
X82649500Y-41849984D01*
X82649500Y-44150015D01*
X82660000Y-44252795D01*
X82660001Y-44252796D01*
X82715186Y-44419335D01*
X82715187Y-44419337D01*
X82807286Y-44568651D01*
X82807289Y-44568655D01*
X82931344Y-44692710D01*
X82931348Y-44692713D01*
X83080662Y-44784812D01*
X83080664Y-44784813D01*
X83080666Y-44784814D01*
X83247203Y-44839999D01*
X83349992Y-44850500D01*
X83349997Y-44850500D01*
X85650003Y-44850500D01*
X85650008Y-44850500D01*
X85752797Y-44839999D01*
X85919334Y-44784814D01*
X86068655Y-44692711D01*
X86192711Y-44568655D01*
X86284814Y-44419334D01*
X86339999Y-44252797D01*
X86350500Y-44150008D01*
X86350500Y-42615782D01*
X86370185Y-42548743D01*
X86386819Y-42528101D01*
X88353936Y-40560985D01*
X88353936Y-40560984D01*
X88353939Y-40560982D01*
X88463432Y-40397114D01*
X88538851Y-40215035D01*
X88577300Y-40021741D01*
X88577300Y-36130910D01*
X88577304Y-36018293D01*
X88577302Y-36018283D01*
X88577300Y-36018259D01*
X88560701Y-35934812D01*
X88560700Y-35934808D01*
X88550142Y-35881722D01*
X88538861Y-35824997D01*
X88538857Y-35824989D01*
X88538852Y-35824973D01*
X88538851Y-35824965D01*
X88499542Y-35730064D01*
X88463447Y-35642915D01*
X88463446Y-35642913D01*
X88463434Y-35642892D01*
X88463432Y-35642886D01*
X88405959Y-35556871D01*
X88353961Y-35479045D01*
X88353958Y-35479042D01*
X88353942Y-35479023D01*
X88353939Y-35479018D01*
X88271364Y-35396443D01*
X87581570Y-34706603D01*
X87548088Y-34645280D01*
X87553075Y-34575589D01*
X87581574Y-34531245D01*
X87679106Y-34433713D01*
X88398240Y-33714581D01*
X88425519Y-33673753D01*
X88507732Y-33550714D01*
X88583151Y-33368635D01*
X88615194Y-33207546D01*
X88621600Y-33175343D01*
X88621600Y-27265775D01*
X88621601Y-27265754D01*
X88621601Y-27062557D01*
X88621600Y-27062555D01*
X88583152Y-26869265D01*
X88507732Y-26687186D01*
X88507731Y-26687185D01*
X88507728Y-26687179D01*
X88398240Y-26523319D01*
X88398237Y-26523315D01*
X87386423Y-25511502D01*
X87352938Y-25450179D01*
X87350655Y-25434697D01*
X87350500Y-25433718D01*
X87350500Y-25433713D01*
X87317246Y-25223757D01*
X87251557Y-25021588D01*
X87155051Y-24832184D01*
X87155049Y-24832181D01*
X87155048Y-24832179D01*
X87030109Y-24660213D01*
X86916569Y-24546673D01*
X86883084Y-24485350D01*
X86888068Y-24415658D01*
X86929940Y-24359725D01*
X86960915Y-24342810D01*
X87092331Y-24293796D01*
X87207546Y-24207546D01*
X87293796Y-24092331D01*
X87344091Y-23957483D01*
X87350500Y-23897873D01*
X87350499Y-22102128D01*
X87344091Y-22042517D01*
X87293796Y-21907669D01*
X87293795Y-21907668D01*
X87293793Y-21907664D01*
X87207547Y-21792455D01*
X87207544Y-21792452D01*
X87092335Y-21706206D01*
X87092328Y-21706202D01*
X86957482Y-21655908D01*
X86957483Y-21655908D01*
X86897883Y-21649501D01*
X86897881Y-21649500D01*
X86897873Y-21649500D01*
X86897864Y-21649500D01*
X85102129Y-21649500D01*
X85102123Y-21649501D01*
X85042516Y-21655908D01*
X84907671Y-21706202D01*
X84907664Y-21706206D01*
X84792455Y-21792452D01*
X84792452Y-21792455D01*
X84706206Y-21907664D01*
X84706202Y-21907671D01*
X84655908Y-22042517D01*
X84649501Y-22102116D01*
X84649501Y-22102123D01*
X84649500Y-22102135D01*
X84649500Y-22378655D01*
X84629815Y-22445694D01*
X84587500Y-22486042D01*
X84529587Y-22519477D01*
X84529582Y-22519481D01*
X84417778Y-22631286D01*
X83287584Y-23761481D01*
X83226261Y-23794966D01*
X83199903Y-23797800D01*
X66779582Y-23797800D01*
X66712543Y-23778115D01*
X66666788Y-23725311D01*
X66656844Y-23656153D01*
X66665020Y-23626349D01*
X66667237Y-23620997D01*
X66698000Y-23466342D01*
X66698000Y-23308658D01*
X66698000Y-23308655D01*
X66697999Y-23308653D01*
X66667238Y-23154010D01*
X66667237Y-23154003D01*
X66648662Y-23109158D01*
X66606897Y-23008327D01*
X66606890Y-23008314D01*
X66519289Y-22877211D01*
X66519286Y-22877207D01*
X66407792Y-22765713D01*
X66407788Y-22765710D01*
X66276685Y-22678109D01*
X66276672Y-22678102D01*
X66131001Y-22617764D01*
X66130989Y-22617761D01*
X65976345Y-22587000D01*
X65976342Y-22587000D01*
X65818658Y-22587000D01*
X65818655Y-22587000D01*
X65664010Y-22617761D01*
X65663998Y-22617764D01*
X65518327Y-22678102D01*
X65518314Y-22678109D01*
X65387211Y-22765710D01*
X65387207Y-22765713D01*
X65275713Y-22877207D01*
X65275710Y-22877211D01*
X65188109Y-23008314D01*
X65188102Y-23008327D01*
X65127764Y-23153998D01*
X65127761Y-23154010D01*
X65097000Y-23308653D01*
X65097000Y-23466346D01*
X65127761Y-23620989D01*
X65127763Y-23620997D01*
X65129980Y-23626349D01*
X65137447Y-23695819D01*
X65106171Y-23758297D01*
X65046082Y-23793949D01*
X65015418Y-23797800D01*
X64452186Y-23797800D01*
X64385147Y-23778115D01*
X64339392Y-23725311D01*
X64329448Y-23656153D01*
X64349084Y-23604909D01*
X64374290Y-23567185D01*
X64374290Y-23567184D01*
X64374294Y-23567179D01*
X64434637Y-23421497D01*
X64465400Y-23266842D01*
X64465400Y-23109158D01*
X64465400Y-23109155D01*
X64465399Y-23109153D01*
X64445342Y-23008321D01*
X64434637Y-22954503D01*
X64402620Y-22877207D01*
X64374297Y-22808827D01*
X64374290Y-22808814D01*
X64286689Y-22677711D01*
X64286686Y-22677707D01*
X64175192Y-22566213D01*
X64175188Y-22566210D01*
X64055109Y-22485975D01*
X64010304Y-22432362D01*
X64000000Y-22382873D01*
X64000000Y-20474500D01*
X64019685Y-20407461D01*
X64072489Y-20361706D01*
X64124000Y-20350500D01*
X65895396Y-20350500D01*
X65942844Y-20359937D01*
X65966503Y-20369737D01*
X65966508Y-20369738D01*
X65966511Y-20369739D01*
X66121153Y-20400499D01*
X66121156Y-20400500D01*
X66121158Y-20400500D01*
X66278844Y-20400500D01*
X66278845Y-20400499D01*
X66433497Y-20369737D01*
X66579179Y-20309394D01*
X66710289Y-20221789D01*
X66821789Y-20110289D01*
X66909394Y-19979179D01*
X66969737Y-19833497D01*
X67000500Y-19678842D01*
X67000500Y-19521158D01*
X67000500Y-19521155D01*
X67000499Y-19521153D01*
X66969738Y-19366510D01*
X66969737Y-19366503D01*
X66969735Y-19366498D01*
X66909397Y-19220827D01*
X66909390Y-19220814D01*
X66821789Y-19089711D01*
X66821786Y-19089707D01*
X66710292Y-18978213D01*
X66710288Y-18978210D01*
X66579185Y-18890609D01*
X66579172Y-18890602D01*
X66433501Y-18830264D01*
X66433489Y-18830261D01*
X66278845Y-18799500D01*
X66278842Y-18799500D01*
X66121158Y-18799500D01*
X66121155Y-18799500D01*
X65966511Y-18830260D01*
X65966506Y-18830262D01*
X65966504Y-18830262D01*
X65966503Y-18830263D01*
X65942844Y-18840062D01*
X65895396Y-18849500D01*
X64124000Y-18849500D01*
X64056961Y-18829815D01*
X64011206Y-18777011D01*
X64000000Y-18725500D01*
X64000000Y-15499984D01*
X81599500Y-15499984D01*
X81599500Y-17500015D01*
X81610000Y-17602795D01*
X81610001Y-17602796D01*
X81665186Y-17769335D01*
X81665187Y-17769337D01*
X81757286Y-17918651D01*
X81757289Y-17918655D01*
X81881344Y-18042710D01*
X81881348Y-18042713D01*
X82030662Y-18134812D01*
X82030664Y-18134813D01*
X82030666Y-18134814D01*
X82197203Y-18189999D01*
X82299992Y-18200500D01*
X82299997Y-18200500D01*
X84300003Y-18200500D01*
X84300008Y-18200500D01*
X84402797Y-18189999D01*
X84569334Y-18134814D01*
X84718655Y-18042711D01*
X84842711Y-17918655D01*
X84934814Y-17769334D01*
X84989999Y-17602797D01*
X85000500Y-17500008D01*
X85000500Y-15499992D01*
X84989999Y-15397203D01*
X84934814Y-15230666D01*
X84842711Y-15081345D01*
X84718655Y-14957289D01*
X84718651Y-14957286D01*
X84569337Y-14865187D01*
X84569335Y-14865186D01*
X84486065Y-14837593D01*
X84402797Y-14810001D01*
X84402795Y-14810000D01*
X84300015Y-14799500D01*
X84300008Y-14799500D01*
X82299992Y-14799500D01*
X82299984Y-14799500D01*
X82197204Y-14810000D01*
X82197203Y-14810001D01*
X82030664Y-14865186D01*
X82030662Y-14865187D01*
X81881348Y-14957286D01*
X81881344Y-14957289D01*
X81757289Y-15081344D01*
X81757286Y-15081348D01*
X81665187Y-15230662D01*
X81665186Y-15230664D01*
X81610001Y-15397203D01*
X81610000Y-15397204D01*
X81599500Y-15499984D01*
X64000000Y-15499984D01*
X64000000Y-11308575D01*
X81600000Y-11308575D01*
X81600000Y-11531424D01*
X81629085Y-11752354D01*
X81629088Y-11752367D01*
X81686763Y-11967618D01*
X81772045Y-12173502D01*
X81772054Y-12173520D01*
X81883464Y-12366491D01*
X81883473Y-12366504D01*
X81934040Y-12432403D01*
X81934043Y-12432403D01*
X82584152Y-11782293D01*
X82591049Y-11798942D01*
X82678599Y-11929970D01*
X82790030Y-12041401D01*
X82921058Y-12128951D01*
X82937705Y-12135846D01*
X82287595Y-12785955D01*
X82287595Y-12785956D01*
X82353507Y-12836533D01*
X82546485Y-12947949D01*
X82546497Y-12947954D01*
X82752381Y-13033236D01*
X82967632Y-13090911D01*
X82967645Y-13090914D01*
X83188575Y-13120000D01*
X83411425Y-13120000D01*
X83632354Y-13090914D01*
X83632367Y-13090911D01*
X83847618Y-13033236D01*
X84053502Y-12947954D01*
X84053514Y-12947949D01*
X84246498Y-12836530D01*
X84312403Y-12785957D01*
X84312404Y-12785956D01*
X83662294Y-12135846D01*
X83678942Y-12128951D01*
X83809970Y-12041401D01*
X83921401Y-11929970D01*
X84008951Y-11798942D01*
X84015846Y-11782294D01*
X84665956Y-12432404D01*
X84665957Y-12432403D01*
X84716530Y-12366498D01*
X84827949Y-12173514D01*
X84827954Y-12173502D01*
X84913236Y-11967618D01*
X84970911Y-11752367D01*
X84970914Y-11752354D01*
X85000000Y-11531424D01*
X85000000Y-11308575D01*
X84970914Y-11087645D01*
X84970911Y-11087632D01*
X84913236Y-10872381D01*
X84827954Y-10666497D01*
X84827949Y-10666485D01*
X84716533Y-10473507D01*
X84665956Y-10407595D01*
X84665955Y-10407595D01*
X84015846Y-11057704D01*
X84008951Y-11041058D01*
X83921401Y-10910030D01*
X83809970Y-10798599D01*
X83678942Y-10711049D01*
X83662293Y-10704152D01*
X84312403Y-10054043D01*
X84312403Y-10054040D01*
X84246504Y-10003473D01*
X84246491Y-10003464D01*
X84053520Y-9892054D01*
X84053502Y-9892045D01*
X83847618Y-9806763D01*
X83632367Y-9749088D01*
X83632354Y-9749085D01*
X83411425Y-9720000D01*
X83188575Y-9720000D01*
X82967645Y-9749085D01*
X82967632Y-9749088D01*
X82752381Y-9806763D01*
X82546497Y-9892045D01*
X82546479Y-9892054D01*
X82353511Y-10003462D01*
X82287595Y-10054042D01*
X82937706Y-10704152D01*
X82921058Y-10711049D01*
X82790030Y-10798599D01*
X82678599Y-10910030D01*
X82591049Y-11041058D01*
X82584153Y-11057706D01*
X81934042Y-10407595D01*
X81883462Y-10473511D01*
X81772054Y-10666479D01*
X81772045Y-10666497D01*
X81686763Y-10872381D01*
X81629088Y-11087632D01*
X81629085Y-11087645D01*
X81600000Y-11308575D01*
X64000000Y-11308575D01*
X64000000Y-8820621D01*
X64019685Y-8753582D01*
X64072489Y-8707827D01*
X64141647Y-8697883D01*
X64180293Y-8710135D01*
X64261588Y-8751557D01*
X64463757Y-8817246D01*
X64673713Y-8850500D01*
X64673714Y-8850500D01*
X64886286Y-8850500D01*
X64886287Y-8850500D01*
X65096243Y-8817246D01*
X65298412Y-8751557D01*
X65487816Y-8655051D01*
X65509789Y-8639086D01*
X65659786Y-8530109D01*
X65659788Y-8530106D01*
X65659792Y-8530104D01*
X65810104Y-8379792D01*
X65810106Y-8379788D01*
X65810109Y-8379786D01*
X65935048Y-8207820D01*
X65935047Y-8207820D01*
X65935051Y-8207816D01*
X66031557Y-8018412D01*
X66097246Y-7816243D01*
X66130500Y-7606287D01*
X66130500Y-7393713D01*
X66097246Y-7183757D01*
X66031557Y-6981588D01*
X65935051Y-6792184D01*
X65935049Y-6792181D01*
X65935048Y-6792179D01*
X65810109Y-6620213D01*
X65659786Y-6469890D01*
X65487820Y-6344951D01*
X65298414Y-6248444D01*
X65298413Y-6248443D01*
X65298412Y-6248443D01*
X65096243Y-6182754D01*
X65096241Y-6182753D01*
X65096240Y-6182753D01*
X64934957Y-6157208D01*
X64886287Y-6149500D01*
X64673713Y-6149500D01*
X64625042Y-6157208D01*
X64463760Y-6182753D01*
X64261582Y-6248445D01*
X64180294Y-6289863D01*
X64111625Y-6302759D01*
X64046885Y-6276482D01*
X64006628Y-6219375D01*
X64000000Y-6179378D01*
X64000000Y-3878711D01*
X84149500Y-3878711D01*
X84149500Y-4121288D01*
X84181161Y-4361785D01*
X84243947Y-4596104D01*
X84336773Y-4820205D01*
X84336776Y-4820212D01*
X84458064Y-5030289D01*
X84458066Y-5030292D01*
X84458067Y-5030293D01*
X84605733Y-5222736D01*
X84605739Y-5222743D01*
X84777256Y-5394260D01*
X84777262Y-5394265D01*
X84969711Y-5541936D01*
X85179788Y-5663224D01*
X85403900Y-5756054D01*
X85638211Y-5818838D01*
X85818586Y-5842584D01*
X85878711Y-5850500D01*
X85878712Y-5850500D01*
X86121289Y-5850500D01*
X86169388Y-5844167D01*
X86361789Y-5818838D01*
X86596100Y-5756054D01*
X86820212Y-5663224D01*
X87030289Y-5541936D01*
X87222738Y-5394265D01*
X87394265Y-5222738D01*
X87541936Y-5030289D01*
X87663224Y-4820212D01*
X87756054Y-4596100D01*
X87818838Y-4361789D01*
X87850500Y-4121288D01*
X87850500Y-3878712D01*
X87818838Y-3638211D01*
X87756054Y-3403900D01*
X87663224Y-3179788D01*
X87541936Y-2969711D01*
X87394265Y-2777262D01*
X87394260Y-2777256D01*
X87222743Y-2605739D01*
X87222736Y-2605733D01*
X87030293Y-2458067D01*
X87030292Y-2458066D01*
X87030289Y-2458064D01*
X86820212Y-2336776D01*
X86820205Y-2336773D01*
X86596104Y-2243947D01*
X86371485Y-2183760D01*
X86361789Y-2181162D01*
X86361788Y-2181161D01*
X86361785Y-2181161D01*
X86121289Y-2149500D01*
X86121288Y-2149500D01*
X85878712Y-2149500D01*
X85878711Y-2149500D01*
X85638214Y-2181161D01*
X85403895Y-2243947D01*
X85179794Y-2336773D01*
X85179785Y-2336777D01*
X84969706Y-2458067D01*
X84777263Y-2605733D01*
X84777256Y-2605739D01*
X84605739Y-2777256D01*
X84605733Y-2777263D01*
X84458067Y-2969706D01*
X84336777Y-3179785D01*
X84336773Y-3179794D01*
X84243947Y-3403895D01*
X84181161Y-3638214D01*
X84149500Y-3878711D01*
X64000000Y-3878711D01*
X64000000Y-3820621D01*
X64019685Y-3753582D01*
X64072489Y-3707827D01*
X64141647Y-3697883D01*
X64180293Y-3710135D01*
X64261588Y-3751557D01*
X64463757Y-3817246D01*
X64673713Y-3850500D01*
X64673714Y-3850500D01*
X64886286Y-3850500D01*
X64886287Y-3850500D01*
X65096243Y-3817246D01*
X65298412Y-3751557D01*
X65487816Y-3655051D01*
X65510994Y-3638211D01*
X65659786Y-3530109D01*
X65659788Y-3530106D01*
X65659792Y-3530104D01*
X65810104Y-3379792D01*
X65810106Y-3379788D01*
X65810109Y-3379786D01*
X65935048Y-3207820D01*
X65935047Y-3207820D01*
X65935051Y-3207816D01*
X66031557Y-3018412D01*
X66097246Y-2816243D01*
X66130500Y-2606287D01*
X66130500Y-2393713D01*
X66097246Y-2183757D01*
X66031557Y-1981588D01*
X65935051Y-1792184D01*
X65935049Y-1792181D01*
X65935048Y-1792179D01*
X65810109Y-1620213D01*
X65659786Y-1469890D01*
X65487820Y-1344951D01*
X65298414Y-1248444D01*
X65298413Y-1248443D01*
X65298412Y-1248443D01*
X65096243Y-1182754D01*
X65096241Y-1182753D01*
X65096240Y-1182753D01*
X64934957Y-1157208D01*
X64886287Y-1149500D01*
X64673713Y-1149500D01*
X64625042Y-1157208D01*
X64463760Y-1182753D01*
X64261582Y-1248445D01*
X64180294Y-1289863D01*
X64111625Y-1302759D01*
X64046885Y-1276482D01*
X64006628Y-1219375D01*
X64000000Y-1179378D01*
X64000000Y-424500D01*
X64019685Y-357461D01*
X64072489Y-311706D01*
X64124000Y-300500D01*
X89575500Y-300500D01*
X89642539Y-320185D01*
G37*
%TD.AperFunction*%
%TA.AperFunction,Conductor*%
G36*
X65903411Y-26139736D02*
G01*
X65947758Y-26168237D01*
X66027807Y-26248286D01*
X66027811Y-26248289D01*
X66158914Y-26335890D01*
X66158927Y-26335897D01*
X66268182Y-26381151D01*
X66304603Y-26396237D01*
X66304606Y-26396237D01*
X66310438Y-26398007D01*
X66309682Y-26400496D01*
X66361566Y-26427610D01*
X66396165Y-26488312D01*
X66399500Y-26516877D01*
X66399500Y-26797152D01*
X66379815Y-26864191D01*
X66327011Y-26909946D01*
X66257853Y-26919890D01*
X66251309Y-26918769D01*
X66174546Y-26903500D01*
X66174542Y-26903500D01*
X66016858Y-26903500D01*
X66016855Y-26903500D01*
X65862210Y-26934261D01*
X65862198Y-26934264D01*
X65716527Y-26994602D01*
X65716514Y-26994609D01*
X65585411Y-27082210D01*
X65585407Y-27082213D01*
X65473913Y-27193707D01*
X65473910Y-27193711D01*
X65386309Y-27324814D01*
X65386302Y-27324827D01*
X65325964Y-27470498D01*
X65325961Y-27470510D01*
X65295200Y-27625153D01*
X65295200Y-27782846D01*
X65325961Y-27937489D01*
X65325964Y-27937501D01*
X65386302Y-28083172D01*
X65386309Y-28083185D01*
X65473910Y-28214288D01*
X65473913Y-28214292D01*
X65585407Y-28325786D01*
X65585411Y-28325789D01*
X65716514Y-28413390D01*
X65716527Y-28413397D01*
X65784661Y-28441618D01*
X65862203Y-28473737D01*
X65899691Y-28481193D01*
X65961602Y-28513578D01*
X65996176Y-28574294D01*
X65999500Y-28602811D01*
X65999500Y-29852152D01*
X65979815Y-29919191D01*
X65927011Y-29964946D01*
X65899692Y-29973769D01*
X65766508Y-30000261D01*
X65766498Y-30000264D01*
X65620827Y-30060602D01*
X65620814Y-30060609D01*
X65489711Y-30148210D01*
X65489707Y-30148213D01*
X65378213Y-30259707D01*
X65378210Y-30259711D01*
X65290609Y-30390814D01*
X65290602Y-30390827D01*
X65230264Y-30536498D01*
X65230261Y-30536510D01*
X65199500Y-30691153D01*
X65199500Y-30848846D01*
X65230261Y-31003489D01*
X65230264Y-31003501D01*
X65290602Y-31149172D01*
X65290609Y-31149185D01*
X65378210Y-31280288D01*
X65378213Y-31280292D01*
X65489707Y-31391786D01*
X65489711Y-31391789D01*
X65620814Y-31479390D01*
X65620827Y-31479397D01*
X65766498Y-31539735D01*
X65766503Y-31539737D01*
X65876987Y-31561713D01*
X65899691Y-31566230D01*
X65961602Y-31598615D01*
X65996176Y-31659330D01*
X65999500Y-31687847D01*
X65999500Y-35880602D01*
X65979815Y-35947641D01*
X65963181Y-35968283D01*
X64319481Y-37611982D01*
X64319479Y-37611985D01*
X64269361Y-37698794D01*
X64269359Y-37698796D01*
X64240425Y-37748909D01*
X64238562Y-37753408D01*
X64194722Y-37807812D01*
X64128428Y-37829878D01*
X64060728Y-37812600D01*
X64013117Y-37761463D01*
X64000000Y-37705957D01*
X64000000Y-27991996D01*
X64019685Y-27924957D01*
X64036319Y-27904315D01*
X64622352Y-27318282D01*
X65772400Y-26168234D01*
X65833719Y-26134752D01*
X65903411Y-26139736D01*
G37*
%TD.AperFunction*%
%TD*%
M02*
