%TF.GenerationSoftware,KiCad,Pcbnew,10.0.6*%
%TF.CreationDate,2026-09-14T07:10:18-07:00*%
%TF.ProjectId,plush-toy-mainboard,706c7573-682d-4746-9f79-2d6d61696e62,rev?*%
%TF.SameCoordinates,Original*%
%TF.FileFunction,Copper,L4,Bot*%
%TF.FilePolarity,Positive*%
%FSLAX46Y46*%
G04 Gerber Fmt 4.6, Leading zero omitted, Abs format (unit mm)*
G04 Created by KiCad (PCBNEW 10.0.6) date 2026-09-14 07:10:18*
%MOMM*%
%LPD*%
G01*
G04 APERTURE LIST*
G04 Aperture macros list*
%AMRoundRect*
0 Rectangle with rounded corners*
0 $1 Rounding radius*
0 $2 $3 $4 $5 $6 $7 $8 $9 X,Y pos of 4 corners*
0 Add a 4 corners polygon primitive as box body*
4,1,4,$2,$3,$4,$5,$6,$7,$8,$9,$2,$3,0*
0 Add four circle primitives for the rounded corners*
1,1,$1+$1,$2,$3*
1,1,$1+$1,$4,$5*
1,1,$1+$1,$6,$7*
1,1,$1+$1,$8,$9*
0 Add four rect primitives between the rounded corners*
20,1,$1+$1,$2,$3,$4,$5,0*
20,1,$1+$1,$4,$5,$6,$7,0*
20,1,$1+$1,$6,$7,$8,$9,0*
20,1,$1+$1,$8,$9,$2,$3,0*%
G04 Aperture macros list end*
%TA.AperFunction,ComponentPad*%
%ADD10R,1.700000X1.700000*%
%TD*%
%TA.AperFunction,ComponentPad*%
%ADD11C,1.700000*%
%TD*%
%TA.AperFunction,ComponentPad*%
%ADD12RoundRect,0.250001X-1.099999X1.099999X-1.099999X-1.099999X1.099999X-1.099999X1.099999X1.099999X0*%
%TD*%
%TA.AperFunction,ComponentPad*%
%ADD13C,2.700000*%
%TD*%
%TA.AperFunction,ComponentPad*%
%ADD14O,1.000000X2.100000*%
%TD*%
%TA.AperFunction,ComponentPad*%
%ADD15O,1.000000X1.600000*%
%TD*%
%TA.AperFunction,ComponentPad*%
%ADD16RoundRect,0.250001X0.949999X-0.949999X0.949999X0.949999X-0.949999X0.949999X-0.949999X-0.949999X0*%
%TD*%
%TA.AperFunction,ComponentPad*%
%ADD17C,2.400000*%
%TD*%
%TA.AperFunction,ComponentPad*%
%ADD18RoundRect,0.250000X-0.350000X-0.625000X0.350000X-0.625000X0.350000X0.625000X-0.350000X0.625000X0*%
%TD*%
%TA.AperFunction,ComponentPad*%
%ADD19O,1.200000X1.750000*%
%TD*%
%TA.AperFunction,HeatsinkPad*%
%ADD20C,0.600000*%
%TD*%
%TA.AperFunction,ViaPad*%
%ADD21C,0.600000*%
%TD*%
%TA.AperFunction,ViaPad*%
%ADD22C,0.450000*%
%TD*%
%TA.AperFunction,ViaPad*%
%ADD23C,0.800000*%
%TD*%
%TA.AperFunction,Conductor*%
%ADD24C,0.500000*%
%TD*%
%TA.AperFunction,Conductor*%
%ADD25C,0.200000*%
%TD*%
%TA.AperFunction,Conductor*%
%ADD26C,0.300000*%
%TD*%
%TA.AperFunction,Conductor*%
%ADD27C,1.000000*%
%TD*%
%TA.AperFunction,Conductor*%
%ADD28C,0.800000*%
%TD*%
G04 APERTURE END LIST*
D10*
%TO.P,J_SERVO_R,1*%
%TO.N,SERVO_R_PWM*%
X86000000Y-32000000D03*
D11*
%TO.P,J_SERVO_R,2*%
%TO.N,VMOT*%
X86000000Y-34540000D03*
%TO.P,J_SERVO_R,3*%
%TO.N,PGND*%
X86000000Y-37080000D03*
%TD*%
D12*
%TO.P,J_HEAT,1*%
%TO.N,VMOT*%
X84500000Y-43000000D03*
D13*
%TO.P,J_HEAT,2*%
%TO.N,HEAT_LOW*%
X84500000Y-46960000D03*
%TD*%
D14*
%TO.P,J_USB,SH*%
%TO.N,GND*%
X32320000Y-7830000D03*
D15*
X32320000Y-3650000D03*
D14*
X23680000Y-7830000D03*
D15*
X23680000Y-3650000D03*
%TD*%
D16*
%TO.P,J_VMOT,1*%
%TO.N,VMOT_IN*%
X83300000Y-16500000D03*
D17*
%TO.P,J_VMOT,2*%
%TO.N,PGND*%
X83300000Y-11420000D03*
%TD*%
D18*
%TO.P,J_SPK,1*%
%TO.N,SPK_P*%
X62000000Y-55000000D03*
D19*
%TO.P,J_SPK,2*%
%TO.N,SPK_N*%
X64000000Y-55000000D03*
%TD*%
D10*
%TO.P,J_LCD_R,1*%
%TO.N,LCD_RST*%
X47000000Y-7500000D03*
D11*
%TO.P,J_LCD_R,2*%
%TO.N,LCD_CS_R*%
X49540000Y-7500000D03*
%TO.P,J_LCD_R,3*%
%TO.N,LCD_DC*%
X52080000Y-7500000D03*
%TO.P,J_LCD_R,4*%
%TO.N,LCD_MOSI_S*%
X54620000Y-7500000D03*
%TO.P,J_LCD_R,5*%
%TO.N,LCD_CLK_S*%
X57160000Y-7500000D03*
%TO.P,J_LCD_R,6*%
%TO.N,GND*%
X59700000Y-7500000D03*
%TO.P,J_LCD_R,7*%
%TO.N,+3V3*%
X62240000Y-7500000D03*
%TD*%
D18*
%TO.P,J_NTC,1*%
%TO.N,NTC_SENSE*%
X74000000Y-55000000D03*
D19*
%TO.P,J_NTC,2*%
%TO.N,GND*%
X76000000Y-55000000D03*
%TD*%
D20*
%TO.P,U1,41*%
%TO.N,GND*%
X8510000Y-32900000D03*
X9910000Y-32900000D03*
X7810000Y-32200000D03*
X9210000Y-32200000D03*
X10610000Y-32200000D03*
X8510000Y-31500000D03*
X9910000Y-31500000D03*
X7810000Y-30800000D03*
X9210000Y-30800000D03*
X10610000Y-30800000D03*
X8510000Y-30100000D03*
X9910000Y-30100000D03*
%TD*%
D10*
%TO.P,J_SERVO_L,1*%
%TO.N,SERVO_L_PWM*%
X86000000Y-23000000D03*
D11*
%TO.P,J_SERVO_L,2*%
%TO.N,VMOT*%
X86000000Y-25540000D03*
%TO.P,J_SERVO_L,3*%
%TO.N,PGND*%
X86000000Y-28080000D03*
%TD*%
D10*
%TO.P,J_LCD_L,1*%
%TO.N,LCD_RST*%
X47000000Y-2500000D03*
D11*
%TO.P,J_LCD_L,2*%
%TO.N,LCD_CS_L*%
X49540000Y-2500000D03*
%TO.P,J_LCD_L,3*%
%TO.N,LCD_DC*%
X52080000Y-2500000D03*
%TO.P,J_LCD_L,4*%
%TO.N,LCD_MOSI_S*%
X54620000Y-2500000D03*
%TO.P,J_LCD_L,5*%
%TO.N,LCD_CLK_S*%
X57160000Y-2500000D03*
%TO.P,J_LCD_L,6*%
%TO.N,GND*%
X59700000Y-2500000D03*
%TO.P,J_LCD_L,7*%
%TO.N,+3V3*%
X62240000Y-2500000D03*
%TD*%
D21*
%TO.N,VBUS*%
X46225500Y-13401800D03*
X54721800Y-46202100D03*
%TO.N,GND*%
X1490000Y-21250000D03*
X14710000Y-47000000D03*
X55000000Y-54790000D03*
X15850200Y-51907600D03*
X58560200Y-30677100D03*
X25710000Y-49500000D03*
X40750000Y-4520000D03*
X23750000Y-53000000D03*
X49500000Y-28790000D03*
D22*
X45250000Y-57080000D03*
D21*
X70460000Y-45500000D03*
X15850200Y-48092400D03*
X29000000Y-51790000D03*
X39000000Y-4050000D03*
X15912800Y-8412900D03*
X34750000Y-9000000D03*
X11499700Y-48212100D03*
X54710000Y-47000000D03*
X8087200Y-15412900D03*
X58102500Y-23387500D03*
X69343200Y-51113200D03*
X36700000Y-5750000D03*
X15980000Y-53000000D03*
X66675000Y-48000000D03*
D22*
X38750000Y-58180000D03*
D21*
X53599600Y-47697700D03*
X60175000Y-49000000D03*
X46250000Y-36210000D03*
X58362000Y-21882600D03*
X57000000Y-23290000D03*
X24675000Y-22000000D03*
X19710000Y-18000000D03*
X16287700Y-17029300D03*
X27710000Y-55500000D03*
X45000000Y-33500000D03*
X58560200Y-20522900D03*
X25710000Y-47000000D03*
X66788600Y-46506300D03*
X68000000Y-32000000D03*
X28750100Y-48167700D03*
X40500000Y-8050000D03*
X35623200Y-48413200D03*
X22480000Y-3000000D03*
X44710000Y-47800000D03*
X32550000Y-52670000D03*
X59217800Y-21299500D03*
X51697700Y-50400400D03*
X59054300Y-22597200D03*
X35730000Y-44000000D03*
X46343200Y-5613200D03*
X38715800Y-54226200D03*
X50710000Y-34000000D03*
X1490000Y-38750000D03*
X56302300Y-49599600D03*
X66000000Y-30770000D03*
X34250000Y-1520000D03*
X63664900Y-23188000D03*
X26500000Y-46400000D03*
X49750000Y-56000000D03*
X56480000Y-26490000D03*
X12460000Y-2500000D03*
X53710000Y-58500000D03*
X65897500Y-23387500D03*
X48698200Y-28270400D03*
X43301800Y-28270400D03*
X15912800Y-15412900D03*
X8087200Y-8412900D03*
X47450000Y-52670000D03*
X24210000Y-25000000D03*
X50710000Y-26500000D03*
X42343200Y-48413200D03*
X40093200Y-48413200D03*
%TO.N,+3V3*%
X21325000Y-22000000D03*
X35020000Y-4000000D03*
X24230000Y-34000000D03*
X49500000Y-31210000D03*
X12290000Y-47000000D03*
X23979200Y-54687700D03*
X49979200Y-57687700D03*
X23979200Y-51312300D03*
X34800000Y-5750000D03*
X50900000Y-54900000D03*
X11770000Y-9500000D03*
X2760000Y-38750000D03*
X57000000Y-25710000D03*
X28750100Y-43832300D03*
X17290000Y-18000000D03*
X23290000Y-49500000D03*
X42500000Y-10210000D03*
X49979200Y-54312300D03*
X21790000Y-25000000D03*
X48698200Y-31729600D03*
X37750000Y-11500000D03*
X19712300Y-14970700D03*
X44040000Y-5000000D03*
X51290000Y-58500000D03*
X43800000Y-33500000D03*
X25290000Y-55500000D03*
X63900000Y-21300000D03*
X12768500Y-47978000D03*
X34250000Y-12500000D03*
X14378600Y-47901700D03*
X70000000Y-50500000D03*
X11770000Y-16500000D03*
X57000000Y-24800000D03*
X39000000Y-5950000D03*
X24230000Y-32000000D03*
X48290000Y-34000000D03*
%TO.N,+1V5*%
X43020000Y-46800000D03*
D22*
X41250000Y-57080000D03*
D21*
%TO.N,USB_CC2*%
X26445800Y-7543800D03*
X24746900Y-3598500D03*
%TO.N,LCD_CLK*%
X43264400Y-4437800D03*
X25937200Y-13683600D03*
X19928700Y-20476100D03*
X40069300Y-13683600D03*
%TO.N,SERVO_R_PWM*%
X63199600Y-25275000D03*
D23*
%TO.N,PGND*%
X74150000Y-17176700D03*
X86640800Y-21080200D03*
X75062500Y-45995400D03*
X65104200Y-33604200D03*
D21*
%TO.N,I2C_SCL*%
X45300000Y-27100000D03*
X42300000Y-28400000D03*
%TO.N,TOUCH_REXT*%
X29302400Y-48802100D03*
X33068900Y-48565000D03*
%TO.N,LCD_MOSI*%
X26627600Y-28095000D03*
X42495500Y-4411100D03*
%TO.N,UART_TX*%
X7820800Y-23528800D03*
X16607300Y-40302500D03*
%TO.N,USB_DP*%
X17468700Y-37516500D03*
X18600000Y-7702000D03*
%TO.N,AMP_DIN*%
X19363200Y-19896600D03*
X48026600Y-49250000D03*
X23744400Y-29723400D03*
X38946700Y-29999000D03*
%TO.N,AMP_LRCLK*%
X17251500Y-24673300D03*
X55192300Y-47849500D03*
%TO.N,AMP_BCLK*%
X52645300Y-48292800D03*
X35974800Y-21885800D03*
%TO.N,TOUCH_E1*%
X33387700Y-38540500D03*
X31720900Y-49108500D03*
%TO.N,BUCK_SW*%
X35285400Y-10705500D03*
X35285400Y-14500000D03*
%TO.N,I2C_SDA*%
X23800000Y-40000000D03*
X23800000Y-38200000D03*
X20723500Y-37769800D03*
X15549400Y-18427900D03*
X70070800Y-46775600D03*
X67258700Y-23148000D03*
%TO.N,TOUCH_E0*%
X28217900Y-47431200D03*
X29033000Y-38000000D03*
%TO.N,TOUCH_E2*%
X31371100Y-47552500D03*
X31676000Y-40672800D03*
%TO.N,TOUCH_E3*%
X28707300Y-39825400D03*
X31924200Y-48063500D03*
%TO.N,TOUCH_E4*%
X28539800Y-37359700D03*
X30085000Y-46400000D03*
%TO.N,TOUCH_E5*%
X32607200Y-47359000D03*
X31174800Y-36174800D03*
%TO.N,TOUCH_E8*%
X31000000Y-43500000D03*
X31000000Y-37400000D03*
%TO.N,TOUCH_E9*%
X32004600Y-35782400D03*
X30400000Y-45551100D03*
%TO.N,LED_RGB*%
X18038300Y-24285000D03*
X19734500Y-16546500D03*
%TO.N,CAM_PWDN*%
X34498800Y-48473400D03*
D22*
X42250000Y-57080000D03*
D21*
%TO.N,USB_DN*%
X16730000Y-37190300D03*
X18600000Y-5472300D03*
%TO.N,SERVO_L_PWM*%
X63646500Y-24625000D03*
%TO.N,HEAT_PWM*%
X66538100Y-26466500D03*
X67086200Y-38831700D03*
%TO.N,LCD_RST*%
X20458200Y-26825000D03*
%TO.N,LCD_CS_R*%
X20457700Y-35715000D03*
D22*
%TO.N,CAM_SIOC*%
X43750000Y-58180000D03*
D21*
X17955700Y-33685100D03*
%TO.N,CAM_VSYNC*%
X8058500Y-37529800D03*
D22*
X42750000Y-58180000D03*
%TO.N,CAM_Y9*%
X40250000Y-57080000D03*
D21*
X12261900Y-37529900D03*
%TO.N,CAM_XCLK*%
X10584400Y-37543900D03*
X22199700Y-50089200D03*
X35603900Y-50089200D03*
D22*
X39750000Y-58180000D03*
D21*
%TO.N,CAM_Y8*%
X34047300Y-56806000D03*
D22*
X39250000Y-57080000D03*
D21*
X13143500Y-37524800D03*
X30681400Y-56806000D03*
%TO.N,CAM_Y7*%
X14391000Y-37547300D03*
D22*
X38250000Y-57080000D03*
D21*
%TO.N,CAM_PCLK*%
X21729500Y-31284400D03*
X32742900Y-53922700D03*
%TO.N,CAM_Y6*%
X32186000Y-55185000D03*
X20817000Y-30690600D03*
%TO.N,CAM_Y2*%
X20756400Y-31906100D03*
D22*
X36750000Y-58180000D03*
D21*
%TO.N,CAM_Y5*%
X26843100Y-50711700D03*
X20759700Y-33175000D03*
%TO.N,CAM_Y3*%
X17894400Y-34445000D03*
D22*
X35750000Y-58180000D03*
D21*
%TO.N,LCD_CS_L*%
X21515200Y-23015000D03*
%TO.N,MIC_SD*%
X7941900Y-45250200D03*
X7840000Y-22460500D03*
%TO.N,MIC_SCK*%
X4001900Y-22459200D03*
X11713000Y-50010600D03*
%TO.N,MIC_WS*%
X2760000Y-22464900D03*
X12291400Y-50576800D03*
%TD*%
%TO.N,VBUS*%
D24*
X54721800Y-21898100D02*
X54721800Y-46202100D01*
X46225500Y-13401800D02*
X54721800Y-21898100D01*
%TO.N,+3V3*%
D25*
X59700000Y-21600000D02*
X59800000Y-21600000D01*
X58500000Y-23900000D02*
X58500000Y-23800000D01*
X50900000Y-51000000D02*
X51000000Y-51000000D01*
X70000000Y-50500000D02*
X70100000Y-50500000D01*
X52300000Y-50700000D02*
X52300000Y-50500000D01*
D24*
X69000000Y-50500000D02*
X69000000Y-50400000D01*
D25*
X59300000Y-23100000D02*
X59500000Y-23100000D01*
X58400000Y-23900000D02*
X58500000Y-23900000D01*
X59700000Y-22700000D02*
X59700000Y-21600000D01*
X50900000Y-51000000D02*
X52000000Y-51000000D01*
X52200000Y-50700000D02*
X52300000Y-50700000D01*
X50900000Y-54900000D02*
X51000000Y-54900000D01*
X63900000Y-21400000D02*
X64000000Y-21400000D01*
X52300000Y-50500000D02*
X52400000Y-50500000D01*
X58700000Y-23200000D02*
X59300000Y-23200000D01*
X63900000Y-21400000D02*
X63900000Y-21300000D01*
X59300000Y-23200000D02*
X59300000Y-23100000D01*
X59500000Y-23100000D02*
X59500000Y-23000000D01*
X52100000Y-50900000D02*
X52100000Y-50800000D01*
D24*
X69700000Y-50500000D02*
X70100000Y-50500000D01*
D25*
X59600000Y-22700000D02*
X59700000Y-22700000D01*
X57000000Y-24800000D02*
X57000000Y-24000000D01*
X58400000Y-24000000D02*
X58400000Y-23900000D01*
D24*
X69700000Y-50400000D02*
X69700000Y-50500000D01*
D25*
X59500000Y-23000000D02*
X59600000Y-23000000D01*
X59800000Y-21600000D02*
X59800000Y-21400000D01*
X59600000Y-23000000D02*
X59600000Y-22700000D01*
X58600000Y-23800000D02*
X58600000Y-23700000D01*
X58500000Y-23800000D02*
X58600000Y-23800000D01*
X59800000Y-21400000D02*
X59900000Y-21400000D01*
X57000000Y-24000000D02*
X58400000Y-24000000D01*
X52100000Y-50800000D02*
X52200000Y-50800000D01*
X59900000Y-21400000D02*
X60000000Y-21400000D01*
D24*
X52400000Y-50500000D02*
X69000000Y-50500000D01*
D25*
X52000000Y-51000000D02*
X52000000Y-50900000D01*
D24*
X60000000Y-21400000D02*
X64000000Y-21400000D01*
D25*
X58600000Y-23700000D02*
X58700000Y-23700000D01*
X58700000Y-23700000D02*
X58700000Y-23200000D01*
X52200000Y-50800000D02*
X52200000Y-50700000D01*
D24*
X69000000Y-50400000D02*
X69700000Y-50400000D01*
D25*
X52000000Y-50900000D02*
X52100000Y-50900000D01*
D24*
X51000000Y-54900000D02*
X51000000Y-51000000D01*
%TO.N,+1V5*%
D26*
X33900000Y-48600000D02*
X33800000Y-48600000D01*
X33900000Y-46800000D02*
X43100000Y-46800000D01*
X33800000Y-48600000D02*
X33800000Y-46800000D01*
D25*
X41250000Y-57080000D02*
X41250000Y-56200000D01*
D26*
X33800000Y-46800000D02*
X33900000Y-46800000D01*
D25*
X33800000Y-46800000D02*
X33900000Y-46800000D01*
X41250000Y-56200000D02*
X41100000Y-56200000D01*
X43020000Y-46800000D02*
X43100000Y-46800000D01*
D26*
X41100000Y-56200000D02*
X33900000Y-56200000D01*
D25*
X33800000Y-46800000D02*
X33900000Y-46800000D01*
D26*
X33900000Y-56200000D02*
X33900000Y-48600000D01*
%TO.N,USB_CC2*%
D25*
X26445800Y-5297400D02*
X24746900Y-3598500D01*
X26445800Y-7543800D02*
X26445800Y-5297400D01*
%TO.N,LCD_CLK*%
X43264400Y-4437800D02*
X43264400Y-10488500D01*
X25937200Y-13683600D02*
X19928700Y-19692100D01*
X19928700Y-19692100D02*
X19928700Y-20476100D01*
X43264400Y-10488500D02*
X40069300Y-13683600D01*
%TO.N,LCD_CLK_S*%
X57160000Y-2500000D02*
X57160000Y-7500000D01*
%TO.N,SERVO_R_PWM*%
X72977100Y-32000000D02*
X66252100Y-25275000D01*
X86000000Y-32000000D02*
X72977100Y-32000000D01*
X66252100Y-25275000D02*
X63199600Y-25275000D01*
%TO.N,VMOT*%
D27*
X87575800Y-27115800D02*
X86000000Y-25540000D01*
X84422900Y-36117100D02*
X86000000Y-34540000D01*
X86000000Y-34540000D02*
X86193800Y-34540000D01*
X87575800Y-33158000D02*
X87575800Y-27115800D01*
X84422900Y-42922900D02*
X84422900Y-36117100D01*
X84500000Y-43000000D02*
X84422900Y-42922900D01*
X86193800Y-34540000D02*
X87575800Y-33158000D01*
%TO.N,PGND*%
D28*
X86000000Y-28080000D02*
X86100000Y-28100000D01*
D27*
X86100000Y-28100000D02*
X83100000Y-28100000D01*
X86000000Y-28080000D02*
X86000000Y-27300000D01*
D28*
X83000000Y-28080000D02*
X83100000Y-28100000D01*
%TO.N,I2C_SCL*%
D25*
X42300000Y-27100000D02*
X42300000Y-28400000D01*
X45300000Y-27100000D02*
X42300000Y-27100000D01*
%TO.N,TOUCH_REXT*%
X31973600Y-49660300D02*
X33068900Y-48565000D01*
X30160600Y-49660300D02*
X31973600Y-49660300D01*
X29302400Y-48802100D02*
X30160600Y-49660300D01*
%TO.N,LCD_MOSI*%
X42495500Y-4411100D02*
X42495500Y-8464500D01*
X26627600Y-24332400D02*
X26627600Y-28095000D01*
X42495500Y-8464500D02*
X26627600Y-24332400D01*
%TO.N,LCD_MOSI_S*%
X54620000Y-2500000D02*
X54620000Y-7500000D01*
%TO.N,UART_TX*%
X7820800Y-23528800D02*
X11831900Y-27539900D01*
X11831900Y-34091700D02*
X16607300Y-38867100D01*
X11831900Y-27539900D02*
X11831900Y-34091700D01*
X16607300Y-38867100D02*
X16607300Y-40302500D01*
%TO.N,USB_DP*%
X14977600Y-11324400D02*
X14977600Y-33380800D01*
X14977600Y-33380800D02*
X17468700Y-35871900D01*
X18600000Y-7702000D02*
X14977600Y-11324400D01*
X17468700Y-35871900D02*
X17468700Y-37516500D01*
%TO.N,AMP_DIN*%
X23744400Y-29723400D02*
X23744400Y-27761700D01*
X19363200Y-23380500D02*
X19363200Y-19896600D01*
X38946700Y-40170100D02*
X48026600Y-49250000D01*
X23744400Y-27761700D02*
X19363200Y-23380500D01*
X38946700Y-29999000D02*
X38946700Y-40170100D01*
%TO.N,AMP_LRCLK*%
X29334000Y-31328800D02*
X23051400Y-31328800D01*
X19149600Y-34661200D02*
X19149600Y-26571400D01*
X47687500Y-49816100D02*
X45260200Y-47388800D01*
X19447000Y-34958600D02*
X19149600Y-34661200D01*
X20194500Y-36272800D02*
X19447000Y-35525300D01*
X20759000Y-36272800D02*
X20194500Y-36272800D01*
X53225700Y-49816100D02*
X47687500Y-49816100D01*
X45260200Y-47255000D02*
X29334000Y-31328800D01*
X21054800Y-34914000D02*
X21054800Y-35977000D01*
X21499000Y-29776400D02*
X20447700Y-29776400D01*
X45260200Y-47388800D02*
X45260200Y-47255000D01*
X55192300Y-47849500D02*
X53225700Y-49816100D01*
X21054800Y-35977000D02*
X20759000Y-36272800D01*
X19853000Y-30371100D02*
X19853000Y-33712200D01*
X20447700Y-29776400D02*
X19853000Y-30371100D01*
X19447000Y-35525300D02*
X19447000Y-34958600D01*
X19149600Y-26571400D02*
X17251500Y-24673300D01*
X23051400Y-31328800D02*
X21499000Y-29776400D01*
X19853000Y-33712200D02*
X21054800Y-34914000D01*
%TO.N,AMP_BCLK*%
X41717800Y-37365300D02*
X52645300Y-48292800D01*
X35974800Y-21885800D02*
X41717800Y-27628800D01*
X41717800Y-27628800D02*
X41717800Y-37365300D01*
%TO.N,TOUCH_E1*%
X33387700Y-38540500D02*
X33387700Y-47441700D01*
X33387700Y-47441700D02*
X31720900Y-49108500D01*
%TO.N,BUCK_SW*%
D24*
X35285400Y-10705500D02*
X35285400Y-14500000D01*
%TO.N,I2C_SDA*%
D25*
X62641000Y-24788100D02*
X63489900Y-23939200D01*
X23800000Y-38200000D02*
X23800000Y-40000000D01*
X63489900Y-23939200D02*
X66467500Y-23939200D01*
X18797900Y-33690600D02*
X18797900Y-34806800D01*
X15549400Y-30442100D02*
X18797900Y-33690600D01*
X19095300Y-36141600D02*
X20723500Y-37769800D01*
X70070800Y-46775600D02*
X62641000Y-39345800D01*
X62641000Y-39345800D02*
X62641000Y-24788100D01*
X66467500Y-23939200D02*
X67258700Y-23148000D01*
X19095300Y-35104200D02*
X19095300Y-36141600D01*
X15549400Y-18427900D02*
X15549400Y-30442100D01*
X18797900Y-34806800D02*
X19095300Y-35104200D01*
%TO.N,TOUCH_E0*%
X29114200Y-37918800D02*
X29033000Y-38000000D01*
X28217900Y-47431200D02*
X28217900Y-44829400D01*
X28217900Y-44829400D02*
X27975700Y-44587200D01*
X28339300Y-36759300D02*
X28790000Y-36759300D01*
X29114200Y-37083500D02*
X29114200Y-37918800D01*
X27975700Y-44587200D02*
X27975700Y-37122900D01*
X28790000Y-36759300D02*
X29114200Y-37083500D01*
X27975700Y-37122900D02*
X28339300Y-36759300D01*
%TO.N,TOUCH_E2*%
X31371100Y-47552500D02*
X31676000Y-47247600D01*
X31676000Y-47247600D02*
X31676000Y-40672800D01*
%TO.N,TOUCH_E3*%
X29389500Y-46507800D02*
X31042600Y-48160900D01*
X29389500Y-40507600D02*
X29389500Y-46507800D01*
X31826800Y-48160900D02*
X31924200Y-48063500D01*
X28707300Y-39825400D02*
X29389500Y-40507600D01*
X31042600Y-48160900D02*
X31826800Y-48160900D01*
%TO.N,TOUCH_E4*%
X29830100Y-40168000D02*
X28478600Y-38816500D01*
X30085000Y-46400000D02*
X29830100Y-46145100D01*
X29830100Y-46145100D02*
X29830100Y-40168000D01*
X28478600Y-38816500D02*
X28478600Y-37420900D01*
X28478600Y-37420900D02*
X28539800Y-37359700D01*
%TO.N,TOUCH_E5*%
X32208900Y-35206300D02*
X32607200Y-35604600D01*
X31174800Y-35799900D02*
X31768400Y-35206300D01*
X32607200Y-35604600D02*
X32607200Y-47359000D01*
X31174800Y-36174800D02*
X31174800Y-35799900D01*
X31768400Y-35206300D02*
X32208900Y-35206300D01*
%TO.N,TOUCH_E8*%
X31000000Y-43500000D02*
X31000000Y-37400000D01*
%TO.N,TOUCH_E9*%
X30772500Y-36629400D02*
X30943500Y-36800400D01*
X32004600Y-36174500D02*
X32004600Y-35782400D01*
X29992300Y-37409500D02*
X29992300Y-36952700D01*
X29992300Y-36952700D02*
X30315600Y-36629400D01*
X31378700Y-36800400D02*
X32004600Y-36174500D01*
X30943500Y-36800400D02*
X31378700Y-36800400D01*
X30400000Y-37817200D02*
X29992300Y-37409500D01*
X30315600Y-36629400D02*
X30772500Y-36629400D01*
X30400000Y-45551100D02*
X30400000Y-37817200D01*
%TO.N,LED_RGB*%
X19734500Y-16546500D02*
X18038300Y-18242700D01*
X18038300Y-18242700D02*
X18038300Y-24285000D01*
%TO.N,CAM_PWDN*%
X42727400Y-57557400D02*
X43458900Y-57557400D01*
X43750000Y-56808500D02*
X36467300Y-49525800D01*
X43458900Y-57557400D02*
X43750000Y-57266300D01*
X36467300Y-49525800D02*
X35551200Y-49525800D01*
X42250000Y-57080000D02*
X42727400Y-57557400D01*
X43750000Y-57266300D02*
X43750000Y-56808500D01*
X35551200Y-49525800D02*
X34498800Y-48473400D01*
%TO.N,USB_DN*%
X18600000Y-5472300D02*
X16954300Y-7118000D01*
X16954300Y-8676200D02*
X14625900Y-11004600D01*
X14625900Y-35086200D02*
X16730000Y-37190300D01*
X14625900Y-11004600D02*
X14625900Y-35086200D01*
X16954300Y-7118000D02*
X16954300Y-8676200D01*
%TO.N,SERVO_L_PWM*%
X84898300Y-23000000D02*
X83273300Y-24625000D01*
X86000000Y-23000000D02*
X84898300Y-23000000D01*
X83273300Y-24625000D02*
X63646500Y-24625000D01*
%TO.N,HEAT_PWM*%
X66538100Y-26466500D02*
X67086200Y-27014600D01*
X67086200Y-27014600D02*
X67086200Y-38831700D01*
%TO.N,LCD_RST*%
X47000000Y-8601700D02*
X25326500Y-30275200D01*
X25326500Y-30275200D02*
X23458100Y-30275200D01*
X20458200Y-27275300D02*
X20458200Y-26825000D01*
X23458100Y-30275200D02*
X20458200Y-27275300D01*
X47000000Y-2500000D02*
X47000000Y-7500000D01*
X47000000Y-7500000D02*
X47000000Y-8601700D01*
%TO.N,LCD_CS_R*%
X19501300Y-30225500D02*
X20302100Y-29424700D01*
X26341900Y-30698100D02*
X49540000Y-7500000D01*
X21644600Y-29424700D02*
X22918000Y-30698100D01*
X20302100Y-29424700D02*
X21644600Y-29424700D01*
X19501300Y-34515600D02*
X19501300Y-30225500D01*
X20457700Y-35472000D02*
X19501300Y-34515600D01*
X22918000Y-30698100D02*
X26341900Y-30698100D01*
X20457700Y-35715000D02*
X20457700Y-35472000D01*
%TO.N,LCD_DC*%
X52080000Y-2500000D02*
X52080000Y-7500000D01*
%TO.N,CAM_SIOC*%
X18723900Y-35230100D02*
X18446200Y-34952400D01*
X44750000Y-57321400D02*
X44750000Y-52589600D01*
X18446200Y-34952400D02*
X18446200Y-34175600D01*
X20593300Y-30128100D02*
X20204700Y-30516700D01*
X31194700Y-33690800D02*
X24916100Y-33690800D01*
X20204700Y-30516700D02*
X20204700Y-33566600D01*
X21353400Y-30128100D02*
X20593300Y-30128100D01*
X43750000Y-58180000D02*
X43891400Y-58180000D01*
X18723900Y-36558200D02*
X18723900Y-35230100D01*
X43891400Y-58180000D02*
X44750000Y-57321400D01*
X44125200Y-51964800D02*
X44125200Y-46621300D01*
X24916100Y-33690800D02*
X21353400Y-30128100D01*
X20204700Y-33566600D02*
X21412100Y-34774000D01*
X21412100Y-37937100D02*
X20998500Y-38350700D01*
X20998500Y-38350700D02*
X20516400Y-38350700D01*
X44750000Y-52589600D02*
X44125200Y-51964800D01*
X20516400Y-38350700D02*
X18723900Y-36558200D01*
X18446200Y-34175600D02*
X17955700Y-33685100D01*
X44125200Y-46621300D02*
X31194700Y-33690800D01*
X21412100Y-34774000D02*
X21412100Y-37937100D01*
%TO.N,CAM_VSYNC*%
X22456500Y-51927800D02*
X25021000Y-51927800D01*
X25021000Y-51927800D02*
X32454200Y-59361000D01*
X32454200Y-59361000D02*
X41569000Y-59361000D01*
X8058500Y-37529800D02*
X22456500Y-51927800D01*
X41569000Y-59361000D02*
X42750000Y-58180000D01*
%TO.N,CAM_Y9*%
X33665000Y-59009300D02*
X37610900Y-59009300D01*
X26323500Y-51966800D02*
X26622500Y-51966800D01*
X19561300Y-44982000D02*
X25579400Y-51000100D01*
X37610900Y-59009300D02*
X38250000Y-58370200D01*
X12261900Y-38051800D02*
X19192100Y-44982000D01*
X12261900Y-37529900D02*
X12261900Y-38051800D01*
X19192100Y-44982000D02*
X19561300Y-44982000D01*
X38250000Y-57979900D02*
X38614300Y-57615600D01*
X38614300Y-57615600D02*
X39714400Y-57615600D01*
X39714400Y-57615600D02*
X40250000Y-57080000D01*
X26622500Y-51966800D02*
X33665000Y-59009300D01*
X25579400Y-51000100D02*
X25579400Y-51222700D01*
X25579400Y-51222700D02*
X26323500Y-51966800D01*
X38250000Y-58370200D02*
X38250000Y-57979900D01*
%TO.N,CAM_XCLK*%
X41321100Y-57695200D02*
X41773300Y-57243000D01*
X40234800Y-57695200D02*
X41321100Y-57695200D01*
X35686900Y-50089200D02*
X35603900Y-50089200D01*
X10584400Y-38473900D02*
X22199700Y-50089200D01*
X10584400Y-37543900D02*
X10584400Y-38473900D01*
X41773300Y-56175600D02*
X35686900Y-50089200D01*
X39750000Y-58180000D02*
X40234800Y-57695200D01*
X41773300Y-57243000D02*
X41773300Y-56175600D01*
%TO.N,CAM_Y8*%
X24425900Y-50566500D02*
X30665400Y-56806000D01*
X38773300Y-56603300D02*
X34250000Y-56603300D01*
X34250000Y-56603300D02*
X34047300Y-56806000D01*
X11704500Y-37261200D02*
X11704500Y-38755100D01*
X39250000Y-57080000D02*
X38773300Y-56603300D01*
X13143500Y-37524800D02*
X12520100Y-36901400D01*
X30665400Y-56806000D02*
X30681400Y-56806000D01*
X23515900Y-50566500D02*
X24425900Y-50566500D01*
X11704500Y-38755100D02*
X23515900Y-50566500D01*
X12520100Y-36901400D02*
X12064300Y-36901400D01*
X12064300Y-36901400D02*
X11704500Y-37261200D01*
%TO.N,CAM_Y7*%
X33810500Y-58657500D02*
X36986000Y-58657500D01*
X25931100Y-50780300D02*
X25931100Y-51077100D01*
X26768100Y-51615100D02*
X33810500Y-58657500D01*
X14391000Y-37547300D02*
X14391000Y-39240200D01*
X37230900Y-58412600D02*
X37230900Y-57972700D01*
X37230900Y-57972700D02*
X38123600Y-57080000D01*
X26469100Y-51615100D02*
X26768100Y-51615100D01*
X25931100Y-51077100D02*
X26469100Y-51615100D01*
X14391000Y-39240200D02*
X25931100Y-50780300D01*
X36986000Y-58657500D02*
X37230900Y-58412600D01*
X38123600Y-57080000D02*
X38250000Y-57080000D01*
%TO.N,CAM_PCLK*%
X27666200Y-47659600D02*
X27760800Y-47754200D01*
X21729500Y-31284400D02*
X23218700Y-32773600D01*
X27666200Y-47202800D02*
X27666200Y-47659600D01*
X27760800Y-48940600D02*
X32742900Y-53922700D01*
X23218700Y-40327500D02*
X27760800Y-44869600D01*
X23218700Y-32773600D02*
X23218700Y-40327500D01*
X27760800Y-44869600D02*
X27760800Y-47108200D01*
X27760800Y-47754200D02*
X27760800Y-48940600D01*
X27760800Y-47108200D02*
X27666200Y-47202800D01*
%TO.N,CAM_Y6*%
X27403400Y-46968300D02*
X27403400Y-45194600D01*
X32186000Y-54065200D02*
X27403400Y-49282600D01*
X22535600Y-32904900D02*
X20817000Y-31186300D01*
X32186000Y-55185000D02*
X32186000Y-54065200D01*
X27314500Y-47057200D02*
X27403400Y-46968300D01*
X22535600Y-40326800D02*
X22535600Y-32904900D01*
X27403400Y-47894100D02*
X27314500Y-47805200D01*
X20817000Y-31186300D02*
X20817000Y-30690600D01*
X27403400Y-49282600D02*
X27403400Y-47894100D01*
X27314500Y-47805200D02*
X27314500Y-47057200D01*
X27403400Y-45194600D02*
X22535600Y-40326800D01*
%TO.N,CAM_Y2*%
X26962800Y-47950800D02*
X26962800Y-46911600D01*
X27051800Y-50140200D02*
X27051700Y-50140200D01*
X33894900Y-57678700D02*
X27394800Y-51178600D01*
X27051700Y-48039700D02*
X26962800Y-47950800D01*
X36248700Y-57678700D02*
X33894900Y-57678700D01*
X27394800Y-50483200D02*
X27051800Y-50140200D01*
X26962800Y-46911600D02*
X27051700Y-46822700D01*
X27051700Y-50140200D02*
X27051700Y-48039700D01*
X22183900Y-33333600D02*
X20756400Y-31906100D01*
X27051700Y-46822700D02*
X27051700Y-45674200D01*
X27051700Y-45674200D02*
X22183900Y-40806400D01*
X36750000Y-58180000D02*
X36248700Y-57678700D01*
X22183900Y-40806400D02*
X22183900Y-33333600D01*
X27394800Y-51178600D02*
X27394800Y-50483200D01*
%TO.N,CAM_Y5*%
X26634500Y-50503100D02*
X26634500Y-48897900D01*
X21780700Y-44044100D02*
X21780700Y-34196000D01*
X21780700Y-34196000D02*
X20759700Y-33175000D01*
X26843100Y-50711700D02*
X26634500Y-50503100D01*
X26634500Y-48897900D02*
X21780700Y-44044100D01*
%TO.N,CAM_Y3*%
X33898900Y-58180000D02*
X26982300Y-51263400D01*
X26614700Y-51263400D02*
X26282800Y-50931500D01*
X18743600Y-38996800D02*
X18372200Y-38625400D01*
X18372200Y-38625400D02*
X18372200Y-35375800D01*
X26982300Y-51263400D02*
X26614700Y-51263400D01*
X26282800Y-49226400D02*
X18743600Y-41687200D01*
X18743600Y-41687200D02*
X18743600Y-38996800D01*
X18372200Y-35375800D02*
X17894400Y-34898000D01*
X35750000Y-58180000D02*
X33898900Y-58180000D01*
X26282800Y-50931500D02*
X26282800Y-49226400D01*
X17894400Y-34898000D02*
X17894400Y-34445000D01*
%TO.N,LCD_CS_L*%
X44656500Y-1398300D02*
X48438300Y-1398300D01*
X48438300Y-1398300D02*
X49540000Y-2500000D01*
X38555000Y-7499800D02*
X44656500Y-1398300D01*
X21515200Y-23015000D02*
X37030400Y-7499800D01*
X37030400Y-7499800D02*
X38555000Y-7499800D01*
%TO.N,MIC_SD*%
X7254100Y-33094100D02*
X7435900Y-33275900D01*
X7254100Y-23046400D02*
X7254100Y-33094100D01*
X7840000Y-22460500D02*
X7254100Y-23046400D01*
X7435900Y-33275900D02*
X7435900Y-44744200D01*
X7435900Y-44744200D02*
X7941900Y-45250200D01*
%TO.N,MIC_SCK*%
X4001900Y-22459200D02*
X6080200Y-24537500D01*
X6080200Y-24537500D02*
X6080200Y-44670500D01*
X6080200Y-44670500D02*
X11420300Y-50010600D01*
X11420300Y-50010600D02*
X11713000Y-50010600D01*
%TO.N,MIC_WS*%
X11489200Y-50576800D02*
X12291400Y-50576800D01*
X2760000Y-22464900D02*
X3659600Y-23364500D01*
X3659600Y-23364500D02*
X3659600Y-42747200D01*
X3659600Y-42747200D02*
X11489200Y-50576800D01*
%TD*%
%TA.AperFunction,Conductor*%
%TO.N,PGND*%
G36*
X89642539Y-320185D02*
G01*
X89688294Y-372989D01*
X89699500Y-424500D01*
X89699500Y-59575500D01*
X89679815Y-59642539D01*
X89627011Y-59688294D01*
X89575500Y-59699500D01*
X64124000Y-59699500D01*
X64056961Y-59679815D01*
X64011206Y-59627011D01*
X64000000Y-59575500D01*
X64000000Y-56495123D01*
X64019685Y-56428084D01*
X64072489Y-56382329D01*
X64104600Y-56372650D01*
X64200256Y-56357500D01*
X64257696Y-56348403D01*
X64257696Y-56348402D01*
X64257701Y-56348402D01*
X64422445Y-56294873D01*
X64576788Y-56216232D01*
X64716928Y-56114414D01*
X64839414Y-55991928D01*
X64941232Y-55851788D01*
X65019873Y-55697445D01*
X65073402Y-55532701D01*
X65100500Y-55361611D01*
X65100500Y-54638389D01*
X65073402Y-54467299D01*
X65027160Y-54324983D01*
X72899500Y-54324983D01*
X72899500Y-55675001D01*
X72899501Y-55675018D01*
X72910000Y-55777796D01*
X72910001Y-55777799D01*
X72965185Y-55944331D01*
X72965187Y-55944336D01*
X72988870Y-55982732D01*
X73057288Y-56093656D01*
X73181344Y-56217712D01*
X73330666Y-56309814D01*
X73497203Y-56364999D01*
X73599991Y-56375500D01*
X74400008Y-56375499D01*
X74400016Y-56375498D01*
X74400019Y-56375498D01*
X74456302Y-56369748D01*
X74502797Y-56364999D01*
X74669334Y-56309814D01*
X74818656Y-56217712D01*
X74942712Y-56093656D01*
X74982310Y-56029456D01*
X75034258Y-55982732D01*
X75103220Y-55971509D01*
X75167303Y-55999352D01*
X75175530Y-56006872D01*
X75283072Y-56114414D01*
X75423212Y-56216232D01*
X75577555Y-56294873D01*
X75742299Y-56348402D01*
X75913389Y-56375500D01*
X75913390Y-56375500D01*
X76086610Y-56375500D01*
X76086611Y-56375500D01*
X76257701Y-56348402D01*
X76422445Y-56294873D01*
X76576788Y-56216232D01*
X76716928Y-56114414D01*
X76839414Y-55991928D01*
X76921671Y-55878711D01*
X84149500Y-55878711D01*
X84149500Y-56121288D01*
X84181161Y-56361785D01*
X84243947Y-56596104D01*
X84336773Y-56820205D01*
X84336776Y-56820212D01*
X84458064Y-57030289D01*
X84458066Y-57030292D01*
X84458067Y-57030293D01*
X84605733Y-57222736D01*
X84605739Y-57222743D01*
X84777256Y-57394260D01*
X84777262Y-57394265D01*
X84969711Y-57541936D01*
X85179788Y-57663224D01*
X85403900Y-57756054D01*
X85638211Y-57818838D01*
X85818586Y-57842584D01*
X85878711Y-57850500D01*
X85878712Y-57850500D01*
X86121289Y-57850500D01*
X86169388Y-57844167D01*
X86361789Y-57818838D01*
X86596100Y-57756054D01*
X86820212Y-57663224D01*
X87030289Y-57541936D01*
X87222738Y-57394265D01*
X87394265Y-57222738D01*
X87541936Y-57030289D01*
X87663224Y-56820212D01*
X87756054Y-56596100D01*
X87818838Y-56361789D01*
X87850500Y-56121288D01*
X87850500Y-55878712D01*
X87846955Y-55851788D01*
X87837215Y-55777799D01*
X87818838Y-55638211D01*
X87756054Y-55403900D01*
X87663224Y-55179788D01*
X87541936Y-54969711D01*
X87394265Y-54777262D01*
X87394260Y-54777256D01*
X87222743Y-54605739D01*
X87222736Y-54605733D01*
X87030293Y-54458067D01*
X87030292Y-54458066D01*
X87030289Y-54458064D01*
X86820212Y-54336776D01*
X86820205Y-54336773D01*
X86596104Y-54243947D01*
X86361785Y-54181161D01*
X86121289Y-54149500D01*
X86121288Y-54149500D01*
X85878712Y-54149500D01*
X85878711Y-54149500D01*
X85638214Y-54181161D01*
X85403895Y-54243947D01*
X85179794Y-54336773D01*
X85179785Y-54336777D01*
X84969706Y-54458067D01*
X84777263Y-54605733D01*
X84777256Y-54605739D01*
X84605739Y-54777256D01*
X84605733Y-54777263D01*
X84458067Y-54969706D01*
X84336777Y-55179785D01*
X84336773Y-55179794D01*
X84243947Y-55403895D01*
X84181161Y-55638214D01*
X84149500Y-55878711D01*
X76921671Y-55878711D01*
X76941232Y-55851788D01*
X77019873Y-55697445D01*
X77073402Y-55532701D01*
X77100500Y-55361611D01*
X77100500Y-54638389D01*
X77073402Y-54467299D01*
X77019873Y-54302555D01*
X76941232Y-54148212D01*
X76839414Y-54008072D01*
X76716928Y-53885586D01*
X76576788Y-53783768D01*
X76422445Y-53705127D01*
X76257701Y-53651598D01*
X76257699Y-53651597D01*
X76257698Y-53651597D01*
X76126271Y-53630781D01*
X76086611Y-53624500D01*
X75913389Y-53624500D01*
X75873728Y-53630781D01*
X75742302Y-53651597D01*
X75577552Y-53705128D01*
X75423211Y-53783768D01*
X75283073Y-53885585D01*
X75175530Y-53993128D01*
X75114207Y-54026612D01*
X75044515Y-54021628D01*
X74988582Y-53979756D01*
X74982310Y-53970543D01*
X74942712Y-53906344D01*
X74818656Y-53782288D01*
X74693559Y-53705128D01*
X74669336Y-53690187D01*
X74669331Y-53690185D01*
X74667862Y-53689698D01*
X74502797Y-53635001D01*
X74502795Y-53635000D01*
X74400010Y-53624500D01*
X73599998Y-53624500D01*
X73599980Y-53624501D01*
X73497203Y-53635000D01*
X73497200Y-53635001D01*
X73330668Y-53690185D01*
X73330663Y-53690187D01*
X73181342Y-53782289D01*
X73057289Y-53906342D01*
X72965187Y-54055663D01*
X72965186Y-54055666D01*
X72910001Y-54222203D01*
X72910001Y-54222204D01*
X72910000Y-54222204D01*
X72899500Y-54324983D01*
X65027160Y-54324983D01*
X65019873Y-54302555D01*
X64941232Y-54148212D01*
X64839414Y-54008072D01*
X64716928Y-53885586D01*
X64576788Y-53783768D01*
X64422445Y-53705127D01*
X64257701Y-53651598D01*
X64257699Y-53651597D01*
X64257697Y-53651597D01*
X64104602Y-53627349D01*
X64041467Y-53597420D01*
X64004536Y-53538108D01*
X64000000Y-53504876D01*
X64000000Y-51374500D01*
X64019685Y-51307461D01*
X64072489Y-51261706D01*
X64124000Y-51250500D01*
X68452564Y-51250500D01*
X68519603Y-51270185D01*
X68565358Y-51322989D01*
X68571181Y-51341020D01*
X68571694Y-51340865D01*
X68573464Y-51346701D01*
X68633802Y-51492372D01*
X68633809Y-51492385D01*
X68721410Y-51623488D01*
X68721413Y-51623492D01*
X68832907Y-51734986D01*
X68832911Y-51734989D01*
X68964014Y-51822590D01*
X68964027Y-51822597D01*
X69109698Y-51882935D01*
X69109703Y-51882937D01*
X69264353Y-51913699D01*
X69264356Y-51913700D01*
X69264358Y-51913700D01*
X69422044Y-51913700D01*
X69422045Y-51913699D01*
X69576697Y-51882937D01*
X69722379Y-51822594D01*
X69853489Y-51734989D01*
X69964989Y-51623489D01*
X70052594Y-51492379D01*
X70111489Y-51350191D01*
X70155327Y-51295792D01*
X70201856Y-51276030D01*
X70233497Y-51269737D01*
X70379179Y-51209394D01*
X70419027Y-51182768D01*
X70440468Y-51171307D01*
X70455495Y-51165084D01*
X70578416Y-51082951D01*
X70682951Y-50978416D01*
X70765084Y-50855495D01*
X70821658Y-50718913D01*
X70850500Y-50573918D01*
X70850500Y-50426082D01*
X70850500Y-50426079D01*
X70821659Y-50281092D01*
X70821658Y-50281091D01*
X70821658Y-50281087D01*
X70821656Y-50281082D01*
X70765087Y-50144511D01*
X70765080Y-50144498D01*
X70682951Y-50021584D01*
X70682948Y-50021580D01*
X70578418Y-49917050D01*
X70455492Y-49834914D01*
X70444344Y-49830296D01*
X70440461Y-49828688D01*
X70419028Y-49817232D01*
X70399731Y-49804338D01*
X70379186Y-49790610D01*
X70379180Y-49790607D01*
X70379179Y-49790606D01*
X70379176Y-49790605D01*
X70379171Y-49790602D01*
X70233501Y-49730264D01*
X70233489Y-49730261D01*
X70078845Y-49699500D01*
X70078842Y-49699500D01*
X69994658Y-49699500D01*
X69947206Y-49690061D01*
X69918917Y-49678343D01*
X69918907Y-49678340D01*
X69773920Y-49649500D01*
X69773918Y-49649500D01*
X69073918Y-49649500D01*
X68926082Y-49649500D01*
X68926080Y-49649500D01*
X68781092Y-49678340D01*
X68781086Y-49678342D01*
X68730007Y-49699500D01*
X68655739Y-49730263D01*
X68638878Y-49737247D01*
X68638520Y-49736385D01*
X68586160Y-49749500D01*
X64124000Y-49749500D01*
X64056961Y-49729815D01*
X64011206Y-49677011D01*
X64000000Y-49625500D01*
X64000000Y-47921153D01*
X65874500Y-47921153D01*
X65874500Y-48078846D01*
X65905261Y-48233489D01*
X65905264Y-48233501D01*
X65965602Y-48379172D01*
X65965609Y-48379185D01*
X66053210Y-48510288D01*
X66053213Y-48510292D01*
X66164707Y-48621786D01*
X66164711Y-48621789D01*
X66295814Y-48709390D01*
X66295827Y-48709397D01*
X66441498Y-48769735D01*
X66441503Y-48769737D01*
X66596153Y-48800499D01*
X66596156Y-48800500D01*
X66596158Y-48800500D01*
X66753844Y-48800500D01*
X66753845Y-48800499D01*
X66908497Y-48769737D01*
X67054179Y-48709394D01*
X67185289Y-48621789D01*
X67296789Y-48510289D01*
X67384394Y-48379179D01*
X67444737Y-48233497D01*
X67475500Y-48078842D01*
X67475500Y-47921158D01*
X67475500Y-47921155D01*
X67475499Y-47921153D01*
X67447464Y-47780212D01*
X67444737Y-47766503D01*
X67444735Y-47766498D01*
X67384397Y-47620827D01*
X67384390Y-47620814D01*
X67296789Y-47489711D01*
X67296786Y-47489707D01*
X67187694Y-47380615D01*
X67154209Y-47319292D01*
X67159193Y-47249600D01*
X67201065Y-47193667D01*
X67206485Y-47189832D01*
X67263588Y-47151676D01*
X67298889Y-47128089D01*
X67410389Y-47016589D01*
X67497994Y-46885479D01*
X67558337Y-46739797D01*
X67589100Y-46585142D01*
X67589100Y-46427458D01*
X67589100Y-46427455D01*
X67589099Y-46427453D01*
X67558337Y-46272803D01*
X67532839Y-46211245D01*
X67497997Y-46127127D01*
X67497990Y-46127114D01*
X67410389Y-45996011D01*
X67410386Y-45996007D01*
X67298892Y-45884513D01*
X67298888Y-45884510D01*
X67167785Y-45796909D01*
X67167772Y-45796902D01*
X67022101Y-45736564D01*
X67022089Y-45736561D01*
X66867445Y-45705800D01*
X66867442Y-45705800D01*
X66709758Y-45705800D01*
X66709755Y-45705800D01*
X66555110Y-45736561D01*
X66555098Y-45736564D01*
X66409427Y-45796902D01*
X66409414Y-45796909D01*
X66278311Y-45884510D01*
X66278307Y-45884513D01*
X66166813Y-45996007D01*
X66166810Y-45996011D01*
X66079209Y-46127114D01*
X66079202Y-46127127D01*
X66018864Y-46272798D01*
X66018861Y-46272810D01*
X65988100Y-46427453D01*
X65988100Y-46585146D01*
X66018861Y-46739789D01*
X66018864Y-46739801D01*
X66079202Y-46885472D01*
X66079209Y-46885485D01*
X66166810Y-47016588D01*
X66166813Y-47016592D01*
X66275905Y-47125684D01*
X66309390Y-47187007D01*
X66304406Y-47256699D01*
X66262534Y-47312632D01*
X66257116Y-47316467D01*
X66164707Y-47378213D01*
X66053213Y-47489707D01*
X66053210Y-47489711D01*
X65965609Y-47620814D01*
X65965602Y-47620827D01*
X65905264Y-47766498D01*
X65905261Y-47766510D01*
X65874500Y-47921153D01*
X64000000Y-47921153D01*
X64000000Y-41853397D01*
X64019685Y-41786358D01*
X64072489Y-41740603D01*
X64141647Y-41730659D01*
X64205203Y-41759684D01*
X64211681Y-41765716D01*
X69236225Y-46790260D01*
X69269710Y-46851583D01*
X69270161Y-46853749D01*
X69301061Y-47009091D01*
X69301064Y-47009101D01*
X69361402Y-47154772D01*
X69361409Y-47154785D01*
X69449010Y-47285888D01*
X69449013Y-47285892D01*
X69560507Y-47397386D01*
X69560511Y-47397389D01*
X69691614Y-47484990D01*
X69691627Y-47484997D01*
X69837298Y-47545335D01*
X69837303Y-47545337D01*
X69991953Y-47576099D01*
X69991956Y-47576100D01*
X69991958Y-47576100D01*
X70149644Y-47576100D01*
X70149645Y-47576099D01*
X70304297Y-47545337D01*
X70449979Y-47484994D01*
X70581089Y-47397389D01*
X70692589Y-47285889D01*
X70780194Y-47154779D01*
X70840537Y-47009097D01*
X70871300Y-46854442D01*
X70871300Y-46838711D01*
X82649500Y-46838711D01*
X82649500Y-47081288D01*
X82681161Y-47321785D01*
X82743947Y-47556104D01*
X82831100Y-47766510D01*
X82836776Y-47780212D01*
X82958064Y-47990289D01*
X82958066Y-47990292D01*
X82958067Y-47990293D01*
X83105733Y-48182736D01*
X83105739Y-48182743D01*
X83277256Y-48354260D01*
X83277263Y-48354266D01*
X83309738Y-48379185D01*
X83469711Y-48501936D01*
X83679788Y-48623224D01*
X83875269Y-48704195D01*
X83887828Y-48709397D01*
X83903900Y-48716054D01*
X84138211Y-48778838D01*
X84302746Y-48800499D01*
X84378711Y-48810500D01*
X84378712Y-48810500D01*
X84621289Y-48810500D01*
X84669388Y-48804167D01*
X84861789Y-48778838D01*
X85096100Y-48716054D01*
X85320212Y-48623224D01*
X85530289Y-48501936D01*
X85722738Y-48354265D01*
X85894265Y-48182738D01*
X86041936Y-47990289D01*
X86163224Y-47780212D01*
X86256054Y-47556100D01*
X86318838Y-47321789D01*
X86350500Y-47081288D01*
X86350500Y-46838712D01*
X86318838Y-46598211D01*
X86256054Y-46363900D01*
X86163224Y-46139788D01*
X86041936Y-45929711D01*
X85894265Y-45737262D01*
X85894260Y-45737256D01*
X85722743Y-45565739D01*
X85722736Y-45565733D01*
X85530293Y-45418067D01*
X85530292Y-45418066D01*
X85530289Y-45418064D01*
X85320212Y-45296776D01*
X85260289Y-45271955D01*
X85096104Y-45203947D01*
X84861785Y-45141161D01*
X84621289Y-45109500D01*
X84621288Y-45109500D01*
X84378712Y-45109500D01*
X84378711Y-45109500D01*
X84138214Y-45141161D01*
X83903895Y-45203947D01*
X83679794Y-45296773D01*
X83679785Y-45296777D01*
X83469706Y-45418067D01*
X83277263Y-45565733D01*
X83277256Y-45565739D01*
X83105739Y-45737256D01*
X83105733Y-45737263D01*
X82958067Y-45929706D01*
X82836777Y-46139785D01*
X82836773Y-46139794D01*
X82743947Y-46363895D01*
X82681161Y-46598214D01*
X82649500Y-46838711D01*
X70871300Y-46838711D01*
X70871300Y-46696758D01*
X70871300Y-46696755D01*
X70871299Y-46696753D01*
X70851698Y-46598214D01*
X70840537Y-46542103D01*
X70793048Y-46427453D01*
X70780197Y-46396427D01*
X70780193Y-46396420D01*
X70779046Y-46394703D01*
X70778721Y-46393665D01*
X70777321Y-46391046D01*
X70777817Y-46390780D01*
X70758168Y-46328025D01*
X70776652Y-46260645D01*
X70828631Y-46213954D01*
X70834650Y-46211269D01*
X70839179Y-46209394D01*
X70970289Y-46121789D01*
X71081789Y-46010289D01*
X71169394Y-45879179D01*
X71229737Y-45733497D01*
X71260500Y-45578842D01*
X71260500Y-45421158D01*
X71260500Y-45421155D01*
X71260499Y-45421153D01*
X71249270Y-45364701D01*
X71229737Y-45266503D01*
X71203826Y-45203947D01*
X71169397Y-45120827D01*
X71169390Y-45120814D01*
X71081789Y-44989711D01*
X71081786Y-44989707D01*
X70970292Y-44878213D01*
X70970288Y-44878210D01*
X70839185Y-44790609D01*
X70839172Y-44790602D01*
X70693501Y-44730264D01*
X70693489Y-44730261D01*
X70538845Y-44699500D01*
X70538842Y-44699500D01*
X70381158Y-44699500D01*
X70381155Y-44699500D01*
X70226510Y-44730261D01*
X70226498Y-44730264D01*
X70080827Y-44790602D01*
X70080814Y-44790609D01*
X69949711Y-44878210D01*
X69949707Y-44878213D01*
X69838213Y-44989707D01*
X69838210Y-44989711D01*
X69750609Y-45120814D01*
X69750602Y-45120827D01*
X69690264Y-45266498D01*
X69690261Y-45266510D01*
X69689178Y-45271955D01*
X69656793Y-45333866D01*
X69596077Y-45368441D01*
X69526308Y-45364701D01*
X69479880Y-45335445D01*
X64036319Y-39891884D01*
X64002834Y-39830561D01*
X64000000Y-39804203D01*
X64000000Y-25999500D01*
X64019685Y-25932461D01*
X64072489Y-25886706D01*
X64124000Y-25875500D01*
X65738252Y-25875500D01*
X65805291Y-25895185D01*
X65851046Y-25947989D01*
X65860990Y-26017147D01*
X65841354Y-26068391D01*
X65828709Y-26087314D01*
X65828702Y-26087327D01*
X65768364Y-26232998D01*
X65768361Y-26233010D01*
X65737600Y-26387653D01*
X65737600Y-26545346D01*
X65768361Y-26699989D01*
X65768364Y-26700001D01*
X65828702Y-26845672D01*
X65828709Y-26845685D01*
X65916310Y-26976788D01*
X65916313Y-26976792D01*
X66027807Y-27088286D01*
X66027811Y-27088289D01*
X66158914Y-27175890D01*
X66158927Y-27175897D01*
X66304598Y-27236235D01*
X66304603Y-27236237D01*
X66385893Y-27252406D01*
X66447802Y-27284790D01*
X66482376Y-27345505D01*
X66485700Y-27374023D01*
X66485700Y-29919149D01*
X66466015Y-29986188D01*
X66413211Y-30031943D01*
X66344053Y-30041887D01*
X66314248Y-30033711D01*
X66309980Y-30031943D01*
X66233497Y-30000263D01*
X66233494Y-30000262D01*
X66233491Y-30000261D01*
X66078845Y-29969500D01*
X66078842Y-29969500D01*
X65921158Y-29969500D01*
X65921155Y-29969500D01*
X65766510Y-30000261D01*
X65766498Y-30000264D01*
X65620827Y-30060602D01*
X65620814Y-30060609D01*
X65489711Y-30148210D01*
X65489707Y-30148213D01*
X65378213Y-30259707D01*
X65378210Y-30259711D01*
X65290609Y-30390814D01*
X65290602Y-30390827D01*
X65230264Y-30536498D01*
X65230261Y-30536510D01*
X65199500Y-30691153D01*
X65199500Y-30848846D01*
X65230261Y-31003489D01*
X65230264Y-31003501D01*
X65290602Y-31149172D01*
X65290609Y-31149185D01*
X65378210Y-31280288D01*
X65378213Y-31280292D01*
X65489707Y-31391786D01*
X65489711Y-31391789D01*
X65620814Y-31479390D01*
X65620827Y-31479397D01*
X65743225Y-31530095D01*
X65766503Y-31539737D01*
X65921153Y-31570499D01*
X65921156Y-31570500D01*
X65921158Y-31570500D01*
X66078844Y-31570500D01*
X66078845Y-31570499D01*
X66233497Y-31539737D01*
X66314248Y-31506288D01*
X66383717Y-31498820D01*
X66446196Y-31530095D01*
X66481848Y-31590184D01*
X66485700Y-31620850D01*
X66485700Y-38251934D01*
X66466015Y-38318973D01*
X66464802Y-38320825D01*
X66376809Y-38452514D01*
X66376802Y-38452527D01*
X66316464Y-38598198D01*
X66316461Y-38598210D01*
X66285700Y-38752853D01*
X66285700Y-38910546D01*
X66316461Y-39065189D01*
X66316464Y-39065201D01*
X66376802Y-39210872D01*
X66376809Y-39210885D01*
X66464410Y-39341988D01*
X66464413Y-39341992D01*
X66575907Y-39453486D01*
X66575911Y-39453489D01*
X66707014Y-39541090D01*
X66707027Y-39541097D01*
X66852698Y-39601435D01*
X66852703Y-39601437D01*
X67007353Y-39632199D01*
X67007356Y-39632200D01*
X67007358Y-39632200D01*
X67165044Y-39632200D01*
X67165045Y-39632199D01*
X67319697Y-39601437D01*
X67465379Y-39541094D01*
X67596489Y-39453489D01*
X67707989Y-39341989D01*
X67795594Y-39210879D01*
X67855937Y-39065197D01*
X67886700Y-38910542D01*
X67886700Y-38752858D01*
X67886700Y-38752855D01*
X67886699Y-38752853D01*
X67855938Y-38598210D01*
X67855937Y-38598203D01*
X67855935Y-38598198D01*
X67795597Y-38452527D01*
X67795590Y-38452514D01*
X67707598Y-38320825D01*
X67686720Y-38254147D01*
X67686700Y-38251934D01*
X67686700Y-32904957D01*
X67706385Y-32837918D01*
X67759189Y-32792163D01*
X67828347Y-32782219D01*
X67834867Y-32783335D01*
X67902251Y-32796739D01*
X67921157Y-32800500D01*
X67921158Y-32800500D01*
X68078844Y-32800500D01*
X68078845Y-32800499D01*
X68233497Y-32769737D01*
X68379179Y-32709394D01*
X68510289Y-32621789D01*
X68621789Y-32510289D01*
X68709394Y-32379179D01*
X68769737Y-32233497D01*
X68800500Y-32078842D01*
X68800500Y-31921158D01*
X68800500Y-31921155D01*
X68800499Y-31921153D01*
X68769738Y-31766510D01*
X68769737Y-31766503D01*
X68769735Y-31766498D01*
X68709397Y-31620827D01*
X68709390Y-31620814D01*
X68621789Y-31489711D01*
X68621786Y-31489707D01*
X68510292Y-31378213D01*
X68510288Y-31378210D01*
X68379185Y-31290609D01*
X68379172Y-31290602D01*
X68233501Y-31230264D01*
X68233489Y-31230261D01*
X68078845Y-31199500D01*
X68078842Y-31199500D01*
X67921158Y-31199500D01*
X67921155Y-31199500D01*
X67834891Y-31216659D01*
X67765300Y-31210432D01*
X67710122Y-31167569D01*
X67686878Y-31101679D01*
X67686700Y-31095042D01*
X67686700Y-27858197D01*
X67706385Y-27791158D01*
X67759189Y-27745403D01*
X67828347Y-27735459D01*
X67891903Y-27764484D01*
X67898381Y-27770516D01*
X72492239Y-32364374D01*
X72492249Y-32364385D01*
X72496579Y-32368715D01*
X72496580Y-32368716D01*
X72608384Y-32480520D01*
X72659945Y-32510288D01*
X72695195Y-32530639D01*
X72695197Y-32530641D01*
X72745313Y-32559576D01*
X72745315Y-32559577D01*
X72898042Y-32600500D01*
X72898043Y-32600500D01*
X84525501Y-32600500D01*
X84592540Y-32620185D01*
X84638295Y-32672989D01*
X84649501Y-32724500D01*
X84649501Y-32897876D01*
X84655908Y-32957483D01*
X84706202Y-33092328D01*
X84706206Y-33092335D01*
X84792452Y-33207544D01*
X84792455Y-33207547D01*
X84907664Y-33293793D01*
X84907671Y-33293797D01*
X85039082Y-33342810D01*
X85095016Y-33384681D01*
X85119433Y-33450145D01*
X85104582Y-33518418D01*
X85083431Y-33546673D01*
X84969889Y-33660215D01*
X84844951Y-33832179D01*
X84748444Y-34021585D01*
X84682753Y-34223760D01*
X84648738Y-34438525D01*
X84647684Y-34438358D01*
X84624621Y-34498850D01*
X84613576Y-34511503D01*
X84066667Y-35058412D01*
X83785121Y-35339958D01*
X83785118Y-35339961D01*
X83715438Y-35409640D01*
X83645759Y-35479319D01*
X83536271Y-35643179D01*
X83536266Y-35643189D01*
X83482938Y-35771935D01*
X83460850Y-35825259D01*
X83460848Y-35825267D01*
X83447873Y-35890499D01*
X83447873Y-35890500D01*
X83422400Y-36018556D01*
X83422400Y-41030125D01*
X83402715Y-41097164D01*
X83349911Y-41142919D01*
X83311003Y-41153483D01*
X83247204Y-41160000D01*
X83247203Y-41160001D01*
X83080664Y-41215186D01*
X83080662Y-41215187D01*
X82931348Y-41307286D01*
X82931344Y-41307289D01*
X82807289Y-41431344D01*
X82807286Y-41431348D01*
X82715187Y-41580662D01*
X82715186Y-41580664D01*
X82660001Y-41747203D01*
X82660000Y-41747204D01*
X82649500Y-41849984D01*
X82649500Y-44150015D01*
X82660000Y-44252795D01*
X82660001Y-44252796D01*
X82715186Y-44419335D01*
X82715187Y-44419337D01*
X82807286Y-44568651D01*
X82807289Y-44568655D01*
X82931344Y-44692710D01*
X82931348Y-44692713D01*
X83080662Y-44784812D01*
X83080664Y-44784813D01*
X83080666Y-44784814D01*
X83247203Y-44839999D01*
X83349992Y-44850500D01*
X83349997Y-44850500D01*
X85650003Y-44850500D01*
X85650008Y-44850500D01*
X85752797Y-44839999D01*
X85919334Y-44784814D01*
X86068655Y-44692711D01*
X86192711Y-44568655D01*
X86284814Y-44419334D01*
X86339999Y-44252797D01*
X86350500Y-44150008D01*
X86350500Y-41849992D01*
X86339999Y-41747203D01*
X86284814Y-41580666D01*
X86192711Y-41431345D01*
X86068655Y-41307289D01*
X86068651Y-41307286D01*
X85919337Y-41215187D01*
X85919335Y-41215186D01*
X85836065Y-41187593D01*
X85752797Y-41160001D01*
X85752795Y-41160000D01*
X85650015Y-41149500D01*
X85650008Y-41149500D01*
X85547400Y-41149500D01*
X85480361Y-41129815D01*
X85434606Y-41077011D01*
X85423400Y-41025500D01*
X85423400Y-38482796D01*
X85443085Y-38415757D01*
X85495889Y-38370002D01*
X85565047Y-38360058D01*
X85585719Y-38364865D01*
X85683873Y-38396758D01*
X85893754Y-38430000D01*
X86106246Y-38430000D01*
X86316127Y-38396757D01*
X86316130Y-38396757D01*
X86518217Y-38331095D01*
X86707554Y-38234622D01*
X86761716Y-38195270D01*
X86761717Y-38195270D01*
X86129409Y-37562962D01*
X86192993Y-37545925D01*
X86307007Y-37480099D01*
X86400099Y-37387007D01*
X86465925Y-37272993D01*
X86482962Y-37209408D01*
X87115270Y-37841717D01*
X87115270Y-37841716D01*
X87154622Y-37787554D01*
X87251095Y-37598217D01*
X87316757Y-37396130D01*
X87316757Y-37396127D01*
X87350000Y-37186246D01*
X87350000Y-36973753D01*
X87316757Y-36763872D01*
X87316757Y-36763869D01*
X87251095Y-36561782D01*
X87154624Y-36372449D01*
X87115270Y-36318282D01*
X87115269Y-36318282D01*
X86482962Y-36950590D01*
X86465925Y-36887007D01*
X86400099Y-36772993D01*
X86307007Y-36679901D01*
X86192993Y-36614075D01*
X86129407Y-36597036D01*
X86761716Y-35964728D01*
X86707547Y-35925373D01*
X86707547Y-35925372D01*
X86698500Y-35920763D01*
X86647706Y-35872788D01*
X86630912Y-35804966D01*
X86653451Y-35738832D01*
X86698508Y-35699793D01*
X86707816Y-35695051D01*
X86787007Y-35637515D01*
X86879786Y-35570109D01*
X86879788Y-35570106D01*
X86879792Y-35570104D01*
X87030104Y-35419792D01*
X87030106Y-35419788D01*
X87030109Y-35419786D01*
X87155048Y-35247820D01*
X87155047Y-35247820D01*
X87155051Y-35247816D01*
X87251557Y-35058412D01*
X87317246Y-34856243D01*
X87317246Y-34856242D01*
X87318752Y-34851608D01*
X87320062Y-34852033D01*
X87349798Y-34798920D01*
X88213578Y-33935141D01*
X88213582Y-33935139D01*
X88352939Y-33795782D01*
X88462432Y-33631914D01*
X88537851Y-33449835D01*
X88559140Y-33342810D01*
X88576300Y-33256543D01*
X88576300Y-27017256D01*
X88537852Y-26823970D01*
X88537851Y-26823969D01*
X88537851Y-26823965D01*
X88486504Y-26700001D01*
X88462435Y-26641892D01*
X88462428Y-26641879D01*
X88352940Y-26478019D01*
X88294707Y-26419786D01*
X88213582Y-26338661D01*
X88213581Y-26338660D01*
X87386423Y-25511502D01*
X87352938Y-25450179D01*
X87350655Y-25434697D01*
X87350500Y-25433718D01*
X87350500Y-25433713D01*
X87317246Y-25223757D01*
X87251557Y-25021588D01*
X87155051Y-24832184D01*
X87155049Y-24832181D01*
X87155048Y-24832179D01*
X87030109Y-24660213D01*
X86916569Y-24546673D01*
X86883084Y-24485350D01*
X86888068Y-24415658D01*
X86929940Y-24359725D01*
X86960915Y-24342810D01*
X87092331Y-24293796D01*
X87207546Y-24207546D01*
X87293796Y-24092331D01*
X87344091Y-23957483D01*
X87350500Y-23897873D01*
X87350499Y-22102128D01*
X87344091Y-22042517D01*
X87321874Y-21982951D01*
X87293797Y-21907671D01*
X87293793Y-21907664D01*
X87207547Y-21792455D01*
X87207544Y-21792452D01*
X87092335Y-21706206D01*
X87092328Y-21706202D01*
X86957482Y-21655908D01*
X86957483Y-21655908D01*
X86897883Y-21649501D01*
X86897881Y-21649500D01*
X86897873Y-21649500D01*
X86897864Y-21649500D01*
X85102129Y-21649500D01*
X85102123Y-21649501D01*
X85042516Y-21655908D01*
X84907671Y-21706202D01*
X84907664Y-21706206D01*
X84792455Y-21792452D01*
X84792452Y-21792455D01*
X84706206Y-21907664D01*
X84706202Y-21907671D01*
X84655908Y-22042517D01*
X84653482Y-22065087D01*
X84649501Y-22102123D01*
X84649500Y-22102135D01*
X84649500Y-22378655D01*
X84629815Y-22445694D01*
X84587500Y-22486042D01*
X84529587Y-22519477D01*
X84529582Y-22519481D01*
X84462064Y-22587000D01*
X84417780Y-22631284D01*
X84417778Y-22631286D01*
X83730050Y-23319015D01*
X83060884Y-23988181D01*
X82999561Y-24021666D01*
X82973203Y-24024500D01*
X67796561Y-24024500D01*
X67729522Y-24004815D01*
X67683767Y-23952011D01*
X67673823Y-23882853D01*
X67702848Y-23819297D01*
X67727670Y-23797398D01*
X67745268Y-23785638D01*
X67768989Y-23769789D01*
X67880489Y-23658289D01*
X67968094Y-23527179D01*
X68028437Y-23381497D01*
X68059200Y-23226842D01*
X68059200Y-23069158D01*
X68059200Y-23069155D01*
X68059199Y-23069153D01*
X68036395Y-22954510D01*
X68028437Y-22914503D01*
X67984665Y-22808827D01*
X67968097Y-22768827D01*
X67968090Y-22768814D01*
X67880489Y-22637711D01*
X67880486Y-22637707D01*
X67768992Y-22526213D01*
X67768988Y-22526210D01*
X67637885Y-22438609D01*
X67637872Y-22438602D01*
X67492201Y-22378264D01*
X67492189Y-22378261D01*
X67337545Y-22347500D01*
X67337542Y-22347500D01*
X67179858Y-22347500D01*
X67179855Y-22347500D01*
X67025210Y-22378261D01*
X67025198Y-22378264D01*
X66879527Y-22438602D01*
X66879514Y-22438609D01*
X66748411Y-22526210D01*
X66748407Y-22526213D01*
X66636913Y-22637707D01*
X66636910Y-22637711D01*
X66575952Y-22728941D01*
X66522339Y-22773746D01*
X66453014Y-22782453D01*
X66403959Y-22763152D01*
X66276685Y-22678109D01*
X66276672Y-22678102D01*
X66131001Y-22617764D01*
X66130989Y-22617761D01*
X65976345Y-22587000D01*
X65976342Y-22587000D01*
X65818658Y-22587000D01*
X65818655Y-22587000D01*
X65664010Y-22617761D01*
X65663998Y-22617764D01*
X65518327Y-22678102D01*
X65518314Y-22678109D01*
X65387211Y-22765710D01*
X65387207Y-22765713D01*
X65275713Y-22877207D01*
X65275710Y-22877211D01*
X65188109Y-23008314D01*
X65188102Y-23008327D01*
X65127764Y-23153998D01*
X65127761Y-23154010D01*
X65110877Y-23238891D01*
X65078492Y-23300802D01*
X65017776Y-23335377D01*
X64989260Y-23338700D01*
X64589400Y-23338700D01*
X64522361Y-23319015D01*
X64476606Y-23266211D01*
X64465400Y-23214700D01*
X64465400Y-23109155D01*
X64465399Y-23109153D01*
X64445342Y-23008321D01*
X64434637Y-22954503D01*
X64434635Y-22954498D01*
X64374297Y-22808827D01*
X64374290Y-22808814D01*
X64286689Y-22677711D01*
X64286686Y-22677707D01*
X64175192Y-22566213D01*
X64175188Y-22566210D01*
X64055109Y-22485975D01*
X64010304Y-22432362D01*
X64000000Y-22382873D01*
X64000000Y-22266967D01*
X64019685Y-22199928D01*
X64072489Y-22154173D01*
X64099809Y-22145350D01*
X64125831Y-22140173D01*
X64218913Y-22121658D01*
X64355495Y-22065084D01*
X64478416Y-21982951D01*
X64582951Y-21878416D01*
X64665084Y-21755495D01*
X64721658Y-21618913D01*
X64750500Y-21473918D01*
X64750500Y-21326082D01*
X64750500Y-21326079D01*
X64721659Y-21181092D01*
X64721658Y-21181091D01*
X64721658Y-21181087D01*
X64665084Y-21044505D01*
X64660134Y-21037097D01*
X64648679Y-21015664D01*
X64609397Y-20920827D01*
X64609390Y-20920814D01*
X64521789Y-20789711D01*
X64521786Y-20789707D01*
X64410292Y-20678213D01*
X64410288Y-20678210D01*
X64279185Y-20590609D01*
X64279172Y-20590602D01*
X64133501Y-20530264D01*
X64133492Y-20530261D01*
X64099807Y-20523561D01*
X64037897Y-20491175D01*
X64003323Y-20430459D01*
X64000000Y-20401944D01*
X64000000Y-15499984D01*
X81599500Y-15499984D01*
X81599500Y-17500015D01*
X81610000Y-17602795D01*
X81610001Y-17602796D01*
X81665186Y-17769335D01*
X81665187Y-17769337D01*
X81757286Y-17918651D01*
X81757289Y-17918655D01*
X81881344Y-18042710D01*
X81881348Y-18042713D01*
X82030662Y-18134812D01*
X82030664Y-18134813D01*
X82030666Y-18134814D01*
X82197203Y-18189999D01*
X82299992Y-18200500D01*
X82299997Y-18200500D01*
X84300003Y-18200500D01*
X84300008Y-18200500D01*
X84402797Y-18189999D01*
X84569334Y-18134814D01*
X84718655Y-18042711D01*
X84842711Y-17918655D01*
X84934814Y-17769334D01*
X84989999Y-17602797D01*
X85000500Y-17500008D01*
X85000500Y-15499992D01*
X84989999Y-15397203D01*
X84934814Y-15230666D01*
X84842711Y-15081345D01*
X84718655Y-14957289D01*
X84718651Y-14957286D01*
X84569337Y-14865187D01*
X84569335Y-14865186D01*
X84486065Y-14837593D01*
X84402797Y-14810001D01*
X84402795Y-14810000D01*
X84300015Y-14799500D01*
X84300008Y-14799500D01*
X82299992Y-14799500D01*
X82299984Y-14799500D01*
X82197204Y-14810000D01*
X82197203Y-14810001D01*
X82030664Y-14865186D01*
X82030662Y-14865187D01*
X81881348Y-14957286D01*
X81881344Y-14957289D01*
X81757289Y-15081344D01*
X81757286Y-15081348D01*
X81665187Y-15230662D01*
X81665186Y-15230664D01*
X81610001Y-15397203D01*
X81610000Y-15397204D01*
X81599500Y-15499984D01*
X64000000Y-15499984D01*
X64000000Y-11308575D01*
X81600000Y-11308575D01*
X81600000Y-11531424D01*
X81629085Y-11752354D01*
X81629088Y-11752367D01*
X81686763Y-11967618D01*
X81772045Y-12173502D01*
X81772054Y-12173520D01*
X81883464Y-12366491D01*
X81883473Y-12366504D01*
X81934040Y-12432403D01*
X81934043Y-12432403D01*
X82584152Y-11782293D01*
X82591049Y-11798942D01*
X82678599Y-11929970D01*
X82790030Y-12041401D01*
X82921058Y-12128951D01*
X82937705Y-12135846D01*
X82287595Y-12785955D01*
X82287595Y-12785956D01*
X82353507Y-12836533D01*
X82546485Y-12947949D01*
X82546497Y-12947954D01*
X82752381Y-13033236D01*
X82967632Y-13090911D01*
X82967645Y-13090914D01*
X83188575Y-13120000D01*
X83411425Y-13120000D01*
X83632354Y-13090914D01*
X83632367Y-13090911D01*
X83847618Y-13033236D01*
X84053502Y-12947954D01*
X84053514Y-12947949D01*
X84246498Y-12836530D01*
X84312403Y-12785957D01*
X84312404Y-12785956D01*
X83662294Y-12135846D01*
X83678942Y-12128951D01*
X83809970Y-12041401D01*
X83921401Y-11929970D01*
X84008951Y-11798942D01*
X84015846Y-11782294D01*
X84665956Y-12432404D01*
X84665957Y-12432403D01*
X84716530Y-12366498D01*
X84827949Y-12173514D01*
X84827954Y-12173502D01*
X84913236Y-11967618D01*
X84970911Y-11752367D01*
X84970914Y-11752354D01*
X85000000Y-11531424D01*
X85000000Y-11308575D01*
X84970914Y-11087645D01*
X84970911Y-11087632D01*
X84913236Y-10872381D01*
X84827954Y-10666497D01*
X84827949Y-10666485D01*
X84716533Y-10473507D01*
X84665956Y-10407595D01*
X84665955Y-10407595D01*
X84015846Y-11057704D01*
X84008951Y-11041058D01*
X83921401Y-10910030D01*
X83809970Y-10798599D01*
X83678942Y-10711049D01*
X83662293Y-10704152D01*
X84312403Y-10054043D01*
X84312403Y-10054040D01*
X84246504Y-10003473D01*
X84246491Y-10003464D01*
X84053520Y-9892054D01*
X84053502Y-9892045D01*
X83847618Y-9806763D01*
X83632367Y-9749088D01*
X83632354Y-9749085D01*
X83411425Y-9720000D01*
X83188575Y-9720000D01*
X82967645Y-9749085D01*
X82967632Y-9749088D01*
X82752381Y-9806763D01*
X82546497Y-9892045D01*
X82546479Y-9892054D01*
X82353511Y-10003462D01*
X82287595Y-10054042D01*
X82937706Y-10704152D01*
X82921058Y-10711049D01*
X82790030Y-10798599D01*
X82678599Y-10910030D01*
X82591049Y-11041058D01*
X82584153Y-11057706D01*
X81934042Y-10407595D01*
X81883462Y-10473511D01*
X81772054Y-10666479D01*
X81772045Y-10666497D01*
X81686763Y-10872381D01*
X81629088Y-11087632D01*
X81629085Y-11087645D01*
X81600000Y-11308575D01*
X64000000Y-11308575D01*
X64000000Y-3878711D01*
X84149500Y-3878711D01*
X84149500Y-4121288D01*
X84181161Y-4361785D01*
X84243947Y-4596104D01*
X84336773Y-4820205D01*
X84336776Y-4820212D01*
X84458064Y-5030289D01*
X84458066Y-5030292D01*
X84458067Y-5030293D01*
X84605733Y-5222736D01*
X84605739Y-5222743D01*
X84777256Y-5394260D01*
X84777262Y-5394265D01*
X84969711Y-5541936D01*
X85179788Y-5663224D01*
X85403900Y-5756054D01*
X85638211Y-5818838D01*
X85818586Y-5842584D01*
X85878711Y-5850500D01*
X85878712Y-5850500D01*
X86121289Y-5850500D01*
X86169388Y-5844167D01*
X86361789Y-5818838D01*
X86596100Y-5756054D01*
X86820212Y-5663224D01*
X87030289Y-5541936D01*
X87222738Y-5394265D01*
X87394265Y-5222738D01*
X87541936Y-5030289D01*
X87663224Y-4820212D01*
X87756054Y-4596100D01*
X87818838Y-4361789D01*
X87850500Y-4121288D01*
X87850500Y-3878712D01*
X87818838Y-3638211D01*
X87756054Y-3403900D01*
X87663224Y-3179788D01*
X87541936Y-2969711D01*
X87394265Y-2777262D01*
X87394260Y-2777256D01*
X87222743Y-2605739D01*
X87222736Y-2605733D01*
X87030293Y-2458067D01*
X87030292Y-2458066D01*
X87030289Y-2458064D01*
X86820212Y-2336776D01*
X86820205Y-2336773D01*
X86596104Y-2243947D01*
X86478944Y-2212554D01*
X86361789Y-2181162D01*
X86361788Y-2181161D01*
X86361785Y-2181161D01*
X86121289Y-2149500D01*
X86121288Y-2149500D01*
X85878712Y-2149500D01*
X85878711Y-2149500D01*
X85638214Y-2181161D01*
X85403895Y-2243947D01*
X85179794Y-2336773D01*
X85179785Y-2336777D01*
X84969706Y-2458067D01*
X84777263Y-2605733D01*
X84777256Y-2605739D01*
X84605739Y-2777256D01*
X84605733Y-2777263D01*
X84458067Y-2969706D01*
X84336777Y-3179785D01*
X84336773Y-3179794D01*
X84243947Y-3403895D01*
X84181161Y-3638214D01*
X84149500Y-3878711D01*
X64000000Y-3878711D01*
X64000000Y-424500D01*
X64019685Y-357461D01*
X64072489Y-311706D01*
X64124000Y-300500D01*
X89575500Y-300500D01*
X89642539Y-320185D01*
G37*
%TD.AperFunction*%
%TA.AperFunction,Conductor*%
G36*
X84714196Y-24135851D02*
G01*
X84770127Y-24177722D01*
X84792453Y-24207544D01*
X84792454Y-24207546D01*
X84792455Y-24207547D01*
X84907664Y-24293793D01*
X84907671Y-24293797D01*
X85039082Y-24342810D01*
X85095016Y-24384681D01*
X85119433Y-24450145D01*
X85104582Y-24518418D01*
X85083431Y-24546673D01*
X84969889Y-24660215D01*
X84844951Y-24832179D01*
X84748444Y-25021585D01*
X84682753Y-25223760D01*
X84664052Y-25341837D01*
X84649500Y-25433713D01*
X84649500Y-25646287D01*
X84682754Y-25856243D01*
X84729301Y-25999500D01*
X84748444Y-26058414D01*
X84844951Y-26247820D01*
X84969890Y-26419786D01*
X85120213Y-26570109D01*
X85292179Y-26695048D01*
X85292181Y-26695049D01*
X85292184Y-26695051D01*
X85301493Y-26699794D01*
X85352290Y-26747766D01*
X85369087Y-26815587D01*
X85346552Y-26881722D01*
X85301505Y-26920760D01*
X85292446Y-26925376D01*
X85292440Y-26925380D01*
X85238282Y-26964727D01*
X85238282Y-26964728D01*
X85870591Y-27597037D01*
X85807007Y-27614075D01*
X85692993Y-27679901D01*
X85599901Y-27772993D01*
X85534075Y-27887007D01*
X85517037Y-27950591D01*
X84884728Y-27318282D01*
X84884727Y-27318282D01*
X84845380Y-27372439D01*
X84748904Y-27561782D01*
X84683242Y-27763869D01*
X84683242Y-27763872D01*
X84650000Y-27973753D01*
X84650000Y-28186246D01*
X84683242Y-28396127D01*
X84683242Y-28396130D01*
X84748904Y-28598217D01*
X84845375Y-28787550D01*
X84884728Y-28841716D01*
X85517037Y-28209408D01*
X85534075Y-28272993D01*
X85599901Y-28387007D01*
X85692993Y-28480099D01*
X85807007Y-28545925D01*
X85870589Y-28562962D01*
X85238282Y-29195269D01*
X85238282Y-29195270D01*
X85292449Y-29234624D01*
X85481782Y-29331095D01*
X85683870Y-29396757D01*
X85893754Y-29430000D01*
X86106246Y-29430000D01*
X86316126Y-29396758D01*
X86412981Y-29365287D01*
X86482822Y-29363291D01*
X86542655Y-29399371D01*
X86573484Y-29462072D01*
X86575300Y-29483218D01*
X86575300Y-30525500D01*
X86555615Y-30592539D01*
X86502811Y-30638294D01*
X86451300Y-30649500D01*
X85102129Y-30649500D01*
X85102123Y-30649501D01*
X85042516Y-30655908D01*
X84907671Y-30706202D01*
X84907664Y-30706206D01*
X84792455Y-30792452D01*
X84792452Y-30792455D01*
X84706206Y-30907664D01*
X84706202Y-30907671D01*
X84655908Y-31042517D01*
X84649501Y-31102116D01*
X84649500Y-31102135D01*
X84649500Y-31275500D01*
X84629815Y-31342539D01*
X84577011Y-31388294D01*
X84525500Y-31399500D01*
X73277197Y-31399500D01*
X73210158Y-31379815D01*
X73189516Y-31363181D01*
X67263516Y-25437181D01*
X67230031Y-25375858D01*
X67235015Y-25306166D01*
X67276887Y-25250233D01*
X67342351Y-25225816D01*
X67351197Y-25225500D01*
X83186631Y-25225500D01*
X83186647Y-25225501D01*
X83194243Y-25225501D01*
X83352354Y-25225501D01*
X83352357Y-25225501D01*
X83505085Y-25184577D01*
X83555204Y-25155639D01*
X83642016Y-25105520D01*
X83753820Y-24993716D01*
X83753820Y-24993714D01*
X83764028Y-24983507D01*
X83764030Y-24983504D01*
X84583183Y-24164350D01*
X84644504Y-24130867D01*
X84714196Y-24135851D01*
G37*
%TD.AperFunction*%
%TD*%
M02*
