%TF.GenerationSoftware,KiCad,Pcbnew,10.0.6*%
%TF.CreationDate,2026-09-14T07:10:18-07:00*%
%TF.ProjectId,plush-toy-mainboard,706c7573-682d-4746-9f79-2d6d61696e62,rev?*%
%TF.SameCoordinates,Original*%
%TF.FileFunction,Legend,Top*%
%TF.FilePolarity,Positive*%
%FSLAX46Y46*%
G04 Gerber Fmt 4.6, Leading zero omitted, Abs format (unit mm)*
G04 Created by KiCad (PCBNEW 10.0.6) date 2026-09-14 07:10:18*
%MOMM*%
%LPD*%
G01*
G04 APERTURE LIST*
G04 Aperture macros list*
%AMRoundRect*
0 Rectangle with rounded corners*
0 $1 Rounding radius*
0 $2 $3 $4 $5 $6 $7 $8 $9 X,Y pos of 4 corners*
0 Add a 4 corners polygon primitive as box body*
4,1,4,$2,$3,$4,$5,$6,$7,$8,$9,$2,$3,0*
0 Add four circle primitives for the rounded corners*
1,1,$1+$1,$2,$3*
1,1,$1+$1,$4,$5*
1,1,$1+$1,$6,$7*
1,1,$1+$1,$8,$9*
0 Add four rect primitives between the rounded corners*
20,1,$1+$1,$2,$3,$4,$5,0*
20,1,$1+$1,$4,$5,$6,$7,0*
20,1,$1+$1,$6,$7,$8,$9,0*
20,1,$1+$1,$8,$9,$2,$3,0*%
%AMFreePoly0*
4,1,14,0.354215,0.088284,0.450784,-0.008285,0.462500,-0.036569,0.462500,-0.060000,0.450784,-0.088284,0.422500,-0.100000,-0.422500,-0.100000,-0.450784,-0.088284,-0.462500,-0.060000,-0.462500,0.060000,-0.450784,0.088284,-0.422500,0.100000,0.325931,0.100000,0.354215,0.088284,0.354215,0.088284,$1*%
%AMFreePoly1*
4,1,14,0.450784,0.088284,0.462500,0.060000,0.462500,0.036569,0.450784,0.008285,0.354215,-0.088284,0.325931,-0.100000,-0.422500,-0.100000,-0.450784,-0.088284,-0.462500,-0.060000,-0.462500,0.060000,-0.450784,0.088284,-0.422500,0.100000,0.422500,0.100000,0.450784,0.088284,0.450784,0.088284,$1*%
%AMFreePoly2*
4,1,14,0.088284,0.450784,0.100000,0.422500,0.100000,-0.422500,0.088284,-0.450784,0.060000,-0.462500,-0.060000,-0.462500,-0.088284,-0.450784,-0.100000,-0.422500,-0.100000,0.325931,-0.088284,0.354215,0.008285,0.450784,0.036569,0.462500,0.060000,0.462500,0.088284,0.450784,0.088284,0.450784,$1*%
%AMFreePoly3*
4,1,14,-0.008285,0.450784,0.088284,0.354215,0.100000,0.325931,0.100000,-0.422500,0.088284,-0.450784,0.060000,-0.462500,-0.060000,-0.462500,-0.088284,-0.450784,-0.100000,-0.422500,-0.100000,0.422500,-0.088284,0.450784,-0.060000,0.462500,-0.036569,0.462500,-0.008285,0.450784,-0.008285,0.450784,$1*%
%AMFreePoly4*
4,1,14,0.450784,0.088284,0.462500,0.060000,0.462500,-0.060000,0.450784,-0.088284,0.422500,-0.100000,-0.325931,-0.100000,-0.354215,-0.088284,-0.450784,0.008285,-0.462500,0.036569,-0.462500,0.060000,-0.450784,0.088284,-0.422500,0.100000,0.422500,0.100000,0.450784,0.088284,0.450784,0.088284,$1*%
%AMFreePoly5*
4,1,14,0.450784,0.088284,0.462500,0.060000,0.462500,-0.060000,0.450784,-0.088284,0.422500,-0.100000,-0.422500,-0.100000,-0.450784,-0.088284,-0.462500,-0.060000,-0.462500,-0.036569,-0.450784,-0.008285,-0.354215,0.088284,-0.325931,0.100000,0.422500,0.100000,0.450784,0.088284,0.450784,0.088284,$1*%
%AMFreePoly6*
4,1,14,0.088284,0.450784,0.100000,0.422500,0.100000,-0.325931,0.088284,-0.354215,-0.008285,-0.450784,-0.036569,-0.462500,-0.060000,-0.462500,-0.088284,-0.450784,-0.100000,-0.422500,-0.100000,0.422500,-0.088284,0.450784,-0.060000,0.462500,0.060000,0.462500,0.088284,0.450784,0.088284,0.450784,$1*%
%AMFreePoly7*
4,1,14,0.088284,0.450784,0.100000,0.422500,0.100000,-0.422500,0.088284,-0.450784,0.060000,-0.462500,0.036569,-0.462500,0.008285,-0.450784,-0.088284,-0.354215,-0.100000,-0.325931,-0.100000,0.422500,-0.088284,0.450784,-0.060000,0.462500,0.060000,0.462500,0.088284,0.450784,0.088284,0.450784,$1*%
%AMFreePoly8*
4,1,64,-0.403578,0.746413,-0.262311,0.687899,-0.135173,0.602948,-0.027052,0.494827,0.057899,0.367689,0.116413,0.226422,0.146244,0.076453,0.146244,0.031373,0.147118,0.029264,0.147118,-0.029264,0.146244,-0.031373,0.146244,-0.076453,0.116413,-0.226422,0.057899,-0.367689,-0.027052,-0.494827,-0.135173,-0.602948,-0.262311,-0.687899,-0.403578,-0.746413,-0.553547,-0.776244,-0.706453,-0.776244,
-0.856422,-0.746413,-0.997689,-0.687899,-1.124827,-0.602948,-1.232948,-0.494827,-1.317899,-0.367689,-1.376413,-0.226422,-1.406244,-0.076453,-1.406244,0.063193,-1.110000,0.063193,-1.110000,-0.063193,-1.077289,-0.185273,-1.014096,-0.294727,-0.924727,-0.384096,-0.815273,-0.447289,-0.693193,-0.480000,-0.566807,-0.480000,-0.444727,-0.447289,-0.335273,-0.384096,-0.245904,-0.294727,-0.182711,-0.185273,
-0.150000,-0.063193,-0.150000,0.063193,-0.182711,0.185273,-0.245904,0.294727,-0.335273,0.384096,-0.444727,0.447289,-0.566807,0.480000,-0.693193,0.480000,-0.815273,0.447289,-0.924727,0.384096,-1.014096,0.294727,-1.077289,0.185273,-1.110000,0.063193,-1.406244,0.063193,-1.406244,0.076453,-1.376413,0.226422,-1.317899,0.367689,-1.232948,0.494827,-1.124827,0.602948,-0.997689,0.687899,
-0.856422,0.746413,-0.706453,0.776244,-0.553547,0.776244,-0.403578,0.746413,-0.403578,0.746413,$1*%
G04 Aperture macros list end*
%ADD10C,0.150000*%
%ADD11C,0.120000*%
%ADD12C,0.250000*%
%ADD13C,0.060000*%
%ADD14C,0.400000*%
%ADD15C,0.000000*%
%ADD16RoundRect,0.225000X-0.225000X-0.250000X0.225000X-0.250000X0.225000X0.250000X-0.225000X0.250000X0*%
%ADD17RoundRect,0.140000X-0.140000X-0.170000X0.140000X-0.170000X0.140000X0.170000X-0.140000X0.170000X0*%
%ADD18RoundRect,0.150000X-0.512500X-0.150000X0.512500X-0.150000X0.512500X0.150000X-0.512500X0.150000X0*%
%ADD19RoundRect,0.135000X-0.135000X-0.185000X0.135000X-0.185000X0.135000X0.185000X-0.135000X0.185000X0*%
%ADD20R,1.700000X1.700000*%
%ADD21C,1.700000*%
%ADD22C,1.000000*%
%ADD23RoundRect,0.135000X0.185000X-0.135000X0.185000X0.135000X-0.185000X0.135000X-0.185000X-0.135000X0*%
%ADD24RoundRect,0.050000X0.300000X-0.150000X0.300000X0.150000X-0.300000X0.150000X-0.300000X-0.150000X0*%
%ADD25RoundRect,0.140000X0.170000X-0.140000X0.170000X0.140000X-0.170000X0.140000X-0.170000X-0.140000X0*%
%ADD26R,1.000000X0.750000*%
%ADD27RoundRect,0.062500X-0.350000X-0.062500X0.350000X-0.062500X0.350000X0.062500X-0.350000X0.062500X0*%
%ADD28RoundRect,0.062500X-0.062500X-0.350000X0.062500X-0.350000X0.062500X0.350000X-0.062500X0.350000X0*%
%ADD29R,1.230000X1.230000*%
%ADD30R,3.700000X1.100000*%
%ADD31FreePoly0,0.000000*%
%ADD32RoundRect,0.050000X-0.412500X-0.050000X0.412500X-0.050000X0.412500X0.050000X-0.412500X0.050000X0*%
%ADD33FreePoly1,0.000000*%
%ADD34FreePoly2,0.000000*%
%ADD35RoundRect,0.050000X-0.050000X-0.412500X0.050000X-0.412500X0.050000X0.412500X-0.050000X0.412500X0*%
%ADD36FreePoly3,0.000000*%
%ADD37FreePoly4,0.000000*%
%ADD38FreePoly5,0.000000*%
%ADD39FreePoly6,0.000000*%
%ADD40FreePoly7,0.000000*%
%ADD41C,3.200000*%
%ADD42RoundRect,0.250000X-0.250000X-0.475000X0.250000X-0.475000X0.250000X0.475000X-0.250000X0.475000X0*%
%ADD43R,0.700000X0.700000*%
%ADD44RoundRect,0.250000X-1.000000X-0.900000X1.000000X-0.900000X1.000000X0.900000X-1.000000X0.900000X0*%
%ADD45RoundRect,0.250001X-1.099999X1.099999X-1.099999X-1.099999X1.099999X-1.099999X1.099999X1.099999X0*%
%ADD46C,2.700000*%
%ADD47RoundRect,0.140000X-0.170000X0.140000X-0.170000X-0.140000X0.170000X-0.140000X0.170000X0.140000X0*%
%ADD48C,0.650000*%
%ADD49RoundRect,0.150000X0.150000X0.575000X-0.150000X0.575000X-0.150000X-0.575000X0.150000X-0.575000X0*%
%ADD50RoundRect,0.075000X0.075000X0.650000X-0.075000X0.650000X-0.075000X-0.650000X0.075000X-0.650000X0*%
%ADD51O,1.000000X2.100000*%
%ADD52O,1.000000X1.600000*%
%ADD53RoundRect,0.250001X0.949999X-0.949999X0.949999X0.949999X-0.949999X0.949999X-0.949999X-0.949999X0*%
%ADD54C,2.400000*%
%ADD55RoundRect,0.100000X-0.637500X-0.100000X0.637500X-0.100000X0.637500X0.100000X-0.637500X0.100000X0*%
%ADD56RoundRect,0.150000X-0.587500X-0.150000X0.587500X-0.150000X0.587500X0.150000X-0.587500X0.150000X0*%
%ADD57RoundRect,0.250000X-0.350000X-0.625000X0.350000X-0.625000X0.350000X0.625000X-0.350000X0.625000X0*%
%ADD58O,1.200000X1.750000*%
%ADD59RoundRect,0.050000X-0.150000X-0.300000X0.150000X-0.300000X0.150000X0.300000X-0.150000X0.300000X0*%
%ADD60RoundRect,0.075000X-0.650000X-0.075000X0.650000X-0.075000X0.650000X0.075000X-0.650000X0.075000X0*%
%ADD61RoundRect,0.075000X-0.350000X-0.075000X0.350000X-0.075000X0.350000X0.075000X-0.350000X0.075000X0*%
%ADD62RoundRect,0.075000X0.075000X-0.350000X0.075000X0.350000X-0.075000X0.350000X-0.075000X-0.350000X0*%
%ADD63R,0.300000X1.300000*%
%ADD64R,2.000000X1.600000*%
%ADD65R,0.900000X1.500000*%
%ADD66R,1.500000X0.900000*%
%ADD67C,0.600000*%
%ADD68R,3.900000X3.900000*%
%ADD69C,0.400000*%
%ADD70R,0.400000X0.600000*%
%ADD71FreePoly8,0.000000*%
%ADD72RoundRect,0.250000X0.475000X-0.250000X0.475000X0.250000X-0.475000X0.250000X-0.475000X-0.250000X0*%
%ADD73RoundRect,0.250000X-0.375000X-0.625000X0.375000X-0.625000X0.375000X0.625000X-0.375000X0.625000X0*%
%ADD74R,4.500000X1.650000*%
G04 APERTURE END LIST*
D10*
X60333334Y-39388152D02*
X60238096Y-39769104D01*
X60619048Y-40054819D02*
X61095239Y-40054819D01*
X60619048Y-39245295D02*
X60619048Y-40054819D01*
X61142858Y-39816723D02*
X61142858Y-40054819D01*
X61238096Y-39388152D02*
X61428572Y-39769104D01*
X60619048Y-38959580D02*
X60761905Y-39054819D01*
X60761905Y-39054819D02*
X60904762Y-39197676D01*
X61238096Y-39007200D02*
X61142858Y-39292914D01*
X61142858Y-39292914D02*
X60619048Y-39769104D01*
X60619048Y-39769104D02*
X60190477Y-39959580D01*
X62000000Y-38959580D02*
X61761905Y-39197676D01*
X62190476Y-39007200D02*
X62809524Y-39007200D01*
X62238095Y-39197676D02*
X62238095Y-39769104D01*
X62476190Y-39007200D02*
X62428571Y-39197676D01*
X62000000Y-39292914D02*
X61857143Y-39483390D01*
X61857143Y-39483390D02*
X61666667Y-39531009D01*
X62047619Y-39673866D02*
X61857143Y-39911961D01*
X61857143Y-39911961D02*
X61666667Y-40007200D01*
X62238095Y-39197676D02*
X62714286Y-39197676D01*
X62714286Y-39197676D02*
X62714286Y-39769104D01*
X62476190Y-39769104D02*
X62619048Y-39864342D01*
X62619048Y-39864342D02*
X62761905Y-40054819D01*
X62476190Y-39340533D02*
X62476190Y-39673866D01*
X62476190Y-39673866D02*
X62428571Y-39864342D01*
X62428571Y-39864342D02*
X62285714Y-40007200D01*
X62285714Y-40007200D02*
X62142857Y-40054819D01*
X63142857Y-39816723D02*
X64380952Y-39816723D01*
X63142857Y-39531009D02*
X63142857Y-39911961D01*
X63190476Y-39388152D02*
X64333333Y-39388152D01*
X63190476Y-39102438D02*
X63190476Y-39388152D01*
X63761904Y-38911961D02*
X63761904Y-40054819D01*
X63142857Y-39531009D02*
X64380952Y-39531009D01*
X64380952Y-39531009D02*
X64380952Y-39911961D01*
X63190476Y-39102438D02*
X64333333Y-39102438D01*
X64333333Y-39102438D02*
X64333333Y-39388152D01*
X65523809Y-40054819D02*
X65523809Y-39054819D01*
X66095237Y-40054819D02*
X65666666Y-39483390D01*
X66095237Y-39054819D02*
X65523809Y-39626247D01*
X66476190Y-40007200D02*
X66619047Y-40054819D01*
X66619047Y-40054819D02*
X66857142Y-40054819D01*
X66857142Y-40054819D02*
X66952380Y-40007200D01*
X66952380Y-40007200D02*
X66999999Y-39959580D01*
X66999999Y-39959580D02*
X67047618Y-39864342D01*
X67047618Y-39864342D02*
X67047618Y-39769104D01*
X67047618Y-39769104D02*
X66999999Y-39673866D01*
X66999999Y-39673866D02*
X66952380Y-39626247D01*
X66952380Y-39626247D02*
X66857142Y-39578628D01*
X66857142Y-39578628D02*
X66666666Y-39531009D01*
X66666666Y-39531009D02*
X66571428Y-39483390D01*
X66571428Y-39483390D02*
X66523809Y-39435771D01*
X66523809Y-39435771D02*
X66476190Y-39340533D01*
X66476190Y-39340533D02*
X66476190Y-39245295D01*
X66476190Y-39245295D02*
X66523809Y-39150057D01*
X66523809Y-39150057D02*
X66571428Y-39102438D01*
X66571428Y-39102438D02*
X66666666Y-39054819D01*
X66666666Y-39054819D02*
X66904761Y-39054819D01*
X66904761Y-39054819D02*
X67047618Y-39102438D01*
X67476190Y-40054819D02*
X67476190Y-39054819D01*
X67476190Y-39054819D02*
X67714285Y-39054819D01*
X67714285Y-39054819D02*
X67857142Y-39102438D01*
X67857142Y-39102438D02*
X67952380Y-39197676D01*
X67952380Y-39197676D02*
X67999999Y-39292914D01*
X67999999Y-39292914D02*
X68047618Y-39483390D01*
X68047618Y-39483390D02*
X68047618Y-39626247D01*
X68047618Y-39626247D02*
X67999999Y-39816723D01*
X67999999Y-39816723D02*
X67952380Y-39911961D01*
X67952380Y-39911961D02*
X67857142Y-40007200D01*
X67857142Y-40007200D02*
X67714285Y-40054819D01*
X67714285Y-40054819D02*
X67476190Y-40054819D01*
X68523809Y-40054819D02*
X68714285Y-40054819D01*
X68714285Y-40054819D02*
X68809523Y-40007200D01*
X68809523Y-40007200D02*
X68857142Y-39959580D01*
X68857142Y-39959580D02*
X68952380Y-39816723D01*
X68952380Y-39816723D02*
X68999999Y-39626247D01*
X68999999Y-39626247D02*
X68999999Y-39245295D01*
X68999999Y-39245295D02*
X68952380Y-39150057D01*
X68952380Y-39150057D02*
X68904761Y-39102438D01*
X68904761Y-39102438D02*
X68809523Y-39054819D01*
X68809523Y-39054819D02*
X68619047Y-39054819D01*
X68619047Y-39054819D02*
X68523809Y-39102438D01*
X68523809Y-39102438D02*
X68476190Y-39150057D01*
X68476190Y-39150057D02*
X68428571Y-39245295D01*
X68428571Y-39245295D02*
X68428571Y-39483390D01*
X68428571Y-39483390D02*
X68476190Y-39578628D01*
X68476190Y-39578628D02*
X68523809Y-39626247D01*
X68523809Y-39626247D02*
X68619047Y-39673866D01*
X68619047Y-39673866D02*
X68809523Y-39673866D01*
X68809523Y-39673866D02*
X68904761Y-39626247D01*
X68904761Y-39626247D02*
X68952380Y-39578628D01*
X68952380Y-39578628D02*
X68999999Y-39483390D01*
X69333333Y-39054819D02*
X69999999Y-39054819D01*
X69999999Y-39054819D02*
X69571428Y-40054819D01*
X70571428Y-39054819D02*
X70666666Y-39054819D01*
X70666666Y-39054819D02*
X70761904Y-39102438D01*
X70761904Y-39102438D02*
X70809523Y-39150057D01*
X70809523Y-39150057D02*
X70857142Y-39245295D01*
X70857142Y-39245295D02*
X70904761Y-39435771D01*
X70904761Y-39435771D02*
X70904761Y-39673866D01*
X70904761Y-39673866D02*
X70857142Y-39864342D01*
X70857142Y-39864342D02*
X70809523Y-39959580D01*
X70809523Y-39959580D02*
X70761904Y-40007200D01*
X70761904Y-40007200D02*
X70666666Y-40054819D01*
X70666666Y-40054819D02*
X70571428Y-40054819D01*
X70571428Y-40054819D02*
X70476190Y-40007200D01*
X70476190Y-40007200D02*
X70428571Y-39959580D01*
X70428571Y-39959580D02*
X70380952Y-39864342D01*
X70380952Y-39864342D02*
X70333333Y-39673866D01*
X70333333Y-39673866D02*
X70333333Y-39435771D01*
X70333333Y-39435771D02*
X70380952Y-39245295D01*
X70380952Y-39245295D02*
X70428571Y-39150057D01*
X70428571Y-39150057D02*
X70476190Y-39102438D01*
X70476190Y-39102438D02*
X70571428Y-39054819D01*
X71523809Y-39054819D02*
X71619047Y-39054819D01*
X71619047Y-39054819D02*
X71714285Y-39102438D01*
X71714285Y-39102438D02*
X71761904Y-39150057D01*
X71761904Y-39150057D02*
X71809523Y-39245295D01*
X71809523Y-39245295D02*
X71857142Y-39435771D01*
X71857142Y-39435771D02*
X71857142Y-39673866D01*
X71857142Y-39673866D02*
X71809523Y-39864342D01*
X71809523Y-39864342D02*
X71761904Y-39959580D01*
X71761904Y-39959580D02*
X71714285Y-40007200D01*
X71714285Y-40007200D02*
X71619047Y-40054819D01*
X71619047Y-40054819D02*
X71523809Y-40054819D01*
X71523809Y-40054819D02*
X71428571Y-40007200D01*
X71428571Y-40007200D02*
X71380952Y-39959580D01*
X71380952Y-39959580D02*
X71333333Y-39864342D01*
X71333333Y-39864342D02*
X71285714Y-39673866D01*
X71285714Y-39673866D02*
X71285714Y-39435771D01*
X71285714Y-39435771D02*
X71333333Y-39245295D01*
X71333333Y-39245295D02*
X71380952Y-39150057D01*
X71380952Y-39150057D02*
X71428571Y-39102438D01*
X71428571Y-39102438D02*
X71523809Y-39054819D01*
X73476190Y-39054819D02*
X73285714Y-39054819D01*
X73285714Y-39054819D02*
X73190476Y-39102438D01*
X73190476Y-39102438D02*
X73142857Y-39150057D01*
X73142857Y-39150057D02*
X73047619Y-39292914D01*
X73047619Y-39292914D02*
X73000000Y-39483390D01*
X73000000Y-39483390D02*
X73000000Y-39864342D01*
X73000000Y-39864342D02*
X73047619Y-39959580D01*
X73047619Y-39959580D02*
X73095238Y-40007200D01*
X73095238Y-40007200D02*
X73190476Y-40054819D01*
X73190476Y-40054819D02*
X73380952Y-40054819D01*
X73380952Y-40054819D02*
X73476190Y-40007200D01*
X73476190Y-40007200D02*
X73523809Y-39959580D01*
X73523809Y-39959580D02*
X73571428Y-39864342D01*
X73571428Y-39864342D02*
X73571428Y-39626247D01*
X73571428Y-39626247D02*
X73523809Y-39531009D01*
X73523809Y-39531009D02*
X73476190Y-39483390D01*
X73476190Y-39483390D02*
X73380952Y-39435771D01*
X73380952Y-39435771D02*
X73190476Y-39435771D01*
X73190476Y-39435771D02*
X73095238Y-39483390D01*
X73095238Y-39483390D02*
X73047619Y-39531009D01*
X73047619Y-39531009D02*
X73000000Y-39626247D01*
X74476190Y-39054819D02*
X74000000Y-39054819D01*
X74000000Y-39054819D02*
X73952381Y-39531009D01*
X73952381Y-39531009D02*
X74000000Y-39483390D01*
X74000000Y-39483390D02*
X74095238Y-39435771D01*
X74095238Y-39435771D02*
X74333333Y-39435771D01*
X74333333Y-39435771D02*
X74428571Y-39483390D01*
X74428571Y-39483390D02*
X74476190Y-39531009D01*
X74476190Y-39531009D02*
X74523809Y-39626247D01*
X74523809Y-39626247D02*
X74523809Y-39864342D01*
X74523809Y-39864342D02*
X74476190Y-39959580D01*
X74476190Y-39959580D02*
X74428571Y-40007200D01*
X74428571Y-40007200D02*
X74333333Y-40054819D01*
X74333333Y-40054819D02*
X74095238Y-40054819D01*
X74095238Y-40054819D02*
X74000000Y-40007200D01*
X74000000Y-40007200D02*
X73952381Y-39959580D01*
X74952381Y-39054819D02*
X76047619Y-39054819D01*
X75047619Y-39292914D02*
X76000000Y-39292914D01*
X75285714Y-39531009D02*
X75761905Y-39531009D01*
X75285714Y-39150057D02*
X75285714Y-39531009D01*
X75476190Y-38911961D02*
X75476190Y-39054819D01*
X75761905Y-39150057D02*
X75761905Y-39531009D01*
X74952381Y-39054819D02*
X74952381Y-39673866D01*
X74952381Y-39673866D02*
X74857143Y-40007200D01*
X75238095Y-39721485D02*
X75380952Y-39864342D01*
X75380952Y-39864342D02*
X75571428Y-39959580D01*
X75571428Y-39959580D02*
X76047619Y-40054819D01*
X75095238Y-39673866D02*
X75904762Y-39673866D01*
X75904762Y-39673866D02*
X75761905Y-39864342D01*
X75761905Y-39864342D02*
X75571428Y-39959580D01*
X75571428Y-39959580D02*
X75095238Y-40054819D01*
X77047619Y-39150057D02*
X77047619Y-39340533D01*
X77142857Y-39721485D02*
X77142857Y-40007200D01*
X77190476Y-38959580D02*
X77333333Y-39054819D01*
X77285714Y-39531009D02*
X78047619Y-39531009D01*
X77285714Y-39292914D02*
X77285714Y-39531009D01*
X77666666Y-39531009D02*
X77666666Y-40054819D01*
X77666666Y-38911961D02*
X77666666Y-39150057D01*
X78142857Y-38959580D02*
X78000000Y-39054819D01*
X77047619Y-39150057D02*
X78285714Y-39150057D01*
X78285714Y-39150057D02*
X78285714Y-39340533D01*
X77285714Y-39292914D02*
X78047619Y-39292914D01*
X78047619Y-39292914D02*
X78047619Y-39531009D01*
X77142857Y-39721485D02*
X78190476Y-39721485D01*
X78190476Y-39721485D02*
X78190476Y-40007200D01*
X78190476Y-40007200D02*
X77952381Y-40007200D01*
X78523809Y-39197676D02*
X78523809Y-40054819D01*
X78571428Y-38959580D02*
X78714285Y-39102438D01*
X78761904Y-39340533D02*
X79571428Y-39340533D01*
X79047618Y-39959580D02*
X79285713Y-39959580D01*
X79333332Y-39150057D02*
X79333332Y-39911961D01*
X79571428Y-40054819D02*
X79761904Y-40054819D01*
X78952380Y-39007200D02*
X79761904Y-39007200D01*
X79761904Y-39007200D02*
X79761904Y-40054819D01*
X79333332Y-39340533D02*
X78999999Y-39626247D01*
X78999999Y-39626247D02*
X78666666Y-39816723D01*
X56649819Y-59047618D02*
X57459342Y-59047618D01*
X57459342Y-59047618D02*
X57554580Y-58999999D01*
X57554580Y-58999999D02*
X57602200Y-58952380D01*
X57602200Y-58952380D02*
X57649819Y-58857142D01*
X57649819Y-58857142D02*
X57649819Y-58666666D01*
X57649819Y-58666666D02*
X57602200Y-58571428D01*
X57602200Y-58571428D02*
X57554580Y-58523809D01*
X57554580Y-58523809D02*
X57459342Y-58476190D01*
X57459342Y-58476190D02*
X56649819Y-58476190D01*
X57745057Y-58238095D02*
X57745057Y-57476190D01*
X57649819Y-56761904D02*
X57649819Y-57238094D01*
X57649819Y-57238094D02*
X56649819Y-57238094D01*
X57649819Y-56428570D02*
X56649819Y-56428570D01*
X56649819Y-56428570D02*
X56649819Y-56190475D01*
X56649819Y-56190475D02*
X56697438Y-56047618D01*
X56697438Y-56047618D02*
X56792676Y-55952380D01*
X56792676Y-55952380D02*
X56887914Y-55904761D01*
X56887914Y-55904761D02*
X57078390Y-55857142D01*
X57078390Y-55857142D02*
X57221247Y-55857142D01*
X57221247Y-55857142D02*
X57411723Y-55904761D01*
X57411723Y-55904761D02*
X57506961Y-55952380D01*
X57506961Y-55952380D02*
X57602200Y-56047618D01*
X57602200Y-56047618D02*
X57649819Y-56190475D01*
X57649819Y-56190475D02*
X57649819Y-56428570D01*
X56649819Y-55238094D02*
X56649819Y-55047618D01*
X56649819Y-55047618D02*
X56697438Y-54952380D01*
X56697438Y-54952380D02*
X56792676Y-54857142D01*
X56792676Y-54857142D02*
X56983152Y-54809523D01*
X56983152Y-54809523D02*
X57316485Y-54809523D01*
X57316485Y-54809523D02*
X57506961Y-54857142D01*
X57506961Y-54857142D02*
X57602200Y-54952380D01*
X57602200Y-54952380D02*
X57649819Y-55047618D01*
X57649819Y-55047618D02*
X57649819Y-55238094D01*
X57649819Y-55238094D02*
X57602200Y-55333332D01*
X57602200Y-55333332D02*
X57506961Y-55428570D01*
X57506961Y-55428570D02*
X57316485Y-55476189D01*
X57316485Y-55476189D02*
X56983152Y-55476189D01*
X56983152Y-55476189D02*
X56792676Y-55428570D01*
X56792676Y-55428570D02*
X56697438Y-55333332D01*
X56697438Y-55333332D02*
X56649819Y-55238094D01*
X57649819Y-53857142D02*
X57649819Y-54428570D01*
X57649819Y-54142856D02*
X56649819Y-54142856D01*
X56649819Y-54142856D02*
X56792676Y-54238094D01*
X56792676Y-54238094D02*
X56887914Y-54333332D01*
X56887914Y-54333332D02*
X56935533Y-54428570D01*
X56649819Y-52952380D02*
X56649819Y-53428570D01*
X56649819Y-53428570D02*
X57126009Y-53476189D01*
X57126009Y-53476189D02*
X57078390Y-53428570D01*
X57078390Y-53428570D02*
X57030771Y-53333332D01*
X57030771Y-53333332D02*
X57030771Y-53095237D01*
X57030771Y-53095237D02*
X57078390Y-52999999D01*
X57078390Y-52999999D02*
X57126009Y-52952380D01*
X57126009Y-52952380D02*
X57221247Y-52904761D01*
X57221247Y-52904761D02*
X57459342Y-52904761D01*
X57459342Y-52904761D02*
X57554580Y-52952380D01*
X57554580Y-52952380D02*
X57602200Y-52999999D01*
X57602200Y-52999999D02*
X57649819Y-53095237D01*
X57649819Y-53095237D02*
X57649819Y-53333332D01*
X57649819Y-53333332D02*
X57602200Y-53428570D01*
X57602200Y-53428570D02*
X57554580Y-53476189D01*
X76584999Y-33994819D02*
X76584999Y-34709104D01*
X76584999Y-34709104D02*
X76537380Y-34851961D01*
X76537380Y-34851961D02*
X76442142Y-34947200D01*
X76442142Y-34947200D02*
X76299285Y-34994819D01*
X76299285Y-34994819D02*
X76204047Y-34994819D01*
X76823095Y-35090057D02*
X77584999Y-35090057D01*
X77775476Y-34947200D02*
X77918333Y-34994819D01*
X77918333Y-34994819D02*
X78156428Y-34994819D01*
X78156428Y-34994819D02*
X78251666Y-34947200D01*
X78251666Y-34947200D02*
X78299285Y-34899580D01*
X78299285Y-34899580D02*
X78346904Y-34804342D01*
X78346904Y-34804342D02*
X78346904Y-34709104D01*
X78346904Y-34709104D02*
X78299285Y-34613866D01*
X78299285Y-34613866D02*
X78251666Y-34566247D01*
X78251666Y-34566247D02*
X78156428Y-34518628D01*
X78156428Y-34518628D02*
X77965952Y-34471009D01*
X77965952Y-34471009D02*
X77870714Y-34423390D01*
X77870714Y-34423390D02*
X77823095Y-34375771D01*
X77823095Y-34375771D02*
X77775476Y-34280533D01*
X77775476Y-34280533D02*
X77775476Y-34185295D01*
X77775476Y-34185295D02*
X77823095Y-34090057D01*
X77823095Y-34090057D02*
X77870714Y-34042438D01*
X77870714Y-34042438D02*
X77965952Y-33994819D01*
X77965952Y-33994819D02*
X78204047Y-33994819D01*
X78204047Y-33994819D02*
X78346904Y-34042438D01*
X78775476Y-34471009D02*
X79108809Y-34471009D01*
X79251666Y-34994819D02*
X78775476Y-34994819D01*
X78775476Y-34994819D02*
X78775476Y-33994819D01*
X78775476Y-33994819D02*
X79251666Y-33994819D01*
X80251666Y-34994819D02*
X79918333Y-34518628D01*
X79680238Y-34994819D02*
X79680238Y-33994819D01*
X79680238Y-33994819D02*
X80061190Y-33994819D01*
X80061190Y-33994819D02*
X80156428Y-34042438D01*
X80156428Y-34042438D02*
X80204047Y-34090057D01*
X80204047Y-34090057D02*
X80251666Y-34185295D01*
X80251666Y-34185295D02*
X80251666Y-34328152D01*
X80251666Y-34328152D02*
X80204047Y-34423390D01*
X80204047Y-34423390D02*
X80156428Y-34471009D01*
X80156428Y-34471009D02*
X80061190Y-34518628D01*
X80061190Y-34518628D02*
X79680238Y-34518628D01*
X80537381Y-33994819D02*
X80870714Y-34994819D01*
X80870714Y-34994819D02*
X81204047Y-33994819D01*
X81727857Y-33994819D02*
X81918333Y-33994819D01*
X81918333Y-33994819D02*
X82013571Y-34042438D01*
X82013571Y-34042438D02*
X82108809Y-34137676D01*
X82108809Y-34137676D02*
X82156428Y-34328152D01*
X82156428Y-34328152D02*
X82156428Y-34661485D01*
X82156428Y-34661485D02*
X82108809Y-34851961D01*
X82108809Y-34851961D02*
X82013571Y-34947200D01*
X82013571Y-34947200D02*
X81918333Y-34994819D01*
X81918333Y-34994819D02*
X81727857Y-34994819D01*
X81727857Y-34994819D02*
X81632619Y-34947200D01*
X81632619Y-34947200D02*
X81537381Y-34851961D01*
X81537381Y-34851961D02*
X81489762Y-34661485D01*
X81489762Y-34661485D02*
X81489762Y-34328152D01*
X81489762Y-34328152D02*
X81537381Y-34137676D01*
X81537381Y-34137676D02*
X81632619Y-34042438D01*
X81632619Y-34042438D02*
X81727857Y-33994819D01*
X82346905Y-35090057D02*
X83108809Y-35090057D01*
X83918333Y-34994819D02*
X83585000Y-34518628D01*
X83346905Y-34994819D02*
X83346905Y-33994819D01*
X83346905Y-33994819D02*
X83727857Y-33994819D01*
X83727857Y-33994819D02*
X83823095Y-34042438D01*
X83823095Y-34042438D02*
X83870714Y-34090057D01*
X83870714Y-34090057D02*
X83918333Y-34185295D01*
X83918333Y-34185295D02*
X83918333Y-34328152D01*
X83918333Y-34328152D02*
X83870714Y-34423390D01*
X83870714Y-34423390D02*
X83823095Y-34471009D01*
X83823095Y-34471009D02*
X83727857Y-34518628D01*
X83727857Y-34518628D02*
X83346905Y-34518628D01*
X20557265Y-39297617D02*
X20557265Y-38726189D01*
X21557265Y-39011903D02*
X20557265Y-39011903D01*
X21557265Y-38392855D02*
X20557265Y-38392855D01*
X20557265Y-38392855D02*
X20557265Y-38011903D01*
X20557265Y-38011903D02*
X20604884Y-37916665D01*
X20604884Y-37916665D02*
X20652503Y-37869046D01*
X20652503Y-37869046D02*
X20747741Y-37821427D01*
X20747741Y-37821427D02*
X20890598Y-37821427D01*
X20890598Y-37821427D02*
X20985836Y-37869046D01*
X20985836Y-37869046D02*
X21033455Y-37916665D01*
X21033455Y-37916665D02*
X21081074Y-38011903D01*
X21081074Y-38011903D02*
X21081074Y-38392855D01*
X21652503Y-37630951D02*
X21652503Y-36869046D01*
X21509646Y-36678569D02*
X21557265Y-36535712D01*
X21557265Y-36535712D02*
X21557265Y-36297617D01*
X21557265Y-36297617D02*
X21509646Y-36202379D01*
X21509646Y-36202379D02*
X21462026Y-36154760D01*
X21462026Y-36154760D02*
X21366788Y-36107141D01*
X21366788Y-36107141D02*
X21271550Y-36107141D01*
X21271550Y-36107141D02*
X21176312Y-36154760D01*
X21176312Y-36154760D02*
X21128693Y-36202379D01*
X21128693Y-36202379D02*
X21081074Y-36297617D01*
X21081074Y-36297617D02*
X21033455Y-36488093D01*
X21033455Y-36488093D02*
X20985836Y-36583331D01*
X20985836Y-36583331D02*
X20938217Y-36630950D01*
X20938217Y-36630950D02*
X20842979Y-36678569D01*
X20842979Y-36678569D02*
X20747741Y-36678569D01*
X20747741Y-36678569D02*
X20652503Y-36630950D01*
X20652503Y-36630950D02*
X20604884Y-36583331D01*
X20604884Y-36583331D02*
X20557265Y-36488093D01*
X20557265Y-36488093D02*
X20557265Y-36249998D01*
X20557265Y-36249998D02*
X20604884Y-36107141D01*
X21462026Y-35107141D02*
X21509646Y-35154760D01*
X21509646Y-35154760D02*
X21557265Y-35297617D01*
X21557265Y-35297617D02*
X21557265Y-35392855D01*
X21557265Y-35392855D02*
X21509646Y-35535712D01*
X21509646Y-35535712D02*
X21414407Y-35630950D01*
X21414407Y-35630950D02*
X21319169Y-35678569D01*
X21319169Y-35678569D02*
X21128693Y-35726188D01*
X21128693Y-35726188D02*
X20985836Y-35726188D01*
X20985836Y-35726188D02*
X20795360Y-35678569D01*
X20795360Y-35678569D02*
X20700122Y-35630950D01*
X20700122Y-35630950D02*
X20604884Y-35535712D01*
X20604884Y-35535712D02*
X20557265Y-35392855D01*
X20557265Y-35392855D02*
X20557265Y-35297617D01*
X20557265Y-35297617D02*
X20604884Y-35154760D01*
X20604884Y-35154760D02*
X20652503Y-35107141D01*
X21557265Y-34202379D02*
X21557265Y-34678569D01*
X21557265Y-34678569D02*
X20557265Y-34678569D01*
X20974912Y-43301090D02*
X21546340Y-43301090D01*
X21260626Y-44301090D02*
X21260626Y-43301090D01*
X21879674Y-44301090D02*
X21879674Y-43301090D01*
X21879674Y-43301090D02*
X22260626Y-43301090D01*
X22260626Y-43301090D02*
X22355864Y-43348709D01*
X22355864Y-43348709D02*
X22403483Y-43396328D01*
X22403483Y-43396328D02*
X22451102Y-43491566D01*
X22451102Y-43491566D02*
X22451102Y-43634423D01*
X22451102Y-43634423D02*
X22403483Y-43729661D01*
X22403483Y-43729661D02*
X22355864Y-43777280D01*
X22355864Y-43777280D02*
X22260626Y-43824899D01*
X22260626Y-43824899D02*
X21879674Y-43824899D01*
X22641579Y-44396328D02*
X23403483Y-44396328D01*
X23498722Y-43301090D02*
X24070150Y-43301090D01*
X23784436Y-44301090D02*
X23784436Y-43301090D01*
X24308246Y-43301090D02*
X24974912Y-44301090D01*
X24974912Y-43301090D02*
X24308246Y-44301090D01*
X22952381Y-56799819D02*
X22952381Y-57609342D01*
X22952381Y-57609342D02*
X23000000Y-57704580D01*
X23000000Y-57704580D02*
X23047619Y-57752200D01*
X23047619Y-57752200D02*
X23142857Y-57799819D01*
X23142857Y-57799819D02*
X23333333Y-57799819D01*
X23333333Y-57799819D02*
X23428571Y-57752200D01*
X23428571Y-57752200D02*
X23476190Y-57704580D01*
X23476190Y-57704580D02*
X23523809Y-57609342D01*
X23523809Y-57609342D02*
X23523809Y-56799819D01*
X23761905Y-57895057D02*
X24523809Y-57895057D01*
X25238095Y-57799819D02*
X24761905Y-57799819D01*
X24761905Y-57799819D02*
X24761905Y-56799819D01*
X25571429Y-57799819D02*
X25571429Y-56799819D01*
X25571429Y-56799819D02*
X25809524Y-56799819D01*
X25809524Y-56799819D02*
X25952381Y-56847438D01*
X25952381Y-56847438D02*
X26047619Y-56942676D01*
X26047619Y-56942676D02*
X26095238Y-57037914D01*
X26095238Y-57037914D02*
X26142857Y-57228390D01*
X26142857Y-57228390D02*
X26142857Y-57371247D01*
X26142857Y-57371247D02*
X26095238Y-57561723D01*
X26095238Y-57561723D02*
X26047619Y-57656961D01*
X26047619Y-57656961D02*
X25952381Y-57752200D01*
X25952381Y-57752200D02*
X25809524Y-57799819D01*
X25809524Y-57799819D02*
X25571429Y-57799819D01*
X26761905Y-56799819D02*
X26952381Y-56799819D01*
X26952381Y-56799819D02*
X27047619Y-56847438D01*
X27047619Y-56847438D02*
X27142857Y-56942676D01*
X27142857Y-56942676D02*
X27190476Y-57133152D01*
X27190476Y-57133152D02*
X27190476Y-57466485D01*
X27190476Y-57466485D02*
X27142857Y-57656961D01*
X27142857Y-57656961D02*
X27047619Y-57752200D01*
X27047619Y-57752200D02*
X26952381Y-57799819D01*
X26952381Y-57799819D02*
X26761905Y-57799819D01*
X26761905Y-57799819D02*
X26666667Y-57752200D01*
X26666667Y-57752200D02*
X26571429Y-57656961D01*
X26571429Y-57656961D02*
X26523810Y-57466485D01*
X26523810Y-57466485D02*
X26523810Y-57133152D01*
X26523810Y-57133152D02*
X26571429Y-56942676D01*
X26571429Y-56942676D02*
X26666667Y-56847438D01*
X26666667Y-56847438D02*
X26761905Y-56799819D01*
X27571429Y-56895057D02*
X27619048Y-56847438D01*
X27619048Y-56847438D02*
X27714286Y-56799819D01*
X27714286Y-56799819D02*
X27952381Y-56799819D01*
X27952381Y-56799819D02*
X28047619Y-56847438D01*
X28047619Y-56847438D02*
X28095238Y-56895057D01*
X28095238Y-56895057D02*
X28142857Y-56990295D01*
X28142857Y-56990295D02*
X28142857Y-57085533D01*
X28142857Y-57085533D02*
X28095238Y-57228390D01*
X28095238Y-57228390D02*
X27523810Y-57799819D01*
X27523810Y-57799819D02*
X28142857Y-57799819D01*
X28714286Y-57228390D02*
X28619048Y-57180771D01*
X28619048Y-57180771D02*
X28571429Y-57133152D01*
X28571429Y-57133152D02*
X28523810Y-57037914D01*
X28523810Y-57037914D02*
X28523810Y-56990295D01*
X28523810Y-56990295D02*
X28571429Y-56895057D01*
X28571429Y-56895057D02*
X28619048Y-56847438D01*
X28619048Y-56847438D02*
X28714286Y-56799819D01*
X28714286Y-56799819D02*
X28904762Y-56799819D01*
X28904762Y-56799819D02*
X29000000Y-56847438D01*
X29000000Y-56847438D02*
X29047619Y-56895057D01*
X29047619Y-56895057D02*
X29095238Y-56990295D01*
X29095238Y-56990295D02*
X29095238Y-57037914D01*
X29095238Y-57037914D02*
X29047619Y-57133152D01*
X29047619Y-57133152D02*
X29000000Y-57180771D01*
X29000000Y-57180771D02*
X28904762Y-57228390D01*
X28904762Y-57228390D02*
X28714286Y-57228390D01*
X28714286Y-57228390D02*
X28619048Y-57276009D01*
X28619048Y-57276009D02*
X28571429Y-57323628D01*
X28571429Y-57323628D02*
X28523810Y-57418866D01*
X28523810Y-57418866D02*
X28523810Y-57609342D01*
X28523810Y-57609342D02*
X28571429Y-57704580D01*
X28571429Y-57704580D02*
X28619048Y-57752200D01*
X28619048Y-57752200D02*
X28714286Y-57799819D01*
X28714286Y-57799819D02*
X28904762Y-57799819D01*
X28904762Y-57799819D02*
X29000000Y-57752200D01*
X29000000Y-57752200D02*
X29047619Y-57704580D01*
X29047619Y-57704580D02*
X29095238Y-57609342D01*
X29095238Y-57609342D02*
X29095238Y-57418866D01*
X29095238Y-57418866D02*
X29047619Y-57323628D01*
X29047619Y-57323628D02*
X29000000Y-57276009D01*
X29000000Y-57276009D02*
X28904762Y-57228390D01*
X8833333Y-18602200D02*
X8976190Y-18649819D01*
X8976190Y-18649819D02*
X9214285Y-18649819D01*
X9214285Y-18649819D02*
X9309523Y-18602200D01*
X9309523Y-18602200D02*
X9357142Y-18554580D01*
X9357142Y-18554580D02*
X9404761Y-18459342D01*
X9404761Y-18459342D02*
X9404761Y-18364104D01*
X9404761Y-18364104D02*
X9357142Y-18268866D01*
X9357142Y-18268866D02*
X9309523Y-18221247D01*
X9309523Y-18221247D02*
X9214285Y-18173628D01*
X9214285Y-18173628D02*
X9023809Y-18126009D01*
X9023809Y-18126009D02*
X8928571Y-18078390D01*
X8928571Y-18078390D02*
X8880952Y-18030771D01*
X8880952Y-18030771D02*
X8833333Y-17935533D01*
X8833333Y-17935533D02*
X8833333Y-17840295D01*
X8833333Y-17840295D02*
X8880952Y-17745057D01*
X8880952Y-17745057D02*
X8928571Y-17697438D01*
X8928571Y-17697438D02*
X9023809Y-17649819D01*
X9023809Y-17649819D02*
X9261904Y-17649819D01*
X9261904Y-17649819D02*
X9404761Y-17697438D01*
X9738095Y-17649819D02*
X9976190Y-18649819D01*
X9976190Y-18649819D02*
X10166666Y-17935533D01*
X10166666Y-17935533D02*
X10357142Y-18649819D01*
X10357142Y-18649819D02*
X10595238Y-17649819D01*
X10738095Y-18745057D02*
X11499999Y-18745057D01*
X12071428Y-18126009D02*
X12214285Y-18173628D01*
X12214285Y-18173628D02*
X12261904Y-18221247D01*
X12261904Y-18221247D02*
X12309523Y-18316485D01*
X12309523Y-18316485D02*
X12309523Y-18459342D01*
X12309523Y-18459342D02*
X12261904Y-18554580D01*
X12261904Y-18554580D02*
X12214285Y-18602200D01*
X12214285Y-18602200D02*
X12119047Y-18649819D01*
X12119047Y-18649819D02*
X11738095Y-18649819D01*
X11738095Y-18649819D02*
X11738095Y-17649819D01*
X11738095Y-17649819D02*
X12071428Y-17649819D01*
X12071428Y-17649819D02*
X12166666Y-17697438D01*
X12166666Y-17697438D02*
X12214285Y-17745057D01*
X12214285Y-17745057D02*
X12261904Y-17840295D01*
X12261904Y-17840295D02*
X12261904Y-17935533D01*
X12261904Y-17935533D02*
X12214285Y-18030771D01*
X12214285Y-18030771D02*
X12166666Y-18078390D01*
X12166666Y-18078390D02*
X12071428Y-18126009D01*
X12071428Y-18126009D02*
X11738095Y-18126009D01*
X12928571Y-17649819D02*
X13119047Y-17649819D01*
X13119047Y-17649819D02*
X13214285Y-17697438D01*
X13214285Y-17697438D02*
X13309523Y-17792676D01*
X13309523Y-17792676D02*
X13357142Y-17983152D01*
X13357142Y-17983152D02*
X13357142Y-18316485D01*
X13357142Y-18316485D02*
X13309523Y-18506961D01*
X13309523Y-18506961D02*
X13214285Y-18602200D01*
X13214285Y-18602200D02*
X13119047Y-18649819D01*
X13119047Y-18649819D02*
X12928571Y-18649819D01*
X12928571Y-18649819D02*
X12833333Y-18602200D01*
X12833333Y-18602200D02*
X12738095Y-18506961D01*
X12738095Y-18506961D02*
X12690476Y-18316485D01*
X12690476Y-18316485D02*
X12690476Y-17983152D01*
X12690476Y-17983152D02*
X12738095Y-17792676D01*
X12738095Y-17792676D02*
X12833333Y-17697438D01*
X12833333Y-17697438D02*
X12928571Y-17649819D01*
X13976190Y-17649819D02*
X14166666Y-17649819D01*
X14166666Y-17649819D02*
X14261904Y-17697438D01*
X14261904Y-17697438D02*
X14357142Y-17792676D01*
X14357142Y-17792676D02*
X14404761Y-17983152D01*
X14404761Y-17983152D02*
X14404761Y-18316485D01*
X14404761Y-18316485D02*
X14357142Y-18506961D01*
X14357142Y-18506961D02*
X14261904Y-18602200D01*
X14261904Y-18602200D02*
X14166666Y-18649819D01*
X14166666Y-18649819D02*
X13976190Y-18649819D01*
X13976190Y-18649819D02*
X13880952Y-18602200D01*
X13880952Y-18602200D02*
X13785714Y-18506961D01*
X13785714Y-18506961D02*
X13738095Y-18316485D01*
X13738095Y-18316485D02*
X13738095Y-17983152D01*
X13738095Y-17983152D02*
X13785714Y-17792676D01*
X13785714Y-17792676D02*
X13880952Y-17697438D01*
X13880952Y-17697438D02*
X13976190Y-17649819D01*
X14690476Y-17649819D02*
X15261904Y-17649819D01*
X14976190Y-18649819D02*
X14976190Y-17649819D01*
X51833333Y-44709818D02*
X51833333Y-45519341D01*
X51833333Y-45519341D02*
X51880952Y-45614579D01*
X51880952Y-45614579D02*
X51928571Y-45662199D01*
X51928571Y-45662199D02*
X52023809Y-45709818D01*
X52023809Y-45709818D02*
X52214285Y-45709818D01*
X52214285Y-45709818D02*
X52309523Y-45662199D01*
X52309523Y-45662199D02*
X52357142Y-45614579D01*
X52357142Y-45614579D02*
X52404761Y-45519341D01*
X52404761Y-45519341D02*
X52404761Y-44709818D01*
X52642857Y-45805056D02*
X53404761Y-45805056D01*
X53595238Y-45424103D02*
X54071428Y-45424103D01*
X53500000Y-45709818D02*
X53833333Y-44709818D01*
X53833333Y-44709818D02*
X54166666Y-45709818D01*
X54500000Y-45709818D02*
X54500000Y-44709818D01*
X54500000Y-44709818D02*
X54833333Y-45424103D01*
X54833333Y-45424103D02*
X55166666Y-44709818D01*
X55166666Y-44709818D02*
X55166666Y-45709818D01*
X55642857Y-45709818D02*
X55642857Y-44709818D01*
X55642857Y-44709818D02*
X56023809Y-44709818D01*
X56023809Y-44709818D02*
X56119047Y-44757437D01*
X56119047Y-44757437D02*
X56166666Y-44805056D01*
X56166666Y-44805056D02*
X56214285Y-44900294D01*
X56214285Y-44900294D02*
X56214285Y-45043151D01*
X56214285Y-45043151D02*
X56166666Y-45138389D01*
X56166666Y-45138389D02*
X56119047Y-45186008D01*
X56119047Y-45186008D02*
X56023809Y-45233627D01*
X56023809Y-45233627D02*
X55642857Y-45233627D01*
X35654761Y-17099819D02*
X35178571Y-17099819D01*
X35178571Y-17099819D02*
X35178571Y-16099819D01*
X35750000Y-17195057D02*
X36511904Y-17195057D01*
X37083333Y-16576009D02*
X37226190Y-16623628D01*
X37226190Y-16623628D02*
X37273809Y-16671247D01*
X37273809Y-16671247D02*
X37321428Y-16766485D01*
X37321428Y-16766485D02*
X37321428Y-16909342D01*
X37321428Y-16909342D02*
X37273809Y-17004580D01*
X37273809Y-17004580D02*
X37226190Y-17052200D01*
X37226190Y-17052200D02*
X37130952Y-17099819D01*
X37130952Y-17099819D02*
X36750000Y-17099819D01*
X36750000Y-17099819D02*
X36750000Y-16099819D01*
X36750000Y-16099819D02*
X37083333Y-16099819D01*
X37083333Y-16099819D02*
X37178571Y-16147438D01*
X37178571Y-16147438D02*
X37226190Y-16195057D01*
X37226190Y-16195057D02*
X37273809Y-16290295D01*
X37273809Y-16290295D02*
X37273809Y-16385533D01*
X37273809Y-16385533D02*
X37226190Y-16480771D01*
X37226190Y-16480771D02*
X37178571Y-16528390D01*
X37178571Y-16528390D02*
X37083333Y-16576009D01*
X37083333Y-16576009D02*
X36750000Y-16576009D01*
X37750000Y-16099819D02*
X37750000Y-16909342D01*
X37750000Y-16909342D02*
X37797619Y-17004580D01*
X37797619Y-17004580D02*
X37845238Y-17052200D01*
X37845238Y-17052200D02*
X37940476Y-17099819D01*
X37940476Y-17099819D02*
X38130952Y-17099819D01*
X38130952Y-17099819D02*
X38226190Y-17052200D01*
X38226190Y-17052200D02*
X38273809Y-17004580D01*
X38273809Y-17004580D02*
X38321428Y-16909342D01*
X38321428Y-16909342D02*
X38321428Y-16099819D01*
X39369047Y-17004580D02*
X39321428Y-17052200D01*
X39321428Y-17052200D02*
X39178571Y-17099819D01*
X39178571Y-17099819D02*
X39083333Y-17099819D01*
X39083333Y-17099819D02*
X38940476Y-17052200D01*
X38940476Y-17052200D02*
X38845238Y-16956961D01*
X38845238Y-16956961D02*
X38797619Y-16861723D01*
X38797619Y-16861723D02*
X38750000Y-16671247D01*
X38750000Y-16671247D02*
X38750000Y-16528390D01*
X38750000Y-16528390D02*
X38797619Y-16337914D01*
X38797619Y-16337914D02*
X38845238Y-16242676D01*
X38845238Y-16242676D02*
X38940476Y-16147438D01*
X38940476Y-16147438D02*
X39083333Y-16099819D01*
X39083333Y-16099819D02*
X39178571Y-16099819D01*
X39178571Y-16099819D02*
X39321428Y-16147438D01*
X39321428Y-16147438D02*
X39369047Y-16195057D01*
X39797619Y-17099819D02*
X39797619Y-16099819D01*
X40369047Y-17099819D02*
X39940476Y-16528390D01*
X40369047Y-16099819D02*
X39797619Y-16671247D01*
X65308246Y-34101091D02*
X65879674Y-34101091D01*
X65593960Y-35101091D02*
X65593960Y-34101091D01*
X66213008Y-35101091D02*
X66213008Y-34101091D01*
X66213008Y-34101091D02*
X66593960Y-34101091D01*
X66593960Y-34101091D02*
X66689198Y-34148710D01*
X66689198Y-34148710D02*
X66736817Y-34196329D01*
X66736817Y-34196329D02*
X66784436Y-34291567D01*
X66784436Y-34291567D02*
X66784436Y-34434424D01*
X66784436Y-34434424D02*
X66736817Y-34529662D01*
X66736817Y-34529662D02*
X66689198Y-34577281D01*
X66689198Y-34577281D02*
X66593960Y-34624900D01*
X66593960Y-34624900D02*
X66213008Y-34624900D01*
X66974913Y-35196329D02*
X67736817Y-35196329D01*
X68498722Y-34148710D02*
X68403484Y-34101091D01*
X68403484Y-34101091D02*
X68260627Y-34101091D01*
X68260627Y-34101091D02*
X68117770Y-34148710D01*
X68117770Y-34148710D02*
X68022532Y-34243948D01*
X68022532Y-34243948D02*
X67974913Y-34339186D01*
X67974913Y-34339186D02*
X67927294Y-34529662D01*
X67927294Y-34529662D02*
X67927294Y-34672519D01*
X67927294Y-34672519D02*
X67974913Y-34862995D01*
X67974913Y-34862995D02*
X68022532Y-34958233D01*
X68022532Y-34958233D02*
X68117770Y-35053472D01*
X68117770Y-35053472D02*
X68260627Y-35101091D01*
X68260627Y-35101091D02*
X68355865Y-35101091D01*
X68355865Y-35101091D02*
X68498722Y-35053472D01*
X68498722Y-35053472D02*
X68546341Y-35005852D01*
X68546341Y-35005852D02*
X68546341Y-34672519D01*
X68546341Y-34672519D02*
X68355865Y-34672519D01*
X68974913Y-35101091D02*
X68974913Y-34101091D01*
X68974913Y-34101091D02*
X69546341Y-35101091D01*
X69546341Y-35101091D02*
X69546341Y-34101091D01*
X70022532Y-35101091D02*
X70022532Y-34101091D01*
X70022532Y-34101091D02*
X70260627Y-34101091D01*
X70260627Y-34101091D02*
X70403484Y-34148710D01*
X70403484Y-34148710D02*
X70498722Y-34243948D01*
X70498722Y-34243948D02*
X70546341Y-34339186D01*
X70546341Y-34339186D02*
X70593960Y-34529662D01*
X70593960Y-34529662D02*
X70593960Y-34672519D01*
X70593960Y-34672519D02*
X70546341Y-34862995D01*
X70546341Y-34862995D02*
X70498722Y-34958233D01*
X70498722Y-34958233D02*
X70403484Y-35053472D01*
X70403484Y-35053472D02*
X70260627Y-35101091D01*
X70260627Y-35101091D02*
X70022532Y-35101091D01*
X22903484Y-15551090D02*
X23474912Y-15551090D01*
X23189198Y-16551090D02*
X23189198Y-15551090D01*
X23808246Y-16551090D02*
X23808246Y-15551090D01*
X23808246Y-15551090D02*
X24189198Y-15551090D01*
X24189198Y-15551090D02*
X24284436Y-15598709D01*
X24284436Y-15598709D02*
X24332055Y-15646328D01*
X24332055Y-15646328D02*
X24379674Y-15741566D01*
X24379674Y-15741566D02*
X24379674Y-15884423D01*
X24379674Y-15884423D02*
X24332055Y-15979661D01*
X24332055Y-15979661D02*
X24284436Y-16027280D01*
X24284436Y-16027280D02*
X24189198Y-16074899D01*
X24189198Y-16074899D02*
X23808246Y-16074899D01*
X24570151Y-16646328D02*
X25332055Y-16646328D01*
X25427294Y-15551090D02*
X25760627Y-16551090D01*
X25760627Y-16551090D02*
X26093960Y-15551090D01*
X26760627Y-16027280D02*
X26903484Y-16074899D01*
X26903484Y-16074899D02*
X26951103Y-16122518D01*
X26951103Y-16122518D02*
X26998722Y-16217756D01*
X26998722Y-16217756D02*
X26998722Y-16360613D01*
X26998722Y-16360613D02*
X26951103Y-16455851D01*
X26951103Y-16455851D02*
X26903484Y-16503471D01*
X26903484Y-16503471D02*
X26808246Y-16551090D01*
X26808246Y-16551090D02*
X26427294Y-16551090D01*
X26427294Y-16551090D02*
X26427294Y-15551090D01*
X26427294Y-15551090D02*
X26760627Y-15551090D01*
X26760627Y-15551090D02*
X26855865Y-15598709D01*
X26855865Y-15598709D02*
X26903484Y-15646328D01*
X26903484Y-15646328D02*
X26951103Y-15741566D01*
X26951103Y-15741566D02*
X26951103Y-15836804D01*
X26951103Y-15836804D02*
X26903484Y-15932042D01*
X26903484Y-15932042D02*
X26855865Y-15979661D01*
X26855865Y-15979661D02*
X26760627Y-16027280D01*
X26760627Y-16027280D02*
X26427294Y-16027280D01*
X27427294Y-15551090D02*
X27427294Y-16360613D01*
X27427294Y-16360613D02*
X27474913Y-16455851D01*
X27474913Y-16455851D02*
X27522532Y-16503471D01*
X27522532Y-16503471D02*
X27617770Y-16551090D01*
X27617770Y-16551090D02*
X27808246Y-16551090D01*
X27808246Y-16551090D02*
X27903484Y-16503471D01*
X27903484Y-16503471D02*
X27951103Y-16455851D01*
X27951103Y-16455851D02*
X27998722Y-16360613D01*
X27998722Y-16360613D02*
X27998722Y-15551090D01*
X28427294Y-16503471D02*
X28570151Y-16551090D01*
X28570151Y-16551090D02*
X28808246Y-16551090D01*
X28808246Y-16551090D02*
X28903484Y-16503471D01*
X28903484Y-16503471D02*
X28951103Y-16455851D01*
X28951103Y-16455851D02*
X28998722Y-16360613D01*
X28998722Y-16360613D02*
X28998722Y-16265375D01*
X28998722Y-16265375D02*
X28951103Y-16170137D01*
X28951103Y-16170137D02*
X28903484Y-16122518D01*
X28903484Y-16122518D02*
X28808246Y-16074899D01*
X28808246Y-16074899D02*
X28617770Y-16027280D01*
X28617770Y-16027280D02*
X28522532Y-15979661D01*
X28522532Y-15979661D02*
X28474913Y-15932042D01*
X28474913Y-15932042D02*
X28427294Y-15836804D01*
X28427294Y-15836804D02*
X28427294Y-15741566D01*
X28427294Y-15741566D02*
X28474913Y-15646328D01*
X28474913Y-15646328D02*
X28522532Y-15598709D01*
X28522532Y-15598709D02*
X28617770Y-15551090D01*
X28617770Y-15551090D02*
X28855865Y-15551090D01*
X28855865Y-15551090D02*
X28998722Y-15598709D01*
X33125952Y-45454819D02*
X33125952Y-46264342D01*
X33125952Y-46264342D02*
X33173571Y-46359580D01*
X33173571Y-46359580D02*
X33221190Y-46407200D01*
X33221190Y-46407200D02*
X33316428Y-46454819D01*
X33316428Y-46454819D02*
X33506904Y-46454819D01*
X33506904Y-46454819D02*
X33602142Y-46407200D01*
X33602142Y-46407200D02*
X33649761Y-46359580D01*
X33649761Y-46359580D02*
X33697380Y-46264342D01*
X33697380Y-46264342D02*
X33697380Y-45454819D01*
X33935476Y-46550057D02*
X34697380Y-46550057D01*
X34792619Y-45454819D02*
X35364047Y-45454819D01*
X35078333Y-46454819D02*
X35078333Y-45454819D01*
X35887857Y-45454819D02*
X36078333Y-45454819D01*
X36078333Y-45454819D02*
X36173571Y-45502438D01*
X36173571Y-45502438D02*
X36268809Y-45597676D01*
X36268809Y-45597676D02*
X36316428Y-45788152D01*
X36316428Y-45788152D02*
X36316428Y-46121485D01*
X36316428Y-46121485D02*
X36268809Y-46311961D01*
X36268809Y-46311961D02*
X36173571Y-46407200D01*
X36173571Y-46407200D02*
X36078333Y-46454819D01*
X36078333Y-46454819D02*
X35887857Y-46454819D01*
X35887857Y-46454819D02*
X35792619Y-46407200D01*
X35792619Y-46407200D02*
X35697381Y-46311961D01*
X35697381Y-46311961D02*
X35649762Y-46121485D01*
X35649762Y-46121485D02*
X35649762Y-45788152D01*
X35649762Y-45788152D02*
X35697381Y-45597676D01*
X35697381Y-45597676D02*
X35792619Y-45502438D01*
X35792619Y-45502438D02*
X35887857Y-45454819D01*
X36745000Y-45454819D02*
X36745000Y-46264342D01*
X36745000Y-46264342D02*
X36792619Y-46359580D01*
X36792619Y-46359580D02*
X36840238Y-46407200D01*
X36840238Y-46407200D02*
X36935476Y-46454819D01*
X36935476Y-46454819D02*
X37125952Y-46454819D01*
X37125952Y-46454819D02*
X37221190Y-46407200D01*
X37221190Y-46407200D02*
X37268809Y-46359580D01*
X37268809Y-46359580D02*
X37316428Y-46264342D01*
X37316428Y-46264342D02*
X37316428Y-45454819D01*
X38364047Y-46359580D02*
X38316428Y-46407200D01*
X38316428Y-46407200D02*
X38173571Y-46454819D01*
X38173571Y-46454819D02*
X38078333Y-46454819D01*
X38078333Y-46454819D02*
X37935476Y-46407200D01*
X37935476Y-46407200D02*
X37840238Y-46311961D01*
X37840238Y-46311961D02*
X37792619Y-46216723D01*
X37792619Y-46216723D02*
X37745000Y-46026247D01*
X37745000Y-46026247D02*
X37745000Y-45883390D01*
X37745000Y-45883390D02*
X37792619Y-45692914D01*
X37792619Y-45692914D02*
X37840238Y-45597676D01*
X37840238Y-45597676D02*
X37935476Y-45502438D01*
X37935476Y-45502438D02*
X38078333Y-45454819D01*
X38078333Y-45454819D02*
X38173571Y-45454819D01*
X38173571Y-45454819D02*
X38316428Y-45502438D01*
X38316428Y-45502438D02*
X38364047Y-45550057D01*
X38792619Y-46454819D02*
X38792619Y-45454819D01*
X38792619Y-45931009D02*
X39364047Y-45931009D01*
X39364047Y-46454819D02*
X39364047Y-45454819D01*
X3239359Y-8752344D02*
X3239359Y-7752344D01*
X3239359Y-8228534D02*
X3810787Y-8228534D01*
X3810787Y-8752344D02*
X3810787Y-7752344D01*
X4810787Y-8752344D02*
X4239359Y-8752344D01*
X4525073Y-8752344D02*
X4525073Y-7752344D01*
X4525073Y-7752344D02*
X4429835Y-7895201D01*
X4429835Y-7895201D02*
X4334597Y-7990439D01*
X4334597Y-7990439D02*
X4239359Y-8038058D01*
X17564999Y-14359819D02*
X17564999Y-13359819D01*
X17564999Y-13359819D02*
X17803094Y-13359819D01*
X17803094Y-13359819D02*
X17945951Y-13407438D01*
X17945951Y-13407438D02*
X18041189Y-13502676D01*
X18041189Y-13502676D02*
X18088808Y-13597914D01*
X18088808Y-13597914D02*
X18136427Y-13788390D01*
X18136427Y-13788390D02*
X18136427Y-13931247D01*
X18136427Y-13931247D02*
X18088808Y-14121723D01*
X18088808Y-14121723D02*
X18041189Y-14216961D01*
X18041189Y-14216961D02*
X17945951Y-14312200D01*
X17945951Y-14312200D02*
X17803094Y-14359819D01*
X17803094Y-14359819D02*
X17564999Y-14359819D01*
X18326904Y-14455057D02*
X19088808Y-14455057D01*
X19803094Y-14359819D02*
X19326904Y-14359819D01*
X19326904Y-14359819D02*
X19326904Y-13359819D01*
X20136428Y-13836009D02*
X20469761Y-13836009D01*
X20612618Y-14359819D02*
X20136428Y-14359819D01*
X20136428Y-14359819D02*
X20136428Y-13359819D01*
X20136428Y-13359819D02*
X20612618Y-13359819D01*
X21041190Y-14359819D02*
X21041190Y-13359819D01*
X21041190Y-13359819D02*
X21279285Y-13359819D01*
X21279285Y-13359819D02*
X21422142Y-13407438D01*
X21422142Y-13407438D02*
X21517380Y-13502676D01*
X21517380Y-13502676D02*
X21564999Y-13597914D01*
X21564999Y-13597914D02*
X21612618Y-13788390D01*
X21612618Y-13788390D02*
X21612618Y-13931247D01*
X21612618Y-13931247D02*
X21564999Y-14121723D01*
X21564999Y-14121723D02*
X21517380Y-14216961D01*
X21517380Y-14216961D02*
X21422142Y-14312200D01*
X21422142Y-14312200D02*
X21279285Y-14359819D01*
X21279285Y-14359819D02*
X21041190Y-14359819D01*
X71480714Y-28099819D02*
X71480714Y-27099819D01*
X71480714Y-27099819D02*
X71718809Y-27099819D01*
X71718809Y-27099819D02*
X71861666Y-27147438D01*
X71861666Y-27147438D02*
X71956904Y-27242676D01*
X71956904Y-27242676D02*
X72004523Y-27337914D01*
X72004523Y-27337914D02*
X72052142Y-27528390D01*
X72052142Y-27528390D02*
X72052142Y-27671247D01*
X72052142Y-27671247D02*
X72004523Y-27861723D01*
X72004523Y-27861723D02*
X71956904Y-27956961D01*
X71956904Y-27956961D02*
X71861666Y-28052200D01*
X71861666Y-28052200D02*
X71718809Y-28099819D01*
X71718809Y-28099819D02*
X71480714Y-28099819D01*
X72242619Y-28195057D02*
X73004523Y-28195057D01*
X73099762Y-27099819D02*
X73433095Y-28099819D01*
X73433095Y-28099819D02*
X73766428Y-27099819D01*
X74099762Y-28099819D02*
X74099762Y-27099819D01*
X74099762Y-27099819D02*
X74433095Y-27814104D01*
X74433095Y-27814104D02*
X74766428Y-27099819D01*
X74766428Y-27099819D02*
X74766428Y-28099819D01*
X75433095Y-27099819D02*
X75623571Y-27099819D01*
X75623571Y-27099819D02*
X75718809Y-27147438D01*
X75718809Y-27147438D02*
X75814047Y-27242676D01*
X75814047Y-27242676D02*
X75861666Y-27433152D01*
X75861666Y-27433152D02*
X75861666Y-27766485D01*
X75861666Y-27766485D02*
X75814047Y-27956961D01*
X75814047Y-27956961D02*
X75718809Y-28052200D01*
X75718809Y-28052200D02*
X75623571Y-28099819D01*
X75623571Y-28099819D02*
X75433095Y-28099819D01*
X75433095Y-28099819D02*
X75337857Y-28052200D01*
X75337857Y-28052200D02*
X75242619Y-27956961D01*
X75242619Y-27956961D02*
X75195000Y-27766485D01*
X75195000Y-27766485D02*
X75195000Y-27433152D01*
X75195000Y-27433152D02*
X75242619Y-27242676D01*
X75242619Y-27242676D02*
X75337857Y-27147438D01*
X75337857Y-27147438D02*
X75433095Y-27099819D01*
X76147381Y-27099819D02*
X76718809Y-27099819D01*
X76433095Y-28099819D02*
X76433095Y-27099819D01*
X76814048Y-28195057D02*
X77575952Y-28195057D01*
X77671191Y-27099819D02*
X78242619Y-27099819D01*
X77956905Y-28099819D02*
X77956905Y-27099819D01*
X78433096Y-27099819D02*
X78766429Y-28099819D01*
X78766429Y-28099819D02*
X79099762Y-27099819D01*
X79385477Y-28052200D02*
X79528334Y-28099819D01*
X79528334Y-28099819D02*
X79766429Y-28099819D01*
X79766429Y-28099819D02*
X79861667Y-28052200D01*
X79861667Y-28052200D02*
X79909286Y-28004580D01*
X79909286Y-28004580D02*
X79956905Y-27909342D01*
X79956905Y-27909342D02*
X79956905Y-27814104D01*
X79956905Y-27814104D02*
X79909286Y-27718866D01*
X79909286Y-27718866D02*
X79861667Y-27671247D01*
X79861667Y-27671247D02*
X79766429Y-27623628D01*
X79766429Y-27623628D02*
X79575953Y-27576009D01*
X79575953Y-27576009D02*
X79480715Y-27528390D01*
X79480715Y-27528390D02*
X79433096Y-27480771D01*
X79433096Y-27480771D02*
X79385477Y-27385533D01*
X79385477Y-27385533D02*
X79385477Y-27290295D01*
X79385477Y-27290295D02*
X79433096Y-27195057D01*
X79433096Y-27195057D02*
X79480715Y-27147438D01*
X79480715Y-27147438D02*
X79575953Y-27099819D01*
X79575953Y-27099819D02*
X79814048Y-27099819D01*
X79814048Y-27099819D02*
X79956905Y-27147438D01*
X81926189Y-49709818D02*
X81926189Y-50424103D01*
X81926189Y-50424103D02*
X81878570Y-50566960D01*
X81878570Y-50566960D02*
X81783332Y-50662199D01*
X81783332Y-50662199D02*
X81640475Y-50709818D01*
X81640475Y-50709818D02*
X81545237Y-50709818D01*
X82164285Y-50805056D02*
X82926189Y-50805056D01*
X83164285Y-50709818D02*
X83164285Y-49709818D01*
X83164285Y-50186008D02*
X83735713Y-50186008D01*
X83735713Y-50709818D02*
X83735713Y-49709818D01*
X84211904Y-50186008D02*
X84545237Y-50186008D01*
X84688094Y-50709818D02*
X84211904Y-50709818D01*
X84211904Y-50709818D02*
X84211904Y-49709818D01*
X84211904Y-49709818D02*
X84688094Y-49709818D01*
X85069047Y-50424103D02*
X85545237Y-50424103D01*
X84973809Y-50709818D02*
X85307142Y-49709818D01*
X85307142Y-49709818D02*
X85640475Y-50709818D01*
X85830952Y-49709818D02*
X86402380Y-49709818D01*
X86116666Y-50709818D02*
X86116666Y-49709818D01*
X32657266Y-18693890D02*
X32657266Y-18122462D01*
X33657266Y-18408176D02*
X32657266Y-18408176D01*
X33657266Y-17789128D02*
X32657266Y-17789128D01*
X32657266Y-17789128D02*
X32657266Y-17408176D01*
X32657266Y-17408176D02*
X32704885Y-17312938D01*
X32704885Y-17312938D02*
X32752504Y-17265319D01*
X32752504Y-17265319D02*
X32847742Y-17217700D01*
X32847742Y-17217700D02*
X32990599Y-17217700D01*
X32990599Y-17217700D02*
X33085837Y-17265319D01*
X33085837Y-17265319D02*
X33133456Y-17312938D01*
X33133456Y-17312938D02*
X33181075Y-17408176D01*
X33181075Y-17408176D02*
X33181075Y-17789128D01*
X33752504Y-17027224D02*
X33752504Y-16265319D01*
X32657266Y-16122461D02*
X32657266Y-15503414D01*
X32657266Y-15503414D02*
X33038218Y-15836747D01*
X33038218Y-15836747D02*
X33038218Y-15693890D01*
X33038218Y-15693890D02*
X33085837Y-15598652D01*
X33085837Y-15598652D02*
X33133456Y-15551033D01*
X33133456Y-15551033D02*
X33228694Y-15503414D01*
X33228694Y-15503414D02*
X33466789Y-15503414D01*
X33466789Y-15503414D02*
X33562027Y-15551033D01*
X33562027Y-15551033D02*
X33609647Y-15598652D01*
X33609647Y-15598652D02*
X33657266Y-15693890D01*
X33657266Y-15693890D02*
X33657266Y-15979604D01*
X33657266Y-15979604D02*
X33609647Y-16074842D01*
X33609647Y-16074842D02*
X33562027Y-16122461D01*
X32657266Y-15217699D02*
X33657266Y-14884366D01*
X33657266Y-14884366D02*
X32657266Y-14551033D01*
X32657266Y-14312937D02*
X32657266Y-13693890D01*
X32657266Y-13693890D02*
X33038218Y-14027223D01*
X33038218Y-14027223D02*
X33038218Y-13884366D01*
X33038218Y-13884366D02*
X33085837Y-13789128D01*
X33085837Y-13789128D02*
X33133456Y-13741509D01*
X33133456Y-13741509D02*
X33228694Y-13693890D01*
X33228694Y-13693890D02*
X33466789Y-13693890D01*
X33466789Y-13693890D02*
X33562027Y-13741509D01*
X33562027Y-13741509D02*
X33609647Y-13789128D01*
X33609647Y-13789128D02*
X33657266Y-13884366D01*
X33657266Y-13884366D02*
X33657266Y-14170080D01*
X33657266Y-14170080D02*
X33609647Y-14265318D01*
X33609647Y-14265318D02*
X33562027Y-14312937D01*
X20896903Y-10269819D02*
X20896903Y-10984104D01*
X20896903Y-10984104D02*
X20849284Y-11126961D01*
X20849284Y-11126961D02*
X20754046Y-11222200D01*
X20754046Y-11222200D02*
X20611189Y-11269819D01*
X20611189Y-11269819D02*
X20515951Y-11269819D01*
X21134999Y-11365057D02*
X21896903Y-11365057D01*
X22134999Y-10269819D02*
X22134999Y-11079342D01*
X22134999Y-11079342D02*
X22182618Y-11174580D01*
X22182618Y-11174580D02*
X22230237Y-11222200D01*
X22230237Y-11222200D02*
X22325475Y-11269819D01*
X22325475Y-11269819D02*
X22515951Y-11269819D01*
X22515951Y-11269819D02*
X22611189Y-11222200D01*
X22611189Y-11222200D02*
X22658808Y-11174580D01*
X22658808Y-11174580D02*
X22706427Y-11079342D01*
X22706427Y-11079342D02*
X22706427Y-10269819D01*
X23134999Y-11222200D02*
X23277856Y-11269819D01*
X23277856Y-11269819D02*
X23515951Y-11269819D01*
X23515951Y-11269819D02*
X23611189Y-11222200D01*
X23611189Y-11222200D02*
X23658808Y-11174580D01*
X23658808Y-11174580D02*
X23706427Y-11079342D01*
X23706427Y-11079342D02*
X23706427Y-10984104D01*
X23706427Y-10984104D02*
X23658808Y-10888866D01*
X23658808Y-10888866D02*
X23611189Y-10841247D01*
X23611189Y-10841247D02*
X23515951Y-10793628D01*
X23515951Y-10793628D02*
X23325475Y-10746009D01*
X23325475Y-10746009D02*
X23230237Y-10698390D01*
X23230237Y-10698390D02*
X23182618Y-10650771D01*
X23182618Y-10650771D02*
X23134999Y-10555533D01*
X23134999Y-10555533D02*
X23134999Y-10460295D01*
X23134999Y-10460295D02*
X23182618Y-10365057D01*
X23182618Y-10365057D02*
X23230237Y-10317438D01*
X23230237Y-10317438D02*
X23325475Y-10269819D01*
X23325475Y-10269819D02*
X23563570Y-10269819D01*
X23563570Y-10269819D02*
X23706427Y-10317438D01*
X24468332Y-10746009D02*
X24611189Y-10793628D01*
X24611189Y-10793628D02*
X24658808Y-10841247D01*
X24658808Y-10841247D02*
X24706427Y-10936485D01*
X24706427Y-10936485D02*
X24706427Y-11079342D01*
X24706427Y-11079342D02*
X24658808Y-11174580D01*
X24658808Y-11174580D02*
X24611189Y-11222200D01*
X24611189Y-11222200D02*
X24515951Y-11269819D01*
X24515951Y-11269819D02*
X24134999Y-11269819D01*
X24134999Y-11269819D02*
X24134999Y-10269819D01*
X24134999Y-10269819D02*
X24468332Y-10269819D01*
X24468332Y-10269819D02*
X24563570Y-10317438D01*
X24563570Y-10317438D02*
X24611189Y-10365057D01*
X24611189Y-10365057D02*
X24658808Y-10460295D01*
X24658808Y-10460295D02*
X24658808Y-10555533D01*
X24658808Y-10555533D02*
X24611189Y-10650771D01*
X24611189Y-10650771D02*
X24563570Y-10698390D01*
X24563570Y-10698390D02*
X24468332Y-10746009D01*
X24468332Y-10746009D02*
X24134999Y-10746009D01*
X81382141Y-6389819D02*
X81382141Y-7104104D01*
X81382141Y-7104104D02*
X81334522Y-7246961D01*
X81334522Y-7246961D02*
X81239284Y-7342200D01*
X81239284Y-7342200D02*
X81096427Y-7389819D01*
X81096427Y-7389819D02*
X81001189Y-7389819D01*
X81620237Y-7485057D02*
X82382141Y-7485057D01*
X82477380Y-6389819D02*
X82810713Y-7389819D01*
X82810713Y-7389819D02*
X83144046Y-6389819D01*
X83477380Y-7389819D02*
X83477380Y-6389819D01*
X83477380Y-6389819D02*
X83810713Y-7104104D01*
X83810713Y-7104104D02*
X84144046Y-6389819D01*
X84144046Y-6389819D02*
X84144046Y-7389819D01*
X84810713Y-6389819D02*
X85001189Y-6389819D01*
X85001189Y-6389819D02*
X85096427Y-6437438D01*
X85096427Y-6437438D02*
X85191665Y-6532676D01*
X85191665Y-6532676D02*
X85239284Y-6723152D01*
X85239284Y-6723152D02*
X85239284Y-7056485D01*
X85239284Y-7056485D02*
X85191665Y-7246961D01*
X85191665Y-7246961D02*
X85096427Y-7342200D01*
X85096427Y-7342200D02*
X85001189Y-7389819D01*
X85001189Y-7389819D02*
X84810713Y-7389819D01*
X84810713Y-7389819D02*
X84715475Y-7342200D01*
X84715475Y-7342200D02*
X84620237Y-7246961D01*
X84620237Y-7246961D02*
X84572618Y-7056485D01*
X84572618Y-7056485D02*
X84572618Y-6723152D01*
X84572618Y-6723152D02*
X84620237Y-6532676D01*
X84620237Y-6532676D02*
X84715475Y-6437438D01*
X84715475Y-6437438D02*
X84810713Y-6389819D01*
X85524999Y-6389819D02*
X86096427Y-6389819D01*
X85810713Y-7389819D02*
X85810713Y-6389819D01*
X55795476Y-30999819D02*
X55795476Y-31809342D01*
X55795476Y-31809342D02*
X55843095Y-31904580D01*
X55843095Y-31904580D02*
X55890714Y-31952200D01*
X55890714Y-31952200D02*
X55985952Y-31999819D01*
X55985952Y-31999819D02*
X56176428Y-31999819D01*
X56176428Y-31999819D02*
X56271666Y-31952200D01*
X56271666Y-31952200D02*
X56319285Y-31904580D01*
X56319285Y-31904580D02*
X56366904Y-31809342D01*
X56366904Y-31809342D02*
X56366904Y-30999819D01*
X56605000Y-32095057D02*
X57366904Y-32095057D01*
X57605000Y-31999819D02*
X57605000Y-30999819D01*
X57605000Y-30999819D02*
X57985952Y-30999819D01*
X57985952Y-30999819D02*
X58081190Y-31047438D01*
X58081190Y-31047438D02*
X58128809Y-31095057D01*
X58128809Y-31095057D02*
X58176428Y-31190295D01*
X58176428Y-31190295D02*
X58176428Y-31333152D01*
X58176428Y-31333152D02*
X58128809Y-31428390D01*
X58128809Y-31428390D02*
X58081190Y-31476009D01*
X58081190Y-31476009D02*
X57985952Y-31523628D01*
X57985952Y-31523628D02*
X57605000Y-31523628D01*
X58509762Y-30999819D02*
X58747857Y-31999819D01*
X58747857Y-31999819D02*
X58938333Y-31285533D01*
X58938333Y-31285533D02*
X59128809Y-31999819D01*
X59128809Y-31999819D02*
X59366905Y-30999819D01*
X59747857Y-31999819D02*
X59747857Y-30999819D01*
X59747857Y-30999819D02*
X60081190Y-31714104D01*
X60081190Y-31714104D02*
X60414523Y-30999819D01*
X60414523Y-30999819D02*
X60414523Y-31999819D01*
X66402140Y-27801091D02*
X66973568Y-27801091D01*
X66687854Y-28801091D02*
X66687854Y-27801091D01*
X67306902Y-28801091D02*
X67306902Y-27801091D01*
X67306902Y-27801091D02*
X67687854Y-27801091D01*
X67687854Y-27801091D02*
X67783092Y-27848710D01*
X67783092Y-27848710D02*
X67830711Y-27896329D01*
X67830711Y-27896329D02*
X67878330Y-27991567D01*
X67878330Y-27991567D02*
X67878330Y-28134424D01*
X67878330Y-28134424D02*
X67830711Y-28229662D01*
X67830711Y-28229662D02*
X67783092Y-28277281D01*
X67783092Y-28277281D02*
X67687854Y-28324900D01*
X67687854Y-28324900D02*
X67306902Y-28324900D01*
X68068807Y-28896329D02*
X68830711Y-28896329D01*
X69259283Y-27801091D02*
X69449759Y-27801091D01*
X69449759Y-27801091D02*
X69544997Y-27848710D01*
X69544997Y-27848710D02*
X69640235Y-27943948D01*
X69640235Y-27943948D02*
X69687854Y-28134424D01*
X69687854Y-28134424D02*
X69687854Y-28467757D01*
X69687854Y-28467757D02*
X69640235Y-28658233D01*
X69640235Y-28658233D02*
X69544997Y-28753472D01*
X69544997Y-28753472D02*
X69449759Y-28801091D01*
X69449759Y-28801091D02*
X69259283Y-28801091D01*
X69259283Y-28801091D02*
X69164045Y-28753472D01*
X69164045Y-28753472D02*
X69068807Y-28658233D01*
X69068807Y-28658233D02*
X69021188Y-28467757D01*
X69021188Y-28467757D02*
X69021188Y-28134424D01*
X69021188Y-28134424D02*
X69068807Y-27943948D01*
X69068807Y-27943948D02*
X69164045Y-27848710D01*
X69164045Y-27848710D02*
X69259283Y-27801091D01*
X70116426Y-28277281D02*
X70449759Y-28277281D01*
X70592616Y-28801091D02*
X70116426Y-28801091D01*
X70116426Y-28801091D02*
X70116426Y-27801091D01*
X70116426Y-27801091D02*
X70592616Y-27801091D01*
X79445625Y-4454819D02*
X79445625Y-3454819D01*
X79445625Y-3931009D02*
X80017053Y-3931009D01*
X80017053Y-4454819D02*
X80017053Y-3454819D01*
X80398006Y-3454819D02*
X81017053Y-3454819D01*
X81017053Y-3454819D02*
X80683720Y-3835771D01*
X80683720Y-3835771D02*
X80826577Y-3835771D01*
X80826577Y-3835771D02*
X80921815Y-3883390D01*
X80921815Y-3883390D02*
X80969434Y-3931009D01*
X80969434Y-3931009D02*
X81017053Y-4026247D01*
X81017053Y-4026247D02*
X81017053Y-4264342D01*
X81017053Y-4264342D02*
X80969434Y-4359580D01*
X80969434Y-4359580D02*
X80921815Y-4407200D01*
X80921815Y-4407200D02*
X80826577Y-4454819D01*
X80826577Y-4454819D02*
X80540863Y-4454819D01*
X80540863Y-4454819D02*
X80445625Y-4407200D01*
X80445625Y-4407200D02*
X80398006Y-4359580D01*
X74214285Y-50095056D02*
X74119047Y-50047437D01*
X74119047Y-50047437D02*
X74023809Y-49952199D01*
X74023809Y-49952199D02*
X73880952Y-49809341D01*
X73880952Y-49809341D02*
X73785714Y-49761722D01*
X73785714Y-49761722D02*
X73690476Y-49761722D01*
X73738095Y-49999818D02*
X73642857Y-49952199D01*
X73642857Y-49952199D02*
X73547619Y-49856960D01*
X73547619Y-49856960D02*
X73500000Y-49666484D01*
X73500000Y-49666484D02*
X73500000Y-49333151D01*
X73500000Y-49333151D02*
X73547619Y-49142675D01*
X73547619Y-49142675D02*
X73642857Y-49047437D01*
X73642857Y-49047437D02*
X73738095Y-48999818D01*
X73738095Y-48999818D02*
X73928571Y-48999818D01*
X73928571Y-48999818D02*
X74023809Y-49047437D01*
X74023809Y-49047437D02*
X74119047Y-49142675D01*
X74119047Y-49142675D02*
X74166666Y-49333151D01*
X74166666Y-49333151D02*
X74166666Y-49666484D01*
X74166666Y-49666484D02*
X74119047Y-49856960D01*
X74119047Y-49856960D02*
X74023809Y-49952199D01*
X74023809Y-49952199D02*
X73928571Y-49999818D01*
X73928571Y-49999818D02*
X73738095Y-49999818D01*
X74357143Y-50095056D02*
X75119047Y-50095056D01*
X75357143Y-49999818D02*
X75357143Y-48999818D01*
X75357143Y-49476008D02*
X75928571Y-49476008D01*
X75928571Y-49999818D02*
X75928571Y-48999818D01*
X76404762Y-49476008D02*
X76738095Y-49476008D01*
X76880952Y-49999818D02*
X76404762Y-49999818D01*
X76404762Y-49999818D02*
X76404762Y-48999818D01*
X76404762Y-48999818D02*
X76880952Y-48999818D01*
X77261905Y-49714103D02*
X77738095Y-49714103D01*
X77166667Y-49999818D02*
X77500000Y-48999818D01*
X77500000Y-48999818D02*
X77833333Y-49999818D01*
X78023810Y-48999818D02*
X78595238Y-48999818D01*
X78309524Y-49999818D02*
X78309524Y-48999818D01*
X43849818Y-11690475D02*
X44659341Y-11690475D01*
X44659341Y-11690475D02*
X44754579Y-11642856D01*
X44754579Y-11642856D02*
X44802199Y-11595237D01*
X44802199Y-11595237D02*
X44849818Y-11499999D01*
X44849818Y-11499999D02*
X44849818Y-11309523D01*
X44849818Y-11309523D02*
X44802199Y-11214285D01*
X44802199Y-11214285D02*
X44754579Y-11166666D01*
X44754579Y-11166666D02*
X44659341Y-11119047D01*
X44659341Y-11119047D02*
X43849818Y-11119047D01*
X44945056Y-10880952D02*
X44945056Y-10119047D01*
X44326008Y-9547618D02*
X44373627Y-9404761D01*
X44373627Y-9404761D02*
X44421246Y-9357142D01*
X44421246Y-9357142D02*
X44516484Y-9309523D01*
X44516484Y-9309523D02*
X44659341Y-9309523D01*
X44659341Y-9309523D02*
X44754579Y-9357142D01*
X44754579Y-9357142D02*
X44802199Y-9404761D01*
X44802199Y-9404761D02*
X44849818Y-9499999D01*
X44849818Y-9499999D02*
X44849818Y-9880951D01*
X44849818Y-9880951D02*
X43849818Y-9880951D01*
X43849818Y-9880951D02*
X43849818Y-9547618D01*
X43849818Y-9547618D02*
X43897437Y-9452380D01*
X43897437Y-9452380D02*
X43945056Y-9404761D01*
X43945056Y-9404761D02*
X44040294Y-9357142D01*
X44040294Y-9357142D02*
X44135532Y-9357142D01*
X44135532Y-9357142D02*
X44230770Y-9404761D01*
X44230770Y-9404761D02*
X44278389Y-9452380D01*
X44278389Y-9452380D02*
X44326008Y-9547618D01*
X44326008Y-9547618D02*
X44326008Y-9880951D01*
X43849818Y-8880951D02*
X44659341Y-8880951D01*
X44659341Y-8880951D02*
X44754579Y-8833332D01*
X44754579Y-8833332D02*
X44802199Y-8785713D01*
X44802199Y-8785713D02*
X44849818Y-8690475D01*
X44849818Y-8690475D02*
X44849818Y-8499999D01*
X44849818Y-8499999D02*
X44802199Y-8404761D01*
X44802199Y-8404761D02*
X44754579Y-8357142D01*
X44754579Y-8357142D02*
X44659341Y-8309523D01*
X44659341Y-8309523D02*
X43849818Y-8309523D01*
X44754579Y-7261904D02*
X44802199Y-7309523D01*
X44802199Y-7309523D02*
X44849818Y-7452380D01*
X44849818Y-7452380D02*
X44849818Y-7547618D01*
X44849818Y-7547618D02*
X44802199Y-7690475D01*
X44802199Y-7690475D02*
X44706960Y-7785713D01*
X44706960Y-7785713D02*
X44611722Y-7833332D01*
X44611722Y-7833332D02*
X44421246Y-7880951D01*
X44421246Y-7880951D02*
X44278389Y-7880951D01*
X44278389Y-7880951D02*
X44087913Y-7833332D01*
X44087913Y-7833332D02*
X43992675Y-7785713D01*
X43992675Y-7785713D02*
X43897437Y-7690475D01*
X43897437Y-7690475D02*
X43849818Y-7547618D01*
X43849818Y-7547618D02*
X43849818Y-7452380D01*
X43849818Y-7452380D02*
X43897437Y-7309523D01*
X43897437Y-7309523D02*
X43945056Y-7261904D01*
X44849818Y-6833332D02*
X43849818Y-6833332D01*
X44849818Y-6261904D02*
X44278389Y-6690475D01*
X43849818Y-6261904D02*
X44421246Y-6833332D01*
X61285713Y-51409819D02*
X61285713Y-52124104D01*
X61285713Y-52124104D02*
X61238094Y-52266961D01*
X61238094Y-52266961D02*
X61142856Y-52362200D01*
X61142856Y-52362200D02*
X60999999Y-52409819D01*
X60999999Y-52409819D02*
X60904761Y-52409819D01*
X61523809Y-52505057D02*
X62285713Y-52505057D01*
X62476190Y-52362200D02*
X62619047Y-52409819D01*
X62619047Y-52409819D02*
X62857142Y-52409819D01*
X62857142Y-52409819D02*
X62952380Y-52362200D01*
X62952380Y-52362200D02*
X62999999Y-52314580D01*
X62999999Y-52314580D02*
X63047618Y-52219342D01*
X63047618Y-52219342D02*
X63047618Y-52124104D01*
X63047618Y-52124104D02*
X62999999Y-52028866D01*
X62999999Y-52028866D02*
X62952380Y-51981247D01*
X62952380Y-51981247D02*
X62857142Y-51933628D01*
X62857142Y-51933628D02*
X62666666Y-51886009D01*
X62666666Y-51886009D02*
X62571428Y-51838390D01*
X62571428Y-51838390D02*
X62523809Y-51790771D01*
X62523809Y-51790771D02*
X62476190Y-51695533D01*
X62476190Y-51695533D02*
X62476190Y-51600295D01*
X62476190Y-51600295D02*
X62523809Y-51505057D01*
X62523809Y-51505057D02*
X62571428Y-51457438D01*
X62571428Y-51457438D02*
X62666666Y-51409819D01*
X62666666Y-51409819D02*
X62904761Y-51409819D01*
X62904761Y-51409819D02*
X63047618Y-51457438D01*
X63476190Y-52409819D02*
X63476190Y-51409819D01*
X63476190Y-51409819D02*
X63857142Y-51409819D01*
X63857142Y-51409819D02*
X63952380Y-51457438D01*
X63952380Y-51457438D02*
X63999999Y-51505057D01*
X63999999Y-51505057D02*
X64047618Y-51600295D01*
X64047618Y-51600295D02*
X64047618Y-51743152D01*
X64047618Y-51743152D02*
X63999999Y-51838390D01*
X63999999Y-51838390D02*
X63952380Y-51886009D01*
X63952380Y-51886009D02*
X63857142Y-51933628D01*
X63857142Y-51933628D02*
X63476190Y-51933628D01*
X64476190Y-52409819D02*
X64476190Y-51409819D01*
X65047618Y-52409819D02*
X64619047Y-51838390D01*
X65047618Y-51409819D02*
X64476190Y-51981247D01*
X61629762Y-47454819D02*
X61629762Y-48264342D01*
X61629762Y-48264342D02*
X61677381Y-48359580D01*
X61677381Y-48359580D02*
X61725000Y-48407200D01*
X61725000Y-48407200D02*
X61820238Y-48454819D01*
X61820238Y-48454819D02*
X62010714Y-48454819D01*
X62010714Y-48454819D02*
X62105952Y-48407200D01*
X62105952Y-48407200D02*
X62153571Y-48359580D01*
X62153571Y-48359580D02*
X62201190Y-48264342D01*
X62201190Y-48264342D02*
X62201190Y-47454819D01*
X62439286Y-48550057D02*
X63201190Y-48550057D01*
X63391667Y-48169104D02*
X63867857Y-48169104D01*
X63296429Y-48454819D02*
X63629762Y-47454819D01*
X63629762Y-47454819D02*
X63963095Y-48454819D01*
X64296429Y-48454819D02*
X64296429Y-47454819D01*
X64296429Y-47454819D02*
X64534524Y-47454819D01*
X64534524Y-47454819D02*
X64677381Y-47502438D01*
X64677381Y-47502438D02*
X64772619Y-47597676D01*
X64772619Y-47597676D02*
X64820238Y-47692914D01*
X64820238Y-47692914D02*
X64867857Y-47883390D01*
X64867857Y-47883390D02*
X64867857Y-48026247D01*
X64867857Y-48026247D02*
X64820238Y-48216723D01*
X64820238Y-48216723D02*
X64772619Y-48311961D01*
X64772619Y-48311961D02*
X64677381Y-48407200D01*
X64677381Y-48407200D02*
X64534524Y-48454819D01*
X64534524Y-48454819D02*
X64296429Y-48454819D01*
X65867857Y-48359580D02*
X65820238Y-48407200D01*
X65820238Y-48407200D02*
X65677381Y-48454819D01*
X65677381Y-48454819D02*
X65582143Y-48454819D01*
X65582143Y-48454819D02*
X65439286Y-48407200D01*
X65439286Y-48407200D02*
X65344048Y-48311961D01*
X65344048Y-48311961D02*
X65296429Y-48216723D01*
X65296429Y-48216723D02*
X65248810Y-48026247D01*
X65248810Y-48026247D02*
X65248810Y-47883390D01*
X65248810Y-47883390D02*
X65296429Y-47692914D01*
X65296429Y-47692914D02*
X65344048Y-47597676D01*
X65344048Y-47597676D02*
X65439286Y-47502438D01*
X65439286Y-47502438D02*
X65582143Y-47454819D01*
X65582143Y-47454819D02*
X65677381Y-47454819D01*
X65677381Y-47454819D02*
X65820238Y-47502438D01*
X65820238Y-47502438D02*
X65867857Y-47550057D01*
X79445625Y-56454819D02*
X79445625Y-55454819D01*
X79445625Y-55931009D02*
X80017053Y-55931009D01*
X80017053Y-56454819D02*
X80017053Y-55454819D01*
X80921815Y-55788152D02*
X80921815Y-56454819D01*
X80683720Y-55407200D02*
X80445625Y-56121485D01*
X80445625Y-56121485D02*
X81064672Y-56121485D01*
X44000000Y-25959819D02*
X44000000Y-26769342D01*
X44000000Y-26769342D02*
X44047619Y-26864580D01*
X44047619Y-26864580D02*
X44095238Y-26912200D01*
X44095238Y-26912200D02*
X44190476Y-26959819D01*
X44190476Y-26959819D02*
X44380952Y-26959819D01*
X44380952Y-26959819D02*
X44476190Y-26912200D01*
X44476190Y-26912200D02*
X44523809Y-26864580D01*
X44523809Y-26864580D02*
X44571428Y-26769342D01*
X44571428Y-26769342D02*
X44571428Y-25959819D01*
X44809524Y-27055057D02*
X45571428Y-27055057D01*
X45809524Y-26959819D02*
X45809524Y-25959819D01*
X46285714Y-26959819D02*
X46285714Y-25959819D01*
X46285714Y-25959819D02*
X46619047Y-26674104D01*
X46619047Y-26674104D02*
X46952380Y-25959819D01*
X46952380Y-25959819D02*
X46952380Y-26959819D01*
X47428571Y-25959819D02*
X47428571Y-26769342D01*
X47428571Y-26769342D02*
X47476190Y-26864580D01*
X47476190Y-26864580D02*
X47523809Y-26912200D01*
X47523809Y-26912200D02*
X47619047Y-26959819D01*
X47619047Y-26959819D02*
X47809523Y-26959819D01*
X47809523Y-26959819D02*
X47904761Y-26912200D01*
X47904761Y-26912200D02*
X47952380Y-26864580D01*
X47952380Y-26864580D02*
X47999999Y-26769342D01*
X47999999Y-26769342D02*
X47999999Y-25959819D01*
X52096190Y-9569819D02*
X52096190Y-10284104D01*
X52096190Y-10284104D02*
X52048571Y-10426961D01*
X52048571Y-10426961D02*
X51953333Y-10522200D01*
X51953333Y-10522200D02*
X51810476Y-10569819D01*
X51810476Y-10569819D02*
X51715238Y-10569819D01*
X52334286Y-10665057D02*
X53096190Y-10665057D01*
X53810476Y-10569819D02*
X53334286Y-10569819D01*
X53334286Y-10569819D02*
X53334286Y-9569819D01*
X54715238Y-10474580D02*
X54667619Y-10522200D01*
X54667619Y-10522200D02*
X54524762Y-10569819D01*
X54524762Y-10569819D02*
X54429524Y-10569819D01*
X54429524Y-10569819D02*
X54286667Y-10522200D01*
X54286667Y-10522200D02*
X54191429Y-10426961D01*
X54191429Y-10426961D02*
X54143810Y-10331723D01*
X54143810Y-10331723D02*
X54096191Y-10141247D01*
X54096191Y-10141247D02*
X54096191Y-9998390D01*
X54096191Y-9998390D02*
X54143810Y-9807914D01*
X54143810Y-9807914D02*
X54191429Y-9712676D01*
X54191429Y-9712676D02*
X54286667Y-9617438D01*
X54286667Y-9617438D02*
X54429524Y-9569819D01*
X54429524Y-9569819D02*
X54524762Y-9569819D01*
X54524762Y-9569819D02*
X54667619Y-9617438D01*
X54667619Y-9617438D02*
X54715238Y-9665057D01*
X55143810Y-10569819D02*
X55143810Y-9569819D01*
X55143810Y-9569819D02*
X55381905Y-9569819D01*
X55381905Y-9569819D02*
X55524762Y-9617438D01*
X55524762Y-9617438D02*
X55620000Y-9712676D01*
X55620000Y-9712676D02*
X55667619Y-9807914D01*
X55667619Y-9807914D02*
X55715238Y-9998390D01*
X55715238Y-9998390D02*
X55715238Y-10141247D01*
X55715238Y-10141247D02*
X55667619Y-10331723D01*
X55667619Y-10331723D02*
X55620000Y-10426961D01*
X55620000Y-10426961D02*
X55524762Y-10522200D01*
X55524762Y-10522200D02*
X55381905Y-10569819D01*
X55381905Y-10569819D02*
X55143810Y-10569819D01*
X55905715Y-10665057D02*
X56667619Y-10665057D01*
X57477143Y-10569819D02*
X57143810Y-10093628D01*
X56905715Y-10569819D02*
X56905715Y-9569819D01*
X56905715Y-9569819D02*
X57286667Y-9569819D01*
X57286667Y-9569819D02*
X57381905Y-9617438D01*
X57381905Y-9617438D02*
X57429524Y-9665057D01*
X57429524Y-9665057D02*
X57477143Y-9760295D01*
X57477143Y-9760295D02*
X57477143Y-9903152D01*
X57477143Y-9903152D02*
X57429524Y-9998390D01*
X57429524Y-9998390D02*
X57381905Y-10046009D01*
X57381905Y-10046009D02*
X57286667Y-10093628D01*
X57286667Y-10093628D02*
X56905715Y-10093628D01*
X73357142Y-51409819D02*
X73357142Y-52124104D01*
X73357142Y-52124104D02*
X73309523Y-52266961D01*
X73309523Y-52266961D02*
X73214285Y-52362200D01*
X73214285Y-52362200D02*
X73071428Y-52409819D01*
X73071428Y-52409819D02*
X72976190Y-52409819D01*
X73595238Y-52505057D02*
X74357142Y-52505057D01*
X74595238Y-52409819D02*
X74595238Y-51409819D01*
X74595238Y-51409819D02*
X75166666Y-52409819D01*
X75166666Y-52409819D02*
X75166666Y-51409819D01*
X75500000Y-51409819D02*
X76071428Y-51409819D01*
X75785714Y-52409819D02*
X75785714Y-51409819D01*
X76976190Y-52314580D02*
X76928571Y-52362200D01*
X76928571Y-52362200D02*
X76785714Y-52409819D01*
X76785714Y-52409819D02*
X76690476Y-52409819D01*
X76690476Y-52409819D02*
X76547619Y-52362200D01*
X76547619Y-52362200D02*
X76452381Y-52266961D01*
X76452381Y-52266961D02*
X76404762Y-52171723D01*
X76404762Y-52171723D02*
X76357143Y-51981247D01*
X76357143Y-51981247D02*
X76357143Y-51838390D01*
X76357143Y-51838390D02*
X76404762Y-51647914D01*
X76404762Y-51647914D02*
X76452381Y-51552676D01*
X76452381Y-51552676D02*
X76547619Y-51457438D01*
X76547619Y-51457438D02*
X76690476Y-51409819D01*
X76690476Y-51409819D02*
X76785714Y-51409819D01*
X76785714Y-51409819D02*
X76928571Y-51457438D01*
X76928571Y-51457438D02*
X76976190Y-51505057D01*
X46506904Y-47419819D02*
X46506904Y-48134104D01*
X46506904Y-48134104D02*
X46459285Y-48276961D01*
X46459285Y-48276961D02*
X46364047Y-48372200D01*
X46364047Y-48372200D02*
X46221190Y-48419819D01*
X46221190Y-48419819D02*
X46125952Y-48419819D01*
X46745000Y-48515057D02*
X47506904Y-48515057D01*
X48316428Y-48324580D02*
X48268809Y-48372200D01*
X48268809Y-48372200D02*
X48125952Y-48419819D01*
X48125952Y-48419819D02*
X48030714Y-48419819D01*
X48030714Y-48419819D02*
X47887857Y-48372200D01*
X47887857Y-48372200D02*
X47792619Y-48276961D01*
X47792619Y-48276961D02*
X47745000Y-48181723D01*
X47745000Y-48181723D02*
X47697381Y-47991247D01*
X47697381Y-47991247D02*
X47697381Y-47848390D01*
X47697381Y-47848390D02*
X47745000Y-47657914D01*
X47745000Y-47657914D02*
X47792619Y-47562676D01*
X47792619Y-47562676D02*
X47887857Y-47467438D01*
X47887857Y-47467438D02*
X48030714Y-47419819D01*
X48030714Y-47419819D02*
X48125952Y-47419819D01*
X48125952Y-47419819D02*
X48268809Y-47467438D01*
X48268809Y-47467438D02*
X48316428Y-47515057D01*
X48697381Y-48134104D02*
X49173571Y-48134104D01*
X48602143Y-48419819D02*
X48935476Y-47419819D01*
X48935476Y-47419819D02*
X49268809Y-48419819D01*
X49602143Y-48419819D02*
X49602143Y-47419819D01*
X49602143Y-47419819D02*
X49935476Y-48134104D01*
X49935476Y-48134104D02*
X50268809Y-47419819D01*
X50268809Y-47419819D02*
X50268809Y-48419819D01*
X21763095Y-29454819D02*
X21763095Y-30264342D01*
X21763095Y-30264342D02*
X21810714Y-30359580D01*
X21810714Y-30359580D02*
X21858333Y-30407200D01*
X21858333Y-30407200D02*
X21953571Y-30454819D01*
X21953571Y-30454819D02*
X22144047Y-30454819D01*
X22144047Y-30454819D02*
X22239285Y-30407200D01*
X22239285Y-30407200D02*
X22286904Y-30359580D01*
X22286904Y-30359580D02*
X22334523Y-30264342D01*
X22334523Y-30264342D02*
X22334523Y-29454819D01*
X23334523Y-30454819D02*
X22763095Y-30454819D01*
X23048809Y-30454819D02*
X23048809Y-29454819D01*
X23048809Y-29454819D02*
X22953571Y-29597676D01*
X22953571Y-29597676D02*
X22858333Y-29692914D01*
X22858333Y-29692914D02*
X22763095Y-29740533D01*
X7068809Y-49454819D02*
X7068809Y-50264342D01*
X7068809Y-50264342D02*
X7116428Y-50359580D01*
X7116428Y-50359580D02*
X7164047Y-50407200D01*
X7164047Y-50407200D02*
X7259285Y-50454819D01*
X7259285Y-50454819D02*
X7449761Y-50454819D01*
X7449761Y-50454819D02*
X7544999Y-50407200D01*
X7544999Y-50407200D02*
X7592618Y-50359580D01*
X7592618Y-50359580D02*
X7640237Y-50264342D01*
X7640237Y-50264342D02*
X7640237Y-49454819D01*
X7878333Y-50550057D02*
X8640237Y-50550057D01*
X8878333Y-50454819D02*
X8878333Y-49454819D01*
X8878333Y-49454819D02*
X9211666Y-50169104D01*
X9211666Y-50169104D02*
X9544999Y-49454819D01*
X9544999Y-49454819D02*
X9544999Y-50454819D01*
X10021190Y-50454819D02*
X10021190Y-49454819D01*
X11068808Y-50359580D02*
X11021189Y-50407200D01*
X11021189Y-50407200D02*
X10878332Y-50454819D01*
X10878332Y-50454819D02*
X10783094Y-50454819D01*
X10783094Y-50454819D02*
X10640237Y-50407200D01*
X10640237Y-50407200D02*
X10544999Y-50311961D01*
X10544999Y-50311961D02*
X10497380Y-50216723D01*
X10497380Y-50216723D02*
X10449761Y-50026247D01*
X10449761Y-50026247D02*
X10449761Y-49883390D01*
X10449761Y-49883390D02*
X10497380Y-49692914D01*
X10497380Y-49692914D02*
X10544999Y-49597676D01*
X10544999Y-49597676D02*
X10640237Y-49502438D01*
X10640237Y-49502438D02*
X10783094Y-49454819D01*
X10783094Y-49454819D02*
X10878332Y-49454819D01*
X10878332Y-49454819D02*
X11021189Y-49502438D01*
X11021189Y-49502438D02*
X11068808Y-49550057D01*
X77475057Y-23130952D02*
X77427438Y-23226190D01*
X77427438Y-23226190D02*
X77332200Y-23321428D01*
X77332200Y-23321428D02*
X77189342Y-23464285D01*
X77189342Y-23464285D02*
X77141723Y-23559523D01*
X77141723Y-23559523D02*
X77141723Y-23654761D01*
X77379819Y-23607142D02*
X77332200Y-23702380D01*
X77332200Y-23702380D02*
X77236961Y-23797618D01*
X77236961Y-23797618D02*
X77046485Y-23845237D01*
X77046485Y-23845237D02*
X76713152Y-23845237D01*
X76713152Y-23845237D02*
X76522676Y-23797618D01*
X76522676Y-23797618D02*
X76427438Y-23702380D01*
X76427438Y-23702380D02*
X76379819Y-23607142D01*
X76379819Y-23607142D02*
X76379819Y-23416666D01*
X76379819Y-23416666D02*
X76427438Y-23321428D01*
X76427438Y-23321428D02*
X76522676Y-23226190D01*
X76522676Y-23226190D02*
X76713152Y-23178571D01*
X76713152Y-23178571D02*
X77046485Y-23178571D01*
X77046485Y-23178571D02*
X77236961Y-23226190D01*
X77236961Y-23226190D02*
X77332200Y-23321428D01*
X77332200Y-23321428D02*
X77379819Y-23416666D01*
X77379819Y-23416666D02*
X77379819Y-23607142D01*
X77475057Y-22988095D02*
X77475057Y-22226190D01*
X77379819Y-21416666D02*
X76903628Y-21749999D01*
X77379819Y-21988094D02*
X76379819Y-21988094D01*
X76379819Y-21988094D02*
X76379819Y-21607142D01*
X76379819Y-21607142D02*
X76427438Y-21511904D01*
X76427438Y-21511904D02*
X76475057Y-21464285D01*
X76475057Y-21464285D02*
X76570295Y-21416666D01*
X76570295Y-21416666D02*
X76713152Y-21416666D01*
X76713152Y-21416666D02*
X76808390Y-21464285D01*
X76808390Y-21464285D02*
X76856009Y-21511904D01*
X76856009Y-21511904D02*
X76903628Y-21607142D01*
X76903628Y-21607142D02*
X76903628Y-21988094D01*
X76856009Y-20988094D02*
X76856009Y-20654761D01*
X77379819Y-20511904D02*
X77379819Y-20988094D01*
X77379819Y-20988094D02*
X76379819Y-20988094D01*
X76379819Y-20988094D02*
X76379819Y-20511904D01*
X76379819Y-20226189D02*
X77379819Y-19892856D01*
X77379819Y-19892856D02*
X76379819Y-19559523D01*
X28011903Y-13406009D02*
X27678570Y-13406009D01*
X27678570Y-13929819D02*
X27678570Y-12929819D01*
X27678570Y-12929819D02*
X28154760Y-12929819D01*
X28297618Y-14025057D02*
X29059522Y-14025057D01*
X29297618Y-12929819D02*
X29297618Y-13739342D01*
X29297618Y-13739342D02*
X29345237Y-13834580D01*
X29345237Y-13834580D02*
X29392856Y-13882200D01*
X29392856Y-13882200D02*
X29488094Y-13929819D01*
X29488094Y-13929819D02*
X29678570Y-13929819D01*
X29678570Y-13929819D02*
X29773808Y-13882200D01*
X29773808Y-13882200D02*
X29821427Y-13834580D01*
X29821427Y-13834580D02*
X29869046Y-13739342D01*
X29869046Y-13739342D02*
X29869046Y-12929819D01*
X30297618Y-13882200D02*
X30440475Y-13929819D01*
X30440475Y-13929819D02*
X30678570Y-13929819D01*
X30678570Y-13929819D02*
X30773808Y-13882200D01*
X30773808Y-13882200D02*
X30821427Y-13834580D01*
X30821427Y-13834580D02*
X30869046Y-13739342D01*
X30869046Y-13739342D02*
X30869046Y-13644104D01*
X30869046Y-13644104D02*
X30821427Y-13548866D01*
X30821427Y-13548866D02*
X30773808Y-13501247D01*
X30773808Y-13501247D02*
X30678570Y-13453628D01*
X30678570Y-13453628D02*
X30488094Y-13406009D01*
X30488094Y-13406009D02*
X30392856Y-13358390D01*
X30392856Y-13358390D02*
X30345237Y-13310771D01*
X30345237Y-13310771D02*
X30297618Y-13215533D01*
X30297618Y-13215533D02*
X30297618Y-13120295D01*
X30297618Y-13120295D02*
X30345237Y-13025057D01*
X30345237Y-13025057D02*
X30392856Y-12977438D01*
X30392856Y-12977438D02*
X30488094Y-12929819D01*
X30488094Y-12929819D02*
X30726189Y-12929819D01*
X30726189Y-12929819D02*
X30869046Y-12977438D01*
X31630951Y-13406009D02*
X31773808Y-13453628D01*
X31773808Y-13453628D02*
X31821427Y-13501247D01*
X31821427Y-13501247D02*
X31869046Y-13596485D01*
X31869046Y-13596485D02*
X31869046Y-13739342D01*
X31869046Y-13739342D02*
X31821427Y-13834580D01*
X31821427Y-13834580D02*
X31773808Y-13882200D01*
X31773808Y-13882200D02*
X31678570Y-13929819D01*
X31678570Y-13929819D02*
X31297618Y-13929819D01*
X31297618Y-13929819D02*
X31297618Y-12929819D01*
X31297618Y-12929819D02*
X31630951Y-12929819D01*
X31630951Y-12929819D02*
X31726189Y-12977438D01*
X31726189Y-12977438D02*
X31773808Y-13025057D01*
X31773808Y-13025057D02*
X31821427Y-13120295D01*
X31821427Y-13120295D02*
X31821427Y-13215533D01*
X31821427Y-13215533D02*
X31773808Y-13310771D01*
X31773808Y-13310771D02*
X31726189Y-13358390D01*
X31726189Y-13358390D02*
X31630951Y-13406009D01*
X31630951Y-13406009D02*
X31297618Y-13406009D01*
X61058246Y-35851091D02*
X61629674Y-35851091D01*
X61343960Y-36851091D02*
X61343960Y-35851091D01*
X61963008Y-36851091D02*
X61963008Y-35851091D01*
X61963008Y-35851091D02*
X62343960Y-35851091D01*
X62343960Y-35851091D02*
X62439198Y-35898710D01*
X62439198Y-35898710D02*
X62486817Y-35946329D01*
X62486817Y-35946329D02*
X62534436Y-36041567D01*
X62534436Y-36041567D02*
X62534436Y-36184424D01*
X62534436Y-36184424D02*
X62486817Y-36279662D01*
X62486817Y-36279662D02*
X62439198Y-36327281D01*
X62439198Y-36327281D02*
X62343960Y-36374900D01*
X62343960Y-36374900D02*
X61963008Y-36374900D01*
X62724913Y-36946329D02*
X63486817Y-36946329D01*
X63724913Y-36851091D02*
X63724913Y-35851091D01*
X63724913Y-35851091D02*
X64105865Y-35851091D01*
X64105865Y-35851091D02*
X64201103Y-35898710D01*
X64201103Y-35898710D02*
X64248722Y-35946329D01*
X64248722Y-35946329D02*
X64296341Y-36041567D01*
X64296341Y-36041567D02*
X64296341Y-36184424D01*
X64296341Y-36184424D02*
X64248722Y-36279662D01*
X64248722Y-36279662D02*
X64201103Y-36327281D01*
X64201103Y-36327281D02*
X64105865Y-36374900D01*
X64105865Y-36374900D02*
X63724913Y-36374900D01*
X65248722Y-35898710D02*
X65153484Y-35851091D01*
X65153484Y-35851091D02*
X65010627Y-35851091D01*
X65010627Y-35851091D02*
X64867770Y-35898710D01*
X64867770Y-35898710D02*
X64772532Y-35993948D01*
X64772532Y-35993948D02*
X64724913Y-36089186D01*
X64724913Y-36089186D02*
X64677294Y-36279662D01*
X64677294Y-36279662D02*
X64677294Y-36422519D01*
X64677294Y-36422519D02*
X64724913Y-36612995D01*
X64724913Y-36612995D02*
X64772532Y-36708233D01*
X64772532Y-36708233D02*
X64867770Y-36803472D01*
X64867770Y-36803472D02*
X65010627Y-36851091D01*
X65010627Y-36851091D02*
X65105865Y-36851091D01*
X65105865Y-36851091D02*
X65248722Y-36803472D01*
X65248722Y-36803472D02*
X65296341Y-36755852D01*
X65296341Y-36755852D02*
X65296341Y-36422519D01*
X65296341Y-36422519D02*
X65105865Y-36422519D01*
X65724913Y-36851091D02*
X65724913Y-35851091D01*
X65724913Y-35851091D02*
X66296341Y-36851091D01*
X66296341Y-36851091D02*
X66296341Y-35851091D01*
X66772532Y-36851091D02*
X66772532Y-35851091D01*
X66772532Y-35851091D02*
X67010627Y-35851091D01*
X67010627Y-35851091D02*
X67153484Y-35898710D01*
X67153484Y-35898710D02*
X67248722Y-35993948D01*
X67248722Y-35993948D02*
X67296341Y-36089186D01*
X67296341Y-36089186D02*
X67343960Y-36279662D01*
X67343960Y-36279662D02*
X67343960Y-36422519D01*
X67343960Y-36422519D02*
X67296341Y-36612995D01*
X67296341Y-36612995D02*
X67248722Y-36708233D01*
X67248722Y-36708233D02*
X67153484Y-36803472D01*
X67153484Y-36803472D02*
X67010627Y-36851091D01*
X67010627Y-36851091D02*
X66772532Y-36851091D01*
X76680237Y-24994819D02*
X76680237Y-25709104D01*
X76680237Y-25709104D02*
X76632618Y-25851961D01*
X76632618Y-25851961D02*
X76537380Y-25947200D01*
X76537380Y-25947200D02*
X76394523Y-25994819D01*
X76394523Y-25994819D02*
X76299285Y-25994819D01*
X76918333Y-26090057D02*
X77680237Y-26090057D01*
X77870714Y-25947200D02*
X78013571Y-25994819D01*
X78013571Y-25994819D02*
X78251666Y-25994819D01*
X78251666Y-25994819D02*
X78346904Y-25947200D01*
X78346904Y-25947200D02*
X78394523Y-25899580D01*
X78394523Y-25899580D02*
X78442142Y-25804342D01*
X78442142Y-25804342D02*
X78442142Y-25709104D01*
X78442142Y-25709104D02*
X78394523Y-25613866D01*
X78394523Y-25613866D02*
X78346904Y-25566247D01*
X78346904Y-25566247D02*
X78251666Y-25518628D01*
X78251666Y-25518628D02*
X78061190Y-25471009D01*
X78061190Y-25471009D02*
X77965952Y-25423390D01*
X77965952Y-25423390D02*
X77918333Y-25375771D01*
X77918333Y-25375771D02*
X77870714Y-25280533D01*
X77870714Y-25280533D02*
X77870714Y-25185295D01*
X77870714Y-25185295D02*
X77918333Y-25090057D01*
X77918333Y-25090057D02*
X77965952Y-25042438D01*
X77965952Y-25042438D02*
X78061190Y-24994819D01*
X78061190Y-24994819D02*
X78299285Y-24994819D01*
X78299285Y-24994819D02*
X78442142Y-25042438D01*
X78870714Y-25471009D02*
X79204047Y-25471009D01*
X79346904Y-25994819D02*
X78870714Y-25994819D01*
X78870714Y-25994819D02*
X78870714Y-24994819D01*
X78870714Y-24994819D02*
X79346904Y-24994819D01*
X80346904Y-25994819D02*
X80013571Y-25518628D01*
X79775476Y-25994819D02*
X79775476Y-24994819D01*
X79775476Y-24994819D02*
X80156428Y-24994819D01*
X80156428Y-24994819D02*
X80251666Y-25042438D01*
X80251666Y-25042438D02*
X80299285Y-25090057D01*
X80299285Y-25090057D02*
X80346904Y-25185295D01*
X80346904Y-25185295D02*
X80346904Y-25328152D01*
X80346904Y-25328152D02*
X80299285Y-25423390D01*
X80299285Y-25423390D02*
X80251666Y-25471009D01*
X80251666Y-25471009D02*
X80156428Y-25518628D01*
X80156428Y-25518628D02*
X79775476Y-25518628D01*
X80632619Y-24994819D02*
X80965952Y-25994819D01*
X80965952Y-25994819D02*
X81299285Y-24994819D01*
X81823095Y-24994819D02*
X82013571Y-24994819D01*
X82013571Y-24994819D02*
X82108809Y-25042438D01*
X82108809Y-25042438D02*
X82204047Y-25137676D01*
X82204047Y-25137676D02*
X82251666Y-25328152D01*
X82251666Y-25328152D02*
X82251666Y-25661485D01*
X82251666Y-25661485D02*
X82204047Y-25851961D01*
X82204047Y-25851961D02*
X82108809Y-25947200D01*
X82108809Y-25947200D02*
X82013571Y-25994819D01*
X82013571Y-25994819D02*
X81823095Y-25994819D01*
X81823095Y-25994819D02*
X81727857Y-25947200D01*
X81727857Y-25947200D02*
X81632619Y-25851961D01*
X81632619Y-25851961D02*
X81585000Y-25661485D01*
X81585000Y-25661485D02*
X81585000Y-25328152D01*
X81585000Y-25328152D02*
X81632619Y-25137676D01*
X81632619Y-25137676D02*
X81727857Y-25042438D01*
X81727857Y-25042438D02*
X81823095Y-24994819D01*
X82442143Y-26090057D02*
X83204047Y-26090057D01*
X83918333Y-25994819D02*
X83442143Y-25994819D01*
X83442143Y-25994819D02*
X83442143Y-24994819D01*
X66214285Y-7364580D02*
X66166666Y-7412200D01*
X66166666Y-7412200D02*
X66023809Y-7459819D01*
X66023809Y-7459819D02*
X65928571Y-7459819D01*
X65928571Y-7459819D02*
X65785714Y-7412200D01*
X65785714Y-7412200D02*
X65690476Y-7316961D01*
X65690476Y-7316961D02*
X65642857Y-7221723D01*
X65642857Y-7221723D02*
X65595238Y-7031247D01*
X65595238Y-7031247D02*
X65595238Y-6888390D01*
X65595238Y-6888390D02*
X65642857Y-6697914D01*
X65642857Y-6697914D02*
X65690476Y-6602676D01*
X65690476Y-6602676D02*
X65785714Y-6507438D01*
X65785714Y-6507438D02*
X65928571Y-6459819D01*
X65928571Y-6459819D02*
X66023809Y-6459819D01*
X66023809Y-6459819D02*
X66166666Y-6507438D01*
X66166666Y-6507438D02*
X66214285Y-6555057D01*
X66404762Y-7555057D02*
X67166666Y-7555057D01*
X67261905Y-6459819D02*
X67595238Y-7459819D01*
X67595238Y-7459819D02*
X67928571Y-6459819D01*
X68261905Y-7459819D02*
X68261905Y-6459819D01*
X68261905Y-6459819D02*
X68595238Y-7174104D01*
X68595238Y-7174104D02*
X68928571Y-6459819D01*
X68928571Y-6459819D02*
X68928571Y-7459819D01*
X69595238Y-6459819D02*
X69785714Y-6459819D01*
X69785714Y-6459819D02*
X69880952Y-6507438D01*
X69880952Y-6507438D02*
X69976190Y-6602676D01*
X69976190Y-6602676D02*
X70023809Y-6793152D01*
X70023809Y-6793152D02*
X70023809Y-7126485D01*
X70023809Y-7126485D02*
X69976190Y-7316961D01*
X69976190Y-7316961D02*
X69880952Y-7412200D01*
X69880952Y-7412200D02*
X69785714Y-7459819D01*
X69785714Y-7459819D02*
X69595238Y-7459819D01*
X69595238Y-7459819D02*
X69500000Y-7412200D01*
X69500000Y-7412200D02*
X69404762Y-7316961D01*
X69404762Y-7316961D02*
X69357143Y-7126485D01*
X69357143Y-7126485D02*
X69357143Y-6793152D01*
X69357143Y-6793152D02*
X69404762Y-6602676D01*
X69404762Y-6602676D02*
X69500000Y-6507438D01*
X69500000Y-6507438D02*
X69595238Y-6459819D01*
X70309524Y-6459819D02*
X70880952Y-6459819D01*
X70595238Y-7459819D02*
X70595238Y-6459819D01*
X70976191Y-7555057D02*
X71738095Y-7555057D01*
X72309524Y-6936009D02*
X72452381Y-6983628D01*
X72452381Y-6983628D02*
X72500000Y-7031247D01*
X72500000Y-7031247D02*
X72547619Y-7126485D01*
X72547619Y-7126485D02*
X72547619Y-7269342D01*
X72547619Y-7269342D02*
X72500000Y-7364580D01*
X72500000Y-7364580D02*
X72452381Y-7412200D01*
X72452381Y-7412200D02*
X72357143Y-7459819D01*
X72357143Y-7459819D02*
X71976191Y-7459819D01*
X71976191Y-7459819D02*
X71976191Y-6459819D01*
X71976191Y-6459819D02*
X72309524Y-6459819D01*
X72309524Y-6459819D02*
X72404762Y-6507438D01*
X72404762Y-6507438D02*
X72452381Y-6555057D01*
X72452381Y-6555057D02*
X72500000Y-6650295D01*
X72500000Y-6650295D02*
X72500000Y-6745533D01*
X72500000Y-6745533D02*
X72452381Y-6840771D01*
X72452381Y-6840771D02*
X72404762Y-6888390D01*
X72404762Y-6888390D02*
X72309524Y-6936009D01*
X72309524Y-6936009D02*
X71976191Y-6936009D01*
X72976191Y-6459819D02*
X72976191Y-7269342D01*
X72976191Y-7269342D02*
X73023810Y-7364580D01*
X73023810Y-7364580D02*
X73071429Y-7412200D01*
X73071429Y-7412200D02*
X73166667Y-7459819D01*
X73166667Y-7459819D02*
X73357143Y-7459819D01*
X73357143Y-7459819D02*
X73452381Y-7412200D01*
X73452381Y-7412200D02*
X73500000Y-7364580D01*
X73500000Y-7364580D02*
X73547619Y-7269342D01*
X73547619Y-7269342D02*
X73547619Y-6459819D01*
X74500000Y-7459819D02*
X74023810Y-7459819D01*
X74023810Y-7459819D02*
X74023810Y-6459819D01*
X74833334Y-7459819D02*
X74833334Y-6459819D01*
X75404762Y-7459819D02*
X74976191Y-6888390D01*
X75404762Y-6459819D02*
X74833334Y-7031247D01*
X3239359Y-52157293D02*
X3239359Y-51157293D01*
X3239359Y-51633483D02*
X3810787Y-51633483D01*
X3810787Y-52157293D02*
X3810787Y-51157293D01*
X4239359Y-51252531D02*
X4286978Y-51204912D01*
X4286978Y-51204912D02*
X4382216Y-51157293D01*
X4382216Y-51157293D02*
X4620311Y-51157293D01*
X4620311Y-51157293D02*
X4715549Y-51204912D01*
X4715549Y-51204912D02*
X4763168Y-51252531D01*
X4763168Y-51252531D02*
X4810787Y-51347769D01*
X4810787Y-51347769D02*
X4810787Y-51443007D01*
X4810787Y-51443007D02*
X4763168Y-51585864D01*
X4763168Y-51585864D02*
X4191740Y-52157293D01*
X4191740Y-52157293D02*
X4810787Y-52157293D01*
X52191428Y-4569818D02*
X52191428Y-5284103D01*
X52191428Y-5284103D02*
X52143809Y-5426960D01*
X52143809Y-5426960D02*
X52048571Y-5522199D01*
X52048571Y-5522199D02*
X51905714Y-5569818D01*
X51905714Y-5569818D02*
X51810476Y-5569818D01*
X52429524Y-5665056D02*
X53191428Y-5665056D01*
X53905714Y-5569818D02*
X53429524Y-5569818D01*
X53429524Y-5569818D02*
X53429524Y-4569818D01*
X54810476Y-5474579D02*
X54762857Y-5522199D01*
X54762857Y-5522199D02*
X54620000Y-5569818D01*
X54620000Y-5569818D02*
X54524762Y-5569818D01*
X54524762Y-5569818D02*
X54381905Y-5522199D01*
X54381905Y-5522199D02*
X54286667Y-5426960D01*
X54286667Y-5426960D02*
X54239048Y-5331722D01*
X54239048Y-5331722D02*
X54191429Y-5141246D01*
X54191429Y-5141246D02*
X54191429Y-4998389D01*
X54191429Y-4998389D02*
X54239048Y-4807913D01*
X54239048Y-4807913D02*
X54286667Y-4712675D01*
X54286667Y-4712675D02*
X54381905Y-4617437D01*
X54381905Y-4617437D02*
X54524762Y-4569818D01*
X54524762Y-4569818D02*
X54620000Y-4569818D01*
X54620000Y-4569818D02*
X54762857Y-4617437D01*
X54762857Y-4617437D02*
X54810476Y-4665056D01*
X55239048Y-5569818D02*
X55239048Y-4569818D01*
X55239048Y-4569818D02*
X55477143Y-4569818D01*
X55477143Y-4569818D02*
X55620000Y-4617437D01*
X55620000Y-4617437D02*
X55715238Y-4712675D01*
X55715238Y-4712675D02*
X55762857Y-4807913D01*
X55762857Y-4807913D02*
X55810476Y-4998389D01*
X55810476Y-4998389D02*
X55810476Y-5141246D01*
X55810476Y-5141246D02*
X55762857Y-5331722D01*
X55762857Y-5331722D02*
X55715238Y-5426960D01*
X55715238Y-5426960D02*
X55620000Y-5522199D01*
X55620000Y-5522199D02*
X55477143Y-5569818D01*
X55477143Y-5569818D02*
X55239048Y-5569818D01*
X56000953Y-5665056D02*
X56762857Y-5665056D01*
X57477143Y-5569818D02*
X57000953Y-5569818D01*
X57000953Y-5569818D02*
X57000953Y-4569818D01*
X15099762Y-6407199D02*
X15242619Y-6454818D01*
X15242619Y-6454818D02*
X15480714Y-6454818D01*
X15480714Y-6454818D02*
X15575952Y-6407199D01*
X15575952Y-6407199D02*
X15623571Y-6359579D01*
X15623571Y-6359579D02*
X15671190Y-6264341D01*
X15671190Y-6264341D02*
X15671190Y-6169103D01*
X15671190Y-6169103D02*
X15623571Y-6073865D01*
X15623571Y-6073865D02*
X15575952Y-6026246D01*
X15575952Y-6026246D02*
X15480714Y-5978627D01*
X15480714Y-5978627D02*
X15290238Y-5931008D01*
X15290238Y-5931008D02*
X15195000Y-5883389D01*
X15195000Y-5883389D02*
X15147381Y-5835770D01*
X15147381Y-5835770D02*
X15099762Y-5740532D01*
X15099762Y-5740532D02*
X15099762Y-5645294D01*
X15099762Y-5645294D02*
X15147381Y-5550056D01*
X15147381Y-5550056D02*
X15195000Y-5502437D01*
X15195000Y-5502437D02*
X15290238Y-5454818D01*
X15290238Y-5454818D02*
X15528333Y-5454818D01*
X15528333Y-5454818D02*
X15671190Y-5502437D01*
X16004524Y-5454818D02*
X16242619Y-6454818D01*
X16242619Y-6454818D02*
X16433095Y-5740532D01*
X16433095Y-5740532D02*
X16623571Y-6454818D01*
X16623571Y-6454818D02*
X16861667Y-5454818D01*
X17004524Y-6550056D02*
X17766428Y-6550056D01*
X18575952Y-6454818D02*
X18242619Y-5978627D01*
X18004524Y-6454818D02*
X18004524Y-5454818D01*
X18004524Y-5454818D02*
X18385476Y-5454818D01*
X18385476Y-5454818D02*
X18480714Y-5502437D01*
X18480714Y-5502437D02*
X18528333Y-5550056D01*
X18528333Y-5550056D02*
X18575952Y-5645294D01*
X18575952Y-5645294D02*
X18575952Y-5788151D01*
X18575952Y-5788151D02*
X18528333Y-5883389D01*
X18528333Y-5883389D02*
X18480714Y-5931008D01*
X18480714Y-5931008D02*
X18385476Y-5978627D01*
X18385476Y-5978627D02*
X18004524Y-5978627D01*
X18956905Y-6407199D02*
X19099762Y-6454818D01*
X19099762Y-6454818D02*
X19337857Y-6454818D01*
X19337857Y-6454818D02*
X19433095Y-6407199D01*
X19433095Y-6407199D02*
X19480714Y-6359579D01*
X19480714Y-6359579D02*
X19528333Y-6264341D01*
X19528333Y-6264341D02*
X19528333Y-6169103D01*
X19528333Y-6169103D02*
X19480714Y-6073865D01*
X19480714Y-6073865D02*
X19433095Y-6026246D01*
X19433095Y-6026246D02*
X19337857Y-5978627D01*
X19337857Y-5978627D02*
X19147381Y-5931008D01*
X19147381Y-5931008D02*
X19052143Y-5883389D01*
X19052143Y-5883389D02*
X19004524Y-5835770D01*
X19004524Y-5835770D02*
X18956905Y-5740532D01*
X18956905Y-5740532D02*
X18956905Y-5645294D01*
X18956905Y-5645294D02*
X19004524Y-5550056D01*
X19004524Y-5550056D02*
X19052143Y-5502437D01*
X19052143Y-5502437D02*
X19147381Y-5454818D01*
X19147381Y-5454818D02*
X19385476Y-5454818D01*
X19385476Y-5454818D02*
X19528333Y-5502437D01*
X19814048Y-5454818D02*
X20385476Y-5454818D01*
X20099762Y-6454818D02*
X20099762Y-5454818D01*
%TO.C,C_AMP_BULK*%
D11*
X58359420Y-48490000D02*
X58640580Y-48490000D01*
X58359420Y-49510000D02*
X58640580Y-49510000D01*
%TO.C,C_U1_BULK*%
X22859420Y-21490000D02*
X23140580Y-21490000D01*
X22859420Y-22510000D02*
X23140580Y-22510000D01*
%TO.C,C_U1*%
X22892164Y-24640000D02*
X23107836Y-24640000D01*
X22892164Y-25360000D02*
X23107836Y-25360000D01*
%TO.C,U_LDO15*%
X51090000Y-54440000D02*
X52910000Y-54440000D01*
X51090000Y-54490000D02*
X51090000Y-54440000D01*
X51090000Y-57560000D02*
X51090000Y-57510000D01*
X52910000Y-54440000D02*
X52910000Y-54490000D01*
X52910000Y-55610000D02*
X52910000Y-56390000D01*
X52910000Y-57510000D02*
X52910000Y-57560000D01*
X52910000Y-57560000D02*
X51090000Y-57560000D01*
X50550000Y-54490000D02*
X50310000Y-54160000D01*
X50790000Y-54160000D01*
X50550000Y-54490000D01*
G36*
X50550000Y-54490000D02*
G01*
X50310000Y-54160000D01*
X50790000Y-54160000D01*
X50550000Y-54490000D01*
G37*
%TO.C,R_CC2*%
X21096359Y-2620000D02*
X21403641Y-2620000D01*
X21096359Y-3380000D02*
X21403641Y-3380000D01*
%TO.C,R_LCD_CLK*%
X47346359Y-4620000D02*
X47653641Y-4620000D01*
X47346359Y-5380000D02*
X47653641Y-5380000D01*
%TO.C,J_SERVO_R*%
X84620000Y-30620000D02*
X86000000Y-30620000D01*
X84620000Y-32000000D02*
X84620000Y-30620000D01*
X84620000Y-33270000D02*
X84620000Y-38460000D01*
X84620000Y-33270000D02*
X87380000Y-33270000D01*
X84620000Y-38460000D02*
X87380000Y-38460000D01*
X87380000Y-33270000D02*
X87380000Y-38460000D01*
%TO.C,TP_SCL*%
X25950000Y-36750000D02*
G75*
G02*
X24550000Y-36750000I-700000J0D01*
G01*
X24550000Y-36750000D02*
G75*
G02*
X25950000Y-36750000I700000J0D01*
G01*
%TO.C,R_TOUCH_REXT*%
X34346359Y-43620000D02*
X34653641Y-43620000D01*
X34346359Y-44380000D02*
X34653641Y-44380000D01*
%TO.C,C_AMP*%
X53392164Y-46640000D02*
X53607836Y-46640000D01*
X53392164Y-47360000D02*
X53607836Y-47360000D01*
%TO.C,R_LCD_MOSI*%
X44120000Y-3403641D02*
X44120000Y-3096359D01*
X44880000Y-3403641D02*
X44880000Y-3096359D01*
%TO.C,TP_TX*%
X23700000Y-42000000D02*
G75*
G02*
X22300000Y-42000000I-700000J0D01*
G01*
X22300000Y-42000000D02*
G75*
G02*
X23700000Y-42000000I700000J0D01*
G01*
%TO.C,R_BOOT*%
X12846359Y-16120000D02*
X13153641Y-16120000D01*
X12846359Y-16880000D02*
X13153641Y-16880000D01*
%TO.C,TP_GATE*%
X77450000Y-47000000D02*
G75*
G02*
X76050000Y-47000000I-700000J0D01*
G01*
X76050000Y-47000000D02*
G75*
G02*
X77450000Y-47000000I700000J0D01*
G01*
%TO.C,D_USB_DP*%
X21140000Y-7310000D02*
X21140000Y-6000000D01*
X21140000Y-7310000D02*
X22360000Y-7310000D01*
X22360000Y-7310000D02*
X22360000Y-6000000D01*
%TO.C,R_REV*%
X85096359Y-20120000D02*
X85403641Y-20120000D01*
X85096359Y-20880000D02*
X85403641Y-20880000D01*
%TO.C,R_CC1*%
X33870000Y-2903641D02*
X33870000Y-2596359D01*
X34630000Y-2903641D02*
X34630000Y-2596359D01*
%TO.C,U_LDO28*%
X25090000Y-51440000D02*
X26910000Y-51440000D01*
X25090000Y-51490000D02*
X25090000Y-51440000D01*
X25090000Y-54560000D02*
X25090000Y-54510000D01*
X26910000Y-51440000D02*
X26910000Y-51490000D01*
X26910000Y-52610000D02*
X26910000Y-53390000D01*
X26910000Y-54510000D02*
X26910000Y-54560000D01*
X26910000Y-54560000D02*
X25090000Y-54560000D01*
X24550000Y-51490000D02*
X24310000Y-51160000D01*
X24790000Y-51160000D01*
X24550000Y-51490000D01*
G36*
X24550000Y-51490000D02*
G01*
X24310000Y-51160000D01*
X24790000Y-51160000D01*
X24550000Y-51490000D01*
G37*
%TO.C,C_PWM*%
X56640000Y-24607836D02*
X56640000Y-24392164D01*
X57360000Y-24607836D02*
X57360000Y-24392164D01*
%TO.C,SW_BOOT*%
D12*
X9450000Y-11830000D02*
X9450000Y-14170000D01*
X9830000Y-14660000D02*
X10720000Y-15550000D01*
X10200000Y-12000000D02*
X11000000Y-11200000D01*
X10200000Y-14000000D02*
X10200000Y-12000000D01*
X10720000Y-10450000D02*
X9830000Y-11340000D01*
X10720000Y-10450000D02*
X13280000Y-10450000D01*
X10720000Y-15550000D02*
X13280000Y-15550000D01*
X11000000Y-11200000D02*
X12900000Y-11200000D01*
X11100000Y-14900000D02*
X10200000Y-14000000D01*
X12800000Y-14900000D02*
X11100000Y-14900000D01*
X12900000Y-11200000D02*
X13800000Y-12100000D01*
X13280000Y-10450000D02*
X14170000Y-11340000D01*
X13800000Y-12100000D02*
X13800000Y-13900000D01*
X13800000Y-13900000D02*
X12800000Y-14900000D01*
X14170000Y-14660000D02*
X13280000Y-15550000D01*
X14550000Y-11830000D02*
X14550000Y-14170000D01*
D13*
X8780000Y-10450000D02*
G75*
G02*
X8720000Y-10450000I-30000J0D01*
G01*
X8720000Y-10450000D02*
G75*
G02*
X8780000Y-10450000I30000J0D01*
G01*
D12*
X13280000Y-13000000D02*
G75*
G02*
X10720000Y-13000000I-1280000J0D01*
G01*
X10720000Y-13000000D02*
G75*
G02*
X13280000Y-13000000I1280000J0D01*
G01*
%TO.C,U_AMP*%
D11*
X52390000Y-48390000D02*
X52865000Y-48390000D01*
X52390000Y-48865000D02*
X52390000Y-48390000D01*
X52390000Y-51610000D02*
X52390000Y-51135000D01*
X52865000Y-51610000D02*
X52390000Y-51610000D01*
X55135000Y-48390000D02*
X55610000Y-48390000D01*
X55610000Y-48390000D02*
X55610000Y-48865000D01*
X55610000Y-51135000D02*
X55610000Y-51610000D01*
X55610000Y-51610000D02*
X55135000Y-51610000D01*
X51880000Y-49250000D02*
X51550000Y-49490000D01*
X51550000Y-49010000D01*
X51880000Y-49250000D01*
G36*
X51880000Y-49250000D02*
G01*
X51550000Y-49490000D01*
X51550000Y-49010000D01*
X51880000Y-49250000D01*
G37*
%TO.C,R_OE*%
X56870000Y-27153641D02*
X56870000Y-26846359D01*
X57630000Y-27153641D02*
X57630000Y-26846359D01*
%TO.C,TP_E1*%
X33200000Y-38000000D02*
G75*
G02*
X31800000Y-38000000I-700000J0D01*
G01*
X31800000Y-38000000D02*
G75*
G02*
X33200000Y-38000000I700000J0D01*
G01*
%TO.C,L_BUCK*%
D12*
X35750000Y-13900000D02*
X35750000Y-12100000D01*
X39750000Y-13900000D02*
X39750000Y-12100000D01*
D13*
X39780000Y-15000000D02*
G75*
G02*
X39720000Y-15000000I-30000J0D01*
G01*
X39720000Y-15000000D02*
G75*
G02*
X39780000Y-15000000I30000J0D01*
G01*
%TO.C,TP_GND*%
D11*
X68700000Y-32000000D02*
G75*
G02*
X67300000Y-32000000I-700000J0D01*
G01*
X67300000Y-32000000D02*
G75*
G02*
X68700000Y-32000000I700000J0D01*
G01*
%TO.C,C_LDO15_OUT*%
X54640000Y-56107836D02*
X54640000Y-55892164D01*
X55360000Y-56107836D02*
X55360000Y-55892164D01*
%TO.C,TP_VBUS*%
X26700000Y-11250000D02*
G75*
G02*
X25300000Y-11250000I-700000J0D01*
G01*
X25300000Y-11250000D02*
G75*
G02*
X26700000Y-11250000I700000J0D01*
G01*
%TO.C,R_STAR*%
X65620000Y-32153641D02*
X65620000Y-31846359D01*
X66380000Y-32153641D02*
X66380000Y-31846359D01*
%TO.C,U_TOUCH*%
X28390000Y-44390000D02*
X28840000Y-44390000D01*
X28390000Y-44840000D02*
X28390000Y-44390000D01*
X28390000Y-47610000D02*
X28390000Y-47160000D01*
X28840000Y-47610000D02*
X28390000Y-47610000D01*
X31160000Y-44390000D02*
X31610000Y-44390000D01*
X31610000Y-44390000D02*
X31610000Y-44840000D01*
X31610000Y-47160000D02*
X31610000Y-47610000D01*
X31610000Y-47610000D02*
X31160000Y-47610000D01*
X27880000Y-45200000D02*
X27550000Y-45440000D01*
X27550000Y-44960000D01*
X27880000Y-45200000D01*
G36*
X27880000Y-45200000D02*
G01*
X27550000Y-45440000D01*
X27550000Y-44960000D01*
X27880000Y-45200000D01*
G37*
%TO.C,C_CAM_AVDD*%
X41142164Y-47440000D02*
X41357836Y-47440000D01*
X41142164Y-48160000D02*
X41357836Y-48160000D01*
%TO.C,C_BUCK_OUT1*%
X35488748Y-5015000D02*
X36011252Y-5015000D01*
X35488748Y-6485000D02*
X36011252Y-6485000D01*
%TO.C,C_IMU_VLOGIC*%
X49392164Y-33640000D02*
X49607836Y-33640000D01*
X49392164Y-34360000D02*
X49607836Y-34360000D01*
%TO.C,C_EN*%
X11142164Y-2140000D02*
X11357836Y-2140000D01*
X11142164Y-2860000D02*
X11357836Y-2860000D01*
%TO.C,D_LED*%
X16400000Y-17150000D02*
X16400000Y-15150000D01*
X16400000Y-17150000D02*
X19600000Y-17150000D01*
X16700000Y-14850000D02*
X16400000Y-15150000D01*
X16700000Y-14850000D02*
X19600000Y-14850000D01*
X19600000Y-14850000D02*
X19600000Y-17150000D01*
%TO.C,D_VMOT_TVS*%
X68340000Y-20600000D02*
X68340000Y-24900000D01*
X68340000Y-20600000D02*
X74150000Y-20600000D01*
X68340000Y-24900000D02*
X74150000Y-24900000D01*
%TO.C,J_HEAT*%
X79590000Y-40940000D02*
X86610000Y-40940000D01*
X79590000Y-49020000D02*
X79590000Y-40940000D01*
X84200000Y-40140000D02*
X84800000Y-40140000D01*
X84500000Y-40740000D02*
X84200000Y-40140000D01*
X84800000Y-40140000D02*
X84500000Y-40740000D01*
X86610000Y-40940000D02*
X86610000Y-42140000D01*
X86610000Y-42140000D02*
X88310000Y-42140000D01*
X86610000Y-47820000D02*
X86610000Y-49020000D01*
X86610000Y-49020000D02*
X79590000Y-49020000D01*
X88310000Y-42140000D02*
X88310000Y-47820000D01*
X88310000Y-47820000D02*
X86610000Y-47820000D01*
%TO.C,C_CAM_RST*%
X38892164Y-47440000D02*
X39107836Y-47440000D01*
X38892164Y-48160000D02*
X39107836Y-48160000D01*
%TO.C,C_FF*%
X42140000Y-9107836D02*
X42140000Y-8892164D01*
X42860000Y-9107836D02*
X42860000Y-8892164D01*
%TO.C,R_NTC*%
X70346359Y-50120000D02*
X70653641Y-50120000D01*
X70346359Y-50880000D02*
X70653641Y-50880000D01*
%TO.C,C_IMU_REG*%
X45890000Y-34892164D02*
X45890000Y-35107836D01*
X46610000Y-34892164D02*
X46610000Y-35107836D01*
%TO.C,C_IMU_CP*%
X49392164Y-26140000D02*
X49607836Y-26140000D01*
X49392164Y-26860000D02*
X49607836Y-26860000D01*
%TO.C,TP_3V3*%
X34950000Y-12500000D02*
G75*
G02*
X33550000Y-12500000I-700000J0D01*
G01*
X33550000Y-12500000D02*
G75*
G02*
X34950000Y-12500000I700000J0D01*
G01*
%TO.C,R_CAM_PWDN*%
X34346359Y-47420000D02*
X34653641Y-47420000D01*
X34346359Y-48180000D02*
X34653641Y-48180000D01*
%TO.C,J_USB*%
X23300000Y-2700000D02*
X23300000Y-800000D01*
X23300000Y-6600000D02*
X23300000Y-4600000D01*
X32700000Y-800000D02*
X23300000Y-800000D01*
X32700000Y-2700000D02*
X32700000Y-800000D01*
X32700000Y-6600000D02*
X32700000Y-4600000D01*
%TO.C,J_VMOT*%
X78280000Y-8160000D02*
X88770000Y-8160000D01*
X78280000Y-19160000D02*
X78280000Y-8160000D01*
X79900000Y-19160000D02*
X79900000Y-8160000D01*
X87650000Y-19160000D02*
X87650000Y-8160000D01*
X88770000Y-8160000D02*
X88770000Y-16200000D01*
X88770000Y-16800000D02*
X88770000Y-19160000D01*
X88770000Y-19160000D02*
X78280000Y-19160000D01*
X88770000Y-16500000D02*
X89380000Y-16060000D01*
X89380000Y-16940000D01*
X88770000Y-16500000D01*
G36*
X89380000Y-16940000D02*
G01*
X88770000Y-16500000D01*
X89380000Y-16060000D01*
X89380000Y-16940000D01*
G37*
%TO.C,R_EN*%
X12846359Y-9120000D02*
X13153641Y-9120000D01*
X12846359Y-9880000D02*
X13153641Y-9880000D01*
%TO.C,U_PWM*%
X59690000Y-20640000D02*
X64310000Y-20640000D01*
X59690000Y-20915000D02*
X59690000Y-20640000D01*
X59690000Y-30560000D02*
X59690000Y-30285000D01*
X64310000Y-20640000D02*
X64310000Y-20915000D01*
X64310000Y-30285000D02*
X64310000Y-30560000D01*
X64310000Y-30560000D02*
X59690000Y-30560000D01*
X59050000Y-20910000D02*
X58710000Y-20440000D01*
X59390000Y-20440000D01*
X59050000Y-20910000D01*
G36*
X59050000Y-20910000D02*
G01*
X58710000Y-20440000D01*
X59390000Y-20440000D01*
X59050000Y-20910000D01*
G37*
%TO.C,C_NTC*%
X68142164Y-50140000D02*
X68357836Y-50140000D01*
X68142164Y-50860000D02*
X68357836Y-50860000D01*
%TO.C,C_MIC*%
X13392164Y-46640000D02*
X13607836Y-46640000D01*
X13392164Y-47360000D02*
X13607836Y-47360000D01*
%TO.C,TP_OE*%
X68200000Y-26500000D02*
G75*
G02*
X66800000Y-26500000I-700000J0D01*
G01*
X66800000Y-26500000D02*
G75*
G02*
X68200000Y-26500000I700000J0D01*
G01*
%TO.C,C_TOUCH_VREG*%
X24392164Y-46640000D02*
X24607836Y-46640000D01*
X24392164Y-47360000D02*
X24607836Y-47360000D01*
%TO.C,R_AMP_SD*%
X54596359Y-52620000D02*
X54903641Y-52620000D01*
X54596359Y-53380000D02*
X54903641Y-53380000D01*
%TO.C,R_SCL*%
X22846359Y-33620000D02*
X23153641Y-33620000D01*
X22846359Y-34380000D02*
X23153641Y-34380000D01*
%TO.C,Q_HEAT*%
X75240000Y-42440000D02*
X76760000Y-42440000D01*
X75240000Y-42490000D02*
X75240000Y-42440000D01*
X75240000Y-44390000D02*
X75240000Y-43610000D01*
X75240000Y-45560000D02*
X75240000Y-45510000D01*
X76760000Y-42440000D02*
X76760000Y-43440000D01*
X76760000Y-44560000D02*
X76760000Y-45560000D01*
X76760000Y-45560000D02*
X75240000Y-45560000D01*
X74700000Y-43620000D02*
X74940000Y-43950000D01*
X74460000Y-43950000D01*
X74700000Y-43620000D01*
G36*
X74940000Y-43950000D02*
G01*
X74460000Y-43950000D01*
X74700000Y-43620000D01*
X74940000Y-43950000D01*
G37*
%TO.C,C_TOUCH*%
X24392164Y-49140000D02*
X24607836Y-49140000D01*
X24392164Y-49860000D02*
X24607836Y-49860000D01*
%TO.C,TP_VMOT*%
X79450000Y-21250000D02*
G75*
G02*
X78050000Y-21250000I-700000J0D01*
G01*
X78050000Y-21250000D02*
G75*
G02*
X79450000Y-21250000I700000J0D01*
G01*
%TO.C,U_BUCK*%
X36090000Y-7440000D02*
X37910000Y-7440000D01*
X36090000Y-7490000D02*
X36090000Y-7440000D01*
X36090000Y-10560000D02*
X36090000Y-10510000D01*
X37910000Y-7440000D02*
X37910000Y-7490000D01*
X37910000Y-8610000D02*
X37910000Y-9390000D01*
X37910000Y-10510000D02*
X37910000Y-10560000D01*
X37910000Y-10560000D02*
X36090000Y-10560000D01*
X35550000Y-7490000D02*
X35310000Y-7160000D01*
X35790000Y-7160000D01*
X35550000Y-7490000D01*
G36*
X35550000Y-7490000D02*
G01*
X35310000Y-7160000D01*
X35790000Y-7160000D01*
X35550000Y-7490000D01*
G37*
%TO.C,J_SPK*%
X59640000Y-52890000D02*
X59640000Y-54140000D01*
X59940000Y-54500000D02*
X60550000Y-54500000D01*
X59940000Y-55800000D02*
X60550000Y-55800000D01*
X60550000Y-53800000D02*
X60550000Y-57300000D01*
X60550000Y-57300000D02*
X65450000Y-57300000D01*
X60890000Y-52890000D02*
X59640000Y-52890000D01*
X61400000Y-52990000D02*
X61400000Y-53190000D01*
X61700000Y-52990000D02*
X61400000Y-52990000D01*
X61700000Y-53090000D02*
X61400000Y-53090000D01*
X61700000Y-53190000D02*
X61700000Y-52990000D01*
X62500000Y-53190000D02*
X62500000Y-53800000D01*
X62500000Y-53800000D02*
X60550000Y-53800000D01*
X62900000Y-56800000D02*
X63100000Y-56800000D01*
X62900000Y-57300000D02*
X62900000Y-56800000D01*
X63000000Y-57300000D02*
X63000000Y-56800000D01*
X63100000Y-56800000D02*
X63100000Y-57300000D01*
X63500000Y-53800000D02*
X63500000Y-53190000D01*
X65450000Y-53800000D02*
X63500000Y-53800000D01*
X65450000Y-57300000D02*
X65450000Y-53800000D01*
X66060000Y-54500000D02*
X65450000Y-54500000D01*
X66060000Y-55800000D02*
X65450000Y-55800000D01*
X59940000Y-53190000D02*
X66060000Y-53190000D01*
X66060000Y-57910000D01*
X59940000Y-57910000D01*
X59940000Y-53190000D01*
%TO.C,R_BUCK_EN*%
X41096359Y-11120000D02*
X41403641Y-11120000D01*
X41096359Y-11880000D02*
X41403641Y-11880000D01*
%TO.C,D_USB_DN*%
X20690000Y-3890000D02*
X20690000Y-5110000D01*
X20690000Y-3890000D02*
X22000000Y-3890000D01*
X20690000Y-5110000D02*
X22000000Y-5110000D01*
%TO.C,U_ADC*%
X68390000Y-46390000D02*
X71610000Y-46390000D01*
X68390000Y-46590000D02*
X68390000Y-46390000D01*
X68390000Y-49610000D02*
X68390000Y-49410000D01*
X71610000Y-46390000D02*
X71610000Y-46590000D01*
X71610000Y-49410000D02*
X71610000Y-49610000D01*
X71610000Y-49610000D02*
X68390000Y-49610000D01*
X67840000Y-46590000D02*
X67600000Y-46260000D01*
X68080000Y-46260000D01*
X67840000Y-46590000D01*
G36*
X67840000Y-46590000D02*
G01*
X67600000Y-46260000D01*
X68080000Y-46260000D01*
X67840000Y-46590000D01*
G37*
%TO.C,TP_E2*%
X31450000Y-40250000D02*
G75*
G02*
X30050000Y-40250000I-700000J0D01*
G01*
X30050000Y-40250000D02*
G75*
G02*
X31450000Y-40250000I700000J0D01*
G01*
%TO.C,C_LCD*%
X45142164Y-4640000D02*
X45357836Y-4640000D01*
X45142164Y-5360000D02*
X45357836Y-5360000D01*
%TO.C,R_CAM_RST*%
X36596359Y-47420000D02*
X36903641Y-47420000D01*
X36596359Y-48180000D02*
X36903641Y-48180000D01*
%TO.C,R_FB2*%
X40370000Y-5903641D02*
X40370000Y-5596359D01*
X41130000Y-5903641D02*
X41130000Y-5596359D01*
%TO.C,C_IMU*%
X49140000Y-30107836D02*
X49140000Y-29892164D01*
X49860000Y-30107836D02*
X49860000Y-29892164D01*
%TO.C,U_IMU*%
X43850000Y-28315000D02*
X43850000Y-28090000D01*
X43850000Y-32150000D02*
X43850000Y-31625000D01*
X43850000Y-32150000D02*
X44375000Y-32150000D01*
X44375000Y-27850000D02*
X44150000Y-27850000D01*
X48150000Y-27850000D02*
X47625000Y-27850000D01*
X48150000Y-27850000D02*
X48150000Y-28375000D01*
X48150000Y-32150000D02*
X47625000Y-32150000D01*
X48150000Y-32150000D02*
X48150000Y-31625000D01*
X43850000Y-27850000D02*
X43610000Y-27520000D01*
X44090000Y-27520000D01*
X43850000Y-27850000D01*
G36*
X43850000Y-27850000D02*
G01*
X43610000Y-27520000D01*
X44090000Y-27520000D01*
X43850000Y-27850000D01*
G37*
%TO.C,J_LCD_R*%
X45620000Y-8880000D02*
X45620000Y-7500000D01*
X47000000Y-8880000D02*
X45620000Y-8880000D01*
X48270000Y-6120000D02*
X63620000Y-6120000D01*
X48270000Y-8880000D02*
X48270000Y-6120000D01*
X48270000Y-8880000D02*
X63620000Y-8880000D01*
X63620000Y-8880000D02*
X63620000Y-6120000D01*
%TO.C,C_LDO28_IN*%
X26392164Y-55140000D02*
X26607836Y-55140000D01*
X26392164Y-55860000D02*
X26607836Y-55860000D01*
%TO.C,J_NTC*%
X71640000Y-52890000D02*
X71640000Y-54140000D01*
X71940000Y-54500000D02*
X72550000Y-54500000D01*
X71940000Y-55800000D02*
X72550000Y-55800000D01*
X72550000Y-53800000D02*
X72550000Y-57300000D01*
X72550000Y-57300000D02*
X77450000Y-57300000D01*
X72890000Y-52890000D02*
X71640000Y-52890000D01*
X73400000Y-52990000D02*
X73400000Y-53190000D01*
X73700000Y-52990000D02*
X73400000Y-52990000D01*
X73700000Y-53090000D02*
X73400000Y-53090000D01*
X73700000Y-53190000D02*
X73700000Y-52990000D01*
X74500000Y-53190000D02*
X74500000Y-53800000D01*
X74500000Y-53800000D02*
X72550000Y-53800000D01*
X74900000Y-56800000D02*
X75100000Y-56800000D01*
X74900000Y-57300000D02*
X74900000Y-56800000D01*
X75000000Y-57300000D02*
X75000000Y-56800000D01*
X75100000Y-56800000D02*
X75100000Y-57300000D01*
X75500000Y-53800000D02*
X75500000Y-53190000D01*
X77450000Y-53800000D02*
X75500000Y-53800000D01*
X77450000Y-57300000D02*
X77450000Y-53800000D01*
X78060000Y-54500000D02*
X77450000Y-54500000D01*
X78060000Y-55800000D02*
X77450000Y-55800000D01*
X71940000Y-53190000D02*
X78060000Y-53190000D01*
X78060000Y-57910000D01*
X71940000Y-57910000D01*
X71940000Y-53190000D01*
%TO.C,TP_SDA*%
X23700000Y-38000000D02*
G75*
G02*
X22300000Y-38000000I-700000J0D01*
G01*
X22300000Y-38000000D02*
G75*
G02*
X23700000Y-38000000I700000J0D01*
G01*
%TO.C,J_CAM*%
D12*
X31740000Y-49550000D02*
X31740000Y-49680000D01*
X31740000Y-53710000D02*
X31740000Y-55090000D01*
X31740000Y-55090000D02*
X33870000Y-55090000D01*
X31750000Y-49650000D02*
X31740000Y-51640000D01*
X46130000Y-55090000D02*
X48260000Y-55090000D01*
X48260000Y-49550000D02*
X31740000Y-49550000D01*
X48260000Y-51640000D02*
X48260000Y-49550000D01*
X48260000Y-55090000D02*
X48260000Y-53710000D01*
D14*
X46750000Y-55700000D02*
G75*
G02*
X46350000Y-55700000I-200000J0D01*
G01*
X46350000Y-55700000D02*
G75*
G02*
X46750000Y-55700000I200000J0D01*
G01*
D13*
X48230000Y-55710000D02*
G75*
G02*
X48170000Y-55710000I-30000J0D01*
G01*
X48170000Y-55710000D02*
G75*
G02*
X48230000Y-55710000I30000J0D01*
G01*
%TO.C,U1*%
D11*
X-6150000Y-20800000D02*
X50000Y-20800000D01*
X-6150000Y-39200000D02*
X-6150000Y-20800000D01*
X-6150000Y-39200000D02*
X50000Y-39200000D01*
X18700000Y-39200000D02*
X19700000Y-39200000D01*
X19700000Y-20800000D02*
X18700000Y-20800000D01*
X19700000Y-20800000D02*
X19700000Y-22300000D01*
X19700000Y-39200000D02*
X19700000Y-37700000D01*
X725000Y-39200000D02*
X725000Y-39700000D01*
X225000Y-39200000D01*
X725000Y-39200000D01*
G36*
X725000Y-39700000D02*
G01*
X225000Y-39200000D01*
X725000Y-39200000D01*
X725000Y-39700000D01*
G37*
%TO.C,U_MIC*%
X11540000Y-48020000D02*
X16460000Y-48020000D01*
X11540000Y-51980000D02*
X11540000Y-48020000D01*
X11540000Y-52230000D02*
X12340000Y-52230000D01*
X16460000Y-48020000D02*
X16460000Y-51980000D01*
X16460000Y-51980000D02*
X11540000Y-51980000D01*
%TO.C,C_BUCK_IN*%
X39765000Y-9261252D02*
X39765000Y-8738748D01*
X41235000Y-9261252D02*
X41235000Y-8738748D01*
%TO.C,TP_E0*%
X30700000Y-38000000D02*
G75*
G02*
X29300000Y-38000000I-700000J0D01*
G01*
X29300000Y-38000000D02*
G75*
G02*
X30700000Y-38000000I700000J0D01*
G01*
%TO.C,R_SDA*%
X22846359Y-31620000D02*
X23153641Y-31620000D01*
X22846359Y-32380000D02*
X23153641Y-32380000D01*
%TO.C,TP_E6*%
X33950000Y-40250000D02*
G75*
G02*
X32550000Y-40250000I-700000J0D01*
G01*
X32550000Y-40250000D02*
G75*
G02*
X33950000Y-40250000I700000J0D01*
G01*
%TO.C,TP_E11*%
X26200000Y-39000000D02*
G75*
G02*
X24800000Y-39000000I-700000J0D01*
G01*
X24800000Y-39000000D02*
G75*
G02*
X26200000Y-39000000I700000J0D01*
G01*
%TO.C,Q_REV*%
X81240000Y-20190000D02*
X82760000Y-20190000D01*
X81240000Y-20240000D02*
X81240000Y-20190000D01*
X81240000Y-22140000D02*
X81240000Y-21360000D01*
X81240000Y-23310000D02*
X81240000Y-23260000D01*
X82760000Y-20190000D02*
X82760000Y-21190000D01*
X82760000Y-22310000D02*
X82760000Y-23310000D01*
X82760000Y-23310000D02*
X81240000Y-23310000D01*
X80700000Y-21370000D02*
X80940000Y-21700000D01*
X80460000Y-21700000D01*
X80700000Y-21370000D01*
G36*
X80940000Y-21700000D02*
G01*
X80460000Y-21700000D01*
X80700000Y-21370000D01*
X80940000Y-21700000D01*
G37*
%TO.C,C_LED*%
X18392164Y-17640000D02*
X18607836Y-17640000D01*
X18392164Y-18360000D02*
X18607836Y-18360000D01*
%TO.C,R_MIC_SD*%
X14596359Y-52620000D02*
X14903641Y-52620000D01*
X14596359Y-53380000D02*
X14903641Y-53380000D01*
%TO.C,TP_E3*%
X28450000Y-39250000D02*
G75*
G02*
X27050000Y-39250000I-700000J0D01*
G01*
X27050000Y-39250000D02*
G75*
G02*
X28450000Y-39250000I700000J0D01*
G01*
%TO.C,TP_E5*%
X31200000Y-35500000D02*
G75*
G02*
X29800000Y-35500000I-700000J0D01*
G01*
X29800000Y-35500000D02*
G75*
G02*
X31200000Y-35500000I700000J0D01*
G01*
%TO.C,F_USB*%
X29147936Y-10590000D02*
X30352064Y-10590000D01*
X29147936Y-12410000D02*
X30352064Y-12410000D01*
%TO.C,TP_E9*%
X33700000Y-35250000D02*
G75*
G02*
X32300000Y-35250000I-700000J0D01*
G01*
X32300000Y-35250000D02*
G75*
G02*
X33700000Y-35250000I700000J0D01*
G01*
%TO.C,R_GATE*%
X75096359Y-41120000D02*
X75403641Y-41120000D01*
X75096359Y-41880000D02*
X75403641Y-41880000D01*
%TO.C,C_LDO15_IN*%
X52392164Y-58140000D02*
X52607836Y-58140000D01*
X52392164Y-58860000D02*
X52607836Y-58860000D01*
%TO.C,TP_E4*%
X28450000Y-36750000D02*
G75*
G02*
X27050000Y-36750000I-700000J0D01*
G01*
X27050000Y-36750000D02*
G75*
G02*
X28450000Y-36750000I700000J0D01*
G01*
%TO.C,C_ADC*%
X69142164Y-45140000D02*
X69357836Y-45140000D01*
X69142164Y-45860000D02*
X69357836Y-45860000D01*
%TO.C,TP_PGND*%
X64950000Y-32750000D02*
G75*
G02*
X63550000Y-32750000I-700000J0D01*
G01*
X63550000Y-32750000D02*
G75*
G02*
X64950000Y-32750000I700000J0D01*
G01*
%TO.C,TP_E8*%
X28450000Y-34500000D02*
G75*
G02*
X27050000Y-34500000I-700000J0D01*
G01*
X27050000Y-34500000D02*
G75*
G02*
X28450000Y-34500000I700000J0D01*
G01*
%TO.C,R_GATE_PD*%
X72620000Y-44903641D02*
X72620000Y-44596359D01*
X73380000Y-44903641D02*
X73380000Y-44596359D01*
%TO.C,R_FB1*%
X36096359Y-3620000D02*
X36403641Y-3620000D01*
X36096359Y-4380000D02*
X36403641Y-4380000D01*
%TO.C,TP_E10*%
X31700000Y-42500000D02*
G75*
G02*
X30300000Y-42500000I-700000J0D01*
G01*
X30300000Y-42500000D02*
G75*
G02*
X31700000Y-42500000I700000J0D01*
G01*
%TO.C,J_SERVO_L*%
X84620000Y-21620000D02*
X86000000Y-21620000D01*
X84620000Y-23000000D02*
X84620000Y-21620000D01*
X84620000Y-24270000D02*
X84620000Y-29460000D01*
X84620000Y-24270000D02*
X87380000Y-24270000D01*
X84620000Y-29460000D02*
X87380000Y-29460000D01*
X87380000Y-24270000D02*
X87380000Y-29460000D01*
%TO.C,C_LDO28_OUT*%
X28640000Y-53107836D02*
X28640000Y-52892164D01*
X29360000Y-53107836D02*
X29360000Y-52892164D01*
%TO.C,TP_E7*%
X28950000Y-41500000D02*
G75*
G02*
X27550000Y-41500000I-700000J0D01*
G01*
X27550000Y-41500000D02*
G75*
G02*
X28950000Y-41500000I700000J0D01*
G01*
%TO.C,C_VMOT_BULK*%
D10*
X65270000Y-11710000D02*
X65270000Y-13790000D01*
X65270000Y-15810000D02*
X65270000Y-17890000D01*
X67410000Y-9570000D02*
X65270000Y-11710000D01*
X67410000Y-20030000D02*
X65270000Y-17890000D01*
X75730000Y-9570000D02*
X67410000Y-9570000D01*
X75730000Y-13790000D02*
X75730000Y-9570000D01*
X75730000Y-20030000D02*
X67410000Y-20030000D01*
X75730000Y-20030000D02*
X75730000Y-15810000D01*
D13*
X64880000Y-19950000D02*
G75*
G02*
X64820000Y-19950000I-30000J0D01*
G01*
X64820000Y-19950000D02*
G75*
G02*
X64880000Y-19950000I30000J0D01*
G01*
D15*
G36*
X66895003Y-17323490D02*
G01*
X65658989Y-17323490D01*
X65658989Y-17014499D01*
X66895003Y-17014499D01*
X66895003Y-17323490D01*
G37*
G36*
X66431504Y-18199003D02*
G01*
X66122488Y-18199003D01*
X66122488Y-16139012D01*
X66431504Y-16139012D01*
X66431504Y-18199003D01*
G37*
G36*
X75341011Y-17323490D02*
G01*
X74104997Y-17323490D01*
X74104997Y-17014499D01*
X75341011Y-17014499D01*
X75341011Y-17323490D01*
G37*
%TO.C,J_LCD_L*%
D11*
X45620000Y-3880000D02*
X45620000Y-2500000D01*
X47000000Y-3880000D02*
X45620000Y-3880000D01*
X48270000Y-1120000D02*
X63620000Y-1120000D01*
X48270000Y-3880000D02*
X48270000Y-1120000D01*
X48270000Y-3880000D02*
X63620000Y-3880000D01*
X63620000Y-3880000D02*
X63620000Y-1120000D01*
%TO.C,SW_RST*%
D12*
X9450000Y-4830000D02*
X9450000Y-7170000D01*
X9830000Y-7660000D02*
X10720000Y-8550000D01*
X10200000Y-5000000D02*
X11000000Y-4200000D01*
X10200000Y-7000000D02*
X10200000Y-5000000D01*
X10720000Y-3450000D02*
X9830000Y-4340000D01*
X10720000Y-3450000D02*
X13280000Y-3450000D01*
X10720000Y-8550000D02*
X13280000Y-8550000D01*
X11000000Y-4200000D02*
X12900000Y-4200000D01*
X11100000Y-7900000D02*
X10200000Y-7000000D01*
X12800000Y-7900000D02*
X11100000Y-7900000D01*
X12900000Y-4200000D02*
X13800000Y-5100000D01*
X13280000Y-3450000D02*
X14170000Y-4340000D01*
X13800000Y-5100000D02*
X13800000Y-6900000D01*
X13800000Y-6900000D02*
X12800000Y-7900000D01*
X14170000Y-7660000D02*
X13280000Y-8550000D01*
X14550000Y-4830000D02*
X14550000Y-7170000D01*
D13*
X8780000Y-3450000D02*
G75*
G02*
X8720000Y-3450000I-30000J0D01*
G01*
X8720000Y-3450000D02*
G75*
G02*
X8780000Y-3450000I30000J0D01*
G01*
D12*
X13280000Y-6000000D02*
G75*
G02*
X10720000Y-6000000I-1280000J0D01*
G01*
X10720000Y-6000000D02*
G75*
G02*
X13280000Y-6000000I1280000J0D01*
G01*
%TO.C,C_BUCK_OUT2*%
D11*
X38265000Y-5261252D02*
X38265000Y-4738748D01*
X39735000Y-5261252D02*
X39735000Y-4738748D01*
%TO.C,C_CAM_DVDD*%
X43392164Y-47440000D02*
X43607836Y-47440000D01*
X43392164Y-48160000D02*
X43607836Y-48160000D01*
%TO.C,C_VMOT_HF*%
X69642164Y-8390000D02*
X69857836Y-8390000D01*
X69642164Y-9110000D02*
X69857836Y-9110000D01*
%TD*%
%LPC*%
D16*
%TO.C,C_AMP_BULK*%
X57725000Y-49000000D03*
X59275000Y-49000000D03*
%TD*%
%TO.C,C_U1_BULK*%
X22225000Y-22000000D03*
X23775000Y-22000000D03*
%TD*%
D17*
%TO.C,C_U1*%
X22520000Y-25000000D03*
X23480000Y-25000000D03*
%TD*%
D18*
%TO.C,U_LDO15*%
X50862500Y-55050000D03*
X50862500Y-56000000D03*
X50862500Y-56950000D03*
X53137500Y-56950000D03*
X53137500Y-55050000D03*
%TD*%
D19*
%TO.C,R_CC2*%
X20740000Y-3000000D03*
X21760000Y-3000000D03*
%TD*%
%TO.C,R_LCD_CLK*%
X46990000Y-5000000D03*
X48010000Y-5000000D03*
%TD*%
D20*
%TO.C,J_SERVO_R*%
X86000000Y-32000000D03*
D21*
X86000000Y-34540000D03*
X86000000Y-37080000D03*
%TD*%
D22*
%TO.C,TP_SCL*%
X25250000Y-36750000D03*
%TD*%
D19*
%TO.C,R_TOUCH_REXT*%
X33990000Y-44000000D03*
X35010000Y-44000000D03*
%TD*%
D17*
%TO.C,C_AMP*%
X53020000Y-47000000D03*
X53980000Y-47000000D03*
%TD*%
D23*
%TO.C,R_LCD_MOSI*%
X44500000Y-3760000D03*
X44500000Y-2740000D03*
%TD*%
D22*
%TO.C,TP_TX*%
X23000000Y-42000000D03*
%TD*%
D19*
%TO.C,R_BOOT*%
X12490000Y-16500000D03*
X13510000Y-16500000D03*
%TD*%
D22*
%TO.C,TP_GATE*%
X76750000Y-47000000D03*
%TD*%
D24*
%TO.C,D_USB_DP*%
X21750000Y-6850000D03*
X21750000Y-6150000D03*
%TD*%
D19*
%TO.C,R_REV*%
X84740000Y-20500000D03*
X85760000Y-20500000D03*
%TD*%
D23*
%TO.C,R_CC1*%
X34250000Y-3260000D03*
X34250000Y-2240000D03*
%TD*%
D18*
%TO.C,U_LDO28*%
X24862500Y-52050000D03*
X24862500Y-53000000D03*
X24862500Y-53950000D03*
X27137500Y-53950000D03*
X27137500Y-52050000D03*
%TD*%
D25*
%TO.C,C_PWM*%
X57000000Y-24980000D03*
X57000000Y-24020000D03*
%TD*%
D26*
%TO.C,SW_BOOT*%
X9000000Y-11150000D03*
X15000000Y-11150000D03*
X9000000Y-14850000D03*
X15000000Y-14850000D03*
%TD*%
D27*
%TO.C,U_AMP*%
X52562500Y-49250000D03*
X52562500Y-49750000D03*
X52562500Y-50250000D03*
X52562500Y-50750000D03*
D28*
X53250000Y-51437500D03*
X53750000Y-51437500D03*
X54250000Y-51437500D03*
X54750000Y-51437500D03*
D27*
X55437500Y-50750000D03*
X55437500Y-50250000D03*
X55437500Y-49750000D03*
X55437500Y-49250000D03*
D28*
X54750000Y-48562500D03*
X54250000Y-48562500D03*
X53750000Y-48562500D03*
X53250000Y-48562500D03*
D29*
X54000000Y-50000000D03*
%TD*%
D23*
%TO.C,R_OE*%
X57250000Y-27510000D03*
X57250000Y-26490000D03*
%TD*%
D22*
%TO.C,TP_E1*%
X32500000Y-38000000D03*
%TD*%
D30*
%TO.C,L_BUCK*%
X37750000Y-14500000D03*
X37750000Y-11500000D03*
%TD*%
D22*
%TO.C,TP_GND*%
X68000000Y-32000000D03*
%TD*%
D25*
%TO.C,C_LDO15_OUT*%
X55000000Y-56480000D03*
X55000000Y-55520000D03*
%TD*%
D22*
%TO.C,TP_VBUS*%
X26000000Y-11250000D03*
%TD*%
D23*
%TO.C,R_STAR*%
X66000000Y-32510000D03*
X66000000Y-31490000D03*
%TD*%
D31*
%TO.C,U_TOUCH*%
X28612500Y-45200000D03*
D32*
X28612500Y-45600000D03*
X28612500Y-46000000D03*
X28612500Y-46400000D03*
D33*
X28612500Y-46800000D03*
D34*
X29200000Y-47387500D03*
D35*
X29600000Y-47387500D03*
X30000000Y-47387500D03*
X30400000Y-47387500D03*
D36*
X30800000Y-47387500D03*
D37*
X31387500Y-46800000D03*
D32*
X31387500Y-46400000D03*
X31387500Y-46000000D03*
X31387500Y-45600000D03*
D38*
X31387500Y-45200000D03*
D39*
X30800000Y-44612500D03*
D35*
X30400000Y-44612500D03*
X30000000Y-44612500D03*
X29600000Y-44612500D03*
D40*
X29200000Y-44612500D03*
%TD*%
D17*
%TO.C,C_CAM_AVDD*%
X40770000Y-47800000D03*
X41730000Y-47800000D03*
%TD*%
D41*
%TO.C,H1*%
X4000000Y-4000000D03*
%TD*%
D42*
%TO.C,C_BUCK_OUT1*%
X34800000Y-5750000D03*
X36700000Y-5750000D03*
%TD*%
D17*
%TO.C,C_IMU_VLOGIC*%
X49020000Y-34000000D03*
X49980000Y-34000000D03*
%TD*%
%TO.C,C_EN*%
X10770000Y-2500000D03*
X11730000Y-2500000D03*
%TD*%
D43*
%TO.C,D_LED*%
X17085000Y-15450000D03*
X17085000Y-16550000D03*
X18915000Y-16550000D03*
X18915000Y-15450000D03*
%TD*%
D44*
%TO.C,D_VMOT_TVS*%
X69850000Y-22750000D03*
X74150000Y-22750000D03*
%TD*%
D45*
%TO.C,J_HEAT*%
X84500000Y-43000000D03*
D46*
X84500000Y-46960000D03*
%TD*%
D17*
%TO.C,C_CAM_RST*%
X38520000Y-47800000D03*
X39480000Y-47800000D03*
%TD*%
D25*
%TO.C,C_FF*%
X42500000Y-9480000D03*
X42500000Y-8520000D03*
%TD*%
D19*
%TO.C,R_NTC*%
X69990000Y-50500000D03*
X71010000Y-50500000D03*
%TD*%
D47*
%TO.C,C_IMU_REG*%
X46250000Y-34520000D03*
X46250000Y-35480000D03*
%TD*%
D17*
%TO.C,C_IMU_CP*%
X49020000Y-26500000D03*
X49980000Y-26500000D03*
%TD*%
D22*
%TO.C,TP_3V3*%
X34250000Y-12500000D03*
%TD*%
D19*
%TO.C,R_CAM_PWDN*%
X33990000Y-47800000D03*
X35010000Y-47800000D03*
%TD*%
D48*
%TO.C,J_USB*%
X30890000Y-7300000D03*
X25110000Y-7300000D03*
D49*
X31250000Y-8745000D03*
X30450000Y-8745000D03*
D50*
X29250000Y-8745000D03*
X28250000Y-8745000D03*
X27750000Y-8745000D03*
X26750000Y-8745000D03*
D49*
X25550000Y-8745000D03*
X24750000Y-8745000D03*
X24750000Y-8745000D03*
X25550000Y-8745000D03*
D50*
X26250000Y-8745000D03*
X27250000Y-8745000D03*
X28750000Y-8745000D03*
X29750000Y-8745000D03*
D49*
X30450000Y-8745000D03*
X31250000Y-8745000D03*
D51*
X32320000Y-7830000D03*
D52*
X32320000Y-3650000D03*
D51*
X23680000Y-7830000D03*
D52*
X23680000Y-3650000D03*
%TD*%
D53*
%TO.C,J_VMOT*%
X83300000Y-16500000D03*
D54*
X83300000Y-11420000D03*
%TD*%
D19*
%TO.C,R_EN*%
X12490000Y-9500000D03*
X13510000Y-9500000D03*
%TD*%
D55*
%TO.C,U_PWM*%
X59137500Y-21375000D03*
X59137500Y-22025000D03*
X59137500Y-22675000D03*
X59137500Y-23325000D03*
X59137500Y-23975000D03*
X59137500Y-24625000D03*
X59137500Y-25275000D03*
X59137500Y-25925000D03*
X59137500Y-26575000D03*
X59137500Y-27225000D03*
X59137500Y-27875000D03*
X59137500Y-28525000D03*
X59137500Y-29175000D03*
X59137500Y-29825000D03*
X64862500Y-29825000D03*
X64862500Y-29175000D03*
X64862500Y-28525000D03*
X64862500Y-27875000D03*
X64862500Y-27225000D03*
X64862500Y-26575000D03*
X64862500Y-25925000D03*
X64862500Y-25275000D03*
X64862500Y-24625000D03*
X64862500Y-23975000D03*
X64862500Y-23325000D03*
X64862500Y-22675000D03*
X64862500Y-22025000D03*
X64862500Y-21375000D03*
%TD*%
D17*
%TO.C,C_NTC*%
X67770000Y-50500000D03*
X68730000Y-50500000D03*
%TD*%
%TO.C,C_MIC*%
X13020000Y-47000000D03*
X13980000Y-47000000D03*
%TD*%
D22*
%TO.C,TP_OE*%
X67500000Y-26500000D03*
%TD*%
D41*
%TO.C,H3*%
X86000000Y-4000000D03*
%TD*%
D17*
%TO.C,C_TOUCH_VREG*%
X24020000Y-47000000D03*
X24980000Y-47000000D03*
%TD*%
D19*
%TO.C,R_AMP_SD*%
X54240000Y-53000000D03*
X55260000Y-53000000D03*
%TD*%
%TO.C,R_SCL*%
X22490000Y-34000000D03*
X23510000Y-34000000D03*
%TD*%
D56*
%TO.C,Q_HEAT*%
X75062500Y-43050000D03*
X75062500Y-44950000D03*
X76937500Y-44000000D03*
%TD*%
D17*
%TO.C,C_TOUCH*%
X24020000Y-49500000D03*
X24980000Y-49500000D03*
%TD*%
D22*
%TO.C,TP_VMOT*%
X78750000Y-21250000D03*
%TD*%
D18*
%TO.C,U_BUCK*%
X35862500Y-8050000D03*
X35862500Y-9000000D03*
X35862500Y-9950000D03*
X38137500Y-9950000D03*
X38137500Y-8050000D03*
%TD*%
D57*
%TO.C,J_SPK*%
X62000000Y-55000000D03*
D58*
X64000000Y-55000000D03*
%TD*%
D19*
%TO.C,R_BUCK_EN*%
X40740000Y-11500000D03*
X41760000Y-11500000D03*
%TD*%
D59*
%TO.C,D_USB_DN*%
X21150000Y-4500000D03*
X21850000Y-4500000D03*
%TD*%
D60*
%TO.C,U_ADC*%
X67850000Y-47000000D03*
X67850000Y-47500000D03*
X67850000Y-48000000D03*
X67850000Y-48500000D03*
X67850000Y-49000000D03*
X72150000Y-49000000D03*
X72150000Y-48500000D03*
X72150000Y-48000000D03*
X72150000Y-47500000D03*
X72150000Y-47000000D03*
%TD*%
D22*
%TO.C,TP_E2*%
X30750000Y-40250000D03*
%TD*%
D17*
%TO.C,C_LCD*%
X44770000Y-5000000D03*
X45730000Y-5000000D03*
%TD*%
D19*
%TO.C,R_CAM_RST*%
X36240000Y-47800000D03*
X37260000Y-47800000D03*
%TD*%
D41*
%TO.C,H4*%
X86000000Y-56000000D03*
%TD*%
D23*
%TO.C,R_FB2*%
X40750000Y-6260000D03*
X40750000Y-5240000D03*
%TD*%
D25*
%TO.C,C_IMU*%
X49500000Y-30480000D03*
X49500000Y-29520000D03*
%TD*%
D61*
%TO.C,U_IMU*%
X44050000Y-28750000D03*
X44050000Y-29250000D03*
X44050000Y-29750000D03*
X44050000Y-30250000D03*
X44050000Y-30750000D03*
X44050000Y-31250000D03*
D62*
X44750000Y-31950000D03*
X45250000Y-31950000D03*
X45750000Y-31950000D03*
X46250000Y-31950000D03*
X46750000Y-31950000D03*
X47250000Y-31950000D03*
D61*
X47950000Y-31250000D03*
X47950000Y-30750000D03*
X47950000Y-30250000D03*
X47950000Y-29750000D03*
X47950000Y-29250000D03*
X47950000Y-28750000D03*
D62*
X47250000Y-28050000D03*
X46750000Y-28050000D03*
X46250000Y-28050000D03*
X45750000Y-28050000D03*
X45250000Y-28050000D03*
X44750000Y-28050000D03*
%TD*%
D20*
%TO.C,J_LCD_R*%
X47000000Y-7500000D03*
D21*
X49540000Y-7500000D03*
X52080000Y-7500000D03*
X54620000Y-7500000D03*
X57160000Y-7500000D03*
X59700000Y-7500000D03*
X62240000Y-7500000D03*
%TD*%
D17*
%TO.C,C_LDO28_IN*%
X26020000Y-55500000D03*
X26980000Y-55500000D03*
%TD*%
D57*
%TO.C,J_NTC*%
X74000000Y-55000000D03*
D58*
X76000000Y-55000000D03*
%TD*%
D22*
%TO.C,TP_SDA*%
X23000000Y-38000000D03*
%TD*%
D63*
%TO.C,J_CAM*%
X45750000Y-55330000D03*
X45250000Y-55330000D03*
X44750000Y-55330000D03*
X44250000Y-55330000D03*
X43750000Y-55330000D03*
X43250000Y-55330000D03*
X42750000Y-55330000D03*
X42250000Y-55330000D03*
X41750000Y-55330000D03*
X41250000Y-55330000D03*
X40750000Y-55330000D03*
X40250000Y-55330000D03*
X39750000Y-55330000D03*
X39250000Y-55330000D03*
X38750000Y-55330000D03*
X38250000Y-55330000D03*
X37750000Y-55330000D03*
X37250000Y-55330000D03*
X36750000Y-55330000D03*
X36250000Y-55330000D03*
X35750000Y-55330000D03*
X35250000Y-55330000D03*
X34750000Y-55330000D03*
X34250000Y-55330000D03*
D64*
X32550000Y-52670000D03*
X47450000Y-52670000D03*
%TD*%
D65*
%TO.C,U1*%
X1490000Y-38750000D03*
X2760000Y-38750000D03*
X4030000Y-38750000D03*
X5300000Y-38750000D03*
X6570000Y-38750000D03*
X7840000Y-38750000D03*
X9110000Y-38750000D03*
X10380000Y-38750000D03*
X11650000Y-38750000D03*
X12920000Y-38750000D03*
X14190000Y-38750000D03*
X15460000Y-38750000D03*
X16730000Y-38750000D03*
X18000000Y-38750000D03*
D66*
X19250000Y-36985000D03*
X19250000Y-35715000D03*
X19250000Y-34445000D03*
X19250000Y-33175000D03*
X19250000Y-31905000D03*
X19250000Y-30635000D03*
X19250000Y-29365000D03*
X19250000Y-28095000D03*
X19250000Y-26825000D03*
X19250000Y-25555000D03*
X19250000Y-24285000D03*
X19250000Y-23015000D03*
D65*
X18000000Y-21250000D03*
X16730000Y-21250000D03*
X15460000Y-21250000D03*
X14190000Y-21250000D03*
X12920000Y-21250000D03*
X11650000Y-21250000D03*
X10380000Y-21250000D03*
X9110000Y-21250000D03*
X7840000Y-21250000D03*
X6570000Y-21250000D03*
X5300000Y-21250000D03*
X4030000Y-21250000D03*
X2760000Y-21250000D03*
X1490000Y-21250000D03*
D67*
X8510000Y-32900000D03*
X9910000Y-32900000D03*
X7810000Y-32200000D03*
X9210000Y-32200000D03*
X10610000Y-32200000D03*
X8510000Y-31500000D03*
D68*
X9210000Y-31500000D03*
D67*
X9910000Y-31500000D03*
X7810000Y-30800000D03*
X9210000Y-30800000D03*
X10610000Y-30800000D03*
X8510000Y-30100000D03*
X9910000Y-30100000D03*
%TD*%
D69*
%TO.C,U_MIC*%
X15290000Y-50000000D03*
D70*
X12140000Y-51330000D03*
X13190000Y-51330000D03*
X14240000Y-51330000D03*
X15290000Y-51330000D03*
D71*
X15920000Y-50000000D03*
D70*
X15290000Y-48670000D03*
X14240000Y-48670000D03*
X13190000Y-48670000D03*
X12140000Y-48670000D03*
%TD*%
D72*
%TO.C,C_BUCK_IN*%
X40500000Y-9950000D03*
X40500000Y-8050000D03*
%TD*%
D22*
%TO.C,TP_E0*%
X30000000Y-38000000D03*
%TD*%
D19*
%TO.C,R_SDA*%
X22490000Y-32000000D03*
X23510000Y-32000000D03*
%TD*%
D22*
%TO.C,TP_E6*%
X33250000Y-40250000D03*
%TD*%
%TO.C,TP_E11*%
X25500000Y-39000000D03*
%TD*%
D56*
%TO.C,Q_REV*%
X81062500Y-20800000D03*
X81062500Y-22700000D03*
X82937500Y-21750000D03*
%TD*%
D17*
%TO.C,C_LED*%
X18020000Y-18000000D03*
X18980000Y-18000000D03*
%TD*%
D19*
%TO.C,R_MIC_SD*%
X14240000Y-53000000D03*
X15260000Y-53000000D03*
%TD*%
D22*
%TO.C,TP_E3*%
X27750000Y-39250000D03*
%TD*%
%TO.C,TP_E5*%
X30500000Y-35500000D03*
%TD*%
D73*
%TO.C,F_USB*%
X28350000Y-11500000D03*
X31150000Y-11500000D03*
%TD*%
D22*
%TO.C,TP_E9*%
X33000000Y-35250000D03*
%TD*%
D19*
%TO.C,R_GATE*%
X74740000Y-41500000D03*
X75760000Y-41500000D03*
%TD*%
D17*
%TO.C,C_LDO15_IN*%
X52020000Y-58500000D03*
X52980000Y-58500000D03*
%TD*%
D22*
%TO.C,TP_E4*%
X27750000Y-36750000D03*
%TD*%
D17*
%TO.C,C_ADC*%
X68770000Y-45500000D03*
X69730000Y-45500000D03*
%TD*%
D22*
%TO.C,TP_PGND*%
X64250000Y-32750000D03*
%TD*%
%TO.C,TP_E8*%
X27750000Y-34500000D03*
%TD*%
D23*
%TO.C,R_GATE_PD*%
X73000000Y-45260000D03*
X73000000Y-44240000D03*
%TD*%
D19*
%TO.C,R_FB1*%
X35740000Y-4000000D03*
X36760000Y-4000000D03*
%TD*%
D22*
%TO.C,TP_E10*%
X31000000Y-42500000D03*
%TD*%
D20*
%TO.C,J_SERVO_L*%
X86000000Y-23000000D03*
D21*
X86000000Y-25540000D03*
X86000000Y-28080000D03*
%TD*%
D25*
%TO.C,C_LDO28_OUT*%
X29000000Y-53480000D03*
X29000000Y-52520000D03*
%TD*%
D22*
%TO.C,TP_E7*%
X28250000Y-41500000D03*
%TD*%
D74*
%TO.C,C_VMOT_BULK*%
X66000000Y-14800000D03*
X75000000Y-14800000D03*
%TD*%
D41*
%TO.C,H2*%
X4000000Y-56000000D03*
%TD*%
D20*
%TO.C,J_LCD_L*%
X47000000Y-2500000D03*
D21*
X49540000Y-2500000D03*
X52080000Y-2500000D03*
X54620000Y-2500000D03*
X57160000Y-2500000D03*
X59700000Y-2500000D03*
X62240000Y-2500000D03*
%TD*%
D26*
%TO.C,SW_RST*%
X9000000Y-4150000D03*
X15000000Y-4150000D03*
X9000000Y-7850000D03*
X15000000Y-7850000D03*
%TD*%
D72*
%TO.C,C_BUCK_OUT2*%
X39000000Y-5950000D03*
X39000000Y-4050000D03*
%TD*%
D17*
%TO.C,C_CAM_DVDD*%
X43020000Y-47800000D03*
X43980000Y-47800000D03*
%TD*%
%TO.C,C_VMOT_HF*%
X69270000Y-8750000D03*
X70230000Y-8750000D03*
%TD*%
%LPD*%
M02*
