M48
; DRILL file KiCad 10.0.6 date 2026-09-16T01:52:43
; FORMAT={-:-/ absolute / metric / decimal}
; #@! TF.CreationDate,2026-09-16T01:52:43-07:00
; #@! TF.GenerationSoftware,Kicad,Pcbnew,10.0.6
; #@! TF.FileFunction,Plated,1,4,PTH
FMAT,2
METRIC
; #@! TA.AperFunction,Plated,PTH,ViaDrill
T1C0.200
; #@! TA.AperFunction,Plated,PTH,ComponentDrill
T2C0.200
; #@! TA.AperFunction,Plated,PTH,ViaDrill
T3C0.250
; #@! TA.AperFunction,Plated,PTH,ViaDrill
T4C0.300
; #@! TA.AperFunction,Plated,PTH,ViaDrill
T5C0.400
; #@! TA.AperFunction,Plated,PTH,ComponentDrill
T6C0.600
; #@! TA.AperFunction,Plated,PTH,ComponentDrill
T7C0.750
; #@! TA.AperFunction,Plated,PTH,ComponentDrill
T8C1.000
; #@! TA.AperFunction,Plated,PTH,ComponentDrill
T9C1.600
; #@! TA.AperFunction,Plated,PTH,ComponentDrill
T10C1.700
%
G90
G05
T1
X35.75Y-58.18
X36.25Y-57.08
X37.25Y-57.08
X38.25Y-57.08
X38.75Y-58.18
X39.25Y-57.08
X41.25Y-57.08
X41.75Y-58.18
X42.25Y-57.08
X42.75Y-58.18
X43.25Y-57.08
X44.25Y-57.08
X44.75Y-58.18
X45.25Y-57.08
T2
X7.81Y-30.8
X7.81Y-32.2
X8.51Y-30.1
X8.51Y-31.5
X8.51Y-32.9
X9.21Y-30.8
X9.21Y-32.2
X9.91Y-30.1
X9.91Y-31.5
X9.91Y-32.9
X10.61Y-30.8
X10.61Y-32.2
X34.5Y-18.45
X34.5Y-19.55
T3
X23.6Y-38.0
X26.3Y-46.6
X26.6Y-47.0
X26.6Y-48.95
X26.85Y-46.0
X29.09Y-48.95
X29.1Y-48.3
X30.9Y-40.2
X31.0Y-48.0
X31.58Y-48.95
X34.07Y-48.95
X36.56Y-48.95
X39.05Y-48.95
T4
X1.3Y-40.825
X1.3Y-44.025
X1.49Y-21.25
X1.49Y-38.75
X2.081Y-44.056
X2.24Y-42.48
X2.76Y-38.75
X2.8Y-21.2
X3.0Y-40.79
X3.0Y-43.23
X4.0Y-21.2
X4.231Y-37.547
X5.9Y-17.5
X5.9Y-18.3
X6.75Y-41.52
X7.462Y-3.243
X7.79Y-23.368
X8.087Y-8.413
X8.087Y-15.413
X9.11Y-22.475
X9.528Y-37.53
X9.9Y-45.7
X10.38Y-22.452
X11.08Y-40.85
X11.08Y-42.15
X11.1Y-45.7
X11.284Y-22.457
X11.6Y-38.8
X11.767Y-20.04
X11.77Y-16.5
X13.009Y-20.041
X13.6Y-17.5
X13.6Y-18.3
X13.653Y-40.85
X13.653Y-42.15
X13.675Y-37.533
X15.0Y-11.2
X15.2Y-22.5
X15.665Y-37.543
X15.913Y-8.413
X15.913Y-15.413
X15.991Y-34.075
X16.2Y-17.5
X16.227Y-40.85
X16.227Y-42.15
X16.8Y-16.9
X16.994Y-32.554
X17.132Y-37.35
X17.2Y-18.5
X17.323Y-30.963
X17.978Y-25.429
X18.035Y-31.702
X18.037Y-33.175
X18.3Y-8.8
X18.8Y-40.85
X18.8Y-42.15
X18.85Y-44.8
X19.2Y-7.8
X19.2Y-11.8
X19.246Y-37.889
X20.124Y-40.098
X20.15Y-42.2
X20.15Y-44.8
X20.2Y-46.15
X20.458Y-26.825
X20.459Y-23.015
X20.921Y-40.696
X21.0Y-33.4
X21.1Y-16.5
X21.1Y-17.5
X21.1Y-18.5
X21.928Y-31.405
X22.317Y-34.86
X22.349Y-54.675
X22.5Y-16.5
X22.5Y-17.5
X22.5Y-18.5
X22.523Y-50.066
X22.6Y-25.0
X22.6Y-26.2
X22.65Y-44.85
X22.65Y-46.15
X22.964Y-9.408
X23.29Y-49.5
X23.5Y-47.7
X23.75Y-53.0
X23.979Y-51.312
X23.979Y-54.688
X24.23Y-32.0
X24.23Y-34.0
X24.804Y-50.333
X24.874Y-28.095
X24.967Y-42.6
X25.1Y-44.85
X25.1Y-46.15
X25.15Y-48.8
X25.178Y-38.995
X25.183Y-39.759
X25.2Y-43.369
X25.29Y-55.5
X25.593Y-50.113
X25.826Y-9.928
X26.055Y-2.465
X26.1Y-34.1
X26.2Y-15.5
X26.5Y-50.15
X27.5Y-19.5
X27.5Y-20.5
X27.5Y-47.7
X27.6Y-11.0
X27.71Y-55.5
X27.75Y-38.5
X28.0Y-34.1
X28.127Y-42.483
X28.556Y-47.56
X28.75Y-43.832
X29.0Y-51.79
X29.01Y-50.15
X29.061Y-40.77
X29.7Y-46.3
X29.79Y-19.25
X30.054Y-51.033
X30.4Y-45.924
X31.249Y-54.428
X31.339Y-57.589
X31.52Y-50.15
X31.724Y-9.882
X31.825Y-22.72
X32.0Y-20.29
X32.2Y-50.9
X32.305Y-40.389
X32.5Y-47.5
X32.55Y-52.67
X32.98Y-10.75
X33.605Y-29.209
X34.0Y-50.9
X34.03Y-50.15
X34.07Y-17.73
X34.1Y-44.0
X34.15Y-14.0
X34.476Y-7.236
X34.631Y-37.948
X35.286Y-8.381
X35.489Y-46.243
X35.52Y-10.75
X35.623Y-48.413
X35.73Y-44.0
X36.186Y-11.893
X36.54Y-50.15
X36.616Y-45.6
X36.686Y-53.722
X36.8Y-35.3
X36.83Y-39.835
X37.492Y-8.381
X37.738Y-46.187
X37.99Y-16.49
X38.5Y-18.75
X38.716Y-54.226
X38.72Y-17.24
X39.05Y-50.15
X39.1Y-11.0
X39.165Y-53.101
X39.223Y-18.138
X39.373Y-8.637
X39.5Y-58.0
X39.7Y-14.0
X39.818Y-46.042
X40.093Y-48.413
X40.3Y-49.9
X40.417Y-16.49
X40.575Y-14.0
X40.761Y-19.536
X41.27Y-17.99
X41.685Y-53.59
X42.068Y-19.532
X42.113Y-3.76
X42.228Y-46.128
X42.343Y-48.413
X43.02Y-46.8
X43.25Y-10.75
X43.302Y-28.27
X43.45Y-17.0
X43.5Y-13.05
X43.5Y-14.95
X43.5Y-49.9
X43.5Y-53.4
X43.8Y-33.5
X44.04Y-5.0
X44.054Y-52.774
X44.471Y-50.674
X44.71Y-47.8
X45.0Y-33.5
X46.25Y-36.21
X46.343Y-5.613
X46.354Y-45.228
X47.45Y-52.67
X47.572Y-47.138
X48.29Y-34.0
X48.698Y-28.27
X48.698Y-31.73
X49.5Y-28.79
X49.5Y-31.21
X49.75Y-56.0
X49.979Y-54.312
X49.979Y-57.688
X50.71Y-26.5
X50.71Y-34.0
X50.9Y-54.4
X51.219Y-48.359
X51.29Y-58.5
X51.6Y-52.5
X51.698Y-50.4
X51.701Y-48.946
X53.6Y-47.698
X53.71Y-58.5
X54.0Y-50.0
X54.71Y-47.0
X55.0Y-54.79
X55.23Y-47.898
X56.302Y-49.6
X56.48Y-26.49
X56.6Y-10.3
X57.0Y-23.29
X57.0Y-25.71
X57.913Y-28.142
X58.102Y-23.387
X58.2Y-51.2
X58.362Y-21.883
X58.56Y-20.523
X58.56Y-30.677
X59.054Y-22.597
X59.2Y-13.9
X59.218Y-21.299
X60.0Y-19.6
X60.175Y-49.0
X63.665Y-23.188
X63.668Y-24.625
X64.8Y-43.377
X65.897Y-23.387
X66.0Y-30.77
X66.096Y-27.704
X66.141Y-24.95
X66.2Y-19.6
X66.538Y-25.627
X66.675Y-48.0
X66.789Y-46.506
X67.0Y-38.918
X68.0Y-32.0
X69.343Y-51.113
X70.0Y-50.5
X70.46Y-45.5
T5
X60.6Y-27.3
X65.104Y-33.604
X74.2Y-22.8
X75.0Y-13.273
X75.44Y-45.859
X86.641Y-21.08
T7
X19.0Y-56.0
X21.0Y-56.0
X62.0Y-55.0
X64.0Y-55.0
X74.0Y-55.0
X76.0Y-55.0
T8
X47.0Y-2.5
X47.0Y-7.5
X49.54Y-2.5
X49.54Y-7.5
X52.08Y-2.5
X52.08Y-7.5
X54.62Y-2.5
X54.62Y-7.5
X57.16Y-2.5
X57.16Y-7.5
X59.7Y-2.5
X59.7Y-7.5
X62.24Y-2.5
X62.24Y-7.5
X64.78Y-2.5
X64.78Y-7.5
X86.0Y-23.0
X86.0Y-25.54
X86.0Y-28.08
X86.0Y-32.0
X86.0Y-34.54
X86.0Y-37.08
T9
X83.3Y-11.42
X83.3Y-16.5
T10
X84.5Y-43.0
X84.5Y-46.96
T6
X23.68Y-3.95G85X23.68Y-3.35
G05
X23.68Y-8.38G85X23.68Y-7.28
G05
X32.32Y-3.95G85X32.32Y-3.35
G05
X32.32Y-8.38G85X32.32Y-7.28
G05
M30
