M48
; DRILL file KiCad 10.0.6 date 2026-09-14T07:10:18
; FORMAT={-:-/ absolute / metric / decimal}
; #@! TF.CreationDate,2026-09-14T07:10:18-07:00
; #@! TF.GenerationSoftware,Kicad,Pcbnew,10.0.6
; #@! TF.FileFunction,Plated,1,4,PTH
FMAT,2
METRIC
; #@! TA.AperFunction,Plated,PTH,ViaDrill
T1C0.200
; #@! TA.AperFunction,Plated,PTH,ComponentDrill
T2C0.200
; #@! TA.AperFunction,Plated,PTH,ViaDrill
T3C0.300
; #@! TA.AperFunction,Plated,PTH,ViaDrill
T4C0.400
; #@! TA.AperFunction,Plated,PTH,ComponentDrill
T5C0.600
; #@! TA.AperFunction,Plated,PTH,ComponentDrill
T6C0.750
; #@! TA.AperFunction,Plated,PTH,ComponentDrill
T7C1.000
; #@! TA.AperFunction,Plated,PTH,ComponentDrill
T8C1.600
; #@! TA.AperFunction,Plated,PTH,ComponentDrill
T9C1.700
%
G90
G05
T1
X35.75Y-58.18
X36.75Y-58.18
X38.25Y-57.08
X38.75Y-58.18
X39.25Y-57.08
X39.75Y-58.18
X40.25Y-57.08
X41.25Y-57.08
X42.25Y-57.08
X42.75Y-58.18
X43.75Y-58.18
X45.25Y-57.08
T2
X7.81Y-30.8
X7.81Y-32.2
X8.51Y-30.1
X8.51Y-31.5
X8.51Y-32.9
X9.21Y-30.8
X9.21Y-32.2
X9.91Y-30.1
X9.91Y-31.5
X9.91Y-32.9
X10.61Y-30.8
X10.61Y-32.2
T3
X1.49Y-21.25
X1.49Y-38.75
X2.76Y-22.465
X2.76Y-38.75
X4.002Y-22.459
X7.821Y-23.529
X7.84Y-22.46
X7.942Y-45.25
X8.059Y-37.53
X8.087Y-8.413
X8.087Y-15.413
X10.584Y-37.544
X11.5Y-48.212
X11.713Y-50.011
X11.77Y-9.5
X11.77Y-16.5
X12.262Y-37.53
X12.29Y-47.0
X12.291Y-50.577
X12.46Y-2.5
X12.768Y-47.978
X13.143Y-37.525
X14.379Y-47.902
X14.391Y-37.547
X14.71Y-47.0
X15.549Y-18.428
X15.85Y-48.092
X15.85Y-51.908
X15.913Y-8.413
X15.913Y-15.413
X15.98Y-53.0
X16.288Y-17.029
X16.607Y-40.302
X16.73Y-37.19
X17.252Y-24.673
X17.29Y-18.0
X17.469Y-37.517
X17.894Y-34.445
X17.956Y-33.685
X18.038Y-24.285
X18.6Y-5.472
X18.6Y-7.702
X19.363Y-19.897
X19.71Y-18.0
X19.712Y-14.971
X19.735Y-16.546
X19.929Y-20.476
X20.458Y-35.715
X20.458Y-26.825
X20.723Y-37.77
X20.756Y-31.906
X20.76Y-33.175
X20.817Y-30.691
X21.325Y-22.0
X21.515Y-23.015
X21.729Y-31.284
X21.79Y-25.0
X22.2Y-50.089
X22.48Y-3.0
X23.29Y-49.5
X23.744Y-29.723
X23.75Y-53.0
X23.8Y-38.2
X23.8Y-40.0
X23.979Y-51.312
X23.979Y-54.688
X24.21Y-25.0
X24.23Y-32.0
X24.23Y-34.0
X24.675Y-22.0
X24.747Y-3.599
X25.29Y-55.5
X25.71Y-47.0
X25.71Y-49.5
X25.937Y-13.684
X26.446Y-7.544
X26.5Y-46.4
X26.628Y-28.095
X26.843Y-50.712
X27.71Y-55.5
X28.218Y-47.431
X28.54Y-37.36
X28.707Y-39.825
X28.75Y-43.832
X28.75Y-48.168
X29.0Y-51.79
X29.033Y-38.0
X29.302Y-48.802
X30.085Y-46.4
X30.4Y-45.551
X30.681Y-56.806
X31.0Y-37.4
X31.0Y-43.5
X31.175Y-36.175
X31.371Y-47.552
X31.676Y-40.673
X31.721Y-49.108
X31.924Y-48.063
X32.005Y-35.782
X32.186Y-55.185
X32.55Y-52.67
X32.607Y-47.359
X32.743Y-53.923
X33.069Y-48.565
X33.388Y-38.541
X34.047Y-56.806
X34.25Y-1.52
X34.25Y-12.5
X34.499Y-48.473
X34.75Y-9.0
X34.8Y-5.75
X35.02Y-4.0
X35.285Y-10.705
X35.285Y-14.5
X35.604Y-50.089
X35.623Y-48.413
X35.73Y-44.0
X35.975Y-21.886
X36.7Y-5.75
X37.75Y-11.5
X38.716Y-54.226
X38.947Y-29.999
X39.0Y-4.05
X39.0Y-5.95
X40.069Y-13.684
X40.093Y-48.413
X40.5Y-8.05
X40.75Y-4.52
X42.3Y-28.4
X42.343Y-48.413
X42.495Y-4.411
X42.5Y-10.21
X43.02Y-46.8
X43.264Y-4.438
X43.302Y-28.27
X43.8Y-33.5
X44.04Y-5.0
X44.71Y-47.8
X45.0Y-33.5
X45.3Y-27.1
X46.225Y-13.402
X46.25Y-36.21
X46.343Y-5.613
X47.45Y-52.67
X48.027Y-49.25
X48.29Y-34.0
X48.698Y-28.27
X48.698Y-31.73
X49.5Y-28.79
X49.5Y-31.21
X49.75Y-56.0
X49.979Y-54.312
X49.979Y-57.688
X50.71Y-26.5
X50.71Y-34.0
X50.9Y-54.9
X51.29Y-58.5
X51.698Y-50.4
X52.645Y-48.293
X53.6Y-47.698
X53.71Y-58.5
X54.71Y-47.0
X54.722Y-46.202
X55.0Y-54.79
X55.192Y-47.849
X56.302Y-49.6
X56.48Y-26.49
X57.0Y-23.29
X57.0Y-24.8
X57.0Y-25.71
X58.102Y-23.387
X58.362Y-21.883
X58.56Y-20.523
X58.56Y-30.677
X59.054Y-22.597
X59.218Y-21.299
X60.175Y-49.0
X63.2Y-25.275
X63.646Y-24.625
X63.665Y-23.188
X63.9Y-21.3
X65.897Y-23.387
X66.0Y-30.77
X66.538Y-26.466
X66.675Y-48.0
X66.789Y-46.506
X67.086Y-38.832
X67.259Y-23.148
X68.0Y-32.0
X69.343Y-51.113
X70.0Y-50.5
X70.071Y-46.776
X70.46Y-45.5
T4
X65.104Y-33.604
X74.15Y-17.177
X75.062Y-45.995
X86.641Y-21.08
T6
X62.0Y-55.0
X64.0Y-55.0
X74.0Y-55.0
X76.0Y-55.0
T7
X47.0Y-2.5
X47.0Y-7.5
X49.54Y-2.5
X49.54Y-7.5
X52.08Y-2.5
X52.08Y-7.5
X54.62Y-2.5
X54.62Y-7.5
X57.16Y-2.5
X57.16Y-7.5
X59.7Y-2.5
X59.7Y-7.5
X62.24Y-2.5
X62.24Y-7.5
X86.0Y-23.0
X86.0Y-25.54
X86.0Y-28.08
X86.0Y-32.0
X86.0Y-34.54
X86.0Y-37.08
T8
X83.3Y-11.42
X83.3Y-16.5
T9
X84.5Y-43.0
X84.5Y-46.96
T5
X23.68Y-3.95G85X23.68Y-3.35
G05
X23.68Y-8.38G85X23.68Y-7.28
G05
X32.32Y-3.95G85X32.32Y-3.35
G05
X32.32Y-8.38G85X32.32Y-7.28
G05
M30
