%TF.GenerationSoftware,KiCad,Pcbnew,10.0.6*%
%TF.CreationDate,2026-09-14T23:48:34-07:00*%
%TF.ProjectId,plush-toy-mainboard,706c7573-682d-4746-9f79-2d6d61696e62,rev?*%
%TF.SameCoordinates,Original*%
%TF.FileFunction,Drillmap*%
%TF.FilePolarity,Positive*%
%FSLAX45Y45*%
G04 Gerber Fmt 4.5, Leading zero omitted, Abs format (unit mm)*
G04 Created by KiCad (PCBNEW 10.0.6) date 2026-09-14 23:48:34*
%MOMM*%
%LPD*%
G01*
G04 APERTURE LIST*
%ADD10C,0.100000*%
%ADD11C,0.200000*%
%ADD12C,0.320000*%
G04 APERTURE END LIST*
D10*
X0Y0D02*
X9000000Y0D01*
X0Y-6000000D02*
X0Y0D01*
X9000000Y0D02*
X9000000Y-6000000D01*
X9000000Y-6000000D02*
X0Y-6000000D01*
D11*
D10*
X1509000Y-4980000D02*
X1549000Y-5020000D01*
X1549000Y-4980000D02*
X1509000Y-5020000D01*
X2543500Y-730000D02*
G75*
G02*
X2478500Y-730000I-32500J0D01*
G01*
X2478500Y-730000D02*
G75*
G02*
X2543500Y-730000I32500J0D01*
G01*
X3121500Y-730000D02*
G75*
G02*
X3056500Y-730000I-32500J0D01*
G01*
X3056500Y-730000D02*
G75*
G02*
X3121500Y-730000I32500J0D01*
G01*
D12*
X400000Y-240000D02*
X400000Y-560000D01*
X240000Y-400000D02*
X560000Y-400000D01*
X400000Y-5440000D02*
X400000Y-5760000D01*
X240000Y-5600000D02*
X560000Y-5600000D01*
X8600000Y-240000D02*
X8600000Y-560000D01*
X8440000Y-400000D02*
X8760000Y-400000D01*
X8600000Y-5440000D02*
X8600000Y-5760000D01*
X8440000Y-5600000D02*
X8760000Y-5600000D01*
D11*
X255777Y-6316484D02*
X255777Y-6116484D01*
X255777Y-6116484D02*
X303396Y-6116484D01*
X303396Y-6116484D02*
X331967Y-6126008D01*
X331967Y-6126008D02*
X351015Y-6145055D01*
X351015Y-6145055D02*
X360539Y-6164103D01*
X360539Y-6164103D02*
X370062Y-6202198D01*
X370062Y-6202198D02*
X370062Y-6230769D01*
X370062Y-6230769D02*
X360539Y-6268865D01*
X360539Y-6268865D02*
X351015Y-6287912D01*
X351015Y-6287912D02*
X331967Y-6306960D01*
X331967Y-6306960D02*
X303396Y-6316484D01*
X303396Y-6316484D02*
X255777Y-6316484D01*
X455777Y-6316484D02*
X455777Y-6183150D01*
X455777Y-6221246D02*
X465301Y-6202198D01*
X465301Y-6202198D02*
X474824Y-6192674D01*
X474824Y-6192674D02*
X493872Y-6183150D01*
X493872Y-6183150D02*
X512920Y-6183150D01*
X579586Y-6316484D02*
X579586Y-6183150D01*
X579586Y-6116484D02*
X570063Y-6126008D01*
X570063Y-6126008D02*
X579586Y-6135531D01*
X579586Y-6135531D02*
X589110Y-6126008D01*
X589110Y-6126008D02*
X579586Y-6116484D01*
X579586Y-6116484D02*
X579586Y-6135531D01*
X703396Y-6316484D02*
X684348Y-6306960D01*
X684348Y-6306960D02*
X674824Y-6287912D01*
X674824Y-6287912D02*
X674824Y-6116484D01*
X808158Y-6316484D02*
X789110Y-6306960D01*
X789110Y-6306960D02*
X779586Y-6287912D01*
X779586Y-6287912D02*
X779586Y-6116484D01*
X1036729Y-6316484D02*
X1036729Y-6116484D01*
X1036729Y-6116484D02*
X1103396Y-6259341D01*
X1103396Y-6259341D02*
X1170063Y-6116484D01*
X1170063Y-6116484D02*
X1170063Y-6316484D01*
X1351015Y-6316484D02*
X1351015Y-6211722D01*
X1351015Y-6211722D02*
X1341491Y-6192674D01*
X1341491Y-6192674D02*
X1322444Y-6183150D01*
X1322444Y-6183150D02*
X1284348Y-6183150D01*
X1284348Y-6183150D02*
X1265301Y-6192674D01*
X1351015Y-6306960D02*
X1331967Y-6316484D01*
X1331967Y-6316484D02*
X1284348Y-6316484D01*
X1284348Y-6316484D02*
X1265301Y-6306960D01*
X1265301Y-6306960D02*
X1255777Y-6287912D01*
X1255777Y-6287912D02*
X1255777Y-6268865D01*
X1255777Y-6268865D02*
X1265301Y-6249817D01*
X1265301Y-6249817D02*
X1284348Y-6240293D01*
X1284348Y-6240293D02*
X1331967Y-6240293D01*
X1331967Y-6240293D02*
X1351015Y-6230769D01*
X1446253Y-6183150D02*
X1446253Y-6383150D01*
X1446253Y-6192674D02*
X1465301Y-6183150D01*
X1465301Y-6183150D02*
X1503396Y-6183150D01*
X1503396Y-6183150D02*
X1522443Y-6192674D01*
X1522443Y-6192674D02*
X1531967Y-6202198D01*
X1531967Y-6202198D02*
X1541491Y-6221246D01*
X1541491Y-6221246D02*
X1541491Y-6278388D01*
X1541491Y-6278388D02*
X1531967Y-6297436D01*
X1531967Y-6297436D02*
X1522443Y-6306960D01*
X1522443Y-6306960D02*
X1503396Y-6316484D01*
X1503396Y-6316484D02*
X1465301Y-6316484D01*
X1465301Y-6316484D02*
X1446253Y-6306960D01*
X1627205Y-6297436D02*
X1636729Y-6306960D01*
X1636729Y-6306960D02*
X1627205Y-6316484D01*
X1627205Y-6316484D02*
X1617682Y-6306960D01*
X1617682Y-6306960D02*
X1627205Y-6297436D01*
X1627205Y-6297436D02*
X1627205Y-6316484D01*
X1627205Y-6192674D02*
X1636729Y-6202198D01*
X1636729Y-6202198D02*
X1627205Y-6211722D01*
X1627205Y-6211722D02*
X1617682Y-6202198D01*
X1617682Y-6202198D02*
X1627205Y-6192674D01*
X1627205Y-6192674D02*
X1627205Y-6211722D01*
D10*
X-45000Y-6625000D02*
X-5000Y-6665000D01*
X-5000Y-6625000D02*
X-45000Y-6665000D01*
D11*
X293872Y-6536484D02*
X312920Y-6536484D01*
X312920Y-6536484D02*
X331967Y-6546008D01*
X331967Y-6546008D02*
X341491Y-6555531D01*
X341491Y-6555531D02*
X351015Y-6574579D01*
X351015Y-6574579D02*
X360539Y-6612674D01*
X360539Y-6612674D02*
X360539Y-6660293D01*
X360539Y-6660293D02*
X351015Y-6698388D01*
X351015Y-6698388D02*
X341491Y-6717436D01*
X341491Y-6717436D02*
X331967Y-6726960D01*
X331967Y-6726960D02*
X312920Y-6736484D01*
X312920Y-6736484D02*
X293872Y-6736484D01*
X293872Y-6736484D02*
X274824Y-6726960D01*
X274824Y-6726960D02*
X265301Y-6717436D01*
X265301Y-6717436D02*
X255777Y-6698388D01*
X255777Y-6698388D02*
X246253Y-6660293D01*
X246253Y-6660293D02*
X246253Y-6612674D01*
X246253Y-6612674D02*
X255777Y-6574579D01*
X255777Y-6574579D02*
X265301Y-6555531D01*
X265301Y-6555531D02*
X274824Y-6546008D01*
X274824Y-6546008D02*
X293872Y-6536484D01*
X446253Y-6717436D02*
X455777Y-6726960D01*
X455777Y-6726960D02*
X446253Y-6736484D01*
X446253Y-6736484D02*
X436729Y-6726960D01*
X436729Y-6726960D02*
X446253Y-6717436D01*
X446253Y-6717436D02*
X446253Y-6736484D01*
X627205Y-6603150D02*
X627205Y-6736484D01*
X579586Y-6526960D02*
X531967Y-6669817D01*
X531967Y-6669817D02*
X655777Y-6669817D01*
X770062Y-6536484D02*
X789110Y-6536484D01*
X789110Y-6536484D02*
X808158Y-6546008D01*
X808158Y-6546008D02*
X817682Y-6555531D01*
X817682Y-6555531D02*
X827205Y-6574579D01*
X827205Y-6574579D02*
X836729Y-6612674D01*
X836729Y-6612674D02*
X836729Y-6660293D01*
X836729Y-6660293D02*
X827205Y-6698388D01*
X827205Y-6698388D02*
X817682Y-6717436D01*
X817682Y-6717436D02*
X808158Y-6726960D01*
X808158Y-6726960D02*
X789110Y-6736484D01*
X789110Y-6736484D02*
X770062Y-6736484D01*
X770062Y-6736484D02*
X751015Y-6726960D01*
X751015Y-6726960D02*
X741491Y-6717436D01*
X741491Y-6717436D02*
X731967Y-6698388D01*
X731967Y-6698388D02*
X722443Y-6660293D01*
X722443Y-6660293D02*
X722443Y-6612674D01*
X722443Y-6612674D02*
X731967Y-6574579D01*
X731967Y-6574579D02*
X741491Y-6555531D01*
X741491Y-6555531D02*
X751015Y-6546008D01*
X751015Y-6546008D02*
X770062Y-6536484D01*
X960539Y-6536484D02*
X979586Y-6536484D01*
X979586Y-6536484D02*
X998634Y-6546008D01*
X998634Y-6546008D02*
X1008158Y-6555531D01*
X1008158Y-6555531D02*
X1017682Y-6574579D01*
X1017682Y-6574579D02*
X1027205Y-6612674D01*
X1027205Y-6612674D02*
X1027205Y-6660293D01*
X1027205Y-6660293D02*
X1017682Y-6698388D01*
X1017682Y-6698388D02*
X1008158Y-6717436D01*
X1008158Y-6717436D02*
X998634Y-6726960D01*
X998634Y-6726960D02*
X979586Y-6736484D01*
X979586Y-6736484D02*
X960539Y-6736484D01*
X960539Y-6736484D02*
X941491Y-6726960D01*
X941491Y-6726960D02*
X931967Y-6717436D01*
X931967Y-6717436D02*
X922443Y-6698388D01*
X922443Y-6698388D02*
X912920Y-6660293D01*
X912920Y-6660293D02*
X912920Y-6612674D01*
X912920Y-6612674D02*
X922443Y-6574579D01*
X922443Y-6574579D02*
X931967Y-6555531D01*
X931967Y-6555531D02*
X941491Y-6546008D01*
X941491Y-6546008D02*
X960539Y-6536484D01*
X1112920Y-6736484D02*
X1112920Y-6603150D01*
X1112920Y-6622198D02*
X1122444Y-6612674D01*
X1122444Y-6612674D02*
X1141491Y-6603150D01*
X1141491Y-6603150D02*
X1170063Y-6603150D01*
X1170063Y-6603150D02*
X1189110Y-6612674D01*
X1189110Y-6612674D02*
X1198634Y-6631722D01*
X1198634Y-6631722D02*
X1198634Y-6736484D01*
X1198634Y-6631722D02*
X1208158Y-6612674D01*
X1208158Y-6612674D02*
X1227205Y-6603150D01*
X1227205Y-6603150D02*
X1255777Y-6603150D01*
X1255777Y-6603150D02*
X1274825Y-6612674D01*
X1274825Y-6612674D02*
X1284348Y-6631722D01*
X1284348Y-6631722D02*
X1284348Y-6736484D01*
X1379586Y-6736484D02*
X1379586Y-6603150D01*
X1379586Y-6622198D02*
X1389110Y-6612674D01*
X1389110Y-6612674D02*
X1408158Y-6603150D01*
X1408158Y-6603150D02*
X1436729Y-6603150D01*
X1436729Y-6603150D02*
X1455777Y-6612674D01*
X1455777Y-6612674D02*
X1465301Y-6631722D01*
X1465301Y-6631722D02*
X1465301Y-6736484D01*
X1465301Y-6631722D02*
X1474824Y-6612674D01*
X1474824Y-6612674D02*
X1493872Y-6603150D01*
X1493872Y-6603150D02*
X1522443Y-6603150D01*
X1522443Y-6603150D02*
X1541491Y-6612674D01*
X1541491Y-6612674D02*
X1551015Y-6631722D01*
X1551015Y-6631722D02*
X1551015Y-6736484D01*
X1941491Y-6526960D02*
X1770063Y-6784103D01*
X2198634Y-6536484D02*
X2217682Y-6536484D01*
X2217682Y-6536484D02*
X2236729Y-6546008D01*
X2236729Y-6546008D02*
X2246253Y-6555531D01*
X2246253Y-6555531D02*
X2255777Y-6574579D01*
X2255777Y-6574579D02*
X2265301Y-6612674D01*
X2265301Y-6612674D02*
X2265301Y-6660293D01*
X2265301Y-6660293D02*
X2255777Y-6698388D01*
X2255777Y-6698388D02*
X2246253Y-6717436D01*
X2246253Y-6717436D02*
X2236729Y-6726960D01*
X2236729Y-6726960D02*
X2217682Y-6736484D01*
X2217682Y-6736484D02*
X2198634Y-6736484D01*
X2198634Y-6736484D02*
X2179587Y-6726960D01*
X2179587Y-6726960D02*
X2170063Y-6717436D01*
X2170063Y-6717436D02*
X2160539Y-6698388D01*
X2160539Y-6698388D02*
X2151015Y-6660293D01*
X2151015Y-6660293D02*
X2151015Y-6612674D01*
X2151015Y-6612674D02*
X2160539Y-6574579D01*
X2160539Y-6574579D02*
X2170063Y-6555531D01*
X2170063Y-6555531D02*
X2179587Y-6546008D01*
X2179587Y-6546008D02*
X2198634Y-6536484D01*
X2351015Y-6717436D02*
X2360539Y-6726960D01*
X2360539Y-6726960D02*
X2351015Y-6736484D01*
X2351015Y-6736484D02*
X2341491Y-6726960D01*
X2341491Y-6726960D02*
X2351015Y-6717436D01*
X2351015Y-6717436D02*
X2351015Y-6736484D01*
X2484348Y-6536484D02*
X2503396Y-6536484D01*
X2503396Y-6536484D02*
X2522444Y-6546008D01*
X2522444Y-6546008D02*
X2531968Y-6555531D01*
X2531968Y-6555531D02*
X2541491Y-6574579D01*
X2541491Y-6574579D02*
X2551015Y-6612674D01*
X2551015Y-6612674D02*
X2551015Y-6660293D01*
X2551015Y-6660293D02*
X2541491Y-6698388D01*
X2541491Y-6698388D02*
X2531968Y-6717436D01*
X2531968Y-6717436D02*
X2522444Y-6726960D01*
X2522444Y-6726960D02*
X2503396Y-6736484D01*
X2503396Y-6736484D02*
X2484348Y-6736484D01*
X2484348Y-6736484D02*
X2465301Y-6726960D01*
X2465301Y-6726960D02*
X2455777Y-6717436D01*
X2455777Y-6717436D02*
X2446253Y-6698388D01*
X2446253Y-6698388D02*
X2436729Y-6660293D01*
X2436729Y-6660293D02*
X2436729Y-6612674D01*
X2436729Y-6612674D02*
X2446253Y-6574579D01*
X2446253Y-6574579D02*
X2455777Y-6555531D01*
X2455777Y-6555531D02*
X2465301Y-6546008D01*
X2465301Y-6546008D02*
X2484348Y-6536484D01*
X2741491Y-6736484D02*
X2627206Y-6736484D01*
X2684348Y-6736484D02*
X2684348Y-6536484D01*
X2684348Y-6536484D02*
X2665301Y-6565055D01*
X2665301Y-6565055D02*
X2646253Y-6584103D01*
X2646253Y-6584103D02*
X2627206Y-6593627D01*
X2922444Y-6536484D02*
X2827206Y-6536484D01*
X2827206Y-6536484D02*
X2817682Y-6631722D01*
X2817682Y-6631722D02*
X2827206Y-6622198D01*
X2827206Y-6622198D02*
X2846253Y-6612674D01*
X2846253Y-6612674D02*
X2893872Y-6612674D01*
X2893872Y-6612674D02*
X2912920Y-6622198D01*
X2912920Y-6622198D02*
X2922444Y-6631722D01*
X2922444Y-6631722D02*
X2931967Y-6650769D01*
X2931967Y-6650769D02*
X2931967Y-6698388D01*
X2931967Y-6698388D02*
X2922444Y-6717436D01*
X2922444Y-6717436D02*
X2912920Y-6726960D01*
X2912920Y-6726960D02*
X2893872Y-6736484D01*
X2893872Y-6736484D02*
X2846253Y-6736484D01*
X2846253Y-6736484D02*
X2827206Y-6726960D01*
X2827206Y-6726960D02*
X2817682Y-6717436D01*
X2998634Y-6536484D02*
X3131967Y-6536484D01*
X3131967Y-6536484D02*
X3046253Y-6736484D01*
X3198634Y-6536484D02*
X3198634Y-6574579D01*
X3274825Y-6536484D02*
X3274825Y-6574579D01*
X3570063Y-6812674D02*
X3560539Y-6803150D01*
X3560539Y-6803150D02*
X3541491Y-6774579D01*
X3541491Y-6774579D02*
X3531968Y-6755531D01*
X3531968Y-6755531D02*
X3522444Y-6726960D01*
X3522444Y-6726960D02*
X3512920Y-6679341D01*
X3512920Y-6679341D02*
X3512920Y-6641246D01*
X3512920Y-6641246D02*
X3522444Y-6593627D01*
X3522444Y-6593627D02*
X3531968Y-6565055D01*
X3531968Y-6565055D02*
X3541491Y-6546008D01*
X3541491Y-6546008D02*
X3560539Y-6517436D01*
X3560539Y-6517436D02*
X3570063Y-6507912D01*
X3751015Y-6736484D02*
X3636729Y-6736484D01*
X3693872Y-6736484D02*
X3693872Y-6536484D01*
X3693872Y-6536484D02*
X3674825Y-6565055D01*
X3674825Y-6565055D02*
X3655777Y-6584103D01*
X3655777Y-6584103D02*
X3636729Y-6593627D01*
X3989110Y-6736484D02*
X3989110Y-6536484D01*
X4074825Y-6736484D02*
X4074825Y-6631722D01*
X4074825Y-6631722D02*
X4065301Y-6612674D01*
X4065301Y-6612674D02*
X4046253Y-6603150D01*
X4046253Y-6603150D02*
X4017682Y-6603150D01*
X4017682Y-6603150D02*
X3998634Y-6612674D01*
X3998634Y-6612674D02*
X3989110Y-6622198D01*
X4198634Y-6736484D02*
X4179587Y-6726960D01*
X4179587Y-6726960D02*
X4170063Y-6717436D01*
X4170063Y-6717436D02*
X4160539Y-6698388D01*
X4160539Y-6698388D02*
X4160539Y-6641246D01*
X4160539Y-6641246D02*
X4170063Y-6622198D01*
X4170063Y-6622198D02*
X4179587Y-6612674D01*
X4179587Y-6612674D02*
X4198634Y-6603150D01*
X4198634Y-6603150D02*
X4227206Y-6603150D01*
X4227206Y-6603150D02*
X4246253Y-6612674D01*
X4246253Y-6612674D02*
X4255777Y-6622198D01*
X4255777Y-6622198D02*
X4265301Y-6641246D01*
X4265301Y-6641246D02*
X4265301Y-6698388D01*
X4265301Y-6698388D02*
X4255777Y-6717436D01*
X4255777Y-6717436D02*
X4246253Y-6726960D01*
X4246253Y-6726960D02*
X4227206Y-6736484D01*
X4227206Y-6736484D02*
X4198634Y-6736484D01*
X4379587Y-6736484D02*
X4360539Y-6726960D01*
X4360539Y-6726960D02*
X4351015Y-6707912D01*
X4351015Y-6707912D02*
X4351015Y-6536484D01*
X4531968Y-6726960D02*
X4512920Y-6736484D01*
X4512920Y-6736484D02*
X4474825Y-6736484D01*
X4474825Y-6736484D02*
X4455777Y-6726960D01*
X4455777Y-6726960D02*
X4446253Y-6707912D01*
X4446253Y-6707912D02*
X4446253Y-6631722D01*
X4446253Y-6631722D02*
X4455777Y-6612674D01*
X4455777Y-6612674D02*
X4474825Y-6603150D01*
X4474825Y-6603150D02*
X4512920Y-6603150D01*
X4512920Y-6603150D02*
X4531968Y-6612674D01*
X4531968Y-6612674D02*
X4541492Y-6631722D01*
X4541492Y-6631722D02*
X4541492Y-6650769D01*
X4541492Y-6650769D02*
X4446253Y-6669817D01*
X4608158Y-6812674D02*
X4617682Y-6803150D01*
X4617682Y-6803150D02*
X4636730Y-6774579D01*
X4636730Y-6774579D02*
X4646253Y-6755531D01*
X4646253Y-6755531D02*
X4655777Y-6726960D01*
X4655777Y-6726960D02*
X4665301Y-6679341D01*
X4665301Y-6679341D02*
X4665301Y-6641246D01*
X4665301Y-6641246D02*
X4655777Y-6593627D01*
X4655777Y-6593627D02*
X4646253Y-6565055D01*
X4646253Y-6565055D02*
X4636730Y-6546008D01*
X4636730Y-6546008D02*
X4617682Y-6517436D01*
X4617682Y-6517436D02*
X4608158Y-6507912D01*
X4970063Y-6812674D02*
X4960539Y-6803150D01*
X4960539Y-6803150D02*
X4941492Y-6774579D01*
X4941492Y-6774579D02*
X4931968Y-6755531D01*
X4931968Y-6755531D02*
X4922444Y-6726960D01*
X4922444Y-6726960D02*
X4912920Y-6679341D01*
X4912920Y-6679341D02*
X4912920Y-6641246D01*
X4912920Y-6641246D02*
X4922444Y-6593627D01*
X4922444Y-6593627D02*
X4931968Y-6565055D01*
X4931968Y-6565055D02*
X4941492Y-6546008D01*
X4941492Y-6546008D02*
X4960539Y-6517436D01*
X4960539Y-6517436D02*
X4970063Y-6507912D01*
X5046253Y-6603150D02*
X5046253Y-6736484D01*
X5046253Y-6622198D02*
X5055777Y-6612674D01*
X5055777Y-6612674D02*
X5074825Y-6603150D01*
X5074825Y-6603150D02*
X5103396Y-6603150D01*
X5103396Y-6603150D02*
X5122444Y-6612674D01*
X5122444Y-6612674D02*
X5131968Y-6631722D01*
X5131968Y-6631722D02*
X5131968Y-6736484D01*
X5255777Y-6736484D02*
X5236730Y-6726960D01*
X5236730Y-6726960D02*
X5227206Y-6717436D01*
X5227206Y-6717436D02*
X5217682Y-6698388D01*
X5217682Y-6698388D02*
X5217682Y-6641246D01*
X5217682Y-6641246D02*
X5227206Y-6622198D01*
X5227206Y-6622198D02*
X5236730Y-6612674D01*
X5236730Y-6612674D02*
X5255777Y-6603150D01*
X5255777Y-6603150D02*
X5284349Y-6603150D01*
X5284349Y-6603150D02*
X5303396Y-6612674D01*
X5303396Y-6612674D02*
X5312920Y-6622198D01*
X5312920Y-6622198D02*
X5322444Y-6641246D01*
X5322444Y-6641246D02*
X5322444Y-6698388D01*
X5322444Y-6698388D02*
X5312920Y-6717436D01*
X5312920Y-6717436D02*
X5303396Y-6726960D01*
X5303396Y-6726960D02*
X5284349Y-6736484D01*
X5284349Y-6736484D02*
X5255777Y-6736484D01*
X5379587Y-6603150D02*
X5455777Y-6603150D01*
X5408158Y-6536484D02*
X5408158Y-6707912D01*
X5408158Y-6707912D02*
X5417682Y-6726960D01*
X5417682Y-6726960D02*
X5436730Y-6736484D01*
X5436730Y-6736484D02*
X5455777Y-6736484D01*
X5674825Y-6603150D02*
X5674825Y-6803150D01*
X5674825Y-6612674D02*
X5693872Y-6603150D01*
X5693872Y-6603150D02*
X5731968Y-6603150D01*
X5731968Y-6603150D02*
X5751015Y-6612674D01*
X5751015Y-6612674D02*
X5760539Y-6622198D01*
X5760539Y-6622198D02*
X5770063Y-6641246D01*
X5770063Y-6641246D02*
X5770063Y-6698388D01*
X5770063Y-6698388D02*
X5760539Y-6717436D01*
X5760539Y-6717436D02*
X5751015Y-6726960D01*
X5751015Y-6726960D02*
X5731968Y-6736484D01*
X5731968Y-6736484D02*
X5693872Y-6736484D01*
X5693872Y-6736484D02*
X5674825Y-6726960D01*
X5884349Y-6736484D02*
X5865301Y-6726960D01*
X5865301Y-6726960D02*
X5855777Y-6707912D01*
X5855777Y-6707912D02*
X5855777Y-6536484D01*
X6046253Y-6736484D02*
X6046253Y-6631722D01*
X6046253Y-6631722D02*
X6036730Y-6612674D01*
X6036730Y-6612674D02*
X6017682Y-6603150D01*
X6017682Y-6603150D02*
X5979587Y-6603150D01*
X5979587Y-6603150D02*
X5960539Y-6612674D01*
X6046253Y-6726960D02*
X6027206Y-6736484D01*
X6027206Y-6736484D02*
X5979587Y-6736484D01*
X5979587Y-6736484D02*
X5960539Y-6726960D01*
X5960539Y-6726960D02*
X5951015Y-6707912D01*
X5951015Y-6707912D02*
X5951015Y-6688865D01*
X5951015Y-6688865D02*
X5960539Y-6669817D01*
X5960539Y-6669817D02*
X5979587Y-6660293D01*
X5979587Y-6660293D02*
X6027206Y-6660293D01*
X6027206Y-6660293D02*
X6046253Y-6650769D01*
X6112920Y-6603150D02*
X6189111Y-6603150D01*
X6141492Y-6536484D02*
X6141492Y-6707912D01*
X6141492Y-6707912D02*
X6151015Y-6726960D01*
X6151015Y-6726960D02*
X6170063Y-6736484D01*
X6170063Y-6736484D02*
X6189111Y-6736484D01*
X6331968Y-6726960D02*
X6312920Y-6736484D01*
X6312920Y-6736484D02*
X6274825Y-6736484D01*
X6274825Y-6736484D02*
X6255777Y-6726960D01*
X6255777Y-6726960D02*
X6246253Y-6707912D01*
X6246253Y-6707912D02*
X6246253Y-6631722D01*
X6246253Y-6631722D02*
X6255777Y-6612674D01*
X6255777Y-6612674D02*
X6274825Y-6603150D01*
X6274825Y-6603150D02*
X6312920Y-6603150D01*
X6312920Y-6603150D02*
X6331968Y-6612674D01*
X6331968Y-6612674D02*
X6341492Y-6631722D01*
X6341492Y-6631722D02*
X6341492Y-6650769D01*
X6341492Y-6650769D02*
X6246253Y-6669817D01*
X6512920Y-6736484D02*
X6512920Y-6536484D01*
X6512920Y-6726960D02*
X6493873Y-6736484D01*
X6493873Y-6736484D02*
X6455777Y-6736484D01*
X6455777Y-6736484D02*
X6436730Y-6726960D01*
X6436730Y-6726960D02*
X6427206Y-6717436D01*
X6427206Y-6717436D02*
X6417682Y-6698388D01*
X6417682Y-6698388D02*
X6417682Y-6641246D01*
X6417682Y-6641246D02*
X6427206Y-6622198D01*
X6427206Y-6622198D02*
X6436730Y-6612674D01*
X6436730Y-6612674D02*
X6455777Y-6603150D01*
X6455777Y-6603150D02*
X6493873Y-6603150D01*
X6493873Y-6603150D02*
X6512920Y-6612674D01*
X6589111Y-6812674D02*
X6598634Y-6803150D01*
X6598634Y-6803150D02*
X6617682Y-6774579D01*
X6617682Y-6774579D02*
X6627206Y-6755531D01*
X6627206Y-6755531D02*
X6636730Y-6726960D01*
X6636730Y-6726960D02*
X6646253Y-6679341D01*
X6646253Y-6679341D02*
X6646253Y-6641246D01*
X6646253Y-6641246D02*
X6636730Y-6593627D01*
X6636730Y-6593627D02*
X6627206Y-6565055D01*
X6627206Y-6565055D02*
X6617682Y-6546008D01*
X6617682Y-6546008D02*
X6598634Y-6517436D01*
X6598634Y-6517436D02*
X6589111Y-6507912D01*
D10*
X-5000Y-6909000D02*
G75*
G02*
X-70000Y-6909000I-32500J0D01*
G01*
X-70000Y-6909000D02*
G75*
G02*
X-5000Y-6909000I32500J0D01*
G01*
D11*
X293872Y-6800484D02*
X312920Y-6800484D01*
X312920Y-6800484D02*
X331967Y-6810008D01*
X331967Y-6810008D02*
X341491Y-6819531D01*
X341491Y-6819531D02*
X351015Y-6838579D01*
X351015Y-6838579D02*
X360539Y-6876674D01*
X360539Y-6876674D02*
X360539Y-6924293D01*
X360539Y-6924293D02*
X351015Y-6962388D01*
X351015Y-6962388D02*
X341491Y-6981436D01*
X341491Y-6981436D02*
X331967Y-6990960D01*
X331967Y-6990960D02*
X312920Y-7000484D01*
X312920Y-7000484D02*
X293872Y-7000484D01*
X293872Y-7000484D02*
X274824Y-6990960D01*
X274824Y-6990960D02*
X265301Y-6981436D01*
X265301Y-6981436D02*
X255777Y-6962388D01*
X255777Y-6962388D02*
X246253Y-6924293D01*
X246253Y-6924293D02*
X246253Y-6876674D01*
X246253Y-6876674D02*
X255777Y-6838579D01*
X255777Y-6838579D02*
X265301Y-6819531D01*
X265301Y-6819531D02*
X274824Y-6810008D01*
X274824Y-6810008D02*
X293872Y-6800484D01*
X446253Y-6981436D02*
X455777Y-6990960D01*
X455777Y-6990960D02*
X446253Y-7000484D01*
X446253Y-7000484D02*
X436729Y-6990960D01*
X436729Y-6990960D02*
X446253Y-6981436D01*
X446253Y-6981436D02*
X446253Y-7000484D01*
X627205Y-6800484D02*
X589110Y-6800484D01*
X589110Y-6800484D02*
X570063Y-6810008D01*
X570063Y-6810008D02*
X560539Y-6819531D01*
X560539Y-6819531D02*
X541491Y-6848103D01*
X541491Y-6848103D02*
X531967Y-6886198D01*
X531967Y-6886198D02*
X531967Y-6962388D01*
X531967Y-6962388D02*
X541491Y-6981436D01*
X541491Y-6981436D02*
X551015Y-6990960D01*
X551015Y-6990960D02*
X570063Y-7000484D01*
X570063Y-7000484D02*
X608158Y-7000484D01*
X608158Y-7000484D02*
X627205Y-6990960D01*
X627205Y-6990960D02*
X636729Y-6981436D01*
X636729Y-6981436D02*
X646253Y-6962388D01*
X646253Y-6962388D02*
X646253Y-6914769D01*
X646253Y-6914769D02*
X636729Y-6895722D01*
X636729Y-6895722D02*
X627205Y-6886198D01*
X627205Y-6886198D02*
X608158Y-6876674D01*
X608158Y-6876674D02*
X570063Y-6876674D01*
X570063Y-6876674D02*
X551015Y-6886198D01*
X551015Y-6886198D02*
X541491Y-6895722D01*
X541491Y-6895722D02*
X531967Y-6914769D01*
X827205Y-6800484D02*
X731967Y-6800484D01*
X731967Y-6800484D02*
X722443Y-6895722D01*
X722443Y-6895722D02*
X731967Y-6886198D01*
X731967Y-6886198D02*
X751015Y-6876674D01*
X751015Y-6876674D02*
X798634Y-6876674D01*
X798634Y-6876674D02*
X817682Y-6886198D01*
X817682Y-6886198D02*
X827205Y-6895722D01*
X827205Y-6895722D02*
X836729Y-6914769D01*
X836729Y-6914769D02*
X836729Y-6962388D01*
X836729Y-6962388D02*
X827205Y-6981436D01*
X827205Y-6981436D02*
X817682Y-6990960D01*
X817682Y-6990960D02*
X798634Y-7000484D01*
X798634Y-7000484D02*
X751015Y-7000484D01*
X751015Y-7000484D02*
X731967Y-6990960D01*
X731967Y-6990960D02*
X722443Y-6981436D01*
X960539Y-6800484D02*
X979586Y-6800484D01*
X979586Y-6800484D02*
X998634Y-6810008D01*
X998634Y-6810008D02*
X1008158Y-6819531D01*
X1008158Y-6819531D02*
X1017682Y-6838579D01*
X1017682Y-6838579D02*
X1027205Y-6876674D01*
X1027205Y-6876674D02*
X1027205Y-6924293D01*
X1027205Y-6924293D02*
X1017682Y-6962388D01*
X1017682Y-6962388D02*
X1008158Y-6981436D01*
X1008158Y-6981436D02*
X998634Y-6990960D01*
X998634Y-6990960D02*
X979586Y-7000484D01*
X979586Y-7000484D02*
X960539Y-7000484D01*
X960539Y-7000484D02*
X941491Y-6990960D01*
X941491Y-6990960D02*
X931967Y-6981436D01*
X931967Y-6981436D02*
X922443Y-6962388D01*
X922443Y-6962388D02*
X912920Y-6924293D01*
X912920Y-6924293D02*
X912920Y-6876674D01*
X912920Y-6876674D02*
X922443Y-6838579D01*
X922443Y-6838579D02*
X931967Y-6819531D01*
X931967Y-6819531D02*
X941491Y-6810008D01*
X941491Y-6810008D02*
X960539Y-6800484D01*
X1112920Y-7000484D02*
X1112920Y-6867150D01*
X1112920Y-6886198D02*
X1122444Y-6876674D01*
X1122444Y-6876674D02*
X1141491Y-6867150D01*
X1141491Y-6867150D02*
X1170063Y-6867150D01*
X1170063Y-6867150D02*
X1189110Y-6876674D01*
X1189110Y-6876674D02*
X1198634Y-6895722D01*
X1198634Y-6895722D02*
X1198634Y-7000484D01*
X1198634Y-6895722D02*
X1208158Y-6876674D01*
X1208158Y-6876674D02*
X1227205Y-6867150D01*
X1227205Y-6867150D02*
X1255777Y-6867150D01*
X1255777Y-6867150D02*
X1274825Y-6876674D01*
X1274825Y-6876674D02*
X1284348Y-6895722D01*
X1284348Y-6895722D02*
X1284348Y-7000484D01*
X1379586Y-7000484D02*
X1379586Y-6867150D01*
X1379586Y-6886198D02*
X1389110Y-6876674D01*
X1389110Y-6876674D02*
X1408158Y-6867150D01*
X1408158Y-6867150D02*
X1436729Y-6867150D01*
X1436729Y-6867150D02*
X1455777Y-6876674D01*
X1455777Y-6876674D02*
X1465301Y-6895722D01*
X1465301Y-6895722D02*
X1465301Y-7000484D01*
X1465301Y-6895722D02*
X1474824Y-6876674D01*
X1474824Y-6876674D02*
X1493872Y-6867150D01*
X1493872Y-6867150D02*
X1522443Y-6867150D01*
X1522443Y-6867150D02*
X1541491Y-6876674D01*
X1541491Y-6876674D02*
X1551015Y-6895722D01*
X1551015Y-6895722D02*
X1551015Y-7000484D01*
X1941491Y-6790960D02*
X1770063Y-7048103D01*
X2198634Y-6800484D02*
X2217682Y-6800484D01*
X2217682Y-6800484D02*
X2236729Y-6810008D01*
X2236729Y-6810008D02*
X2246253Y-6819531D01*
X2246253Y-6819531D02*
X2255777Y-6838579D01*
X2255777Y-6838579D02*
X2265301Y-6876674D01*
X2265301Y-6876674D02*
X2265301Y-6924293D01*
X2265301Y-6924293D02*
X2255777Y-6962388D01*
X2255777Y-6962388D02*
X2246253Y-6981436D01*
X2246253Y-6981436D02*
X2236729Y-6990960D01*
X2236729Y-6990960D02*
X2217682Y-7000484D01*
X2217682Y-7000484D02*
X2198634Y-7000484D01*
X2198634Y-7000484D02*
X2179587Y-6990960D01*
X2179587Y-6990960D02*
X2170063Y-6981436D01*
X2170063Y-6981436D02*
X2160539Y-6962388D01*
X2160539Y-6962388D02*
X2151015Y-6924293D01*
X2151015Y-6924293D02*
X2151015Y-6876674D01*
X2151015Y-6876674D02*
X2160539Y-6838579D01*
X2160539Y-6838579D02*
X2170063Y-6819531D01*
X2170063Y-6819531D02*
X2179587Y-6810008D01*
X2179587Y-6810008D02*
X2198634Y-6800484D01*
X2351015Y-6981436D02*
X2360539Y-6990960D01*
X2360539Y-6990960D02*
X2351015Y-7000484D01*
X2351015Y-7000484D02*
X2341491Y-6990960D01*
X2341491Y-6990960D02*
X2351015Y-6981436D01*
X2351015Y-6981436D02*
X2351015Y-7000484D01*
X2484348Y-6800484D02*
X2503396Y-6800484D01*
X2503396Y-6800484D02*
X2522444Y-6810008D01*
X2522444Y-6810008D02*
X2531968Y-6819531D01*
X2531968Y-6819531D02*
X2541491Y-6838579D01*
X2541491Y-6838579D02*
X2551015Y-6876674D01*
X2551015Y-6876674D02*
X2551015Y-6924293D01*
X2551015Y-6924293D02*
X2541491Y-6962388D01*
X2541491Y-6962388D02*
X2531968Y-6981436D01*
X2531968Y-6981436D02*
X2522444Y-6990960D01*
X2522444Y-6990960D02*
X2503396Y-7000484D01*
X2503396Y-7000484D02*
X2484348Y-7000484D01*
X2484348Y-7000484D02*
X2465301Y-6990960D01*
X2465301Y-6990960D02*
X2455777Y-6981436D01*
X2455777Y-6981436D02*
X2446253Y-6962388D01*
X2446253Y-6962388D02*
X2436729Y-6924293D01*
X2436729Y-6924293D02*
X2436729Y-6876674D01*
X2436729Y-6876674D02*
X2446253Y-6838579D01*
X2446253Y-6838579D02*
X2455777Y-6819531D01*
X2455777Y-6819531D02*
X2465301Y-6810008D01*
X2465301Y-6810008D02*
X2484348Y-6800484D01*
X2627206Y-6819531D02*
X2636729Y-6810008D01*
X2636729Y-6810008D02*
X2655777Y-6800484D01*
X2655777Y-6800484D02*
X2703396Y-6800484D01*
X2703396Y-6800484D02*
X2722444Y-6810008D01*
X2722444Y-6810008D02*
X2731968Y-6819531D01*
X2731968Y-6819531D02*
X2741491Y-6838579D01*
X2741491Y-6838579D02*
X2741491Y-6857627D01*
X2741491Y-6857627D02*
X2731968Y-6886198D01*
X2731968Y-6886198D02*
X2617682Y-7000484D01*
X2617682Y-7000484D02*
X2741491Y-7000484D01*
X2922444Y-6800484D02*
X2827206Y-6800484D01*
X2827206Y-6800484D02*
X2817682Y-6895722D01*
X2817682Y-6895722D02*
X2827206Y-6886198D01*
X2827206Y-6886198D02*
X2846253Y-6876674D01*
X2846253Y-6876674D02*
X2893872Y-6876674D01*
X2893872Y-6876674D02*
X2912920Y-6886198D01*
X2912920Y-6886198D02*
X2922444Y-6895722D01*
X2922444Y-6895722D02*
X2931967Y-6914769D01*
X2931967Y-6914769D02*
X2931967Y-6962388D01*
X2931967Y-6962388D02*
X2922444Y-6981436D01*
X2922444Y-6981436D02*
X2912920Y-6990960D01*
X2912920Y-6990960D02*
X2893872Y-7000484D01*
X2893872Y-7000484D02*
X2846253Y-7000484D01*
X2846253Y-7000484D02*
X2827206Y-6990960D01*
X2827206Y-6990960D02*
X2817682Y-6981436D01*
X3103396Y-6800484D02*
X3065301Y-6800484D01*
X3065301Y-6800484D02*
X3046253Y-6810008D01*
X3046253Y-6810008D02*
X3036729Y-6819531D01*
X3036729Y-6819531D02*
X3017682Y-6848103D01*
X3017682Y-6848103D02*
X3008158Y-6886198D01*
X3008158Y-6886198D02*
X3008158Y-6962388D01*
X3008158Y-6962388D02*
X3017682Y-6981436D01*
X3017682Y-6981436D02*
X3027206Y-6990960D01*
X3027206Y-6990960D02*
X3046253Y-7000484D01*
X3046253Y-7000484D02*
X3084348Y-7000484D01*
X3084348Y-7000484D02*
X3103396Y-6990960D01*
X3103396Y-6990960D02*
X3112920Y-6981436D01*
X3112920Y-6981436D02*
X3122444Y-6962388D01*
X3122444Y-6962388D02*
X3122444Y-6914769D01*
X3122444Y-6914769D02*
X3112920Y-6895722D01*
X3112920Y-6895722D02*
X3103396Y-6886198D01*
X3103396Y-6886198D02*
X3084348Y-6876674D01*
X3084348Y-6876674D02*
X3046253Y-6876674D01*
X3046253Y-6876674D02*
X3027206Y-6886198D01*
X3027206Y-6886198D02*
X3017682Y-6895722D01*
X3017682Y-6895722D02*
X3008158Y-6914769D01*
X3198634Y-6800484D02*
X3198634Y-6838579D01*
X3274825Y-6800484D02*
X3274825Y-6838579D01*
X3570063Y-7076674D02*
X3560539Y-7067150D01*
X3560539Y-7067150D02*
X3541491Y-7038579D01*
X3541491Y-7038579D02*
X3531968Y-7019531D01*
X3531968Y-7019531D02*
X3522444Y-6990960D01*
X3522444Y-6990960D02*
X3512920Y-6943341D01*
X3512920Y-6943341D02*
X3512920Y-6905246D01*
X3512920Y-6905246D02*
X3522444Y-6857627D01*
X3522444Y-6857627D02*
X3531968Y-6829055D01*
X3531968Y-6829055D02*
X3541491Y-6810008D01*
X3541491Y-6810008D02*
X3560539Y-6781436D01*
X3560539Y-6781436D02*
X3570063Y-6771912D01*
X3636729Y-6819531D02*
X3646253Y-6810008D01*
X3646253Y-6810008D02*
X3665301Y-6800484D01*
X3665301Y-6800484D02*
X3712920Y-6800484D01*
X3712920Y-6800484D02*
X3731968Y-6810008D01*
X3731968Y-6810008D02*
X3741491Y-6819531D01*
X3741491Y-6819531D02*
X3751015Y-6838579D01*
X3751015Y-6838579D02*
X3751015Y-6857627D01*
X3751015Y-6857627D02*
X3741491Y-6886198D01*
X3741491Y-6886198D02*
X3627206Y-7000484D01*
X3627206Y-7000484D02*
X3751015Y-7000484D01*
X3989110Y-7000484D02*
X3989110Y-6800484D01*
X4074825Y-7000484D02*
X4074825Y-6895722D01*
X4074825Y-6895722D02*
X4065301Y-6876674D01*
X4065301Y-6876674D02*
X4046253Y-6867150D01*
X4046253Y-6867150D02*
X4017682Y-6867150D01*
X4017682Y-6867150D02*
X3998634Y-6876674D01*
X3998634Y-6876674D02*
X3989110Y-6886198D01*
X4198634Y-7000484D02*
X4179587Y-6990960D01*
X4179587Y-6990960D02*
X4170063Y-6981436D01*
X4170063Y-6981436D02*
X4160539Y-6962388D01*
X4160539Y-6962388D02*
X4160539Y-6905246D01*
X4160539Y-6905246D02*
X4170063Y-6886198D01*
X4170063Y-6886198D02*
X4179587Y-6876674D01*
X4179587Y-6876674D02*
X4198634Y-6867150D01*
X4198634Y-6867150D02*
X4227206Y-6867150D01*
X4227206Y-6867150D02*
X4246253Y-6876674D01*
X4246253Y-6876674D02*
X4255777Y-6886198D01*
X4255777Y-6886198D02*
X4265301Y-6905246D01*
X4265301Y-6905246D02*
X4265301Y-6962388D01*
X4265301Y-6962388D02*
X4255777Y-6981436D01*
X4255777Y-6981436D02*
X4246253Y-6990960D01*
X4246253Y-6990960D02*
X4227206Y-7000484D01*
X4227206Y-7000484D02*
X4198634Y-7000484D01*
X4379587Y-7000484D02*
X4360539Y-6990960D01*
X4360539Y-6990960D02*
X4351015Y-6971912D01*
X4351015Y-6971912D02*
X4351015Y-6800484D01*
X4531968Y-6990960D02*
X4512920Y-7000484D01*
X4512920Y-7000484D02*
X4474825Y-7000484D01*
X4474825Y-7000484D02*
X4455777Y-6990960D01*
X4455777Y-6990960D02*
X4446253Y-6971912D01*
X4446253Y-6971912D02*
X4446253Y-6895722D01*
X4446253Y-6895722D02*
X4455777Y-6876674D01*
X4455777Y-6876674D02*
X4474825Y-6867150D01*
X4474825Y-6867150D02*
X4512920Y-6867150D01*
X4512920Y-6867150D02*
X4531968Y-6876674D01*
X4531968Y-6876674D02*
X4541492Y-6895722D01*
X4541492Y-6895722D02*
X4541492Y-6914769D01*
X4541492Y-6914769D02*
X4446253Y-6933817D01*
X4617682Y-6990960D02*
X4636730Y-7000484D01*
X4636730Y-7000484D02*
X4674825Y-7000484D01*
X4674825Y-7000484D02*
X4693873Y-6990960D01*
X4693873Y-6990960D02*
X4703396Y-6971912D01*
X4703396Y-6971912D02*
X4703396Y-6962388D01*
X4703396Y-6962388D02*
X4693873Y-6943341D01*
X4693873Y-6943341D02*
X4674825Y-6933817D01*
X4674825Y-6933817D02*
X4646253Y-6933817D01*
X4646253Y-6933817D02*
X4627206Y-6924293D01*
X4627206Y-6924293D02*
X4617682Y-6905246D01*
X4617682Y-6905246D02*
X4617682Y-6895722D01*
X4617682Y-6895722D02*
X4627206Y-6876674D01*
X4627206Y-6876674D02*
X4646253Y-6867150D01*
X4646253Y-6867150D02*
X4674825Y-6867150D01*
X4674825Y-6867150D02*
X4693873Y-6876674D01*
X4770063Y-7076674D02*
X4779587Y-7067150D01*
X4779587Y-7067150D02*
X4798634Y-7038579D01*
X4798634Y-7038579D02*
X4808158Y-7019531D01*
X4808158Y-7019531D02*
X4817682Y-6990960D01*
X4817682Y-6990960D02*
X4827206Y-6943341D01*
X4827206Y-6943341D02*
X4827206Y-6905246D01*
X4827206Y-6905246D02*
X4817682Y-6857627D01*
X4817682Y-6857627D02*
X4808158Y-6829055D01*
X4808158Y-6829055D02*
X4798634Y-6810008D01*
X4798634Y-6810008D02*
X4779587Y-6781436D01*
X4779587Y-6781436D02*
X4770063Y-6771912D01*
X5131968Y-7076674D02*
X5122444Y-7067150D01*
X5122444Y-7067150D02*
X5103396Y-7038579D01*
X5103396Y-7038579D02*
X5093873Y-7019531D01*
X5093873Y-7019531D02*
X5084349Y-6990960D01*
X5084349Y-6990960D02*
X5074825Y-6943341D01*
X5074825Y-6943341D02*
X5074825Y-6905246D01*
X5074825Y-6905246D02*
X5084349Y-6857627D01*
X5084349Y-6857627D02*
X5093873Y-6829055D01*
X5093873Y-6829055D02*
X5103396Y-6810008D01*
X5103396Y-6810008D02*
X5122444Y-6781436D01*
X5122444Y-6781436D02*
X5131968Y-6771912D01*
X5208158Y-6867150D02*
X5208158Y-7000484D01*
X5208158Y-6886198D02*
X5217682Y-6876674D01*
X5217682Y-6876674D02*
X5236730Y-6867150D01*
X5236730Y-6867150D02*
X5265301Y-6867150D01*
X5265301Y-6867150D02*
X5284349Y-6876674D01*
X5284349Y-6876674D02*
X5293873Y-6895722D01*
X5293873Y-6895722D02*
X5293873Y-7000484D01*
X5417682Y-7000484D02*
X5398634Y-6990960D01*
X5398634Y-6990960D02*
X5389111Y-6981436D01*
X5389111Y-6981436D02*
X5379587Y-6962388D01*
X5379587Y-6962388D02*
X5379587Y-6905246D01*
X5379587Y-6905246D02*
X5389111Y-6886198D01*
X5389111Y-6886198D02*
X5398634Y-6876674D01*
X5398634Y-6876674D02*
X5417682Y-6867150D01*
X5417682Y-6867150D02*
X5446254Y-6867150D01*
X5446254Y-6867150D02*
X5465301Y-6876674D01*
X5465301Y-6876674D02*
X5474825Y-6886198D01*
X5474825Y-6886198D02*
X5484349Y-6905246D01*
X5484349Y-6905246D02*
X5484349Y-6962388D01*
X5484349Y-6962388D02*
X5474825Y-6981436D01*
X5474825Y-6981436D02*
X5465301Y-6990960D01*
X5465301Y-6990960D02*
X5446254Y-7000484D01*
X5446254Y-7000484D02*
X5417682Y-7000484D01*
X5541492Y-6867150D02*
X5617682Y-6867150D01*
X5570063Y-6800484D02*
X5570063Y-6971912D01*
X5570063Y-6971912D02*
X5579587Y-6990960D01*
X5579587Y-6990960D02*
X5598634Y-7000484D01*
X5598634Y-7000484D02*
X5617682Y-7000484D01*
X5836730Y-6867150D02*
X5836730Y-7067150D01*
X5836730Y-6876674D02*
X5855777Y-6867150D01*
X5855777Y-6867150D02*
X5893873Y-6867150D01*
X5893873Y-6867150D02*
X5912920Y-6876674D01*
X5912920Y-6876674D02*
X5922444Y-6886198D01*
X5922444Y-6886198D02*
X5931968Y-6905246D01*
X5931968Y-6905246D02*
X5931968Y-6962388D01*
X5931968Y-6962388D02*
X5922444Y-6981436D01*
X5922444Y-6981436D02*
X5912920Y-6990960D01*
X5912920Y-6990960D02*
X5893873Y-7000484D01*
X5893873Y-7000484D02*
X5855777Y-7000484D01*
X5855777Y-7000484D02*
X5836730Y-6990960D01*
X6046253Y-7000484D02*
X6027206Y-6990960D01*
X6027206Y-6990960D02*
X6017682Y-6971912D01*
X6017682Y-6971912D02*
X6017682Y-6800484D01*
X6208158Y-7000484D02*
X6208158Y-6895722D01*
X6208158Y-6895722D02*
X6198634Y-6876674D01*
X6198634Y-6876674D02*
X6179587Y-6867150D01*
X6179587Y-6867150D02*
X6141492Y-6867150D01*
X6141492Y-6867150D02*
X6122444Y-6876674D01*
X6208158Y-6990960D02*
X6189111Y-7000484D01*
X6189111Y-7000484D02*
X6141492Y-7000484D01*
X6141492Y-7000484D02*
X6122444Y-6990960D01*
X6122444Y-6990960D02*
X6112920Y-6971912D01*
X6112920Y-6971912D02*
X6112920Y-6952865D01*
X6112920Y-6952865D02*
X6122444Y-6933817D01*
X6122444Y-6933817D02*
X6141492Y-6924293D01*
X6141492Y-6924293D02*
X6189111Y-6924293D01*
X6189111Y-6924293D02*
X6208158Y-6914769D01*
X6274825Y-6867150D02*
X6351015Y-6867150D01*
X6303396Y-6800484D02*
X6303396Y-6971912D01*
X6303396Y-6971912D02*
X6312920Y-6990960D01*
X6312920Y-6990960D02*
X6331968Y-7000484D01*
X6331968Y-7000484D02*
X6351015Y-7000484D01*
X6493873Y-6990960D02*
X6474825Y-7000484D01*
X6474825Y-7000484D02*
X6436730Y-7000484D01*
X6436730Y-7000484D02*
X6417682Y-6990960D01*
X6417682Y-6990960D02*
X6408158Y-6971912D01*
X6408158Y-6971912D02*
X6408158Y-6895722D01*
X6408158Y-6895722D02*
X6417682Y-6876674D01*
X6417682Y-6876674D02*
X6436730Y-6867150D01*
X6436730Y-6867150D02*
X6474825Y-6867150D01*
X6474825Y-6867150D02*
X6493873Y-6876674D01*
X6493873Y-6876674D02*
X6503396Y-6895722D01*
X6503396Y-6895722D02*
X6503396Y-6914769D01*
X6503396Y-6914769D02*
X6408158Y-6933817D01*
X6674825Y-7000484D02*
X6674825Y-6800484D01*
X6674825Y-6990960D02*
X6655777Y-7000484D01*
X6655777Y-7000484D02*
X6617682Y-7000484D01*
X6617682Y-7000484D02*
X6598634Y-6990960D01*
X6598634Y-6990960D02*
X6589111Y-6981436D01*
X6589111Y-6981436D02*
X6579587Y-6962388D01*
X6579587Y-6962388D02*
X6579587Y-6905246D01*
X6579587Y-6905246D02*
X6589111Y-6886198D01*
X6589111Y-6886198D02*
X6598634Y-6876674D01*
X6598634Y-6876674D02*
X6617682Y-6867150D01*
X6617682Y-6867150D02*
X6655777Y-6867150D01*
X6655777Y-6867150D02*
X6674825Y-6876674D01*
X6751015Y-7076674D02*
X6760539Y-7067150D01*
X6760539Y-7067150D02*
X6779587Y-7038579D01*
X6779587Y-7038579D02*
X6789111Y-7019531D01*
X6789111Y-7019531D02*
X6798634Y-6990960D01*
X6798634Y-6990960D02*
X6808158Y-6943341D01*
X6808158Y-6943341D02*
X6808158Y-6905246D01*
X6808158Y-6905246D02*
X6798634Y-6857627D01*
X6798634Y-6857627D02*
X6789111Y-6829055D01*
X6789111Y-6829055D02*
X6779587Y-6810008D01*
X6779587Y-6810008D02*
X6760539Y-6781436D01*
X6760539Y-6781436D02*
X6751015Y-6771912D01*
X-105000Y-7073000D02*
X-105000Y-7273000D01*
X-205000Y-7173000D02*
X-5000Y-7173000D01*
X236729Y-7064484D02*
X360539Y-7064484D01*
X360539Y-7064484D02*
X293872Y-7140674D01*
X293872Y-7140674D02*
X322444Y-7140674D01*
X322444Y-7140674D02*
X341491Y-7150198D01*
X341491Y-7150198D02*
X351015Y-7159722D01*
X351015Y-7159722D02*
X360539Y-7178769D01*
X360539Y-7178769D02*
X360539Y-7226388D01*
X360539Y-7226388D02*
X351015Y-7245436D01*
X351015Y-7245436D02*
X341491Y-7254960D01*
X341491Y-7254960D02*
X322444Y-7264484D01*
X322444Y-7264484D02*
X265301Y-7264484D01*
X265301Y-7264484D02*
X246253Y-7254960D01*
X246253Y-7254960D02*
X236729Y-7245436D01*
X446253Y-7245436D02*
X455777Y-7254960D01*
X455777Y-7254960D02*
X446253Y-7264484D01*
X446253Y-7264484D02*
X436729Y-7254960D01*
X436729Y-7254960D02*
X446253Y-7245436D01*
X446253Y-7245436D02*
X446253Y-7264484D01*
X531967Y-7083531D02*
X541491Y-7074008D01*
X541491Y-7074008D02*
X560539Y-7064484D01*
X560539Y-7064484D02*
X608158Y-7064484D01*
X608158Y-7064484D02*
X627205Y-7074008D01*
X627205Y-7074008D02*
X636729Y-7083531D01*
X636729Y-7083531D02*
X646253Y-7102579D01*
X646253Y-7102579D02*
X646253Y-7121627D01*
X646253Y-7121627D02*
X636729Y-7150198D01*
X636729Y-7150198D02*
X522443Y-7264484D01*
X522443Y-7264484D02*
X646253Y-7264484D01*
X770062Y-7064484D02*
X789110Y-7064484D01*
X789110Y-7064484D02*
X808158Y-7074008D01*
X808158Y-7074008D02*
X817682Y-7083531D01*
X817682Y-7083531D02*
X827205Y-7102579D01*
X827205Y-7102579D02*
X836729Y-7140674D01*
X836729Y-7140674D02*
X836729Y-7188293D01*
X836729Y-7188293D02*
X827205Y-7226388D01*
X827205Y-7226388D02*
X817682Y-7245436D01*
X817682Y-7245436D02*
X808158Y-7254960D01*
X808158Y-7254960D02*
X789110Y-7264484D01*
X789110Y-7264484D02*
X770062Y-7264484D01*
X770062Y-7264484D02*
X751015Y-7254960D01*
X751015Y-7254960D02*
X741491Y-7245436D01*
X741491Y-7245436D02*
X731967Y-7226388D01*
X731967Y-7226388D02*
X722443Y-7188293D01*
X722443Y-7188293D02*
X722443Y-7140674D01*
X722443Y-7140674D02*
X731967Y-7102579D01*
X731967Y-7102579D02*
X741491Y-7083531D01*
X741491Y-7083531D02*
X751015Y-7074008D01*
X751015Y-7074008D02*
X770062Y-7064484D01*
X960539Y-7064484D02*
X979586Y-7064484D01*
X979586Y-7064484D02*
X998634Y-7074008D01*
X998634Y-7074008D02*
X1008158Y-7083531D01*
X1008158Y-7083531D02*
X1017682Y-7102579D01*
X1017682Y-7102579D02*
X1027205Y-7140674D01*
X1027205Y-7140674D02*
X1027205Y-7188293D01*
X1027205Y-7188293D02*
X1017682Y-7226388D01*
X1017682Y-7226388D02*
X1008158Y-7245436D01*
X1008158Y-7245436D02*
X998634Y-7254960D01*
X998634Y-7254960D02*
X979586Y-7264484D01*
X979586Y-7264484D02*
X960539Y-7264484D01*
X960539Y-7264484D02*
X941491Y-7254960D01*
X941491Y-7254960D02*
X931967Y-7245436D01*
X931967Y-7245436D02*
X922443Y-7226388D01*
X922443Y-7226388D02*
X912920Y-7188293D01*
X912920Y-7188293D02*
X912920Y-7140674D01*
X912920Y-7140674D02*
X922443Y-7102579D01*
X922443Y-7102579D02*
X931967Y-7083531D01*
X931967Y-7083531D02*
X941491Y-7074008D01*
X941491Y-7074008D02*
X960539Y-7064484D01*
X1112920Y-7264484D02*
X1112920Y-7131150D01*
X1112920Y-7150198D02*
X1122444Y-7140674D01*
X1122444Y-7140674D02*
X1141491Y-7131150D01*
X1141491Y-7131150D02*
X1170063Y-7131150D01*
X1170063Y-7131150D02*
X1189110Y-7140674D01*
X1189110Y-7140674D02*
X1198634Y-7159722D01*
X1198634Y-7159722D02*
X1198634Y-7264484D01*
X1198634Y-7159722D02*
X1208158Y-7140674D01*
X1208158Y-7140674D02*
X1227205Y-7131150D01*
X1227205Y-7131150D02*
X1255777Y-7131150D01*
X1255777Y-7131150D02*
X1274825Y-7140674D01*
X1274825Y-7140674D02*
X1284348Y-7159722D01*
X1284348Y-7159722D02*
X1284348Y-7264484D01*
X1379586Y-7264484D02*
X1379586Y-7131150D01*
X1379586Y-7150198D02*
X1389110Y-7140674D01*
X1389110Y-7140674D02*
X1408158Y-7131150D01*
X1408158Y-7131150D02*
X1436729Y-7131150D01*
X1436729Y-7131150D02*
X1455777Y-7140674D01*
X1455777Y-7140674D02*
X1465301Y-7159722D01*
X1465301Y-7159722D02*
X1465301Y-7264484D01*
X1465301Y-7159722D02*
X1474824Y-7140674D01*
X1474824Y-7140674D02*
X1493872Y-7131150D01*
X1493872Y-7131150D02*
X1522443Y-7131150D01*
X1522443Y-7131150D02*
X1541491Y-7140674D01*
X1541491Y-7140674D02*
X1551015Y-7159722D01*
X1551015Y-7159722D02*
X1551015Y-7264484D01*
X1941491Y-7054960D02*
X1770063Y-7312103D01*
X2198634Y-7064484D02*
X2217682Y-7064484D01*
X2217682Y-7064484D02*
X2236729Y-7074008D01*
X2236729Y-7074008D02*
X2246253Y-7083531D01*
X2246253Y-7083531D02*
X2255777Y-7102579D01*
X2255777Y-7102579D02*
X2265301Y-7140674D01*
X2265301Y-7140674D02*
X2265301Y-7188293D01*
X2265301Y-7188293D02*
X2255777Y-7226388D01*
X2255777Y-7226388D02*
X2246253Y-7245436D01*
X2246253Y-7245436D02*
X2236729Y-7254960D01*
X2236729Y-7254960D02*
X2217682Y-7264484D01*
X2217682Y-7264484D02*
X2198634Y-7264484D01*
X2198634Y-7264484D02*
X2179587Y-7254960D01*
X2179587Y-7254960D02*
X2170063Y-7245436D01*
X2170063Y-7245436D02*
X2160539Y-7226388D01*
X2160539Y-7226388D02*
X2151015Y-7188293D01*
X2151015Y-7188293D02*
X2151015Y-7140674D01*
X2151015Y-7140674D02*
X2160539Y-7102579D01*
X2160539Y-7102579D02*
X2170063Y-7083531D01*
X2170063Y-7083531D02*
X2179587Y-7074008D01*
X2179587Y-7074008D02*
X2198634Y-7064484D01*
X2351015Y-7245436D02*
X2360539Y-7254960D01*
X2360539Y-7254960D02*
X2351015Y-7264484D01*
X2351015Y-7264484D02*
X2341491Y-7254960D01*
X2341491Y-7254960D02*
X2351015Y-7245436D01*
X2351015Y-7245436D02*
X2351015Y-7264484D01*
X2551015Y-7264484D02*
X2436729Y-7264484D01*
X2493872Y-7264484D02*
X2493872Y-7064484D01*
X2493872Y-7064484D02*
X2474825Y-7093055D01*
X2474825Y-7093055D02*
X2455777Y-7112103D01*
X2455777Y-7112103D02*
X2436729Y-7121627D01*
X2627206Y-7083531D02*
X2636729Y-7074008D01*
X2636729Y-7074008D02*
X2655777Y-7064484D01*
X2655777Y-7064484D02*
X2703396Y-7064484D01*
X2703396Y-7064484D02*
X2722444Y-7074008D01*
X2722444Y-7074008D02*
X2731968Y-7083531D01*
X2731968Y-7083531D02*
X2741491Y-7102579D01*
X2741491Y-7102579D02*
X2741491Y-7121627D01*
X2741491Y-7121627D02*
X2731968Y-7150198D01*
X2731968Y-7150198D02*
X2617682Y-7264484D01*
X2617682Y-7264484D02*
X2741491Y-7264484D01*
X2912920Y-7064484D02*
X2874825Y-7064484D01*
X2874825Y-7064484D02*
X2855777Y-7074008D01*
X2855777Y-7074008D02*
X2846253Y-7083531D01*
X2846253Y-7083531D02*
X2827206Y-7112103D01*
X2827206Y-7112103D02*
X2817682Y-7150198D01*
X2817682Y-7150198D02*
X2817682Y-7226388D01*
X2817682Y-7226388D02*
X2827206Y-7245436D01*
X2827206Y-7245436D02*
X2836729Y-7254960D01*
X2836729Y-7254960D02*
X2855777Y-7264484D01*
X2855777Y-7264484D02*
X2893872Y-7264484D01*
X2893872Y-7264484D02*
X2912920Y-7254960D01*
X2912920Y-7254960D02*
X2922444Y-7245436D01*
X2922444Y-7245436D02*
X2931967Y-7226388D01*
X2931967Y-7226388D02*
X2931967Y-7178769D01*
X2931967Y-7178769D02*
X2922444Y-7159722D01*
X2922444Y-7159722D02*
X2912920Y-7150198D01*
X2912920Y-7150198D02*
X2893872Y-7140674D01*
X2893872Y-7140674D02*
X2855777Y-7140674D01*
X2855777Y-7140674D02*
X2836729Y-7150198D01*
X2836729Y-7150198D02*
X2827206Y-7159722D01*
X2827206Y-7159722D02*
X2817682Y-7178769D01*
X3055777Y-7064484D02*
X3074825Y-7064484D01*
X3074825Y-7064484D02*
X3093872Y-7074008D01*
X3093872Y-7074008D02*
X3103396Y-7083531D01*
X3103396Y-7083531D02*
X3112920Y-7102579D01*
X3112920Y-7102579D02*
X3122444Y-7140674D01*
X3122444Y-7140674D02*
X3122444Y-7188293D01*
X3122444Y-7188293D02*
X3112920Y-7226388D01*
X3112920Y-7226388D02*
X3103396Y-7245436D01*
X3103396Y-7245436D02*
X3093872Y-7254960D01*
X3093872Y-7254960D02*
X3074825Y-7264484D01*
X3074825Y-7264484D02*
X3055777Y-7264484D01*
X3055777Y-7264484D02*
X3036729Y-7254960D01*
X3036729Y-7254960D02*
X3027206Y-7245436D01*
X3027206Y-7245436D02*
X3017682Y-7226388D01*
X3017682Y-7226388D02*
X3008158Y-7188293D01*
X3008158Y-7188293D02*
X3008158Y-7140674D01*
X3008158Y-7140674D02*
X3017682Y-7102579D01*
X3017682Y-7102579D02*
X3027206Y-7083531D01*
X3027206Y-7083531D02*
X3036729Y-7074008D01*
X3036729Y-7074008D02*
X3055777Y-7064484D01*
X3198634Y-7064484D02*
X3198634Y-7102579D01*
X3274825Y-7064484D02*
X3274825Y-7102579D01*
X3570063Y-7340674D02*
X3560539Y-7331150D01*
X3560539Y-7331150D02*
X3541491Y-7302579D01*
X3541491Y-7302579D02*
X3531968Y-7283531D01*
X3531968Y-7283531D02*
X3522444Y-7254960D01*
X3522444Y-7254960D02*
X3512920Y-7207341D01*
X3512920Y-7207341D02*
X3512920Y-7169246D01*
X3512920Y-7169246D02*
X3522444Y-7121627D01*
X3522444Y-7121627D02*
X3531968Y-7093055D01*
X3531968Y-7093055D02*
X3541491Y-7074008D01*
X3541491Y-7074008D02*
X3560539Y-7045436D01*
X3560539Y-7045436D02*
X3570063Y-7035912D01*
X3731968Y-7131150D02*
X3731968Y-7264484D01*
X3684348Y-7054960D02*
X3636729Y-7197817D01*
X3636729Y-7197817D02*
X3760539Y-7197817D01*
X3989110Y-7264484D02*
X3989110Y-7064484D01*
X4074825Y-7264484D02*
X4074825Y-7159722D01*
X4074825Y-7159722D02*
X4065301Y-7140674D01*
X4065301Y-7140674D02*
X4046253Y-7131150D01*
X4046253Y-7131150D02*
X4017682Y-7131150D01*
X4017682Y-7131150D02*
X3998634Y-7140674D01*
X3998634Y-7140674D02*
X3989110Y-7150198D01*
X4198634Y-7264484D02*
X4179587Y-7254960D01*
X4179587Y-7254960D02*
X4170063Y-7245436D01*
X4170063Y-7245436D02*
X4160539Y-7226388D01*
X4160539Y-7226388D02*
X4160539Y-7169246D01*
X4160539Y-7169246D02*
X4170063Y-7150198D01*
X4170063Y-7150198D02*
X4179587Y-7140674D01*
X4179587Y-7140674D02*
X4198634Y-7131150D01*
X4198634Y-7131150D02*
X4227206Y-7131150D01*
X4227206Y-7131150D02*
X4246253Y-7140674D01*
X4246253Y-7140674D02*
X4255777Y-7150198D01*
X4255777Y-7150198D02*
X4265301Y-7169246D01*
X4265301Y-7169246D02*
X4265301Y-7226388D01*
X4265301Y-7226388D02*
X4255777Y-7245436D01*
X4255777Y-7245436D02*
X4246253Y-7254960D01*
X4246253Y-7254960D02*
X4227206Y-7264484D01*
X4227206Y-7264484D02*
X4198634Y-7264484D01*
X4379587Y-7264484D02*
X4360539Y-7254960D01*
X4360539Y-7254960D02*
X4351015Y-7235912D01*
X4351015Y-7235912D02*
X4351015Y-7064484D01*
X4531968Y-7254960D02*
X4512920Y-7264484D01*
X4512920Y-7264484D02*
X4474825Y-7264484D01*
X4474825Y-7264484D02*
X4455777Y-7254960D01*
X4455777Y-7254960D02*
X4446253Y-7235912D01*
X4446253Y-7235912D02*
X4446253Y-7159722D01*
X4446253Y-7159722D02*
X4455777Y-7140674D01*
X4455777Y-7140674D02*
X4474825Y-7131150D01*
X4474825Y-7131150D02*
X4512920Y-7131150D01*
X4512920Y-7131150D02*
X4531968Y-7140674D01*
X4531968Y-7140674D02*
X4541492Y-7159722D01*
X4541492Y-7159722D02*
X4541492Y-7178769D01*
X4541492Y-7178769D02*
X4446253Y-7197817D01*
X4617682Y-7254960D02*
X4636730Y-7264484D01*
X4636730Y-7264484D02*
X4674825Y-7264484D01*
X4674825Y-7264484D02*
X4693873Y-7254960D01*
X4693873Y-7254960D02*
X4703396Y-7235912D01*
X4703396Y-7235912D02*
X4703396Y-7226388D01*
X4703396Y-7226388D02*
X4693873Y-7207341D01*
X4693873Y-7207341D02*
X4674825Y-7197817D01*
X4674825Y-7197817D02*
X4646253Y-7197817D01*
X4646253Y-7197817D02*
X4627206Y-7188293D01*
X4627206Y-7188293D02*
X4617682Y-7169246D01*
X4617682Y-7169246D02*
X4617682Y-7159722D01*
X4617682Y-7159722D02*
X4627206Y-7140674D01*
X4627206Y-7140674D02*
X4646253Y-7131150D01*
X4646253Y-7131150D02*
X4674825Y-7131150D01*
X4674825Y-7131150D02*
X4693873Y-7140674D01*
X4770063Y-7340674D02*
X4779587Y-7331150D01*
X4779587Y-7331150D02*
X4798634Y-7302579D01*
X4798634Y-7302579D02*
X4808158Y-7283531D01*
X4808158Y-7283531D02*
X4817682Y-7254960D01*
X4817682Y-7254960D02*
X4827206Y-7207341D01*
X4827206Y-7207341D02*
X4827206Y-7169246D01*
X4827206Y-7169246D02*
X4817682Y-7121627D01*
X4817682Y-7121627D02*
X4808158Y-7093055D01*
X4808158Y-7093055D02*
X4798634Y-7074008D01*
X4798634Y-7074008D02*
X4779587Y-7045436D01*
X4779587Y-7045436D02*
X4770063Y-7035912D01*
X5131968Y-7340674D02*
X5122444Y-7331150D01*
X5122444Y-7331150D02*
X5103396Y-7302579D01*
X5103396Y-7302579D02*
X5093873Y-7283531D01*
X5093873Y-7283531D02*
X5084349Y-7254960D01*
X5084349Y-7254960D02*
X5074825Y-7207341D01*
X5074825Y-7207341D02*
X5074825Y-7169246D01*
X5074825Y-7169246D02*
X5084349Y-7121627D01*
X5084349Y-7121627D02*
X5093873Y-7093055D01*
X5093873Y-7093055D02*
X5103396Y-7074008D01*
X5103396Y-7074008D02*
X5122444Y-7045436D01*
X5122444Y-7045436D02*
X5131968Y-7035912D01*
X5208158Y-7131150D02*
X5208158Y-7264484D01*
X5208158Y-7150198D02*
X5217682Y-7140674D01*
X5217682Y-7140674D02*
X5236730Y-7131150D01*
X5236730Y-7131150D02*
X5265301Y-7131150D01*
X5265301Y-7131150D02*
X5284349Y-7140674D01*
X5284349Y-7140674D02*
X5293873Y-7159722D01*
X5293873Y-7159722D02*
X5293873Y-7264484D01*
X5417682Y-7264484D02*
X5398634Y-7254960D01*
X5398634Y-7254960D02*
X5389111Y-7245436D01*
X5389111Y-7245436D02*
X5379587Y-7226388D01*
X5379587Y-7226388D02*
X5379587Y-7169246D01*
X5379587Y-7169246D02*
X5389111Y-7150198D01*
X5389111Y-7150198D02*
X5398634Y-7140674D01*
X5398634Y-7140674D02*
X5417682Y-7131150D01*
X5417682Y-7131150D02*
X5446254Y-7131150D01*
X5446254Y-7131150D02*
X5465301Y-7140674D01*
X5465301Y-7140674D02*
X5474825Y-7150198D01*
X5474825Y-7150198D02*
X5484349Y-7169246D01*
X5484349Y-7169246D02*
X5484349Y-7226388D01*
X5484349Y-7226388D02*
X5474825Y-7245436D01*
X5474825Y-7245436D02*
X5465301Y-7254960D01*
X5465301Y-7254960D02*
X5446254Y-7264484D01*
X5446254Y-7264484D02*
X5417682Y-7264484D01*
X5541492Y-7131150D02*
X5617682Y-7131150D01*
X5570063Y-7064484D02*
X5570063Y-7235912D01*
X5570063Y-7235912D02*
X5579587Y-7254960D01*
X5579587Y-7254960D02*
X5598634Y-7264484D01*
X5598634Y-7264484D02*
X5617682Y-7264484D01*
X5836730Y-7131150D02*
X5836730Y-7331150D01*
X5836730Y-7140674D02*
X5855777Y-7131150D01*
X5855777Y-7131150D02*
X5893873Y-7131150D01*
X5893873Y-7131150D02*
X5912920Y-7140674D01*
X5912920Y-7140674D02*
X5922444Y-7150198D01*
X5922444Y-7150198D02*
X5931968Y-7169246D01*
X5931968Y-7169246D02*
X5931968Y-7226388D01*
X5931968Y-7226388D02*
X5922444Y-7245436D01*
X5922444Y-7245436D02*
X5912920Y-7254960D01*
X5912920Y-7254960D02*
X5893873Y-7264484D01*
X5893873Y-7264484D02*
X5855777Y-7264484D01*
X5855777Y-7264484D02*
X5836730Y-7254960D01*
X6046253Y-7264484D02*
X6027206Y-7254960D01*
X6027206Y-7254960D02*
X6017682Y-7235912D01*
X6017682Y-7235912D02*
X6017682Y-7064484D01*
X6208158Y-7264484D02*
X6208158Y-7159722D01*
X6208158Y-7159722D02*
X6198634Y-7140674D01*
X6198634Y-7140674D02*
X6179587Y-7131150D01*
X6179587Y-7131150D02*
X6141492Y-7131150D01*
X6141492Y-7131150D02*
X6122444Y-7140674D01*
X6208158Y-7254960D02*
X6189111Y-7264484D01*
X6189111Y-7264484D02*
X6141492Y-7264484D01*
X6141492Y-7264484D02*
X6122444Y-7254960D01*
X6122444Y-7254960D02*
X6112920Y-7235912D01*
X6112920Y-7235912D02*
X6112920Y-7216865D01*
X6112920Y-7216865D02*
X6122444Y-7197817D01*
X6122444Y-7197817D02*
X6141492Y-7188293D01*
X6141492Y-7188293D02*
X6189111Y-7188293D01*
X6189111Y-7188293D02*
X6208158Y-7178769D01*
X6274825Y-7131150D02*
X6351015Y-7131150D01*
X6303396Y-7064484D02*
X6303396Y-7235912D01*
X6303396Y-7235912D02*
X6312920Y-7254960D01*
X6312920Y-7254960D02*
X6331968Y-7264484D01*
X6331968Y-7264484D02*
X6351015Y-7264484D01*
X6493873Y-7254960D02*
X6474825Y-7264484D01*
X6474825Y-7264484D02*
X6436730Y-7264484D01*
X6436730Y-7264484D02*
X6417682Y-7254960D01*
X6417682Y-7254960D02*
X6408158Y-7235912D01*
X6408158Y-7235912D02*
X6408158Y-7159722D01*
X6408158Y-7159722D02*
X6417682Y-7140674D01*
X6417682Y-7140674D02*
X6436730Y-7131150D01*
X6436730Y-7131150D02*
X6474825Y-7131150D01*
X6474825Y-7131150D02*
X6493873Y-7140674D01*
X6493873Y-7140674D02*
X6503396Y-7159722D01*
X6503396Y-7159722D02*
X6503396Y-7178769D01*
X6503396Y-7178769D02*
X6408158Y-7197817D01*
X6674825Y-7264484D02*
X6674825Y-7064484D01*
X6674825Y-7254960D02*
X6655777Y-7264484D01*
X6655777Y-7264484D02*
X6617682Y-7264484D01*
X6617682Y-7264484D02*
X6598634Y-7254960D01*
X6598634Y-7254960D02*
X6589111Y-7245436D01*
X6589111Y-7245436D02*
X6579587Y-7226388D01*
X6579587Y-7226388D02*
X6579587Y-7169246D01*
X6579587Y-7169246D02*
X6589111Y-7150198D01*
X6589111Y-7150198D02*
X6598634Y-7140674D01*
X6598634Y-7140674D02*
X6617682Y-7131150D01*
X6617682Y-7131150D02*
X6655777Y-7131150D01*
X6655777Y-7131150D02*
X6674825Y-7140674D01*
X6751015Y-7340674D02*
X6760539Y-7331150D01*
X6760539Y-7331150D02*
X6779587Y-7302579D01*
X6779587Y-7302579D02*
X6789111Y-7283531D01*
X6789111Y-7283531D02*
X6798634Y-7254960D01*
X6798634Y-7254960D02*
X6808158Y-7207341D01*
X6808158Y-7207341D02*
X6808158Y-7169246D01*
X6808158Y-7169246D02*
X6798634Y-7121627D01*
X6798634Y-7121627D02*
X6789111Y-7093055D01*
X6789111Y-7093055D02*
X6779587Y-7074008D01*
X6779587Y-7074008D02*
X6760539Y-7045436D01*
X6760539Y-7045436D02*
X6751015Y-7035912D01*
M02*
