%TF.GenerationSoftware,KiCad,Pcbnew,10.0.6*%
%TF.CreationDate,2026-10-05T06:08:17-07:00*%
%TF.ProjectId,plush-toy-v2-A,706c7573-682d-4746-9f79-2d76322d412e,rev?*%
%TF.SameCoordinates,Original*%
%TF.FileFunction,Copper,L1,Top*%
%TF.FilePolarity,Positive*%
%FSLAX46Y46*%
G04 Gerber Fmt 4.6, Leading zero omitted, Abs format (unit mm)*
G04 Created by KiCad (PCBNEW 10.0.6) date 2026-10-05 06:08:17*
%MOMM*%
%LPD*%
G01*
G04 APERTURE LIST*
G04 Aperture macros list*
%AMRoundRect*
0 Rectangle with rounded corners*
0 $1 Rounding radius*
0 $2 $3 $4 $5 $6 $7 $8 $9 X,Y pos of 4 corners*
0 Add a 4 corners polygon primitive as box body*
4,1,4,$2,$3,$4,$5,$6,$7,$8,$9,$2,$3,0*
0 Add four circle primitives for the rounded corners*
1,1,$1+$1,$2,$3*
1,1,$1+$1,$4,$5*
1,1,$1+$1,$6,$7*
1,1,$1+$1,$8,$9*
0 Add four rect primitives between the rounded corners*
20,1,$1+$1,$2,$3,$4,$5,0*
20,1,$1+$1,$4,$5,$6,$7,0*
20,1,$1+$1,$6,$7,$8,$9,0*
20,1,$1+$1,$8,$9,$2,$3,0*%
G04 Aperture macros list end*
%TA.AperFunction,SMDPad,CuDef*%
%ADD10RoundRect,0.135000X0.185000X-0.135000X0.185000X0.135000X-0.185000X0.135000X-0.185000X-0.135000X0*%
%TD*%
%TA.AperFunction,SMDPad,CuDef*%
%ADD11RoundRect,0.200000X0.275000X-0.200000X0.275000X0.200000X-0.275000X0.200000X-0.275000X-0.200000X0*%
%TD*%
%TA.AperFunction,SMDPad,CuDef*%
%ADD12R,3.200000X1.020000*%
%TD*%
%TA.AperFunction,SMDPad,CuDef*%
%ADD13R,0.500000X1.700000*%
%TD*%
%TA.AperFunction,SMDPad,CuDef*%
%ADD14R,1.200000X2.500000*%
%TD*%
%TA.AperFunction,SMDPad,CuDef*%
%ADD15R,0.600000X1.200000*%
%TD*%
%TA.AperFunction,SMDPad,CuDef*%
%ADD16R,2.000000X2.000000*%
%TD*%
%TA.AperFunction,SMDPad,CuDef*%
%ADD17RoundRect,0.135000X-0.135000X-0.185000X0.135000X-0.185000X0.135000X0.185000X-0.135000X0.185000X0*%
%TD*%
%TA.AperFunction,SMDPad,CuDef*%
%ADD18RoundRect,0.140000X0.170000X-0.140000X0.170000X0.140000X-0.170000X0.140000X-0.170000X-0.140000X0*%
%TD*%
%TA.AperFunction,SMDPad,CuDef*%
%ADD19RoundRect,0.050000X-0.150000X-0.300000X0.150000X-0.300000X0.150000X0.300000X-0.150000X0.300000X0*%
%TD*%
%TA.AperFunction,SMDPad,CuDef*%
%ADD20RoundRect,0.150000X-0.587500X-0.150000X0.587500X-0.150000X0.587500X0.150000X-0.587500X0.150000X0*%
%TD*%
%TA.AperFunction,SMDPad,CuDef*%
%ADD21RoundRect,0.250000X-0.250000X-1.500000X0.250000X-1.500000X0.250000X1.500000X-0.250000X1.500000X0*%
%TD*%
%TA.AperFunction,SMDPad,CuDef*%
%ADD22RoundRect,0.250001X-0.499999X-1.449999X0.499999X-1.449999X0.499999X1.449999X-0.499999X1.449999X0*%
%TD*%
%TA.AperFunction,SMDPad,CuDef*%
%ADD23R,1.230000X1.860000*%
%TD*%
%TA.AperFunction,SMDPad,CuDef*%
%ADD24RoundRect,0.250000X-0.250000X-0.475000X0.250000X-0.475000X0.250000X0.475000X-0.250000X0.475000X0*%
%TD*%
%TA.AperFunction,SMDPad,CuDef*%
%ADD25RoundRect,0.062500X-0.350000X-0.062500X0.350000X-0.062500X0.350000X0.062500X-0.350000X0.062500X0*%
%TD*%
%TA.AperFunction,SMDPad,CuDef*%
%ADD26RoundRect,0.062500X-0.062500X-0.350000X0.062500X-0.350000X0.062500X0.350000X-0.062500X0.350000X0*%
%TD*%
%TA.AperFunction,HeatsinkPad*%
%ADD27R,1.230000X1.230000*%
%TD*%
%TA.AperFunction,SMDPad,CuDef*%
%ADD28RoundRect,0.150000X0.150000X0.625000X-0.150000X0.625000X-0.150000X-0.625000X0.150000X-0.625000X0*%
%TD*%
%TA.AperFunction,SMDPad,CuDef*%
%ADD29RoundRect,0.250000X0.350000X0.650000X-0.350000X0.650000X-0.350000X-0.650000X0.350000X-0.650000X0*%
%TD*%
%TA.AperFunction,SMDPad,CuDef*%
%ADD30RoundRect,0.140000X-0.140000X-0.170000X0.140000X-0.170000X0.140000X0.170000X-0.140000X0.170000X0*%
%TD*%
%TA.AperFunction,SMDPad,CuDef*%
%ADD31RoundRect,0.150000X-0.150000X-0.575000X0.150000X-0.575000X0.150000X0.575000X-0.150000X0.575000X0*%
%TD*%
%TA.AperFunction,SMDPad,CuDef*%
%ADD32RoundRect,0.075000X-0.075000X-0.650000X0.075000X-0.650000X0.075000X0.650000X-0.075000X0.650000X0*%
%TD*%
%TA.AperFunction,ComponentPad*%
%ADD33O,1.000000X2.100000*%
%TD*%
%TA.AperFunction,ComponentPad*%
%ADD34O,1.000000X1.600000*%
%TD*%
%TA.AperFunction,SMDPad,CuDef*%
%ADD35RoundRect,0.225000X-0.225000X-0.250000X0.225000X-0.250000X0.225000X0.250000X-0.225000X0.250000X0*%
%TD*%
%TA.AperFunction,SMDPad,CuDef*%
%ADD36R,1.100000X3.700000*%
%TD*%
%TA.AperFunction,SMDPad,CuDef*%
%ADD37R,3.500000X1.500000*%
%TD*%
%TA.AperFunction,SMDPad,CuDef*%
%ADD38R,0.700000X1.750000*%
%TD*%
%TA.AperFunction,SMDPad,CuDef*%
%ADD39R,1.200000X2.550000*%
%TD*%
%TA.AperFunction,SMDPad,CuDef*%
%ADD40R,0.900000X1.500000*%
%TD*%
%TA.AperFunction,SMDPad,CuDef*%
%ADD41R,1.500000X0.900000*%
%TD*%
%TA.AperFunction,HeatsinkPad*%
%ADD42C,0.600000*%
%TD*%
%TA.AperFunction,HeatsinkPad*%
%ADD43R,3.900000X3.900000*%
%TD*%
%TA.AperFunction,SMDPad,CuDef*%
%ADD44RoundRect,0.050000X0.300000X-0.150000X0.300000X0.150000X-0.300000X0.150000X-0.300000X-0.150000X0*%
%TD*%
%TA.AperFunction,SMDPad,CuDef*%
%ADD45RoundRect,0.200000X-0.200000X-0.600000X0.200000X-0.600000X0.200000X0.600000X-0.200000X0.600000X0*%
%TD*%
%TA.AperFunction,SMDPad,CuDef*%
%ADD46RoundRect,0.250001X-0.799999X-1.249999X0.799999X-1.249999X0.799999X1.249999X-0.799999X1.249999X0*%
%TD*%
%TA.AperFunction,SMDPad,CuDef*%
%ADD47RoundRect,0.225000X0.250000X-0.225000X0.250000X0.225000X-0.250000X0.225000X-0.250000X-0.225000X0*%
%TD*%
%TA.AperFunction,SMDPad,CuDef*%
%ADD48RoundRect,0.250000X0.475000X-0.250000X0.475000X0.250000X-0.475000X0.250000X-0.475000X-0.250000X0*%
%TD*%
%TA.AperFunction,SMDPad,CuDef*%
%ADD49RoundRect,0.150000X-0.150000X-0.625000X0.150000X-0.625000X0.150000X0.625000X-0.150000X0.625000X0*%
%TD*%
%TA.AperFunction,SMDPad,CuDef*%
%ADD50RoundRect,0.250000X-0.350000X-0.650000X0.350000X-0.650000X0.350000X0.650000X-0.350000X0.650000X0*%
%TD*%
%TA.AperFunction,SMDPad,CuDef*%
%ADD51R,0.280000X0.500000*%
%TD*%
%TA.AperFunction,SMDPad,CuDef*%
%ADD52R,0.500000X0.280000*%
%TD*%
%TA.AperFunction,SMDPad,CuDef*%
%ADD53RoundRect,0.150000X0.150000X-0.587500X0.150000X0.587500X-0.150000X0.587500X-0.150000X-0.587500X0*%
%TD*%
%TA.AperFunction,SMDPad,CuDef*%
%ADD54RoundRect,0.150000X-0.512500X-0.150000X0.512500X-0.150000X0.512500X0.150000X-0.512500X0.150000X0*%
%TD*%
%TA.AperFunction,SMDPad,CuDef*%
%ADD55RoundRect,0.250000X-0.375000X-0.625000X0.375000X-0.625000X0.375000X0.625000X-0.375000X0.625000X0*%
%TD*%
%TA.AperFunction,SMDPad,CuDef*%
%ADD56R,1.800000X4.700000*%
%TD*%
%TA.AperFunction,SMDPad,CuDef*%
%ADD57RoundRect,0.062500X-0.237500X-0.062500X0.237500X-0.062500X0.237500X0.062500X-0.237500X0.062500X0*%
%TD*%
%TA.AperFunction,HeatsinkPad*%
%ADD58C,0.500000*%
%TD*%
%TA.AperFunction,HeatsinkPad*%
%ADD59R,0.900000X1.600000*%
%TD*%
%TA.AperFunction,ViaPad*%
%ADD60C,0.600000*%
%TD*%
%TA.AperFunction,ViaPad*%
%ADD61C,0.800000*%
%TD*%
%TA.AperFunction,Conductor*%
%ADD62C,0.400000*%
%TD*%
%TA.AperFunction,Conductor*%
%ADD63C,0.300000*%
%TD*%
%TA.AperFunction,Conductor*%
%ADD64C,0.280000*%
%TD*%
%TA.AperFunction,Conductor*%
%ADD65C,0.200000*%
%TD*%
%TA.AperFunction,Conductor*%
%ADD66C,0.150000*%
%TD*%
%TA.AperFunction,Conductor*%
%ADD67C,0.250000*%
%TD*%
%TA.AperFunction,Conductor*%
%ADD68C,0.250200*%
%TD*%
%TA.AperFunction,Conductor*%
%ADD69C,0.600000*%
%TD*%
%TA.AperFunction,Conductor*%
%ADD70C,0.450000*%
%TD*%
%TA.AperFunction,Conductor*%
%ADD71C,0.560800*%
%TD*%
%TA.AperFunction,Conductor*%
%ADD72C,0.540800*%
%TD*%
G04 APERTURE END LIST*
D10*
%TO.P,R_FB1,1*%
%TO.N,+3V3*%
X41500000Y-23010000D03*
%TO.P,R_FB1,2*%
%TO.N,BUCK_FB*%
X41500000Y-21990000D03*
%TD*%
D11*
%TO.P,RT_BAT,1*%
%TO.N,BAT_NTC_SENSE*%
X20000000Y-41325000D03*
%TO.P,RT_BAT,2*%
%TO.N,GND*%
X20000000Y-39675000D03*
%TD*%
D12*
%TO.P,J_ARM_R,1*%
%TO.N,SERVO_R_PWM*%
X45405000Y-22540000D03*
%TO.P,J_ARM_R,2*%
%TO.N,VSYS*%
X45405000Y-20000000D03*
%TO.P,J_ARM_R,3*%
%TO.N,GND*%
X45405000Y-17460000D03*
%TD*%
D13*
%TO.P,J_KEY,1*%
%TO.N,KEY_PWR*%
X16200000Y-5150000D03*
%TO.P,J_KEY,2*%
%TO.N,KEY_MUTE*%
X15200000Y-5150000D03*
%TO.P,J_KEY,3*%
%TO.N,GND*%
X14200000Y-5150000D03*
D14*
%TO.P,J_KEY,4*%
%TO.N,unconnected-(J_KEY-Pad4)*%
X17300000Y-1750000D03*
%TO.P,J_KEY,5*%
%TO.N,unconnected-(J_KEY-Pad5)*%
X13100000Y-1750000D03*
%TD*%
D15*
%TO.P,U_CHG,1*%
%TO.N,VUSB*%
X29090000Y-31910000D03*
%TO.P,U_CHG,2*%
%TO.N,I2C_SCL*%
X30370000Y-31910000D03*
%TO.P,U_CHG,3*%
%TO.N,I2C_SDA*%
X31640000Y-31910000D03*
%TO.P,U_CHG,4*%
%TO.N,unconnected-(U_CHG-LED3-Pad4)*%
X32910000Y-31910000D03*
%TO.P,U_CHG,5*%
%TO.N,KEY_PWR*%
X32910000Y-26090000D03*
%TO.P,U_CHG,6*%
%TO.N,VBAT*%
X31640000Y-26090000D03*
%TO.P,U_CHG,7*%
%TO.N,CHG_SW*%
X30370000Y-26090000D03*
%TO.P,U_CHG,8*%
%TO.N,VSYS*%
X29090000Y-26090000D03*
D16*
%TO.P,U_CHG,9*%
%TO.N,GND*%
X31000000Y-29000000D03*
%TD*%
D17*
%TO.P,R_BATN_PD,1*%
%TO.N,BATN_GATE*%
X19490000Y-37500000D03*
%TO.P,R_BATN_PD,2*%
%TO.N,GND*%
X20510000Y-37500000D03*
%TD*%
D18*
%TO.P,C_TOUCH_FILT,1*%
%TO.N,TOUCH_E0*%
X8000000Y-8730000D03*
%TO.P,C_TOUCH_FILT,2*%
%TO.N,GND*%
X8000000Y-7770000D03*
%TD*%
D19*
%TO.P,D_ESD_PWR,1*%
%TO.N,KEY_PWR*%
X17650000Y-7000000D03*
%TO.P,D_ESD_PWR,2*%
%TO.N,GND*%
X18350000Y-7000000D03*
%TD*%
D20*
%TO.P,Q_HEAT,1*%
%TO.N,HEAT_GATE*%
X39062500Y-14300000D03*
%TO.P,Q_HEAT,2*%
%TO.N,GND*%
X39062500Y-16200000D03*
%TO.P,Q_HEAT,3*%
%TO.N,HEAT_LOW*%
X40937500Y-15250000D03*
%TD*%
D21*
%TO.P,J_BAT,1*%
%TO.N,VBAT_PACK*%
X13000000Y-37555000D03*
%TO.P,J_BAT,2*%
%TO.N,GND*%
X15000000Y-37555000D03*
D22*
%TO.P,J_BAT,MP*%
%TO.N,N/C*%
X10650000Y-43305000D03*
X17350000Y-43305000D03*
%TD*%
D17*
%TO.P,R_GATE,1*%
%TO.N,HEAT_GATE_DRV*%
X40490000Y-8250000D03*
%TO.P,R_GATE,2*%
%TO.N,HEAT_GATE*%
X41510000Y-8250000D03*
%TD*%
D10*
%TO.P,R_LCD_BL_GATE,1*%
%TO.N,LCD_BL_PWM*%
X34000000Y-12010000D03*
%TO.P,R_LCD_BL_GATE,2*%
%TO.N,LCD_BL_GATE*%
X34000000Y-10990000D03*
%TD*%
D23*
%TO.P,SW_BOOT,1*%
%TO.N,BOOT*%
X21320000Y-19000000D03*
%TO.P,SW_BOOT,2*%
%TO.N,GND*%
X25680000Y-19000000D03*
%TD*%
D17*
%TO.P,R_SCL,1*%
%TO.N,I2C_SCL*%
X23490000Y-22750000D03*
%TO.P,R_SCL,2*%
%TO.N,+3V3*%
X24510000Y-22750000D03*
%TD*%
D24*
%TO.P,C_BUCK_OUT2,1*%
%TO.N,+3V3*%
X29800000Y-18000000D03*
%TO.P,C_BUCK_OUT2,2*%
%TO.N,GND*%
X31700000Y-18000000D03*
%TD*%
D25*
%TO.P,U_AMP,1*%
%TO.N,AMP_DIN*%
X35162500Y-32250000D03*
%TO.P,U_AMP,2*%
%TO.N,unconnected-(U_AMP-GAIN_SLOT-Pad2)*%
X35162500Y-32750000D03*
%TO.P,U_AMP,3*%
%TO.N,GND*%
X35162500Y-33250000D03*
%TO.P,U_AMP,4*%
%TO.N,AMP_SD*%
X35162500Y-33750000D03*
D26*
%TO.P,U_AMP,5*%
%TO.N,unconnected-(U_AMP-NC-Pad5)*%
X35850000Y-34437500D03*
%TO.P,U_AMP,6*%
%TO.N,unconnected-(U_AMP-NC-Pad6)*%
X36350000Y-34437500D03*
%TO.P,U_AMP,7*%
%TO.N,VSYS*%
X36850000Y-34437500D03*
%TO.P,U_AMP,8*%
X37350000Y-34437500D03*
D25*
%TO.P,U_AMP,9*%
%TO.N,SPK_P*%
X38037500Y-33750000D03*
%TO.P,U_AMP,10*%
%TO.N,SPK_N*%
X38037500Y-33250000D03*
%TO.P,U_AMP,11*%
%TO.N,GND*%
X38037500Y-32750000D03*
%TO.P,U_AMP,12*%
%TO.N,unconnected-(U_AMP-NC-Pad12)*%
X38037500Y-32250000D03*
D26*
%TO.P,U_AMP,13*%
%TO.N,unconnected-(U_AMP-NC-Pad13)*%
X37350000Y-31562500D03*
%TO.P,U_AMP,14*%
%TO.N,AMP_LRCLK*%
X36850000Y-31562500D03*
%TO.P,U_AMP,15*%
%TO.N,GND*%
X36350000Y-31562500D03*
%TO.P,U_AMP,16*%
%TO.N,AMP_BCLK*%
X35850000Y-31562500D03*
D27*
%TO.P,U_AMP,17*%
%TO.N,GND*%
X36600000Y-33000000D03*
%TD*%
D18*
%TO.P,C_IMU,1*%
%TO.N,+3V3*%
X23000000Y-25230000D03*
%TO.P,C_IMU,2*%
%TO.N,GND*%
X23000000Y-24270000D03*
%TD*%
%TO.P,C_MIC,1*%
%TO.N,+3V3*%
X41500000Y-4230000D03*
%TO.P,C_MIC,2*%
%TO.N,GND*%
X41500000Y-3270000D03*
%TD*%
D28*
%TO.P,J_LCD,1*%
%TO.N,LCD_RST*%
X28500000Y-5775000D03*
%TO.P,J_LCD,2*%
%TO.N,LCD_CS*%
X27500000Y-5775000D03*
%TO.P,J_LCD,3*%
%TO.N,LCD_DC*%
X26500000Y-5775000D03*
%TO.P,J_LCD,4*%
%TO.N,LCD_MOSI_S*%
X25500000Y-5775000D03*
%TO.P,J_LCD,5*%
%TO.N,LCD_CLK_S*%
X24500000Y-5775000D03*
%TO.P,J_LCD,6*%
%TO.N,GND*%
X23500000Y-5775000D03*
%TO.P,J_LCD,7*%
%TO.N,+3V3*%
X22500000Y-5775000D03*
%TO.P,J_LCD,8*%
%TO.N,LCD_BL*%
X21500000Y-5775000D03*
D29*
%TO.P,J_LCD,MP*%
%TO.N,N/C*%
X29800000Y-1900000D03*
X20200000Y-1900000D03*
%TD*%
D30*
%TO.P,C_AMP,1*%
%TO.N,VSYS*%
X42270000Y-38000000D03*
%TO.P,C_AMP,2*%
%TO.N,GND*%
X43230000Y-38000000D03*
%TD*%
D17*
%TO.P,R_SERVO_R_PD,1*%
%TO.N,SERVO_R_PWM*%
X35240000Y-12000000D03*
%TO.P,R_SERVO_R_PD,2*%
%TO.N,GND*%
X36260000Y-12000000D03*
%TD*%
D10*
%TO.P,R_CC_SUM1,1*%
%TO.N,CC1*%
X21500000Y-39760000D03*
%TO.P,R_CC_SUM1,2*%
%TO.N,CC_SENSE*%
X21500000Y-38740000D03*
%TD*%
D30*
%TO.P,C_FF,1*%
%TO.N,+3V3*%
X32020000Y-14500000D03*
%TO.P,C_FF,2*%
%TO.N,BUCK_FB*%
X32980000Y-14500000D03*
%TD*%
D31*
%TO.P,J_USB,A1*%
%TO.N,GND*%
X25550000Y-37310000D03*
%TO.P,J_USB,A4*%
%TO.N,VBUS_IN*%
X26350000Y-37310000D03*
D32*
%TO.P,J_USB,A5*%
%TO.N,CC1*%
X27550000Y-37310000D03*
%TO.P,J_USB,A6*%
%TO.N,USB_DP*%
X28550000Y-37310000D03*
%TO.P,J_USB,A7*%
%TO.N,USB_DN*%
X29050000Y-37310000D03*
%TO.P,J_USB,A8*%
%TO.N,unconnected-(J_USB-SBU1-PadA8)*%
X30050000Y-37310000D03*
D31*
%TO.P,J_USB,A9*%
%TO.N,VBUS_IN*%
X31250000Y-37310000D03*
%TO.P,J_USB,A12*%
%TO.N,GND*%
X32050000Y-37310000D03*
%TO.P,J_USB,B1*%
X32050000Y-37310000D03*
%TO.P,J_USB,B4*%
%TO.N,VBUS_IN*%
X31250000Y-37310000D03*
D32*
%TO.P,J_USB,B5*%
%TO.N,CC2*%
X30550000Y-37310000D03*
%TO.P,J_USB,B6*%
%TO.N,USB_DP*%
X29550000Y-37310000D03*
%TO.P,J_USB,B7*%
%TO.N,USB_DN*%
X28050000Y-37310000D03*
%TO.P,J_USB,B8*%
%TO.N,unconnected-(J_USB-SBU2-PadB8)*%
X27050000Y-37310000D03*
D31*
%TO.P,J_USB,B9*%
%TO.N,VBUS_IN*%
X26350000Y-37310000D03*
%TO.P,J_USB,B12*%
%TO.N,GND*%
X25550000Y-37310000D03*
D33*
%TO.P,J_USB,SH*%
X24480000Y-38225000D03*
D34*
X24480000Y-42405000D03*
D33*
X33120000Y-38225000D03*
D34*
X33120000Y-42405000D03*
%TD*%
D23*
%TO.P,SW_RST,1*%
%TO.N,EN*%
X21320000Y-14500000D03*
%TO.P,SW_RST,2*%
%TO.N,GND*%
X25680000Y-14500000D03*
%TD*%
D17*
%TO.P,R_VBAT_BOT,1*%
%TO.N,VBAT_SENSE*%
X7740000Y-39250000D03*
%TO.P,R_VBAT_BOT,2*%
%TO.N,GND*%
X8760000Y-39250000D03*
%TD*%
D19*
%TO.P,D_ESD_MUTE,1*%
%TO.N,KEY_MUTE*%
X18150000Y-8500000D03*
%TO.P,D_ESD_MUTE,2*%
%TO.N,GND*%
X18850000Y-8500000D03*
%TD*%
D35*
%TO.P,C_BUCK_IN,1*%
%TO.N,VSYS*%
X38725000Y-19750000D03*
%TO.P,C_BUCK_IN,2*%
%TO.N,GND*%
X40275000Y-19750000D03*
%TD*%
D10*
%TO.P,R_BATP_BYP,1*%
%TO.N,VBAT*%
X22000000Y-31010000D03*
%TO.P,R_BATP_BYP,2*%
%TO.N,VBAT_PACK*%
X22000000Y-29990000D03*
%TD*%
D36*
%TO.P,L_BUCK,1*%
%TO.N,BUCK_SW*%
X33250000Y-17250000D03*
%TO.P,L_BUCK,2*%
%TO.N,+3V3*%
X36250000Y-17250000D03*
%TD*%
D37*
%TO.P,J_HEAT,1*%
%TO.N,VUSB*%
X42350000Y-30750000D03*
%TO.P,J_HEAT,2*%
%TO.N,HEAT_LOW*%
X42350000Y-28250000D03*
%TO.P,J_HEAT,3*%
%TO.N,unconnected-(J_HEAT-Pad3)*%
X49750000Y-33730000D03*
%TO.P,J_HEAT,4*%
%TO.N,unconnected-(J_HEAT-Pad4)*%
X49750000Y-25270000D03*
%TD*%
D24*
%TO.P,C_SERVO2,1*%
%TO.N,VSYS*%
X43050000Y-6500000D03*
%TO.P,C_SERVO2,2*%
%TO.N,GND*%
X44950000Y-6500000D03*
%TD*%
D38*
%TO.P,J_MIC,1*%
%TO.N,+3V3*%
X39000000Y-5495000D03*
%TO.P,J_MIC,2*%
%TO.N,GND*%
X38000000Y-5495000D03*
%TO.P,J_MIC,3*%
%TO.N,MIC_SD*%
X37000000Y-5495000D03*
%TO.P,J_MIC,4*%
%TO.N,MIC_WS*%
X36000000Y-5495000D03*
%TO.P,J_MIC,5*%
%TO.N,MIC_SCK*%
X35000000Y-5495000D03*
%TO.P,J_MIC,6*%
%TO.N,GND*%
X34000000Y-5495000D03*
D39*
%TO.P,J_MIC,7*%
%TO.N,unconnected-(J_MIC-Pad7)*%
X32890000Y-1775000D03*
%TO.P,J_MIC,8*%
%TO.N,unconnected-(J_MIC-Pad8)*%
X40110000Y-1775000D03*
%TD*%
D18*
%TO.P,C_LCD,1*%
%TO.N,+3V3*%
X20000000Y-10480000D03*
%TO.P,C_LCD,2*%
%TO.N,GND*%
X20000000Y-9520000D03*
%TD*%
D19*
%TO.P,D_USB_DN,1*%
%TO.N,USB_DN*%
X21900000Y-41000000D03*
%TO.P,D_USB_DN,2*%
%TO.N,GND*%
X22600000Y-41000000D03*
%TD*%
D18*
%TO.P,C_NTC,1*%
%TO.N,NTC_SENSE*%
X50750000Y-40230000D03*
%TO.P,C_NTC,2*%
%TO.N,GND*%
X50750000Y-39270000D03*
%TD*%
D30*
%TO.P,C_EFUSE_DVDT,1*%
%TO.N,EFUSE_DVDT*%
X21770000Y-28500000D03*
%TO.P,C_EFUSE_DVDT,2*%
%TO.N,GND*%
X22730000Y-28500000D03*
%TD*%
D10*
%TO.P,R_CC1,1*%
%TO.N,CC1*%
X22750000Y-39760000D03*
%TO.P,R_CC1,2*%
%TO.N,GND*%
X22750000Y-38740000D03*
%TD*%
D17*
%TO.P,R_BAT_NTC,1*%
%TO.N,+3V3*%
X19240000Y-44500000D03*
%TO.P,R_BAT_NTC,2*%
%TO.N,BAT_NTC_SENSE*%
X20260000Y-44500000D03*
%TD*%
D40*
%TO.P,U1,1*%
%TO.N,GND*%
X1490000Y-29750000D03*
%TO.P,U1,2*%
%TO.N,+3V3*%
X2760000Y-29750000D03*
%TO.P,U1,3*%
%TO.N,EN*%
X4030000Y-29750000D03*
%TO.P,U1,4*%
%TO.N,NTC_SENSE*%
X5300000Y-29750000D03*
%TO.P,U1,5*%
%TO.N,VBAT_SENSE*%
X6570000Y-29750000D03*
%TO.P,U1,6*%
%TO.N,CC_SENSE*%
X7840000Y-29750000D03*
%TO.P,U1,7*%
%TO.N,BAT_NTC_SENSE*%
X9110000Y-29750000D03*
%TO.P,U1,8*%
%TO.N,unconnected-(U1-IO15-Pad8)*%
X10380000Y-29750000D03*
%TO.P,U1,9*%
%TO.N,unconnected-(U1-IO16-Pad9)*%
X11650000Y-29750000D03*
%TO.P,U1,10*%
%TO.N,HEAT_GATE_DRV*%
X12920000Y-29750000D03*
%TO.P,U1,11*%
%TO.N,KEY_MUTE*%
X14190000Y-29750000D03*
%TO.P,U1,12*%
%TO.N,TOUCH_E0*%
X15460000Y-29750000D03*
%TO.P,U1,13*%
%TO.N,USB_DN*%
X16730000Y-29750000D03*
%TO.P,U1,14*%
%TO.N,USB_DP*%
X18000000Y-29750000D03*
D41*
%TO.P,U1,15*%
%TO.N,SERVO_L_PWM*%
X19250000Y-27985000D03*
%TO.P,U1,16*%
%TO.N,SERVO_R_PWM*%
X19250000Y-26715000D03*
%TO.P,U1,17*%
%TO.N,unconnected-(U1-IO9-Pad17)*%
X19250000Y-25445000D03*
%TO.P,U1,18*%
%TO.N,unconnected-(U1-IO10-Pad18)*%
X19250000Y-24175000D03*
%TO.P,U1,19*%
%TO.N,unconnected-(U1-IO11-Pad19)*%
X19250000Y-22905000D03*
%TO.P,U1,20*%
%TO.N,unconnected-(U1-IO12-Pad20)*%
X19250000Y-21635000D03*
%TO.P,U1,21*%
%TO.N,unconnected-(U1-IO13-Pad21)*%
X19250000Y-20365000D03*
%TO.P,U1,22*%
%TO.N,LCD_MOSI*%
X19250000Y-19095000D03*
%TO.P,U1,23*%
%TO.N,LCD_RST*%
X19250000Y-17825000D03*
%TO.P,U1,24*%
%TO.N,LCD_DC*%
X19250000Y-16555000D03*
%TO.P,U1,25*%
%TO.N,LCD_BL_PWM*%
X19250000Y-15285000D03*
%TO.P,U1,26*%
%TO.N,LCD_CS*%
X19250000Y-14015000D03*
D40*
%TO.P,U1,27*%
%TO.N,BOOT*%
X18000000Y-12250000D03*
%TO.P,U1,28*%
%TO.N,unconnected-(U1-IO35-Pad28)*%
X16730000Y-12250000D03*
%TO.P,U1,29*%
%TO.N,unconnected-(U1-IO36-Pad29)*%
X15460000Y-12250000D03*
%TO.P,U1,30*%
%TO.N,unconnected-(U1-IO37-Pad30)*%
X14190000Y-12250000D03*
%TO.P,U1,31*%
%TO.N,LCD_CLK*%
X12920000Y-12250000D03*
%TO.P,U1,32*%
%TO.N,AMP_DIN*%
X11650000Y-12250000D03*
%TO.P,U1,33*%
%TO.N,AMP_BCLK*%
X10380000Y-12250000D03*
%TO.P,U1,34*%
%TO.N,AMP_LRCLK*%
X9110000Y-12250000D03*
%TO.P,U1,35*%
%TO.N,MIC_SD*%
X7840000Y-12250000D03*
%TO.P,U1,36*%
%TO.N,I2C_SDA*%
X6570000Y-12250000D03*
%TO.P,U1,37*%
%TO.N,I2C_SCL*%
X5300000Y-12250000D03*
%TO.P,U1,38*%
%TO.N,MIC_SCK*%
X4030000Y-12250000D03*
%TO.P,U1,39*%
%TO.N,MIC_WS*%
X2760000Y-12250000D03*
%TO.P,U1,40*%
%TO.N,GND*%
X1490000Y-12250000D03*
D42*
%TO.P,U1,41*%
X8510000Y-23900000D03*
X9910000Y-23900000D03*
X7810000Y-23200000D03*
X9210000Y-23200000D03*
X10610000Y-23200000D03*
X8510000Y-22500000D03*
D43*
X9210000Y-22500000D03*
D42*
X9910000Y-22500000D03*
X7810000Y-21800000D03*
X9210000Y-21800000D03*
X10610000Y-21800000D03*
X8510000Y-21100000D03*
X9910000Y-21100000D03*
%TD*%
D44*
%TO.P,D_ESD_TOUCH,1*%
%TO.N,TOUCH_E0*%
X5250000Y-7350000D03*
%TO.P,D_ESD_TOUCH,2*%
%TO.N,GND*%
X5250000Y-6650000D03*
%TD*%
D30*
%TO.P,C_BUCK_HF,1*%
%TO.N,VSYS*%
X32020000Y-13250000D03*
%TO.P,C_BUCK_HF,2*%
%TO.N,GND*%
X32980000Y-13250000D03*
%TD*%
%TO.P,C_U1,1*%
%TO.N,+3V3*%
X5520000Y-31500000D03*
%TO.P,C_U1,2*%
%TO.N,GND*%
X6480000Y-31500000D03*
%TD*%
D12*
%TO.P,J_ARM_L,1*%
%TO.N,SERVO_L_PWM*%
X45405000Y-14040000D03*
%TO.P,J_ARM_L,2*%
%TO.N,VSYS*%
X45405000Y-11500000D03*
%TO.P,J_ARM_L,3*%
%TO.N,GND*%
X45405000Y-8960000D03*
%TD*%
D24*
%TO.P,C_VSYS2,1*%
%TO.N,VSYS*%
X24550000Y-24500000D03*
%TO.P,C_VSYS2,2*%
%TO.N,GND*%
X26450000Y-24500000D03*
%TD*%
D20*
%TO.P,Q_BATP,1*%
%TO.N,BATP_GATE*%
X22562500Y-32550000D03*
%TO.P,Q_BATP,2*%
%TO.N,VBAT*%
X22562500Y-34450000D03*
%TO.P,Q_BATP,3*%
%TO.N,VBAT_PACK*%
X24437500Y-33500000D03*
%TD*%
D17*
%TO.P,R_GATE_PD,1*%
%TO.N,HEAT_GATE*%
X30990000Y-12000000D03*
%TO.P,R_GATE_PD,2*%
%TO.N,GND*%
X32010000Y-12000000D03*
%TD*%
%TO.P,R_CC2,1*%
%TO.N,CC2*%
X21490000Y-44750000D03*
%TO.P,R_CC2,2*%
%TO.N,GND*%
X22510000Y-44750000D03*
%TD*%
D45*
%TO.P,J_SPK,1*%
%TO.N,SPK_P*%
X38575000Y-40005000D03*
%TO.P,J_SPK,2*%
%TO.N,SPK_N*%
X39825000Y-40005000D03*
D46*
%TO.P,J_SPK,MP*%
%TO.N,N/C*%
X36025000Y-42905000D03*
X42375000Y-42905000D03*
%TD*%
D24*
%TO.P,C_SERVO1,1*%
%TO.N,VSYS*%
X35050000Y-13750000D03*
%TO.P,C_SERVO1,2*%
%TO.N,GND*%
X36950000Y-13750000D03*
%TD*%
%TO.P,C_SERVO3,1*%
%TO.N,VSYS*%
X46800000Y-6250000D03*
%TO.P,C_SERVO3,2*%
%TO.N,GND*%
X48700000Y-6250000D03*
%TD*%
D17*
%TO.P,R_CC_SUM2,1*%
%TO.N,CC2*%
X21740000Y-37500000D03*
%TO.P,R_CC_SUM2,2*%
%TO.N,CC_SENSE*%
X22760000Y-37500000D03*
%TD*%
%TO.P,R_EFUSE_ILM,1*%
%TO.N,EFUSE_ILM*%
X34990000Y-37750000D03*
%TO.P,R_EFUSE_ILM,2*%
%TO.N,GND*%
X36010000Y-37750000D03*
%TD*%
D47*
%TO.P,C_AMP_BULK,1*%
%TO.N,VSYS*%
X27250000Y-32025000D03*
%TO.P,C_AMP_BULK,2*%
%TO.N,GND*%
X27250000Y-30475000D03*
%TD*%
D48*
%TO.P,C_CHG_BAT,1*%
%TO.N,VBAT*%
X37500000Y-29950000D03*
%TO.P,C_CHG_BAT,2*%
%TO.N,GND*%
X37500000Y-28050000D03*
%TD*%
D17*
%TO.P,R_BATP_PU,1*%
%TO.N,VBAT*%
X21740000Y-36250000D03*
%TO.P,R_BATP_PU,2*%
%TO.N,BATP_GATE*%
X22760000Y-36250000D03*
%TD*%
D30*
%TO.P,C_BAT_NTC,1*%
%TO.N,BAT_NTC_SENSE*%
X10770000Y-34500000D03*
%TO.P,C_BAT_NTC,2*%
%TO.N,GND*%
X11730000Y-34500000D03*
%TD*%
D10*
%TO.P,R_VBAT_TOP,1*%
%TO.N,VBAT*%
X8500000Y-41760000D03*
%TO.P,R_VBAT_TOP,2*%
%TO.N,VBAT_SENSE*%
X8500000Y-40740000D03*
%TD*%
D17*
%TO.P,R_LCD_BL_OFF,1*%
%TO.N,+3V3*%
X29740000Y-14000000D03*
%TO.P,R_LCD_BL_OFF,2*%
%TO.N,LCD_BL_GATE*%
X30760000Y-14000000D03*
%TD*%
D44*
%TO.P,D_USB_DP,1*%
%TO.N,USB_DP*%
X22500000Y-43350000D03*
%TO.P,D_USB_DP,2*%
%TO.N,GND*%
X22500000Y-42650000D03*
%TD*%
D17*
%TO.P,R_FB2,1*%
%TO.N,BUCK_FB*%
X30740000Y-16250000D03*
%TO.P,R_FB2,2*%
%TO.N,GND*%
X31760000Y-16250000D03*
%TD*%
D49*
%TO.P,J_NTC,1*%
%TO.N,NTC_SENSE*%
X46550000Y-40225000D03*
%TO.P,J_NTC,2*%
%TO.N,GND*%
X47550000Y-40225000D03*
D50*
%TO.P,J_NTC,MP*%
%TO.N,N/C*%
X45250000Y-44100000D03*
X48850000Y-44100000D03*
%TD*%
D51*
%TO.P,U_IMU,1*%
%TO.N,I2C_SCL*%
X25750000Y-22880000D03*
%TO.P,U_IMU,2*%
%TO.N,+3V3*%
X26250000Y-22880000D03*
%TO.P,U_IMU,3*%
X26750000Y-22880000D03*
%TO.P,U_IMU,4*%
%TO.N,I2C_SDA*%
X27250000Y-22880000D03*
D52*
%TO.P,U_IMU,5*%
%TO.N,GND*%
X27380000Y-22250000D03*
%TO.P,U_IMU,6*%
X27380000Y-21750000D03*
D51*
%TO.P,U_IMU,7*%
X27250000Y-21120000D03*
%TO.P,U_IMU,8*%
X26750000Y-21120000D03*
%TO.P,U_IMU,9*%
%TO.N,+3V3*%
X26250000Y-21120000D03*
%TO.P,U_IMU,10*%
X25750000Y-21120000D03*
D52*
%TO.P,U_IMU,11*%
%TO.N,unconnected-(U_IMU-INT2-Pad11)*%
X25620000Y-21750000D03*
%TO.P,U_IMU,12*%
%TO.N,unconnected-(U_IMU-INT1-Pad12)*%
X25620000Y-22250000D03*
%TD*%
D17*
%TO.P,R_LCD_CLK,1*%
%TO.N,LCD_CLK*%
X22990000Y-11750000D03*
%TO.P,R_LCD_CLK,2*%
%TO.N,LCD_CLK_S*%
X24010000Y-11750000D03*
%TD*%
D18*
%TO.P,C_VBAT_SENSE,1*%
%TO.N,VBAT_SENSE*%
X8750000Y-43980000D03*
%TO.P,C_VBAT_SENSE,2*%
%TO.N,GND*%
X8750000Y-43020000D03*
%TD*%
D48*
%TO.P,C_VSYS1,1*%
%TO.N,VSYS*%
X24500000Y-28700000D03*
%TO.P,C_VSYS1,2*%
%TO.N,GND*%
X24500000Y-26800000D03*
%TD*%
D18*
%TO.P,C_EN,1*%
%TO.N,EN*%
X27000000Y-14980000D03*
%TO.P,C_EN,2*%
%TO.N,GND*%
X27000000Y-14020000D03*
%TD*%
D17*
%TO.P,R_BOOT,1*%
%TO.N,+3V3*%
X23490000Y-21500000D03*
%TO.P,R_BOOT,2*%
%TO.N,BOOT*%
X24510000Y-21500000D03*
%TD*%
D53*
%TO.P,Q_LCD_BL,1*%
%TO.N,LCD_BL_GATE*%
X30550000Y-10187500D03*
%TO.P,Q_LCD_BL,2*%
%TO.N,+3V3*%
X32450000Y-10187500D03*
%TO.P,Q_LCD_BL,3*%
%TO.N,LCD_BL*%
X31500000Y-8312500D03*
%TD*%
D54*
%TO.P,U_BUCK,1*%
%TO.N,VSYS*%
X37362500Y-21550000D03*
%TO.P,U_BUCK,2*%
%TO.N,GND*%
X37362500Y-22500000D03*
%TO.P,U_BUCK,3*%
%TO.N,BUCK_SW*%
X37362500Y-23450000D03*
%TO.P,U_BUCK,4*%
%TO.N,VSYS*%
X39637500Y-23450000D03*
%TO.P,U_BUCK,5*%
%TO.N,BUCK_FB*%
X39637500Y-21550000D03*
%TD*%
D53*
%TO.P,Q_BATN,1*%
%TO.N,BATN_GATE*%
X18550000Y-33937500D03*
%TO.P,Q_BATN,2*%
%TO.N,GND*%
X20450000Y-33937500D03*
%TO.P,Q_BATN,3*%
%TO.N,BATP_GATE*%
X19500000Y-32062500D03*
%TD*%
D17*
%TO.P,R_BATN_G,1*%
%TO.N,VBAT_PACK*%
X19240000Y-36000000D03*
%TO.P,R_BATN_G,2*%
%TO.N,BATN_GATE*%
X20260000Y-36000000D03*
%TD*%
D30*
%TO.P,C_CC_SENSE,1*%
%TO.N,CC_SENSE*%
X20020000Y-43250000D03*
%TO.P,C_CC_SENSE,2*%
%TO.N,GND*%
X20980000Y-43250000D03*
%TD*%
D24*
%TO.P,C_BUCK_OUT1,1*%
%TO.N,+3V3*%
X37050000Y-25500000D03*
%TO.P,C_BUCK_OUT1,2*%
%TO.N,GND*%
X38950000Y-25500000D03*
%TD*%
D35*
%TO.P,C_U1_BULK,1*%
%TO.N,+3V3*%
X8225000Y-31750000D03*
%TO.P,C_U1_BULK,2*%
%TO.N,GND*%
X9775000Y-31750000D03*
%TD*%
D55*
%TO.P,F_USB,1*%
%TO.N,VBUS_IN*%
X27200000Y-34300000D03*
%TO.P,F_USB,2*%
%TO.N,VBUS_FUSED*%
X30000000Y-34300000D03*
%TD*%
D10*
%TO.P,R_KEY_MUTE_PU,1*%
%TO.N,+3V3*%
X16750000Y-10260000D03*
%TO.P,R_KEY_MUTE_PU,2*%
%TO.N,KEY_MUTE*%
X16750000Y-9240000D03*
%TD*%
D56*
%TO.P,L_CHG,1*%
%TO.N,CHG_SW*%
X28950000Y-22000000D03*
%TO.P,L_CHG,2*%
%TO.N,VBAT*%
X33050000Y-22000000D03*
%TD*%
D17*
%TO.P,R_EN,1*%
%TO.N,+3V3*%
X23740000Y-16750000D03*
%TO.P,R_EN,2*%
%TO.N,EN*%
X24760000Y-16750000D03*
%TD*%
D35*
%TO.P,C_VUSB,1*%
%TO.N,VUSB*%
X35475000Y-36250000D03*
%TO.P,C_VUSB,2*%
%TO.N,GND*%
X37025000Y-36250000D03*
%TD*%
D57*
%TO.P,U_EFUSE,1*%
%TO.N,EFUSE_DVDT*%
X31850000Y-33550000D03*
%TO.P,U_EFUSE,2*%
%TO.N,VBUS_FUSED*%
X31850000Y-34050000D03*
%TO.P,U_EFUSE,3*%
X31850000Y-34550000D03*
%TO.P,U_EFUSE,4*%
X31850000Y-35050000D03*
%TO.P,U_EFUSE,5*%
%TO.N,VUSB*%
X33750000Y-35050000D03*
%TO.P,U_EFUSE,6*%
%TO.N,unconnected-(U_EFUSE-FLT-Pad6)*%
X33750000Y-34550000D03*
%TO.P,U_EFUSE,7*%
%TO.N,EFUSE_ILM*%
X33750000Y-34050000D03*
%TO.P,U_EFUSE,8*%
%TO.N,GND*%
X33750000Y-33550000D03*
D58*
%TO.P,U_EFUSE,9*%
X32800000Y-33750000D03*
D59*
X32800000Y-34300000D03*
D58*
X32800000Y-34850000D03*
%TD*%
D30*
%TO.P,C_EFUSE_IN,1*%
%TO.N,VBUS_FUSED*%
X40020000Y-37750000D03*
%TO.P,C_EFUSE_IN,2*%
%TO.N,GND*%
X40980000Y-37750000D03*
%TD*%
D48*
%TO.P,C_CHG_VIN,1*%
%TO.N,VUSB*%
X27250000Y-28450000D03*
%TO.P,C_CHG_VIN,2*%
%TO.N,GND*%
X27250000Y-26550000D03*
%TD*%
D10*
%TO.P,R_SDA,1*%
%TO.N,I2C_SDA*%
X27000000Y-20010000D03*
%TO.P,R_SDA,2*%
%TO.N,+3V3*%
X27000000Y-18990000D03*
%TD*%
%TO.P,R_AMP_SD,1*%
%TO.N,VSYS*%
X39500000Y-33510000D03*
%TO.P,R_AMP_SD,2*%
%TO.N,AMP_SD*%
X39500000Y-32490000D03*
%TD*%
D28*
%TO.P,J_TOUCH,1*%
%TO.N,TOUCH_E0*%
X9600000Y-5775000D03*
%TO.P,J_TOUCH,2*%
%TO.N,GND*%
X8600000Y-5775000D03*
D29*
%TO.P,J_TOUCH,MP*%
%TO.N,N/C*%
X10900000Y-1900000D03*
X7300000Y-1900000D03*
%TD*%
D10*
%TO.P,R_NTC,1*%
%TO.N,+3V3*%
X51000000Y-42760000D03*
%TO.P,R_NTC,2*%
%TO.N,NTC_SENSE*%
X51000000Y-41740000D03*
%TD*%
D17*
%TO.P,R_LCD_MOSI,1*%
%TO.N,LCD_MOSI*%
X19990000Y-7750000D03*
%TO.P,R_LCD_MOSI,2*%
%TO.N,LCD_MOSI_S*%
X21010000Y-7750000D03*
%TD*%
D60*
%TO.N,+3V3*%
X23020000Y-16750000D03*
X37050000Y-25500000D03*
X16750000Y-10980000D03*
X2760000Y-29750000D03*
X22770000Y-21500000D03*
X20000000Y-11210000D03*
X33204900Y-10182500D03*
X29800000Y-18000000D03*
X36250000Y-17250000D03*
X25275800Y-20563600D03*
X22361600Y-7020700D03*
X27000000Y-18270000D03*
X39000000Y-5495000D03*
X18626800Y-43886800D03*
X26050900Y-20419000D03*
X23000000Y-25960000D03*
X31406800Y-15113200D03*
X29020000Y-14000000D03*
X41500000Y-4960000D03*
X7325000Y-31750000D03*
X26449100Y-22179000D03*
X51000000Y-43480000D03*
X4790000Y-31500000D03*
%TO.N,GND*%
X1490000Y-12250000D03*
X33710000Y-13250000D03*
X13536100Y-6278600D03*
X37500000Y-28050000D03*
X36250000Y-22500000D03*
X27250000Y-29575000D03*
X26450000Y-24500000D03*
X15000000Y-37555000D03*
X5250000Y-6000000D03*
X23343200Y-27886800D03*
X21593200Y-43863200D03*
X23678100Y-7022000D03*
X36950000Y-13750000D03*
X34000000Y-5495000D03*
X44950000Y-6500000D03*
X41593200Y-37136800D03*
X31000000Y-29000000D03*
X48700000Y-6250000D03*
X36730000Y-37750000D03*
X8290900Y-7011600D03*
X50750000Y-38540000D03*
X38950000Y-25500000D03*
X7386800Y-7156800D03*
X20510000Y-38270000D03*
X10675000Y-31750000D03*
X45405000Y-17460000D03*
X25680000Y-14500000D03*
X18850000Y-9300000D03*
X36600000Y-33000000D03*
X26896000Y-21381800D03*
X6480000Y-32260000D03*
X31760000Y-17020000D03*
X31700000Y-18000000D03*
X20000000Y-8790000D03*
X38000000Y-5495000D03*
X12460000Y-34500000D03*
X23230000Y-44750000D03*
X41175000Y-19750000D03*
X9363200Y-42406800D03*
X27250000Y-26550000D03*
X23250000Y-41000000D03*
X1490000Y-29750000D03*
X19000000Y-7000000D03*
X9480000Y-39250000D03*
X24500000Y-26800000D03*
X37925000Y-36250000D03*
X23000000Y-23540000D03*
X43960000Y-38000000D03*
X41500000Y-2540000D03*
X20000000Y-38825000D03*
X25680000Y-19000000D03*
X36980000Y-12000000D03*
X21291000Y-34767400D03*
X38232600Y-17041000D03*
X27000000Y-13290000D03*
X32730000Y-12000000D03*
X47859100Y-38988400D03*
X45405000Y-8960000D03*
%TO.N,SERVO_R_PWM*%
X36115600Y-11222500D03*
X36115600Y-14716400D03*
X22025600Y-26715000D03*
%TO.N,VSYS*%
X45405000Y-11500000D03*
D61*
X30990000Y-13008800D03*
D60*
X29090000Y-24988300D03*
X45405000Y-20000000D03*
D61*
X36064300Y-21550000D03*
X37962500Y-35200000D03*
D60*
X40520800Y-24187700D03*
X37825000Y-19750000D03*
D61*
X25585800Y-27790600D03*
D60*
X40270000Y-33510000D03*
D61*
X35050000Y-15143200D03*
X25900200Y-25852400D03*
D60*
%TO.N,KEY_PWR*%
X30168900Y-6269300D03*
X34528700Y-25033800D03*
%TO.N,KEY_MUTE*%
X10275900Y-10232100D03*
X4791500Y-24710800D03*
D61*
%TO.N,VUSB*%
X29717000Y-30592500D03*
X38966100Y-30750000D03*
X33541800Y-35810300D03*
D60*
%TO.N,I2C_SCL*%
X19245200Y-29596300D03*
X25317000Y-31759900D03*
X5371200Y-13474900D03*
X20955900Y-17513700D03*
%TO.N,I2C_SDA*%
X27862800Y-19147200D03*
X34383700Y-28465200D03*
X27542600Y-23588400D03*
X20473600Y-28737100D03*
D61*
%TO.N,VBAT*%
X20917600Y-31027300D03*
X21608700Y-33582400D03*
D60*
X9304100Y-41314100D03*
D61*
X28719500Y-27621600D03*
%TO.N,HEAT_LOW*%
X44732200Y-28250000D03*
X44501200Y-15698700D03*
D60*
%TO.N,HEAT_GATE_DRV*%
X15433100Y-30953800D03*
X27156000Y-9187200D03*
%TO.N,LCD_BL_PWM*%
X18024500Y-15285000D03*
X34793500Y-11227300D03*
%TO.N,BOOT*%
X22544800Y-18766700D03*
%TO.N,AMP_DIN*%
X34279600Y-32250000D03*
X15944900Y-11036600D03*
%TO.N,AMP_SD*%
X40597500Y-32633000D03*
X39765800Y-28146900D03*
X36201400Y-26547500D03*
X33727800Y-31731200D03*
%TO.N,AMP_LRCLK*%
X32900900Y-30728100D03*
X17058300Y-23652100D03*
%TO.N,AMP_BCLK*%
X10556800Y-13467300D03*
X35254900Y-31562500D03*
%TO.N,LCD_RST*%
X22760600Y-10492100D03*
X28140000Y-10492100D03*
X16693700Y-17825000D03*
X28051000Y-6992700D03*
%TO.N,LCD_CS*%
X25079300Y-7742800D03*
X17257200Y-14388200D03*
%TO.N,LCD_DC*%
X25837100Y-7010000D03*
X17972300Y-16159700D03*
%TO.N,LCD_CLK_S*%
X28001800Y-11750000D03*
X29604400Y-5770500D03*
%TO.N,LCD_BL*%
X22169600Y-8394500D03*
X20889900Y-4733700D03*
%TO.N,CC_SENSE*%
X7522100Y-30975000D03*
X23505300Y-37693700D03*
X20020000Y-42443600D03*
%TO.N,VBUS_IN*%
X28743500Y-35652200D03*
X29577800Y-35764400D03*
%TO.N,USB_DN*%
X16347100Y-37017300D03*
X16347100Y-28533300D03*
X18820200Y-37017300D03*
X27861100Y-38678100D03*
%TO.N,CC2*%
X26993000Y-40698700D03*
X25297000Y-35529700D03*
%TO.N,EN*%
X3627300Y-31228100D03*
X23585000Y-15754300D03*
%TO.N,MIC_SD*%
X8040700Y-11047600D03*
X15519100Y-3302700D03*
%TO.N,MIC_SCK*%
X6668900Y-11032100D03*
X18602800Y-3478500D03*
%TO.N,NTC_SENSE*%
X28559300Y-42215800D03*
X18401100Y-41303800D03*
%TO.N,SERVO_L_PWM*%
X16038700Y-16709700D03*
X37951200Y-15177700D03*
%TO.N,LCD_MOSI*%
X15464400Y-19095000D03*
X17489600Y-7812100D03*
%TO.N,LCD_CLK*%
X18035400Y-13809800D03*
X19585700Y-12445500D03*
%TO.N,VBUS_FUSED*%
X31090400Y-35138800D03*
X39274300Y-38046000D03*
%TD*%
%TO.N,+3V3*%
D62*
X32020000Y-14500000D02*
X31406800Y-15113200D01*
X26250000Y-22880000D02*
X26250000Y-22278300D01*
X23000000Y-25230000D02*
X23000000Y-25960000D01*
D63*
X38520500Y-22749200D02*
X39680000Y-22749200D01*
D62*
X39909500Y-22519700D02*
X41009700Y-22519700D01*
X23490000Y-21500000D02*
X23490000Y-21532800D01*
X41009700Y-22519700D02*
X41500000Y-23010000D01*
X16750000Y-10260000D02*
X16750000Y-10980000D01*
X38520500Y-24029500D02*
X38520500Y-22749200D01*
X51000000Y-42760000D02*
X51000000Y-43480000D01*
X22500000Y-5775000D02*
X22361600Y-7020700D01*
X29740000Y-14000000D02*
X29020000Y-14000000D01*
X24251700Y-22403300D02*
X24510000Y-22661600D01*
X19240000Y-44500000D02*
X18626800Y-43886800D01*
X23740000Y-16750000D02*
X23020000Y-16750000D01*
X24510000Y-22661600D02*
X24510000Y-22750000D01*
X23490000Y-21532800D02*
X23917700Y-21960500D01*
D63*
X23917700Y-22069300D02*
X24251700Y-22403300D01*
D64*
X26250000Y-21120000D02*
X26050900Y-20419000D01*
D62*
X27000000Y-18990000D02*
X27000000Y-18270000D01*
X26750000Y-22880000D02*
X26750000Y-22278300D01*
X5520000Y-31500000D02*
X4790000Y-31500000D01*
X26250000Y-22278300D02*
X26750000Y-22278300D01*
X32450000Y-10187500D02*
X33204900Y-10182500D01*
D63*
X23917700Y-21960500D02*
X23917700Y-22069300D01*
D64*
X26250000Y-22880000D02*
X26449100Y-22179000D01*
X25750000Y-21120000D02*
X25275800Y-20563600D01*
D62*
X20000000Y-10480000D02*
X20000000Y-11210000D01*
X8225000Y-31750000D02*
X7325000Y-31750000D01*
X41500000Y-4230000D02*
X41500000Y-4960000D01*
X37050000Y-25500000D02*
X38520500Y-24029500D01*
X23490000Y-21500000D02*
X22770000Y-21500000D01*
D63*
X39680000Y-22749200D02*
X39909500Y-22519700D01*
%TO.N,BUCK_FB*%
D65*
X30740000Y-14721500D02*
X30740000Y-16250000D01*
X32390300Y-13910300D02*
X31715200Y-13910300D01*
X33289500Y-14500000D02*
X32980000Y-14500000D01*
X31715200Y-13910300D02*
X31489300Y-14136200D01*
X41500000Y-21990000D02*
X40077500Y-21990000D01*
X37121000Y-20946200D02*
X34248800Y-18074000D01*
X32980000Y-14500000D02*
X32390300Y-13910300D01*
X39033700Y-20946200D02*
X37121000Y-20946200D01*
X30784800Y-14676700D02*
X30740000Y-14721500D01*
X34248800Y-18074000D02*
X34248800Y-15459300D01*
X40077500Y-21990000D02*
X39637500Y-21550000D01*
X39637500Y-21550000D02*
X39033700Y-20946200D01*
D66*
X30948800Y-14676700D02*
X30784800Y-14676700D01*
X31489300Y-14136200D02*
X30948800Y-14676700D01*
D65*
X34248800Y-15459300D02*
X33289500Y-14500000D01*
%TO.N,BAT_NTC_SENSE*%
X9110000Y-29750000D02*
X9110000Y-30751700D01*
X19443000Y-43683000D02*
X20260000Y-44500000D01*
X18199600Y-40320200D02*
X19443000Y-41563600D01*
X19443000Y-41563600D02*
X19761400Y-41563600D01*
X19443000Y-41563600D02*
X19443000Y-43683000D01*
X12636400Y-40320200D02*
X18199600Y-40320200D01*
X10770000Y-34500000D02*
X10770000Y-38453800D01*
X10770000Y-34500000D02*
X9055000Y-32785000D01*
X10770000Y-38453800D02*
X12636400Y-40320200D01*
X19761400Y-41563600D02*
X20000000Y-41325000D01*
X9055000Y-32785000D02*
X9055000Y-30806700D01*
X9055000Y-30806700D02*
X9110000Y-30751700D01*
%TO.N,GND*%
D62*
X36260000Y-12000000D02*
X36980000Y-12000000D01*
X36782500Y-32817500D02*
X36850000Y-32750000D01*
X22510000Y-44750000D02*
X23230000Y-44750000D01*
X32800000Y-33750000D02*
X32975400Y-33574600D01*
X8760000Y-39250000D02*
X9480000Y-39250000D01*
X36600000Y-33000000D02*
X36782500Y-32817500D01*
X27000000Y-14020000D02*
X27000000Y-13290000D01*
D64*
X27380000Y-22250000D02*
X26896000Y-21381800D01*
D67*
X36350000Y-31562500D02*
X36350000Y-32385000D01*
D62*
X8000000Y-7770000D02*
X7386800Y-7156800D01*
X36010000Y-37750000D02*
X36730000Y-37750000D01*
X22990000Y-42650000D02*
X23896700Y-43556700D01*
X23896700Y-43556700D02*
X24480000Y-43556700D01*
X32800000Y-33750000D02*
X32800000Y-34300000D01*
X41500000Y-3270000D02*
X41500000Y-2540000D01*
X33120000Y-36823300D02*
X32536700Y-36823300D01*
X18850000Y-8500000D02*
X18850000Y-9300000D01*
X20510000Y-37500000D02*
X20510000Y-38270000D01*
X18350000Y-7000000D02*
X19000000Y-7000000D01*
X33120000Y-38225000D02*
X33120000Y-36823300D01*
X43230000Y-38000000D02*
X43960000Y-38000000D01*
X36350000Y-33250000D02*
X35985000Y-33250000D01*
X24480000Y-42405000D02*
X24480000Y-43556700D01*
X22600000Y-41000000D02*
X23250000Y-41000000D01*
X36600000Y-33000000D02*
X36350000Y-33250000D01*
X8600000Y-5775000D02*
X8290900Y-7011600D01*
X50750000Y-39270000D02*
X50750000Y-38540000D01*
D68*
X33725400Y-33574600D02*
X33750000Y-33550000D01*
D62*
X24480000Y-38225000D02*
X24480000Y-36823300D01*
X22730000Y-28500000D02*
X23343200Y-27886800D01*
D67*
X38037500Y-32750000D02*
X37215000Y-32750000D01*
D62*
X22750000Y-38740000D02*
X23965000Y-38740000D01*
X9775000Y-31750000D02*
X10675000Y-31750000D01*
X39062500Y-16200000D02*
X38232600Y-17041000D01*
X32980000Y-13250000D02*
X33710000Y-13250000D01*
X14200000Y-5150000D02*
X13536100Y-6278600D01*
X11730000Y-34500000D02*
X12460000Y-34500000D01*
X20000000Y-39675000D02*
X20000000Y-38825000D01*
X31760000Y-16250000D02*
X31760000Y-17020000D01*
X32010000Y-12000000D02*
X32730000Y-12000000D01*
D67*
X35162500Y-33250000D02*
X35985000Y-33250000D01*
D62*
X20980000Y-43250000D02*
X21593200Y-43863200D01*
X37362500Y-22500000D02*
X36250000Y-22500000D01*
X37025000Y-36250000D02*
X37925000Y-36250000D01*
X20450000Y-33937500D02*
X21291000Y-34767400D01*
X22500000Y-42650000D02*
X22990000Y-42650000D01*
X8510000Y-22500000D02*
X9210000Y-22500000D01*
X8750000Y-43020000D02*
X9363200Y-42406800D01*
X40275000Y-19750000D02*
X41175000Y-19750000D01*
X23965000Y-38740000D02*
X24480000Y-38225000D01*
X36850000Y-32750000D02*
X37215000Y-32750000D01*
X32975400Y-33574600D02*
X33133100Y-33574600D01*
X24480000Y-36823300D02*
X25063300Y-36823300D01*
D68*
X33133100Y-33574600D02*
X33725400Y-33574600D01*
D62*
X6480000Y-31500000D02*
X6480000Y-32260000D01*
X23500000Y-5775000D02*
X23678100Y-7022000D01*
X40980000Y-37750000D02*
X41593200Y-37136800D01*
X32536700Y-36823300D02*
X32050000Y-37310000D01*
X26750000Y-21120000D02*
X27250000Y-21120000D01*
X23000000Y-24270000D02*
X23000000Y-23540000D01*
X47550000Y-40225000D02*
X47859100Y-38988400D01*
X27250000Y-30475000D02*
X27250000Y-29575000D01*
X5250000Y-6650000D02*
X5250000Y-6000000D01*
X20000000Y-9520000D02*
X20000000Y-8790000D01*
X36782500Y-32817500D02*
X36350000Y-32385000D01*
X25063300Y-36823300D02*
X25550000Y-37310000D01*
%TO.N,SERVO_R_PWM*%
D65*
X35240000Y-12000000D02*
X36017500Y-11222500D01*
X40052300Y-17187300D02*
X40052300Y-15883300D01*
X40052300Y-15883300D02*
X39816700Y-15647700D01*
X43553300Y-22540000D02*
X43553300Y-20688300D01*
X38308400Y-15647700D02*
X38156300Y-15799800D01*
X36472500Y-14716400D02*
X36115600Y-14716400D01*
X36017500Y-11222500D02*
X36115600Y-11222500D01*
X37555900Y-15799800D02*
X36472500Y-14716400D01*
X43553300Y-20688300D02*
X40052300Y-17187300D01*
X45405000Y-22540000D02*
X43553300Y-22540000D01*
X19250000Y-26715000D02*
X22025600Y-26715000D01*
X38156300Y-15799800D02*
X37555900Y-15799800D01*
X39816700Y-15647700D02*
X38308400Y-15647700D01*
%TO.N,VSYS*%
D62*
X39500000Y-33510000D02*
X40270000Y-33510000D01*
D69*
X45405000Y-11500000D02*
X47600000Y-9900000D01*
X43744300Y-7726200D02*
X43050000Y-7031900D01*
X42449300Y-37274300D02*
X42449300Y-37412400D01*
D70*
X46927900Y-7726200D02*
X43744300Y-7726200D01*
D69*
X42581800Y-37141800D02*
X42449300Y-37274300D01*
X43050000Y-7031900D02*
X43050000Y-6500000D01*
D71*
X42449300Y-37412400D02*
X42270000Y-37591700D01*
D62*
X38725000Y-19750000D02*
X37825000Y-19750000D01*
D69*
X46927900Y-6377900D02*
X46927900Y-7726200D01*
D71*
X42270000Y-37591700D02*
X42270000Y-38000000D01*
D69*
X40270000Y-33510000D02*
X41045500Y-34285500D01*
X24550000Y-24500000D02*
X25900200Y-25850200D01*
X41045500Y-34285500D02*
X42393400Y-34285500D01*
X37350000Y-34587500D02*
X37350000Y-34437500D01*
D71*
X42393400Y-34285500D02*
X42393400Y-36953400D01*
D69*
X36064300Y-21550000D02*
X37362500Y-21550000D01*
X29090000Y-26090000D02*
X29090000Y-24988300D01*
X25900200Y-25850200D02*
X25900200Y-25852400D01*
X24500000Y-29275000D02*
X24500000Y-28700000D01*
X37350000Y-34437500D02*
X36977100Y-34437500D01*
X27250000Y-32025000D02*
X24500000Y-29275000D01*
D68*
X36977100Y-34437500D02*
X36850000Y-34437500D01*
D69*
X47600000Y-7900000D02*
X46927900Y-6377900D01*
X47600000Y-9900000D02*
X47600000Y-7900000D01*
X35050000Y-15143200D02*
X35050000Y-13750000D01*
X24500000Y-28700000D02*
X24676400Y-28700000D01*
X37962500Y-35200000D02*
X37350000Y-34587500D01*
X30990000Y-13008800D02*
X31231200Y-13250000D01*
X46800000Y-6250000D02*
X46927900Y-6377900D01*
X24676400Y-28700000D02*
X25585800Y-27790600D01*
D62*
X39637500Y-23450000D02*
X40520800Y-24187700D01*
D71*
X42393400Y-36953400D02*
X42581800Y-37141800D01*
D69*
X31231200Y-13250000D02*
X32020000Y-13250000D01*
%TO.N,KEY_PWR*%
D65*
X16200000Y-5150000D02*
X18208800Y-5150000D01*
X30168800Y-6269300D02*
X30168900Y-6269300D01*
X32910000Y-25238300D02*
X33114500Y-25033800D01*
X30168800Y-5500100D02*
X30168800Y-6269300D01*
X32910000Y-26090000D02*
X32910000Y-25238300D01*
X21465500Y-4181900D02*
X21641400Y-4357800D01*
X18208800Y-5150000D02*
X19176900Y-4181900D01*
X16200000Y-5150000D02*
X16200000Y-6251700D01*
X33114500Y-25033800D02*
X34528700Y-25033800D01*
X19176900Y-4181900D02*
X21465500Y-4181900D01*
X16901700Y-6251700D02*
X16200000Y-6251700D01*
X29026500Y-4357800D02*
X30168800Y-5500100D01*
X21641400Y-4357800D02*
X29026500Y-4357800D01*
X17650000Y-7000000D02*
X16901700Y-6251700D01*
%TO.N,KEY_MUTE*%
X14190000Y-29750000D02*
X14190000Y-28748300D01*
X16750000Y-9240000D02*
X17410000Y-9240000D01*
X10152500Y-24710800D02*
X4791500Y-24710800D01*
X17410000Y-9240000D02*
X18150000Y-8500000D01*
X10275900Y-10232100D02*
X15757900Y-10232100D01*
X14190000Y-28748300D02*
X10152500Y-24710800D01*
X15757900Y-10232100D02*
X16750000Y-9240000D01*
X15200000Y-5150000D02*
X15200000Y-7690000D01*
X15200000Y-7690000D02*
X16750000Y-9240000D01*
%TO.N,VUSB*%
D69*
X29090000Y-30592500D02*
X29090000Y-30808300D01*
X35475000Y-36250000D02*
X34950000Y-36250000D01*
X33541800Y-35810300D02*
X33750200Y-35601900D01*
X42350000Y-30750000D02*
X38966100Y-30750000D01*
X34950000Y-36250000D02*
X34049300Y-35349300D01*
D68*
X33750200Y-35050200D02*
X33750000Y-35050000D01*
X33750200Y-35601900D02*
X33750200Y-35349300D01*
D69*
X29090000Y-30592500D02*
X29717000Y-30592500D01*
X27250000Y-28450000D02*
X27370700Y-28450000D01*
X27370700Y-28450000D02*
X29090000Y-30169300D01*
X29090000Y-31910000D02*
X29090000Y-30808300D01*
X29090000Y-30169300D02*
X29090000Y-30592500D01*
D68*
X33750200Y-35349300D02*
X33750200Y-35050200D01*
X34049300Y-35349300D02*
X33750200Y-35349300D01*
%TO.N,I2C_SCL*%
D65*
X25075400Y-22451400D02*
X25075400Y-21170600D01*
X25075400Y-21170600D02*
X23262700Y-19357900D01*
X24789900Y-23335600D02*
X24836000Y-23381700D01*
X23801500Y-23061500D02*
X23801500Y-23320700D01*
X25504000Y-22880000D02*
X25075400Y-22451400D01*
D66*
X24775000Y-23320700D02*
X24789900Y-23335600D01*
D65*
X30370000Y-31910000D02*
X30370000Y-32761700D01*
X23739400Y-26057200D02*
X23739400Y-23382800D01*
D66*
X23862800Y-23320700D02*
X24775000Y-23320700D01*
D65*
X21237800Y-28790800D02*
X21237800Y-28116000D01*
X25750000Y-22880000D02*
X25750000Y-23381700D01*
X26368800Y-32811700D02*
X30320000Y-32811700D01*
X23739400Y-23382800D02*
X23801500Y-23320700D01*
X22131900Y-17513700D02*
X20955900Y-17513700D01*
X21237800Y-28116000D02*
X21666800Y-27687000D01*
X19245200Y-29596300D02*
X19552700Y-29288800D01*
X20739800Y-29288800D02*
X21237800Y-28790800D01*
X25750000Y-22880000D02*
X25504000Y-22880000D01*
X30320000Y-32811700D02*
X30370000Y-32761700D01*
X23262700Y-19357900D02*
X23262700Y-18644500D01*
X23490000Y-22750000D02*
X23801500Y-23061500D01*
X21666800Y-27687000D02*
X22109600Y-27687000D01*
X23862800Y-23320700D02*
X23801500Y-23320700D01*
X25317000Y-31759900D02*
X26368800Y-32811700D01*
X19552700Y-29288800D02*
X20739800Y-29288800D01*
X22109600Y-27687000D02*
X23739400Y-26057200D01*
X24836000Y-23381700D02*
X25750000Y-23381700D01*
X5300000Y-13403700D02*
X5371200Y-13474900D01*
X5300000Y-12250000D02*
X5300000Y-13403700D01*
X23262700Y-18644500D02*
X22131900Y-17513700D01*
%TO.N,I2C_SDA*%
X27250000Y-23381700D02*
X27335900Y-23381700D01*
X31640000Y-31910000D02*
X31640000Y-31058300D01*
X6570000Y-14586700D02*
X16163400Y-24180100D01*
X27250000Y-22880000D02*
X27250000Y-23381700D01*
X16163400Y-24180100D02*
X16163400Y-26455900D01*
X27335900Y-23381700D02*
X27542600Y-23588400D01*
X6570000Y-12250000D02*
X6570000Y-14586700D01*
X31640000Y-31058300D02*
X31790600Y-31058300D01*
X27000000Y-20010000D02*
X27862800Y-19147200D01*
X31790600Y-31058300D02*
X34383700Y-28465200D01*
X18444600Y-28737100D02*
X20473600Y-28737100D01*
X16163400Y-26455900D02*
X18444600Y-28737100D01*
%TO.N,VBAT*%
D69*
X37500000Y-29950000D02*
X34741700Y-27191700D01*
X31640000Y-27191700D02*
X29149400Y-27191700D01*
X21740000Y-35780500D02*
X22562500Y-34958000D01*
X29149400Y-27191700D02*
X28719500Y-27621600D01*
X22000000Y-31010000D02*
X21982700Y-31027300D01*
X33050000Y-22000000D02*
X31648300Y-22000000D01*
X9127700Y-41490500D02*
X9127700Y-41510700D01*
X21694900Y-33582400D02*
X21608700Y-33582400D01*
X31640000Y-26090000D02*
X31640000Y-27191700D01*
X21982700Y-31027300D02*
X20917600Y-31027300D01*
X22562500Y-34450000D02*
X21694900Y-33582400D01*
D72*
X8749300Y-41510700D02*
X8500000Y-41760000D01*
D69*
X31640000Y-22008300D02*
X31648300Y-22000000D01*
X21740000Y-36250000D02*
X21740000Y-35780500D01*
X9304100Y-41314100D02*
X9127700Y-41490500D01*
X31640000Y-26090000D02*
X31640000Y-22008300D01*
X22562500Y-34958000D02*
X22562500Y-34450000D01*
D72*
X9127700Y-41510700D02*
X8749300Y-41510700D01*
D69*
X34741700Y-27191700D02*
X31640000Y-27191700D01*
%TO.N,CHG_SW*%
X30351700Y-22000000D02*
X30351700Y-24970000D01*
X30351700Y-24970000D02*
X30370000Y-24988300D01*
X30370000Y-26090000D02*
X30370000Y-24988300D01*
X28950000Y-22000000D02*
X30351700Y-22000000D01*
%TO.N,BATN_GATE*%
D65*
X20260000Y-36000000D02*
X19490000Y-36770000D01*
X19490000Y-36770000D02*
X19490000Y-37500000D01*
X18550000Y-34290000D02*
X20260000Y-36000000D01*
X18550000Y-33937500D02*
X18550000Y-34290000D01*
%TO.N,TOUCH_E0*%
X788300Y-11353100D02*
X3411400Y-8730000D01*
X15460000Y-29750000D02*
X15460000Y-28748300D01*
X15460000Y-24446300D02*
X10042000Y-19028300D01*
X9600000Y-5775000D02*
X9600000Y-7130000D01*
X5250000Y-8730000D02*
X5250000Y-7350000D01*
X788300Y-13130200D02*
X788300Y-11353100D01*
X10042000Y-19028300D02*
X6686400Y-19028300D01*
X15460000Y-28748300D02*
X15460000Y-24446300D01*
X6686400Y-19028300D02*
X788300Y-13130200D01*
X9600000Y-7130000D02*
X8000000Y-8730000D01*
X8000000Y-8730000D02*
X5250000Y-8730000D01*
X3411400Y-8730000D02*
X5250000Y-8730000D01*
%TO.N,HEAT_GATE*%
X39062500Y-12605000D02*
X31595000Y-12605000D01*
X39062500Y-14300000D02*
X39062500Y-12605000D01*
X39062500Y-12605000D02*
X39062500Y-10697500D01*
X31595000Y-12605000D02*
X30990000Y-12000000D01*
X39062500Y-10697500D02*
X41510000Y-8250000D01*
%TO.N,HEAT_LOW*%
D69*
X40937500Y-15250000D02*
X41386200Y-15698700D01*
X42350000Y-28250000D02*
X44601700Y-28250000D01*
X41386200Y-15698700D02*
X44501200Y-15698700D01*
X44601700Y-28250000D02*
X44732200Y-28250000D01*
%TO.N,VBAT_PACK*%
X18323900Y-36000000D02*
X19240000Y-36000000D01*
X19734800Y-30398000D02*
X20142800Y-29990000D01*
X17624100Y-32218400D02*
X19444500Y-30398000D01*
X14334200Y-35300200D02*
X13000000Y-36634400D01*
X14442500Y-35300200D02*
X14334200Y-35300200D01*
X24437500Y-32554000D02*
X24437500Y-33500000D01*
X22260900Y-29990000D02*
X22837700Y-30566800D01*
X22000000Y-29990000D02*
X22260900Y-29990000D01*
X13000000Y-36634400D02*
X13000000Y-37555000D01*
X17624100Y-35300200D02*
X17624100Y-32218400D01*
D72*
X17624100Y-35300200D02*
X14442500Y-35300200D01*
D69*
X22837700Y-30954200D02*
X24437500Y-32554000D01*
X20142800Y-29990000D02*
X22000000Y-29990000D01*
X22837700Y-30566800D02*
X22837700Y-30954200D01*
X19444500Y-30398000D02*
X19734800Y-30398000D01*
X17624100Y-35300200D02*
X18323900Y-36000000D01*
%TO.N,HEAT_GATE_DRV*%
D65*
X31822000Y-9304200D02*
X31104300Y-9304200D01*
X12920000Y-30751700D02*
X15231000Y-30751700D01*
X15231000Y-30751700D02*
X15433100Y-30953800D01*
X31104300Y-9304200D02*
X30987300Y-9187200D01*
X30987300Y-9187200D02*
X27156000Y-9187200D01*
X40490000Y-8250000D02*
X32876200Y-8250000D01*
X12920000Y-29750000D02*
X12920000Y-30751700D01*
X32876200Y-8250000D02*
X31822000Y-9304200D01*
%TO.N,LCD_BL_PWM*%
X34010800Y-12010000D02*
X34793500Y-11227300D01*
X19250000Y-15285000D02*
X18248300Y-15285000D01*
X34000000Y-12010000D02*
X34010800Y-12010000D01*
X18248300Y-15285000D02*
X18024500Y-15285000D01*
%TO.N,LCD_BL_GATE*%
D66*
X31538300Y-11175800D02*
X30687100Y-10324500D01*
X30687100Y-10324500D02*
X30550000Y-10187500D01*
D65*
X29582300Y-11429300D02*
X29582300Y-12822300D01*
D66*
X29582300Y-11429300D02*
X30687100Y-10324500D01*
D65*
X29582300Y-12822300D02*
X30760000Y-14000000D01*
D66*
X34000000Y-11175800D02*
X31538300Y-11175800D01*
D65*
X34000000Y-10990000D02*
X34000000Y-11175800D01*
%TO.N,BOOT*%
X18000000Y-13251700D02*
X20091400Y-13251700D01*
X22186700Y-19176700D02*
X24510000Y-21500000D01*
X22420000Y-18766700D02*
X22544800Y-18766700D01*
X21320000Y-19000000D02*
X22186700Y-19000000D01*
X18000000Y-12250000D02*
X18000000Y-13251700D01*
X21320000Y-19000000D02*
X20453300Y-19000000D01*
X22186700Y-19000000D02*
X22186700Y-19176700D01*
X22186700Y-19000000D02*
X22420000Y-18766700D01*
X20404200Y-13564500D02*
X20404200Y-18950900D01*
X20091400Y-13251700D02*
X20404200Y-13564500D01*
X20404200Y-18950900D02*
X20453300Y-19000000D01*
%TO.N,AMP_DIN*%
X11650000Y-11248300D02*
X15733200Y-11248300D01*
X15733200Y-11248300D02*
X15944900Y-11036600D01*
X35162500Y-32250000D02*
X34279600Y-32250000D01*
X11650000Y-12250000D02*
X11650000Y-11248300D01*
%TO.N,AMP_SD*%
X40597500Y-32633000D02*
X39643000Y-32633000D01*
X34760000Y-33750000D02*
X33727800Y-32717800D01*
X38166400Y-26547500D02*
X39765800Y-28146900D01*
X36201400Y-26547500D02*
X38166400Y-26547500D01*
X35162500Y-33750000D02*
X34760000Y-33750000D01*
X39643000Y-32633000D02*
X39500000Y-32490000D01*
X33727800Y-32717800D02*
X33727800Y-31731200D01*
%TO.N,SPK_P*%
D63*
X38074800Y-33787300D02*
X38037500Y-33750000D01*
X38575000Y-37894500D02*
X38714200Y-37755300D01*
X38714200Y-34406000D02*
X38575000Y-34266800D01*
X38714200Y-37755300D02*
X38714200Y-34406000D01*
X38575000Y-40005000D02*
X38575000Y-37894500D01*
D68*
X38575000Y-34266800D02*
X38095500Y-33787300D01*
X38095500Y-33787300D02*
X38074800Y-33787300D01*
%TO.N,SPK_N*%
D63*
X38814800Y-32222400D02*
X38814800Y-32741000D01*
X44572500Y-35458800D02*
X41015800Y-31902100D01*
X39825000Y-40005000D02*
X42818900Y-40005000D01*
X41015800Y-31902100D02*
X39135100Y-31902100D01*
X38789300Y-33103000D02*
X38716900Y-33175400D01*
X42818900Y-40005000D02*
X44572500Y-38251400D01*
X38789300Y-32924100D02*
X38789300Y-33103000D01*
D68*
X38814800Y-32898600D02*
X38789300Y-32924100D01*
X38112100Y-33175400D02*
X38037500Y-33250000D01*
D63*
X44572500Y-38251400D02*
X44572500Y-35458800D01*
D68*
X38814800Y-32741000D02*
X38814800Y-32898600D01*
X38716900Y-33175400D02*
X38112100Y-33175400D01*
D63*
X39135100Y-31902100D02*
X38814800Y-32222400D01*
%TO.N,AMP_LRCLK*%
D65*
X36398200Y-30728100D02*
X36850000Y-31179900D01*
X32900900Y-30728100D02*
X36398200Y-30728100D01*
X9110000Y-15703800D02*
X9110000Y-12250000D01*
X17058300Y-23652100D02*
X9110000Y-15703800D01*
X36850000Y-31179900D02*
X36850000Y-31562500D01*
%TO.N,AMP_BCLK*%
X10556800Y-13428500D02*
X10380000Y-13251700D01*
X35850000Y-31562500D02*
X35254900Y-31562500D01*
X10380000Y-12250000D02*
X10380000Y-13251700D01*
X10556800Y-13467300D02*
X10556800Y-13428500D01*
%TO.N,LCD_RST*%
X28500000Y-5775000D02*
X28500000Y-6543700D01*
X28500000Y-6543700D02*
X28051000Y-6992700D01*
X19250000Y-17825000D02*
X16693700Y-17825000D01*
X22760600Y-10492100D02*
X28140000Y-10492100D01*
%TO.N,LCD_CS*%
X27500000Y-6127300D02*
X27500000Y-5775000D01*
X18876800Y-14388200D02*
X17257200Y-14388200D01*
X25884500Y-7742800D02*
X27500000Y-6127300D01*
X25079300Y-7742800D02*
X25884500Y-7742800D01*
X19250000Y-14015000D02*
X18876800Y-14388200D01*
%TO.N,LCD_DC*%
X19250000Y-16555000D02*
X18248300Y-16555000D01*
X18248300Y-16435700D02*
X17972300Y-16159700D01*
X26500000Y-6347100D02*
X25837100Y-7010000D01*
X26500000Y-5775000D02*
X26500000Y-6347100D01*
X18248300Y-16555000D02*
X18248300Y-16435700D01*
%TO.N,LCD_MOSI_S*%
X23908400Y-7750000D02*
X25500000Y-6158400D01*
X21010000Y-7750000D02*
X23908400Y-7750000D01*
X25500000Y-6158400D02*
X25500000Y-5775000D01*
%TO.N,LCD_CLK_S*%
X28779900Y-4709500D02*
X29604400Y-5534000D01*
X24500000Y-5373600D02*
X25164100Y-4709500D01*
X24500000Y-5775000D02*
X24500000Y-5373600D01*
X29604400Y-5534000D02*
X29604400Y-5770500D01*
X28001800Y-11750000D02*
X24010000Y-11750000D01*
X25164100Y-4709500D02*
X28779900Y-4709500D01*
%TO.N,LCD_BL*%
D62*
X21500000Y-5775000D02*
X21500000Y-5343800D01*
X31418000Y-8394500D02*
X31500000Y-8312500D01*
X22169600Y-8394500D02*
X31418000Y-8394500D01*
X21500000Y-5343800D02*
X20889900Y-4733700D01*
%TO.N,CC1*%
D65*
X27309400Y-38449700D02*
X27309400Y-38528600D01*
X27309400Y-38528600D02*
X26078000Y-39760000D01*
X26078000Y-39760000D02*
X22750000Y-39760000D01*
X27550000Y-38209100D02*
X27309400Y-38449700D01*
X22750000Y-39760000D02*
X21500000Y-39760000D01*
X27550000Y-37310000D02*
X27550000Y-38209100D01*
%TO.N,CC_SENSE*%
X20020000Y-42443600D02*
X20020000Y-43250000D01*
X23421600Y-37610000D02*
X23505300Y-37693700D01*
X7840000Y-29750000D02*
X7840000Y-30751700D01*
X21500000Y-38740000D02*
X22630000Y-37610000D01*
X22630000Y-37610000D02*
X22760000Y-37610000D01*
X7745400Y-30751700D02*
X7522100Y-30975000D01*
X22760000Y-37610000D02*
X22760000Y-37500000D01*
X22760000Y-37610000D02*
X23421600Y-37610000D01*
X7840000Y-30751700D02*
X7745400Y-30751700D01*
%TO.N,VBUS_IN*%
D62*
X27200000Y-34300000D02*
X27200000Y-35652200D01*
X27200000Y-35652200D02*
X28743500Y-35652200D01*
X26350000Y-37310000D02*
X26350000Y-36502200D01*
X31250000Y-36594700D02*
X30419700Y-35764400D01*
X26350000Y-36502200D02*
X27200000Y-35652200D01*
X30419700Y-35764400D02*
X29577800Y-35764400D01*
X31250000Y-37310000D02*
X31250000Y-36594700D01*
%TO.N,USB_DP*%
D65*
X25696000Y-42986800D02*
X25696000Y-41215600D01*
X12518600Y-39616800D02*
X12174600Y-39272800D01*
X18000000Y-29750000D02*
X18000000Y-30751700D01*
X12174600Y-39272800D02*
X12174600Y-35838100D01*
X24659000Y-44023800D02*
X25696000Y-42986800D01*
X29550000Y-37310000D02*
X29550000Y-38074200D01*
X21007100Y-42135700D02*
X21007100Y-41197300D01*
X28550000Y-38178600D02*
X28550000Y-37310000D01*
X28679000Y-38307600D02*
X28550000Y-38178600D01*
X29316600Y-38307600D02*
X28679000Y-38307600D01*
X23173800Y-44023800D02*
X24659000Y-44023800D01*
X28679000Y-38640400D02*
X28679000Y-38307600D01*
X22221400Y-43350000D02*
X21007100Y-42135700D01*
X28089600Y-39229800D02*
X28679000Y-38640400D01*
X29550000Y-38074200D02*
X29316600Y-38307600D01*
X18803900Y-39616800D02*
X12518600Y-39616800D01*
X17261000Y-30751700D02*
X18000000Y-30751700D01*
X21007100Y-41197300D02*
X20384600Y-40574800D01*
X12174600Y-35838100D02*
X17261000Y-30751700D01*
X20384600Y-40574800D02*
X19761900Y-40574800D01*
X25696000Y-41215600D02*
X27681800Y-39229800D01*
X22500000Y-43350000D02*
X22221400Y-43350000D01*
X27681800Y-39229800D02*
X28089600Y-39229800D01*
X19761900Y-40574800D02*
X18803900Y-39616800D01*
X22500000Y-43350000D02*
X23173800Y-44023800D01*
%TO.N,USB_DN*%
X21900000Y-40762600D02*
X21900000Y-41000000D01*
X27861100Y-38678100D02*
X27736200Y-38678100D01*
X26105400Y-40308900D02*
X22353700Y-40308900D01*
X28050000Y-37310000D02*
X28050000Y-38489200D01*
D66*
X28950500Y-36504400D02*
X28950500Y-36679600D01*
D65*
X16730000Y-28748300D02*
X16562100Y-28748300D01*
D66*
X28950500Y-36679600D02*
X29050000Y-36779100D01*
D65*
X28050000Y-37310000D02*
X28050000Y-36601400D01*
X27736200Y-38678100D02*
X26105400Y-40308900D01*
X28050000Y-38489200D02*
X27861100Y-38678100D01*
X18820200Y-37017300D02*
X16347100Y-37017300D01*
X28322000Y-36329400D02*
X28775500Y-36329400D01*
X29050000Y-36779100D02*
X29050000Y-37310000D01*
X16730000Y-29750000D02*
X16730000Y-28748300D01*
X22353700Y-40308900D02*
X21900000Y-40762600D01*
X28775500Y-36329400D02*
X28950500Y-36504400D01*
X16562100Y-28748300D02*
X16347100Y-28533300D01*
X28050000Y-36601400D02*
X28322000Y-36329400D01*
%TO.N,CC2*%
X22095200Y-45355200D02*
X24528700Y-45355200D01*
X30550000Y-37310000D02*
X30550000Y-38175200D01*
X28026500Y-40698700D02*
X26993000Y-40698700D01*
X30550000Y-38175200D02*
X28026500Y-40698700D01*
X28339100Y-41544800D02*
X28339100Y-41011300D01*
X22332300Y-36907700D02*
X21740000Y-37500000D01*
X24892600Y-35529700D02*
X23514600Y-36907700D01*
X28339100Y-41011300D02*
X28026500Y-40698700D01*
X24528700Y-45355200D02*
X28339100Y-41544800D01*
X23514600Y-36907700D02*
X22332300Y-36907700D01*
X25297000Y-35529700D02*
X24892600Y-35529700D01*
X21490000Y-44750000D02*
X22095200Y-45355200D01*
%TO.N,EN*%
X22186700Y-14500000D02*
X23441000Y-15754300D01*
X24760000Y-16750000D02*
X23764300Y-15754300D01*
X3627300Y-31228100D02*
X4030000Y-30825400D01*
X27000000Y-15144400D02*
X27000000Y-14980000D01*
X23441000Y-15754300D02*
X23585000Y-15754300D01*
X4030000Y-30825400D02*
X4030000Y-29750000D01*
X21320000Y-14500000D02*
X22186700Y-14500000D01*
X23764300Y-15754300D02*
X23585000Y-15754300D01*
X25394400Y-16750000D02*
X27000000Y-15144400D01*
X24760000Y-16750000D02*
X25394400Y-16750000D01*
%TO.N,VBAT_SENSE*%
X788300Y-32298300D02*
X7740000Y-39250000D01*
X7740000Y-39250000D02*
X7740000Y-39980000D01*
X6570000Y-28748300D02*
X893200Y-28748300D01*
X7740000Y-39980000D02*
X8500000Y-40740000D01*
X788300Y-28853200D02*
X788300Y-32298300D01*
X7864700Y-43094700D02*
X8750000Y-43980000D01*
X7864700Y-41375300D02*
X7864700Y-43094700D01*
X8500000Y-40740000D02*
X7864700Y-41375300D01*
X893200Y-28748300D02*
X788300Y-28853200D01*
X6570000Y-29750000D02*
X6570000Y-28748300D01*
%TO.N,BUCK_SW*%
D62*
X33250000Y-18339400D02*
X33250000Y-17250000D01*
X34763700Y-21974500D02*
X34763700Y-19853100D01*
X36239200Y-23450000D02*
X34763700Y-21974500D01*
X37362500Y-23450000D02*
X36239200Y-23450000D01*
X34763700Y-19853100D02*
X33250000Y-18339400D01*
%TO.N,MIC_SD*%
D65*
X22253200Y-3302700D02*
X22077300Y-3126800D01*
X35934400Y-3302700D02*
X22253200Y-3302700D01*
X22077300Y-3126800D02*
X19031300Y-3126800D01*
X7840000Y-11248300D02*
X8040700Y-11047600D01*
X19031300Y-3126800D02*
X18831300Y-2926800D01*
X37000000Y-5495000D02*
X37000000Y-4368300D01*
X17998500Y-3302700D02*
X15519100Y-3302700D01*
X18374400Y-2926800D02*
X17998500Y-3302700D01*
X37000000Y-4368300D02*
X35934400Y-3302700D01*
X7840000Y-12250000D02*
X7840000Y-11248300D01*
X18831300Y-2926800D02*
X18374400Y-2926800D01*
%TO.N,MIC_WS*%
X2760000Y-11248300D02*
X3712100Y-10296200D01*
X2760000Y-12250000D02*
X2760000Y-11248300D01*
X13640100Y-4030200D02*
X18831300Y-4030200D01*
X21787000Y-4006100D02*
X30605300Y-4006100D01*
X21611100Y-3830200D02*
X21787000Y-4006100D01*
X7374100Y-10296200D02*
X13640100Y-4030200D01*
X33220900Y-6621700D02*
X36000000Y-6621700D01*
X3712100Y-10296200D02*
X7374100Y-10296200D01*
X18831300Y-4030200D02*
X19031300Y-3830200D01*
X36000000Y-5495000D02*
X36000000Y-6621700D01*
X30605300Y-4006100D02*
X33220900Y-6621700D01*
X19031300Y-3830200D02*
X21611100Y-3830200D01*
%TO.N,MIC_SCK*%
X21932600Y-3654400D02*
X34286100Y-3654400D01*
X6452700Y-11248300D02*
X6668900Y-11032100D01*
X4030000Y-11248300D02*
X6452700Y-11248300D01*
X35000000Y-5495000D02*
X35000000Y-4368300D01*
X4030000Y-12250000D02*
X4030000Y-11248300D01*
X18602800Y-3478500D02*
X21756700Y-3478500D01*
X21756700Y-3478500D02*
X21932600Y-3654400D01*
X34286100Y-3654400D02*
X35000000Y-4368300D01*
%TO.N,NTC_SENSE*%
X4185400Y-32409200D02*
X13080000Y-41303800D01*
D66*
X51310700Y-39245000D02*
X51350300Y-39284600D01*
D65*
X4185400Y-31310400D02*
X4185400Y-32409200D01*
X46550000Y-40225000D02*
X45686700Y-41088300D01*
X5300000Y-30751700D02*
X4744100Y-30751700D01*
X51000000Y-40480000D02*
X51000000Y-41740000D01*
X45686700Y-41088300D02*
X29686800Y-41088300D01*
X46550000Y-40225000D02*
X46550000Y-39444100D01*
D66*
X51310700Y-37982900D02*
X51310700Y-39245000D01*
D65*
X13080000Y-41303800D02*
X18401100Y-41303800D01*
X51350300Y-39284600D02*
X51350300Y-39629700D01*
X29686800Y-41088300D02*
X28559300Y-42215800D01*
X51350300Y-39629700D02*
X50750000Y-40230000D01*
X50750000Y-40230000D02*
X51000000Y-40480000D01*
X48011200Y-37982900D02*
X51310700Y-37982900D01*
X4744100Y-30751700D02*
X4185400Y-31310400D01*
X46550000Y-39444100D02*
X48011200Y-37982900D01*
X5300000Y-29750000D02*
X5300000Y-30751700D01*
%TO.N,EFUSE_DVDT*%
X21770000Y-28500000D02*
X23639400Y-30369400D01*
X25940400Y-33163400D02*
X31463400Y-33163400D01*
X23639400Y-30862400D02*
X25940400Y-33163400D01*
X23639400Y-30369400D02*
X23639400Y-30862400D01*
X31463400Y-33163400D02*
X31850000Y-33550000D01*
%TO.N,SERVO_L_PWM*%
X18248300Y-27985000D02*
X18248300Y-22846300D01*
X40660000Y-14040000D02*
X39522300Y-15177700D01*
X14896700Y-17851700D02*
X16038700Y-16709700D01*
X18248300Y-22846300D02*
X14896700Y-19494700D01*
X19250000Y-27985000D02*
X18248300Y-27985000D01*
X45405000Y-14040000D02*
X40660000Y-14040000D01*
X14896700Y-19494700D02*
X14896700Y-17851700D01*
X39522300Y-15177700D02*
X37951200Y-15177700D01*
%TO.N,LCD_MOSI*%
X17551700Y-7750000D02*
X17489600Y-7812100D01*
X19990000Y-7750000D02*
X17551700Y-7750000D01*
X19250000Y-19095000D02*
X15464400Y-19095000D01*
%TO.N,LCD_CLK*%
X17477300Y-13251700D02*
X18035400Y-13809800D01*
X22990000Y-11750000D02*
X22294500Y-12445500D01*
X12920000Y-12250000D02*
X12920000Y-13251700D01*
X12920000Y-13251700D02*
X17477300Y-13251700D01*
X22294500Y-12445500D02*
X19585700Y-12445500D01*
%TO.N,BATP_GATE*%
X19500000Y-32062500D02*
X22075000Y-32062500D01*
X22075000Y-32062500D02*
X22562500Y-32550000D01*
X23647000Y-34122000D02*
X23647000Y-35363000D01*
X23647000Y-35363000D02*
X22760000Y-36250000D01*
X23548100Y-34023100D02*
X23647000Y-34122000D01*
X22562500Y-32550000D02*
X22562500Y-32974500D01*
X22562500Y-32974500D02*
X22549700Y-32987300D01*
D66*
X23548100Y-33985700D02*
X23548100Y-34023100D01*
X22549700Y-32987300D02*
X23548100Y-33985700D01*
%TO.N,EFUSE_ILM*%
X34493900Y-34050000D02*
X33750000Y-34050000D01*
D65*
X35629000Y-37111000D02*
X35871300Y-37111000D01*
X35871300Y-37111000D02*
X36285300Y-36697000D01*
X36285300Y-36697000D02*
X36285300Y-35841400D01*
D66*
X36285300Y-35841400D02*
X34493900Y-34050000D01*
D65*
X34990000Y-37750000D02*
X35629000Y-37111000D01*
%TO.N,VBUS_FUSED*%
D62*
X30000000Y-34300000D02*
X31850000Y-34300000D01*
X40020000Y-37750000D02*
X39570300Y-37750000D01*
X39570300Y-37750000D02*
X39274300Y-38046000D01*
X31850000Y-34550000D02*
X31850000Y-35050000D01*
X31761200Y-35138800D02*
X31850000Y-35050000D01*
X31850000Y-34550000D02*
X31850000Y-34300000D01*
X31090400Y-35138800D02*
X31761200Y-35138800D01*
X31850000Y-34300000D02*
X31850000Y-34050000D01*
%TD*%
M02*
