%TF.GenerationSoftware,KiCad,Pcbnew,10.0.6*%
%TF.CreationDate,2026-10-05T06:20:28-07:00*%
%TF.ProjectId,plush-toy-v2-A,706c7573-682d-4746-9f79-2d76322d412e,rev?*%
%TF.SameCoordinates,Original*%
%TF.FileFunction,Drillmap*%
%TF.FilePolarity,Positive*%
%FSLAX45Y45*%
G04 Gerber Fmt 4.5, Leading zero omitted, Abs format (unit mm)*
G04 Created by KiCad (PCBNEW 10.0.6) date 2026-10-05 06:20:28*
%MOMM*%
%LPD*%
G01*
G04 APERTURE LIST*
%ADD10C,0.100000*%
%ADD11C,0.200000*%
%ADD12C,0.220000*%
G04 APERTURE END LIST*
D10*
X0Y-200000D02*
G75*
G02*
X200000Y0I200000J0D01*
G01*
X0Y-4400000D02*
X0Y-200000D01*
X200000Y0D02*
X5000000Y0D01*
X200000Y-4600000D02*
G75*
G02*
X0Y-4400000I0J200000D01*
G01*
X5000000Y0D02*
G75*
G02*
X5200000Y-200000I0J-200000D01*
G01*
X5000000Y-4600000D02*
X200000Y-4600000D01*
X5200000Y-200000D02*
X5200000Y-4400000D01*
X5200000Y-4400000D02*
G75*
G02*
X5000000Y-4600000I-200000J0D01*
G01*
D11*
D10*
X2558500Y-3843000D02*
X2623500Y-3908000D01*
X2623500Y-3843000D02*
X2558500Y-3908000D01*
X3136500Y-3843000D02*
X3201500Y-3908000D01*
X3201500Y-3843000D02*
X3136500Y-3908000D01*
D12*
X460000Y-350000D02*
G75*
G02*
X240000Y-350000I-110000J0D01*
G01*
X240000Y-350000D02*
G75*
G02*
X460000Y-350000I110000J0D01*
G01*
X460000Y-4250000D02*
G75*
G02*
X240000Y-4250000I-110000J0D01*
G01*
X240000Y-4250000D02*
G75*
G02*
X460000Y-4250000I110000J0D01*
G01*
D11*
X255777Y-4916484D02*
X255777Y-4716484D01*
X255777Y-4716484D02*
X303396Y-4716484D01*
X303396Y-4716484D02*
X331967Y-4726008D01*
X331967Y-4726008D02*
X351015Y-4745055D01*
X351015Y-4745055D02*
X360539Y-4764103D01*
X360539Y-4764103D02*
X370062Y-4802198D01*
X370062Y-4802198D02*
X370062Y-4830770D01*
X370062Y-4830770D02*
X360539Y-4868865D01*
X360539Y-4868865D02*
X351015Y-4887912D01*
X351015Y-4887912D02*
X331967Y-4906960D01*
X331967Y-4906960D02*
X303396Y-4916484D01*
X303396Y-4916484D02*
X255777Y-4916484D01*
X455777Y-4916484D02*
X455777Y-4783150D01*
X455777Y-4821246D02*
X465301Y-4802198D01*
X465301Y-4802198D02*
X474824Y-4792674D01*
X474824Y-4792674D02*
X493872Y-4783150D01*
X493872Y-4783150D02*
X512920Y-4783150D01*
X579586Y-4916484D02*
X579586Y-4783150D01*
X579586Y-4716484D02*
X570063Y-4726008D01*
X570063Y-4726008D02*
X579586Y-4735531D01*
X579586Y-4735531D02*
X589110Y-4726008D01*
X589110Y-4726008D02*
X579586Y-4716484D01*
X579586Y-4716484D02*
X579586Y-4735531D01*
X703396Y-4916484D02*
X684348Y-4906960D01*
X684348Y-4906960D02*
X674824Y-4887912D01*
X674824Y-4887912D02*
X674824Y-4716484D01*
X808158Y-4916484D02*
X789110Y-4906960D01*
X789110Y-4906960D02*
X779586Y-4887912D01*
X779586Y-4887912D02*
X779586Y-4716484D01*
X1036729Y-4916484D02*
X1036729Y-4716484D01*
X1036729Y-4716484D02*
X1103396Y-4859341D01*
X1103396Y-4859341D02*
X1170063Y-4716484D01*
X1170063Y-4716484D02*
X1170063Y-4916484D01*
X1351015Y-4916484D02*
X1351015Y-4811722D01*
X1351015Y-4811722D02*
X1341491Y-4792674D01*
X1341491Y-4792674D02*
X1322444Y-4783150D01*
X1322444Y-4783150D02*
X1284348Y-4783150D01*
X1284348Y-4783150D02*
X1265301Y-4792674D01*
X1351015Y-4906960D02*
X1331967Y-4916484D01*
X1331967Y-4916484D02*
X1284348Y-4916484D01*
X1284348Y-4916484D02*
X1265301Y-4906960D01*
X1265301Y-4906960D02*
X1255777Y-4887912D01*
X1255777Y-4887912D02*
X1255777Y-4868865D01*
X1255777Y-4868865D02*
X1265301Y-4849817D01*
X1265301Y-4849817D02*
X1284348Y-4840293D01*
X1284348Y-4840293D02*
X1331967Y-4840293D01*
X1331967Y-4840293D02*
X1351015Y-4830770D01*
X1446253Y-4783150D02*
X1446253Y-4983150D01*
X1446253Y-4792674D02*
X1465301Y-4783150D01*
X1465301Y-4783150D02*
X1503396Y-4783150D01*
X1503396Y-4783150D02*
X1522443Y-4792674D01*
X1522443Y-4792674D02*
X1531967Y-4802198D01*
X1531967Y-4802198D02*
X1541491Y-4821246D01*
X1541491Y-4821246D02*
X1541491Y-4878389D01*
X1541491Y-4878389D02*
X1531967Y-4897436D01*
X1531967Y-4897436D02*
X1522443Y-4906960D01*
X1522443Y-4906960D02*
X1503396Y-4916484D01*
X1503396Y-4916484D02*
X1465301Y-4916484D01*
X1465301Y-4916484D02*
X1446253Y-4906960D01*
X1627205Y-4897436D02*
X1636729Y-4906960D01*
X1636729Y-4906960D02*
X1627205Y-4916484D01*
X1627205Y-4916484D02*
X1617682Y-4906960D01*
X1617682Y-4906960D02*
X1627205Y-4897436D01*
X1627205Y-4897436D02*
X1627205Y-4916484D01*
X1627205Y-4792674D02*
X1636729Y-4802198D01*
X1636729Y-4802198D02*
X1627205Y-4811722D01*
X1627205Y-4811722D02*
X1617682Y-4802198D01*
X1617682Y-4802198D02*
X1627205Y-4792674D01*
X1627205Y-4792674D02*
X1627205Y-4811722D01*
D10*
X-70000Y-5212500D02*
X-5000Y-5277500D01*
X-5000Y-5212500D02*
X-70000Y-5277500D01*
D11*
X293872Y-5136484D02*
X312920Y-5136484D01*
X312920Y-5136484D02*
X331967Y-5146008D01*
X331967Y-5146008D02*
X341491Y-5155531D01*
X341491Y-5155531D02*
X351015Y-5174579D01*
X351015Y-5174579D02*
X360539Y-5212674D01*
X360539Y-5212674D02*
X360539Y-5260293D01*
X360539Y-5260293D02*
X351015Y-5298389D01*
X351015Y-5298389D02*
X341491Y-5317436D01*
X341491Y-5317436D02*
X331967Y-5326960D01*
X331967Y-5326960D02*
X312920Y-5336484D01*
X312920Y-5336484D02*
X293872Y-5336484D01*
X293872Y-5336484D02*
X274824Y-5326960D01*
X274824Y-5326960D02*
X265301Y-5317436D01*
X265301Y-5317436D02*
X255777Y-5298389D01*
X255777Y-5298389D02*
X246253Y-5260293D01*
X246253Y-5260293D02*
X246253Y-5212674D01*
X246253Y-5212674D02*
X255777Y-5174579D01*
X255777Y-5174579D02*
X265301Y-5155531D01*
X265301Y-5155531D02*
X274824Y-5146008D01*
X274824Y-5146008D02*
X293872Y-5136484D01*
X446253Y-5317436D02*
X455777Y-5326960D01*
X455777Y-5326960D02*
X446253Y-5336484D01*
X446253Y-5336484D02*
X436729Y-5326960D01*
X436729Y-5326960D02*
X446253Y-5317436D01*
X446253Y-5317436D02*
X446253Y-5336484D01*
X627205Y-5136484D02*
X589110Y-5136484D01*
X589110Y-5136484D02*
X570063Y-5146008D01*
X570063Y-5146008D02*
X560539Y-5155531D01*
X560539Y-5155531D02*
X541491Y-5184103D01*
X541491Y-5184103D02*
X531967Y-5222198D01*
X531967Y-5222198D02*
X531967Y-5298389D01*
X531967Y-5298389D02*
X541491Y-5317436D01*
X541491Y-5317436D02*
X551015Y-5326960D01*
X551015Y-5326960D02*
X570063Y-5336484D01*
X570063Y-5336484D02*
X608158Y-5336484D01*
X608158Y-5336484D02*
X627205Y-5326960D01*
X627205Y-5326960D02*
X636729Y-5317436D01*
X636729Y-5317436D02*
X646253Y-5298389D01*
X646253Y-5298389D02*
X646253Y-5250770D01*
X646253Y-5250770D02*
X636729Y-5231722D01*
X636729Y-5231722D02*
X627205Y-5222198D01*
X627205Y-5222198D02*
X608158Y-5212674D01*
X608158Y-5212674D02*
X570063Y-5212674D01*
X570063Y-5212674D02*
X551015Y-5222198D01*
X551015Y-5222198D02*
X541491Y-5231722D01*
X541491Y-5231722D02*
X531967Y-5250770D01*
X827205Y-5136484D02*
X731967Y-5136484D01*
X731967Y-5136484D02*
X722443Y-5231722D01*
X722443Y-5231722D02*
X731967Y-5222198D01*
X731967Y-5222198D02*
X751015Y-5212674D01*
X751015Y-5212674D02*
X798634Y-5212674D01*
X798634Y-5212674D02*
X817682Y-5222198D01*
X817682Y-5222198D02*
X827205Y-5231722D01*
X827205Y-5231722D02*
X836729Y-5250770D01*
X836729Y-5250770D02*
X836729Y-5298389D01*
X836729Y-5298389D02*
X827205Y-5317436D01*
X827205Y-5317436D02*
X817682Y-5326960D01*
X817682Y-5326960D02*
X798634Y-5336484D01*
X798634Y-5336484D02*
X751015Y-5336484D01*
X751015Y-5336484D02*
X731967Y-5326960D01*
X731967Y-5326960D02*
X722443Y-5317436D01*
X960539Y-5136484D02*
X979586Y-5136484D01*
X979586Y-5136484D02*
X998634Y-5146008D01*
X998634Y-5146008D02*
X1008158Y-5155531D01*
X1008158Y-5155531D02*
X1017682Y-5174579D01*
X1017682Y-5174579D02*
X1027205Y-5212674D01*
X1027205Y-5212674D02*
X1027205Y-5260293D01*
X1027205Y-5260293D02*
X1017682Y-5298389D01*
X1017682Y-5298389D02*
X1008158Y-5317436D01*
X1008158Y-5317436D02*
X998634Y-5326960D01*
X998634Y-5326960D02*
X979586Y-5336484D01*
X979586Y-5336484D02*
X960539Y-5336484D01*
X960539Y-5336484D02*
X941491Y-5326960D01*
X941491Y-5326960D02*
X931967Y-5317436D01*
X931967Y-5317436D02*
X922443Y-5298389D01*
X922443Y-5298389D02*
X912920Y-5260293D01*
X912920Y-5260293D02*
X912920Y-5212674D01*
X912920Y-5212674D02*
X922443Y-5174579D01*
X922443Y-5174579D02*
X931967Y-5155531D01*
X931967Y-5155531D02*
X941491Y-5146008D01*
X941491Y-5146008D02*
X960539Y-5136484D01*
X1112920Y-5336484D02*
X1112920Y-5203150D01*
X1112920Y-5222198D02*
X1122444Y-5212674D01*
X1122444Y-5212674D02*
X1141491Y-5203150D01*
X1141491Y-5203150D02*
X1170063Y-5203150D01*
X1170063Y-5203150D02*
X1189110Y-5212674D01*
X1189110Y-5212674D02*
X1198634Y-5231722D01*
X1198634Y-5231722D02*
X1198634Y-5336484D01*
X1198634Y-5231722D02*
X1208158Y-5212674D01*
X1208158Y-5212674D02*
X1227205Y-5203150D01*
X1227205Y-5203150D02*
X1255777Y-5203150D01*
X1255777Y-5203150D02*
X1274825Y-5212674D01*
X1274825Y-5212674D02*
X1284348Y-5231722D01*
X1284348Y-5231722D02*
X1284348Y-5336484D01*
X1379586Y-5336484D02*
X1379586Y-5203150D01*
X1379586Y-5222198D02*
X1389110Y-5212674D01*
X1389110Y-5212674D02*
X1408158Y-5203150D01*
X1408158Y-5203150D02*
X1436729Y-5203150D01*
X1436729Y-5203150D02*
X1455777Y-5212674D01*
X1455777Y-5212674D02*
X1465301Y-5231722D01*
X1465301Y-5231722D02*
X1465301Y-5336484D01*
X1465301Y-5231722D02*
X1474824Y-5212674D01*
X1474824Y-5212674D02*
X1493872Y-5203150D01*
X1493872Y-5203150D02*
X1522443Y-5203150D01*
X1522443Y-5203150D02*
X1541491Y-5212674D01*
X1541491Y-5212674D02*
X1551015Y-5231722D01*
X1551015Y-5231722D02*
X1551015Y-5336484D01*
X1941491Y-5126960D02*
X1770063Y-5384103D01*
X2198634Y-5136484D02*
X2217682Y-5136484D01*
X2217682Y-5136484D02*
X2236729Y-5146008D01*
X2236729Y-5146008D02*
X2246253Y-5155531D01*
X2246253Y-5155531D02*
X2255777Y-5174579D01*
X2255777Y-5174579D02*
X2265301Y-5212674D01*
X2265301Y-5212674D02*
X2265301Y-5260293D01*
X2265301Y-5260293D02*
X2255777Y-5298389D01*
X2255777Y-5298389D02*
X2246253Y-5317436D01*
X2246253Y-5317436D02*
X2236729Y-5326960D01*
X2236729Y-5326960D02*
X2217682Y-5336484D01*
X2217682Y-5336484D02*
X2198634Y-5336484D01*
X2198634Y-5336484D02*
X2179587Y-5326960D01*
X2179587Y-5326960D02*
X2170063Y-5317436D01*
X2170063Y-5317436D02*
X2160539Y-5298389D01*
X2160539Y-5298389D02*
X2151015Y-5260293D01*
X2151015Y-5260293D02*
X2151015Y-5212674D01*
X2151015Y-5212674D02*
X2160539Y-5174579D01*
X2160539Y-5174579D02*
X2170063Y-5155531D01*
X2170063Y-5155531D02*
X2179587Y-5146008D01*
X2179587Y-5146008D02*
X2198634Y-5136484D01*
X2351015Y-5317436D02*
X2360539Y-5326960D01*
X2360539Y-5326960D02*
X2351015Y-5336484D01*
X2351015Y-5336484D02*
X2341491Y-5326960D01*
X2341491Y-5326960D02*
X2351015Y-5317436D01*
X2351015Y-5317436D02*
X2351015Y-5336484D01*
X2484348Y-5136484D02*
X2503396Y-5136484D01*
X2503396Y-5136484D02*
X2522444Y-5146008D01*
X2522444Y-5146008D02*
X2531968Y-5155531D01*
X2531968Y-5155531D02*
X2541491Y-5174579D01*
X2541491Y-5174579D02*
X2551015Y-5212674D01*
X2551015Y-5212674D02*
X2551015Y-5260293D01*
X2551015Y-5260293D02*
X2541491Y-5298389D01*
X2541491Y-5298389D02*
X2531968Y-5317436D01*
X2531968Y-5317436D02*
X2522444Y-5326960D01*
X2522444Y-5326960D02*
X2503396Y-5336484D01*
X2503396Y-5336484D02*
X2484348Y-5336484D01*
X2484348Y-5336484D02*
X2465301Y-5326960D01*
X2465301Y-5326960D02*
X2455777Y-5317436D01*
X2455777Y-5317436D02*
X2446253Y-5298389D01*
X2446253Y-5298389D02*
X2436729Y-5260293D01*
X2436729Y-5260293D02*
X2436729Y-5212674D01*
X2436729Y-5212674D02*
X2446253Y-5174579D01*
X2446253Y-5174579D02*
X2455777Y-5155531D01*
X2455777Y-5155531D02*
X2465301Y-5146008D01*
X2465301Y-5146008D02*
X2484348Y-5136484D01*
X2627206Y-5155531D02*
X2636729Y-5146008D01*
X2636729Y-5146008D02*
X2655777Y-5136484D01*
X2655777Y-5136484D02*
X2703396Y-5136484D01*
X2703396Y-5136484D02*
X2722444Y-5146008D01*
X2722444Y-5146008D02*
X2731968Y-5155531D01*
X2731968Y-5155531D02*
X2741491Y-5174579D01*
X2741491Y-5174579D02*
X2741491Y-5193627D01*
X2741491Y-5193627D02*
X2731968Y-5222198D01*
X2731968Y-5222198D02*
X2617682Y-5336484D01*
X2617682Y-5336484D02*
X2741491Y-5336484D01*
X2922444Y-5136484D02*
X2827206Y-5136484D01*
X2827206Y-5136484D02*
X2817682Y-5231722D01*
X2817682Y-5231722D02*
X2827206Y-5222198D01*
X2827206Y-5222198D02*
X2846253Y-5212674D01*
X2846253Y-5212674D02*
X2893872Y-5212674D01*
X2893872Y-5212674D02*
X2912920Y-5222198D01*
X2912920Y-5222198D02*
X2922444Y-5231722D01*
X2922444Y-5231722D02*
X2931967Y-5250770D01*
X2931967Y-5250770D02*
X2931967Y-5298389D01*
X2931967Y-5298389D02*
X2922444Y-5317436D01*
X2922444Y-5317436D02*
X2912920Y-5326960D01*
X2912920Y-5326960D02*
X2893872Y-5336484D01*
X2893872Y-5336484D02*
X2846253Y-5336484D01*
X2846253Y-5336484D02*
X2827206Y-5326960D01*
X2827206Y-5326960D02*
X2817682Y-5317436D01*
X3103396Y-5136484D02*
X3065301Y-5136484D01*
X3065301Y-5136484D02*
X3046253Y-5146008D01*
X3046253Y-5146008D02*
X3036729Y-5155531D01*
X3036729Y-5155531D02*
X3017682Y-5184103D01*
X3017682Y-5184103D02*
X3008158Y-5222198D01*
X3008158Y-5222198D02*
X3008158Y-5298389D01*
X3008158Y-5298389D02*
X3017682Y-5317436D01*
X3017682Y-5317436D02*
X3027206Y-5326960D01*
X3027206Y-5326960D02*
X3046253Y-5336484D01*
X3046253Y-5336484D02*
X3084348Y-5336484D01*
X3084348Y-5336484D02*
X3103396Y-5326960D01*
X3103396Y-5326960D02*
X3112920Y-5317436D01*
X3112920Y-5317436D02*
X3122444Y-5298389D01*
X3122444Y-5298389D02*
X3122444Y-5250770D01*
X3122444Y-5250770D02*
X3112920Y-5231722D01*
X3112920Y-5231722D02*
X3103396Y-5222198D01*
X3103396Y-5222198D02*
X3084348Y-5212674D01*
X3084348Y-5212674D02*
X3046253Y-5212674D01*
X3046253Y-5212674D02*
X3027206Y-5222198D01*
X3027206Y-5222198D02*
X3017682Y-5231722D01*
X3017682Y-5231722D02*
X3008158Y-5250770D01*
X3198634Y-5136484D02*
X3198634Y-5174579D01*
X3274825Y-5136484D02*
X3274825Y-5174579D01*
X3570063Y-5412674D02*
X3560539Y-5403150D01*
X3560539Y-5403150D02*
X3541491Y-5374579D01*
X3541491Y-5374579D02*
X3531968Y-5355531D01*
X3531968Y-5355531D02*
X3522444Y-5326960D01*
X3522444Y-5326960D02*
X3512920Y-5279341D01*
X3512920Y-5279341D02*
X3512920Y-5241246D01*
X3512920Y-5241246D02*
X3522444Y-5193627D01*
X3522444Y-5193627D02*
X3531968Y-5165055D01*
X3531968Y-5165055D02*
X3541491Y-5146008D01*
X3541491Y-5146008D02*
X3560539Y-5117436D01*
X3560539Y-5117436D02*
X3570063Y-5107912D01*
X3636729Y-5155531D02*
X3646253Y-5146008D01*
X3646253Y-5146008D02*
X3665301Y-5136484D01*
X3665301Y-5136484D02*
X3712920Y-5136484D01*
X3712920Y-5136484D02*
X3731968Y-5146008D01*
X3731968Y-5146008D02*
X3741491Y-5155531D01*
X3741491Y-5155531D02*
X3751015Y-5174579D01*
X3751015Y-5174579D02*
X3751015Y-5193627D01*
X3751015Y-5193627D02*
X3741491Y-5222198D01*
X3741491Y-5222198D02*
X3627206Y-5336484D01*
X3627206Y-5336484D02*
X3751015Y-5336484D01*
X3989110Y-5336484D02*
X3989110Y-5136484D01*
X4074825Y-5336484D02*
X4074825Y-5231722D01*
X4074825Y-5231722D02*
X4065301Y-5212674D01*
X4065301Y-5212674D02*
X4046253Y-5203150D01*
X4046253Y-5203150D02*
X4017682Y-5203150D01*
X4017682Y-5203150D02*
X3998634Y-5212674D01*
X3998634Y-5212674D02*
X3989110Y-5222198D01*
X4198634Y-5336484D02*
X4179587Y-5326960D01*
X4179587Y-5326960D02*
X4170063Y-5317436D01*
X4170063Y-5317436D02*
X4160539Y-5298389D01*
X4160539Y-5298389D02*
X4160539Y-5241246D01*
X4160539Y-5241246D02*
X4170063Y-5222198D01*
X4170063Y-5222198D02*
X4179587Y-5212674D01*
X4179587Y-5212674D02*
X4198634Y-5203150D01*
X4198634Y-5203150D02*
X4227206Y-5203150D01*
X4227206Y-5203150D02*
X4246253Y-5212674D01*
X4246253Y-5212674D02*
X4255777Y-5222198D01*
X4255777Y-5222198D02*
X4265301Y-5241246D01*
X4265301Y-5241246D02*
X4265301Y-5298389D01*
X4265301Y-5298389D02*
X4255777Y-5317436D01*
X4255777Y-5317436D02*
X4246253Y-5326960D01*
X4246253Y-5326960D02*
X4227206Y-5336484D01*
X4227206Y-5336484D02*
X4198634Y-5336484D01*
X4379587Y-5336484D02*
X4360539Y-5326960D01*
X4360539Y-5326960D02*
X4351015Y-5307912D01*
X4351015Y-5307912D02*
X4351015Y-5136484D01*
X4531968Y-5326960D02*
X4512920Y-5336484D01*
X4512920Y-5336484D02*
X4474825Y-5336484D01*
X4474825Y-5336484D02*
X4455777Y-5326960D01*
X4455777Y-5326960D02*
X4446253Y-5307912D01*
X4446253Y-5307912D02*
X4446253Y-5231722D01*
X4446253Y-5231722D02*
X4455777Y-5212674D01*
X4455777Y-5212674D02*
X4474825Y-5203150D01*
X4474825Y-5203150D02*
X4512920Y-5203150D01*
X4512920Y-5203150D02*
X4531968Y-5212674D01*
X4531968Y-5212674D02*
X4541492Y-5231722D01*
X4541492Y-5231722D02*
X4541492Y-5250770D01*
X4541492Y-5250770D02*
X4446253Y-5269817D01*
X4617682Y-5326960D02*
X4636730Y-5336484D01*
X4636730Y-5336484D02*
X4674825Y-5336484D01*
X4674825Y-5336484D02*
X4693873Y-5326960D01*
X4693873Y-5326960D02*
X4703396Y-5307912D01*
X4703396Y-5307912D02*
X4703396Y-5298389D01*
X4703396Y-5298389D02*
X4693873Y-5279341D01*
X4693873Y-5279341D02*
X4674825Y-5269817D01*
X4674825Y-5269817D02*
X4646253Y-5269817D01*
X4646253Y-5269817D02*
X4627206Y-5260293D01*
X4627206Y-5260293D02*
X4617682Y-5241246D01*
X4617682Y-5241246D02*
X4617682Y-5231722D01*
X4617682Y-5231722D02*
X4627206Y-5212674D01*
X4627206Y-5212674D02*
X4646253Y-5203150D01*
X4646253Y-5203150D02*
X4674825Y-5203150D01*
X4674825Y-5203150D02*
X4693873Y-5212674D01*
X4770063Y-5412674D02*
X4779587Y-5403150D01*
X4779587Y-5403150D02*
X4798634Y-5374579D01*
X4798634Y-5374579D02*
X4808158Y-5355531D01*
X4808158Y-5355531D02*
X4817682Y-5326960D01*
X4817682Y-5326960D02*
X4827206Y-5279341D01*
X4827206Y-5279341D02*
X4827206Y-5241246D01*
X4827206Y-5241246D02*
X4817682Y-5193627D01*
X4817682Y-5193627D02*
X4808158Y-5165055D01*
X4808158Y-5165055D02*
X4798634Y-5146008D01*
X4798634Y-5146008D02*
X4779587Y-5117436D01*
X4779587Y-5117436D02*
X4770063Y-5107912D01*
X5131968Y-5412674D02*
X5122444Y-5403150D01*
X5122444Y-5403150D02*
X5103396Y-5374579D01*
X5103396Y-5374579D02*
X5093873Y-5355531D01*
X5093873Y-5355531D02*
X5084349Y-5326960D01*
X5084349Y-5326960D02*
X5074825Y-5279341D01*
X5074825Y-5279341D02*
X5074825Y-5241246D01*
X5074825Y-5241246D02*
X5084349Y-5193627D01*
X5084349Y-5193627D02*
X5093873Y-5165055D01*
X5093873Y-5165055D02*
X5103396Y-5146008D01*
X5103396Y-5146008D02*
X5122444Y-5117436D01*
X5122444Y-5117436D02*
X5131968Y-5107912D01*
X5208158Y-5203150D02*
X5208158Y-5336484D01*
X5208158Y-5222198D02*
X5217682Y-5212674D01*
X5217682Y-5212674D02*
X5236730Y-5203150D01*
X5236730Y-5203150D02*
X5265301Y-5203150D01*
X5265301Y-5203150D02*
X5284349Y-5212674D01*
X5284349Y-5212674D02*
X5293873Y-5231722D01*
X5293873Y-5231722D02*
X5293873Y-5336484D01*
X5417682Y-5336484D02*
X5398634Y-5326960D01*
X5398634Y-5326960D02*
X5389111Y-5317436D01*
X5389111Y-5317436D02*
X5379587Y-5298389D01*
X5379587Y-5298389D02*
X5379587Y-5241246D01*
X5379587Y-5241246D02*
X5389111Y-5222198D01*
X5389111Y-5222198D02*
X5398634Y-5212674D01*
X5398634Y-5212674D02*
X5417682Y-5203150D01*
X5417682Y-5203150D02*
X5446254Y-5203150D01*
X5446254Y-5203150D02*
X5465301Y-5212674D01*
X5465301Y-5212674D02*
X5474825Y-5222198D01*
X5474825Y-5222198D02*
X5484349Y-5241246D01*
X5484349Y-5241246D02*
X5484349Y-5298389D01*
X5484349Y-5298389D02*
X5474825Y-5317436D01*
X5474825Y-5317436D02*
X5465301Y-5326960D01*
X5465301Y-5326960D02*
X5446254Y-5336484D01*
X5446254Y-5336484D02*
X5417682Y-5336484D01*
X5541492Y-5203150D02*
X5617682Y-5203150D01*
X5570063Y-5136484D02*
X5570063Y-5307912D01*
X5570063Y-5307912D02*
X5579587Y-5326960D01*
X5579587Y-5326960D02*
X5598634Y-5336484D01*
X5598634Y-5336484D02*
X5617682Y-5336484D01*
X5836730Y-5203150D02*
X5836730Y-5403150D01*
X5836730Y-5212674D02*
X5855777Y-5203150D01*
X5855777Y-5203150D02*
X5893873Y-5203150D01*
X5893873Y-5203150D02*
X5912920Y-5212674D01*
X5912920Y-5212674D02*
X5922444Y-5222198D01*
X5922444Y-5222198D02*
X5931968Y-5241246D01*
X5931968Y-5241246D02*
X5931968Y-5298389D01*
X5931968Y-5298389D02*
X5922444Y-5317436D01*
X5922444Y-5317436D02*
X5912920Y-5326960D01*
X5912920Y-5326960D02*
X5893873Y-5336484D01*
X5893873Y-5336484D02*
X5855777Y-5336484D01*
X5855777Y-5336484D02*
X5836730Y-5326960D01*
X6046253Y-5336484D02*
X6027206Y-5326960D01*
X6027206Y-5326960D02*
X6017682Y-5307912D01*
X6017682Y-5307912D02*
X6017682Y-5136484D01*
X6208158Y-5336484D02*
X6208158Y-5231722D01*
X6208158Y-5231722D02*
X6198634Y-5212674D01*
X6198634Y-5212674D02*
X6179587Y-5203150D01*
X6179587Y-5203150D02*
X6141492Y-5203150D01*
X6141492Y-5203150D02*
X6122444Y-5212674D01*
X6208158Y-5326960D02*
X6189111Y-5336484D01*
X6189111Y-5336484D02*
X6141492Y-5336484D01*
X6141492Y-5336484D02*
X6122444Y-5326960D01*
X6122444Y-5326960D02*
X6112920Y-5307912D01*
X6112920Y-5307912D02*
X6112920Y-5288865D01*
X6112920Y-5288865D02*
X6122444Y-5269817D01*
X6122444Y-5269817D02*
X6141492Y-5260293D01*
X6141492Y-5260293D02*
X6189111Y-5260293D01*
X6189111Y-5260293D02*
X6208158Y-5250770D01*
X6274825Y-5203150D02*
X6351015Y-5203150D01*
X6303396Y-5136484D02*
X6303396Y-5307912D01*
X6303396Y-5307912D02*
X6312920Y-5326960D01*
X6312920Y-5326960D02*
X6331968Y-5336484D01*
X6331968Y-5336484D02*
X6351015Y-5336484D01*
X6493873Y-5326960D02*
X6474825Y-5336484D01*
X6474825Y-5336484D02*
X6436730Y-5336484D01*
X6436730Y-5336484D02*
X6417682Y-5326960D01*
X6417682Y-5326960D02*
X6408158Y-5307912D01*
X6408158Y-5307912D02*
X6408158Y-5231722D01*
X6408158Y-5231722D02*
X6417682Y-5212674D01*
X6417682Y-5212674D02*
X6436730Y-5203150D01*
X6436730Y-5203150D02*
X6474825Y-5203150D01*
X6474825Y-5203150D02*
X6493873Y-5212674D01*
X6493873Y-5212674D02*
X6503396Y-5231722D01*
X6503396Y-5231722D02*
X6503396Y-5250770D01*
X6503396Y-5250770D02*
X6408158Y-5269817D01*
X6674825Y-5336484D02*
X6674825Y-5136484D01*
X6674825Y-5326960D02*
X6655777Y-5336484D01*
X6655777Y-5336484D02*
X6617682Y-5336484D01*
X6617682Y-5336484D02*
X6598634Y-5326960D01*
X6598634Y-5326960D02*
X6589111Y-5317436D01*
X6589111Y-5317436D02*
X6579587Y-5298389D01*
X6579587Y-5298389D02*
X6579587Y-5241246D01*
X6579587Y-5241246D02*
X6589111Y-5222198D01*
X6589111Y-5222198D02*
X6598634Y-5212674D01*
X6598634Y-5212674D02*
X6617682Y-5203150D01*
X6617682Y-5203150D02*
X6655777Y-5203150D01*
X6655777Y-5203150D02*
X6674825Y-5212674D01*
X6751015Y-5412674D02*
X6760539Y-5403150D01*
X6760539Y-5403150D02*
X6779587Y-5374579D01*
X6779587Y-5374579D02*
X6789111Y-5355531D01*
X6789111Y-5355531D02*
X6798634Y-5326960D01*
X6798634Y-5326960D02*
X6808158Y-5279341D01*
X6808158Y-5279341D02*
X6808158Y-5241246D01*
X6808158Y-5241246D02*
X6798634Y-5193627D01*
X6798634Y-5193627D02*
X6789111Y-5165055D01*
X6789111Y-5165055D02*
X6779587Y-5146008D01*
X6779587Y-5146008D02*
X6760539Y-5117436D01*
X6760539Y-5117436D02*
X6751015Y-5107912D01*
X-5000Y-5509000D02*
G75*
G02*
X-205000Y-5509000I-100000J0D01*
G01*
X-205000Y-5509000D02*
G75*
G02*
X-5000Y-5509000I100000J0D01*
G01*
X246253Y-5419531D02*
X255777Y-5410008D01*
X255777Y-5410008D02*
X274824Y-5400484D01*
X274824Y-5400484D02*
X322444Y-5400484D01*
X322444Y-5400484D02*
X341491Y-5410008D01*
X341491Y-5410008D02*
X351015Y-5419531D01*
X351015Y-5419531D02*
X360539Y-5438579D01*
X360539Y-5438579D02*
X360539Y-5457627D01*
X360539Y-5457627D02*
X351015Y-5486198D01*
X351015Y-5486198D02*
X236729Y-5600484D01*
X236729Y-5600484D02*
X360539Y-5600484D01*
X446253Y-5581436D02*
X455777Y-5590960D01*
X455777Y-5590960D02*
X446253Y-5600484D01*
X446253Y-5600484D02*
X436729Y-5590960D01*
X436729Y-5590960D02*
X446253Y-5581436D01*
X446253Y-5581436D02*
X446253Y-5600484D01*
X531967Y-5419531D02*
X541491Y-5410008D01*
X541491Y-5410008D02*
X560539Y-5400484D01*
X560539Y-5400484D02*
X608158Y-5400484D01*
X608158Y-5400484D02*
X627205Y-5410008D01*
X627205Y-5410008D02*
X636729Y-5419531D01*
X636729Y-5419531D02*
X646253Y-5438579D01*
X646253Y-5438579D02*
X646253Y-5457627D01*
X646253Y-5457627D02*
X636729Y-5486198D01*
X636729Y-5486198D02*
X522443Y-5600484D01*
X522443Y-5600484D02*
X646253Y-5600484D01*
X770062Y-5400484D02*
X789110Y-5400484D01*
X789110Y-5400484D02*
X808158Y-5410008D01*
X808158Y-5410008D02*
X817682Y-5419531D01*
X817682Y-5419531D02*
X827205Y-5438579D01*
X827205Y-5438579D02*
X836729Y-5476674D01*
X836729Y-5476674D02*
X836729Y-5524293D01*
X836729Y-5524293D02*
X827205Y-5562389D01*
X827205Y-5562389D02*
X817682Y-5581436D01*
X817682Y-5581436D02*
X808158Y-5590960D01*
X808158Y-5590960D02*
X789110Y-5600484D01*
X789110Y-5600484D02*
X770062Y-5600484D01*
X770062Y-5600484D02*
X751015Y-5590960D01*
X751015Y-5590960D02*
X741491Y-5581436D01*
X741491Y-5581436D02*
X731967Y-5562389D01*
X731967Y-5562389D02*
X722443Y-5524293D01*
X722443Y-5524293D02*
X722443Y-5476674D01*
X722443Y-5476674D02*
X731967Y-5438579D01*
X731967Y-5438579D02*
X741491Y-5419531D01*
X741491Y-5419531D02*
X751015Y-5410008D01*
X751015Y-5410008D02*
X770062Y-5400484D01*
X960539Y-5400484D02*
X979586Y-5400484D01*
X979586Y-5400484D02*
X998634Y-5410008D01*
X998634Y-5410008D02*
X1008158Y-5419531D01*
X1008158Y-5419531D02*
X1017682Y-5438579D01*
X1017682Y-5438579D02*
X1027205Y-5476674D01*
X1027205Y-5476674D02*
X1027205Y-5524293D01*
X1027205Y-5524293D02*
X1017682Y-5562389D01*
X1017682Y-5562389D02*
X1008158Y-5581436D01*
X1008158Y-5581436D02*
X998634Y-5590960D01*
X998634Y-5590960D02*
X979586Y-5600484D01*
X979586Y-5600484D02*
X960539Y-5600484D01*
X960539Y-5600484D02*
X941491Y-5590960D01*
X941491Y-5590960D02*
X931967Y-5581436D01*
X931967Y-5581436D02*
X922443Y-5562389D01*
X922443Y-5562389D02*
X912920Y-5524293D01*
X912920Y-5524293D02*
X912920Y-5476674D01*
X912920Y-5476674D02*
X922443Y-5438579D01*
X922443Y-5438579D02*
X931967Y-5419531D01*
X931967Y-5419531D02*
X941491Y-5410008D01*
X941491Y-5410008D02*
X960539Y-5400484D01*
X1112920Y-5600484D02*
X1112920Y-5467150D01*
X1112920Y-5486198D02*
X1122444Y-5476674D01*
X1122444Y-5476674D02*
X1141491Y-5467150D01*
X1141491Y-5467150D02*
X1170063Y-5467150D01*
X1170063Y-5467150D02*
X1189110Y-5476674D01*
X1189110Y-5476674D02*
X1198634Y-5495722D01*
X1198634Y-5495722D02*
X1198634Y-5600484D01*
X1198634Y-5495722D02*
X1208158Y-5476674D01*
X1208158Y-5476674D02*
X1227205Y-5467150D01*
X1227205Y-5467150D02*
X1255777Y-5467150D01*
X1255777Y-5467150D02*
X1274825Y-5476674D01*
X1274825Y-5476674D02*
X1284348Y-5495722D01*
X1284348Y-5495722D02*
X1284348Y-5600484D01*
X1379586Y-5600484D02*
X1379586Y-5467150D01*
X1379586Y-5486198D02*
X1389110Y-5476674D01*
X1389110Y-5476674D02*
X1408158Y-5467150D01*
X1408158Y-5467150D02*
X1436729Y-5467150D01*
X1436729Y-5467150D02*
X1455777Y-5476674D01*
X1455777Y-5476674D02*
X1465301Y-5495722D01*
X1465301Y-5495722D02*
X1465301Y-5600484D01*
X1465301Y-5495722D02*
X1474824Y-5476674D01*
X1474824Y-5476674D02*
X1493872Y-5467150D01*
X1493872Y-5467150D02*
X1522443Y-5467150D01*
X1522443Y-5467150D02*
X1541491Y-5476674D01*
X1541491Y-5476674D02*
X1551015Y-5495722D01*
X1551015Y-5495722D02*
X1551015Y-5600484D01*
X1941491Y-5390960D02*
X1770063Y-5648103D01*
X2198634Y-5400484D02*
X2217682Y-5400484D01*
X2217682Y-5400484D02*
X2236729Y-5410008D01*
X2236729Y-5410008D02*
X2246253Y-5419531D01*
X2246253Y-5419531D02*
X2255777Y-5438579D01*
X2255777Y-5438579D02*
X2265301Y-5476674D01*
X2265301Y-5476674D02*
X2265301Y-5524293D01*
X2265301Y-5524293D02*
X2255777Y-5562389D01*
X2255777Y-5562389D02*
X2246253Y-5581436D01*
X2246253Y-5581436D02*
X2236729Y-5590960D01*
X2236729Y-5590960D02*
X2217682Y-5600484D01*
X2217682Y-5600484D02*
X2198634Y-5600484D01*
X2198634Y-5600484D02*
X2179587Y-5590960D01*
X2179587Y-5590960D02*
X2170063Y-5581436D01*
X2170063Y-5581436D02*
X2160539Y-5562389D01*
X2160539Y-5562389D02*
X2151015Y-5524293D01*
X2151015Y-5524293D02*
X2151015Y-5476674D01*
X2151015Y-5476674D02*
X2160539Y-5438579D01*
X2160539Y-5438579D02*
X2170063Y-5419531D01*
X2170063Y-5419531D02*
X2179587Y-5410008D01*
X2179587Y-5410008D02*
X2198634Y-5400484D01*
X2351015Y-5581436D02*
X2360539Y-5590960D01*
X2360539Y-5590960D02*
X2351015Y-5600484D01*
X2351015Y-5600484D02*
X2341491Y-5590960D01*
X2341491Y-5590960D02*
X2351015Y-5581436D01*
X2351015Y-5581436D02*
X2351015Y-5600484D01*
X2484348Y-5400484D02*
X2503396Y-5400484D01*
X2503396Y-5400484D02*
X2522444Y-5410008D01*
X2522444Y-5410008D02*
X2531968Y-5419531D01*
X2531968Y-5419531D02*
X2541491Y-5438579D01*
X2541491Y-5438579D02*
X2551015Y-5476674D01*
X2551015Y-5476674D02*
X2551015Y-5524293D01*
X2551015Y-5524293D02*
X2541491Y-5562389D01*
X2541491Y-5562389D02*
X2531968Y-5581436D01*
X2531968Y-5581436D02*
X2522444Y-5590960D01*
X2522444Y-5590960D02*
X2503396Y-5600484D01*
X2503396Y-5600484D02*
X2484348Y-5600484D01*
X2484348Y-5600484D02*
X2465301Y-5590960D01*
X2465301Y-5590960D02*
X2455777Y-5581436D01*
X2455777Y-5581436D02*
X2446253Y-5562389D01*
X2446253Y-5562389D02*
X2436729Y-5524293D01*
X2436729Y-5524293D02*
X2436729Y-5476674D01*
X2436729Y-5476674D02*
X2446253Y-5438579D01*
X2446253Y-5438579D02*
X2455777Y-5419531D01*
X2455777Y-5419531D02*
X2465301Y-5410008D01*
X2465301Y-5410008D02*
X2484348Y-5400484D01*
X2665301Y-5486198D02*
X2646253Y-5476674D01*
X2646253Y-5476674D02*
X2636729Y-5467150D01*
X2636729Y-5467150D02*
X2627206Y-5448103D01*
X2627206Y-5448103D02*
X2627206Y-5438579D01*
X2627206Y-5438579D02*
X2636729Y-5419531D01*
X2636729Y-5419531D02*
X2646253Y-5410008D01*
X2646253Y-5410008D02*
X2665301Y-5400484D01*
X2665301Y-5400484D02*
X2703396Y-5400484D01*
X2703396Y-5400484D02*
X2722444Y-5410008D01*
X2722444Y-5410008D02*
X2731968Y-5419531D01*
X2731968Y-5419531D02*
X2741491Y-5438579D01*
X2741491Y-5438579D02*
X2741491Y-5448103D01*
X2741491Y-5448103D02*
X2731968Y-5467150D01*
X2731968Y-5467150D02*
X2722444Y-5476674D01*
X2722444Y-5476674D02*
X2703396Y-5486198D01*
X2703396Y-5486198D02*
X2665301Y-5486198D01*
X2665301Y-5486198D02*
X2646253Y-5495722D01*
X2646253Y-5495722D02*
X2636729Y-5505246D01*
X2636729Y-5505246D02*
X2627206Y-5524293D01*
X2627206Y-5524293D02*
X2627206Y-5562389D01*
X2627206Y-5562389D02*
X2636729Y-5581436D01*
X2636729Y-5581436D02*
X2646253Y-5590960D01*
X2646253Y-5590960D02*
X2665301Y-5600484D01*
X2665301Y-5600484D02*
X2703396Y-5600484D01*
X2703396Y-5600484D02*
X2722444Y-5590960D01*
X2722444Y-5590960D02*
X2731968Y-5581436D01*
X2731968Y-5581436D02*
X2741491Y-5562389D01*
X2741491Y-5562389D02*
X2741491Y-5524293D01*
X2741491Y-5524293D02*
X2731968Y-5505246D01*
X2731968Y-5505246D02*
X2722444Y-5495722D01*
X2722444Y-5495722D02*
X2703396Y-5486198D01*
X2912920Y-5400484D02*
X2874825Y-5400484D01*
X2874825Y-5400484D02*
X2855777Y-5410008D01*
X2855777Y-5410008D02*
X2846253Y-5419531D01*
X2846253Y-5419531D02*
X2827206Y-5448103D01*
X2827206Y-5448103D02*
X2817682Y-5486198D01*
X2817682Y-5486198D02*
X2817682Y-5562389D01*
X2817682Y-5562389D02*
X2827206Y-5581436D01*
X2827206Y-5581436D02*
X2836729Y-5590960D01*
X2836729Y-5590960D02*
X2855777Y-5600484D01*
X2855777Y-5600484D02*
X2893872Y-5600484D01*
X2893872Y-5600484D02*
X2912920Y-5590960D01*
X2912920Y-5590960D02*
X2922444Y-5581436D01*
X2922444Y-5581436D02*
X2931967Y-5562389D01*
X2931967Y-5562389D02*
X2931967Y-5514770D01*
X2931967Y-5514770D02*
X2922444Y-5495722D01*
X2922444Y-5495722D02*
X2912920Y-5486198D01*
X2912920Y-5486198D02*
X2893872Y-5476674D01*
X2893872Y-5476674D02*
X2855777Y-5476674D01*
X2855777Y-5476674D02*
X2836729Y-5486198D01*
X2836729Y-5486198D02*
X2827206Y-5495722D01*
X2827206Y-5495722D02*
X2817682Y-5514770D01*
X3103396Y-5400484D02*
X3065301Y-5400484D01*
X3065301Y-5400484D02*
X3046253Y-5410008D01*
X3046253Y-5410008D02*
X3036729Y-5419531D01*
X3036729Y-5419531D02*
X3017682Y-5448103D01*
X3017682Y-5448103D02*
X3008158Y-5486198D01*
X3008158Y-5486198D02*
X3008158Y-5562389D01*
X3008158Y-5562389D02*
X3017682Y-5581436D01*
X3017682Y-5581436D02*
X3027206Y-5590960D01*
X3027206Y-5590960D02*
X3046253Y-5600484D01*
X3046253Y-5600484D02*
X3084348Y-5600484D01*
X3084348Y-5600484D02*
X3103396Y-5590960D01*
X3103396Y-5590960D02*
X3112920Y-5581436D01*
X3112920Y-5581436D02*
X3122444Y-5562389D01*
X3122444Y-5562389D02*
X3122444Y-5514770D01*
X3122444Y-5514770D02*
X3112920Y-5495722D01*
X3112920Y-5495722D02*
X3103396Y-5486198D01*
X3103396Y-5486198D02*
X3084348Y-5476674D01*
X3084348Y-5476674D02*
X3046253Y-5476674D01*
X3046253Y-5476674D02*
X3027206Y-5486198D01*
X3027206Y-5486198D02*
X3017682Y-5495722D01*
X3017682Y-5495722D02*
X3008158Y-5514770D01*
X3198634Y-5400484D02*
X3198634Y-5438579D01*
X3274825Y-5400484D02*
X3274825Y-5438579D01*
X3570063Y-5676674D02*
X3560539Y-5667150D01*
X3560539Y-5667150D02*
X3541491Y-5638579D01*
X3541491Y-5638579D02*
X3531968Y-5619531D01*
X3531968Y-5619531D02*
X3522444Y-5590960D01*
X3522444Y-5590960D02*
X3512920Y-5543341D01*
X3512920Y-5543341D02*
X3512920Y-5505246D01*
X3512920Y-5505246D02*
X3522444Y-5457627D01*
X3522444Y-5457627D02*
X3531968Y-5429055D01*
X3531968Y-5429055D02*
X3541491Y-5410008D01*
X3541491Y-5410008D02*
X3560539Y-5381436D01*
X3560539Y-5381436D02*
X3570063Y-5371912D01*
X3636729Y-5419531D02*
X3646253Y-5410008D01*
X3646253Y-5410008D02*
X3665301Y-5400484D01*
X3665301Y-5400484D02*
X3712920Y-5400484D01*
X3712920Y-5400484D02*
X3731968Y-5410008D01*
X3731968Y-5410008D02*
X3741491Y-5419531D01*
X3741491Y-5419531D02*
X3751015Y-5438579D01*
X3751015Y-5438579D02*
X3751015Y-5457627D01*
X3751015Y-5457627D02*
X3741491Y-5486198D01*
X3741491Y-5486198D02*
X3627206Y-5600484D01*
X3627206Y-5600484D02*
X3751015Y-5600484D01*
X3989110Y-5600484D02*
X3989110Y-5400484D01*
X4074825Y-5600484D02*
X4074825Y-5495722D01*
X4074825Y-5495722D02*
X4065301Y-5476674D01*
X4065301Y-5476674D02*
X4046253Y-5467150D01*
X4046253Y-5467150D02*
X4017682Y-5467150D01*
X4017682Y-5467150D02*
X3998634Y-5476674D01*
X3998634Y-5476674D02*
X3989110Y-5486198D01*
X4198634Y-5600484D02*
X4179587Y-5590960D01*
X4179587Y-5590960D02*
X4170063Y-5581436D01*
X4170063Y-5581436D02*
X4160539Y-5562389D01*
X4160539Y-5562389D02*
X4160539Y-5505246D01*
X4160539Y-5505246D02*
X4170063Y-5486198D01*
X4170063Y-5486198D02*
X4179587Y-5476674D01*
X4179587Y-5476674D02*
X4198634Y-5467150D01*
X4198634Y-5467150D02*
X4227206Y-5467150D01*
X4227206Y-5467150D02*
X4246253Y-5476674D01*
X4246253Y-5476674D02*
X4255777Y-5486198D01*
X4255777Y-5486198D02*
X4265301Y-5505246D01*
X4265301Y-5505246D02*
X4265301Y-5562389D01*
X4265301Y-5562389D02*
X4255777Y-5581436D01*
X4255777Y-5581436D02*
X4246253Y-5590960D01*
X4246253Y-5590960D02*
X4227206Y-5600484D01*
X4227206Y-5600484D02*
X4198634Y-5600484D01*
X4379587Y-5600484D02*
X4360539Y-5590960D01*
X4360539Y-5590960D02*
X4351015Y-5571912D01*
X4351015Y-5571912D02*
X4351015Y-5400484D01*
X4531968Y-5590960D02*
X4512920Y-5600484D01*
X4512920Y-5600484D02*
X4474825Y-5600484D01*
X4474825Y-5600484D02*
X4455777Y-5590960D01*
X4455777Y-5590960D02*
X4446253Y-5571912D01*
X4446253Y-5571912D02*
X4446253Y-5495722D01*
X4446253Y-5495722D02*
X4455777Y-5476674D01*
X4455777Y-5476674D02*
X4474825Y-5467150D01*
X4474825Y-5467150D02*
X4512920Y-5467150D01*
X4512920Y-5467150D02*
X4531968Y-5476674D01*
X4531968Y-5476674D02*
X4541492Y-5495722D01*
X4541492Y-5495722D02*
X4541492Y-5514770D01*
X4541492Y-5514770D02*
X4446253Y-5533817D01*
X4617682Y-5590960D02*
X4636730Y-5600484D01*
X4636730Y-5600484D02*
X4674825Y-5600484D01*
X4674825Y-5600484D02*
X4693873Y-5590960D01*
X4693873Y-5590960D02*
X4703396Y-5571912D01*
X4703396Y-5571912D02*
X4703396Y-5562389D01*
X4703396Y-5562389D02*
X4693873Y-5543341D01*
X4693873Y-5543341D02*
X4674825Y-5533817D01*
X4674825Y-5533817D02*
X4646253Y-5533817D01*
X4646253Y-5533817D02*
X4627206Y-5524293D01*
X4627206Y-5524293D02*
X4617682Y-5505246D01*
X4617682Y-5505246D02*
X4617682Y-5495722D01*
X4617682Y-5495722D02*
X4627206Y-5476674D01*
X4627206Y-5476674D02*
X4646253Y-5467150D01*
X4646253Y-5467150D02*
X4674825Y-5467150D01*
X4674825Y-5467150D02*
X4693873Y-5476674D01*
X4770063Y-5676674D02*
X4779587Y-5667150D01*
X4779587Y-5667150D02*
X4798634Y-5638579D01*
X4798634Y-5638579D02*
X4808158Y-5619531D01*
X4808158Y-5619531D02*
X4817682Y-5590960D01*
X4817682Y-5590960D02*
X4827206Y-5543341D01*
X4827206Y-5543341D02*
X4827206Y-5505246D01*
X4827206Y-5505246D02*
X4817682Y-5457627D01*
X4817682Y-5457627D02*
X4808158Y-5429055D01*
X4808158Y-5429055D02*
X4798634Y-5410008D01*
X4798634Y-5410008D02*
X4779587Y-5381436D01*
X4779587Y-5381436D02*
X4770063Y-5371912D01*
X5131968Y-5676674D02*
X5122444Y-5667150D01*
X5122444Y-5667150D02*
X5103396Y-5638579D01*
X5103396Y-5638579D02*
X5093873Y-5619531D01*
X5093873Y-5619531D02*
X5084349Y-5590960D01*
X5084349Y-5590960D02*
X5074825Y-5543341D01*
X5074825Y-5543341D02*
X5074825Y-5505246D01*
X5074825Y-5505246D02*
X5084349Y-5457627D01*
X5084349Y-5457627D02*
X5093873Y-5429055D01*
X5093873Y-5429055D02*
X5103396Y-5410008D01*
X5103396Y-5410008D02*
X5122444Y-5381436D01*
X5122444Y-5381436D02*
X5131968Y-5371912D01*
X5208158Y-5467150D02*
X5208158Y-5600484D01*
X5208158Y-5486198D02*
X5217682Y-5476674D01*
X5217682Y-5476674D02*
X5236730Y-5467150D01*
X5236730Y-5467150D02*
X5265301Y-5467150D01*
X5265301Y-5467150D02*
X5284349Y-5476674D01*
X5284349Y-5476674D02*
X5293873Y-5495722D01*
X5293873Y-5495722D02*
X5293873Y-5600484D01*
X5417682Y-5600484D02*
X5398634Y-5590960D01*
X5398634Y-5590960D02*
X5389111Y-5581436D01*
X5389111Y-5581436D02*
X5379587Y-5562389D01*
X5379587Y-5562389D02*
X5379587Y-5505246D01*
X5379587Y-5505246D02*
X5389111Y-5486198D01*
X5389111Y-5486198D02*
X5398634Y-5476674D01*
X5398634Y-5476674D02*
X5417682Y-5467150D01*
X5417682Y-5467150D02*
X5446254Y-5467150D01*
X5446254Y-5467150D02*
X5465301Y-5476674D01*
X5465301Y-5476674D02*
X5474825Y-5486198D01*
X5474825Y-5486198D02*
X5484349Y-5505246D01*
X5484349Y-5505246D02*
X5484349Y-5562389D01*
X5484349Y-5562389D02*
X5474825Y-5581436D01*
X5474825Y-5581436D02*
X5465301Y-5590960D01*
X5465301Y-5590960D02*
X5446254Y-5600484D01*
X5446254Y-5600484D02*
X5417682Y-5600484D01*
X5541492Y-5467150D02*
X5617682Y-5467150D01*
X5570063Y-5400484D02*
X5570063Y-5571912D01*
X5570063Y-5571912D02*
X5579587Y-5590960D01*
X5579587Y-5590960D02*
X5598634Y-5600484D01*
X5598634Y-5600484D02*
X5617682Y-5600484D01*
X5836730Y-5467150D02*
X5836730Y-5667150D01*
X5836730Y-5476674D02*
X5855777Y-5467150D01*
X5855777Y-5467150D02*
X5893873Y-5467150D01*
X5893873Y-5467150D02*
X5912920Y-5476674D01*
X5912920Y-5476674D02*
X5922444Y-5486198D01*
X5922444Y-5486198D02*
X5931968Y-5505246D01*
X5931968Y-5505246D02*
X5931968Y-5562389D01*
X5931968Y-5562389D02*
X5922444Y-5581436D01*
X5922444Y-5581436D02*
X5912920Y-5590960D01*
X5912920Y-5590960D02*
X5893873Y-5600484D01*
X5893873Y-5600484D02*
X5855777Y-5600484D01*
X5855777Y-5600484D02*
X5836730Y-5590960D01*
X6046253Y-5600484D02*
X6027206Y-5590960D01*
X6027206Y-5590960D02*
X6017682Y-5571912D01*
X6017682Y-5571912D02*
X6017682Y-5400484D01*
X6208158Y-5600484D02*
X6208158Y-5495722D01*
X6208158Y-5495722D02*
X6198634Y-5476674D01*
X6198634Y-5476674D02*
X6179587Y-5467150D01*
X6179587Y-5467150D02*
X6141492Y-5467150D01*
X6141492Y-5467150D02*
X6122444Y-5476674D01*
X6208158Y-5590960D02*
X6189111Y-5600484D01*
X6189111Y-5600484D02*
X6141492Y-5600484D01*
X6141492Y-5600484D02*
X6122444Y-5590960D01*
X6122444Y-5590960D02*
X6112920Y-5571912D01*
X6112920Y-5571912D02*
X6112920Y-5552865D01*
X6112920Y-5552865D02*
X6122444Y-5533817D01*
X6122444Y-5533817D02*
X6141492Y-5524293D01*
X6141492Y-5524293D02*
X6189111Y-5524293D01*
X6189111Y-5524293D02*
X6208158Y-5514770D01*
X6274825Y-5467150D02*
X6351015Y-5467150D01*
X6303396Y-5400484D02*
X6303396Y-5571912D01*
X6303396Y-5571912D02*
X6312920Y-5590960D01*
X6312920Y-5590960D02*
X6331968Y-5600484D01*
X6331968Y-5600484D02*
X6351015Y-5600484D01*
X6493873Y-5590960D02*
X6474825Y-5600484D01*
X6474825Y-5600484D02*
X6436730Y-5600484D01*
X6436730Y-5600484D02*
X6417682Y-5590960D01*
X6417682Y-5590960D02*
X6408158Y-5571912D01*
X6408158Y-5571912D02*
X6408158Y-5495722D01*
X6408158Y-5495722D02*
X6417682Y-5476674D01*
X6417682Y-5476674D02*
X6436730Y-5467150D01*
X6436730Y-5467150D02*
X6474825Y-5467150D01*
X6474825Y-5467150D02*
X6493873Y-5476674D01*
X6493873Y-5476674D02*
X6503396Y-5495722D01*
X6503396Y-5495722D02*
X6503396Y-5514770D01*
X6503396Y-5514770D02*
X6408158Y-5533817D01*
X6674825Y-5600484D02*
X6674825Y-5400484D01*
X6674825Y-5590960D02*
X6655777Y-5600484D01*
X6655777Y-5600484D02*
X6617682Y-5600484D01*
X6617682Y-5600484D02*
X6598634Y-5590960D01*
X6598634Y-5590960D02*
X6589111Y-5581436D01*
X6589111Y-5581436D02*
X6579587Y-5562389D01*
X6579587Y-5562389D02*
X6579587Y-5505246D01*
X6579587Y-5505246D02*
X6589111Y-5486198D01*
X6589111Y-5486198D02*
X6598634Y-5476674D01*
X6598634Y-5476674D02*
X6617682Y-5467150D01*
X6617682Y-5467150D02*
X6655777Y-5467150D01*
X6655777Y-5467150D02*
X6674825Y-5476674D01*
X6751015Y-5676674D02*
X6760539Y-5667150D01*
X6760539Y-5667150D02*
X6779587Y-5638579D01*
X6779587Y-5638579D02*
X6789111Y-5619531D01*
X6789111Y-5619531D02*
X6798634Y-5590960D01*
X6798634Y-5590960D02*
X6808158Y-5543341D01*
X6808158Y-5543341D02*
X6808158Y-5505246D01*
X6808158Y-5505246D02*
X6798634Y-5457627D01*
X6798634Y-5457627D02*
X6789111Y-5429055D01*
X6789111Y-5429055D02*
X6779587Y-5410008D01*
X6779587Y-5410008D02*
X6760539Y-5381436D01*
X6760539Y-5381436D02*
X6751015Y-5371912D01*
M02*
