%TF.GenerationSoftware,KiCad,Pcbnew,10.0.6*%
%TF.CreationDate,2026-10-05T06:08:17-07:00*%
%TF.ProjectId,plush-toy-v2-A,706c7573-682d-4746-9f79-2d76322d412e,rev?*%
%TF.SameCoordinates,Original*%
%TF.FileFunction,Drillmap*%
%TF.FilePolarity,Positive*%
%FSLAX45Y45*%
G04 Gerber Fmt 4.5, Leading zero omitted, Abs format (unit mm)*
G04 Created by KiCad (PCBNEW 10.0.6) date 2026-10-05 06:08:17*
%MOMM*%
%LPD*%
G01*
G04 APERTURE LIST*
%ADD10C,0.100000*%
%ADD11C,0.200000*%
G04 APERTURE END LIST*
D10*
X0Y-200000D02*
G75*
G02*
X200000Y0I200000J0D01*
G01*
X0Y-4400000D02*
X0Y-200000D01*
X200000Y0D02*
X5000000Y0D01*
X200000Y-4600000D02*
G75*
G02*
X0Y-4400000I0J200000D01*
G01*
X5000000Y0D02*
G75*
G02*
X5200000Y-200000I0J-200000D01*
G01*
X5000000Y-4600000D02*
X200000Y-4600000D01*
X5200000Y-200000D02*
X5200000Y-4400000D01*
X5200000Y-4400000D02*
G75*
G02*
X5000000Y-4600000I-200000J0D01*
G01*
D11*
D10*
X771000Y-2170000D02*
X791000Y-2190000D01*
X791000Y-2170000D02*
X771000Y-2190000D01*
X771000Y-2310000D02*
X791000Y-2330000D01*
X791000Y-2310000D02*
X771000Y-2330000D01*
X841000Y-2100000D02*
X861000Y-2120000D01*
X861000Y-2100000D02*
X841000Y-2120000D01*
X841000Y-2240000D02*
X861000Y-2260000D01*
X861000Y-2240000D02*
X841000Y-2260000D01*
X841000Y-2380000D02*
X861000Y-2400000D01*
X861000Y-2380000D02*
X841000Y-2400000D01*
X911000Y-2170000D02*
X931000Y-2190000D01*
X931000Y-2170000D02*
X911000Y-2190000D01*
X911000Y-2310000D02*
X931000Y-2330000D01*
X931000Y-2310000D02*
X911000Y-2330000D01*
X981000Y-2100000D02*
X1001000Y-2120000D01*
X1001000Y-2100000D02*
X981000Y-2120000D01*
X981000Y-2240000D02*
X1001000Y-2260000D01*
X1001000Y-2240000D02*
X981000Y-2260000D01*
X981000Y-2380000D02*
X1001000Y-2400000D01*
X1001000Y-2380000D02*
X981000Y-2400000D01*
X1051000Y-2170000D02*
X1071000Y-2190000D01*
X1071000Y-2170000D02*
X1051000Y-2190000D01*
X1051000Y-2310000D02*
X1071000Y-2330000D01*
X1071000Y-2310000D02*
X1051000Y-2330000D01*
X3270000Y-3365000D02*
X3290000Y-3385000D01*
X3290000Y-3365000D02*
X3270000Y-3385000D01*
X3270000Y-3475000D02*
X3290000Y-3495000D01*
X3290000Y-3475000D02*
X3270000Y-3495000D01*
X164000Y-1225000D02*
G75*
G02*
X134000Y-1225000I-15000J0D01*
G01*
X134000Y-1225000D02*
G75*
G02*
X164000Y-1225000I15000J0D01*
G01*
X164000Y-2975000D02*
G75*
G02*
X134000Y-2975000I-15000J0D01*
G01*
X134000Y-2975000D02*
G75*
G02*
X164000Y-2975000I15000J0D01*
G01*
X291000Y-2975000D02*
G75*
G02*
X261000Y-2975000I-15000J0D01*
G01*
X261000Y-2975000D02*
G75*
G02*
X291000Y-2975000I15000J0D01*
G01*
X377730Y-3122810D02*
G75*
G02*
X347730Y-3122810I-15000J0D01*
G01*
X347730Y-3122810D02*
G75*
G02*
X377730Y-3122810I15000J0D01*
G01*
X494000Y-3150000D02*
G75*
G02*
X464000Y-3150000I-15000J0D01*
G01*
X464000Y-3150000D02*
G75*
G02*
X494000Y-3150000I15000J0D01*
G01*
X494150Y-2471080D02*
G75*
G02*
X464150Y-2471080I-15000J0D01*
G01*
X464150Y-2471080D02*
G75*
G02*
X494150Y-2471080I15000J0D01*
G01*
X540000Y-600000D02*
G75*
G02*
X510000Y-600000I-15000J0D01*
G01*
X510000Y-600000D02*
G75*
G02*
X540000Y-600000I15000J0D01*
G01*
X552120Y-1347490D02*
G75*
G02*
X522120Y-1347490I-15000J0D01*
G01*
X522120Y-1347490D02*
G75*
G02*
X552120Y-1347490I15000J0D01*
G01*
X663000Y-3226000D02*
G75*
G02*
X633000Y-3226000I-15000J0D01*
G01*
X633000Y-3226000D02*
G75*
G02*
X663000Y-3226000I15000J0D01*
G01*
X681890Y-1103210D02*
G75*
G02*
X651890Y-1103210I-15000J0D01*
G01*
X651890Y-1103210D02*
G75*
G02*
X681890Y-1103210I15000J0D01*
G01*
X747500Y-3175000D02*
G75*
G02*
X717500Y-3175000I-15000J0D01*
G01*
X717500Y-3175000D02*
G75*
G02*
X747500Y-3175000I15000J0D01*
G01*
X753680Y-715680D02*
G75*
G02*
X723680Y-715680I-15000J0D01*
G01*
X723680Y-715680D02*
G75*
G02*
X753680Y-715680I15000J0D01*
G01*
X767210Y-3097500D02*
G75*
G02*
X737210Y-3097500I-15000J0D01*
G01*
X737210Y-3097500D02*
G75*
G02*
X767210Y-3097500I15000J0D01*
G01*
X819070Y-1104760D02*
G75*
G02*
X789070Y-1104760I-15000J0D01*
G01*
X789070Y-1104760D02*
G75*
G02*
X819070Y-1104760I15000J0D01*
G01*
X844090Y-701160D02*
G75*
G02*
X814090Y-701160I-15000J0D01*
G01*
X814090Y-701160D02*
G75*
G02*
X844090Y-701160I15000J0D01*
G01*
X951320Y-4240680D02*
G75*
G02*
X921320Y-4240680I-15000J0D01*
G01*
X921320Y-4240680D02*
G75*
G02*
X951320Y-4240680I15000J0D01*
G01*
X963000Y-3925000D02*
G75*
G02*
X933000Y-3925000I-15000J0D01*
G01*
X933000Y-3925000D02*
G75*
G02*
X963000Y-3925000I15000J0D01*
G01*
X1042590Y-1023210D02*
G75*
G02*
X1012590Y-1023210I-15000J0D01*
G01*
X1012590Y-1023210D02*
G75*
G02*
X1042590Y-1023210I15000J0D01*
G01*
X1070680Y-1346730D02*
G75*
G02*
X1040680Y-1346730I-15000J0D01*
G01*
X1040680Y-1346730D02*
G75*
G02*
X1070680Y-1346730I15000J0D01*
G01*
X1082500Y-3175000D02*
G75*
G02*
X1052500Y-3175000I-15000J0D01*
G01*
X1052500Y-3175000D02*
G75*
G02*
X1082500Y-3175000I15000J0D01*
G01*
X1261000Y-3450000D02*
G75*
G02*
X1231000Y-3450000I-15000J0D01*
G01*
X1231000Y-3450000D02*
G75*
G02*
X1261000Y-3450000I15000J0D01*
G01*
X1368610Y-627860D02*
G75*
G02*
X1338610Y-627860I-15000J0D01*
G01*
X1338610Y-627860D02*
G75*
G02*
X1368610Y-627860I15000J0D01*
G01*
X1515000Y-3755500D02*
G75*
G02*
X1485000Y-3755500I-15000J0D01*
G01*
X1485000Y-3755500D02*
G75*
G02*
X1515000Y-3755500I15000J0D01*
G01*
X1558310Y-3095380D02*
G75*
G02*
X1528310Y-3095380I-15000J0D01*
G01*
X1528310Y-3095380D02*
G75*
G02*
X1558310Y-3095380I15000J0D01*
G01*
X1561440Y-1909500D02*
G75*
G02*
X1531440Y-1909500I-15000J0D01*
G01*
X1531440Y-1909500D02*
G75*
G02*
X1561440Y-1909500I15000J0D01*
G01*
X1566910Y-330270D02*
G75*
G02*
X1536910Y-330270I-15000J0D01*
G01*
X1536910Y-330270D02*
G75*
G02*
X1566910Y-330270I15000J0D01*
G01*
X1609490Y-1103660D02*
G75*
G02*
X1579490Y-1103660I-15000J0D01*
G01*
X1579490Y-1103660D02*
G75*
G02*
X1609490Y-1103660I15000J0D01*
G01*
X1618870Y-1670970D02*
G75*
G02*
X1588870Y-1670970I-15000J0D01*
G01*
X1588870Y-1670970D02*
G75*
G02*
X1618870Y-1670970I15000J0D01*
G01*
X1649710Y-2853330D02*
G75*
G02*
X1619710Y-2853330I-15000J0D01*
G01*
X1619710Y-2853330D02*
G75*
G02*
X1649710Y-2853330I15000J0D01*
G01*
X1649710Y-3701730D02*
G75*
G02*
X1619710Y-3701730I-15000J0D01*
G01*
X1619710Y-3701730D02*
G75*
G02*
X1649710Y-3701730I15000J0D01*
G01*
X1684370Y-1782500D02*
G75*
G02*
X1654370Y-1782500I-15000J0D01*
G01*
X1654370Y-1782500D02*
G75*
G02*
X1684370Y-1782500I15000J0D01*
G01*
X1690000Y-1098000D02*
G75*
G02*
X1660000Y-1098000I-15000J0D01*
G01*
X1660000Y-1098000D02*
G75*
G02*
X1690000Y-1098000I15000J0D01*
G01*
X1720830Y-2365210D02*
G75*
G02*
X1690830Y-2365210I-15000J0D01*
G01*
X1690830Y-2365210D02*
G75*
G02*
X1720830Y-2365210I15000J0D01*
G01*
X1740720Y-1438820D02*
G75*
G02*
X1710720Y-1438820I-15000J0D01*
G01*
X1710720Y-1438820D02*
G75*
G02*
X1740720Y-1438820I15000J0D01*
G01*
X1763960Y-781210D02*
G75*
G02*
X1733960Y-781210I-15000J0D01*
G01*
X1733960Y-781210D02*
G75*
G02*
X1763960Y-781210I15000J0D01*
G01*
X1812230Y-1615970D02*
G75*
G02*
X1782230Y-1615970I-15000J0D01*
G01*
X1782230Y-1615970D02*
G75*
G02*
X1812230Y-1615970I15000J0D01*
G01*
X1817450Y-1528500D02*
G75*
G02*
X1787450Y-1528500I-15000J0D01*
G01*
X1787450Y-1528500D02*
G75*
G02*
X1817450Y-1528500I15000J0D01*
G01*
X1818540Y-1380980D02*
G75*
G02*
X1788540Y-1380980I-15000J0D01*
G01*
X1788540Y-1380980D02*
G75*
G02*
X1818540Y-1380980I15000J0D01*
G01*
X1855110Y-4130380D02*
G75*
G02*
X1825110Y-4130380I-15000J0D01*
G01*
X1825110Y-4130380D02*
G75*
G02*
X1855110Y-4130380I15000J0D01*
G01*
X1875280Y-347850D02*
G75*
G02*
X1845280Y-347850I-15000J0D01*
G01*
X1845280Y-347850D02*
G75*
G02*
X1875280Y-347850I15000J0D01*
G01*
X1877680Y-4388680D02*
G75*
G02*
X1847680Y-4388680I-15000J0D01*
G01*
X1847680Y-4388680D02*
G75*
G02*
X1877680Y-4388680I15000J0D01*
G01*
X1897020Y-3701730D02*
G75*
G02*
X1867020Y-3701730I-15000J0D01*
G01*
X1867020Y-3701730D02*
G75*
G02*
X1897020Y-3701730I15000J0D01*
G01*
X1900000Y-930000D02*
G75*
G02*
X1870000Y-930000I-15000J0D01*
G01*
X1870000Y-930000D02*
G75*
G02*
X1900000Y-930000I15000J0D01*
G01*
X1915000Y-700000D02*
G75*
G02*
X1885000Y-700000I-15000J0D01*
G01*
X1885000Y-700000D02*
G75*
G02*
X1915000Y-700000I15000J0D01*
G01*
X1939520Y-2959630D02*
G75*
G02*
X1909520Y-2959630I-15000J0D01*
G01*
X1909520Y-2959630D02*
G75*
G02*
X1939520Y-2959630I15000J0D01*
G01*
X1973570Y-1244550D02*
G75*
G02*
X1943570Y-1244550I-15000J0D01*
G01*
X1943570Y-1244550D02*
G75*
G02*
X1973570Y-1244550I15000J0D01*
G01*
X2015000Y-879000D02*
G75*
G02*
X1985000Y-879000I-15000J0D01*
G01*
X1985000Y-879000D02*
G75*
G02*
X2015000Y-879000I15000J0D01*
G01*
X2015000Y-1121000D02*
G75*
G02*
X1985000Y-1121000I-15000J0D01*
G01*
X1985000Y-1121000D02*
G75*
G02*
X2015000Y-1121000I15000J0D01*
G01*
X2015000Y-3882500D02*
G75*
G02*
X1985000Y-3882500I-15000J0D01*
G01*
X1985000Y-3882500D02*
G75*
G02*
X2015000Y-3882500I15000J0D01*
G01*
X2017000Y-4244360D02*
G75*
G02*
X1987000Y-4244360I-15000J0D01*
G01*
X1987000Y-4244360D02*
G75*
G02*
X2017000Y-4244360I15000J0D01*
G01*
X2062360Y-2873710D02*
G75*
G02*
X2032360Y-2873710I-15000J0D01*
G01*
X2032360Y-2873710D02*
G75*
G02*
X2062360Y-2873710I15000J0D01*
G01*
X2066000Y-3827000D02*
G75*
G02*
X2036000Y-3827000I-15000J0D01*
G01*
X2036000Y-3827000D02*
G75*
G02*
X2066000Y-3827000I15000J0D01*
G01*
X2103990Y-473370D02*
G75*
G02*
X2073990Y-473370I-15000J0D01*
G01*
X2073990Y-473370D02*
G75*
G02*
X2103990Y-473370I15000J0D01*
G01*
X2110590Y-1751370D02*
G75*
G02*
X2080590Y-1751370I-15000J0D01*
G01*
X2080590Y-1751370D02*
G75*
G02*
X2110590Y-1751370I15000J0D01*
G01*
X2144100Y-3476740D02*
G75*
G02*
X2114100Y-3476740I-15000J0D01*
G01*
X2114100Y-3476740D02*
G75*
G02*
X2144100Y-3476740I15000J0D01*
G01*
X2174320Y-4386320D02*
G75*
G02*
X2144320Y-4386320I-15000J0D01*
G01*
X2144320Y-4386320D02*
G75*
G02*
X2174320Y-4386320I15000J0D01*
G01*
X2217560Y-2671500D02*
G75*
G02*
X2187560Y-2671500I-15000J0D01*
G01*
X2187560Y-2671500D02*
G75*
G02*
X2217560Y-2671500I15000J0D01*
G01*
X2231960Y-839450D02*
G75*
G02*
X2201960Y-839450I-15000J0D01*
G01*
X2201960Y-839450D02*
G75*
G02*
X2231960Y-839450I15000J0D01*
G01*
X2251160Y-702070D02*
G75*
G02*
X2221160Y-702070I-15000J0D01*
G01*
X2221160Y-702070D02*
G75*
G02*
X2251160Y-702070I15000J0D01*
G01*
X2269480Y-1876670D02*
G75*
G02*
X2239480Y-1876670I-15000J0D01*
G01*
X2239480Y-1876670D02*
G75*
G02*
X2269480Y-1876670I15000J0D01*
G01*
X2291060Y-1049210D02*
G75*
G02*
X2261060Y-1049210I-15000J0D01*
G01*
X2261060Y-1049210D02*
G75*
G02*
X2291060Y-1049210I15000J0D01*
G01*
X2292000Y-2150000D02*
G75*
G02*
X2262000Y-2150000I-15000J0D01*
G01*
X2262000Y-2150000D02*
G75*
G02*
X2292000Y-2150000I15000J0D01*
G01*
X2315000Y-2354000D02*
G75*
G02*
X2285000Y-2354000I-15000J0D01*
G01*
X2285000Y-2354000D02*
G75*
G02*
X2315000Y-2354000I15000J0D01*
G01*
X2315000Y-2596000D02*
G75*
G02*
X2285000Y-2596000I-15000J0D01*
G01*
X2285000Y-2596000D02*
G75*
G02*
X2315000Y-2596000I15000J0D01*
G01*
X2317000Y-1675000D02*
G75*
G02*
X2287000Y-1675000I-15000J0D01*
G01*
X2287000Y-1675000D02*
G75*
G02*
X2317000Y-1675000I15000J0D01*
G01*
X2338000Y-4475000D02*
G75*
G02*
X2308000Y-4475000I-15000J0D01*
G01*
X2308000Y-4475000D02*
G75*
G02*
X2338000Y-4475000I15000J0D01*
G01*
X2340000Y-4100000D02*
G75*
G02*
X2310000Y-4100000I-15000J0D01*
G01*
X2310000Y-4100000D02*
G75*
G02*
X2340000Y-4100000I15000J0D01*
G01*
X2349320Y-2788680D02*
G75*
G02*
X2319320Y-2788680I-15000J0D01*
G01*
X2319320Y-2788680D02*
G75*
G02*
X2349320Y-2788680I15000J0D01*
G01*
X2365530Y-3769370D02*
G75*
G02*
X2335530Y-3769370I-15000J0D01*
G01*
X2335530Y-3769370D02*
G75*
G02*
X2365530Y-3769370I15000J0D01*
G01*
X2373500Y-1575430D02*
G75*
G02*
X2343500Y-1575430I-15000J0D01*
G01*
X2343500Y-1575430D02*
G75*
G02*
X2373500Y-1575430I15000J0D01*
G01*
X2382810Y-702200D02*
G75*
G02*
X2352810Y-702200I-15000J0D01*
G01*
X2352810Y-702200D02*
G75*
G02*
X2382810Y-702200I15000J0D01*
G01*
X2465000Y-2680000D02*
G75*
G02*
X2435000Y-2680000I-15000J0D01*
G01*
X2435000Y-2680000D02*
G75*
G02*
X2465000Y-2680000I15000J0D01*
G01*
X2522930Y-774280D02*
G75*
G02*
X2492930Y-774280I-15000J0D01*
G01*
X2492930Y-774280D02*
G75*
G02*
X2522930Y-774280I15000J0D01*
G01*
X2542580Y-2056360D02*
G75*
G02*
X2512580Y-2056360I-15000J0D01*
G01*
X2512580Y-2056360D02*
G75*
G02*
X2542580Y-2056360I15000J0D01*
G01*
X2544700Y-3552970D02*
G75*
G02*
X2514700Y-3552970I-15000J0D01*
G01*
X2514700Y-3552970D02*
G75*
G02*
X2544700Y-3552970I15000J0D01*
G01*
X2546700Y-3175990D02*
G75*
G02*
X2516700Y-3175990I-15000J0D01*
G01*
X2516700Y-3175990D02*
G75*
G02*
X2546700Y-3175990I15000J0D01*
G01*
X2583000Y-1450000D02*
G75*
G02*
X2553000Y-1450000I-15000J0D01*
G01*
X2553000Y-1450000D02*
G75*
G02*
X2583000Y-1450000I15000J0D01*
G01*
X2583000Y-1900000D02*
G75*
G02*
X2553000Y-1900000I-15000J0D01*
G01*
X2553000Y-1900000D02*
G75*
G02*
X2583000Y-1900000I15000J0D01*
G01*
X2598710Y-701000D02*
G75*
G02*
X2568710Y-701000I-15000J0D01*
G01*
X2568710Y-701000D02*
G75*
G02*
X2598710Y-701000I15000J0D01*
G01*
X2620090Y-2041900D02*
G75*
G02*
X2590090Y-2041900I-15000J0D01*
G01*
X2590090Y-2041900D02*
G75*
G02*
X2620090Y-2041900I15000J0D01*
G01*
X2659910Y-2217900D02*
G75*
G02*
X2629910Y-2217900I-15000J0D01*
G01*
X2629910Y-2217900D02*
G75*
G02*
X2659910Y-2217900I15000J0D01*
G01*
X2660000Y-2450000D02*
G75*
G02*
X2630000Y-2450000I-15000J0D01*
G01*
X2630000Y-2450000D02*
G75*
G02*
X2660000Y-2450000I15000J0D01*
G01*
X2704600Y-2138180D02*
G75*
G02*
X2674600Y-2138180I-15000J0D01*
G01*
X2674600Y-2138180D02*
G75*
G02*
X2704600Y-2138180I15000J0D01*
G01*
X2714300Y-4069870D02*
G75*
G02*
X2684300Y-4069870I-15000J0D01*
G01*
X2684300Y-4069870D02*
G75*
G02*
X2714300Y-4069870I15000J0D01*
G01*
X2715000Y-1329000D02*
G75*
G02*
X2685000Y-1329000I-15000J0D01*
G01*
X2685000Y-1329000D02*
G75*
G02*
X2715000Y-1329000I15000J0D01*
G01*
X2715000Y-1827000D02*
G75*
G02*
X2685000Y-1827000I-15000J0D01*
G01*
X2685000Y-1827000D02*
G75*
G02*
X2715000Y-1827000I15000J0D01*
G01*
X2730600Y-918720D02*
G75*
G02*
X2700600Y-918720I-15000J0D01*
G01*
X2700600Y-918720D02*
G75*
G02*
X2730600Y-918720I15000J0D01*
G01*
X2740000Y-2655000D02*
G75*
G02*
X2710000Y-2655000I-15000J0D01*
G01*
X2710000Y-2655000D02*
G75*
G02*
X2740000Y-2655000I15000J0D01*
G01*
X2740000Y-2957500D02*
G75*
G02*
X2710000Y-2957500I-15000J0D01*
G01*
X2710000Y-2957500D02*
G75*
G02*
X2740000Y-2957500I15000J0D01*
G01*
X2769260Y-2358840D02*
G75*
G02*
X2739260Y-2358840I-15000J0D01*
G01*
X2739260Y-2358840D02*
G75*
G02*
X2769260Y-2358840I15000J0D01*
G01*
X2801110Y-3867810D02*
G75*
G02*
X2771110Y-3867810I-15000J0D01*
G01*
X2771110Y-3867810D02*
G75*
G02*
X2801110Y-3867810I15000J0D01*
G01*
X2801280Y-1914720D02*
G75*
G02*
X2771280Y-1914720I-15000J0D01*
G01*
X2771280Y-1914720D02*
G75*
G02*
X2801280Y-1914720I15000J0D01*
G01*
X2815180Y-1175000D02*
G75*
G02*
X2785180Y-1175000I-15000J0D01*
G01*
X2785180Y-1175000D02*
G75*
G02*
X2815180Y-1175000I15000J0D01*
G01*
X2820100Y-699270D02*
G75*
G02*
X2790100Y-699270I-15000J0D01*
G01*
X2790100Y-699270D02*
G75*
G02*
X2820100Y-699270I15000J0D01*
G01*
X2829000Y-1049210D02*
G75*
G02*
X2799000Y-1049210I-15000J0D01*
G01*
X2799000Y-1049210D02*
G75*
G02*
X2829000Y-1049210I15000J0D01*
G01*
X2870930Y-4221580D02*
G75*
G02*
X2840930Y-4221580I-15000J0D01*
G01*
X2840930Y-4221580D02*
G75*
G02*
X2870930Y-4221580I15000J0D01*
G01*
X2889350Y-3565220D02*
G75*
G02*
X2859350Y-3565220I-15000J0D01*
G01*
X2859350Y-3565220D02*
G75*
G02*
X2889350Y-3565220I15000J0D01*
G01*
X2917000Y-1400000D02*
G75*
G02*
X2887000Y-1400000I-15000J0D01*
G01*
X2887000Y-1400000D02*
G75*
G02*
X2917000Y-1400000I15000J0D01*
G01*
X2972780Y-3576440D02*
G75*
G02*
X2942780Y-3576440I-15000J0D01*
G01*
X2942780Y-3576440D02*
G75*
G02*
X2972780Y-3576440I15000J0D01*
G01*
X2975440Y-577050D02*
G75*
G02*
X2945440Y-577050I-15000J0D01*
G01*
X2945440Y-577050D02*
G75*
G02*
X2975440Y-577050I15000J0D01*
G01*
X2995000Y-1800000D02*
G75*
G02*
X2965000Y-1800000I-15000J0D01*
G01*
X2965000Y-1800000D02*
G75*
G02*
X2995000Y-1800000I15000J0D01*
G01*
X3031890Y-626930D02*
G75*
G02*
X3001890Y-626930I-15000J0D01*
G01*
X3001890Y-626930D02*
G75*
G02*
X3031890Y-626930I15000J0D01*
G01*
X3115000Y-2900000D02*
G75*
G02*
X3085000Y-2900000I-15000J0D01*
G01*
X3085000Y-2900000D02*
G75*
G02*
X3115000Y-2900000I15000J0D01*
G01*
X3124040Y-3513880D02*
G75*
G02*
X3094040Y-3513880I-15000J0D01*
G01*
X3094040Y-3513880D02*
G75*
G02*
X3124040Y-3513880I15000J0D01*
G01*
X3155680Y-1511320D02*
G75*
G02*
X3125680Y-1511320I-15000J0D01*
G01*
X3125680Y-1511320D02*
G75*
G02*
X3155680Y-1511320I15000J0D01*
G01*
X3185000Y-1800000D02*
G75*
G02*
X3155000Y-1800000I-15000J0D01*
G01*
X3155000Y-1800000D02*
G75*
G02*
X3185000Y-1800000I15000J0D01*
G01*
X3191000Y-1702000D02*
G75*
G02*
X3161000Y-1702000I-15000J0D01*
G01*
X3161000Y-1702000D02*
G75*
G02*
X3191000Y-1702000I15000J0D01*
G01*
X3288000Y-1200000D02*
G75*
G02*
X3258000Y-1200000I-15000J0D01*
G01*
X3258000Y-1200000D02*
G75*
G02*
X3288000Y-1200000I15000J0D01*
G01*
X3305090Y-3072810D02*
G75*
G02*
X3275090Y-3072810I-15000J0D01*
G01*
X3275090Y-3072810D02*
G75*
G02*
X3305090Y-3072810I15000J0D01*
G01*
X3335490Y-1018250D02*
G75*
G02*
X3305490Y-1018250I-15000J0D01*
G01*
X3305490Y-1018250D02*
G75*
G02*
X3335490Y-1018250I15000J0D01*
G01*
X3386000Y-1325000D02*
G75*
G02*
X3356000Y-1325000I-15000J0D01*
G01*
X3356000Y-1325000D02*
G75*
G02*
X3386000Y-1325000I15000J0D01*
G01*
X3387780Y-3173120D02*
G75*
G02*
X3357780Y-3173120I-15000J0D01*
G01*
X3357780Y-3173120D02*
G75*
G02*
X3387780Y-3173120I15000J0D01*
G01*
X3415000Y-549500D02*
G75*
G02*
X3385000Y-549500I-15000J0D01*
G01*
X3385000Y-549500D02*
G75*
G02*
X3415000Y-549500I15000J0D01*
G01*
X3442960Y-3225000D02*
G75*
G02*
X3412960Y-3225000I-15000J0D01*
G01*
X3412960Y-3225000D02*
G75*
G02*
X3442960Y-3225000I15000J0D01*
G01*
X3453370Y-2846520D02*
G75*
G02*
X3423370Y-2846520I-15000J0D01*
G01*
X3423370Y-2846520D02*
G75*
G02*
X3453370Y-2846520I15000J0D01*
G01*
X3467870Y-2503380D02*
G75*
G02*
X3437870Y-2503380I-15000J0D01*
G01*
X3437870Y-2503380D02*
G75*
G02*
X3467870Y-2503380I15000J0D01*
G01*
X3494350Y-1122730D02*
G75*
G02*
X3464350Y-1122730I-15000J0D01*
G01*
X3464350Y-1122730D02*
G75*
G02*
X3494350Y-1122730I15000J0D01*
G01*
X3540490Y-3156250D02*
G75*
G02*
X3510490Y-3156250I-15000J0D01*
G01*
X3510490Y-3156250D02*
G75*
G02*
X3540490Y-3156250I15000J0D01*
G01*
X3626560Y-1122250D02*
G75*
G02*
X3596560Y-1122250I-15000J0D01*
G01*
X3596560Y-1122250D02*
G75*
G02*
X3626560Y-1122250I15000J0D01*
G01*
X3626560Y-1471640D02*
G75*
G02*
X3596560Y-1471640I-15000J0D01*
G01*
X3596560Y-1471640D02*
G75*
G02*
X3626560Y-1471640I15000J0D01*
G01*
X3635140Y-2654750D02*
G75*
G02*
X3605140Y-2654750I-15000J0D01*
G01*
X3605140Y-2654750D02*
G75*
G02*
X3635140Y-2654750I15000J0D01*
G01*
X3640000Y-1725000D02*
G75*
G02*
X3610000Y-1725000I-15000J0D01*
G01*
X3610000Y-1725000D02*
G75*
G02*
X3640000Y-1725000I15000J0D01*
G01*
X3640000Y-2250000D02*
G75*
G02*
X3610000Y-2250000I-15000J0D01*
G01*
X3610000Y-2250000D02*
G75*
G02*
X3640000Y-2250000I15000J0D01*
G01*
X3675000Y-3300000D02*
G75*
G02*
X3645000Y-3300000I-15000J0D01*
G01*
X3645000Y-3300000D02*
G75*
G02*
X3675000Y-3300000I15000J0D01*
G01*
X3688000Y-3775000D02*
G75*
G02*
X3658000Y-3775000I-15000J0D01*
G01*
X3658000Y-3775000D02*
G75*
G02*
X3688000Y-3775000I15000J0D01*
G01*
X3710000Y-1375000D02*
G75*
G02*
X3680000Y-1375000I-15000J0D01*
G01*
X3680000Y-1375000D02*
G75*
G02*
X3710000Y-1375000I15000J0D01*
G01*
X3713000Y-1200000D02*
G75*
G02*
X3683000Y-1200000I-15000J0D01*
G01*
X3683000Y-1200000D02*
G75*
G02*
X3713000Y-1200000I15000J0D01*
G01*
X3720000Y-2550000D02*
G75*
G02*
X3690000Y-2550000I-15000J0D01*
G01*
X3690000Y-2550000D02*
G75*
G02*
X3720000Y-2550000I15000J0D01*
G01*
X3765000Y-2805000D02*
G75*
G02*
X3735000Y-2805000I-15000J0D01*
G01*
X3735000Y-2805000D02*
G75*
G02*
X3765000Y-2805000I15000J0D01*
G01*
X3807500Y-3625000D02*
G75*
G02*
X3777500Y-3625000I-15000J0D01*
G01*
X3777500Y-3625000D02*
G75*
G02*
X3807500Y-3625000I15000J0D01*
G01*
X3810120Y-1517770D02*
G75*
G02*
X3780120Y-1517770I-15000J0D01*
G01*
X3780120Y-1517770D02*
G75*
G02*
X3810120Y-1517770I15000J0D01*
G01*
X3815000Y-549500D02*
G75*
G02*
X3785000Y-549500I-15000J0D01*
G01*
X3785000Y-549500D02*
G75*
G02*
X3815000Y-549500I15000J0D01*
G01*
X3838260Y-1704100D02*
G75*
G02*
X3808260Y-1704100I-15000J0D01*
G01*
X3808260Y-1704100D02*
G75*
G02*
X3838260Y-1704100I15000J0D01*
G01*
X3910000Y-2550000D02*
G75*
G02*
X3880000Y-2550000I-15000J0D01*
G01*
X3880000Y-2550000D02*
G75*
G02*
X3910000Y-2550000I15000J0D01*
G01*
X3915000Y-549500D02*
G75*
G02*
X3885000Y-549500I-15000J0D01*
G01*
X3885000Y-549500D02*
G75*
G02*
X3915000Y-549500I15000J0D01*
G01*
X3942430Y-3804600D02*
G75*
G02*
X3912430Y-3804600I-15000J0D01*
G01*
X3912430Y-3804600D02*
G75*
G02*
X3942430Y-3804600I15000J0D01*
G01*
X3991580Y-2814690D02*
G75*
G02*
X3961580Y-2814690I-15000J0D01*
G01*
X3961580Y-2814690D02*
G75*
G02*
X3991580Y-2814690I15000J0D01*
G01*
X4074750Y-3263300D02*
G75*
G02*
X4044750Y-3263300I-15000J0D01*
G01*
X4044750Y-3263300D02*
G75*
G02*
X4074750Y-3263300I15000J0D01*
G01*
X4132500Y-1975000D02*
G75*
G02*
X4102500Y-1975000I-15000J0D01*
G01*
X4102500Y-1975000D02*
G75*
G02*
X4132500Y-1975000I15000J0D01*
G01*
X4165000Y-254000D02*
G75*
G02*
X4135000Y-254000I-15000J0D01*
G01*
X4135000Y-254000D02*
G75*
G02*
X4165000Y-254000I15000J0D01*
G01*
X4165000Y-496000D02*
G75*
G02*
X4135000Y-496000I-15000J0D01*
G01*
X4135000Y-496000D02*
G75*
G02*
X4165000Y-496000I15000J0D01*
G01*
X4174320Y-3713680D02*
G75*
G02*
X4144320Y-3713680I-15000J0D01*
G01*
X4144320Y-3713680D02*
G75*
G02*
X4174320Y-3713680I15000J0D01*
G01*
X4411000Y-3800000D02*
G75*
G02*
X4381000Y-3800000I-15000J0D01*
G01*
X4381000Y-3800000D02*
G75*
G02*
X4411000Y-3800000I15000J0D01*
G01*
X4510000Y-650000D02*
G75*
G02*
X4480000Y-650000I-15000J0D01*
G01*
X4480000Y-650000D02*
G75*
G02*
X4510000Y-650000I15000J0D01*
G01*
X4555500Y-896000D02*
G75*
G02*
X4525500Y-896000I-15000J0D01*
G01*
X4525500Y-896000D02*
G75*
G02*
X4555500Y-896000I15000J0D01*
G01*
X4555500Y-1746000D02*
G75*
G02*
X4525500Y-1746000I-15000J0D01*
G01*
X4525500Y-1746000D02*
G75*
G02*
X4555500Y-1746000I15000J0D01*
G01*
X4800910Y-3898840D02*
G75*
G02*
X4770910Y-3898840I-15000J0D01*
G01*
X4770910Y-3898840D02*
G75*
G02*
X4800910Y-3898840I15000J0D01*
G01*
X4885000Y-625000D02*
G75*
G02*
X4855000Y-625000I-15000J0D01*
G01*
X4855000Y-625000D02*
G75*
G02*
X4885000Y-625000I15000J0D01*
G01*
X5090000Y-3854000D02*
G75*
G02*
X5060000Y-3854000I-15000J0D01*
G01*
X5060000Y-3854000D02*
G75*
G02*
X5090000Y-3854000I15000J0D01*
G01*
X5115000Y-4348000D02*
G75*
G02*
X5085000Y-4348000I-15000J0D01*
G01*
X5085000Y-4348000D02*
G75*
G02*
X5115000Y-4348000I15000J0D01*
G01*
X930410Y-4111410D02*
X930410Y-4151410D01*
X910410Y-4131410D02*
X950410Y-4131410D01*
X2091760Y-3082730D02*
X2091760Y-3122730D01*
X2071760Y-3102730D02*
X2111760Y-3102730D01*
X2160870Y-3338240D02*
X2160870Y-3378240D01*
X2140870Y-3358240D02*
X2180870Y-3358240D01*
X2558580Y-2759060D02*
X2558580Y-2799060D01*
X2538580Y-2779060D02*
X2578580Y-2779060D01*
X2590020Y-2565240D02*
X2590020Y-2605240D01*
X2570020Y-2585240D02*
X2610020Y-2585240D01*
X2871950Y-2742160D02*
X2871950Y-2782160D01*
X2851950Y-2762160D02*
X2891950Y-2762160D01*
X2909000Y-2478830D02*
X2909000Y-2518830D01*
X2889000Y-2498830D02*
X2929000Y-2498830D01*
X2971700Y-3039250D02*
X2971700Y-3079250D01*
X2951700Y-3059250D02*
X2991700Y-3059250D01*
X3099000Y-1280880D02*
X3099000Y-1320880D01*
X3079000Y-1300880D02*
X3119000Y-1300880D01*
X3354180Y-3561030D02*
X3354180Y-3601030D01*
X3334180Y-3581030D02*
X3374180Y-3581030D01*
X3505000Y-1494320D02*
X3505000Y-1534320D01*
X3485000Y-1514320D02*
X3525000Y-1514320D01*
X3606430Y-2135000D02*
X3606430Y-2175000D01*
X3586430Y-2155000D02*
X3626430Y-2155000D01*
X3782500Y-1955000D02*
X3782500Y-1995000D01*
X3762500Y-1975000D02*
X3802500Y-1975000D01*
X3796250Y-3500000D02*
X3796250Y-3540000D01*
X3776250Y-3520000D02*
X3816250Y-3520000D01*
X3896610Y-3055000D02*
X3896610Y-3095000D01*
X3876610Y-3075000D02*
X3916610Y-3075000D01*
X4027000Y-3331000D02*
X4027000Y-3371000D01*
X4007000Y-3351000D02*
X4047000Y-3351000D01*
X4052080Y-2398770D02*
X4052080Y-2438770D01*
X4032080Y-2418770D02*
X4072080Y-2418770D01*
X4450120Y-1549870D02*
X4450120Y-1589870D01*
X4430120Y-1569870D02*
X4470120Y-1569870D01*
X4473220Y-2805000D02*
X4473220Y-2845000D01*
X4453220Y-2825000D02*
X4493220Y-2825000D01*
X4540500Y-1130000D02*
X4540500Y-1170000D01*
X4520500Y-1150000D02*
X4560500Y-1150000D01*
X4540500Y-1980000D02*
X4540500Y-2020000D01*
X4520500Y-2000000D02*
X4560500Y-2000000D01*
X2469213Y-3843713D02*
X2469213Y-3801287D01*
X2426787Y-3801287D01*
X2426787Y-3843713D01*
X2469213Y-3843713D01*
X2418000Y-3767500D02*
X2418000Y-3877500D01*
X2478000Y-3877500D02*
G75*
G02*
X2418000Y-3877500I-30000J0D01*
G01*
X2478000Y-3877500D02*
X2478000Y-3767500D01*
X2478000Y-3767500D02*
G75*
G03*
X2418000Y-3767500I-30000J0D01*
G01*
X2469213Y-4261713D02*
X2469213Y-4219287D01*
X2426787Y-4219287D01*
X2426787Y-4261713D01*
X2469213Y-4261713D01*
X2418000Y-4210500D02*
X2418000Y-4270500D01*
X2478000Y-4270500D02*
G75*
G02*
X2418000Y-4270500I-30000J0D01*
G01*
X2478000Y-4270500D02*
X2478000Y-4210500D01*
X2478000Y-4210500D02*
G75*
G03*
X2418000Y-4210500I-30000J0D01*
G01*
X3333213Y-3843713D02*
X3333213Y-3801287D01*
X3290787Y-3801287D01*
X3290787Y-3843713D01*
X3333213Y-3843713D01*
X3282000Y-3767500D02*
X3282000Y-3877500D01*
X3342000Y-3877500D02*
G75*
G02*
X3282000Y-3877500I-30000J0D01*
G01*
X3342000Y-3877500D02*
X3342000Y-3767500D01*
X3342000Y-3767500D02*
G75*
G03*
X3282000Y-3767500I-30000J0D01*
G01*
X3333213Y-4261713D02*
X3333213Y-4219287D01*
X3290787Y-4219287D01*
X3290787Y-4261713D01*
X3333213Y-4261713D01*
X3282000Y-4210500D02*
X3282000Y-4270500D01*
X3342000Y-4270500D02*
G75*
G02*
X3282000Y-4270500I-30000J0D01*
G01*
X3342000Y-4270500D02*
X3342000Y-4210500D01*
X3342000Y-4210500D02*
G75*
G03*
X3282000Y-4210500I-30000J0D01*
G01*
D11*
X255777Y-4916484D02*
X255777Y-4716484D01*
X255777Y-4716484D02*
X303396Y-4716484D01*
X303396Y-4716484D02*
X331967Y-4726008D01*
X331967Y-4726008D02*
X351015Y-4745055D01*
X351015Y-4745055D02*
X360539Y-4764103D01*
X360539Y-4764103D02*
X370062Y-4802198D01*
X370062Y-4802198D02*
X370062Y-4830770D01*
X370062Y-4830770D02*
X360539Y-4868865D01*
X360539Y-4868865D02*
X351015Y-4887912D01*
X351015Y-4887912D02*
X331967Y-4906960D01*
X331967Y-4906960D02*
X303396Y-4916484D01*
X303396Y-4916484D02*
X255777Y-4916484D01*
X455777Y-4916484D02*
X455777Y-4783150D01*
X455777Y-4821246D02*
X465301Y-4802198D01*
X465301Y-4802198D02*
X474824Y-4792674D01*
X474824Y-4792674D02*
X493872Y-4783150D01*
X493872Y-4783150D02*
X512920Y-4783150D01*
X579586Y-4916484D02*
X579586Y-4783150D01*
X579586Y-4716484D02*
X570063Y-4726008D01*
X570063Y-4726008D02*
X579586Y-4735531D01*
X579586Y-4735531D02*
X589110Y-4726008D01*
X589110Y-4726008D02*
X579586Y-4716484D01*
X579586Y-4716484D02*
X579586Y-4735531D01*
X703396Y-4916484D02*
X684348Y-4906960D01*
X684348Y-4906960D02*
X674824Y-4887912D01*
X674824Y-4887912D02*
X674824Y-4716484D01*
X808158Y-4916484D02*
X789110Y-4906960D01*
X789110Y-4906960D02*
X779586Y-4887912D01*
X779586Y-4887912D02*
X779586Y-4716484D01*
X1036729Y-4916484D02*
X1036729Y-4716484D01*
X1036729Y-4716484D02*
X1103396Y-4859341D01*
X1103396Y-4859341D02*
X1170063Y-4716484D01*
X1170063Y-4716484D02*
X1170063Y-4916484D01*
X1351015Y-4916484D02*
X1351015Y-4811722D01*
X1351015Y-4811722D02*
X1341491Y-4792674D01*
X1341491Y-4792674D02*
X1322444Y-4783150D01*
X1322444Y-4783150D02*
X1284348Y-4783150D01*
X1284348Y-4783150D02*
X1265301Y-4792674D01*
X1351015Y-4906960D02*
X1331967Y-4916484D01*
X1331967Y-4916484D02*
X1284348Y-4916484D01*
X1284348Y-4916484D02*
X1265301Y-4906960D01*
X1265301Y-4906960D02*
X1255777Y-4887912D01*
X1255777Y-4887912D02*
X1255777Y-4868865D01*
X1255777Y-4868865D02*
X1265301Y-4849817D01*
X1265301Y-4849817D02*
X1284348Y-4840293D01*
X1284348Y-4840293D02*
X1331967Y-4840293D01*
X1331967Y-4840293D02*
X1351015Y-4830770D01*
X1446253Y-4783150D02*
X1446253Y-4983150D01*
X1446253Y-4792674D02*
X1465301Y-4783150D01*
X1465301Y-4783150D02*
X1503396Y-4783150D01*
X1503396Y-4783150D02*
X1522443Y-4792674D01*
X1522443Y-4792674D02*
X1531967Y-4802198D01*
X1531967Y-4802198D02*
X1541491Y-4821246D01*
X1541491Y-4821246D02*
X1541491Y-4878389D01*
X1541491Y-4878389D02*
X1531967Y-4897436D01*
X1531967Y-4897436D02*
X1522443Y-4906960D01*
X1522443Y-4906960D02*
X1503396Y-4916484D01*
X1503396Y-4916484D02*
X1465301Y-4916484D01*
X1465301Y-4916484D02*
X1446253Y-4906960D01*
X1627205Y-4897436D02*
X1636729Y-4906960D01*
X1636729Y-4906960D02*
X1627205Y-4916484D01*
X1627205Y-4916484D02*
X1617682Y-4906960D01*
X1617682Y-4906960D02*
X1627205Y-4897436D01*
X1627205Y-4897436D02*
X1627205Y-4916484D01*
X1627205Y-4792674D02*
X1636729Y-4802198D01*
X1636729Y-4802198D02*
X1627205Y-4811722D01*
X1627205Y-4811722D02*
X1617682Y-4802198D01*
X1617682Y-4802198D02*
X1627205Y-4792674D01*
X1627205Y-4792674D02*
X1627205Y-4811722D01*
D10*
X-25000Y-5235000D02*
X-5000Y-5255000D01*
X-5000Y-5235000D02*
X-25000Y-5255000D01*
D11*
X293872Y-5136484D02*
X312920Y-5136484D01*
X312920Y-5136484D02*
X331967Y-5146008D01*
X331967Y-5146008D02*
X341491Y-5155531D01*
X341491Y-5155531D02*
X351015Y-5174579D01*
X351015Y-5174579D02*
X360539Y-5212674D01*
X360539Y-5212674D02*
X360539Y-5260293D01*
X360539Y-5260293D02*
X351015Y-5298389D01*
X351015Y-5298389D02*
X341491Y-5317436D01*
X341491Y-5317436D02*
X331967Y-5326960D01*
X331967Y-5326960D02*
X312920Y-5336484D01*
X312920Y-5336484D02*
X293872Y-5336484D01*
X293872Y-5336484D02*
X274824Y-5326960D01*
X274824Y-5326960D02*
X265301Y-5317436D01*
X265301Y-5317436D02*
X255777Y-5298389D01*
X255777Y-5298389D02*
X246253Y-5260293D01*
X246253Y-5260293D02*
X246253Y-5212674D01*
X246253Y-5212674D02*
X255777Y-5174579D01*
X255777Y-5174579D02*
X265301Y-5155531D01*
X265301Y-5155531D02*
X274824Y-5146008D01*
X274824Y-5146008D02*
X293872Y-5136484D01*
X446253Y-5317436D02*
X455777Y-5326960D01*
X455777Y-5326960D02*
X446253Y-5336484D01*
X446253Y-5336484D02*
X436729Y-5326960D01*
X436729Y-5326960D02*
X446253Y-5317436D01*
X446253Y-5317436D02*
X446253Y-5336484D01*
X531967Y-5155531D02*
X541491Y-5146008D01*
X541491Y-5146008D02*
X560539Y-5136484D01*
X560539Y-5136484D02*
X608158Y-5136484D01*
X608158Y-5136484D02*
X627205Y-5146008D01*
X627205Y-5146008D02*
X636729Y-5155531D01*
X636729Y-5155531D02*
X646253Y-5174579D01*
X646253Y-5174579D02*
X646253Y-5193627D01*
X646253Y-5193627D02*
X636729Y-5222198D01*
X636729Y-5222198D02*
X522443Y-5336484D01*
X522443Y-5336484D02*
X646253Y-5336484D01*
X770062Y-5136484D02*
X789110Y-5136484D01*
X789110Y-5136484D02*
X808158Y-5146008D01*
X808158Y-5146008D02*
X817682Y-5155531D01*
X817682Y-5155531D02*
X827205Y-5174579D01*
X827205Y-5174579D02*
X836729Y-5212674D01*
X836729Y-5212674D02*
X836729Y-5260293D01*
X836729Y-5260293D02*
X827205Y-5298389D01*
X827205Y-5298389D02*
X817682Y-5317436D01*
X817682Y-5317436D02*
X808158Y-5326960D01*
X808158Y-5326960D02*
X789110Y-5336484D01*
X789110Y-5336484D02*
X770062Y-5336484D01*
X770062Y-5336484D02*
X751015Y-5326960D01*
X751015Y-5326960D02*
X741491Y-5317436D01*
X741491Y-5317436D02*
X731967Y-5298389D01*
X731967Y-5298389D02*
X722443Y-5260293D01*
X722443Y-5260293D02*
X722443Y-5212674D01*
X722443Y-5212674D02*
X731967Y-5174579D01*
X731967Y-5174579D02*
X741491Y-5155531D01*
X741491Y-5155531D02*
X751015Y-5146008D01*
X751015Y-5146008D02*
X770062Y-5136484D01*
X960539Y-5136484D02*
X979586Y-5136484D01*
X979586Y-5136484D02*
X998634Y-5146008D01*
X998634Y-5146008D02*
X1008158Y-5155531D01*
X1008158Y-5155531D02*
X1017682Y-5174579D01*
X1017682Y-5174579D02*
X1027205Y-5212674D01*
X1027205Y-5212674D02*
X1027205Y-5260293D01*
X1027205Y-5260293D02*
X1017682Y-5298389D01*
X1017682Y-5298389D02*
X1008158Y-5317436D01*
X1008158Y-5317436D02*
X998634Y-5326960D01*
X998634Y-5326960D02*
X979586Y-5336484D01*
X979586Y-5336484D02*
X960539Y-5336484D01*
X960539Y-5336484D02*
X941491Y-5326960D01*
X941491Y-5326960D02*
X931967Y-5317436D01*
X931967Y-5317436D02*
X922443Y-5298389D01*
X922443Y-5298389D02*
X912920Y-5260293D01*
X912920Y-5260293D02*
X912920Y-5212674D01*
X912920Y-5212674D02*
X922443Y-5174579D01*
X922443Y-5174579D02*
X931967Y-5155531D01*
X931967Y-5155531D02*
X941491Y-5146008D01*
X941491Y-5146008D02*
X960539Y-5136484D01*
X1112920Y-5336484D02*
X1112920Y-5203150D01*
X1112920Y-5222198D02*
X1122444Y-5212674D01*
X1122444Y-5212674D02*
X1141491Y-5203150D01*
X1141491Y-5203150D02*
X1170063Y-5203150D01*
X1170063Y-5203150D02*
X1189110Y-5212674D01*
X1189110Y-5212674D02*
X1198634Y-5231722D01*
X1198634Y-5231722D02*
X1198634Y-5336484D01*
X1198634Y-5231722D02*
X1208158Y-5212674D01*
X1208158Y-5212674D02*
X1227205Y-5203150D01*
X1227205Y-5203150D02*
X1255777Y-5203150D01*
X1255777Y-5203150D02*
X1274825Y-5212674D01*
X1274825Y-5212674D02*
X1284348Y-5231722D01*
X1284348Y-5231722D02*
X1284348Y-5336484D01*
X1379586Y-5336484D02*
X1379586Y-5203150D01*
X1379586Y-5222198D02*
X1389110Y-5212674D01*
X1389110Y-5212674D02*
X1408158Y-5203150D01*
X1408158Y-5203150D02*
X1436729Y-5203150D01*
X1436729Y-5203150D02*
X1455777Y-5212674D01*
X1455777Y-5212674D02*
X1465301Y-5231722D01*
X1465301Y-5231722D02*
X1465301Y-5336484D01*
X1465301Y-5231722D02*
X1474824Y-5212674D01*
X1474824Y-5212674D02*
X1493872Y-5203150D01*
X1493872Y-5203150D02*
X1522443Y-5203150D01*
X1522443Y-5203150D02*
X1541491Y-5212674D01*
X1541491Y-5212674D02*
X1551015Y-5231722D01*
X1551015Y-5231722D02*
X1551015Y-5336484D01*
X1941491Y-5126960D02*
X1770063Y-5384103D01*
X2198634Y-5136484D02*
X2217682Y-5136484D01*
X2217682Y-5136484D02*
X2236729Y-5146008D01*
X2236729Y-5146008D02*
X2246253Y-5155531D01*
X2246253Y-5155531D02*
X2255777Y-5174579D01*
X2255777Y-5174579D02*
X2265301Y-5212674D01*
X2265301Y-5212674D02*
X2265301Y-5260293D01*
X2265301Y-5260293D02*
X2255777Y-5298389D01*
X2255777Y-5298389D02*
X2246253Y-5317436D01*
X2246253Y-5317436D02*
X2236729Y-5326960D01*
X2236729Y-5326960D02*
X2217682Y-5336484D01*
X2217682Y-5336484D02*
X2198634Y-5336484D01*
X2198634Y-5336484D02*
X2179587Y-5326960D01*
X2179587Y-5326960D02*
X2170063Y-5317436D01*
X2170063Y-5317436D02*
X2160539Y-5298389D01*
X2160539Y-5298389D02*
X2151015Y-5260293D01*
X2151015Y-5260293D02*
X2151015Y-5212674D01*
X2151015Y-5212674D02*
X2160539Y-5174579D01*
X2160539Y-5174579D02*
X2170063Y-5155531D01*
X2170063Y-5155531D02*
X2179587Y-5146008D01*
X2179587Y-5146008D02*
X2198634Y-5136484D01*
X2351015Y-5317436D02*
X2360539Y-5326960D01*
X2360539Y-5326960D02*
X2351015Y-5336484D01*
X2351015Y-5336484D02*
X2341491Y-5326960D01*
X2341491Y-5326960D02*
X2351015Y-5317436D01*
X2351015Y-5317436D02*
X2351015Y-5336484D01*
X2484348Y-5136484D02*
X2503396Y-5136484D01*
X2503396Y-5136484D02*
X2522444Y-5146008D01*
X2522444Y-5146008D02*
X2531968Y-5155531D01*
X2531968Y-5155531D02*
X2541491Y-5174579D01*
X2541491Y-5174579D02*
X2551015Y-5212674D01*
X2551015Y-5212674D02*
X2551015Y-5260293D01*
X2551015Y-5260293D02*
X2541491Y-5298389D01*
X2541491Y-5298389D02*
X2531968Y-5317436D01*
X2531968Y-5317436D02*
X2522444Y-5326960D01*
X2522444Y-5326960D02*
X2503396Y-5336484D01*
X2503396Y-5336484D02*
X2484348Y-5336484D01*
X2484348Y-5336484D02*
X2465301Y-5326960D01*
X2465301Y-5326960D02*
X2455777Y-5317436D01*
X2455777Y-5317436D02*
X2446253Y-5298389D01*
X2446253Y-5298389D02*
X2436729Y-5260293D01*
X2436729Y-5260293D02*
X2436729Y-5212674D01*
X2436729Y-5212674D02*
X2446253Y-5174579D01*
X2446253Y-5174579D02*
X2455777Y-5155531D01*
X2455777Y-5155531D02*
X2465301Y-5146008D01*
X2465301Y-5146008D02*
X2484348Y-5136484D01*
X2674825Y-5136484D02*
X2693872Y-5136484D01*
X2693872Y-5136484D02*
X2712920Y-5146008D01*
X2712920Y-5146008D02*
X2722444Y-5155531D01*
X2722444Y-5155531D02*
X2731968Y-5174579D01*
X2731968Y-5174579D02*
X2741491Y-5212674D01*
X2741491Y-5212674D02*
X2741491Y-5260293D01*
X2741491Y-5260293D02*
X2731968Y-5298389D01*
X2731968Y-5298389D02*
X2722444Y-5317436D01*
X2722444Y-5317436D02*
X2712920Y-5326960D01*
X2712920Y-5326960D02*
X2693872Y-5336484D01*
X2693872Y-5336484D02*
X2674825Y-5336484D01*
X2674825Y-5336484D02*
X2655777Y-5326960D01*
X2655777Y-5326960D02*
X2646253Y-5317436D01*
X2646253Y-5317436D02*
X2636729Y-5298389D01*
X2636729Y-5298389D02*
X2627206Y-5260293D01*
X2627206Y-5260293D02*
X2627206Y-5212674D01*
X2627206Y-5212674D02*
X2636729Y-5174579D01*
X2636729Y-5174579D02*
X2646253Y-5155531D01*
X2646253Y-5155531D02*
X2655777Y-5146008D01*
X2655777Y-5146008D02*
X2674825Y-5136484D01*
X2808158Y-5136484D02*
X2941491Y-5136484D01*
X2941491Y-5136484D02*
X2855777Y-5336484D01*
X3027206Y-5336484D02*
X3065301Y-5336484D01*
X3065301Y-5336484D02*
X3084348Y-5326960D01*
X3084348Y-5326960D02*
X3093872Y-5317436D01*
X3093872Y-5317436D02*
X3112920Y-5288865D01*
X3112920Y-5288865D02*
X3122444Y-5250770D01*
X3122444Y-5250770D02*
X3122444Y-5174579D01*
X3122444Y-5174579D02*
X3112920Y-5155531D01*
X3112920Y-5155531D02*
X3103396Y-5146008D01*
X3103396Y-5146008D02*
X3084348Y-5136484D01*
X3084348Y-5136484D02*
X3046253Y-5136484D01*
X3046253Y-5136484D02*
X3027206Y-5146008D01*
X3027206Y-5146008D02*
X3017682Y-5155531D01*
X3017682Y-5155531D02*
X3008158Y-5174579D01*
X3008158Y-5174579D02*
X3008158Y-5222198D01*
X3008158Y-5222198D02*
X3017682Y-5241246D01*
X3017682Y-5241246D02*
X3027206Y-5250770D01*
X3027206Y-5250770D02*
X3046253Y-5260293D01*
X3046253Y-5260293D02*
X3084348Y-5260293D01*
X3084348Y-5260293D02*
X3103396Y-5250770D01*
X3103396Y-5250770D02*
X3112920Y-5241246D01*
X3112920Y-5241246D02*
X3122444Y-5222198D01*
X3198634Y-5136484D02*
X3198634Y-5174579D01*
X3274825Y-5136484D02*
X3274825Y-5174579D01*
X3570063Y-5412674D02*
X3560539Y-5403150D01*
X3560539Y-5403150D02*
X3541491Y-5374579D01*
X3541491Y-5374579D02*
X3531968Y-5355531D01*
X3531968Y-5355531D02*
X3522444Y-5326960D01*
X3522444Y-5326960D02*
X3512920Y-5279341D01*
X3512920Y-5279341D02*
X3512920Y-5241246D01*
X3512920Y-5241246D02*
X3522444Y-5193627D01*
X3522444Y-5193627D02*
X3531968Y-5165055D01*
X3531968Y-5165055D02*
X3541491Y-5146008D01*
X3541491Y-5146008D02*
X3560539Y-5117436D01*
X3560539Y-5117436D02*
X3570063Y-5107912D01*
X3751015Y-5336484D02*
X3636729Y-5336484D01*
X3693872Y-5336484D02*
X3693872Y-5136484D01*
X3693872Y-5136484D02*
X3674825Y-5165055D01*
X3674825Y-5165055D02*
X3655777Y-5184103D01*
X3655777Y-5184103D02*
X3636729Y-5193627D01*
X3922444Y-5203150D02*
X3922444Y-5336484D01*
X3874825Y-5126960D02*
X3827206Y-5269817D01*
X3827206Y-5269817D02*
X3951015Y-5269817D01*
X4179587Y-5336484D02*
X4179587Y-5136484D01*
X4265301Y-5336484D02*
X4265301Y-5231722D01*
X4265301Y-5231722D02*
X4255777Y-5212674D01*
X4255777Y-5212674D02*
X4236730Y-5203150D01*
X4236730Y-5203150D02*
X4208158Y-5203150D01*
X4208158Y-5203150D02*
X4189110Y-5212674D01*
X4189110Y-5212674D02*
X4179587Y-5222198D01*
X4389111Y-5336484D02*
X4370063Y-5326960D01*
X4370063Y-5326960D02*
X4360539Y-5317436D01*
X4360539Y-5317436D02*
X4351015Y-5298389D01*
X4351015Y-5298389D02*
X4351015Y-5241246D01*
X4351015Y-5241246D02*
X4360539Y-5222198D01*
X4360539Y-5222198D02*
X4370063Y-5212674D01*
X4370063Y-5212674D02*
X4389111Y-5203150D01*
X4389111Y-5203150D02*
X4417682Y-5203150D01*
X4417682Y-5203150D02*
X4436730Y-5212674D01*
X4436730Y-5212674D02*
X4446253Y-5222198D01*
X4446253Y-5222198D02*
X4455777Y-5241246D01*
X4455777Y-5241246D02*
X4455777Y-5298389D01*
X4455777Y-5298389D02*
X4446253Y-5317436D01*
X4446253Y-5317436D02*
X4436730Y-5326960D01*
X4436730Y-5326960D02*
X4417682Y-5336484D01*
X4417682Y-5336484D02*
X4389111Y-5336484D01*
X4570063Y-5336484D02*
X4551015Y-5326960D01*
X4551015Y-5326960D02*
X4541492Y-5307912D01*
X4541492Y-5307912D02*
X4541492Y-5136484D01*
X4722444Y-5326960D02*
X4703396Y-5336484D01*
X4703396Y-5336484D02*
X4665301Y-5336484D01*
X4665301Y-5336484D02*
X4646253Y-5326960D01*
X4646253Y-5326960D02*
X4636730Y-5307912D01*
X4636730Y-5307912D02*
X4636730Y-5231722D01*
X4636730Y-5231722D02*
X4646253Y-5212674D01*
X4646253Y-5212674D02*
X4665301Y-5203150D01*
X4665301Y-5203150D02*
X4703396Y-5203150D01*
X4703396Y-5203150D02*
X4722444Y-5212674D01*
X4722444Y-5212674D02*
X4731968Y-5231722D01*
X4731968Y-5231722D02*
X4731968Y-5250770D01*
X4731968Y-5250770D02*
X4636730Y-5269817D01*
X4808158Y-5326960D02*
X4827206Y-5336484D01*
X4827206Y-5336484D02*
X4865301Y-5336484D01*
X4865301Y-5336484D02*
X4884349Y-5326960D01*
X4884349Y-5326960D02*
X4893873Y-5307912D01*
X4893873Y-5307912D02*
X4893873Y-5298389D01*
X4893873Y-5298389D02*
X4884349Y-5279341D01*
X4884349Y-5279341D02*
X4865301Y-5269817D01*
X4865301Y-5269817D02*
X4836730Y-5269817D01*
X4836730Y-5269817D02*
X4817682Y-5260293D01*
X4817682Y-5260293D02*
X4808158Y-5241246D01*
X4808158Y-5241246D02*
X4808158Y-5231722D01*
X4808158Y-5231722D02*
X4817682Y-5212674D01*
X4817682Y-5212674D02*
X4836730Y-5203150D01*
X4836730Y-5203150D02*
X4865301Y-5203150D01*
X4865301Y-5203150D02*
X4884349Y-5212674D01*
X4960539Y-5412674D02*
X4970063Y-5403150D01*
X4970063Y-5403150D02*
X4989111Y-5374579D01*
X4989111Y-5374579D02*
X4998634Y-5355531D01*
X4998634Y-5355531D02*
X5008158Y-5326960D01*
X5008158Y-5326960D02*
X5017682Y-5279341D01*
X5017682Y-5279341D02*
X5017682Y-5241246D01*
X5017682Y-5241246D02*
X5008158Y-5193627D01*
X5008158Y-5193627D02*
X4998634Y-5165055D01*
X4998634Y-5165055D02*
X4989111Y-5146008D01*
X4989111Y-5146008D02*
X4970063Y-5117436D01*
X4970063Y-5117436D02*
X4960539Y-5107912D01*
D10*
X-5000Y-5509000D02*
G75*
G02*
X-35000Y-5509000I-15000J0D01*
G01*
X-35000Y-5509000D02*
G75*
G02*
X-5000Y-5509000I15000J0D01*
G01*
D11*
X293872Y-5400484D02*
X312920Y-5400484D01*
X312920Y-5400484D02*
X331967Y-5410008D01*
X331967Y-5410008D02*
X341491Y-5419531D01*
X341491Y-5419531D02*
X351015Y-5438579D01*
X351015Y-5438579D02*
X360539Y-5476674D01*
X360539Y-5476674D02*
X360539Y-5524293D01*
X360539Y-5524293D02*
X351015Y-5562389D01*
X351015Y-5562389D02*
X341491Y-5581436D01*
X341491Y-5581436D02*
X331967Y-5590960D01*
X331967Y-5590960D02*
X312920Y-5600484D01*
X312920Y-5600484D02*
X293872Y-5600484D01*
X293872Y-5600484D02*
X274824Y-5590960D01*
X274824Y-5590960D02*
X265301Y-5581436D01*
X265301Y-5581436D02*
X255777Y-5562389D01*
X255777Y-5562389D02*
X246253Y-5524293D01*
X246253Y-5524293D02*
X246253Y-5476674D01*
X246253Y-5476674D02*
X255777Y-5438579D01*
X255777Y-5438579D02*
X265301Y-5419531D01*
X265301Y-5419531D02*
X274824Y-5410008D01*
X274824Y-5410008D02*
X293872Y-5400484D01*
X446253Y-5581436D02*
X455777Y-5590960D01*
X455777Y-5590960D02*
X446253Y-5600484D01*
X446253Y-5600484D02*
X436729Y-5590960D01*
X436729Y-5590960D02*
X446253Y-5581436D01*
X446253Y-5581436D02*
X446253Y-5600484D01*
X522443Y-5400484D02*
X646253Y-5400484D01*
X646253Y-5400484D02*
X579586Y-5476674D01*
X579586Y-5476674D02*
X608158Y-5476674D01*
X608158Y-5476674D02*
X627205Y-5486198D01*
X627205Y-5486198D02*
X636729Y-5495722D01*
X636729Y-5495722D02*
X646253Y-5514770D01*
X646253Y-5514770D02*
X646253Y-5562389D01*
X646253Y-5562389D02*
X636729Y-5581436D01*
X636729Y-5581436D02*
X627205Y-5590960D01*
X627205Y-5590960D02*
X608158Y-5600484D01*
X608158Y-5600484D02*
X551015Y-5600484D01*
X551015Y-5600484D02*
X531967Y-5590960D01*
X531967Y-5590960D02*
X522443Y-5581436D01*
X770062Y-5400484D02*
X789110Y-5400484D01*
X789110Y-5400484D02*
X808158Y-5410008D01*
X808158Y-5410008D02*
X817682Y-5419531D01*
X817682Y-5419531D02*
X827205Y-5438579D01*
X827205Y-5438579D02*
X836729Y-5476674D01*
X836729Y-5476674D02*
X836729Y-5524293D01*
X836729Y-5524293D02*
X827205Y-5562389D01*
X827205Y-5562389D02*
X817682Y-5581436D01*
X817682Y-5581436D02*
X808158Y-5590960D01*
X808158Y-5590960D02*
X789110Y-5600484D01*
X789110Y-5600484D02*
X770062Y-5600484D01*
X770062Y-5600484D02*
X751015Y-5590960D01*
X751015Y-5590960D02*
X741491Y-5581436D01*
X741491Y-5581436D02*
X731967Y-5562389D01*
X731967Y-5562389D02*
X722443Y-5524293D01*
X722443Y-5524293D02*
X722443Y-5476674D01*
X722443Y-5476674D02*
X731967Y-5438579D01*
X731967Y-5438579D02*
X741491Y-5419531D01*
X741491Y-5419531D02*
X751015Y-5410008D01*
X751015Y-5410008D02*
X770062Y-5400484D01*
X960539Y-5400484D02*
X979586Y-5400484D01*
X979586Y-5400484D02*
X998634Y-5410008D01*
X998634Y-5410008D02*
X1008158Y-5419531D01*
X1008158Y-5419531D02*
X1017682Y-5438579D01*
X1017682Y-5438579D02*
X1027205Y-5476674D01*
X1027205Y-5476674D02*
X1027205Y-5524293D01*
X1027205Y-5524293D02*
X1017682Y-5562389D01*
X1017682Y-5562389D02*
X1008158Y-5581436D01*
X1008158Y-5581436D02*
X998634Y-5590960D01*
X998634Y-5590960D02*
X979586Y-5600484D01*
X979586Y-5600484D02*
X960539Y-5600484D01*
X960539Y-5600484D02*
X941491Y-5590960D01*
X941491Y-5590960D02*
X931967Y-5581436D01*
X931967Y-5581436D02*
X922443Y-5562389D01*
X922443Y-5562389D02*
X912920Y-5524293D01*
X912920Y-5524293D02*
X912920Y-5476674D01*
X912920Y-5476674D02*
X922443Y-5438579D01*
X922443Y-5438579D02*
X931967Y-5419531D01*
X931967Y-5419531D02*
X941491Y-5410008D01*
X941491Y-5410008D02*
X960539Y-5400484D01*
X1112920Y-5600484D02*
X1112920Y-5467150D01*
X1112920Y-5486198D02*
X1122444Y-5476674D01*
X1122444Y-5476674D02*
X1141491Y-5467150D01*
X1141491Y-5467150D02*
X1170063Y-5467150D01*
X1170063Y-5467150D02*
X1189110Y-5476674D01*
X1189110Y-5476674D02*
X1198634Y-5495722D01*
X1198634Y-5495722D02*
X1198634Y-5600484D01*
X1198634Y-5495722D02*
X1208158Y-5476674D01*
X1208158Y-5476674D02*
X1227205Y-5467150D01*
X1227205Y-5467150D02*
X1255777Y-5467150D01*
X1255777Y-5467150D02*
X1274825Y-5476674D01*
X1274825Y-5476674D02*
X1284348Y-5495722D01*
X1284348Y-5495722D02*
X1284348Y-5600484D01*
X1379586Y-5600484D02*
X1379586Y-5467150D01*
X1379586Y-5486198D02*
X1389110Y-5476674D01*
X1389110Y-5476674D02*
X1408158Y-5467150D01*
X1408158Y-5467150D02*
X1436729Y-5467150D01*
X1436729Y-5467150D02*
X1455777Y-5476674D01*
X1455777Y-5476674D02*
X1465301Y-5495722D01*
X1465301Y-5495722D02*
X1465301Y-5600484D01*
X1465301Y-5495722D02*
X1474824Y-5476674D01*
X1474824Y-5476674D02*
X1493872Y-5467150D01*
X1493872Y-5467150D02*
X1522443Y-5467150D01*
X1522443Y-5467150D02*
X1541491Y-5476674D01*
X1541491Y-5476674D02*
X1551015Y-5495722D01*
X1551015Y-5495722D02*
X1551015Y-5600484D01*
X1941491Y-5390960D02*
X1770063Y-5648103D01*
X2198634Y-5400484D02*
X2217682Y-5400484D01*
X2217682Y-5400484D02*
X2236729Y-5410008D01*
X2236729Y-5410008D02*
X2246253Y-5419531D01*
X2246253Y-5419531D02*
X2255777Y-5438579D01*
X2255777Y-5438579D02*
X2265301Y-5476674D01*
X2265301Y-5476674D02*
X2265301Y-5524293D01*
X2265301Y-5524293D02*
X2255777Y-5562389D01*
X2255777Y-5562389D02*
X2246253Y-5581436D01*
X2246253Y-5581436D02*
X2236729Y-5590960D01*
X2236729Y-5590960D02*
X2217682Y-5600484D01*
X2217682Y-5600484D02*
X2198634Y-5600484D01*
X2198634Y-5600484D02*
X2179587Y-5590960D01*
X2179587Y-5590960D02*
X2170063Y-5581436D01*
X2170063Y-5581436D02*
X2160539Y-5562389D01*
X2160539Y-5562389D02*
X2151015Y-5524293D01*
X2151015Y-5524293D02*
X2151015Y-5476674D01*
X2151015Y-5476674D02*
X2160539Y-5438579D01*
X2160539Y-5438579D02*
X2170063Y-5419531D01*
X2170063Y-5419531D02*
X2179587Y-5410008D01*
X2179587Y-5410008D02*
X2198634Y-5400484D01*
X2351015Y-5581436D02*
X2360539Y-5590960D01*
X2360539Y-5590960D02*
X2351015Y-5600484D01*
X2351015Y-5600484D02*
X2341491Y-5590960D01*
X2341491Y-5590960D02*
X2351015Y-5581436D01*
X2351015Y-5581436D02*
X2351015Y-5600484D01*
X2484348Y-5400484D02*
X2503396Y-5400484D01*
X2503396Y-5400484D02*
X2522444Y-5410008D01*
X2522444Y-5410008D02*
X2531968Y-5419531D01*
X2531968Y-5419531D02*
X2541491Y-5438579D01*
X2541491Y-5438579D02*
X2551015Y-5476674D01*
X2551015Y-5476674D02*
X2551015Y-5524293D01*
X2551015Y-5524293D02*
X2541491Y-5562389D01*
X2541491Y-5562389D02*
X2531968Y-5581436D01*
X2531968Y-5581436D02*
X2522444Y-5590960D01*
X2522444Y-5590960D02*
X2503396Y-5600484D01*
X2503396Y-5600484D02*
X2484348Y-5600484D01*
X2484348Y-5600484D02*
X2465301Y-5590960D01*
X2465301Y-5590960D02*
X2455777Y-5581436D01*
X2455777Y-5581436D02*
X2446253Y-5562389D01*
X2446253Y-5562389D02*
X2436729Y-5524293D01*
X2436729Y-5524293D02*
X2436729Y-5476674D01*
X2436729Y-5476674D02*
X2446253Y-5438579D01*
X2446253Y-5438579D02*
X2455777Y-5419531D01*
X2455777Y-5419531D02*
X2465301Y-5410008D01*
X2465301Y-5410008D02*
X2484348Y-5400484D01*
X2741491Y-5600484D02*
X2627206Y-5600484D01*
X2684348Y-5600484D02*
X2684348Y-5400484D01*
X2684348Y-5400484D02*
X2665301Y-5429055D01*
X2665301Y-5429055D02*
X2646253Y-5448103D01*
X2646253Y-5448103D02*
X2627206Y-5457627D01*
X2931967Y-5600484D02*
X2817682Y-5600484D01*
X2874825Y-5600484D02*
X2874825Y-5400484D01*
X2874825Y-5400484D02*
X2855777Y-5429055D01*
X2855777Y-5429055D02*
X2836729Y-5448103D01*
X2836729Y-5448103D02*
X2817682Y-5457627D01*
X3046253Y-5486198D02*
X3027206Y-5476674D01*
X3027206Y-5476674D02*
X3017682Y-5467150D01*
X3017682Y-5467150D02*
X3008158Y-5448103D01*
X3008158Y-5448103D02*
X3008158Y-5438579D01*
X3008158Y-5438579D02*
X3017682Y-5419531D01*
X3017682Y-5419531D02*
X3027206Y-5410008D01*
X3027206Y-5410008D02*
X3046253Y-5400484D01*
X3046253Y-5400484D02*
X3084348Y-5400484D01*
X3084348Y-5400484D02*
X3103396Y-5410008D01*
X3103396Y-5410008D02*
X3112920Y-5419531D01*
X3112920Y-5419531D02*
X3122444Y-5438579D01*
X3122444Y-5438579D02*
X3122444Y-5448103D01*
X3122444Y-5448103D02*
X3112920Y-5467150D01*
X3112920Y-5467150D02*
X3103396Y-5476674D01*
X3103396Y-5476674D02*
X3084348Y-5486198D01*
X3084348Y-5486198D02*
X3046253Y-5486198D01*
X3046253Y-5486198D02*
X3027206Y-5495722D01*
X3027206Y-5495722D02*
X3017682Y-5505246D01*
X3017682Y-5505246D02*
X3008158Y-5524293D01*
X3008158Y-5524293D02*
X3008158Y-5562389D01*
X3008158Y-5562389D02*
X3017682Y-5581436D01*
X3017682Y-5581436D02*
X3027206Y-5590960D01*
X3027206Y-5590960D02*
X3046253Y-5600484D01*
X3046253Y-5600484D02*
X3084348Y-5600484D01*
X3084348Y-5600484D02*
X3103396Y-5590960D01*
X3103396Y-5590960D02*
X3112920Y-5581436D01*
X3112920Y-5581436D02*
X3122444Y-5562389D01*
X3122444Y-5562389D02*
X3122444Y-5524293D01*
X3122444Y-5524293D02*
X3112920Y-5505246D01*
X3112920Y-5505246D02*
X3103396Y-5495722D01*
X3103396Y-5495722D02*
X3084348Y-5486198D01*
X3198634Y-5400484D02*
X3198634Y-5438579D01*
X3274825Y-5400484D02*
X3274825Y-5438579D01*
X3570063Y-5676674D02*
X3560539Y-5667150D01*
X3560539Y-5667150D02*
X3541491Y-5638579D01*
X3541491Y-5638579D02*
X3531968Y-5619531D01*
X3531968Y-5619531D02*
X3522444Y-5590960D01*
X3522444Y-5590960D02*
X3512920Y-5543341D01*
X3512920Y-5543341D02*
X3512920Y-5505246D01*
X3512920Y-5505246D02*
X3522444Y-5457627D01*
X3522444Y-5457627D02*
X3531968Y-5429055D01*
X3531968Y-5429055D02*
X3541491Y-5410008D01*
X3541491Y-5410008D02*
X3560539Y-5381436D01*
X3560539Y-5381436D02*
X3570063Y-5371912D01*
X3751015Y-5600484D02*
X3636729Y-5600484D01*
X3693872Y-5600484D02*
X3693872Y-5400484D01*
X3693872Y-5400484D02*
X3674825Y-5429055D01*
X3674825Y-5429055D02*
X3655777Y-5448103D01*
X3655777Y-5448103D02*
X3636729Y-5457627D01*
X3931968Y-5400484D02*
X3836729Y-5400484D01*
X3836729Y-5400484D02*
X3827206Y-5495722D01*
X3827206Y-5495722D02*
X3836729Y-5486198D01*
X3836729Y-5486198D02*
X3855777Y-5476674D01*
X3855777Y-5476674D02*
X3903396Y-5476674D01*
X3903396Y-5476674D02*
X3922444Y-5486198D01*
X3922444Y-5486198D02*
X3931968Y-5495722D01*
X3931968Y-5495722D02*
X3941491Y-5514770D01*
X3941491Y-5514770D02*
X3941491Y-5562389D01*
X3941491Y-5562389D02*
X3931968Y-5581436D01*
X3931968Y-5581436D02*
X3922444Y-5590960D01*
X3922444Y-5590960D02*
X3903396Y-5600484D01*
X3903396Y-5600484D02*
X3855777Y-5600484D01*
X3855777Y-5600484D02*
X3836729Y-5590960D01*
X3836729Y-5590960D02*
X3827206Y-5581436D01*
X4065301Y-5400484D02*
X4084349Y-5400484D01*
X4084349Y-5400484D02*
X4103396Y-5410008D01*
X4103396Y-5410008D02*
X4112920Y-5419531D01*
X4112920Y-5419531D02*
X4122444Y-5438579D01*
X4122444Y-5438579D02*
X4131968Y-5476674D01*
X4131968Y-5476674D02*
X4131968Y-5524293D01*
X4131968Y-5524293D02*
X4122444Y-5562389D01*
X4122444Y-5562389D02*
X4112920Y-5581436D01*
X4112920Y-5581436D02*
X4103396Y-5590960D01*
X4103396Y-5590960D02*
X4084349Y-5600484D01*
X4084349Y-5600484D02*
X4065301Y-5600484D01*
X4065301Y-5600484D02*
X4046253Y-5590960D01*
X4046253Y-5590960D02*
X4036729Y-5581436D01*
X4036729Y-5581436D02*
X4027206Y-5562389D01*
X4027206Y-5562389D02*
X4017682Y-5524293D01*
X4017682Y-5524293D02*
X4017682Y-5476674D01*
X4017682Y-5476674D02*
X4027206Y-5438579D01*
X4027206Y-5438579D02*
X4036729Y-5419531D01*
X4036729Y-5419531D02*
X4046253Y-5410008D01*
X4046253Y-5410008D02*
X4065301Y-5400484D01*
X4370063Y-5600484D02*
X4370063Y-5400484D01*
X4455777Y-5600484D02*
X4455777Y-5495722D01*
X4455777Y-5495722D02*
X4446253Y-5476674D01*
X4446253Y-5476674D02*
X4427206Y-5467150D01*
X4427206Y-5467150D02*
X4398634Y-5467150D01*
X4398634Y-5467150D02*
X4379587Y-5476674D01*
X4379587Y-5476674D02*
X4370063Y-5486198D01*
X4579587Y-5600484D02*
X4560539Y-5590960D01*
X4560539Y-5590960D02*
X4551015Y-5581436D01*
X4551015Y-5581436D02*
X4541492Y-5562389D01*
X4541492Y-5562389D02*
X4541492Y-5505246D01*
X4541492Y-5505246D02*
X4551015Y-5486198D01*
X4551015Y-5486198D02*
X4560539Y-5476674D01*
X4560539Y-5476674D02*
X4579587Y-5467150D01*
X4579587Y-5467150D02*
X4608158Y-5467150D01*
X4608158Y-5467150D02*
X4627206Y-5476674D01*
X4627206Y-5476674D02*
X4636730Y-5486198D01*
X4636730Y-5486198D02*
X4646253Y-5505246D01*
X4646253Y-5505246D02*
X4646253Y-5562389D01*
X4646253Y-5562389D02*
X4636730Y-5581436D01*
X4636730Y-5581436D02*
X4627206Y-5590960D01*
X4627206Y-5590960D02*
X4608158Y-5600484D01*
X4608158Y-5600484D02*
X4579587Y-5600484D01*
X4760539Y-5600484D02*
X4741492Y-5590960D01*
X4741492Y-5590960D02*
X4731968Y-5571912D01*
X4731968Y-5571912D02*
X4731968Y-5400484D01*
X4912920Y-5590960D02*
X4893873Y-5600484D01*
X4893873Y-5600484D02*
X4855777Y-5600484D01*
X4855777Y-5600484D02*
X4836730Y-5590960D01*
X4836730Y-5590960D02*
X4827206Y-5571912D01*
X4827206Y-5571912D02*
X4827206Y-5495722D01*
X4827206Y-5495722D02*
X4836730Y-5476674D01*
X4836730Y-5476674D02*
X4855777Y-5467150D01*
X4855777Y-5467150D02*
X4893873Y-5467150D01*
X4893873Y-5467150D02*
X4912920Y-5476674D01*
X4912920Y-5476674D02*
X4922444Y-5495722D01*
X4922444Y-5495722D02*
X4922444Y-5514770D01*
X4922444Y-5514770D02*
X4827206Y-5533817D01*
X4998634Y-5590960D02*
X5017682Y-5600484D01*
X5017682Y-5600484D02*
X5055777Y-5600484D01*
X5055777Y-5600484D02*
X5074825Y-5590960D01*
X5074825Y-5590960D02*
X5084349Y-5571912D01*
X5084349Y-5571912D02*
X5084349Y-5562389D01*
X5084349Y-5562389D02*
X5074825Y-5543341D01*
X5074825Y-5543341D02*
X5055777Y-5533817D01*
X5055777Y-5533817D02*
X5027206Y-5533817D01*
X5027206Y-5533817D02*
X5008158Y-5524293D01*
X5008158Y-5524293D02*
X4998634Y-5505246D01*
X4998634Y-5505246D02*
X4998634Y-5495722D01*
X4998634Y-5495722D02*
X5008158Y-5476674D01*
X5008158Y-5476674D02*
X5027206Y-5467150D01*
X5027206Y-5467150D02*
X5055777Y-5467150D01*
X5055777Y-5467150D02*
X5074825Y-5476674D01*
X5151015Y-5676674D02*
X5160539Y-5667150D01*
X5160539Y-5667150D02*
X5179587Y-5638579D01*
X5179587Y-5638579D02*
X5189111Y-5619531D01*
X5189111Y-5619531D02*
X5198634Y-5590960D01*
X5198634Y-5590960D02*
X5208158Y-5543341D01*
X5208158Y-5543341D02*
X5208158Y-5505246D01*
X5208158Y-5505246D02*
X5198634Y-5457627D01*
X5198634Y-5457627D02*
X5189111Y-5429055D01*
X5189111Y-5429055D02*
X5179587Y-5410008D01*
X5179587Y-5410008D02*
X5160539Y-5381436D01*
X5160539Y-5381436D02*
X5151015Y-5371912D01*
D10*
X-25000Y-5753000D02*
X-25000Y-5793000D01*
X-45000Y-5773000D02*
X-5000Y-5773000D01*
D11*
X293872Y-5664484D02*
X312920Y-5664484D01*
X312920Y-5664484D02*
X331967Y-5674008D01*
X331967Y-5674008D02*
X341491Y-5683531D01*
X341491Y-5683531D02*
X351015Y-5702579D01*
X351015Y-5702579D02*
X360539Y-5740674D01*
X360539Y-5740674D02*
X360539Y-5788293D01*
X360539Y-5788293D02*
X351015Y-5826388D01*
X351015Y-5826388D02*
X341491Y-5845436D01*
X341491Y-5845436D02*
X331967Y-5854960D01*
X331967Y-5854960D02*
X312920Y-5864484D01*
X312920Y-5864484D02*
X293872Y-5864484D01*
X293872Y-5864484D02*
X274824Y-5854960D01*
X274824Y-5854960D02*
X265301Y-5845436D01*
X265301Y-5845436D02*
X255777Y-5826388D01*
X255777Y-5826388D02*
X246253Y-5788293D01*
X246253Y-5788293D02*
X246253Y-5740674D01*
X246253Y-5740674D02*
X255777Y-5702579D01*
X255777Y-5702579D02*
X265301Y-5683531D01*
X265301Y-5683531D02*
X274824Y-5674008D01*
X274824Y-5674008D02*
X293872Y-5664484D01*
X446253Y-5845436D02*
X455777Y-5854960D01*
X455777Y-5854960D02*
X446253Y-5864484D01*
X446253Y-5864484D02*
X436729Y-5854960D01*
X436729Y-5854960D02*
X446253Y-5845436D01*
X446253Y-5845436D02*
X446253Y-5864484D01*
X627205Y-5731150D02*
X627205Y-5864484D01*
X579586Y-5654960D02*
X531967Y-5797817D01*
X531967Y-5797817D02*
X655777Y-5797817D01*
X770062Y-5664484D02*
X789110Y-5664484D01*
X789110Y-5664484D02*
X808158Y-5674008D01*
X808158Y-5674008D02*
X817682Y-5683531D01*
X817682Y-5683531D02*
X827205Y-5702579D01*
X827205Y-5702579D02*
X836729Y-5740674D01*
X836729Y-5740674D02*
X836729Y-5788293D01*
X836729Y-5788293D02*
X827205Y-5826388D01*
X827205Y-5826388D02*
X817682Y-5845436D01*
X817682Y-5845436D02*
X808158Y-5854960D01*
X808158Y-5854960D02*
X789110Y-5864484D01*
X789110Y-5864484D02*
X770062Y-5864484D01*
X770062Y-5864484D02*
X751015Y-5854960D01*
X751015Y-5854960D02*
X741491Y-5845436D01*
X741491Y-5845436D02*
X731967Y-5826388D01*
X731967Y-5826388D02*
X722443Y-5788293D01*
X722443Y-5788293D02*
X722443Y-5740674D01*
X722443Y-5740674D02*
X731967Y-5702579D01*
X731967Y-5702579D02*
X741491Y-5683531D01*
X741491Y-5683531D02*
X751015Y-5674008D01*
X751015Y-5674008D02*
X770062Y-5664484D01*
X960539Y-5664484D02*
X979586Y-5664484D01*
X979586Y-5664484D02*
X998634Y-5674008D01*
X998634Y-5674008D02*
X1008158Y-5683531D01*
X1008158Y-5683531D02*
X1017682Y-5702579D01*
X1017682Y-5702579D02*
X1027205Y-5740674D01*
X1027205Y-5740674D02*
X1027205Y-5788293D01*
X1027205Y-5788293D02*
X1017682Y-5826388D01*
X1017682Y-5826388D02*
X1008158Y-5845436D01*
X1008158Y-5845436D02*
X998634Y-5854960D01*
X998634Y-5854960D02*
X979586Y-5864484D01*
X979586Y-5864484D02*
X960539Y-5864484D01*
X960539Y-5864484D02*
X941491Y-5854960D01*
X941491Y-5854960D02*
X931967Y-5845436D01*
X931967Y-5845436D02*
X922443Y-5826388D01*
X922443Y-5826388D02*
X912920Y-5788293D01*
X912920Y-5788293D02*
X912920Y-5740674D01*
X912920Y-5740674D02*
X922443Y-5702579D01*
X922443Y-5702579D02*
X931967Y-5683531D01*
X931967Y-5683531D02*
X941491Y-5674008D01*
X941491Y-5674008D02*
X960539Y-5664484D01*
X1112920Y-5864484D02*
X1112920Y-5731150D01*
X1112920Y-5750198D02*
X1122444Y-5740674D01*
X1122444Y-5740674D02*
X1141491Y-5731150D01*
X1141491Y-5731150D02*
X1170063Y-5731150D01*
X1170063Y-5731150D02*
X1189110Y-5740674D01*
X1189110Y-5740674D02*
X1198634Y-5759722D01*
X1198634Y-5759722D02*
X1198634Y-5864484D01*
X1198634Y-5759722D02*
X1208158Y-5740674D01*
X1208158Y-5740674D02*
X1227205Y-5731150D01*
X1227205Y-5731150D02*
X1255777Y-5731150D01*
X1255777Y-5731150D02*
X1274825Y-5740674D01*
X1274825Y-5740674D02*
X1284348Y-5759722D01*
X1284348Y-5759722D02*
X1284348Y-5864484D01*
X1379586Y-5864484D02*
X1379586Y-5731150D01*
X1379586Y-5750198D02*
X1389110Y-5740674D01*
X1389110Y-5740674D02*
X1408158Y-5731150D01*
X1408158Y-5731150D02*
X1436729Y-5731150D01*
X1436729Y-5731150D02*
X1455777Y-5740674D01*
X1455777Y-5740674D02*
X1465301Y-5759722D01*
X1465301Y-5759722D02*
X1465301Y-5864484D01*
X1465301Y-5759722D02*
X1474824Y-5740674D01*
X1474824Y-5740674D02*
X1493872Y-5731150D01*
X1493872Y-5731150D02*
X1522443Y-5731150D01*
X1522443Y-5731150D02*
X1541491Y-5740674D01*
X1541491Y-5740674D02*
X1551015Y-5759722D01*
X1551015Y-5759722D02*
X1551015Y-5864484D01*
X1941491Y-5654960D02*
X1770063Y-5912103D01*
X2198634Y-5664484D02*
X2217682Y-5664484D01*
X2217682Y-5664484D02*
X2236729Y-5674008D01*
X2236729Y-5674008D02*
X2246253Y-5683531D01*
X2246253Y-5683531D02*
X2255777Y-5702579D01*
X2255777Y-5702579D02*
X2265301Y-5740674D01*
X2265301Y-5740674D02*
X2265301Y-5788293D01*
X2265301Y-5788293D02*
X2255777Y-5826388D01*
X2255777Y-5826388D02*
X2246253Y-5845436D01*
X2246253Y-5845436D02*
X2236729Y-5854960D01*
X2236729Y-5854960D02*
X2217682Y-5864484D01*
X2217682Y-5864484D02*
X2198634Y-5864484D01*
X2198634Y-5864484D02*
X2179587Y-5854960D01*
X2179587Y-5854960D02*
X2170063Y-5845436D01*
X2170063Y-5845436D02*
X2160539Y-5826388D01*
X2160539Y-5826388D02*
X2151015Y-5788293D01*
X2151015Y-5788293D02*
X2151015Y-5740674D01*
X2151015Y-5740674D02*
X2160539Y-5702579D01*
X2160539Y-5702579D02*
X2170063Y-5683531D01*
X2170063Y-5683531D02*
X2179587Y-5674008D01*
X2179587Y-5674008D02*
X2198634Y-5664484D01*
X2351015Y-5845436D02*
X2360539Y-5854960D01*
X2360539Y-5854960D02*
X2351015Y-5864484D01*
X2351015Y-5864484D02*
X2341491Y-5854960D01*
X2341491Y-5854960D02*
X2351015Y-5845436D01*
X2351015Y-5845436D02*
X2351015Y-5864484D01*
X2484348Y-5664484D02*
X2503396Y-5664484D01*
X2503396Y-5664484D02*
X2522444Y-5674008D01*
X2522444Y-5674008D02*
X2531968Y-5683531D01*
X2531968Y-5683531D02*
X2541491Y-5702579D01*
X2541491Y-5702579D02*
X2551015Y-5740674D01*
X2551015Y-5740674D02*
X2551015Y-5788293D01*
X2551015Y-5788293D02*
X2541491Y-5826388D01*
X2541491Y-5826388D02*
X2531968Y-5845436D01*
X2531968Y-5845436D02*
X2522444Y-5854960D01*
X2522444Y-5854960D02*
X2503396Y-5864484D01*
X2503396Y-5864484D02*
X2484348Y-5864484D01*
X2484348Y-5864484D02*
X2465301Y-5854960D01*
X2465301Y-5854960D02*
X2455777Y-5845436D01*
X2455777Y-5845436D02*
X2446253Y-5826388D01*
X2446253Y-5826388D02*
X2436729Y-5788293D01*
X2436729Y-5788293D02*
X2436729Y-5740674D01*
X2436729Y-5740674D02*
X2446253Y-5702579D01*
X2446253Y-5702579D02*
X2455777Y-5683531D01*
X2455777Y-5683531D02*
X2465301Y-5674008D01*
X2465301Y-5674008D02*
X2484348Y-5664484D01*
X2741491Y-5864484D02*
X2627206Y-5864484D01*
X2684348Y-5864484D02*
X2684348Y-5664484D01*
X2684348Y-5664484D02*
X2665301Y-5693055D01*
X2665301Y-5693055D02*
X2646253Y-5712103D01*
X2646253Y-5712103D02*
X2627206Y-5721627D01*
X2922444Y-5664484D02*
X2827206Y-5664484D01*
X2827206Y-5664484D02*
X2817682Y-5759722D01*
X2817682Y-5759722D02*
X2827206Y-5750198D01*
X2827206Y-5750198D02*
X2846253Y-5740674D01*
X2846253Y-5740674D02*
X2893872Y-5740674D01*
X2893872Y-5740674D02*
X2912920Y-5750198D01*
X2912920Y-5750198D02*
X2922444Y-5759722D01*
X2922444Y-5759722D02*
X2931967Y-5778769D01*
X2931967Y-5778769D02*
X2931967Y-5826388D01*
X2931967Y-5826388D02*
X2922444Y-5845436D01*
X2922444Y-5845436D02*
X2912920Y-5854960D01*
X2912920Y-5854960D02*
X2893872Y-5864484D01*
X2893872Y-5864484D02*
X2846253Y-5864484D01*
X2846253Y-5864484D02*
X2827206Y-5854960D01*
X2827206Y-5854960D02*
X2817682Y-5845436D01*
X2998634Y-5664484D02*
X3131967Y-5664484D01*
X3131967Y-5664484D02*
X3046253Y-5864484D01*
X3198634Y-5664484D02*
X3198634Y-5702579D01*
X3274825Y-5664484D02*
X3274825Y-5702579D01*
X3570063Y-5940674D02*
X3560539Y-5931150D01*
X3560539Y-5931150D02*
X3541491Y-5902579D01*
X3541491Y-5902579D02*
X3531968Y-5883531D01*
X3531968Y-5883531D02*
X3522444Y-5854960D01*
X3522444Y-5854960D02*
X3512920Y-5807341D01*
X3512920Y-5807341D02*
X3512920Y-5769246D01*
X3512920Y-5769246D02*
X3522444Y-5721627D01*
X3522444Y-5721627D02*
X3531968Y-5693055D01*
X3531968Y-5693055D02*
X3541491Y-5674008D01*
X3541491Y-5674008D02*
X3560539Y-5645436D01*
X3560539Y-5645436D02*
X3570063Y-5635912D01*
X3636729Y-5683531D02*
X3646253Y-5674008D01*
X3646253Y-5674008D02*
X3665301Y-5664484D01*
X3665301Y-5664484D02*
X3712920Y-5664484D01*
X3712920Y-5664484D02*
X3731968Y-5674008D01*
X3731968Y-5674008D02*
X3741491Y-5683531D01*
X3741491Y-5683531D02*
X3751015Y-5702579D01*
X3751015Y-5702579D02*
X3751015Y-5721627D01*
X3751015Y-5721627D02*
X3741491Y-5750198D01*
X3741491Y-5750198D02*
X3627206Y-5864484D01*
X3627206Y-5864484D02*
X3751015Y-5864484D01*
X3941491Y-5864484D02*
X3827206Y-5864484D01*
X3884348Y-5864484D02*
X3884348Y-5664484D01*
X3884348Y-5664484D02*
X3865301Y-5693055D01*
X3865301Y-5693055D02*
X3846253Y-5712103D01*
X3846253Y-5712103D02*
X3827206Y-5721627D01*
X4179587Y-5864484D02*
X4179587Y-5664484D01*
X4265301Y-5864484D02*
X4265301Y-5759722D01*
X4265301Y-5759722D02*
X4255777Y-5740674D01*
X4255777Y-5740674D02*
X4236730Y-5731150D01*
X4236730Y-5731150D02*
X4208158Y-5731150D01*
X4208158Y-5731150D02*
X4189110Y-5740674D01*
X4189110Y-5740674D02*
X4179587Y-5750198D01*
X4389111Y-5864484D02*
X4370063Y-5854960D01*
X4370063Y-5854960D02*
X4360539Y-5845436D01*
X4360539Y-5845436D02*
X4351015Y-5826388D01*
X4351015Y-5826388D02*
X4351015Y-5769246D01*
X4351015Y-5769246D02*
X4360539Y-5750198D01*
X4360539Y-5750198D02*
X4370063Y-5740674D01*
X4370063Y-5740674D02*
X4389111Y-5731150D01*
X4389111Y-5731150D02*
X4417682Y-5731150D01*
X4417682Y-5731150D02*
X4436730Y-5740674D01*
X4436730Y-5740674D02*
X4446253Y-5750198D01*
X4446253Y-5750198D02*
X4455777Y-5769246D01*
X4455777Y-5769246D02*
X4455777Y-5826388D01*
X4455777Y-5826388D02*
X4446253Y-5845436D01*
X4446253Y-5845436D02*
X4436730Y-5854960D01*
X4436730Y-5854960D02*
X4417682Y-5864484D01*
X4417682Y-5864484D02*
X4389111Y-5864484D01*
X4570063Y-5864484D02*
X4551015Y-5854960D01*
X4551015Y-5854960D02*
X4541492Y-5835912D01*
X4541492Y-5835912D02*
X4541492Y-5664484D01*
X4722444Y-5854960D02*
X4703396Y-5864484D01*
X4703396Y-5864484D02*
X4665301Y-5864484D01*
X4665301Y-5864484D02*
X4646253Y-5854960D01*
X4646253Y-5854960D02*
X4636730Y-5835912D01*
X4636730Y-5835912D02*
X4636730Y-5759722D01*
X4636730Y-5759722D02*
X4646253Y-5740674D01*
X4646253Y-5740674D02*
X4665301Y-5731150D01*
X4665301Y-5731150D02*
X4703396Y-5731150D01*
X4703396Y-5731150D02*
X4722444Y-5740674D01*
X4722444Y-5740674D02*
X4731968Y-5759722D01*
X4731968Y-5759722D02*
X4731968Y-5778769D01*
X4731968Y-5778769D02*
X4636730Y-5797817D01*
X4808158Y-5854960D02*
X4827206Y-5864484D01*
X4827206Y-5864484D02*
X4865301Y-5864484D01*
X4865301Y-5864484D02*
X4884349Y-5854960D01*
X4884349Y-5854960D02*
X4893873Y-5835912D01*
X4893873Y-5835912D02*
X4893873Y-5826388D01*
X4893873Y-5826388D02*
X4884349Y-5807341D01*
X4884349Y-5807341D02*
X4865301Y-5797817D01*
X4865301Y-5797817D02*
X4836730Y-5797817D01*
X4836730Y-5797817D02*
X4817682Y-5788293D01*
X4817682Y-5788293D02*
X4808158Y-5769246D01*
X4808158Y-5769246D02*
X4808158Y-5759722D01*
X4808158Y-5759722D02*
X4817682Y-5740674D01*
X4817682Y-5740674D02*
X4836730Y-5731150D01*
X4836730Y-5731150D02*
X4865301Y-5731150D01*
X4865301Y-5731150D02*
X4884349Y-5740674D01*
X4960539Y-5940674D02*
X4970063Y-5931150D01*
X4970063Y-5931150D02*
X4989111Y-5902579D01*
X4989111Y-5902579D02*
X4998634Y-5883531D01*
X4998634Y-5883531D02*
X5008158Y-5854960D01*
X5008158Y-5854960D02*
X5017682Y-5807341D01*
X5017682Y-5807341D02*
X5017682Y-5769246D01*
X5017682Y-5769246D02*
X5008158Y-5721627D01*
X5008158Y-5721627D02*
X4998634Y-5693055D01*
X4998634Y-5693055D02*
X4989111Y-5674008D01*
X4989111Y-5674008D02*
X4970063Y-5645436D01*
X4970063Y-5645436D02*
X4960539Y-5635912D01*
D10*
X-13787Y-6058213D02*
X-13787Y-6015787D01*
X-56213Y-6015787D01*
X-56213Y-6058213D01*
X-13787Y-6058213D01*
D11*
X293872Y-5928484D02*
X312920Y-5928484D01*
X312920Y-5928484D02*
X331967Y-5938008D01*
X331967Y-5938008D02*
X341491Y-5947531D01*
X341491Y-5947531D02*
X351015Y-5966579D01*
X351015Y-5966579D02*
X360539Y-6004674D01*
X360539Y-6004674D02*
X360539Y-6052293D01*
X360539Y-6052293D02*
X351015Y-6090388D01*
X351015Y-6090388D02*
X341491Y-6109436D01*
X341491Y-6109436D02*
X331967Y-6118960D01*
X331967Y-6118960D02*
X312920Y-6128484D01*
X312920Y-6128484D02*
X293872Y-6128484D01*
X293872Y-6128484D02*
X274824Y-6118960D01*
X274824Y-6118960D02*
X265301Y-6109436D01*
X265301Y-6109436D02*
X255777Y-6090388D01*
X255777Y-6090388D02*
X246253Y-6052293D01*
X246253Y-6052293D02*
X246253Y-6004674D01*
X246253Y-6004674D02*
X255777Y-5966579D01*
X255777Y-5966579D02*
X265301Y-5947531D01*
X265301Y-5947531D02*
X274824Y-5938008D01*
X274824Y-5938008D02*
X293872Y-5928484D01*
X446253Y-6109436D02*
X455777Y-6118960D01*
X455777Y-6118960D02*
X446253Y-6128484D01*
X446253Y-6128484D02*
X436729Y-6118960D01*
X436729Y-6118960D02*
X446253Y-6109436D01*
X446253Y-6109436D02*
X446253Y-6128484D01*
X627205Y-5928484D02*
X589110Y-5928484D01*
X589110Y-5928484D02*
X570063Y-5938008D01*
X570063Y-5938008D02*
X560539Y-5947531D01*
X560539Y-5947531D02*
X541491Y-5976103D01*
X541491Y-5976103D02*
X531967Y-6014198D01*
X531967Y-6014198D02*
X531967Y-6090388D01*
X531967Y-6090388D02*
X541491Y-6109436D01*
X541491Y-6109436D02*
X551015Y-6118960D01*
X551015Y-6118960D02*
X570063Y-6128484D01*
X570063Y-6128484D02*
X608158Y-6128484D01*
X608158Y-6128484D02*
X627205Y-6118960D01*
X627205Y-6118960D02*
X636729Y-6109436D01*
X636729Y-6109436D02*
X646253Y-6090388D01*
X646253Y-6090388D02*
X646253Y-6042769D01*
X646253Y-6042769D02*
X636729Y-6023722D01*
X636729Y-6023722D02*
X627205Y-6014198D01*
X627205Y-6014198D02*
X608158Y-6004674D01*
X608158Y-6004674D02*
X570063Y-6004674D01*
X570063Y-6004674D02*
X551015Y-6014198D01*
X551015Y-6014198D02*
X541491Y-6023722D01*
X541491Y-6023722D02*
X531967Y-6042769D01*
X770062Y-5928484D02*
X789110Y-5928484D01*
X789110Y-5928484D02*
X808158Y-5938008D01*
X808158Y-5938008D02*
X817682Y-5947531D01*
X817682Y-5947531D02*
X827205Y-5966579D01*
X827205Y-5966579D02*
X836729Y-6004674D01*
X836729Y-6004674D02*
X836729Y-6052293D01*
X836729Y-6052293D02*
X827205Y-6090388D01*
X827205Y-6090388D02*
X817682Y-6109436D01*
X817682Y-6109436D02*
X808158Y-6118960D01*
X808158Y-6118960D02*
X789110Y-6128484D01*
X789110Y-6128484D02*
X770062Y-6128484D01*
X770062Y-6128484D02*
X751015Y-6118960D01*
X751015Y-6118960D02*
X741491Y-6109436D01*
X741491Y-6109436D02*
X731967Y-6090388D01*
X731967Y-6090388D02*
X722443Y-6052293D01*
X722443Y-6052293D02*
X722443Y-6004674D01*
X722443Y-6004674D02*
X731967Y-5966579D01*
X731967Y-5966579D02*
X741491Y-5947531D01*
X741491Y-5947531D02*
X751015Y-5938008D01*
X751015Y-5938008D02*
X770062Y-5928484D01*
X960539Y-5928484D02*
X979586Y-5928484D01*
X979586Y-5928484D02*
X998634Y-5938008D01*
X998634Y-5938008D02*
X1008158Y-5947531D01*
X1008158Y-5947531D02*
X1017682Y-5966579D01*
X1017682Y-5966579D02*
X1027205Y-6004674D01*
X1027205Y-6004674D02*
X1027205Y-6052293D01*
X1027205Y-6052293D02*
X1017682Y-6090388D01*
X1017682Y-6090388D02*
X1008158Y-6109436D01*
X1008158Y-6109436D02*
X998634Y-6118960D01*
X998634Y-6118960D02*
X979586Y-6128484D01*
X979586Y-6128484D02*
X960539Y-6128484D01*
X960539Y-6128484D02*
X941491Y-6118960D01*
X941491Y-6118960D02*
X931967Y-6109436D01*
X931967Y-6109436D02*
X922443Y-6090388D01*
X922443Y-6090388D02*
X912920Y-6052293D01*
X912920Y-6052293D02*
X912920Y-6004674D01*
X912920Y-6004674D02*
X922443Y-5966579D01*
X922443Y-5966579D02*
X931967Y-5947531D01*
X931967Y-5947531D02*
X941491Y-5938008D01*
X941491Y-5938008D02*
X960539Y-5928484D01*
X1112920Y-6128484D02*
X1112920Y-5995150D01*
X1112920Y-6014198D02*
X1122444Y-6004674D01*
X1122444Y-6004674D02*
X1141491Y-5995150D01*
X1141491Y-5995150D02*
X1170063Y-5995150D01*
X1170063Y-5995150D02*
X1189110Y-6004674D01*
X1189110Y-6004674D02*
X1198634Y-6023722D01*
X1198634Y-6023722D02*
X1198634Y-6128484D01*
X1198634Y-6023722D02*
X1208158Y-6004674D01*
X1208158Y-6004674D02*
X1227205Y-5995150D01*
X1227205Y-5995150D02*
X1255777Y-5995150D01*
X1255777Y-5995150D02*
X1274825Y-6004674D01*
X1274825Y-6004674D02*
X1284348Y-6023722D01*
X1284348Y-6023722D02*
X1284348Y-6128484D01*
X1379586Y-6128484D02*
X1379586Y-5995150D01*
X1379586Y-6014198D02*
X1389110Y-6004674D01*
X1389110Y-6004674D02*
X1408158Y-5995150D01*
X1408158Y-5995150D02*
X1436729Y-5995150D01*
X1436729Y-5995150D02*
X1455777Y-6004674D01*
X1455777Y-6004674D02*
X1465301Y-6023722D01*
X1465301Y-6023722D02*
X1465301Y-6128484D01*
X1465301Y-6023722D02*
X1474824Y-6004674D01*
X1474824Y-6004674D02*
X1493872Y-5995150D01*
X1493872Y-5995150D02*
X1522443Y-5995150D01*
X1522443Y-5995150D02*
X1541491Y-6004674D01*
X1541491Y-6004674D02*
X1551015Y-6023722D01*
X1551015Y-6023722D02*
X1551015Y-6128484D01*
X1941491Y-5918960D02*
X1770063Y-6176103D01*
X2198634Y-5928484D02*
X2217682Y-5928484D01*
X2217682Y-5928484D02*
X2236729Y-5938008D01*
X2236729Y-5938008D02*
X2246253Y-5947531D01*
X2246253Y-5947531D02*
X2255777Y-5966579D01*
X2255777Y-5966579D02*
X2265301Y-6004674D01*
X2265301Y-6004674D02*
X2265301Y-6052293D01*
X2265301Y-6052293D02*
X2255777Y-6090388D01*
X2255777Y-6090388D02*
X2246253Y-6109436D01*
X2246253Y-6109436D02*
X2236729Y-6118960D01*
X2236729Y-6118960D02*
X2217682Y-6128484D01*
X2217682Y-6128484D02*
X2198634Y-6128484D01*
X2198634Y-6128484D02*
X2179587Y-6118960D01*
X2179587Y-6118960D02*
X2170063Y-6109436D01*
X2170063Y-6109436D02*
X2160539Y-6090388D01*
X2160539Y-6090388D02*
X2151015Y-6052293D01*
X2151015Y-6052293D02*
X2151015Y-6004674D01*
X2151015Y-6004674D02*
X2160539Y-5966579D01*
X2160539Y-5966579D02*
X2170063Y-5947531D01*
X2170063Y-5947531D02*
X2179587Y-5938008D01*
X2179587Y-5938008D02*
X2198634Y-5928484D01*
X2351015Y-6109436D02*
X2360539Y-6118960D01*
X2360539Y-6118960D02*
X2351015Y-6128484D01*
X2351015Y-6128484D02*
X2341491Y-6118960D01*
X2341491Y-6118960D02*
X2351015Y-6109436D01*
X2351015Y-6109436D02*
X2351015Y-6128484D01*
X2484348Y-5928484D02*
X2503396Y-5928484D01*
X2503396Y-5928484D02*
X2522444Y-5938008D01*
X2522444Y-5938008D02*
X2531968Y-5947531D01*
X2531968Y-5947531D02*
X2541491Y-5966579D01*
X2541491Y-5966579D02*
X2551015Y-6004674D01*
X2551015Y-6004674D02*
X2551015Y-6052293D01*
X2551015Y-6052293D02*
X2541491Y-6090388D01*
X2541491Y-6090388D02*
X2531968Y-6109436D01*
X2531968Y-6109436D02*
X2522444Y-6118960D01*
X2522444Y-6118960D02*
X2503396Y-6128484D01*
X2503396Y-6128484D02*
X2484348Y-6128484D01*
X2484348Y-6128484D02*
X2465301Y-6118960D01*
X2465301Y-6118960D02*
X2455777Y-6109436D01*
X2455777Y-6109436D02*
X2446253Y-6090388D01*
X2446253Y-6090388D02*
X2436729Y-6052293D01*
X2436729Y-6052293D02*
X2436729Y-6004674D01*
X2436729Y-6004674D02*
X2446253Y-5966579D01*
X2446253Y-5966579D02*
X2455777Y-5947531D01*
X2455777Y-5947531D02*
X2465301Y-5938008D01*
X2465301Y-5938008D02*
X2484348Y-5928484D01*
X2627206Y-5947531D02*
X2636729Y-5938008D01*
X2636729Y-5938008D02*
X2655777Y-5928484D01*
X2655777Y-5928484D02*
X2703396Y-5928484D01*
X2703396Y-5928484D02*
X2722444Y-5938008D01*
X2722444Y-5938008D02*
X2731968Y-5947531D01*
X2731968Y-5947531D02*
X2741491Y-5966579D01*
X2741491Y-5966579D02*
X2741491Y-5985627D01*
X2741491Y-5985627D02*
X2731968Y-6014198D01*
X2731968Y-6014198D02*
X2617682Y-6128484D01*
X2617682Y-6128484D02*
X2741491Y-6128484D01*
X2808158Y-5928484D02*
X2931967Y-5928484D01*
X2931967Y-5928484D02*
X2865301Y-6004674D01*
X2865301Y-6004674D02*
X2893872Y-6004674D01*
X2893872Y-6004674D02*
X2912920Y-6014198D01*
X2912920Y-6014198D02*
X2922444Y-6023722D01*
X2922444Y-6023722D02*
X2931967Y-6042769D01*
X2931967Y-6042769D02*
X2931967Y-6090388D01*
X2931967Y-6090388D02*
X2922444Y-6109436D01*
X2922444Y-6109436D02*
X2912920Y-6118960D01*
X2912920Y-6118960D02*
X2893872Y-6128484D01*
X2893872Y-6128484D02*
X2836729Y-6128484D01*
X2836729Y-6128484D02*
X2817682Y-6118960D01*
X2817682Y-6118960D02*
X2808158Y-6109436D01*
X3103396Y-5928484D02*
X3065301Y-5928484D01*
X3065301Y-5928484D02*
X3046253Y-5938008D01*
X3046253Y-5938008D02*
X3036729Y-5947531D01*
X3036729Y-5947531D02*
X3017682Y-5976103D01*
X3017682Y-5976103D02*
X3008158Y-6014198D01*
X3008158Y-6014198D02*
X3008158Y-6090388D01*
X3008158Y-6090388D02*
X3017682Y-6109436D01*
X3017682Y-6109436D02*
X3027206Y-6118960D01*
X3027206Y-6118960D02*
X3046253Y-6128484D01*
X3046253Y-6128484D02*
X3084348Y-6128484D01*
X3084348Y-6128484D02*
X3103396Y-6118960D01*
X3103396Y-6118960D02*
X3112920Y-6109436D01*
X3112920Y-6109436D02*
X3122444Y-6090388D01*
X3122444Y-6090388D02*
X3122444Y-6042769D01*
X3122444Y-6042769D02*
X3112920Y-6023722D01*
X3112920Y-6023722D02*
X3103396Y-6014198D01*
X3103396Y-6014198D02*
X3084348Y-6004674D01*
X3084348Y-6004674D02*
X3046253Y-6004674D01*
X3046253Y-6004674D02*
X3027206Y-6014198D01*
X3027206Y-6014198D02*
X3017682Y-6023722D01*
X3017682Y-6023722D02*
X3008158Y-6042769D01*
X3198634Y-5928484D02*
X3198634Y-5966579D01*
X3274825Y-5928484D02*
X3274825Y-5966579D01*
X3570063Y-6204674D02*
X3560539Y-6195150D01*
X3560539Y-6195150D02*
X3541491Y-6166579D01*
X3541491Y-6166579D02*
X3531968Y-6147531D01*
X3531968Y-6147531D02*
X3522444Y-6118960D01*
X3522444Y-6118960D02*
X3512920Y-6071341D01*
X3512920Y-6071341D02*
X3512920Y-6033246D01*
X3512920Y-6033246D02*
X3522444Y-5985627D01*
X3522444Y-5985627D02*
X3531968Y-5957055D01*
X3531968Y-5957055D02*
X3541491Y-5938008D01*
X3541491Y-5938008D02*
X3560539Y-5909436D01*
X3560539Y-5909436D02*
X3570063Y-5899912D01*
X3684348Y-5928484D02*
X3703396Y-5928484D01*
X3703396Y-5928484D02*
X3722444Y-5938008D01*
X3722444Y-5938008D02*
X3731968Y-5947531D01*
X3731968Y-5947531D02*
X3741491Y-5966579D01*
X3741491Y-5966579D02*
X3751015Y-6004674D01*
X3751015Y-6004674D02*
X3751015Y-6052293D01*
X3751015Y-6052293D02*
X3741491Y-6090388D01*
X3741491Y-6090388D02*
X3731968Y-6109436D01*
X3731968Y-6109436D02*
X3722444Y-6118960D01*
X3722444Y-6118960D02*
X3703396Y-6128484D01*
X3703396Y-6128484D02*
X3684348Y-6128484D01*
X3684348Y-6128484D02*
X3665301Y-6118960D01*
X3665301Y-6118960D02*
X3655777Y-6109436D01*
X3655777Y-6109436D02*
X3646253Y-6090388D01*
X3646253Y-6090388D02*
X3636729Y-6052293D01*
X3636729Y-6052293D02*
X3636729Y-6004674D01*
X3636729Y-6004674D02*
X3646253Y-5966579D01*
X3646253Y-5966579D02*
X3655777Y-5947531D01*
X3655777Y-5947531D02*
X3665301Y-5938008D01*
X3665301Y-5938008D02*
X3684348Y-5928484D01*
X3989110Y-6128484D02*
X3989110Y-5928484D01*
X4074825Y-6128484D02*
X4074825Y-6023722D01*
X4074825Y-6023722D02*
X4065301Y-6004674D01*
X4065301Y-6004674D02*
X4046253Y-5995150D01*
X4046253Y-5995150D02*
X4017682Y-5995150D01*
X4017682Y-5995150D02*
X3998634Y-6004674D01*
X3998634Y-6004674D02*
X3989110Y-6014198D01*
X4198634Y-6128484D02*
X4179587Y-6118960D01*
X4179587Y-6118960D02*
X4170063Y-6109436D01*
X4170063Y-6109436D02*
X4160539Y-6090388D01*
X4160539Y-6090388D02*
X4160539Y-6033246D01*
X4160539Y-6033246D02*
X4170063Y-6014198D01*
X4170063Y-6014198D02*
X4179587Y-6004674D01*
X4179587Y-6004674D02*
X4198634Y-5995150D01*
X4198634Y-5995150D02*
X4227206Y-5995150D01*
X4227206Y-5995150D02*
X4246253Y-6004674D01*
X4246253Y-6004674D02*
X4255777Y-6014198D01*
X4255777Y-6014198D02*
X4265301Y-6033246D01*
X4265301Y-6033246D02*
X4265301Y-6090388D01*
X4265301Y-6090388D02*
X4255777Y-6109436D01*
X4255777Y-6109436D02*
X4246253Y-6118960D01*
X4246253Y-6118960D02*
X4227206Y-6128484D01*
X4227206Y-6128484D02*
X4198634Y-6128484D01*
X4379587Y-6128484D02*
X4360539Y-6118960D01*
X4360539Y-6118960D02*
X4351015Y-6099912D01*
X4351015Y-6099912D02*
X4351015Y-5928484D01*
X4531968Y-6118960D02*
X4512920Y-6128484D01*
X4512920Y-6128484D02*
X4474825Y-6128484D01*
X4474825Y-6128484D02*
X4455777Y-6118960D01*
X4455777Y-6118960D02*
X4446253Y-6099912D01*
X4446253Y-6099912D02*
X4446253Y-6023722D01*
X4446253Y-6023722D02*
X4455777Y-6004674D01*
X4455777Y-6004674D02*
X4474825Y-5995150D01*
X4474825Y-5995150D02*
X4512920Y-5995150D01*
X4512920Y-5995150D02*
X4531968Y-6004674D01*
X4531968Y-6004674D02*
X4541492Y-6023722D01*
X4541492Y-6023722D02*
X4541492Y-6042769D01*
X4541492Y-6042769D02*
X4446253Y-6061817D01*
X4617682Y-6118960D02*
X4636730Y-6128484D01*
X4636730Y-6128484D02*
X4674825Y-6128484D01*
X4674825Y-6128484D02*
X4693873Y-6118960D01*
X4693873Y-6118960D02*
X4703396Y-6099912D01*
X4703396Y-6099912D02*
X4703396Y-6090388D01*
X4703396Y-6090388D02*
X4693873Y-6071341D01*
X4693873Y-6071341D02*
X4674825Y-6061817D01*
X4674825Y-6061817D02*
X4646253Y-6061817D01*
X4646253Y-6061817D02*
X4627206Y-6052293D01*
X4627206Y-6052293D02*
X4617682Y-6033246D01*
X4617682Y-6033246D02*
X4617682Y-6023722D01*
X4617682Y-6023722D02*
X4627206Y-6004674D01*
X4627206Y-6004674D02*
X4646253Y-5995150D01*
X4646253Y-5995150D02*
X4674825Y-5995150D01*
X4674825Y-5995150D02*
X4693873Y-6004674D01*
X4941492Y-6052293D02*
X5093873Y-6052293D01*
X5017682Y-6128484D02*
X5017682Y-5976103D01*
X5427206Y-5995150D02*
X5427206Y-6128484D01*
X5379587Y-5918960D02*
X5331968Y-6061817D01*
X5331968Y-6061817D02*
X5455777Y-6061817D01*
X5674825Y-6118960D02*
X5693873Y-6128484D01*
X5693873Y-6128484D02*
X5731968Y-6128484D01*
X5731968Y-6128484D02*
X5751015Y-6118960D01*
X5751015Y-6118960D02*
X5760539Y-6099912D01*
X5760539Y-6099912D02*
X5760539Y-6090388D01*
X5760539Y-6090388D02*
X5751015Y-6071341D01*
X5751015Y-6071341D02*
X5731968Y-6061817D01*
X5731968Y-6061817D02*
X5703396Y-6061817D01*
X5703396Y-6061817D02*
X5684349Y-6052293D01*
X5684349Y-6052293D02*
X5674825Y-6033246D01*
X5674825Y-6033246D02*
X5674825Y-6023722D01*
X5674825Y-6023722D02*
X5684349Y-6004674D01*
X5684349Y-6004674D02*
X5703396Y-5995150D01*
X5703396Y-5995150D02*
X5731968Y-5995150D01*
X5731968Y-5995150D02*
X5751015Y-6004674D01*
X5874825Y-6128484D02*
X5855777Y-6118960D01*
X5855777Y-6118960D02*
X5846254Y-6099912D01*
X5846254Y-6099912D02*
X5846254Y-5928484D01*
X5979587Y-6128484D02*
X5960539Y-6118960D01*
X5960539Y-6118960D02*
X5951015Y-6109436D01*
X5951015Y-6109436D02*
X5941492Y-6090388D01*
X5941492Y-6090388D02*
X5941492Y-6033246D01*
X5941492Y-6033246D02*
X5951015Y-6014198D01*
X5951015Y-6014198D02*
X5960539Y-6004674D01*
X5960539Y-6004674D02*
X5979587Y-5995150D01*
X5979587Y-5995150D02*
X6008158Y-5995150D01*
X6008158Y-5995150D02*
X6027206Y-6004674D01*
X6027206Y-6004674D02*
X6036730Y-6014198D01*
X6036730Y-6014198D02*
X6046254Y-6033246D01*
X6046254Y-6033246D02*
X6046254Y-6090388D01*
X6046254Y-6090388D02*
X6036730Y-6109436D01*
X6036730Y-6109436D02*
X6027206Y-6118960D01*
X6027206Y-6118960D02*
X6008158Y-6128484D01*
X6008158Y-6128484D02*
X5979587Y-6128484D01*
X6103396Y-5995150D02*
X6179587Y-5995150D01*
X6131968Y-5928484D02*
X6131968Y-6099912D01*
X6131968Y-6099912D02*
X6141492Y-6118960D01*
X6141492Y-6118960D02*
X6160539Y-6128484D01*
X6160539Y-6128484D02*
X6179587Y-6128484D01*
X6236730Y-6118960D02*
X6255777Y-6128484D01*
X6255777Y-6128484D02*
X6293873Y-6128484D01*
X6293873Y-6128484D02*
X6312920Y-6118960D01*
X6312920Y-6118960D02*
X6322444Y-6099912D01*
X6322444Y-6099912D02*
X6322444Y-6090388D01*
X6322444Y-6090388D02*
X6312920Y-6071341D01*
X6312920Y-6071341D02*
X6293873Y-6061817D01*
X6293873Y-6061817D02*
X6265301Y-6061817D01*
X6265301Y-6061817D02*
X6246254Y-6052293D01*
X6246254Y-6052293D02*
X6236730Y-6033246D01*
X6236730Y-6033246D02*
X6236730Y-6023722D01*
X6236730Y-6023722D02*
X6246254Y-6004674D01*
X6246254Y-6004674D02*
X6265301Y-5995150D01*
X6265301Y-5995150D02*
X6293873Y-5995150D01*
X6293873Y-5995150D02*
X6312920Y-6004674D01*
X6389111Y-6204674D02*
X6398635Y-6195150D01*
X6398635Y-6195150D02*
X6417682Y-6166579D01*
X6417682Y-6166579D02*
X6427206Y-6147531D01*
X6427206Y-6147531D02*
X6436730Y-6118960D01*
X6436730Y-6118960D02*
X6446254Y-6071341D01*
X6446254Y-6071341D02*
X6446254Y-6033246D01*
X6446254Y-6033246D02*
X6436730Y-5985627D01*
X6436730Y-5985627D02*
X6427206Y-5957055D01*
X6427206Y-5957055D02*
X6417682Y-5938008D01*
X6417682Y-5938008D02*
X6398635Y-5909436D01*
X6398635Y-5909436D02*
X6389111Y-5899912D01*
M02*
