%TF.GenerationSoftware,KiCad,Pcbnew,10.0.6*%
%TF.CreationDate,2026-10-05T08:24:11-07:00*%
%TF.ProjectId,plush-toy-v2-A,706c7573-682d-4746-9f79-2d76322d412e,rev?*%
%TF.SameCoordinates,Original*%
%TF.FileFunction,Copper,L2,Inr*%
%TF.FilePolarity,Positive*%
%FSLAX46Y46*%
G04 Gerber Fmt 4.6, Leading zero omitted, Abs format (unit mm)*
G04 Created by KiCad (PCBNEW 10.0.6) date 2026-10-05 08:24:11*
%MOMM*%
%LPD*%
G01*
G04 APERTURE LIST*
%TA.AperFunction,HeatsinkPad*%
%ADD10C,0.600000*%
%TD*%
%TA.AperFunction,ComponentPad*%
%ADD11O,1.000000X2.100000*%
%TD*%
%TA.AperFunction,ComponentPad*%
%ADD12O,1.000000X1.600000*%
%TD*%
%TA.AperFunction,HeatsinkPad*%
%ADD13C,0.500000*%
%TD*%
%TA.AperFunction,ViaPad*%
%ADD14C,0.600000*%
%TD*%
%TA.AperFunction,ViaPad*%
%ADD15C,0.800000*%
%TD*%
G04 APERTURE END LIST*
D10*
%TO.N,GND*%
%TO.C,U1*%
X8510000Y-23900000D03*
X9910000Y-23900000D03*
X7810000Y-23200000D03*
X9210000Y-23200000D03*
X10610000Y-23200000D03*
X8510000Y-22500000D03*
X9910000Y-22500000D03*
X7810000Y-21800000D03*
X9210000Y-21800000D03*
X10610000Y-21800000D03*
X8510000Y-21100000D03*
X9910000Y-21100000D03*
%TD*%
D11*
%TO.N,GND*%
%TO.C,J_USB*%
X24480000Y-38225000D03*
D12*
X24480000Y-42405000D03*
D11*
X33120000Y-38225000D03*
D12*
X33120000Y-42405000D03*
%TD*%
D13*
%TO.N,GND*%
%TO.C,U_EFUSE*%
X32800000Y-33750000D03*
X32800000Y-34850000D03*
%TD*%
D14*
%TO.N,EN*%
X14868300Y-25263600D03*
X22738500Y-15299300D03*
%TO.N,GND*%
X19000000Y-7000000D03*
X13000000Y-37600000D03*
X36710000Y-44750000D03*
X41500000Y-2540000D03*
X19500000Y-38825000D03*
X16982600Y-35291000D03*
X31000000Y-29000000D03*
X47700000Y-6500000D03*
X23678100Y-7022000D03*
X41050000Y-32025000D03*
X39800000Y-20350000D03*
X47405000Y-8960000D03*
X15750000Y-31520000D03*
X5075000Y-32800000D03*
X1490000Y-12250000D03*
X42250000Y-16200000D03*
X39910000Y-36750000D03*
X38000000Y-34000000D03*
X37405700Y-37830700D03*
X27000000Y-13290000D03*
X23200000Y-24990000D03*
X27050000Y-23750000D03*
X38250000Y-12050000D03*
X36300000Y-26100000D03*
X43980000Y-10000000D03*
X43200000Y-13750000D03*
X47859100Y-38988400D03*
X41500000Y-23770000D03*
X20710000Y-43000000D03*
X34000000Y-5495000D03*
X20460000Y-10500000D03*
X5250000Y-6000000D03*
X22500000Y-38270000D03*
X4410000Y-31400000D03*
X34100000Y-32360000D03*
X36250000Y-41250000D03*
X30650000Y-32990000D03*
X18000000Y-9250000D03*
X25680000Y-14500000D03*
X21210000Y-38000000D03*
X9730000Y-39750000D03*
X38000000Y-5495000D03*
X36360000Y-18700000D03*
X11960000Y-10000000D03*
X25701600Y-25871900D03*
X13536100Y-6278600D03*
X8290900Y-7011600D03*
X1490000Y-29750000D03*
X38791000Y-23517400D03*
X25680000Y-19000000D03*
X26581000Y-27199100D03*
X27350000Y-27600000D03*
X27300000Y-30300000D03*
X47405000Y-17460000D03*
X50136800Y-43406800D03*
X32350000Y-14925000D03*
D15*
%TO.N,VBAT*%
X20855800Y-30604200D03*
X8056700Y-41760700D03*
D14*
X23111700Y-34362800D03*
D15*
X16995700Y-37130000D03*
X27021100Y-28811000D03*
D14*
%TO.N,NTC_SENSE*%
X7632900Y-28534800D03*
X23304700Y-45179000D03*
%TO.N,+3V3*%
X23020000Y-16750000D03*
X1725000Y-32800000D03*
X33500000Y-12730000D03*
X40450000Y-17150000D03*
X28732600Y-13291000D03*
X1990000Y-31400000D03*
X51613200Y-43373200D03*
X21000000Y-41730000D03*
X41500000Y-4960000D03*
X2760000Y-29750000D03*
X12740000Y-8980000D03*
X42250000Y-18100000D03*
X39000000Y-5495000D03*
X36310000Y-13330000D03*
X18040000Y-10500000D03*
X22361600Y-7020700D03*
%TO.N,LCD_MOSI*%
X23512700Y-10760000D03*
X22040500Y-16716700D03*
%TO.N,CC_SENSE*%
X27788800Y-44387600D03*
X16572500Y-33792800D03*
X23283300Y-44388700D03*
%TO.N,BAT_NTC_SENSE*%
X13292600Y-40513000D03*
X16020200Y-38244000D03*
X9138500Y-30967200D03*
%TO.N,HEAT_GATE_DRV*%
X32508200Y-23684100D03*
X14869600Y-28294400D03*
%TO.N,KEY_MUTE*%
X10856700Y-7113300D03*
X12027900Y-31118700D03*
%TO.N,USB_DN*%
X25404800Y-40797900D03*
X18089000Y-31331600D03*
%TO.N,USB_DP*%
X29591100Y-38487500D03*
X25466700Y-32656200D03*
%TO.N,SERVO_L_PWM*%
X39369500Y-15036900D03*
X20539100Y-27985000D03*
X26989600Y-17608400D03*
X31361100Y-17608400D03*
%TO.N,SERVO_R_PWM*%
X43292600Y-9176600D03*
X45899900Y-23502900D03*
X22205500Y-26715000D03*
%TO.N,LCD_RST*%
X18041100Y-18111700D03*
X22308800Y-12576500D03*
%TO.N,LCD_DC*%
X25262900Y-9132700D03*
X26500000Y-7013500D03*
%TO.N,LCD_BL_PWM*%
X22135100Y-11472500D03*
X18047500Y-15285000D03*
X27948600Y-14000000D03*
X25045400Y-10341900D03*
%TO.N,LCD_CS*%
X27046600Y-8630400D03*
X19005400Y-13096600D03*
%TO.N,BOOT*%
X22542400Y-19258500D03*
X17472200Y-13461200D03*
X24502500Y-20471900D03*
%TO.N,LCD_CLK*%
X23354400Y-13179200D03*
X13008100Y-13455000D03*
X15153000Y-9855200D03*
X21826000Y-9855200D03*
%TO.N,AMP_DIN*%
X11650000Y-13464500D03*
X35215000Y-35289900D03*
%TO.N,AMP_BCLK*%
X25847000Y-30487700D03*
X10585900Y-13457600D03*
X21672600Y-28860400D03*
X35159000Y-32267200D03*
%TO.N,AMP_LRCLK*%
X20781200Y-11248300D03*
X34470000Y-24843400D03*
%TO.N,MIC_SD*%
X24148000Y-3021600D03*
X16200800Y-10613200D03*
%TO.N,I2C_SCL*%
X24015300Y-28338700D03*
X29434500Y-30807700D03*
X6165700Y-13630700D03*
%TO.N,MIC_SCK*%
X4030000Y-11035600D03*
X10097300Y-3982800D03*
%TO.N,MIC_WS*%
X6130400Y-3430800D03*
X2760000Y-11046400D03*
%TO.N,VSYS*%
X47405000Y-20000000D03*
X38400400Y-36302300D03*
X41050000Y-35375000D03*
X35270000Y-31000000D03*
X27350000Y-25700000D03*
X25150000Y-23750000D03*
X39411000Y-35645300D03*
X28477500Y-25156800D03*
X47405000Y-11500000D03*
%TO.N,KEY_PWR*%
X19610700Y-6251700D03*
X33591100Y-24855400D03*
%TO.N,CC1*%
X27613500Y-38504200D03*
X32358100Y-40470500D03*
%TO.N,LCD_CLK_S*%
X24621800Y-7019100D03*
X26760000Y-11460500D03*
%TO.N,LCD_BL*%
X29853400Y-9468700D03*
X29853400Y-4686000D03*
%TO.N,AMP_SD*%
X35981700Y-35330800D03*
X37952400Y-31681400D03*
D15*
%TO.N,VBAT_PACK*%
X19177200Y-35213400D03*
X23603400Y-31573300D03*
D14*
%TO.N,CC2*%
X29338600Y-39694800D03*
X30537300Y-38516100D03*
D15*
%TO.N,VUSB*%
X38592700Y-30403900D03*
X34049300Y-35861000D03*
X25898800Y-31791500D03*
%TD*%
%TA.AperFunction,Conductor*%
%TO.N,GND*%
G36*
X52004418Y-300816D02*
G01*
X52233020Y-317165D01*
X52250529Y-319683D01*
X52470144Y-367458D01*
X52487103Y-372437D01*
X52697694Y-450983D01*
X52713777Y-458327D01*
X52911034Y-566039D01*
X52911036Y-566040D01*
X52925919Y-575605D01*
X53105836Y-710289D01*
X53119207Y-721875D01*
X53278124Y-880792D01*
X53289710Y-894163D01*
X53424394Y-1074080D01*
X53433959Y-1088963D01*
X53541669Y-1286217D01*
X53549019Y-1302311D01*
X53627559Y-1512887D01*
X53632543Y-1529862D01*
X53680316Y-1749470D01*
X53682834Y-1766982D01*
X53699184Y-1995580D01*
X53699500Y-2004426D01*
X53699500Y-43995572D01*
X53699184Y-44004419D01*
X53682833Y-44233019D01*
X53680315Y-44250530D01*
X53632544Y-44470133D01*
X53627560Y-44487109D01*
X53549016Y-44697691D01*
X53541666Y-44713783D01*
X53433961Y-44911032D01*
X53424396Y-44925917D01*
X53289708Y-45105838D01*
X53278122Y-45119208D01*
X53119208Y-45278122D01*
X53105838Y-45289708D01*
X52925917Y-45424396D01*
X52911032Y-45433961D01*
X52713783Y-45541666D01*
X52697691Y-45549016D01*
X52487109Y-45627560D01*
X52470133Y-45632544D01*
X52250530Y-45680315D01*
X52233019Y-45682833D01*
X52025320Y-45697688D01*
X52004417Y-45699184D01*
X51995572Y-45699500D01*
X24141136Y-45699500D01*
X24074097Y-45679815D01*
X24028342Y-45627011D01*
X24018398Y-45557853D01*
X24026575Y-45528048D01*
X24074435Y-45412501D01*
X24074437Y-45412497D01*
X24105200Y-45257842D01*
X24105200Y-45100158D01*
X24105200Y-45100155D01*
X24105199Y-45100153D01*
X24074512Y-44945880D01*
X24074437Y-44945503D01*
X24016432Y-44805467D01*
X24008964Y-44735999D01*
X24016432Y-44710567D01*
X24053037Y-44622197D01*
X24083800Y-44467542D01*
X24083800Y-44309858D01*
X24083581Y-44308758D01*
X24083580Y-44308753D01*
X26988300Y-44308753D01*
X26988300Y-44466446D01*
X27019061Y-44621089D01*
X27019064Y-44621101D01*
X27079402Y-44766772D01*
X27079409Y-44766785D01*
X27167010Y-44897888D01*
X27167013Y-44897892D01*
X27278507Y-45009386D01*
X27278511Y-45009389D01*
X27409614Y-45096990D01*
X27409627Y-45096997D01*
X27555298Y-45157335D01*
X27555303Y-45157337D01*
X27709953Y-45188099D01*
X27709956Y-45188100D01*
X27709958Y-45188100D01*
X27867644Y-45188100D01*
X27867645Y-45188099D01*
X28022297Y-45157337D01*
X28146632Y-45105836D01*
X28167972Y-45096997D01*
X28167972Y-45096996D01*
X28167979Y-45096994D01*
X28299089Y-45009389D01*
X28410589Y-44897889D01*
X28498194Y-44766779D01*
X28558537Y-44621097D01*
X28589300Y-44466442D01*
X28589300Y-44308758D01*
X28589300Y-44308755D01*
X28589299Y-44308753D01*
X28558757Y-44155210D01*
X28558537Y-44154103D01*
X28552345Y-44139155D01*
X28498197Y-44008427D01*
X28498190Y-44008414D01*
X28410589Y-43877311D01*
X28410586Y-43877307D01*
X28299092Y-43765813D01*
X28299088Y-43765810D01*
X28167985Y-43678209D01*
X28167972Y-43678202D01*
X28022301Y-43617864D01*
X28022289Y-43617861D01*
X27867645Y-43587100D01*
X27867642Y-43587100D01*
X27709958Y-43587100D01*
X27709955Y-43587100D01*
X27555310Y-43617861D01*
X27555298Y-43617864D01*
X27409627Y-43678202D01*
X27409614Y-43678209D01*
X27278511Y-43765810D01*
X27278507Y-43765813D01*
X27167013Y-43877307D01*
X27167010Y-43877311D01*
X27079409Y-44008414D01*
X27079402Y-44008427D01*
X27019064Y-44154098D01*
X27019061Y-44154110D01*
X26988300Y-44308753D01*
X24083580Y-44308753D01*
X24053038Y-44155210D01*
X24053037Y-44155203D01*
X24047956Y-44142937D01*
X23992697Y-44009527D01*
X23992690Y-44009514D01*
X23905089Y-43878411D01*
X23905086Y-43878407D01*
X23793592Y-43766913D01*
X23793588Y-43766910D01*
X23662485Y-43679309D01*
X23662472Y-43679302D01*
X23516801Y-43618964D01*
X23516789Y-43618961D01*
X23362145Y-43588200D01*
X23362142Y-43588200D01*
X23204458Y-43588200D01*
X23204455Y-43588200D01*
X23049810Y-43618961D01*
X23049798Y-43618964D01*
X22904127Y-43679302D01*
X22904114Y-43679309D01*
X22773011Y-43766910D01*
X22773007Y-43766913D01*
X22661513Y-43878407D01*
X22661510Y-43878411D01*
X22573909Y-44009514D01*
X22573902Y-44009527D01*
X22513564Y-44155198D01*
X22513561Y-44155210D01*
X22482800Y-44309853D01*
X22482800Y-44467546D01*
X22513561Y-44622189D01*
X22513564Y-44622201D01*
X22571565Y-44762230D01*
X22579034Y-44831700D01*
X22571566Y-44857133D01*
X22534964Y-44945502D01*
X22534962Y-44945506D01*
X22534960Y-44945511D01*
X22504200Y-45100153D01*
X22504200Y-45257846D01*
X22534961Y-45412489D01*
X22534964Y-45412501D01*
X22582825Y-45528048D01*
X22590294Y-45597517D01*
X22559019Y-45659996D01*
X22498930Y-45695648D01*
X22468264Y-45699500D01*
X2004428Y-45699500D01*
X1995582Y-45699184D01*
X1766982Y-45682834D01*
X1749470Y-45680316D01*
X1529862Y-45632543D01*
X1512887Y-45627559D01*
X1432340Y-45597517D01*
X1302311Y-45549019D01*
X1286217Y-45541669D01*
X1088963Y-45433959D01*
X1074080Y-45424394D01*
X894163Y-45289710D01*
X880792Y-45278124D01*
X721875Y-45119207D01*
X710289Y-45105836D01*
X575605Y-44925919D01*
X566040Y-44911036D01*
X558861Y-44897888D01*
X458327Y-44713777D01*
X450983Y-44697694D01*
X372437Y-44487103D01*
X367458Y-44470144D01*
X319683Y-44250529D01*
X317165Y-44233017D01*
X311600Y-44155210D01*
X300816Y-44004418D01*
X300500Y-43995572D01*
X300500Y-42393713D01*
X2149500Y-42393713D01*
X2149500Y-42606286D01*
X2172485Y-42751411D01*
X2182754Y-42816243D01*
X2197917Y-42862911D01*
X2248444Y-43018414D01*
X2344951Y-43207820D01*
X2469890Y-43379786D01*
X2620213Y-43530109D01*
X2792179Y-43655048D01*
X2792181Y-43655049D01*
X2792184Y-43655051D01*
X2981588Y-43751557D01*
X3183757Y-43817246D01*
X3393713Y-43850500D01*
X3393714Y-43850500D01*
X3606286Y-43850500D01*
X3606287Y-43850500D01*
X3816243Y-43817246D01*
X4018412Y-43751557D01*
X4207816Y-43655051D01*
X4274381Y-43606689D01*
X4379786Y-43530109D01*
X4379788Y-43530106D01*
X4379792Y-43530104D01*
X4530104Y-43379792D01*
X4592179Y-43294353D01*
X50812700Y-43294353D01*
X50812700Y-43452046D01*
X50843461Y-43606689D01*
X50843464Y-43606701D01*
X50903802Y-43752372D01*
X50903809Y-43752385D01*
X50991410Y-43883488D01*
X50991413Y-43883492D01*
X51102907Y-43994986D01*
X51102911Y-43994989D01*
X51234014Y-44082590D01*
X51234027Y-44082597D01*
X51370572Y-44139155D01*
X51379703Y-44142937D01*
X51534353Y-44173699D01*
X51534356Y-44173700D01*
X51534358Y-44173700D01*
X51692044Y-44173700D01*
X51692045Y-44173699D01*
X51846697Y-44142937D01*
X51992379Y-44082594D01*
X52123489Y-43994989D01*
X52234989Y-43883489D01*
X52322594Y-43752379D01*
X52322935Y-43751557D01*
X52352860Y-43679309D01*
X52382937Y-43606697D01*
X52413700Y-43452042D01*
X52413700Y-43294358D01*
X52413700Y-43294355D01*
X52413699Y-43294353D01*
X52396486Y-43207818D01*
X52382937Y-43139703D01*
X52332697Y-43018412D01*
X52322597Y-42994027D01*
X52322590Y-42994014D01*
X52234989Y-42862911D01*
X52234986Y-42862907D01*
X52123492Y-42751413D01*
X52123488Y-42751410D01*
X51992385Y-42663809D01*
X51992372Y-42663802D01*
X51846701Y-42603464D01*
X51846689Y-42603461D01*
X51692045Y-42572700D01*
X51692042Y-42572700D01*
X51534358Y-42572700D01*
X51534355Y-42572700D01*
X51379710Y-42603461D01*
X51379698Y-42603464D01*
X51234027Y-42663802D01*
X51234014Y-42663809D01*
X51102911Y-42751410D01*
X51102907Y-42751413D01*
X50991413Y-42862907D01*
X50991410Y-42862911D01*
X50903809Y-42994014D01*
X50903802Y-42994027D01*
X50843464Y-43139698D01*
X50843461Y-43139710D01*
X50812700Y-43294353D01*
X4592179Y-43294353D01*
X4655051Y-43207816D01*
X4751557Y-43018412D01*
X4817246Y-42816243D01*
X4850500Y-42606287D01*
X4850500Y-42393713D01*
X4817246Y-42183757D01*
X4751557Y-41981588D01*
X4655051Y-41792184D01*
X4616267Y-41738802D01*
X4616266Y-41738799D01*
X4567737Y-41672004D01*
X7156200Y-41672004D01*
X7156200Y-41849395D01*
X7190803Y-42023358D01*
X7190806Y-42023367D01*
X7258683Y-42187240D01*
X7258690Y-42187253D01*
X7357235Y-42334734D01*
X7357238Y-42334738D01*
X7482661Y-42460161D01*
X7482665Y-42460164D01*
X7630146Y-42558709D01*
X7630159Y-42558716D01*
X7745006Y-42606286D01*
X7794034Y-42626594D01*
X7794036Y-42626594D01*
X7794041Y-42626596D01*
X7968004Y-42661199D01*
X7968007Y-42661200D01*
X7968009Y-42661200D01*
X8145393Y-42661200D01*
X8145394Y-42661199D01*
X8203382Y-42649664D01*
X8319358Y-42626596D01*
X8319361Y-42626594D01*
X8319366Y-42626594D01*
X8483247Y-42558713D01*
X8630735Y-42460164D01*
X8756164Y-42334735D01*
X8854713Y-42187247D01*
X8922594Y-42023366D01*
X8934505Y-41963489D01*
X8957199Y-41849395D01*
X8957200Y-41849393D01*
X8957200Y-41672010D01*
X8956653Y-41669261D01*
X8956653Y-41669257D01*
X8953052Y-41651153D01*
X20199500Y-41651153D01*
X20199500Y-41808846D01*
X20230261Y-41963489D01*
X20230264Y-41963501D01*
X20290602Y-42109172D01*
X20290609Y-42109185D01*
X20378210Y-42240288D01*
X20378213Y-42240292D01*
X20489707Y-42351786D01*
X20489711Y-42351789D01*
X20620814Y-42439390D01*
X20620827Y-42439397D01*
X20766498Y-42499735D01*
X20766503Y-42499737D01*
X20921153Y-42530499D01*
X20921156Y-42530500D01*
X20921158Y-42530500D01*
X21078844Y-42530500D01*
X21078845Y-42530499D01*
X21233497Y-42499737D01*
X21379179Y-42439394D01*
X21510289Y-42351789D01*
X21621789Y-42240289D01*
X21709394Y-42109179D01*
X21769737Y-41963497D01*
X21800500Y-41808842D01*
X21800500Y-41651158D01*
X21800500Y-41651155D01*
X21800499Y-41651153D01*
X21790006Y-41598400D01*
X21769737Y-41496503D01*
X21737919Y-41419686D01*
X21709397Y-41350827D01*
X21709390Y-41350814D01*
X21621789Y-41219711D01*
X21621786Y-41219707D01*
X21510292Y-41108213D01*
X21510288Y-41108210D01*
X21379185Y-41020609D01*
X21379172Y-41020602D01*
X21233501Y-40960264D01*
X21233489Y-40960261D01*
X21078845Y-40929500D01*
X21078842Y-40929500D01*
X20921158Y-40929500D01*
X20921155Y-40929500D01*
X20766510Y-40960261D01*
X20766498Y-40960264D01*
X20620827Y-41020602D01*
X20620814Y-41020609D01*
X20489711Y-41108210D01*
X20489707Y-41108213D01*
X20378213Y-41219707D01*
X20378210Y-41219711D01*
X20290609Y-41350814D01*
X20290602Y-41350827D01*
X20230264Y-41496498D01*
X20230261Y-41496510D01*
X20199500Y-41651153D01*
X8953052Y-41651153D01*
X8922596Y-41498041D01*
X8922593Y-41498032D01*
X8854716Y-41334159D01*
X8854709Y-41334146D01*
X8756164Y-41186665D01*
X8756161Y-41186661D01*
X8630738Y-41061238D01*
X8630734Y-41061235D01*
X8483253Y-40962690D01*
X8483240Y-40962683D01*
X8319367Y-40894806D01*
X8319358Y-40894803D01*
X8145394Y-40860200D01*
X8145391Y-40860200D01*
X7968009Y-40860200D01*
X7968006Y-40860200D01*
X7794041Y-40894803D01*
X7794032Y-40894806D01*
X7630159Y-40962683D01*
X7630146Y-40962690D01*
X7482665Y-41061235D01*
X7482661Y-41061238D01*
X7357238Y-41186661D01*
X7357235Y-41186665D01*
X7258690Y-41334146D01*
X7258683Y-41334159D01*
X7190806Y-41498032D01*
X7190803Y-41498041D01*
X7156200Y-41672004D01*
X4567737Y-41672004D01*
X4530109Y-41620214D01*
X4530105Y-41620209D01*
X4379786Y-41469890D01*
X4207820Y-41344951D01*
X4018414Y-41248444D01*
X4018413Y-41248443D01*
X4018412Y-41248443D01*
X3816243Y-41182754D01*
X3816241Y-41182753D01*
X3816240Y-41182753D01*
X3654957Y-41157208D01*
X3606287Y-41149500D01*
X3393713Y-41149500D01*
X3345042Y-41157208D01*
X3183760Y-41182753D01*
X2981585Y-41248444D01*
X2792179Y-41344951D01*
X2620213Y-41469890D01*
X2469890Y-41620213D01*
X2344951Y-41792179D01*
X2248444Y-41981585D01*
X2182753Y-42183760D01*
X2149500Y-42393713D01*
X300500Y-42393713D01*
X300500Y-40434153D01*
X12492100Y-40434153D01*
X12492100Y-40591846D01*
X12522861Y-40746489D01*
X12522864Y-40746501D01*
X12583202Y-40892172D01*
X12583209Y-40892185D01*
X12670810Y-41023288D01*
X12670813Y-41023292D01*
X12782307Y-41134786D01*
X12782311Y-41134789D01*
X12913414Y-41222390D01*
X12913427Y-41222397D01*
X13030767Y-41271000D01*
X13059103Y-41282737D01*
X13187053Y-41308188D01*
X13213753Y-41313499D01*
X13213756Y-41313500D01*
X13213758Y-41313500D01*
X13371444Y-41313500D01*
X13371445Y-41313499D01*
X13526097Y-41282737D01*
X13671779Y-41222394D01*
X13802889Y-41134789D01*
X13914389Y-41023289D01*
X14001994Y-40892179D01*
X14062337Y-40746497D01*
X14067796Y-40719053D01*
X24604300Y-40719053D01*
X24604300Y-40876746D01*
X24635061Y-41031389D01*
X24635064Y-41031401D01*
X24695402Y-41177072D01*
X24695409Y-41177085D01*
X24783010Y-41308188D01*
X24783013Y-41308192D01*
X24894507Y-41419686D01*
X24894511Y-41419689D01*
X25025614Y-41507290D01*
X25025627Y-41507297D01*
X25171298Y-41567635D01*
X25171303Y-41567637D01*
X25325953Y-41598399D01*
X25325956Y-41598400D01*
X25325958Y-41598400D01*
X25483644Y-41598400D01*
X25483645Y-41598399D01*
X25638297Y-41567637D01*
X25783979Y-41507294D01*
X25915089Y-41419689D01*
X26026589Y-41308189D01*
X26114194Y-41177079D01*
X26174537Y-41031397D01*
X26205300Y-40876742D01*
X26205300Y-40719058D01*
X26205300Y-40719055D01*
X26205299Y-40719053D01*
X26199276Y-40688774D01*
X26174537Y-40564403D01*
X26168300Y-40549346D01*
X26114197Y-40418727D01*
X26114190Y-40418714D01*
X26026589Y-40287611D01*
X26026586Y-40287607D01*
X25915092Y-40176113D01*
X25915088Y-40176110D01*
X25783985Y-40088509D01*
X25783972Y-40088502D01*
X25638301Y-40028164D01*
X25638289Y-40028161D01*
X25483645Y-39997400D01*
X25483642Y-39997400D01*
X25325958Y-39997400D01*
X25325955Y-39997400D01*
X25171310Y-40028161D01*
X25171298Y-40028164D01*
X25025627Y-40088502D01*
X25025614Y-40088509D01*
X24894511Y-40176110D01*
X24894507Y-40176113D01*
X24783013Y-40287607D01*
X24783010Y-40287611D01*
X24695409Y-40418714D01*
X24695402Y-40418727D01*
X24635064Y-40564398D01*
X24635061Y-40564410D01*
X24604300Y-40719053D01*
X14067796Y-40719053D01*
X14073819Y-40688774D01*
X14093100Y-40591844D01*
X14093100Y-40434155D01*
X14093099Y-40434153D01*
X14084646Y-40391658D01*
X14062337Y-40279503D01*
X14019511Y-40176110D01*
X14001997Y-40133827D01*
X14001990Y-40133814D01*
X13914389Y-40002711D01*
X13914386Y-40002707D01*
X13802892Y-39891213D01*
X13802888Y-39891210D01*
X13671785Y-39803609D01*
X13671772Y-39803602D01*
X13526101Y-39743264D01*
X13526089Y-39743261D01*
X13466878Y-39731483D01*
X13466877Y-39731483D01*
X13371444Y-39712500D01*
X13371442Y-39712500D01*
X13213758Y-39712500D01*
X13213755Y-39712500D01*
X13059110Y-39743261D01*
X13059098Y-39743264D01*
X12913427Y-39803602D01*
X12913414Y-39803609D01*
X12782311Y-39891210D01*
X12782307Y-39891213D01*
X12670813Y-40002707D01*
X12670810Y-40002711D01*
X12583209Y-40133814D01*
X12583202Y-40133827D01*
X12522864Y-40279498D01*
X12522861Y-40279510D01*
X12492100Y-40434153D01*
X300500Y-40434153D01*
X300500Y-39615953D01*
X28538100Y-39615953D01*
X28538100Y-39773646D01*
X28568861Y-39928289D01*
X28568864Y-39928301D01*
X28629202Y-40073972D01*
X28629209Y-40073985D01*
X28716810Y-40205088D01*
X28716813Y-40205092D01*
X28828307Y-40316586D01*
X28828311Y-40316589D01*
X28959414Y-40404190D01*
X28959427Y-40404197D01*
X29105098Y-40464535D01*
X29105103Y-40464537D01*
X29259753Y-40495299D01*
X29259756Y-40495300D01*
X29259758Y-40495300D01*
X29417444Y-40495300D01*
X29417445Y-40495299D01*
X29572097Y-40464537D01*
X29717779Y-40404194D01*
X29736548Y-40391653D01*
X31557600Y-40391653D01*
X31557600Y-40549346D01*
X31588361Y-40703989D01*
X31588364Y-40704001D01*
X31648702Y-40849672D01*
X31648709Y-40849685D01*
X31736310Y-40980788D01*
X31736313Y-40980792D01*
X31847807Y-41092286D01*
X31847811Y-41092289D01*
X31978914Y-41179890D01*
X31978927Y-41179897D01*
X32081533Y-41222397D01*
X32124603Y-41240237D01*
X32279253Y-41270999D01*
X32279256Y-41271000D01*
X32279258Y-41271000D01*
X32436944Y-41271000D01*
X32436945Y-41270999D01*
X32591597Y-41240237D01*
X32737279Y-41179894D01*
X32868389Y-41092289D01*
X32979889Y-40980789D01*
X33067494Y-40849679D01*
X33127837Y-40703997D01*
X33158600Y-40549342D01*
X33158600Y-40391658D01*
X33158600Y-40391655D01*
X33158599Y-40391653D01*
X33139947Y-40297885D01*
X33127837Y-40237003D01*
X33114618Y-40205089D01*
X33067497Y-40091327D01*
X33067490Y-40091314D01*
X32979889Y-39960211D01*
X32979886Y-39960207D01*
X32868392Y-39848713D01*
X32868388Y-39848710D01*
X32737285Y-39761109D01*
X32737272Y-39761102D01*
X32591601Y-39700764D01*
X32591589Y-39700761D01*
X32436945Y-39670000D01*
X32436942Y-39670000D01*
X32279258Y-39670000D01*
X32279255Y-39670000D01*
X32124610Y-39700761D01*
X32124598Y-39700764D01*
X31978927Y-39761102D01*
X31978914Y-39761109D01*
X31847811Y-39848710D01*
X31847807Y-39848713D01*
X31736313Y-39960207D01*
X31736310Y-39960211D01*
X31648709Y-40091314D01*
X31648702Y-40091327D01*
X31588364Y-40236998D01*
X31588361Y-40237010D01*
X31557600Y-40391653D01*
X29736548Y-40391653D01*
X29848889Y-40316589D01*
X29848892Y-40316586D01*
X29867594Y-40297885D01*
X29960386Y-40205092D01*
X29960389Y-40205089D01*
X30047994Y-40073979D01*
X30108337Y-39928297D01*
X30139100Y-39773642D01*
X30139100Y-39615958D01*
X30139100Y-39615955D01*
X30139099Y-39615953D01*
X30108338Y-39461310D01*
X30108337Y-39461303D01*
X30094682Y-39428338D01*
X30087213Y-39358871D01*
X30118487Y-39296392D01*
X30178575Y-39260738D01*
X30248400Y-39263231D01*
X30256695Y-39266325D01*
X30303798Y-39285835D01*
X30303803Y-39285837D01*
X30458453Y-39316599D01*
X30458456Y-39316600D01*
X30458458Y-39316600D01*
X30616144Y-39316600D01*
X30616145Y-39316599D01*
X30770797Y-39285837D01*
X30916479Y-39225494D01*
X31047589Y-39137889D01*
X31065616Y-39119862D01*
X31126938Y-39086375D01*
X31196630Y-39091358D01*
X31240980Y-39119860D01*
X31336635Y-39215515D01*
X31467865Y-39291281D01*
X31614234Y-39330500D01*
X31614236Y-39330500D01*
X31765764Y-39330500D01*
X31765766Y-39330500D01*
X31912135Y-39291281D01*
X32043365Y-39215515D01*
X32150515Y-39108365D01*
X32226281Y-38977135D01*
X32265500Y-38830766D01*
X32265500Y-38679234D01*
X32226281Y-38532865D01*
X32150515Y-38401635D01*
X32043365Y-38294485D01*
X31969355Y-38251755D01*
X31912136Y-38218719D01*
X31838950Y-38199109D01*
X31765766Y-38179500D01*
X31614234Y-38179500D01*
X31467865Y-38218719D01*
X31467864Y-38218719D01*
X31467862Y-38218720D01*
X31467861Y-38218720D01*
X31439169Y-38235285D01*
X31371268Y-38251755D01*
X31305242Y-38228901D01*
X31262610Y-38175347D01*
X31255866Y-38159066D01*
X31246694Y-38136921D01*
X31246690Y-38136914D01*
X31159089Y-38005811D01*
X31159086Y-38005807D01*
X31047592Y-37894313D01*
X31047588Y-37894310D01*
X30916485Y-37806709D01*
X30916472Y-37806702D01*
X30770801Y-37746364D01*
X30770789Y-37746361D01*
X30616145Y-37715600D01*
X30616142Y-37715600D01*
X30458458Y-37715600D01*
X30458455Y-37715600D01*
X30303810Y-37746361D01*
X30303798Y-37746364D01*
X30158128Y-37806702D01*
X30158114Y-37806710D01*
X30154485Y-37809135D01*
X30087806Y-37830008D01*
X30020427Y-37811519D01*
X30016710Y-37809130D01*
X29970284Y-37778109D01*
X29970272Y-37778102D01*
X29824601Y-37717764D01*
X29824589Y-37717761D01*
X29669945Y-37687000D01*
X29669942Y-37687000D01*
X29512258Y-37687000D01*
X29512255Y-37687000D01*
X29357610Y-37717761D01*
X29357598Y-37717764D01*
X29211927Y-37778102D01*
X29211914Y-37778109D01*
X29080811Y-37865710D01*
X29080807Y-37865713D01*
X28969313Y-37977207D01*
X28969310Y-37977211D01*
X28881709Y-38108314D01*
X28881702Y-38108327D01*
X28821364Y-38253998D01*
X28821361Y-38254010D01*
X28790600Y-38408653D01*
X28790600Y-38566346D01*
X28821361Y-38720989D01*
X28821364Y-38721001D01*
X28881702Y-38866672D01*
X28881711Y-38866688D01*
X28891647Y-38881559D01*
X28912524Y-38948237D01*
X28894038Y-39015617D01*
X28857436Y-39053549D01*
X28828313Y-39073008D01*
X28828307Y-39073013D01*
X28716813Y-39184507D01*
X28716810Y-39184511D01*
X28629209Y-39315614D01*
X28629202Y-39315627D01*
X28568864Y-39461298D01*
X28568861Y-39461310D01*
X28538100Y-39615953D01*
X300500Y-39615953D01*
X300500Y-38165153D01*
X15219700Y-38165153D01*
X15219700Y-38322846D01*
X15250461Y-38477489D01*
X15250464Y-38477501D01*
X15310802Y-38623172D01*
X15310809Y-38623185D01*
X15398410Y-38754288D01*
X15398413Y-38754292D01*
X15509907Y-38865786D01*
X15509911Y-38865789D01*
X15641014Y-38953390D01*
X15641027Y-38953397D01*
X15718305Y-38985406D01*
X15786703Y-39013737D01*
X15941353Y-39044499D01*
X15941356Y-39044500D01*
X15941358Y-39044500D01*
X16099044Y-39044500D01*
X16099045Y-39044499D01*
X16253697Y-39013737D01*
X16399379Y-38953394D01*
X16530489Y-38865789D01*
X16641989Y-38754289D01*
X16692139Y-38679234D01*
X25334500Y-38679234D01*
X25334500Y-38830766D01*
X25348599Y-38883385D01*
X25373719Y-38977136D01*
X25402156Y-39026389D01*
X25449485Y-39108365D01*
X25556635Y-39215515D01*
X25687865Y-39291281D01*
X25834234Y-39330500D01*
X25834236Y-39330500D01*
X25985764Y-39330500D01*
X25985766Y-39330500D01*
X26132135Y-39291281D01*
X26263365Y-39215515D01*
X26370515Y-39108365D01*
X26446281Y-38977135D01*
X26485500Y-38830766D01*
X26485500Y-38679234D01*
X26446281Y-38532865D01*
X26446279Y-38532861D01*
X26416492Y-38481268D01*
X26416491Y-38481267D01*
X26407394Y-38465511D01*
X26384209Y-38425353D01*
X26813000Y-38425353D01*
X26813000Y-38583046D01*
X26843761Y-38737689D01*
X26843764Y-38737701D01*
X26904102Y-38883372D01*
X26904109Y-38883385D01*
X26991710Y-39014488D01*
X26991713Y-39014492D01*
X27103207Y-39125986D01*
X27103211Y-39125989D01*
X27234314Y-39213590D01*
X27234327Y-39213597D01*
X27354156Y-39263231D01*
X27380003Y-39273937D01*
X27534653Y-39304699D01*
X27534656Y-39304700D01*
X27534658Y-39304700D01*
X27692344Y-39304700D01*
X27692345Y-39304699D01*
X27846997Y-39273937D01*
X27992679Y-39213594D01*
X28123789Y-39125989D01*
X28235289Y-39014489D01*
X28322894Y-38883379D01*
X28383237Y-38737697D01*
X28414000Y-38583042D01*
X28414000Y-38425358D01*
X28414000Y-38425355D01*
X28413999Y-38425353D01*
X28393609Y-38322846D01*
X28383237Y-38270703D01*
X28375389Y-38251755D01*
X28322897Y-38125027D01*
X28322890Y-38125014D01*
X28235289Y-37993911D01*
X28235286Y-37993907D01*
X28123792Y-37882413D01*
X28123788Y-37882410D01*
X27992685Y-37794809D01*
X27992672Y-37794802D01*
X27847001Y-37734464D01*
X27846989Y-37734461D01*
X27692345Y-37703700D01*
X27692342Y-37703700D01*
X27534658Y-37703700D01*
X27534655Y-37703700D01*
X27380010Y-37734461D01*
X27379998Y-37734464D01*
X27234327Y-37794802D01*
X27234314Y-37794809D01*
X27103211Y-37882410D01*
X27103207Y-37882413D01*
X26991713Y-37993907D01*
X26991710Y-37993911D01*
X26904109Y-38125014D01*
X26904102Y-38125027D01*
X26843764Y-38270698D01*
X26843761Y-38270710D01*
X26813000Y-38425353D01*
X26384209Y-38425353D01*
X26370515Y-38401635D01*
X26263365Y-38294485D01*
X26189355Y-38251755D01*
X26132136Y-38218719D01*
X26058950Y-38199109D01*
X25985766Y-38179500D01*
X25834234Y-38179500D01*
X25687863Y-38218719D01*
X25556635Y-38294485D01*
X25556632Y-38294487D01*
X25449487Y-38401632D01*
X25449485Y-38401635D01*
X25373719Y-38532863D01*
X25349520Y-38623179D01*
X25334500Y-38679234D01*
X16692139Y-38679234D01*
X16729594Y-38623179D01*
X16789937Y-38477497D01*
X16820700Y-38322842D01*
X16820700Y-38165158D01*
X16820700Y-38159066D01*
X16822288Y-38159066D01*
X16833862Y-38098015D01*
X16881924Y-38047302D01*
X16944250Y-38030500D01*
X17084393Y-38030500D01*
X17084394Y-38030499D01*
X17142382Y-38018964D01*
X17258358Y-37995896D01*
X17258361Y-37995894D01*
X17258366Y-37995894D01*
X17422247Y-37928013D01*
X17569735Y-37829464D01*
X17695164Y-37704035D01*
X17793713Y-37556547D01*
X17861594Y-37392666D01*
X17896200Y-37218691D01*
X17896200Y-37041309D01*
X17896200Y-37041306D01*
X17896199Y-37041304D01*
X17861596Y-36867341D01*
X17861593Y-36867332D01*
X17793716Y-36703459D01*
X17793709Y-36703446D01*
X17695164Y-36555965D01*
X17695161Y-36555961D01*
X17569738Y-36430538D01*
X17569734Y-36430535D01*
X17422253Y-36331990D01*
X17422240Y-36331983D01*
X17258367Y-36264106D01*
X17258358Y-36264103D01*
X17084394Y-36229500D01*
X17084391Y-36229500D01*
X16907009Y-36229500D01*
X16907006Y-36229500D01*
X16733041Y-36264103D01*
X16733032Y-36264106D01*
X16569159Y-36331983D01*
X16569146Y-36331990D01*
X16421665Y-36430535D01*
X16421661Y-36430538D01*
X16296238Y-36555961D01*
X16296235Y-36555965D01*
X16197690Y-36703446D01*
X16197683Y-36703459D01*
X16129806Y-36867332D01*
X16129803Y-36867341D01*
X16095200Y-37041304D01*
X16095200Y-37041309D01*
X16095200Y-37218691D01*
X16095200Y-37218693D01*
X16095199Y-37218693D01*
X16110440Y-37295308D01*
X16104213Y-37364900D01*
X16061350Y-37420077D01*
X15995461Y-37443322D01*
X15988823Y-37443500D01*
X15941355Y-37443500D01*
X15786710Y-37474261D01*
X15786698Y-37474264D01*
X15641027Y-37534602D01*
X15641014Y-37534609D01*
X15509911Y-37622210D01*
X15509907Y-37622213D01*
X15398413Y-37733707D01*
X15398410Y-37733711D01*
X15310809Y-37864814D01*
X15310802Y-37864827D01*
X15250464Y-38010498D01*
X15250461Y-38010510D01*
X15219700Y-38165153D01*
X300500Y-38165153D01*
X300500Y-35124704D01*
X18276700Y-35124704D01*
X18276700Y-35302095D01*
X18311303Y-35476058D01*
X18311306Y-35476067D01*
X18379183Y-35639940D01*
X18379190Y-35639953D01*
X18477735Y-35787434D01*
X18477738Y-35787438D01*
X18603161Y-35912861D01*
X18603165Y-35912864D01*
X18750646Y-36011409D01*
X18750659Y-36011416D01*
X18820137Y-36040194D01*
X18914534Y-36079294D01*
X18914536Y-36079294D01*
X18914541Y-36079296D01*
X19088504Y-36113899D01*
X19088507Y-36113900D01*
X19088509Y-36113900D01*
X19265893Y-36113900D01*
X19265894Y-36113899D01*
X19333081Y-36100535D01*
X19439858Y-36079296D01*
X19439861Y-36079294D01*
X19439866Y-36079294D01*
X19579735Y-36021358D01*
X19603740Y-36011416D01*
X19603740Y-36011415D01*
X19603747Y-36011413D01*
X19751235Y-35912864D01*
X19876664Y-35787435D01*
X19975213Y-35639947D01*
X20021758Y-35527577D01*
X32475975Y-35527577D01*
X32581236Y-35571178D01*
X32581240Y-35571179D01*
X32726126Y-35599999D01*
X32726129Y-35600000D01*
X32873871Y-35600000D01*
X33013798Y-35572166D01*
X33083390Y-35578393D01*
X33138567Y-35621256D01*
X33161812Y-35687145D01*
X33159607Y-35717974D01*
X33148800Y-35772304D01*
X33148800Y-35949695D01*
X33183403Y-36123658D01*
X33183406Y-36123667D01*
X33251283Y-36287540D01*
X33251290Y-36287553D01*
X33349835Y-36435034D01*
X33349838Y-36435038D01*
X33475261Y-36560461D01*
X33475265Y-36560464D01*
X33622746Y-36659009D01*
X33622759Y-36659016D01*
X33730025Y-36703446D01*
X33786634Y-36726894D01*
X33786636Y-36726894D01*
X33786641Y-36726896D01*
X33960604Y-36761499D01*
X33960607Y-36761500D01*
X33960609Y-36761500D01*
X34137993Y-36761500D01*
X34137994Y-36761499D01*
X34195982Y-36749964D01*
X34311958Y-36726896D01*
X34311961Y-36726894D01*
X34311966Y-36726894D01*
X34475847Y-36659013D01*
X34623335Y-36560464D01*
X34748764Y-36435035D01*
X34847313Y-36287547D01*
X34873861Y-36223453D01*
X37599900Y-36223453D01*
X37599900Y-36381146D01*
X37630661Y-36535789D01*
X37630664Y-36535801D01*
X37691002Y-36681472D01*
X37691009Y-36681485D01*
X37778610Y-36812588D01*
X37778613Y-36812592D01*
X37890107Y-36924086D01*
X37890111Y-36924089D01*
X38021214Y-37011690D01*
X38021227Y-37011697D01*
X38092706Y-37041304D01*
X38166903Y-37072037D01*
X38321553Y-37102799D01*
X38321556Y-37102800D01*
X38321558Y-37102800D01*
X38479244Y-37102800D01*
X38479245Y-37102799D01*
X38633897Y-37072037D01*
X38779579Y-37011694D01*
X38910689Y-36924089D01*
X39022189Y-36812589D01*
X39109794Y-36681479D01*
X39170137Y-36535797D01*
X39170139Y-36535786D01*
X39171906Y-36529964D01*
X39174153Y-36530645D01*
X39201678Y-36477970D01*
X39262378Y-36443368D01*
X39315141Y-36442415D01*
X39332158Y-36445800D01*
X39489844Y-36445800D01*
X39489845Y-36445799D01*
X39644497Y-36415037D01*
X39790179Y-36354694D01*
X39921289Y-36267089D01*
X40032789Y-36155589D01*
X40120394Y-36024479D01*
X40125808Y-36011409D01*
X40183068Y-35873170D01*
X40184307Y-35873683D01*
X40218846Y-35820982D01*
X40282659Y-35792526D01*
X40351726Y-35803088D01*
X40402310Y-35846526D01*
X40428210Y-35885288D01*
X40428213Y-35885292D01*
X40539707Y-35996786D01*
X40539711Y-35996789D01*
X40670814Y-36084390D01*
X40670827Y-36084397D01*
X40784063Y-36131300D01*
X40816503Y-36144737D01*
X40971153Y-36175499D01*
X40971156Y-36175500D01*
X40971158Y-36175500D01*
X41128844Y-36175500D01*
X41128845Y-36175499D01*
X41283497Y-36144737D01*
X41429179Y-36084394D01*
X41560289Y-35996789D01*
X41671789Y-35885289D01*
X41759394Y-35754179D01*
X41819737Y-35608497D01*
X41850500Y-35453842D01*
X41850500Y-35296158D01*
X41850500Y-35296155D01*
X41850499Y-35296153D01*
X41826206Y-35174024D01*
X41819737Y-35141503D01*
X41791030Y-35072197D01*
X41759397Y-34995827D01*
X41759390Y-34995814D01*
X41671789Y-34864711D01*
X41671786Y-34864707D01*
X41560292Y-34753213D01*
X41560288Y-34753210D01*
X41429185Y-34665609D01*
X41429172Y-34665602D01*
X41283501Y-34605264D01*
X41283489Y-34605261D01*
X41128845Y-34574500D01*
X41128842Y-34574500D01*
X40971158Y-34574500D01*
X40971155Y-34574500D01*
X40816510Y-34605261D01*
X40816498Y-34605264D01*
X40670827Y-34665602D01*
X40670814Y-34665609D01*
X40539711Y-34753210D01*
X40539707Y-34753213D01*
X40428213Y-34864707D01*
X40428210Y-34864711D01*
X40340609Y-34995814D01*
X40340602Y-34995827D01*
X40277932Y-35147130D01*
X40276697Y-35146618D01*
X40242131Y-35199336D01*
X40178312Y-35227776D01*
X40109248Y-35217199D01*
X40058688Y-35173772D01*
X40040544Y-35146618D01*
X40032789Y-35135011D01*
X40032787Y-35135008D01*
X39921292Y-35023513D01*
X39921288Y-35023510D01*
X39790185Y-34935909D01*
X39790172Y-34935902D01*
X39644501Y-34875564D01*
X39644489Y-34875561D01*
X39489845Y-34844800D01*
X39489842Y-34844800D01*
X39332158Y-34844800D01*
X39332155Y-34844800D01*
X39177510Y-34875561D01*
X39177498Y-34875564D01*
X39031827Y-34935902D01*
X39031814Y-34935909D01*
X38900711Y-35023510D01*
X38900707Y-35023513D01*
X38789213Y-35135007D01*
X38789210Y-35135011D01*
X38701609Y-35266114D01*
X38701602Y-35266127D01*
X38641264Y-35411798D01*
X38639494Y-35417635D01*
X38637257Y-35416956D01*
X38609678Y-35469674D01*
X38548961Y-35504245D01*
X38496260Y-35505185D01*
X38479242Y-35501800D01*
X38321558Y-35501800D01*
X38321555Y-35501800D01*
X38166910Y-35532561D01*
X38166898Y-35532564D01*
X38021227Y-35592902D01*
X38021214Y-35592909D01*
X37890111Y-35680510D01*
X37890107Y-35680513D01*
X37778613Y-35792007D01*
X37778610Y-35792011D01*
X37691009Y-35923114D01*
X37691002Y-35923127D01*
X37630664Y-36068798D01*
X37630661Y-36068810D01*
X37599900Y-36223453D01*
X34873861Y-36223453D01*
X34905802Y-36146340D01*
X34949640Y-36091940D01*
X35015934Y-36069874D01*
X35044548Y-36072177D01*
X35116074Y-36086405D01*
X35136157Y-36090400D01*
X35136158Y-36090400D01*
X35293844Y-36090400D01*
X35293845Y-36090399D01*
X35448497Y-36059637D01*
X35501582Y-36037647D01*
X35571051Y-36030178D01*
X35596420Y-36039001D01*
X35596892Y-36037863D01*
X35723730Y-36090400D01*
X35748203Y-36100537D01*
X35864480Y-36123666D01*
X35902853Y-36131299D01*
X35902856Y-36131300D01*
X35902858Y-36131300D01*
X36060544Y-36131300D01*
X36060545Y-36131299D01*
X36215197Y-36100537D01*
X36360879Y-36040194D01*
X36491989Y-35952589D01*
X36603489Y-35841089D01*
X36691094Y-35709979D01*
X36751437Y-35564297D01*
X36782200Y-35409642D01*
X36782200Y-35251958D01*
X36782200Y-35251955D01*
X36782199Y-35251953D01*
X36766648Y-35173772D01*
X36751437Y-35097303D01*
X36737223Y-35062987D01*
X36691097Y-34951627D01*
X36691090Y-34951614D01*
X36603489Y-34820511D01*
X36603486Y-34820507D01*
X36491992Y-34709013D01*
X36491988Y-34709010D01*
X36360885Y-34621409D01*
X36360872Y-34621402D01*
X36215201Y-34561064D01*
X36215189Y-34561061D01*
X36060545Y-34530300D01*
X36060542Y-34530300D01*
X35902858Y-34530300D01*
X35902855Y-34530300D01*
X35748211Y-34561060D01*
X35748202Y-34561063D01*
X35695112Y-34583053D01*
X35625643Y-34590520D01*
X35600274Y-34581708D01*
X35599807Y-34582837D01*
X35448501Y-34520164D01*
X35448489Y-34520161D01*
X35293845Y-34489400D01*
X35293842Y-34489400D01*
X35136158Y-34489400D01*
X35136155Y-34489400D01*
X34981510Y-34520161D01*
X34981498Y-34520164D01*
X34835827Y-34580502D01*
X34835814Y-34580509D01*
X34704711Y-34668110D01*
X34704707Y-34668113D01*
X34593213Y-34779607D01*
X34593210Y-34779611D01*
X34505609Y-34910714D01*
X34505601Y-34910729D01*
X34494865Y-34936649D01*
X34451024Y-34991052D01*
X34384729Y-35013116D01*
X34332855Y-35003757D01*
X34311971Y-34995107D01*
X34311963Y-34995104D01*
X34137994Y-34960500D01*
X34137991Y-34960500D01*
X33960609Y-34960500D01*
X33960606Y-34960500D01*
X33786641Y-34995103D01*
X33786632Y-34995106D01*
X33721452Y-35022105D01*
X33651983Y-35029574D01*
X33589504Y-34998298D01*
X33553852Y-34938209D01*
X33550000Y-34907544D01*
X33550000Y-34776128D01*
X33549999Y-34776126D01*
X33521179Y-34631240D01*
X33521178Y-34631236D01*
X33477577Y-34525975D01*
X32976777Y-35026777D01*
X32475975Y-35527577D01*
X20021758Y-35527577D01*
X20043094Y-35476066D01*
X20043887Y-35472075D01*
X20045779Y-35462570D01*
X20045779Y-35462568D01*
X20077699Y-35302095D01*
X20077700Y-35302093D01*
X20077700Y-35124706D01*
X20077699Y-35124704D01*
X20043096Y-34950741D01*
X20043093Y-34950732D01*
X19975216Y-34786859D01*
X19975209Y-34786846D01*
X19876664Y-34639365D01*
X19876661Y-34639361D01*
X19751238Y-34513938D01*
X19751234Y-34513935D01*
X19603753Y-34415390D01*
X19603740Y-34415383D01*
X19548317Y-34392427D01*
X19439867Y-34347506D01*
X19439858Y-34347503D01*
X19265894Y-34312900D01*
X19265891Y-34312900D01*
X19088509Y-34312900D01*
X19088506Y-34312900D01*
X18914541Y-34347503D01*
X18914532Y-34347506D01*
X18750659Y-34415383D01*
X18750646Y-34415390D01*
X18603165Y-34513935D01*
X18603161Y-34513938D01*
X18477738Y-34639361D01*
X18477735Y-34639365D01*
X18379190Y-34786846D01*
X18379183Y-34786859D01*
X18311306Y-34950732D01*
X18311303Y-34950741D01*
X18276700Y-35124704D01*
X300500Y-35124704D01*
X300500Y-33713953D01*
X15772000Y-33713953D01*
X15772000Y-33871646D01*
X15802761Y-34026289D01*
X15802764Y-34026301D01*
X15863102Y-34171972D01*
X15863109Y-34171985D01*
X15950710Y-34303088D01*
X15950713Y-34303092D01*
X16062207Y-34414586D01*
X16062211Y-34414589D01*
X16193314Y-34502190D01*
X16193327Y-34502197D01*
X16335444Y-34561063D01*
X16339003Y-34562537D01*
X16479682Y-34590520D01*
X16493653Y-34593299D01*
X16493656Y-34593300D01*
X16493658Y-34593300D01*
X16651344Y-34593300D01*
X16651345Y-34593299D01*
X16805997Y-34562537D01*
X16951679Y-34502194D01*
X17082789Y-34414589D01*
X17194289Y-34303089D01*
X17207075Y-34283953D01*
X22311200Y-34283953D01*
X22311200Y-34441646D01*
X22341961Y-34596289D01*
X22341964Y-34596301D01*
X22402302Y-34741972D01*
X22402309Y-34741985D01*
X22489910Y-34873088D01*
X22489913Y-34873092D01*
X22601407Y-34984586D01*
X22601411Y-34984589D01*
X22732514Y-35072190D01*
X22732527Y-35072197D01*
X22859292Y-35124704D01*
X22878203Y-35132537D01*
X23023990Y-35161536D01*
X23032853Y-35163299D01*
X23032856Y-35163300D01*
X23032858Y-35163300D01*
X23190544Y-35163300D01*
X23190545Y-35163299D01*
X23345197Y-35132537D01*
X23490879Y-35072194D01*
X23621989Y-34984589D01*
X23733489Y-34873089D01*
X23798278Y-34776126D01*
X32050000Y-34776126D01*
X32050000Y-34923873D01*
X32078820Y-35068759D01*
X32078822Y-35068767D01*
X32122421Y-35174024D01*
X32446446Y-34850000D01*
X32446446Y-34849999D01*
X32426556Y-34830109D01*
X32700000Y-34830109D01*
X32700000Y-34869891D01*
X32715224Y-34906645D01*
X32743355Y-34934776D01*
X32780109Y-34950000D01*
X32819891Y-34950000D01*
X32856645Y-34934776D01*
X32884776Y-34906645D01*
X32900000Y-34869891D01*
X32900000Y-34830109D01*
X32884776Y-34793355D01*
X32856645Y-34765224D01*
X32819891Y-34750000D01*
X32780109Y-34750000D01*
X32743355Y-34765224D01*
X32715224Y-34793355D01*
X32700000Y-34830109D01*
X32426556Y-34830109D01*
X32122421Y-34525974D01*
X32122420Y-34525974D01*
X32078823Y-34631228D01*
X32078820Y-34631240D01*
X32050000Y-34776126D01*
X23798278Y-34776126D01*
X23821094Y-34741979D01*
X23881437Y-34596297D01*
X23912200Y-34441642D01*
X23912200Y-34300000D01*
X32603554Y-34300000D01*
X32800000Y-34496446D01*
X32996446Y-34300000D01*
X32800000Y-34103554D01*
X32603554Y-34300000D01*
X23912200Y-34300000D01*
X23912200Y-34283958D01*
X23912200Y-34283955D01*
X23912199Y-34283953D01*
X23909987Y-34272829D01*
X23881438Y-34129308D01*
X23881437Y-34129307D01*
X23881437Y-34129303D01*
X23881435Y-34129298D01*
X23821097Y-33983627D01*
X23821090Y-33983614D01*
X23733489Y-33852511D01*
X23733486Y-33852507D01*
X23621992Y-33741013D01*
X23621988Y-33741010D01*
X23524883Y-33676126D01*
X32050000Y-33676126D01*
X32050000Y-33823873D01*
X32078820Y-33968759D01*
X32078822Y-33968767D01*
X32122421Y-34074024D01*
X32446446Y-33750000D01*
X32446446Y-33749999D01*
X32426556Y-33730109D01*
X32700000Y-33730109D01*
X32700000Y-33769891D01*
X32715224Y-33806645D01*
X32743355Y-33834776D01*
X32780109Y-33850000D01*
X32819891Y-33850000D01*
X32856645Y-33834776D01*
X32884776Y-33806645D01*
X32900000Y-33769891D01*
X32900000Y-33749999D01*
X33153554Y-33749999D01*
X33153554Y-33750001D01*
X33477577Y-34074024D01*
X33477578Y-34074024D01*
X33521175Y-33968775D01*
X33521179Y-33968760D01*
X33549999Y-33823873D01*
X33550000Y-33823871D01*
X33550000Y-33676128D01*
X33549999Y-33676126D01*
X33521179Y-33531240D01*
X33521178Y-33531236D01*
X33477577Y-33425975D01*
X33153554Y-33749999D01*
X32900000Y-33749999D01*
X32900000Y-33730109D01*
X32884776Y-33693355D01*
X32856645Y-33665224D01*
X32819891Y-33650000D01*
X32780109Y-33650000D01*
X32743355Y-33665224D01*
X32715224Y-33693355D01*
X32700000Y-33730109D01*
X32426556Y-33730109D01*
X32122421Y-33425974D01*
X32122420Y-33425974D01*
X32078823Y-33531228D01*
X32078820Y-33531240D01*
X32050000Y-33676126D01*
X23524883Y-33676126D01*
X23490885Y-33653409D01*
X23490872Y-33653402D01*
X23345201Y-33593064D01*
X23345189Y-33593061D01*
X23190545Y-33562300D01*
X23190542Y-33562300D01*
X23032858Y-33562300D01*
X23032855Y-33562300D01*
X22878210Y-33593061D01*
X22878198Y-33593064D01*
X22732527Y-33653402D01*
X22732514Y-33653409D01*
X22601411Y-33741010D01*
X22601407Y-33741013D01*
X22489913Y-33852507D01*
X22489910Y-33852511D01*
X22402309Y-33983614D01*
X22402302Y-33983627D01*
X22341964Y-34129298D01*
X22341961Y-34129310D01*
X22311200Y-34283953D01*
X17207075Y-34283953D01*
X17281894Y-34171979D01*
X17342237Y-34026297D01*
X17373000Y-33871642D01*
X17373000Y-33713958D01*
X17373000Y-33713955D01*
X17372999Y-33713953D01*
X17360955Y-33653406D01*
X17342237Y-33559303D01*
X17330613Y-33531240D01*
X17281897Y-33413627D01*
X17281890Y-33413614D01*
X17194289Y-33282511D01*
X17194286Y-33282507D01*
X17082792Y-33171013D01*
X17082788Y-33171010D01*
X16951685Y-33083409D01*
X16951672Y-33083402D01*
X16806001Y-33023064D01*
X16805989Y-33023061D01*
X16651345Y-32992300D01*
X16651342Y-32992300D01*
X16493658Y-32992300D01*
X16493655Y-32992300D01*
X16339010Y-33023061D01*
X16338998Y-33023064D01*
X16193327Y-33083402D01*
X16193314Y-33083409D01*
X16062211Y-33171010D01*
X16062207Y-33171013D01*
X15950713Y-33282507D01*
X15950710Y-33282511D01*
X15863109Y-33413614D01*
X15863102Y-33413627D01*
X15802764Y-33559298D01*
X15802761Y-33559310D01*
X15772000Y-33713953D01*
X300500Y-33713953D01*
X300500Y-32721153D01*
X924500Y-32721153D01*
X924500Y-32878846D01*
X955261Y-33033489D01*
X955264Y-33033501D01*
X1015602Y-33179172D01*
X1015609Y-33179185D01*
X1103210Y-33310288D01*
X1103213Y-33310292D01*
X1214707Y-33421786D01*
X1214711Y-33421789D01*
X1345814Y-33509390D01*
X1345827Y-33509397D01*
X1473548Y-33562300D01*
X1491503Y-33569737D01*
X1608760Y-33593061D01*
X1646153Y-33600499D01*
X1646156Y-33600500D01*
X1646158Y-33600500D01*
X1803844Y-33600500D01*
X1875488Y-33586249D01*
X1875488Y-33586248D01*
X1958497Y-33569737D01*
X2104179Y-33509394D01*
X2235289Y-33421789D01*
X2346789Y-33310289D01*
X2434394Y-33179179D01*
X2437777Y-33171013D01*
X2478614Y-33072421D01*
X2494737Y-33033497D01*
X2525500Y-32878842D01*
X2525500Y-32721158D01*
X2525500Y-32721155D01*
X2525499Y-32721153D01*
X2520226Y-32694645D01*
X2496895Y-32577353D01*
X24666200Y-32577353D01*
X24666200Y-32735046D01*
X24696961Y-32889689D01*
X24696964Y-32889701D01*
X24757302Y-33035372D01*
X24757309Y-33035385D01*
X24844910Y-33166488D01*
X24844913Y-33166492D01*
X24956407Y-33277986D01*
X24956411Y-33277989D01*
X25087514Y-33365590D01*
X25087527Y-33365597D01*
X25223189Y-33421789D01*
X25233203Y-33425937D01*
X25387853Y-33456699D01*
X25387856Y-33456700D01*
X25387858Y-33456700D01*
X25545544Y-33456700D01*
X25545545Y-33456699D01*
X25700197Y-33425937D01*
X25845879Y-33365594D01*
X25976989Y-33277989D01*
X26088489Y-33166489D01*
X26123343Y-33114325D01*
X26151344Y-33072420D01*
X32475974Y-33072420D01*
X32475974Y-33072421D01*
X32800000Y-33396446D01*
X32800001Y-33396446D01*
X33124024Y-33072421D01*
X33018767Y-33028822D01*
X33018759Y-33028820D01*
X32873872Y-33000000D01*
X32726128Y-33000000D01*
X32581240Y-33028820D01*
X32581228Y-33028823D01*
X32475974Y-33072420D01*
X26151344Y-33072420D01*
X26170104Y-33044345D01*
X26176091Y-33035383D01*
X26176094Y-33035379D01*
X26236437Y-32889697D01*
X26267200Y-32735042D01*
X26267200Y-32694645D01*
X26286885Y-32627606D01*
X26322309Y-32591543D01*
X26359773Y-32566510D01*
X26472835Y-32490964D01*
X26598264Y-32365535D01*
X26696813Y-32218047D01*
X26696814Y-32218044D01*
X26696816Y-32218041D01*
X26709113Y-32188353D01*
X34358500Y-32188353D01*
X34358500Y-32346046D01*
X34389261Y-32500689D01*
X34389264Y-32500701D01*
X34449602Y-32646372D01*
X34449609Y-32646385D01*
X34537210Y-32777488D01*
X34537213Y-32777492D01*
X34648707Y-32888986D01*
X34648711Y-32888989D01*
X34779814Y-32976590D01*
X34779827Y-32976597D01*
X34921751Y-33035383D01*
X34925503Y-33036937D01*
X35080153Y-33067699D01*
X35080156Y-33067700D01*
X35080158Y-33067700D01*
X35237844Y-33067700D01*
X35237845Y-33067699D01*
X35392497Y-33036937D01*
X35538179Y-32976594D01*
X35669289Y-32888989D01*
X35780789Y-32777489D01*
X35868394Y-32646379D01*
X35928737Y-32500697D01*
X35959500Y-32346042D01*
X35959500Y-32188358D01*
X35959500Y-32188355D01*
X35959499Y-32188353D01*
X35952962Y-32155489D01*
X35928737Y-32033703D01*
X35927255Y-32030126D01*
X35868397Y-31888027D01*
X35868390Y-31888014D01*
X35783004Y-31760225D01*
X35773518Y-31729931D01*
X35762422Y-31700179D01*
X35763151Y-31696823D01*
X35762126Y-31693547D01*
X35770524Y-31662934D01*
X35777274Y-31631907D01*
X35780055Y-31628190D01*
X35780611Y-31626167D01*
X35798421Y-31603656D01*
X35799524Y-31602553D01*
X37151900Y-31602553D01*
X37151900Y-31760246D01*
X37182661Y-31914889D01*
X37182664Y-31914901D01*
X37243002Y-32060572D01*
X37243009Y-32060585D01*
X37330610Y-32191688D01*
X37330613Y-32191692D01*
X37442107Y-32303186D01*
X37442111Y-32303189D01*
X37573214Y-32390790D01*
X37573227Y-32390797D01*
X37718898Y-32451135D01*
X37718903Y-32451137D01*
X37832832Y-32473799D01*
X37873553Y-32481899D01*
X37873556Y-32481900D01*
X37873558Y-32481900D01*
X38031244Y-32481900D01*
X38031245Y-32481899D01*
X38185897Y-32451137D01*
X38331579Y-32390794D01*
X38462689Y-32303189D01*
X38574189Y-32191689D01*
X38661794Y-32060579D01*
X38722137Y-31914897D01*
X38752900Y-31760242D01*
X38752900Y-31602558D01*
X38752900Y-31602555D01*
X38752899Y-31602553D01*
X38722139Y-31447911D01*
X38722135Y-31447898D01*
X38721938Y-31447422D01*
X38721909Y-31447152D01*
X38720370Y-31442080D01*
X38721332Y-31441787D01*
X38714472Y-31377952D01*
X38745750Y-31315475D01*
X38805841Y-31279825D01*
X38812275Y-31278365D01*
X38855366Y-31269794D01*
X39019247Y-31201913D01*
X39166735Y-31103364D01*
X39292164Y-30977935D01*
X39390713Y-30830447D01*
X39458594Y-30666566D01*
X39466634Y-30626149D01*
X39493199Y-30492595D01*
X39493200Y-30492593D01*
X39493200Y-30315206D01*
X39493199Y-30315204D01*
X39458596Y-30141241D01*
X39458593Y-30141232D01*
X39390716Y-29977359D01*
X39390709Y-29977346D01*
X39292164Y-29829865D01*
X39292161Y-29829861D01*
X39166738Y-29704438D01*
X39166734Y-29704435D01*
X39019253Y-29605890D01*
X39019240Y-29605883D01*
X38855367Y-29538006D01*
X38855358Y-29538003D01*
X38681394Y-29503400D01*
X38681391Y-29503400D01*
X38504009Y-29503400D01*
X38504006Y-29503400D01*
X38330041Y-29538003D01*
X38330032Y-29538006D01*
X38166159Y-29605883D01*
X38166146Y-29605890D01*
X38018665Y-29704435D01*
X38018661Y-29704438D01*
X37893238Y-29829861D01*
X37893235Y-29829865D01*
X37794690Y-29977346D01*
X37794683Y-29977359D01*
X37726806Y-30141232D01*
X37726803Y-30141241D01*
X37692200Y-30315204D01*
X37692200Y-30492595D01*
X37726803Y-30666558D01*
X37726806Y-30666567D01*
X37764850Y-30758414D01*
X37772319Y-30827884D01*
X37741043Y-30890363D01*
X37697742Y-30920427D01*
X37573224Y-30972004D01*
X37573214Y-30972009D01*
X37442111Y-31059610D01*
X37442107Y-31059613D01*
X37330613Y-31171107D01*
X37330610Y-31171111D01*
X37243009Y-31302214D01*
X37243002Y-31302227D01*
X37182664Y-31447898D01*
X37182661Y-31447910D01*
X37151900Y-31602553D01*
X35799524Y-31602553D01*
X35891789Y-31510289D01*
X35979394Y-31379179D01*
X35985290Y-31364946D01*
X36004738Y-31317992D01*
X36039737Y-31233497D01*
X36070500Y-31078842D01*
X36070500Y-30921158D01*
X36070500Y-30921155D01*
X36070499Y-30921153D01*
X36064374Y-30890363D01*
X36039737Y-30766503D01*
X36039735Y-30766498D01*
X35979397Y-30620827D01*
X35979390Y-30620814D01*
X35891789Y-30489711D01*
X35891786Y-30489707D01*
X35780292Y-30378213D01*
X35780288Y-30378210D01*
X35649185Y-30290609D01*
X35649172Y-30290602D01*
X35503501Y-30230264D01*
X35503489Y-30230261D01*
X35348845Y-30199500D01*
X35348842Y-30199500D01*
X35191158Y-30199500D01*
X35191155Y-30199500D01*
X35036510Y-30230261D01*
X35036498Y-30230264D01*
X34890827Y-30290602D01*
X34890814Y-30290609D01*
X34759711Y-30378210D01*
X34759707Y-30378213D01*
X34648213Y-30489707D01*
X34648210Y-30489711D01*
X34560609Y-30620814D01*
X34560602Y-30620827D01*
X34500264Y-30766498D01*
X34500261Y-30766510D01*
X34469500Y-30921153D01*
X34469500Y-31078846D01*
X34500261Y-31233489D01*
X34500264Y-31233501D01*
X34560602Y-31379172D01*
X34560609Y-31379185D01*
X34645996Y-31506974D01*
X34666874Y-31573651D01*
X34648390Y-31641031D01*
X34630575Y-31663546D01*
X34537213Y-31756907D01*
X34537210Y-31756911D01*
X34449609Y-31888014D01*
X34449602Y-31888027D01*
X34389264Y-32033698D01*
X34389261Y-32033710D01*
X34358500Y-32188353D01*
X26709113Y-32188353D01*
X26731289Y-32134814D01*
X26762035Y-32060585D01*
X26764694Y-32054166D01*
X26766615Y-32044512D01*
X26792396Y-31914901D01*
X26799300Y-31880191D01*
X26799300Y-31702809D01*
X26799300Y-31702806D01*
X26799299Y-31702804D01*
X26764696Y-31528841D01*
X26764693Y-31528832D01*
X26759829Y-31517090D01*
X26731170Y-31447898D01*
X26696816Y-31364959D01*
X26696809Y-31364946D01*
X26598264Y-31217465D01*
X26598261Y-31217461D01*
X26504698Y-31123898D01*
X26471213Y-31062575D01*
X26476197Y-30992883D01*
X26489277Y-30967326D01*
X26556394Y-30866879D01*
X26613566Y-30728853D01*
X28634000Y-30728853D01*
X28634000Y-30886546D01*
X28664761Y-31041189D01*
X28664764Y-31041201D01*
X28725102Y-31186872D01*
X28725109Y-31186885D01*
X28812710Y-31317988D01*
X28812713Y-31317992D01*
X28924207Y-31429486D01*
X28924211Y-31429489D01*
X29055314Y-31517090D01*
X29055327Y-31517097D01*
X29200998Y-31577435D01*
X29201003Y-31577437D01*
X29327269Y-31602553D01*
X29355653Y-31608199D01*
X29355656Y-31608200D01*
X29355658Y-31608200D01*
X29513344Y-31608200D01*
X29513345Y-31608199D01*
X29667997Y-31577437D01*
X29813679Y-31517094D01*
X29944789Y-31429489D01*
X30056289Y-31317989D01*
X30143894Y-31186879D01*
X30147475Y-31178235D01*
X30160515Y-31146753D01*
X30204237Y-31041197D01*
X30235000Y-30886542D01*
X30235000Y-30728858D01*
X30235000Y-30728855D01*
X30234999Y-30728853D01*
X30215388Y-30630263D01*
X30204237Y-30574203D01*
X30181676Y-30519735D01*
X30143897Y-30428527D01*
X30143890Y-30428514D01*
X30056289Y-30297411D01*
X30056286Y-30297407D01*
X29944792Y-30185913D01*
X29944788Y-30185910D01*
X29813685Y-30098309D01*
X29813672Y-30098302D01*
X29668001Y-30037964D01*
X29667989Y-30037961D01*
X29513345Y-30007200D01*
X29513342Y-30007200D01*
X29355658Y-30007200D01*
X29355655Y-30007200D01*
X29201010Y-30037961D01*
X29200998Y-30037964D01*
X29055327Y-30098302D01*
X29055314Y-30098309D01*
X28924211Y-30185910D01*
X28924207Y-30185913D01*
X28812713Y-30297407D01*
X28812710Y-30297411D01*
X28725109Y-30428514D01*
X28725102Y-30428527D01*
X28664764Y-30574198D01*
X28664761Y-30574210D01*
X28634000Y-30728853D01*
X26613566Y-30728853D01*
X26616737Y-30721197D01*
X26640944Y-30599500D01*
X26647500Y-30566544D01*
X26647500Y-30408855D01*
X26647499Y-30408853D01*
X26634880Y-30345413D01*
X26616737Y-30254203D01*
X26606820Y-30230261D01*
X26556397Y-30108527D01*
X26556390Y-30108514D01*
X26468789Y-29977411D01*
X26468786Y-29977407D01*
X26357292Y-29865913D01*
X26357288Y-29865910D01*
X26226185Y-29778309D01*
X26226172Y-29778302D01*
X26080501Y-29717964D01*
X26080489Y-29717961D01*
X25925845Y-29687200D01*
X25925842Y-29687200D01*
X25768158Y-29687200D01*
X25768155Y-29687200D01*
X25613510Y-29717961D01*
X25613498Y-29717964D01*
X25467827Y-29778302D01*
X25467814Y-29778309D01*
X25336711Y-29865910D01*
X25336707Y-29865913D01*
X25225213Y-29977407D01*
X25225210Y-29977411D01*
X25137609Y-30108514D01*
X25137602Y-30108527D01*
X25077264Y-30254198D01*
X25077261Y-30254210D01*
X25046500Y-30408853D01*
X25046500Y-30566546D01*
X25077261Y-30721189D01*
X25077264Y-30721201D01*
X25137602Y-30866872D01*
X25137609Y-30866885D01*
X25225210Y-30997988D01*
X25225213Y-30997992D01*
X25234329Y-31007108D01*
X25267814Y-31068431D01*
X25262830Y-31138123D01*
X25234330Y-31182469D01*
X25199339Y-31217460D01*
X25199335Y-31217465D01*
X25100790Y-31364946D01*
X25100783Y-31364959D01*
X25032906Y-31528832D01*
X25032903Y-31528841D01*
X24998300Y-31702804D01*
X24998300Y-31702809D01*
X24998300Y-31880191D01*
X24999859Y-31888027D01*
X25004299Y-31910352D01*
X24998070Y-31979944D01*
X24959901Y-32029076D01*
X24961113Y-32030553D01*
X24956404Y-32034417D01*
X24844913Y-32145907D01*
X24844910Y-32145911D01*
X24757309Y-32277014D01*
X24757302Y-32277027D01*
X24696964Y-32422698D01*
X24696961Y-32422710D01*
X24666200Y-32577353D01*
X2496895Y-32577353D01*
X2494737Y-32566503D01*
X2467481Y-32500701D01*
X2434397Y-32420827D01*
X2434390Y-32420814D01*
X2346787Y-32289707D01*
X2345934Y-32288668D01*
X2345657Y-32288017D01*
X2343405Y-32284646D01*
X2344044Y-32284218D01*
X2318625Y-32224356D01*
X2330421Y-32155489D01*
X2372901Y-32106907D01*
X2500289Y-32021789D01*
X2611786Y-31910292D01*
X2611788Y-31910290D01*
X2611789Y-31910289D01*
X2699394Y-31779179D01*
X2759737Y-31633497D01*
X2790500Y-31478842D01*
X2790500Y-31321158D01*
X2790500Y-31321155D01*
X2790499Y-31321153D01*
X2773061Y-31233489D01*
X2759737Y-31166503D01*
X2751556Y-31146753D01*
X2699397Y-31020827D01*
X2699395Y-31020823D01*
X2699394Y-31020821D01*
X2666777Y-30972006D01*
X2652846Y-30951157D01*
X2652845Y-30951155D01*
X2611792Y-30889715D01*
X2611786Y-30889707D01*
X2610432Y-30888353D01*
X8338000Y-30888353D01*
X8338000Y-31046046D01*
X8368761Y-31200689D01*
X8368764Y-31200701D01*
X8429102Y-31346372D01*
X8429109Y-31346385D01*
X8516710Y-31477488D01*
X8516713Y-31477492D01*
X8628207Y-31588986D01*
X8628211Y-31588989D01*
X8759314Y-31676590D01*
X8759327Y-31676597D01*
X8888089Y-31729931D01*
X8905003Y-31736937D01*
X9059653Y-31767699D01*
X9059656Y-31767700D01*
X9059658Y-31767700D01*
X9217344Y-31767700D01*
X9217345Y-31767699D01*
X9371997Y-31736937D01*
X9517679Y-31676594D01*
X9648789Y-31588989D01*
X9760289Y-31477489D01*
X9847894Y-31346379D01*
X9908237Y-31200697D01*
X9939000Y-31046042D01*
X9939000Y-31039853D01*
X11227400Y-31039853D01*
X11227400Y-31197546D01*
X11258161Y-31352189D01*
X11258164Y-31352201D01*
X11318502Y-31497872D01*
X11318509Y-31497885D01*
X11406110Y-31628988D01*
X11406113Y-31628992D01*
X11517607Y-31740486D01*
X11517611Y-31740489D01*
X11648714Y-31828090D01*
X11648727Y-31828097D01*
X11774493Y-31880190D01*
X11794403Y-31888437D01*
X11927426Y-31914897D01*
X11949053Y-31919199D01*
X11949056Y-31919200D01*
X11949058Y-31919200D01*
X12106744Y-31919200D01*
X12106745Y-31919199D01*
X12261397Y-31888437D01*
X12388074Y-31835966D01*
X12407072Y-31828097D01*
X12407072Y-31828096D01*
X12407079Y-31828094D01*
X12538189Y-31740489D01*
X12649689Y-31628989D01*
X12737294Y-31497879D01*
X12745179Y-31478844D01*
X12758306Y-31447152D01*
X12797637Y-31352197D01*
X12817417Y-31252758D01*
X12817418Y-31252753D01*
X17288500Y-31252753D01*
X17288500Y-31410446D01*
X17319261Y-31565089D01*
X17319264Y-31565101D01*
X17379602Y-31710772D01*
X17379609Y-31710785D01*
X17467210Y-31841888D01*
X17467213Y-31841892D01*
X17578707Y-31953386D01*
X17578711Y-31953389D01*
X17709814Y-32040990D01*
X17709827Y-32040997D01*
X17855498Y-32101335D01*
X17855503Y-32101337D01*
X18010153Y-32132099D01*
X18010156Y-32132100D01*
X18010158Y-32132100D01*
X18167844Y-32132100D01*
X18167845Y-32132099D01*
X18322497Y-32101337D01*
X18468179Y-32040994D01*
X18599289Y-31953389D01*
X18710789Y-31841889D01*
X18798394Y-31710779D01*
X18801697Y-31702806D01*
X18830408Y-31633489D01*
X18858737Y-31565097D01*
X18889500Y-31410442D01*
X18889500Y-31252758D01*
X18889500Y-31252755D01*
X18889499Y-31252753D01*
X18858737Y-31098103D01*
X18839949Y-31052745D01*
X18798397Y-30952427D01*
X18798390Y-30952414D01*
X18710789Y-30821311D01*
X18710786Y-30821307D01*
X18599292Y-30709813D01*
X18599288Y-30709810D01*
X18468185Y-30622209D01*
X18468172Y-30622202D01*
X18322501Y-30561864D01*
X18322489Y-30561861D01*
X18167845Y-30531100D01*
X18167842Y-30531100D01*
X18010158Y-30531100D01*
X18010155Y-30531100D01*
X17855510Y-30561861D01*
X17855498Y-30561864D01*
X17709827Y-30622202D01*
X17709814Y-30622209D01*
X17578711Y-30709810D01*
X17578707Y-30709813D01*
X17467213Y-30821307D01*
X17467210Y-30821311D01*
X17379609Y-30952414D01*
X17379602Y-30952427D01*
X17319264Y-31098098D01*
X17319261Y-31098110D01*
X17288500Y-31252753D01*
X12817418Y-31252753D01*
X12823441Y-31222475D01*
X12823441Y-31222474D01*
X12828400Y-31197544D01*
X12828400Y-31039855D01*
X12828399Y-31039853D01*
X12824612Y-31020814D01*
X12797637Y-30885203D01*
X12797635Y-30885198D01*
X12737297Y-30739527D01*
X12737290Y-30739514D01*
X12649689Y-30608411D01*
X12649686Y-30608407D01*
X12538192Y-30496913D01*
X12538188Y-30496910D01*
X12407085Y-30409309D01*
X12407072Y-30409302D01*
X12261401Y-30348964D01*
X12261389Y-30348961D01*
X12106745Y-30318200D01*
X12106742Y-30318200D01*
X11949058Y-30318200D01*
X11949055Y-30318200D01*
X11794410Y-30348961D01*
X11794398Y-30348964D01*
X11648727Y-30409302D01*
X11648714Y-30409309D01*
X11517611Y-30496910D01*
X11517607Y-30496913D01*
X11406113Y-30608407D01*
X11406110Y-30608411D01*
X11318509Y-30739514D01*
X11318502Y-30739527D01*
X11258164Y-30885198D01*
X11258161Y-30885210D01*
X11227400Y-31039853D01*
X9939000Y-31039853D01*
X9939000Y-30888358D01*
X9939000Y-30888355D01*
X9938999Y-30888353D01*
X9934729Y-30866885D01*
X9908237Y-30733703D01*
X9890384Y-30690602D01*
X9847897Y-30588027D01*
X9847890Y-30588014D01*
X9760289Y-30456911D01*
X9760286Y-30456907D01*
X9648792Y-30345413D01*
X9648788Y-30345410D01*
X9517685Y-30257809D01*
X9517672Y-30257802D01*
X9372001Y-30197464D01*
X9371989Y-30197461D01*
X9217345Y-30166700D01*
X9217342Y-30166700D01*
X9059658Y-30166700D01*
X9059655Y-30166700D01*
X8905010Y-30197461D01*
X8904998Y-30197464D01*
X8759327Y-30257802D01*
X8759314Y-30257809D01*
X8628211Y-30345410D01*
X8628207Y-30345413D01*
X8516713Y-30456907D01*
X8516710Y-30456911D01*
X8429109Y-30588014D01*
X8429102Y-30588027D01*
X8368764Y-30733698D01*
X8368761Y-30733710D01*
X8338000Y-30888353D01*
X2610432Y-30888353D01*
X2500292Y-30778213D01*
X2500288Y-30778210D01*
X2456703Y-30749087D01*
X2411898Y-30695474D01*
X2403191Y-30626149D01*
X2433346Y-30563122D01*
X2492789Y-30526403D01*
X2549784Y-30524368D01*
X2594501Y-30533262D01*
X2681155Y-30550500D01*
X2681158Y-30550500D01*
X2838844Y-30550500D01*
X2838845Y-30550499D01*
X2993497Y-30519737D01*
X3139179Y-30459394D01*
X3270289Y-30371789D01*
X3381789Y-30260289D01*
X3469394Y-30129179D01*
X3529737Y-29983497D01*
X3560500Y-29828842D01*
X3560500Y-29671158D01*
X3560500Y-29671155D01*
X3560499Y-29671153D01*
X3553484Y-29635885D01*
X3529737Y-29516503D01*
X3529735Y-29516498D01*
X3469397Y-29370827D01*
X3469390Y-29370814D01*
X3381789Y-29239711D01*
X3381786Y-29239707D01*
X3270292Y-29128213D01*
X3270288Y-29128210D01*
X3139185Y-29040609D01*
X3139172Y-29040602D01*
X2993501Y-28980264D01*
X2993489Y-28980261D01*
X2838845Y-28949500D01*
X2838842Y-28949500D01*
X2681158Y-28949500D01*
X2681155Y-28949500D01*
X2526510Y-28980261D01*
X2526498Y-28980264D01*
X2380827Y-29040602D01*
X2380814Y-29040609D01*
X2249711Y-29128210D01*
X2249707Y-29128213D01*
X2138213Y-29239707D01*
X2138210Y-29239711D01*
X2050609Y-29370814D01*
X2050602Y-29370827D01*
X1990264Y-29516498D01*
X1990261Y-29516510D01*
X1959500Y-29671153D01*
X1959500Y-29828846D01*
X1990261Y-29983489D01*
X1990264Y-29983501D01*
X2050602Y-30129172D01*
X2050609Y-30129185D01*
X2138210Y-30260288D01*
X2138213Y-30260292D01*
X2249707Y-30371786D01*
X2249711Y-30371789D01*
X2293296Y-30400912D01*
X2338101Y-30454524D01*
X2346808Y-30523849D01*
X2316654Y-30586877D01*
X2257210Y-30623596D01*
X2200214Y-30625631D01*
X2068845Y-30599500D01*
X2068842Y-30599500D01*
X1911158Y-30599500D01*
X1911155Y-30599500D01*
X1756510Y-30630261D01*
X1756498Y-30630264D01*
X1610827Y-30690602D01*
X1610814Y-30690609D01*
X1479711Y-30778210D01*
X1479707Y-30778213D01*
X1368213Y-30889707D01*
X1368210Y-30889711D01*
X1280609Y-31020814D01*
X1280602Y-31020827D01*
X1220264Y-31166498D01*
X1220261Y-31166510D01*
X1189500Y-31321153D01*
X1189500Y-31478846D01*
X1220261Y-31633489D01*
X1220264Y-31633501D01*
X1280602Y-31779172D01*
X1280609Y-31779185D01*
X1368211Y-31910290D01*
X1369067Y-31911333D01*
X1369343Y-31911984D01*
X1371595Y-31915354D01*
X1370955Y-31915781D01*
X1396375Y-31975645D01*
X1384577Y-32044512D01*
X1342098Y-32093092D01*
X1214711Y-32178210D01*
X1214707Y-32178213D01*
X1103213Y-32289707D01*
X1103210Y-32289711D01*
X1015609Y-32420814D01*
X1015602Y-32420827D01*
X955264Y-32566498D01*
X955261Y-32566510D01*
X924500Y-32721153D01*
X300500Y-32721153D01*
X300500Y-28455953D01*
X6832400Y-28455953D01*
X6832400Y-28613646D01*
X6863161Y-28768289D01*
X6863164Y-28768301D01*
X6923502Y-28913972D01*
X6923509Y-28913985D01*
X7011110Y-29045088D01*
X7011113Y-29045092D01*
X7122607Y-29156586D01*
X7122611Y-29156589D01*
X7253714Y-29244190D01*
X7253727Y-29244197D01*
X7399398Y-29304535D01*
X7399403Y-29304537D01*
X7554053Y-29335299D01*
X7554056Y-29335300D01*
X7554058Y-29335300D01*
X7711744Y-29335300D01*
X7711745Y-29335299D01*
X7866397Y-29304537D01*
X8012079Y-29244194D01*
X8143189Y-29156589D01*
X8254689Y-29045089D01*
X8342294Y-28913979D01*
X8402637Y-28768297D01*
X8433400Y-28613642D01*
X8433400Y-28455958D01*
X8433400Y-28455955D01*
X8433399Y-28455953D01*
X8425759Y-28417544D01*
X8402637Y-28301303D01*
X8367118Y-28215553D01*
X14069100Y-28215553D01*
X14069100Y-28373246D01*
X14099861Y-28527889D01*
X14099864Y-28527901D01*
X14160202Y-28673572D01*
X14160209Y-28673585D01*
X14247810Y-28804688D01*
X14247813Y-28804692D01*
X14359307Y-28916186D01*
X14359311Y-28916189D01*
X14490414Y-29003790D01*
X14490427Y-29003797D01*
X14636098Y-29064135D01*
X14636103Y-29064137D01*
X14785675Y-29093889D01*
X14790753Y-29094899D01*
X14790756Y-29094900D01*
X14790758Y-29094900D01*
X14948444Y-29094900D01*
X14948445Y-29094899D01*
X15103097Y-29064137D01*
X15248779Y-29003794D01*
X15379889Y-28916189D01*
X15491389Y-28804689D01*
X15578994Y-28673579D01*
X15639337Y-28527897D01*
X15670100Y-28373242D01*
X15670100Y-28215558D01*
X15670100Y-28215555D01*
X15670099Y-28215553D01*
X15649409Y-28111538D01*
X15639337Y-28060903D01*
X15624263Y-28024511D01*
X15592391Y-27947564D01*
X15592386Y-27947554D01*
X15578994Y-27915221D01*
X15578992Y-27915218D01*
X15578990Y-27915214D01*
X15572936Y-27906153D01*
X19738600Y-27906153D01*
X19738600Y-28063846D01*
X19769361Y-28218489D01*
X19769364Y-28218501D01*
X19829702Y-28364172D01*
X19829709Y-28364185D01*
X19917310Y-28495288D01*
X19917313Y-28495292D01*
X20028807Y-28606786D01*
X20028811Y-28606789D01*
X20159914Y-28694390D01*
X20159927Y-28694397D01*
X20227314Y-28722309D01*
X20305603Y-28754737D01*
X20460253Y-28785499D01*
X20460256Y-28785500D01*
X20460258Y-28785500D01*
X20617944Y-28785500D01*
X20723908Y-28764422D01*
X20793500Y-28770649D01*
X20848677Y-28813512D01*
X20871922Y-28879401D01*
X20872100Y-28886039D01*
X20872100Y-28939246D01*
X20902861Y-29093889D01*
X20902864Y-29093901D01*
X20963202Y-29239572D01*
X20963209Y-29239585D01*
X21050810Y-29370688D01*
X21050813Y-29370692D01*
X21162308Y-29482187D01*
X21162311Y-29482189D01*
X21208347Y-29512949D01*
X21253151Y-29566560D01*
X21261859Y-29635885D01*
X21231705Y-29698913D01*
X21172263Y-29735632D01*
X21115265Y-29737668D01*
X20944495Y-29703700D01*
X20944491Y-29703700D01*
X20767109Y-29703700D01*
X20767106Y-29703700D01*
X20593141Y-29738303D01*
X20593132Y-29738306D01*
X20429259Y-29806183D01*
X20429246Y-29806190D01*
X20281765Y-29904735D01*
X20281761Y-29904738D01*
X20156338Y-30030161D01*
X20156335Y-30030165D01*
X20057790Y-30177646D01*
X20057783Y-30177659D01*
X19989906Y-30341532D01*
X19989903Y-30341541D01*
X19955300Y-30515504D01*
X19955300Y-30692895D01*
X19989903Y-30866858D01*
X19989906Y-30866867D01*
X20057783Y-31030740D01*
X20057790Y-31030753D01*
X20156335Y-31178234D01*
X20156338Y-31178238D01*
X20281761Y-31303661D01*
X20281765Y-31303664D01*
X20429246Y-31402209D01*
X20429259Y-31402216D01*
X20539579Y-31447911D01*
X20593134Y-31470094D01*
X20593136Y-31470094D01*
X20593141Y-31470096D01*
X20767104Y-31504699D01*
X20767107Y-31504700D01*
X20767109Y-31504700D01*
X20944493Y-31504700D01*
X20944494Y-31504699D01*
X21045510Y-31484606D01*
X21045520Y-31484604D01*
X22702900Y-31484604D01*
X22702900Y-31661995D01*
X22737503Y-31835958D01*
X22737506Y-31835967D01*
X22805383Y-31999840D01*
X22805390Y-31999853D01*
X22903935Y-32147334D01*
X22903938Y-32147338D01*
X23029361Y-32272761D01*
X23029365Y-32272764D01*
X23176846Y-32371309D01*
X23176859Y-32371316D01*
X23296360Y-32420814D01*
X23340734Y-32439194D01*
X23340736Y-32439194D01*
X23340741Y-32439196D01*
X23514704Y-32473799D01*
X23514707Y-32473800D01*
X23514709Y-32473800D01*
X23692093Y-32473800D01*
X23813507Y-32449649D01*
X23813507Y-32449648D01*
X23842499Y-32443881D01*
X23866058Y-32439196D01*
X23866061Y-32439194D01*
X23866066Y-32439194D01*
X24029947Y-32371313D01*
X24177435Y-32272764D01*
X24302864Y-32147335D01*
X24401413Y-31999847D01*
X24469294Y-31835966D01*
X24470860Y-31828097D01*
X24501171Y-31675711D01*
X24503900Y-31661991D01*
X24503900Y-31484609D01*
X24503900Y-31484606D01*
X24503899Y-31484604D01*
X24469296Y-31310641D01*
X24469293Y-31310632D01*
X24401416Y-31146759D01*
X24401409Y-31146746D01*
X24302864Y-30999265D01*
X24302861Y-30999261D01*
X24177438Y-30873838D01*
X24177434Y-30873835D01*
X24029953Y-30775290D01*
X24029940Y-30775283D01*
X23866067Y-30707406D01*
X23866058Y-30707403D01*
X23692094Y-30672800D01*
X23692091Y-30672800D01*
X23514709Y-30672800D01*
X23514706Y-30672800D01*
X23340741Y-30707403D01*
X23340732Y-30707406D01*
X23176859Y-30775283D01*
X23176846Y-30775290D01*
X23029365Y-30873835D01*
X23029361Y-30873838D01*
X22903938Y-30999261D01*
X22903935Y-30999265D01*
X22805390Y-31146746D01*
X22805383Y-31146759D01*
X22737506Y-31310632D01*
X22737503Y-31310641D01*
X22702900Y-31484604D01*
X21045520Y-31484604D01*
X21118458Y-31470096D01*
X21118461Y-31470094D01*
X21118466Y-31470094D01*
X21282347Y-31402213D01*
X21282353Y-31402209D01*
X21322454Y-31375415D01*
X21381704Y-31335824D01*
X21429835Y-31303664D01*
X21555264Y-31178235D01*
X21653813Y-31030747D01*
X21721694Y-30866866D01*
X21728939Y-30830447D01*
X21747026Y-30739514D01*
X21756300Y-30692891D01*
X21756300Y-30515509D01*
X21756300Y-30515506D01*
X21756299Y-30515504D01*
X21721696Y-30341541D01*
X21721693Y-30341532D01*
X21653816Y-30177659D01*
X21653809Y-30177646D01*
X21555264Y-30030165D01*
X21555261Y-30030161D01*
X21429838Y-29904738D01*
X21429834Y-29904735D01*
X21359071Y-29857452D01*
X21314266Y-29803839D01*
X21305559Y-29734514D01*
X21335714Y-29671487D01*
X21395157Y-29634768D01*
X21452154Y-29632733D01*
X21593755Y-29660900D01*
X21593758Y-29660900D01*
X21751444Y-29660900D01*
X21751445Y-29660899D01*
X21906097Y-29630137D01*
X22051779Y-29569794D01*
X22182889Y-29482189D01*
X22294389Y-29370689D01*
X22381994Y-29239579D01*
X22442337Y-29093897D01*
X22473100Y-28939242D01*
X22473100Y-28781558D01*
X22473100Y-28781555D01*
X22473099Y-28781553D01*
X22467765Y-28754737D01*
X22442337Y-28626903D01*
X22409792Y-28548332D01*
X22381997Y-28481227D01*
X22381990Y-28481214D01*
X22294389Y-28350111D01*
X22294386Y-28350107D01*
X22204132Y-28259853D01*
X23214800Y-28259853D01*
X23214800Y-28417546D01*
X23245561Y-28572189D01*
X23245564Y-28572201D01*
X23305902Y-28717872D01*
X23305909Y-28717885D01*
X23393510Y-28848988D01*
X23393513Y-28848992D01*
X23505007Y-28960486D01*
X23505011Y-28960489D01*
X23636114Y-29048090D01*
X23636127Y-29048097D01*
X23781798Y-29108435D01*
X23781803Y-29108437D01*
X23936453Y-29139199D01*
X23936456Y-29139200D01*
X23936458Y-29139200D01*
X24094144Y-29139200D01*
X24094145Y-29139199D01*
X24248797Y-29108437D01*
X24394479Y-29048094D01*
X24525589Y-28960489D01*
X24637089Y-28848989D01*
X24721737Y-28722304D01*
X26120600Y-28722304D01*
X26120600Y-28899695D01*
X26155203Y-29073658D01*
X26155206Y-29073667D01*
X26223083Y-29237540D01*
X26223090Y-29237553D01*
X26321635Y-29385034D01*
X26321638Y-29385038D01*
X26447061Y-29510461D01*
X26447065Y-29510464D01*
X26594546Y-29609009D01*
X26594559Y-29609016D01*
X26659428Y-29635885D01*
X26758434Y-29676894D01*
X26758436Y-29676894D01*
X26758441Y-29676896D01*
X26932404Y-29711499D01*
X26932407Y-29711500D01*
X26932409Y-29711500D01*
X27109793Y-29711500D01*
X27109794Y-29711499D01*
X27173070Y-29698913D01*
X27283758Y-29676896D01*
X27283761Y-29676894D01*
X27283766Y-29676894D01*
X27447647Y-29609013D01*
X27595135Y-29510464D01*
X27720564Y-29385035D01*
X27819113Y-29237547D01*
X27886994Y-29073666D01*
X27888890Y-29064138D01*
X27921599Y-28899695D01*
X27921600Y-28899693D01*
X27921600Y-28722306D01*
X27921599Y-28722304D01*
X27886996Y-28548341D01*
X27886993Y-28548332D01*
X27819116Y-28384459D01*
X27819109Y-28384446D01*
X27720564Y-28236965D01*
X27720561Y-28236961D01*
X27595138Y-28111538D01*
X27595134Y-28111535D01*
X27447653Y-28012990D01*
X27447640Y-28012983D01*
X27283767Y-27945106D01*
X27283758Y-27945103D01*
X27109794Y-27910500D01*
X27109791Y-27910500D01*
X26932409Y-27910500D01*
X26932406Y-27910500D01*
X26758441Y-27945103D01*
X26758432Y-27945106D01*
X26594559Y-28012983D01*
X26594546Y-28012990D01*
X26447065Y-28111535D01*
X26447061Y-28111538D01*
X26321638Y-28236961D01*
X26321635Y-28236965D01*
X26223090Y-28384446D01*
X26223083Y-28384459D01*
X26155206Y-28548332D01*
X26155203Y-28548341D01*
X26120600Y-28722304D01*
X24721737Y-28722304D01*
X24724694Y-28717879D01*
X24729030Y-28707412D01*
X24745038Y-28668765D01*
X24785035Y-28572201D01*
X24785037Y-28572197D01*
X24815800Y-28417542D01*
X24815800Y-28259858D01*
X24815800Y-28259855D01*
X24815799Y-28259853D01*
X24811245Y-28236961D01*
X24785037Y-28105203D01*
X24767905Y-28063842D01*
X24724697Y-27959527D01*
X24724690Y-27959514D01*
X24637089Y-27828411D01*
X24637086Y-27828407D01*
X24525592Y-27716913D01*
X24525588Y-27716910D01*
X24394485Y-27629309D01*
X24394472Y-27629302D01*
X24248801Y-27568964D01*
X24248789Y-27568961D01*
X24094145Y-27538200D01*
X24094142Y-27538200D01*
X23936458Y-27538200D01*
X23936455Y-27538200D01*
X23781810Y-27568961D01*
X23781798Y-27568964D01*
X23636127Y-27629302D01*
X23636114Y-27629309D01*
X23505011Y-27716910D01*
X23505007Y-27716913D01*
X23393513Y-27828407D01*
X23393510Y-27828411D01*
X23305909Y-27959514D01*
X23305902Y-27959527D01*
X23245564Y-28105198D01*
X23245561Y-28105210D01*
X23214800Y-28259853D01*
X22204132Y-28259853D01*
X22182892Y-28238613D01*
X22182888Y-28238610D01*
X22051785Y-28151009D01*
X22051772Y-28151002D01*
X21906101Y-28090664D01*
X21906089Y-28090661D01*
X21751445Y-28059900D01*
X21751442Y-28059900D01*
X21593758Y-28059900D01*
X21593753Y-28059900D01*
X21487791Y-28080977D01*
X21418199Y-28074750D01*
X21363022Y-28031886D01*
X21339778Y-27965997D01*
X21339600Y-27959360D01*
X21339600Y-27906155D01*
X21339599Y-27906153D01*
X21323537Y-27825406D01*
X21308837Y-27751503D01*
X21301711Y-27734300D01*
X21248497Y-27605827D01*
X21248490Y-27605814D01*
X21160889Y-27474711D01*
X21160886Y-27474707D01*
X21049392Y-27363213D01*
X21049388Y-27363210D01*
X20918285Y-27275609D01*
X20918272Y-27275602D01*
X20772601Y-27215264D01*
X20772589Y-27215261D01*
X20617945Y-27184500D01*
X20617942Y-27184500D01*
X20460258Y-27184500D01*
X20460255Y-27184500D01*
X20305610Y-27215261D01*
X20305598Y-27215264D01*
X20159927Y-27275602D01*
X20159914Y-27275609D01*
X20028811Y-27363210D01*
X20028807Y-27363213D01*
X19917313Y-27474707D01*
X19917310Y-27474711D01*
X19829709Y-27605814D01*
X19829702Y-27605827D01*
X19769364Y-27751498D01*
X19769361Y-27751510D01*
X19738600Y-27906153D01*
X15572936Y-27906153D01*
X15491389Y-27784111D01*
X15491386Y-27784107D01*
X15379892Y-27672613D01*
X15379888Y-27672610D01*
X15248785Y-27585009D01*
X15248772Y-27585002D01*
X15103101Y-27524664D01*
X15103089Y-27524661D01*
X14948445Y-27493900D01*
X14948442Y-27493900D01*
X14790758Y-27493900D01*
X14790755Y-27493900D01*
X14636110Y-27524661D01*
X14636098Y-27524664D01*
X14490427Y-27585002D01*
X14490414Y-27585009D01*
X14359311Y-27672610D01*
X14359307Y-27672613D01*
X14247813Y-27784107D01*
X14247810Y-27784111D01*
X14160209Y-27915214D01*
X14160202Y-27915227D01*
X14099864Y-28060898D01*
X14099861Y-28060910D01*
X14069100Y-28215553D01*
X8367118Y-28215553D01*
X8354011Y-28183910D01*
X8342295Y-28155623D01*
X8342290Y-28155614D01*
X8254689Y-28024511D01*
X8254686Y-28024507D01*
X8143192Y-27913013D01*
X8143188Y-27913010D01*
X8012085Y-27825409D01*
X8012072Y-27825402D01*
X7866401Y-27765064D01*
X7866389Y-27765061D01*
X7711745Y-27734300D01*
X7711742Y-27734300D01*
X7554058Y-27734300D01*
X7554055Y-27734300D01*
X7399410Y-27765061D01*
X7399398Y-27765064D01*
X7253727Y-27825402D01*
X7253714Y-27825409D01*
X7122611Y-27913010D01*
X7122607Y-27913013D01*
X7011113Y-28024507D01*
X7011110Y-28024511D01*
X6923509Y-28155614D01*
X6923502Y-28155627D01*
X6863164Y-28301298D01*
X6863161Y-28301310D01*
X6832400Y-28455953D01*
X300500Y-28455953D01*
X300500Y-26636153D01*
X21405000Y-26636153D01*
X21405000Y-26793846D01*
X21435761Y-26948489D01*
X21435764Y-26948501D01*
X21496102Y-27094172D01*
X21496109Y-27094185D01*
X21583710Y-27225288D01*
X21583713Y-27225292D01*
X21695207Y-27336786D01*
X21695211Y-27336789D01*
X21826314Y-27424390D01*
X21826327Y-27424397D01*
X21947788Y-27474707D01*
X21972003Y-27484737D01*
X22126653Y-27515499D01*
X22126656Y-27515500D01*
X22126658Y-27515500D01*
X22284344Y-27515500D01*
X22284345Y-27515499D01*
X22438997Y-27484737D01*
X22584679Y-27424394D01*
X22715789Y-27336789D01*
X22827289Y-27225289D01*
X22914894Y-27094179D01*
X22975237Y-26948497D01*
X23006000Y-26793842D01*
X23006000Y-26636158D01*
X23006000Y-26636155D01*
X23005999Y-26636153D01*
X22975237Y-26481503D01*
X22970364Y-26469738D01*
X22914897Y-26335827D01*
X22914890Y-26335814D01*
X22827289Y-26204711D01*
X22827286Y-26204707D01*
X22715792Y-26093213D01*
X22715788Y-26093210D01*
X22584685Y-26005609D01*
X22584672Y-26005602D01*
X22439001Y-25945264D01*
X22438989Y-25945261D01*
X22284345Y-25914500D01*
X22284342Y-25914500D01*
X22126658Y-25914500D01*
X22126655Y-25914500D01*
X21972010Y-25945261D01*
X21971998Y-25945264D01*
X21826327Y-26005602D01*
X21826314Y-26005609D01*
X21695211Y-26093210D01*
X21695207Y-26093213D01*
X21583713Y-26204707D01*
X21583710Y-26204711D01*
X21496109Y-26335814D01*
X21496102Y-26335827D01*
X21435764Y-26481498D01*
X21435761Y-26481510D01*
X21405000Y-26636153D01*
X300500Y-26636153D01*
X300500Y-25184753D01*
X14067800Y-25184753D01*
X14067800Y-25342446D01*
X14098561Y-25497089D01*
X14098564Y-25497101D01*
X14158902Y-25642772D01*
X14158909Y-25642785D01*
X14246510Y-25773888D01*
X14246513Y-25773892D01*
X14358007Y-25885386D01*
X14358011Y-25885389D01*
X14489114Y-25972990D01*
X14489127Y-25972997D01*
X14567861Y-26005609D01*
X14634803Y-26033337D01*
X14789453Y-26064099D01*
X14789456Y-26064100D01*
X14789458Y-26064100D01*
X14947144Y-26064100D01*
X14947145Y-26064099D01*
X15101797Y-26033337D01*
X15247479Y-25972994D01*
X15378589Y-25885389D01*
X15490089Y-25773889D01*
X15577694Y-25642779D01*
X15586652Y-25621153D01*
X26549500Y-25621153D01*
X26549500Y-25778846D01*
X26580261Y-25933489D01*
X26580264Y-25933501D01*
X26640602Y-26079172D01*
X26640609Y-26079185D01*
X26728210Y-26210288D01*
X26728213Y-26210292D01*
X26839707Y-26321786D01*
X26839711Y-26321789D01*
X26970814Y-26409390D01*
X26970827Y-26409397D01*
X27116498Y-26469735D01*
X27116503Y-26469737D01*
X27271153Y-26500499D01*
X27271156Y-26500500D01*
X27271158Y-26500500D01*
X27428844Y-26500500D01*
X27428845Y-26500499D01*
X27583497Y-26469737D01*
X27729179Y-26409394D01*
X27860289Y-26321789D01*
X27971789Y-26210289D01*
X28059394Y-26079179D01*
X28093161Y-25997655D01*
X28136999Y-25943255D01*
X28203293Y-25921189D01*
X28237957Y-25925701D01*
X28238028Y-25925349D01*
X28243292Y-25926396D01*
X28243729Y-25926453D01*
X28243994Y-25926533D01*
X28244003Y-25926537D01*
X28244012Y-25926538D01*
X28244016Y-25926540D01*
X28398653Y-25957299D01*
X28398656Y-25957300D01*
X28398658Y-25957300D01*
X28556344Y-25957300D01*
X28556345Y-25957299D01*
X28710997Y-25926537D01*
X28856679Y-25866194D01*
X28987789Y-25778589D01*
X29099289Y-25667089D01*
X29186894Y-25535979D01*
X29247237Y-25390297D01*
X29278000Y-25235642D01*
X29278000Y-25077958D01*
X29278000Y-25077955D01*
X29277999Y-25077953D01*
X29260624Y-24990606D01*
X29247237Y-24923303D01*
X29231129Y-24884414D01*
X29186897Y-24777627D01*
X29186890Y-24777614D01*
X29099289Y-24646511D01*
X29099286Y-24646507D01*
X28987792Y-24535013D01*
X28987788Y-24535010D01*
X28856685Y-24447409D01*
X28856672Y-24447402D01*
X28711001Y-24387064D01*
X28710989Y-24387061D01*
X28556345Y-24356300D01*
X28556342Y-24356300D01*
X28398658Y-24356300D01*
X28398655Y-24356300D01*
X28244010Y-24387061D01*
X28243998Y-24387064D01*
X28098327Y-24447402D01*
X28098314Y-24447409D01*
X27967211Y-24535010D01*
X27967207Y-24535013D01*
X27855713Y-24646507D01*
X27855710Y-24646511D01*
X27768109Y-24777614D01*
X27768102Y-24777627D01*
X27734339Y-24859141D01*
X27690498Y-24913545D01*
X27624204Y-24935610D01*
X27589542Y-24931098D01*
X27589472Y-24931451D01*
X27584215Y-24930405D01*
X27583782Y-24930349D01*
X27583496Y-24930262D01*
X27428845Y-24899500D01*
X27428842Y-24899500D01*
X27271158Y-24899500D01*
X27271155Y-24899500D01*
X27116510Y-24930261D01*
X27116498Y-24930264D01*
X26970827Y-24990602D01*
X26970814Y-24990609D01*
X26839711Y-25078210D01*
X26839707Y-25078213D01*
X26728213Y-25189707D01*
X26728210Y-25189711D01*
X26640609Y-25320814D01*
X26640602Y-25320827D01*
X26580264Y-25466498D01*
X26580261Y-25466510D01*
X26549500Y-25621153D01*
X15586652Y-25621153D01*
X15638037Y-25497097D01*
X15668800Y-25342442D01*
X15668800Y-25184758D01*
X15668800Y-25184755D01*
X15668799Y-25184753D01*
X15638037Y-25030103D01*
X15598332Y-24934246D01*
X15577697Y-24884427D01*
X15577690Y-24884414D01*
X15490089Y-24753311D01*
X15490086Y-24753307D01*
X15378592Y-24641813D01*
X15378588Y-24641810D01*
X15247485Y-24554209D01*
X15247472Y-24554202D01*
X15101801Y-24493864D01*
X15101789Y-24493861D01*
X14947145Y-24463100D01*
X14947142Y-24463100D01*
X14789458Y-24463100D01*
X14789455Y-24463100D01*
X14634810Y-24493861D01*
X14634798Y-24493864D01*
X14489127Y-24554202D01*
X14489114Y-24554209D01*
X14358011Y-24641810D01*
X14358007Y-24641813D01*
X14246513Y-24753307D01*
X14246510Y-24753311D01*
X14158909Y-24884414D01*
X14158902Y-24884427D01*
X14098564Y-25030098D01*
X14098561Y-25030110D01*
X14067800Y-25184753D01*
X300500Y-25184753D01*
X300500Y-23671153D01*
X24349500Y-23671153D01*
X24349500Y-23828846D01*
X24380261Y-23983489D01*
X24380264Y-23983501D01*
X24440602Y-24129172D01*
X24440609Y-24129185D01*
X24528210Y-24260288D01*
X24528213Y-24260292D01*
X24639707Y-24371786D01*
X24639711Y-24371789D01*
X24770814Y-24459390D01*
X24770827Y-24459397D01*
X24906588Y-24515630D01*
X24916503Y-24519737D01*
X25071153Y-24550499D01*
X25071156Y-24550500D01*
X25071158Y-24550500D01*
X25228844Y-24550500D01*
X25228845Y-24550499D01*
X25383497Y-24519737D01*
X25496891Y-24472768D01*
X25529172Y-24459397D01*
X25529172Y-24459396D01*
X25529179Y-24459394D01*
X25660289Y-24371789D01*
X25771789Y-24260289D01*
X25859394Y-24129179D01*
X25919737Y-23983497D01*
X25950500Y-23828842D01*
X25950500Y-23671158D01*
X25950500Y-23671155D01*
X25940992Y-23623358D01*
X25940992Y-23623357D01*
X25937391Y-23605253D01*
X31707700Y-23605253D01*
X31707700Y-23762946D01*
X31738461Y-23917589D01*
X31738464Y-23917601D01*
X31798802Y-24063272D01*
X31798809Y-24063285D01*
X31886410Y-24194388D01*
X31886413Y-24194392D01*
X31997907Y-24305886D01*
X31997911Y-24305889D01*
X32129014Y-24393490D01*
X32129027Y-24393497D01*
X32259167Y-24447402D01*
X32274703Y-24453837D01*
X32429353Y-24484599D01*
X32429356Y-24484600D01*
X32429358Y-24484600D01*
X32587043Y-24484600D01*
X32604806Y-24481066D01*
X32677828Y-24466541D01*
X32747418Y-24472768D01*
X32802596Y-24515630D01*
X32825841Y-24581519D01*
X32821699Y-24615758D01*
X32822551Y-24615928D01*
X32790600Y-24776553D01*
X32790600Y-24934246D01*
X32821361Y-25088889D01*
X32821364Y-25088901D01*
X32881702Y-25234572D01*
X32881709Y-25234585D01*
X32969310Y-25365688D01*
X32969313Y-25365692D01*
X33080807Y-25477186D01*
X33080811Y-25477189D01*
X33211914Y-25564790D01*
X33211927Y-25564797D01*
X33347997Y-25621158D01*
X33357603Y-25625137D01*
X33512253Y-25655899D01*
X33512256Y-25655900D01*
X33512258Y-25655900D01*
X33669944Y-25655900D01*
X33669945Y-25655899D01*
X33824597Y-25625137D01*
X33970279Y-25564794D01*
X33972383Y-25563387D01*
X33973653Y-25562990D01*
X33975646Y-25561925D01*
X33975848Y-25562302D01*
X34039057Y-25542508D01*
X34088729Y-25551927D01*
X34090819Y-25552792D01*
X34090821Y-25552794D01*
X34236503Y-25613137D01*
X34385487Y-25642772D01*
X34391153Y-25643899D01*
X34391156Y-25643900D01*
X34391158Y-25643900D01*
X34548844Y-25643900D01*
X34548845Y-25643899D01*
X34703497Y-25613137D01*
X34823600Y-25563389D01*
X34849172Y-25552797D01*
X34849172Y-25552796D01*
X34849179Y-25552794D01*
X34980289Y-25465189D01*
X35091789Y-25353689D01*
X35179394Y-25222579D01*
X35239737Y-25076897D01*
X35270500Y-24922242D01*
X35270500Y-24764558D01*
X35270500Y-24764555D01*
X35270499Y-24764553D01*
X35246084Y-24641811D01*
X35239737Y-24609903D01*
X35202390Y-24519738D01*
X35179397Y-24464227D01*
X35179390Y-24464214D01*
X35091789Y-24333111D01*
X35091786Y-24333107D01*
X34980292Y-24221613D01*
X34980288Y-24221610D01*
X34849185Y-24134009D01*
X34849172Y-24134002D01*
X34703501Y-24073664D01*
X34703489Y-24073661D01*
X34548845Y-24042900D01*
X34548842Y-24042900D01*
X34391158Y-24042900D01*
X34391155Y-24042900D01*
X34236510Y-24073661D01*
X34236498Y-24073664D01*
X34090828Y-24134002D01*
X34090811Y-24134011D01*
X34088705Y-24135419D01*
X34087434Y-24135816D01*
X34085447Y-24136879D01*
X34085245Y-24136501D01*
X34022026Y-24156291D01*
X33972371Y-24146872D01*
X33824601Y-24085664D01*
X33824589Y-24085661D01*
X33669945Y-24054900D01*
X33669942Y-24054900D01*
X33512258Y-24054900D01*
X33512255Y-24054900D01*
X33421471Y-24072958D01*
X33351880Y-24066731D01*
X33296702Y-24023868D01*
X33273458Y-23957978D01*
X33277605Y-23923742D01*
X33276749Y-23923572D01*
X33308699Y-23762946D01*
X33308700Y-23762944D01*
X33308700Y-23605255D01*
X33308699Y-23605253D01*
X33277939Y-23450610D01*
X33277935Y-23450598D01*
X33266940Y-23424053D01*
X45099400Y-23424053D01*
X45099400Y-23581746D01*
X45130161Y-23736389D01*
X45130164Y-23736401D01*
X45190502Y-23882072D01*
X45190509Y-23882085D01*
X45278110Y-24013188D01*
X45278113Y-24013192D01*
X45389607Y-24124686D01*
X45389611Y-24124689D01*
X45520714Y-24212290D01*
X45520727Y-24212297D01*
X45636592Y-24260289D01*
X45666403Y-24272637D01*
X45821053Y-24303399D01*
X45821056Y-24303400D01*
X45821058Y-24303400D01*
X45978744Y-24303400D01*
X45978745Y-24303399D01*
X46133397Y-24272637D01*
X46279079Y-24212294D01*
X46410189Y-24124689D01*
X46521689Y-24013189D01*
X46609294Y-23882079D01*
X46669637Y-23736397D01*
X46700400Y-23581742D01*
X46700400Y-23424058D01*
X46700400Y-23424055D01*
X46700399Y-23424053D01*
X46669637Y-23269403D01*
X46630042Y-23173811D01*
X46609297Y-23123727D01*
X46609290Y-23123714D01*
X46521689Y-22992611D01*
X46521686Y-22992607D01*
X46410192Y-22881113D01*
X46410188Y-22881110D01*
X46279085Y-22793509D01*
X46279072Y-22793502D01*
X46133401Y-22733164D01*
X46133389Y-22733161D01*
X45978745Y-22702400D01*
X45978742Y-22702400D01*
X45821058Y-22702400D01*
X45821055Y-22702400D01*
X45666410Y-22733161D01*
X45666398Y-22733164D01*
X45520727Y-22793502D01*
X45520714Y-22793509D01*
X45389611Y-22881110D01*
X45389607Y-22881113D01*
X45278113Y-22992607D01*
X45278110Y-22992611D01*
X45190509Y-23123714D01*
X45190502Y-23123727D01*
X45130164Y-23269398D01*
X45130161Y-23269410D01*
X45099400Y-23424053D01*
X33266940Y-23424053D01*
X33217597Y-23304927D01*
X33217590Y-23304914D01*
X33129989Y-23173811D01*
X33129986Y-23173807D01*
X33018492Y-23062313D01*
X33018488Y-23062310D01*
X32887385Y-22974709D01*
X32887372Y-22974702D01*
X32741701Y-22914364D01*
X32741689Y-22914361D01*
X32587045Y-22883600D01*
X32587042Y-22883600D01*
X32429358Y-22883600D01*
X32429355Y-22883600D01*
X32274710Y-22914361D01*
X32274698Y-22914364D01*
X32129027Y-22974702D01*
X32129014Y-22974709D01*
X31997911Y-23062310D01*
X31997907Y-23062313D01*
X31886413Y-23173807D01*
X31886410Y-23173811D01*
X31798809Y-23304914D01*
X31798802Y-23304927D01*
X31738464Y-23450598D01*
X31738461Y-23450610D01*
X31707700Y-23605253D01*
X25937391Y-23605253D01*
X25919738Y-23516510D01*
X25919737Y-23516503D01*
X25919735Y-23516498D01*
X25859397Y-23370827D01*
X25859390Y-23370814D01*
X25771789Y-23239711D01*
X25771786Y-23239707D01*
X25660292Y-23128213D01*
X25660288Y-23128210D01*
X25529185Y-23040609D01*
X25529172Y-23040602D01*
X25383501Y-22980264D01*
X25383489Y-22980261D01*
X25228845Y-22949500D01*
X25228842Y-22949500D01*
X25071158Y-22949500D01*
X25071155Y-22949500D01*
X24916510Y-22980261D01*
X24916498Y-22980264D01*
X24770827Y-23040602D01*
X24770814Y-23040609D01*
X24639711Y-23128210D01*
X24639707Y-23128213D01*
X24528213Y-23239707D01*
X24528210Y-23239711D01*
X24440609Y-23370814D01*
X24440602Y-23370827D01*
X24380264Y-23516498D01*
X24380261Y-23516510D01*
X24349500Y-23671153D01*
X300500Y-23671153D01*
X300500Y-20393053D01*
X23702000Y-20393053D01*
X23702000Y-20550746D01*
X23732761Y-20705389D01*
X23732764Y-20705401D01*
X23793102Y-20851072D01*
X23793109Y-20851085D01*
X23880710Y-20982188D01*
X23880713Y-20982192D01*
X23992207Y-21093686D01*
X23992211Y-21093689D01*
X24123314Y-21181290D01*
X24123327Y-21181297D01*
X24268998Y-21241635D01*
X24269003Y-21241637D01*
X24423653Y-21272399D01*
X24423656Y-21272400D01*
X24423658Y-21272400D01*
X24581344Y-21272400D01*
X24581345Y-21272399D01*
X24735997Y-21241637D01*
X24881679Y-21181294D01*
X25012789Y-21093689D01*
X25124289Y-20982189D01*
X25211894Y-20851079D01*
X25272237Y-20705397D01*
X25303000Y-20550742D01*
X25303000Y-20393058D01*
X25303000Y-20393055D01*
X25302999Y-20393053D01*
X25272238Y-20238410D01*
X25272237Y-20238403D01*
X25270202Y-20233489D01*
X25211897Y-20092727D01*
X25211890Y-20092714D01*
X25139221Y-19983957D01*
X25139220Y-19983956D01*
X25124291Y-19961613D01*
X25124286Y-19961607D01*
X25083832Y-19921153D01*
X46604500Y-19921153D01*
X46604500Y-20078846D01*
X46635261Y-20233489D01*
X46635264Y-20233501D01*
X46695602Y-20379172D01*
X46695609Y-20379185D01*
X46783210Y-20510288D01*
X46783213Y-20510292D01*
X46894707Y-20621786D01*
X46894711Y-20621789D01*
X47025814Y-20709390D01*
X47025827Y-20709397D01*
X47171498Y-20769735D01*
X47171503Y-20769737D01*
X47326153Y-20800499D01*
X47326156Y-20800500D01*
X47326158Y-20800500D01*
X47483844Y-20800500D01*
X47483845Y-20800499D01*
X47638497Y-20769737D01*
X47784179Y-20709394D01*
X47915289Y-20621789D01*
X48026789Y-20510289D01*
X48114394Y-20379179D01*
X48174737Y-20233497D01*
X48205500Y-20078842D01*
X48205500Y-19921158D01*
X48205500Y-19921155D01*
X48205499Y-19921153D01*
X48174737Y-19766503D01*
X48148086Y-19702161D01*
X48114397Y-19620827D01*
X48114390Y-19620814D01*
X48026789Y-19489711D01*
X48026786Y-19489707D01*
X47915292Y-19378213D01*
X47915288Y-19378210D01*
X47784185Y-19290609D01*
X47784172Y-19290602D01*
X47638501Y-19230264D01*
X47638489Y-19230261D01*
X47483845Y-19199500D01*
X47483842Y-19199500D01*
X47326158Y-19199500D01*
X47326155Y-19199500D01*
X47171510Y-19230261D01*
X47171498Y-19230264D01*
X47025827Y-19290602D01*
X47025814Y-19290609D01*
X46894711Y-19378210D01*
X46894707Y-19378213D01*
X46783213Y-19489707D01*
X46783210Y-19489711D01*
X46695609Y-19620814D01*
X46695602Y-19620827D01*
X46635264Y-19766498D01*
X46635261Y-19766510D01*
X46604500Y-19921153D01*
X25083832Y-19921153D01*
X25012792Y-19850113D01*
X25012788Y-19850110D01*
X24881685Y-19762509D01*
X24881672Y-19762502D01*
X24736001Y-19702164D01*
X24735989Y-19702161D01*
X24581345Y-19671400D01*
X24581342Y-19671400D01*
X24423658Y-19671400D01*
X24423655Y-19671400D01*
X24269010Y-19702161D01*
X24268998Y-19702164D01*
X24123327Y-19762502D01*
X24123314Y-19762509D01*
X23992211Y-19850110D01*
X23992207Y-19850113D01*
X23880713Y-19961607D01*
X23880710Y-19961611D01*
X23793109Y-20092714D01*
X23793102Y-20092727D01*
X23732764Y-20238398D01*
X23732761Y-20238410D01*
X23702000Y-20393053D01*
X300500Y-20393053D01*
X300500Y-19179653D01*
X21741900Y-19179653D01*
X21741900Y-19337346D01*
X21772661Y-19491989D01*
X21772664Y-19492001D01*
X21833002Y-19637672D01*
X21833009Y-19637685D01*
X21920610Y-19768788D01*
X21920613Y-19768792D01*
X22032107Y-19880286D01*
X22032111Y-19880289D01*
X22163214Y-19967890D01*
X22163227Y-19967897D01*
X22308898Y-20028235D01*
X22308903Y-20028237D01*
X22463553Y-20058999D01*
X22463556Y-20059000D01*
X22463558Y-20059000D01*
X22621244Y-20059000D01*
X22621245Y-20058999D01*
X22775897Y-20028237D01*
X22921579Y-19967894D01*
X23052689Y-19880289D01*
X23164189Y-19768789D01*
X23251794Y-19637679D01*
X23312137Y-19491997D01*
X23342900Y-19337342D01*
X23342900Y-19179658D01*
X23342900Y-19179655D01*
X23342899Y-19179653D01*
X23312138Y-19025010D01*
X23312137Y-19025003D01*
X23265413Y-18912200D01*
X23251797Y-18879327D01*
X23251790Y-18879314D01*
X23164189Y-18748211D01*
X23164186Y-18748207D01*
X23052692Y-18636713D01*
X23052688Y-18636710D01*
X22921585Y-18549109D01*
X22921572Y-18549102D01*
X22775901Y-18488764D01*
X22775889Y-18488761D01*
X22621245Y-18458000D01*
X22621242Y-18458000D01*
X22463558Y-18458000D01*
X22463555Y-18458000D01*
X22308910Y-18488761D01*
X22308898Y-18488764D01*
X22163227Y-18549102D01*
X22163214Y-18549109D01*
X22032111Y-18636710D01*
X22032107Y-18636713D01*
X21920613Y-18748207D01*
X21920610Y-18748211D01*
X21833009Y-18879314D01*
X21833002Y-18879327D01*
X21772664Y-19024998D01*
X21772661Y-19025010D01*
X21741900Y-19179653D01*
X300500Y-19179653D01*
X300500Y-18032853D01*
X17240600Y-18032853D01*
X17240600Y-18190546D01*
X17271361Y-18345189D01*
X17271364Y-18345201D01*
X17331702Y-18490872D01*
X17331709Y-18490885D01*
X17419310Y-18621988D01*
X17419313Y-18621992D01*
X17530807Y-18733486D01*
X17530811Y-18733489D01*
X17661914Y-18821090D01*
X17661927Y-18821097D01*
X17802494Y-18879321D01*
X17807603Y-18881437D01*
X17903439Y-18900500D01*
X17962253Y-18912199D01*
X17962256Y-18912200D01*
X17962258Y-18912200D01*
X18119944Y-18912200D01*
X18119945Y-18912199D01*
X18274597Y-18881437D01*
X18420279Y-18821094D01*
X18551389Y-18733489D01*
X18662889Y-18621989D01*
X18750494Y-18490879D01*
X18751371Y-18488763D01*
X18764167Y-18457866D01*
X18810837Y-18345197D01*
X18841600Y-18190542D01*
X18841600Y-18032858D01*
X18841600Y-18032855D01*
X18841599Y-18032853D01*
X18839272Y-18021153D01*
X18810837Y-17878203D01*
X18803046Y-17859394D01*
X18750497Y-17732527D01*
X18750490Y-17732514D01*
X18662889Y-17601411D01*
X18662886Y-17601407D01*
X18551392Y-17489913D01*
X18551388Y-17489910D01*
X18420285Y-17402309D01*
X18420272Y-17402302D01*
X18274601Y-17341964D01*
X18274589Y-17341961D01*
X18119945Y-17311200D01*
X18119942Y-17311200D01*
X17962258Y-17311200D01*
X17962255Y-17311200D01*
X17807610Y-17341961D01*
X17807598Y-17341964D01*
X17661927Y-17402302D01*
X17661914Y-17402309D01*
X17530811Y-17489910D01*
X17530807Y-17489913D01*
X17419313Y-17601407D01*
X17419310Y-17601411D01*
X17331709Y-17732514D01*
X17331702Y-17732527D01*
X17271364Y-17878198D01*
X17271361Y-17878210D01*
X17240600Y-18032853D01*
X300500Y-18032853D01*
X300500Y-16637853D01*
X21240000Y-16637853D01*
X21240000Y-16795546D01*
X21270761Y-16950189D01*
X21270764Y-16950201D01*
X21331102Y-17095872D01*
X21331109Y-17095885D01*
X21418710Y-17226988D01*
X21418713Y-17226992D01*
X21530207Y-17338486D01*
X21530211Y-17338489D01*
X21661314Y-17426090D01*
X21661327Y-17426097D01*
X21787148Y-17478213D01*
X21807003Y-17486437D01*
X21961653Y-17517199D01*
X21961656Y-17517200D01*
X21961658Y-17517200D01*
X22119344Y-17517200D01*
X22119345Y-17517199D01*
X22273997Y-17486437D01*
X22419679Y-17426094D01*
X22436439Y-17414895D01*
X22503113Y-17394016D01*
X22570494Y-17412499D01*
X22574221Y-17414894D01*
X22640814Y-17459390D01*
X22640827Y-17459397D01*
X22780378Y-17517200D01*
X22786503Y-17519737D01*
X22941153Y-17550499D01*
X22941156Y-17550500D01*
X22941158Y-17550500D01*
X23098844Y-17550500D01*
X23098845Y-17550499D01*
X23204148Y-17529553D01*
X26189100Y-17529553D01*
X26189100Y-17687246D01*
X26219861Y-17841889D01*
X26219864Y-17841901D01*
X26280202Y-17987572D01*
X26280209Y-17987585D01*
X26367810Y-18118688D01*
X26367813Y-18118692D01*
X26479307Y-18230186D01*
X26479311Y-18230189D01*
X26610414Y-18317790D01*
X26610427Y-18317797D01*
X26756098Y-18378135D01*
X26756103Y-18378137D01*
X26910753Y-18408899D01*
X26910756Y-18408900D01*
X26910758Y-18408900D01*
X27068444Y-18408900D01*
X27068445Y-18408899D01*
X27223097Y-18378137D01*
X27368779Y-18317794D01*
X27499889Y-18230189D01*
X27611389Y-18118689D01*
X27698994Y-17987579D01*
X27759337Y-17841897D01*
X27790100Y-17687242D01*
X27790100Y-17529558D01*
X27790100Y-17529555D01*
X27790099Y-17529553D01*
X30560600Y-17529553D01*
X30560600Y-17687246D01*
X30591361Y-17841889D01*
X30591364Y-17841901D01*
X30651702Y-17987572D01*
X30651709Y-17987585D01*
X30739310Y-18118688D01*
X30739313Y-18118692D01*
X30850807Y-18230186D01*
X30850811Y-18230189D01*
X30981914Y-18317790D01*
X30981927Y-18317797D01*
X31127598Y-18378135D01*
X31127603Y-18378137D01*
X31282253Y-18408899D01*
X31282256Y-18408900D01*
X31282258Y-18408900D01*
X31439944Y-18408900D01*
X31439945Y-18408899D01*
X31594597Y-18378137D01*
X31740279Y-18317794D01*
X31871389Y-18230189D01*
X31982889Y-18118689D01*
X32048061Y-18021153D01*
X41449500Y-18021153D01*
X41449500Y-18178846D01*
X41480261Y-18333489D01*
X41480264Y-18333501D01*
X41540602Y-18479172D01*
X41540609Y-18479185D01*
X41628210Y-18610288D01*
X41628213Y-18610292D01*
X41739707Y-18721786D01*
X41739711Y-18721789D01*
X41870814Y-18809390D01*
X41870827Y-18809397D01*
X42016498Y-18869735D01*
X42016503Y-18869737D01*
X42171153Y-18900499D01*
X42171156Y-18900500D01*
X42171158Y-18900500D01*
X42328844Y-18900500D01*
X42328845Y-18900499D01*
X42483497Y-18869737D01*
X42600925Y-18821097D01*
X42629172Y-18809397D01*
X42629172Y-18809396D01*
X42629179Y-18809394D01*
X42760289Y-18721789D01*
X42871789Y-18610289D01*
X42959394Y-18479179D01*
X43019737Y-18333497D01*
X43050500Y-18178842D01*
X43050500Y-18021158D01*
X43050500Y-18021155D01*
X43050499Y-18021153D01*
X43030326Y-17919736D01*
X43019737Y-17866503D01*
X43009542Y-17841889D01*
X42959397Y-17720827D01*
X42959390Y-17720814D01*
X42871789Y-17589711D01*
X42871786Y-17589707D01*
X42760292Y-17478213D01*
X42760288Y-17478210D01*
X42629185Y-17390609D01*
X42629172Y-17390602D01*
X42483501Y-17330264D01*
X42483489Y-17330261D01*
X42328845Y-17299500D01*
X42328842Y-17299500D01*
X42171158Y-17299500D01*
X42171155Y-17299500D01*
X42016510Y-17330261D01*
X42016498Y-17330264D01*
X41870827Y-17390602D01*
X41870814Y-17390609D01*
X41739711Y-17478210D01*
X41739707Y-17478213D01*
X41628213Y-17589707D01*
X41628210Y-17589711D01*
X41540609Y-17720814D01*
X41540602Y-17720827D01*
X41480264Y-17866498D01*
X41480261Y-17866510D01*
X41449500Y-18021153D01*
X32048061Y-18021153D01*
X32070494Y-17987579D01*
X32130837Y-17841897D01*
X32161600Y-17687242D01*
X32161600Y-17529558D01*
X32161600Y-17529555D01*
X32161599Y-17529553D01*
X32147643Y-17459394D01*
X32130837Y-17374903D01*
X32104451Y-17311200D01*
X32070497Y-17229227D01*
X32070490Y-17229214D01*
X32006841Y-17133957D01*
X31982889Y-17098111D01*
X31982886Y-17098107D01*
X31955932Y-17071153D01*
X39649500Y-17071153D01*
X39649500Y-17228846D01*
X39680261Y-17383489D01*
X39680264Y-17383501D01*
X39740602Y-17529172D01*
X39740609Y-17529185D01*
X39828210Y-17660288D01*
X39828213Y-17660292D01*
X39939707Y-17771786D01*
X39939711Y-17771789D01*
X40070814Y-17859390D01*
X40070827Y-17859397D01*
X40170070Y-17900504D01*
X40216503Y-17919737D01*
X40371153Y-17950499D01*
X40371156Y-17950500D01*
X40371158Y-17950500D01*
X40528844Y-17950500D01*
X40528845Y-17950499D01*
X40683497Y-17919737D01*
X40829179Y-17859394D01*
X40960289Y-17771789D01*
X41071789Y-17660289D01*
X41159394Y-17529179D01*
X41219737Y-17383497D01*
X41250500Y-17228842D01*
X41250500Y-17071158D01*
X41250500Y-17071155D01*
X41250499Y-17071153D01*
X41226439Y-16950197D01*
X41219737Y-16916503D01*
X41212488Y-16899002D01*
X41159397Y-16770827D01*
X41159390Y-16770814D01*
X41071789Y-16639711D01*
X41071786Y-16639707D01*
X40960292Y-16528213D01*
X40960288Y-16528210D01*
X40829185Y-16440609D01*
X40829172Y-16440602D01*
X40683501Y-16380264D01*
X40683489Y-16380261D01*
X40528845Y-16349500D01*
X40528842Y-16349500D01*
X40371158Y-16349500D01*
X40371155Y-16349500D01*
X40216510Y-16380261D01*
X40216498Y-16380264D01*
X40070827Y-16440602D01*
X40070814Y-16440609D01*
X39939711Y-16528210D01*
X39939707Y-16528213D01*
X39828213Y-16639707D01*
X39828210Y-16639711D01*
X39740609Y-16770814D01*
X39740602Y-16770827D01*
X39680264Y-16916498D01*
X39680261Y-16916510D01*
X39649500Y-17071153D01*
X31955932Y-17071153D01*
X31871392Y-16986613D01*
X31871388Y-16986610D01*
X31740285Y-16899009D01*
X31740272Y-16899002D01*
X31594601Y-16838664D01*
X31594589Y-16838661D01*
X31439945Y-16807900D01*
X31439942Y-16807900D01*
X31282258Y-16807900D01*
X31282255Y-16807900D01*
X31127610Y-16838661D01*
X31127598Y-16838664D01*
X30981927Y-16899002D01*
X30981914Y-16899009D01*
X30850811Y-16986610D01*
X30850807Y-16986613D01*
X30739313Y-17098107D01*
X30739310Y-17098111D01*
X30651709Y-17229214D01*
X30651702Y-17229227D01*
X30591364Y-17374898D01*
X30591361Y-17374910D01*
X30560600Y-17529553D01*
X27790099Y-17529553D01*
X27776143Y-17459394D01*
X27759337Y-17374903D01*
X27732951Y-17311200D01*
X27698997Y-17229227D01*
X27698990Y-17229214D01*
X27611389Y-17098111D01*
X27611386Y-17098107D01*
X27499892Y-16986613D01*
X27499888Y-16986610D01*
X27368785Y-16899009D01*
X27368772Y-16899002D01*
X27223101Y-16838664D01*
X27223089Y-16838661D01*
X27068445Y-16807900D01*
X27068442Y-16807900D01*
X26910758Y-16807900D01*
X26910755Y-16807900D01*
X26756110Y-16838661D01*
X26756098Y-16838664D01*
X26610427Y-16899002D01*
X26610414Y-16899009D01*
X26479311Y-16986610D01*
X26479307Y-16986613D01*
X26367813Y-17098107D01*
X26367810Y-17098111D01*
X26280209Y-17229214D01*
X26280202Y-17229227D01*
X26219864Y-17374898D01*
X26219861Y-17374910D01*
X26189100Y-17529553D01*
X23204148Y-17529553D01*
X23253497Y-17519737D01*
X23399179Y-17459394D01*
X23399185Y-17459390D01*
X23457592Y-17420364D01*
X23502133Y-17390602D01*
X23530289Y-17371789D01*
X23641789Y-17260289D01*
X23729394Y-17129179D01*
X23789737Y-16983497D01*
X23820500Y-16828842D01*
X23820500Y-16671158D01*
X23820500Y-16671155D01*
X23820499Y-16671153D01*
X23792066Y-16528211D01*
X23789737Y-16516503D01*
X23758298Y-16440602D01*
X23729397Y-16370827D01*
X23729390Y-16370814D01*
X23641789Y-16239711D01*
X23641786Y-16239707D01*
X23530292Y-16128213D01*
X23530288Y-16128210D01*
X23399185Y-16040609D01*
X23399178Y-16040605D01*
X23385862Y-16035090D01*
X23379779Y-16032570D01*
X23325376Y-15988730D01*
X23303310Y-15922436D01*
X23320588Y-15854737D01*
X23339552Y-15830326D01*
X23360289Y-15809589D01*
X23447894Y-15678479D01*
X23456093Y-15658686D01*
X23502274Y-15547192D01*
X23508237Y-15532797D01*
X23539000Y-15378142D01*
X23539000Y-15220458D01*
X23539000Y-15220455D01*
X23538999Y-15220453D01*
X23508237Y-15065803D01*
X23463606Y-14958053D01*
X38569000Y-14958053D01*
X38569000Y-15115746D01*
X38599761Y-15270389D01*
X38599764Y-15270401D01*
X38660102Y-15416072D01*
X38660109Y-15416085D01*
X38747710Y-15547188D01*
X38747713Y-15547192D01*
X38859207Y-15658686D01*
X38859211Y-15658689D01*
X38990314Y-15746290D01*
X38990327Y-15746297D01*
X39135998Y-15806635D01*
X39136003Y-15806637D01*
X39255095Y-15830326D01*
X39290653Y-15837399D01*
X39290656Y-15837400D01*
X39290658Y-15837400D01*
X39448344Y-15837400D01*
X39448345Y-15837399D01*
X39602997Y-15806637D01*
X39748679Y-15746294D01*
X39879789Y-15658689D01*
X39991289Y-15547189D01*
X40078894Y-15416079D01*
X40139237Y-15270397D01*
X40170000Y-15115742D01*
X40170000Y-14958058D01*
X40170000Y-14958055D01*
X40169999Y-14958053D01*
X40162452Y-14920114D01*
X40139237Y-14803403D01*
X40133274Y-14789007D01*
X40078897Y-14657727D01*
X40078890Y-14657714D01*
X39991289Y-14526611D01*
X39991286Y-14526607D01*
X39879792Y-14415113D01*
X39879788Y-14415110D01*
X39748685Y-14327509D01*
X39748672Y-14327502D01*
X39603001Y-14267164D01*
X39602989Y-14267161D01*
X39448345Y-14236400D01*
X39448342Y-14236400D01*
X39290658Y-14236400D01*
X39290655Y-14236400D01*
X39136010Y-14267161D01*
X39135998Y-14267164D01*
X38990327Y-14327502D01*
X38990314Y-14327509D01*
X38859211Y-14415110D01*
X38859207Y-14415113D01*
X38747713Y-14526607D01*
X38747710Y-14526611D01*
X38660109Y-14657714D01*
X38660102Y-14657727D01*
X38599764Y-14803398D01*
X38599761Y-14803410D01*
X38569000Y-14958053D01*
X23463606Y-14958053D01*
X23447897Y-14920127D01*
X23447890Y-14920114D01*
X23360289Y-14789011D01*
X23360286Y-14789007D01*
X23248792Y-14677513D01*
X23248788Y-14677510D01*
X23117685Y-14589909D01*
X23117672Y-14589902D01*
X22972001Y-14529564D01*
X22971989Y-14529561D01*
X22817345Y-14498800D01*
X22817342Y-14498800D01*
X22659658Y-14498800D01*
X22659655Y-14498800D01*
X22505010Y-14529561D01*
X22504998Y-14529564D01*
X22359327Y-14589902D01*
X22359314Y-14589909D01*
X22228211Y-14677510D01*
X22228207Y-14677513D01*
X22116713Y-14789007D01*
X22116710Y-14789011D01*
X22029109Y-14920114D01*
X22029102Y-14920127D01*
X21968764Y-15065798D01*
X21968761Y-15065810D01*
X21938000Y-15220453D01*
X21938000Y-15378146D01*
X21968761Y-15532789D01*
X21968764Y-15532801D01*
X22029102Y-15678472D01*
X22029109Y-15678485D01*
X22059060Y-15723309D01*
X22079938Y-15789986D01*
X22061454Y-15857367D01*
X22009475Y-15904057D01*
X21967518Y-15913576D01*
X21967718Y-15915603D01*
X21961653Y-15916200D01*
X21807010Y-15946961D01*
X21806998Y-15946964D01*
X21661327Y-16007302D01*
X21661314Y-16007309D01*
X21530211Y-16094910D01*
X21530207Y-16094913D01*
X21418713Y-16206407D01*
X21418710Y-16206411D01*
X21331109Y-16337514D01*
X21331102Y-16337527D01*
X21270764Y-16483198D01*
X21270761Y-16483210D01*
X21240000Y-16637853D01*
X300500Y-16637853D01*
X300500Y-15206153D01*
X17247000Y-15206153D01*
X17247000Y-15363846D01*
X17277761Y-15518489D01*
X17277764Y-15518501D01*
X17338102Y-15664172D01*
X17338109Y-15664185D01*
X17425710Y-15795288D01*
X17425713Y-15795292D01*
X17537207Y-15906786D01*
X17537211Y-15906789D01*
X17668314Y-15994390D01*
X17668327Y-15994397D01*
X17813998Y-16054735D01*
X17814003Y-16054737D01*
X17957764Y-16083333D01*
X17968653Y-16085499D01*
X17968656Y-16085500D01*
X17968658Y-16085500D01*
X18126344Y-16085500D01*
X18126345Y-16085499D01*
X18280997Y-16054737D01*
X18426679Y-15994394D01*
X18557789Y-15906789D01*
X18669289Y-15795289D01*
X18756894Y-15664179D01*
X18817237Y-15518497D01*
X18848000Y-15363842D01*
X18848000Y-15206158D01*
X18848000Y-15206155D01*
X18847999Y-15206153D01*
X18817238Y-15051510D01*
X18817237Y-15051503D01*
X18762820Y-14920127D01*
X18756897Y-14905827D01*
X18756890Y-14905814D01*
X18669289Y-14774711D01*
X18669286Y-14774707D01*
X18557792Y-14663213D01*
X18557788Y-14663210D01*
X18426685Y-14575609D01*
X18426672Y-14575602D01*
X18281001Y-14515264D01*
X18280989Y-14515261D01*
X18126345Y-14484500D01*
X18126342Y-14484500D01*
X17968658Y-14484500D01*
X17968655Y-14484500D01*
X17814010Y-14515261D01*
X17813998Y-14515264D01*
X17668327Y-14575602D01*
X17668314Y-14575609D01*
X17537211Y-14663210D01*
X17537207Y-14663213D01*
X17425713Y-14774707D01*
X17425710Y-14774711D01*
X17338109Y-14905814D01*
X17338102Y-14905827D01*
X17277764Y-15051498D01*
X17277761Y-15051510D01*
X17247000Y-15206153D01*
X300500Y-15206153D01*
X300500Y-13551853D01*
X5365200Y-13551853D01*
X5365200Y-13709546D01*
X5395961Y-13864189D01*
X5395964Y-13864201D01*
X5456302Y-14009872D01*
X5456309Y-14009885D01*
X5543910Y-14140988D01*
X5543913Y-14140992D01*
X5655407Y-14252486D01*
X5655411Y-14252489D01*
X5786514Y-14340090D01*
X5786527Y-14340097D01*
X5932198Y-14400435D01*
X5932203Y-14400437D01*
X6086853Y-14431199D01*
X6086856Y-14431200D01*
X6086858Y-14431200D01*
X6244544Y-14431200D01*
X6244545Y-14431199D01*
X6399197Y-14400437D01*
X6544879Y-14340094D01*
X6675989Y-14252489D01*
X6787489Y-14140989D01*
X6875094Y-14009879D01*
X6878996Y-14000460D01*
X6911845Y-13921153D01*
X6935437Y-13864197D01*
X6966200Y-13709542D01*
X6966200Y-13551858D01*
X6966200Y-13551855D01*
X6966199Y-13551853D01*
X6935439Y-13397213D01*
X6935438Y-13397210D01*
X6935437Y-13397203D01*
X6927795Y-13378753D01*
X9785400Y-13378753D01*
X9785400Y-13536446D01*
X9816161Y-13691089D01*
X9816164Y-13691101D01*
X9876502Y-13836772D01*
X9876509Y-13836785D01*
X9964110Y-13967888D01*
X9964113Y-13967892D01*
X10075607Y-14079386D01*
X10075611Y-14079389D01*
X10206714Y-14166990D01*
X10206727Y-14166997D01*
X10346121Y-14224735D01*
X10352403Y-14227337D01*
X10478835Y-14252486D01*
X10507053Y-14258099D01*
X10507056Y-14258100D01*
X10507058Y-14258100D01*
X10664744Y-14258100D01*
X10664745Y-14258099D01*
X10819397Y-14227337D01*
X10948421Y-14173894D01*
X10965072Y-14166997D01*
X10965072Y-14166996D01*
X10965079Y-14166994D01*
X10965084Y-14166990D01*
X10965087Y-14166989D01*
X11019696Y-14130500D01*
X11043895Y-14114330D01*
X11110571Y-14093452D01*
X11177952Y-14111936D01*
X11181677Y-14114330D01*
X11270814Y-14173890D01*
X11270827Y-14173897D01*
X11393570Y-14224738D01*
X11416503Y-14234237D01*
X11523394Y-14255499D01*
X11571153Y-14264999D01*
X11571156Y-14265000D01*
X11571158Y-14265000D01*
X11728844Y-14265000D01*
X11728845Y-14264999D01*
X11883497Y-14234237D01*
X12029179Y-14173894D01*
X12160289Y-14086289D01*
X12246119Y-14000458D01*
X12307440Y-13966974D01*
X12377131Y-13971958D01*
X12421480Y-14000459D01*
X12497807Y-14076786D01*
X12497811Y-14076789D01*
X12628914Y-14164390D01*
X12628927Y-14164397D01*
X12774598Y-14224735D01*
X12774603Y-14224737D01*
X12914106Y-14252486D01*
X12929253Y-14255499D01*
X12929256Y-14255500D01*
X12929258Y-14255500D01*
X13086944Y-14255500D01*
X13086945Y-14255499D01*
X13241597Y-14224737D01*
X13364344Y-14173894D01*
X13387272Y-14164397D01*
X13387272Y-14164396D01*
X13387279Y-14164394D01*
X13518389Y-14076789D01*
X13629889Y-13965289D01*
X13717494Y-13834179D01*
X13777837Y-13688497D01*
X13808600Y-13533842D01*
X13808600Y-13382353D01*
X16671700Y-13382353D01*
X16671700Y-13540046D01*
X16702461Y-13694689D01*
X16702464Y-13694701D01*
X16762802Y-13840372D01*
X16762809Y-13840385D01*
X16850410Y-13971488D01*
X16850413Y-13971492D01*
X16961907Y-14082986D01*
X16961911Y-14082989D01*
X17093014Y-14170590D01*
X17093027Y-14170597D01*
X17223737Y-14224738D01*
X17238703Y-14230937D01*
X17362184Y-14255499D01*
X17393353Y-14261699D01*
X17393356Y-14261700D01*
X17393358Y-14261700D01*
X17551044Y-14261700D01*
X17551045Y-14261699D01*
X17705697Y-14230937D01*
X17851379Y-14170594D01*
X17982489Y-14082989D01*
X18093989Y-13971489D01*
X18181594Y-13840379D01*
X18238132Y-13703880D01*
X18281972Y-13649478D01*
X18348266Y-13627413D01*
X18415966Y-13644692D01*
X18440374Y-13663653D01*
X18495107Y-13718386D01*
X18495111Y-13718389D01*
X18626214Y-13805990D01*
X18626227Y-13805997D01*
X18766746Y-13864201D01*
X18771903Y-13866337D01*
X18862415Y-13884341D01*
X18926553Y-13897099D01*
X18926556Y-13897100D01*
X18926558Y-13897100D01*
X19084244Y-13897100D01*
X19084245Y-13897099D01*
X19238897Y-13866337D01*
X19370166Y-13811964D01*
X19384572Y-13805997D01*
X19384572Y-13805996D01*
X19384579Y-13805994D01*
X19515689Y-13718389D01*
X19627189Y-13606889D01*
X19714794Y-13475779D01*
X19775137Y-13330097D01*
X19805900Y-13175442D01*
X19805900Y-13017758D01*
X19805900Y-13017755D01*
X19805899Y-13017753D01*
X19804140Y-13008910D01*
X19775137Y-12863103D01*
X19774250Y-12860961D01*
X19714797Y-12717427D01*
X19714790Y-12717414D01*
X19627189Y-12586311D01*
X19627186Y-12586307D01*
X19515692Y-12474813D01*
X19515688Y-12474810D01*
X19384585Y-12387209D01*
X19384572Y-12387202D01*
X19238901Y-12326864D01*
X19238889Y-12326861D01*
X19084245Y-12296100D01*
X19084242Y-12296100D01*
X18926558Y-12296100D01*
X18926555Y-12296100D01*
X18771910Y-12326861D01*
X18771898Y-12326864D01*
X18626227Y-12387202D01*
X18626214Y-12387209D01*
X18495111Y-12474810D01*
X18495107Y-12474813D01*
X18383613Y-12586307D01*
X18383610Y-12586311D01*
X18296009Y-12717414D01*
X18296004Y-12717423D01*
X18239467Y-12853918D01*
X18195626Y-12908321D01*
X18129332Y-12930386D01*
X18061633Y-12913107D01*
X18037225Y-12894146D01*
X17982492Y-12839413D01*
X17982488Y-12839410D01*
X17851385Y-12751809D01*
X17851372Y-12751802D01*
X17705701Y-12691464D01*
X17705689Y-12691461D01*
X17551045Y-12660700D01*
X17551042Y-12660700D01*
X17393358Y-12660700D01*
X17393355Y-12660700D01*
X17238710Y-12691461D01*
X17238698Y-12691464D01*
X17093027Y-12751802D01*
X17093014Y-12751809D01*
X16961911Y-12839410D01*
X16961907Y-12839413D01*
X16850413Y-12950907D01*
X16850410Y-12950911D01*
X16762809Y-13082014D01*
X16762802Y-13082027D01*
X16702464Y-13227698D01*
X16702461Y-13227710D01*
X16671700Y-13382353D01*
X13808600Y-13382353D01*
X13808600Y-13376158D01*
X13808600Y-13376155D01*
X13808599Y-13376153D01*
X13803752Y-13351786D01*
X13777837Y-13221503D01*
X13731314Y-13109185D01*
X13717497Y-13075827D01*
X13717490Y-13075814D01*
X13629889Y-12944711D01*
X13629886Y-12944707D01*
X13518392Y-12833213D01*
X13518388Y-12833210D01*
X13387285Y-12745609D01*
X13387272Y-12745602D01*
X13241601Y-12685264D01*
X13241589Y-12685261D01*
X13086945Y-12654500D01*
X13086942Y-12654500D01*
X12929258Y-12654500D01*
X12929255Y-12654500D01*
X12774610Y-12685261D01*
X12774598Y-12685264D01*
X12628927Y-12745602D01*
X12628914Y-12745609D01*
X12497811Y-12833210D01*
X12497807Y-12833213D01*
X12411981Y-12919040D01*
X12350658Y-12952525D01*
X12280966Y-12947541D01*
X12236619Y-12919040D01*
X12160292Y-12842713D01*
X12160288Y-12842710D01*
X12029185Y-12755109D01*
X12029172Y-12755102D01*
X11883501Y-12694764D01*
X11883489Y-12694761D01*
X11728845Y-12664000D01*
X11728842Y-12664000D01*
X11571158Y-12664000D01*
X11571155Y-12664000D01*
X11416510Y-12694761D01*
X11416498Y-12694764D01*
X11270827Y-12755102D01*
X11270814Y-12755109D01*
X11192004Y-12807769D01*
X11125326Y-12828647D01*
X11057946Y-12810162D01*
X11054222Y-12807769D01*
X10965085Y-12748209D01*
X10965072Y-12748202D01*
X10819401Y-12687864D01*
X10819389Y-12687861D01*
X10664745Y-12657100D01*
X10664742Y-12657100D01*
X10507058Y-12657100D01*
X10507055Y-12657100D01*
X10352410Y-12687861D01*
X10352398Y-12687864D01*
X10206727Y-12748202D01*
X10206714Y-12748209D01*
X10075611Y-12835810D01*
X10075607Y-12835813D01*
X9964113Y-12947307D01*
X9964110Y-12947311D01*
X9876509Y-13078414D01*
X9876502Y-13078427D01*
X9816164Y-13224098D01*
X9816161Y-13224110D01*
X9785400Y-13378753D01*
X6927795Y-13378753D01*
X6926718Y-13376153D01*
X6875097Y-13251527D01*
X6875090Y-13251514D01*
X6787489Y-13120411D01*
X6787486Y-13120407D01*
X6675992Y-13008913D01*
X6675988Y-13008910D01*
X6544885Y-12921309D01*
X6544872Y-12921302D01*
X6399201Y-12860964D01*
X6399189Y-12860961D01*
X6244545Y-12830200D01*
X6244542Y-12830200D01*
X6086858Y-12830200D01*
X6086855Y-12830200D01*
X5932210Y-12860961D01*
X5932198Y-12860964D01*
X5786527Y-12921302D01*
X5786514Y-12921309D01*
X5655411Y-13008910D01*
X5655407Y-13008913D01*
X5543913Y-13120407D01*
X5543910Y-13120411D01*
X5456309Y-13251514D01*
X5456302Y-13251527D01*
X5395964Y-13397198D01*
X5395961Y-13397210D01*
X5365200Y-13551853D01*
X300500Y-13551853D01*
X300500Y-10967553D01*
X1959500Y-10967553D01*
X1959500Y-11125246D01*
X1990261Y-11279889D01*
X1990264Y-11279901D01*
X2050602Y-11425572D01*
X2050609Y-11425585D01*
X2138210Y-11556688D01*
X2138213Y-11556692D01*
X2249707Y-11668186D01*
X2249711Y-11668189D01*
X2380814Y-11755790D01*
X2380827Y-11755797D01*
X2526498Y-11816135D01*
X2526503Y-11816137D01*
X2644821Y-11839672D01*
X2681153Y-11846899D01*
X2681156Y-11846900D01*
X2681158Y-11846900D01*
X2838844Y-11846900D01*
X2838845Y-11846899D01*
X2993497Y-11816137D01*
X3139179Y-11755794D01*
X3270289Y-11668189D01*
X3281092Y-11657386D01*
X3312719Y-11625760D01*
X3374042Y-11592275D01*
X3443734Y-11597259D01*
X3488081Y-11625760D01*
X3519707Y-11657386D01*
X3519711Y-11657389D01*
X3650814Y-11744990D01*
X3650827Y-11744997D01*
X3796498Y-11805335D01*
X3796503Y-11805337D01*
X3951153Y-11836099D01*
X3951156Y-11836100D01*
X3951158Y-11836100D01*
X4108844Y-11836100D01*
X4108845Y-11836099D01*
X4263497Y-11805337D01*
X4409179Y-11744994D01*
X4540289Y-11657389D01*
X4651789Y-11545889D01*
X4739394Y-11414779D01*
X4799737Y-11269097D01*
X4830500Y-11114442D01*
X4830500Y-10956758D01*
X4830500Y-10956755D01*
X4830499Y-10956753D01*
X4826581Y-10937058D01*
X4799737Y-10802103D01*
X4794973Y-10790602D01*
X4739397Y-10656427D01*
X4739390Y-10656414D01*
X4651789Y-10525311D01*
X4651786Y-10525307D01*
X4540292Y-10413813D01*
X4540288Y-10413810D01*
X4409185Y-10326209D01*
X4409172Y-10326202D01*
X4263501Y-10265864D01*
X4263489Y-10265861D01*
X4108845Y-10235100D01*
X4108842Y-10235100D01*
X3951158Y-10235100D01*
X3951155Y-10235100D01*
X3796510Y-10265861D01*
X3796498Y-10265864D01*
X3650827Y-10326202D01*
X3650814Y-10326209D01*
X3519711Y-10413810D01*
X3519706Y-10413814D01*
X3477279Y-10456241D01*
X3415956Y-10489725D01*
X3346264Y-10484740D01*
X3301917Y-10456239D01*
X3270292Y-10424613D01*
X3270288Y-10424610D01*
X3139185Y-10337009D01*
X3139172Y-10337002D01*
X2993501Y-10276664D01*
X2993489Y-10276661D01*
X2838845Y-10245900D01*
X2838842Y-10245900D01*
X2681158Y-10245900D01*
X2681155Y-10245900D01*
X2526510Y-10276661D01*
X2526498Y-10276664D01*
X2380827Y-10337002D01*
X2380814Y-10337009D01*
X2249711Y-10424610D01*
X2249707Y-10424613D01*
X2138213Y-10536107D01*
X2138210Y-10536111D01*
X2050609Y-10667214D01*
X2050602Y-10667227D01*
X1990264Y-10812898D01*
X1990261Y-10812910D01*
X1959500Y-10967553D01*
X300500Y-10967553D01*
X300500Y-8901153D01*
X11939500Y-8901153D01*
X11939500Y-9058846D01*
X11970261Y-9213489D01*
X11970264Y-9213501D01*
X12030602Y-9359172D01*
X12030609Y-9359185D01*
X12118210Y-9490288D01*
X12118213Y-9490292D01*
X12229707Y-9601786D01*
X12229711Y-9601789D01*
X12360814Y-9689390D01*
X12360827Y-9689397D01*
X12506498Y-9749735D01*
X12506503Y-9749737D01*
X12609719Y-9770268D01*
X12661153Y-9780499D01*
X12661156Y-9780500D01*
X12661158Y-9780500D01*
X12818844Y-9780500D01*
X12818845Y-9780499D01*
X12839688Y-9776353D01*
X14352500Y-9776353D01*
X14352500Y-9934046D01*
X14383261Y-10088689D01*
X14383264Y-10088701D01*
X14443602Y-10234372D01*
X14443609Y-10234385D01*
X14531210Y-10365488D01*
X14531213Y-10365492D01*
X14642707Y-10476986D01*
X14642711Y-10476989D01*
X14773814Y-10564590D01*
X14773827Y-10564597D01*
X14858133Y-10599517D01*
X14919503Y-10624937D01*
X15055723Y-10652033D01*
X15074153Y-10655699D01*
X15074156Y-10655700D01*
X15074158Y-10655700D01*
X15231842Y-10655700D01*
X15265317Y-10649041D01*
X15334905Y-10655267D01*
X15390084Y-10698129D01*
X15411125Y-10746466D01*
X15431061Y-10846691D01*
X15431064Y-10846701D01*
X15491402Y-10992372D01*
X15491409Y-10992385D01*
X15579010Y-11123488D01*
X15579013Y-11123492D01*
X15690507Y-11234986D01*
X15690511Y-11234989D01*
X15821614Y-11322590D01*
X15821627Y-11322597D01*
X15964203Y-11381653D01*
X15967303Y-11382937D01*
X16121953Y-11413699D01*
X16121956Y-11413700D01*
X16121958Y-11413700D01*
X16279644Y-11413700D01*
X16279645Y-11413699D01*
X16434297Y-11382937D01*
X16546966Y-11336267D01*
X16579972Y-11322597D01*
X16579972Y-11322596D01*
X16579979Y-11322594D01*
X16711089Y-11234989D01*
X16822589Y-11123489D01*
X16910194Y-10992379D01*
X16970537Y-10846697D01*
X17001300Y-10692042D01*
X17001300Y-10534358D01*
X16991430Y-10484740D01*
X16978782Y-10421153D01*
X17239500Y-10421153D01*
X17239500Y-10421158D01*
X17239500Y-10578842D01*
X17248586Y-10624522D01*
X17248587Y-10624531D01*
X17270261Y-10733489D01*
X17270264Y-10733501D01*
X17330602Y-10879172D01*
X17330609Y-10879185D01*
X17418210Y-11010288D01*
X17418213Y-11010292D01*
X17529707Y-11121786D01*
X17529711Y-11121789D01*
X17660814Y-11209390D01*
X17660827Y-11209397D01*
X17806498Y-11269735D01*
X17806503Y-11269737D01*
X17897739Y-11287885D01*
X17961153Y-11300499D01*
X17961156Y-11300500D01*
X17961158Y-11300500D01*
X18118844Y-11300500D01*
X18118845Y-11300499D01*
X18273497Y-11269737D01*
X18419179Y-11209394D01*
X18478955Y-11169453D01*
X19980700Y-11169453D01*
X19980700Y-11327146D01*
X20011461Y-11481789D01*
X20011464Y-11481801D01*
X20071802Y-11627472D01*
X20071809Y-11627485D01*
X20159410Y-11758588D01*
X20159413Y-11758592D01*
X20270907Y-11870086D01*
X20270911Y-11870089D01*
X20402014Y-11957690D01*
X20402027Y-11957697D01*
X20547698Y-12018035D01*
X20547703Y-12018037D01*
X20701317Y-12048593D01*
X20702353Y-12048799D01*
X20702356Y-12048800D01*
X20702358Y-12048800D01*
X20860044Y-12048800D01*
X20860045Y-12048799D01*
X21014697Y-12018037D01*
X21128767Y-11970788D01*
X21160372Y-11957697D01*
X21160372Y-11957696D01*
X21160379Y-11957694D01*
X21289682Y-11871295D01*
X21356357Y-11850419D01*
X21423737Y-11868903D01*
X21461673Y-11905508D01*
X21513310Y-11982788D01*
X21513313Y-11982792D01*
X21579114Y-12048593D01*
X21612599Y-12109916D01*
X21607615Y-12179608D01*
X21600796Y-12194717D01*
X21599408Y-12197312D01*
X21539064Y-12342998D01*
X21539061Y-12343010D01*
X21508300Y-12497653D01*
X21508300Y-12655346D01*
X21539061Y-12809989D01*
X21539064Y-12810001D01*
X21599402Y-12955672D01*
X21599409Y-12955685D01*
X21687010Y-13086788D01*
X21687013Y-13086792D01*
X21798507Y-13198286D01*
X21798511Y-13198289D01*
X21929614Y-13285890D01*
X21929627Y-13285897D01*
X22075298Y-13346235D01*
X22075303Y-13346237D01*
X22192711Y-13369591D01*
X22229953Y-13376999D01*
X22229956Y-13377000D01*
X22229958Y-13377000D01*
X22387644Y-13377000D01*
X22456195Y-13363364D01*
X22525787Y-13369591D01*
X22580964Y-13412454D01*
X22594948Y-13437528D01*
X22645004Y-13558376D01*
X22645009Y-13558385D01*
X22732610Y-13689488D01*
X22732613Y-13689492D01*
X22844107Y-13800986D01*
X22844111Y-13800989D01*
X22975214Y-13888590D01*
X22975227Y-13888597D01*
X23120898Y-13948935D01*
X23120903Y-13948937D01*
X23216196Y-13967892D01*
X23275553Y-13979699D01*
X23275556Y-13979700D01*
X23275558Y-13979700D01*
X23433244Y-13979700D01*
X23433245Y-13979699D01*
X23587897Y-13948937D01*
X23654974Y-13921153D01*
X27148100Y-13921153D01*
X27148100Y-14078846D01*
X27178861Y-14233489D01*
X27178864Y-14233501D01*
X27239202Y-14379172D01*
X27239209Y-14379185D01*
X27326810Y-14510288D01*
X27326813Y-14510292D01*
X27438307Y-14621786D01*
X27438311Y-14621789D01*
X27569414Y-14709390D01*
X27569427Y-14709397D01*
X27715098Y-14769735D01*
X27715103Y-14769737D01*
X27869753Y-14800499D01*
X27869756Y-14800500D01*
X27869758Y-14800500D01*
X28027444Y-14800500D01*
X28027445Y-14800499D01*
X28182097Y-14769737D01*
X28327779Y-14709394D01*
X28458889Y-14621789D01*
X28570389Y-14510289D01*
X28657994Y-14379179D01*
X28718337Y-14233497D01*
X28727746Y-14186193D01*
X28760130Y-14124284D01*
X28820845Y-14089710D01*
X28825172Y-14088769D01*
X28854244Y-14082986D01*
X28966097Y-14060737D01*
X29111779Y-14000394D01*
X29242889Y-13912789D01*
X29354389Y-13801289D01*
X29441994Y-13670179D01*
X29502337Y-13524497D01*
X29533100Y-13369842D01*
X29533100Y-13212158D01*
X29533100Y-13212155D01*
X29533099Y-13212153D01*
X29512616Y-13109179D01*
X29502337Y-13057503D01*
X29502335Y-13057498D01*
X29441997Y-12911827D01*
X29441990Y-12911814D01*
X29354389Y-12780711D01*
X29354386Y-12780707D01*
X29242892Y-12669213D01*
X29242888Y-12669210D01*
X29215864Y-12651153D01*
X32699500Y-12651153D01*
X32699500Y-12808846D01*
X32730261Y-12963489D01*
X32730264Y-12963501D01*
X32790602Y-13109172D01*
X32790609Y-13109185D01*
X32878210Y-13240288D01*
X32878213Y-13240292D01*
X32989707Y-13351786D01*
X32989711Y-13351789D01*
X33120814Y-13439390D01*
X33120827Y-13439397D01*
X33208677Y-13475785D01*
X33266503Y-13499737D01*
X33421153Y-13530499D01*
X33421156Y-13530500D01*
X33421158Y-13530500D01*
X33578844Y-13530500D01*
X33578845Y-13530499D01*
X33733497Y-13499737D01*
X33879179Y-13439394D01*
X34010289Y-13351789D01*
X34110925Y-13251153D01*
X35509500Y-13251153D01*
X35509500Y-13408846D01*
X35540261Y-13563489D01*
X35540264Y-13563501D01*
X35600602Y-13709172D01*
X35600609Y-13709185D01*
X35688210Y-13840288D01*
X35688213Y-13840292D01*
X35799707Y-13951786D01*
X35799711Y-13951789D01*
X35930814Y-14039390D01*
X35930827Y-14039397D01*
X36076498Y-14099735D01*
X36076503Y-14099737D01*
X36231153Y-14130499D01*
X36231156Y-14130500D01*
X36231158Y-14130500D01*
X36388844Y-14130500D01*
X36388845Y-14130499D01*
X36543497Y-14099737D01*
X36689179Y-14039394D01*
X36820289Y-13951789D01*
X36931789Y-13840289D01*
X37019394Y-13709179D01*
X37079737Y-13563497D01*
X37110500Y-13408842D01*
X37110500Y-13251158D01*
X37110500Y-13251155D01*
X37110499Y-13251153D01*
X37102741Y-13212153D01*
X37079737Y-13096503D01*
X37073741Y-13082027D01*
X37019397Y-12950827D01*
X37019390Y-12950814D01*
X36931789Y-12819711D01*
X36931786Y-12819707D01*
X36820292Y-12708213D01*
X36820288Y-12708210D01*
X36689185Y-12620609D01*
X36689172Y-12620602D01*
X36543501Y-12560264D01*
X36543489Y-12560261D01*
X36388845Y-12529500D01*
X36388842Y-12529500D01*
X36231158Y-12529500D01*
X36231155Y-12529500D01*
X36076510Y-12560261D01*
X36076498Y-12560264D01*
X35930827Y-12620602D01*
X35930814Y-12620609D01*
X35799711Y-12708210D01*
X35799707Y-12708213D01*
X35688213Y-12819707D01*
X35688210Y-12819711D01*
X35600609Y-12950814D01*
X35600602Y-12950827D01*
X35540264Y-13096498D01*
X35540261Y-13096510D01*
X35509500Y-13251153D01*
X34110925Y-13251153D01*
X34121789Y-13240289D01*
X34165119Y-13175442D01*
X34209390Y-13109185D01*
X34209390Y-13109184D01*
X34209394Y-13109179D01*
X34269737Y-12963497D01*
X34300500Y-12808842D01*
X34300500Y-12651158D01*
X34300500Y-12651155D01*
X34300499Y-12651153D01*
X34281852Y-12557410D01*
X34269737Y-12496503D01*
X34269735Y-12496498D01*
X34209397Y-12350827D01*
X34209390Y-12350814D01*
X34121789Y-12219711D01*
X34121786Y-12219707D01*
X34010292Y-12108213D01*
X34010288Y-12108210D01*
X33879185Y-12020609D01*
X33879172Y-12020602D01*
X33733501Y-11960264D01*
X33733489Y-11960261D01*
X33578845Y-11929500D01*
X33578842Y-11929500D01*
X33421158Y-11929500D01*
X33421155Y-11929500D01*
X33266510Y-11960261D01*
X33266498Y-11960264D01*
X33120827Y-12020602D01*
X33120814Y-12020609D01*
X32989711Y-12108210D01*
X32989707Y-12108213D01*
X32878213Y-12219707D01*
X32878210Y-12219711D01*
X32790609Y-12350814D01*
X32790602Y-12350827D01*
X32730264Y-12496498D01*
X32730261Y-12496510D01*
X32699500Y-12651153D01*
X29215864Y-12651153D01*
X29111785Y-12581609D01*
X29111772Y-12581602D01*
X28966101Y-12521264D01*
X28966089Y-12521261D01*
X28811445Y-12490500D01*
X28811442Y-12490500D01*
X28653758Y-12490500D01*
X28653755Y-12490500D01*
X28499110Y-12521261D01*
X28499098Y-12521264D01*
X28353427Y-12581602D01*
X28353414Y-12581609D01*
X28222311Y-12669210D01*
X28222307Y-12669213D01*
X28110813Y-12780707D01*
X28110810Y-12780711D01*
X28023209Y-12911814D01*
X28023202Y-12911827D01*
X27962863Y-13057501D01*
X27962861Y-13057507D01*
X27953453Y-13104806D01*
X27921067Y-13166716D01*
X27860351Y-13201290D01*
X27856028Y-13202230D01*
X27715108Y-13230261D01*
X27715098Y-13230264D01*
X27569427Y-13290602D01*
X27569414Y-13290609D01*
X27438311Y-13378210D01*
X27438307Y-13378213D01*
X27326813Y-13489707D01*
X27326810Y-13489711D01*
X27239209Y-13620814D01*
X27239202Y-13620827D01*
X27178864Y-13766498D01*
X27178861Y-13766510D01*
X27148100Y-13921153D01*
X23654974Y-13921153D01*
X23733579Y-13888594D01*
X23805868Y-13840292D01*
X23848264Y-13811964D01*
X23848265Y-13811963D01*
X23864689Y-13800989D01*
X23976189Y-13689489D01*
X24063794Y-13558379D01*
X24073958Y-13533842D01*
X24098011Y-13475772D01*
X24124137Y-13412697D01*
X24154900Y-13258042D01*
X24154900Y-13100358D01*
X24154900Y-13100355D01*
X24154899Y-13100353D01*
X24154132Y-13096498D01*
X24124137Y-12945703D01*
X24123726Y-12944711D01*
X24063797Y-12800027D01*
X24063790Y-12800014D01*
X23976189Y-12668911D01*
X23976186Y-12668907D01*
X23864692Y-12557413D01*
X23864688Y-12557410D01*
X23733585Y-12469809D01*
X23733572Y-12469802D01*
X23587901Y-12409464D01*
X23587889Y-12409461D01*
X23433245Y-12378700D01*
X23433242Y-12378700D01*
X23275558Y-12378700D01*
X23207002Y-12392336D01*
X23137411Y-12386107D01*
X23082234Y-12343244D01*
X23068251Y-12318170D01*
X23018197Y-12197327D01*
X23018190Y-12197314D01*
X22930589Y-12066211D01*
X22930586Y-12066207D01*
X22864785Y-12000406D01*
X22831300Y-11939083D01*
X22836284Y-11869391D01*
X22843111Y-11854265D01*
X22844487Y-11851689D01*
X22844494Y-11851679D01*
X22904837Y-11705997D01*
X22920797Y-11625760D01*
X22936789Y-11545368D01*
X22939328Y-11545873D01*
X22961218Y-11491545D01*
X23018222Y-11451143D01*
X23088020Y-11447974D01*
X23127407Y-11465310D01*
X23133511Y-11469388D01*
X23133515Y-11469390D01*
X23133521Y-11469394D01*
X23133523Y-11469395D01*
X23133527Y-11469397D01*
X23279198Y-11529735D01*
X23279203Y-11529737D01*
X23414694Y-11556688D01*
X23433853Y-11560499D01*
X23433856Y-11560500D01*
X23433858Y-11560500D01*
X23591544Y-11560500D01*
X23591545Y-11560499D01*
X23746197Y-11529737D01*
X23891879Y-11469394D01*
X24022989Y-11381789D01*
X24023125Y-11381653D01*
X25959500Y-11381653D01*
X25959500Y-11539346D01*
X25990261Y-11693989D01*
X25990264Y-11694001D01*
X26050602Y-11839672D01*
X26050609Y-11839685D01*
X26138210Y-11970788D01*
X26138213Y-11970792D01*
X26249707Y-12082286D01*
X26249711Y-12082289D01*
X26380814Y-12169890D01*
X26380827Y-12169897D01*
X26526498Y-12230235D01*
X26526503Y-12230237D01*
X26681153Y-12260999D01*
X26681156Y-12261000D01*
X26681158Y-12261000D01*
X26838844Y-12261000D01*
X26838845Y-12260999D01*
X26993497Y-12230237D01*
X27139179Y-12169894D01*
X27270289Y-12082289D01*
X27381789Y-11970789D01*
X27469394Y-11839679D01*
X27470877Y-11836100D01*
X27508612Y-11744997D01*
X27529737Y-11693997D01*
X27560500Y-11539342D01*
X27560500Y-11421153D01*
X46604500Y-11421153D01*
X46604500Y-11578846D01*
X46635261Y-11733489D01*
X46635264Y-11733501D01*
X46695602Y-11879172D01*
X46695609Y-11879185D01*
X46783210Y-12010288D01*
X46783213Y-12010292D01*
X46894707Y-12121786D01*
X46894711Y-12121789D01*
X47025814Y-12209390D01*
X47025827Y-12209397D01*
X47150407Y-12260999D01*
X47171503Y-12269737D01*
X47304038Y-12296100D01*
X47326153Y-12300499D01*
X47326156Y-12300500D01*
X47326158Y-12300500D01*
X47483844Y-12300500D01*
X47483845Y-12300499D01*
X47638497Y-12269737D01*
X47784179Y-12209394D01*
X47915289Y-12121789D01*
X48026789Y-12010289D01*
X48114394Y-11879179D01*
X48174737Y-11733497D01*
X48205500Y-11578842D01*
X48205500Y-11421158D01*
X48205500Y-11421155D01*
X48205499Y-11421153D01*
X48204230Y-11414772D01*
X48174737Y-11266503D01*
X48134538Y-11169453D01*
X48114397Y-11120827D01*
X48114390Y-11120814D01*
X48026789Y-10989711D01*
X48026786Y-10989707D01*
X47915292Y-10878213D01*
X47915288Y-10878210D01*
X47784185Y-10790609D01*
X47784172Y-10790602D01*
X47638501Y-10730264D01*
X47638489Y-10730261D01*
X47483845Y-10699500D01*
X47483842Y-10699500D01*
X47326158Y-10699500D01*
X47326155Y-10699500D01*
X47171510Y-10730261D01*
X47171498Y-10730264D01*
X47025827Y-10790602D01*
X47025814Y-10790609D01*
X46894711Y-10878210D01*
X46894707Y-10878213D01*
X46783213Y-10989707D01*
X46783210Y-10989711D01*
X46695609Y-11120814D01*
X46695602Y-11120827D01*
X46635264Y-11266498D01*
X46635261Y-11266510D01*
X46604500Y-11421153D01*
X27560500Y-11421153D01*
X27560500Y-11381658D01*
X27560500Y-11381655D01*
X27560499Y-11381653D01*
X27548751Y-11322594D01*
X27529737Y-11227003D01*
X27529735Y-11226998D01*
X27469397Y-11081327D01*
X27469390Y-11081314D01*
X27381789Y-10950211D01*
X27381786Y-10950207D01*
X27270292Y-10838713D01*
X27270288Y-10838710D01*
X27139185Y-10751109D01*
X27139172Y-10751102D01*
X26993501Y-10690764D01*
X26993489Y-10690761D01*
X26838845Y-10660000D01*
X26838842Y-10660000D01*
X26681158Y-10660000D01*
X26681155Y-10660000D01*
X26526510Y-10690761D01*
X26526498Y-10690764D01*
X26380827Y-10751102D01*
X26380814Y-10751109D01*
X26249711Y-10838710D01*
X26249707Y-10838713D01*
X26138213Y-10950207D01*
X26138210Y-10950211D01*
X26050609Y-11081314D01*
X26050602Y-11081327D01*
X25990264Y-11226998D01*
X25990261Y-11227010D01*
X25959500Y-11381653D01*
X24023125Y-11381653D01*
X24116894Y-11287885D01*
X24134486Y-11270292D01*
X24134489Y-11270289D01*
X24222094Y-11139179D01*
X24232340Y-11114444D01*
X24248394Y-11075685D01*
X24282437Y-10993497D01*
X24284044Y-10985414D01*
X24316426Y-10923505D01*
X24377140Y-10888928D01*
X24446909Y-10892664D01*
X24493343Y-10921922D01*
X24535107Y-10963686D01*
X24535111Y-10963689D01*
X24666214Y-11051290D01*
X24666227Y-11051297D01*
X24811898Y-11111635D01*
X24811903Y-11111637D01*
X24950330Y-11139172D01*
X24966553Y-11142399D01*
X24966556Y-11142400D01*
X24966558Y-11142400D01*
X25124244Y-11142400D01*
X25124245Y-11142399D01*
X25278897Y-11111637D01*
X25424579Y-11051294D01*
X25555689Y-10963689D01*
X25667189Y-10852189D01*
X25754794Y-10721079D01*
X25815137Y-10575397D01*
X25845900Y-10420742D01*
X25845900Y-10263058D01*
X25845900Y-10263055D01*
X25845899Y-10263053D01*
X25841003Y-10238438D01*
X25815137Y-10108403D01*
X25812862Y-10102911D01*
X25754797Y-9962727D01*
X25754791Y-9962716D01*
X25733171Y-9930359D01*
X25712294Y-9863682D01*
X25730779Y-9796302D01*
X25767388Y-9758365D01*
X25773189Y-9754489D01*
X25884689Y-9642989D01*
X25972294Y-9511879D01*
X26032637Y-9366197D01*
X26063400Y-9211542D01*
X26063400Y-9053858D01*
X26063400Y-9053855D01*
X26039468Y-8933545D01*
X26032637Y-8899203D01*
X25990475Y-8797414D01*
X25972297Y-8753527D01*
X25972290Y-8753514D01*
X25884689Y-8622411D01*
X25884686Y-8622407D01*
X25773192Y-8510913D01*
X25773188Y-8510910D01*
X25642085Y-8423309D01*
X25642072Y-8423302D01*
X25496401Y-8362964D01*
X25496389Y-8362961D01*
X25341745Y-8332200D01*
X25341742Y-8332200D01*
X25184058Y-8332200D01*
X25184055Y-8332200D01*
X25029410Y-8362961D01*
X25029398Y-8362964D01*
X24883727Y-8423302D01*
X24883714Y-8423309D01*
X24752611Y-8510910D01*
X24752607Y-8510913D01*
X24641113Y-8622407D01*
X24641110Y-8622411D01*
X24553509Y-8753514D01*
X24553502Y-8753527D01*
X24493164Y-8899198D01*
X24493161Y-8899210D01*
X24462400Y-9053853D01*
X24462400Y-9211546D01*
X24493161Y-9366189D01*
X24493164Y-9366201D01*
X24553502Y-9511872D01*
X24553508Y-9511883D01*
X24575128Y-9544240D01*
X24596005Y-9610918D01*
X24577520Y-9678298D01*
X24540922Y-9716228D01*
X24535110Y-9720111D01*
X24535104Y-9720117D01*
X24423613Y-9831607D01*
X24423610Y-9831611D01*
X24336009Y-9962714D01*
X24336002Y-9962727D01*
X24275664Y-10108398D01*
X24275662Y-10108404D01*
X24274054Y-10116491D01*
X24241666Y-10178401D01*
X24180950Y-10212973D01*
X24111180Y-10209231D01*
X24064756Y-10179977D01*
X24022992Y-10138213D01*
X24022988Y-10138210D01*
X23891885Y-10050609D01*
X23891872Y-10050602D01*
X23746201Y-9990264D01*
X23746189Y-9990261D01*
X23591545Y-9959500D01*
X23591542Y-9959500D01*
X23433858Y-9959500D01*
X23433855Y-9959500D01*
X23279210Y-9990261D01*
X23279198Y-9990264D01*
X23133527Y-10050602D01*
X23133514Y-10050609D01*
X23002411Y-10138210D01*
X23002407Y-10138213D01*
X22890913Y-10249707D01*
X22890910Y-10249711D01*
X22803309Y-10380814D01*
X22803302Y-10380827D01*
X22742964Y-10526498D01*
X22742961Y-10526510D01*
X22711011Y-10687132D01*
X22708493Y-10686631D01*
X22686508Y-10741046D01*
X22629466Y-10781394D01*
X22559665Y-10784497D01*
X22520394Y-10767191D01*
X22514284Y-10763109D01*
X22514272Y-10763102D01*
X22368599Y-10702763D01*
X22364866Y-10701631D01*
X22363151Y-10700507D01*
X22362970Y-10700432D01*
X22362984Y-10700397D01*
X22306429Y-10663330D01*
X22277976Y-10599517D01*
X22288539Y-10530450D01*
X22331983Y-10479865D01*
X22336289Y-10476989D01*
X22447789Y-10365489D01*
X22535394Y-10234379D01*
X22595737Y-10088697D01*
X22626500Y-9934042D01*
X22626500Y-9776358D01*
X22626500Y-9776355D01*
X22626499Y-9776353D01*
X22609202Y-9689397D01*
X22595737Y-9621703D01*
X22591270Y-9610918D01*
X22535397Y-9476027D01*
X22535390Y-9476014D01*
X22447789Y-9344911D01*
X22447786Y-9344907D01*
X22336292Y-9233413D01*
X22336288Y-9233410D01*
X22205185Y-9145809D01*
X22205172Y-9145802D01*
X22059501Y-9085464D01*
X22059489Y-9085461D01*
X21904845Y-9054700D01*
X21904842Y-9054700D01*
X21747158Y-9054700D01*
X21747155Y-9054700D01*
X21592510Y-9085461D01*
X21592498Y-9085464D01*
X21446827Y-9145802D01*
X21446814Y-9145809D01*
X21315711Y-9233410D01*
X21315707Y-9233413D01*
X21204213Y-9344907D01*
X21204210Y-9344911D01*
X21116609Y-9476014D01*
X21116602Y-9476027D01*
X21056264Y-9621698D01*
X21056261Y-9621710D01*
X21025500Y-9776353D01*
X21025500Y-9934046D01*
X21056261Y-10088689D01*
X21056264Y-10088701D01*
X21116602Y-10234372D01*
X21116612Y-10234390D01*
X21154611Y-10291260D01*
X21175489Y-10357937D01*
X21157004Y-10425317D01*
X21105025Y-10472007D01*
X21036055Y-10483183D01*
X21015514Y-10478811D01*
X21014690Y-10478561D01*
X20860045Y-10447800D01*
X20860042Y-10447800D01*
X20702358Y-10447800D01*
X20702355Y-10447800D01*
X20547710Y-10478561D01*
X20547698Y-10478564D01*
X20402027Y-10538902D01*
X20402014Y-10538909D01*
X20270911Y-10626510D01*
X20270907Y-10626513D01*
X20159413Y-10738007D01*
X20159410Y-10738011D01*
X20071809Y-10869114D01*
X20071802Y-10869127D01*
X20011464Y-11014798D01*
X20011461Y-11014810D01*
X19980700Y-11169453D01*
X18478955Y-11169453D01*
X18550289Y-11121789D01*
X18560443Y-11111635D01*
X18596394Y-11075685D01*
X18661786Y-11010292D01*
X18661789Y-11010289D01*
X18749394Y-10879179D01*
X18809737Y-10733497D01*
X18840500Y-10578842D01*
X18840500Y-10421158D01*
X18840500Y-10421155D01*
X18840499Y-10421153D01*
X18827924Y-10357937D01*
X18809737Y-10266503D01*
X18796730Y-10235100D01*
X18749397Y-10120827D01*
X18749390Y-10120814D01*
X18661789Y-9989711D01*
X18661786Y-9989707D01*
X18550292Y-9878213D01*
X18550288Y-9878210D01*
X18419185Y-9790609D01*
X18419172Y-9790602D01*
X18273501Y-9730264D01*
X18273489Y-9730261D01*
X18118845Y-9699500D01*
X18118842Y-9699500D01*
X17961158Y-9699500D01*
X17961155Y-9699500D01*
X17806510Y-9730261D01*
X17806498Y-9730264D01*
X17660827Y-9790602D01*
X17660814Y-9790609D01*
X17529711Y-9878210D01*
X17529707Y-9878213D01*
X17418213Y-9989707D01*
X17418210Y-9989711D01*
X17330609Y-10120814D01*
X17330602Y-10120827D01*
X17270264Y-10266498D01*
X17270261Y-10266510D01*
X17239500Y-10421153D01*
X16978782Y-10421153D01*
X16970538Y-10379708D01*
X16970537Y-10379707D01*
X16970537Y-10379703D01*
X16964651Y-10365492D01*
X16910197Y-10234027D01*
X16910190Y-10234014D01*
X16822589Y-10102911D01*
X16822586Y-10102907D01*
X16711092Y-9991413D01*
X16711088Y-9991410D01*
X16579985Y-9903809D01*
X16579972Y-9903802D01*
X16434301Y-9843464D01*
X16434289Y-9843461D01*
X16279645Y-9812700D01*
X16279642Y-9812700D01*
X16121958Y-9812700D01*
X16121953Y-9812700D01*
X16088482Y-9819358D01*
X16018890Y-9813131D01*
X15963713Y-9770268D01*
X15942674Y-9721932D01*
X15935703Y-9686888D01*
X15922737Y-9621703D01*
X15918270Y-9610918D01*
X15862397Y-9476027D01*
X15862390Y-9476014D01*
X15774789Y-9344911D01*
X15774786Y-9344907D01*
X15663292Y-9233413D01*
X15663288Y-9233410D01*
X15532185Y-9145809D01*
X15532172Y-9145802D01*
X15386501Y-9085464D01*
X15386489Y-9085461D01*
X15231845Y-9054700D01*
X15231842Y-9054700D01*
X15074158Y-9054700D01*
X15074155Y-9054700D01*
X14919510Y-9085461D01*
X14919498Y-9085464D01*
X14773827Y-9145802D01*
X14773814Y-9145809D01*
X14642711Y-9233410D01*
X14642707Y-9233413D01*
X14531213Y-9344907D01*
X14531210Y-9344911D01*
X14443609Y-9476014D01*
X14443602Y-9476027D01*
X14383264Y-9621698D01*
X14383261Y-9621710D01*
X14352500Y-9776353D01*
X12839688Y-9776353D01*
X12973497Y-9749737D01*
X13119179Y-9689394D01*
X13250289Y-9601789D01*
X13361789Y-9490289D01*
X13449394Y-9359179D01*
X13457424Y-9339794D01*
X13493710Y-9252189D01*
X13509737Y-9213497D01*
X13540500Y-9058842D01*
X13540500Y-8901158D01*
X13540500Y-8901155D01*
X13540499Y-8901153D01*
X13529710Y-8846913D01*
X13509737Y-8746503D01*
X13490046Y-8698964D01*
X13449397Y-8600827D01*
X13449390Y-8600814D01*
X13361789Y-8469711D01*
X13361786Y-8469707D01*
X13250292Y-8358213D01*
X13250288Y-8358210D01*
X13119185Y-8270609D01*
X13119172Y-8270602D01*
X12973501Y-8210264D01*
X12973489Y-8210261D01*
X12818845Y-8179500D01*
X12818842Y-8179500D01*
X12661158Y-8179500D01*
X12661155Y-8179500D01*
X12506510Y-8210261D01*
X12506498Y-8210264D01*
X12360827Y-8270602D01*
X12360814Y-8270609D01*
X12229711Y-8358210D01*
X12229707Y-8358213D01*
X12118213Y-8469707D01*
X12118210Y-8469711D01*
X12030609Y-8600814D01*
X12030602Y-8600827D01*
X11970264Y-8746498D01*
X11970261Y-8746510D01*
X11939500Y-8901153D01*
X300500Y-8901153D01*
X300500Y-7034453D01*
X10056200Y-7034453D01*
X10056200Y-7192146D01*
X10086961Y-7346789D01*
X10086964Y-7346801D01*
X10147302Y-7492472D01*
X10147309Y-7492485D01*
X10234910Y-7623588D01*
X10234913Y-7623592D01*
X10346407Y-7735086D01*
X10346411Y-7735089D01*
X10477514Y-7822690D01*
X10477527Y-7822697D01*
X10569189Y-7860664D01*
X10623203Y-7883037D01*
X10777853Y-7913799D01*
X10777856Y-7913800D01*
X10777858Y-7913800D01*
X10935544Y-7913800D01*
X10935545Y-7913799D01*
X11090197Y-7883037D01*
X11235879Y-7822694D01*
X11366989Y-7735089D01*
X11478489Y-7623589D01*
X11566094Y-7492479D01*
X11626437Y-7346797D01*
X11657200Y-7192142D01*
X11657200Y-7034458D01*
X11657200Y-7034455D01*
X11657199Y-7034453D01*
X11642606Y-6961090D01*
X11626437Y-6879803D01*
X11623822Y-6873489D01*
X11566097Y-6734127D01*
X11566090Y-6734114D01*
X11478489Y-6603011D01*
X11478486Y-6603007D01*
X11366992Y-6491513D01*
X11366988Y-6491510D01*
X11235885Y-6403909D01*
X11235872Y-6403902D01*
X11090201Y-6343564D01*
X11090189Y-6343561D01*
X10935545Y-6312800D01*
X10935542Y-6312800D01*
X10777858Y-6312800D01*
X10777855Y-6312800D01*
X10623210Y-6343561D01*
X10623198Y-6343564D01*
X10477527Y-6403902D01*
X10477514Y-6403909D01*
X10346411Y-6491510D01*
X10346407Y-6491513D01*
X10234913Y-6603007D01*
X10234910Y-6603011D01*
X10147309Y-6734114D01*
X10147302Y-6734127D01*
X10086964Y-6879798D01*
X10086961Y-6879810D01*
X10056200Y-7034453D01*
X300500Y-7034453D01*
X300500Y-6172853D01*
X18810200Y-6172853D01*
X18810200Y-6330546D01*
X18840961Y-6485189D01*
X18840964Y-6485201D01*
X18901302Y-6630872D01*
X18901309Y-6630885D01*
X18988910Y-6761988D01*
X18988913Y-6761992D01*
X19100407Y-6873486D01*
X19100411Y-6873489D01*
X19231514Y-6961090D01*
X19231527Y-6961097D01*
X19377198Y-7021435D01*
X19377203Y-7021437D01*
X19531853Y-7052199D01*
X19531856Y-7052200D01*
X19531858Y-7052200D01*
X19689544Y-7052200D01*
X19689545Y-7052199D01*
X19844197Y-7021437D01*
X19989879Y-6961094D01*
X20018675Y-6941853D01*
X21561100Y-6941853D01*
X21561100Y-7099546D01*
X21591861Y-7254189D01*
X21591864Y-7254201D01*
X21652202Y-7399872D01*
X21652209Y-7399885D01*
X21739810Y-7530988D01*
X21739813Y-7530992D01*
X21851307Y-7642486D01*
X21851311Y-7642489D01*
X21982414Y-7730090D01*
X21982427Y-7730097D01*
X22128098Y-7790435D01*
X22128103Y-7790437D01*
X22274709Y-7819599D01*
X22282753Y-7821199D01*
X22282756Y-7821200D01*
X22282758Y-7821200D01*
X22440444Y-7821200D01*
X22440445Y-7821199D01*
X22595097Y-7790437D01*
X22740779Y-7730094D01*
X22871889Y-7642489D01*
X22983389Y-7530989D01*
X23070994Y-7399879D01*
X23131337Y-7254197D01*
X23162100Y-7099542D01*
X23162100Y-6941858D01*
X23161781Y-6940255D01*
X23161781Y-6940253D01*
X23821300Y-6940253D01*
X23821300Y-7097946D01*
X23852061Y-7252589D01*
X23852064Y-7252601D01*
X23912402Y-7398272D01*
X23912409Y-7398285D01*
X24000010Y-7529388D01*
X24000013Y-7529392D01*
X24111507Y-7640886D01*
X24111511Y-7640889D01*
X24242614Y-7728490D01*
X24242627Y-7728497D01*
X24388298Y-7788835D01*
X24388303Y-7788837D01*
X24495777Y-7810215D01*
X24542953Y-7819599D01*
X24542956Y-7819600D01*
X24542958Y-7819600D01*
X24700644Y-7819600D01*
X24700645Y-7819599D01*
X24855297Y-7788837D01*
X24985057Y-7735089D01*
X25000972Y-7728497D01*
X25000972Y-7728496D01*
X25000979Y-7728494D01*
X25132089Y-7640889D01*
X25243589Y-7529389D01*
X25331194Y-7398279D01*
X25333517Y-7392672D01*
X25352522Y-7346789D01*
X25391537Y-7252597D01*
X25422300Y-7097942D01*
X25422300Y-6940258D01*
X25422300Y-6940255D01*
X25422299Y-6940253D01*
X25421185Y-6934653D01*
X25699500Y-6934653D01*
X25699500Y-7092346D01*
X25730261Y-7246989D01*
X25730264Y-7247001D01*
X25790602Y-7392672D01*
X25790609Y-7392685D01*
X25878210Y-7523788D01*
X25878213Y-7523792D01*
X25989707Y-7635286D01*
X25989711Y-7635289D01*
X26120814Y-7722890D01*
X26120827Y-7722897D01*
X26266498Y-7783235D01*
X26266503Y-7783237D01*
X26402130Y-7810215D01*
X26421153Y-7813999D01*
X26421156Y-7814000D01*
X26431559Y-7814000D01*
X26498598Y-7833685D01*
X26544353Y-7886489D01*
X26554297Y-7955647D01*
X26525272Y-8019203D01*
X26519240Y-8025681D01*
X26424813Y-8120107D01*
X26424810Y-8120111D01*
X26337209Y-8251214D01*
X26337202Y-8251227D01*
X26276864Y-8396898D01*
X26276861Y-8396910D01*
X26246100Y-8551553D01*
X26246100Y-8709246D01*
X26270029Y-8829547D01*
X26270038Y-8829589D01*
X26276863Y-8863897D01*
X26279251Y-8869662D01*
X26279252Y-8869666D01*
X26337202Y-9009572D01*
X26337209Y-9009585D01*
X26424810Y-9140688D01*
X26424813Y-9140692D01*
X26536307Y-9252186D01*
X26536311Y-9252189D01*
X26667414Y-9339790D01*
X26667427Y-9339797D01*
X26788275Y-9389853D01*
X26813103Y-9400137D01*
X26967753Y-9430899D01*
X26967756Y-9430900D01*
X26967758Y-9430900D01*
X27125444Y-9430900D01*
X27125445Y-9430899D01*
X27280097Y-9400137D01*
X27304924Y-9389853D01*
X29052900Y-9389853D01*
X29052900Y-9547546D01*
X29083661Y-9702189D01*
X29083664Y-9702201D01*
X29144002Y-9847872D01*
X29144009Y-9847885D01*
X29231610Y-9978988D01*
X29231613Y-9978992D01*
X29343107Y-10090486D01*
X29343111Y-10090489D01*
X29474214Y-10178090D01*
X29474227Y-10178097D01*
X29619898Y-10238435D01*
X29619903Y-10238437D01*
X29761035Y-10266510D01*
X29774553Y-10269199D01*
X29774556Y-10269200D01*
X29774558Y-10269200D01*
X29932244Y-10269200D01*
X29932245Y-10269199D01*
X30086897Y-10238437D01*
X30232579Y-10178094D01*
X30363689Y-10090489D01*
X30475189Y-9978989D01*
X30562794Y-9847879D01*
X30623137Y-9702197D01*
X30653900Y-9547542D01*
X30653900Y-9389858D01*
X30653900Y-9389855D01*
X30653899Y-9389853D01*
X30649194Y-9366201D01*
X30623137Y-9235203D01*
X30613337Y-9211544D01*
X30583338Y-9139118D01*
X30566204Y-9097753D01*
X42492100Y-9097753D01*
X42492100Y-9255446D01*
X42522861Y-9410089D01*
X42522864Y-9410101D01*
X42583202Y-9555772D01*
X42583209Y-9555785D01*
X42670810Y-9686888D01*
X42670813Y-9686892D01*
X42782307Y-9798386D01*
X42782311Y-9798389D01*
X42913414Y-9885990D01*
X42913427Y-9885997D01*
X43059098Y-9946335D01*
X43059103Y-9946337D01*
X43141501Y-9962727D01*
X43213753Y-9977099D01*
X43213756Y-9977100D01*
X43213758Y-9977100D01*
X43371444Y-9977100D01*
X43371445Y-9977099D01*
X43526097Y-9946337D01*
X43671779Y-9885994D01*
X43802889Y-9798389D01*
X43914389Y-9686889D01*
X44001994Y-9555779D01*
X44062337Y-9410097D01*
X44093100Y-9255442D01*
X44093100Y-9097758D01*
X44093100Y-9097755D01*
X44093099Y-9097753D01*
X44075560Y-9009579D01*
X44062337Y-8943103D01*
X44022494Y-8846913D01*
X44001997Y-8797427D01*
X44001990Y-8797414D01*
X43914389Y-8666311D01*
X43914386Y-8666307D01*
X43802892Y-8554813D01*
X43802888Y-8554810D01*
X43671785Y-8467209D01*
X43671772Y-8467202D01*
X43526101Y-8406864D01*
X43526089Y-8406861D01*
X43371445Y-8376100D01*
X43371442Y-8376100D01*
X43213758Y-8376100D01*
X43213755Y-8376100D01*
X43059110Y-8406861D01*
X43059098Y-8406864D01*
X42913427Y-8467202D01*
X42913414Y-8467209D01*
X42782311Y-8554810D01*
X42782307Y-8554813D01*
X42670813Y-8666307D01*
X42670810Y-8666311D01*
X42583209Y-8797414D01*
X42583202Y-8797427D01*
X42522864Y-8943098D01*
X42522861Y-8943110D01*
X42492100Y-9097753D01*
X30566204Y-9097753D01*
X30562797Y-9089527D01*
X30562790Y-9089514D01*
X30475189Y-8958411D01*
X30475186Y-8958407D01*
X30363692Y-8846913D01*
X30363688Y-8846910D01*
X30232585Y-8759309D01*
X30232572Y-8759302D01*
X30086901Y-8698964D01*
X30086889Y-8698961D01*
X29932245Y-8668200D01*
X29932242Y-8668200D01*
X29774558Y-8668200D01*
X29774555Y-8668200D01*
X29619910Y-8698961D01*
X29619898Y-8698964D01*
X29474227Y-8759302D01*
X29474214Y-8759309D01*
X29343111Y-8846910D01*
X29343107Y-8846913D01*
X29231613Y-8958407D01*
X29231610Y-8958411D01*
X29144009Y-9089514D01*
X29144002Y-9089527D01*
X29083664Y-9235198D01*
X29083661Y-9235210D01*
X29052900Y-9389853D01*
X27304924Y-9389853D01*
X27392766Y-9353467D01*
X27425772Y-9339797D01*
X27425772Y-9339796D01*
X27425779Y-9339794D01*
X27425785Y-9339790D01*
X27514274Y-9280664D01*
X27533227Y-9267999D01*
X27556889Y-9252189D01*
X27668389Y-9140689D01*
X27755994Y-9009579D01*
X27816337Y-8863897D01*
X27847100Y-8709242D01*
X27847100Y-8551558D01*
X27847100Y-8551555D01*
X27847099Y-8551553D01*
X27839015Y-8510911D01*
X27816337Y-8396903D01*
X27800311Y-8358213D01*
X27755997Y-8251227D01*
X27755990Y-8251214D01*
X27668389Y-8120111D01*
X27668386Y-8120107D01*
X27556892Y-8008613D01*
X27556888Y-8008610D01*
X27425785Y-7921009D01*
X27425772Y-7921002D01*
X27280101Y-7860664D01*
X27280089Y-7860661D01*
X27125445Y-7829900D01*
X27125442Y-7829900D01*
X27115041Y-7829900D01*
X27048002Y-7810215D01*
X27002247Y-7757411D01*
X26992303Y-7688253D01*
X27021328Y-7624697D01*
X27027360Y-7618219D01*
X27121786Y-7523792D01*
X27121789Y-7523789D01*
X27209394Y-7392679D01*
X27269737Y-7246997D01*
X27300500Y-7092342D01*
X27300500Y-6934658D01*
X27300500Y-6934655D01*
X27300499Y-6934653D01*
X27289590Y-6879810D01*
X27269737Y-6780003D01*
X27262277Y-6761992D01*
X27209397Y-6634327D01*
X27209390Y-6634314D01*
X27121789Y-6503211D01*
X27121786Y-6503207D01*
X27010292Y-6391713D01*
X27010288Y-6391710D01*
X26879185Y-6304109D01*
X26879172Y-6304102D01*
X26733501Y-6243764D01*
X26733489Y-6243761D01*
X26578845Y-6213000D01*
X26578842Y-6213000D01*
X26421158Y-6213000D01*
X26421155Y-6213000D01*
X26266510Y-6243761D01*
X26266498Y-6243764D01*
X26120827Y-6304102D01*
X26120814Y-6304109D01*
X25989711Y-6391710D01*
X25989707Y-6391713D01*
X25878213Y-6503207D01*
X25878210Y-6503211D01*
X25790609Y-6634314D01*
X25790602Y-6634327D01*
X25730264Y-6779998D01*
X25730261Y-6780010D01*
X25699500Y-6934653D01*
X25421185Y-6934653D01*
X25409018Y-6873486D01*
X25391537Y-6785603D01*
X25389220Y-6780010D01*
X25331197Y-6639927D01*
X25331190Y-6639914D01*
X25243589Y-6508811D01*
X25243586Y-6508807D01*
X25132092Y-6397313D01*
X25132088Y-6397310D01*
X25000985Y-6309709D01*
X25000972Y-6309702D01*
X24855301Y-6249364D01*
X24855289Y-6249361D01*
X24700645Y-6218600D01*
X24700642Y-6218600D01*
X24542958Y-6218600D01*
X24542955Y-6218600D01*
X24388310Y-6249361D01*
X24388298Y-6249364D01*
X24242627Y-6309702D01*
X24242614Y-6309709D01*
X24111511Y-6397310D01*
X24111507Y-6397313D01*
X24000013Y-6508807D01*
X24000010Y-6508811D01*
X23912409Y-6639914D01*
X23912402Y-6639927D01*
X23852064Y-6785598D01*
X23852061Y-6785610D01*
X23821300Y-6940253D01*
X23161781Y-6940253D01*
X23131338Y-6787210D01*
X23131337Y-6787203D01*
X23120893Y-6761988D01*
X23070997Y-6641527D01*
X23070990Y-6641514D01*
X22983389Y-6510411D01*
X22983386Y-6510407D01*
X22871892Y-6398913D01*
X22871888Y-6398910D01*
X22740785Y-6311309D01*
X22740772Y-6311302D01*
X22595101Y-6250964D01*
X22595089Y-6250961D01*
X22440445Y-6220200D01*
X22440442Y-6220200D01*
X22282758Y-6220200D01*
X22282755Y-6220200D01*
X22128110Y-6250961D01*
X22128098Y-6250964D01*
X21982427Y-6311302D01*
X21982414Y-6311309D01*
X21851311Y-6398910D01*
X21851307Y-6398913D01*
X21739813Y-6510407D01*
X21739810Y-6510411D01*
X21652209Y-6641514D01*
X21652202Y-6641527D01*
X21591864Y-6787198D01*
X21591861Y-6787210D01*
X21561100Y-6941853D01*
X20018675Y-6941853D01*
X20120989Y-6873489D01*
X20120992Y-6873486D01*
X20146394Y-6848085D01*
X20232486Y-6761992D01*
X20232489Y-6761989D01*
X20320094Y-6630879D01*
X20380437Y-6485197D01*
X20411200Y-6330542D01*
X20411200Y-6172858D01*
X20411200Y-6172855D01*
X20411199Y-6172853D01*
X20400047Y-6116789D01*
X20380437Y-6018203D01*
X20375088Y-6005289D01*
X20320097Y-5872527D01*
X20320090Y-5872514D01*
X20232489Y-5741411D01*
X20232486Y-5741407D01*
X20120992Y-5629913D01*
X20120988Y-5629910D01*
X19989885Y-5542309D01*
X19989872Y-5542302D01*
X19844201Y-5481964D01*
X19844189Y-5481961D01*
X19689545Y-5451200D01*
X19689542Y-5451200D01*
X19531858Y-5451200D01*
X19531855Y-5451200D01*
X19377210Y-5481961D01*
X19377198Y-5481964D01*
X19231527Y-5542302D01*
X19231514Y-5542309D01*
X19100411Y-5629910D01*
X19100407Y-5629913D01*
X18988913Y-5741407D01*
X18988910Y-5741411D01*
X18901309Y-5872514D01*
X18901302Y-5872527D01*
X18840964Y-6018198D01*
X18840961Y-6018210D01*
X18810200Y-6172853D01*
X300500Y-6172853D01*
X300500Y-3393713D01*
X2149500Y-3393713D01*
X2149500Y-3606286D01*
X2181762Y-3809985D01*
X2182754Y-3816243D01*
X2234860Y-3976609D01*
X2248444Y-4018414D01*
X2344951Y-4207820D01*
X2469890Y-4379786D01*
X2620213Y-4530109D01*
X2792179Y-4655048D01*
X2792181Y-4655049D01*
X2792184Y-4655051D01*
X2981588Y-4751557D01*
X3183757Y-4817246D01*
X3393713Y-4850500D01*
X3393714Y-4850500D01*
X3606286Y-4850500D01*
X3606287Y-4850500D01*
X3816243Y-4817246D01*
X4018412Y-4751557D01*
X4207816Y-4655051D01*
X4273740Y-4607155D01*
X4379786Y-4530109D01*
X4379788Y-4530106D01*
X4379792Y-4530104D01*
X4530104Y-4379792D01*
X4530106Y-4379788D01*
X4530109Y-4379786D01*
X4655048Y-4207820D01*
X4655047Y-4207820D01*
X4655051Y-4207816D01*
X4751557Y-4018412D01*
X4817246Y-3816243D01*
X4850500Y-3606287D01*
X4850500Y-3393713D01*
X4843886Y-3351953D01*
X5329900Y-3351953D01*
X5329900Y-3509646D01*
X5360661Y-3664289D01*
X5360664Y-3664301D01*
X5421002Y-3809972D01*
X5421009Y-3809985D01*
X5508610Y-3941088D01*
X5508613Y-3941092D01*
X5620107Y-4052586D01*
X5620111Y-4052589D01*
X5751214Y-4140190D01*
X5751227Y-4140197D01*
X5896898Y-4200535D01*
X5896903Y-4200537D01*
X6051553Y-4231299D01*
X6051556Y-4231300D01*
X6051558Y-4231300D01*
X6209244Y-4231300D01*
X6209245Y-4231299D01*
X6363897Y-4200537D01*
X6509579Y-4140194D01*
X6640689Y-4052589D01*
X6752189Y-3941089D01*
X6777002Y-3903953D01*
X9296800Y-3903953D01*
X9296800Y-4061646D01*
X9327561Y-4216289D01*
X9327564Y-4216301D01*
X9387902Y-4361972D01*
X9387909Y-4361985D01*
X9475510Y-4493088D01*
X9475513Y-4493092D01*
X9587007Y-4604586D01*
X9587011Y-4604589D01*
X9718114Y-4692190D01*
X9718127Y-4692197D01*
X9861432Y-4751555D01*
X9863803Y-4752537D01*
X10018453Y-4783299D01*
X10018456Y-4783300D01*
X10018458Y-4783300D01*
X10176144Y-4783300D01*
X10176145Y-4783299D01*
X10330797Y-4752537D01*
X10476479Y-4692194D01*
X10603752Y-4607153D01*
X29052900Y-4607153D01*
X29052900Y-4764846D01*
X29083661Y-4919489D01*
X29083664Y-4919501D01*
X29144002Y-5065172D01*
X29144009Y-5065185D01*
X29231610Y-5196288D01*
X29231613Y-5196292D01*
X29343107Y-5307786D01*
X29343111Y-5307789D01*
X29474214Y-5395390D01*
X29474227Y-5395397D01*
X29619898Y-5455735D01*
X29619903Y-5455737D01*
X29751739Y-5481961D01*
X29774553Y-5486499D01*
X29774556Y-5486500D01*
X29774558Y-5486500D01*
X29932244Y-5486500D01*
X29932245Y-5486499D01*
X30086897Y-5455737D01*
X30182462Y-5416153D01*
X38199500Y-5416153D01*
X38199500Y-5573846D01*
X38230261Y-5728489D01*
X38230264Y-5728501D01*
X38290602Y-5874172D01*
X38290609Y-5874185D01*
X38378210Y-6005288D01*
X38378213Y-6005292D01*
X38489707Y-6116786D01*
X38489711Y-6116789D01*
X38620814Y-6204390D01*
X38620827Y-6204397D01*
X38766498Y-6264735D01*
X38766503Y-6264737D01*
X38921153Y-6295499D01*
X38921156Y-6295500D01*
X38921158Y-6295500D01*
X39078844Y-6295500D01*
X39078845Y-6295499D01*
X39233497Y-6264737D01*
X39379179Y-6204394D01*
X39510289Y-6116789D01*
X39621789Y-6005289D01*
X39709394Y-5874179D01*
X39769737Y-5728497D01*
X39800500Y-5573842D01*
X39800500Y-5416158D01*
X39800500Y-5416155D01*
X39800499Y-5416153D01*
X39778944Y-5307789D01*
X39769737Y-5261503D01*
X39742725Y-5196289D01*
X39709397Y-5115827D01*
X39709390Y-5115814D01*
X39621789Y-4984711D01*
X39621786Y-4984707D01*
X39518232Y-4881153D01*
X40699500Y-4881153D01*
X40699500Y-5038846D01*
X40730261Y-5193489D01*
X40730264Y-5193501D01*
X40790602Y-5339172D01*
X40790609Y-5339185D01*
X40878210Y-5470288D01*
X40878213Y-5470292D01*
X40989707Y-5581786D01*
X40989711Y-5581789D01*
X41120814Y-5669390D01*
X41120827Y-5669397D01*
X41263490Y-5728489D01*
X41266503Y-5729737D01*
X41421153Y-5760499D01*
X41421156Y-5760500D01*
X41421158Y-5760500D01*
X41578844Y-5760500D01*
X41578845Y-5760499D01*
X41733497Y-5729737D01*
X41879179Y-5669394D01*
X42010289Y-5581789D01*
X42121789Y-5470289D01*
X42209394Y-5339179D01*
X42269737Y-5193497D01*
X42300500Y-5038842D01*
X42300500Y-4881158D01*
X42300500Y-4881155D01*
X42300499Y-4881153D01*
X42281493Y-4785606D01*
X42269737Y-4726503D01*
X42219238Y-4604586D01*
X42209397Y-4580827D01*
X42209390Y-4580814D01*
X42121789Y-4449711D01*
X42121786Y-4449707D01*
X42010292Y-4338213D01*
X42010288Y-4338210D01*
X41879185Y-4250609D01*
X41879172Y-4250602D01*
X41733501Y-4190264D01*
X41733489Y-4190261D01*
X41578845Y-4159500D01*
X41578842Y-4159500D01*
X41421158Y-4159500D01*
X41421155Y-4159500D01*
X41266510Y-4190261D01*
X41266498Y-4190264D01*
X41120827Y-4250602D01*
X41120814Y-4250609D01*
X40989711Y-4338210D01*
X40989707Y-4338213D01*
X40878213Y-4449707D01*
X40878210Y-4449711D01*
X40790609Y-4580814D01*
X40790602Y-4580827D01*
X40730264Y-4726498D01*
X40730261Y-4726510D01*
X40699500Y-4881153D01*
X39518232Y-4881153D01*
X39510292Y-4873213D01*
X39510288Y-4873210D01*
X39379185Y-4785609D01*
X39379172Y-4785602D01*
X39233501Y-4725264D01*
X39233489Y-4725261D01*
X39078845Y-4694500D01*
X39078842Y-4694500D01*
X38921158Y-4694500D01*
X38921155Y-4694500D01*
X38766510Y-4725261D01*
X38766498Y-4725264D01*
X38620827Y-4785602D01*
X38620814Y-4785609D01*
X38489711Y-4873210D01*
X38489707Y-4873213D01*
X38378213Y-4984707D01*
X38378210Y-4984711D01*
X38290609Y-5115814D01*
X38290602Y-5115827D01*
X38230264Y-5261498D01*
X38230261Y-5261510D01*
X38199500Y-5416153D01*
X30182462Y-5416153D01*
X30232579Y-5395394D01*
X30363689Y-5307789D01*
X30475189Y-5196289D01*
X30562794Y-5065179D01*
X30623137Y-4919497D01*
X30653900Y-4764842D01*
X30653900Y-4607158D01*
X30653900Y-4607155D01*
X30653899Y-4607153D01*
X30635247Y-4513385D01*
X30623137Y-4452503D01*
X30621979Y-4449707D01*
X30562797Y-4306827D01*
X30562790Y-4306814D01*
X30475189Y-4175711D01*
X30475186Y-4175707D01*
X30363692Y-4064213D01*
X30363688Y-4064210D01*
X30232585Y-3976609D01*
X30232572Y-3976602D01*
X30086901Y-3916264D01*
X30086889Y-3916261D01*
X29932245Y-3885500D01*
X29932242Y-3885500D01*
X29774558Y-3885500D01*
X29774555Y-3885500D01*
X29619910Y-3916261D01*
X29619898Y-3916264D01*
X29474227Y-3976602D01*
X29474214Y-3976609D01*
X29343111Y-4064210D01*
X29343107Y-4064213D01*
X29231613Y-4175707D01*
X29231610Y-4175711D01*
X29144009Y-4306814D01*
X29144002Y-4306827D01*
X29083664Y-4452498D01*
X29083661Y-4452510D01*
X29052900Y-4607153D01*
X10603752Y-4607153D01*
X10607589Y-4604589D01*
X10631364Y-4580814D01*
X10698794Y-4513385D01*
X10719086Y-4493092D01*
X10719089Y-4493089D01*
X10806694Y-4361979D01*
X10867037Y-4216297D01*
X10897800Y-4061642D01*
X10897800Y-3903958D01*
X10897800Y-3903955D01*
X10897799Y-3903953D01*
X10875398Y-3791337D01*
X10867037Y-3749303D01*
X10867035Y-3749298D01*
X10806697Y-3603627D01*
X10806690Y-3603614D01*
X10719089Y-3472511D01*
X10719086Y-3472507D01*
X10607592Y-3361013D01*
X10607588Y-3361010D01*
X10476485Y-3273409D01*
X10476472Y-3273402D01*
X10330801Y-3213064D01*
X10330789Y-3213061D01*
X10176145Y-3182300D01*
X10176142Y-3182300D01*
X10018458Y-3182300D01*
X10018455Y-3182300D01*
X9863810Y-3213061D01*
X9863798Y-3213064D01*
X9718127Y-3273402D01*
X9718114Y-3273409D01*
X9587011Y-3361010D01*
X9587007Y-3361013D01*
X9475513Y-3472507D01*
X9475510Y-3472511D01*
X9387909Y-3603614D01*
X9387902Y-3603627D01*
X9327564Y-3749298D01*
X9327561Y-3749310D01*
X9296800Y-3903953D01*
X6777002Y-3903953D01*
X6789332Y-3885500D01*
X6827102Y-3828975D01*
X6839790Y-3809985D01*
X6839790Y-3809984D01*
X6839794Y-3809979D01*
X6900137Y-3664297D01*
X6930900Y-3509642D01*
X6930900Y-3351958D01*
X6930900Y-3351955D01*
X6930899Y-3351953D01*
X6900137Y-3197303D01*
X6860017Y-3100444D01*
X6839797Y-3051627D01*
X6839791Y-3051616D01*
X6809015Y-3005556D01*
X6809014Y-3005555D01*
X6767051Y-2942753D01*
X23347500Y-2942753D01*
X23347500Y-3100446D01*
X23378261Y-3255089D01*
X23378264Y-3255101D01*
X23438602Y-3400772D01*
X23438609Y-3400785D01*
X23526210Y-3531888D01*
X23526213Y-3531892D01*
X23637707Y-3643386D01*
X23637711Y-3643389D01*
X23768814Y-3730990D01*
X23768827Y-3730997D01*
X23914498Y-3791335D01*
X23914503Y-3791337D01*
X24039693Y-3816239D01*
X24069153Y-3822099D01*
X24069156Y-3822100D01*
X24069158Y-3822100D01*
X24226844Y-3822100D01*
X24226845Y-3822099D01*
X24381497Y-3791337D01*
X24527179Y-3730994D01*
X24658289Y-3643389D01*
X24769789Y-3531889D01*
X24857394Y-3400779D01*
X24917737Y-3255097D01*
X24948500Y-3100442D01*
X24948500Y-2942758D01*
X24948500Y-2942755D01*
X24948499Y-2942753D01*
X24921896Y-2809011D01*
X24917737Y-2788103D01*
X24890112Y-2721409D01*
X24857397Y-2642427D01*
X24857390Y-2642414D01*
X24769789Y-2511311D01*
X24769786Y-2511307D01*
X24658292Y-2399813D01*
X24658288Y-2399810D01*
X24527185Y-2312209D01*
X24527172Y-2312202D01*
X24381501Y-2251864D01*
X24381489Y-2251861D01*
X24226845Y-2221100D01*
X24226842Y-2221100D01*
X24069158Y-2221100D01*
X24069155Y-2221100D01*
X23914510Y-2251861D01*
X23914498Y-2251864D01*
X23768827Y-2312202D01*
X23768814Y-2312209D01*
X23637711Y-2399810D01*
X23637707Y-2399813D01*
X23526213Y-2511307D01*
X23526210Y-2511311D01*
X23438609Y-2642414D01*
X23438602Y-2642427D01*
X23378264Y-2788098D01*
X23378261Y-2788110D01*
X23347500Y-2942753D01*
X6767051Y-2942753D01*
X6752189Y-2920511D01*
X6752186Y-2920507D01*
X6640692Y-2809013D01*
X6640688Y-2809010D01*
X6509585Y-2721409D01*
X6509572Y-2721402D01*
X6363901Y-2661064D01*
X6363889Y-2661061D01*
X6209245Y-2630300D01*
X6209242Y-2630300D01*
X6051558Y-2630300D01*
X6051555Y-2630300D01*
X5896910Y-2661061D01*
X5896898Y-2661064D01*
X5751227Y-2721402D01*
X5751214Y-2721409D01*
X5620111Y-2809010D01*
X5620107Y-2809013D01*
X5508613Y-2920507D01*
X5508610Y-2920511D01*
X5421009Y-3051614D01*
X5421002Y-3051627D01*
X5360664Y-3197298D01*
X5360661Y-3197310D01*
X5329900Y-3351953D01*
X4843886Y-3351953D01*
X4817246Y-3183757D01*
X4751557Y-2981588D01*
X4655051Y-2792184D01*
X4655049Y-2792181D01*
X4655048Y-2792179D01*
X4530109Y-2620213D01*
X4379786Y-2469890D01*
X4207820Y-2344951D01*
X4018414Y-2248444D01*
X4018413Y-2248443D01*
X4018412Y-2248443D01*
X3816243Y-2182754D01*
X3816241Y-2182753D01*
X3816240Y-2182753D01*
X3654957Y-2157208D01*
X3606287Y-2149500D01*
X3393713Y-2149500D01*
X3345042Y-2157208D01*
X3183760Y-2182753D01*
X2981585Y-2248444D01*
X2792179Y-2344951D01*
X2620213Y-2469890D01*
X2469890Y-2620213D01*
X2344951Y-2792179D01*
X2248444Y-2981585D01*
X2182753Y-3183760D01*
X2149500Y-3393713D01*
X300500Y-3393713D01*
X300500Y-2004427D01*
X300816Y-1995581D01*
X317165Y-1766980D01*
X319683Y-1749470D01*
X367457Y-1529852D01*
X372434Y-1512901D01*
X450986Y-1302295D01*
X458325Y-1286226D01*
X566043Y-1088955D01*
X575599Y-1074086D01*
X710293Y-894156D01*
X721867Y-880799D01*
X880799Y-721867D01*
X894156Y-710293D01*
X1074086Y-575599D01*
X1088955Y-566043D01*
X1286226Y-458325D01*
X1302295Y-450986D01*
X1512901Y-372434D01*
X1529852Y-367457D01*
X1749476Y-319681D01*
X1766973Y-317165D01*
X1995582Y-300816D01*
X2004428Y-300500D01*
X2047594Y-300500D01*
X51952405Y-300500D01*
X51995572Y-300500D01*
X52004418Y-300816D01*
G37*
%TD.AperFunction*%
%TD*%
M02*
