%TF.GenerationSoftware,KiCad,Pcbnew,10.0.6*%
%TF.CreationDate,2026-10-05T06:20:27-07:00*%
%TF.ProjectId,plush-toy-v2-A,706c7573-682d-4746-9f79-2d76322d412e,rev?*%
%TF.SameCoordinates,Original*%
%TF.FileFunction,Copper,L4,Bot*%
%TF.FilePolarity,Positive*%
%FSLAX46Y46*%
G04 Gerber Fmt 4.6, Leading zero omitted, Abs format (unit mm)*
G04 Created by KiCad (PCBNEW 10.0.6) date 2026-10-05 06:20:27*
%MOMM*%
%LPD*%
G01*
G04 APERTURE LIST*
%TA.AperFunction,HeatsinkPad*%
%ADD10C,0.500000*%
%TD*%
%TA.AperFunction,HeatsinkPad*%
%ADD11R,0.500000X1.600000*%
%TD*%
%TA.AperFunction,ComponentPad*%
%ADD12O,1.000000X2.100000*%
%TD*%
%TA.AperFunction,ComponentPad*%
%ADD13O,1.000000X1.600000*%
%TD*%
%TA.AperFunction,HeatsinkPad*%
%ADD14C,0.600000*%
%TD*%
%TA.AperFunction,SMDPad,CuDef*%
%ADD15C,1.000000*%
%TD*%
%TA.AperFunction,ViaPad*%
%ADD16C,0.600000*%
%TD*%
%TA.AperFunction,ViaPad*%
%ADD17C,0.800000*%
%TD*%
%TA.AperFunction,Conductor*%
%ADD18C,0.400000*%
%TD*%
%TA.AperFunction,Conductor*%
%ADD19C,0.200000*%
%TD*%
%TA.AperFunction,Conductor*%
%ADD20C,0.600000*%
%TD*%
%TA.AperFunction,Conductor*%
%ADD21C,0.300000*%
%TD*%
G04 APERTURE END LIST*
D10*
%TO.P,U_EFUSE,9*%
%TO.N,GND*%
X32800000Y-33750000D03*
D11*
X32800000Y-34300000D03*
D10*
X32800000Y-34850000D03*
%TD*%
D12*
%TO.P,J_USB,SH*%
%TO.N,GND*%
X24480000Y-38225000D03*
D13*
X24480000Y-42405000D03*
D12*
X33120000Y-38225000D03*
D13*
X33120000Y-42405000D03*
%TD*%
D14*
%TO.P,U1,41*%
%TO.N,GND*%
X8510000Y-23900000D03*
X9910000Y-23900000D03*
X7810000Y-23200000D03*
X9210000Y-23200000D03*
X10610000Y-23200000D03*
X8510000Y-22500000D03*
X9910000Y-22500000D03*
X7810000Y-21800000D03*
X9210000Y-21800000D03*
X10610000Y-21800000D03*
X8510000Y-21100000D03*
X9910000Y-21100000D03*
%TD*%
D15*
%TO.P,TP_BOOT,1*%
%TO.N,BOOT*%
X23500000Y-19000000D03*
%TD*%
%TO.P,TP_3V3,1*%
%TO.N,+3V3*%
X38500000Y-22500000D03*
%TD*%
%TO.P,TP_VUSB,1*%
%TO.N,VUSB*%
X34750000Y-34250000D03*
%TD*%
%TO.P,TP_EN,1*%
%TO.N,EN*%
X23500000Y-14500000D03*
%TD*%
%TO.P,TP_CC,1*%
%TO.N,CC_SENSE*%
X28750000Y-41250000D03*
%TD*%
%TO.P,TP_VBAT,1*%
%TO.N,VBAT*%
X14000000Y-40500000D03*
%TD*%
%TO.P,TP_VSYS,1*%
%TO.N,VSYS*%
X33500000Y-29000000D03*
%TD*%
%TO.P,TP_GND,1*%
%TO.N,GND*%
X41000000Y-22500000D03*
%TD*%
D16*
%TO.N,GND*%
X24500000Y-26800000D03*
X48700000Y-6250000D03*
X41175000Y-19750000D03*
X36980000Y-12000000D03*
X26450000Y-24500000D03*
X23000000Y-23540000D03*
X5250000Y-6000000D03*
X34000000Y-5495000D03*
X36250000Y-22500000D03*
X32730000Y-12000000D03*
X27000000Y-13290000D03*
X41480000Y-39010000D03*
X1490000Y-12250000D03*
X1490000Y-29750000D03*
X20000000Y-38825000D03*
X36600000Y-33000000D03*
X45405000Y-8960000D03*
X13536100Y-6278600D03*
X19000000Y-7000000D03*
X43250000Y-42540000D03*
X7386800Y-7156800D03*
X36950000Y-13750000D03*
X47859100Y-38988400D03*
X37925000Y-38000000D03*
X9480000Y-39250000D03*
X36250000Y-41250000D03*
X33710000Y-13250000D03*
X38000000Y-5495000D03*
X38950000Y-25500000D03*
X26896000Y-21381800D03*
X18850000Y-9300000D03*
X25680000Y-19000000D03*
X31000000Y-29000000D03*
X10675000Y-31750000D03*
X15000000Y-37555000D03*
X37925000Y-36250000D03*
X41000000Y-35040000D03*
X38232600Y-17041000D03*
X31760000Y-17020000D03*
X18636800Y-42156800D03*
X37500000Y-28050000D03*
X20000000Y-8790000D03*
X21291000Y-34767400D03*
X25680000Y-14500000D03*
X23678100Y-7022000D03*
X44460000Y-38250000D03*
X8290900Y-7011600D03*
X41500000Y-2540000D03*
X23113200Y-38376800D03*
X21250000Y-43040000D03*
X45405000Y-17460000D03*
X21123200Y-38113200D03*
X12460000Y-34500000D03*
X27750000Y-30770000D03*
X6480000Y-32260000D03*
X27250000Y-26550000D03*
X44950000Y-6500000D03*
X31700000Y-18000000D03*
%TO.N,+3V3*%
X4790000Y-31500000D03*
X39000000Y-5495000D03*
X23000000Y-25960000D03*
X20730000Y-42260000D03*
X31406800Y-15113200D03*
X26449100Y-22179000D03*
X29020000Y-14000000D03*
X22770000Y-21500000D03*
X41500000Y-4960000D03*
X33204900Y-10182500D03*
X26050900Y-20419000D03*
X36250000Y-17250000D03*
X29800000Y-18000000D03*
X16750000Y-10980000D03*
X2760000Y-29750000D03*
X27000000Y-18270000D03*
X20000000Y-11210000D03*
X51000000Y-43480000D03*
X37050000Y-25500000D03*
X23020000Y-16750000D03*
X7325000Y-31750000D03*
X25275800Y-20563600D03*
X22361600Y-7020700D03*
%TO.N,CC1*%
X23525300Y-42652800D03*
X23826100Y-36752300D03*
%TO.N,CC_SENSE*%
X27788200Y-40935900D03*
X7618600Y-28526900D03*
X19412100Y-34018800D03*
X23664900Y-39306300D03*
D17*
%TO.N,VBAT*%
X21191600Y-31679200D03*
X28650800Y-27338800D03*
X21493300Y-33690800D03*
X9428900Y-41327800D03*
D16*
%TO.N,SPK_P*%
X38810000Y-41458200D03*
X38178700Y-34514500D03*
%TO.N,SPK_N*%
X40506400Y-39856100D03*
X38877900Y-34121100D03*
%TO.N,CC2*%
X23503400Y-40076700D03*
X34088100Y-38899500D03*
%TO.N,VBAT_SENSE*%
X16000000Y-43700000D03*
X19200000Y-43700000D03*
%TO.N,LCD_MOSI*%
X17131600Y-7750000D03*
X18035100Y-19095000D03*
D17*
%TO.N,VSYS*%
X35393200Y-39097300D03*
X24400000Y-24700000D03*
X34894900Y-15152200D03*
X42770000Y-37309700D03*
X39658700Y-35964900D03*
D16*
X40520800Y-24187700D03*
X45405000Y-20000000D03*
D17*
X31071300Y-13056500D03*
X24500000Y-28700000D03*
X39561700Y-38393400D03*
X47199500Y-7713000D03*
D16*
X45405000Y-11500000D03*
X40270000Y-33510000D03*
X29090000Y-24988300D03*
D17*
X36982300Y-20632000D03*
D16*
X37825000Y-19750000D03*
D17*
X26446200Y-30400400D03*
D16*
%TO.N,SERVO_L_PWM*%
X27062600Y-8278300D03*
X22059100Y-27183000D03*
%TO.N,KEY_MUTE*%
X15272900Y-9909900D03*
X13920700Y-28524500D03*
%TO.N,LCD_BL_PWM*%
X23624500Y-10431300D03*
X18024500Y-15285000D03*
X34943600Y-11212600D03*
X29736800Y-10431300D03*
%TO.N,HEAT_GATE_DRV*%
X12920000Y-28511600D03*
X38910900Y-8848600D03*
%TO.N,EFUSE_DVDT*%
X28844400Y-33368700D03*
X30131300Y-38627700D03*
%TO.N,VBUS_FUSED*%
X36285500Y-37078100D03*
X31332600Y-35567400D03*
D17*
%TO.N,VUSB*%
X29090000Y-30547900D03*
X39584000Y-31592300D03*
X33948300Y-36497800D03*
D16*
%TO.N,NTC_SENSE*%
X42400000Y-43800000D03*
X5300000Y-30300000D03*
%TO.N,VBUS_IN*%
X26350000Y-33146000D03*
X26350000Y-36085700D03*
%TO.N,USB_DP*%
X26500900Y-31359200D03*
X17684600Y-31314500D03*
X28102800Y-36132600D03*
X23701500Y-30329200D03*
%TO.N,KEY_PWR*%
X33614000Y-26941700D03*
X28826200Y-7077900D03*
%TO.N,MIC_SD*%
X14365500Y-11028300D03*
X18627600Y-5259400D03*
%TO.N,MIC_WS*%
X5624200Y-3649800D03*
X3225600Y-11030600D03*
%TO.N,MIC_SCK*%
X5306400Y-4747700D03*
X4650300Y-11032900D03*
%TO.N,AMP_SD*%
X38300200Y-31320200D03*
X36428000Y-35346800D03*
%TO.N,BOOT*%
X22546500Y-18742600D03*
D17*
%TO.N,HEAT_LOW*%
X39431800Y-15252600D03*
X40098300Y-27056800D03*
D16*
%TO.N,LCD_RST*%
X18047700Y-17825000D03*
X27997100Y-6916000D03*
%TO.N,LCD_CS*%
X21311800Y-8802200D03*
X16857100Y-14015000D03*
%TO.N,LCD_DC*%
X18047600Y-16555000D03*
X25721500Y-7013600D03*
%TO.N,LCD_CLK_S*%
X20537500Y-7056800D03*
X22547500Y-10731700D03*
%TO.N,LCD_BL*%
X20699400Y-5775000D03*
X24127500Y-9712800D03*
%TO.N,LCD_CLK*%
X17440100Y-13463200D03*
X21856300Y-11399500D03*
%TO.N,EN*%
X14534800Y-24756700D03*
X23624500Y-15714700D03*
%TO.N,SERVO_R_PWM*%
X27562700Y-8885200D03*
X43335000Y-22540000D03*
X38243800Y-10703700D03*
X25271500Y-25574100D03*
%TO.N,AMP_DIN*%
X34560600Y-31671000D03*
X15826700Y-17683500D03*
%TO.N,AMP_BCLK*%
X35114400Y-30837400D03*
X11573000Y-13454800D03*
%TO.N,AMP_LRCLK*%
X9110000Y-13481100D03*
X36441900Y-30691100D03*
%TO.N,I2C_SDA*%
X20957500Y-17513700D03*
X17757500Y-20600000D03*
X27543700Y-23607200D03*
X27775600Y-19189500D03*
X33502300Y-27843700D03*
%TD*%
%TO.N,GND*%
D18*
X41175000Y-19750000D02*
X41000000Y-19925000D01*
X41000000Y-19925000D02*
X41000000Y-22500000D01*
X32800000Y-33750000D02*
X32800000Y-34300000D01*
%TO.N,+3V3*%
X37050000Y-25500000D02*
X37050000Y-23950000D01*
X37050000Y-23950000D02*
X38500000Y-22500000D01*
%TO.N,CC1*%
D19*
X22556900Y-38021500D02*
X23826100Y-36752300D01*
X23525300Y-42652800D02*
X22556900Y-41684400D01*
X22556900Y-41684400D02*
X22556900Y-38021500D01*
%TO.N,CC_SENSE*%
X7618600Y-28526900D02*
X10118100Y-31026400D01*
X28435900Y-40935900D02*
X27788200Y-40935900D01*
X28750000Y-41250000D02*
X28435900Y-40935900D01*
X25294500Y-40935900D02*
X27788200Y-40935900D01*
X16419700Y-31026400D02*
X19412100Y-34018800D01*
X23664900Y-39306300D02*
X25294500Y-40935900D01*
X10118100Y-31026400D02*
X16419700Y-31026400D01*
%TO.N,VBAT*%
D20*
X20873900Y-33690800D02*
X21493300Y-33690800D01*
X13172200Y-41327800D02*
X9428900Y-41327800D01*
X27845300Y-27338800D02*
X28650800Y-27338800D01*
X21493300Y-33690800D02*
X27845300Y-27338800D01*
X14000000Y-40500000D02*
X14064700Y-40500000D01*
X21493300Y-31980900D02*
X21191600Y-31679200D01*
X21493300Y-33690800D02*
X21493300Y-31980900D01*
X14000000Y-40500000D02*
X13172200Y-41327800D01*
X14064700Y-40500000D02*
X20873900Y-33690800D01*
%TO.N,SPK_P*%
D21*
X38178700Y-34514500D02*
X38810000Y-35145800D01*
X38810000Y-35145800D02*
X38810000Y-41458200D01*
%TO.N,SPK_N*%
X40506400Y-35749600D02*
X40506400Y-39856100D01*
X38877900Y-34121100D02*
X40506400Y-35749600D01*
%TO.N,CC2*%
D19*
X23503400Y-40076700D02*
X24780000Y-41353300D01*
X25216600Y-41353300D02*
X25920500Y-42057200D01*
X35665400Y-38369200D02*
X34618400Y-38369200D01*
X36105500Y-39429700D02*
X36105500Y-38809300D01*
X29550800Y-42057200D02*
X30267600Y-41340400D01*
X34194800Y-41340400D02*
X36105500Y-39429700D01*
X24780000Y-41353300D02*
X25216600Y-41353300D01*
X25920500Y-42057200D02*
X29550800Y-42057200D01*
X30267600Y-41340400D02*
X34194800Y-41340400D01*
X36105500Y-38809300D02*
X35665400Y-38369200D01*
X34618400Y-38369200D02*
X34088100Y-38899500D01*
%TO.N,VBAT_SENSE*%
X16000000Y-43700000D02*
X19200000Y-43700000D01*
%TO.N,LCD_MOSI*%
X16180300Y-8701300D02*
X17131600Y-7750000D01*
X16180300Y-17240200D02*
X16180300Y-8701300D01*
X18035100Y-19095000D02*
X16180300Y-17240200D01*
%TO.N,VSYS*%
D20*
X33167000Y-15152200D02*
X31071300Y-13056500D01*
X29307700Y-29348700D02*
X27497900Y-29348700D01*
X34894900Y-18544600D02*
X36982300Y-20632000D01*
X45405000Y-11500000D02*
X47199500Y-9705500D01*
X37825000Y-19789300D02*
X36982300Y-20632000D01*
X42770000Y-37309700D02*
X42770000Y-38921700D01*
X39658700Y-38393400D02*
X39561700Y-38393400D01*
X42770000Y-38921700D02*
X41000000Y-40691700D01*
X24400000Y-28700000D02*
X24500000Y-28700000D01*
X30669800Y-26568100D02*
X30669800Y-27986600D01*
X34637300Y-39853200D02*
X35393200Y-39097300D01*
X34894900Y-15152200D02*
X33167000Y-15152200D01*
X30669800Y-27986600D02*
X32486600Y-27986600D01*
X23600000Y-26800000D02*
X24400000Y-28700000D01*
X30669800Y-27986600D02*
X29307700Y-29348700D01*
X47199500Y-9705500D02*
X47199500Y-7713000D01*
X28923400Y-39853200D02*
X34637300Y-39853200D01*
X27497900Y-29348700D02*
X26446200Y-30400400D01*
X26446200Y-30400400D02*
X26326000Y-30400400D01*
X37825000Y-19750000D02*
X37825000Y-19789300D01*
X25532300Y-36462100D02*
X28923400Y-39853200D01*
X41000000Y-40691700D02*
X40191400Y-40691700D01*
X34894900Y-15152200D02*
X34894900Y-18544600D01*
X24400000Y-24700000D02*
X23600000Y-26800000D01*
X40191400Y-40691700D02*
X39658700Y-40159000D01*
X39658700Y-38393400D02*
X39658700Y-35964900D01*
X25532300Y-31194100D02*
X25532300Y-36462100D01*
X26326000Y-30400400D02*
X25532300Y-31194100D01*
X39658700Y-40159000D02*
X39658700Y-38393400D01*
X32486600Y-27986600D02*
X33500000Y-29000000D01*
X29090000Y-24988300D02*
X30669800Y-26568100D01*
%TO.N,SERVO_L_PWM*%
D19*
X22059100Y-27183000D02*
X22059100Y-23190900D01*
X22059100Y-23190900D02*
X24319600Y-20930400D01*
X24319600Y-20930400D02*
X24319600Y-15080200D01*
X24319600Y-15080200D02*
X26202200Y-13197600D01*
X26202200Y-9138700D02*
X27062600Y-8278300D01*
X26202200Y-13197600D02*
X26202200Y-9138700D01*
%TO.N,KEY_MUTE*%
X13920700Y-24474200D02*
X13920700Y-28524500D01*
X15272900Y-9909900D02*
X15272900Y-23122000D01*
X15272900Y-23122000D02*
X13920700Y-24474200D01*
%TO.N,LCD_BL_PWM*%
X23624500Y-10434900D02*
X23624500Y-10431300D01*
X30518000Y-11212500D02*
X29736800Y-10431300D01*
X34943600Y-11212500D02*
X30518000Y-11212500D01*
X18024500Y-15284900D02*
X18774500Y-15284900D01*
X18024500Y-15285000D02*
X18024500Y-15284900D01*
X18774500Y-15284900D02*
X23624500Y-10434900D01*
X34943600Y-11212600D02*
X34943600Y-11212500D01*
%TO.N,HEAT_GATE_DRV*%
X12920000Y-18885700D02*
X8557000Y-14522700D01*
X34001300Y-3939000D02*
X38910900Y-8848600D01*
X12920000Y-28511600D02*
X12920000Y-18885700D01*
X8557000Y-14522700D02*
X8557000Y-13183600D01*
X8557000Y-13183600D02*
X17801600Y-3939000D01*
X17801600Y-3939000D02*
X34001300Y-3939000D01*
%TO.N,EFUSE_DVDT*%
X28844400Y-37340800D02*
X30131300Y-38627700D01*
X28844400Y-33368700D02*
X28844400Y-37340800D01*
%TO.N,VBUS_FUSED*%
D18*
X36285500Y-37078100D02*
X34774800Y-35567400D01*
X34774800Y-35567400D02*
X31332600Y-35567400D01*
%TO.N,VUSB*%
D20*
X29090000Y-31560700D02*
X30526300Y-32997000D01*
X36514900Y-34250000D02*
X39172600Y-31592300D01*
X31108600Y-36497800D02*
X33948300Y-36497800D01*
X39172600Y-31592300D02*
X39584000Y-31592300D01*
X34750000Y-34250000D02*
X36514900Y-34250000D01*
X29090000Y-30547900D02*
X29090000Y-31560700D01*
X30526300Y-32997000D02*
X30526300Y-35915500D01*
X33497000Y-32997000D02*
X30526300Y-32997000D01*
X34750000Y-34250000D02*
X33497000Y-32997000D01*
X30526300Y-35915500D02*
X31108600Y-36497800D01*
%TO.N,NTC_SENSE*%
D19*
X21400000Y-43800000D02*
X42400000Y-43800000D01*
X5300000Y-30300000D02*
X8600000Y-43100000D01*
X19600000Y-43100000D02*
X21400000Y-43800000D01*
X8600000Y-43100000D02*
X19600000Y-43100000D01*
%TO.N,VBUS_IN*%
D18*
X26350000Y-36085700D02*
X26350000Y-33146000D01*
%TO.N,USB_DP*%
D19*
X26500900Y-31359200D02*
X28102800Y-32961100D01*
X17684600Y-31314500D02*
X18669900Y-30329200D01*
X18669900Y-30329200D02*
X23701500Y-30329200D01*
X28102800Y-32961100D02*
X28102800Y-36132600D01*
%TO.N,KEY_PWR*%
X28129900Y-12599800D02*
X28129900Y-7774200D01*
X28430300Y-21758000D02*
X28430300Y-12900200D01*
X33614000Y-26941700D02*
X28430300Y-21758000D01*
X28430300Y-12900200D02*
X28129900Y-12599800D01*
X28129900Y-7774200D02*
X28826200Y-7077900D01*
%TO.N,MIC_SD*%
X14365500Y-11028300D02*
X14365500Y-9238400D01*
X18344500Y-5259400D02*
X18627600Y-5259400D01*
X14365500Y-9238400D02*
X18344500Y-5259400D01*
%TO.N,MIC_WS*%
X3225600Y-11030600D02*
X3225600Y-6048400D01*
X3225600Y-6048400D02*
X5624200Y-3649800D01*
%TO.N,MIC_SCK*%
X4650300Y-5403800D02*
X5306400Y-4747700D01*
X4650300Y-11032900D02*
X4650300Y-5403800D01*
%TO.N,AMP_SD*%
X38300200Y-31320200D02*
X38769600Y-30850800D01*
X39846500Y-30850800D02*
X40318100Y-31322400D01*
X39290500Y-32484300D02*
X36428000Y-35346800D01*
X40318100Y-31969500D02*
X39803300Y-32484300D01*
X38769600Y-30850800D02*
X39846500Y-30850800D01*
X39803300Y-32484300D02*
X39290500Y-32484300D01*
X40318100Y-31322400D02*
X40318100Y-31969500D01*
%TO.N,BOOT*%
X23500000Y-19000000D02*
X23242600Y-18742600D01*
X23242600Y-18742600D02*
X22546500Y-18742600D01*
%TO.N,HEAT_LOW*%
D20*
X39673900Y-24483900D02*
X40098300Y-24908300D01*
X40098300Y-24908300D02*
X40098300Y-27056800D01*
X39673900Y-15494700D02*
X39673900Y-24483900D01*
X39431800Y-15252600D02*
X39673900Y-15494700D01*
%TO.N,LCD_RST*%
D19*
X25540200Y-10332500D02*
X18047700Y-17825000D01*
X25540200Y-9020600D02*
X25540200Y-10332500D01*
X27997100Y-6916000D02*
X27644800Y-6916000D01*
X27644800Y-6916000D02*
X25540200Y-9020600D01*
%TO.N,LCD_CS*%
X16857100Y-13256900D02*
X21311800Y-8802200D01*
X16857100Y-14015000D02*
X16857100Y-13256900D01*
%TO.N,LCD_DC*%
X25134400Y-9729700D02*
X18309100Y-16555000D01*
X25134400Y-7600700D02*
X25134400Y-9729700D01*
X25721500Y-7013600D02*
X25134400Y-7600700D01*
X18309100Y-16555000D02*
X18047600Y-16555000D01*
%TO.N,LCD_CLK_S*%
X22547500Y-9066800D02*
X22547500Y-10731700D01*
X20537500Y-7056800D02*
X22547500Y-9066800D01*
%TO.N,LCD_BL*%
D18*
X20699400Y-5775000D02*
X20699400Y-6284700D01*
X20699400Y-6284700D02*
X24127500Y-9712800D01*
%TO.N,LCD_CLK*%
D19*
X17440100Y-13463200D02*
X19792600Y-13463200D01*
X19792600Y-13463200D02*
X21856300Y-11399500D01*
%TO.N,EN*%
X21530700Y-17760800D02*
X14534800Y-24756700D01*
X23624500Y-15714700D02*
X23500000Y-15590200D01*
X21530700Y-17424600D02*
X21530700Y-17760800D01*
X23365100Y-15590200D02*
X21530700Y-17424600D01*
X23500000Y-15590200D02*
X23365100Y-15590200D01*
X23500000Y-15590200D02*
X23500000Y-14500000D01*
%TO.N,SERVO_R_PWM*%
X27461100Y-21973400D02*
X25271500Y-24163000D01*
X27562700Y-18554100D02*
X27223800Y-18893000D01*
X27461100Y-20083600D02*
X27461100Y-21973400D01*
X25271500Y-24163000D02*
X25271500Y-25574100D01*
X43335000Y-22540000D02*
X43335000Y-15794900D01*
X27562700Y-8885200D02*
X27562700Y-18554100D01*
X27223800Y-18893000D02*
X27223800Y-19846300D01*
X43335000Y-15794900D02*
X38243800Y-10703700D01*
X27223800Y-19846300D02*
X27461100Y-20083600D01*
%TO.N,AMP_DIN*%
X19997600Y-5204900D02*
X27770800Y-5204900D01*
X27770800Y-5204900D02*
X29417900Y-6852000D01*
X29758200Y-17159800D02*
X30398400Y-17800000D01*
X29758200Y-13730700D02*
X29758200Y-17159800D01*
X18440600Y-6761900D02*
X19997600Y-5204900D01*
X28481600Y-12454100D02*
X29758200Y-13730700D01*
X15826700Y-8274500D02*
X17339300Y-6761900D01*
X29417900Y-6852000D02*
X29417900Y-7783400D01*
X30398400Y-17800000D02*
X30398400Y-22334100D01*
X15826700Y-17683500D02*
X15826700Y-8274500D01*
X29417900Y-7783400D02*
X28481600Y-8719700D01*
X28481600Y-8719700D02*
X28481600Y-12454100D01*
X34560600Y-26496300D02*
X34560600Y-31671000D01*
X30398400Y-22334100D02*
X34560600Y-26496300D01*
X17339300Y-6761900D02*
X18440600Y-6761900D01*
%TO.N,AMP_BCLK*%
X30750100Y-17479200D02*
X30750100Y-19398600D01*
X28833300Y-12308500D02*
X30140700Y-13615900D01*
X27770800Y-4707600D02*
X29769600Y-6706400D01*
X28833300Y-8970500D02*
X28833300Y-12308500D01*
X11573000Y-11533600D02*
X18399000Y-4707600D01*
X29769600Y-8034200D02*
X28833300Y-8970500D01*
X18399000Y-4707600D02*
X27770800Y-4707600D01*
X11573000Y-13454800D02*
X11573000Y-11533600D01*
X30140700Y-16869800D02*
X30750100Y-17479200D01*
X35114400Y-23762900D02*
X35114400Y-30837400D01*
X29769600Y-6706400D02*
X29769600Y-8034200D01*
X30750100Y-19398600D02*
X35114400Y-23762900D01*
X30140700Y-13615900D02*
X30140700Y-16869800D01*
%TO.N,AMP_LRCLK*%
X31101800Y-17333600D02*
X31101800Y-18755700D01*
X36441900Y-24095800D02*
X36441900Y-30691100D01*
X9110000Y-13481100D02*
X18265600Y-4325500D01*
X30585300Y-16817100D02*
X31101800Y-17333600D01*
X29185000Y-12162900D02*
X30585300Y-13563200D01*
X29185000Y-9116100D02*
X29185000Y-12162900D01*
X30121300Y-8179800D02*
X29185000Y-9116100D01*
X30121300Y-6560800D02*
X30121300Y-8179800D01*
X31101800Y-18755700D02*
X36441900Y-24095800D01*
X27886000Y-4325500D02*
X30121300Y-6560800D01*
X30585300Y-13563200D02*
X30585300Y-16817100D01*
X18265600Y-4325500D02*
X27886000Y-4325500D01*
%TO.N,I2C_SDA*%
X33502300Y-27843700D02*
X29265800Y-23607200D01*
X20957500Y-17513700D02*
X20843800Y-17513700D01*
X20843800Y-17513700D02*
X17757500Y-20600000D01*
X27847500Y-23607200D02*
X27543700Y-23607200D01*
X29265800Y-23607200D02*
X27847500Y-23607200D01*
X27847500Y-19261400D02*
X27775600Y-19189500D01*
X27847500Y-23607200D02*
X27847500Y-19261400D01*
%TD*%
M02*
