%TF.GenerationSoftware,KiCad,Pcbnew,10.0.6*%
%TF.CreationDate,2026-10-05T08:24:11-07:00*%
%TF.ProjectId,plush-toy-v2-A,706c7573-682d-4746-9f79-2d76322d412e,rev?*%
%TF.SameCoordinates,Original*%
%TF.FileFunction,Copper,L4,Bot*%
%TF.FilePolarity,Positive*%
%FSLAX46Y46*%
G04 Gerber Fmt 4.6, Leading zero omitted, Abs format (unit mm)*
G04 Created by KiCad (PCBNEW 10.0.6) date 2026-10-05 08:24:11*
%MOMM*%
%LPD*%
G01*
G04 APERTURE LIST*
%TA.AperFunction,HeatsinkPad*%
%ADD10C,0.600000*%
%TD*%
%TA.AperFunction,ComponentPad*%
%ADD11O,1.000000X2.100000*%
%TD*%
%TA.AperFunction,ComponentPad*%
%ADD12O,1.000000X1.600000*%
%TD*%
%TA.AperFunction,HeatsinkPad*%
%ADD13C,0.500000*%
%TD*%
%TA.AperFunction,HeatsinkPad*%
%ADD14R,0.500000X1.600000*%
%TD*%
%TA.AperFunction,SMDPad,CuDef*%
%ADD15C,1.000000*%
%TD*%
%TA.AperFunction,ViaPad*%
%ADD16C,0.600000*%
%TD*%
%TA.AperFunction,ViaPad*%
%ADD17C,0.800000*%
%TD*%
%TA.AperFunction,Conductor*%
%ADD18C,0.200000*%
%TD*%
%TA.AperFunction,Conductor*%
%ADD19C,0.400000*%
%TD*%
%TA.AperFunction,Conductor*%
%ADD20C,0.600000*%
%TD*%
G04 APERTURE END LIST*
D10*
%TO.P,U1,41*%
%TO.N,GND*%
X8510000Y-23900000D03*
X9910000Y-23900000D03*
X7810000Y-23200000D03*
X9210000Y-23200000D03*
X10610000Y-23200000D03*
X8510000Y-22500000D03*
X9910000Y-22500000D03*
X7810000Y-21800000D03*
X9210000Y-21800000D03*
X10610000Y-21800000D03*
X8510000Y-21100000D03*
X9910000Y-21100000D03*
%TD*%
D11*
%TO.P,J_USB,SH*%
%TO.N,GND*%
X24480000Y-38225000D03*
D12*
X24480000Y-42405000D03*
D11*
X33120000Y-38225000D03*
D12*
X33120000Y-42405000D03*
%TD*%
D13*
%TO.P,U_EFUSE,9*%
%TO.N,GND*%
X32800000Y-33750000D03*
D14*
X32800000Y-34300000D03*
D13*
X32800000Y-34850000D03*
%TD*%
D15*
%TO.P,TP_CC,1*%
%TO.N,CC_SENSE*%
X28750000Y-41250000D03*
%TD*%
%TO.P,TP_VUSB,1*%
%TO.N,VUSB*%
X34750000Y-34250000D03*
%TD*%
%TO.P,TP_GND,1*%
%TO.N,GND*%
X35500000Y-18500000D03*
%TD*%
%TO.P,TP_EN,1*%
%TO.N,EN*%
X23500000Y-14500000D03*
%TD*%
%TO.P,TP_3V3,1*%
%TO.N,+3V3*%
X35000000Y-16000000D03*
%TD*%
%TO.P,TP_VBAT,1*%
%TO.N,VBAT*%
X14250000Y-41000000D03*
%TD*%
%TO.P,TP_BOOT,1*%
%TO.N,BOOT*%
X23500000Y-19000000D03*
%TD*%
%TO.P,TP_VSYS,1*%
%TO.N,VSYS*%
X33500000Y-29000000D03*
%TD*%
D16*
%TO.N,EN*%
X14868300Y-25263600D03*
X22738500Y-15299300D03*
%TO.N,GND*%
X19000000Y-7000000D03*
X13000000Y-37600000D03*
X36710000Y-44750000D03*
X41500000Y-2540000D03*
X19500000Y-38825000D03*
X16982600Y-35291000D03*
X31000000Y-29000000D03*
X47700000Y-6500000D03*
X23678100Y-7022000D03*
X41050000Y-32025000D03*
X39800000Y-20350000D03*
X47405000Y-8960000D03*
X15750000Y-31520000D03*
X5075000Y-32800000D03*
X1490000Y-12250000D03*
X42250000Y-16200000D03*
X39910000Y-36750000D03*
X38000000Y-34000000D03*
X37405700Y-37830700D03*
X27000000Y-13290000D03*
X23200000Y-24990000D03*
X27050000Y-23750000D03*
X38250000Y-12050000D03*
X36300000Y-26100000D03*
X43980000Y-10000000D03*
X43200000Y-13750000D03*
X47859100Y-38988400D03*
X41500000Y-23770000D03*
X20710000Y-43000000D03*
X34000000Y-5495000D03*
X20460000Y-10500000D03*
X5250000Y-6000000D03*
X22500000Y-38270000D03*
X4410000Y-31400000D03*
X34100000Y-32360000D03*
X36250000Y-41250000D03*
X30650000Y-32990000D03*
X18000000Y-9250000D03*
X25680000Y-14500000D03*
X21210000Y-38000000D03*
X9730000Y-39750000D03*
X38000000Y-5495000D03*
X36360000Y-18700000D03*
X11960000Y-10000000D03*
X25701600Y-25871900D03*
X13536100Y-6278600D03*
X8290900Y-7011600D03*
X1490000Y-29750000D03*
X38791000Y-23517400D03*
X25680000Y-19000000D03*
X26581000Y-27199100D03*
X27350000Y-27600000D03*
X27300000Y-30300000D03*
X47405000Y-17460000D03*
X50136800Y-43406800D03*
X32350000Y-14925000D03*
D17*
%TO.N,VBAT*%
X20855800Y-30604200D03*
X8056700Y-41760700D03*
D16*
X23111700Y-34362800D03*
D17*
X16995700Y-37130000D03*
X27021100Y-28811000D03*
D16*
%TO.N,NTC_SENSE*%
X7632900Y-28534800D03*
X23304700Y-45179000D03*
%TO.N,+3V3*%
X23020000Y-16750000D03*
X1725000Y-32800000D03*
X33500000Y-12730000D03*
X40450000Y-17150000D03*
X28732600Y-13291000D03*
X1990000Y-31400000D03*
X51613200Y-43373200D03*
X21000000Y-41730000D03*
X41500000Y-4960000D03*
X2760000Y-29750000D03*
X12740000Y-8980000D03*
X42250000Y-18100000D03*
X39000000Y-5495000D03*
X36310000Y-13330000D03*
X18040000Y-10500000D03*
X22361600Y-7020700D03*
%TO.N,LCD_MOSI*%
X23512700Y-10760000D03*
X22040500Y-16716700D03*
%TO.N,CC_SENSE*%
X27788800Y-44387600D03*
X16572500Y-33792800D03*
X23283300Y-44388700D03*
%TO.N,BAT_NTC_SENSE*%
X13292600Y-40513000D03*
X16020200Y-38244000D03*
X9138500Y-30967200D03*
%TO.N,HEAT_GATE_DRV*%
X32508200Y-23684100D03*
X14869600Y-28294400D03*
%TO.N,KEY_MUTE*%
X10856700Y-7113300D03*
X12027900Y-31118700D03*
%TO.N,USB_DN*%
X25404800Y-40797900D03*
X18089000Y-31331600D03*
%TO.N,USB_DP*%
X29591100Y-38487500D03*
X25466700Y-32656200D03*
%TO.N,SERVO_L_PWM*%
X39369500Y-15036900D03*
X20539100Y-27985000D03*
X26989600Y-17608400D03*
X31361100Y-17608400D03*
%TO.N,SERVO_R_PWM*%
X43292600Y-9176600D03*
X45899900Y-23502900D03*
X22205500Y-26715000D03*
%TO.N,LCD_RST*%
X18041100Y-18111700D03*
X22308800Y-12576500D03*
%TO.N,LCD_DC*%
X25262900Y-9132700D03*
X26500000Y-7013500D03*
%TO.N,LCD_BL_PWM*%
X22135100Y-11472500D03*
X18047500Y-15285000D03*
X27948600Y-14000000D03*
X25045400Y-10341900D03*
%TO.N,LCD_CS*%
X27046600Y-8630400D03*
X19005400Y-13096600D03*
%TO.N,BOOT*%
X22542400Y-19258500D03*
X17472200Y-13461200D03*
X24502500Y-20471900D03*
%TO.N,LCD_CLK*%
X23354400Y-13179200D03*
X13008100Y-13455000D03*
X15153000Y-9855200D03*
X21826000Y-9855200D03*
%TO.N,AMP_DIN*%
X11650000Y-13464500D03*
X35215000Y-35289900D03*
%TO.N,AMP_BCLK*%
X25847000Y-30487700D03*
X10585900Y-13457600D03*
X21672600Y-28860400D03*
X35159000Y-32267200D03*
%TO.N,AMP_LRCLK*%
X20781200Y-11248300D03*
X34470000Y-24843400D03*
%TO.N,MIC_SD*%
X24148000Y-3021600D03*
X16200800Y-10613200D03*
%TO.N,I2C_SCL*%
X24015300Y-28338700D03*
X29434500Y-30807700D03*
X6165700Y-13630700D03*
%TO.N,MIC_SCK*%
X4030000Y-11035600D03*
X10097300Y-3982800D03*
%TO.N,MIC_WS*%
X6130400Y-3430800D03*
X2760000Y-11046400D03*
%TO.N,VSYS*%
X47405000Y-20000000D03*
X38400400Y-36302300D03*
X41050000Y-35375000D03*
X35270000Y-31000000D03*
X27350000Y-25700000D03*
X25150000Y-23750000D03*
X39411000Y-35645300D03*
X28477500Y-25156800D03*
X47405000Y-11500000D03*
%TO.N,KEY_PWR*%
X19610700Y-6251700D03*
X33591100Y-24855400D03*
%TO.N,CC1*%
X27613500Y-38504200D03*
X32358100Y-40470500D03*
%TO.N,LCD_CLK_S*%
X24621800Y-7019100D03*
X26760000Y-11460500D03*
%TO.N,LCD_BL*%
X29853400Y-9468700D03*
X29853400Y-4686000D03*
%TO.N,AMP_SD*%
X35981700Y-35330800D03*
X37952400Y-31681400D03*
D17*
%TO.N,VBAT_PACK*%
X19177200Y-35213400D03*
X23603400Y-31573300D03*
D16*
%TO.N,CC2*%
X29338600Y-39694800D03*
X30537300Y-38516100D03*
D17*
%TO.N,VUSB*%
X38592700Y-30403900D03*
X34049300Y-35861000D03*
X25898800Y-31791500D03*
%TD*%
%TO.N,EN*%
D18*
X20495400Y-25263600D02*
X14868300Y-25263600D01*
X25075800Y-20683200D02*
X20495400Y-25263600D01*
X23259800Y-17665200D02*
X25075800Y-19481200D01*
X21479800Y-16947700D02*
X22197300Y-17665200D01*
X22738500Y-15261500D02*
X22738500Y-15299300D01*
X22600200Y-15299300D02*
X21479800Y-16419700D01*
X22197300Y-17665200D02*
X23259800Y-17665200D01*
X25075800Y-19481200D02*
X25075800Y-20683200D01*
X21479800Y-16419700D02*
X21479800Y-16947700D01*
X23500000Y-14500000D02*
X22738500Y-15261500D01*
X22738500Y-15299300D02*
X22600200Y-15299300D01*
%TO.N,GND*%
D19*
X35700000Y-18700000D02*
X35500000Y-18500000D01*
X32800000Y-33750000D02*
X32800000Y-34300000D01*
X36360000Y-18700000D02*
X35700000Y-18700000D01*
%TO.N,VBAT*%
D20*
X14470600Y-41000000D02*
X16995700Y-38474900D01*
X24540300Y-30604200D02*
X20855800Y-30604200D01*
X16995700Y-38474900D02*
X16995700Y-37130000D01*
X14250000Y-41000000D02*
X13489400Y-41760600D01*
X27021100Y-28811000D02*
X26333500Y-28811000D01*
X13489400Y-41760600D02*
X8056700Y-41760600D01*
X8056700Y-41760600D02*
X8056700Y-41760700D01*
X14250000Y-41000000D02*
X14470600Y-41000000D01*
X26333500Y-28811000D02*
X24540300Y-30604200D01*
X24540300Y-32934200D02*
X23111700Y-34362800D01*
X24540300Y-30604200D02*
X24540300Y-32934200D01*
%TO.N,NTC_SENSE*%
D18*
X18737800Y-37326200D02*
X18783300Y-37326200D01*
X21551700Y-40094600D02*
X21551700Y-43515500D01*
X15199800Y-36101700D02*
X17513300Y-36101700D01*
X18783300Y-37326200D02*
X21551700Y-40094600D01*
X7632900Y-28534800D02*
X15199800Y-36101700D01*
X17513300Y-36101700D02*
X18737800Y-37326200D01*
X23215200Y-45179000D02*
X23304700Y-45179000D01*
X21551700Y-43515500D02*
X23215200Y-45179000D01*
%TO.N,+3V3*%
D19*
X35000000Y-14640000D02*
X35000000Y-16000000D01*
X36310000Y-13330000D02*
X35000000Y-14640000D01*
%TO.N,LCD_MOSI*%
D18*
X22910100Y-16198300D02*
X24288600Y-14819800D01*
X22558900Y-16198300D02*
X22910100Y-16198300D01*
X22040500Y-16716700D02*
X22558900Y-16198300D01*
X24288600Y-14819800D02*
X24288600Y-11535900D01*
X24288600Y-11535900D02*
X23512700Y-10760000D01*
%TO.N,CC_SENSE*%
X18883400Y-36974500D02*
X18995000Y-36974500D01*
X28750000Y-41250000D02*
X27788800Y-42211200D01*
X18995000Y-36974500D02*
X23283300Y-41262800D01*
X17737300Y-35828400D02*
X18883400Y-36974500D01*
X16572500Y-33792800D02*
X17737300Y-34957600D01*
X23283300Y-41262800D02*
X23283300Y-44388700D01*
X27788800Y-42211200D02*
X27788800Y-44387600D01*
X17737300Y-34957600D02*
X17737300Y-35828400D01*
%TO.N,BAT_NTC_SENSE*%
X9138500Y-30967200D02*
X9138500Y-36358900D01*
X15561600Y-38244000D02*
X16020200Y-38244000D01*
X13292600Y-40513000D02*
X15561600Y-38244000D01*
X9138500Y-36358900D02*
X13292600Y-40513000D01*
%TO.N,HEAT_GATE_DRV*%
X20783500Y-28540300D02*
X15115500Y-28540300D01*
X32508200Y-23684100D02*
X31963600Y-23139500D01*
X15115500Y-28540300D02*
X14869600Y-28294400D01*
X31963600Y-23139500D02*
X24212600Y-23139500D01*
X21645700Y-27678100D02*
X20783500Y-28540300D01*
X24212600Y-23139500D02*
X21645700Y-25706400D01*
X21645700Y-25706400D02*
X21645700Y-27678100D01*
%TO.N,KEY_MUTE*%
X5177300Y-12792700D02*
X10856700Y-7113300D01*
X5177300Y-24268100D02*
X5177300Y-12792700D01*
X12027900Y-31118700D02*
X5177300Y-24268100D01*
%TO.N,USB_DN*%
X21948300Y-38506600D02*
X21948300Y-37919300D01*
X18089000Y-35682800D02*
X18089000Y-31331600D01*
X24239600Y-40797900D02*
X21948300Y-38506600D01*
X25404800Y-40797900D02*
X24239600Y-40797900D01*
X19029000Y-36622800D02*
X18089000Y-35682800D01*
X21948300Y-37919300D02*
X20651800Y-36622800D01*
X20651800Y-36622800D02*
X19029000Y-36622800D01*
%TO.N,USB_DP*%
X29591100Y-36780600D02*
X29591100Y-38487500D01*
X25466700Y-32656200D02*
X29591100Y-36780600D01*
%TO.N,SERVO_L_PWM*%
X20539100Y-27985000D02*
X20539100Y-25717200D01*
X26989600Y-19266700D02*
X26989600Y-17608400D01*
X31361100Y-17608400D02*
X36798000Y-17608400D01*
X36798000Y-17608400D02*
X39369500Y-15036900D01*
X20539100Y-25717200D02*
X26989600Y-19266700D01*
%TO.N,SERVO_R_PWM*%
X41670700Y-10798500D02*
X41670700Y-19273700D01*
X41670700Y-19273700D02*
X45899900Y-23502900D01*
X35197600Y-25746800D02*
X33652700Y-25746800D01*
X41670700Y-19273700D02*
X35197600Y-25746800D01*
X22764100Y-26715000D02*
X22205500Y-26715000D01*
X24935800Y-24543300D02*
X22764100Y-26715000D01*
X33652700Y-25746800D02*
X32449200Y-24543300D01*
X43292600Y-9176600D02*
X41670700Y-10798500D01*
X32449200Y-24543300D02*
X24935800Y-24543300D01*
%TO.N,LCD_RST*%
X18041100Y-18111700D02*
X22308800Y-13844000D01*
X22308800Y-13844000D02*
X22308800Y-12576500D01*
%TO.N,LCD_DC*%
X27281000Y-9228300D02*
X27605000Y-8904300D01*
X25358500Y-9228300D02*
X27281000Y-9228300D01*
X25262900Y-9132700D02*
X25358500Y-9228300D01*
X27605000Y-8118500D02*
X26500000Y-7013500D01*
X27605000Y-8904300D02*
X27605000Y-8118500D01*
%TO.N,LCD_BL_PWM*%
X25045400Y-10540000D02*
X25045400Y-10341900D01*
X27948600Y-14000000D02*
X27948600Y-13443200D01*
X27948600Y-13443200D02*
X25045400Y-10540000D01*
X18047500Y-15285000D02*
X18322600Y-15285000D01*
X18322600Y-15285000D02*
X22135100Y-11472500D01*
%TO.N,LCD_CS*%
X19005400Y-13096600D02*
X19005400Y-9566200D01*
X19005400Y-9566200D02*
X22138100Y-6433500D01*
X24849700Y-6433500D02*
X27046600Y-8630400D01*
X22138100Y-6433500D02*
X24849700Y-6433500D01*
%TO.N,BOOT*%
X18389100Y-19258500D02*
X17472200Y-18341600D01*
X23241500Y-19258500D02*
X22542400Y-19258500D01*
X22542400Y-19258500D02*
X18389100Y-19258500D01*
X23500000Y-19000000D02*
X23241500Y-19258500D01*
X17472200Y-18341600D02*
X17472200Y-13461200D01*
X24502500Y-20471900D02*
X23500000Y-19469400D01*
X23500000Y-19469400D02*
X23500000Y-19000000D01*
%TO.N,LCD_CLK*%
X23354400Y-11383600D02*
X21826000Y-9855200D01*
X13008100Y-12000100D02*
X13008100Y-13455000D01*
X23354400Y-13179200D02*
X23354400Y-11383600D01*
X15153000Y-9855200D02*
X13008100Y-12000100D01*
%TO.N,AMP_DIN*%
X19018800Y-36115300D02*
X18440700Y-35537200D01*
X18440700Y-35537200D02*
X18440700Y-31960600D01*
X5599300Y-13387300D02*
X6105200Y-12881400D01*
X18440700Y-31960600D02*
X18654100Y-31747200D01*
X24399700Y-39790000D02*
X23464200Y-38854500D01*
X23464200Y-38854500D02*
X23464200Y-38452100D01*
X11066900Y-12881400D02*
X11650000Y-13464500D01*
X17661800Y-30043700D02*
X13346400Y-30043700D01*
X6105200Y-12881400D02*
X11066900Y-12881400D01*
X13346400Y-30043700D02*
X5599300Y-22296600D01*
X18654100Y-31036000D02*
X17661800Y-30043700D01*
X28664400Y-44993100D02*
X27582800Y-44993100D01*
X27148700Y-44559000D02*
X27148700Y-41756400D01*
X23464200Y-38452100D02*
X21127400Y-36115300D01*
X5599300Y-22296600D02*
X5599300Y-13387300D01*
X27582800Y-44993100D02*
X27148700Y-44559000D01*
X18654100Y-31747200D02*
X18654100Y-31036000D01*
X27148700Y-41756400D02*
X25182300Y-39790000D01*
X25182300Y-39790000D02*
X24399700Y-39790000D01*
X35215000Y-38442500D02*
X28664400Y-44993100D01*
X35215000Y-35289900D02*
X35215000Y-38442500D01*
X21127400Y-36115300D02*
X19018800Y-36115300D01*
%TO.N,AMP_BCLK*%
X34599600Y-31707800D02*
X27067100Y-31707800D01*
X14692700Y-28948300D02*
X21584700Y-28948300D01*
X12451500Y-26707100D02*
X14692700Y-28948300D01*
X35159000Y-32267200D02*
X34599600Y-31707800D01*
X12451500Y-15323200D02*
X12451500Y-26707100D01*
X10585900Y-13457600D02*
X12451500Y-15323200D01*
X27067100Y-31707800D02*
X25847000Y-30487700D01*
X21584700Y-28948300D02*
X21672600Y-28860400D01*
%TO.N,AMP_LRCLK*%
X21568500Y-9299000D02*
X22869400Y-9299000D01*
X34470000Y-23619800D02*
X34470000Y-24843400D01*
X20781200Y-11248300D02*
X21178500Y-10851000D01*
X26231700Y-12661300D02*
X26231700Y-15381500D01*
X21178500Y-9689000D02*
X21568500Y-9299000D01*
X22869400Y-9299000D02*
X26231700Y-12661300D01*
X21178500Y-10851000D02*
X21178500Y-9689000D01*
X26231700Y-15381500D02*
X34470000Y-23619800D01*
%TO.N,MIC_SD*%
X18274900Y-8190300D02*
X16200800Y-10264400D01*
X18979300Y-8190300D02*
X18274900Y-8190300D01*
X16200800Y-10264400D02*
X16200800Y-10613200D01*
X24148000Y-3021600D02*
X18979300Y-8190300D01*
%TO.N,I2C_SCL*%
X24015300Y-28338700D02*
X23267400Y-29086600D01*
X25733900Y-26620100D02*
X24015300Y-28338700D01*
X23267400Y-29086600D02*
X22226500Y-29086600D01*
X6165700Y-22361600D02*
X6165700Y-13630700D01*
X21868700Y-29444500D02*
X13248600Y-29444500D01*
X13248600Y-29444500D02*
X6165700Y-22361600D01*
X29434500Y-28877400D02*
X27177200Y-26620100D01*
X27177200Y-26620100D02*
X25733900Y-26620100D01*
X29434500Y-30807700D02*
X29434500Y-28877400D01*
X22226500Y-29086700D02*
X21868700Y-29444500D01*
X22226500Y-29086600D02*
X22226500Y-29086700D01*
%TO.N,MIC_SCK*%
X4030000Y-11035600D02*
X4030000Y-10050100D01*
X4030000Y-10050100D02*
X10097300Y-3982800D01*
%TO.N,MIC_WS*%
X2760000Y-11046400D02*
X2760000Y-6801200D01*
X2760000Y-6801200D02*
X6130400Y-3430800D01*
%TO.N,VSYS*%
D20*
X33500000Y-29230000D02*
X33500000Y-29000000D01*
X35270000Y-31000000D02*
X33500000Y-29230000D01*
%TO.N,KEY_PWR*%
D18*
X34698500Y-25395100D02*
X34130800Y-25395100D01*
X19610700Y-6251700D02*
X23393500Y-2468900D01*
X28684900Y-6750700D02*
X28684900Y-9228100D01*
X35026400Y-25067200D02*
X34698500Y-25395100D01*
X28684900Y-9228100D02*
X29303200Y-9846400D01*
X24403100Y-2468900D02*
X28684900Y-6750700D01*
X29303200Y-9846400D02*
X29303200Y-16495000D01*
X23393500Y-2468900D02*
X24403100Y-2468900D01*
X35026400Y-22218200D02*
X35026400Y-25067200D01*
X34130800Y-25395100D02*
X33591100Y-24855400D01*
X29303200Y-16495000D02*
X35026400Y-22218200D01*
%TO.N,CC1*%
X27613500Y-38504200D02*
X27613500Y-38749800D01*
X29334100Y-40470400D02*
X32358100Y-40470400D01*
X32358100Y-40470400D02*
X32358100Y-40470500D01*
X27613500Y-38749800D02*
X29334100Y-40470400D01*
%TO.N,LCD_CLK_S*%
X25257800Y-9774100D02*
X25088000Y-9774100D01*
X25088000Y-9774100D02*
X24621800Y-9307900D01*
X26760000Y-11276300D02*
X25257800Y-9774100D01*
X24621800Y-9307900D02*
X24621800Y-7019100D01*
X26760000Y-11460500D02*
X26760000Y-11276300D01*
%TO.N,LCD_BL*%
D19*
X29853400Y-9468700D02*
X29853400Y-4686000D01*
%TO.N,AMP_SD*%
D18*
X35981700Y-33652100D02*
X35981700Y-35330800D01*
X37952400Y-31681400D02*
X35981700Y-33652100D01*
%TO.N,VBAT_PACK*%
D20*
X19177200Y-35213400D02*
X22817300Y-31573300D01*
X22817300Y-31573300D02*
X23603400Y-31573300D01*
%TO.N,CC2*%
D18*
X29338600Y-39694800D02*
X29358600Y-39694800D01*
X29358600Y-39694800D02*
X30537300Y-38516100D01*
%TO.N,VUSB*%
D20*
X34750000Y-34250000D02*
X34750000Y-33810000D01*
X34049300Y-35861000D02*
X29968300Y-35861000D01*
X34750000Y-33810000D02*
X35960700Y-32599300D01*
X35960700Y-32599300D02*
X35960700Y-32538500D01*
X34049300Y-34950700D02*
X34049300Y-35861000D01*
X29968300Y-35861000D02*
X25898800Y-31791500D01*
X35960700Y-32538500D02*
X38095300Y-30403900D01*
X34750000Y-34250000D02*
X34049300Y-34950700D01*
X38095300Y-30403900D02*
X38592700Y-30403900D01*
%TD*%
M02*
