M48
; DRILL file KiCad 10.0.6 date 2026-10-05T06:08:17
; FORMAT={-:-/ absolute / metric / decimal}
; #@! TF.CreationDate,2026-10-05T06:08:17-07:00
; #@! TF.GenerationSoftware,Kicad,Pcbnew,10.0.6
; #@! TF.FileFunction,Plated,1,4,PTH
FMAT,2
METRIC
; #@! TA.AperFunction,Plated,PTH,ComponentDrill
T1C0.200
; #@! TA.AperFunction,Plated,PTH,ViaDrill
T2C0.300
; #@! TA.AperFunction,Plated,PTH,ViaDrill
T3C0.400
; #@! TA.AperFunction,Plated,PTH,ComponentDrill
T4C0.600
%
G90
G05
T1
X7.81Y-21.8
X7.81Y-23.2
X8.51Y-21.1
X8.51Y-22.5
X8.51Y-23.9
X9.21Y-21.8
X9.21Y-23.2
X9.91Y-21.1
X9.91Y-22.5
X9.91Y-23.9
X10.61Y-21.8
X10.61Y-23.2
X32.8Y-33.75
X32.8Y-34.85
T2
X1.49Y-12.25
X1.49Y-29.75
X2.76Y-29.75
X3.627Y-31.228
X4.79Y-31.5
X4.792Y-24.711
X5.25Y-6.0
X5.371Y-13.475
X6.48Y-32.26
X6.669Y-11.032
X7.325Y-31.75
X7.387Y-7.157
X7.522Y-30.975
X8.041Y-11.048
X8.291Y-7.012
X9.363Y-42.407
X9.48Y-39.25
X10.276Y-10.232
X10.557Y-13.467
X10.675Y-31.75
X12.46Y-34.5
X13.536Y-6.279
X15.0Y-37.555
X15.433Y-30.954
X15.464Y-19.095
X15.519Y-3.303
X15.945Y-11.037
X16.039Y-16.71
X16.347Y-28.533
X16.347Y-37.017
X16.694Y-17.825
X16.75Y-10.98
X17.058Y-23.652
X17.257Y-14.388
X17.49Y-7.812
X17.972Y-16.16
X18.024Y-15.285
X18.035Y-13.81
X18.401Y-41.304
X18.603Y-3.478
X18.627Y-43.887
X18.82Y-37.017
X18.85Y-9.3
X19.0Y-7.0
X19.245Y-29.596
X19.586Y-12.445
X20.0Y-8.79
X20.0Y-11.21
X20.0Y-38.825
X20.02Y-42.444
X20.474Y-28.737
X20.51Y-38.27
X20.89Y-4.734
X20.956Y-17.514
X21.291Y-34.767
X21.593Y-43.863
X22.026Y-26.715
X22.17Y-8.394
X22.362Y-7.021
X22.545Y-18.767
X22.761Y-10.492
X22.77Y-21.5
X23.0Y-23.54
X23.0Y-25.96
X23.02Y-16.75
X23.23Y-44.75
X23.25Y-41.0
X23.343Y-27.887
X23.505Y-37.694
X23.585Y-15.754
X23.678Y-7.022
X24.5Y-26.8
X25.079Y-7.743
X25.276Y-20.564
X25.297Y-35.53
X25.317Y-31.76
X25.68Y-14.5
X25.68Y-19.0
X25.837Y-7.01
X26.051Y-20.419
X26.449Y-22.179
X26.45Y-24.5
X26.896Y-21.382
X26.993Y-40.699
X27.0Y-13.29
X27.0Y-18.27
X27.156Y-9.187
X27.25Y-26.55
X27.25Y-29.575
X27.543Y-23.588
X27.861Y-38.678
X27.863Y-19.147
X28.002Y-11.75
X28.051Y-6.993
X28.14Y-10.492
X28.559Y-42.216
X28.743Y-35.652
X29.02Y-14.0
X29.578Y-35.764
X29.604Y-5.77
X29.8Y-18.0
X30.169Y-6.269
X31.0Y-29.0
X31.09Y-35.139
X31.407Y-15.113
X31.7Y-18.0
X31.76Y-17.02
X32.73Y-12.0
X32.901Y-30.728
X33.205Y-10.182
X33.71Y-13.25
X33.728Y-31.731
X34.0Y-5.495
X34.28Y-32.25
X34.384Y-28.465
X34.529Y-25.034
X34.794Y-11.227
X35.255Y-31.562
X36.116Y-11.223
X36.116Y-14.716
X36.201Y-26.547
X36.25Y-17.25
X36.25Y-22.5
X36.6Y-33.0
X36.73Y-37.75
X36.95Y-13.75
X36.98Y-12.0
X37.05Y-25.5
X37.5Y-28.05
X37.925Y-36.25
X37.951Y-15.178
X38.0Y-5.495
X38.233Y-17.041
X38.95Y-25.5
X39.0Y-5.495
X39.274Y-38.046
X39.766Y-28.147
X40.597Y-32.633
X41.175Y-19.75
X41.5Y-2.54
X41.5Y-4.96
X41.593Y-37.137
X43.96Y-38.0
X44.95Y-6.5
X45.405Y-8.96
X45.405Y-17.46
X47.859Y-38.988
X48.7Y-6.25
X50.75Y-38.54
X51.0Y-43.48
T3
X9.304Y-41.314
X20.918Y-31.027
X21.609Y-33.582
X25.586Y-27.791
X25.9Y-25.852
X28.72Y-27.622
X29.09Y-24.988
X29.717Y-30.592
X30.99Y-13.009
X33.542Y-35.81
X35.05Y-15.143
X36.064Y-21.55
X37.825Y-19.75
X37.962Y-35.2
X38.966Y-30.75
X40.27Y-33.51
X40.521Y-24.188
X44.501Y-15.699
X44.732Y-28.25
X45.405Y-11.5
X45.405Y-20.0
T4
X24.48Y-37.675G85X24.48Y-38.775
G05
X24.48Y-42.105G85X24.48Y-42.705
G05
X33.12Y-37.675G85X33.12Y-38.775
G05
X33.12Y-42.105G85X33.12Y-42.705
G05
M30
