M48
; DRILL file KiCad 10.0.6 date 2026-10-05T06:20:28
; FORMAT={-:-/ absolute / metric / decimal}
; #@! TF.CreationDate,2026-10-05T06:20:28-07:00
; #@! TF.GenerationSoftware,Kicad,Pcbnew,10.0.6
; #@! TF.FileFunction,Plated,1,4,PTH
FMAT,2
METRIC
; #@! TA.AperFunction,Plated,PTH,ComponentDrill
T1C0.200
; #@! TA.AperFunction,Plated,PTH,ViaDrill
T2C0.300
; #@! TA.AperFunction,Plated,PTH,ViaDrill
T3C0.400
; #@! TA.AperFunction,Plated,PTH,ComponentDrill
T4C0.600
%
G90
G05
T1
X7.81Y-21.8
X7.81Y-23.2
X8.51Y-21.1
X8.51Y-22.5
X8.51Y-23.9
X9.21Y-21.8
X9.21Y-23.2
X9.91Y-21.1
X9.91Y-22.5
X9.91Y-23.9
X10.61Y-21.8
X10.61Y-23.2
X32.8Y-33.75
X32.8Y-34.85
T2
X1.49Y-12.25
X1.49Y-29.75
X2.76Y-29.75
X3.226Y-11.031
X4.65Y-11.033
X4.79Y-31.5
X5.25Y-6.0
X5.3Y-30.3
X5.306Y-4.748
X5.624Y-3.65
X6.48Y-32.26
X7.325Y-31.75
X7.387Y-7.157
X7.619Y-28.527
X8.291Y-7.012
X9.11Y-13.481
X9.48Y-39.25
X10.675Y-31.75
X11.573Y-13.455
X12.46Y-34.5
X12.92Y-28.512
X13.536Y-6.279
X13.921Y-28.524
X14.365Y-11.028
X14.535Y-24.757
X15.0Y-37.555
X15.273Y-9.91
X15.827Y-17.683
X16.0Y-43.7
X16.75Y-10.98
X16.857Y-14.015
X17.132Y-7.75
X17.44Y-13.463
X17.685Y-31.314
X17.758Y-20.6
X18.024Y-15.285
X18.035Y-19.095
X18.048Y-16.555
X18.048Y-17.825
X18.628Y-5.259
X18.637Y-42.157
X18.85Y-9.3
X19.0Y-7.0
X19.2Y-43.7
X19.412Y-34.019
X20.0Y-8.79
X20.0Y-11.21
X20.0Y-38.825
X20.537Y-7.057
X20.699Y-5.775
X20.73Y-42.26
X20.957Y-17.514
X21.123Y-38.113
X21.25Y-43.04
X21.291Y-34.767
X21.312Y-8.802
X21.856Y-11.399
X22.059Y-27.183
X22.362Y-7.021
X22.546Y-18.743
X22.547Y-10.732
X22.77Y-21.5
X23.0Y-23.54
X23.0Y-25.96
X23.02Y-16.75
X23.113Y-38.377
X23.503Y-40.077
X23.525Y-42.653
X23.624Y-10.431
X23.624Y-15.715
X23.665Y-39.306
X23.678Y-7.022
X23.701Y-30.329
X23.826Y-36.752
X24.127Y-9.713
X24.5Y-26.8
X25.271Y-25.574
X25.276Y-20.564
X25.68Y-14.5
X25.68Y-19.0
X25.721Y-7.014
X26.051Y-20.419
X26.35Y-33.146
X26.35Y-36.086
X26.449Y-22.179
X26.45Y-24.5
X26.501Y-31.359
X26.896Y-21.382
X27.0Y-13.29
X27.0Y-18.27
X27.063Y-8.278
X27.25Y-26.55
X27.544Y-23.607
X27.563Y-8.885
X27.75Y-30.77
X27.776Y-19.189
X27.788Y-40.936
X27.997Y-6.916
X28.103Y-36.133
X28.826Y-7.078
X28.844Y-33.369
X29.02Y-14.0
X29.737Y-10.431
X29.8Y-18.0
X30.131Y-38.628
X31.0Y-29.0
X31.333Y-35.567
X31.407Y-15.113
X31.7Y-18.0
X31.76Y-17.02
X32.73Y-12.0
X33.205Y-10.182
X33.502Y-27.844
X33.614Y-26.942
X33.71Y-13.25
X34.0Y-5.495
X34.088Y-38.899
X34.561Y-31.671
X34.944Y-11.213
X35.114Y-30.837
X36.25Y-17.25
X36.25Y-22.5
X36.25Y-41.25
X36.285Y-37.078
X36.428Y-35.347
X36.442Y-30.691
X36.6Y-33.0
X36.95Y-13.75
X36.98Y-12.0
X37.05Y-25.5
X37.5Y-28.05
X37.925Y-36.25
X37.925Y-38.0
X38.0Y-5.495
X38.179Y-34.514
X38.233Y-17.041
X38.244Y-10.704
X38.3Y-31.32
X38.81Y-41.458
X38.878Y-34.121
X38.911Y-8.849
X38.95Y-25.5
X39.0Y-5.495
X40.506Y-39.856
X41.0Y-35.04
X41.175Y-19.75
X41.48Y-39.01
X41.5Y-2.54
X41.5Y-4.96
X42.4Y-43.8
X43.25Y-42.54
X43.335Y-22.54
X44.46Y-38.25
X44.95Y-6.5
X45.405Y-8.96
X45.405Y-17.46
X47.859Y-38.988
X48.7Y-6.25
X51.0Y-43.48
T3
X9.429Y-41.328
X21.192Y-31.679
X21.493Y-33.691
X24.4Y-24.7
X24.5Y-28.7
X26.446Y-30.4
X28.651Y-27.339
X29.09Y-24.988
X29.09Y-30.548
X31.071Y-13.056
X33.948Y-36.498
X34.895Y-15.152
X35.393Y-39.097
X36.982Y-20.632
X37.825Y-19.75
X39.432Y-15.253
X39.562Y-38.393
X39.584Y-31.592
X39.659Y-35.965
X40.098Y-27.057
X40.27Y-33.51
X40.521Y-24.188
X42.77Y-37.31
X45.405Y-11.5
X45.405Y-20.0
X47.2Y-7.713
T4
X24.48Y-37.675G85X24.48Y-38.775
G05
X24.48Y-42.105G85X24.48Y-42.705
G05
X33.12Y-37.675G85X33.12Y-38.775
G05
X33.12Y-42.105G85X33.12Y-42.705
G05
M30
