%TF.GenerationSoftware,KiCad,Pcbnew,10.0.6*%
%TF.CreationDate,2026-10-05T08:24:11-07:00*%
%TF.ProjectId,plush-toy-v2-A,706c7573-682d-4746-9f79-2d76322d412e,rev?*%
%TF.SameCoordinates,Original*%
%TF.FileFunction,Legend,Bot*%
%TF.FilePolarity,Positive*%
%FSLAX46Y46*%
G04 Gerber Fmt 4.6, Leading zero omitted, Abs format (unit mm)*
G04 Created by KiCad (PCBNEW 10.0.6) date 2026-10-05 08:24:11*
%MOMM*%
%LPD*%
G01*
G04 APERTURE LIST*
%ADD10C,0.150000*%
%ADD11C,0.120000*%
%ADD12C,2.200000*%
%ADD13C,0.650000*%
%ADD14O,1.000000X2.100000*%
%ADD15O,1.000000X1.600000*%
%ADD16C,1.000000*%
G04 APERTURE END LIST*
D10*
X30483333Y-42812295D02*
X30026190Y-42812295D01*
X30254762Y-43612295D02*
X30254762Y-42812295D01*
X29759523Y-43612295D02*
X29759523Y-42812295D01*
X29759523Y-42812295D02*
X29454761Y-42812295D01*
X29454761Y-42812295D02*
X29378571Y-42850390D01*
X29378571Y-42850390D02*
X29340476Y-42888485D01*
X29340476Y-42888485D02*
X29302380Y-42964676D01*
X29302380Y-42964676D02*
X29302380Y-43078961D01*
X29302380Y-43078961D02*
X29340476Y-43155152D01*
X29340476Y-43155152D02*
X29378571Y-43193247D01*
X29378571Y-43193247D02*
X29454761Y-43231342D01*
X29454761Y-43231342D02*
X29759523Y-43231342D01*
X29150000Y-43688485D02*
X28540476Y-43688485D01*
X27892856Y-43536104D02*
X27930952Y-43574200D01*
X27930952Y-43574200D02*
X28045237Y-43612295D01*
X28045237Y-43612295D02*
X28121428Y-43612295D01*
X28121428Y-43612295D02*
X28235714Y-43574200D01*
X28235714Y-43574200D02*
X28311904Y-43498009D01*
X28311904Y-43498009D02*
X28349999Y-43421819D01*
X28349999Y-43421819D02*
X28388095Y-43269438D01*
X28388095Y-43269438D02*
X28388095Y-43155152D01*
X28388095Y-43155152D02*
X28349999Y-43002771D01*
X28349999Y-43002771D02*
X28311904Y-42926580D01*
X28311904Y-42926580D02*
X28235714Y-42850390D01*
X28235714Y-42850390D02*
X28121428Y-42812295D01*
X28121428Y-42812295D02*
X28045237Y-42812295D01*
X28045237Y-42812295D02*
X27930952Y-42850390D01*
X27930952Y-42850390D02*
X27892856Y-42888485D01*
X27092856Y-43536104D02*
X27130952Y-43574200D01*
X27130952Y-43574200D02*
X27245237Y-43612295D01*
X27245237Y-43612295D02*
X27321428Y-43612295D01*
X27321428Y-43612295D02*
X27435714Y-43574200D01*
X27435714Y-43574200D02*
X27511904Y-43498009D01*
X27511904Y-43498009D02*
X27549999Y-43421819D01*
X27549999Y-43421819D02*
X27588095Y-43269438D01*
X27588095Y-43269438D02*
X27588095Y-43155152D01*
X27588095Y-43155152D02*
X27549999Y-43002771D01*
X27549999Y-43002771D02*
X27511904Y-42926580D01*
X27511904Y-42926580D02*
X27435714Y-42850390D01*
X27435714Y-42850390D02*
X27321428Y-42812295D01*
X27321428Y-42812295D02*
X27245237Y-42812295D01*
X27245237Y-42812295D02*
X27130952Y-42850390D01*
X27130952Y-42850390D02*
X27092856Y-42888485D01*
X41226190Y-33812295D02*
X40769047Y-33812295D01*
X40997619Y-34612295D02*
X40997619Y-33812295D01*
X40502380Y-34612295D02*
X40502380Y-33812295D01*
X40502380Y-33812295D02*
X40197618Y-33812295D01*
X40197618Y-33812295D02*
X40121428Y-33850390D01*
X40121428Y-33850390D02*
X40083333Y-33888485D01*
X40083333Y-33888485D02*
X40045237Y-33964676D01*
X40045237Y-33964676D02*
X40045237Y-34078961D01*
X40045237Y-34078961D02*
X40083333Y-34155152D01*
X40083333Y-34155152D02*
X40121428Y-34193247D01*
X40121428Y-34193247D02*
X40197618Y-34231342D01*
X40197618Y-34231342D02*
X40502380Y-34231342D01*
X39892857Y-34688485D02*
X39283333Y-34688485D01*
X39207142Y-33812295D02*
X38940475Y-34612295D01*
X38940475Y-34612295D02*
X38673809Y-33812295D01*
X38407142Y-33812295D02*
X38407142Y-34459914D01*
X38407142Y-34459914D02*
X38369047Y-34536104D01*
X38369047Y-34536104D02*
X38330952Y-34574200D01*
X38330952Y-34574200D02*
X38254761Y-34612295D01*
X38254761Y-34612295D02*
X38102380Y-34612295D01*
X38102380Y-34612295D02*
X38026190Y-34574200D01*
X38026190Y-34574200D02*
X37988095Y-34536104D01*
X37988095Y-34536104D02*
X37949999Y-34459914D01*
X37949999Y-34459914D02*
X37949999Y-33812295D01*
X37607143Y-34574200D02*
X37492857Y-34612295D01*
X37492857Y-34612295D02*
X37302381Y-34612295D01*
X37302381Y-34612295D02*
X37226190Y-34574200D01*
X37226190Y-34574200D02*
X37188095Y-34536104D01*
X37188095Y-34536104D02*
X37150000Y-34459914D01*
X37150000Y-34459914D02*
X37150000Y-34383723D01*
X37150000Y-34383723D02*
X37188095Y-34307533D01*
X37188095Y-34307533D02*
X37226190Y-34269438D01*
X37226190Y-34269438D02*
X37302381Y-34231342D01*
X37302381Y-34231342D02*
X37454762Y-34193247D01*
X37454762Y-34193247D02*
X37530952Y-34155152D01*
X37530952Y-34155152D02*
X37569047Y-34117057D01*
X37569047Y-34117057D02*
X37607143Y-34040866D01*
X37607143Y-34040866D02*
X37607143Y-33964676D01*
X37607143Y-33964676D02*
X37569047Y-33888485D01*
X37569047Y-33888485D02*
X37530952Y-33850390D01*
X37530952Y-33850390D02*
X37454762Y-33812295D01*
X37454762Y-33812295D02*
X37264285Y-33812295D01*
X37264285Y-33812295D02*
X37150000Y-33850390D01*
X36540476Y-34193247D02*
X36426190Y-34231342D01*
X36426190Y-34231342D02*
X36388095Y-34269438D01*
X36388095Y-34269438D02*
X36349999Y-34345628D01*
X36349999Y-34345628D02*
X36349999Y-34459914D01*
X36349999Y-34459914D02*
X36388095Y-34536104D01*
X36388095Y-34536104D02*
X36426190Y-34574200D01*
X36426190Y-34574200D02*
X36502380Y-34612295D01*
X36502380Y-34612295D02*
X36807142Y-34612295D01*
X36807142Y-34612295D02*
X36807142Y-33812295D01*
X36807142Y-33812295D02*
X36540476Y-33812295D01*
X36540476Y-33812295D02*
X36464285Y-33850390D01*
X36464285Y-33850390D02*
X36426190Y-33888485D01*
X36426190Y-33888485D02*
X36388095Y-33964676D01*
X36388095Y-33964676D02*
X36388095Y-34040866D01*
X36388095Y-34040866D02*
X36426190Y-34117057D01*
X36426190Y-34117057D02*
X36464285Y-34155152D01*
X36464285Y-34155152D02*
X36540476Y-34193247D01*
X36540476Y-34193247D02*
X36807142Y-34193247D01*
X37652380Y-20062295D02*
X37195237Y-20062295D01*
X37423809Y-20862295D02*
X37423809Y-20062295D01*
X36928570Y-20862295D02*
X36928570Y-20062295D01*
X36928570Y-20062295D02*
X36623808Y-20062295D01*
X36623808Y-20062295D02*
X36547618Y-20100390D01*
X36547618Y-20100390D02*
X36509523Y-20138485D01*
X36509523Y-20138485D02*
X36471427Y-20214676D01*
X36471427Y-20214676D02*
X36471427Y-20328961D01*
X36471427Y-20328961D02*
X36509523Y-20405152D01*
X36509523Y-20405152D02*
X36547618Y-20443247D01*
X36547618Y-20443247D02*
X36623808Y-20481342D01*
X36623808Y-20481342D02*
X36928570Y-20481342D01*
X36319047Y-20938485D02*
X35709523Y-20938485D01*
X35099999Y-20100390D02*
X35176189Y-20062295D01*
X35176189Y-20062295D02*
X35290475Y-20062295D01*
X35290475Y-20062295D02*
X35404761Y-20100390D01*
X35404761Y-20100390D02*
X35480951Y-20176580D01*
X35480951Y-20176580D02*
X35519046Y-20252771D01*
X35519046Y-20252771D02*
X35557142Y-20405152D01*
X35557142Y-20405152D02*
X35557142Y-20519438D01*
X35557142Y-20519438D02*
X35519046Y-20671819D01*
X35519046Y-20671819D02*
X35480951Y-20748009D01*
X35480951Y-20748009D02*
X35404761Y-20824200D01*
X35404761Y-20824200D02*
X35290475Y-20862295D01*
X35290475Y-20862295D02*
X35214284Y-20862295D01*
X35214284Y-20862295D02*
X35099999Y-20824200D01*
X35099999Y-20824200D02*
X35061903Y-20786104D01*
X35061903Y-20786104D02*
X35061903Y-20519438D01*
X35061903Y-20519438D02*
X35214284Y-20519438D01*
X34719046Y-20862295D02*
X34719046Y-20062295D01*
X34719046Y-20062295D02*
X34261903Y-20862295D01*
X34261903Y-20862295D02*
X34261903Y-20062295D01*
X33880951Y-20862295D02*
X33880951Y-20062295D01*
X33880951Y-20062295D02*
X33690475Y-20062295D01*
X33690475Y-20062295D02*
X33576189Y-20100390D01*
X33576189Y-20100390D02*
X33499999Y-20176580D01*
X33499999Y-20176580D02*
X33461904Y-20252771D01*
X33461904Y-20252771D02*
X33423808Y-20405152D01*
X33423808Y-20405152D02*
X33423808Y-20519438D01*
X33423808Y-20519438D02*
X33461904Y-20671819D01*
X33461904Y-20671819D02*
X33499999Y-20748009D01*
X33499999Y-20748009D02*
X33576189Y-20824200D01*
X33576189Y-20824200D02*
X33690475Y-20862295D01*
X33690475Y-20862295D02*
X33880951Y-20862295D01*
X25214285Y-16062295D02*
X24757142Y-16062295D01*
X24985714Y-16862295D02*
X24985714Y-16062295D01*
X24490475Y-16862295D02*
X24490475Y-16062295D01*
X24490475Y-16062295D02*
X24185713Y-16062295D01*
X24185713Y-16062295D02*
X24109523Y-16100390D01*
X24109523Y-16100390D02*
X24071428Y-16138485D01*
X24071428Y-16138485D02*
X24033332Y-16214676D01*
X24033332Y-16214676D02*
X24033332Y-16328961D01*
X24033332Y-16328961D02*
X24071428Y-16405152D01*
X24071428Y-16405152D02*
X24109523Y-16443247D01*
X24109523Y-16443247D02*
X24185713Y-16481342D01*
X24185713Y-16481342D02*
X24490475Y-16481342D01*
X23880952Y-16938485D02*
X23271428Y-16938485D01*
X23080951Y-16443247D02*
X22814285Y-16443247D01*
X22699999Y-16862295D02*
X23080951Y-16862295D01*
X23080951Y-16862295D02*
X23080951Y-16062295D01*
X23080951Y-16062295D02*
X22699999Y-16062295D01*
X22357141Y-16862295D02*
X22357141Y-16062295D01*
X22357141Y-16062295D02*
X21899998Y-16862295D01*
X21899998Y-16862295D02*
X21899998Y-16062295D01*
X37038095Y-13562295D02*
X36580952Y-13562295D01*
X36809524Y-14362295D02*
X36809524Y-13562295D01*
X36314285Y-14362295D02*
X36314285Y-13562295D01*
X36314285Y-13562295D02*
X36009523Y-13562295D01*
X36009523Y-13562295D02*
X35933333Y-13600390D01*
X35933333Y-13600390D02*
X35895238Y-13638485D01*
X35895238Y-13638485D02*
X35857142Y-13714676D01*
X35857142Y-13714676D02*
X35857142Y-13828961D01*
X35857142Y-13828961D02*
X35895238Y-13905152D01*
X35895238Y-13905152D02*
X35933333Y-13943247D01*
X35933333Y-13943247D02*
X36009523Y-13981342D01*
X36009523Y-13981342D02*
X36314285Y-13981342D01*
X35704762Y-14438485D02*
X35095238Y-14438485D01*
X34980952Y-13562295D02*
X34485714Y-13562295D01*
X34485714Y-13562295D02*
X34752380Y-13867057D01*
X34752380Y-13867057D02*
X34638095Y-13867057D01*
X34638095Y-13867057D02*
X34561904Y-13905152D01*
X34561904Y-13905152D02*
X34523809Y-13943247D01*
X34523809Y-13943247D02*
X34485714Y-14019438D01*
X34485714Y-14019438D02*
X34485714Y-14209914D01*
X34485714Y-14209914D02*
X34523809Y-14286104D01*
X34523809Y-14286104D02*
X34561904Y-14324200D01*
X34561904Y-14324200D02*
X34638095Y-14362295D01*
X34638095Y-14362295D02*
X34866666Y-14362295D01*
X34866666Y-14362295D02*
X34942857Y-14324200D01*
X34942857Y-14324200D02*
X34980952Y-14286104D01*
X34257142Y-13562295D02*
X33990475Y-14362295D01*
X33990475Y-14362295D02*
X33723809Y-13562295D01*
X33533333Y-13562295D02*
X33038095Y-13562295D01*
X33038095Y-13562295D02*
X33304761Y-13867057D01*
X33304761Y-13867057D02*
X33190476Y-13867057D01*
X33190476Y-13867057D02*
X33114285Y-13905152D01*
X33114285Y-13905152D02*
X33076190Y-13943247D01*
X33076190Y-13943247D02*
X33038095Y-14019438D01*
X33038095Y-14019438D02*
X33038095Y-14209914D01*
X33038095Y-14209914D02*
X33076190Y-14286104D01*
X33076190Y-14286104D02*
X33114285Y-14324200D01*
X33114285Y-14324200D02*
X33190476Y-14362295D01*
X33190476Y-14362295D02*
X33419047Y-14362295D01*
X33419047Y-14362295D02*
X33495238Y-14324200D01*
X33495238Y-14324200D02*
X33533333Y-14286104D01*
X16573809Y-42562295D02*
X16116666Y-42562295D01*
X16345238Y-43362295D02*
X16345238Y-42562295D01*
X15849999Y-43362295D02*
X15849999Y-42562295D01*
X15849999Y-42562295D02*
X15545237Y-42562295D01*
X15545237Y-42562295D02*
X15469047Y-42600390D01*
X15469047Y-42600390D02*
X15430952Y-42638485D01*
X15430952Y-42638485D02*
X15392856Y-42714676D01*
X15392856Y-42714676D02*
X15392856Y-42828961D01*
X15392856Y-42828961D02*
X15430952Y-42905152D01*
X15430952Y-42905152D02*
X15469047Y-42943247D01*
X15469047Y-42943247D02*
X15545237Y-42981342D01*
X15545237Y-42981342D02*
X15849999Y-42981342D01*
X15240476Y-43438485D02*
X14630952Y-43438485D01*
X14554761Y-42562295D02*
X14288094Y-43362295D01*
X14288094Y-43362295D02*
X14021428Y-42562295D01*
X13488095Y-42943247D02*
X13373809Y-42981342D01*
X13373809Y-42981342D02*
X13335714Y-43019438D01*
X13335714Y-43019438D02*
X13297618Y-43095628D01*
X13297618Y-43095628D02*
X13297618Y-43209914D01*
X13297618Y-43209914D02*
X13335714Y-43286104D01*
X13335714Y-43286104D02*
X13373809Y-43324200D01*
X13373809Y-43324200D02*
X13449999Y-43362295D01*
X13449999Y-43362295D02*
X13754761Y-43362295D01*
X13754761Y-43362295D02*
X13754761Y-42562295D01*
X13754761Y-42562295D02*
X13488095Y-42562295D01*
X13488095Y-42562295D02*
X13411904Y-42600390D01*
X13411904Y-42600390D02*
X13373809Y-42638485D01*
X13373809Y-42638485D02*
X13335714Y-42714676D01*
X13335714Y-42714676D02*
X13335714Y-42790866D01*
X13335714Y-42790866D02*
X13373809Y-42867057D01*
X13373809Y-42867057D02*
X13411904Y-42905152D01*
X13411904Y-42905152D02*
X13488095Y-42943247D01*
X13488095Y-42943247D02*
X13754761Y-42943247D01*
X12992857Y-43133723D02*
X12611904Y-43133723D01*
X13069047Y-43362295D02*
X12802380Y-42562295D01*
X12802380Y-42562295D02*
X12535714Y-43362295D01*
X12383333Y-42562295D02*
X11926190Y-42562295D01*
X12154762Y-43362295D02*
X12154762Y-42562295D01*
X25976190Y-20562295D02*
X25519047Y-20562295D01*
X25747619Y-21362295D02*
X25747619Y-20562295D01*
X25252380Y-21362295D02*
X25252380Y-20562295D01*
X25252380Y-20562295D02*
X24947618Y-20562295D01*
X24947618Y-20562295D02*
X24871428Y-20600390D01*
X24871428Y-20600390D02*
X24833333Y-20638485D01*
X24833333Y-20638485D02*
X24795237Y-20714676D01*
X24795237Y-20714676D02*
X24795237Y-20828961D01*
X24795237Y-20828961D02*
X24833333Y-20905152D01*
X24833333Y-20905152D02*
X24871428Y-20943247D01*
X24871428Y-20943247D02*
X24947618Y-20981342D01*
X24947618Y-20981342D02*
X25252380Y-20981342D01*
X24642857Y-21438485D02*
X24033333Y-21438485D01*
X23576190Y-20943247D02*
X23461904Y-20981342D01*
X23461904Y-20981342D02*
X23423809Y-21019438D01*
X23423809Y-21019438D02*
X23385713Y-21095628D01*
X23385713Y-21095628D02*
X23385713Y-21209914D01*
X23385713Y-21209914D02*
X23423809Y-21286104D01*
X23423809Y-21286104D02*
X23461904Y-21324200D01*
X23461904Y-21324200D02*
X23538094Y-21362295D01*
X23538094Y-21362295D02*
X23842856Y-21362295D01*
X23842856Y-21362295D02*
X23842856Y-20562295D01*
X23842856Y-20562295D02*
X23576190Y-20562295D01*
X23576190Y-20562295D02*
X23499999Y-20600390D01*
X23499999Y-20600390D02*
X23461904Y-20638485D01*
X23461904Y-20638485D02*
X23423809Y-20714676D01*
X23423809Y-20714676D02*
X23423809Y-20790866D01*
X23423809Y-20790866D02*
X23461904Y-20867057D01*
X23461904Y-20867057D02*
X23499999Y-20905152D01*
X23499999Y-20905152D02*
X23576190Y-20943247D01*
X23576190Y-20943247D02*
X23842856Y-20943247D01*
X22890475Y-20562295D02*
X22738094Y-20562295D01*
X22738094Y-20562295D02*
X22661904Y-20600390D01*
X22661904Y-20600390D02*
X22585713Y-20676580D01*
X22585713Y-20676580D02*
X22547618Y-20828961D01*
X22547618Y-20828961D02*
X22547618Y-21095628D01*
X22547618Y-21095628D02*
X22585713Y-21248009D01*
X22585713Y-21248009D02*
X22661904Y-21324200D01*
X22661904Y-21324200D02*
X22738094Y-21362295D01*
X22738094Y-21362295D02*
X22890475Y-21362295D01*
X22890475Y-21362295D02*
X22966666Y-21324200D01*
X22966666Y-21324200D02*
X23042856Y-21248009D01*
X23042856Y-21248009D02*
X23080952Y-21095628D01*
X23080952Y-21095628D02*
X23080952Y-20828961D01*
X23080952Y-20828961D02*
X23042856Y-20676580D01*
X23042856Y-20676580D02*
X22966666Y-20600390D01*
X22966666Y-20600390D02*
X22890475Y-20562295D01*
X22052380Y-20562295D02*
X21899999Y-20562295D01*
X21899999Y-20562295D02*
X21823809Y-20600390D01*
X21823809Y-20600390D02*
X21747618Y-20676580D01*
X21747618Y-20676580D02*
X21709523Y-20828961D01*
X21709523Y-20828961D02*
X21709523Y-21095628D01*
X21709523Y-21095628D02*
X21747618Y-21248009D01*
X21747618Y-21248009D02*
X21823809Y-21324200D01*
X21823809Y-21324200D02*
X21899999Y-21362295D01*
X21899999Y-21362295D02*
X22052380Y-21362295D01*
X22052380Y-21362295D02*
X22128571Y-21324200D01*
X22128571Y-21324200D02*
X22204761Y-21248009D01*
X22204761Y-21248009D02*
X22242857Y-21095628D01*
X22242857Y-21095628D02*
X22242857Y-20828961D01*
X22242857Y-20828961D02*
X22204761Y-20676580D01*
X22204761Y-20676580D02*
X22128571Y-20600390D01*
X22128571Y-20600390D02*
X22052380Y-20562295D01*
X21480952Y-20562295D02*
X21023809Y-20562295D01*
X21252381Y-21362295D02*
X21252381Y-20562295D01*
X35880952Y-30562295D02*
X35423809Y-30562295D01*
X35652381Y-31362295D02*
X35652381Y-30562295D01*
X35157142Y-31362295D02*
X35157142Y-30562295D01*
X35157142Y-30562295D02*
X34852380Y-30562295D01*
X34852380Y-30562295D02*
X34776190Y-30600390D01*
X34776190Y-30600390D02*
X34738095Y-30638485D01*
X34738095Y-30638485D02*
X34699999Y-30714676D01*
X34699999Y-30714676D02*
X34699999Y-30828961D01*
X34699999Y-30828961D02*
X34738095Y-30905152D01*
X34738095Y-30905152D02*
X34776190Y-30943247D01*
X34776190Y-30943247D02*
X34852380Y-30981342D01*
X34852380Y-30981342D02*
X35157142Y-30981342D01*
X34547619Y-31438485D02*
X33938095Y-31438485D01*
X33861904Y-30562295D02*
X33595237Y-31362295D01*
X33595237Y-31362295D02*
X33328571Y-30562295D01*
X33100000Y-31324200D02*
X32985714Y-31362295D01*
X32985714Y-31362295D02*
X32795238Y-31362295D01*
X32795238Y-31362295D02*
X32719047Y-31324200D01*
X32719047Y-31324200D02*
X32680952Y-31286104D01*
X32680952Y-31286104D02*
X32642857Y-31209914D01*
X32642857Y-31209914D02*
X32642857Y-31133723D01*
X32642857Y-31133723D02*
X32680952Y-31057533D01*
X32680952Y-31057533D02*
X32719047Y-31019438D01*
X32719047Y-31019438D02*
X32795238Y-30981342D01*
X32795238Y-30981342D02*
X32947619Y-30943247D01*
X32947619Y-30943247D02*
X33023809Y-30905152D01*
X33023809Y-30905152D02*
X33061904Y-30867057D01*
X33061904Y-30867057D02*
X33100000Y-30790866D01*
X33100000Y-30790866D02*
X33100000Y-30714676D01*
X33100000Y-30714676D02*
X33061904Y-30638485D01*
X33061904Y-30638485D02*
X33023809Y-30600390D01*
X33023809Y-30600390D02*
X32947619Y-30562295D01*
X32947619Y-30562295D02*
X32757142Y-30562295D01*
X32757142Y-30562295D02*
X32642857Y-30600390D01*
X32147618Y-30981342D02*
X32147618Y-31362295D01*
X32414285Y-30562295D02*
X32147618Y-30981342D01*
X32147618Y-30981342D02*
X31880952Y-30562295D01*
X31652381Y-31324200D02*
X31538095Y-31362295D01*
X31538095Y-31362295D02*
X31347619Y-31362295D01*
X31347619Y-31362295D02*
X31271428Y-31324200D01*
X31271428Y-31324200D02*
X31233333Y-31286104D01*
X31233333Y-31286104D02*
X31195238Y-31209914D01*
X31195238Y-31209914D02*
X31195238Y-31133723D01*
X31195238Y-31133723D02*
X31233333Y-31057533D01*
X31233333Y-31057533D02*
X31271428Y-31019438D01*
X31271428Y-31019438D02*
X31347619Y-30981342D01*
X31347619Y-30981342D02*
X31500000Y-30943247D01*
X31500000Y-30943247D02*
X31576190Y-30905152D01*
X31576190Y-30905152D02*
X31614285Y-30867057D01*
X31614285Y-30867057D02*
X31652381Y-30790866D01*
X31652381Y-30790866D02*
X31652381Y-30714676D01*
X31652381Y-30714676D02*
X31614285Y-30638485D01*
X31614285Y-30638485D02*
X31576190Y-30600390D01*
X31576190Y-30600390D02*
X31500000Y-30562295D01*
X31500000Y-30562295D02*
X31309523Y-30562295D01*
X31309523Y-30562295D02*
X31195238Y-30600390D01*
%TO.C,TP_CC*%
D11*
X29450000Y-41250000D02*
G75*
G02*
X28050000Y-41250000I-700000J0D01*
G01*
X28050000Y-41250000D02*
G75*
G02*
X29450000Y-41250000I700000J0D01*
G01*
%TO.C,TP_VUSB*%
X35450000Y-34250000D02*
G75*
G02*
X34050000Y-34250000I-700000J0D01*
G01*
X34050000Y-34250000D02*
G75*
G02*
X35450000Y-34250000I700000J0D01*
G01*
%TO.C,TP_GND*%
X36200000Y-18500000D02*
G75*
G02*
X34800000Y-18500000I-700000J0D01*
G01*
X34800000Y-18500000D02*
G75*
G02*
X36200000Y-18500000I700000J0D01*
G01*
%TO.C,TP_EN*%
X24200000Y-14500000D02*
G75*
G02*
X22800000Y-14500000I-700000J0D01*
G01*
X22800000Y-14500000D02*
G75*
G02*
X24200000Y-14500000I700000J0D01*
G01*
%TO.C,TP_3V3*%
X35700000Y-16000000D02*
G75*
G02*
X34300000Y-16000000I-700000J0D01*
G01*
X34300000Y-16000000D02*
G75*
G02*
X35700000Y-16000000I700000J0D01*
G01*
%TO.C,TP_VBAT*%
X14950000Y-41000000D02*
G75*
G02*
X13550000Y-41000000I-700000J0D01*
G01*
X13550000Y-41000000D02*
G75*
G02*
X14950000Y-41000000I700000J0D01*
G01*
%TO.C,TP_BOOT*%
X24200000Y-19000000D02*
G75*
G02*
X22800000Y-19000000I-700000J0D01*
G01*
X22800000Y-19000000D02*
G75*
G02*
X24200000Y-19000000I700000J0D01*
G01*
%TO.C,TP_VSYS*%
X34200000Y-29000000D02*
G75*
G02*
X32800000Y-29000000I-700000J0D01*
G01*
X32800000Y-29000000D02*
G75*
G02*
X34200000Y-29000000I700000J0D01*
G01*
%TD*%
%LPC*%
D12*
%TO.C,H2*%
X3500000Y-42500000D03*
%TD*%
%TO.C,H1*%
X3500000Y-3500000D03*
%TD*%
D13*
%TO.C,J_USB*%
X25910000Y-38755000D03*
X31690000Y-38755000D03*
D14*
X24480000Y-38225000D03*
D15*
X24480000Y-42405000D03*
D14*
X33120000Y-38225000D03*
D15*
X33120000Y-42405000D03*
%TD*%
D16*
%TO.C,TP_CC*%
X28750000Y-41250000D03*
%TD*%
%TO.C,TP_VUSB*%
X34750000Y-34250000D03*
%TD*%
%TO.C,TP_GND*%
X35500000Y-18500000D03*
%TD*%
%TO.C,TP_EN*%
X23500000Y-14500000D03*
%TD*%
%TO.C,TP_3V3*%
X35000000Y-16000000D03*
%TD*%
%TO.C,TP_VBAT*%
X14250000Y-41000000D03*
%TD*%
%TO.C,TP_BOOT*%
X23500000Y-19000000D03*
%TD*%
%TO.C,TP_VSYS*%
X33500000Y-29000000D03*
%TD*%
%LPD*%
M02*
