%TF.GenerationSoftware,KiCad,Pcbnew,10.0.6*%
%TF.CreationDate,2026-10-05T06:08:17-07:00*%
%TF.ProjectId,plush-toy-v2-A,706c7573-682d-4746-9f79-2d76322d412e,rev?*%
%TF.SameCoordinates,Original*%
%TF.FileFunction,Soldermask,Top*%
%TF.FilePolarity,Negative*%
%FSLAX46Y46*%
G04 Gerber Fmt 4.6, Leading zero omitted, Abs format (unit mm)*
G04 Created by KiCad (PCBNEW 10.0.6) date 2026-10-05 06:08:17*
%MOMM*%
%LPD*%
G01*
G04 APERTURE LIST*
G04 Aperture macros list*
%AMRoundRect*
0 Rectangle with rounded corners*
0 $1 Rounding radius*
0 $2 $3 $4 $5 $6 $7 $8 $9 X,Y pos of 4 corners*
0 Add a 4 corners polygon primitive as box body*
4,1,4,$2,$3,$4,$5,$6,$7,$8,$9,$2,$3,0*
0 Add four circle primitives for the rounded corners*
1,1,$1+$1,$2,$3*
1,1,$1+$1,$4,$5*
1,1,$1+$1,$6,$7*
1,1,$1+$1,$8,$9*
0 Add four rect primitives between the rounded corners*
20,1,$1+$1,$2,$3,$4,$5,0*
20,1,$1+$1,$4,$5,$6,$7,0*
20,1,$1+$1,$6,$7,$8,$9,0*
20,1,$1+$1,$8,$9,$2,$3,0*%
G04 Aperture macros list end*
%ADD10RoundRect,0.135000X0.185000X-0.135000X0.185000X0.135000X-0.185000X0.135000X-0.185000X-0.135000X0*%
%ADD11RoundRect,0.200000X0.275000X-0.200000X0.275000X0.200000X-0.275000X0.200000X-0.275000X-0.200000X0*%
%ADD12R,3.200000X1.020000*%
%ADD13C,2.200000*%
%ADD14R,0.500000X1.700000*%
%ADD15R,1.200000X2.500000*%
%ADD16R,0.600000X1.200000*%
%ADD17R,2.000000X2.000000*%
%ADD18RoundRect,0.135000X-0.135000X-0.185000X0.135000X-0.185000X0.135000X0.185000X-0.135000X0.185000X0*%
%ADD19RoundRect,0.140000X0.170000X-0.140000X0.170000X0.140000X-0.170000X0.140000X-0.170000X-0.140000X0*%
%ADD20RoundRect,0.050000X-0.150000X-0.300000X0.150000X-0.300000X0.150000X0.300000X-0.150000X0.300000X0*%
%ADD21RoundRect,0.150000X-0.587500X-0.150000X0.587500X-0.150000X0.587500X0.150000X-0.587500X0.150000X0*%
%ADD22RoundRect,0.250000X-0.250000X-1.500000X0.250000X-1.500000X0.250000X1.500000X-0.250000X1.500000X0*%
%ADD23RoundRect,0.250001X-0.499999X-1.449999X0.499999X-1.449999X0.499999X1.449999X-0.499999X1.449999X0*%
%ADD24R,1.230000X1.860000*%
%ADD25RoundRect,0.250000X-0.250000X-0.475000X0.250000X-0.475000X0.250000X0.475000X-0.250000X0.475000X0*%
%ADD26RoundRect,0.062500X-0.350000X-0.062500X0.350000X-0.062500X0.350000X0.062500X-0.350000X0.062500X0*%
%ADD27RoundRect,0.062500X-0.062500X-0.350000X0.062500X-0.350000X0.062500X0.350000X-0.062500X0.350000X0*%
%ADD28R,1.230000X1.230000*%
%ADD29RoundRect,0.150000X0.150000X0.625000X-0.150000X0.625000X-0.150000X-0.625000X0.150000X-0.625000X0*%
%ADD30RoundRect,0.250000X0.350000X0.650000X-0.350000X0.650000X-0.350000X-0.650000X0.350000X-0.650000X0*%
%ADD31RoundRect,0.140000X-0.140000X-0.170000X0.140000X-0.170000X0.140000X0.170000X-0.140000X0.170000X0*%
%ADD32C,0.650000*%
%ADD33RoundRect,0.150000X-0.150000X-0.575000X0.150000X-0.575000X0.150000X0.575000X-0.150000X0.575000X0*%
%ADD34RoundRect,0.075000X-0.075000X-0.650000X0.075000X-0.650000X0.075000X0.650000X-0.075000X0.650000X0*%
%ADD35O,1.000000X2.100000*%
%ADD36O,1.000000X1.600000*%
%ADD37RoundRect,0.225000X-0.225000X-0.250000X0.225000X-0.250000X0.225000X0.250000X-0.225000X0.250000X0*%
%ADD38R,1.100000X3.700000*%
%ADD39R,3.500000X1.500000*%
%ADD40R,0.700000X1.750000*%
%ADD41R,1.200000X2.550000*%
%ADD42R,0.900000X1.500000*%
%ADD43R,1.500000X0.900000*%
%ADD44C,0.600000*%
%ADD45R,3.900000X3.900000*%
%ADD46RoundRect,0.050000X0.300000X-0.150000X0.300000X0.150000X-0.300000X0.150000X-0.300000X-0.150000X0*%
%ADD47RoundRect,0.200000X-0.200000X-0.600000X0.200000X-0.600000X0.200000X0.600000X-0.200000X0.600000X0*%
%ADD48RoundRect,0.250001X-0.799999X-1.249999X0.799999X-1.249999X0.799999X1.249999X-0.799999X1.249999X0*%
%ADD49RoundRect,0.225000X0.250000X-0.225000X0.250000X0.225000X-0.250000X0.225000X-0.250000X-0.225000X0*%
%ADD50RoundRect,0.250000X0.475000X-0.250000X0.475000X0.250000X-0.475000X0.250000X-0.475000X-0.250000X0*%
%ADD51RoundRect,0.150000X-0.150000X-0.625000X0.150000X-0.625000X0.150000X0.625000X-0.150000X0.625000X0*%
%ADD52RoundRect,0.250000X-0.350000X-0.650000X0.350000X-0.650000X0.350000X0.650000X-0.350000X0.650000X0*%
%ADD53R,0.280000X0.500000*%
%ADD54R,0.500000X0.280000*%
%ADD55RoundRect,0.150000X0.150000X-0.587500X0.150000X0.587500X-0.150000X0.587500X-0.150000X-0.587500X0*%
%ADD56RoundRect,0.150000X-0.512500X-0.150000X0.512500X-0.150000X0.512500X0.150000X-0.512500X0.150000X0*%
%ADD57RoundRect,0.250000X-0.375000X-0.625000X0.375000X-0.625000X0.375000X0.625000X-0.375000X0.625000X0*%
%ADD58R,1.800000X4.700000*%
%ADD59RoundRect,0.062500X-0.237500X-0.062500X0.237500X-0.062500X0.237500X0.062500X-0.237500X0.062500X0*%
%ADD60R,0.900000X1.600000*%
G04 APERTURE END LIST*
D10*
%TO.C,R_FB1*%
X41500000Y-23010000D03*
X41500000Y-21990000D03*
%TD*%
D11*
%TO.C,RT_BAT*%
X20000000Y-41325000D03*
X20000000Y-39675000D03*
%TD*%
D12*
%TO.C,J_ARM_R*%
X45405000Y-22540000D03*
X45405000Y-20000000D03*
X45405000Y-17460000D03*
%TD*%
D13*
%TO.C,H2*%
X3500000Y-42500000D03*
%TD*%
D14*
%TO.C,J_KEY*%
X16200000Y-5150000D03*
X15200000Y-5150000D03*
X14200000Y-5150000D03*
D15*
X17300000Y-1750000D03*
X13100000Y-1750000D03*
%TD*%
D16*
%TO.C,U_CHG*%
X29090000Y-31910000D03*
X30370000Y-31910000D03*
X31640000Y-31910000D03*
X32910000Y-31910000D03*
X32910000Y-26090000D03*
X31640000Y-26090000D03*
X30370000Y-26090000D03*
X29090000Y-26090000D03*
D17*
X31000000Y-29000000D03*
%TD*%
D18*
%TO.C,R_BATN_PD*%
X19490000Y-37500000D03*
X20510000Y-37500000D03*
%TD*%
D19*
%TO.C,C_TOUCH_FILT*%
X8000000Y-8730000D03*
X8000000Y-7770000D03*
%TD*%
D20*
%TO.C,D_ESD_PWR*%
X17650000Y-7000000D03*
X18350000Y-7000000D03*
%TD*%
D21*
%TO.C,Q_HEAT*%
X39062500Y-14300000D03*
X39062500Y-16200000D03*
X40937500Y-15250000D03*
%TD*%
D22*
%TO.C,J_BAT*%
X13000000Y-37555000D03*
X15000000Y-37555000D03*
D23*
X10650000Y-43305000D03*
X17350000Y-43305000D03*
%TD*%
D18*
%TO.C,R_GATE*%
X40490000Y-8250000D03*
X41510000Y-8250000D03*
%TD*%
D10*
%TO.C,R_LCD_BL_GATE*%
X34000000Y-12010000D03*
X34000000Y-10990000D03*
%TD*%
D24*
%TO.C,SW_BOOT*%
X21320000Y-19000000D03*
X25680000Y-19000000D03*
%TD*%
D18*
%TO.C,R_SCL*%
X23490000Y-22750000D03*
X24510000Y-22750000D03*
%TD*%
D25*
%TO.C,C_BUCK_OUT2*%
X29800000Y-18000000D03*
X31700000Y-18000000D03*
%TD*%
D26*
%TO.C,U_AMP*%
X35162500Y-32250000D03*
X35162500Y-32750000D03*
X35162500Y-33250000D03*
X35162500Y-33750000D03*
D27*
X35850000Y-34437500D03*
X36350000Y-34437500D03*
X36850000Y-34437500D03*
X37350000Y-34437500D03*
D26*
X38037500Y-33750000D03*
X38037500Y-33250000D03*
X38037500Y-32750000D03*
X38037500Y-32250000D03*
D27*
X37350000Y-31562500D03*
X36850000Y-31562500D03*
X36350000Y-31562500D03*
X35850000Y-31562500D03*
D28*
X36600000Y-33000000D03*
%TD*%
D19*
%TO.C,C_IMU*%
X23000000Y-25230000D03*
X23000000Y-24270000D03*
%TD*%
%TO.C,C_MIC*%
X41500000Y-4230000D03*
X41500000Y-3270000D03*
%TD*%
D29*
%TO.C,J_LCD*%
X28500000Y-5775000D03*
X27500000Y-5775000D03*
X26500000Y-5775000D03*
X25500000Y-5775000D03*
X24500000Y-5775000D03*
X23500000Y-5775000D03*
X22500000Y-5775000D03*
X21500000Y-5775000D03*
D30*
X29800000Y-1900000D03*
X20200000Y-1900000D03*
%TD*%
D31*
%TO.C,C_AMP*%
X42270000Y-38000000D03*
X43230000Y-38000000D03*
%TD*%
D18*
%TO.C,R_SERVO_R_PD*%
X35240000Y-12000000D03*
X36260000Y-12000000D03*
%TD*%
D10*
%TO.C,R_CC_SUM1*%
X21500000Y-39760000D03*
X21500000Y-38740000D03*
%TD*%
D31*
%TO.C,C_FF*%
X32020000Y-14500000D03*
X32980000Y-14500000D03*
%TD*%
D32*
%TO.C,J_USB*%
X25910000Y-38755000D03*
X31690000Y-38755000D03*
D33*
X25550000Y-37310000D03*
X26350000Y-37310000D03*
D34*
X27550000Y-37310000D03*
X28550000Y-37310000D03*
X29050000Y-37310000D03*
X30050000Y-37310000D03*
D33*
X31250000Y-37310000D03*
X32050000Y-37310000D03*
X32050000Y-37310000D03*
X31250000Y-37310000D03*
D34*
X30550000Y-37310000D03*
X29550000Y-37310000D03*
X28050000Y-37310000D03*
X27050000Y-37310000D03*
D33*
X26350000Y-37310000D03*
X25550000Y-37310000D03*
D35*
X24480000Y-38225000D03*
D36*
X24480000Y-42405000D03*
D35*
X33120000Y-38225000D03*
D36*
X33120000Y-42405000D03*
%TD*%
D24*
%TO.C,SW_RST*%
X21320000Y-14500000D03*
X25680000Y-14500000D03*
%TD*%
D18*
%TO.C,R_VBAT_BOT*%
X7740000Y-39250000D03*
X8760000Y-39250000D03*
%TD*%
D20*
%TO.C,D_ESD_MUTE*%
X18150000Y-8500000D03*
X18850000Y-8500000D03*
%TD*%
D37*
%TO.C,C_BUCK_IN*%
X38725000Y-19750000D03*
X40275000Y-19750000D03*
%TD*%
D10*
%TO.C,R_BATP_BYP*%
X22000000Y-31010000D03*
X22000000Y-29990000D03*
%TD*%
D38*
%TO.C,L_BUCK*%
X33250000Y-17250000D03*
X36250000Y-17250000D03*
%TD*%
D39*
%TO.C,J_HEAT*%
X42350000Y-30750000D03*
X42350000Y-28250000D03*
X49750000Y-33730000D03*
X49750000Y-25270000D03*
%TD*%
D25*
%TO.C,C_SERVO2*%
X43050000Y-6500000D03*
X44950000Y-6500000D03*
%TD*%
D40*
%TO.C,J_MIC*%
X39000000Y-5495000D03*
X38000000Y-5495000D03*
X37000000Y-5495000D03*
X36000000Y-5495000D03*
X35000000Y-5495000D03*
X34000000Y-5495000D03*
D41*
X32890000Y-1775000D03*
X40110000Y-1775000D03*
%TD*%
D19*
%TO.C,C_LCD*%
X20000000Y-10480000D03*
X20000000Y-9520000D03*
%TD*%
D20*
%TO.C,D_USB_DN*%
X21900000Y-41000000D03*
X22600000Y-41000000D03*
%TD*%
D19*
%TO.C,C_NTC*%
X50750000Y-40230000D03*
X50750000Y-39270000D03*
%TD*%
D31*
%TO.C,C_EFUSE_DVDT*%
X21770000Y-28500000D03*
X22730000Y-28500000D03*
%TD*%
D10*
%TO.C,R_CC1*%
X22750000Y-39760000D03*
X22750000Y-38740000D03*
%TD*%
D18*
%TO.C,R_BAT_NTC*%
X19240000Y-44500000D03*
X20260000Y-44500000D03*
%TD*%
D42*
%TO.C,U1*%
X1490000Y-29750000D03*
X2760000Y-29750000D03*
X4030000Y-29750000D03*
X5300000Y-29750000D03*
X6570000Y-29750000D03*
X7840000Y-29750000D03*
X9110000Y-29750000D03*
X10380000Y-29750000D03*
X11650000Y-29750000D03*
X12920000Y-29750000D03*
X14190000Y-29750000D03*
X15460000Y-29750000D03*
X16730000Y-29750000D03*
X18000000Y-29750000D03*
D43*
X19250000Y-27985000D03*
X19250000Y-26715000D03*
X19250000Y-25445000D03*
X19250000Y-24175000D03*
X19250000Y-22905000D03*
X19250000Y-21635000D03*
X19250000Y-20365000D03*
X19250000Y-19095000D03*
X19250000Y-17825000D03*
X19250000Y-16555000D03*
X19250000Y-15285000D03*
X19250000Y-14015000D03*
D42*
X18000000Y-12250000D03*
X16730000Y-12250000D03*
X15460000Y-12250000D03*
X14190000Y-12250000D03*
X12920000Y-12250000D03*
X11650000Y-12250000D03*
X10380000Y-12250000D03*
X9110000Y-12250000D03*
X7840000Y-12250000D03*
X6570000Y-12250000D03*
X5300000Y-12250000D03*
X4030000Y-12250000D03*
X2760000Y-12250000D03*
X1490000Y-12250000D03*
D44*
X8510000Y-23900000D03*
X9910000Y-23900000D03*
X7810000Y-23200000D03*
X9210000Y-23200000D03*
X10610000Y-23200000D03*
X8510000Y-22500000D03*
D45*
X9210000Y-22500000D03*
D44*
X9910000Y-22500000D03*
X7810000Y-21800000D03*
X9210000Y-21800000D03*
X10610000Y-21800000D03*
X8510000Y-21100000D03*
X9910000Y-21100000D03*
%TD*%
D46*
%TO.C,D_ESD_TOUCH*%
X5250000Y-7350000D03*
X5250000Y-6650000D03*
%TD*%
D31*
%TO.C,C_BUCK_HF*%
X32020000Y-13250000D03*
X32980000Y-13250000D03*
%TD*%
%TO.C,C_U1*%
X5520000Y-31500000D03*
X6480000Y-31500000D03*
%TD*%
D12*
%TO.C,J_ARM_L*%
X45405000Y-14040000D03*
X45405000Y-11500000D03*
X45405000Y-8960000D03*
%TD*%
D13*
%TO.C,H1*%
X3500000Y-3500000D03*
%TD*%
D25*
%TO.C,C_VSYS2*%
X24550000Y-24500000D03*
X26450000Y-24500000D03*
%TD*%
D21*
%TO.C,Q_BATP*%
X22562500Y-32550000D03*
X22562500Y-34450000D03*
X24437500Y-33500000D03*
%TD*%
D18*
%TO.C,R_GATE_PD*%
X30990000Y-12000000D03*
X32010000Y-12000000D03*
%TD*%
%TO.C,R_CC2*%
X21490000Y-44750000D03*
X22510000Y-44750000D03*
%TD*%
D47*
%TO.C,J_SPK*%
X38575000Y-40005000D03*
X39825000Y-40005000D03*
D48*
X36025000Y-42905000D03*
X42375000Y-42905000D03*
%TD*%
D25*
%TO.C,C_SERVO1*%
X35050000Y-13750000D03*
X36950000Y-13750000D03*
%TD*%
%TO.C,C_SERVO3*%
X46800000Y-6250000D03*
X48700000Y-6250000D03*
%TD*%
D18*
%TO.C,R_CC_SUM2*%
X21740000Y-37500000D03*
X22760000Y-37500000D03*
%TD*%
%TO.C,R_EFUSE_ILM*%
X34990000Y-37750000D03*
X36010000Y-37750000D03*
%TD*%
D49*
%TO.C,C_AMP_BULK*%
X27250000Y-32025000D03*
X27250000Y-30475000D03*
%TD*%
D50*
%TO.C,C_CHG_BAT*%
X37500000Y-29950000D03*
X37500000Y-28050000D03*
%TD*%
D18*
%TO.C,R_BATP_PU*%
X21740000Y-36250000D03*
X22760000Y-36250000D03*
%TD*%
D31*
%TO.C,C_BAT_NTC*%
X10770000Y-34500000D03*
X11730000Y-34500000D03*
%TD*%
D10*
%TO.C,R_VBAT_TOP*%
X8500000Y-41760000D03*
X8500000Y-40740000D03*
%TD*%
D18*
%TO.C,R_LCD_BL_OFF*%
X29740000Y-14000000D03*
X30760000Y-14000000D03*
%TD*%
D46*
%TO.C,D_USB_DP*%
X22500000Y-43350000D03*
X22500000Y-42650000D03*
%TD*%
D18*
%TO.C,R_FB2*%
X30740000Y-16250000D03*
X31760000Y-16250000D03*
%TD*%
D51*
%TO.C,J_NTC*%
X46550000Y-40225000D03*
X47550000Y-40225000D03*
D52*
X45250000Y-44100000D03*
X48850000Y-44100000D03*
%TD*%
D53*
%TO.C,U_IMU*%
X25750000Y-22880000D03*
X26250000Y-22880000D03*
X26750000Y-22880000D03*
X27250000Y-22880000D03*
D54*
X27380000Y-22250000D03*
X27380000Y-21750000D03*
D53*
X27250000Y-21120000D03*
X26750000Y-21120000D03*
X26250000Y-21120000D03*
X25750000Y-21120000D03*
D54*
X25620000Y-21750000D03*
X25620000Y-22250000D03*
%TD*%
D18*
%TO.C,R_LCD_CLK*%
X22990000Y-11750000D03*
X24010000Y-11750000D03*
%TD*%
D19*
%TO.C,C_VBAT_SENSE*%
X8750000Y-43980000D03*
X8750000Y-43020000D03*
%TD*%
D50*
%TO.C,C_VSYS1*%
X24500000Y-28700000D03*
X24500000Y-26800000D03*
%TD*%
D19*
%TO.C,C_EN*%
X27000000Y-14980000D03*
X27000000Y-14020000D03*
%TD*%
D18*
%TO.C,R_BOOT*%
X23490000Y-21500000D03*
X24510000Y-21500000D03*
%TD*%
D55*
%TO.C,Q_LCD_BL*%
X30550000Y-10187500D03*
X32450000Y-10187500D03*
X31500000Y-8312500D03*
%TD*%
D56*
%TO.C,U_BUCK*%
X37362500Y-21550000D03*
X37362500Y-22500000D03*
X37362500Y-23450000D03*
X39637500Y-23450000D03*
X39637500Y-21550000D03*
%TD*%
D55*
%TO.C,Q_BATN*%
X18550000Y-33937500D03*
X20450000Y-33937500D03*
X19500000Y-32062500D03*
%TD*%
D18*
%TO.C,R_BATN_G*%
X19240000Y-36000000D03*
X20260000Y-36000000D03*
%TD*%
D31*
%TO.C,C_CC_SENSE*%
X20020000Y-43250000D03*
X20980000Y-43250000D03*
%TD*%
D25*
%TO.C,C_BUCK_OUT1*%
X37050000Y-25500000D03*
X38950000Y-25500000D03*
%TD*%
D37*
%TO.C,C_U1_BULK*%
X8225000Y-31750000D03*
X9775000Y-31750000D03*
%TD*%
D57*
%TO.C,F_USB*%
X27200000Y-34300000D03*
X30000000Y-34300000D03*
%TD*%
D10*
%TO.C,R_KEY_MUTE_PU*%
X16750000Y-10260000D03*
X16750000Y-9240000D03*
%TD*%
D58*
%TO.C,L_CHG*%
X28950000Y-22000000D03*
X33050000Y-22000000D03*
%TD*%
D18*
%TO.C,R_EN*%
X23740000Y-16750000D03*
X24760000Y-16750000D03*
%TD*%
D37*
%TO.C,C_VUSB*%
X35475000Y-36250000D03*
X37025000Y-36250000D03*
%TD*%
D59*
%TO.C,U_EFUSE*%
X31850000Y-33550000D03*
X31850000Y-34050000D03*
X31850000Y-34550000D03*
X31850000Y-35050000D03*
X33750000Y-35050000D03*
X33750000Y-34550000D03*
X33750000Y-34050000D03*
X33750000Y-33550000D03*
D60*
X32800000Y-34300000D03*
%TD*%
D31*
%TO.C,C_EFUSE_IN*%
X40020000Y-37750000D03*
X40980000Y-37750000D03*
%TD*%
D50*
%TO.C,C_CHG_VIN*%
X27250000Y-28450000D03*
X27250000Y-26550000D03*
%TD*%
D10*
%TO.C,R_SDA*%
X27000000Y-20010000D03*
X27000000Y-18990000D03*
%TD*%
%TO.C,R_AMP_SD*%
X39500000Y-33510000D03*
X39500000Y-32490000D03*
%TD*%
D29*
%TO.C,J_TOUCH*%
X9600000Y-5775000D03*
X8600000Y-5775000D03*
D30*
X10900000Y-1900000D03*
X7300000Y-1900000D03*
%TD*%
D10*
%TO.C,R_NTC*%
X51000000Y-42760000D03*
X51000000Y-41740000D03*
%TD*%
D18*
%TO.C,R_LCD_MOSI*%
X19990000Y-7750000D03*
X21010000Y-7750000D03*
%TD*%
M02*
