M48
; DRILL file KiCad 10.0.6 date 2026-10-05T08:24:12
; FORMAT={-:-/ absolute / metric / decimal}
; #@! TF.CreationDate,2026-10-05T08:24:12-07:00
; #@! TF.GenerationSoftware,Kicad,Pcbnew,10.0.6
; #@! TF.FileFunction,Plated,1,4,PTH
FMAT,2
METRIC
; #@! TA.AperFunction,Plated,PTH,ComponentDrill
T1C0.200
; #@! TA.AperFunction,Plated,PTH,ViaDrill
T2C0.300
; #@! TA.AperFunction,Plated,PTH,ViaDrill
T3C0.400
; #@! TA.AperFunction,Plated,PTH,ComponentDrill
T4C0.600
%
G90
G05
T1
X7.81Y-21.8
X7.81Y-23.2
X8.51Y-21.1
X8.51Y-22.5
X8.51Y-23.9
X9.21Y-21.8
X9.21Y-23.2
X9.91Y-21.1
X9.91Y-22.5
X9.91Y-23.9
X10.61Y-21.8
X10.61Y-23.2
X32.8Y-33.75
X32.8Y-34.85
T2
X1.49Y-12.25
X1.49Y-29.75
X1.725Y-32.8
X1.99Y-31.4
X2.76Y-11.046
X2.76Y-29.75
X4.03Y-11.036
X4.41Y-31.4
X5.075Y-32.8
X5.25Y-6.0
X6.13Y-3.431
X6.166Y-13.631
X7.633Y-28.535
X8.291Y-7.012
X9.138Y-30.967
X9.73Y-39.75
X10.097Y-3.983
X10.586Y-13.458
X10.857Y-7.113
X11.65Y-13.464
X11.96Y-10.0
X12.028Y-31.119
X12.74Y-8.98
X13.0Y-37.6
X13.008Y-13.455
X13.293Y-40.513
X13.536Y-6.279
X14.868Y-25.264
X14.87Y-28.294
X15.153Y-9.855
X15.75Y-31.52
X16.02Y-38.244
X16.201Y-10.613
X16.572Y-33.793
X16.983Y-35.291
X17.472Y-13.461
X18.0Y-9.25
X18.04Y-10.5
X18.041Y-18.112
X18.047Y-15.285
X18.089Y-31.332
X19.0Y-7.0
X19.005Y-13.097
X19.5Y-38.825
X19.611Y-6.252
X20.46Y-10.5
X20.539Y-27.985
X20.71Y-43.0
X20.781Y-11.248
X21.0Y-41.73
X21.21Y-38.0
X21.673Y-28.86
X21.826Y-9.855
X22.04Y-16.717
X22.135Y-11.473
X22.206Y-26.715
X22.309Y-12.576
X22.362Y-7.021
X22.5Y-38.27
X22.542Y-19.258
X22.738Y-15.299
X23.02Y-16.75
X23.2Y-24.99
X23.283Y-44.389
X23.305Y-45.179
X23.354Y-13.179
X23.513Y-10.76
X23.678Y-7.022
X24.015Y-28.339
X24.148Y-3.022
X24.502Y-20.472
X24.622Y-7.019
X25.045Y-10.342
X25.263Y-9.133
X25.405Y-40.798
X25.467Y-32.656
X25.68Y-14.5
X25.68Y-19.0
X25.702Y-25.872
X25.847Y-30.488
X26.5Y-7.013
X26.581Y-27.199
X26.76Y-11.46
X26.99Y-17.608
X27.0Y-13.29
X27.047Y-8.63
X27.05Y-23.75
X27.3Y-30.3
X27.35Y-27.6
X27.613Y-38.504
X27.789Y-44.388
X27.949Y-14.0
X28.733Y-13.291
X29.339Y-39.695
X29.434Y-30.808
X29.591Y-38.487
X29.853Y-4.686
X29.853Y-9.469
X30.537Y-38.516
X30.65Y-32.99
X31.0Y-29.0
X31.361Y-17.608
X32.35Y-14.925
X32.358Y-40.471
X32.508Y-23.684
X33.5Y-12.73
X33.591Y-24.855
X34.0Y-5.495
X34.1Y-32.36
X34.47Y-24.843
X35.159Y-32.267
X35.215Y-35.29
X35.982Y-35.331
X36.25Y-41.25
X36.3Y-26.1
X36.31Y-13.33
X36.36Y-18.7
X36.71Y-44.75
X37.406Y-37.831
X37.952Y-31.681
X38.0Y-5.495
X38.0Y-34.0
X38.25Y-12.05
X38.791Y-23.517
X39.0Y-5.495
X39.369Y-15.037
X39.8Y-20.35
X39.91Y-36.75
X40.45Y-17.15
X41.05Y-32.025
X41.5Y-2.54
X41.5Y-4.96
X41.5Y-23.77
X42.25Y-16.2
X42.25Y-18.1
X43.2Y-13.75
X43.293Y-9.177
X43.98Y-10.0
X45.9Y-23.503
X47.405Y-8.96
X47.405Y-17.46
X47.7Y-6.5
X47.859Y-38.988
X50.137Y-43.407
X51.613Y-43.373
T3
X8.057Y-41.761
X16.996Y-37.13
X19.177Y-35.213
X20.856Y-30.604
X23.112Y-34.363
X23.603Y-31.573
X25.15Y-23.75
X25.899Y-31.791
X27.021Y-28.811
X27.35Y-25.7
X28.477Y-25.157
X34.049Y-35.861
X35.27Y-31.0
X38.4Y-36.302
X38.593Y-30.404
X39.411Y-35.645
X41.05Y-35.375
X47.405Y-11.5
X47.405Y-20.0
T4
X24.48Y-37.675G85X24.48Y-38.775
G05
X24.48Y-42.105G85X24.48Y-42.705
G05
X33.12Y-37.675G85X33.12Y-38.775
G05
X33.12Y-42.105G85X33.12Y-42.705
G05
M30
