%TF.GenerationSoftware,KiCad,Pcbnew,10.0.6*%
%TF.CreationDate,2026-10-05T06:08:17-07:00*%
%TF.ProjectId,plush-toy-v2-A,706c7573-682d-4746-9f79-2d76322d412e,rev?*%
%TF.SameCoordinates,Original*%
%TF.FileFunction,Copper,L2,Inr*%
%TF.FilePolarity,Positive*%
%FSLAX46Y46*%
G04 Gerber Fmt 4.6, Leading zero omitted, Abs format (unit mm)*
G04 Created by KiCad (PCBNEW 10.0.6) date 2026-10-05 06:08:17*
%MOMM*%
%LPD*%
G01*
G04 APERTURE LIST*
%TA.AperFunction,ComponentPad*%
%ADD10O,1.000000X2.100000*%
%TD*%
%TA.AperFunction,ComponentPad*%
%ADD11O,1.000000X1.600000*%
%TD*%
%TA.AperFunction,HeatsinkPad*%
%ADD12C,0.600000*%
%TD*%
%TA.AperFunction,HeatsinkPad*%
%ADD13C,0.500000*%
%TD*%
%TA.AperFunction,ViaPad*%
%ADD14C,0.600000*%
%TD*%
%TA.AperFunction,ViaPad*%
%ADD15C,0.800000*%
%TD*%
G04 APERTURE END LIST*
D10*
%TO.N,GND*%
%TO.C,J_USB*%
X24480000Y-38225000D03*
D11*
X24480000Y-42405000D03*
D10*
X33120000Y-38225000D03*
D11*
X33120000Y-42405000D03*
%TD*%
D12*
%TO.N,GND*%
%TO.C,U1*%
X8510000Y-23900000D03*
X9910000Y-23900000D03*
X7810000Y-23200000D03*
X9210000Y-23200000D03*
X10610000Y-23200000D03*
X8510000Y-22500000D03*
X9910000Y-22500000D03*
X7810000Y-21800000D03*
X9210000Y-21800000D03*
X10610000Y-21800000D03*
X8510000Y-21100000D03*
X9910000Y-21100000D03*
%TD*%
D13*
%TO.N,GND*%
%TO.C,U_EFUSE*%
X32800000Y-33750000D03*
X32800000Y-34850000D03*
%TD*%
D14*
%TO.N,+3V3*%
X23020000Y-16750000D03*
X37050000Y-25500000D03*
X16750000Y-10980000D03*
X2760000Y-29750000D03*
X22770000Y-21500000D03*
X20000000Y-11210000D03*
X33204900Y-10182500D03*
X29800000Y-18000000D03*
X36250000Y-17250000D03*
X25275800Y-20563600D03*
X22361600Y-7020700D03*
X27000000Y-18270000D03*
X39000000Y-5495000D03*
X18626800Y-43886800D03*
X26050900Y-20419000D03*
X23000000Y-25960000D03*
X31406800Y-15113200D03*
X29020000Y-14000000D03*
X41500000Y-4960000D03*
X7325000Y-31750000D03*
X26449100Y-22179000D03*
X51000000Y-43480000D03*
X4790000Y-31500000D03*
%TO.N,GND*%
X1490000Y-12250000D03*
X33710000Y-13250000D03*
X13536100Y-6278600D03*
X37500000Y-28050000D03*
X36250000Y-22500000D03*
X27250000Y-29575000D03*
X26450000Y-24500000D03*
X15000000Y-37555000D03*
X5250000Y-6000000D03*
X23343200Y-27886800D03*
X21593200Y-43863200D03*
X23678100Y-7022000D03*
X36950000Y-13750000D03*
X34000000Y-5495000D03*
X44950000Y-6500000D03*
X41593200Y-37136800D03*
X31000000Y-29000000D03*
X48700000Y-6250000D03*
X36730000Y-37750000D03*
X8290900Y-7011600D03*
X50750000Y-38540000D03*
X38950000Y-25500000D03*
X7386800Y-7156800D03*
X20510000Y-38270000D03*
X10675000Y-31750000D03*
X45405000Y-17460000D03*
X25680000Y-14500000D03*
X18850000Y-9300000D03*
X36600000Y-33000000D03*
X26896000Y-21381800D03*
X6480000Y-32260000D03*
X31760000Y-17020000D03*
X31700000Y-18000000D03*
X20000000Y-8790000D03*
X38000000Y-5495000D03*
X12460000Y-34500000D03*
X23230000Y-44750000D03*
X41175000Y-19750000D03*
X9363200Y-42406800D03*
X27250000Y-26550000D03*
X23250000Y-41000000D03*
X1490000Y-29750000D03*
X19000000Y-7000000D03*
X9480000Y-39250000D03*
X24500000Y-26800000D03*
X37925000Y-36250000D03*
X23000000Y-23540000D03*
X43960000Y-38000000D03*
X41500000Y-2540000D03*
X20000000Y-38825000D03*
X25680000Y-19000000D03*
X36980000Y-12000000D03*
X21291000Y-34767400D03*
X38232600Y-17041000D03*
X27000000Y-13290000D03*
X32730000Y-12000000D03*
X47859100Y-38988400D03*
X45405000Y-8960000D03*
%TO.N,SERVO_R_PWM*%
X36115600Y-11222500D03*
X36115600Y-14716400D03*
X22025600Y-26715000D03*
%TO.N,VSYS*%
X45405000Y-11500000D03*
D15*
X30990000Y-13008800D03*
D14*
X29090000Y-24988300D03*
X45405000Y-20000000D03*
D15*
X36064300Y-21550000D03*
X37962500Y-35200000D03*
D14*
X40520800Y-24187700D03*
X37825000Y-19750000D03*
D15*
X25585800Y-27790600D03*
D14*
X40270000Y-33510000D03*
D15*
X35050000Y-15143200D03*
X25900200Y-25852400D03*
D14*
%TO.N,KEY_PWR*%
X30168900Y-6269300D03*
X34528700Y-25033800D03*
%TO.N,KEY_MUTE*%
X10275900Y-10232100D03*
X4791500Y-24710800D03*
D15*
%TO.N,VUSB*%
X29717000Y-30592500D03*
X38966100Y-30750000D03*
X33541800Y-35810300D03*
D14*
%TO.N,I2C_SCL*%
X19245200Y-29596300D03*
X25317000Y-31759900D03*
X5371200Y-13474900D03*
X20955900Y-17513700D03*
%TO.N,I2C_SDA*%
X27862800Y-19147200D03*
X34383700Y-28465200D03*
X27542600Y-23588400D03*
X20473600Y-28737100D03*
D15*
%TO.N,VBAT*%
X20917600Y-31027300D03*
X21608700Y-33582400D03*
D14*
X9304100Y-41314100D03*
D15*
X28719500Y-27621600D03*
%TO.N,HEAT_LOW*%
X44732200Y-28250000D03*
X44501200Y-15698700D03*
D14*
%TO.N,HEAT_GATE_DRV*%
X15433100Y-30953800D03*
X27156000Y-9187200D03*
%TO.N,LCD_BL_PWM*%
X18024500Y-15285000D03*
X34793500Y-11227300D03*
%TO.N,BOOT*%
X22544800Y-18766700D03*
%TO.N,AMP_DIN*%
X34279600Y-32250000D03*
X15944900Y-11036600D03*
%TO.N,AMP_SD*%
X40597500Y-32633000D03*
X39765800Y-28146900D03*
X36201400Y-26547500D03*
X33727800Y-31731200D03*
%TO.N,AMP_LRCLK*%
X32900900Y-30728100D03*
X17058300Y-23652100D03*
%TO.N,AMP_BCLK*%
X10556800Y-13467300D03*
X35254900Y-31562500D03*
%TO.N,LCD_RST*%
X22760600Y-10492100D03*
X28140000Y-10492100D03*
X16693700Y-17825000D03*
X28051000Y-6992700D03*
%TO.N,LCD_CS*%
X25079300Y-7742800D03*
X17257200Y-14388200D03*
%TO.N,LCD_DC*%
X25837100Y-7010000D03*
X17972300Y-16159700D03*
%TO.N,LCD_CLK_S*%
X28001800Y-11750000D03*
X29604400Y-5770500D03*
%TO.N,LCD_BL*%
X22169600Y-8394500D03*
X20889900Y-4733700D03*
%TO.N,CC_SENSE*%
X7522100Y-30975000D03*
X23505300Y-37693700D03*
X20020000Y-42443600D03*
%TO.N,VBUS_IN*%
X28743500Y-35652200D03*
X29577800Y-35764400D03*
%TO.N,USB_DN*%
X16347100Y-37017300D03*
X16347100Y-28533300D03*
X18820200Y-37017300D03*
X27861100Y-38678100D03*
%TO.N,CC2*%
X26993000Y-40698700D03*
X25297000Y-35529700D03*
%TO.N,EN*%
X3627300Y-31228100D03*
X23585000Y-15754300D03*
%TO.N,MIC_SD*%
X8040700Y-11047600D03*
X15519100Y-3302700D03*
%TO.N,MIC_SCK*%
X6668900Y-11032100D03*
X18602800Y-3478500D03*
%TO.N,NTC_SENSE*%
X28559300Y-42215800D03*
X18401100Y-41303800D03*
%TO.N,SERVO_L_PWM*%
X16038700Y-16709700D03*
X37951200Y-15177700D03*
%TO.N,LCD_MOSI*%
X15464400Y-19095000D03*
X17489600Y-7812100D03*
%TO.N,LCD_CLK*%
X18035400Y-13809800D03*
X19585700Y-12445500D03*
%TO.N,VBUS_FUSED*%
X31090400Y-35138800D03*
X39274300Y-38046000D03*
%TD*%
%TA.AperFunction,Conductor*%
%TO.N,GND*%
G36*
X50004418Y-300816D02*
G01*
X50233020Y-317165D01*
X50250529Y-319683D01*
X50470144Y-367458D01*
X50487103Y-372437D01*
X50697694Y-450983D01*
X50713777Y-458327D01*
X50911034Y-566039D01*
X50911036Y-566040D01*
X50925919Y-575605D01*
X51105836Y-710289D01*
X51119207Y-721875D01*
X51278124Y-880792D01*
X51289710Y-894163D01*
X51424394Y-1074080D01*
X51433959Y-1088963D01*
X51541669Y-1286217D01*
X51549019Y-1302311D01*
X51627559Y-1512887D01*
X51632543Y-1529862D01*
X51680316Y-1749470D01*
X51682834Y-1766982D01*
X51699184Y-1995580D01*
X51699500Y-2004426D01*
X51699500Y-42752649D01*
X51679815Y-42819688D01*
X51627011Y-42865443D01*
X51557853Y-42875387D01*
X51506609Y-42855751D01*
X51379185Y-42770609D01*
X51379172Y-42770602D01*
X51233501Y-42710264D01*
X51233489Y-42710261D01*
X51078845Y-42679500D01*
X51078842Y-42679500D01*
X50921158Y-42679500D01*
X50921155Y-42679500D01*
X50766510Y-42710261D01*
X50766498Y-42710264D01*
X50620827Y-42770602D01*
X50620814Y-42770609D01*
X50489711Y-42858210D01*
X50489707Y-42858213D01*
X50378213Y-42969707D01*
X50378210Y-42969711D01*
X50290609Y-43100814D01*
X50290602Y-43100827D01*
X50230264Y-43246498D01*
X50230261Y-43246510D01*
X50199500Y-43401153D01*
X50199500Y-43558846D01*
X50230261Y-43713489D01*
X50230264Y-43713501D01*
X50290602Y-43859172D01*
X50290609Y-43859185D01*
X50378210Y-43990288D01*
X50378213Y-43990292D01*
X50489707Y-44101786D01*
X50489711Y-44101789D01*
X50620814Y-44189390D01*
X50620827Y-44189397D01*
X50766498Y-44249735D01*
X50766503Y-44249737D01*
X50921153Y-44280499D01*
X50921156Y-44280500D01*
X50921158Y-44280500D01*
X51078844Y-44280500D01*
X51078845Y-44280499D01*
X51233497Y-44249737D01*
X51379179Y-44189394D01*
X51490701Y-44114876D01*
X51557378Y-44093999D01*
X51624758Y-44112483D01*
X51671449Y-44164462D01*
X51683276Y-44226826D01*
X51682833Y-44233019D01*
X51680315Y-44250530D01*
X51632544Y-44470133D01*
X51627560Y-44487109D01*
X51549016Y-44697691D01*
X51541666Y-44713783D01*
X51433961Y-44911032D01*
X51424396Y-44925917D01*
X51289708Y-45105838D01*
X51278122Y-45119208D01*
X51119208Y-45278122D01*
X51105838Y-45289708D01*
X50925917Y-45424396D01*
X50911032Y-45433961D01*
X50713783Y-45541666D01*
X50697691Y-45549016D01*
X50487109Y-45627560D01*
X50470133Y-45632544D01*
X50250530Y-45680315D01*
X50233019Y-45682833D01*
X50025320Y-45697688D01*
X50004417Y-45699184D01*
X49995572Y-45699500D01*
X2004428Y-45699500D01*
X1995582Y-45699184D01*
X1766982Y-45682834D01*
X1749470Y-45680316D01*
X1529862Y-45632543D01*
X1512887Y-45627559D01*
X1302311Y-45549019D01*
X1286217Y-45541669D01*
X1088963Y-45433959D01*
X1074080Y-45424394D01*
X894163Y-45289710D01*
X880792Y-45278124D01*
X721875Y-45119207D01*
X710289Y-45105836D01*
X575605Y-44925919D01*
X566040Y-44911036D01*
X458330Y-44713782D01*
X450983Y-44697694D01*
X372437Y-44487103D01*
X367458Y-44470144D01*
X319683Y-44250529D01*
X317165Y-44233017D01*
X314045Y-44189397D01*
X300816Y-44004418D01*
X300500Y-43995572D01*
X300500Y-42393713D01*
X2149500Y-42393713D01*
X2149500Y-42606286D01*
X2172681Y-42752649D01*
X2182754Y-42816243D01*
X2247756Y-43016299D01*
X2248444Y-43018414D01*
X2344951Y-43207820D01*
X2469890Y-43379786D01*
X2620213Y-43530109D01*
X2792179Y-43655048D01*
X2792181Y-43655049D01*
X2792184Y-43655051D01*
X2981588Y-43751557D01*
X3183757Y-43817246D01*
X3393713Y-43850500D01*
X3393714Y-43850500D01*
X3606286Y-43850500D01*
X3606287Y-43850500D01*
X3816243Y-43817246D01*
X3844844Y-43807953D01*
X17826300Y-43807953D01*
X17826300Y-43965646D01*
X17857061Y-44120289D01*
X17857064Y-44120301D01*
X17917402Y-44265972D01*
X17917409Y-44265985D01*
X18005010Y-44397088D01*
X18005013Y-44397092D01*
X18116507Y-44508586D01*
X18116511Y-44508589D01*
X18247614Y-44596190D01*
X18247627Y-44596197D01*
X18393298Y-44656535D01*
X18393303Y-44656537D01*
X18539698Y-44685657D01*
X18547953Y-44687299D01*
X18547956Y-44687300D01*
X18547958Y-44687300D01*
X18705644Y-44687300D01*
X18705645Y-44687299D01*
X18860297Y-44656537D01*
X19005979Y-44596194D01*
X19137089Y-44508589D01*
X19248589Y-44397089D01*
X19336194Y-44265979D01*
X19396537Y-44120297D01*
X19427300Y-43965642D01*
X19427300Y-43807958D01*
X19427300Y-43807955D01*
X19427299Y-43807953D01*
X19404111Y-43691381D01*
X19396537Y-43653303D01*
X19357412Y-43558846D01*
X19336197Y-43507627D01*
X19336190Y-43507614D01*
X19248589Y-43376511D01*
X19248586Y-43376507D01*
X19137092Y-43265013D01*
X19137088Y-43265010D01*
X19005985Y-43177409D01*
X19005972Y-43177402D01*
X18860301Y-43117064D01*
X18860289Y-43117061D01*
X18705645Y-43086300D01*
X18705642Y-43086300D01*
X18547958Y-43086300D01*
X18547955Y-43086300D01*
X18393310Y-43117061D01*
X18393298Y-43117064D01*
X18247627Y-43177402D01*
X18247614Y-43177409D01*
X18116511Y-43265010D01*
X18116507Y-43265013D01*
X18005013Y-43376507D01*
X18005010Y-43376511D01*
X17917409Y-43507614D01*
X17917402Y-43507627D01*
X17857064Y-43653298D01*
X17857061Y-43653310D01*
X17826300Y-43807953D01*
X3844844Y-43807953D01*
X4018412Y-43751557D01*
X4207816Y-43655051D01*
X4340232Y-43558846D01*
X4379786Y-43530109D01*
X4379788Y-43530106D01*
X4379792Y-43530104D01*
X4530104Y-43379792D01*
X4530106Y-43379788D01*
X4530109Y-43379786D01*
X4655048Y-43207820D01*
X4655047Y-43207820D01*
X4655051Y-43207816D01*
X4751557Y-43018412D01*
X4817246Y-42816243D01*
X4850500Y-42606287D01*
X4850500Y-42393713D01*
X4845913Y-42364753D01*
X19219500Y-42364753D01*
X19219500Y-42522446D01*
X19250261Y-42677089D01*
X19250264Y-42677101D01*
X19310602Y-42822772D01*
X19310609Y-42822785D01*
X19398210Y-42953888D01*
X19398213Y-42953892D01*
X19509707Y-43065386D01*
X19509711Y-43065389D01*
X19640814Y-43152990D01*
X19640827Y-43152997D01*
X19786498Y-43213335D01*
X19786503Y-43213337D01*
X19941153Y-43244099D01*
X19941156Y-43244100D01*
X19941158Y-43244100D01*
X20098844Y-43244100D01*
X20098845Y-43244099D01*
X20253497Y-43213337D01*
X20399179Y-43152994D01*
X20530289Y-43065389D01*
X20641789Y-42953889D01*
X20729394Y-42822779D01*
X20789737Y-42677097D01*
X20820500Y-42522442D01*
X20820500Y-42364758D01*
X20820500Y-42364755D01*
X20820499Y-42364753D01*
X20789738Y-42210110D01*
X20789737Y-42210103D01*
X20759437Y-42136953D01*
X27758800Y-42136953D01*
X27758800Y-42294646D01*
X27789561Y-42449289D01*
X27789564Y-42449301D01*
X27849902Y-42594972D01*
X27849909Y-42594985D01*
X27937510Y-42726088D01*
X27937513Y-42726092D01*
X28049007Y-42837586D01*
X28049011Y-42837589D01*
X28180114Y-42925190D01*
X28180127Y-42925197D01*
X28287595Y-42969711D01*
X28325803Y-42985537D01*
X28480453Y-43016299D01*
X28480456Y-43016300D01*
X28480458Y-43016300D01*
X28638144Y-43016300D01*
X28638145Y-43016299D01*
X28792797Y-42985537D01*
X28938479Y-42925194D01*
X29069589Y-42837589D01*
X29181089Y-42726089D01*
X29268694Y-42594979D01*
X29329037Y-42449297D01*
X29359800Y-42294642D01*
X29359800Y-42136958D01*
X29359800Y-42136955D01*
X29359799Y-42136953D01*
X29349234Y-42083838D01*
X29329037Y-41982303D01*
X29308744Y-41933311D01*
X29268697Y-41836627D01*
X29268690Y-41836614D01*
X29181089Y-41705511D01*
X29181086Y-41705507D01*
X29069592Y-41594013D01*
X29069588Y-41594010D01*
X28938485Y-41506409D01*
X28938472Y-41506402D01*
X28792801Y-41446064D01*
X28792789Y-41446061D01*
X28638145Y-41415300D01*
X28638142Y-41415300D01*
X28480458Y-41415300D01*
X28480455Y-41415300D01*
X28325810Y-41446061D01*
X28325798Y-41446064D01*
X28180127Y-41506402D01*
X28180114Y-41506409D01*
X28049011Y-41594010D01*
X28049007Y-41594013D01*
X27937513Y-41705507D01*
X27937510Y-41705511D01*
X27849909Y-41836614D01*
X27849902Y-41836627D01*
X27789564Y-41982298D01*
X27789561Y-41982310D01*
X27758800Y-42136953D01*
X20759437Y-42136953D01*
X20737436Y-42083837D01*
X20729395Y-42064423D01*
X20729390Y-42064414D01*
X20641789Y-41933311D01*
X20641786Y-41933307D01*
X20530292Y-41821813D01*
X20530288Y-41821810D01*
X20399185Y-41734209D01*
X20399172Y-41734202D01*
X20253501Y-41673864D01*
X20253489Y-41673861D01*
X20098845Y-41643100D01*
X20098842Y-41643100D01*
X19941158Y-41643100D01*
X19941155Y-41643100D01*
X19786510Y-41673861D01*
X19786498Y-41673864D01*
X19640827Y-41734202D01*
X19640814Y-41734209D01*
X19509711Y-41821810D01*
X19509707Y-41821813D01*
X19398213Y-41933307D01*
X19398210Y-41933311D01*
X19310609Y-42064414D01*
X19310602Y-42064427D01*
X19250264Y-42210098D01*
X19250261Y-42210110D01*
X19219500Y-42364753D01*
X4845913Y-42364753D01*
X4817246Y-42183757D01*
X4751557Y-41981588D01*
X4655051Y-41792184D01*
X4655049Y-41792181D01*
X4655048Y-41792179D01*
X4530109Y-41620213D01*
X4379786Y-41469890D01*
X4207815Y-41344948D01*
X4207814Y-41344947D01*
X4197421Y-41339651D01*
X4197418Y-41339651D01*
X4018414Y-41248444D01*
X4018413Y-41248443D01*
X4018412Y-41248443D01*
X3977818Y-41235253D01*
X8503600Y-41235253D01*
X8503600Y-41392946D01*
X8534361Y-41547589D01*
X8534364Y-41547601D01*
X8594702Y-41693272D01*
X8594709Y-41693285D01*
X8682310Y-41824388D01*
X8682313Y-41824392D01*
X8793807Y-41935886D01*
X8793811Y-41935889D01*
X8924914Y-42023490D01*
X8924927Y-42023497D01*
X9070598Y-42083835D01*
X9070603Y-42083837D01*
X9173472Y-42104299D01*
X9225253Y-42114599D01*
X9225256Y-42114600D01*
X9225258Y-42114600D01*
X9382944Y-42114600D01*
X9382945Y-42114599D01*
X9537597Y-42083837D01*
X9683279Y-42023494D01*
X9814389Y-41935889D01*
X9925889Y-41824389D01*
X10013494Y-41693279D01*
X10073837Y-41547597D01*
X10104600Y-41392942D01*
X10104600Y-41235258D01*
X10104600Y-41235254D01*
X10102551Y-41224953D01*
X17600600Y-41224953D01*
X17600600Y-41382646D01*
X17631361Y-41537289D01*
X17631364Y-41537301D01*
X17691702Y-41682972D01*
X17691709Y-41682985D01*
X17779310Y-41814088D01*
X17779313Y-41814092D01*
X17890807Y-41925586D01*
X17890811Y-41925589D01*
X18021914Y-42013190D01*
X18021927Y-42013197D01*
X18145609Y-42064427D01*
X18167603Y-42073537D01*
X18322253Y-42104299D01*
X18322256Y-42104300D01*
X18322258Y-42104300D01*
X18479944Y-42104300D01*
X18479945Y-42104299D01*
X18634597Y-42073537D01*
X18780279Y-42013194D01*
X18911389Y-41925589D01*
X19022889Y-41814089D01*
X19110494Y-41682979D01*
X19170837Y-41537297D01*
X19201600Y-41382642D01*
X19201600Y-41224958D01*
X19201600Y-41224955D01*
X19201599Y-41224953D01*
X19172887Y-41080610D01*
X19170837Y-41070303D01*
X19114763Y-40934927D01*
X19110497Y-40924627D01*
X19110490Y-40924614D01*
X19022889Y-40793511D01*
X19022886Y-40793507D01*
X18911392Y-40682013D01*
X18911388Y-40682010D01*
X18818364Y-40619853D01*
X26192500Y-40619853D01*
X26192500Y-40777546D01*
X26223261Y-40932189D01*
X26223264Y-40932201D01*
X26283602Y-41077872D01*
X26283609Y-41077885D01*
X26371210Y-41208988D01*
X26371213Y-41208992D01*
X26482707Y-41320486D01*
X26482711Y-41320489D01*
X26613814Y-41408090D01*
X26613827Y-41408097D01*
X26705489Y-41446064D01*
X26759503Y-41468437D01*
X26914153Y-41499199D01*
X26914156Y-41499200D01*
X26914158Y-41499200D01*
X27071844Y-41499200D01*
X27071845Y-41499199D01*
X27226497Y-41468437D01*
X27372179Y-41408094D01*
X27503289Y-41320489D01*
X27614789Y-41208989D01*
X27702394Y-41077879D01*
X27762737Y-40932197D01*
X27793500Y-40777542D01*
X27793500Y-40619858D01*
X27793500Y-40619855D01*
X27793499Y-40619853D01*
X27778483Y-40544363D01*
X27762737Y-40465203D01*
X27762735Y-40465198D01*
X27702397Y-40319527D01*
X27702390Y-40319514D01*
X27614789Y-40188411D01*
X27614786Y-40188407D01*
X27503292Y-40076913D01*
X27503288Y-40076910D01*
X27372185Y-39989309D01*
X27372172Y-39989302D01*
X27226501Y-39928964D01*
X27226489Y-39928961D01*
X27071845Y-39898200D01*
X27071842Y-39898200D01*
X26914158Y-39898200D01*
X26914155Y-39898200D01*
X26759510Y-39928961D01*
X26759498Y-39928964D01*
X26613827Y-39989302D01*
X26613814Y-39989309D01*
X26482711Y-40076910D01*
X26482707Y-40076913D01*
X26371213Y-40188407D01*
X26371210Y-40188411D01*
X26283609Y-40319514D01*
X26283602Y-40319527D01*
X26223264Y-40465198D01*
X26223261Y-40465210D01*
X26192500Y-40619853D01*
X18818364Y-40619853D01*
X18780285Y-40594409D01*
X18780272Y-40594402D01*
X18634601Y-40534064D01*
X18634589Y-40534061D01*
X18479945Y-40503300D01*
X18479942Y-40503300D01*
X18322258Y-40503300D01*
X18322255Y-40503300D01*
X18167610Y-40534061D01*
X18167598Y-40534064D01*
X18021927Y-40594402D01*
X18021914Y-40594409D01*
X17890811Y-40682010D01*
X17890807Y-40682013D01*
X17779313Y-40793507D01*
X17779310Y-40793511D01*
X17691709Y-40924614D01*
X17691702Y-40924627D01*
X17631364Y-41070298D01*
X17631361Y-41070310D01*
X17600600Y-41224953D01*
X10102551Y-41224953D01*
X10073838Y-41080610D01*
X10073837Y-41080603D01*
X10069569Y-41070298D01*
X10013497Y-40934927D01*
X10013490Y-40934914D01*
X9925889Y-40803811D01*
X9925886Y-40803807D01*
X9814392Y-40692313D01*
X9814388Y-40692310D01*
X9683285Y-40604709D01*
X9683272Y-40604702D01*
X9537601Y-40544364D01*
X9537589Y-40544361D01*
X9382945Y-40513600D01*
X9382942Y-40513600D01*
X9225258Y-40513600D01*
X9225255Y-40513600D01*
X9070610Y-40544361D01*
X9070598Y-40544364D01*
X8924927Y-40604702D01*
X8924914Y-40604709D01*
X8793811Y-40692310D01*
X8793807Y-40692313D01*
X8682313Y-40803807D01*
X8682310Y-40803811D01*
X8594709Y-40934914D01*
X8594702Y-40934927D01*
X8534364Y-41080598D01*
X8534361Y-41080610D01*
X8503600Y-41235253D01*
X3977818Y-41235253D01*
X3816243Y-41182754D01*
X3816241Y-41182753D01*
X3816240Y-41182753D01*
X3654957Y-41157208D01*
X3606287Y-41149500D01*
X3393713Y-41149500D01*
X3345042Y-41157208D01*
X3183760Y-41182753D01*
X3183757Y-41182754D01*
X3022183Y-41235253D01*
X2981585Y-41248444D01*
X2792179Y-41344951D01*
X2620213Y-41469890D01*
X2469890Y-41620213D01*
X2344951Y-41792179D01*
X2248444Y-41981585D01*
X2182753Y-42183760D01*
X2149500Y-42393713D01*
X300500Y-42393713D01*
X300500Y-38679234D01*
X25334500Y-38679234D01*
X25334500Y-38830765D01*
X25373719Y-38977136D01*
X25411602Y-39042750D01*
X25449485Y-39108365D01*
X25556635Y-39215515D01*
X25687865Y-39291281D01*
X25834234Y-39330500D01*
X25834236Y-39330500D01*
X25985764Y-39330500D01*
X25985766Y-39330500D01*
X26132135Y-39291281D01*
X26263365Y-39215515D01*
X26370515Y-39108365D01*
X26446281Y-38977135D01*
X26485500Y-38830766D01*
X26485500Y-38679234D01*
X26464069Y-38599253D01*
X27060600Y-38599253D01*
X27060600Y-38756946D01*
X27091361Y-38911589D01*
X27091364Y-38911601D01*
X27151702Y-39057272D01*
X27151709Y-39057285D01*
X27239310Y-39188388D01*
X27239313Y-39188392D01*
X27350807Y-39299886D01*
X27350811Y-39299889D01*
X27481914Y-39387490D01*
X27481927Y-39387497D01*
X27627598Y-39447835D01*
X27627603Y-39447837D01*
X27782253Y-39478599D01*
X27782256Y-39478600D01*
X27782258Y-39478600D01*
X27939944Y-39478600D01*
X27939945Y-39478599D01*
X28094597Y-39447837D01*
X28240279Y-39387494D01*
X28371389Y-39299889D01*
X28482889Y-39188389D01*
X28570494Y-39057279D01*
X28630837Y-38911597D01*
X28661600Y-38756942D01*
X28661600Y-38679234D01*
X31114500Y-38679234D01*
X31114500Y-38830765D01*
X31153719Y-38977136D01*
X31191602Y-39042750D01*
X31229485Y-39108365D01*
X31336635Y-39215515D01*
X31467865Y-39291281D01*
X31614234Y-39330500D01*
X31614236Y-39330500D01*
X31765764Y-39330500D01*
X31765766Y-39330500D01*
X31912135Y-39291281D01*
X32043365Y-39215515D01*
X32150515Y-39108365D01*
X32226281Y-38977135D01*
X32265500Y-38830766D01*
X32265500Y-38679234D01*
X32226281Y-38532865D01*
X32150515Y-38401635D01*
X32043365Y-38294485D01*
X31977750Y-38256602D01*
X31912136Y-38218719D01*
X31838950Y-38199109D01*
X31765766Y-38179500D01*
X31614234Y-38179500D01*
X31467863Y-38218719D01*
X31336635Y-38294485D01*
X31336632Y-38294487D01*
X31229487Y-38401632D01*
X31229485Y-38401635D01*
X31153719Y-38532863D01*
X31114500Y-38679234D01*
X28661600Y-38679234D01*
X28661600Y-38599258D01*
X28661600Y-38599255D01*
X28661599Y-38599253D01*
X28653053Y-38556288D01*
X28630837Y-38444603D01*
X28622794Y-38425185D01*
X28570497Y-38298927D01*
X28570490Y-38298914D01*
X28482889Y-38167811D01*
X28482886Y-38167807D01*
X28371396Y-38056317D01*
X28371384Y-38056307D01*
X28240285Y-37968709D01*
X28240272Y-37968702D01*
X28236532Y-37967153D01*
X38473800Y-37967153D01*
X38473800Y-38124846D01*
X38504561Y-38279489D01*
X38504564Y-38279501D01*
X38564902Y-38425172D01*
X38564909Y-38425185D01*
X38652510Y-38556288D01*
X38652513Y-38556292D01*
X38764007Y-38667786D01*
X38764011Y-38667789D01*
X38895114Y-38755390D01*
X38895127Y-38755397D01*
X39040798Y-38815735D01*
X39040803Y-38815737D01*
X39195453Y-38846499D01*
X39195456Y-38846500D01*
X39195458Y-38846500D01*
X39353144Y-38846500D01*
X39353145Y-38846499D01*
X39507797Y-38815737D01*
X39653479Y-38755394D01*
X39784589Y-38667789D01*
X39896089Y-38556289D01*
X39983694Y-38425179D01*
X39992844Y-38403090D01*
X40044035Y-38279501D01*
X40044037Y-38279497D01*
X40074800Y-38124842D01*
X40074800Y-37967158D01*
X40074800Y-37967155D01*
X40074799Y-37967153D01*
X40063104Y-37908361D01*
X40044037Y-37812503D01*
X40033488Y-37787035D01*
X39983697Y-37666827D01*
X39983690Y-37666814D01*
X39896089Y-37535711D01*
X39896086Y-37535707D01*
X39784592Y-37424213D01*
X39784588Y-37424210D01*
X39653485Y-37336609D01*
X39653472Y-37336602D01*
X39507801Y-37276264D01*
X39507789Y-37276261D01*
X39353145Y-37245500D01*
X39353142Y-37245500D01*
X39195458Y-37245500D01*
X39195455Y-37245500D01*
X39040810Y-37276261D01*
X39040798Y-37276264D01*
X38895127Y-37336602D01*
X38895114Y-37336609D01*
X38764011Y-37424210D01*
X38764007Y-37424213D01*
X38652513Y-37535707D01*
X38652510Y-37535711D01*
X38564909Y-37666814D01*
X38564902Y-37666827D01*
X38504564Y-37812498D01*
X38504561Y-37812510D01*
X38473800Y-37967153D01*
X28236532Y-37967153D01*
X28094601Y-37908364D01*
X28094589Y-37908361D01*
X27939945Y-37877600D01*
X27939942Y-37877600D01*
X27782258Y-37877600D01*
X27782255Y-37877600D01*
X27627610Y-37908361D01*
X27627598Y-37908364D01*
X27481927Y-37968702D01*
X27481914Y-37968709D01*
X27350811Y-38056310D01*
X27350807Y-38056313D01*
X27239313Y-38167807D01*
X27239310Y-38167811D01*
X27151709Y-38298914D01*
X27151702Y-38298927D01*
X27091364Y-38444598D01*
X27091361Y-38444610D01*
X27060600Y-38599253D01*
X26464069Y-38599253D01*
X26446281Y-38532865D01*
X26370515Y-38401635D01*
X26263365Y-38294485D01*
X26197750Y-38256602D01*
X26132136Y-38218719D01*
X26058950Y-38199109D01*
X25985766Y-38179500D01*
X25834234Y-38179500D01*
X25687863Y-38218719D01*
X25556635Y-38294485D01*
X25556632Y-38294487D01*
X25449487Y-38401632D01*
X25449485Y-38401635D01*
X25373719Y-38532863D01*
X25334500Y-38679234D01*
X300500Y-38679234D01*
X300500Y-36938453D01*
X15546600Y-36938453D01*
X15546600Y-37096146D01*
X15577361Y-37250789D01*
X15577364Y-37250801D01*
X15637702Y-37396472D01*
X15637709Y-37396485D01*
X15725310Y-37527588D01*
X15725313Y-37527592D01*
X15836807Y-37639086D01*
X15836811Y-37639089D01*
X15967914Y-37726690D01*
X15967927Y-37726697D01*
X16078618Y-37772546D01*
X16113603Y-37787037D01*
X16241664Y-37812510D01*
X16268253Y-37817799D01*
X16268256Y-37817800D01*
X16268258Y-37817800D01*
X16425944Y-37817800D01*
X16425945Y-37817799D01*
X16580597Y-37787037D01*
X16726279Y-37726694D01*
X16857389Y-37639089D01*
X16968889Y-37527589D01*
X17056494Y-37396479D01*
X17116837Y-37250797D01*
X17147600Y-37096142D01*
X17147600Y-36938458D01*
X17147600Y-36938455D01*
X17147599Y-36938453D01*
X18019700Y-36938453D01*
X18019700Y-37096146D01*
X18050461Y-37250789D01*
X18050464Y-37250801D01*
X18110802Y-37396472D01*
X18110809Y-37396485D01*
X18198410Y-37527588D01*
X18198413Y-37527592D01*
X18309907Y-37639086D01*
X18309911Y-37639089D01*
X18441014Y-37726690D01*
X18441027Y-37726697D01*
X18551718Y-37772546D01*
X18586703Y-37787037D01*
X18714764Y-37812510D01*
X18741353Y-37817799D01*
X18741356Y-37817800D01*
X18741358Y-37817800D01*
X18899044Y-37817800D01*
X18899045Y-37817799D01*
X19053697Y-37787037D01*
X19199379Y-37726694D01*
X19330489Y-37639089D01*
X19354725Y-37614853D01*
X22704800Y-37614853D01*
X22704800Y-37772546D01*
X22735561Y-37927189D01*
X22735564Y-37927201D01*
X22795902Y-38072872D01*
X22795909Y-38072885D01*
X22883510Y-38203988D01*
X22883513Y-38203992D01*
X22995007Y-38315486D01*
X22995011Y-38315489D01*
X23126114Y-38403090D01*
X23126127Y-38403097D01*
X23226321Y-38444598D01*
X23271803Y-38463437D01*
X23426453Y-38494199D01*
X23426456Y-38494200D01*
X23426458Y-38494200D01*
X23584144Y-38494200D01*
X23584145Y-38494199D01*
X23738797Y-38463437D01*
X23884479Y-38403094D01*
X24015589Y-38315489D01*
X24127089Y-38203989D01*
X24214694Y-38072879D01*
X24275037Y-37927197D01*
X24305800Y-37772542D01*
X24305800Y-37614858D01*
X24305800Y-37614855D01*
X24305799Y-37614853D01*
X24275037Y-37460203D01*
X24260129Y-37424211D01*
X24214697Y-37314527D01*
X24214690Y-37314514D01*
X24127089Y-37183411D01*
X24127086Y-37183407D01*
X24015592Y-37071913D01*
X24015588Y-37071910D01*
X23884485Y-36984309D01*
X23884472Y-36984302D01*
X23738801Y-36923964D01*
X23738789Y-36923961D01*
X23584145Y-36893200D01*
X23584142Y-36893200D01*
X23426458Y-36893200D01*
X23426455Y-36893200D01*
X23271810Y-36923961D01*
X23271798Y-36923964D01*
X23126127Y-36984302D01*
X23126114Y-36984309D01*
X22995011Y-37071910D01*
X22995007Y-37071913D01*
X22883513Y-37183407D01*
X22883510Y-37183411D01*
X22795909Y-37314514D01*
X22795902Y-37314527D01*
X22735564Y-37460198D01*
X22735561Y-37460210D01*
X22704800Y-37614853D01*
X19354725Y-37614853D01*
X19441989Y-37527589D01*
X19529594Y-37396479D01*
X19589937Y-37250797D01*
X19620700Y-37096142D01*
X19620700Y-36938458D01*
X19620700Y-36938455D01*
X19620699Y-36938453D01*
X19617816Y-36923961D01*
X19589937Y-36783803D01*
X19589935Y-36783798D01*
X19529597Y-36638127D01*
X19529590Y-36638114D01*
X19441989Y-36507011D01*
X19441986Y-36507007D01*
X19330492Y-36395513D01*
X19330488Y-36395510D01*
X19199385Y-36307909D01*
X19199372Y-36307902D01*
X19053701Y-36247564D01*
X19053689Y-36247561D01*
X18899045Y-36216800D01*
X18899042Y-36216800D01*
X18741358Y-36216800D01*
X18741355Y-36216800D01*
X18586710Y-36247561D01*
X18586698Y-36247564D01*
X18441027Y-36307902D01*
X18441014Y-36307909D01*
X18309911Y-36395510D01*
X18309907Y-36395513D01*
X18198413Y-36507007D01*
X18198410Y-36507011D01*
X18110809Y-36638114D01*
X18110802Y-36638127D01*
X18050464Y-36783798D01*
X18050461Y-36783810D01*
X18019700Y-36938453D01*
X17147599Y-36938453D01*
X17144716Y-36923961D01*
X17116837Y-36783803D01*
X17116835Y-36783798D01*
X17056497Y-36638127D01*
X17056490Y-36638114D01*
X16968889Y-36507011D01*
X16968886Y-36507007D01*
X16857392Y-36395513D01*
X16857388Y-36395510D01*
X16726285Y-36307909D01*
X16726272Y-36307902D01*
X16580601Y-36247564D01*
X16580589Y-36247561D01*
X16425945Y-36216800D01*
X16425942Y-36216800D01*
X16268258Y-36216800D01*
X16268255Y-36216800D01*
X16113610Y-36247561D01*
X16113598Y-36247564D01*
X15967927Y-36307902D01*
X15967914Y-36307909D01*
X15836811Y-36395510D01*
X15836807Y-36395513D01*
X15725313Y-36507007D01*
X15725310Y-36507011D01*
X15637709Y-36638114D01*
X15637702Y-36638127D01*
X15577364Y-36783798D01*
X15577361Y-36783810D01*
X15546600Y-36938453D01*
X300500Y-36938453D01*
X300500Y-35450853D01*
X24496500Y-35450853D01*
X24496500Y-35608546D01*
X24527261Y-35763189D01*
X24527264Y-35763201D01*
X24587602Y-35908872D01*
X24587609Y-35908885D01*
X24675210Y-36039988D01*
X24675213Y-36039992D01*
X24786707Y-36151486D01*
X24786711Y-36151489D01*
X24917814Y-36239090D01*
X24917827Y-36239097D01*
X25063498Y-36299435D01*
X25063503Y-36299437D01*
X25218153Y-36330199D01*
X25218156Y-36330200D01*
X25218158Y-36330200D01*
X25375844Y-36330200D01*
X25375845Y-36330199D01*
X25530497Y-36299437D01*
X25643166Y-36252767D01*
X25676172Y-36239097D01*
X25676172Y-36239096D01*
X25676179Y-36239094D01*
X25807289Y-36151489D01*
X25918789Y-36039989D01*
X26006394Y-35908879D01*
X26006537Y-35908535D01*
X26031532Y-35848190D01*
X26066737Y-35763197D01*
X26097500Y-35608542D01*
X26097500Y-35573353D01*
X27943000Y-35573353D01*
X27943000Y-35731046D01*
X27973761Y-35885689D01*
X27973764Y-35885701D01*
X28034102Y-36031372D01*
X28034109Y-36031385D01*
X28121710Y-36162488D01*
X28121713Y-36162492D01*
X28233207Y-36273986D01*
X28233211Y-36273989D01*
X28364314Y-36361590D01*
X28364327Y-36361597D01*
X28482336Y-36410477D01*
X28510003Y-36421937D01*
X28664653Y-36452699D01*
X28664656Y-36452700D01*
X28664658Y-36452700D01*
X28822344Y-36452700D01*
X28822345Y-36452699D01*
X28976997Y-36421937D01*
X29004663Y-36410476D01*
X29074130Y-36403007D01*
X29121008Y-36421935D01*
X29198614Y-36473790D01*
X29198627Y-36473797D01*
X29344298Y-36534135D01*
X29344303Y-36534137D01*
X29498953Y-36564899D01*
X29498956Y-36564900D01*
X29498958Y-36564900D01*
X29656644Y-36564900D01*
X29656645Y-36564899D01*
X29811297Y-36534137D01*
X29956979Y-36473794D01*
X30088089Y-36386189D01*
X30199589Y-36274689D01*
X30287194Y-36143579D01*
X30347537Y-35997897D01*
X30367210Y-35898995D01*
X30379489Y-35837268D01*
X30380953Y-35837559D01*
X30404336Y-35779630D01*
X30461366Y-35739264D01*
X30531166Y-35736138D01*
X30574598Y-35757875D01*
X30575046Y-35757205D01*
X30711214Y-35848190D01*
X30711227Y-35848197D01*
X30856898Y-35908535D01*
X30856903Y-35908537D01*
X31011553Y-35939299D01*
X31011556Y-35939300D01*
X31011558Y-35939300D01*
X31169244Y-35939300D01*
X31169245Y-35939299D01*
X31323897Y-35908537D01*
X31469579Y-35848194D01*
X31600689Y-35760589D01*
X31712189Y-35649089D01*
X31793381Y-35527577D01*
X32475974Y-35527577D01*
X32570354Y-35566671D01*
X32624758Y-35610513D01*
X32646822Y-35676807D01*
X32644520Y-35705417D01*
X32641300Y-35721609D01*
X32641300Y-35898995D01*
X32675903Y-36072958D01*
X32675906Y-36072967D01*
X32743783Y-36236840D01*
X32743790Y-36236853D01*
X32842335Y-36384334D01*
X32842338Y-36384338D01*
X32967761Y-36509761D01*
X32967765Y-36509764D01*
X33115246Y-36608309D01*
X33115259Y-36608316D01*
X33187231Y-36638127D01*
X33279134Y-36676194D01*
X33279136Y-36676194D01*
X33279141Y-36676196D01*
X33453104Y-36710799D01*
X33453107Y-36710800D01*
X33453109Y-36710800D01*
X33630493Y-36710800D01*
X33630494Y-36710799D01*
X33688482Y-36699264D01*
X33804458Y-36676196D01*
X33804461Y-36676194D01*
X33804466Y-36676194D01*
X33968347Y-36608313D01*
X34115835Y-36509764D01*
X34241264Y-36384335D01*
X34339813Y-36236847D01*
X34407694Y-36072966D01*
X34409101Y-36065896D01*
X34440333Y-35908879D01*
X34442300Y-35898991D01*
X34442300Y-35721609D01*
X34442300Y-35721606D01*
X34442299Y-35721604D01*
X34407696Y-35547641D01*
X34407693Y-35547632D01*
X34339816Y-35383759D01*
X34339809Y-35383746D01*
X34241264Y-35236265D01*
X34241261Y-35236261D01*
X34116304Y-35111304D01*
X37062000Y-35111304D01*
X37062000Y-35288695D01*
X37096603Y-35462658D01*
X37096606Y-35462667D01*
X37164483Y-35626540D01*
X37164490Y-35626553D01*
X37263035Y-35774034D01*
X37263038Y-35774038D01*
X37388461Y-35899461D01*
X37388465Y-35899464D01*
X37535946Y-35998009D01*
X37535959Y-35998016D01*
X37637293Y-36039989D01*
X37699834Y-36065894D01*
X37699836Y-36065894D01*
X37699841Y-36065896D01*
X37873804Y-36100499D01*
X37873807Y-36100500D01*
X37873809Y-36100500D01*
X38051193Y-36100500D01*
X38051194Y-36100499D01*
X38109182Y-36088964D01*
X38225158Y-36065896D01*
X38225161Y-36065894D01*
X38225166Y-36065894D01*
X38389047Y-35998013D01*
X38536535Y-35899464D01*
X38661964Y-35774035D01*
X38760513Y-35626547D01*
X38828394Y-35462666D01*
X38830744Y-35450855D01*
X38862999Y-35288695D01*
X38863000Y-35288693D01*
X38863000Y-35111306D01*
X38862999Y-35111304D01*
X38828396Y-34937341D01*
X38828393Y-34937332D01*
X38760516Y-34773459D01*
X38760509Y-34773446D01*
X38661964Y-34625965D01*
X38661961Y-34625961D01*
X38536538Y-34500538D01*
X38536534Y-34500535D01*
X38389053Y-34401990D01*
X38389040Y-34401983D01*
X38225167Y-34334106D01*
X38225158Y-34334103D01*
X38051194Y-34299500D01*
X38051191Y-34299500D01*
X37873809Y-34299500D01*
X37873806Y-34299500D01*
X37699841Y-34334103D01*
X37699832Y-34334106D01*
X37535959Y-34401983D01*
X37535946Y-34401990D01*
X37388465Y-34500535D01*
X37388461Y-34500538D01*
X37263038Y-34625961D01*
X37263035Y-34625965D01*
X37164490Y-34773446D01*
X37164483Y-34773459D01*
X37096606Y-34937332D01*
X37096603Y-34937341D01*
X37062000Y-35111304D01*
X34116304Y-35111304D01*
X34115838Y-35110838D01*
X34115834Y-35110835D01*
X33968353Y-35012290D01*
X33968340Y-35012283D01*
X33804467Y-34944406D01*
X33804459Y-34944404D01*
X33649808Y-34913641D01*
X33587897Y-34881256D01*
X33553323Y-34820540D01*
X33550000Y-34792024D01*
X33550000Y-34776128D01*
X33549999Y-34776126D01*
X33521179Y-34631240D01*
X33521178Y-34631236D01*
X33477577Y-34525975D01*
X32976777Y-35026777D01*
X32475974Y-35527577D01*
X31793381Y-35527577D01*
X31799794Y-35517979D01*
X31860137Y-35372297D01*
X31879883Y-35273027D01*
X31892089Y-35211668D01*
X31894920Y-35212231D01*
X31916320Y-35158908D01*
X31973268Y-35118427D01*
X32043062Y-35115161D01*
X32103541Y-35150146D01*
X32118576Y-35173259D01*
X32122421Y-35174024D01*
X32446446Y-34850000D01*
X32446446Y-34849999D01*
X32426556Y-34830109D01*
X32700000Y-34830109D01*
X32700000Y-34869891D01*
X32715224Y-34906645D01*
X32743355Y-34934776D01*
X32780109Y-34950000D01*
X32819891Y-34950000D01*
X32856645Y-34934776D01*
X32884776Y-34906645D01*
X32900000Y-34869891D01*
X32900000Y-34830109D01*
X32884776Y-34793355D01*
X32856645Y-34765224D01*
X32819891Y-34750000D01*
X32780109Y-34750000D01*
X32743355Y-34765224D01*
X32715224Y-34793355D01*
X32700000Y-34830109D01*
X32426556Y-34830109D01*
X32122421Y-34525974D01*
X32122420Y-34525974D01*
X32078823Y-34631228D01*
X32078820Y-34631240D01*
X32050793Y-34772140D01*
X32018408Y-34834051D01*
X31957692Y-34868626D01*
X31887923Y-34864886D01*
X31831251Y-34824019D01*
X31814615Y-34795401D01*
X31799797Y-34759627D01*
X31799790Y-34759614D01*
X31712189Y-34628511D01*
X31712186Y-34628507D01*
X31600692Y-34517013D01*
X31600688Y-34517010D01*
X31469585Y-34429409D01*
X31469572Y-34429402D01*
X31323899Y-34369063D01*
X31323892Y-34369061D01*
X31169245Y-34338300D01*
X31169242Y-34338300D01*
X31011558Y-34338300D01*
X31011555Y-34338300D01*
X30856910Y-34369061D01*
X30856898Y-34369064D01*
X30711227Y-34429402D01*
X30711214Y-34429409D01*
X30580111Y-34517010D01*
X30580107Y-34517013D01*
X30468613Y-34628507D01*
X30468610Y-34628511D01*
X30381009Y-34759614D01*
X30381002Y-34759627D01*
X30320664Y-34905298D01*
X30320661Y-34905310D01*
X30288711Y-35065932D01*
X30287251Y-35065641D01*
X30263845Y-35123591D01*
X30206807Y-35163944D01*
X30137007Y-35167054D01*
X30093601Y-35145325D01*
X30093154Y-35145995D01*
X29956985Y-35055009D01*
X29956972Y-35055002D01*
X29811301Y-34994664D01*
X29811289Y-34994661D01*
X29656645Y-34963900D01*
X29656642Y-34963900D01*
X29498958Y-34963900D01*
X29498955Y-34963900D01*
X29344311Y-34994660D01*
X29344301Y-34994663D01*
X29316632Y-35006124D01*
X29247162Y-35013591D01*
X29200291Y-34994664D01*
X29122685Y-34942809D01*
X29122672Y-34942802D01*
X28977001Y-34882464D01*
X28976989Y-34882461D01*
X28822345Y-34851700D01*
X28822342Y-34851700D01*
X28664658Y-34851700D01*
X28664655Y-34851700D01*
X28510010Y-34882461D01*
X28509998Y-34882464D01*
X28364327Y-34942802D01*
X28364314Y-34942809D01*
X28233211Y-35030410D01*
X28233207Y-35030413D01*
X28121713Y-35141907D01*
X28121710Y-35141911D01*
X28034109Y-35273014D01*
X28034102Y-35273027D01*
X27973764Y-35418698D01*
X27973761Y-35418710D01*
X27943000Y-35573353D01*
X26097500Y-35573353D01*
X26097500Y-35450858D01*
X26097500Y-35450855D01*
X26097499Y-35450853D01*
X26084152Y-35383753D01*
X26066737Y-35296203D01*
X26063626Y-35288693D01*
X26006397Y-35150527D01*
X26006390Y-35150514D01*
X25918789Y-35019411D01*
X25918786Y-35019407D01*
X25807292Y-34907913D01*
X25807288Y-34907910D01*
X25676185Y-34820309D01*
X25676172Y-34820302D01*
X25530501Y-34759964D01*
X25530489Y-34759961D01*
X25375845Y-34729200D01*
X25375842Y-34729200D01*
X25218158Y-34729200D01*
X25218155Y-34729200D01*
X25063510Y-34759961D01*
X25063498Y-34759964D01*
X24917827Y-34820302D01*
X24917814Y-34820309D01*
X24786711Y-34907910D01*
X24786707Y-34907913D01*
X24675213Y-35019407D01*
X24675210Y-35019411D01*
X24587609Y-35150514D01*
X24587602Y-35150527D01*
X24527264Y-35296198D01*
X24527261Y-35296210D01*
X24496500Y-35450853D01*
X300500Y-35450853D01*
X300500Y-33493704D01*
X20708200Y-33493704D01*
X20708200Y-33671095D01*
X20742803Y-33845058D01*
X20742806Y-33845067D01*
X20810683Y-34008940D01*
X20810690Y-34008953D01*
X20909235Y-34156434D01*
X20909238Y-34156438D01*
X21034661Y-34281861D01*
X21034665Y-34281864D01*
X21182146Y-34380409D01*
X21182159Y-34380416D01*
X21300424Y-34429402D01*
X21346034Y-34448294D01*
X21346036Y-34448294D01*
X21346041Y-34448296D01*
X21520004Y-34482899D01*
X21520007Y-34482900D01*
X21520009Y-34482900D01*
X21697393Y-34482900D01*
X21697394Y-34482899D01*
X21755382Y-34471364D01*
X21871358Y-34448296D01*
X21871361Y-34448294D01*
X21871366Y-34448294D01*
X22035247Y-34380413D01*
X22155593Y-34300000D01*
X32603554Y-34300000D01*
X32800000Y-34496446D01*
X32996446Y-34300000D01*
X32800000Y-34103554D01*
X32603554Y-34300000D01*
X22155593Y-34300000D01*
X22182735Y-34281864D01*
X22308164Y-34156435D01*
X22406713Y-34008947D01*
X22474594Y-33845066D01*
X22482237Y-33806645D01*
X22508198Y-33676126D01*
X32050000Y-33676126D01*
X32050000Y-33823873D01*
X32078820Y-33968759D01*
X32078822Y-33968767D01*
X32122421Y-34074024D01*
X32446446Y-33750000D01*
X32446446Y-33749999D01*
X32426556Y-33730109D01*
X32700000Y-33730109D01*
X32700000Y-33769891D01*
X32715224Y-33806645D01*
X32743355Y-33834776D01*
X32780109Y-33850000D01*
X32819891Y-33850000D01*
X32856645Y-33834776D01*
X32884776Y-33806645D01*
X32900000Y-33769891D01*
X32900000Y-33749999D01*
X33153554Y-33749999D01*
X33153554Y-33750001D01*
X33477577Y-34074024D01*
X33477578Y-34074024D01*
X33521175Y-33968775D01*
X33521179Y-33968760D01*
X33549999Y-33823873D01*
X33550000Y-33823871D01*
X33550000Y-33676128D01*
X33549999Y-33676126D01*
X33521179Y-33531240D01*
X33521178Y-33531236D01*
X33496857Y-33472520D01*
X33479722Y-33431153D01*
X39469500Y-33431153D01*
X39469500Y-33588846D01*
X39500261Y-33743489D01*
X39500264Y-33743501D01*
X39560602Y-33889172D01*
X39560609Y-33889185D01*
X39648210Y-34020288D01*
X39648213Y-34020292D01*
X39759707Y-34131786D01*
X39759711Y-34131789D01*
X39890814Y-34219390D01*
X39890827Y-34219397D01*
X40036498Y-34279735D01*
X40036503Y-34279737D01*
X40191153Y-34310499D01*
X40191156Y-34310500D01*
X40191158Y-34310500D01*
X40348844Y-34310500D01*
X40348845Y-34310499D01*
X40503497Y-34279737D01*
X40649179Y-34219394D01*
X40780289Y-34131789D01*
X40891789Y-34020289D01*
X40979394Y-33889179D01*
X41039737Y-33743497D01*
X41070500Y-33588842D01*
X41070500Y-33431158D01*
X41060072Y-33378734D01*
X41066299Y-33309144D01*
X41104337Y-33260175D01*
X41103085Y-33258649D01*
X41107783Y-33254792D01*
X41107789Y-33254789D01*
X41219289Y-33143289D01*
X41306894Y-33012179D01*
X41308476Y-33008361D01*
X41360428Y-32882935D01*
X41367237Y-32866497D01*
X41398000Y-32711842D01*
X41398000Y-32554158D01*
X41398000Y-32554155D01*
X41397999Y-32554153D01*
X41388396Y-32505875D01*
X41367237Y-32399503D01*
X41352117Y-32362999D01*
X41306897Y-32253827D01*
X41306890Y-32253814D01*
X41219289Y-32122711D01*
X41219286Y-32122707D01*
X41107792Y-32011213D01*
X41107788Y-32011210D01*
X40976685Y-31923609D01*
X40976672Y-31923602D01*
X40831001Y-31863264D01*
X40830989Y-31863261D01*
X40676345Y-31832500D01*
X40676342Y-31832500D01*
X40518658Y-31832500D01*
X40518655Y-31832500D01*
X40364010Y-31863261D01*
X40363998Y-31863264D01*
X40218327Y-31923602D01*
X40218314Y-31923609D01*
X40087211Y-32011210D01*
X40087207Y-32011213D01*
X39975713Y-32122707D01*
X39975710Y-32122711D01*
X39888109Y-32253814D01*
X39888102Y-32253827D01*
X39827764Y-32399498D01*
X39827761Y-32399510D01*
X39797000Y-32554153D01*
X39797000Y-32711846D01*
X39807427Y-32764266D01*
X39801200Y-32833858D01*
X39763159Y-32882825D01*
X39764413Y-32884353D01*
X39759704Y-32888217D01*
X39648213Y-32999707D01*
X39648210Y-32999711D01*
X39560609Y-33130814D01*
X39560602Y-33130827D01*
X39500264Y-33276498D01*
X39500261Y-33276510D01*
X39469500Y-33431153D01*
X33479722Y-33431153D01*
X33477577Y-33425975D01*
X33153554Y-33749999D01*
X32900000Y-33749999D01*
X32900000Y-33730109D01*
X32884776Y-33693355D01*
X32856645Y-33665224D01*
X32819891Y-33650000D01*
X32780109Y-33650000D01*
X32743355Y-33665224D01*
X32715224Y-33693355D01*
X32700000Y-33730109D01*
X32426556Y-33730109D01*
X32122421Y-33425974D01*
X32122420Y-33425974D01*
X32078823Y-33531228D01*
X32078820Y-33531240D01*
X32050000Y-33676126D01*
X22508198Y-33676126D01*
X22509199Y-33671095D01*
X22509200Y-33671093D01*
X22509200Y-33493706D01*
X22509199Y-33493704D01*
X22474596Y-33319741D01*
X22474593Y-33319732D01*
X22470207Y-33309144D01*
X22406713Y-33155853D01*
X22406711Y-33155850D01*
X22406709Y-33155846D01*
X22350965Y-33072420D01*
X32475974Y-33072420D01*
X32475974Y-33072421D01*
X32800000Y-33396446D01*
X32800001Y-33396446D01*
X33124024Y-33072421D01*
X33018767Y-33028822D01*
X33018759Y-33028820D01*
X32873872Y-33000000D01*
X32726128Y-33000000D01*
X32581240Y-33028820D01*
X32581228Y-33028823D01*
X32475974Y-33072420D01*
X22350965Y-33072420D01*
X22308164Y-33008365D01*
X22308161Y-33008361D01*
X22182738Y-32882938D01*
X22182734Y-32882935D01*
X22035253Y-32784390D01*
X22035240Y-32784383D01*
X21871367Y-32716506D01*
X21871358Y-32716503D01*
X21697394Y-32681900D01*
X21697391Y-32681900D01*
X21520009Y-32681900D01*
X21520006Y-32681900D01*
X21346041Y-32716503D01*
X21346032Y-32716506D01*
X21182159Y-32784383D01*
X21182146Y-32784390D01*
X21034665Y-32882935D01*
X21034661Y-32882938D01*
X20909238Y-33008361D01*
X20909235Y-33008365D01*
X20810690Y-33155846D01*
X20810683Y-33155859D01*
X20742806Y-33319732D01*
X20742803Y-33319741D01*
X20708200Y-33493704D01*
X300500Y-33493704D01*
X300500Y-29671153D01*
X1959500Y-29671153D01*
X1959500Y-29828846D01*
X1990261Y-29983489D01*
X1990264Y-29983501D01*
X2050602Y-30129172D01*
X2050609Y-30129185D01*
X2138210Y-30260288D01*
X2138213Y-30260292D01*
X2249707Y-30371786D01*
X2249711Y-30371789D01*
X2380814Y-30459390D01*
X2380827Y-30459397D01*
X2488049Y-30503809D01*
X2526503Y-30519737D01*
X2681153Y-30550499D01*
X2681156Y-30550500D01*
X2681158Y-30550500D01*
X2838843Y-30550500D01*
X2849629Y-30548354D01*
X2866376Y-30545023D01*
X2935966Y-30551249D01*
X2991144Y-30594111D01*
X3014390Y-30660001D01*
X2998323Y-30727998D01*
X2993670Y-30735531D01*
X2917909Y-30848914D01*
X2917902Y-30848927D01*
X2857564Y-30994598D01*
X2857561Y-30994610D01*
X2826800Y-31149253D01*
X2826800Y-31306946D01*
X2857561Y-31461589D01*
X2857564Y-31461601D01*
X2917902Y-31607272D01*
X2917909Y-31607285D01*
X3005510Y-31738388D01*
X3005513Y-31738392D01*
X3117007Y-31849886D01*
X3117011Y-31849889D01*
X3248114Y-31937490D01*
X3248127Y-31937497D01*
X3363818Y-31985417D01*
X3393803Y-31997837D01*
X3548453Y-32028599D01*
X3548456Y-32028600D01*
X3548458Y-32028600D01*
X3706144Y-32028600D01*
X3706145Y-32028599D01*
X3860797Y-31997837D01*
X3943564Y-31963554D01*
X4001038Y-31939748D01*
X4070507Y-31932279D01*
X4132986Y-31963554D01*
X4151592Y-31985417D01*
X4168213Y-32010292D01*
X4279707Y-32121786D01*
X4279711Y-32121789D01*
X4410814Y-32209390D01*
X4410827Y-32209397D01*
X4556498Y-32269735D01*
X4556503Y-32269737D01*
X4711153Y-32300499D01*
X4711156Y-32300500D01*
X4711158Y-32300500D01*
X4868844Y-32300500D01*
X4868845Y-32300499D01*
X5023497Y-32269737D01*
X5169179Y-32209394D01*
X5300289Y-32121789D01*
X5411789Y-32010289D01*
X5499394Y-31879179D01*
X5559737Y-31733497D01*
X5572138Y-31671153D01*
X6524500Y-31671153D01*
X6524500Y-31828846D01*
X6555261Y-31983489D01*
X6555264Y-31983501D01*
X6615602Y-32129172D01*
X6615609Y-32129185D01*
X6703210Y-32260288D01*
X6703213Y-32260292D01*
X6814707Y-32371786D01*
X6814711Y-32371789D01*
X6945814Y-32459390D01*
X6945827Y-32459397D01*
X7091498Y-32519735D01*
X7091503Y-32519737D01*
X7246153Y-32550499D01*
X7246156Y-32550500D01*
X7246158Y-32550500D01*
X7403844Y-32550500D01*
X7403845Y-32550499D01*
X7558497Y-32519737D01*
X7704179Y-32459394D01*
X7835289Y-32371789D01*
X7946789Y-32260289D01*
X8034394Y-32129179D01*
X8094737Y-31983497D01*
X8125500Y-31828842D01*
X8125500Y-31671158D01*
X8125500Y-31671155D01*
X8110644Y-31596471D01*
X8116871Y-31526879D01*
X8140687Y-31490543D01*
X8140024Y-31489999D01*
X8143889Y-31485289D01*
X8231490Y-31354185D01*
X8231490Y-31354184D01*
X8231494Y-31354179D01*
X8291837Y-31208497D01*
X8322600Y-31053842D01*
X8322600Y-30896158D01*
X8321983Y-30893056D01*
X8321983Y-30893053D01*
X8318383Y-30874953D01*
X14632600Y-30874953D01*
X14632600Y-31032646D01*
X14663361Y-31187289D01*
X14663364Y-31187301D01*
X14723702Y-31332972D01*
X14723709Y-31332985D01*
X14811310Y-31464088D01*
X14811313Y-31464092D01*
X14922807Y-31575586D01*
X14922811Y-31575589D01*
X15053914Y-31663190D01*
X15053927Y-31663197D01*
X15199598Y-31723535D01*
X15199603Y-31723537D01*
X15354253Y-31754299D01*
X15354256Y-31754300D01*
X15354258Y-31754300D01*
X15511944Y-31754300D01*
X15511945Y-31754299D01*
X15666597Y-31723537D01*
X15812279Y-31663194D01*
X15943389Y-31575589D01*
X16054889Y-31464089D01*
X16142494Y-31332979D01*
X16146198Y-31324038D01*
X16177026Y-31249611D01*
X16202837Y-31187297D01*
X16233600Y-31032642D01*
X16233600Y-30938604D01*
X20017100Y-30938604D01*
X20017100Y-31115995D01*
X20051703Y-31289958D01*
X20051706Y-31289967D01*
X20119583Y-31453840D01*
X20119590Y-31453853D01*
X20218135Y-31601334D01*
X20218138Y-31601338D01*
X20343561Y-31726761D01*
X20343565Y-31726764D01*
X20491046Y-31825309D01*
X20491059Y-31825316D01*
X20613963Y-31876223D01*
X20654934Y-31893194D01*
X20654936Y-31893194D01*
X20654941Y-31893196D01*
X20828904Y-31927799D01*
X20828907Y-31927800D01*
X20828909Y-31927800D01*
X21006293Y-31927800D01*
X21006294Y-31927799D01*
X21064282Y-31916264D01*
X21180258Y-31893196D01*
X21180261Y-31893194D01*
X21180266Y-31893194D01*
X21326796Y-31832500D01*
X21344140Y-31825316D01*
X21344140Y-31825315D01*
X21344147Y-31825313D01*
X21491635Y-31726764D01*
X21537346Y-31681053D01*
X24516500Y-31681053D01*
X24516500Y-31838746D01*
X24547261Y-31993389D01*
X24547264Y-31993401D01*
X24607602Y-32139072D01*
X24607609Y-32139085D01*
X24695210Y-32270188D01*
X24695213Y-32270192D01*
X24806707Y-32381686D01*
X24806711Y-32381689D01*
X24937814Y-32469290D01*
X24937827Y-32469297D01*
X25083498Y-32529635D01*
X25083503Y-32529637D01*
X25206778Y-32554158D01*
X25238153Y-32560399D01*
X25238156Y-32560400D01*
X25238158Y-32560400D01*
X25395844Y-32560400D01*
X25395845Y-32560399D01*
X25550497Y-32529637D01*
X25696179Y-32469294D01*
X25827289Y-32381689D01*
X25938789Y-32270189D01*
X26026394Y-32139079D01*
X26033176Y-32122707D01*
X26053852Y-32072788D01*
X26086737Y-31993397D01*
X26117500Y-31838742D01*
X26117500Y-31681058D01*
X26117500Y-31681055D01*
X26117499Y-31681053D01*
X26104538Y-31615893D01*
X26086737Y-31526403D01*
X26072901Y-31492999D01*
X26026397Y-31380727D01*
X26026390Y-31380714D01*
X25938789Y-31249611D01*
X25938786Y-31249607D01*
X25827292Y-31138113D01*
X25827288Y-31138110D01*
X25696185Y-31050509D01*
X25696172Y-31050502D01*
X25550501Y-30990164D01*
X25550489Y-30990161D01*
X25395845Y-30959400D01*
X25395842Y-30959400D01*
X25238158Y-30959400D01*
X25238155Y-30959400D01*
X25083510Y-30990161D01*
X25083498Y-30990164D01*
X24937827Y-31050502D01*
X24937814Y-31050509D01*
X24806711Y-31138110D01*
X24806707Y-31138113D01*
X24695213Y-31249607D01*
X24695210Y-31249611D01*
X24607609Y-31380714D01*
X24607602Y-31380727D01*
X24547264Y-31526398D01*
X24547261Y-31526410D01*
X24516500Y-31681053D01*
X21537346Y-31681053D01*
X21617064Y-31601335D01*
X21715613Y-31453847D01*
X21717429Y-31449464D01*
X21741845Y-31390516D01*
X21783494Y-31289966D01*
X21793491Y-31239711D01*
X21806564Y-31173982D01*
X21818100Y-31115991D01*
X21818100Y-30938609D01*
X21818100Y-30938606D01*
X21818099Y-30938604D01*
X21783496Y-30764641D01*
X21783493Y-30764632D01*
X21715616Y-30600759D01*
X21715608Y-30600744D01*
X21692799Y-30566609D01*
X21692798Y-30566608D01*
X21650833Y-30503804D01*
X28816500Y-30503804D01*
X28816500Y-30681195D01*
X28851103Y-30855158D01*
X28851106Y-30855167D01*
X28918983Y-31019040D01*
X28918990Y-31019053D01*
X29017535Y-31166534D01*
X29017538Y-31166538D01*
X29142961Y-31291961D01*
X29142965Y-31291964D01*
X29290446Y-31390509D01*
X29290459Y-31390516D01*
X29364425Y-31421153D01*
X29454334Y-31458394D01*
X29454336Y-31458394D01*
X29454341Y-31458396D01*
X29628304Y-31492999D01*
X29628307Y-31493000D01*
X29628309Y-31493000D01*
X29805693Y-31493000D01*
X29805694Y-31492999D01*
X29863682Y-31481464D01*
X29979658Y-31458396D01*
X29979661Y-31458394D01*
X29979666Y-31458394D01*
X30143547Y-31390513D01*
X30291035Y-31291964D01*
X30416464Y-31166535D01*
X30515013Y-31019047D01*
X30582894Y-30855166D01*
X30583304Y-30853109D01*
X30617499Y-30681195D01*
X30617500Y-30681193D01*
X30617500Y-30649253D01*
X32100400Y-30649253D01*
X32100400Y-30806946D01*
X32131161Y-30961589D01*
X32131164Y-30961601D01*
X32191502Y-31107272D01*
X32191509Y-31107285D01*
X32279110Y-31238388D01*
X32279113Y-31238392D01*
X32390607Y-31349886D01*
X32390611Y-31349889D01*
X32521714Y-31437490D01*
X32521727Y-31437497D01*
X32655723Y-31492999D01*
X32667403Y-31497837D01*
X32757895Y-31515837D01*
X32827491Y-31529681D01*
X32889402Y-31562066D01*
X32923976Y-31622781D01*
X32927300Y-31651298D01*
X32927300Y-31810046D01*
X32958061Y-31964689D01*
X32958064Y-31964701D01*
X33018402Y-32110372D01*
X33018409Y-32110385D01*
X33106010Y-32241488D01*
X33106013Y-32241492D01*
X33217507Y-32352986D01*
X33217511Y-32352989D01*
X33348614Y-32440590D01*
X33348627Y-32440597D01*
X33474351Y-32492673D01*
X33528755Y-32536514D01*
X33541460Y-32559781D01*
X33570204Y-32629175D01*
X33570209Y-32629185D01*
X33657810Y-32760288D01*
X33657813Y-32760292D01*
X33769307Y-32871786D01*
X33769311Y-32871789D01*
X33900414Y-32959390D01*
X33900427Y-32959397D01*
X34046098Y-33019735D01*
X34046103Y-33019737D01*
X34200753Y-33050499D01*
X34200756Y-33050500D01*
X34200758Y-33050500D01*
X34358444Y-33050500D01*
X34358445Y-33050499D01*
X34513097Y-33019737D01*
X34658779Y-32959394D01*
X34789889Y-32871789D01*
X34901389Y-32760289D01*
X34988994Y-32629179D01*
X35049337Y-32483497D01*
X35053452Y-32462808D01*
X35085835Y-32400900D01*
X35146550Y-32366324D01*
X35175069Y-32363000D01*
X35333744Y-32363000D01*
X35333745Y-32362999D01*
X35488397Y-32332237D01*
X35634079Y-32271894D01*
X35765189Y-32184289D01*
X35876689Y-32072789D01*
X35964294Y-31941679D01*
X35966028Y-31937494D01*
X35996775Y-31863263D01*
X36024637Y-31795997D01*
X36055400Y-31641342D01*
X36055400Y-31483658D01*
X36055400Y-31483655D01*
X36055399Y-31483653D01*
X36051507Y-31464088D01*
X36024637Y-31329003D01*
X36024635Y-31328998D01*
X35964297Y-31183327D01*
X35964290Y-31183314D01*
X35876689Y-31052211D01*
X35876686Y-31052207D01*
X35765192Y-30940713D01*
X35765188Y-30940710D01*
X35634085Y-30853109D01*
X35634072Y-30853102D01*
X35488401Y-30792764D01*
X35488389Y-30792761D01*
X35408320Y-30776834D01*
X35408319Y-30776834D01*
X35333744Y-30762000D01*
X35333742Y-30762000D01*
X35176058Y-30762000D01*
X35176055Y-30762000D01*
X35021410Y-30792761D01*
X35021398Y-30792764D01*
X34875727Y-30853102D01*
X34875714Y-30853109D01*
X34744611Y-30940710D01*
X34744607Y-30940713D01*
X34633113Y-31052207D01*
X34633110Y-31052211D01*
X34545504Y-31183322D01*
X34542985Y-31188036D01*
X34494024Y-31237881D01*
X34425886Y-31253343D01*
X34360206Y-31229513D01*
X34345945Y-31217266D01*
X34238092Y-31109413D01*
X34238088Y-31109410D01*
X34106985Y-31021809D01*
X34106972Y-31021802D01*
X33961301Y-30961464D01*
X33961291Y-30961461D01*
X33801208Y-30929618D01*
X33739297Y-30897233D01*
X33704723Y-30836517D01*
X33701400Y-30808001D01*
X33701400Y-30661304D01*
X38065600Y-30661304D01*
X38065600Y-30838695D01*
X38100203Y-31012658D01*
X38100206Y-31012667D01*
X38168083Y-31176540D01*
X38168090Y-31176553D01*
X38266635Y-31324034D01*
X38266638Y-31324038D01*
X38392061Y-31449461D01*
X38392065Y-31449464D01*
X38539546Y-31548009D01*
X38539559Y-31548016D01*
X38613986Y-31578844D01*
X38703434Y-31615894D01*
X38703436Y-31615894D01*
X38703441Y-31615896D01*
X38877404Y-31650499D01*
X38877407Y-31650500D01*
X38877409Y-31650500D01*
X39054793Y-31650500D01*
X39054794Y-31650499D01*
X39112782Y-31638964D01*
X39228758Y-31615896D01*
X39228761Y-31615894D01*
X39228766Y-31615894D01*
X39392647Y-31548013D01*
X39540135Y-31449464D01*
X39665564Y-31324035D01*
X39764113Y-31176547D01*
X39768261Y-31166534D01*
X39780033Y-31138113D01*
X39831994Y-31012666D01*
X39842153Y-30961597D01*
X39855787Y-30893053D01*
X39866600Y-30838691D01*
X39866600Y-30661309D01*
X39866600Y-30661306D01*
X39866599Y-30661304D01*
X39831996Y-30487341D01*
X39831993Y-30487332D01*
X39764116Y-30323459D01*
X39764109Y-30323446D01*
X39665564Y-30175965D01*
X39665561Y-30175961D01*
X39540138Y-30050538D01*
X39540134Y-30050535D01*
X39392653Y-29951990D01*
X39392640Y-29951983D01*
X39228767Y-29884106D01*
X39228758Y-29884103D01*
X39054794Y-29849500D01*
X39054791Y-29849500D01*
X38877409Y-29849500D01*
X38877406Y-29849500D01*
X38703441Y-29884103D01*
X38703432Y-29884106D01*
X38539559Y-29951983D01*
X38539546Y-29951990D01*
X38392065Y-30050535D01*
X38392061Y-30050538D01*
X38266638Y-30175961D01*
X38266635Y-30175965D01*
X38168090Y-30323446D01*
X38168083Y-30323459D01*
X38100206Y-30487332D01*
X38100203Y-30487341D01*
X38065600Y-30661304D01*
X33701400Y-30661304D01*
X33701400Y-30649255D01*
X33701399Y-30649253D01*
X33690769Y-30595814D01*
X33670637Y-30494603D01*
X33667625Y-30487332D01*
X33610297Y-30348927D01*
X33610290Y-30348914D01*
X33522689Y-30217811D01*
X33522686Y-30217807D01*
X33411192Y-30106313D01*
X33411188Y-30106310D01*
X33280085Y-30018709D01*
X33280072Y-30018702D01*
X33134401Y-29958364D01*
X33134389Y-29958361D01*
X32979745Y-29927600D01*
X32979742Y-29927600D01*
X32822058Y-29927600D01*
X32822055Y-29927600D01*
X32667410Y-29958361D01*
X32667398Y-29958364D01*
X32521727Y-30018702D01*
X32521714Y-30018709D01*
X32390611Y-30106310D01*
X32390607Y-30106313D01*
X32279113Y-30217807D01*
X32279110Y-30217811D01*
X32191509Y-30348914D01*
X32191502Y-30348927D01*
X32131164Y-30494598D01*
X32131161Y-30494610D01*
X32100400Y-30649253D01*
X30617500Y-30649253D01*
X30617500Y-30503806D01*
X30617499Y-30503804D01*
X30582896Y-30329841D01*
X30582893Y-30329832D01*
X30515016Y-30165959D01*
X30515009Y-30165946D01*
X30416464Y-30018465D01*
X30416461Y-30018461D01*
X30291038Y-29893038D01*
X30291034Y-29893035D01*
X30143553Y-29794490D01*
X30143540Y-29794483D01*
X29979667Y-29726606D01*
X29979658Y-29726603D01*
X29805694Y-29692000D01*
X29805691Y-29692000D01*
X29628309Y-29692000D01*
X29628306Y-29692000D01*
X29454341Y-29726603D01*
X29454332Y-29726606D01*
X29290459Y-29794483D01*
X29290446Y-29794490D01*
X29142965Y-29893035D01*
X29142961Y-29893038D01*
X29017538Y-30018461D01*
X29017535Y-30018465D01*
X28918990Y-30165946D01*
X28918983Y-30165959D01*
X28851106Y-30329832D01*
X28851103Y-30329841D01*
X28816500Y-30503804D01*
X21650833Y-30503804D01*
X21617064Y-30453265D01*
X21617061Y-30453261D01*
X21491638Y-30327838D01*
X21491634Y-30327835D01*
X21344153Y-30229290D01*
X21344140Y-30229283D01*
X21180267Y-30161406D01*
X21180258Y-30161403D01*
X21006294Y-30126800D01*
X21006291Y-30126800D01*
X20828909Y-30126800D01*
X20828906Y-30126800D01*
X20654941Y-30161403D01*
X20654932Y-30161406D01*
X20491059Y-30229283D01*
X20491046Y-30229290D01*
X20343565Y-30327835D01*
X20343561Y-30327838D01*
X20218138Y-30453261D01*
X20218135Y-30453265D01*
X20119590Y-30600746D01*
X20119583Y-30600759D01*
X20051706Y-30764632D01*
X20051703Y-30764641D01*
X20017100Y-30938604D01*
X16233600Y-30938604D01*
X16233600Y-30874958D01*
X16233600Y-30874955D01*
X16233599Y-30874953D01*
X16229663Y-30855166D01*
X16202837Y-30720303D01*
X16186637Y-30681193D01*
X16142497Y-30574627D01*
X16142490Y-30574614D01*
X16054889Y-30443511D01*
X16054886Y-30443507D01*
X15943392Y-30332013D01*
X15943388Y-30332010D01*
X15812285Y-30244409D01*
X15812272Y-30244402D01*
X15666601Y-30184064D01*
X15666589Y-30184061D01*
X15511945Y-30153300D01*
X15511942Y-30153300D01*
X15354258Y-30153300D01*
X15354255Y-30153300D01*
X15199610Y-30184061D01*
X15199598Y-30184064D01*
X15053927Y-30244402D01*
X15053914Y-30244409D01*
X14922811Y-30332010D01*
X14922807Y-30332013D01*
X14811313Y-30443507D01*
X14811310Y-30443511D01*
X14723709Y-30574614D01*
X14723702Y-30574627D01*
X14663364Y-30720298D01*
X14663361Y-30720310D01*
X14632600Y-30874953D01*
X8318383Y-30874953D01*
X8291838Y-30741508D01*
X8291837Y-30741507D01*
X8291837Y-30741503D01*
X8287181Y-30730263D01*
X8231497Y-30595827D01*
X8231490Y-30595814D01*
X8143889Y-30464711D01*
X8143886Y-30464707D01*
X8032392Y-30353213D01*
X8032388Y-30353210D01*
X7901285Y-30265609D01*
X7901272Y-30265602D01*
X7755601Y-30205264D01*
X7755589Y-30205261D01*
X7600945Y-30174500D01*
X7600942Y-30174500D01*
X7443258Y-30174500D01*
X7443255Y-30174500D01*
X7288610Y-30205261D01*
X7288598Y-30205264D01*
X7142927Y-30265602D01*
X7142914Y-30265609D01*
X7011811Y-30353210D01*
X7011807Y-30353213D01*
X6900313Y-30464707D01*
X6900310Y-30464711D01*
X6812709Y-30595814D01*
X6812702Y-30595827D01*
X6752364Y-30741498D01*
X6752361Y-30741510D01*
X6721600Y-30896153D01*
X6721600Y-30896158D01*
X6721600Y-31053842D01*
X6721601Y-31053846D01*
X6736456Y-31128531D01*
X6730227Y-31198123D01*
X6706412Y-31234465D01*
X6707072Y-31235007D01*
X6703208Y-31239714D01*
X6615609Y-31370814D01*
X6615602Y-31370827D01*
X6555264Y-31516498D01*
X6555261Y-31516510D01*
X6524500Y-31671153D01*
X5572138Y-31671153D01*
X5576246Y-31650500D01*
X5578161Y-31640875D01*
X5578161Y-31640874D01*
X5590500Y-31578844D01*
X5590500Y-31421155D01*
X5590499Y-31421153D01*
X5582458Y-31380727D01*
X5559737Y-31266503D01*
X5548641Y-31239714D01*
X5499397Y-31120827D01*
X5499390Y-31120814D01*
X5411789Y-30989711D01*
X5411786Y-30989707D01*
X5300292Y-30878213D01*
X5300288Y-30878210D01*
X5169185Y-30790609D01*
X5169172Y-30790602D01*
X5023501Y-30730264D01*
X5023489Y-30730261D01*
X4868845Y-30699500D01*
X4868842Y-30699500D01*
X4711158Y-30699500D01*
X4711155Y-30699500D01*
X4556510Y-30730261D01*
X4556498Y-30730264D01*
X4416261Y-30788352D01*
X4346792Y-30795821D01*
X4284313Y-30764545D01*
X4265706Y-30742680D01*
X4249090Y-30717812D01*
X4249086Y-30717807D01*
X4137592Y-30606313D01*
X4137588Y-30606310D01*
X4006485Y-30518709D01*
X4006472Y-30518702D01*
X3860801Y-30458364D01*
X3860789Y-30458361D01*
X3706145Y-30427600D01*
X3706142Y-30427600D01*
X3548458Y-30427600D01*
X3548457Y-30427600D01*
X3520920Y-30433077D01*
X3451329Y-30426848D01*
X3396152Y-30383984D01*
X3372909Y-30318094D01*
X3388978Y-30250097D01*
X3393610Y-30242596D01*
X3469394Y-30129179D01*
X3529737Y-29983497D01*
X3560500Y-29828842D01*
X3560500Y-29671158D01*
X3560500Y-29671155D01*
X3560499Y-29671153D01*
X3533528Y-29535557D01*
X3529926Y-29517453D01*
X18444700Y-29517453D01*
X18444700Y-29675146D01*
X18475461Y-29829789D01*
X18475464Y-29829801D01*
X18535802Y-29975472D01*
X18535809Y-29975485D01*
X18623410Y-30106588D01*
X18623413Y-30106592D01*
X18734907Y-30218086D01*
X18734911Y-30218089D01*
X18866014Y-30305690D01*
X18866027Y-30305697D01*
X19011698Y-30366035D01*
X19011703Y-30366037D01*
X19166353Y-30396799D01*
X19166356Y-30396800D01*
X19166358Y-30396800D01*
X19324044Y-30396800D01*
X19324045Y-30396799D01*
X19478697Y-30366037D01*
X19624379Y-30305694D01*
X19755489Y-30218089D01*
X19866989Y-30106589D01*
X19954594Y-29975479D01*
X19961685Y-29958361D01*
X19988743Y-29893035D01*
X20014937Y-29829797D01*
X20045700Y-29675142D01*
X20045700Y-29611891D01*
X20065385Y-29544852D01*
X20118189Y-29499097D01*
X20187347Y-29489153D01*
X20217149Y-29497329D01*
X20240103Y-29506837D01*
X20384487Y-29535557D01*
X20394753Y-29537599D01*
X20394756Y-29537600D01*
X20394758Y-29537600D01*
X20552444Y-29537600D01*
X20552445Y-29537599D01*
X20707097Y-29506837D01*
X20852779Y-29446494D01*
X20983889Y-29358889D01*
X21095389Y-29247389D01*
X21182994Y-29116279D01*
X21183154Y-29115894D01*
X21214337Y-29040609D01*
X21243337Y-28970597D01*
X21274100Y-28815942D01*
X21274100Y-28658258D01*
X21274100Y-28658255D01*
X21274099Y-28658253D01*
X21260247Y-28588616D01*
X21243337Y-28503603D01*
X21236665Y-28487496D01*
X21182997Y-28357927D01*
X21182990Y-28357914D01*
X21095389Y-28226811D01*
X21095386Y-28226807D01*
X20983892Y-28115313D01*
X20983888Y-28115310D01*
X20852785Y-28027709D01*
X20852772Y-28027702D01*
X20707101Y-27967364D01*
X20707089Y-27967361D01*
X20552445Y-27936600D01*
X20552442Y-27936600D01*
X20394758Y-27936600D01*
X20394755Y-27936600D01*
X20240110Y-27967361D01*
X20240098Y-27967364D01*
X20094427Y-28027702D01*
X20094414Y-28027709D01*
X19963311Y-28115310D01*
X19963307Y-28115313D01*
X19851813Y-28226807D01*
X19851810Y-28226811D01*
X19764209Y-28357914D01*
X19764202Y-28357927D01*
X19703864Y-28503598D01*
X19703861Y-28503610D01*
X19673100Y-28658253D01*
X19673100Y-28721508D01*
X19653415Y-28788547D01*
X19600611Y-28834302D01*
X19531453Y-28844246D01*
X19501649Y-28836070D01*
X19478697Y-28826563D01*
X19478693Y-28826562D01*
X19478689Y-28826561D01*
X19324045Y-28795800D01*
X19324042Y-28795800D01*
X19166358Y-28795800D01*
X19166355Y-28795800D01*
X19011710Y-28826561D01*
X19011698Y-28826564D01*
X18866027Y-28886902D01*
X18866014Y-28886909D01*
X18734911Y-28974510D01*
X18734907Y-28974513D01*
X18623413Y-29086007D01*
X18623410Y-29086011D01*
X18535809Y-29217114D01*
X18535802Y-29217127D01*
X18475464Y-29362798D01*
X18475461Y-29362810D01*
X18444700Y-29517453D01*
X3529926Y-29517453D01*
X3529738Y-29516507D01*
X3529735Y-29516498D01*
X3469397Y-29370827D01*
X3469390Y-29370814D01*
X3381789Y-29239711D01*
X3381786Y-29239707D01*
X3270292Y-29128213D01*
X3270288Y-29128210D01*
X3139185Y-29040609D01*
X3139172Y-29040602D01*
X2993501Y-28980264D01*
X2993489Y-28980261D01*
X2838845Y-28949500D01*
X2838842Y-28949500D01*
X2681158Y-28949500D01*
X2681155Y-28949500D01*
X2526510Y-28980261D01*
X2526498Y-28980264D01*
X2380827Y-29040602D01*
X2380814Y-29040609D01*
X2249711Y-29128210D01*
X2249707Y-29128213D01*
X2138213Y-29239707D01*
X2138210Y-29239711D01*
X2050609Y-29370814D01*
X2050602Y-29370827D01*
X1990264Y-29516498D01*
X1990261Y-29516510D01*
X1959500Y-29671153D01*
X300500Y-29671153D01*
X300500Y-28454453D01*
X15546600Y-28454453D01*
X15546600Y-28612146D01*
X15577361Y-28766789D01*
X15577364Y-28766801D01*
X15637702Y-28912472D01*
X15637709Y-28912485D01*
X15725310Y-29043588D01*
X15725313Y-29043592D01*
X15836807Y-29155086D01*
X15836811Y-29155089D01*
X15967914Y-29242690D01*
X15967927Y-29242697D01*
X16113598Y-29303035D01*
X16113603Y-29303037D01*
X16268253Y-29333799D01*
X16268256Y-29333800D01*
X16268258Y-29333800D01*
X16425944Y-29333800D01*
X16425945Y-29333799D01*
X16580597Y-29303037D01*
X16726279Y-29242694D01*
X16857389Y-29155089D01*
X16968889Y-29043589D01*
X17056494Y-28912479D01*
X17116837Y-28766797D01*
X17147600Y-28612142D01*
X17147600Y-28454458D01*
X17147600Y-28454455D01*
X17147599Y-28454453D01*
X17132868Y-28380397D01*
X17116837Y-28299803D01*
X17088632Y-28231710D01*
X17056497Y-28154127D01*
X17056490Y-28154114D01*
X16968889Y-28023011D01*
X16968886Y-28023007D01*
X16857392Y-27911513D01*
X16857388Y-27911510D01*
X16726285Y-27823909D01*
X16726273Y-27823903D01*
X16693620Y-27810378D01*
X16580601Y-27763564D01*
X16580589Y-27763561D01*
X16425945Y-27732800D01*
X16425942Y-27732800D01*
X16268258Y-27732800D01*
X16268255Y-27732800D01*
X16113610Y-27763561D01*
X16113598Y-27763564D01*
X15967927Y-27823902D01*
X15967914Y-27823909D01*
X15836811Y-27911510D01*
X15836807Y-27911513D01*
X15725313Y-28023007D01*
X15725310Y-28023011D01*
X15637709Y-28154114D01*
X15637702Y-28154127D01*
X15577364Y-28299798D01*
X15577361Y-28299810D01*
X15546600Y-28454453D01*
X300500Y-28454453D01*
X300500Y-27701904D01*
X24685300Y-27701904D01*
X24685300Y-27879295D01*
X24719903Y-28053258D01*
X24719906Y-28053267D01*
X24787783Y-28217140D01*
X24787790Y-28217153D01*
X24886335Y-28364634D01*
X24886338Y-28364638D01*
X25011761Y-28490061D01*
X25011765Y-28490064D01*
X25159246Y-28588609D01*
X25159259Y-28588616D01*
X25216062Y-28612144D01*
X25323134Y-28656494D01*
X25323136Y-28656494D01*
X25323141Y-28656496D01*
X25497104Y-28691099D01*
X25497107Y-28691100D01*
X25497109Y-28691100D01*
X25674493Y-28691100D01*
X25674494Y-28691099D01*
X25732482Y-28679564D01*
X25848458Y-28656496D01*
X25848461Y-28656494D01*
X25848466Y-28656494D01*
X26012347Y-28588613D01*
X26159835Y-28490064D01*
X26285264Y-28364635D01*
X26383813Y-28217147D01*
X26451694Y-28053266D01*
X26452713Y-28048147D01*
X26486299Y-27879295D01*
X26486300Y-27879293D01*
X26486300Y-27701906D01*
X26456284Y-27551009D01*
X26456283Y-27551008D01*
X26452682Y-27532904D01*
X27819000Y-27532904D01*
X27819000Y-27710295D01*
X27853603Y-27884258D01*
X27853606Y-27884267D01*
X27921483Y-28048140D01*
X27921490Y-28048153D01*
X28020035Y-28195634D01*
X28020038Y-28195638D01*
X28145461Y-28321061D01*
X28145465Y-28321064D01*
X28292946Y-28419609D01*
X28292959Y-28419616D01*
X28377065Y-28454453D01*
X28456834Y-28487494D01*
X28456836Y-28487494D01*
X28456841Y-28487496D01*
X28630804Y-28522099D01*
X28630807Y-28522100D01*
X28630809Y-28522100D01*
X28808193Y-28522100D01*
X28808194Y-28522099D01*
X28866182Y-28510564D01*
X28982158Y-28487496D01*
X28982161Y-28487494D01*
X28982166Y-28487494D01*
X29146047Y-28419613D01*
X29195824Y-28386353D01*
X33583200Y-28386353D01*
X33583200Y-28544046D01*
X33613961Y-28698689D01*
X33613964Y-28698701D01*
X33674302Y-28844372D01*
X33674309Y-28844385D01*
X33761910Y-28975488D01*
X33761913Y-28975492D01*
X33873407Y-29086986D01*
X33873411Y-29086989D01*
X34004514Y-29174590D01*
X34004527Y-29174597D01*
X34150198Y-29234935D01*
X34150203Y-29234937D01*
X34304853Y-29265699D01*
X34304856Y-29265700D01*
X34304858Y-29265700D01*
X34462544Y-29265700D01*
X34462545Y-29265699D01*
X34617197Y-29234937D01*
X34762879Y-29174594D01*
X34893989Y-29086989D01*
X35005489Y-28975489D01*
X35093094Y-28844379D01*
X35153437Y-28698697D01*
X35184200Y-28544042D01*
X35184200Y-28386358D01*
X35184200Y-28386355D01*
X35184199Y-28386353D01*
X35171212Y-28321064D01*
X35153437Y-28231703D01*
X35138499Y-28195638D01*
X35102786Y-28109418D01*
X35093095Y-28086024D01*
X35093094Y-28086021D01*
X35093092Y-28086018D01*
X35093090Y-28086014D01*
X35081089Y-28068053D01*
X38965300Y-28068053D01*
X38965300Y-28225746D01*
X38996061Y-28380389D01*
X38996064Y-28380401D01*
X39056402Y-28526072D01*
X39056409Y-28526085D01*
X39144010Y-28657188D01*
X39144013Y-28657192D01*
X39255507Y-28768686D01*
X39255511Y-28768689D01*
X39386614Y-28856290D01*
X39386627Y-28856297D01*
X39522279Y-28912485D01*
X39532303Y-28916637D01*
X39686953Y-28947399D01*
X39686956Y-28947400D01*
X39686958Y-28947400D01*
X39844644Y-28947400D01*
X39844645Y-28947399D01*
X39999297Y-28916637D01*
X40144979Y-28856294D01*
X40276089Y-28768689D01*
X40387589Y-28657189D01*
X40475194Y-28526079D01*
X40535537Y-28380397D01*
X40566300Y-28225742D01*
X40566300Y-28161304D01*
X43831700Y-28161304D01*
X43831700Y-28338695D01*
X43866303Y-28512658D01*
X43866306Y-28512667D01*
X43934183Y-28676540D01*
X43934190Y-28676553D01*
X44032735Y-28824034D01*
X44032738Y-28824038D01*
X44158161Y-28949461D01*
X44158165Y-28949464D01*
X44305646Y-29048009D01*
X44305659Y-29048016D01*
X44397389Y-29086011D01*
X44469534Y-29115894D01*
X44469536Y-29115894D01*
X44469541Y-29115896D01*
X44643504Y-29150499D01*
X44643507Y-29150500D01*
X44643509Y-29150500D01*
X44820893Y-29150500D01*
X44820894Y-29150499D01*
X44878882Y-29138964D01*
X44994858Y-29115896D01*
X44994861Y-29115894D01*
X44994866Y-29115894D01*
X45158747Y-29048013D01*
X45306235Y-28949464D01*
X45431664Y-28824035D01*
X45530213Y-28676547D01*
X45598094Y-28512666D01*
X45599896Y-28503610D01*
X45627539Y-28364635D01*
X45632700Y-28338691D01*
X45632700Y-28161309D01*
X45632700Y-28161306D01*
X45632699Y-28161304D01*
X45598096Y-27987341D01*
X45598093Y-27987332D01*
X45530216Y-27823459D01*
X45530209Y-27823446D01*
X45431664Y-27675965D01*
X45431661Y-27675961D01*
X45306238Y-27550538D01*
X45306234Y-27550535D01*
X45158753Y-27451990D01*
X45158740Y-27451983D01*
X44994867Y-27384106D01*
X44994858Y-27384103D01*
X44820894Y-27349500D01*
X44820891Y-27349500D01*
X44643509Y-27349500D01*
X44643506Y-27349500D01*
X44469541Y-27384103D01*
X44469532Y-27384106D01*
X44305659Y-27451983D01*
X44305646Y-27451990D01*
X44158165Y-27550535D01*
X44158161Y-27550538D01*
X44032738Y-27675961D01*
X44032735Y-27675965D01*
X43934190Y-27823446D01*
X43934183Y-27823459D01*
X43866306Y-27987332D01*
X43866303Y-27987341D01*
X43831700Y-28161304D01*
X40566300Y-28161304D01*
X40566300Y-28068058D01*
X40566300Y-28068055D01*
X40566299Y-28068053D01*
X40558273Y-28027702D01*
X40535537Y-27913403D01*
X40521408Y-27879293D01*
X40475197Y-27767727D01*
X40475190Y-27767714D01*
X40387589Y-27636611D01*
X40387586Y-27636607D01*
X40276092Y-27525113D01*
X40276088Y-27525110D01*
X40144985Y-27437509D01*
X40144972Y-27437502D01*
X39999301Y-27377164D01*
X39999289Y-27377161D01*
X39844645Y-27346400D01*
X39844642Y-27346400D01*
X39686958Y-27346400D01*
X39686955Y-27346400D01*
X39532310Y-27377161D01*
X39532298Y-27377164D01*
X39386627Y-27437502D01*
X39386614Y-27437509D01*
X39255511Y-27525110D01*
X39255507Y-27525113D01*
X39144013Y-27636607D01*
X39144010Y-27636611D01*
X39056409Y-27767714D01*
X39056402Y-27767727D01*
X38996064Y-27913398D01*
X38996061Y-27913410D01*
X38965300Y-28068053D01*
X35081089Y-28068053D01*
X35005489Y-27954911D01*
X35005486Y-27954907D01*
X34893992Y-27843413D01*
X34893988Y-27843410D01*
X34762885Y-27755809D01*
X34762872Y-27755802D01*
X34617201Y-27695464D01*
X34617189Y-27695461D01*
X34462545Y-27664700D01*
X34462542Y-27664700D01*
X34304858Y-27664700D01*
X34304855Y-27664700D01*
X34150210Y-27695461D01*
X34150198Y-27695464D01*
X34004527Y-27755802D01*
X34004514Y-27755809D01*
X33873411Y-27843410D01*
X33873407Y-27843413D01*
X33761913Y-27954907D01*
X33761910Y-27954911D01*
X33674309Y-28086014D01*
X33674302Y-28086027D01*
X33613964Y-28231698D01*
X33613961Y-28231710D01*
X33583200Y-28386353D01*
X29195824Y-28386353D01*
X29293535Y-28321064D01*
X29293538Y-28321061D01*
X29322015Y-28292585D01*
X29418961Y-28195638D01*
X29418964Y-28195635D01*
X29517513Y-28048147D01*
X29585394Y-27884266D01*
X29586384Y-27879293D01*
X29619999Y-27710295D01*
X29620000Y-27710293D01*
X29620000Y-27532906D01*
X29619999Y-27532904D01*
X29585396Y-27358941D01*
X29585393Y-27358932D01*
X29580864Y-27347999D01*
X29568122Y-27317235D01*
X29517516Y-27195059D01*
X29517509Y-27195046D01*
X29418964Y-27047565D01*
X29418961Y-27047561D01*
X29293538Y-26922138D01*
X29293534Y-26922135D01*
X29146053Y-26823590D01*
X29146040Y-26823583D01*
X28982167Y-26755706D01*
X28982158Y-26755703D01*
X28808194Y-26721100D01*
X28808191Y-26721100D01*
X28630809Y-26721100D01*
X28630806Y-26721100D01*
X28456841Y-26755703D01*
X28456832Y-26755706D01*
X28292959Y-26823583D01*
X28292946Y-26823590D01*
X28145465Y-26922135D01*
X28145461Y-26922138D01*
X28020038Y-27047561D01*
X28020035Y-27047565D01*
X27921490Y-27195046D01*
X27921483Y-27195059D01*
X27853606Y-27358932D01*
X27853603Y-27358941D01*
X27819000Y-27532904D01*
X26452682Y-27532904D01*
X26451694Y-27527934D01*
X26420236Y-27451987D01*
X26383816Y-27364059D01*
X26383809Y-27364046D01*
X26285264Y-27216565D01*
X26285261Y-27216561D01*
X26159838Y-27091138D01*
X26159834Y-27091135D01*
X26012353Y-26992590D01*
X26012338Y-26992582D01*
X25991467Y-26983937D01*
X25937064Y-26940096D01*
X25915000Y-26873801D01*
X25932280Y-26806102D01*
X25983418Y-26758492D01*
X26014728Y-26747760D01*
X26073728Y-26736024D01*
X26162858Y-26718296D01*
X26162861Y-26718294D01*
X26162866Y-26718294D01*
X26326747Y-26650413D01*
X26474235Y-26551864D01*
X26557446Y-26468653D01*
X35400900Y-26468653D01*
X35400900Y-26626346D01*
X35431661Y-26780989D01*
X35431664Y-26781001D01*
X35492002Y-26926672D01*
X35492009Y-26926685D01*
X35579610Y-27057788D01*
X35579613Y-27057792D01*
X35691107Y-27169286D01*
X35691111Y-27169289D01*
X35822214Y-27256890D01*
X35822227Y-27256897D01*
X35967898Y-27317235D01*
X35967903Y-27317237D01*
X36114514Y-27346400D01*
X36122553Y-27347999D01*
X36122556Y-27348000D01*
X36122558Y-27348000D01*
X36280244Y-27348000D01*
X36280245Y-27347999D01*
X36434897Y-27317237D01*
X36580579Y-27256894D01*
X36711689Y-27169289D01*
X36823189Y-27057789D01*
X36910794Y-26926679D01*
X36971137Y-26780997D01*
X37001900Y-26626342D01*
X37001900Y-26468658D01*
X37001900Y-26468655D01*
X37001899Y-26468653D01*
X36997929Y-26448691D01*
X37004156Y-26379100D01*
X37047019Y-26323922D01*
X37112909Y-26300678D01*
X37119546Y-26300500D01*
X37128844Y-26300500D01*
X37128845Y-26300499D01*
X37283497Y-26269737D01*
X37429179Y-26209394D01*
X37560289Y-26121789D01*
X37671789Y-26010289D01*
X37759394Y-25879179D01*
X37760462Y-25876602D01*
X37776407Y-25838106D01*
X37819737Y-25733497D01*
X37850500Y-25578842D01*
X37850500Y-25421158D01*
X37850500Y-25421155D01*
X37850499Y-25421153D01*
X37839824Y-25367485D01*
X37819737Y-25266503D01*
X37801221Y-25221801D01*
X37759397Y-25120827D01*
X37759390Y-25120814D01*
X37671789Y-24989711D01*
X37671786Y-24989707D01*
X37560292Y-24878213D01*
X37560288Y-24878210D01*
X37429185Y-24790609D01*
X37429172Y-24790602D01*
X37283501Y-24730264D01*
X37283489Y-24730261D01*
X37128845Y-24699500D01*
X37128842Y-24699500D01*
X36971158Y-24699500D01*
X36971155Y-24699500D01*
X36816510Y-24730261D01*
X36816498Y-24730264D01*
X36670827Y-24790602D01*
X36670814Y-24790609D01*
X36539711Y-24878210D01*
X36539707Y-24878213D01*
X36428213Y-24989707D01*
X36428210Y-24989711D01*
X36340609Y-25120814D01*
X36340602Y-25120827D01*
X36280264Y-25266498D01*
X36280261Y-25266510D01*
X36249500Y-25421153D01*
X36249500Y-25578846D01*
X36253471Y-25598809D01*
X36247244Y-25668400D01*
X36204381Y-25723578D01*
X36138491Y-25746822D01*
X36131854Y-25747000D01*
X36122555Y-25747000D01*
X35967910Y-25777761D01*
X35967898Y-25777764D01*
X35822227Y-25838102D01*
X35822214Y-25838109D01*
X35691111Y-25925710D01*
X35691107Y-25925713D01*
X35579613Y-26037207D01*
X35579610Y-26037211D01*
X35492009Y-26168314D01*
X35492002Y-26168327D01*
X35431664Y-26313998D01*
X35431661Y-26314010D01*
X35400900Y-26468653D01*
X26557446Y-26468653D01*
X26599664Y-26426435D01*
X26631293Y-26379100D01*
X26674789Y-26314003D01*
X26698213Y-26278947D01*
X26702028Y-26269738D01*
X26728964Y-26204707D01*
X26766094Y-26115066D01*
X26770442Y-26093211D01*
X26799870Y-25945263D01*
X26800700Y-25941091D01*
X26800700Y-25763709D01*
X26800700Y-25763706D01*
X26800699Y-25763704D01*
X26766096Y-25589741D01*
X26766093Y-25589732D01*
X26698216Y-25425859D01*
X26698209Y-25425846D01*
X26599664Y-25278365D01*
X26599661Y-25278361D01*
X26474238Y-25152938D01*
X26474234Y-25152935D01*
X26326753Y-25054390D01*
X26326741Y-25054383D01*
X26238724Y-25017927D01*
X26162867Y-24986506D01*
X26162858Y-24986503D01*
X25988894Y-24951900D01*
X25988891Y-24951900D01*
X25811509Y-24951900D01*
X25811506Y-24951900D01*
X25637541Y-24986503D01*
X25637532Y-24986506D01*
X25473659Y-25054383D01*
X25473646Y-25054390D01*
X25326165Y-25152935D01*
X25326161Y-25152938D01*
X25200738Y-25278361D01*
X25200735Y-25278365D01*
X25102190Y-25425846D01*
X25102183Y-25425859D01*
X25034306Y-25589732D01*
X25034303Y-25589741D01*
X24999700Y-25763704D01*
X24999700Y-25941095D01*
X25034303Y-26115058D01*
X25034306Y-26115067D01*
X25102183Y-26278940D01*
X25102190Y-26278953D01*
X25200735Y-26426434D01*
X25200738Y-26426438D01*
X25326161Y-26551861D01*
X25326165Y-26551864D01*
X25473646Y-26650409D01*
X25473659Y-26650416D01*
X25494530Y-26659061D01*
X25548934Y-26702902D01*
X25570999Y-26769196D01*
X25553720Y-26836895D01*
X25502583Y-26884506D01*
X25471270Y-26895239D01*
X25323140Y-26924704D01*
X25323132Y-26924706D01*
X25159259Y-26992583D01*
X25159246Y-26992590D01*
X25011765Y-27091135D01*
X25011761Y-27091138D01*
X24886338Y-27216561D01*
X24886335Y-27216565D01*
X24787790Y-27364046D01*
X24787783Y-27364059D01*
X24719906Y-27527932D01*
X24719903Y-27527941D01*
X24685300Y-27701904D01*
X300500Y-27701904D01*
X300500Y-26636153D01*
X21225100Y-26636153D01*
X21225100Y-26793846D01*
X21255861Y-26948489D01*
X21255864Y-26948501D01*
X21316202Y-27094172D01*
X21316209Y-27094185D01*
X21403810Y-27225288D01*
X21403813Y-27225292D01*
X21515307Y-27336786D01*
X21515311Y-27336789D01*
X21646414Y-27424390D01*
X21646427Y-27424397D01*
X21792098Y-27484735D01*
X21792103Y-27484737D01*
X21946753Y-27515499D01*
X21946756Y-27515500D01*
X21946758Y-27515500D01*
X22104444Y-27515500D01*
X22104445Y-27515499D01*
X22259097Y-27484737D01*
X22404779Y-27424394D01*
X22535889Y-27336789D01*
X22647389Y-27225289D01*
X22734994Y-27094179D01*
X22736255Y-27091136D01*
X22777076Y-26992583D01*
X22795337Y-26948497D01*
X22812879Y-26860309D01*
X22845264Y-26798398D01*
X22905979Y-26763824D01*
X22934496Y-26760500D01*
X23078844Y-26760500D01*
X23078845Y-26760499D01*
X23233497Y-26729737D01*
X23379179Y-26669394D01*
X23510289Y-26581789D01*
X23621789Y-26470289D01*
X23709394Y-26339179D01*
X23710783Y-26335827D01*
X23723067Y-26306166D01*
X23769737Y-26193497D01*
X23800500Y-26038842D01*
X23800500Y-25881158D01*
X23800500Y-25881155D01*
X23800499Y-25881153D01*
X23791936Y-25838106D01*
X23769737Y-25726503D01*
X23769735Y-25726498D01*
X23709397Y-25580827D01*
X23709390Y-25580814D01*
X23621789Y-25449711D01*
X23621786Y-25449707D01*
X23510292Y-25338213D01*
X23510288Y-25338210D01*
X23379185Y-25250609D01*
X23379172Y-25250602D01*
X23233501Y-25190264D01*
X23233489Y-25190261D01*
X23078845Y-25159500D01*
X23078842Y-25159500D01*
X22921158Y-25159500D01*
X22921155Y-25159500D01*
X22766510Y-25190261D01*
X22766498Y-25190264D01*
X22620827Y-25250602D01*
X22620814Y-25250609D01*
X22489711Y-25338210D01*
X22489707Y-25338213D01*
X22378213Y-25449707D01*
X22378210Y-25449711D01*
X22290609Y-25580814D01*
X22290602Y-25580827D01*
X22230264Y-25726498D01*
X22230261Y-25726510D01*
X22212721Y-25814691D01*
X22180336Y-25876602D01*
X22119621Y-25911176D01*
X22091104Y-25914500D01*
X21946755Y-25914500D01*
X21792110Y-25945261D01*
X21792098Y-25945264D01*
X21646427Y-26005602D01*
X21646414Y-26005609D01*
X21515311Y-26093210D01*
X21515307Y-26093213D01*
X21403813Y-26204707D01*
X21403810Y-26204711D01*
X21316209Y-26335814D01*
X21316202Y-26335827D01*
X21255864Y-26481498D01*
X21255861Y-26481510D01*
X21225100Y-26636153D01*
X300500Y-26636153D01*
X300500Y-24631953D01*
X3991000Y-24631953D01*
X3991000Y-24789646D01*
X4021761Y-24944289D01*
X4021764Y-24944301D01*
X4082102Y-25089972D01*
X4082109Y-25089985D01*
X4169710Y-25221088D01*
X4169713Y-25221092D01*
X4281207Y-25332586D01*
X4281211Y-25332589D01*
X4412314Y-25420190D01*
X4412327Y-25420197D01*
X4557998Y-25480535D01*
X4558003Y-25480537D01*
X4712653Y-25511299D01*
X4712656Y-25511300D01*
X4712658Y-25511300D01*
X4870344Y-25511300D01*
X4870345Y-25511299D01*
X5024997Y-25480537D01*
X5137666Y-25433867D01*
X5170672Y-25420197D01*
X5170672Y-25420196D01*
X5170679Y-25420194D01*
X5301789Y-25332589D01*
X5413289Y-25221089D01*
X5500894Y-25089979D01*
X5510353Y-25067144D01*
X5543052Y-24988199D01*
X5561237Y-24944297D01*
X5568168Y-24909453D01*
X28289500Y-24909453D01*
X28289500Y-25067146D01*
X28320261Y-25221789D01*
X28320264Y-25221801D01*
X28380602Y-25367472D01*
X28380609Y-25367485D01*
X28468210Y-25498588D01*
X28468213Y-25498592D01*
X28579707Y-25610086D01*
X28579711Y-25610089D01*
X28710814Y-25697690D01*
X28710827Y-25697697D01*
X28856498Y-25758035D01*
X28856503Y-25758037D01*
X28955662Y-25777761D01*
X29011153Y-25788799D01*
X29011156Y-25788800D01*
X29011158Y-25788800D01*
X29168844Y-25788800D01*
X29168845Y-25788799D01*
X29323497Y-25758037D01*
X29469179Y-25697694D01*
X29600289Y-25610089D01*
X29711789Y-25498589D01*
X29799394Y-25367479D01*
X29859737Y-25221797D01*
X29890500Y-25067142D01*
X29890500Y-24954953D01*
X33728200Y-24954953D01*
X33728200Y-25112646D01*
X33758961Y-25267289D01*
X33758964Y-25267301D01*
X33819302Y-25412972D01*
X33819309Y-25412985D01*
X33906910Y-25544088D01*
X33906913Y-25544092D01*
X34018407Y-25655586D01*
X34018411Y-25655589D01*
X34149514Y-25743190D01*
X34149527Y-25743197D01*
X34259622Y-25788799D01*
X34295203Y-25803537D01*
X34449853Y-25834299D01*
X34449856Y-25834300D01*
X34449858Y-25834300D01*
X34607544Y-25834300D01*
X34607545Y-25834299D01*
X34762197Y-25803537D01*
X34895755Y-25748216D01*
X34907872Y-25743197D01*
X34907872Y-25743196D01*
X34907879Y-25743194D01*
X35038989Y-25655589D01*
X35150489Y-25544089D01*
X35238094Y-25412979D01*
X35298437Y-25267297D01*
X35329200Y-25112642D01*
X35329200Y-24954958D01*
X35329200Y-24954955D01*
X35329199Y-24954953D01*
X35300264Y-24809489D01*
X35298437Y-24800303D01*
X35294422Y-24790609D01*
X35238097Y-24654627D01*
X35238090Y-24654614D01*
X35150489Y-24523511D01*
X35150486Y-24523507D01*
X35038992Y-24412013D01*
X35038988Y-24412010D01*
X34907885Y-24324409D01*
X34907872Y-24324402D01*
X34762201Y-24264064D01*
X34762189Y-24264061D01*
X34607545Y-24233300D01*
X34607542Y-24233300D01*
X34449858Y-24233300D01*
X34449855Y-24233300D01*
X34295210Y-24264061D01*
X34295198Y-24264064D01*
X34149527Y-24324402D01*
X34149514Y-24324409D01*
X34018411Y-24412010D01*
X34018407Y-24412013D01*
X33906913Y-24523507D01*
X33906910Y-24523511D01*
X33819309Y-24654614D01*
X33819302Y-24654627D01*
X33758964Y-24800298D01*
X33758961Y-24800310D01*
X33728200Y-24954953D01*
X29890500Y-24954953D01*
X29890500Y-24909458D01*
X29890500Y-24909455D01*
X29890499Y-24909453D01*
X29884285Y-24878213D01*
X29859737Y-24754803D01*
X29849572Y-24730263D01*
X29799397Y-24609127D01*
X29799390Y-24609114D01*
X29711789Y-24478011D01*
X29711786Y-24478007D01*
X29600292Y-24366513D01*
X29600288Y-24366510D01*
X29469185Y-24278909D01*
X29469172Y-24278902D01*
X29323503Y-24218565D01*
X29323499Y-24218563D01*
X29323497Y-24218563D01*
X29323493Y-24218562D01*
X29323489Y-24218561D01*
X29168845Y-24187800D01*
X29168842Y-24187800D01*
X29011158Y-24187800D01*
X29011155Y-24187800D01*
X28856510Y-24218561D01*
X28856498Y-24218564D01*
X28710827Y-24278902D01*
X28710814Y-24278909D01*
X28579711Y-24366510D01*
X28579707Y-24366513D01*
X28468213Y-24478007D01*
X28468210Y-24478011D01*
X28380609Y-24609114D01*
X28380602Y-24609127D01*
X28320264Y-24754798D01*
X28320261Y-24754810D01*
X28289500Y-24909453D01*
X5568168Y-24909453D01*
X5592000Y-24789642D01*
X5592000Y-24631958D01*
X5592000Y-24631955D01*
X5591999Y-24631953D01*
X5579055Y-24566879D01*
X5561237Y-24477303D01*
X5538263Y-24421838D01*
X5500897Y-24331627D01*
X5500890Y-24331614D01*
X5413289Y-24200511D01*
X5413286Y-24200507D01*
X5301792Y-24089013D01*
X5301788Y-24089010D01*
X5170685Y-24001409D01*
X5170672Y-24001402D01*
X5025001Y-23941064D01*
X5024989Y-23941061D01*
X4870345Y-23910300D01*
X4870342Y-23910300D01*
X4712658Y-23910300D01*
X4712655Y-23910300D01*
X4558010Y-23941061D01*
X4557998Y-23941064D01*
X4412327Y-24001402D01*
X4412314Y-24001409D01*
X4281211Y-24089010D01*
X4281207Y-24089013D01*
X4169713Y-24200507D01*
X4169710Y-24200511D01*
X4082109Y-24331614D01*
X4082102Y-24331627D01*
X4021764Y-24477298D01*
X4021761Y-24477310D01*
X3991000Y-24631953D01*
X300500Y-24631953D01*
X300500Y-23573253D01*
X16257800Y-23573253D01*
X16257800Y-23730946D01*
X16288561Y-23885589D01*
X16288564Y-23885601D01*
X16348902Y-24031272D01*
X16348909Y-24031285D01*
X16436510Y-24162388D01*
X16436513Y-24162392D01*
X16548007Y-24273886D01*
X16548011Y-24273889D01*
X16679114Y-24361490D01*
X16679127Y-24361497D01*
X16824798Y-24421835D01*
X16824803Y-24421837D01*
X16979453Y-24452599D01*
X16979456Y-24452600D01*
X16979458Y-24452600D01*
X17137144Y-24452600D01*
X17137145Y-24452599D01*
X17291797Y-24421837D01*
X17437479Y-24361494D01*
X17568589Y-24273889D01*
X17680089Y-24162389D01*
X17767694Y-24031279D01*
X17828037Y-23885597D01*
X17858800Y-23730942D01*
X17858800Y-23573258D01*
X17858800Y-23573255D01*
X17858799Y-23573253D01*
X17846129Y-23509558D01*
X17828037Y-23418603D01*
X17801650Y-23354898D01*
X17767697Y-23272927D01*
X17767690Y-23272914D01*
X17680089Y-23141811D01*
X17680086Y-23141807D01*
X17568592Y-23030313D01*
X17568588Y-23030310D01*
X17437485Y-22942709D01*
X17437472Y-22942702D01*
X17291801Y-22882364D01*
X17291789Y-22882361D01*
X17137145Y-22851600D01*
X17137142Y-22851600D01*
X16979458Y-22851600D01*
X16979455Y-22851600D01*
X16824810Y-22882361D01*
X16824798Y-22882364D01*
X16679127Y-22942702D01*
X16679114Y-22942709D01*
X16548011Y-23030310D01*
X16548007Y-23030313D01*
X16436513Y-23141807D01*
X16436510Y-23141811D01*
X16348909Y-23272914D01*
X16348902Y-23272927D01*
X16288564Y-23418598D01*
X16288561Y-23418610D01*
X16257800Y-23573253D01*
X300500Y-23573253D01*
X300500Y-21421153D01*
X21969500Y-21421153D01*
X21969500Y-21578846D01*
X22000261Y-21733489D01*
X22000264Y-21733501D01*
X22060602Y-21879172D01*
X22060609Y-21879185D01*
X22148210Y-22010288D01*
X22148213Y-22010292D01*
X22259707Y-22121786D01*
X22259711Y-22121789D01*
X22390814Y-22209390D01*
X22390827Y-22209397D01*
X22507795Y-22257846D01*
X22536503Y-22269737D01*
X22691153Y-22300499D01*
X22691156Y-22300500D01*
X22691158Y-22300500D01*
X22848844Y-22300500D01*
X22848845Y-22300499D01*
X23003497Y-22269737D01*
X23149179Y-22209394D01*
X23280289Y-22121789D01*
X23391789Y-22010289D01*
X23479394Y-21879179D01*
X23539737Y-21733497D01*
X23570500Y-21578842D01*
X23570500Y-21421158D01*
X23570500Y-21421155D01*
X23570499Y-21421153D01*
X23568134Y-21409263D01*
X23539737Y-21266503D01*
X23509370Y-21193190D01*
X23479397Y-21120827D01*
X23479390Y-21120814D01*
X23391789Y-20989711D01*
X23391786Y-20989707D01*
X23280292Y-20878213D01*
X23280288Y-20878210D01*
X23149185Y-20790609D01*
X23149172Y-20790602D01*
X23003501Y-20730264D01*
X23003489Y-20730261D01*
X22848845Y-20699500D01*
X22848842Y-20699500D01*
X22691158Y-20699500D01*
X22691155Y-20699500D01*
X22536510Y-20730261D01*
X22536498Y-20730264D01*
X22390827Y-20790602D01*
X22390814Y-20790609D01*
X22259711Y-20878210D01*
X22259707Y-20878213D01*
X22148213Y-20989707D01*
X22148210Y-20989711D01*
X22060609Y-21120814D01*
X22060602Y-21120827D01*
X22000264Y-21266498D01*
X22000261Y-21266510D01*
X21969500Y-21421153D01*
X300500Y-21421153D01*
X300500Y-20484753D01*
X24475300Y-20484753D01*
X24475300Y-20642446D01*
X24506061Y-20797089D01*
X24506064Y-20797101D01*
X24566402Y-20942772D01*
X24566409Y-20942785D01*
X24654010Y-21073888D01*
X24654013Y-21073892D01*
X24765507Y-21185386D01*
X24765511Y-21185389D01*
X24896614Y-21272990D01*
X24896627Y-21272997D01*
X25042298Y-21333335D01*
X25042303Y-21333337D01*
X25196953Y-21364099D01*
X25196956Y-21364100D01*
X25196958Y-21364100D01*
X25354644Y-21364100D01*
X25354645Y-21364099D01*
X25509297Y-21333337D01*
X25654979Y-21272994D01*
X25664683Y-21266510D01*
X25746705Y-21211705D01*
X25813382Y-21190827D01*
X25839788Y-21193190D01*
X25972055Y-21219500D01*
X26050340Y-21219500D01*
X26117379Y-21239185D01*
X26163134Y-21291989D01*
X26173078Y-21361147D01*
X26144053Y-21424703D01*
X26097792Y-21458061D01*
X26069927Y-21469602D01*
X26069914Y-21469609D01*
X25938811Y-21557210D01*
X25938807Y-21557213D01*
X25827313Y-21668707D01*
X25827310Y-21668711D01*
X25739709Y-21799814D01*
X25739702Y-21799827D01*
X25679364Y-21945498D01*
X25679361Y-21945510D01*
X25648600Y-22100153D01*
X25648600Y-22257846D01*
X25679361Y-22412489D01*
X25679364Y-22412501D01*
X25739702Y-22558172D01*
X25739709Y-22558185D01*
X25827310Y-22689288D01*
X25827313Y-22689292D01*
X25938807Y-22800786D01*
X25938811Y-22800789D01*
X26069914Y-22888390D01*
X26069927Y-22888397D01*
X26201050Y-22942709D01*
X26215603Y-22948737D01*
X26370253Y-22979499D01*
X26370256Y-22979500D01*
X26370258Y-22979500D01*
X26527944Y-22979500D01*
X26527945Y-22979499D01*
X26682597Y-22948737D01*
X26753841Y-22919226D01*
X26823308Y-22911758D01*
X26885787Y-22943033D01*
X26921440Y-23003121D01*
X26918947Y-23072947D01*
X26904394Y-23102678D01*
X26833212Y-23209209D01*
X26833202Y-23209227D01*
X26772864Y-23354898D01*
X26772861Y-23354910D01*
X26742100Y-23509553D01*
X26742100Y-23667246D01*
X26772861Y-23821889D01*
X26772864Y-23821901D01*
X26833202Y-23967572D01*
X26833209Y-23967585D01*
X26920810Y-24098688D01*
X26920813Y-24098692D01*
X27032307Y-24210186D01*
X27032311Y-24210189D01*
X27163414Y-24297790D01*
X27163427Y-24297797D01*
X27309098Y-24358135D01*
X27309103Y-24358137D01*
X27463753Y-24388899D01*
X27463756Y-24388900D01*
X27463758Y-24388900D01*
X27621444Y-24388900D01*
X27621445Y-24388899D01*
X27776097Y-24358137D01*
X27921779Y-24297794D01*
X28052889Y-24210189D01*
X28154225Y-24108853D01*
X39720300Y-24108853D01*
X39720300Y-24266546D01*
X39751061Y-24421189D01*
X39751064Y-24421201D01*
X39811402Y-24566872D01*
X39811409Y-24566885D01*
X39899010Y-24697988D01*
X39899013Y-24697992D01*
X40010507Y-24809486D01*
X40010511Y-24809489D01*
X40141614Y-24897090D01*
X40141627Y-24897097D01*
X40273935Y-24951900D01*
X40287303Y-24957437D01*
X40433427Y-24986503D01*
X40441953Y-24988199D01*
X40441956Y-24988200D01*
X40441958Y-24988200D01*
X40599644Y-24988200D01*
X40599645Y-24988199D01*
X40754297Y-24957437D01*
X40899979Y-24897094D01*
X41031089Y-24809489D01*
X41142589Y-24697989D01*
X41230194Y-24566879D01*
X41290537Y-24421197D01*
X41321300Y-24266542D01*
X41321300Y-24108858D01*
X41321300Y-24108855D01*
X41321299Y-24108853D01*
X41317352Y-24089010D01*
X41290537Y-23954203D01*
X41285094Y-23941063D01*
X41230197Y-23808527D01*
X41230190Y-23808514D01*
X41142589Y-23677411D01*
X41142586Y-23677407D01*
X41031092Y-23565913D01*
X41031088Y-23565910D01*
X40899985Y-23478309D01*
X40899972Y-23478302D01*
X40754301Y-23417964D01*
X40754289Y-23417961D01*
X40599645Y-23387200D01*
X40599642Y-23387200D01*
X40441958Y-23387200D01*
X40441955Y-23387200D01*
X40287310Y-23417961D01*
X40287298Y-23417964D01*
X40141627Y-23478302D01*
X40141614Y-23478309D01*
X40010511Y-23565910D01*
X40010507Y-23565913D01*
X39899013Y-23677407D01*
X39899010Y-23677411D01*
X39811409Y-23808514D01*
X39811402Y-23808527D01*
X39751064Y-23954198D01*
X39751061Y-23954210D01*
X39720300Y-24108853D01*
X28154225Y-24108853D01*
X28164389Y-24098689D01*
X28251994Y-23967579D01*
X28257535Y-23954203D01*
X28265667Y-23934566D01*
X28312337Y-23821897D01*
X28343100Y-23667242D01*
X28343100Y-23509558D01*
X28343100Y-23509555D01*
X28343099Y-23509553D01*
X28336884Y-23478309D01*
X28312337Y-23354903D01*
X28278382Y-23272927D01*
X28251997Y-23209227D01*
X28251990Y-23209214D01*
X28164389Y-23078111D01*
X28164386Y-23078107D01*
X28052892Y-22966613D01*
X28052888Y-22966610D01*
X27921785Y-22879009D01*
X27921772Y-22879002D01*
X27776101Y-22818664D01*
X27776089Y-22818661D01*
X27621445Y-22787900D01*
X27621442Y-22787900D01*
X27463758Y-22787900D01*
X27463755Y-22787900D01*
X27309110Y-22818661D01*
X27309103Y-22818663D01*
X27237858Y-22848173D01*
X27168389Y-22855641D01*
X27105910Y-22824365D01*
X27070258Y-22764276D01*
X27072753Y-22694451D01*
X27087301Y-22664725D01*
X27158494Y-22558179D01*
X27218837Y-22412497D01*
X27249600Y-22257842D01*
X27249600Y-22100158D01*
X27249600Y-22100155D01*
X27249599Y-22100153D01*
X27231724Y-22010289D01*
X27218837Y-21945503D01*
X27218835Y-21945498D01*
X27158497Y-21799827D01*
X27158490Y-21799814D01*
X27070889Y-21668711D01*
X27070886Y-21668707D01*
X26959392Y-21557213D01*
X26959387Y-21557209D01*
X26828285Y-21469609D01*
X26828272Y-21469602D01*
X26808239Y-21461304D01*
X35163800Y-21461304D01*
X35163800Y-21638695D01*
X35198403Y-21812658D01*
X35198406Y-21812667D01*
X35266283Y-21976540D01*
X35266290Y-21976553D01*
X35364835Y-22124034D01*
X35364838Y-22124038D01*
X35490261Y-22249461D01*
X35490265Y-22249464D01*
X35637746Y-22348009D01*
X35637759Y-22348016D01*
X35760663Y-22398923D01*
X35801634Y-22415894D01*
X35801636Y-22415894D01*
X35801641Y-22415896D01*
X35975604Y-22450499D01*
X35975607Y-22450500D01*
X35975609Y-22450500D01*
X36152993Y-22450500D01*
X36152994Y-22450499D01*
X36210982Y-22438964D01*
X36326958Y-22415896D01*
X36326961Y-22415894D01*
X36326966Y-22415894D01*
X36490847Y-22348013D01*
X36638335Y-22249464D01*
X36763764Y-22124035D01*
X36862313Y-21976547D01*
X36930194Y-21812666D01*
X36932751Y-21799814D01*
X36964799Y-21638695D01*
X36964800Y-21638693D01*
X36964800Y-21461306D01*
X36964799Y-21461304D01*
X36930196Y-21287341D01*
X36930193Y-21287332D01*
X36924252Y-21272990D01*
X36889354Y-21188737D01*
X36862316Y-21123459D01*
X36862309Y-21123446D01*
X36763764Y-20975965D01*
X36763761Y-20975961D01*
X36638338Y-20850538D01*
X36638334Y-20850535D01*
X36490853Y-20751990D01*
X36490840Y-20751983D01*
X36326967Y-20684106D01*
X36326958Y-20684103D01*
X36152994Y-20649500D01*
X36152991Y-20649500D01*
X35975609Y-20649500D01*
X35975606Y-20649500D01*
X35801641Y-20684103D01*
X35801632Y-20684106D01*
X35637759Y-20751983D01*
X35637746Y-20751990D01*
X35490265Y-20850535D01*
X35490261Y-20850538D01*
X35364838Y-20975961D01*
X35364835Y-20975965D01*
X35266290Y-21123446D01*
X35266283Y-21123459D01*
X35198406Y-21287332D01*
X35198403Y-21287341D01*
X35163800Y-21461304D01*
X26808239Y-21461304D01*
X26682601Y-21409264D01*
X26682589Y-21409261D01*
X26527945Y-21378500D01*
X26527942Y-21378500D01*
X26449660Y-21378500D01*
X26382621Y-21358815D01*
X26336866Y-21306011D01*
X26326922Y-21236853D01*
X26355947Y-21173297D01*
X26402208Y-21139939D01*
X26430072Y-21128397D01*
X26430072Y-21128396D01*
X26430079Y-21128394D01*
X26561189Y-21040789D01*
X26672689Y-20929289D01*
X26760294Y-20798179D01*
X26760746Y-20797089D01*
X26788425Y-20730264D01*
X26820637Y-20652497D01*
X26851400Y-20497842D01*
X26851400Y-20340158D01*
X26851400Y-20340155D01*
X26851399Y-20340153D01*
X26849399Y-20330098D01*
X26820637Y-20185503D01*
X26820186Y-20184414D01*
X26760297Y-20039827D01*
X26760290Y-20039814D01*
X26672689Y-19908711D01*
X26672686Y-19908707D01*
X26561192Y-19797213D01*
X26561188Y-19797210D01*
X26430085Y-19709609D01*
X26430072Y-19709602D01*
X26284401Y-19649264D01*
X26284389Y-19649261D01*
X26129745Y-19618500D01*
X26129742Y-19618500D01*
X25972058Y-19618500D01*
X25972055Y-19618500D01*
X25817410Y-19649261D01*
X25817398Y-19649264D01*
X25671727Y-19709602D01*
X25671714Y-19709609D01*
X25579995Y-19770895D01*
X25513318Y-19791773D01*
X25486912Y-19789410D01*
X25354644Y-19763100D01*
X25354642Y-19763100D01*
X25196958Y-19763100D01*
X25196955Y-19763100D01*
X25042310Y-19793861D01*
X25042298Y-19793864D01*
X24896627Y-19854202D01*
X24896614Y-19854209D01*
X24765511Y-19941810D01*
X24765507Y-19941813D01*
X24654013Y-20053307D01*
X24654010Y-20053311D01*
X24566409Y-20184414D01*
X24566402Y-20184427D01*
X24506064Y-20330098D01*
X24506061Y-20330110D01*
X24475300Y-20484753D01*
X300500Y-20484753D01*
X300500Y-19016153D01*
X14663900Y-19016153D01*
X14663900Y-19173846D01*
X14694661Y-19328489D01*
X14694664Y-19328501D01*
X14755002Y-19474172D01*
X14755009Y-19474185D01*
X14842610Y-19605288D01*
X14842613Y-19605292D01*
X14954107Y-19716786D01*
X14954111Y-19716789D01*
X15085214Y-19804390D01*
X15085227Y-19804397D01*
X15205486Y-19854209D01*
X15230903Y-19864737D01*
X15362302Y-19890874D01*
X15385553Y-19895499D01*
X15385556Y-19895500D01*
X15385558Y-19895500D01*
X15543244Y-19895500D01*
X15543245Y-19895499D01*
X15697897Y-19864737D01*
X15843579Y-19804394D01*
X15974689Y-19716789D01*
X16086189Y-19605289D01*
X16173794Y-19474179D01*
X16234137Y-19328497D01*
X16264900Y-19173842D01*
X16264900Y-19016158D01*
X16264900Y-19016155D01*
X16264899Y-19016153D01*
X16257760Y-18980263D01*
X16234137Y-18861503D01*
X16234135Y-18861498D01*
X16173794Y-18715820D01*
X16172590Y-18713567D01*
X16172316Y-18712252D01*
X16171463Y-18710192D01*
X16171853Y-18710030D01*
X16167237Y-18687853D01*
X21744300Y-18687853D01*
X21744300Y-18845546D01*
X21775061Y-19000189D01*
X21775064Y-19000201D01*
X21835402Y-19145872D01*
X21835409Y-19145885D01*
X21923010Y-19276988D01*
X21923013Y-19276992D01*
X22034507Y-19388486D01*
X22034511Y-19388489D01*
X22165614Y-19476090D01*
X22165627Y-19476097D01*
X22287035Y-19526385D01*
X22311303Y-19536437D01*
X22465953Y-19567199D01*
X22465956Y-19567200D01*
X22465958Y-19567200D01*
X22623644Y-19567200D01*
X22623645Y-19567199D01*
X22778297Y-19536437D01*
X22923979Y-19476094D01*
X23055089Y-19388489D01*
X23166589Y-19276989D01*
X23254194Y-19145879D01*
X23314537Y-19000197D01*
X23345300Y-18845542D01*
X23345300Y-18687858D01*
X23345300Y-18687855D01*
X23345299Y-18687853D01*
X23326777Y-18594736D01*
X23314537Y-18533203D01*
X23311310Y-18525413D01*
X23254197Y-18387527D01*
X23254190Y-18387514D01*
X23166591Y-18256413D01*
X23166586Y-18256407D01*
X23101332Y-18191153D01*
X26199500Y-18191153D01*
X26199500Y-18348846D01*
X26230261Y-18503489D01*
X26230264Y-18503501D01*
X26290602Y-18649172D01*
X26290609Y-18649185D01*
X26378210Y-18780288D01*
X26378213Y-18780292D01*
X26489707Y-18891786D01*
X26489711Y-18891789D01*
X26620814Y-18979390D01*
X26620827Y-18979397D01*
X26766498Y-19039735D01*
X26766503Y-19039737D01*
X26910390Y-19068358D01*
X26921153Y-19070499D01*
X26921156Y-19070500D01*
X26921158Y-19070500D01*
X26938300Y-19070500D01*
X27005339Y-19090185D01*
X27051094Y-19142989D01*
X27062300Y-19194500D01*
X27062300Y-19226046D01*
X27093061Y-19380689D01*
X27093064Y-19380701D01*
X27153402Y-19526372D01*
X27153409Y-19526385D01*
X27241010Y-19657488D01*
X27241013Y-19657492D01*
X27352507Y-19768986D01*
X27352511Y-19768989D01*
X27483614Y-19856590D01*
X27483627Y-19856597D01*
X27629298Y-19916935D01*
X27629303Y-19916937D01*
X27783953Y-19947699D01*
X27783956Y-19947700D01*
X27783958Y-19947700D01*
X27941644Y-19947700D01*
X27941645Y-19947699D01*
X28096297Y-19916937D01*
X28208966Y-19870267D01*
X28241972Y-19856597D01*
X28241972Y-19856596D01*
X28241979Y-19856594D01*
X28373089Y-19768989D01*
X28470925Y-19671153D01*
X37024500Y-19671153D01*
X37024500Y-19828846D01*
X37055261Y-19983489D01*
X37055264Y-19983501D01*
X37115602Y-20129172D01*
X37115609Y-20129185D01*
X37203210Y-20260288D01*
X37203213Y-20260292D01*
X37314707Y-20371786D01*
X37314711Y-20371789D01*
X37445814Y-20459390D01*
X37445827Y-20459397D01*
X37591498Y-20519735D01*
X37591503Y-20519737D01*
X37746153Y-20550499D01*
X37746156Y-20550500D01*
X37746158Y-20550500D01*
X37903844Y-20550500D01*
X37903845Y-20550499D01*
X38058497Y-20519737D01*
X38204179Y-20459394D01*
X38335289Y-20371789D01*
X38446789Y-20260289D01*
X38534394Y-20129179D01*
X38594737Y-19983497D01*
X38607138Y-19921153D01*
X44604500Y-19921153D01*
X44604500Y-20078846D01*
X44635261Y-20233489D01*
X44635264Y-20233501D01*
X44695602Y-20379172D01*
X44695609Y-20379185D01*
X44783210Y-20510288D01*
X44783213Y-20510292D01*
X44894707Y-20621786D01*
X44894711Y-20621789D01*
X45025814Y-20709390D01*
X45025827Y-20709397D01*
X45171498Y-20769735D01*
X45171503Y-20769737D01*
X45314490Y-20798179D01*
X45326153Y-20800499D01*
X45326156Y-20800500D01*
X45326158Y-20800500D01*
X45483844Y-20800500D01*
X45483845Y-20800499D01*
X45638497Y-20769737D01*
X45784179Y-20709394D01*
X45915289Y-20621789D01*
X46026789Y-20510289D01*
X46114394Y-20379179D01*
X46174737Y-20233497D01*
X46205500Y-20078842D01*
X46205500Y-19921158D01*
X46205500Y-19921155D01*
X46205499Y-19921153D01*
X46192657Y-19856594D01*
X46174737Y-19766503D01*
X46174735Y-19766498D01*
X46114397Y-19620827D01*
X46114390Y-19620814D01*
X46026789Y-19489711D01*
X46026786Y-19489707D01*
X45915292Y-19378213D01*
X45915288Y-19378210D01*
X45784185Y-19290609D01*
X45784172Y-19290602D01*
X45638501Y-19230264D01*
X45638489Y-19230261D01*
X45483845Y-19199500D01*
X45483842Y-19199500D01*
X45326158Y-19199500D01*
X45326155Y-19199500D01*
X45171510Y-19230261D01*
X45171498Y-19230264D01*
X45025827Y-19290602D01*
X45025814Y-19290609D01*
X44894711Y-19378210D01*
X44894707Y-19378213D01*
X44783213Y-19489707D01*
X44783210Y-19489711D01*
X44695609Y-19620814D01*
X44695602Y-19620827D01*
X44635264Y-19766498D01*
X44635261Y-19766510D01*
X44604500Y-19921153D01*
X38607138Y-19921153D01*
X38618360Y-19864737D01*
X38625500Y-19828844D01*
X38625500Y-19671155D01*
X38625499Y-19671153D01*
X38615486Y-19620814D01*
X38594737Y-19516503D01*
X38594735Y-19516498D01*
X38534397Y-19370827D01*
X38534390Y-19370814D01*
X38446789Y-19239711D01*
X38446786Y-19239707D01*
X38335292Y-19128213D01*
X38335288Y-19128210D01*
X38204185Y-19040609D01*
X38204172Y-19040602D01*
X38058501Y-18980264D01*
X38058489Y-18980261D01*
X37903845Y-18949500D01*
X37903842Y-18949500D01*
X37746158Y-18949500D01*
X37746155Y-18949500D01*
X37591510Y-18980261D01*
X37591498Y-18980264D01*
X37445827Y-19040602D01*
X37445814Y-19040609D01*
X37314711Y-19128210D01*
X37314707Y-19128213D01*
X37203213Y-19239707D01*
X37203210Y-19239711D01*
X37115609Y-19370814D01*
X37115602Y-19370827D01*
X37055264Y-19516498D01*
X37055261Y-19516510D01*
X37024500Y-19671153D01*
X28470925Y-19671153D01*
X28484589Y-19657489D01*
X28572194Y-19526379D01*
X28632537Y-19380697D01*
X28663300Y-19226042D01*
X28663300Y-19068358D01*
X28663300Y-19068355D01*
X28663299Y-19068353D01*
X28652916Y-19016153D01*
X28632537Y-18913703D01*
X28604304Y-18845542D01*
X28572197Y-18768027D01*
X28572190Y-18768014D01*
X28484589Y-18636911D01*
X28484586Y-18636907D01*
X28373092Y-18525413D01*
X28373088Y-18525410D01*
X28241985Y-18437809D01*
X28241972Y-18437802D01*
X28096301Y-18377464D01*
X28096289Y-18377461D01*
X27941645Y-18346700D01*
X27941642Y-18346700D01*
X27924500Y-18346700D01*
X27857461Y-18327015D01*
X27811706Y-18274211D01*
X27800500Y-18222700D01*
X27800500Y-18191155D01*
X27800499Y-18191153D01*
X27789426Y-18135486D01*
X27769737Y-18036503D01*
X27753359Y-17996963D01*
X27739092Y-17962518D01*
X27721958Y-17921153D01*
X28999500Y-17921153D01*
X28999500Y-18078846D01*
X29030261Y-18233489D01*
X29030264Y-18233501D01*
X29090602Y-18379172D01*
X29090609Y-18379185D01*
X29178210Y-18510288D01*
X29178213Y-18510292D01*
X29289707Y-18621786D01*
X29289711Y-18621789D01*
X29420814Y-18709390D01*
X29420827Y-18709397D01*
X29566498Y-18769735D01*
X29566503Y-18769737D01*
X29721153Y-18800499D01*
X29721156Y-18800500D01*
X29721158Y-18800500D01*
X29878844Y-18800500D01*
X29878845Y-18800499D01*
X30033497Y-18769737D01*
X30163680Y-18715814D01*
X30179172Y-18709397D01*
X30179172Y-18709396D01*
X30179179Y-18709394D01*
X30310289Y-18621789D01*
X30421789Y-18510289D01*
X30509394Y-18379179D01*
X30569737Y-18233497D01*
X30600500Y-18078842D01*
X30600500Y-17921158D01*
X30600500Y-17921155D01*
X30600499Y-17921153D01*
X30594875Y-17892879D01*
X30569737Y-17766503D01*
X30520740Y-17648213D01*
X30509397Y-17620827D01*
X30509390Y-17620814D01*
X30421789Y-17489711D01*
X30421786Y-17489707D01*
X30310292Y-17378213D01*
X30310288Y-17378210D01*
X30179185Y-17290609D01*
X30179173Y-17290602D01*
X30152674Y-17279627D01*
X30033501Y-17230264D01*
X30033489Y-17230261D01*
X29878845Y-17199500D01*
X29878842Y-17199500D01*
X29721158Y-17199500D01*
X29721155Y-17199500D01*
X29566510Y-17230261D01*
X29566498Y-17230264D01*
X29420827Y-17290602D01*
X29420814Y-17290609D01*
X29289711Y-17378210D01*
X29289707Y-17378213D01*
X29178213Y-17489707D01*
X29178210Y-17489711D01*
X29090609Y-17620814D01*
X29090602Y-17620827D01*
X29030264Y-17766498D01*
X29030261Y-17766510D01*
X28999500Y-17921153D01*
X27721958Y-17921153D01*
X27709397Y-17890827D01*
X27709390Y-17890814D01*
X27621789Y-17759711D01*
X27621786Y-17759707D01*
X27510292Y-17648213D01*
X27510288Y-17648210D01*
X27379185Y-17560609D01*
X27379172Y-17560602D01*
X27233501Y-17500264D01*
X27233489Y-17500261D01*
X27078845Y-17469500D01*
X27078842Y-17469500D01*
X26921158Y-17469500D01*
X26921155Y-17469500D01*
X26766510Y-17500261D01*
X26766498Y-17500264D01*
X26620827Y-17560602D01*
X26620814Y-17560609D01*
X26489711Y-17648210D01*
X26489707Y-17648213D01*
X26378213Y-17759707D01*
X26378210Y-17759711D01*
X26290609Y-17890814D01*
X26290602Y-17890827D01*
X26230264Y-18036498D01*
X26230261Y-18036510D01*
X26199500Y-18191153D01*
X23101332Y-18191153D01*
X23055092Y-18144913D01*
X23055088Y-18144910D01*
X22923985Y-18057309D01*
X22923972Y-18057302D01*
X22778301Y-17996964D01*
X22778289Y-17996961D01*
X22623645Y-17966200D01*
X22623642Y-17966200D01*
X22465958Y-17966200D01*
X22465955Y-17966200D01*
X22311310Y-17996961D01*
X22311298Y-17996964D01*
X22165627Y-18057302D01*
X22165614Y-18057309D01*
X22034511Y-18144910D01*
X22034507Y-18144913D01*
X21923013Y-18256407D01*
X21923010Y-18256411D01*
X21835409Y-18387514D01*
X21835402Y-18387527D01*
X21775064Y-18533198D01*
X21775061Y-18533210D01*
X21744300Y-18687853D01*
X16167237Y-18687853D01*
X16158351Y-18645163D01*
X16183355Y-18579920D01*
X16239662Y-18538553D01*
X16309396Y-18534194D01*
X16329396Y-18540555D01*
X16460203Y-18594737D01*
X16596187Y-18621786D01*
X16614853Y-18625499D01*
X16614856Y-18625500D01*
X16614858Y-18625500D01*
X16772544Y-18625500D01*
X16772545Y-18625499D01*
X16927197Y-18594737D01*
X16962969Y-18579920D01*
X16993667Y-18567205D01*
X17072872Y-18534397D01*
X17072872Y-18534396D01*
X17072879Y-18534394D01*
X17203989Y-18446789D01*
X17315489Y-18335289D01*
X17403094Y-18204179D01*
X17463437Y-18058497D01*
X17494200Y-17903842D01*
X17494200Y-17746158D01*
X17494200Y-17746155D01*
X17494199Y-17746153D01*
X17469270Y-17620827D01*
X17463437Y-17591503D01*
X17450639Y-17560606D01*
X17415704Y-17476264D01*
X17415699Y-17476254D01*
X17403094Y-17445821D01*
X17403092Y-17445818D01*
X17403090Y-17445814D01*
X17395766Y-17434853D01*
X20155400Y-17434853D01*
X20155400Y-17592546D01*
X20186161Y-17747189D01*
X20186164Y-17747201D01*
X20246502Y-17892872D01*
X20246509Y-17892885D01*
X20334110Y-18023988D01*
X20334113Y-18023992D01*
X20445607Y-18135486D01*
X20445611Y-18135489D01*
X20576714Y-18223090D01*
X20576727Y-18223097D01*
X20722398Y-18283435D01*
X20722403Y-18283437D01*
X20877053Y-18314199D01*
X20877056Y-18314200D01*
X20877058Y-18314200D01*
X21034744Y-18314200D01*
X21034745Y-18314199D01*
X21189397Y-18283437D01*
X21335079Y-18223094D01*
X21466189Y-18135489D01*
X21577689Y-18023989D01*
X21665294Y-17892879D01*
X21666147Y-17890821D01*
X21720214Y-17760289D01*
X21725637Y-17747197D01*
X21756400Y-17592542D01*
X21756400Y-17434858D01*
X21756400Y-17434855D01*
X21756399Y-17434853D01*
X21753264Y-17419094D01*
X21725637Y-17280203D01*
X21717390Y-17260292D01*
X21665297Y-17134527D01*
X21665290Y-17134514D01*
X21577689Y-17003411D01*
X21577686Y-17003407D01*
X21466192Y-16891913D01*
X21466188Y-16891910D01*
X21335085Y-16804309D01*
X21335072Y-16804302D01*
X21275499Y-16779627D01*
X21189401Y-16743964D01*
X21189389Y-16743961D01*
X21034745Y-16713200D01*
X21034742Y-16713200D01*
X20877058Y-16713200D01*
X20877055Y-16713200D01*
X20722410Y-16743961D01*
X20722398Y-16743964D01*
X20576727Y-16804302D01*
X20576714Y-16804309D01*
X20445611Y-16891910D01*
X20445607Y-16891913D01*
X20334113Y-17003407D01*
X20334110Y-17003411D01*
X20246509Y-17134514D01*
X20246502Y-17134527D01*
X20186164Y-17280198D01*
X20186161Y-17280210D01*
X20155400Y-17434853D01*
X17395766Y-17434853D01*
X17315489Y-17314711D01*
X17315486Y-17314707D01*
X17203992Y-17203213D01*
X17203988Y-17203210D01*
X17072885Y-17115609D01*
X17072872Y-17115602D01*
X16927201Y-17055264D01*
X16927195Y-17055262D01*
X16913127Y-17052464D01*
X16851217Y-17020077D01*
X16816645Y-16959360D01*
X16815705Y-16906658D01*
X16836064Y-16804309D01*
X16839200Y-16788544D01*
X16839200Y-16630855D01*
X16839199Y-16630853D01*
X16826038Y-16564689D01*
X16808437Y-16476203D01*
X16797376Y-16449500D01*
X16748097Y-16330527D01*
X16748090Y-16330514D01*
X16660489Y-16199411D01*
X16660486Y-16199407D01*
X16548992Y-16087913D01*
X16548988Y-16087910D01*
X16417885Y-16000309D01*
X16417872Y-16000302D01*
X16272201Y-15939964D01*
X16272189Y-15939961D01*
X16117545Y-15909200D01*
X16117542Y-15909200D01*
X15959858Y-15909200D01*
X15959855Y-15909200D01*
X15805210Y-15939961D01*
X15805198Y-15939964D01*
X15659527Y-16000302D01*
X15659514Y-16000309D01*
X15528411Y-16087910D01*
X15528407Y-16087913D01*
X15416913Y-16199407D01*
X15416910Y-16199411D01*
X15329309Y-16330514D01*
X15329302Y-16330527D01*
X15268964Y-16476198D01*
X15268961Y-16476210D01*
X15238200Y-16630853D01*
X15238200Y-16788546D01*
X15268961Y-16943189D01*
X15268964Y-16943201D01*
X15329302Y-17088872D01*
X15329309Y-17088885D01*
X15416910Y-17219988D01*
X15416913Y-17219992D01*
X15528407Y-17331486D01*
X15528411Y-17331489D01*
X15659514Y-17419090D01*
X15659527Y-17419097D01*
X15724029Y-17445814D01*
X15805203Y-17479437D01*
X15819268Y-17482234D01*
X15881178Y-17514619D01*
X15915753Y-17575334D01*
X15916694Y-17628043D01*
X15893200Y-17746153D01*
X15893200Y-17903846D01*
X15923961Y-18058489D01*
X15923964Y-18058501D01*
X15984307Y-18204183D01*
X15985512Y-18206438D01*
X15985785Y-18207752D01*
X15986637Y-18209808D01*
X15986246Y-18209969D01*
X15999747Y-18274842D01*
X15974740Y-18340083D01*
X15918431Y-18381448D01*
X15848698Y-18385803D01*
X15828696Y-18379441D01*
X15697901Y-18325264D01*
X15697889Y-18325261D01*
X15543245Y-18294500D01*
X15543242Y-18294500D01*
X15385558Y-18294500D01*
X15385555Y-18294500D01*
X15230910Y-18325261D01*
X15230898Y-18325264D01*
X15085227Y-18385602D01*
X15085214Y-18385609D01*
X14954111Y-18473210D01*
X14954107Y-18473213D01*
X14842613Y-18584707D01*
X14842610Y-18584711D01*
X14755009Y-18715814D01*
X14755002Y-18715827D01*
X14694664Y-18861498D01*
X14694661Y-18861510D01*
X14663900Y-19016153D01*
X300500Y-19016153D01*
X300500Y-14309353D01*
X16456700Y-14309353D01*
X16456700Y-14467046D01*
X16487461Y-14621689D01*
X16487464Y-14621701D01*
X16547802Y-14767372D01*
X16547809Y-14767385D01*
X16635410Y-14898488D01*
X16635413Y-14898492D01*
X16746907Y-15009986D01*
X16746911Y-15009989D01*
X16878014Y-15097590D01*
X16878027Y-15097597D01*
X17023698Y-15157935D01*
X17023703Y-15157937D01*
X17065152Y-15166181D01*
X17124191Y-15177926D01*
X17186102Y-15210311D01*
X17220676Y-15271027D01*
X17224000Y-15299543D01*
X17224000Y-15363846D01*
X17254761Y-15518489D01*
X17254764Y-15518501D01*
X17299514Y-15626538D01*
X17306983Y-15696007D01*
X17288057Y-15742879D01*
X17262907Y-15780519D01*
X17262902Y-15780528D01*
X17202564Y-15926198D01*
X17202561Y-15926210D01*
X17171800Y-16080853D01*
X17171800Y-16238546D01*
X17202561Y-16393189D01*
X17202564Y-16393201D01*
X17262902Y-16538872D01*
X17262909Y-16538885D01*
X17350510Y-16669988D01*
X17350513Y-16669992D01*
X17462007Y-16781486D01*
X17462011Y-16781489D01*
X17593114Y-16869090D01*
X17593127Y-16869097D01*
X17738798Y-16929435D01*
X17738803Y-16929437D01*
X17889235Y-16959360D01*
X17893453Y-16960199D01*
X17893456Y-16960200D01*
X17893458Y-16960200D01*
X18051144Y-16960200D01*
X18051145Y-16960199D01*
X18205797Y-16929437D01*
X18351479Y-16869094D01*
X18482589Y-16781489D01*
X18592925Y-16671153D01*
X22219500Y-16671153D01*
X22219500Y-16828846D01*
X22250261Y-16983489D01*
X22250264Y-16983501D01*
X22310602Y-17129172D01*
X22310609Y-17129185D01*
X22398210Y-17260288D01*
X22398213Y-17260292D01*
X22509707Y-17371786D01*
X22509711Y-17371789D01*
X22640814Y-17459390D01*
X22640827Y-17459397D01*
X22762493Y-17509792D01*
X22786503Y-17519737D01*
X22941153Y-17550499D01*
X22941156Y-17550500D01*
X22941158Y-17550500D01*
X23098844Y-17550500D01*
X23098845Y-17550499D01*
X23253497Y-17519737D01*
X23399179Y-17459394D01*
X23530289Y-17371789D01*
X23641789Y-17260289D01*
X23701348Y-17171153D01*
X35449500Y-17171153D01*
X35449500Y-17328846D01*
X35480261Y-17483489D01*
X35480264Y-17483501D01*
X35540602Y-17629172D01*
X35540609Y-17629185D01*
X35628210Y-17760288D01*
X35628213Y-17760292D01*
X35739707Y-17871786D01*
X35739711Y-17871789D01*
X35870814Y-17959390D01*
X35870827Y-17959397D01*
X36016498Y-18019735D01*
X36016503Y-18019737D01*
X36171153Y-18050499D01*
X36171156Y-18050500D01*
X36171158Y-18050500D01*
X36328844Y-18050500D01*
X36328845Y-18050499D01*
X36483497Y-18019737D01*
X36629179Y-17959394D01*
X36760289Y-17871789D01*
X36871789Y-17760289D01*
X36959394Y-17629179D01*
X36962854Y-17620827D01*
X36991984Y-17550499D01*
X37019737Y-17483497D01*
X37050500Y-17328842D01*
X37050500Y-17171158D01*
X37050500Y-17171155D01*
X37050499Y-17171153D01*
X37019737Y-17016503D01*
X36996416Y-16960200D01*
X36959397Y-16870827D01*
X36959390Y-16870814D01*
X36871789Y-16739711D01*
X36871786Y-16739707D01*
X36760292Y-16628213D01*
X36760288Y-16628210D01*
X36629185Y-16540609D01*
X36629172Y-16540602D01*
X36483501Y-16480264D01*
X36483489Y-16480261D01*
X36328845Y-16449500D01*
X36328842Y-16449500D01*
X36171158Y-16449500D01*
X36171155Y-16449500D01*
X36016510Y-16480261D01*
X36016498Y-16480264D01*
X35870827Y-16540602D01*
X35870814Y-16540609D01*
X35739711Y-16628210D01*
X35739707Y-16628213D01*
X35628213Y-16739707D01*
X35628210Y-16739711D01*
X35540609Y-16870814D01*
X35540602Y-16870827D01*
X35480264Y-17016498D01*
X35480261Y-17016510D01*
X35449500Y-17171153D01*
X23701348Y-17171153D01*
X23729394Y-17129179D01*
X23789737Y-16983497D01*
X23820500Y-16828842D01*
X23820500Y-16671158D01*
X23820267Y-16669989D01*
X23813164Y-16634280D01*
X23819390Y-16564689D01*
X23862252Y-16509511D01*
X23887321Y-16495529D01*
X23964179Y-16463694D01*
X24095289Y-16376089D01*
X24206789Y-16264589D01*
X24294394Y-16133479D01*
X24296577Y-16128210D01*
X24332864Y-16040604D01*
X24354737Y-15987797D01*
X24385500Y-15833142D01*
X24385500Y-15675458D01*
X24385500Y-15675455D01*
X24385499Y-15675453D01*
X24364474Y-15569753D01*
X24354737Y-15520803D01*
X24354119Y-15519312D01*
X24294397Y-15375127D01*
X24294390Y-15375114D01*
X24206789Y-15244011D01*
X24206786Y-15244007D01*
X24095292Y-15132513D01*
X24093578Y-15131368D01*
X24093576Y-15131366D01*
X23964185Y-15044909D01*
X23964172Y-15044902D01*
X23938704Y-15034353D01*
X30606300Y-15034353D01*
X30606300Y-15192046D01*
X30637061Y-15346689D01*
X30637064Y-15346701D01*
X30697402Y-15492372D01*
X30697409Y-15492385D01*
X30785010Y-15623488D01*
X30785013Y-15623492D01*
X30896507Y-15734986D01*
X30896511Y-15734989D01*
X31027614Y-15822590D01*
X31027627Y-15822597D01*
X31173298Y-15882935D01*
X31173303Y-15882937D01*
X31305335Y-15909200D01*
X31327953Y-15913699D01*
X31327956Y-15913700D01*
X31327958Y-15913700D01*
X31485644Y-15913700D01*
X31485645Y-15913699D01*
X31640297Y-15882937D01*
X31785979Y-15822594D01*
X31917089Y-15734989D01*
X32028589Y-15623489D01*
X32116194Y-15492379D01*
X32118739Y-15486236D01*
X32139533Y-15436034D01*
X32176537Y-15346697D01*
X32207300Y-15192042D01*
X32207300Y-15054504D01*
X34149500Y-15054504D01*
X34149500Y-15231895D01*
X34184103Y-15405858D01*
X34184106Y-15405867D01*
X34251983Y-15569740D01*
X34251990Y-15569753D01*
X34350535Y-15717234D01*
X34350538Y-15717238D01*
X34475961Y-15842661D01*
X34475965Y-15842664D01*
X34623446Y-15941209D01*
X34623459Y-15941216D01*
X34746363Y-15992123D01*
X34787334Y-16009094D01*
X34787336Y-16009094D01*
X34787341Y-16009096D01*
X34961304Y-16043699D01*
X34961307Y-16043700D01*
X34961309Y-16043700D01*
X35138693Y-16043700D01*
X35138694Y-16043699D01*
X35196682Y-16032164D01*
X35312658Y-16009096D01*
X35312661Y-16009094D01*
X35312666Y-16009094D01*
X35476547Y-15941213D01*
X35624035Y-15842664D01*
X35749464Y-15717235D01*
X35848013Y-15569747D01*
X35848018Y-15569733D01*
X35848324Y-15569163D01*
X35848573Y-15568908D01*
X35851398Y-15564682D01*
X35852198Y-15565217D01*
X35897280Y-15519312D01*
X35965415Y-15503842D01*
X35981874Y-15505982D01*
X36023844Y-15514331D01*
X36036757Y-15516900D01*
X36036758Y-15516900D01*
X36194444Y-15516900D01*
X36194445Y-15516899D01*
X36349097Y-15486137D01*
X36494779Y-15425794D01*
X36625889Y-15338189D01*
X36737389Y-15226689D01*
X36822806Y-15098853D01*
X37150700Y-15098853D01*
X37150700Y-15256546D01*
X37181461Y-15411189D01*
X37181464Y-15411201D01*
X37241802Y-15556872D01*
X37241809Y-15556885D01*
X37329410Y-15687988D01*
X37329413Y-15687992D01*
X37440907Y-15799486D01*
X37440911Y-15799489D01*
X37572014Y-15887090D01*
X37572027Y-15887097D01*
X37666427Y-15926198D01*
X37717703Y-15947437D01*
X37856502Y-15975046D01*
X37872353Y-15978199D01*
X37872356Y-15978200D01*
X37872358Y-15978200D01*
X38030044Y-15978200D01*
X38030045Y-15978199D01*
X38184697Y-15947437D01*
X38330379Y-15887094D01*
X38461489Y-15799489D01*
X38572989Y-15687989D01*
X38625097Y-15610004D01*
X43600700Y-15610004D01*
X43600700Y-15787395D01*
X43635303Y-15961358D01*
X43635306Y-15961367D01*
X43703183Y-16125240D01*
X43703190Y-16125253D01*
X43801735Y-16272734D01*
X43801738Y-16272738D01*
X43927161Y-16398161D01*
X43927165Y-16398164D01*
X44074646Y-16496709D01*
X44074659Y-16496716D01*
X44180621Y-16540606D01*
X44238534Y-16564594D01*
X44238536Y-16564594D01*
X44238541Y-16564596D01*
X44412504Y-16599199D01*
X44412507Y-16599200D01*
X44412509Y-16599200D01*
X44589893Y-16599200D01*
X44589894Y-16599199D01*
X44647882Y-16587664D01*
X44763858Y-16564596D01*
X44763861Y-16564594D01*
X44763866Y-16564594D01*
X44927747Y-16496713D01*
X45075235Y-16398164D01*
X45200664Y-16272735D01*
X45299213Y-16125247D01*
X45367094Y-15961366D01*
X45369865Y-15947438D01*
X45392599Y-15833144D01*
X45401700Y-15787391D01*
X45401700Y-15610009D01*
X45401700Y-15610006D01*
X45401699Y-15610004D01*
X45367096Y-15436041D01*
X45367093Y-15436032D01*
X45299216Y-15272159D01*
X45299209Y-15272146D01*
X45200664Y-15124665D01*
X45200661Y-15124661D01*
X45075238Y-14999238D01*
X45075234Y-14999235D01*
X44927753Y-14900690D01*
X44927740Y-14900683D01*
X44763867Y-14832806D01*
X44763858Y-14832803D01*
X44589894Y-14798200D01*
X44589891Y-14798200D01*
X44412509Y-14798200D01*
X44412506Y-14798200D01*
X44238541Y-14832803D01*
X44238532Y-14832806D01*
X44074659Y-14900683D01*
X44074646Y-14900690D01*
X43927165Y-14999235D01*
X43927161Y-14999238D01*
X43801738Y-15124661D01*
X43801735Y-15124665D01*
X43703190Y-15272146D01*
X43703183Y-15272159D01*
X43635306Y-15436032D01*
X43635303Y-15436041D01*
X43600700Y-15610004D01*
X38625097Y-15610004D01*
X38660594Y-15556879D01*
X38720937Y-15411197D01*
X38751700Y-15256542D01*
X38751700Y-15098858D01*
X38751700Y-15098855D01*
X38751699Y-15098853D01*
X38731884Y-14999236D01*
X38720937Y-14944203D01*
X38705036Y-14905814D01*
X38660597Y-14798527D01*
X38660590Y-14798514D01*
X38572989Y-14667411D01*
X38572986Y-14667407D01*
X38461492Y-14555913D01*
X38461488Y-14555910D01*
X38330385Y-14468309D01*
X38330372Y-14468302D01*
X38184701Y-14407964D01*
X38184689Y-14407961D01*
X38030045Y-14377200D01*
X38030042Y-14377200D01*
X37872358Y-14377200D01*
X37872355Y-14377200D01*
X37717710Y-14407961D01*
X37717698Y-14407964D01*
X37572027Y-14468302D01*
X37572014Y-14468309D01*
X37440911Y-14555910D01*
X37440907Y-14555913D01*
X37329413Y-14667407D01*
X37329410Y-14667411D01*
X37241809Y-14798514D01*
X37241802Y-14798527D01*
X37181464Y-14944198D01*
X37181461Y-14944210D01*
X37150700Y-15098853D01*
X36822806Y-15098853D01*
X36824994Y-15095579D01*
X36885337Y-14949897D01*
X36916100Y-14795242D01*
X36916100Y-14637558D01*
X36916100Y-14637555D01*
X36916099Y-14637553D01*
X36902495Y-14569161D01*
X36885337Y-14482903D01*
X36870854Y-14447938D01*
X36824997Y-14337227D01*
X36824990Y-14337214D01*
X36737389Y-14206111D01*
X36737386Y-14206107D01*
X36625892Y-14094613D01*
X36625888Y-14094610D01*
X36494785Y-14007009D01*
X36494772Y-14007002D01*
X36349101Y-13946664D01*
X36349089Y-13946661D01*
X36194445Y-13915900D01*
X36194442Y-13915900D01*
X36036758Y-13915900D01*
X36036755Y-13915900D01*
X35882110Y-13946661D01*
X35882098Y-13946664D01*
X35736427Y-14007002D01*
X35736414Y-14007009D01*
X35605311Y-14094610D01*
X35605307Y-14094613D01*
X35493817Y-14206104D01*
X35493812Y-14206109D01*
X35473819Y-14236030D01*
X35420206Y-14280833D01*
X35350881Y-14289539D01*
X35323270Y-14281698D01*
X35312666Y-14277306D01*
X35312662Y-14277305D01*
X35312658Y-14277304D01*
X35138694Y-14242700D01*
X35138691Y-14242700D01*
X34961309Y-14242700D01*
X34961306Y-14242700D01*
X34787341Y-14277303D01*
X34787332Y-14277306D01*
X34623459Y-14345183D01*
X34623446Y-14345190D01*
X34475965Y-14443735D01*
X34475961Y-14443738D01*
X34350538Y-14569161D01*
X34350535Y-14569165D01*
X34251990Y-14716646D01*
X34251983Y-14716659D01*
X34184106Y-14880532D01*
X34184103Y-14880541D01*
X34149500Y-15054504D01*
X32207300Y-15054504D01*
X32207300Y-15034358D01*
X32207300Y-15034355D01*
X32207299Y-15034353D01*
X32200314Y-14999236D01*
X32176537Y-14879703D01*
X32157111Y-14832803D01*
X32116197Y-14734027D01*
X32116190Y-14734014D01*
X32028589Y-14602911D01*
X32028586Y-14602907D01*
X31917092Y-14491413D01*
X31917088Y-14491410D01*
X31785985Y-14403809D01*
X31785972Y-14403802D01*
X31640301Y-14343464D01*
X31640289Y-14343461D01*
X31485645Y-14312700D01*
X31485642Y-14312700D01*
X31327958Y-14312700D01*
X31327955Y-14312700D01*
X31173310Y-14343461D01*
X31173298Y-14343464D01*
X31027627Y-14403802D01*
X31027614Y-14403809D01*
X30896511Y-14491410D01*
X30896507Y-14491413D01*
X30785013Y-14602907D01*
X30785010Y-14602911D01*
X30697409Y-14734014D01*
X30697402Y-14734027D01*
X30637064Y-14879698D01*
X30637061Y-14879710D01*
X30606300Y-15034353D01*
X23938704Y-15034353D01*
X23818501Y-14984564D01*
X23818489Y-14984561D01*
X23663845Y-14953800D01*
X23663842Y-14953800D01*
X23506158Y-14953800D01*
X23506155Y-14953800D01*
X23351510Y-14984561D01*
X23351498Y-14984564D01*
X23205827Y-15044902D01*
X23205814Y-15044909D01*
X23074711Y-15132510D01*
X23074707Y-15132513D01*
X22963213Y-15244007D01*
X22963210Y-15244011D01*
X22875609Y-15375114D01*
X22875602Y-15375127D01*
X22815264Y-15520798D01*
X22815261Y-15520810D01*
X22784500Y-15675453D01*
X22784500Y-15833146D01*
X22791835Y-15870021D01*
X22785608Y-15939613D01*
X22742744Y-15994790D01*
X22717671Y-16008773D01*
X22640824Y-16040604D01*
X22640814Y-16040609D01*
X22509711Y-16128210D01*
X22509707Y-16128213D01*
X22398213Y-16239707D01*
X22398210Y-16239711D01*
X22310609Y-16370814D01*
X22310602Y-16370827D01*
X22250264Y-16516498D01*
X22250261Y-16516510D01*
X22219500Y-16671153D01*
X18592925Y-16671153D01*
X18594089Y-16669989D01*
X18681694Y-16538879D01*
X18690960Y-16516510D01*
X18718716Y-16449500D01*
X18742037Y-16393197D01*
X18772800Y-16238542D01*
X18772800Y-16080858D01*
X18772800Y-16080855D01*
X18772799Y-16080853D01*
X18765409Y-16043700D01*
X18742037Y-15926203D01*
X18718766Y-15870021D01*
X18697285Y-15818160D01*
X18689816Y-15748691D01*
X18708744Y-15701817D01*
X18733894Y-15664179D01*
X18794237Y-15518497D01*
X18825000Y-15363842D01*
X18825000Y-15206158D01*
X18825000Y-15206155D01*
X18824999Y-15206153D01*
X18822193Y-15192046D01*
X18794237Y-15051503D01*
X18791506Y-15044909D01*
X18733897Y-14905827D01*
X18733890Y-14905814D01*
X18646289Y-14774711D01*
X18646286Y-14774707D01*
X18534790Y-14663211D01*
X18521217Y-14654142D01*
X18476413Y-14600529D01*
X18467707Y-14531204D01*
X18497863Y-14468177D01*
X18521221Y-14447938D01*
X18527511Y-14443735D01*
X18545689Y-14431589D01*
X18657189Y-14320089D01*
X18744794Y-14188979D01*
X18744908Y-14188705D01*
X18783882Y-14094611D01*
X18805137Y-14043297D01*
X18816695Y-13985192D01*
X18829434Y-13921153D01*
X28219500Y-13921153D01*
X28219500Y-14078846D01*
X28250261Y-14233489D01*
X28250264Y-14233501D01*
X28310602Y-14379172D01*
X28310609Y-14379185D01*
X28398210Y-14510288D01*
X28398213Y-14510292D01*
X28509707Y-14621786D01*
X28509711Y-14621789D01*
X28640814Y-14709390D01*
X28640827Y-14709397D01*
X28780793Y-14767372D01*
X28786503Y-14769737D01*
X28914745Y-14795246D01*
X28941153Y-14800499D01*
X28941156Y-14800500D01*
X28941158Y-14800500D01*
X29098844Y-14800500D01*
X29098845Y-14800499D01*
X29253497Y-14769737D01*
X29399179Y-14709394D01*
X29530289Y-14621789D01*
X29641789Y-14510289D01*
X29729394Y-14379179D01*
X29789737Y-14233497D01*
X29820500Y-14078842D01*
X29820500Y-13921158D01*
X29820500Y-13921155D01*
X29820499Y-13921153D01*
X29814476Y-13890874D01*
X29789737Y-13766503D01*
X29789699Y-13766411D01*
X29729397Y-13620827D01*
X29729390Y-13620814D01*
X29641789Y-13489711D01*
X29641786Y-13489707D01*
X29530292Y-13378213D01*
X29530288Y-13378210D01*
X29399185Y-13290609D01*
X29399172Y-13290602D01*
X29253501Y-13230264D01*
X29253489Y-13230261D01*
X29098845Y-13199500D01*
X29098842Y-13199500D01*
X28941158Y-13199500D01*
X28941155Y-13199500D01*
X28786510Y-13230261D01*
X28786498Y-13230264D01*
X28640827Y-13290602D01*
X28640814Y-13290609D01*
X28509711Y-13378210D01*
X28509707Y-13378213D01*
X28398213Y-13489707D01*
X28398210Y-13489711D01*
X28310609Y-13620814D01*
X28310602Y-13620827D01*
X28250264Y-13766498D01*
X28250261Y-13766510D01*
X28219500Y-13921153D01*
X18829434Y-13921153D01*
X18835457Y-13890874D01*
X18835900Y-13888644D01*
X18835900Y-13730955D01*
X18835899Y-13730953D01*
X18829901Y-13700801D01*
X18805137Y-13576303D01*
X18805135Y-13576298D01*
X18744797Y-13430627D01*
X18744790Y-13430614D01*
X18657189Y-13299511D01*
X18657186Y-13299507D01*
X18545692Y-13188013D01*
X18545688Y-13188010D01*
X18414585Y-13100409D01*
X18414572Y-13100402D01*
X18268901Y-13040064D01*
X18268889Y-13040061D01*
X18114245Y-13009300D01*
X18114242Y-13009300D01*
X17956558Y-13009300D01*
X17956555Y-13009300D01*
X17801910Y-13040061D01*
X17801898Y-13040064D01*
X17656227Y-13100402D01*
X17656214Y-13100409D01*
X17525111Y-13188010D01*
X17525107Y-13188013D01*
X17413613Y-13299507D01*
X17413610Y-13299511D01*
X17326009Y-13430614D01*
X17326002Y-13430627D01*
X17292649Y-13511152D01*
X17248809Y-13565556D01*
X17184406Y-13586991D01*
X17184418Y-13587103D01*
X17183925Y-13587151D01*
X17182515Y-13587621D01*
X17178414Y-13587694D01*
X17178353Y-13587700D01*
X17023710Y-13618461D01*
X17023698Y-13618464D01*
X16878027Y-13678802D01*
X16878014Y-13678809D01*
X16746911Y-13766410D01*
X16746907Y-13766413D01*
X16635413Y-13877907D01*
X16635410Y-13877911D01*
X16547809Y-14009014D01*
X16547802Y-14009027D01*
X16487464Y-14154698D01*
X16487461Y-14154710D01*
X16456700Y-14309353D01*
X300500Y-14309353D01*
X300500Y-13396053D01*
X4570700Y-13396053D01*
X4570700Y-13553746D01*
X4601461Y-13708389D01*
X4601464Y-13708401D01*
X4661802Y-13854072D01*
X4661809Y-13854085D01*
X4749410Y-13985188D01*
X4749413Y-13985192D01*
X4860907Y-14096686D01*
X4860911Y-14096689D01*
X4992014Y-14184290D01*
X4992027Y-14184297D01*
X5137698Y-14244635D01*
X5137703Y-14244637D01*
X5292353Y-14275399D01*
X5292356Y-14275400D01*
X5292358Y-14275400D01*
X5450044Y-14275400D01*
X5450045Y-14275399D01*
X5604697Y-14244637D01*
X5750379Y-14184294D01*
X5881489Y-14096689D01*
X5992989Y-13985189D01*
X6080594Y-13854079D01*
X6140937Y-13708397D01*
X6171700Y-13553742D01*
X6171700Y-13396058D01*
X6170187Y-13388453D01*
X9756300Y-13388453D01*
X9756300Y-13546146D01*
X9787061Y-13700789D01*
X9787064Y-13700801D01*
X9847402Y-13846472D01*
X9847409Y-13846485D01*
X9935010Y-13977588D01*
X9935013Y-13977592D01*
X10046507Y-14089086D01*
X10046511Y-14089089D01*
X10177614Y-14176690D01*
X10177627Y-14176697D01*
X10314766Y-14233501D01*
X10323303Y-14237037D01*
X10477953Y-14267799D01*
X10477956Y-14267800D01*
X10477958Y-14267800D01*
X10635644Y-14267800D01*
X10635645Y-14267799D01*
X10790297Y-14237037D01*
X10864960Y-14206111D01*
X10906983Y-14188705D01*
X10935972Y-14176697D01*
X10935972Y-14176696D01*
X10935979Y-14176694D01*
X11067089Y-14089089D01*
X11178589Y-13977589D01*
X11266194Y-13846479D01*
X11326537Y-13700797D01*
X11357300Y-13546142D01*
X11357300Y-13388458D01*
X11357300Y-13388455D01*
X11357299Y-13388453D01*
X11334029Y-13271467D01*
X11326537Y-13233803D01*
X11318846Y-13215235D01*
X11266197Y-13088127D01*
X11266190Y-13088114D01*
X11178589Y-12957011D01*
X11178586Y-12957007D01*
X11067092Y-12845513D01*
X11067088Y-12845510D01*
X10935985Y-12757909D01*
X10935972Y-12757902D01*
X10790301Y-12697564D01*
X10790289Y-12697561D01*
X10635645Y-12666800D01*
X10635642Y-12666800D01*
X10477958Y-12666800D01*
X10477955Y-12666800D01*
X10323310Y-12697561D01*
X10323298Y-12697564D01*
X10177627Y-12757902D01*
X10177614Y-12757909D01*
X10046511Y-12845510D01*
X10046507Y-12845513D01*
X9935013Y-12957007D01*
X9935010Y-12957011D01*
X9847409Y-13088114D01*
X9847402Y-13088127D01*
X9787064Y-13233798D01*
X9787061Y-13233810D01*
X9756300Y-13388453D01*
X6170187Y-13388453D01*
X6168150Y-13378213D01*
X6140938Y-13241410D01*
X6140937Y-13241403D01*
X6130098Y-13215235D01*
X6080597Y-13095727D01*
X6080590Y-13095714D01*
X5992989Y-12964611D01*
X5992986Y-12964607D01*
X5881492Y-12853113D01*
X5881488Y-12853110D01*
X5750385Y-12765509D01*
X5750372Y-12765502D01*
X5604701Y-12705164D01*
X5604689Y-12705161D01*
X5450045Y-12674400D01*
X5450042Y-12674400D01*
X5292358Y-12674400D01*
X5292355Y-12674400D01*
X5137710Y-12705161D01*
X5137698Y-12705164D01*
X4992027Y-12765502D01*
X4992014Y-12765509D01*
X4860911Y-12853110D01*
X4860907Y-12853113D01*
X4749413Y-12964607D01*
X4749410Y-12964611D01*
X4661809Y-13095714D01*
X4661802Y-13095727D01*
X4601464Y-13241398D01*
X4601461Y-13241410D01*
X4570700Y-13396053D01*
X300500Y-13396053D01*
X300500Y-12366653D01*
X18785200Y-12366653D01*
X18785200Y-12524346D01*
X18815961Y-12678989D01*
X18815964Y-12679001D01*
X18876302Y-12824672D01*
X18876309Y-12824685D01*
X18963910Y-12955788D01*
X18963913Y-12955792D01*
X19075407Y-13067286D01*
X19075411Y-13067289D01*
X19206514Y-13154890D01*
X19206527Y-13154897D01*
X19314210Y-13199500D01*
X19352203Y-13215237D01*
X19483783Y-13241410D01*
X19506853Y-13245999D01*
X19506856Y-13246000D01*
X19506858Y-13246000D01*
X19664544Y-13246000D01*
X19664545Y-13245999D01*
X19819197Y-13215237D01*
X19964879Y-13154894D01*
X20095989Y-13067289D01*
X20207489Y-12955789D01*
X20231333Y-12920104D01*
X30089500Y-12920104D01*
X30089500Y-13097495D01*
X30124103Y-13271458D01*
X30124106Y-13271467D01*
X30191983Y-13435340D01*
X30191990Y-13435353D01*
X30290535Y-13582834D01*
X30290538Y-13582838D01*
X30415961Y-13708261D01*
X30415965Y-13708264D01*
X30563446Y-13806809D01*
X30563459Y-13806816D01*
X30677564Y-13854079D01*
X30727334Y-13874694D01*
X30727336Y-13874694D01*
X30727341Y-13874696D01*
X30901304Y-13909299D01*
X30901307Y-13909300D01*
X30901309Y-13909300D01*
X31078693Y-13909300D01*
X31078694Y-13909299D01*
X31136682Y-13897764D01*
X31252658Y-13874696D01*
X31252661Y-13874694D01*
X31252666Y-13874694D01*
X31416547Y-13806813D01*
X31564035Y-13708264D01*
X31689464Y-13582835D01*
X31788013Y-13435347D01*
X31789974Y-13430614D01*
X31811680Y-13378210D01*
X31855894Y-13271466D01*
X31863385Y-13233810D01*
X31879083Y-13154890D01*
X31890500Y-13097491D01*
X31890500Y-12920109D01*
X31890500Y-12920106D01*
X31890499Y-12920104D01*
X31855896Y-12746141D01*
X31855893Y-12746132D01*
X31788016Y-12582259D01*
X31788009Y-12582246D01*
X31689464Y-12434765D01*
X31689461Y-12434761D01*
X31564038Y-12309338D01*
X31564034Y-12309335D01*
X31416553Y-12210790D01*
X31416540Y-12210783D01*
X31252667Y-12142906D01*
X31252658Y-12142903D01*
X31078694Y-12108300D01*
X31078691Y-12108300D01*
X30901309Y-12108300D01*
X30901306Y-12108300D01*
X30727341Y-12142903D01*
X30727332Y-12142906D01*
X30563459Y-12210783D01*
X30563446Y-12210790D01*
X30415965Y-12309335D01*
X30415961Y-12309338D01*
X30290538Y-12434761D01*
X30290535Y-12434765D01*
X30191990Y-12582246D01*
X30191983Y-12582259D01*
X30124106Y-12746132D01*
X30124103Y-12746141D01*
X30089500Y-12920104D01*
X20231333Y-12920104D01*
X20276095Y-12853113D01*
X20281432Y-12845126D01*
X20281432Y-12845125D01*
X20295089Y-12824687D01*
X20295090Y-12824684D01*
X20295094Y-12824679D01*
X20355437Y-12678997D01*
X20386200Y-12524342D01*
X20386200Y-12366658D01*
X20386200Y-12366655D01*
X20386199Y-12366653D01*
X20366921Y-12269737D01*
X20355437Y-12212003D01*
X20354355Y-12209390D01*
X20302914Y-12085199D01*
X20295445Y-12015730D01*
X20326720Y-11953251D01*
X20370024Y-11923185D01*
X20379179Y-11919394D01*
X20510289Y-11831789D01*
X20621789Y-11720289D01*
X20709394Y-11589179D01*
X20769737Y-11443497D01*
X20800500Y-11288842D01*
X20800500Y-11131158D01*
X20800500Y-11131155D01*
X20800499Y-11131153D01*
X20785288Y-11054684D01*
X20769737Y-10976503D01*
X20755234Y-10941490D01*
X20709397Y-10830827D01*
X20709390Y-10830814D01*
X20621789Y-10699711D01*
X20621786Y-10699707D01*
X20510292Y-10588213D01*
X20510288Y-10588210D01*
X20393640Y-10510268D01*
X20379184Y-10500609D01*
X20379172Y-10500602D01*
X20233501Y-10440264D01*
X20233489Y-10440261D01*
X20097712Y-10413253D01*
X21960100Y-10413253D01*
X21960100Y-10570946D01*
X21990861Y-10725589D01*
X21990864Y-10725601D01*
X22051202Y-10871272D01*
X22051209Y-10871285D01*
X22138810Y-11002388D01*
X22138813Y-11002392D01*
X22250307Y-11113886D01*
X22250311Y-11113889D01*
X22381414Y-11201490D01*
X22381427Y-11201497D01*
X22527098Y-11261835D01*
X22527103Y-11261837D01*
X22681753Y-11292599D01*
X22681756Y-11292600D01*
X22681758Y-11292600D01*
X22839444Y-11292600D01*
X22839445Y-11292599D01*
X22994097Y-11261837D01*
X23131653Y-11204860D01*
X23139772Y-11201497D01*
X23139772Y-11201496D01*
X23139779Y-11201494D01*
X23270889Y-11113889D01*
X23382389Y-11002389D01*
X23469994Y-10871279D01*
X23481575Y-10843321D01*
X23503408Y-10790609D01*
X23530337Y-10725597D01*
X23561100Y-10570942D01*
X23561100Y-10413258D01*
X23561100Y-10413255D01*
X23561099Y-10413253D01*
X23546170Y-10338202D01*
X23530337Y-10258603D01*
X23519152Y-10231600D01*
X23469997Y-10112927D01*
X23469990Y-10112914D01*
X23382389Y-9981811D01*
X23382386Y-9981807D01*
X23270892Y-9870313D01*
X23270888Y-9870310D01*
X23139785Y-9782709D01*
X23139772Y-9782702D01*
X22994101Y-9722364D01*
X22994089Y-9722361D01*
X22839445Y-9691600D01*
X22839442Y-9691600D01*
X22681758Y-9691600D01*
X22681755Y-9691600D01*
X22527110Y-9722361D01*
X22527098Y-9722364D01*
X22381427Y-9782702D01*
X22381414Y-9782709D01*
X22250311Y-9870310D01*
X22250307Y-9870313D01*
X22138813Y-9981807D01*
X22138810Y-9981811D01*
X22051209Y-10112914D01*
X22051202Y-10112927D01*
X21990864Y-10258598D01*
X21990861Y-10258610D01*
X21960100Y-10413253D01*
X20097712Y-10413253D01*
X20078845Y-10409500D01*
X20078842Y-10409500D01*
X19921158Y-10409500D01*
X19921155Y-10409500D01*
X19766510Y-10440261D01*
X19766498Y-10440264D01*
X19620827Y-10500602D01*
X19620814Y-10500609D01*
X19489711Y-10588210D01*
X19489707Y-10588213D01*
X19378213Y-10699707D01*
X19378210Y-10699711D01*
X19290609Y-10830814D01*
X19290602Y-10830827D01*
X19230264Y-10976498D01*
X19230261Y-10976510D01*
X19199500Y-11131153D01*
X19199500Y-11288846D01*
X19230261Y-11443489D01*
X19230264Y-11443501D01*
X19282785Y-11570300D01*
X19290254Y-11639770D01*
X19258978Y-11702249D01*
X19215679Y-11732312D01*
X19206526Y-11736103D01*
X19206514Y-11736109D01*
X19075411Y-11823710D01*
X19075407Y-11823713D01*
X18963913Y-11935207D01*
X18963910Y-11935211D01*
X18876309Y-12066314D01*
X18876302Y-12066327D01*
X18815964Y-12211998D01*
X18815961Y-12212010D01*
X18785200Y-12366653D01*
X300500Y-12366653D01*
X300500Y-10953253D01*
X5868400Y-10953253D01*
X5868400Y-11110946D01*
X5899161Y-11265589D01*
X5899164Y-11265601D01*
X5959502Y-11411272D01*
X5959509Y-11411285D01*
X6047110Y-11542388D01*
X6047113Y-11542392D01*
X6158607Y-11653886D01*
X6158611Y-11653889D01*
X6289714Y-11741490D01*
X6289727Y-11741497D01*
X6435398Y-11801835D01*
X6435403Y-11801837D01*
X6585981Y-11831789D01*
X6590053Y-11832599D01*
X6590056Y-11832600D01*
X6590058Y-11832600D01*
X6747744Y-11832600D01*
X6747745Y-11832599D01*
X6902397Y-11801837D01*
X7028176Y-11749738D01*
X7048072Y-11741497D01*
X7048072Y-11741496D01*
X7048079Y-11741494D01*
X7179189Y-11653889D01*
X7193308Y-11639770D01*
X7259369Y-11573710D01*
X7320692Y-11540225D01*
X7390384Y-11545209D01*
X7434731Y-11573710D01*
X7530407Y-11669386D01*
X7530411Y-11669389D01*
X7661514Y-11756990D01*
X7661527Y-11756997D01*
X7807198Y-11817335D01*
X7807203Y-11817337D01*
X7906553Y-11837099D01*
X7961853Y-11848099D01*
X7961856Y-11848100D01*
X7961858Y-11848100D01*
X8119544Y-11848100D01*
X8119545Y-11848099D01*
X8274197Y-11817337D01*
X8419879Y-11756994D01*
X8550989Y-11669389D01*
X8662489Y-11557889D01*
X8750094Y-11426779D01*
X8810437Y-11281097D01*
X8841200Y-11126442D01*
X8841200Y-10968758D01*
X8841200Y-10968755D01*
X8841199Y-10968753D01*
X8825911Y-10891897D01*
X8810437Y-10814103D01*
X8793565Y-10773369D01*
X8750097Y-10668427D01*
X8750090Y-10668414D01*
X8662489Y-10537311D01*
X8662486Y-10537307D01*
X8550992Y-10425813D01*
X8550988Y-10425810D01*
X8419885Y-10338209D01*
X8419872Y-10338202D01*
X8274201Y-10277864D01*
X8274191Y-10277861D01*
X8228551Y-10268783D01*
X8228550Y-10268782D01*
X8119545Y-10247100D01*
X8119542Y-10247100D01*
X7961858Y-10247100D01*
X7961855Y-10247100D01*
X7807210Y-10277861D01*
X7807198Y-10277864D01*
X7661527Y-10338202D01*
X7661514Y-10338209D01*
X7530411Y-10425810D01*
X7530407Y-10425813D01*
X7450231Y-10505990D01*
X7388908Y-10539475D01*
X7319216Y-10534491D01*
X7274869Y-10505990D01*
X7179192Y-10410313D01*
X7179188Y-10410310D01*
X7048085Y-10322709D01*
X7048072Y-10322702D01*
X6902401Y-10262364D01*
X6902389Y-10262361D01*
X6747745Y-10231600D01*
X6747742Y-10231600D01*
X6590058Y-10231600D01*
X6590055Y-10231600D01*
X6435410Y-10262361D01*
X6435398Y-10262364D01*
X6289727Y-10322702D01*
X6289714Y-10322709D01*
X6158611Y-10410310D01*
X6158607Y-10410313D01*
X6047113Y-10521807D01*
X6047110Y-10521811D01*
X5959509Y-10652914D01*
X5959502Y-10652927D01*
X5899164Y-10798598D01*
X5899161Y-10798610D01*
X5868400Y-10953253D01*
X300500Y-10953253D01*
X300500Y-10153253D01*
X9475400Y-10153253D01*
X9475400Y-10310946D01*
X9506161Y-10465589D01*
X9506164Y-10465601D01*
X9566502Y-10611272D01*
X9566509Y-10611285D01*
X9654110Y-10742388D01*
X9654113Y-10742392D01*
X9765607Y-10853886D01*
X9765611Y-10853889D01*
X9896714Y-10941490D01*
X9896727Y-10941497D01*
X10013118Y-10989707D01*
X10042403Y-11001837D01*
X10197053Y-11032599D01*
X10197056Y-11032600D01*
X10197058Y-11032600D01*
X10354744Y-11032600D01*
X10354745Y-11032599D01*
X10509397Y-11001837D01*
X10615826Y-10957753D01*
X15144400Y-10957753D01*
X15144400Y-11115446D01*
X15175161Y-11270089D01*
X15175164Y-11270101D01*
X15235502Y-11415772D01*
X15235509Y-11415785D01*
X15323110Y-11546888D01*
X15323113Y-11546892D01*
X15434607Y-11658386D01*
X15434611Y-11658389D01*
X15565714Y-11745990D01*
X15565727Y-11745997D01*
X15700534Y-11801835D01*
X15711403Y-11806337D01*
X15824543Y-11828842D01*
X15866053Y-11837099D01*
X15866056Y-11837100D01*
X15866058Y-11837100D01*
X16023744Y-11837100D01*
X16023745Y-11837099D01*
X16178397Y-11806337D01*
X16324079Y-11745994D01*
X16339146Y-11735925D01*
X16405819Y-11715046D01*
X16455490Y-11724464D01*
X16516503Y-11749737D01*
X16671153Y-11780499D01*
X16671156Y-11780500D01*
X16671158Y-11780500D01*
X16828844Y-11780500D01*
X16828845Y-11780499D01*
X16983497Y-11749737D01*
X17129179Y-11689394D01*
X17260289Y-11601789D01*
X17371789Y-11490289D01*
X17459394Y-11359179D01*
X17519737Y-11213497D01*
X17550500Y-11058842D01*
X17550500Y-10901158D01*
X17550500Y-10901155D01*
X17550499Y-10901153D01*
X17545936Y-10878213D01*
X17519737Y-10746503D01*
X17513010Y-10730263D01*
X17459397Y-10600827D01*
X17459390Y-10600814D01*
X17371789Y-10469711D01*
X17371786Y-10469707D01*
X17260292Y-10358213D01*
X17260288Y-10358210D01*
X17129185Y-10270609D01*
X17129172Y-10270602D01*
X16983501Y-10210264D01*
X16983489Y-10210261D01*
X16828845Y-10179500D01*
X16828842Y-10179500D01*
X16671158Y-10179500D01*
X16671155Y-10179500D01*
X16516510Y-10210261D01*
X16516498Y-10210264D01*
X16370822Y-10270604D01*
X16370820Y-10270605D01*
X16355749Y-10280676D01*
X16289071Y-10301553D01*
X16239411Y-10292135D01*
X16178397Y-10266863D01*
X16178390Y-10266861D01*
X16178389Y-10266861D01*
X16178388Y-10266860D01*
X16023745Y-10236100D01*
X16023742Y-10236100D01*
X15866058Y-10236100D01*
X15866055Y-10236100D01*
X15711410Y-10266861D01*
X15711398Y-10266864D01*
X15565727Y-10327202D01*
X15565714Y-10327209D01*
X15434611Y-10414810D01*
X15434607Y-10414813D01*
X15323113Y-10526307D01*
X15323110Y-10526311D01*
X15235509Y-10657414D01*
X15235502Y-10657427D01*
X15175164Y-10803098D01*
X15175161Y-10803110D01*
X15144400Y-10957753D01*
X10615826Y-10957753D01*
X10626690Y-10953253D01*
X10655072Y-10941497D01*
X10655072Y-10941496D01*
X10655079Y-10941494D01*
X10786189Y-10853889D01*
X10897689Y-10742389D01*
X10985294Y-10611279D01*
X11045637Y-10465597D01*
X11076400Y-10310942D01*
X11076400Y-10153258D01*
X11076400Y-10153255D01*
X11076399Y-10153253D01*
X11045638Y-9998610D01*
X11045637Y-9998603D01*
X11041121Y-9987700D01*
X10985297Y-9852927D01*
X10985290Y-9852914D01*
X10897689Y-9721811D01*
X10897686Y-9721807D01*
X10786192Y-9610313D01*
X10786188Y-9610310D01*
X10655085Y-9522709D01*
X10655072Y-9522702D01*
X10509401Y-9462364D01*
X10509389Y-9462361D01*
X10354745Y-9431600D01*
X10354742Y-9431600D01*
X10197058Y-9431600D01*
X10197055Y-9431600D01*
X10042410Y-9462361D01*
X10042398Y-9462364D01*
X9896727Y-9522702D01*
X9896714Y-9522709D01*
X9765611Y-9610310D01*
X9765607Y-9610313D01*
X9654113Y-9721807D01*
X9654110Y-9721811D01*
X9566509Y-9852914D01*
X9566502Y-9852927D01*
X9506164Y-9998598D01*
X9506161Y-9998610D01*
X9475400Y-10153253D01*
X300500Y-10153253D01*
X300500Y-7733253D01*
X16689100Y-7733253D01*
X16689100Y-7890946D01*
X16719861Y-8045589D01*
X16719864Y-8045601D01*
X16780202Y-8191272D01*
X16780209Y-8191285D01*
X16867810Y-8322388D01*
X16867813Y-8322392D01*
X16979307Y-8433886D01*
X16979311Y-8433889D01*
X17110414Y-8521490D01*
X17110427Y-8521497D01*
X17256098Y-8581835D01*
X17256103Y-8581837D01*
X17410753Y-8612599D01*
X17410756Y-8612600D01*
X17410758Y-8612600D01*
X17568444Y-8612600D01*
X17568445Y-8612599D01*
X17723097Y-8581837D01*
X17868779Y-8521494D01*
X17999889Y-8433889D01*
X18111389Y-8322389D01*
X18115890Y-8315653D01*
X21369100Y-8315653D01*
X21369100Y-8473346D01*
X21399861Y-8627989D01*
X21399864Y-8628001D01*
X21460202Y-8773672D01*
X21460209Y-8773685D01*
X21547810Y-8904788D01*
X21547813Y-8904792D01*
X21659307Y-9016286D01*
X21659311Y-9016289D01*
X21790414Y-9103890D01*
X21790427Y-9103897D01*
X21936098Y-9164235D01*
X21936103Y-9164237D01*
X22090753Y-9194999D01*
X22090756Y-9195000D01*
X22090758Y-9195000D01*
X22248444Y-9195000D01*
X22248445Y-9194999D01*
X22403097Y-9164237D01*
X22538014Y-9108353D01*
X26355500Y-9108353D01*
X26355500Y-9266046D01*
X26386261Y-9420689D01*
X26386264Y-9420701D01*
X26446602Y-9566372D01*
X26446609Y-9566385D01*
X26534210Y-9697488D01*
X26534213Y-9697492D01*
X26645707Y-9808986D01*
X26645711Y-9808989D01*
X26776814Y-9896590D01*
X26776827Y-9896597D01*
X26903336Y-9948998D01*
X26922503Y-9956937D01*
X27066128Y-9985506D01*
X27077153Y-9987699D01*
X27077156Y-9987700D01*
X27077158Y-9987700D01*
X27234844Y-9987700D01*
X27277178Y-9979279D01*
X27346770Y-9985506D01*
X27401947Y-10028369D01*
X27425192Y-10094258D01*
X27415931Y-10148348D01*
X27370264Y-10258598D01*
X27370261Y-10258610D01*
X27339500Y-10413253D01*
X27339500Y-10570946D01*
X27370261Y-10725589D01*
X27370264Y-10725601D01*
X27430602Y-10871272D01*
X27430612Y-10871290D01*
X27501375Y-10977195D01*
X27522253Y-11043872D01*
X27503768Y-11111252D01*
X27485955Y-11133766D01*
X27380010Y-11239711D01*
X27292409Y-11370814D01*
X27292402Y-11370827D01*
X27232064Y-11516498D01*
X27232061Y-11516510D01*
X27201300Y-11671153D01*
X27201300Y-11828846D01*
X27232061Y-11983489D01*
X27232064Y-11983501D01*
X27292402Y-12129172D01*
X27292409Y-12129185D01*
X27380010Y-12260288D01*
X27380013Y-12260292D01*
X27491507Y-12371786D01*
X27491511Y-12371789D01*
X27622614Y-12459390D01*
X27622627Y-12459397D01*
X27768298Y-12519735D01*
X27768303Y-12519737D01*
X27922953Y-12550499D01*
X27922956Y-12550500D01*
X27922958Y-12550500D01*
X28080644Y-12550500D01*
X28080645Y-12550499D01*
X28235297Y-12519737D01*
X28380979Y-12459394D01*
X28512089Y-12371789D01*
X28623589Y-12260289D01*
X28711194Y-12129179D01*
X28771537Y-11983497D01*
X28802300Y-11828842D01*
X28802300Y-11671158D01*
X28802300Y-11671155D01*
X28802299Y-11671153D01*
X28796056Y-11639770D01*
X28771537Y-11516503D01*
X28760679Y-11490289D01*
X28711197Y-11370827D01*
X28711190Y-11370814D01*
X28640424Y-11264905D01*
X28630937Y-11234607D01*
X28619842Y-11204860D01*
X28620572Y-11201503D01*
X28619546Y-11198227D01*
X28627944Y-11167612D01*
X28632112Y-11148453D01*
X33993000Y-11148453D01*
X33993000Y-11306146D01*
X34023761Y-11460789D01*
X34023764Y-11460801D01*
X34084102Y-11606472D01*
X34084109Y-11606485D01*
X34171710Y-11737588D01*
X34171713Y-11737592D01*
X34283207Y-11849086D01*
X34283211Y-11849089D01*
X34414314Y-11936690D01*
X34414327Y-11936697D01*
X34548417Y-11992238D01*
X34560003Y-11997037D01*
X34690522Y-12022999D01*
X34714653Y-12027799D01*
X34714656Y-12027800D01*
X34714658Y-12027800D01*
X34872344Y-12027800D01*
X34872345Y-12027799D01*
X35026997Y-11997037D01*
X35172679Y-11936694D01*
X35303789Y-11849089D01*
X35369269Y-11783608D01*
X35430589Y-11750124D01*
X35500281Y-11755108D01*
X35544630Y-11783609D01*
X35605307Y-11844286D01*
X35605311Y-11844289D01*
X35736414Y-11931890D01*
X35736427Y-11931897D01*
X35861012Y-11983501D01*
X35882103Y-11992237D01*
X36036753Y-12022999D01*
X36036756Y-12023000D01*
X36036758Y-12023000D01*
X36194444Y-12023000D01*
X36194445Y-12022999D01*
X36349097Y-11992237D01*
X36461766Y-11945567D01*
X36494772Y-11931897D01*
X36494772Y-11931896D01*
X36494779Y-11931894D01*
X36625889Y-11844289D01*
X36737389Y-11732789D01*
X36824994Y-11601679D01*
X36834453Y-11578844D01*
X36849551Y-11542392D01*
X36885337Y-11455997D01*
X36892268Y-11421153D01*
X44604500Y-11421153D01*
X44604500Y-11578846D01*
X44635261Y-11733489D01*
X44635264Y-11733501D01*
X44695602Y-11879172D01*
X44695609Y-11879185D01*
X44783210Y-12010288D01*
X44783213Y-12010292D01*
X44894707Y-12121786D01*
X44894711Y-12121789D01*
X45025814Y-12209390D01*
X45025827Y-12209397D01*
X45171498Y-12269735D01*
X45171503Y-12269737D01*
X45326153Y-12300499D01*
X45326156Y-12300500D01*
X45326158Y-12300500D01*
X45483844Y-12300500D01*
X45483845Y-12300499D01*
X45638497Y-12269737D01*
X45751166Y-12223067D01*
X45784172Y-12209397D01*
X45784172Y-12209396D01*
X45784179Y-12209394D01*
X45915289Y-12121789D01*
X46026789Y-12010289D01*
X46114394Y-11879179D01*
X46174737Y-11733497D01*
X46205500Y-11578842D01*
X46205500Y-11421158D01*
X46205500Y-11421154D01*
X46205499Y-11421153D01*
X46193173Y-11359185D01*
X46174737Y-11266503D01*
X46172804Y-11261837D01*
X46114397Y-11120827D01*
X46114390Y-11120814D01*
X46026789Y-10989711D01*
X46026786Y-10989707D01*
X45915292Y-10878213D01*
X45915288Y-10878210D01*
X45784185Y-10790609D01*
X45784172Y-10790602D01*
X45638501Y-10730264D01*
X45638489Y-10730261D01*
X45483845Y-10699500D01*
X45483842Y-10699500D01*
X45326158Y-10699500D01*
X45326155Y-10699500D01*
X45171510Y-10730261D01*
X45171498Y-10730264D01*
X45025827Y-10790602D01*
X45025814Y-10790609D01*
X44894711Y-10878210D01*
X44894707Y-10878213D01*
X44783213Y-10989707D01*
X44783210Y-10989711D01*
X44695609Y-11120814D01*
X44695602Y-11120827D01*
X44635264Y-11266498D01*
X44635261Y-11266510D01*
X44604500Y-11421153D01*
X36892268Y-11421153D01*
X36898291Y-11390874D01*
X36916100Y-11301344D01*
X36916100Y-11143655D01*
X36916099Y-11143653D01*
X36912676Y-11126444D01*
X36885337Y-10989003D01*
X36885335Y-10988998D01*
X36824997Y-10843327D01*
X36824990Y-10843314D01*
X36737389Y-10712211D01*
X36737386Y-10712207D01*
X36625892Y-10600713D01*
X36625888Y-10600710D01*
X36494785Y-10513109D01*
X36494772Y-10513102D01*
X36349101Y-10452764D01*
X36349089Y-10452761D01*
X36194445Y-10422000D01*
X36194442Y-10422000D01*
X36036758Y-10422000D01*
X36036755Y-10422000D01*
X35882110Y-10452761D01*
X35882098Y-10452764D01*
X35736427Y-10513102D01*
X35736414Y-10513109D01*
X35605311Y-10600710D01*
X35605307Y-10600713D01*
X35539831Y-10666190D01*
X35478508Y-10699675D01*
X35408816Y-10694691D01*
X35364469Y-10666190D01*
X35303792Y-10605513D01*
X35303788Y-10605510D01*
X35172685Y-10517909D01*
X35172672Y-10517902D01*
X35027001Y-10457564D01*
X35026989Y-10457561D01*
X34872345Y-10426800D01*
X34872342Y-10426800D01*
X34714658Y-10426800D01*
X34714655Y-10426800D01*
X34560010Y-10457561D01*
X34559998Y-10457564D01*
X34414327Y-10517902D01*
X34414314Y-10517909D01*
X34283211Y-10605510D01*
X34283207Y-10605513D01*
X34171713Y-10717007D01*
X34171710Y-10717011D01*
X34084109Y-10848114D01*
X34084102Y-10848127D01*
X34023764Y-10993798D01*
X34023761Y-10993810D01*
X33993000Y-11148453D01*
X28632112Y-11148453D01*
X28634694Y-11136587D01*
X28637475Y-11132871D01*
X28638031Y-11130847D01*
X28655845Y-11108333D01*
X28709493Y-11054685D01*
X28761789Y-11002389D01*
X28849394Y-10871279D01*
X28860975Y-10843321D01*
X28882808Y-10790609D01*
X28909737Y-10725597D01*
X28940500Y-10570942D01*
X28940500Y-10413258D01*
X28940500Y-10413255D01*
X28940499Y-10413253D01*
X28925570Y-10338202D01*
X28909737Y-10258603D01*
X28849394Y-10112921D01*
X28849390Y-10112914D01*
X28843202Y-10103653D01*
X32404400Y-10103653D01*
X32404400Y-10261346D01*
X32435161Y-10415989D01*
X32435164Y-10416001D01*
X32495502Y-10561672D01*
X32495509Y-10561685D01*
X32583110Y-10692788D01*
X32583113Y-10692792D01*
X32694607Y-10804286D01*
X32694611Y-10804289D01*
X32825714Y-10891890D01*
X32825727Y-10891897D01*
X32945457Y-10941490D01*
X32971403Y-10952237D01*
X33126053Y-10982999D01*
X33126056Y-10983000D01*
X33126058Y-10983000D01*
X33283744Y-10983000D01*
X33283745Y-10982999D01*
X33438397Y-10952237D01*
X33584079Y-10891894D01*
X33715189Y-10804289D01*
X33826689Y-10692789D01*
X33914294Y-10561679D01*
X33924388Y-10537311D01*
X33952390Y-10469707D01*
X33974637Y-10415997D01*
X34005400Y-10261342D01*
X34005400Y-10103658D01*
X34005400Y-10103655D01*
X34005399Y-10103653D01*
X33990424Y-10028369D01*
X33974637Y-9949003D01*
X33942042Y-9870310D01*
X33914297Y-9803327D01*
X33914290Y-9803314D01*
X33826689Y-9672211D01*
X33826686Y-9672207D01*
X33715192Y-9560713D01*
X33715188Y-9560710D01*
X33584085Y-9473109D01*
X33584072Y-9473102D01*
X33438401Y-9412764D01*
X33438389Y-9412761D01*
X33283745Y-9382000D01*
X33283742Y-9382000D01*
X33126058Y-9382000D01*
X33126055Y-9382000D01*
X32971410Y-9412761D01*
X32971398Y-9412764D01*
X32825727Y-9473102D01*
X32825714Y-9473109D01*
X32694611Y-9560710D01*
X32694607Y-9560713D01*
X32583113Y-9672207D01*
X32583110Y-9672211D01*
X32495509Y-9803314D01*
X32495502Y-9803327D01*
X32435164Y-9948998D01*
X32435161Y-9949010D01*
X32404400Y-10103653D01*
X28843202Y-10103653D01*
X28761789Y-9981811D01*
X28761786Y-9981807D01*
X28650292Y-9870313D01*
X28650288Y-9870310D01*
X28519185Y-9782709D01*
X28519172Y-9782702D01*
X28373501Y-9722364D01*
X28373489Y-9722361D01*
X28218845Y-9691600D01*
X28218842Y-9691600D01*
X28061158Y-9691600D01*
X28061157Y-9691600D01*
X28018818Y-9700021D01*
X27949227Y-9693792D01*
X27894050Y-9650928D01*
X27870807Y-9585038D01*
X27880067Y-9530954D01*
X27925737Y-9420697D01*
X27956500Y-9266042D01*
X27956500Y-9108358D01*
X27956500Y-9108355D01*
X27956499Y-9108353D01*
X27938186Y-9016289D01*
X27925737Y-8953703D01*
X27905478Y-8904792D01*
X27865397Y-8808027D01*
X27865390Y-8808014D01*
X27777789Y-8676911D01*
X27777786Y-8676907D01*
X27666292Y-8565413D01*
X27666288Y-8565410D01*
X27535185Y-8477809D01*
X27535172Y-8477802D01*
X27389501Y-8417464D01*
X27389489Y-8417461D01*
X27234845Y-8386700D01*
X27234842Y-8386700D01*
X27077158Y-8386700D01*
X27077155Y-8386700D01*
X26922510Y-8417461D01*
X26922498Y-8417464D01*
X26776827Y-8477802D01*
X26776814Y-8477809D01*
X26645711Y-8565410D01*
X26645707Y-8565413D01*
X26534213Y-8676907D01*
X26534210Y-8676911D01*
X26446609Y-8808014D01*
X26446602Y-8808027D01*
X26386264Y-8953698D01*
X26386261Y-8953710D01*
X26355500Y-9108353D01*
X22538014Y-9108353D01*
X22548779Y-9103894D01*
X22679889Y-9016289D01*
X22679892Y-9016286D01*
X22681594Y-9014585D01*
X22791386Y-8904792D01*
X22791389Y-8904789D01*
X22878994Y-8773679D01*
X22939337Y-8627997D01*
X22970100Y-8473342D01*
X22970100Y-8315658D01*
X22970100Y-8315655D01*
X22970099Y-8315653D01*
X22955185Y-8240675D01*
X22939337Y-8161003D01*
X22939335Y-8160998D01*
X22878997Y-8015327D01*
X22878990Y-8015314D01*
X22791389Y-7884211D01*
X22791386Y-7884207D01*
X22785571Y-7878392D01*
X22778622Y-7865665D01*
X22767824Y-7855987D01*
X22762212Y-7835614D01*
X22752086Y-7817069D01*
X22753120Y-7802604D01*
X22749270Y-7788626D01*
X22755562Y-7768455D01*
X22757070Y-7747377D01*
X22766142Y-7734541D01*
X22770078Y-7721927D01*
X22787112Y-7704875D01*
X22793636Y-7695646D01*
X22798774Y-7691342D01*
X22839765Y-7663953D01*
X24278800Y-7663953D01*
X24278800Y-7821646D01*
X24309561Y-7976289D01*
X24309564Y-7976301D01*
X24369902Y-8121972D01*
X24369909Y-8121985D01*
X24457510Y-8253088D01*
X24457513Y-8253092D01*
X24569007Y-8364586D01*
X24569011Y-8364589D01*
X24700114Y-8452190D01*
X24700127Y-8452197D01*
X24845798Y-8512535D01*
X24845803Y-8512537D01*
X25000453Y-8543299D01*
X25000456Y-8543300D01*
X25000458Y-8543300D01*
X25158144Y-8543300D01*
X25158145Y-8543299D01*
X25312797Y-8512537D01*
X25458479Y-8452194D01*
X25589589Y-8364589D01*
X25701089Y-8253089D01*
X25788694Y-8121979D01*
X25849037Y-7976297D01*
X25864455Y-7898788D01*
X25896840Y-7836877D01*
X25957555Y-7802303D01*
X25961875Y-7801363D01*
X26070597Y-7779737D01*
X26216279Y-7719394D01*
X26347389Y-7631789D01*
X26458889Y-7520289D01*
X26546494Y-7389179D01*
X26606837Y-7243497D01*
X26637600Y-7088842D01*
X26637600Y-6931158D01*
X26637600Y-6931155D01*
X26637599Y-6931151D01*
X26634158Y-6913853D01*
X27250500Y-6913853D01*
X27250500Y-7071546D01*
X27281261Y-7226189D01*
X27281264Y-7226201D01*
X27341602Y-7371872D01*
X27341609Y-7371885D01*
X27429210Y-7502988D01*
X27429213Y-7502992D01*
X27540707Y-7614486D01*
X27540711Y-7614489D01*
X27671814Y-7702090D01*
X27671827Y-7702097D01*
X27816380Y-7761972D01*
X27817503Y-7762437D01*
X27949163Y-7788626D01*
X27972153Y-7793199D01*
X27972156Y-7793200D01*
X27972158Y-7793200D01*
X28129844Y-7793200D01*
X28129845Y-7793199D01*
X28284497Y-7762437D01*
X28430179Y-7702094D01*
X28561289Y-7614489D01*
X28672789Y-7502989D01*
X28760394Y-7371879D01*
X28763818Y-7363614D01*
X28789417Y-7301811D01*
X28820737Y-7226197D01*
X28851500Y-7071542D01*
X28851500Y-6913858D01*
X28851500Y-6913855D01*
X28851499Y-6913853D01*
X28826308Y-6787210D01*
X28820737Y-6759203D01*
X28820735Y-6759198D01*
X28760397Y-6613527D01*
X28760390Y-6613514D01*
X28672789Y-6482411D01*
X28672786Y-6482407D01*
X28561292Y-6370913D01*
X28561288Y-6370910D01*
X28430185Y-6283309D01*
X28430172Y-6283302D01*
X28284501Y-6222964D01*
X28284489Y-6222961D01*
X28129845Y-6192200D01*
X28129842Y-6192200D01*
X27972158Y-6192200D01*
X27972155Y-6192200D01*
X27817510Y-6222961D01*
X27817498Y-6222964D01*
X27671827Y-6283302D01*
X27671814Y-6283309D01*
X27540711Y-6370910D01*
X27540707Y-6370913D01*
X27429213Y-6482407D01*
X27429210Y-6482411D01*
X27341609Y-6613514D01*
X27341602Y-6613527D01*
X27281264Y-6759198D01*
X27281261Y-6759210D01*
X27250500Y-6913853D01*
X26634158Y-6913853D01*
X26606838Y-6776508D01*
X26606837Y-6776507D01*
X26606837Y-6776503D01*
X26553811Y-6648485D01*
X26546497Y-6630827D01*
X26546490Y-6630814D01*
X26458889Y-6499711D01*
X26458886Y-6499707D01*
X26347392Y-6388213D01*
X26347388Y-6388210D01*
X26216285Y-6300609D01*
X26216272Y-6300602D01*
X26070601Y-6240264D01*
X26070589Y-6240261D01*
X25915945Y-6209500D01*
X25915942Y-6209500D01*
X25758258Y-6209500D01*
X25758255Y-6209500D01*
X25603610Y-6240261D01*
X25603598Y-6240264D01*
X25457927Y-6300602D01*
X25457914Y-6300609D01*
X25326811Y-6388210D01*
X25326807Y-6388213D01*
X25215313Y-6499707D01*
X25215310Y-6499711D01*
X25127709Y-6630814D01*
X25127702Y-6630827D01*
X25067364Y-6776498D01*
X25067361Y-6776507D01*
X25051944Y-6854013D01*
X25019558Y-6915923D01*
X24958842Y-6950497D01*
X24954519Y-6951437D01*
X24845808Y-6973061D01*
X24845798Y-6973064D01*
X24700127Y-7033402D01*
X24700114Y-7033409D01*
X24569011Y-7121010D01*
X24569007Y-7121013D01*
X24457513Y-7232507D01*
X24457510Y-7232511D01*
X24369909Y-7363614D01*
X24369902Y-7363627D01*
X24309564Y-7509298D01*
X24309561Y-7509310D01*
X24278800Y-7663953D01*
X22839765Y-7663953D01*
X22871889Y-7642489D01*
X22983389Y-7530989D01*
X23070994Y-7399879D01*
X23131337Y-7254197D01*
X23162100Y-7099542D01*
X23162100Y-6941858D01*
X23162100Y-6941855D01*
X23162099Y-6941853D01*
X23131338Y-6787210D01*
X23131337Y-6787203D01*
X23131335Y-6787198D01*
X23070997Y-6641527D01*
X23070990Y-6641514D01*
X22983389Y-6510411D01*
X22983386Y-6510407D01*
X22871892Y-6398913D01*
X22871888Y-6398910D01*
X22740785Y-6311309D01*
X22740772Y-6311302D01*
X22595101Y-6250964D01*
X22595089Y-6250961D01*
X22440445Y-6220200D01*
X22440442Y-6220200D01*
X22282758Y-6220200D01*
X22282755Y-6220200D01*
X22128110Y-6250961D01*
X22128098Y-6250964D01*
X21982427Y-6311302D01*
X21982414Y-6311309D01*
X21851311Y-6398910D01*
X21851307Y-6398913D01*
X21739813Y-6510407D01*
X21739810Y-6510411D01*
X21652209Y-6641514D01*
X21652202Y-6641527D01*
X21591864Y-6787198D01*
X21591861Y-6787210D01*
X21561100Y-6941853D01*
X21561100Y-7099546D01*
X21591861Y-7254189D01*
X21591864Y-7254201D01*
X21652202Y-7399872D01*
X21652209Y-7399885D01*
X21739810Y-7530988D01*
X21739813Y-7530992D01*
X21745628Y-7536807D01*
X21779113Y-7598130D01*
X21774129Y-7667822D01*
X21732257Y-7723755D01*
X21726838Y-7727590D01*
X21659311Y-7772710D01*
X21659307Y-7772713D01*
X21547813Y-7884207D01*
X21547810Y-7884211D01*
X21460209Y-8015314D01*
X21460202Y-8015327D01*
X21399864Y-8160998D01*
X21399861Y-8161010D01*
X21369100Y-8315653D01*
X18115890Y-8315653D01*
X18198994Y-8191279D01*
X18259337Y-8045597D01*
X18290100Y-7890942D01*
X18290100Y-7733258D01*
X18290100Y-7733255D01*
X18290099Y-7733253D01*
X18266475Y-7614489D01*
X18259337Y-7578603D01*
X18239615Y-7530989D01*
X18198997Y-7432927D01*
X18198990Y-7432914D01*
X18111389Y-7301811D01*
X18111386Y-7301807D01*
X17999892Y-7190313D01*
X17999888Y-7190310D01*
X17868785Y-7102709D01*
X17868772Y-7102702D01*
X17723101Y-7042364D01*
X17723089Y-7042361D01*
X17568445Y-7011600D01*
X17568442Y-7011600D01*
X17410758Y-7011600D01*
X17410755Y-7011600D01*
X17256110Y-7042361D01*
X17256098Y-7042364D01*
X17110427Y-7102702D01*
X17110414Y-7102709D01*
X16979311Y-7190310D01*
X16979307Y-7190313D01*
X16867813Y-7301807D01*
X16867810Y-7301811D01*
X16780209Y-7432914D01*
X16780202Y-7432927D01*
X16719864Y-7578598D01*
X16719861Y-7578610D01*
X16689100Y-7733253D01*
X300500Y-7733253D01*
X300500Y-5691653D01*
X28803900Y-5691653D01*
X28803900Y-5849346D01*
X28834661Y-6003989D01*
X28834664Y-6004001D01*
X28895002Y-6149672D01*
X28895009Y-6149685D01*
X28982610Y-6280788D01*
X28982613Y-6280792D01*
X29094107Y-6392286D01*
X29094111Y-6392289D01*
X29225214Y-6479890D01*
X29225218Y-6479892D01*
X29225221Y-6479894D01*
X29370903Y-6540237D01*
X29370910Y-6540238D01*
X29376281Y-6542463D01*
X29430685Y-6586304D01*
X29443390Y-6609572D01*
X29459504Y-6648476D01*
X29459509Y-6648485D01*
X29547110Y-6779588D01*
X29547113Y-6779592D01*
X29658607Y-6891086D01*
X29658611Y-6891089D01*
X29789714Y-6978690D01*
X29789727Y-6978697D01*
X29935398Y-7039035D01*
X29935403Y-7039037D01*
X30090053Y-7069799D01*
X30090056Y-7069800D01*
X30090058Y-7069800D01*
X30247744Y-7069800D01*
X30247745Y-7069799D01*
X30402397Y-7039037D01*
X30548079Y-6978694D01*
X30679189Y-6891089D01*
X30790689Y-6779589D01*
X30878294Y-6648479D01*
X30938637Y-6502797D01*
X30969400Y-6348142D01*
X30969400Y-6190458D01*
X30969400Y-6190455D01*
X30969399Y-6190453D01*
X30954746Y-6116789D01*
X30938637Y-6035803D01*
X30925998Y-6005289D01*
X30878297Y-5890127D01*
X30878290Y-5890114D01*
X30790689Y-5759011D01*
X30790686Y-5759007D01*
X30679192Y-5647513D01*
X30679188Y-5647510D01*
X30548085Y-5559909D01*
X30548076Y-5559904D01*
X30462908Y-5524627D01*
X30397017Y-5497334D01*
X30342614Y-5453493D01*
X30329909Y-5430225D01*
X30324080Y-5416153D01*
X38199500Y-5416153D01*
X38199500Y-5573846D01*
X38230261Y-5728489D01*
X38230264Y-5728501D01*
X38290602Y-5874172D01*
X38290609Y-5874185D01*
X38378210Y-6005288D01*
X38378213Y-6005292D01*
X38489707Y-6116786D01*
X38489711Y-6116789D01*
X38620814Y-6204390D01*
X38620827Y-6204397D01*
X38766498Y-6264735D01*
X38766503Y-6264737D01*
X38921153Y-6295499D01*
X38921156Y-6295500D01*
X38921158Y-6295500D01*
X39078844Y-6295500D01*
X39078845Y-6295499D01*
X39233497Y-6264737D01*
X39379179Y-6204394D01*
X39510289Y-6116789D01*
X39621789Y-6005289D01*
X39709394Y-5874179D01*
X39769737Y-5728497D01*
X39800500Y-5573842D01*
X39800500Y-5416158D01*
X39800500Y-5416155D01*
X39800499Y-5416153D01*
X39788432Y-5355489D01*
X39769737Y-5261503D01*
X39741565Y-5193489D01*
X39709397Y-5115827D01*
X39709390Y-5115814D01*
X39621789Y-4984711D01*
X39621786Y-4984707D01*
X39518232Y-4881153D01*
X40699500Y-4881153D01*
X40699500Y-5038846D01*
X40730261Y-5193489D01*
X40730264Y-5193501D01*
X40790602Y-5339172D01*
X40790609Y-5339185D01*
X40878210Y-5470288D01*
X40878213Y-5470292D01*
X40989707Y-5581786D01*
X40989711Y-5581789D01*
X41120814Y-5669390D01*
X41120827Y-5669397D01*
X41174559Y-5691653D01*
X41266503Y-5729737D01*
X41413652Y-5759007D01*
X41421153Y-5760499D01*
X41421156Y-5760500D01*
X41421158Y-5760500D01*
X41578844Y-5760500D01*
X41578845Y-5760499D01*
X41733497Y-5729737D01*
X41879179Y-5669394D01*
X42010289Y-5581789D01*
X42121789Y-5470289D01*
X42209394Y-5339179D01*
X42269737Y-5193497D01*
X42300500Y-5038842D01*
X42300500Y-4881158D01*
X42300500Y-4881155D01*
X42300499Y-4881153D01*
X42281493Y-4785606D01*
X42269737Y-4726503D01*
X42240059Y-4654853D01*
X42209397Y-4580827D01*
X42209390Y-4580814D01*
X42121789Y-4449711D01*
X42121786Y-4449707D01*
X42010292Y-4338213D01*
X42010288Y-4338210D01*
X41879185Y-4250609D01*
X41879172Y-4250602D01*
X41733501Y-4190264D01*
X41733489Y-4190261D01*
X41578845Y-4159500D01*
X41578842Y-4159500D01*
X41421158Y-4159500D01*
X41421155Y-4159500D01*
X41266510Y-4190261D01*
X41266498Y-4190264D01*
X41120827Y-4250602D01*
X41120814Y-4250609D01*
X40989711Y-4338210D01*
X40989707Y-4338213D01*
X40878213Y-4449707D01*
X40878210Y-4449711D01*
X40790609Y-4580814D01*
X40790602Y-4580827D01*
X40730264Y-4726498D01*
X40730261Y-4726510D01*
X40699500Y-4881153D01*
X39518232Y-4881153D01*
X39510292Y-4873213D01*
X39510288Y-4873210D01*
X39379185Y-4785609D01*
X39379172Y-4785602D01*
X39233501Y-4725264D01*
X39233489Y-4725261D01*
X39078845Y-4694500D01*
X39078842Y-4694500D01*
X38921158Y-4694500D01*
X38921155Y-4694500D01*
X38766510Y-4725261D01*
X38766498Y-4725264D01*
X38620827Y-4785602D01*
X38620814Y-4785609D01*
X38489711Y-4873210D01*
X38489707Y-4873213D01*
X38378213Y-4984707D01*
X38378210Y-4984711D01*
X38290609Y-5115814D01*
X38290602Y-5115827D01*
X38230264Y-5261498D01*
X38230261Y-5261510D01*
X38199500Y-5416153D01*
X30324080Y-5416153D01*
X30313797Y-5391327D01*
X30313790Y-5391314D01*
X30226189Y-5260211D01*
X30226186Y-5260207D01*
X30114692Y-5148713D01*
X30114688Y-5148710D01*
X29983585Y-5061109D01*
X29983572Y-5061102D01*
X29837901Y-5000764D01*
X29837889Y-5000761D01*
X29683245Y-4970000D01*
X29683242Y-4970000D01*
X29525558Y-4970000D01*
X29525555Y-4970000D01*
X29370910Y-5000761D01*
X29370898Y-5000764D01*
X29225227Y-5061102D01*
X29225214Y-5061109D01*
X29094111Y-5148710D01*
X29094107Y-5148713D01*
X28982613Y-5260207D01*
X28982610Y-5260211D01*
X28895009Y-5391314D01*
X28895002Y-5391327D01*
X28834664Y-5536998D01*
X28834661Y-5537010D01*
X28803900Y-5691653D01*
X300500Y-5691653D01*
X300500Y-3393713D01*
X2149500Y-3393713D01*
X2149500Y-3606286D01*
X2182238Y-3812989D01*
X2182754Y-3816243D01*
X2230751Y-3963963D01*
X2248444Y-4018414D01*
X2344951Y-4207820D01*
X2469890Y-4379786D01*
X2620213Y-4530109D01*
X2792179Y-4655048D01*
X2792181Y-4655049D01*
X2792184Y-4655051D01*
X2981588Y-4751557D01*
X3183757Y-4817246D01*
X3393713Y-4850500D01*
X3393714Y-4850500D01*
X3606286Y-4850500D01*
X3606287Y-4850500D01*
X3816243Y-4817246D01*
X4018412Y-4751557D01*
X4207816Y-4655051D01*
X4208089Y-4654853D01*
X20089400Y-4654853D01*
X20089400Y-4812546D01*
X20120161Y-4967189D01*
X20120164Y-4967201D01*
X20180502Y-5112872D01*
X20180509Y-5112885D01*
X20268110Y-5243988D01*
X20268113Y-5243992D01*
X20379607Y-5355486D01*
X20379611Y-5355489D01*
X20510714Y-5443090D01*
X20510727Y-5443097D01*
X20576383Y-5470292D01*
X20656403Y-5503437D01*
X20762932Y-5524627D01*
X20811053Y-5534199D01*
X20811056Y-5534200D01*
X20811058Y-5534200D01*
X20968744Y-5534200D01*
X20968745Y-5534199D01*
X21123397Y-5503437D01*
X21269079Y-5443094D01*
X21400189Y-5355489D01*
X21511689Y-5243989D01*
X21599294Y-5112879D01*
X21659637Y-4967197D01*
X21690400Y-4812542D01*
X21690400Y-4654858D01*
X21690400Y-4654855D01*
X21690399Y-4654853D01*
X21675673Y-4580821D01*
X21659637Y-4500203D01*
X21609759Y-4379786D01*
X21599297Y-4354527D01*
X21599290Y-4354514D01*
X21511689Y-4223411D01*
X21511686Y-4223407D01*
X21400192Y-4111913D01*
X21400188Y-4111910D01*
X21269085Y-4024309D01*
X21269072Y-4024302D01*
X21123401Y-3963964D01*
X21123389Y-3963961D01*
X20968745Y-3933200D01*
X20968742Y-3933200D01*
X20811058Y-3933200D01*
X20811055Y-3933200D01*
X20656410Y-3963961D01*
X20656398Y-3963964D01*
X20510727Y-4024302D01*
X20510714Y-4024309D01*
X20379611Y-4111910D01*
X20379607Y-4111913D01*
X20268113Y-4223407D01*
X20268110Y-4223411D01*
X20180509Y-4354514D01*
X20180502Y-4354527D01*
X20120164Y-4500198D01*
X20120161Y-4500210D01*
X20089400Y-4654853D01*
X4208089Y-4654853D01*
X4219261Y-4646735D01*
X4354545Y-4548448D01*
X4379785Y-4530109D01*
X4379783Y-4530109D01*
X4379792Y-4530104D01*
X4530104Y-4379792D01*
X4530106Y-4379788D01*
X4530109Y-4379786D01*
X4655048Y-4207820D01*
X4655047Y-4207820D01*
X4655051Y-4207816D01*
X4751557Y-4018412D01*
X4817246Y-3816243D01*
X4850500Y-3606287D01*
X4850500Y-3393713D01*
X4826948Y-3245010D01*
X4825705Y-3237164D01*
X4823597Y-3223853D01*
X14718600Y-3223853D01*
X14718600Y-3381546D01*
X14749361Y-3536189D01*
X14749364Y-3536201D01*
X14809702Y-3681872D01*
X14809709Y-3681885D01*
X14897310Y-3812988D01*
X14897313Y-3812992D01*
X15008807Y-3924486D01*
X15008811Y-3924489D01*
X15139914Y-4012090D01*
X15139927Y-4012097D01*
X15285598Y-4072435D01*
X15285603Y-4072437D01*
X15425624Y-4100289D01*
X15440253Y-4103199D01*
X15440256Y-4103200D01*
X15440258Y-4103200D01*
X15597944Y-4103200D01*
X15597945Y-4103199D01*
X15752597Y-4072437D01*
X15898279Y-4012094D01*
X16029389Y-3924489D01*
X16140889Y-3812989D01*
X16228494Y-3681879D01*
X16288837Y-3536197D01*
X16315997Y-3399653D01*
X17802300Y-3399653D01*
X17802300Y-3557346D01*
X17833061Y-3711989D01*
X17833064Y-3712001D01*
X17893402Y-3857672D01*
X17893409Y-3857685D01*
X17981010Y-3988788D01*
X17981013Y-3988792D01*
X18092507Y-4100286D01*
X18092511Y-4100289D01*
X18223614Y-4187890D01*
X18223627Y-4187897D01*
X18309367Y-4223411D01*
X18369303Y-4248237D01*
X18523953Y-4278999D01*
X18523956Y-4279000D01*
X18523958Y-4279000D01*
X18681644Y-4279000D01*
X18681645Y-4278999D01*
X18836297Y-4248237D01*
X18981979Y-4187894D01*
X19113089Y-4100289D01*
X19224589Y-3988789D01*
X19312194Y-3857679D01*
X19372537Y-3711997D01*
X19403300Y-3557342D01*
X19403300Y-3399658D01*
X19403300Y-3399655D01*
X19403299Y-3399653D01*
X19372538Y-3245010D01*
X19372537Y-3245003D01*
X19363777Y-3223855D01*
X19312197Y-3099327D01*
X19312190Y-3099314D01*
X19224589Y-2968211D01*
X19224586Y-2968207D01*
X19113092Y-2856713D01*
X19113088Y-2856710D01*
X18981985Y-2769109D01*
X18981972Y-2769102D01*
X18836301Y-2708764D01*
X18836289Y-2708761D01*
X18681645Y-2678000D01*
X18681642Y-2678000D01*
X18523958Y-2678000D01*
X18523955Y-2678000D01*
X18369310Y-2708761D01*
X18369298Y-2708764D01*
X18223627Y-2769102D01*
X18223614Y-2769109D01*
X18092511Y-2856710D01*
X18092507Y-2856713D01*
X17981013Y-2968207D01*
X17981010Y-2968211D01*
X17893409Y-3099314D01*
X17893402Y-3099327D01*
X17833064Y-3244998D01*
X17833061Y-3245010D01*
X17802300Y-3399653D01*
X16315997Y-3399653D01*
X16319600Y-3381542D01*
X16319600Y-3223858D01*
X16319600Y-3223855D01*
X16319599Y-3223853D01*
X16288838Y-3069210D01*
X16288837Y-3069203D01*
X16247005Y-2968211D01*
X16228497Y-2923527D01*
X16228490Y-2923514D01*
X16140889Y-2792411D01*
X16140886Y-2792407D01*
X16029392Y-2680913D01*
X16029388Y-2680910D01*
X15898285Y-2593309D01*
X15898272Y-2593302D01*
X15752601Y-2532964D01*
X15752589Y-2532961D01*
X15597945Y-2502200D01*
X15597942Y-2502200D01*
X15440258Y-2502200D01*
X15440255Y-2502200D01*
X15285610Y-2532961D01*
X15285598Y-2532964D01*
X15139927Y-2593302D01*
X15139914Y-2593309D01*
X15008811Y-2680910D01*
X15008807Y-2680913D01*
X14897313Y-2792407D01*
X14897310Y-2792411D01*
X14809709Y-2923514D01*
X14809702Y-2923527D01*
X14749364Y-3069198D01*
X14749361Y-3069210D01*
X14718600Y-3223853D01*
X4823597Y-3223853D01*
X4817246Y-3183760D01*
X4817246Y-3183757D01*
X4751557Y-2981588D01*
X4655051Y-2792184D01*
X4655049Y-2792181D01*
X4655048Y-2792179D01*
X4530109Y-2620213D01*
X4379786Y-2469890D01*
X4207820Y-2344951D01*
X4018414Y-2248444D01*
X4018413Y-2248443D01*
X4018412Y-2248443D01*
X3816243Y-2182754D01*
X3816241Y-2182753D01*
X3816240Y-2182753D01*
X3654957Y-2157208D01*
X3606287Y-2149500D01*
X3393713Y-2149500D01*
X3345042Y-2157208D01*
X3183760Y-2182753D01*
X2981585Y-2248444D01*
X2792179Y-2344951D01*
X2620213Y-2469890D01*
X2469890Y-2620213D01*
X2344951Y-2792179D01*
X2248444Y-2981585D01*
X2182753Y-3183760D01*
X2149500Y-3393713D01*
X300500Y-3393713D01*
X300500Y-2004427D01*
X300816Y-1995581D01*
X317165Y-1766980D01*
X319683Y-1749470D01*
X367457Y-1529852D01*
X372434Y-1512901D01*
X450986Y-1302295D01*
X458325Y-1286226D01*
X566043Y-1088955D01*
X575599Y-1074086D01*
X710293Y-894156D01*
X721867Y-880799D01*
X880799Y-721867D01*
X894156Y-710293D01*
X1074086Y-575599D01*
X1088955Y-566043D01*
X1286226Y-458325D01*
X1302295Y-450986D01*
X1512901Y-372434D01*
X1529852Y-367457D01*
X1749476Y-319681D01*
X1766973Y-317165D01*
X1995582Y-300816D01*
X2004428Y-300500D01*
X2047594Y-300500D01*
X49952405Y-300500D01*
X49995572Y-300500D01*
X50004418Y-300816D01*
G37*
%TD.AperFunction*%
%TD*%
M02*
