%TF.GenerationSoftware,KiCad,Pcbnew,10.0.6*%
%TF.CreationDate,2026-10-05T06:20:27-07:00*%
%TF.ProjectId,plush-toy-v2-A,706c7573-682d-4746-9f79-2d76322d412e,rev?*%
%TF.SameCoordinates,Original*%
%TF.FileFunction,Copper,L2,Inr*%
%TF.FilePolarity,Positive*%
%FSLAX46Y46*%
G04 Gerber Fmt 4.6, Leading zero omitted, Abs format (unit mm)*
G04 Created by KiCad (PCBNEW 10.0.6) date 2026-10-05 06:20:27*
%MOMM*%
%LPD*%
G01*
G04 APERTURE LIST*
%TA.AperFunction,HeatsinkPad*%
%ADD10C,0.500000*%
%TD*%
%TA.AperFunction,ComponentPad*%
%ADD11O,1.000000X2.100000*%
%TD*%
%TA.AperFunction,ComponentPad*%
%ADD12O,1.000000X1.600000*%
%TD*%
%TA.AperFunction,HeatsinkPad*%
%ADD13C,0.600000*%
%TD*%
%TA.AperFunction,ViaPad*%
%ADD14C,0.600000*%
%TD*%
%TA.AperFunction,ViaPad*%
%ADD15C,0.800000*%
%TD*%
G04 APERTURE END LIST*
D10*
%TO.N,GND*%
%TO.C,U_EFUSE*%
X32800000Y-33750000D03*
X32800000Y-34850000D03*
%TD*%
D11*
%TO.N,GND*%
%TO.C,J_USB*%
X24480000Y-38225000D03*
D12*
X24480000Y-42405000D03*
D11*
X33120000Y-38225000D03*
D12*
X33120000Y-42405000D03*
%TD*%
D13*
%TO.N,GND*%
%TO.C,U1*%
X8510000Y-23900000D03*
X9910000Y-23900000D03*
X7810000Y-23200000D03*
X9210000Y-23200000D03*
X10610000Y-23200000D03*
X8510000Y-22500000D03*
X9910000Y-22500000D03*
X7810000Y-21800000D03*
X9210000Y-21800000D03*
X10610000Y-21800000D03*
X8510000Y-21100000D03*
X9910000Y-21100000D03*
%TD*%
D14*
%TO.N,GND*%
X24500000Y-26800000D03*
X48700000Y-6250000D03*
X41175000Y-19750000D03*
X36980000Y-12000000D03*
X26450000Y-24500000D03*
X23000000Y-23540000D03*
X5250000Y-6000000D03*
X34000000Y-5495000D03*
X36250000Y-22500000D03*
X32730000Y-12000000D03*
X27000000Y-13290000D03*
X41480000Y-39010000D03*
X1490000Y-12250000D03*
X1490000Y-29750000D03*
X20000000Y-38825000D03*
X36600000Y-33000000D03*
X45405000Y-8960000D03*
X13536100Y-6278600D03*
X19000000Y-7000000D03*
X43250000Y-42540000D03*
X7386800Y-7156800D03*
X36950000Y-13750000D03*
X47859100Y-38988400D03*
X37925000Y-38000000D03*
X9480000Y-39250000D03*
X36250000Y-41250000D03*
X33710000Y-13250000D03*
X38000000Y-5495000D03*
X38950000Y-25500000D03*
X26896000Y-21381800D03*
X18850000Y-9300000D03*
X25680000Y-19000000D03*
X31000000Y-29000000D03*
X10675000Y-31750000D03*
X15000000Y-37555000D03*
X37925000Y-36250000D03*
X41000000Y-35040000D03*
X38232600Y-17041000D03*
X31760000Y-17020000D03*
X18636800Y-42156800D03*
X37500000Y-28050000D03*
X20000000Y-8790000D03*
X21291000Y-34767400D03*
X25680000Y-14500000D03*
X23678100Y-7022000D03*
X44460000Y-38250000D03*
X8290900Y-7011600D03*
X41500000Y-2540000D03*
X23113200Y-38376800D03*
X21250000Y-43040000D03*
X45405000Y-17460000D03*
X21123200Y-38113200D03*
X12460000Y-34500000D03*
X27750000Y-30770000D03*
X6480000Y-32260000D03*
X27250000Y-26550000D03*
X44950000Y-6500000D03*
X31700000Y-18000000D03*
%TO.N,+3V3*%
X4790000Y-31500000D03*
X39000000Y-5495000D03*
X23000000Y-25960000D03*
X20730000Y-42260000D03*
X31406800Y-15113200D03*
X26449100Y-22179000D03*
X29020000Y-14000000D03*
X22770000Y-21500000D03*
X41500000Y-4960000D03*
X33204900Y-10182500D03*
X26050900Y-20419000D03*
X36250000Y-17250000D03*
X29800000Y-18000000D03*
X16750000Y-10980000D03*
X2760000Y-29750000D03*
X27000000Y-18270000D03*
X20000000Y-11210000D03*
X51000000Y-43480000D03*
X37050000Y-25500000D03*
X23020000Y-16750000D03*
X7325000Y-31750000D03*
X25275800Y-20563600D03*
X22361600Y-7020700D03*
%TO.N,CC1*%
X23525300Y-42652800D03*
X23826100Y-36752300D03*
%TO.N,CC_SENSE*%
X27788200Y-40935900D03*
X7618600Y-28526900D03*
X19412100Y-34018800D03*
X23664900Y-39306300D03*
D15*
%TO.N,VBAT*%
X21191600Y-31679200D03*
X28650800Y-27338800D03*
X21493300Y-33690800D03*
X9428900Y-41327800D03*
D14*
%TO.N,SPK_P*%
X38810000Y-41458200D03*
X38178700Y-34514500D03*
%TO.N,SPK_N*%
X40506400Y-39856100D03*
X38877900Y-34121100D03*
%TO.N,CC2*%
X23503400Y-40076700D03*
X34088100Y-38899500D03*
%TO.N,VBAT_SENSE*%
X16000000Y-43700000D03*
X19200000Y-43700000D03*
%TO.N,LCD_MOSI*%
X17131600Y-7750000D03*
X18035100Y-19095000D03*
D15*
%TO.N,VSYS*%
X35393200Y-39097300D03*
X24400000Y-24700000D03*
X34894900Y-15152200D03*
X42770000Y-37309700D03*
X39658700Y-35964900D03*
D14*
X40520800Y-24187700D03*
X45405000Y-20000000D03*
D15*
X31071300Y-13056500D03*
X24500000Y-28700000D03*
X39561700Y-38393400D03*
X47199500Y-7713000D03*
D14*
X45405000Y-11500000D03*
X40270000Y-33510000D03*
X29090000Y-24988300D03*
D15*
X36982300Y-20632000D03*
D14*
X37825000Y-19750000D03*
D15*
X26446200Y-30400400D03*
D14*
%TO.N,SERVO_L_PWM*%
X27062600Y-8278300D03*
X22059100Y-27183000D03*
%TO.N,KEY_MUTE*%
X15272900Y-9909900D03*
X13920700Y-28524500D03*
%TO.N,LCD_BL_PWM*%
X23624500Y-10431300D03*
X18024500Y-15285000D03*
X34943600Y-11212600D03*
X29736800Y-10431300D03*
%TO.N,HEAT_GATE_DRV*%
X12920000Y-28511600D03*
X38910900Y-8848600D03*
%TO.N,EFUSE_DVDT*%
X28844400Y-33368700D03*
X30131300Y-38627700D03*
%TO.N,VBUS_FUSED*%
X36285500Y-37078100D03*
X31332600Y-35567400D03*
D15*
%TO.N,VUSB*%
X29090000Y-30547900D03*
X39584000Y-31592300D03*
X33948300Y-36497800D03*
D14*
%TO.N,NTC_SENSE*%
X42400000Y-43800000D03*
X5300000Y-30300000D03*
%TO.N,VBUS_IN*%
X26350000Y-33146000D03*
X26350000Y-36085700D03*
%TO.N,USB_DP*%
X26500900Y-31359200D03*
X17684600Y-31314500D03*
X28102800Y-36132600D03*
X23701500Y-30329200D03*
%TO.N,KEY_PWR*%
X33614000Y-26941700D03*
X28826200Y-7077900D03*
%TO.N,MIC_SD*%
X14365500Y-11028300D03*
X18627600Y-5259400D03*
%TO.N,MIC_WS*%
X5624200Y-3649800D03*
X3225600Y-11030600D03*
%TO.N,MIC_SCK*%
X5306400Y-4747700D03*
X4650300Y-11032900D03*
%TO.N,AMP_SD*%
X38300200Y-31320200D03*
X36428000Y-35346800D03*
%TO.N,BOOT*%
X22546500Y-18742600D03*
D15*
%TO.N,HEAT_LOW*%
X39431800Y-15252600D03*
X40098300Y-27056800D03*
D14*
%TO.N,LCD_RST*%
X18047700Y-17825000D03*
X27997100Y-6916000D03*
%TO.N,LCD_CS*%
X21311800Y-8802200D03*
X16857100Y-14015000D03*
%TO.N,LCD_DC*%
X18047600Y-16555000D03*
X25721500Y-7013600D03*
%TO.N,LCD_CLK_S*%
X20537500Y-7056800D03*
X22547500Y-10731700D03*
%TO.N,LCD_BL*%
X20699400Y-5775000D03*
X24127500Y-9712800D03*
%TO.N,LCD_CLK*%
X17440100Y-13463200D03*
X21856300Y-11399500D03*
%TO.N,EN*%
X14534800Y-24756700D03*
X23624500Y-15714700D03*
%TO.N,SERVO_R_PWM*%
X27562700Y-8885200D03*
X43335000Y-22540000D03*
X38243800Y-10703700D03*
X25271500Y-25574100D03*
%TO.N,AMP_DIN*%
X34560600Y-31671000D03*
X15826700Y-17683500D03*
%TO.N,AMP_BCLK*%
X35114400Y-30837400D03*
X11573000Y-13454800D03*
%TO.N,AMP_LRCLK*%
X9110000Y-13481100D03*
X36441900Y-30691100D03*
%TO.N,I2C_SDA*%
X20957500Y-17513700D03*
X17757500Y-20600000D03*
X27543700Y-23607200D03*
X27775600Y-19189500D03*
X33502300Y-27843700D03*
%TD*%
%TA.AperFunction,Conductor*%
%TO.N,GND*%
G36*
X50004418Y-300816D02*
G01*
X50233020Y-317165D01*
X50250529Y-319683D01*
X50470144Y-367458D01*
X50487103Y-372437D01*
X50697694Y-450983D01*
X50713777Y-458327D01*
X50911034Y-566039D01*
X50911036Y-566040D01*
X50925919Y-575605D01*
X51105836Y-710289D01*
X51119207Y-721875D01*
X51278124Y-880792D01*
X51289710Y-894163D01*
X51424394Y-1074080D01*
X51433959Y-1088963D01*
X51541669Y-1286217D01*
X51549019Y-1302311D01*
X51627559Y-1512887D01*
X51632543Y-1529862D01*
X51680316Y-1749470D01*
X51682834Y-1766982D01*
X51699184Y-1995580D01*
X51699500Y-2004426D01*
X51699500Y-42752649D01*
X51679815Y-42819688D01*
X51627011Y-42865443D01*
X51557853Y-42875387D01*
X51506609Y-42855751D01*
X51379185Y-42770609D01*
X51379172Y-42770602D01*
X51233501Y-42710264D01*
X51233489Y-42710261D01*
X51078845Y-42679500D01*
X51078842Y-42679500D01*
X50921158Y-42679500D01*
X50921155Y-42679500D01*
X50766510Y-42710261D01*
X50766498Y-42710264D01*
X50620827Y-42770602D01*
X50620814Y-42770609D01*
X50489711Y-42858210D01*
X50489707Y-42858213D01*
X50378213Y-42969707D01*
X50378210Y-42969711D01*
X50290609Y-43100814D01*
X50290602Y-43100827D01*
X50230264Y-43246498D01*
X50230261Y-43246510D01*
X50199500Y-43401153D01*
X50199500Y-43558846D01*
X50230261Y-43713489D01*
X50230264Y-43713501D01*
X50290602Y-43859172D01*
X50290609Y-43859185D01*
X50378210Y-43990288D01*
X50378213Y-43990292D01*
X50489707Y-44101786D01*
X50489711Y-44101789D01*
X50620814Y-44189390D01*
X50620827Y-44189397D01*
X50766498Y-44249735D01*
X50766503Y-44249737D01*
X50921153Y-44280499D01*
X50921156Y-44280500D01*
X50921158Y-44280500D01*
X51078844Y-44280500D01*
X51078845Y-44280499D01*
X51233497Y-44249737D01*
X51379179Y-44189394D01*
X51490701Y-44114876D01*
X51557378Y-44093999D01*
X51624758Y-44112483D01*
X51671449Y-44164462D01*
X51683276Y-44226826D01*
X51682833Y-44233019D01*
X51680315Y-44250530D01*
X51632544Y-44470133D01*
X51627560Y-44487109D01*
X51549016Y-44697691D01*
X51541666Y-44713783D01*
X51433961Y-44911032D01*
X51424396Y-44925917D01*
X51289708Y-45105838D01*
X51278122Y-45119208D01*
X51119208Y-45278122D01*
X51105838Y-45289708D01*
X50925917Y-45424396D01*
X50911032Y-45433961D01*
X50713783Y-45541666D01*
X50697691Y-45549016D01*
X50487109Y-45627560D01*
X50470133Y-45632544D01*
X50250530Y-45680315D01*
X50233019Y-45682833D01*
X50025320Y-45697688D01*
X50004417Y-45699184D01*
X49995572Y-45699500D01*
X2004428Y-45699500D01*
X1995582Y-45699184D01*
X1766982Y-45682834D01*
X1749470Y-45680316D01*
X1529862Y-45632543D01*
X1512887Y-45627559D01*
X1302311Y-45549019D01*
X1286217Y-45541669D01*
X1088963Y-45433959D01*
X1074080Y-45424394D01*
X894163Y-45289710D01*
X880792Y-45278124D01*
X721875Y-45119207D01*
X710289Y-45105836D01*
X575605Y-44925919D01*
X566040Y-44911036D01*
X458330Y-44713782D01*
X450983Y-44697694D01*
X372437Y-44487103D01*
X367458Y-44470144D01*
X319683Y-44250529D01*
X317165Y-44233017D01*
X315539Y-44210288D01*
X300816Y-44004418D01*
X300500Y-43995572D01*
X300500Y-42393713D01*
X2149500Y-42393713D01*
X2149500Y-42606286D01*
X2175475Y-42770289D01*
X2182754Y-42816243D01*
X2239409Y-42990609D01*
X2248444Y-43018414D01*
X2344951Y-43207820D01*
X2469890Y-43379786D01*
X2620213Y-43530109D01*
X2792179Y-43655048D01*
X2792181Y-43655049D01*
X2792184Y-43655051D01*
X2981588Y-43751557D01*
X3183757Y-43817246D01*
X3393713Y-43850500D01*
X3393714Y-43850500D01*
X3606286Y-43850500D01*
X3606287Y-43850500D01*
X3816243Y-43817246D01*
X4018412Y-43751557D01*
X4207816Y-43655051D01*
X4254473Y-43621153D01*
X15199500Y-43621153D01*
X15199500Y-43778846D01*
X15230261Y-43933489D01*
X15230264Y-43933501D01*
X15290602Y-44079172D01*
X15290609Y-44079185D01*
X15378210Y-44210288D01*
X15378213Y-44210292D01*
X15489707Y-44321786D01*
X15489711Y-44321789D01*
X15620814Y-44409390D01*
X15620827Y-44409397D01*
X15766498Y-44469735D01*
X15766503Y-44469737D01*
X15921153Y-44500499D01*
X15921156Y-44500500D01*
X15921158Y-44500500D01*
X16078844Y-44500500D01*
X16078845Y-44500499D01*
X16233497Y-44469737D01*
X16379179Y-44409394D01*
X16510289Y-44321789D01*
X16621789Y-44210289D01*
X16709394Y-44079179D01*
X16769737Y-43933497D01*
X16800500Y-43778842D01*
X16800500Y-43621158D01*
X16800500Y-43621155D01*
X16800499Y-43621153D01*
X18399500Y-43621153D01*
X18399500Y-43778846D01*
X18430261Y-43933489D01*
X18430264Y-43933501D01*
X18490602Y-44079172D01*
X18490609Y-44079185D01*
X18578210Y-44210288D01*
X18578213Y-44210292D01*
X18689707Y-44321786D01*
X18689711Y-44321789D01*
X18820814Y-44409390D01*
X18820827Y-44409397D01*
X18966498Y-44469735D01*
X18966503Y-44469737D01*
X19121153Y-44500499D01*
X19121156Y-44500500D01*
X19121158Y-44500500D01*
X19278844Y-44500500D01*
X19278845Y-44500499D01*
X19433497Y-44469737D01*
X19579179Y-44409394D01*
X19710289Y-44321789D01*
X19821789Y-44210289D01*
X19909394Y-44079179D01*
X19969737Y-43933497D01*
X20000500Y-43778842D01*
X20000500Y-43721153D01*
X41599500Y-43721153D01*
X41599500Y-43878846D01*
X41630261Y-44033489D01*
X41630264Y-44033501D01*
X41690602Y-44179172D01*
X41690609Y-44179185D01*
X41778210Y-44310288D01*
X41778213Y-44310292D01*
X41889707Y-44421786D01*
X41889711Y-44421789D01*
X42020814Y-44509390D01*
X42020827Y-44509397D01*
X42166498Y-44569735D01*
X42166503Y-44569737D01*
X42321153Y-44600499D01*
X42321156Y-44600500D01*
X42321158Y-44600500D01*
X42478844Y-44600500D01*
X42478845Y-44600499D01*
X42633497Y-44569737D01*
X42779179Y-44509394D01*
X42910289Y-44421789D01*
X43021789Y-44310289D01*
X43109394Y-44179179D01*
X43169737Y-44033497D01*
X43200500Y-43878842D01*
X43200500Y-43721158D01*
X43200500Y-43721155D01*
X43200499Y-43721153D01*
X43187350Y-43655048D01*
X43169737Y-43566503D01*
X43128314Y-43466498D01*
X43109397Y-43420827D01*
X43109390Y-43420814D01*
X43021789Y-43289711D01*
X43021786Y-43289707D01*
X42910292Y-43178213D01*
X42910288Y-43178210D01*
X42779185Y-43090609D01*
X42779172Y-43090602D01*
X42633501Y-43030264D01*
X42633489Y-43030261D01*
X42478845Y-42999500D01*
X42478842Y-42999500D01*
X42321158Y-42999500D01*
X42321155Y-42999500D01*
X42166510Y-43030261D01*
X42166498Y-43030264D01*
X42020827Y-43090602D01*
X42020814Y-43090609D01*
X41889711Y-43178210D01*
X41889707Y-43178213D01*
X41778213Y-43289707D01*
X41778210Y-43289711D01*
X41690609Y-43420814D01*
X41690602Y-43420827D01*
X41630264Y-43566498D01*
X41630261Y-43566510D01*
X41599500Y-43721153D01*
X20000500Y-43721153D01*
X20000500Y-43621158D01*
X20000500Y-43621155D01*
X20000499Y-43621153D01*
X19969738Y-43466510D01*
X19969737Y-43466503D01*
X19950812Y-43420814D01*
X19909397Y-43320827D01*
X19909390Y-43320814D01*
X19821789Y-43189711D01*
X19821786Y-43189707D01*
X19710292Y-43078213D01*
X19710288Y-43078210D01*
X19579185Y-42990609D01*
X19579172Y-42990602D01*
X19433501Y-42930264D01*
X19433489Y-42930261D01*
X19278845Y-42899500D01*
X19278842Y-42899500D01*
X19121158Y-42899500D01*
X19121155Y-42899500D01*
X18966510Y-42930261D01*
X18966498Y-42930264D01*
X18820827Y-42990602D01*
X18820814Y-42990609D01*
X18689711Y-43078210D01*
X18689707Y-43078213D01*
X18578213Y-43189707D01*
X18578210Y-43189711D01*
X18490609Y-43320814D01*
X18490602Y-43320827D01*
X18430264Y-43466498D01*
X18430261Y-43466510D01*
X18399500Y-43621153D01*
X16800499Y-43621153D01*
X16769738Y-43466510D01*
X16769737Y-43466503D01*
X16750812Y-43420814D01*
X16709397Y-43320827D01*
X16709390Y-43320814D01*
X16621789Y-43189711D01*
X16621786Y-43189707D01*
X16510292Y-43078213D01*
X16510288Y-43078210D01*
X16379185Y-42990609D01*
X16379172Y-42990602D01*
X16233501Y-42930264D01*
X16233489Y-42930261D01*
X16078845Y-42899500D01*
X16078842Y-42899500D01*
X15921158Y-42899500D01*
X15921155Y-42899500D01*
X15766510Y-42930261D01*
X15766498Y-42930264D01*
X15620827Y-42990602D01*
X15620814Y-42990609D01*
X15489711Y-43078210D01*
X15489707Y-43078213D01*
X15378213Y-43189707D01*
X15378210Y-43189711D01*
X15290609Y-43320814D01*
X15290602Y-43320827D01*
X15230264Y-43466498D01*
X15230261Y-43466510D01*
X15199500Y-43621153D01*
X4254473Y-43621153D01*
X4379786Y-43530109D01*
X4379788Y-43530106D01*
X4379792Y-43530104D01*
X4530104Y-43379792D01*
X4530106Y-43379788D01*
X4530109Y-43379786D01*
X4655048Y-43207820D01*
X4655047Y-43207820D01*
X4655051Y-43207816D01*
X4751557Y-43018412D01*
X4817246Y-42816243D01*
X4850500Y-42606287D01*
X4850500Y-42393713D01*
X4817246Y-42183757D01*
X4751557Y-41981588D01*
X4655051Y-41792184D01*
X4655049Y-41792181D01*
X4655048Y-41792179D01*
X4530109Y-41620213D01*
X4379786Y-41469890D01*
X4207817Y-41344949D01*
X4204977Y-41343502D01*
X4204976Y-41343502D01*
X4149204Y-41315085D01*
X4018412Y-41248443D01*
X3989670Y-41239104D01*
X8528400Y-41239104D01*
X8528400Y-41416495D01*
X8563003Y-41590458D01*
X8563006Y-41590467D01*
X8630883Y-41754340D01*
X8630890Y-41754353D01*
X8729435Y-41901834D01*
X8729438Y-41901838D01*
X8854861Y-42027261D01*
X8854865Y-42027264D01*
X9002346Y-42125809D01*
X9002359Y-42125816D01*
X9125263Y-42176723D01*
X9166234Y-42193694D01*
X9166236Y-42193694D01*
X9166241Y-42193696D01*
X9340204Y-42228299D01*
X9340207Y-42228300D01*
X9340209Y-42228300D01*
X9517593Y-42228300D01*
X9517594Y-42228299D01*
X9575582Y-42216764D01*
X9691558Y-42193696D01*
X9691561Y-42193694D01*
X9691566Y-42193694D01*
X9721843Y-42181153D01*
X19929500Y-42181153D01*
X19929500Y-42338846D01*
X19960261Y-42493489D01*
X19960264Y-42493501D01*
X20020602Y-42639172D01*
X20020609Y-42639185D01*
X20108210Y-42770288D01*
X20108213Y-42770292D01*
X20219707Y-42881786D01*
X20219711Y-42881789D01*
X20350814Y-42969390D01*
X20350827Y-42969397D01*
X20496498Y-43029735D01*
X20496503Y-43029737D01*
X20651153Y-43060499D01*
X20651156Y-43060500D01*
X20651158Y-43060500D01*
X20808844Y-43060500D01*
X20808845Y-43060499D01*
X20963497Y-43029737D01*
X21108414Y-42969711D01*
X21109172Y-42969397D01*
X21109172Y-42969396D01*
X21109179Y-42969394D01*
X21240289Y-42881789D01*
X21351789Y-42770289D01*
X21439394Y-42639179D01*
X21466409Y-42573958D01*
X21466411Y-42573953D01*
X22724800Y-42573953D01*
X22724800Y-42731646D01*
X22755561Y-42886289D01*
X22755564Y-42886301D01*
X22815902Y-43031972D01*
X22815909Y-43031985D01*
X22903510Y-43163088D01*
X22903513Y-43163092D01*
X23015007Y-43274586D01*
X23015011Y-43274589D01*
X23146114Y-43362190D01*
X23146127Y-43362197D01*
X23291798Y-43422535D01*
X23291803Y-43422537D01*
X23446453Y-43453299D01*
X23446456Y-43453300D01*
X23446458Y-43453300D01*
X23604144Y-43453300D01*
X23604145Y-43453299D01*
X23758797Y-43422537D01*
X23904479Y-43362194D01*
X24035589Y-43274589D01*
X24147089Y-43163089D01*
X24234694Y-43031979D01*
X24235624Y-43029735D01*
X24276826Y-42930263D01*
X24295037Y-42886297D01*
X24325800Y-42731642D01*
X24325800Y-42573958D01*
X24325800Y-42573955D01*
X24325799Y-42573953D01*
X24309795Y-42493497D01*
X24295037Y-42419303D01*
X24295035Y-42419298D01*
X24234697Y-42273627D01*
X24234690Y-42273614D01*
X24147089Y-42142511D01*
X24147086Y-42142507D01*
X24035592Y-42031013D01*
X24035588Y-42031010D01*
X23904485Y-41943409D01*
X23904472Y-41943402D01*
X23758801Y-41883064D01*
X23758789Y-41883061D01*
X23604145Y-41852300D01*
X23604142Y-41852300D01*
X23446458Y-41852300D01*
X23446455Y-41852300D01*
X23291810Y-41883061D01*
X23291798Y-41883064D01*
X23146127Y-41943402D01*
X23146114Y-41943409D01*
X23015011Y-42031010D01*
X23015007Y-42031013D01*
X22903513Y-42142507D01*
X22903510Y-42142511D01*
X22815909Y-42273614D01*
X22815902Y-42273627D01*
X22755564Y-42419298D01*
X22755561Y-42419310D01*
X22724800Y-42573953D01*
X21466411Y-42573953D01*
X21488588Y-42520414D01*
X21499735Y-42493501D01*
X21499737Y-42493497D01*
X21530500Y-42338842D01*
X21530500Y-42181158D01*
X21530500Y-42181155D01*
X21530499Y-42181153D01*
X21499737Y-42026503D01*
X21481133Y-41981588D01*
X21439397Y-41880827D01*
X21439390Y-41880814D01*
X21351789Y-41749711D01*
X21351786Y-41749707D01*
X21240292Y-41638213D01*
X21240288Y-41638210D01*
X21109185Y-41550609D01*
X21109172Y-41550602D01*
X20963501Y-41490264D01*
X20963489Y-41490261D01*
X20808845Y-41459500D01*
X20808842Y-41459500D01*
X20651158Y-41459500D01*
X20651155Y-41459500D01*
X20496510Y-41490261D01*
X20496498Y-41490264D01*
X20350827Y-41550602D01*
X20350814Y-41550609D01*
X20219711Y-41638210D01*
X20219707Y-41638213D01*
X20108213Y-41749707D01*
X20108210Y-41749711D01*
X20020609Y-41880814D01*
X20020602Y-41880827D01*
X19960264Y-42026498D01*
X19960261Y-42026510D01*
X19929500Y-42181153D01*
X9721843Y-42181153D01*
X9855447Y-42125813D01*
X9855453Y-42125809D01*
X9936038Y-42071964D01*
X9966246Y-42051778D01*
X10002935Y-42027264D01*
X10128364Y-41901835D01*
X10226913Y-41754347D01*
X10294794Y-41590466D01*
X10301315Y-41557686D01*
X10329399Y-41416495D01*
X10329400Y-41416493D01*
X10329400Y-41239106D01*
X10329399Y-41239104D01*
X10294796Y-41065141D01*
X10294793Y-41065132D01*
X10226916Y-40901259D01*
X10226909Y-40901246D01*
X10128364Y-40753765D01*
X10128361Y-40753761D01*
X10002938Y-40628338D01*
X10002934Y-40628335D01*
X9855453Y-40529790D01*
X9855440Y-40529783D01*
X9691567Y-40461906D01*
X9691558Y-40461903D01*
X9517594Y-40427300D01*
X9517591Y-40427300D01*
X9340209Y-40427300D01*
X9340206Y-40427300D01*
X9166241Y-40461903D01*
X9166232Y-40461906D01*
X9002359Y-40529783D01*
X9002346Y-40529790D01*
X8854865Y-40628335D01*
X8854861Y-40628338D01*
X8729438Y-40753761D01*
X8729435Y-40753765D01*
X8630890Y-40901246D01*
X8630883Y-40901259D01*
X8563006Y-41065132D01*
X8563003Y-41065141D01*
X8528400Y-41239104D01*
X3989670Y-41239104D01*
X3816243Y-41182754D01*
X3816241Y-41182753D01*
X3816240Y-41182753D01*
X3654957Y-41157208D01*
X3606287Y-41149500D01*
X3393713Y-41149500D01*
X3345042Y-41157208D01*
X3183760Y-41182753D01*
X2981585Y-41248444D01*
X2792179Y-41344951D01*
X2620213Y-41469890D01*
X2469890Y-41620213D01*
X2344951Y-41792179D01*
X2248444Y-41981585D01*
X2182753Y-42183760D01*
X2149500Y-42393713D01*
X300500Y-42393713D01*
X300500Y-39997853D01*
X22702900Y-39997853D01*
X22702900Y-40155546D01*
X22733661Y-40310189D01*
X22733664Y-40310201D01*
X22794002Y-40455872D01*
X22794009Y-40455885D01*
X22881610Y-40586988D01*
X22881613Y-40586992D01*
X22993107Y-40698486D01*
X22993111Y-40698489D01*
X23124214Y-40786090D01*
X23124227Y-40786097D01*
X23269898Y-40846435D01*
X23269903Y-40846437D01*
X23424553Y-40877199D01*
X23424556Y-40877200D01*
X23424558Y-40877200D01*
X23582244Y-40877200D01*
X23582245Y-40877199D01*
X23683526Y-40857053D01*
X26987700Y-40857053D01*
X26987700Y-41014746D01*
X27018461Y-41169389D01*
X27018464Y-41169401D01*
X27078802Y-41315072D01*
X27078809Y-41315085D01*
X27166410Y-41446188D01*
X27166413Y-41446192D01*
X27277907Y-41557686D01*
X27277911Y-41557689D01*
X27409014Y-41645290D01*
X27409027Y-41645297D01*
X27521058Y-41691701D01*
X27554703Y-41705637D01*
X27709353Y-41736399D01*
X27709356Y-41736400D01*
X27709358Y-41736400D01*
X27867044Y-41736400D01*
X27867045Y-41736399D01*
X28021697Y-41705637D01*
X28167379Y-41645294D01*
X28298489Y-41557689D01*
X28409989Y-41446189D01*
X28454647Y-41379353D01*
X38009500Y-41379353D01*
X38009500Y-41537046D01*
X38040261Y-41691689D01*
X38040264Y-41691701D01*
X38100602Y-41837372D01*
X38100609Y-41837385D01*
X38188210Y-41968488D01*
X38188213Y-41968492D01*
X38299707Y-42079986D01*
X38299711Y-42079989D01*
X38430814Y-42167590D01*
X38430827Y-42167597D01*
X38493832Y-42193694D01*
X38576503Y-42227937D01*
X38731153Y-42258699D01*
X38731156Y-42258700D01*
X38731158Y-42258700D01*
X38888844Y-42258700D01*
X38888845Y-42258699D01*
X39043497Y-42227937D01*
X39189179Y-42167594D01*
X39320289Y-42079989D01*
X39431789Y-41968489D01*
X39519394Y-41837379D01*
X39579737Y-41691697D01*
X39610500Y-41537042D01*
X39610500Y-41379358D01*
X39610500Y-41379355D01*
X39610499Y-41379353D01*
X39603656Y-41344951D01*
X39579737Y-41224703D01*
X39562361Y-41182753D01*
X39519397Y-41079027D01*
X39519390Y-41079014D01*
X39431789Y-40947911D01*
X39431786Y-40947907D01*
X39320292Y-40836413D01*
X39320288Y-40836410D01*
X39189185Y-40748809D01*
X39189172Y-40748802D01*
X39043501Y-40688464D01*
X39043489Y-40688461D01*
X38888845Y-40657700D01*
X38888842Y-40657700D01*
X38731158Y-40657700D01*
X38731155Y-40657700D01*
X38576510Y-40688461D01*
X38576498Y-40688464D01*
X38430827Y-40748802D01*
X38430814Y-40748809D01*
X38299711Y-40836410D01*
X38299707Y-40836413D01*
X38188213Y-40947907D01*
X38188210Y-40947911D01*
X38100609Y-41079014D01*
X38100602Y-41079027D01*
X38040264Y-41224698D01*
X38040261Y-41224710D01*
X38009500Y-41379353D01*
X28454647Y-41379353D01*
X28477634Y-41344951D01*
X28497593Y-41315081D01*
X28497595Y-41315077D01*
X28525195Y-41248443D01*
X28557937Y-41169397D01*
X28588700Y-41014742D01*
X28588700Y-40857058D01*
X28588700Y-40857055D01*
X28588699Y-40857053D01*
X28574583Y-40786090D01*
X28557937Y-40702403D01*
X28527258Y-40628336D01*
X28497597Y-40556727D01*
X28497590Y-40556714D01*
X28409989Y-40425611D01*
X28409986Y-40425607D01*
X28298492Y-40314113D01*
X28298488Y-40314110D01*
X28167385Y-40226509D01*
X28167372Y-40226502D01*
X28021701Y-40166164D01*
X28021689Y-40166161D01*
X27867045Y-40135400D01*
X27867042Y-40135400D01*
X27709358Y-40135400D01*
X27709355Y-40135400D01*
X27554710Y-40166161D01*
X27554698Y-40166164D01*
X27409027Y-40226502D01*
X27409014Y-40226509D01*
X27277911Y-40314110D01*
X27277907Y-40314113D01*
X27166413Y-40425607D01*
X27166410Y-40425611D01*
X27078809Y-40556714D01*
X27078802Y-40556727D01*
X27018464Y-40702398D01*
X27018461Y-40702410D01*
X26987700Y-40857053D01*
X23683526Y-40857053D01*
X23736897Y-40846437D01*
X23882579Y-40786094D01*
X23930969Y-40753761D01*
X23939795Y-40747864D01*
X23973225Y-40725525D01*
X24013689Y-40698489D01*
X24125189Y-40586989D01*
X24212794Y-40455879D01*
X24273137Y-40310197D01*
X24303900Y-40155542D01*
X24303900Y-39997858D01*
X24303900Y-39997855D01*
X24282187Y-39888699D01*
X24288414Y-39819107D01*
X24300696Y-39795624D01*
X24374294Y-39685479D01*
X24434637Y-39539797D01*
X24465400Y-39385142D01*
X24465400Y-39227458D01*
X24465400Y-39227455D01*
X24465399Y-39227453D01*
X24449337Y-39146706D01*
X24434637Y-39072803D01*
X24395512Y-38978346D01*
X24374297Y-38927127D01*
X24374290Y-38927114D01*
X24286689Y-38796011D01*
X24286686Y-38796007D01*
X24175192Y-38684513D01*
X24175188Y-38684510D01*
X24167292Y-38679234D01*
X25334500Y-38679234D01*
X25334500Y-38830766D01*
X25346033Y-38873809D01*
X25373719Y-38977136D01*
X25407656Y-39035915D01*
X25449485Y-39108365D01*
X25556635Y-39215515D01*
X25687865Y-39291281D01*
X25834234Y-39330500D01*
X25834236Y-39330500D01*
X25985764Y-39330500D01*
X25985766Y-39330500D01*
X26132135Y-39291281D01*
X26263365Y-39215515D01*
X26370515Y-39108365D01*
X26446281Y-38977135D01*
X26485500Y-38830766D01*
X26485500Y-38679234D01*
X26450565Y-38548853D01*
X29330800Y-38548853D01*
X29330800Y-38706546D01*
X29361561Y-38861189D01*
X29361564Y-38861201D01*
X29421902Y-39006872D01*
X29421909Y-39006885D01*
X29509510Y-39137988D01*
X29509513Y-39137992D01*
X29621007Y-39249486D01*
X29621011Y-39249489D01*
X29752114Y-39337090D01*
X29752127Y-39337097D01*
X29897798Y-39397435D01*
X29897803Y-39397437D01*
X30052453Y-39428199D01*
X30052456Y-39428200D01*
X30052458Y-39428200D01*
X30210144Y-39428200D01*
X30210145Y-39428199D01*
X30364797Y-39397437D01*
X30489444Y-39345807D01*
X30510472Y-39337097D01*
X30510472Y-39337096D01*
X30510479Y-39337094D01*
X30641589Y-39249489D01*
X30753089Y-39137989D01*
X30840694Y-39006879D01*
X30873734Y-38927114D01*
X30895813Y-38873809D01*
X30939653Y-38819405D01*
X31005947Y-38797340D01*
X31073647Y-38814619D01*
X31121258Y-38865756D01*
X31130149Y-38889168D01*
X31153719Y-38977136D01*
X31187656Y-39035915D01*
X31229485Y-39108365D01*
X31336635Y-39215515D01*
X31467865Y-39291281D01*
X31614234Y-39330500D01*
X31614236Y-39330500D01*
X31765764Y-39330500D01*
X31765766Y-39330500D01*
X31912135Y-39291281D01*
X32043365Y-39215515D01*
X32150515Y-39108365D01*
X32226281Y-38977135D01*
X32265500Y-38830766D01*
X32265500Y-38820653D01*
X33287600Y-38820653D01*
X33287600Y-38978346D01*
X33318361Y-39132989D01*
X33318364Y-39133001D01*
X33378702Y-39278672D01*
X33378709Y-39278685D01*
X33466310Y-39409788D01*
X33466313Y-39409792D01*
X33577807Y-39521286D01*
X33577811Y-39521289D01*
X33708914Y-39608890D01*
X33708927Y-39608897D01*
X33854598Y-39669235D01*
X33854603Y-39669237D01*
X34009253Y-39699999D01*
X34009256Y-39700000D01*
X34009258Y-39700000D01*
X34166944Y-39700000D01*
X34166945Y-39699999D01*
X34321597Y-39669237D01*
X34467279Y-39608894D01*
X34491889Y-39592449D01*
X34558564Y-39571570D01*
X34625945Y-39590052D01*
X34663884Y-39626659D01*
X34693735Y-39671334D01*
X34693738Y-39671338D01*
X34819161Y-39796761D01*
X34819165Y-39796764D01*
X34966646Y-39895309D01*
X34966659Y-39895316D01*
X35089563Y-39946223D01*
X35130534Y-39963194D01*
X35130536Y-39963194D01*
X35130541Y-39963196D01*
X35304504Y-39997799D01*
X35304507Y-39997800D01*
X35304509Y-39997800D01*
X35481893Y-39997800D01*
X35481894Y-39997799D01*
X35539882Y-39986264D01*
X35655858Y-39963196D01*
X35655861Y-39963194D01*
X35655866Y-39963194D01*
X35819747Y-39895313D01*
X35967235Y-39796764D01*
X36092664Y-39671335D01*
X36191213Y-39523847D01*
X36259094Y-39359966D01*
X36261911Y-39345807D01*
X36293699Y-39185995D01*
X36293700Y-39185993D01*
X36293700Y-39008606D01*
X36293699Y-39008604D01*
X36259096Y-38834641D01*
X36259093Y-38834632D01*
X36253010Y-38819947D01*
X36196912Y-38684511D01*
X36191216Y-38670759D01*
X36191209Y-38670746D01*
X36092664Y-38523265D01*
X36092661Y-38523261D01*
X35967238Y-38397838D01*
X35967234Y-38397835D01*
X35827856Y-38304704D01*
X38661200Y-38304704D01*
X38661200Y-38482095D01*
X38695803Y-38656058D01*
X38695806Y-38656067D01*
X38763683Y-38819940D01*
X38763690Y-38819953D01*
X38862235Y-38967434D01*
X38862238Y-38967438D01*
X38987661Y-39092861D01*
X38987665Y-39092864D01*
X39135146Y-39191409D01*
X39135159Y-39191416D01*
X39238719Y-39234311D01*
X39299034Y-39259294D01*
X39299036Y-39259294D01*
X39299041Y-39259296D01*
X39473004Y-39293899D01*
X39473007Y-39293900D01*
X39473009Y-39293900D01*
X39650392Y-39293900D01*
X39666901Y-39290616D01*
X39736493Y-39296843D01*
X39791671Y-39339705D01*
X39814916Y-39405595D01*
X39799393Y-39471286D01*
X39799879Y-39471546D01*
X39798899Y-39473378D01*
X39798849Y-39473592D01*
X39798375Y-39474359D01*
X39797002Y-39476927D01*
X39736664Y-39622598D01*
X39736661Y-39622610D01*
X39705900Y-39777253D01*
X39705900Y-39934946D01*
X39736661Y-40089589D01*
X39736664Y-40089601D01*
X39797002Y-40235272D01*
X39797009Y-40235285D01*
X39884610Y-40366388D01*
X39884613Y-40366392D01*
X39996107Y-40477886D01*
X39996111Y-40477889D01*
X40127214Y-40565490D01*
X40127227Y-40565497D01*
X40272898Y-40625835D01*
X40272903Y-40625837D01*
X40427553Y-40656599D01*
X40427556Y-40656600D01*
X40427558Y-40656600D01*
X40585244Y-40656600D01*
X40585245Y-40656599D01*
X40739897Y-40625837D01*
X40885579Y-40565494D01*
X41016689Y-40477889D01*
X41128189Y-40366389D01*
X41215794Y-40235279D01*
X41276137Y-40089597D01*
X41306900Y-39934942D01*
X41306900Y-39777258D01*
X41306900Y-39777255D01*
X41306899Y-39777253D01*
X41288644Y-39685479D01*
X41276137Y-39622603D01*
X41235234Y-39523853D01*
X41215797Y-39476927D01*
X41215790Y-39476914D01*
X41128189Y-39345811D01*
X41128186Y-39345807D01*
X41016692Y-39234313D01*
X41016688Y-39234310D01*
X40885585Y-39146709D01*
X40885572Y-39146702D01*
X40739901Y-39086364D01*
X40739889Y-39086361D01*
X40585245Y-39055600D01*
X40585242Y-39055600D01*
X40434243Y-39055600D01*
X40367204Y-39035915D01*
X40321449Y-38983111D01*
X40311505Y-38913953D01*
X40331141Y-38862709D01*
X40359709Y-38819953D01*
X40359709Y-38819952D01*
X40359713Y-38819947D01*
X40427594Y-38656066D01*
X40462200Y-38482091D01*
X40462200Y-38304709D01*
X40462200Y-38304706D01*
X40462199Y-38304704D01*
X40427596Y-38130741D01*
X40427593Y-38130732D01*
X40359716Y-37966859D01*
X40359709Y-37966846D01*
X40261164Y-37819365D01*
X40261161Y-37819361D01*
X40135738Y-37693938D01*
X40135734Y-37693935D01*
X39988253Y-37595390D01*
X39988240Y-37595383D01*
X39824367Y-37527506D01*
X39824358Y-37527503D01*
X39650394Y-37492900D01*
X39650391Y-37492900D01*
X39473009Y-37492900D01*
X39473006Y-37492900D01*
X39299041Y-37527503D01*
X39299032Y-37527506D01*
X39135159Y-37595383D01*
X39135146Y-37595390D01*
X38987665Y-37693935D01*
X38987661Y-37693938D01*
X38862238Y-37819361D01*
X38862235Y-37819365D01*
X38763690Y-37966846D01*
X38763683Y-37966859D01*
X38695806Y-38130732D01*
X38695803Y-38130741D01*
X38661200Y-38304704D01*
X35827856Y-38304704D01*
X35819753Y-38299290D01*
X35819740Y-38299283D01*
X35655867Y-38231406D01*
X35655858Y-38231403D01*
X35481894Y-38196800D01*
X35481891Y-38196800D01*
X35304509Y-38196800D01*
X35304506Y-38196800D01*
X35130541Y-38231403D01*
X35130532Y-38231406D01*
X34966659Y-38299283D01*
X34966646Y-38299290D01*
X34843443Y-38381613D01*
X34776766Y-38402491D01*
X34709385Y-38384007D01*
X34686871Y-38366192D01*
X34598392Y-38277713D01*
X34598388Y-38277710D01*
X34467285Y-38190109D01*
X34467272Y-38190102D01*
X34321601Y-38129764D01*
X34321589Y-38129761D01*
X34166945Y-38099000D01*
X34166942Y-38099000D01*
X34009258Y-38099000D01*
X34009255Y-38099000D01*
X33854610Y-38129761D01*
X33854598Y-38129764D01*
X33708927Y-38190102D01*
X33708914Y-38190109D01*
X33577811Y-38277710D01*
X33577807Y-38277713D01*
X33466313Y-38389207D01*
X33466310Y-38389211D01*
X33378709Y-38520314D01*
X33378702Y-38520327D01*
X33318364Y-38665998D01*
X33318361Y-38666010D01*
X33287600Y-38820653D01*
X32265500Y-38820653D01*
X32265500Y-38679234D01*
X32226281Y-38532865D01*
X32150515Y-38401635D01*
X32043365Y-38294485D01*
X31963764Y-38248527D01*
X31912136Y-38218719D01*
X31830331Y-38196800D01*
X31765766Y-38179500D01*
X31614234Y-38179500D01*
X31467863Y-38218719D01*
X31336635Y-38294485D01*
X31336632Y-38294487D01*
X31229487Y-38401632D01*
X31229485Y-38401635D01*
X31151029Y-38537523D01*
X31100461Y-38585738D01*
X31031854Y-38598960D01*
X30966989Y-38572992D01*
X30926462Y-38516077D01*
X30922025Y-38499713D01*
X30909218Y-38435332D01*
X30901037Y-38394203D01*
X30863968Y-38304709D01*
X30840697Y-38248527D01*
X30840690Y-38248514D01*
X30753089Y-38117411D01*
X30753086Y-38117407D01*
X30641592Y-38005913D01*
X30641588Y-38005910D01*
X30510485Y-37918309D01*
X30510472Y-37918302D01*
X30364801Y-37857964D01*
X30364789Y-37857961D01*
X30210145Y-37827200D01*
X30210142Y-37827200D01*
X30052458Y-37827200D01*
X30052455Y-37827200D01*
X29897810Y-37857961D01*
X29897798Y-37857964D01*
X29752127Y-37918302D01*
X29752114Y-37918309D01*
X29621011Y-38005910D01*
X29621007Y-38005913D01*
X29509513Y-38117407D01*
X29509510Y-38117411D01*
X29421909Y-38248514D01*
X29421902Y-38248527D01*
X29361564Y-38394198D01*
X29361561Y-38394210D01*
X29330800Y-38548853D01*
X26450565Y-38548853D01*
X26446281Y-38532865D01*
X26370515Y-38401635D01*
X26263365Y-38294485D01*
X26183764Y-38248527D01*
X26132136Y-38218719D01*
X26050331Y-38196800D01*
X25985766Y-38179500D01*
X25834234Y-38179500D01*
X25687863Y-38218719D01*
X25556635Y-38294485D01*
X25556632Y-38294487D01*
X25449487Y-38401632D01*
X25449485Y-38401635D01*
X25373719Y-38532863D01*
X25338045Y-38666003D01*
X25334500Y-38679234D01*
X24167292Y-38679234D01*
X24044085Y-38596909D01*
X24044072Y-38596902D01*
X23898401Y-38536564D01*
X23898389Y-38536561D01*
X23743745Y-38505800D01*
X23743742Y-38505800D01*
X23586058Y-38505800D01*
X23586055Y-38505800D01*
X23431410Y-38536561D01*
X23431398Y-38536564D01*
X23285727Y-38596902D01*
X23285714Y-38596909D01*
X23154611Y-38684510D01*
X23154607Y-38684513D01*
X23043113Y-38796007D01*
X23043110Y-38796011D01*
X22955509Y-38927114D01*
X22955502Y-38927127D01*
X22895164Y-39072798D01*
X22895161Y-39072810D01*
X22864400Y-39227453D01*
X22864400Y-39385146D01*
X22886112Y-39494301D01*
X22879885Y-39563893D01*
X22867597Y-39587383D01*
X22794009Y-39697514D01*
X22794002Y-39697527D01*
X22733664Y-39843198D01*
X22733661Y-39843210D01*
X22702900Y-39997853D01*
X300500Y-39997853D01*
X300500Y-36673453D01*
X23025600Y-36673453D01*
X23025600Y-36831146D01*
X23056361Y-36985789D01*
X23056364Y-36985801D01*
X23116702Y-37131472D01*
X23116709Y-37131485D01*
X23204310Y-37262588D01*
X23204313Y-37262592D01*
X23315807Y-37374086D01*
X23315811Y-37374089D01*
X23446914Y-37461690D01*
X23446927Y-37461697D01*
X23592598Y-37522035D01*
X23592603Y-37522037D01*
X23747253Y-37552799D01*
X23747256Y-37552800D01*
X23747258Y-37552800D01*
X23904944Y-37552800D01*
X23904945Y-37552799D01*
X24059597Y-37522037D01*
X24205279Y-37461694D01*
X24336389Y-37374089D01*
X24447889Y-37262589D01*
X24535494Y-37131479D01*
X24595837Y-36985797D01*
X24626600Y-36831142D01*
X24626600Y-36673458D01*
X24626600Y-36673455D01*
X24626599Y-36673453D01*
X24605585Y-36567811D01*
X24595837Y-36518803D01*
X24592891Y-36511690D01*
X24535497Y-36373127D01*
X24535490Y-36373114D01*
X24447889Y-36242011D01*
X24447886Y-36242007D01*
X24336392Y-36130513D01*
X24336388Y-36130510D01*
X24296516Y-36103868D01*
X24205285Y-36042909D01*
X24205272Y-36042902D01*
X24118241Y-36006853D01*
X25549500Y-36006853D01*
X25549500Y-36164546D01*
X25580261Y-36319189D01*
X25580264Y-36319201D01*
X25640602Y-36464872D01*
X25640609Y-36464885D01*
X25728210Y-36595988D01*
X25728213Y-36595992D01*
X25839707Y-36707486D01*
X25839711Y-36707489D01*
X25970814Y-36795090D01*
X25970827Y-36795097D01*
X26090335Y-36844598D01*
X26116503Y-36855437D01*
X26255805Y-36883146D01*
X26271153Y-36886199D01*
X26271156Y-36886200D01*
X26271158Y-36886200D01*
X26428844Y-36886200D01*
X26428845Y-36886199D01*
X26583497Y-36855437D01*
X26729179Y-36795094D01*
X26860289Y-36707489D01*
X26971789Y-36595989D01*
X27059394Y-36464879D01*
X27102126Y-36361712D01*
X27145965Y-36307312D01*
X27212259Y-36285246D01*
X27279958Y-36302524D01*
X27327569Y-36353661D01*
X27331247Y-36361714D01*
X27393404Y-36511776D01*
X27393409Y-36511785D01*
X27481010Y-36642888D01*
X27481013Y-36642892D01*
X27592507Y-36754386D01*
X27592511Y-36754389D01*
X27723614Y-36841990D01*
X27723627Y-36841997D01*
X27869298Y-36902335D01*
X27869303Y-36902337D01*
X28023953Y-36933099D01*
X28023956Y-36933100D01*
X28023958Y-36933100D01*
X28181644Y-36933100D01*
X28181645Y-36933099D01*
X28336297Y-36902337D01*
X28449529Y-36855435D01*
X28481972Y-36841997D01*
X28481972Y-36841996D01*
X28481979Y-36841994D01*
X28613089Y-36754389D01*
X28724589Y-36642889D01*
X28812194Y-36511779D01*
X28854723Y-36409104D01*
X33047800Y-36409104D01*
X33047800Y-36586495D01*
X33082403Y-36760458D01*
X33082406Y-36760467D01*
X33150283Y-36924340D01*
X33150290Y-36924353D01*
X33248835Y-37071834D01*
X33248838Y-37071838D01*
X33374261Y-37197261D01*
X33374265Y-37197264D01*
X33521746Y-37295809D01*
X33521759Y-37295816D01*
X33644663Y-37346723D01*
X33685634Y-37363694D01*
X33685636Y-37363694D01*
X33685641Y-37363696D01*
X33859604Y-37398299D01*
X33859607Y-37398300D01*
X33859609Y-37398300D01*
X34036993Y-37398300D01*
X34036994Y-37398299D01*
X34094982Y-37386764D01*
X34210958Y-37363696D01*
X34210961Y-37363694D01*
X34210966Y-37363694D01*
X34374847Y-37295813D01*
X34522335Y-37197264D01*
X34647764Y-37071835D01*
X34696262Y-36999253D01*
X35485000Y-36999253D01*
X35485000Y-37156946D01*
X35515761Y-37311589D01*
X35515764Y-37311601D01*
X35576102Y-37457272D01*
X35576109Y-37457285D01*
X35663710Y-37588388D01*
X35663713Y-37588392D01*
X35775207Y-37699886D01*
X35775211Y-37699889D01*
X35906314Y-37787490D01*
X35906327Y-37787497D01*
X36002180Y-37827200D01*
X36052003Y-37847837D01*
X36206653Y-37878599D01*
X36206656Y-37878600D01*
X36206658Y-37878600D01*
X36364344Y-37878600D01*
X36364345Y-37878599D01*
X36518997Y-37847837D01*
X36664679Y-37787494D01*
X36795789Y-37699889D01*
X36907289Y-37588389D01*
X36994894Y-37457279D01*
X37055237Y-37311597D01*
X37064986Y-37262588D01*
X37073258Y-37221004D01*
X41869500Y-37221004D01*
X41869500Y-37398395D01*
X41904103Y-37572358D01*
X41904106Y-37572367D01*
X41971983Y-37736240D01*
X41971990Y-37736253D01*
X42070535Y-37883734D01*
X42070538Y-37883738D01*
X42195961Y-38009161D01*
X42195965Y-38009164D01*
X42343446Y-38107709D01*
X42343459Y-38107716D01*
X42466363Y-38158623D01*
X42507334Y-38175594D01*
X42507336Y-38175594D01*
X42507341Y-38175596D01*
X42681304Y-38210199D01*
X42681307Y-38210200D01*
X42681309Y-38210200D01*
X42858693Y-38210200D01*
X42858694Y-38210199D01*
X42959710Y-38190106D01*
X43032658Y-38175596D01*
X43032661Y-38175594D01*
X43032666Y-38175594D01*
X43196547Y-38107713D01*
X43344035Y-38009164D01*
X43469464Y-37883735D01*
X43568013Y-37736247D01*
X43635894Y-37572366D01*
X43644818Y-37527506D01*
X43670499Y-37398395D01*
X43670500Y-37398393D01*
X43670500Y-37221006D01*
X43670499Y-37221004D01*
X43635896Y-37047041D01*
X43635893Y-37047032D01*
X43568016Y-36883159D01*
X43568009Y-36883146D01*
X43469464Y-36735665D01*
X43469461Y-36735661D01*
X43344038Y-36610238D01*
X43344034Y-36610235D01*
X43196553Y-36511690D01*
X43196540Y-36511683D01*
X43032667Y-36443806D01*
X43032658Y-36443803D01*
X42858694Y-36409200D01*
X42858691Y-36409200D01*
X42681309Y-36409200D01*
X42681306Y-36409200D01*
X42507341Y-36443803D01*
X42507332Y-36443806D01*
X42343459Y-36511683D01*
X42343446Y-36511690D01*
X42195965Y-36610235D01*
X42195961Y-36610238D01*
X42070538Y-36735661D01*
X42070535Y-36735665D01*
X41971990Y-36883146D01*
X41971983Y-36883159D01*
X41904106Y-37047032D01*
X41904103Y-37047041D01*
X41869500Y-37221004D01*
X37073258Y-37221004D01*
X37079276Y-37190748D01*
X37079280Y-37190727D01*
X37086000Y-37156941D01*
X37086000Y-36999255D01*
X37085999Y-36999253D01*
X37072840Y-36933099D01*
X37055237Y-36844603D01*
X37034728Y-36795090D01*
X36994897Y-36698927D01*
X36994890Y-36698914D01*
X36907289Y-36567811D01*
X36907286Y-36567807D01*
X36795792Y-36456313D01*
X36795788Y-36456310D01*
X36664685Y-36368709D01*
X36664675Y-36368704D01*
X36630019Y-36354349D01*
X36575616Y-36310508D01*
X36553551Y-36244213D01*
X36570830Y-36176514D01*
X36621968Y-36128904D01*
X36653279Y-36118171D01*
X36661497Y-36116537D01*
X36807179Y-36056194D01*
X36938289Y-35968589D01*
X37030674Y-35876204D01*
X38758200Y-35876204D01*
X38758200Y-36053595D01*
X38792803Y-36227558D01*
X38792806Y-36227567D01*
X38860683Y-36391440D01*
X38860690Y-36391453D01*
X38959235Y-36538934D01*
X38959238Y-36538938D01*
X39084661Y-36664361D01*
X39084665Y-36664364D01*
X39232146Y-36762909D01*
X39232159Y-36762916D01*
X39355063Y-36813823D01*
X39396034Y-36830794D01*
X39396036Y-36830794D01*
X39396041Y-36830796D01*
X39570004Y-36865399D01*
X39570007Y-36865400D01*
X39570009Y-36865400D01*
X39747393Y-36865400D01*
X39747394Y-36865399D01*
X39805382Y-36853864D01*
X39921358Y-36830796D01*
X39921361Y-36830794D01*
X39921366Y-36830794D01*
X40085247Y-36762913D01*
X40232735Y-36664364D01*
X40358164Y-36538935D01*
X40456713Y-36391447D01*
X40524594Y-36227566D01*
X40527801Y-36211446D01*
X40554406Y-36077692D01*
X40559200Y-36053591D01*
X40559200Y-35876209D01*
X40559200Y-35876206D01*
X40559199Y-35876204D01*
X40524596Y-35702241D01*
X40524593Y-35702232D01*
X40456716Y-35538359D01*
X40456709Y-35538346D01*
X40358164Y-35390865D01*
X40358161Y-35390861D01*
X40232738Y-35265438D01*
X40232734Y-35265435D01*
X40085253Y-35166890D01*
X40085240Y-35166883D01*
X39921367Y-35099006D01*
X39921358Y-35099003D01*
X39747394Y-35064400D01*
X39747391Y-35064400D01*
X39570009Y-35064400D01*
X39570006Y-35064400D01*
X39396041Y-35099003D01*
X39396032Y-35099006D01*
X39232159Y-35166883D01*
X39232146Y-35166890D01*
X39084665Y-35265435D01*
X39084661Y-35265438D01*
X38959238Y-35390861D01*
X38959235Y-35390865D01*
X38860690Y-35538346D01*
X38860683Y-35538359D01*
X38792806Y-35702232D01*
X38792803Y-35702241D01*
X38758200Y-35876204D01*
X37030674Y-35876204D01*
X37049789Y-35857089D01*
X37087336Y-35800897D01*
X37137390Y-35725985D01*
X37137390Y-35725984D01*
X37137394Y-35725979D01*
X37197737Y-35580297D01*
X37228500Y-35425642D01*
X37228500Y-35267958D01*
X37228500Y-35267955D01*
X37228499Y-35267953D01*
X37208396Y-35166890D01*
X37197737Y-35113303D01*
X37161075Y-35024792D01*
X37137397Y-34967627D01*
X37137390Y-34967614D01*
X37049789Y-34836511D01*
X37049786Y-34836507D01*
X36938292Y-34725013D01*
X36938288Y-34725010D01*
X36807185Y-34637409D01*
X36807172Y-34637402D01*
X36661501Y-34577064D01*
X36661491Y-34577061D01*
X36531393Y-34551183D01*
X36531392Y-34551182D01*
X36506846Y-34546300D01*
X36506842Y-34546300D01*
X36349158Y-34546300D01*
X36349155Y-34546300D01*
X36194510Y-34577061D01*
X36194498Y-34577064D01*
X36048827Y-34637402D01*
X36048814Y-34637409D01*
X35917711Y-34725010D01*
X35917707Y-34725013D01*
X35806213Y-34836507D01*
X35806210Y-34836511D01*
X35718609Y-34967614D01*
X35718602Y-34967627D01*
X35658264Y-35113298D01*
X35658261Y-35113310D01*
X35627500Y-35267953D01*
X35627500Y-35425646D01*
X35658261Y-35580289D01*
X35658264Y-35580301D01*
X35718602Y-35725972D01*
X35718609Y-35725985D01*
X35806210Y-35857088D01*
X35806213Y-35857092D01*
X35917707Y-35968586D01*
X35917711Y-35968589D01*
X36048814Y-36056190D01*
X36048826Y-36056197D01*
X36083479Y-36070550D01*
X36137883Y-36114390D01*
X36159948Y-36180684D01*
X36142669Y-36248384D01*
X36091533Y-36295994D01*
X36060222Y-36306728D01*
X36052004Y-36308362D01*
X36051998Y-36308364D01*
X35906327Y-36368702D01*
X35906314Y-36368709D01*
X35775211Y-36456310D01*
X35775207Y-36456313D01*
X35663713Y-36567807D01*
X35663710Y-36567811D01*
X35576109Y-36698914D01*
X35576102Y-36698927D01*
X35515764Y-36844598D01*
X35515761Y-36844610D01*
X35485000Y-36999253D01*
X34696262Y-36999253D01*
X34746313Y-36924347D01*
X34814194Y-36760466D01*
X34815404Y-36754386D01*
X34848799Y-36586495D01*
X34848800Y-36586493D01*
X34848800Y-36409106D01*
X34848799Y-36409104D01*
X34814196Y-36235141D01*
X34814193Y-36235132D01*
X34804380Y-36211442D01*
X34784954Y-36164542D01*
X34746316Y-36071259D01*
X34746309Y-36071246D01*
X34647764Y-35923765D01*
X34647761Y-35923761D01*
X34522338Y-35798338D01*
X34522334Y-35798335D01*
X34374853Y-35699790D01*
X34374840Y-35699783D01*
X34210967Y-35631906D01*
X34210958Y-35631903D01*
X34036994Y-35597300D01*
X34036991Y-35597300D01*
X33859609Y-35597300D01*
X33859606Y-35597300D01*
X33685641Y-35631903D01*
X33685632Y-35631906D01*
X33521759Y-35699783D01*
X33521746Y-35699790D01*
X33374265Y-35798335D01*
X33374261Y-35798338D01*
X33248838Y-35923761D01*
X33248835Y-35923765D01*
X33150290Y-36071246D01*
X33150283Y-36071259D01*
X33082406Y-36235132D01*
X33082403Y-36235141D01*
X33047800Y-36409104D01*
X28854723Y-36409104D01*
X28872537Y-36366097D01*
X28903300Y-36211442D01*
X28903300Y-36053758D01*
X28903300Y-36053755D01*
X28903299Y-36053753D01*
X28893970Y-36006853D01*
X28872537Y-35899103D01*
X28855136Y-35857092D01*
X28812197Y-35753427D01*
X28812190Y-35753414D01*
X28724589Y-35622311D01*
X28724586Y-35622307D01*
X28613092Y-35510813D01*
X28613088Y-35510810D01*
X28579778Y-35488553D01*
X30532100Y-35488553D01*
X30532100Y-35646246D01*
X30562861Y-35800889D01*
X30562864Y-35800901D01*
X30623202Y-35946572D01*
X30623209Y-35946585D01*
X30710810Y-36077688D01*
X30710813Y-36077692D01*
X30822307Y-36189186D01*
X30822311Y-36189189D01*
X30953414Y-36276790D01*
X30953427Y-36276797D01*
X31055801Y-36319201D01*
X31099103Y-36337137D01*
X31244654Y-36366089D01*
X31253753Y-36367899D01*
X31253756Y-36367900D01*
X31253758Y-36367900D01*
X31411444Y-36367900D01*
X31411445Y-36367899D01*
X31566097Y-36337137D01*
X31711779Y-36276794D01*
X31842889Y-36189189D01*
X31954389Y-36077689D01*
X32041994Y-35946579D01*
X32102337Y-35800897D01*
X32133100Y-35646242D01*
X32133100Y-35527577D01*
X32475975Y-35527577D01*
X32581236Y-35571178D01*
X32581240Y-35571179D01*
X32726126Y-35599999D01*
X32726129Y-35600000D01*
X32873871Y-35600000D01*
X32873873Y-35599999D01*
X33018760Y-35571179D01*
X33018775Y-35571175D01*
X33124024Y-35527578D01*
X33124024Y-35527577D01*
X32800001Y-35203554D01*
X32800000Y-35203554D01*
X32475975Y-35527577D01*
X32133100Y-35527577D01*
X32133100Y-35488558D01*
X32133100Y-35488555D01*
X32133099Y-35488553D01*
X32120586Y-35425646D01*
X32102337Y-35333903D01*
X32093097Y-35311597D01*
X32085630Y-35242129D01*
X32116906Y-35179650D01*
X32119979Y-35176466D01*
X32446446Y-34850000D01*
X32446446Y-34849999D01*
X32426556Y-34830109D01*
X32700000Y-34830109D01*
X32700000Y-34869891D01*
X32715224Y-34906645D01*
X32743355Y-34934776D01*
X32780109Y-34950000D01*
X32819891Y-34950000D01*
X32856645Y-34934776D01*
X32884776Y-34906645D01*
X32900000Y-34869891D01*
X32900000Y-34849999D01*
X33153554Y-34849999D01*
X33153554Y-34850001D01*
X33477577Y-35174024D01*
X33477578Y-35174024D01*
X33521175Y-35068775D01*
X33521179Y-35068760D01*
X33549999Y-34923873D01*
X33550000Y-34923871D01*
X33550000Y-34776128D01*
X33549999Y-34776126D01*
X33521179Y-34631240D01*
X33521178Y-34631236D01*
X33477577Y-34525975D01*
X33153554Y-34849999D01*
X32900000Y-34849999D01*
X32900000Y-34830109D01*
X32884776Y-34793355D01*
X32856645Y-34765224D01*
X32819891Y-34750000D01*
X32780109Y-34750000D01*
X32743355Y-34765224D01*
X32715224Y-34793355D01*
X32700000Y-34830109D01*
X32426556Y-34830109D01*
X32122421Y-34525974D01*
X32122420Y-34525974D01*
X32078823Y-34631228D01*
X32078820Y-34631240D01*
X32050000Y-34776126D01*
X32050000Y-34853406D01*
X32030315Y-34920445D01*
X31977511Y-34966200D01*
X31908353Y-34976144D01*
X31847337Y-34949261D01*
X31842888Y-34945610D01*
X31711785Y-34858009D01*
X31711772Y-34858002D01*
X31566101Y-34797664D01*
X31566089Y-34797661D01*
X31411445Y-34766900D01*
X31411442Y-34766900D01*
X31253758Y-34766900D01*
X31253755Y-34766900D01*
X31099110Y-34797661D01*
X31099098Y-34797664D01*
X30953427Y-34858002D01*
X30953414Y-34858009D01*
X30822311Y-34945610D01*
X30822307Y-34945613D01*
X30710813Y-35057107D01*
X30710810Y-35057111D01*
X30623209Y-35188214D01*
X30623202Y-35188227D01*
X30562864Y-35333898D01*
X30562861Y-35333910D01*
X30532100Y-35488553D01*
X28579778Y-35488553D01*
X28481985Y-35423209D01*
X28481972Y-35423202D01*
X28336301Y-35362864D01*
X28336289Y-35362861D01*
X28181645Y-35332100D01*
X28181642Y-35332100D01*
X28023958Y-35332100D01*
X28023955Y-35332100D01*
X27869310Y-35362861D01*
X27869298Y-35362864D01*
X27723627Y-35423202D01*
X27723614Y-35423209D01*
X27592511Y-35510810D01*
X27592507Y-35510813D01*
X27481013Y-35622307D01*
X27481010Y-35622311D01*
X27393409Y-35753414D01*
X27393404Y-35753423D01*
X27350674Y-35856585D01*
X27306833Y-35910988D01*
X27240539Y-35933053D01*
X27172840Y-35915774D01*
X27125229Y-35864637D01*
X27121552Y-35856584D01*
X27059397Y-35706527D01*
X27059390Y-35706514D01*
X26971789Y-35575411D01*
X26971786Y-35575407D01*
X26860292Y-35463913D01*
X26860288Y-35463910D01*
X26729185Y-35376309D01*
X26729172Y-35376302D01*
X26583501Y-35315964D01*
X26583489Y-35315961D01*
X26428845Y-35285200D01*
X26428842Y-35285200D01*
X26271158Y-35285200D01*
X26271155Y-35285200D01*
X26116510Y-35315961D01*
X26116498Y-35315964D01*
X25970827Y-35376302D01*
X25970814Y-35376309D01*
X25839711Y-35463910D01*
X25839707Y-35463913D01*
X25728213Y-35575407D01*
X25728210Y-35575411D01*
X25640609Y-35706514D01*
X25640602Y-35706527D01*
X25580264Y-35852198D01*
X25580261Y-35852210D01*
X25549500Y-36006853D01*
X24118241Y-36006853D01*
X24059601Y-35982564D01*
X24059589Y-35982561D01*
X23904945Y-35951800D01*
X23904942Y-35951800D01*
X23747258Y-35951800D01*
X23747255Y-35951800D01*
X23592610Y-35982561D01*
X23592598Y-35982564D01*
X23446927Y-36042902D01*
X23446914Y-36042909D01*
X23315811Y-36130510D01*
X23315807Y-36130513D01*
X23204313Y-36242007D01*
X23204310Y-36242011D01*
X23116709Y-36373114D01*
X23116702Y-36373127D01*
X23056364Y-36518798D01*
X23056361Y-36518810D01*
X23025600Y-36673453D01*
X300500Y-36673453D01*
X300500Y-33939953D01*
X18611600Y-33939953D01*
X18611600Y-34097646D01*
X18642361Y-34252289D01*
X18642364Y-34252301D01*
X18702702Y-34397972D01*
X18702709Y-34397985D01*
X18790310Y-34529088D01*
X18790313Y-34529092D01*
X18901807Y-34640586D01*
X18901811Y-34640589D01*
X19032914Y-34728190D01*
X19032927Y-34728197D01*
X19178598Y-34788535D01*
X19178603Y-34788537D01*
X19333253Y-34819299D01*
X19333256Y-34819300D01*
X19333258Y-34819300D01*
X19490944Y-34819300D01*
X19490945Y-34819299D01*
X19645597Y-34788537D01*
X19791279Y-34728194D01*
X19922389Y-34640589D01*
X20033889Y-34529089D01*
X20121494Y-34397979D01*
X20181837Y-34252297D01*
X20212600Y-34097642D01*
X20212600Y-33939958D01*
X20212600Y-33939955D01*
X20212599Y-33939953D01*
X20203202Y-33892710D01*
X20181837Y-33785303D01*
X20179431Y-33779495D01*
X20121497Y-33639627D01*
X20121490Y-33639614D01*
X20033889Y-33508511D01*
X20033886Y-33508507D01*
X19922392Y-33397013D01*
X19922388Y-33397010D01*
X19791285Y-33309409D01*
X19791272Y-33309402D01*
X19645601Y-33249064D01*
X19645589Y-33249061D01*
X19490945Y-33218300D01*
X19490942Y-33218300D01*
X19333258Y-33218300D01*
X19333255Y-33218300D01*
X19178610Y-33249061D01*
X19178598Y-33249064D01*
X19032927Y-33309402D01*
X19032914Y-33309409D01*
X18901811Y-33397010D01*
X18901807Y-33397013D01*
X18790313Y-33508507D01*
X18790310Y-33508511D01*
X18702709Y-33639614D01*
X18702702Y-33639627D01*
X18642364Y-33785298D01*
X18642361Y-33785310D01*
X18611600Y-33939953D01*
X300500Y-33939953D01*
X300500Y-31421153D01*
X3989500Y-31421153D01*
X3989500Y-31578846D01*
X4020261Y-31733489D01*
X4020264Y-31733501D01*
X4080602Y-31879172D01*
X4080609Y-31879185D01*
X4168210Y-32010288D01*
X4168213Y-32010292D01*
X4279707Y-32121786D01*
X4279711Y-32121789D01*
X4410814Y-32209390D01*
X4410827Y-32209397D01*
X4556498Y-32269735D01*
X4556503Y-32269737D01*
X4711153Y-32300499D01*
X4711156Y-32300500D01*
X4711158Y-32300500D01*
X4868844Y-32300500D01*
X4868845Y-32300499D01*
X5023497Y-32269737D01*
X5169179Y-32209394D01*
X5300289Y-32121789D01*
X5411789Y-32010289D01*
X5499394Y-31879179D01*
X5503407Y-31869492D01*
X5545490Y-31767893D01*
X5559737Y-31733497D01*
X5572138Y-31671153D01*
X6524500Y-31671153D01*
X6524500Y-31828846D01*
X6555261Y-31983489D01*
X6555264Y-31983501D01*
X6615602Y-32129172D01*
X6615609Y-32129185D01*
X6703210Y-32260288D01*
X6703213Y-32260292D01*
X6814707Y-32371786D01*
X6814711Y-32371789D01*
X6945814Y-32459390D01*
X6945827Y-32459397D01*
X7091498Y-32519735D01*
X7091503Y-32519737D01*
X7230186Y-32547323D01*
X7246153Y-32550499D01*
X7246156Y-32550500D01*
X7246158Y-32550500D01*
X7403844Y-32550500D01*
X7403845Y-32550499D01*
X7558497Y-32519737D01*
X7704179Y-32459394D01*
X7835289Y-32371789D01*
X7946789Y-32260289D01*
X8034394Y-32129179D01*
X8094737Y-31983497D01*
X8125500Y-31828842D01*
X8125500Y-31671158D01*
X8125500Y-31671155D01*
X8125499Y-31671153D01*
X8105722Y-31571728D01*
X8094737Y-31516503D01*
X8066528Y-31448399D01*
X8034397Y-31370827D01*
X8034395Y-31370823D01*
X8034394Y-31370821D01*
X7974911Y-31281798D01*
X7946789Y-31239710D01*
X7942732Y-31235653D01*
X16884100Y-31235653D01*
X16884100Y-31393346D01*
X16914861Y-31547989D01*
X16914864Y-31548001D01*
X16975202Y-31693672D01*
X16975209Y-31693685D01*
X17062810Y-31824788D01*
X17062813Y-31824792D01*
X17174307Y-31936286D01*
X17174311Y-31936289D01*
X17305414Y-32023890D01*
X17305427Y-32023897D01*
X17451098Y-32084235D01*
X17451103Y-32084237D01*
X17559271Y-32105753D01*
X17605753Y-32114999D01*
X17605756Y-32115000D01*
X17605758Y-32115000D01*
X17763444Y-32115000D01*
X17763445Y-32114999D01*
X17918097Y-32084237D01*
X18063779Y-32023894D01*
X18194889Y-31936289D01*
X18306389Y-31824789D01*
X18393994Y-31693679D01*
X18436730Y-31590504D01*
X20291100Y-31590504D01*
X20291100Y-31767895D01*
X20325703Y-31941858D01*
X20325706Y-31941867D01*
X20393583Y-32105740D01*
X20393590Y-32105753D01*
X20492135Y-32253234D01*
X20492138Y-32253238D01*
X20617561Y-32378661D01*
X20617565Y-32378664D01*
X20765046Y-32477209D01*
X20765059Y-32477216D01*
X20878515Y-32524210D01*
X20928934Y-32545094D01*
X20928936Y-32545094D01*
X20928941Y-32545096D01*
X21102904Y-32579699D01*
X21102907Y-32579700D01*
X21204374Y-32579700D01*
X21271413Y-32599385D01*
X21317168Y-32652189D01*
X21327112Y-32721347D01*
X21298087Y-32784903D01*
X21239309Y-32822677D01*
X21232322Y-32824394D01*
X21230632Y-32824906D01*
X21066759Y-32892783D01*
X21066746Y-32892790D01*
X20919265Y-32991335D01*
X20919261Y-32991338D01*
X20793838Y-33116761D01*
X20793835Y-33116765D01*
X20695290Y-33264246D01*
X20695283Y-33264259D01*
X20627406Y-33428132D01*
X20627403Y-33428141D01*
X20592800Y-33602104D01*
X20592800Y-33779495D01*
X20627403Y-33953458D01*
X20627406Y-33953467D01*
X20695283Y-34117340D01*
X20695290Y-34117353D01*
X20793835Y-34264834D01*
X20793838Y-34264838D01*
X20919261Y-34390261D01*
X20919265Y-34390264D01*
X21066746Y-34488809D01*
X21066759Y-34488816D01*
X21163989Y-34529089D01*
X21230634Y-34556694D01*
X21230636Y-34556694D01*
X21230641Y-34556696D01*
X21404604Y-34591299D01*
X21404607Y-34591300D01*
X21404609Y-34591300D01*
X21581993Y-34591300D01*
X21581994Y-34591299D01*
X21653575Y-34577061D01*
X21755958Y-34556696D01*
X21755961Y-34556694D01*
X21755966Y-34556694D01*
X21919847Y-34488813D01*
X22067335Y-34390264D01*
X22157599Y-34300000D01*
X32603554Y-34300000D01*
X32800000Y-34496446D01*
X32860793Y-34435653D01*
X37378200Y-34435653D01*
X37378200Y-34593346D01*
X37408961Y-34747989D01*
X37408964Y-34748001D01*
X37469302Y-34893672D01*
X37469309Y-34893685D01*
X37556910Y-35024788D01*
X37556913Y-35024792D01*
X37668407Y-35136286D01*
X37668411Y-35136289D01*
X37799514Y-35223890D01*
X37799527Y-35223897D01*
X37945198Y-35284235D01*
X37945203Y-35284237D01*
X38082755Y-35311598D01*
X38099853Y-35314999D01*
X38099856Y-35315000D01*
X38099858Y-35315000D01*
X38257544Y-35315000D01*
X38257545Y-35314999D01*
X38412197Y-35284237D01*
X38557879Y-35223894D01*
X38688989Y-35136289D01*
X38800489Y-35024789D01*
X38832615Y-34976709D01*
X38886226Y-34931904D01*
X38935717Y-34921600D01*
X38956744Y-34921600D01*
X38956745Y-34921599D01*
X39111397Y-34890837D01*
X39257079Y-34830494D01*
X39388189Y-34742889D01*
X39499689Y-34631389D01*
X39587294Y-34500279D01*
X39647637Y-34354597D01*
X39663700Y-34273839D01*
X39696084Y-34211931D01*
X39756800Y-34177357D01*
X39826569Y-34181096D01*
X39854207Y-34194930D01*
X39890816Y-34219391D01*
X39890827Y-34219397D01*
X40036498Y-34279735D01*
X40036503Y-34279737D01*
X40191153Y-34310499D01*
X40191156Y-34310500D01*
X40191158Y-34310500D01*
X40348844Y-34310500D01*
X40348845Y-34310499D01*
X40503497Y-34279737D01*
X40649179Y-34219394D01*
X40780289Y-34131789D01*
X40891789Y-34020289D01*
X40979394Y-33889179D01*
X41039737Y-33743497D01*
X41070500Y-33588842D01*
X41070500Y-33431158D01*
X41070500Y-33431155D01*
X41070499Y-33431153D01*
X41054628Y-33351364D01*
X41039737Y-33276503D01*
X41039735Y-33276498D01*
X40979397Y-33130827D01*
X40979390Y-33130814D01*
X40891789Y-32999711D01*
X40891786Y-32999707D01*
X40780292Y-32888213D01*
X40780288Y-32888210D01*
X40649185Y-32800609D01*
X40649172Y-32800602D01*
X40503501Y-32740264D01*
X40503489Y-32740261D01*
X40348845Y-32709500D01*
X40348842Y-32709500D01*
X40191158Y-32709500D01*
X40191155Y-32709500D01*
X40036510Y-32740261D01*
X40036498Y-32740264D01*
X39890827Y-32800602D01*
X39890814Y-32800609D01*
X39759711Y-32888210D01*
X39759707Y-32888213D01*
X39648213Y-32999707D01*
X39648210Y-32999711D01*
X39560609Y-33130814D01*
X39560602Y-33130827D01*
X39500264Y-33276498D01*
X39500261Y-33276508D01*
X39484199Y-33357258D01*
X39451814Y-33419169D01*
X39391098Y-33453743D01*
X39321328Y-33450002D01*
X39293692Y-33436169D01*
X39257083Y-33411708D01*
X39257072Y-33411702D01*
X39111401Y-33351364D01*
X39111389Y-33351361D01*
X38956745Y-33320600D01*
X38956742Y-33320600D01*
X38799058Y-33320600D01*
X38799055Y-33320600D01*
X38644410Y-33351361D01*
X38644398Y-33351364D01*
X38498727Y-33411702D01*
X38498714Y-33411709D01*
X38367611Y-33499310D01*
X38367607Y-33499313D01*
X38256112Y-33610808D01*
X38248243Y-33622586D01*
X38223984Y-33658890D01*
X38170374Y-33703696D01*
X38120883Y-33714000D01*
X38099855Y-33714000D01*
X37945210Y-33744761D01*
X37945198Y-33744764D01*
X37799527Y-33805102D01*
X37799514Y-33805109D01*
X37668411Y-33892710D01*
X37668407Y-33892713D01*
X37556913Y-34004207D01*
X37556910Y-34004211D01*
X37469309Y-34135314D01*
X37469302Y-34135327D01*
X37408964Y-34280998D01*
X37408961Y-34281010D01*
X37378200Y-34435653D01*
X32860793Y-34435653D01*
X32996446Y-34300000D01*
X32800000Y-34103554D01*
X32603554Y-34300000D01*
X22157599Y-34300000D01*
X22192764Y-34264835D01*
X22291313Y-34117347D01*
X22359194Y-33953466D01*
X22371981Y-33889185D01*
X22388706Y-33805102D01*
X22393800Y-33779491D01*
X22393800Y-33602109D01*
X22393800Y-33602106D01*
X22393799Y-33602104D01*
X22359196Y-33428141D01*
X22359193Y-33428132D01*
X22355480Y-33419169D01*
X22327394Y-33351361D01*
X22291316Y-33264259D01*
X22291309Y-33264246D01*
X22192764Y-33116765D01*
X22192761Y-33116761D01*
X22067338Y-32991338D01*
X22067334Y-32991335D01*
X21919853Y-32892790D01*
X21919840Y-32892783D01*
X21755967Y-32824906D01*
X21755958Y-32824903D01*
X21581994Y-32790300D01*
X21581991Y-32790300D01*
X21480526Y-32790300D01*
X21413487Y-32770615D01*
X21367732Y-32717811D01*
X21357788Y-32648653D01*
X21386813Y-32585097D01*
X21445591Y-32547323D01*
X21452577Y-32545605D01*
X21454259Y-32545095D01*
X21454266Y-32545094D01*
X21618147Y-32477213D01*
X21765635Y-32378664D01*
X21891064Y-32253235D01*
X21989613Y-32105747D01*
X21996163Y-32089935D01*
X22012633Y-32050172D01*
X22057494Y-31941866D01*
X22058604Y-31936289D01*
X22092099Y-31767895D01*
X22092100Y-31767893D01*
X22092100Y-31590506D01*
X22092099Y-31590504D01*
X22057496Y-31416541D01*
X22057493Y-31416532D01*
X22056358Y-31413793D01*
X22028977Y-31347688D01*
X21989616Y-31252659D01*
X21989609Y-31252646D01*
X21891064Y-31105165D01*
X21891061Y-31105161D01*
X21765638Y-30979738D01*
X21765634Y-30979735D01*
X21618153Y-30881190D01*
X21618140Y-30881183D01*
X21454267Y-30813306D01*
X21454258Y-30813303D01*
X21280294Y-30778700D01*
X21280291Y-30778700D01*
X21102909Y-30778700D01*
X21102906Y-30778700D01*
X20928941Y-30813303D01*
X20928932Y-30813306D01*
X20765059Y-30881183D01*
X20765046Y-30881190D01*
X20617565Y-30979735D01*
X20617561Y-30979738D01*
X20492138Y-31105161D01*
X20492135Y-31105165D01*
X20393590Y-31252646D01*
X20393583Y-31252659D01*
X20325706Y-31416532D01*
X20325703Y-31416541D01*
X20291100Y-31590504D01*
X18436730Y-31590504D01*
X18454337Y-31547997D01*
X18485100Y-31393342D01*
X18485100Y-31235658D01*
X18485100Y-31235655D01*
X18485099Y-31235653D01*
X18478283Y-31201388D01*
X18454337Y-31081003D01*
X18450561Y-31071887D01*
X18393997Y-30935327D01*
X18393990Y-30935314D01*
X18306389Y-30804211D01*
X18306386Y-30804207D01*
X18194892Y-30692713D01*
X18194888Y-30692710D01*
X18063785Y-30605109D01*
X18063772Y-30605102D01*
X17918101Y-30544764D01*
X17918089Y-30544761D01*
X17763445Y-30514000D01*
X17763442Y-30514000D01*
X17605758Y-30514000D01*
X17605755Y-30514000D01*
X17451110Y-30544761D01*
X17451098Y-30544764D01*
X17305427Y-30605102D01*
X17305414Y-30605109D01*
X17174311Y-30692710D01*
X17174307Y-30692713D01*
X17062813Y-30804207D01*
X17062810Y-30804211D01*
X16975209Y-30935314D01*
X16975202Y-30935327D01*
X16914864Y-31080998D01*
X16914861Y-31081010D01*
X16884100Y-31235653D01*
X7942732Y-31235653D01*
X7835292Y-31128213D01*
X7835288Y-31128210D01*
X7704185Y-31040609D01*
X7704172Y-31040602D01*
X7558501Y-30980264D01*
X7558489Y-30980261D01*
X7403845Y-30949500D01*
X7403842Y-30949500D01*
X7246158Y-30949500D01*
X7246155Y-30949500D01*
X7091510Y-30980261D01*
X7091498Y-30980264D01*
X6945827Y-31040602D01*
X6945814Y-31040609D01*
X6814711Y-31128210D01*
X6814707Y-31128213D01*
X6703213Y-31239707D01*
X6703210Y-31239711D01*
X6615609Y-31370814D01*
X6615602Y-31370827D01*
X6555264Y-31516498D01*
X6555261Y-31516510D01*
X6524500Y-31671153D01*
X5572138Y-31671153D01*
X5585960Y-31601668D01*
X5590500Y-31578844D01*
X5590500Y-31421155D01*
X5590499Y-31421153D01*
X5580486Y-31370814D01*
X5559737Y-31266503D01*
X5533778Y-31203833D01*
X5526310Y-31134367D01*
X5557585Y-31071887D01*
X5600883Y-31041824D01*
X5679179Y-31009394D01*
X5810289Y-30921789D01*
X5921789Y-30810289D01*
X6009394Y-30679179D01*
X6016072Y-30663058D01*
X6037115Y-30612253D01*
X6069737Y-30533497D01*
X6100500Y-30378842D01*
X6100500Y-30250353D01*
X22901000Y-30250353D01*
X22901000Y-30408046D01*
X22931761Y-30562689D01*
X22931764Y-30562701D01*
X22992102Y-30708372D01*
X22992109Y-30708385D01*
X23079710Y-30839488D01*
X23079713Y-30839492D01*
X23191207Y-30950986D01*
X23191211Y-30950989D01*
X23322314Y-31038590D01*
X23322327Y-31038597D01*
X23438455Y-31086698D01*
X23468003Y-31098937D01*
X23622653Y-31129699D01*
X23622656Y-31129700D01*
X23622658Y-31129700D01*
X23780344Y-31129700D01*
X23780345Y-31129699D01*
X23934997Y-31098937D01*
X24072888Y-31041821D01*
X24080672Y-31038597D01*
X24080672Y-31038596D01*
X24080679Y-31038594D01*
X24211789Y-30950989D01*
X24323289Y-30839489D01*
X24410894Y-30708379D01*
X24471237Y-30562697D01*
X24502000Y-30408042D01*
X24502000Y-30311704D01*
X25545700Y-30311704D01*
X25545700Y-30489095D01*
X25580303Y-30663058D01*
X25580306Y-30663067D01*
X25648183Y-30826940D01*
X25648190Y-30826953D01*
X25738978Y-30962826D01*
X25759856Y-31029504D01*
X25750438Y-31079167D01*
X25731163Y-31125702D01*
X25731160Y-31125711D01*
X25700400Y-31280353D01*
X25700400Y-31438046D01*
X25731161Y-31592689D01*
X25731164Y-31592701D01*
X25791502Y-31738372D01*
X25791509Y-31738385D01*
X25879110Y-31869488D01*
X25879113Y-31869492D01*
X25990607Y-31980986D01*
X25990611Y-31980989D01*
X26121714Y-32068590D01*
X26121726Y-32068597D01*
X26211400Y-32105740D01*
X26244174Y-32119315D01*
X26298578Y-32163155D01*
X26320643Y-32229449D01*
X26303364Y-32297149D01*
X26252227Y-32344759D01*
X26220914Y-32355493D01*
X26116508Y-32376261D01*
X26116498Y-32376264D01*
X25970827Y-32436602D01*
X25970814Y-32436609D01*
X25839711Y-32524210D01*
X25839707Y-32524213D01*
X25728213Y-32635707D01*
X25728210Y-32635711D01*
X25640609Y-32766814D01*
X25640602Y-32766827D01*
X25580264Y-32912498D01*
X25580261Y-32912510D01*
X25549500Y-33067153D01*
X25549500Y-33224846D01*
X25580261Y-33379489D01*
X25580264Y-33379501D01*
X25640602Y-33525172D01*
X25640609Y-33525185D01*
X25728210Y-33656288D01*
X25728213Y-33656292D01*
X25839707Y-33767786D01*
X25839711Y-33767789D01*
X25970814Y-33855390D01*
X25970827Y-33855397D01*
X26116498Y-33915735D01*
X26116503Y-33915737D01*
X26271153Y-33946499D01*
X26271156Y-33946500D01*
X26271158Y-33946500D01*
X26428844Y-33946500D01*
X26428845Y-33946499D01*
X26583497Y-33915737D01*
X26729179Y-33855394D01*
X26860289Y-33767789D01*
X26971789Y-33656289D01*
X27059394Y-33525179D01*
X27119737Y-33379497D01*
X27125334Y-33351361D01*
X27137569Y-33289853D01*
X28043900Y-33289853D01*
X28043900Y-33447546D01*
X28074661Y-33602189D01*
X28074664Y-33602201D01*
X28135002Y-33747872D01*
X28135009Y-33747885D01*
X28222610Y-33878988D01*
X28222613Y-33878992D01*
X28334107Y-33990486D01*
X28334111Y-33990489D01*
X28465214Y-34078090D01*
X28465227Y-34078097D01*
X28603363Y-34135314D01*
X28610903Y-34138437D01*
X28765553Y-34169199D01*
X28765556Y-34169200D01*
X28765558Y-34169200D01*
X28923244Y-34169200D01*
X28923245Y-34169199D01*
X29077897Y-34138437D01*
X29223579Y-34078094D01*
X29354689Y-33990489D01*
X29466189Y-33878989D01*
X29553794Y-33747879D01*
X29583515Y-33676126D01*
X32050000Y-33676126D01*
X32050000Y-33823873D01*
X32078820Y-33968759D01*
X32078822Y-33968767D01*
X32122421Y-34074024D01*
X32446446Y-33750000D01*
X32446446Y-33749999D01*
X32426556Y-33730109D01*
X32700000Y-33730109D01*
X32700000Y-33769891D01*
X32715224Y-33806645D01*
X32743355Y-33834776D01*
X32780109Y-33850000D01*
X32819891Y-33850000D01*
X32856645Y-33834776D01*
X32884776Y-33806645D01*
X32900000Y-33769891D01*
X32900000Y-33749999D01*
X33153554Y-33749999D01*
X33153554Y-33750001D01*
X33477577Y-34074024D01*
X33477578Y-34074024D01*
X33521175Y-33968775D01*
X33521179Y-33968760D01*
X33549999Y-33823873D01*
X33550000Y-33823871D01*
X33550000Y-33676128D01*
X33549999Y-33676126D01*
X33521179Y-33531240D01*
X33521178Y-33531236D01*
X33477577Y-33425975D01*
X33153554Y-33749999D01*
X32900000Y-33749999D01*
X32900000Y-33730109D01*
X32884776Y-33693355D01*
X32856645Y-33665224D01*
X32819891Y-33650000D01*
X32780109Y-33650000D01*
X32743355Y-33665224D01*
X32715224Y-33693355D01*
X32700000Y-33730109D01*
X32426556Y-33730109D01*
X32122421Y-33425974D01*
X32122420Y-33425974D01*
X32078823Y-33531228D01*
X32078820Y-33531240D01*
X32050000Y-33676126D01*
X29583515Y-33676126D01*
X29598636Y-33639621D01*
X29605692Y-33622586D01*
X29610570Y-33610808D01*
X29614137Y-33602197D01*
X29644900Y-33447542D01*
X29644900Y-33289858D01*
X29644900Y-33289855D01*
X29644899Y-33289853D01*
X29614580Y-33137427D01*
X29614138Y-33135207D01*
X29614135Y-33135198D01*
X29588132Y-33072420D01*
X32475974Y-33072420D01*
X32475974Y-33072421D01*
X32800000Y-33396446D01*
X32800001Y-33396446D01*
X33124024Y-33072421D01*
X33018767Y-33028822D01*
X33018759Y-33028820D01*
X32873872Y-33000000D01*
X32726128Y-33000000D01*
X32581240Y-33028820D01*
X32581228Y-33028823D01*
X32475974Y-33072420D01*
X29588132Y-33072420D01*
X29553797Y-32989527D01*
X29553790Y-32989514D01*
X29466189Y-32858411D01*
X29466186Y-32858407D01*
X29354692Y-32746913D01*
X29354688Y-32746910D01*
X29223585Y-32659309D01*
X29223572Y-32659302D01*
X29077901Y-32598964D01*
X29077889Y-32598961D01*
X28923245Y-32568200D01*
X28923242Y-32568200D01*
X28765558Y-32568200D01*
X28765555Y-32568200D01*
X28610910Y-32598961D01*
X28610898Y-32598964D01*
X28465227Y-32659302D01*
X28465214Y-32659309D01*
X28334111Y-32746910D01*
X28334107Y-32746913D01*
X28222613Y-32858407D01*
X28222610Y-32858411D01*
X28135009Y-32989514D01*
X28135002Y-32989527D01*
X28074664Y-33135198D01*
X28074661Y-33135210D01*
X28043900Y-33289853D01*
X27137569Y-33289853D01*
X27143592Y-33259574D01*
X27143592Y-33259573D01*
X27150499Y-33224846D01*
X27150500Y-33224844D01*
X27150500Y-33067155D01*
X27150499Y-33067153D01*
X27135057Y-32989521D01*
X27119737Y-32912503D01*
X27111572Y-32892790D01*
X27059397Y-32766827D01*
X27059390Y-32766814D01*
X26971789Y-32635711D01*
X26971786Y-32635707D01*
X26860292Y-32524213D01*
X26860288Y-32524210D01*
X26729185Y-32436609D01*
X26729172Y-32436602D01*
X26606725Y-32385884D01*
X26552321Y-32342043D01*
X26530256Y-32275749D01*
X26547535Y-32208050D01*
X26598672Y-32160439D01*
X26629986Y-32149706D01*
X26658343Y-32144065D01*
X26734397Y-32128937D01*
X26847066Y-32082267D01*
X26880072Y-32068597D01*
X26880072Y-32068596D01*
X26880079Y-32068594D01*
X27011189Y-31980989D01*
X27122689Y-31869489D01*
X27210294Y-31738379D01*
X27212320Y-31733489D01*
X27250681Y-31640875D01*
X27270637Y-31592697D01*
X27270745Y-31592153D01*
X33760100Y-31592153D01*
X33760100Y-31749846D01*
X33790861Y-31904489D01*
X33790864Y-31904501D01*
X33851202Y-32050172D01*
X33851209Y-32050185D01*
X33938810Y-32181288D01*
X33938813Y-32181292D01*
X34050307Y-32292786D01*
X34050311Y-32292789D01*
X34181414Y-32380390D01*
X34181427Y-32380397D01*
X34317120Y-32436602D01*
X34327103Y-32440737D01*
X34420913Y-32459397D01*
X34481753Y-32471499D01*
X34481756Y-32471500D01*
X34481758Y-32471500D01*
X34639444Y-32471500D01*
X34639445Y-32471499D01*
X34794097Y-32440737D01*
X34939779Y-32380394D01*
X35070889Y-32292789D01*
X35182389Y-32181289D01*
X35269994Y-32050179D01*
X35330337Y-31904497D01*
X35361100Y-31749842D01*
X35361100Y-31684522D01*
X35380785Y-31617483D01*
X35433589Y-31571728D01*
X35437648Y-31569961D01*
X35493579Y-31546794D01*
X35624689Y-31459189D01*
X35736189Y-31347689D01*
X35744456Y-31335315D01*
X35798066Y-31290508D01*
X35867391Y-31281798D01*
X35926168Y-31309916D01*
X35926901Y-31309024D01*
X35931611Y-31312889D01*
X36062714Y-31400490D01*
X36062727Y-31400497D01*
X36178377Y-31448400D01*
X36208403Y-31460837D01*
X36363053Y-31491599D01*
X36363056Y-31491600D01*
X36363058Y-31491600D01*
X36520744Y-31491600D01*
X36520745Y-31491599D01*
X36675397Y-31460837D01*
X36821079Y-31400494D01*
X36952189Y-31312889D01*
X37023725Y-31241353D01*
X37499700Y-31241353D01*
X37499700Y-31399046D01*
X37530461Y-31553689D01*
X37530464Y-31553701D01*
X37590802Y-31699372D01*
X37590809Y-31699385D01*
X37678410Y-31830488D01*
X37678413Y-31830492D01*
X37789907Y-31941986D01*
X37789911Y-31941989D01*
X37921014Y-32029590D01*
X37921027Y-32029597D01*
X38052937Y-32084235D01*
X38066703Y-32089937D01*
X38214395Y-32119315D01*
X38221353Y-32120699D01*
X38221356Y-32120700D01*
X38221358Y-32120700D01*
X38379044Y-32120700D01*
X38379045Y-32120699D01*
X38533697Y-32089937D01*
X38674486Y-32031620D01*
X38743952Y-32024152D01*
X38806432Y-32055427D01*
X38825038Y-32077291D01*
X38884535Y-32166334D01*
X38884538Y-32166338D01*
X39009961Y-32291761D01*
X39009965Y-32291764D01*
X39157446Y-32390309D01*
X39157459Y-32390316D01*
X39269206Y-32436602D01*
X39321334Y-32458194D01*
X39321336Y-32458194D01*
X39321341Y-32458196D01*
X39495304Y-32492799D01*
X39495307Y-32492800D01*
X39495309Y-32492800D01*
X39672693Y-32492800D01*
X39672694Y-32492799D01*
X39751072Y-32477209D01*
X39846658Y-32458196D01*
X39846661Y-32458194D01*
X39846666Y-32458194D01*
X40010547Y-32390313D01*
X40158035Y-32291764D01*
X40283464Y-32166335D01*
X40382013Y-32018847D01*
X40449894Y-31854966D01*
X40454763Y-31830492D01*
X40481976Y-31693679D01*
X40484500Y-31680991D01*
X40484500Y-31503609D01*
X40484500Y-31503606D01*
X40484499Y-31503604D01*
X40449896Y-31329641D01*
X40449893Y-31329632D01*
X40441726Y-31309916D01*
X40382013Y-31165753D01*
X40382012Y-31165752D01*
X40382009Y-31165746D01*
X40283464Y-31018265D01*
X40283461Y-31018261D01*
X40158038Y-30892838D01*
X40158034Y-30892835D01*
X40010553Y-30794290D01*
X40010540Y-30794283D01*
X39846667Y-30726406D01*
X39846658Y-30726403D01*
X39672694Y-30691800D01*
X39672691Y-30691800D01*
X39495309Y-30691800D01*
X39495306Y-30691800D01*
X39321341Y-30726403D01*
X39321332Y-30726406D01*
X39157459Y-30794283D01*
X39157446Y-30794290D01*
X39090545Y-30838993D01*
X39023867Y-30859871D01*
X38956487Y-30841387D01*
X38925798Y-30814552D01*
X38921987Y-30809908D01*
X38810492Y-30698413D01*
X38810488Y-30698410D01*
X38679385Y-30610809D01*
X38679372Y-30610802D01*
X38533701Y-30550464D01*
X38533689Y-30550461D01*
X38379045Y-30519700D01*
X38379042Y-30519700D01*
X38221358Y-30519700D01*
X38221355Y-30519700D01*
X38066710Y-30550461D01*
X38066698Y-30550464D01*
X37921027Y-30610802D01*
X37921014Y-30610809D01*
X37789911Y-30698410D01*
X37789907Y-30698413D01*
X37678413Y-30809907D01*
X37678410Y-30809911D01*
X37590809Y-30941014D01*
X37590802Y-30941027D01*
X37530464Y-31086698D01*
X37530461Y-31086710D01*
X37499700Y-31241353D01*
X37023725Y-31241353D01*
X37063689Y-31201389D01*
X37087501Y-31165753D01*
X37151290Y-31070285D01*
X37151290Y-31070284D01*
X37151294Y-31070279D01*
X37211637Y-30924597D01*
X37242400Y-30769942D01*
X37242400Y-30612258D01*
X37242400Y-30612255D01*
X37242399Y-30612253D01*
X37230108Y-30550461D01*
X37211637Y-30457603D01*
X37191109Y-30408044D01*
X37151297Y-30311927D01*
X37151290Y-30311914D01*
X37063689Y-30180811D01*
X37063686Y-30180807D01*
X36952192Y-30069313D01*
X36952188Y-30069310D01*
X36821085Y-29981709D01*
X36821072Y-29981702D01*
X36675401Y-29921364D01*
X36675389Y-29921361D01*
X36520745Y-29890600D01*
X36520742Y-29890600D01*
X36363058Y-29890600D01*
X36363055Y-29890600D01*
X36208410Y-29921361D01*
X36208398Y-29921364D01*
X36062727Y-29981702D01*
X36062714Y-29981709D01*
X35931611Y-30069310D01*
X35931607Y-30069313D01*
X35820113Y-30180807D01*
X35820111Y-30180810D01*
X35811839Y-30193190D01*
X35758225Y-30237994D01*
X35688900Y-30246700D01*
X35630132Y-30218582D01*
X35629399Y-30219476D01*
X35624688Y-30215610D01*
X35493585Y-30128009D01*
X35493572Y-30128002D01*
X35347901Y-30067664D01*
X35347889Y-30067661D01*
X35193245Y-30036900D01*
X35193242Y-30036900D01*
X35035558Y-30036900D01*
X35035555Y-30036900D01*
X34880910Y-30067661D01*
X34880898Y-30067664D01*
X34735227Y-30128002D01*
X34735214Y-30128009D01*
X34604111Y-30215610D01*
X34604107Y-30215613D01*
X34492613Y-30327107D01*
X34492610Y-30327111D01*
X34405009Y-30458214D01*
X34405002Y-30458227D01*
X34344664Y-30603898D01*
X34344661Y-30603910D01*
X34313900Y-30758553D01*
X34313900Y-30823876D01*
X34294215Y-30890915D01*
X34241411Y-30936670D01*
X34237354Y-30938436D01*
X34181429Y-30961601D01*
X34181414Y-30961609D01*
X34050311Y-31049210D01*
X34050307Y-31049213D01*
X33938813Y-31160707D01*
X33938810Y-31160711D01*
X33851209Y-31291814D01*
X33851202Y-31291827D01*
X33790864Y-31437498D01*
X33790861Y-31437510D01*
X33760100Y-31592153D01*
X27270745Y-31592153D01*
X27299340Y-31448399D01*
X27301400Y-31438044D01*
X27301400Y-31280355D01*
X27301399Y-31280353D01*
X27293315Y-31239711D01*
X27270637Y-31125703D01*
X27210294Y-30980021D01*
X27210292Y-30980018D01*
X27209496Y-30978096D01*
X27202027Y-30908626D01*
X27220954Y-30861754D01*
X27244213Y-30826947D01*
X27312094Y-30663066D01*
X27317360Y-30636595D01*
X27346699Y-30489095D01*
X27346700Y-30489093D01*
X27346700Y-30459204D01*
X28189500Y-30459204D01*
X28189500Y-30636595D01*
X28224103Y-30810558D01*
X28224106Y-30810567D01*
X28291983Y-30974440D01*
X28291990Y-30974453D01*
X28390535Y-31121934D01*
X28390538Y-31121938D01*
X28515961Y-31247361D01*
X28515965Y-31247364D01*
X28663446Y-31345909D01*
X28663459Y-31345916D01*
X28723601Y-31370827D01*
X28827334Y-31413794D01*
X28827336Y-31413794D01*
X28827341Y-31413796D01*
X29001304Y-31448399D01*
X29001307Y-31448400D01*
X29001309Y-31448400D01*
X29178693Y-31448400D01*
X29178694Y-31448399D01*
X29236682Y-31436864D01*
X29352658Y-31413796D01*
X29352661Y-31413794D01*
X29352666Y-31413794D01*
X29512252Y-31347692D01*
X29516540Y-31345916D01*
X29516540Y-31345915D01*
X29516547Y-31345913D01*
X29664035Y-31247364D01*
X29789464Y-31121935D01*
X29888013Y-30974447D01*
X29955894Y-30810566D01*
X29955950Y-30810289D01*
X29984723Y-30665633D01*
X29990500Y-30636591D01*
X29990500Y-30459209D01*
X29990500Y-30459206D01*
X29990499Y-30459204D01*
X29955896Y-30285241D01*
X29955893Y-30285232D01*
X29945561Y-30260289D01*
X29929351Y-30221153D01*
X29888016Y-30121359D01*
X29888009Y-30121346D01*
X29789464Y-29973865D01*
X29789461Y-29973861D01*
X29664038Y-29848438D01*
X29664034Y-29848435D01*
X29516553Y-29749890D01*
X29516540Y-29749883D01*
X29352667Y-29682006D01*
X29352658Y-29682003D01*
X29178694Y-29647400D01*
X29178691Y-29647400D01*
X29001309Y-29647400D01*
X29001306Y-29647400D01*
X28827341Y-29682003D01*
X28827332Y-29682006D01*
X28663459Y-29749883D01*
X28663446Y-29749890D01*
X28515965Y-29848435D01*
X28515961Y-29848438D01*
X28390538Y-29973861D01*
X28390535Y-29973865D01*
X28291990Y-30121346D01*
X28291983Y-30121359D01*
X28224106Y-30285232D01*
X28224103Y-30285241D01*
X28189500Y-30459204D01*
X27346700Y-30459204D01*
X27346700Y-30311706D01*
X27346699Y-30311704D01*
X27312096Y-30137741D01*
X27312093Y-30137732D01*
X27308547Y-30129172D01*
X27294682Y-30095698D01*
X27244216Y-29973859D01*
X27244209Y-29973846D01*
X27145664Y-29826365D01*
X27145661Y-29826361D01*
X27020238Y-29700938D01*
X27020234Y-29700935D01*
X26872753Y-29602390D01*
X26872740Y-29602383D01*
X26708867Y-29534506D01*
X26708858Y-29534503D01*
X26534894Y-29499900D01*
X26534891Y-29499900D01*
X26357509Y-29499900D01*
X26357506Y-29499900D01*
X26183541Y-29534503D01*
X26183532Y-29534506D01*
X26019659Y-29602383D01*
X26019646Y-29602390D01*
X25872165Y-29700935D01*
X25872161Y-29700938D01*
X25746738Y-29826361D01*
X25746735Y-29826365D01*
X25648190Y-29973846D01*
X25648183Y-29973859D01*
X25580306Y-30137732D01*
X25580303Y-30137741D01*
X25545700Y-30311704D01*
X24502000Y-30311704D01*
X24502000Y-30250358D01*
X24502000Y-30250355D01*
X24501999Y-30250353D01*
X24495088Y-30215610D01*
X24471237Y-30095703D01*
X24424762Y-29983501D01*
X24410897Y-29950027D01*
X24410890Y-29950014D01*
X24323289Y-29818911D01*
X24323286Y-29818907D01*
X24316453Y-29812074D01*
X24282968Y-29750751D01*
X24287952Y-29681059D01*
X24329824Y-29625126D01*
X24395288Y-29600709D01*
X24405217Y-29600843D01*
X24405217Y-29600500D01*
X24588693Y-29600500D01*
X24588694Y-29600499D01*
X24646682Y-29588964D01*
X24762658Y-29565896D01*
X24762661Y-29565894D01*
X24762666Y-29565894D01*
X24912173Y-29503967D01*
X24926540Y-29498016D01*
X24926540Y-29498015D01*
X24926547Y-29498013D01*
X25074035Y-29399464D01*
X25199464Y-29274035D01*
X25298013Y-29126547D01*
X25365894Y-28962666D01*
X25377152Y-28906072D01*
X25400499Y-28788695D01*
X25400500Y-28788693D01*
X25400500Y-28611306D01*
X25400499Y-28611304D01*
X25365896Y-28437341D01*
X25365893Y-28437332D01*
X25363998Y-28432758D01*
X25331372Y-28353989D01*
X25298016Y-28273459D01*
X25298009Y-28273446D01*
X25199464Y-28125965D01*
X25199461Y-28125961D01*
X25074038Y-28000538D01*
X25074034Y-28000535D01*
X24926553Y-27901990D01*
X24926540Y-27901983D01*
X24762667Y-27834106D01*
X24762658Y-27834103D01*
X24588694Y-27799500D01*
X24588691Y-27799500D01*
X24411309Y-27799500D01*
X24411306Y-27799500D01*
X24237341Y-27834103D01*
X24237332Y-27834106D01*
X24073459Y-27901983D01*
X24073446Y-27901990D01*
X23925965Y-28000535D01*
X23925961Y-28000538D01*
X23800538Y-28125961D01*
X23800535Y-28125965D01*
X23701990Y-28273446D01*
X23701983Y-28273459D01*
X23634106Y-28437332D01*
X23634103Y-28437341D01*
X23599500Y-28611304D01*
X23599500Y-28788695D01*
X23634103Y-28962658D01*
X23634106Y-28962667D01*
X23701983Y-29126540D01*
X23701990Y-29126553D01*
X23800535Y-29274034D01*
X23800538Y-29274038D01*
X23843519Y-29317019D01*
X23877004Y-29378342D01*
X23872020Y-29448034D01*
X23830148Y-29503967D01*
X23764684Y-29528384D01*
X23755838Y-29528700D01*
X23622655Y-29528700D01*
X23468010Y-29559461D01*
X23467998Y-29559464D01*
X23322327Y-29619802D01*
X23322314Y-29619809D01*
X23191211Y-29707410D01*
X23191207Y-29707413D01*
X23079713Y-29818907D01*
X23079710Y-29818911D01*
X22992109Y-29950014D01*
X22992102Y-29950027D01*
X22931764Y-30095698D01*
X22931761Y-30095710D01*
X22901000Y-30250353D01*
X6100500Y-30250353D01*
X6100500Y-30221158D01*
X6100500Y-30221155D01*
X6100499Y-30221153D01*
X6082204Y-30129179D01*
X6069737Y-30066503D01*
X6035352Y-29983489D01*
X6009397Y-29920827D01*
X6009390Y-29920814D01*
X5921789Y-29789711D01*
X5921786Y-29789707D01*
X5810292Y-29678213D01*
X5810288Y-29678210D01*
X5679185Y-29590609D01*
X5679172Y-29590602D01*
X5533501Y-29530264D01*
X5533489Y-29530261D01*
X5378845Y-29499500D01*
X5378842Y-29499500D01*
X5221158Y-29499500D01*
X5221155Y-29499500D01*
X5066510Y-29530261D01*
X5066498Y-29530264D01*
X4920827Y-29590602D01*
X4920814Y-29590609D01*
X4789711Y-29678210D01*
X4789707Y-29678213D01*
X4678213Y-29789707D01*
X4678210Y-29789711D01*
X4590609Y-29920814D01*
X4590602Y-29920827D01*
X4530264Y-30066498D01*
X4530261Y-30066510D01*
X4499500Y-30221153D01*
X4499500Y-30378846D01*
X4530261Y-30533489D01*
X4530264Y-30533501D01*
X4556220Y-30596164D01*
X4563689Y-30665633D01*
X4532414Y-30728112D01*
X4489111Y-30758177D01*
X4410827Y-30790602D01*
X4410814Y-30790609D01*
X4279711Y-30878210D01*
X4279707Y-30878213D01*
X4168213Y-30989707D01*
X4168210Y-30989711D01*
X4080609Y-31120814D01*
X4080602Y-31120827D01*
X4020264Y-31266498D01*
X4020261Y-31266510D01*
X3989500Y-31421153D01*
X300500Y-31421153D01*
X300500Y-29671153D01*
X1959500Y-29671153D01*
X1959500Y-29828846D01*
X1990261Y-29983489D01*
X1990264Y-29983501D01*
X2050602Y-30129172D01*
X2050609Y-30129185D01*
X2138210Y-30260288D01*
X2138213Y-30260292D01*
X2249707Y-30371786D01*
X2249711Y-30371789D01*
X2380814Y-30459390D01*
X2380827Y-30459397D01*
X2526414Y-30519700D01*
X2526503Y-30519737D01*
X2680962Y-30550461D01*
X2681153Y-30550499D01*
X2681156Y-30550500D01*
X2681158Y-30550500D01*
X2838844Y-30550500D01*
X2838845Y-30550499D01*
X2993497Y-30519737D01*
X3139179Y-30459394D01*
X3270289Y-30371789D01*
X3381789Y-30260289D01*
X3469394Y-30129179D01*
X3529737Y-29983497D01*
X3560500Y-29828842D01*
X3560500Y-29671158D01*
X3560500Y-29671155D01*
X3560499Y-29671153D01*
X3555774Y-29647400D01*
X3529737Y-29516503D01*
X3529735Y-29516498D01*
X3469397Y-29370827D01*
X3469390Y-29370814D01*
X3381789Y-29239711D01*
X3381786Y-29239707D01*
X3270292Y-29128213D01*
X3270288Y-29128210D01*
X3139185Y-29040609D01*
X3139172Y-29040602D01*
X2993501Y-28980264D01*
X2993489Y-28980261D01*
X2838845Y-28949500D01*
X2838842Y-28949500D01*
X2681158Y-28949500D01*
X2681155Y-28949500D01*
X2526510Y-28980261D01*
X2526498Y-28980264D01*
X2380827Y-29040602D01*
X2380814Y-29040609D01*
X2249711Y-29128210D01*
X2249707Y-29128213D01*
X2138213Y-29239707D01*
X2138210Y-29239711D01*
X2050609Y-29370814D01*
X2050602Y-29370827D01*
X1990264Y-29516498D01*
X1990261Y-29516510D01*
X1959500Y-29671153D01*
X300500Y-29671153D01*
X300500Y-28448053D01*
X6818100Y-28448053D01*
X6818100Y-28605746D01*
X6848861Y-28760389D01*
X6848864Y-28760401D01*
X6909202Y-28906072D01*
X6909209Y-28906085D01*
X6996810Y-29037188D01*
X6996813Y-29037192D01*
X7108307Y-29148686D01*
X7108311Y-29148689D01*
X7239414Y-29236290D01*
X7239427Y-29236297D01*
X7379304Y-29294235D01*
X7385103Y-29296637D01*
X7539753Y-29327399D01*
X7539756Y-29327400D01*
X7539758Y-29327400D01*
X7697444Y-29327400D01*
X7697445Y-29327399D01*
X7852097Y-29296637D01*
X7997779Y-29236294D01*
X8128889Y-29148689D01*
X8240389Y-29037189D01*
X8327994Y-28906079D01*
X8388337Y-28760397D01*
X8419100Y-28605742D01*
X8419100Y-28448058D01*
X8416968Y-28437341D01*
X8416055Y-28432753D01*
X12119500Y-28432753D01*
X12119500Y-28590446D01*
X12150261Y-28745089D01*
X12150264Y-28745101D01*
X12210602Y-28890772D01*
X12210609Y-28890785D01*
X12298210Y-29021888D01*
X12298213Y-29021892D01*
X12409707Y-29133386D01*
X12409711Y-29133389D01*
X12540814Y-29220990D01*
X12540827Y-29220997D01*
X12686498Y-29281335D01*
X12686503Y-29281337D01*
X12841153Y-29312099D01*
X12841156Y-29312100D01*
X12841158Y-29312100D01*
X12998844Y-29312100D01*
X12998845Y-29312099D01*
X13153497Y-29281337D01*
X13299179Y-29220994D01*
X13341805Y-29192511D01*
X13408481Y-29171633D01*
X13475861Y-29190117D01*
X13479577Y-29192504D01*
X13541521Y-29233894D01*
X13541527Y-29233896D01*
X13541528Y-29233897D01*
X13656059Y-29281337D01*
X13687203Y-29294237D01*
X13841853Y-29324999D01*
X13841856Y-29325000D01*
X13841858Y-29325000D01*
X13999544Y-29325000D01*
X13999545Y-29324999D01*
X14154197Y-29294237D01*
X14266866Y-29247567D01*
X14299872Y-29233897D01*
X14299872Y-29233896D01*
X14299879Y-29233894D01*
X14430989Y-29146289D01*
X14542489Y-29034789D01*
X14630094Y-28903679D01*
X14690437Y-28757997D01*
X14721200Y-28603342D01*
X14721200Y-28445658D01*
X14721200Y-28445655D01*
X14721199Y-28445653D01*
X14702966Y-28353989D01*
X14690437Y-28291003D01*
X14662222Y-28222885D01*
X14630097Y-28145327D01*
X14630090Y-28145314D01*
X14542489Y-28014211D01*
X14542486Y-28014207D01*
X14430992Y-27902713D01*
X14430988Y-27902710D01*
X14299885Y-27815109D01*
X14299872Y-27815102D01*
X14154201Y-27754764D01*
X14154189Y-27754761D01*
X13999545Y-27724000D01*
X13999542Y-27724000D01*
X13841858Y-27724000D01*
X13841855Y-27724000D01*
X13687210Y-27754761D01*
X13687198Y-27754764D01*
X13541528Y-27815102D01*
X13541519Y-27815107D01*
X13498892Y-27843589D01*
X13432214Y-27864465D01*
X13364834Y-27845979D01*
X13361114Y-27843588D01*
X13299187Y-27802211D01*
X13299183Y-27802209D01*
X13299179Y-27802206D01*
X13299175Y-27802204D01*
X13299171Y-27802202D01*
X13153501Y-27741864D01*
X13153489Y-27741861D01*
X12998845Y-27711100D01*
X12998842Y-27711100D01*
X12841158Y-27711100D01*
X12841155Y-27711100D01*
X12686510Y-27741861D01*
X12686498Y-27741864D01*
X12540827Y-27802202D01*
X12540814Y-27802209D01*
X12409711Y-27889810D01*
X12409707Y-27889813D01*
X12298213Y-28001307D01*
X12298210Y-28001311D01*
X12210609Y-28132414D01*
X12210602Y-28132427D01*
X12150264Y-28278098D01*
X12150261Y-28278110D01*
X12119500Y-28432753D01*
X8416055Y-28432753D01*
X8388338Y-28293410D01*
X8388337Y-28293403D01*
X8387341Y-28290998D01*
X8327997Y-28147727D01*
X8327990Y-28147714D01*
X8240389Y-28016611D01*
X8240386Y-28016607D01*
X8128892Y-27905113D01*
X8128888Y-27905110D01*
X7997785Y-27817509D01*
X7997772Y-27817502D01*
X7852101Y-27757164D01*
X7852089Y-27757161D01*
X7697445Y-27726400D01*
X7697442Y-27726400D01*
X7539758Y-27726400D01*
X7539755Y-27726400D01*
X7385110Y-27757161D01*
X7385098Y-27757164D01*
X7239427Y-27817502D01*
X7239414Y-27817509D01*
X7108311Y-27905110D01*
X7108307Y-27905113D01*
X6996813Y-28016607D01*
X6996810Y-28016611D01*
X6909209Y-28147714D01*
X6909202Y-28147727D01*
X6848864Y-28293398D01*
X6848861Y-28293410D01*
X6818100Y-28448053D01*
X300500Y-28448053D01*
X300500Y-27104153D01*
X21258600Y-27104153D01*
X21258600Y-27261846D01*
X21289361Y-27416489D01*
X21289364Y-27416501D01*
X21349702Y-27562172D01*
X21349709Y-27562185D01*
X21437310Y-27693288D01*
X21437313Y-27693292D01*
X21548807Y-27804786D01*
X21548811Y-27804789D01*
X21679914Y-27892390D01*
X21679927Y-27892397D01*
X21825598Y-27952735D01*
X21825603Y-27952737D01*
X21980253Y-27983499D01*
X21980256Y-27983500D01*
X21980258Y-27983500D01*
X22137944Y-27983500D01*
X22137945Y-27983499D01*
X22292597Y-27952737D01*
X22438279Y-27892394D01*
X22569389Y-27804789D01*
X22680889Y-27693289D01*
X22768494Y-27562179D01*
X22828837Y-27416497D01*
X22859600Y-27261842D01*
X22859600Y-27250104D01*
X27750300Y-27250104D01*
X27750300Y-27427495D01*
X27784903Y-27601458D01*
X27784906Y-27601467D01*
X27852783Y-27765340D01*
X27852790Y-27765353D01*
X27951335Y-27912834D01*
X27951338Y-27912838D01*
X28076761Y-28038261D01*
X28076765Y-28038264D01*
X28224246Y-28136809D01*
X28224259Y-28136816D01*
X28347163Y-28187723D01*
X28388134Y-28204694D01*
X28388136Y-28204694D01*
X28388141Y-28204696D01*
X28562104Y-28239299D01*
X28562107Y-28239300D01*
X28562109Y-28239300D01*
X28739493Y-28239300D01*
X28739494Y-28239299D01*
X28797482Y-28227764D01*
X28913458Y-28204696D01*
X28913461Y-28204694D01*
X28913466Y-28204694D01*
X29077347Y-28136813D01*
X29224835Y-28038264D01*
X29350264Y-27912835D01*
X29448813Y-27765347D01*
X29449018Y-27764853D01*
X32701800Y-27764853D01*
X32701800Y-27922546D01*
X32732561Y-28077189D01*
X32732564Y-28077201D01*
X32792902Y-28222872D01*
X32792909Y-28222885D01*
X32880510Y-28353988D01*
X32880513Y-28353992D01*
X32992007Y-28465486D01*
X32992011Y-28465489D01*
X33123114Y-28553090D01*
X33123127Y-28553097D01*
X33268798Y-28613435D01*
X33268803Y-28613437D01*
X33423453Y-28644199D01*
X33423456Y-28644200D01*
X33423458Y-28644200D01*
X33581144Y-28644200D01*
X33581145Y-28644199D01*
X33735797Y-28613437D01*
X33881479Y-28553094D01*
X34012589Y-28465489D01*
X34124089Y-28353989D01*
X34211694Y-28222879D01*
X34272037Y-28077197D01*
X34302800Y-27922542D01*
X34302800Y-27764858D01*
X34302800Y-27764855D01*
X34302799Y-27764853D01*
X34294673Y-27724000D01*
X34272037Y-27610203D01*
X34243072Y-27540276D01*
X34235604Y-27470811D01*
X34254531Y-27423939D01*
X34323394Y-27320879D01*
X34383737Y-27175197D01*
X34414500Y-27020542D01*
X34414500Y-26968104D01*
X39197800Y-26968104D01*
X39197800Y-27145495D01*
X39232403Y-27319458D01*
X39232406Y-27319467D01*
X39300283Y-27483340D01*
X39300290Y-27483353D01*
X39398835Y-27630834D01*
X39398838Y-27630838D01*
X39524261Y-27756261D01*
X39524265Y-27756264D01*
X39671746Y-27854809D01*
X39671759Y-27854816D01*
X39787388Y-27902710D01*
X39835634Y-27922694D01*
X39835636Y-27922694D01*
X39835641Y-27922696D01*
X40009604Y-27957299D01*
X40009607Y-27957300D01*
X40009609Y-27957300D01*
X40186993Y-27957300D01*
X40186994Y-27957299D01*
X40244982Y-27945764D01*
X40360958Y-27922696D01*
X40360961Y-27922694D01*
X40360966Y-27922694D01*
X40524847Y-27854813D01*
X40672335Y-27756264D01*
X40797764Y-27630835D01*
X40896313Y-27483347D01*
X40964194Y-27319466D01*
X40965540Y-27312702D01*
X40998799Y-27145495D01*
X40998800Y-27145493D01*
X40998800Y-26968106D01*
X40998799Y-26968104D01*
X40964196Y-26794141D01*
X40964193Y-26794132D01*
X40896316Y-26630259D01*
X40896309Y-26630246D01*
X40797764Y-26482765D01*
X40797761Y-26482761D01*
X40672338Y-26357338D01*
X40672334Y-26357335D01*
X40524853Y-26258790D01*
X40524840Y-26258783D01*
X40360967Y-26190906D01*
X40360958Y-26190903D01*
X40186994Y-26156300D01*
X40186991Y-26156300D01*
X40009609Y-26156300D01*
X40009606Y-26156300D01*
X39835641Y-26190903D01*
X39835632Y-26190906D01*
X39671759Y-26258783D01*
X39671746Y-26258790D01*
X39524265Y-26357335D01*
X39524261Y-26357338D01*
X39398838Y-26482761D01*
X39398835Y-26482765D01*
X39300290Y-26630246D01*
X39300283Y-26630259D01*
X39232406Y-26794132D01*
X39232403Y-26794141D01*
X39197800Y-26968104D01*
X34414500Y-26968104D01*
X34414500Y-26862858D01*
X34414500Y-26862855D01*
X34414499Y-26862853D01*
X34394906Y-26764352D01*
X34383737Y-26708203D01*
X34367660Y-26669390D01*
X34323397Y-26562527D01*
X34323390Y-26562514D01*
X34235789Y-26431411D01*
X34235786Y-26431407D01*
X34124292Y-26319913D01*
X34124288Y-26319910D01*
X33993185Y-26232309D01*
X33993172Y-26232302D01*
X33847501Y-26171964D01*
X33847489Y-26171961D01*
X33692845Y-26141200D01*
X33692842Y-26141200D01*
X33535158Y-26141200D01*
X33535155Y-26141200D01*
X33380510Y-26171961D01*
X33380498Y-26171964D01*
X33234827Y-26232302D01*
X33234814Y-26232309D01*
X33103711Y-26319910D01*
X33103707Y-26319913D01*
X32992213Y-26431407D01*
X32992210Y-26431411D01*
X32904609Y-26562514D01*
X32904602Y-26562527D01*
X32844264Y-26708198D01*
X32844261Y-26708210D01*
X32813500Y-26862853D01*
X32813500Y-27020546D01*
X32844261Y-27175189D01*
X32844263Y-27175197D01*
X32873226Y-27245120D01*
X32880694Y-27314590D01*
X32861766Y-27361462D01*
X32792912Y-27464509D01*
X32792902Y-27464527D01*
X32732564Y-27610198D01*
X32732561Y-27610210D01*
X32701800Y-27764853D01*
X29449018Y-27764853D01*
X29516694Y-27601466D01*
X29551300Y-27427491D01*
X29551300Y-27250109D01*
X29551300Y-27250106D01*
X29551299Y-27250104D01*
X29516696Y-27076141D01*
X29516693Y-27076132D01*
X29448816Y-26912259D01*
X29448809Y-26912246D01*
X29350264Y-26764765D01*
X29350261Y-26764761D01*
X29224838Y-26639338D01*
X29224834Y-26639335D01*
X29077353Y-26540790D01*
X29077340Y-26540783D01*
X28913467Y-26472906D01*
X28913458Y-26472903D01*
X28739494Y-26438300D01*
X28739491Y-26438300D01*
X28562109Y-26438300D01*
X28562106Y-26438300D01*
X28388141Y-26472903D01*
X28388132Y-26472906D01*
X28224259Y-26540783D01*
X28224246Y-26540790D01*
X28076765Y-26639335D01*
X28076761Y-26639338D01*
X27951338Y-26764761D01*
X27951335Y-26764765D01*
X27852790Y-26912246D01*
X27852783Y-26912259D01*
X27784906Y-27076132D01*
X27784903Y-27076141D01*
X27750300Y-27250104D01*
X22859600Y-27250104D01*
X22859600Y-27104158D01*
X22859600Y-27104155D01*
X22859599Y-27104153D01*
X22842968Y-27020544D01*
X22828837Y-26949503D01*
X22821567Y-26931953D01*
X22814098Y-26862485D01*
X22845372Y-26800005D01*
X22905460Y-26764352D01*
X22936128Y-26760500D01*
X23078844Y-26760500D01*
X23078845Y-26760499D01*
X23233497Y-26729737D01*
X23379179Y-26669394D01*
X23510289Y-26581789D01*
X23621789Y-26470289D01*
X23709394Y-26339179D01*
X23769737Y-26193497D01*
X23800500Y-26038842D01*
X23800500Y-25881158D01*
X23800500Y-25881155D01*
X23800499Y-25881153D01*
X23800105Y-25879172D01*
X23769737Y-25726503D01*
X23717347Y-25600021D01*
X23709878Y-25530552D01*
X23741153Y-25468073D01*
X23801242Y-25432421D01*
X23871067Y-25434915D01*
X23900799Y-25449467D01*
X23928645Y-25468073D01*
X23973453Y-25498013D01*
X23973455Y-25498014D01*
X23973459Y-25498016D01*
X24096363Y-25548923D01*
X24137334Y-25565894D01*
X24137336Y-25565894D01*
X24137341Y-25565896D01*
X24311304Y-25600499D01*
X24311307Y-25600500D01*
X24311309Y-25600500D01*
X24358804Y-25600500D01*
X24425843Y-25620185D01*
X24471598Y-25672989D01*
X24480421Y-25700308D01*
X24501761Y-25807591D01*
X24501764Y-25807601D01*
X24562102Y-25953272D01*
X24562109Y-25953285D01*
X24649710Y-26084388D01*
X24649713Y-26084392D01*
X24761207Y-26195886D01*
X24761211Y-26195889D01*
X24892314Y-26283490D01*
X24892327Y-26283497D01*
X25026772Y-26339185D01*
X25038003Y-26343837D01*
X25192653Y-26374599D01*
X25192656Y-26374600D01*
X25192658Y-26374600D01*
X25350344Y-26374600D01*
X25350345Y-26374599D01*
X25504997Y-26343837D01*
X25650679Y-26283494D01*
X25781789Y-26195889D01*
X25893289Y-26084389D01*
X25980894Y-25953279D01*
X26041237Y-25807597D01*
X26072000Y-25652942D01*
X26072000Y-25495258D01*
X26072000Y-25495255D01*
X26071999Y-25495253D01*
X26041237Y-25340603D01*
X26010747Y-25266992D01*
X25980897Y-25194927D01*
X25980890Y-25194914D01*
X25893289Y-25063811D01*
X25893286Y-25063807D01*
X25781792Y-24952313D01*
X25781788Y-24952310D01*
X25717649Y-24909453D01*
X28289500Y-24909453D01*
X28289500Y-25067146D01*
X28320261Y-25221789D01*
X28320264Y-25221801D01*
X28380602Y-25367472D01*
X28380609Y-25367485D01*
X28468210Y-25498588D01*
X28468213Y-25498592D01*
X28579707Y-25610086D01*
X28579711Y-25610089D01*
X28710814Y-25697690D01*
X28710827Y-25697697D01*
X28797267Y-25733501D01*
X28856503Y-25758037D01*
X29011153Y-25788799D01*
X29011156Y-25788800D01*
X29011158Y-25788800D01*
X29168844Y-25788800D01*
X29168845Y-25788799D01*
X29323497Y-25758037D01*
X29469179Y-25697694D01*
X29600289Y-25610089D01*
X29711789Y-25498589D01*
X29763530Y-25421153D01*
X36249500Y-25421153D01*
X36249500Y-25578846D01*
X36280261Y-25733489D01*
X36280264Y-25733501D01*
X36340602Y-25879172D01*
X36340609Y-25879185D01*
X36428210Y-26010288D01*
X36428213Y-26010292D01*
X36539707Y-26121786D01*
X36539711Y-26121789D01*
X36670814Y-26209390D01*
X36670827Y-26209397D01*
X36790067Y-26258787D01*
X36816503Y-26269737D01*
X36971153Y-26300499D01*
X36971156Y-26300500D01*
X36971158Y-26300500D01*
X37128844Y-26300500D01*
X37128845Y-26300499D01*
X37283497Y-26269737D01*
X37429179Y-26209394D01*
X37560289Y-26121789D01*
X37671789Y-26010289D01*
X37759394Y-25879179D01*
X37819737Y-25733497D01*
X37850500Y-25578842D01*
X37850500Y-25421158D01*
X37850500Y-25421155D01*
X37850499Y-25421153D01*
X37846185Y-25399464D01*
X37819737Y-25266503D01*
X37801221Y-25221801D01*
X37759397Y-25120827D01*
X37759390Y-25120814D01*
X37671789Y-24989711D01*
X37671786Y-24989707D01*
X37560292Y-24878213D01*
X37560288Y-24878210D01*
X37429185Y-24790609D01*
X37429172Y-24790602D01*
X37283501Y-24730264D01*
X37283489Y-24730261D01*
X37128845Y-24699500D01*
X37128842Y-24699500D01*
X36971158Y-24699500D01*
X36971155Y-24699500D01*
X36816510Y-24730261D01*
X36816498Y-24730264D01*
X36670827Y-24790602D01*
X36670814Y-24790609D01*
X36539711Y-24878210D01*
X36539707Y-24878213D01*
X36428213Y-24989707D01*
X36428210Y-24989711D01*
X36340609Y-25120814D01*
X36340602Y-25120827D01*
X36280264Y-25266498D01*
X36280261Y-25266510D01*
X36249500Y-25421153D01*
X29763530Y-25421153D01*
X29799394Y-25367479D01*
X29810524Y-25340610D01*
X29847804Y-25250606D01*
X29859737Y-25221797D01*
X29890500Y-25067142D01*
X29890500Y-24909458D01*
X29890500Y-24909455D01*
X29890499Y-24909453D01*
X29884285Y-24878213D01*
X29859737Y-24754803D01*
X29849572Y-24730263D01*
X29799397Y-24609127D01*
X29799390Y-24609114D01*
X29711789Y-24478011D01*
X29711786Y-24478007D01*
X29600292Y-24366513D01*
X29600288Y-24366510D01*
X29469185Y-24278909D01*
X29469172Y-24278902D01*
X29323503Y-24218565D01*
X29323499Y-24218563D01*
X29323497Y-24218563D01*
X29323493Y-24218562D01*
X29323489Y-24218561D01*
X29168845Y-24187800D01*
X29168842Y-24187800D01*
X29011158Y-24187800D01*
X29011155Y-24187800D01*
X28856510Y-24218561D01*
X28856498Y-24218564D01*
X28710827Y-24278902D01*
X28710814Y-24278909D01*
X28579711Y-24366510D01*
X28579707Y-24366513D01*
X28468213Y-24478007D01*
X28468210Y-24478011D01*
X28380609Y-24609114D01*
X28380602Y-24609127D01*
X28320264Y-24754798D01*
X28320261Y-24754810D01*
X28289500Y-24909453D01*
X25717649Y-24909453D01*
X25650685Y-24864709D01*
X25650672Y-24864702D01*
X25505001Y-24804364D01*
X25504991Y-24804361D01*
X25400308Y-24783538D01*
X25338397Y-24751153D01*
X25303823Y-24690437D01*
X25300500Y-24661921D01*
X25300500Y-24611306D01*
X25300499Y-24611304D01*
X25265896Y-24437341D01*
X25265893Y-24437332D01*
X25259211Y-24421201D01*
X25241116Y-24377514D01*
X25198016Y-24273459D01*
X25198009Y-24273446D01*
X25099464Y-24125965D01*
X25099461Y-24125961D01*
X24974038Y-24000538D01*
X24974034Y-24000535D01*
X24826553Y-23901990D01*
X24826540Y-23901983D01*
X24662667Y-23834106D01*
X24662658Y-23834103D01*
X24488694Y-23799500D01*
X24488691Y-23799500D01*
X24311309Y-23799500D01*
X24311306Y-23799500D01*
X24137341Y-23834103D01*
X24137332Y-23834106D01*
X23973459Y-23901983D01*
X23973446Y-23901990D01*
X23825965Y-24000535D01*
X23825961Y-24000538D01*
X23700538Y-24125961D01*
X23700535Y-24125965D01*
X23601990Y-24273446D01*
X23601983Y-24273459D01*
X23534106Y-24437332D01*
X23534103Y-24437341D01*
X23499500Y-24611304D01*
X23499500Y-24788695D01*
X23534103Y-24962658D01*
X23534106Y-24962667D01*
X23601872Y-25126271D01*
X23609341Y-25195741D01*
X23578065Y-25258220D01*
X23517976Y-25293871D01*
X23448151Y-25291377D01*
X23418421Y-25276826D01*
X23379183Y-25250608D01*
X23379172Y-25250602D01*
X23233501Y-25190264D01*
X23233489Y-25190261D01*
X23078845Y-25159500D01*
X23078842Y-25159500D01*
X22921158Y-25159500D01*
X22921155Y-25159500D01*
X22766510Y-25190261D01*
X22766498Y-25190264D01*
X22620827Y-25250602D01*
X22620814Y-25250609D01*
X22489711Y-25338210D01*
X22489707Y-25338213D01*
X22378213Y-25449707D01*
X22378210Y-25449711D01*
X22290609Y-25580814D01*
X22290602Y-25580827D01*
X22230264Y-25726498D01*
X22230261Y-25726510D01*
X22199500Y-25881153D01*
X22199500Y-26038846D01*
X22230261Y-26193489D01*
X22230264Y-26193502D01*
X22237532Y-26211046D01*
X22245002Y-26280515D01*
X22213728Y-26342995D01*
X22153640Y-26378648D01*
X22122972Y-26382500D01*
X21980255Y-26382500D01*
X21825610Y-26413261D01*
X21825598Y-26413264D01*
X21679927Y-26473602D01*
X21679914Y-26473609D01*
X21548811Y-26561210D01*
X21548807Y-26561213D01*
X21437313Y-26672707D01*
X21437310Y-26672711D01*
X21349709Y-26803814D01*
X21349702Y-26803827D01*
X21289364Y-26949498D01*
X21289361Y-26949510D01*
X21258600Y-27104153D01*
X300500Y-27104153D01*
X300500Y-24677853D01*
X13734300Y-24677853D01*
X13734300Y-24835546D01*
X13765061Y-24990189D01*
X13765064Y-24990201D01*
X13825402Y-25135872D01*
X13825409Y-25135885D01*
X13913010Y-25266988D01*
X13913013Y-25266992D01*
X14024507Y-25378486D01*
X14024511Y-25378489D01*
X14155614Y-25466090D01*
X14155627Y-25466097D01*
X14301298Y-25526435D01*
X14301303Y-25526437D01*
X14455953Y-25557199D01*
X14455956Y-25557200D01*
X14455958Y-25557200D01*
X14613644Y-25557200D01*
X14613645Y-25557199D01*
X14768297Y-25526437D01*
X14913979Y-25466094D01*
X15045089Y-25378489D01*
X15156589Y-25266989D01*
X15244194Y-25135879D01*
X15304537Y-24990197D01*
X15335300Y-24835542D01*
X15335300Y-24677858D01*
X15335300Y-24677855D01*
X15335299Y-24677853D01*
X15313226Y-24566885D01*
X15304537Y-24523203D01*
X15285818Y-24478011D01*
X15244197Y-24377527D01*
X15244190Y-24377514D01*
X15156589Y-24246411D01*
X15156586Y-24246407D01*
X15045092Y-24134913D01*
X15045088Y-24134910D01*
X14913985Y-24047309D01*
X14913972Y-24047302D01*
X14768301Y-23986964D01*
X14768289Y-23986961D01*
X14613645Y-23956200D01*
X14613642Y-23956200D01*
X14455958Y-23956200D01*
X14455955Y-23956200D01*
X14301310Y-23986961D01*
X14301298Y-23986964D01*
X14155627Y-24047302D01*
X14155614Y-24047309D01*
X14024511Y-24134910D01*
X14024507Y-24134913D01*
X13913013Y-24246407D01*
X13913010Y-24246411D01*
X13825409Y-24377514D01*
X13825402Y-24377527D01*
X13765064Y-24523198D01*
X13765061Y-24523210D01*
X13734300Y-24677853D01*
X300500Y-24677853D01*
X300500Y-21421153D01*
X21969500Y-21421153D01*
X21969500Y-21578846D01*
X22000261Y-21733489D01*
X22000264Y-21733501D01*
X22060602Y-21879172D01*
X22060609Y-21879185D01*
X22148210Y-22010288D01*
X22148213Y-22010292D01*
X22259707Y-22121786D01*
X22259711Y-22121789D01*
X22390814Y-22209390D01*
X22390827Y-22209397D01*
X22507795Y-22257846D01*
X22536503Y-22269737D01*
X22691153Y-22300499D01*
X22691156Y-22300500D01*
X22691158Y-22300500D01*
X22848844Y-22300500D01*
X22848845Y-22300499D01*
X23003497Y-22269737D01*
X23149179Y-22209394D01*
X23280289Y-22121789D01*
X23391789Y-22010289D01*
X23479394Y-21879179D01*
X23539737Y-21733497D01*
X23570500Y-21578842D01*
X23570500Y-21421158D01*
X23570500Y-21421155D01*
X23570499Y-21421153D01*
X23568134Y-21409263D01*
X23539737Y-21266503D01*
X23509370Y-21193190D01*
X23479397Y-21120827D01*
X23479390Y-21120814D01*
X23391789Y-20989711D01*
X23391786Y-20989707D01*
X23280292Y-20878213D01*
X23280288Y-20878210D01*
X23149185Y-20790609D01*
X23149172Y-20790602D01*
X23003501Y-20730264D01*
X23003489Y-20730261D01*
X22848845Y-20699500D01*
X22848842Y-20699500D01*
X22691158Y-20699500D01*
X22691155Y-20699500D01*
X22536510Y-20730261D01*
X22536498Y-20730264D01*
X22390827Y-20790602D01*
X22390814Y-20790609D01*
X22259711Y-20878210D01*
X22259707Y-20878213D01*
X22148213Y-20989707D01*
X22148210Y-20989711D01*
X22060609Y-21120814D01*
X22060602Y-21120827D01*
X22000264Y-21266498D01*
X22000261Y-21266510D01*
X21969500Y-21421153D01*
X300500Y-21421153D01*
X300500Y-17604653D01*
X15026200Y-17604653D01*
X15026200Y-17762346D01*
X15056961Y-17916989D01*
X15056964Y-17917001D01*
X15117302Y-18062672D01*
X15117309Y-18062685D01*
X15204910Y-18193788D01*
X15204913Y-18193792D01*
X15316407Y-18305286D01*
X15316411Y-18305289D01*
X15447514Y-18392890D01*
X15447527Y-18392897D01*
X15512391Y-18419764D01*
X15593203Y-18453237D01*
X15728262Y-18480102D01*
X15747853Y-18483999D01*
X15747856Y-18484000D01*
X15747858Y-18484000D01*
X15905544Y-18484000D01*
X15905545Y-18483999D01*
X16060197Y-18453237D01*
X16174859Y-18405743D01*
X16205872Y-18392897D01*
X16205872Y-18392896D01*
X16205879Y-18392894D01*
X16336989Y-18305289D01*
X16448489Y-18193789D01*
X16536094Y-18062679D01*
X16596437Y-17916997D01*
X16627200Y-17762342D01*
X16627200Y-17604658D01*
X16627200Y-17604655D01*
X16627199Y-17604653D01*
X16610308Y-17519737D01*
X16596437Y-17450003D01*
X16540396Y-17314707D01*
X16536097Y-17304327D01*
X16536090Y-17304314D01*
X16448489Y-17173211D01*
X16448486Y-17173207D01*
X16336992Y-17061713D01*
X16336988Y-17061710D01*
X16205885Y-16974109D01*
X16205872Y-16974102D01*
X16060201Y-16913764D01*
X16060189Y-16913761D01*
X15905545Y-16883000D01*
X15905542Y-16883000D01*
X15747858Y-16883000D01*
X15747855Y-16883000D01*
X15593210Y-16913761D01*
X15593198Y-16913764D01*
X15447527Y-16974102D01*
X15447514Y-16974109D01*
X15316411Y-17061710D01*
X15316407Y-17061713D01*
X15204913Y-17173207D01*
X15204910Y-17173211D01*
X15117309Y-17304314D01*
X15117302Y-17304327D01*
X15056964Y-17449998D01*
X15056961Y-17450010D01*
X15026200Y-17604653D01*
X300500Y-17604653D01*
X300500Y-13402253D01*
X8309500Y-13402253D01*
X8309500Y-13559946D01*
X8340261Y-13714589D01*
X8340264Y-13714601D01*
X8400602Y-13860272D01*
X8400609Y-13860285D01*
X8488210Y-13991388D01*
X8488213Y-13991392D01*
X8599707Y-14102886D01*
X8599711Y-14102889D01*
X8730814Y-14190490D01*
X8730827Y-14190497D01*
X8870863Y-14248501D01*
X8876503Y-14250837D01*
X9031153Y-14281599D01*
X9031156Y-14281600D01*
X9031158Y-14281600D01*
X9188844Y-14281600D01*
X9188845Y-14281599D01*
X9343497Y-14250837D01*
X9489179Y-14190494D01*
X9620289Y-14102889D01*
X9731789Y-13991389D01*
X9819394Y-13860279D01*
X9879737Y-13714597D01*
X9910500Y-13559942D01*
X9910500Y-13402258D01*
X9908700Y-13393211D01*
X9905267Y-13375953D01*
X10772500Y-13375953D01*
X10772500Y-13533646D01*
X10803261Y-13688289D01*
X10803264Y-13688301D01*
X10863602Y-13833972D01*
X10863609Y-13833985D01*
X10951210Y-13965088D01*
X10951213Y-13965092D01*
X11062707Y-14076586D01*
X11062711Y-14076589D01*
X11193814Y-14164190D01*
X11193827Y-14164197D01*
X11339498Y-14224535D01*
X11339503Y-14224537D01*
X11471711Y-14250835D01*
X11494153Y-14255299D01*
X11494156Y-14255300D01*
X11494158Y-14255300D01*
X11651844Y-14255300D01*
X11651845Y-14255299D01*
X11806497Y-14224537D01*
X11919166Y-14177867D01*
X11952172Y-14164197D01*
X11952172Y-14164196D01*
X11952179Y-14164194D01*
X12083289Y-14076589D01*
X12194789Y-13965089D01*
X12214123Y-13936153D01*
X16056600Y-13936153D01*
X16056600Y-14093846D01*
X16087361Y-14248489D01*
X16087364Y-14248501D01*
X16147702Y-14394172D01*
X16147709Y-14394185D01*
X16235310Y-14525288D01*
X16235313Y-14525292D01*
X16346807Y-14636786D01*
X16346811Y-14636789D01*
X16477914Y-14724390D01*
X16477927Y-14724397D01*
X16599388Y-14774707D01*
X16623603Y-14784737D01*
X16778253Y-14815499D01*
X16778256Y-14815500D01*
X16778258Y-14815500D01*
X16935944Y-14815500D01*
X16935945Y-14815499D01*
X17090597Y-14784737D01*
X17145572Y-14761965D01*
X17215037Y-14754497D01*
X17277517Y-14785771D01*
X17313170Y-14845860D01*
X17310677Y-14915685D01*
X17307584Y-14923978D01*
X17254763Y-15051503D01*
X17254761Y-15051510D01*
X17224000Y-15206153D01*
X17224000Y-15363846D01*
X17254761Y-15518489D01*
X17254764Y-15518501D01*
X17315102Y-15664172D01*
X17315109Y-15664185D01*
X17402710Y-15795288D01*
X17402713Y-15795292D01*
X17451290Y-15843869D01*
X17484775Y-15905192D01*
X17479791Y-15974884D01*
X17451290Y-16019231D01*
X17425813Y-16044707D01*
X17425810Y-16044711D01*
X17338209Y-16175814D01*
X17338202Y-16175827D01*
X17277864Y-16321498D01*
X17277861Y-16321510D01*
X17247100Y-16476153D01*
X17247100Y-16633846D01*
X17277861Y-16788489D01*
X17277864Y-16788501D01*
X17338202Y-16934172D01*
X17338209Y-16934185D01*
X17425810Y-17065288D01*
X17425813Y-17065292D01*
X17462890Y-17102369D01*
X17496375Y-17163692D01*
X17491391Y-17233384D01*
X17462890Y-17277731D01*
X17425913Y-17314707D01*
X17425910Y-17314711D01*
X17338309Y-17445814D01*
X17338302Y-17445827D01*
X17277964Y-17591498D01*
X17277961Y-17591510D01*
X17247200Y-17746153D01*
X17247200Y-17903846D01*
X17277961Y-18058489D01*
X17277964Y-18058501D01*
X17338302Y-18204172D01*
X17338309Y-18204185D01*
X17425910Y-18335288D01*
X17425913Y-18335292D01*
X17456640Y-18366019D01*
X17490125Y-18427342D01*
X17485141Y-18497034D01*
X17456640Y-18541381D01*
X17413313Y-18584707D01*
X17413310Y-18584711D01*
X17325709Y-18715814D01*
X17325702Y-18715827D01*
X17265364Y-18861498D01*
X17265361Y-18861510D01*
X17234600Y-19016153D01*
X17234600Y-19173846D01*
X17265361Y-19328489D01*
X17265364Y-19328501D01*
X17325702Y-19474172D01*
X17325709Y-19474185D01*
X17413310Y-19605288D01*
X17413313Y-19605292D01*
X17473587Y-19665566D01*
X17507072Y-19726889D01*
X17502088Y-19796581D01*
X17460216Y-19852514D01*
X17433359Y-19867808D01*
X17378324Y-19890604D01*
X17378314Y-19890609D01*
X17247211Y-19978210D01*
X17247207Y-19978213D01*
X17135713Y-20089707D01*
X17135710Y-20089711D01*
X17048109Y-20220814D01*
X17048102Y-20220827D01*
X16987764Y-20366498D01*
X16987761Y-20366510D01*
X16957000Y-20521153D01*
X16957000Y-20678846D01*
X16987761Y-20833489D01*
X16987764Y-20833501D01*
X17048102Y-20979172D01*
X17048109Y-20979185D01*
X17135710Y-21110288D01*
X17135713Y-21110292D01*
X17247207Y-21221786D01*
X17247211Y-21221789D01*
X17378314Y-21309390D01*
X17378327Y-21309397D01*
X17510394Y-21364100D01*
X17524003Y-21369737D01*
X17678653Y-21400499D01*
X17678656Y-21400500D01*
X17678658Y-21400500D01*
X17836344Y-21400500D01*
X17836345Y-21400499D01*
X17990997Y-21369737D01*
X18136679Y-21309394D01*
X18267789Y-21221789D01*
X18379289Y-21110289D01*
X18466894Y-20979179D01*
X18527237Y-20833497D01*
X18558000Y-20678842D01*
X18558000Y-20521158D01*
X18557717Y-20519737D01*
X18554360Y-20502859D01*
X18554360Y-20502857D01*
X18550759Y-20484753D01*
X24475300Y-20484753D01*
X24475300Y-20642446D01*
X24506061Y-20797089D01*
X24506064Y-20797101D01*
X24566402Y-20942772D01*
X24566409Y-20942785D01*
X24654010Y-21073888D01*
X24654013Y-21073892D01*
X24765507Y-21185386D01*
X24765511Y-21185389D01*
X24896614Y-21272990D01*
X24896627Y-21272997D01*
X24984506Y-21309397D01*
X25042303Y-21333337D01*
X25196953Y-21364099D01*
X25196956Y-21364100D01*
X25196958Y-21364100D01*
X25354644Y-21364100D01*
X25354645Y-21364099D01*
X25509297Y-21333337D01*
X25654979Y-21272994D01*
X25664683Y-21266510D01*
X25746705Y-21211705D01*
X25813382Y-21190827D01*
X25839788Y-21193190D01*
X25972055Y-21219500D01*
X26050340Y-21219500D01*
X26117379Y-21239185D01*
X26163134Y-21291989D01*
X26173078Y-21361147D01*
X26144053Y-21424703D01*
X26097792Y-21458061D01*
X26069927Y-21469602D01*
X26069914Y-21469609D01*
X25938811Y-21557210D01*
X25938807Y-21557213D01*
X25827313Y-21668707D01*
X25827310Y-21668711D01*
X25739709Y-21799814D01*
X25739702Y-21799827D01*
X25679364Y-21945498D01*
X25679361Y-21945510D01*
X25648600Y-22100153D01*
X25648600Y-22257846D01*
X25679361Y-22412489D01*
X25679364Y-22412501D01*
X25739702Y-22558172D01*
X25739709Y-22558185D01*
X25827310Y-22689288D01*
X25827313Y-22689292D01*
X25938807Y-22800786D01*
X25938811Y-22800789D01*
X26069914Y-22888390D01*
X26069927Y-22888397D01*
X26182943Y-22935209D01*
X26215603Y-22948737D01*
X26370253Y-22979499D01*
X26370256Y-22979500D01*
X26370258Y-22979500D01*
X26527944Y-22979500D01*
X26527945Y-22979499D01*
X26682597Y-22948737D01*
X26772730Y-22911402D01*
X26842199Y-22903934D01*
X26904678Y-22935209D01*
X26940330Y-22995298D01*
X26937836Y-23065123D01*
X26923284Y-23094855D01*
X26834309Y-23228014D01*
X26834302Y-23228027D01*
X26773964Y-23373698D01*
X26773961Y-23373710D01*
X26743200Y-23528353D01*
X26743200Y-23686046D01*
X26773961Y-23840689D01*
X26773964Y-23840701D01*
X26834302Y-23986372D01*
X26834309Y-23986385D01*
X26921910Y-24117488D01*
X26921913Y-24117492D01*
X27033407Y-24228986D01*
X27033411Y-24228989D01*
X27164514Y-24316590D01*
X27164527Y-24316597D01*
X27285032Y-24366511D01*
X27310203Y-24376937D01*
X27464853Y-24407699D01*
X27464856Y-24407700D01*
X27464858Y-24407700D01*
X27622544Y-24407700D01*
X27622545Y-24407699D01*
X27777197Y-24376937D01*
X27922879Y-24316594D01*
X28053989Y-24228989D01*
X28165489Y-24117489D01*
X28171259Y-24108853D01*
X39720300Y-24108853D01*
X39720300Y-24266546D01*
X39751061Y-24421189D01*
X39751064Y-24421201D01*
X39811402Y-24566872D01*
X39811409Y-24566885D01*
X39899010Y-24697988D01*
X39899013Y-24697992D01*
X40010507Y-24809486D01*
X40010511Y-24809489D01*
X40141614Y-24897090D01*
X40141627Y-24897097D01*
X40274932Y-24952313D01*
X40287303Y-24957437D01*
X40441953Y-24988199D01*
X40441956Y-24988200D01*
X40441958Y-24988200D01*
X40599644Y-24988200D01*
X40599645Y-24988199D01*
X40754297Y-24957437D01*
X40899979Y-24897094D01*
X41031089Y-24809489D01*
X41142589Y-24697989D01*
X41230194Y-24566879D01*
X41290537Y-24421197D01*
X41321300Y-24266542D01*
X41321300Y-24108858D01*
X41321300Y-24108855D01*
X41321299Y-24108853D01*
X41309056Y-24047302D01*
X41290537Y-23954203D01*
X41268907Y-23901983D01*
X41230197Y-23808527D01*
X41230190Y-23808514D01*
X41142589Y-23677411D01*
X41142586Y-23677407D01*
X41031092Y-23565913D01*
X41031088Y-23565910D01*
X40899985Y-23478309D01*
X40899972Y-23478302D01*
X40754301Y-23417964D01*
X40754289Y-23417961D01*
X40599645Y-23387200D01*
X40599642Y-23387200D01*
X40441958Y-23387200D01*
X40441955Y-23387200D01*
X40287310Y-23417961D01*
X40287298Y-23417964D01*
X40141627Y-23478302D01*
X40141614Y-23478309D01*
X40010511Y-23565910D01*
X40010507Y-23565913D01*
X39899013Y-23677407D01*
X39899010Y-23677411D01*
X39811409Y-23808514D01*
X39811402Y-23808527D01*
X39751064Y-23954198D01*
X39751061Y-23954210D01*
X39720300Y-24108853D01*
X28171259Y-24108853D01*
X28253094Y-23986379D01*
X28313437Y-23840697D01*
X28344200Y-23686042D01*
X28344200Y-23528358D01*
X28344200Y-23528355D01*
X28344199Y-23528353D01*
X28313437Y-23373703D01*
X28286941Y-23309735D01*
X28253097Y-23228027D01*
X28253090Y-23228014D01*
X28165489Y-23096911D01*
X28165486Y-23096907D01*
X28053992Y-22985413D01*
X28053988Y-22985410D01*
X27922885Y-22897809D01*
X27922872Y-22897802D01*
X27777201Y-22837464D01*
X27777189Y-22837461D01*
X27622545Y-22806700D01*
X27622542Y-22806700D01*
X27464858Y-22806700D01*
X27464855Y-22806700D01*
X27310210Y-22837461D01*
X27310203Y-22837463D01*
X27220068Y-22874797D01*
X27150599Y-22882264D01*
X27088120Y-22850989D01*
X27052468Y-22790899D01*
X27054963Y-22721074D01*
X27069515Y-22691343D01*
X27070884Y-22689293D01*
X27070889Y-22689289D01*
X27158494Y-22558179D01*
X27198683Y-22461153D01*
X42534500Y-22461153D01*
X42534500Y-22618846D01*
X42565261Y-22773489D01*
X42565264Y-22773501D01*
X42625602Y-22919172D01*
X42625609Y-22919185D01*
X42713210Y-23050288D01*
X42713213Y-23050292D01*
X42824707Y-23161786D01*
X42824711Y-23161789D01*
X42955814Y-23249390D01*
X42955827Y-23249397D01*
X43101498Y-23309735D01*
X43101503Y-23309737D01*
X43256153Y-23340499D01*
X43256156Y-23340500D01*
X43256158Y-23340500D01*
X43413844Y-23340500D01*
X43413845Y-23340499D01*
X43568497Y-23309737D01*
X43714179Y-23249394D01*
X43845289Y-23161789D01*
X43956789Y-23050289D01*
X44044394Y-22919179D01*
X44104737Y-22773497D01*
X44135500Y-22618842D01*
X44135500Y-22461158D01*
X44135500Y-22461155D01*
X44135499Y-22461153D01*
X44104738Y-22306510D01*
X44104737Y-22306503D01*
X44104735Y-22306498D01*
X44044397Y-22160827D01*
X44044390Y-22160814D01*
X43956789Y-22029711D01*
X43956786Y-22029707D01*
X43845292Y-21918213D01*
X43845288Y-21918210D01*
X43714185Y-21830609D01*
X43714172Y-21830602D01*
X43568501Y-21770264D01*
X43568489Y-21770261D01*
X43413845Y-21739500D01*
X43413842Y-21739500D01*
X43256158Y-21739500D01*
X43256155Y-21739500D01*
X43101510Y-21770261D01*
X43101498Y-21770264D01*
X42955827Y-21830602D01*
X42955814Y-21830609D01*
X42824711Y-21918210D01*
X42824707Y-21918213D01*
X42713213Y-22029707D01*
X42713210Y-22029711D01*
X42625609Y-22160814D01*
X42625602Y-22160827D01*
X42565264Y-22306498D01*
X42565261Y-22306510D01*
X42534500Y-22461153D01*
X27198683Y-22461153D01*
X27218837Y-22412497D01*
X27249600Y-22257842D01*
X27249600Y-22100158D01*
X27249600Y-22100155D01*
X27249599Y-22100153D01*
X27231724Y-22010289D01*
X27218837Y-21945503D01*
X27207533Y-21918213D01*
X27158497Y-21799827D01*
X27158490Y-21799814D01*
X27070889Y-21668711D01*
X27070886Y-21668707D01*
X26959392Y-21557213D01*
X26959388Y-21557210D01*
X26828285Y-21469609D01*
X26828272Y-21469602D01*
X26682601Y-21409264D01*
X26682589Y-21409261D01*
X26527945Y-21378500D01*
X26527942Y-21378500D01*
X26449660Y-21378500D01*
X26382621Y-21358815D01*
X26336866Y-21306011D01*
X26326922Y-21236853D01*
X26355947Y-21173297D01*
X26402208Y-21139939D01*
X26430072Y-21128397D01*
X26430072Y-21128396D01*
X26430079Y-21128394D01*
X26561189Y-21040789D01*
X26672689Y-20929289D01*
X26760294Y-20798179D01*
X26760746Y-20797089D01*
X26788425Y-20730264D01*
X26820637Y-20652497D01*
X26842357Y-20543304D01*
X36081800Y-20543304D01*
X36081800Y-20720695D01*
X36116403Y-20894658D01*
X36116406Y-20894667D01*
X36184283Y-21058540D01*
X36184290Y-21058553D01*
X36282835Y-21206034D01*
X36282838Y-21206038D01*
X36408261Y-21331461D01*
X36408265Y-21331464D01*
X36555746Y-21430009D01*
X36555759Y-21430016D01*
X36651330Y-21469602D01*
X36719634Y-21497894D01*
X36719636Y-21497894D01*
X36719641Y-21497896D01*
X36893604Y-21532499D01*
X36893607Y-21532500D01*
X36893609Y-21532500D01*
X37070993Y-21532500D01*
X37070994Y-21532499D01*
X37128982Y-21520964D01*
X37244958Y-21497896D01*
X37244961Y-21497894D01*
X37244966Y-21497894D01*
X37408847Y-21430013D01*
X37556335Y-21331464D01*
X37681764Y-21206035D01*
X37780313Y-21058547D01*
X37848194Y-20894666D01*
X37851468Y-20878210D01*
X37882799Y-20720695D01*
X37882800Y-20720693D01*
X37882800Y-20656449D01*
X37902485Y-20589410D01*
X37955289Y-20543655D01*
X37982602Y-20534833D01*
X38058497Y-20519737D01*
X38204179Y-20459394D01*
X38335289Y-20371789D01*
X38446789Y-20260289D01*
X38534394Y-20129179D01*
X38594737Y-19983497D01*
X38607138Y-19921153D01*
X44604500Y-19921153D01*
X44604500Y-20078846D01*
X44635261Y-20233489D01*
X44635264Y-20233501D01*
X44695602Y-20379172D01*
X44695609Y-20379185D01*
X44783210Y-20510288D01*
X44783213Y-20510292D01*
X44894707Y-20621786D01*
X44894711Y-20621789D01*
X45025814Y-20709390D01*
X45025827Y-20709397D01*
X45171498Y-20769735D01*
X45171503Y-20769737D01*
X45314490Y-20798179D01*
X45326153Y-20800499D01*
X45326156Y-20800500D01*
X45326158Y-20800500D01*
X45483844Y-20800500D01*
X45483845Y-20800499D01*
X45638497Y-20769737D01*
X45784179Y-20709394D01*
X45915289Y-20621789D01*
X46026789Y-20510289D01*
X46114394Y-20379179D01*
X46174737Y-20233497D01*
X46205500Y-20078842D01*
X46205500Y-19921158D01*
X46205500Y-19921155D01*
X46205499Y-19921153D01*
X46192182Y-19854206D01*
X46174737Y-19766503D01*
X46174571Y-19766103D01*
X46114397Y-19620827D01*
X46114390Y-19620814D01*
X46026789Y-19489711D01*
X46026786Y-19489707D01*
X45915292Y-19378213D01*
X45915288Y-19378210D01*
X45784185Y-19290609D01*
X45784172Y-19290602D01*
X45638501Y-19230264D01*
X45638489Y-19230261D01*
X45483845Y-19199500D01*
X45483842Y-19199500D01*
X45326158Y-19199500D01*
X45326155Y-19199500D01*
X45171510Y-19230261D01*
X45171498Y-19230264D01*
X45025827Y-19290602D01*
X45025814Y-19290609D01*
X44894711Y-19378210D01*
X44894707Y-19378213D01*
X44783213Y-19489707D01*
X44783210Y-19489711D01*
X44695609Y-19620814D01*
X44695602Y-19620827D01*
X44635264Y-19766498D01*
X44635261Y-19766510D01*
X44604500Y-19921153D01*
X38607138Y-19921153D01*
X38611566Y-19898894D01*
X38613161Y-19890875D01*
X38613161Y-19890874D01*
X38625500Y-19828844D01*
X38625500Y-19671155D01*
X38625499Y-19671153D01*
X38615486Y-19620814D01*
X38594737Y-19516503D01*
X38593011Y-19512335D01*
X38534397Y-19370827D01*
X38534390Y-19370814D01*
X38446789Y-19239711D01*
X38446786Y-19239707D01*
X38335292Y-19128213D01*
X38335288Y-19128210D01*
X38204185Y-19040609D01*
X38204172Y-19040602D01*
X38058501Y-18980264D01*
X38058489Y-18980261D01*
X37903845Y-18949500D01*
X37903842Y-18949500D01*
X37746158Y-18949500D01*
X37746155Y-18949500D01*
X37591510Y-18980261D01*
X37591498Y-18980264D01*
X37445827Y-19040602D01*
X37445814Y-19040609D01*
X37314711Y-19128210D01*
X37314707Y-19128213D01*
X37203213Y-19239707D01*
X37203210Y-19239711D01*
X37115609Y-19370814D01*
X37115602Y-19370827D01*
X37055264Y-19516498D01*
X37055261Y-19516510D01*
X37032350Y-19631691D01*
X36999965Y-19693602D01*
X36939249Y-19728176D01*
X36910733Y-19731500D01*
X36893606Y-19731500D01*
X36719641Y-19766103D01*
X36719632Y-19766106D01*
X36555759Y-19833983D01*
X36555746Y-19833990D01*
X36408265Y-19932535D01*
X36408261Y-19932538D01*
X36282838Y-20057961D01*
X36282835Y-20057965D01*
X36184290Y-20205446D01*
X36184283Y-20205459D01*
X36116406Y-20369332D01*
X36116403Y-20369341D01*
X36081800Y-20543304D01*
X26842357Y-20543304D01*
X26848380Y-20513026D01*
X26848380Y-20513024D01*
X26848924Y-20510292D01*
X26851400Y-20497842D01*
X26851400Y-20340158D01*
X26851400Y-20340155D01*
X26851399Y-20340153D01*
X26849399Y-20330098D01*
X26820637Y-20185503D01*
X26820186Y-20184414D01*
X26760297Y-20039827D01*
X26760290Y-20039814D01*
X26672689Y-19908711D01*
X26672686Y-19908707D01*
X26561192Y-19797213D01*
X26561188Y-19797210D01*
X26430085Y-19709609D01*
X26430072Y-19709602D01*
X26284401Y-19649264D01*
X26284389Y-19649261D01*
X26129745Y-19618500D01*
X26129742Y-19618500D01*
X25972058Y-19618500D01*
X25972055Y-19618500D01*
X25817410Y-19649261D01*
X25817398Y-19649264D01*
X25671727Y-19709602D01*
X25671714Y-19709609D01*
X25579995Y-19770895D01*
X25513318Y-19791773D01*
X25486912Y-19789410D01*
X25354644Y-19763100D01*
X25354642Y-19763100D01*
X25196958Y-19763100D01*
X25196955Y-19763100D01*
X25042310Y-19793861D01*
X25042298Y-19793864D01*
X24896627Y-19854202D01*
X24896614Y-19854209D01*
X24765511Y-19941810D01*
X24765507Y-19941813D01*
X24654013Y-20053307D01*
X24654010Y-20053311D01*
X24566409Y-20184414D01*
X24566402Y-20184427D01*
X24506064Y-20330098D01*
X24506061Y-20330110D01*
X24475300Y-20484753D01*
X18550759Y-20484753D01*
X18542180Y-20441629D01*
X18527237Y-20366503D01*
X18516325Y-20340158D01*
X18466897Y-20220827D01*
X18466890Y-20220814D01*
X18379289Y-20089711D01*
X18379286Y-20089707D01*
X18319012Y-20029433D01*
X18285527Y-19968110D01*
X18290511Y-19898418D01*
X18332383Y-19842485D01*
X18359236Y-19827193D01*
X18414279Y-19804394D01*
X18545389Y-19716789D01*
X18656889Y-19605289D01*
X18744494Y-19474179D01*
X18804837Y-19328497D01*
X18835600Y-19173842D01*
X18835600Y-19016158D01*
X18835600Y-19016155D01*
X18835599Y-19016153D01*
X18828460Y-18980263D01*
X18804837Y-18861503D01*
X18788243Y-18821442D01*
X18746565Y-18720820D01*
X18746564Y-18720818D01*
X18744494Y-18715821D01*
X18709703Y-18663753D01*
X21746000Y-18663753D01*
X21746000Y-18821446D01*
X21776761Y-18976089D01*
X21776764Y-18976101D01*
X21837102Y-19121772D01*
X21837109Y-19121785D01*
X21924710Y-19252888D01*
X21924713Y-19252892D01*
X22036207Y-19364386D01*
X22036211Y-19364389D01*
X22167314Y-19451990D01*
X22167327Y-19451997D01*
X22312998Y-19512335D01*
X22313003Y-19512337D01*
X22467653Y-19543099D01*
X22467656Y-19543100D01*
X22467658Y-19543100D01*
X22625344Y-19543100D01*
X22625345Y-19543099D01*
X22779997Y-19512337D01*
X22925679Y-19451994D01*
X23056789Y-19364389D01*
X23168289Y-19252889D01*
X23255894Y-19121779D01*
X23260501Y-19110658D01*
X23299643Y-19016158D01*
X23316237Y-18976097D01*
X23347000Y-18821442D01*
X23347000Y-18663758D01*
X23347000Y-18663755D01*
X23346999Y-18663753D01*
X23331276Y-18584711D01*
X23316237Y-18509103D01*
X23305416Y-18482979D01*
X23255897Y-18363427D01*
X23255890Y-18363414D01*
X23182753Y-18253957D01*
X23168289Y-18232311D01*
X23168286Y-18232307D01*
X23127132Y-18191153D01*
X26199500Y-18191153D01*
X26199500Y-18348846D01*
X26230261Y-18503489D01*
X26230264Y-18503501D01*
X26290602Y-18649172D01*
X26290609Y-18649185D01*
X26378210Y-18780288D01*
X26378213Y-18780292D01*
X26489707Y-18891786D01*
X26489711Y-18891789D01*
X26620814Y-18979390D01*
X26620827Y-18979397D01*
X26766498Y-19039735D01*
X26766503Y-19039737D01*
X26810625Y-19048513D01*
X26875291Y-19061377D01*
X26937202Y-19093762D01*
X26971776Y-19154478D01*
X26975100Y-19182994D01*
X26975100Y-19268346D01*
X27005861Y-19422989D01*
X27005864Y-19423001D01*
X27066202Y-19568672D01*
X27066209Y-19568685D01*
X27153810Y-19699788D01*
X27153813Y-19699792D01*
X27265307Y-19811286D01*
X27265311Y-19811289D01*
X27396414Y-19898890D01*
X27396427Y-19898897D01*
X27500037Y-19941813D01*
X27542103Y-19959237D01*
X27664086Y-19983501D01*
X27696753Y-19989999D01*
X27696756Y-19990000D01*
X27696758Y-19990000D01*
X27854444Y-19990000D01*
X27854445Y-19989999D01*
X28009097Y-19959237D01*
X28121766Y-19912567D01*
X28154772Y-19898897D01*
X28154772Y-19898896D01*
X28154779Y-19898894D01*
X28285889Y-19811289D01*
X28397389Y-19699789D01*
X28484994Y-19568679D01*
X28545337Y-19422997D01*
X28576100Y-19268342D01*
X28576100Y-19110658D01*
X28576100Y-19110655D01*
X28576099Y-19110653D01*
X28561992Y-19039735D01*
X28545337Y-18956003D01*
X28506192Y-18861498D01*
X28484997Y-18810327D01*
X28484990Y-18810314D01*
X28397389Y-18679211D01*
X28397386Y-18679207D01*
X28285892Y-18567713D01*
X28285888Y-18567710D01*
X28154785Y-18480109D01*
X28154772Y-18480102D01*
X28009101Y-18419764D01*
X28009091Y-18419761D01*
X27900308Y-18398122D01*
X27838397Y-18365736D01*
X27803823Y-18305020D01*
X27800500Y-18276505D01*
X27800500Y-18191155D01*
X27800499Y-18191153D01*
X27786507Y-18120810D01*
X27769737Y-18036503D01*
X27737796Y-17959390D01*
X27721958Y-17921153D01*
X28999500Y-17921153D01*
X28999500Y-18078846D01*
X29030261Y-18233489D01*
X29030264Y-18233501D01*
X29090602Y-18379172D01*
X29090609Y-18379185D01*
X29178210Y-18510288D01*
X29178213Y-18510292D01*
X29289707Y-18621786D01*
X29289711Y-18621789D01*
X29420814Y-18709390D01*
X29420827Y-18709397D01*
X29566498Y-18769735D01*
X29566503Y-18769737D01*
X29721153Y-18800499D01*
X29721156Y-18800500D01*
X29721158Y-18800500D01*
X29878844Y-18800500D01*
X29878845Y-18800499D01*
X30033497Y-18769737D01*
X30179179Y-18709394D01*
X30310289Y-18621789D01*
X30421789Y-18510289D01*
X30509394Y-18379179D01*
X30569737Y-18233497D01*
X30600500Y-18078842D01*
X30600500Y-17921158D01*
X30600500Y-17921155D01*
X30600499Y-17921153D01*
X30594875Y-17892879D01*
X30569737Y-17766503D01*
X30568014Y-17762344D01*
X30509397Y-17620827D01*
X30509390Y-17620814D01*
X30421789Y-17489711D01*
X30421786Y-17489707D01*
X30310292Y-17378213D01*
X30310288Y-17378210D01*
X30179185Y-17290609D01*
X30179173Y-17290602D01*
X30152674Y-17279627D01*
X30033501Y-17230264D01*
X30033489Y-17230261D01*
X29878845Y-17199500D01*
X29878842Y-17199500D01*
X29721158Y-17199500D01*
X29721155Y-17199500D01*
X29566510Y-17230261D01*
X29566498Y-17230264D01*
X29420827Y-17290602D01*
X29420814Y-17290609D01*
X29289711Y-17378210D01*
X29289707Y-17378213D01*
X29178213Y-17489707D01*
X29178210Y-17489711D01*
X29090609Y-17620814D01*
X29090602Y-17620827D01*
X29030264Y-17766498D01*
X29030261Y-17766510D01*
X28999500Y-17921153D01*
X27721958Y-17921153D01*
X27709397Y-17890827D01*
X27709390Y-17890814D01*
X27621789Y-17759711D01*
X27621786Y-17759707D01*
X27510292Y-17648213D01*
X27510288Y-17648210D01*
X27379185Y-17560609D01*
X27379172Y-17560602D01*
X27233501Y-17500264D01*
X27233489Y-17500261D01*
X27078845Y-17469500D01*
X27078842Y-17469500D01*
X26921158Y-17469500D01*
X26921155Y-17469500D01*
X26766510Y-17500261D01*
X26766498Y-17500264D01*
X26620827Y-17560602D01*
X26620814Y-17560609D01*
X26489711Y-17648210D01*
X26489707Y-17648213D01*
X26378213Y-17759707D01*
X26378210Y-17759711D01*
X26290609Y-17890814D01*
X26290602Y-17890827D01*
X26230264Y-18036498D01*
X26230261Y-18036510D01*
X26199500Y-18191153D01*
X23127132Y-18191153D01*
X23056792Y-18120813D01*
X23056788Y-18120810D01*
X22925685Y-18033209D01*
X22925672Y-18033202D01*
X22780001Y-17972864D01*
X22779989Y-17972861D01*
X22625345Y-17942100D01*
X22625342Y-17942100D01*
X22467658Y-17942100D01*
X22467655Y-17942100D01*
X22313010Y-17972861D01*
X22312998Y-17972864D01*
X22167327Y-18033202D01*
X22167314Y-18033209D01*
X22036211Y-18120810D01*
X22036207Y-18120813D01*
X21924713Y-18232307D01*
X21924710Y-18232311D01*
X21837109Y-18363414D01*
X21837102Y-18363427D01*
X21776764Y-18509098D01*
X21776761Y-18509110D01*
X21746000Y-18663753D01*
X18709703Y-18663753D01*
X18656889Y-18584711D01*
X18619431Y-18547253D01*
X18613805Y-18539572D01*
X18605040Y-18515303D01*
X18592674Y-18492657D01*
X18593366Y-18482979D01*
X18590071Y-18473857D01*
X18595817Y-18448704D01*
X18597658Y-18422965D01*
X18603925Y-18413213D01*
X18605632Y-18405743D01*
X18613983Y-18397563D01*
X18626159Y-18378618D01*
X18669489Y-18335289D01*
X18757094Y-18204179D01*
X18817437Y-18058497D01*
X18848200Y-17903842D01*
X18848200Y-17746158D01*
X18848200Y-17746155D01*
X18848199Y-17746153D01*
X18823270Y-17620827D01*
X18817437Y-17591503D01*
X18804639Y-17560606D01*
X18769704Y-17476264D01*
X18769699Y-17476254D01*
X18757094Y-17445821D01*
X18757092Y-17445818D01*
X18757090Y-17445814D01*
X18749766Y-17434853D01*
X20157000Y-17434853D01*
X20157000Y-17592546D01*
X20187761Y-17747189D01*
X20187764Y-17747201D01*
X20248102Y-17892872D01*
X20248109Y-17892885D01*
X20335710Y-18023988D01*
X20335713Y-18023992D01*
X20447207Y-18135486D01*
X20447211Y-18135489D01*
X20578314Y-18223090D01*
X20578327Y-18223097D01*
X20723998Y-18283435D01*
X20724003Y-18283437D01*
X20833845Y-18305286D01*
X20878653Y-18314199D01*
X20878656Y-18314200D01*
X20878658Y-18314200D01*
X21036344Y-18314200D01*
X21036345Y-18314199D01*
X21190997Y-18283437D01*
X21336679Y-18223094D01*
X21467789Y-18135489D01*
X21579289Y-18023989D01*
X21666894Y-17892879D01*
X21667747Y-17890821D01*
X21720963Y-17762344D01*
X21727237Y-17747197D01*
X21758000Y-17592542D01*
X21758000Y-17434858D01*
X21758000Y-17434855D01*
X21757999Y-17434853D01*
X21727237Y-17280203D01*
X21718990Y-17260292D01*
X21666897Y-17134527D01*
X21666890Y-17134514D01*
X21579289Y-17003411D01*
X21579286Y-17003407D01*
X21467792Y-16891913D01*
X21467788Y-16891910D01*
X21336685Y-16804309D01*
X21336672Y-16804302D01*
X21277099Y-16779627D01*
X21191001Y-16743964D01*
X21190989Y-16743961D01*
X21036345Y-16713200D01*
X21036342Y-16713200D01*
X20878658Y-16713200D01*
X20878655Y-16713200D01*
X20724010Y-16743961D01*
X20723998Y-16743964D01*
X20578327Y-16804302D01*
X20578314Y-16804309D01*
X20447211Y-16891910D01*
X20447207Y-16891913D01*
X20335713Y-17003407D01*
X20335710Y-17003411D01*
X20248109Y-17134514D01*
X20248102Y-17134527D01*
X20187764Y-17280198D01*
X20187761Y-17280210D01*
X20157000Y-17434853D01*
X18749766Y-17434853D01*
X18669489Y-17314711D01*
X18669486Y-17314707D01*
X18632410Y-17277632D01*
X18598924Y-17216310D01*
X18603908Y-17146618D01*
X18632410Y-17102268D01*
X18669386Y-17065292D01*
X18669389Y-17065289D01*
X18756994Y-16934179D01*
X18817337Y-16788497D01*
X18840678Y-16671153D01*
X22219500Y-16671153D01*
X22219500Y-16828846D01*
X22250261Y-16983489D01*
X22250264Y-16983501D01*
X22310602Y-17129172D01*
X22310609Y-17129185D01*
X22398210Y-17260288D01*
X22398213Y-17260292D01*
X22509707Y-17371786D01*
X22509711Y-17371789D01*
X22640814Y-17459390D01*
X22640827Y-17459397D01*
X22786498Y-17519735D01*
X22786503Y-17519737D01*
X22941153Y-17550499D01*
X22941156Y-17550500D01*
X22941158Y-17550500D01*
X23098844Y-17550500D01*
X23098845Y-17550499D01*
X23253497Y-17519737D01*
X23399179Y-17459394D01*
X23530289Y-17371789D01*
X23641789Y-17260289D01*
X23701348Y-17171153D01*
X35449500Y-17171153D01*
X35449500Y-17328846D01*
X35480261Y-17483489D01*
X35480264Y-17483501D01*
X35540602Y-17629172D01*
X35540609Y-17629185D01*
X35628210Y-17760288D01*
X35628213Y-17760292D01*
X35739707Y-17871786D01*
X35739711Y-17871789D01*
X35870814Y-17959390D01*
X35870827Y-17959397D01*
X36016498Y-18019735D01*
X36016503Y-18019737D01*
X36171153Y-18050499D01*
X36171156Y-18050500D01*
X36171158Y-18050500D01*
X36328844Y-18050500D01*
X36328845Y-18050499D01*
X36483497Y-18019737D01*
X36629179Y-17959394D01*
X36760289Y-17871789D01*
X36871789Y-17760289D01*
X36959394Y-17629179D01*
X36962854Y-17620827D01*
X36991984Y-17550499D01*
X37019737Y-17483497D01*
X37050500Y-17328842D01*
X37050500Y-17171158D01*
X37050500Y-17171155D01*
X37050499Y-17171153D01*
X37045619Y-17146618D01*
X37019737Y-17016503D01*
X36985635Y-16934172D01*
X36959397Y-16870827D01*
X36959390Y-16870814D01*
X36871789Y-16739711D01*
X36871786Y-16739707D01*
X36760292Y-16628213D01*
X36760288Y-16628210D01*
X36629185Y-16540609D01*
X36629172Y-16540602D01*
X36483501Y-16480264D01*
X36483489Y-16480261D01*
X36328845Y-16449500D01*
X36328842Y-16449500D01*
X36171158Y-16449500D01*
X36171155Y-16449500D01*
X36016510Y-16480261D01*
X36016498Y-16480264D01*
X35870827Y-16540602D01*
X35870814Y-16540609D01*
X35739711Y-16628210D01*
X35739707Y-16628213D01*
X35628213Y-16739707D01*
X35628210Y-16739711D01*
X35540609Y-16870814D01*
X35540602Y-16870827D01*
X35480264Y-17016498D01*
X35480261Y-17016510D01*
X35449500Y-17171153D01*
X23701348Y-17171153D01*
X23729394Y-17129179D01*
X23789737Y-16983497D01*
X23820500Y-16828842D01*
X23820500Y-16671158D01*
X23820500Y-16671155D01*
X23820499Y-16671153D01*
X23808894Y-16612807D01*
X23815121Y-16543216D01*
X23857984Y-16488038D01*
X23883048Y-16474060D01*
X24003679Y-16424094D01*
X24134789Y-16336489D01*
X24246289Y-16224989D01*
X24333894Y-16093879D01*
X24394237Y-15948197D01*
X24425000Y-15793542D01*
X24425000Y-15635858D01*
X24425000Y-15635855D01*
X24424999Y-15635853D01*
X24401655Y-15518497D01*
X24394237Y-15481203D01*
X24338525Y-15346701D01*
X24333897Y-15335527D01*
X24333890Y-15335514D01*
X24246289Y-15204411D01*
X24246286Y-15204407D01*
X24134792Y-15092913D01*
X24134788Y-15092910D01*
X24047152Y-15034353D01*
X30606300Y-15034353D01*
X30606300Y-15192046D01*
X30637061Y-15346689D01*
X30637064Y-15346701D01*
X30697402Y-15492372D01*
X30697409Y-15492385D01*
X30785010Y-15623488D01*
X30785013Y-15623492D01*
X30896507Y-15734986D01*
X30896511Y-15734989D01*
X31027614Y-15822590D01*
X31027627Y-15822597D01*
X31173298Y-15882935D01*
X31173303Y-15882937D01*
X31320829Y-15912282D01*
X31327953Y-15913699D01*
X31327956Y-15913700D01*
X31327958Y-15913700D01*
X31485644Y-15913700D01*
X31485645Y-15913699D01*
X31640297Y-15882937D01*
X31785979Y-15822594D01*
X31917089Y-15734989D01*
X32028589Y-15623489D01*
X32116194Y-15492379D01*
X32176537Y-15346697D01*
X32207300Y-15192042D01*
X32207300Y-15063504D01*
X33994400Y-15063504D01*
X33994400Y-15240895D01*
X34029003Y-15414858D01*
X34029006Y-15414867D01*
X34096883Y-15578740D01*
X34096890Y-15578753D01*
X34195435Y-15726234D01*
X34195438Y-15726238D01*
X34320861Y-15851661D01*
X34320865Y-15851664D01*
X34468346Y-15950209D01*
X34468359Y-15950216D01*
X34579208Y-15996130D01*
X34632234Y-16018094D01*
X34632236Y-16018094D01*
X34632241Y-16018096D01*
X34806204Y-16052699D01*
X34806207Y-16052700D01*
X34806209Y-16052700D01*
X34983593Y-16052700D01*
X34983594Y-16052699D01*
X35044401Y-16040604D01*
X35157558Y-16018096D01*
X35157561Y-16018094D01*
X35157566Y-16018094D01*
X35316978Y-15952064D01*
X35321440Y-15950216D01*
X35321440Y-15950215D01*
X35321447Y-15950213D01*
X35468935Y-15851664D01*
X35594364Y-15726235D01*
X35692913Y-15578747D01*
X35760794Y-15414866D01*
X35770944Y-15363842D01*
X35795399Y-15240895D01*
X35795400Y-15240893D01*
X35795400Y-15163904D01*
X38531300Y-15163904D01*
X38531300Y-15341295D01*
X38565903Y-15515258D01*
X38565906Y-15515267D01*
X38633783Y-15679140D01*
X38633790Y-15679153D01*
X38732335Y-15826634D01*
X38732338Y-15826638D01*
X38857761Y-15952061D01*
X38857765Y-15952064D01*
X39005246Y-16050609D01*
X39005259Y-16050616D01*
X39109707Y-16093879D01*
X39169134Y-16118494D01*
X39169136Y-16118494D01*
X39169141Y-16118496D01*
X39343104Y-16153099D01*
X39343107Y-16153100D01*
X39343109Y-16153100D01*
X39520493Y-16153100D01*
X39520494Y-16153099D01*
X39578482Y-16141564D01*
X39694458Y-16118496D01*
X39694461Y-16118494D01*
X39694466Y-16118494D01*
X39834335Y-16060558D01*
X39858340Y-16050616D01*
X39858340Y-16050615D01*
X39858347Y-16050613D01*
X40005835Y-15952064D01*
X40131264Y-15826635D01*
X40229813Y-15679147D01*
X40297694Y-15515266D01*
X40302246Y-15492385D01*
X40320764Y-15399282D01*
X40332300Y-15341291D01*
X40332300Y-15163909D01*
X40332300Y-15163906D01*
X40332299Y-15163904D01*
X40297696Y-14989941D01*
X40297693Y-14989932D01*
X40229816Y-14826059D01*
X40229809Y-14826046D01*
X40131264Y-14678565D01*
X40131261Y-14678561D01*
X40005838Y-14553138D01*
X40005834Y-14553135D01*
X39858353Y-14454590D01*
X39858340Y-14454583D01*
X39694467Y-14386706D01*
X39694458Y-14386703D01*
X39520494Y-14352100D01*
X39520491Y-14352100D01*
X39343109Y-14352100D01*
X39343106Y-14352100D01*
X39169141Y-14386703D01*
X39169132Y-14386706D01*
X39005259Y-14454583D01*
X39005246Y-14454590D01*
X38857765Y-14553135D01*
X38857761Y-14553138D01*
X38732338Y-14678561D01*
X38732335Y-14678565D01*
X38633790Y-14826046D01*
X38633783Y-14826059D01*
X38565906Y-14989932D01*
X38565903Y-14989941D01*
X38531300Y-15163904D01*
X35795400Y-15163904D01*
X35795400Y-15063506D01*
X35795399Y-15063504D01*
X35760796Y-14889541D01*
X35760793Y-14889532D01*
X35692916Y-14725659D01*
X35692909Y-14725646D01*
X35594364Y-14578165D01*
X35594361Y-14578161D01*
X35468938Y-14452738D01*
X35468934Y-14452735D01*
X35321453Y-14354190D01*
X35321440Y-14354183D01*
X35157567Y-14286306D01*
X35157558Y-14286303D01*
X34983594Y-14251700D01*
X34983591Y-14251700D01*
X34806209Y-14251700D01*
X34806206Y-14251700D01*
X34632241Y-14286303D01*
X34632232Y-14286306D01*
X34468359Y-14354183D01*
X34468346Y-14354190D01*
X34320865Y-14452735D01*
X34320861Y-14452738D01*
X34195438Y-14578161D01*
X34195435Y-14578165D01*
X34096890Y-14725646D01*
X34096883Y-14725659D01*
X34029006Y-14889532D01*
X34029003Y-14889541D01*
X33994400Y-15063504D01*
X32207300Y-15063504D01*
X32207300Y-15034358D01*
X32207300Y-15034355D01*
X32207299Y-15034353D01*
X32189518Y-14944963D01*
X32176537Y-14879703D01*
X32154312Y-14826046D01*
X32116197Y-14734027D01*
X32116190Y-14734014D01*
X32028589Y-14602911D01*
X32028586Y-14602907D01*
X31917092Y-14491413D01*
X31917088Y-14491410D01*
X31785985Y-14403809D01*
X31785972Y-14403802D01*
X31640301Y-14343464D01*
X31640289Y-14343461D01*
X31485645Y-14312700D01*
X31485642Y-14312700D01*
X31327958Y-14312700D01*
X31327955Y-14312700D01*
X31173310Y-14343461D01*
X31173298Y-14343464D01*
X31027627Y-14403802D01*
X31027614Y-14403809D01*
X30896511Y-14491410D01*
X30896507Y-14491413D01*
X30785013Y-14602907D01*
X30785010Y-14602911D01*
X30697409Y-14734014D01*
X30697402Y-14734027D01*
X30637064Y-14879698D01*
X30637061Y-14879710D01*
X30606300Y-15034353D01*
X24047152Y-15034353D01*
X24003685Y-15005309D01*
X24003672Y-15005302D01*
X23858001Y-14944964D01*
X23857989Y-14944961D01*
X23703345Y-14914200D01*
X23703342Y-14914200D01*
X23545658Y-14914200D01*
X23545655Y-14914200D01*
X23391010Y-14944961D01*
X23390998Y-14944964D01*
X23245327Y-15005302D01*
X23245314Y-15005309D01*
X23114211Y-15092910D01*
X23114207Y-15092913D01*
X23002713Y-15204407D01*
X23002710Y-15204411D01*
X22915109Y-15335514D01*
X22915102Y-15335527D01*
X22854764Y-15481198D01*
X22854761Y-15481210D01*
X22824000Y-15635853D01*
X22824000Y-15635858D01*
X22824000Y-15793542D01*
X22824001Y-15793546D01*
X22835606Y-15851892D01*
X22829377Y-15921483D01*
X22786514Y-15976660D01*
X22761441Y-15990643D01*
X22640824Y-16040604D01*
X22640814Y-16040609D01*
X22509711Y-16128210D01*
X22509707Y-16128213D01*
X22398213Y-16239707D01*
X22398210Y-16239711D01*
X22310609Y-16370814D01*
X22310602Y-16370827D01*
X22250264Y-16516498D01*
X22250261Y-16516510D01*
X22219500Y-16671153D01*
X18840678Y-16671153D01*
X18848100Y-16633842D01*
X18848100Y-16476158D01*
X18848100Y-16476155D01*
X18848099Y-16476153D01*
X18827147Y-16370821D01*
X18817337Y-16321503D01*
X18783458Y-16239711D01*
X18756997Y-16175827D01*
X18756990Y-16175814D01*
X18669389Y-16044711D01*
X18669386Y-16044707D01*
X18620809Y-15996130D01*
X18587324Y-15934807D01*
X18592308Y-15865115D01*
X18620810Y-15820767D01*
X18646289Y-15795289D01*
X18733894Y-15664179D01*
X18794237Y-15518497D01*
X18825000Y-15363842D01*
X18825000Y-15206158D01*
X18825000Y-15206155D01*
X18824999Y-15206153D01*
X18822193Y-15192046D01*
X18794237Y-15051503D01*
X18775100Y-15005302D01*
X18733897Y-14905827D01*
X18733890Y-14905814D01*
X18646289Y-14774711D01*
X18646286Y-14774707D01*
X18534792Y-14663213D01*
X18534788Y-14663210D01*
X18403685Y-14575609D01*
X18403672Y-14575602D01*
X18258001Y-14515264D01*
X18257989Y-14515261D01*
X18103345Y-14484500D01*
X18103342Y-14484500D01*
X17945658Y-14484500D01*
X17945655Y-14484500D01*
X17791010Y-14515261D01*
X17791007Y-14515262D01*
X17791006Y-14515262D01*
X17791003Y-14515263D01*
X17736029Y-14538034D01*
X17666559Y-14545502D01*
X17604080Y-14514226D01*
X17568428Y-14454137D01*
X17570923Y-14384312D01*
X17574009Y-14376035D01*
X17605278Y-14300543D01*
X17649117Y-14246144D01*
X17672386Y-14233437D01*
X17673589Y-14232938D01*
X17673597Y-14232937D01*
X17819279Y-14172594D01*
X17950389Y-14084989D01*
X18061889Y-13973489D01*
X18096859Y-13921153D01*
X28219500Y-13921153D01*
X28219500Y-14078846D01*
X28250261Y-14233489D01*
X28250264Y-14233501D01*
X28310602Y-14379172D01*
X28310609Y-14379185D01*
X28398210Y-14510288D01*
X28398213Y-14510292D01*
X28509707Y-14621786D01*
X28509711Y-14621789D01*
X28640814Y-14709390D01*
X28640827Y-14709397D01*
X28749710Y-14754497D01*
X28786503Y-14769737D01*
X28941153Y-14800499D01*
X28941156Y-14800500D01*
X28941158Y-14800500D01*
X29098844Y-14800500D01*
X29098845Y-14800499D01*
X29253497Y-14769737D01*
X29399179Y-14709394D01*
X29530289Y-14621789D01*
X29641789Y-14510289D01*
X29729394Y-14379179D01*
X29730703Y-14376020D01*
X29769812Y-14281600D01*
X29789737Y-14233497D01*
X29820500Y-14078842D01*
X29820500Y-13921158D01*
X29820500Y-13921155D01*
X29820499Y-13921153D01*
X29789737Y-13766503D01*
X29768234Y-13714589D01*
X29729397Y-13620827D01*
X29729390Y-13620814D01*
X29641789Y-13489711D01*
X29641786Y-13489707D01*
X29530292Y-13378213D01*
X29530288Y-13378210D01*
X29399185Y-13290609D01*
X29399172Y-13290602D01*
X29253501Y-13230264D01*
X29253489Y-13230261D01*
X29098845Y-13199500D01*
X29098842Y-13199500D01*
X28941158Y-13199500D01*
X28941155Y-13199500D01*
X28786510Y-13230261D01*
X28786498Y-13230264D01*
X28640827Y-13290602D01*
X28640814Y-13290609D01*
X28509711Y-13378210D01*
X28509707Y-13378213D01*
X28398213Y-13489707D01*
X28398210Y-13489711D01*
X28310609Y-13620814D01*
X28310602Y-13620827D01*
X28250264Y-13766498D01*
X28250261Y-13766510D01*
X28219500Y-13921153D01*
X18096859Y-13921153D01*
X18136935Y-13861175D01*
X18146958Y-13846175D01*
X18146958Y-13846174D01*
X18146959Y-13846173D01*
X18147208Y-13845799D01*
X18149494Y-13842379D01*
X18209837Y-13696697D01*
X18240600Y-13542042D01*
X18240600Y-13384358D01*
X18240600Y-13384355D01*
X18240599Y-13384353D01*
X18238928Y-13375953D01*
X18209837Y-13229703D01*
X18197327Y-13199500D01*
X18149497Y-13084027D01*
X18149490Y-13084014D01*
X18113805Y-13030608D01*
X18071840Y-12967804D01*
X30170800Y-12967804D01*
X30170800Y-13145195D01*
X30205403Y-13319158D01*
X30205406Y-13319167D01*
X30273283Y-13483040D01*
X30273290Y-13483053D01*
X30371835Y-13630534D01*
X30371838Y-13630538D01*
X30497261Y-13755961D01*
X30497265Y-13755964D01*
X30644746Y-13854509D01*
X30644759Y-13854516D01*
X30767663Y-13905423D01*
X30808634Y-13922394D01*
X30808636Y-13922394D01*
X30808641Y-13922396D01*
X30982604Y-13956999D01*
X30982607Y-13957000D01*
X30982609Y-13957000D01*
X31159993Y-13957000D01*
X31159994Y-13956999D01*
X31217982Y-13945464D01*
X31333958Y-13922396D01*
X31333961Y-13922394D01*
X31333966Y-13922394D01*
X31483912Y-13860285D01*
X31497840Y-13854516D01*
X31497840Y-13854515D01*
X31497847Y-13854513D01*
X31645335Y-13755964D01*
X31770764Y-13630535D01*
X31869313Y-13483047D01*
X31937194Y-13319166D01*
X31939892Y-13305606D01*
X31971799Y-13145195D01*
X31971800Y-13145193D01*
X31971800Y-12967806D01*
X31971799Y-12967804D01*
X31937196Y-12793841D01*
X31937193Y-12793832D01*
X31869316Y-12629959D01*
X31869309Y-12629946D01*
X31770764Y-12482465D01*
X31770761Y-12482461D01*
X31645338Y-12357038D01*
X31645334Y-12357035D01*
X31497853Y-12258490D01*
X31497840Y-12258483D01*
X31333967Y-12190606D01*
X31333958Y-12190603D01*
X31159994Y-12156000D01*
X31159991Y-12156000D01*
X30982609Y-12156000D01*
X30982606Y-12156000D01*
X30808641Y-12190603D01*
X30808632Y-12190606D01*
X30644759Y-12258483D01*
X30644746Y-12258490D01*
X30497265Y-12357035D01*
X30497261Y-12357038D01*
X30371838Y-12482461D01*
X30371835Y-12482465D01*
X30273290Y-12629946D01*
X30273283Y-12629959D01*
X30205406Y-12793832D01*
X30205403Y-12793841D01*
X30170800Y-12967804D01*
X18071840Y-12967804D01*
X18061889Y-12952911D01*
X18061886Y-12952907D01*
X17950392Y-12841413D01*
X17950388Y-12841410D01*
X17819285Y-12753809D01*
X17819272Y-12753802D01*
X17673601Y-12693464D01*
X17673589Y-12693461D01*
X17518945Y-12662700D01*
X17518942Y-12662700D01*
X17361258Y-12662700D01*
X17361255Y-12662700D01*
X17206610Y-12693461D01*
X17206598Y-12693464D01*
X17060927Y-12753802D01*
X17060914Y-12753809D01*
X16929811Y-12841410D01*
X16929807Y-12841413D01*
X16818313Y-12952907D01*
X16818310Y-12952911D01*
X16730709Y-13084014D01*
X16730704Y-13084024D01*
X16691922Y-13177653D01*
X16648081Y-13232056D01*
X16624814Y-13244761D01*
X16477923Y-13305604D01*
X16477914Y-13305609D01*
X16346811Y-13393210D01*
X16346807Y-13393213D01*
X16235313Y-13504707D01*
X16235310Y-13504711D01*
X16147709Y-13635814D01*
X16147702Y-13635827D01*
X16087364Y-13781498D01*
X16087361Y-13781510D01*
X16056600Y-13936153D01*
X12214123Y-13936153D01*
X12226244Y-13918012D01*
X12264223Y-13861175D01*
X12264224Y-13861173D01*
X12282387Y-13833990D01*
X12282390Y-13833985D01*
X12282394Y-13833979D01*
X12342737Y-13688297D01*
X12373500Y-13533642D01*
X12373500Y-13375958D01*
X12373500Y-13375955D01*
X12373499Y-13375953D01*
X12362202Y-13319158D01*
X12342737Y-13221303D01*
X12324657Y-13177653D01*
X12282397Y-13075627D01*
X12282390Y-13075614D01*
X12194789Y-12944511D01*
X12194786Y-12944507D01*
X12083292Y-12833013D01*
X12083288Y-12833010D01*
X11952185Y-12745409D01*
X11952172Y-12745402D01*
X11806501Y-12685064D01*
X11806489Y-12685061D01*
X11651845Y-12654300D01*
X11651842Y-12654300D01*
X11494158Y-12654300D01*
X11494155Y-12654300D01*
X11339510Y-12685061D01*
X11339498Y-12685064D01*
X11193827Y-12745402D01*
X11193814Y-12745409D01*
X11062711Y-12833010D01*
X11062707Y-12833013D01*
X10951213Y-12944507D01*
X10951210Y-12944511D01*
X10863609Y-13075614D01*
X10863602Y-13075627D01*
X10803264Y-13221298D01*
X10803261Y-13221310D01*
X10772500Y-13375953D01*
X9905267Y-13375953D01*
X9891275Y-13305609D01*
X9879737Y-13247603D01*
X9837317Y-13145191D01*
X9819397Y-13101927D01*
X9819390Y-13101914D01*
X9731789Y-12970811D01*
X9731786Y-12970807D01*
X9620292Y-12859313D01*
X9620288Y-12859310D01*
X9489185Y-12771709D01*
X9489172Y-12771702D01*
X9343501Y-12711364D01*
X9343489Y-12711361D01*
X9188845Y-12680600D01*
X9188842Y-12680600D01*
X9031158Y-12680600D01*
X9031155Y-12680600D01*
X8876510Y-12711361D01*
X8876498Y-12711364D01*
X8730827Y-12771702D01*
X8730814Y-12771709D01*
X8599711Y-12859310D01*
X8599707Y-12859313D01*
X8488213Y-12970807D01*
X8488210Y-12970811D01*
X8400609Y-13101914D01*
X8400602Y-13101927D01*
X8340264Y-13247598D01*
X8340261Y-13247610D01*
X8309500Y-13402253D01*
X300500Y-13402253D01*
X300500Y-10951753D01*
X2425100Y-10951753D01*
X2425100Y-11109446D01*
X2455861Y-11264089D01*
X2455864Y-11264101D01*
X2516202Y-11409772D01*
X2516209Y-11409785D01*
X2603810Y-11540888D01*
X2603813Y-11540892D01*
X2715307Y-11652386D01*
X2715311Y-11652389D01*
X2846414Y-11739990D01*
X2846427Y-11739997D01*
X2992098Y-11800335D01*
X2992103Y-11800337D01*
X3135190Y-11828799D01*
X3146753Y-11831099D01*
X3146756Y-11831100D01*
X3146758Y-11831100D01*
X3304444Y-11831100D01*
X3304445Y-11831099D01*
X3459097Y-11800337D01*
X3604779Y-11739994D01*
X3735889Y-11652389D01*
X3786492Y-11601786D01*
X3849119Y-11539160D01*
X3910442Y-11505675D01*
X3980134Y-11510659D01*
X4024481Y-11539160D01*
X4140007Y-11654686D01*
X4140011Y-11654689D01*
X4271114Y-11742290D01*
X4271127Y-11742297D01*
X4416798Y-11802635D01*
X4416803Y-11802637D01*
X4559890Y-11831099D01*
X4571453Y-11833399D01*
X4571456Y-11833400D01*
X4571458Y-11833400D01*
X4729144Y-11833400D01*
X4729145Y-11833399D01*
X4883797Y-11802637D01*
X4996466Y-11755967D01*
X5029472Y-11742297D01*
X5029472Y-11742296D01*
X5029479Y-11742294D01*
X5160589Y-11654689D01*
X5272089Y-11543189D01*
X5359694Y-11412079D01*
X5420037Y-11266397D01*
X5450800Y-11111742D01*
X5450800Y-10954058D01*
X5450800Y-10954055D01*
X5450799Y-10954053D01*
X5450342Y-10951758D01*
X5449884Y-10949453D01*
X13565000Y-10949453D01*
X13565000Y-11107146D01*
X13595761Y-11261789D01*
X13595764Y-11261801D01*
X13656102Y-11407472D01*
X13656109Y-11407485D01*
X13743710Y-11538588D01*
X13743713Y-11538592D01*
X13855207Y-11650086D01*
X13855211Y-11650089D01*
X13986314Y-11737690D01*
X13986327Y-11737697D01*
X14131998Y-11798035D01*
X14132003Y-11798037D01*
X14286653Y-11828799D01*
X14286656Y-11828800D01*
X14286658Y-11828800D01*
X14444344Y-11828800D01*
X14444345Y-11828799D01*
X14598997Y-11798037D01*
X14744679Y-11737694D01*
X14875789Y-11650089D01*
X14987289Y-11538589D01*
X15074894Y-11407479D01*
X15135237Y-11261797D01*
X15166000Y-11107142D01*
X15166000Y-10949458D01*
X15166000Y-10949455D01*
X15165999Y-10949453D01*
X15147926Y-10858591D01*
X15154153Y-10789000D01*
X15197016Y-10733822D01*
X15262906Y-10710578D01*
X15269543Y-10710400D01*
X15351744Y-10710400D01*
X15351745Y-10710399D01*
X15506397Y-10679637D01*
X15638646Y-10624858D01*
X15652072Y-10619297D01*
X15652072Y-10619296D01*
X15652079Y-10619294D01*
X15783189Y-10531689D01*
X15830706Y-10484172D01*
X15892029Y-10450686D01*
X15961720Y-10455670D01*
X16017654Y-10497541D01*
X16042072Y-10563005D01*
X16032949Y-10619304D01*
X15980264Y-10746498D01*
X15980261Y-10746510D01*
X15949500Y-10901153D01*
X15949500Y-11058846D01*
X15980261Y-11213489D01*
X15980264Y-11213501D01*
X16040602Y-11359172D01*
X16040609Y-11359185D01*
X16128210Y-11490288D01*
X16128213Y-11490292D01*
X16239707Y-11601786D01*
X16239711Y-11601789D01*
X16370814Y-11689390D01*
X16370827Y-11689397D01*
X16492971Y-11739990D01*
X16516503Y-11749737D01*
X16671153Y-11780499D01*
X16671156Y-11780500D01*
X16671158Y-11780500D01*
X16828844Y-11780500D01*
X16828845Y-11780499D01*
X16983497Y-11749737D01*
X17129179Y-11689394D01*
X17260289Y-11601789D01*
X17371789Y-11490289D01*
X17459394Y-11359179D01*
X17519737Y-11213497D01*
X17534219Y-11140694D01*
X17536117Y-11131153D01*
X19199500Y-11131153D01*
X19199500Y-11288846D01*
X19230261Y-11443489D01*
X19230264Y-11443501D01*
X19290602Y-11589172D01*
X19290609Y-11589185D01*
X19378210Y-11720288D01*
X19378213Y-11720292D01*
X19489707Y-11831786D01*
X19489711Y-11831789D01*
X19620814Y-11919390D01*
X19620827Y-11919397D01*
X19766498Y-11979735D01*
X19766503Y-11979737D01*
X19920092Y-12010288D01*
X19921153Y-12010499D01*
X19921156Y-12010500D01*
X19921158Y-12010500D01*
X20078844Y-12010500D01*
X20078845Y-12010499D01*
X20233497Y-11979737D01*
X20379179Y-11919394D01*
X20510289Y-11831789D01*
X20621789Y-11720289D01*
X20709394Y-11589179D01*
X20769737Y-11443497D01*
X20786509Y-11359179D01*
X20794173Y-11320653D01*
X21055800Y-11320653D01*
X21055800Y-11478346D01*
X21086561Y-11632989D01*
X21086564Y-11633001D01*
X21146902Y-11778672D01*
X21146909Y-11778685D01*
X21234510Y-11909788D01*
X21234513Y-11909792D01*
X21346007Y-12021286D01*
X21346011Y-12021289D01*
X21477114Y-12108890D01*
X21477127Y-12108897D01*
X21622798Y-12169235D01*
X21622803Y-12169237D01*
X21777453Y-12199999D01*
X21777456Y-12200000D01*
X21777458Y-12200000D01*
X21935144Y-12200000D01*
X21935145Y-12199999D01*
X22089797Y-12169237D01*
X22235479Y-12108894D01*
X22366589Y-12021289D01*
X22478089Y-11909789D01*
X22565694Y-11778679D01*
X22626037Y-11632997D01*
X22630736Y-11609373D01*
X22663118Y-11547463D01*
X22723833Y-11512887D01*
X22728102Y-11511958D01*
X22780997Y-11501437D01*
X22926679Y-11441094D01*
X23057789Y-11353489D01*
X23169289Y-11241989D01*
X23182244Y-11222599D01*
X23235854Y-11177795D01*
X23305179Y-11169085D01*
X23332794Y-11176926D01*
X23391003Y-11201037D01*
X23499412Y-11222601D01*
X23545653Y-11231799D01*
X23545656Y-11231800D01*
X23545658Y-11231800D01*
X23703344Y-11231800D01*
X23703345Y-11231799D01*
X23857997Y-11201037D01*
X24003679Y-11140694D01*
X24134789Y-11053089D01*
X24246289Y-10941589D01*
X24333894Y-10810479D01*
X24339435Y-10797103D01*
X24360391Y-10746510D01*
X24394237Y-10664797D01*
X24414485Y-10563005D01*
X24423801Y-10516173D01*
X24456186Y-10454262D01*
X24497964Y-10425803D01*
X24506679Y-10422194D01*
X24611054Y-10352453D01*
X28936300Y-10352453D01*
X28936300Y-10510146D01*
X28967061Y-10664789D01*
X28967064Y-10664801D01*
X29027402Y-10810472D01*
X29027409Y-10810485D01*
X29115010Y-10941588D01*
X29115013Y-10941592D01*
X29226507Y-11053086D01*
X29226511Y-11053089D01*
X29357614Y-11140690D01*
X29357627Y-11140697D01*
X29426163Y-11169085D01*
X29503303Y-11201037D01*
X29611712Y-11222601D01*
X29657953Y-11231799D01*
X29657956Y-11231800D01*
X29657958Y-11231800D01*
X29815644Y-11231800D01*
X29815645Y-11231799D01*
X29970297Y-11201037D01*
X30115979Y-11140694D01*
X30126367Y-11133753D01*
X34143100Y-11133753D01*
X34143100Y-11291446D01*
X34173861Y-11446089D01*
X34173864Y-11446101D01*
X34234202Y-11591772D01*
X34234209Y-11591785D01*
X34321810Y-11722888D01*
X34321813Y-11722892D01*
X34433307Y-11834386D01*
X34433311Y-11834389D01*
X34564414Y-11921990D01*
X34564427Y-11921997D01*
X34703821Y-11979735D01*
X34710103Y-11982337D01*
X34851682Y-12010499D01*
X34864753Y-12013099D01*
X34864756Y-12013100D01*
X34864758Y-12013100D01*
X35022444Y-12013100D01*
X35022445Y-12013099D01*
X35177097Y-11982337D01*
X35322779Y-11921994D01*
X35453889Y-11834389D01*
X35565389Y-11722889D01*
X35652994Y-11591779D01*
X35654069Y-11589185D01*
X35689270Y-11504200D01*
X35713337Y-11446097D01*
X35744100Y-11291442D01*
X35744100Y-11133758D01*
X35744100Y-11133755D01*
X35744099Y-11133753D01*
X35741525Y-11120814D01*
X35713337Y-10979103D01*
X35702208Y-10952235D01*
X35652997Y-10833427D01*
X35652990Y-10833414D01*
X35565389Y-10702311D01*
X35565386Y-10702307D01*
X35487932Y-10624853D01*
X37443300Y-10624853D01*
X37443300Y-10782546D01*
X37474061Y-10937189D01*
X37474064Y-10937201D01*
X37534402Y-11082872D01*
X37534409Y-11082885D01*
X37622010Y-11213988D01*
X37622013Y-11213992D01*
X37733507Y-11325486D01*
X37733511Y-11325489D01*
X37864614Y-11413090D01*
X37864627Y-11413097D01*
X38010298Y-11473435D01*
X38010303Y-11473437D01*
X38151058Y-11501435D01*
X38164953Y-11504199D01*
X38164956Y-11504200D01*
X38164958Y-11504200D01*
X38322644Y-11504200D01*
X38322645Y-11504199D01*
X38477297Y-11473437D01*
X38603523Y-11421153D01*
X44604500Y-11421153D01*
X44604500Y-11578846D01*
X44635261Y-11733489D01*
X44635264Y-11733501D01*
X44695602Y-11879172D01*
X44695609Y-11879185D01*
X44783210Y-12010288D01*
X44783213Y-12010292D01*
X44894707Y-12121786D01*
X44894711Y-12121789D01*
X45025814Y-12209390D01*
X45025827Y-12209397D01*
X45144333Y-12258483D01*
X45171503Y-12269737D01*
X45326153Y-12300499D01*
X45326156Y-12300500D01*
X45326158Y-12300500D01*
X45483844Y-12300500D01*
X45483845Y-12300499D01*
X45638497Y-12269737D01*
X45784179Y-12209394D01*
X45915289Y-12121789D01*
X46026789Y-12010289D01*
X46114394Y-11879179D01*
X46174737Y-11733497D01*
X46205500Y-11578842D01*
X46205500Y-11421158D01*
X46205500Y-11421155D01*
X46205499Y-11421153D01*
X46193173Y-11359185D01*
X46174737Y-11266503D01*
X46172784Y-11261789D01*
X46114397Y-11120827D01*
X46114390Y-11120814D01*
X46026789Y-10989711D01*
X46026786Y-10989707D01*
X45915292Y-10878213D01*
X45915288Y-10878210D01*
X45784185Y-10790609D01*
X45784172Y-10790602D01*
X45638501Y-10730264D01*
X45638489Y-10730261D01*
X45483845Y-10699500D01*
X45483842Y-10699500D01*
X45326158Y-10699500D01*
X45326155Y-10699500D01*
X45171510Y-10730261D01*
X45171498Y-10730264D01*
X45025827Y-10790602D01*
X45025814Y-10790609D01*
X44894711Y-10878210D01*
X44894707Y-10878213D01*
X44783213Y-10989707D01*
X44783210Y-10989711D01*
X44695609Y-11120814D01*
X44695602Y-11120827D01*
X44635264Y-11266498D01*
X44635261Y-11266510D01*
X44604500Y-11421153D01*
X38603523Y-11421153D01*
X38622979Y-11413094D01*
X38754089Y-11325489D01*
X38865589Y-11213989D01*
X38953194Y-11082879D01*
X39013537Y-10937197D01*
X39044300Y-10782542D01*
X39044300Y-10624858D01*
X39044300Y-10624855D01*
X39044299Y-10624853D01*
X39037528Y-10590813D01*
X39013537Y-10470203D01*
X39002213Y-10442864D01*
X38953197Y-10324527D01*
X38953190Y-10324514D01*
X38865589Y-10193411D01*
X38865586Y-10193407D01*
X38754092Y-10081913D01*
X38754088Y-10081910D01*
X38622985Y-9994309D01*
X38622972Y-9994302D01*
X38477301Y-9933964D01*
X38477289Y-9933961D01*
X38322645Y-9903200D01*
X38322642Y-9903200D01*
X38164958Y-9903200D01*
X38164955Y-9903200D01*
X38010310Y-9933961D01*
X38010298Y-9933964D01*
X37864627Y-9994302D01*
X37864614Y-9994309D01*
X37733511Y-10081910D01*
X37733507Y-10081913D01*
X37622013Y-10193407D01*
X37622010Y-10193411D01*
X37534409Y-10324514D01*
X37534402Y-10324527D01*
X37474064Y-10470198D01*
X37474061Y-10470210D01*
X37443300Y-10624853D01*
X35487932Y-10624853D01*
X35453892Y-10590813D01*
X35453888Y-10590810D01*
X35322785Y-10503209D01*
X35322772Y-10503202D01*
X35177101Y-10442864D01*
X35177089Y-10442861D01*
X35022445Y-10412100D01*
X35022442Y-10412100D01*
X34864758Y-10412100D01*
X34864755Y-10412100D01*
X34710110Y-10442861D01*
X34710098Y-10442864D01*
X34564427Y-10503202D01*
X34564414Y-10503209D01*
X34433311Y-10590810D01*
X34433307Y-10590813D01*
X34321813Y-10702307D01*
X34321810Y-10702311D01*
X34234209Y-10833414D01*
X34234202Y-10833427D01*
X34173864Y-10979098D01*
X34173861Y-10979110D01*
X34143100Y-11133753D01*
X30126367Y-11133753D01*
X30247089Y-11053089D01*
X30247092Y-11053086D01*
X30260194Y-11039985D01*
X30358586Y-10941592D01*
X30358589Y-10941589D01*
X30446194Y-10810479D01*
X30451735Y-10797103D01*
X30472691Y-10746510D01*
X30506537Y-10664797D01*
X30537300Y-10510142D01*
X30537300Y-10352458D01*
X30537300Y-10352455D01*
X30537299Y-10352453D01*
X30531743Y-10324521D01*
X30506537Y-10197803D01*
X30467539Y-10103653D01*
X32404400Y-10103653D01*
X32404400Y-10261346D01*
X32435161Y-10415989D01*
X32435164Y-10416001D01*
X32495502Y-10561672D01*
X32495509Y-10561685D01*
X32583110Y-10692788D01*
X32583113Y-10692792D01*
X32694607Y-10804286D01*
X32694611Y-10804289D01*
X32825714Y-10891890D01*
X32825727Y-10891897D01*
X32971398Y-10952235D01*
X32971403Y-10952237D01*
X33106467Y-10979103D01*
X33126053Y-10982999D01*
X33126056Y-10983000D01*
X33126058Y-10983000D01*
X33283744Y-10983000D01*
X33283745Y-10982999D01*
X33438397Y-10952237D01*
X33584079Y-10891894D01*
X33715189Y-10804289D01*
X33826689Y-10692789D01*
X33914294Y-10561679D01*
X33974637Y-10415997D01*
X34005400Y-10261342D01*
X34005400Y-10103658D01*
X34005400Y-10103655D01*
X34005399Y-10103653D01*
X33995150Y-10052127D01*
X33974637Y-9949003D01*
X33968407Y-9933963D01*
X33914297Y-9803327D01*
X33914290Y-9803314D01*
X33826689Y-9672211D01*
X33826686Y-9672207D01*
X33715192Y-9560713D01*
X33715188Y-9560710D01*
X33584085Y-9473109D01*
X33584072Y-9473102D01*
X33438401Y-9412764D01*
X33438389Y-9412761D01*
X33283745Y-9382000D01*
X33283742Y-9382000D01*
X33126058Y-9382000D01*
X33126055Y-9382000D01*
X32971410Y-9412761D01*
X32971398Y-9412764D01*
X32825727Y-9473102D01*
X32825714Y-9473109D01*
X32694611Y-9560710D01*
X32694607Y-9560713D01*
X32583113Y-9672207D01*
X32583110Y-9672211D01*
X32495509Y-9803314D01*
X32495502Y-9803327D01*
X32435164Y-9948998D01*
X32435161Y-9949010D01*
X32404400Y-10103653D01*
X30467539Y-10103653D01*
X30458534Y-10081913D01*
X30446197Y-10052127D01*
X30446190Y-10052114D01*
X30358589Y-9921011D01*
X30358586Y-9921007D01*
X30247092Y-9809513D01*
X30247088Y-9809510D01*
X30115985Y-9721909D01*
X30115972Y-9721902D01*
X29970301Y-9661564D01*
X29970289Y-9661561D01*
X29815645Y-9630800D01*
X29815642Y-9630800D01*
X29657958Y-9630800D01*
X29657955Y-9630800D01*
X29503310Y-9661561D01*
X29503298Y-9661564D01*
X29357627Y-9721902D01*
X29357614Y-9721909D01*
X29226511Y-9809510D01*
X29226507Y-9809513D01*
X29115013Y-9921007D01*
X29115010Y-9921011D01*
X29027409Y-10052114D01*
X29027402Y-10052127D01*
X28967064Y-10197798D01*
X28967061Y-10197810D01*
X28936300Y-10352453D01*
X24611054Y-10352453D01*
X24637789Y-10334589D01*
X24653476Y-10318902D01*
X24713694Y-10258685D01*
X24749286Y-10223092D01*
X24749289Y-10223089D01*
X24836894Y-10091979D01*
X24841064Y-10081913D01*
X24880762Y-9986071D01*
X24897237Y-9946297D01*
X24928000Y-9791642D01*
X24928000Y-9633958D01*
X24928000Y-9633955D01*
X24927999Y-9633953D01*
X24921782Y-9602699D01*
X24897237Y-9479303D01*
X24894670Y-9473106D01*
X24836897Y-9333627D01*
X24836890Y-9333614D01*
X24749289Y-9202511D01*
X24749286Y-9202507D01*
X24637792Y-9091013D01*
X24637788Y-9091010D01*
X24506685Y-9003409D01*
X24506672Y-9003402D01*
X24361001Y-8943064D01*
X24360989Y-8943061D01*
X24206345Y-8912300D01*
X24206342Y-8912300D01*
X24048658Y-8912300D01*
X24048655Y-8912300D01*
X23894010Y-8943061D01*
X23893998Y-8943064D01*
X23748327Y-9003402D01*
X23748314Y-9003409D01*
X23617211Y-9091010D01*
X23617207Y-9091013D01*
X23505713Y-9202507D01*
X23505710Y-9202511D01*
X23418109Y-9333614D01*
X23418102Y-9333627D01*
X23357764Y-9479298D01*
X23357761Y-9479308D01*
X23328199Y-9627927D01*
X23295814Y-9689838D01*
X23254037Y-9718295D01*
X23245326Y-9721903D01*
X23245314Y-9721909D01*
X23114211Y-9809510D01*
X23114207Y-9809513D01*
X23002717Y-9921004D01*
X23002713Y-9921008D01*
X22989751Y-9940406D01*
X22936137Y-9985208D01*
X22866811Y-9993912D01*
X22839200Y-9986071D01*
X22781001Y-9961964D01*
X22780989Y-9961961D01*
X22626345Y-9931200D01*
X22626342Y-9931200D01*
X22468658Y-9931200D01*
X22468655Y-9931200D01*
X22314010Y-9961961D01*
X22313998Y-9961964D01*
X22168327Y-10022302D01*
X22168314Y-10022309D01*
X22037211Y-10109910D01*
X22037207Y-10109913D01*
X21925713Y-10221407D01*
X21925710Y-10221411D01*
X21838109Y-10352514D01*
X21838102Y-10352527D01*
X21777763Y-10498200D01*
X21777761Y-10498206D01*
X21773063Y-10521828D01*
X21740677Y-10583738D01*
X21679961Y-10618312D01*
X21675640Y-10619252D01*
X21622805Y-10629762D01*
X21622798Y-10629764D01*
X21477127Y-10690102D01*
X21477114Y-10690109D01*
X21346011Y-10777710D01*
X21346007Y-10777713D01*
X21234513Y-10889207D01*
X21234510Y-10889211D01*
X21146909Y-11020314D01*
X21146902Y-11020327D01*
X21086564Y-11165998D01*
X21086561Y-11166010D01*
X21055800Y-11320653D01*
X20794173Y-11320653D01*
X20800196Y-11290374D01*
X20800500Y-11288844D01*
X20800500Y-11131155D01*
X20800499Y-11131153D01*
X20778453Y-11020321D01*
X20769737Y-10976503D01*
X20759685Y-10952235D01*
X20709397Y-10830827D01*
X20709390Y-10830814D01*
X20621789Y-10699711D01*
X20621786Y-10699707D01*
X20510292Y-10588213D01*
X20510288Y-10588210D01*
X20379185Y-10500609D01*
X20379172Y-10500602D01*
X20233501Y-10440264D01*
X20233489Y-10440261D01*
X20078845Y-10409500D01*
X20078842Y-10409500D01*
X19921158Y-10409500D01*
X19921155Y-10409500D01*
X19766510Y-10440261D01*
X19766498Y-10440264D01*
X19620827Y-10500602D01*
X19620814Y-10500609D01*
X19489711Y-10588210D01*
X19489707Y-10588213D01*
X19378213Y-10699707D01*
X19378210Y-10699711D01*
X19290609Y-10830814D01*
X19290602Y-10830827D01*
X19230264Y-10976498D01*
X19230261Y-10976510D01*
X19199500Y-11131153D01*
X17536117Y-11131153D01*
X17542140Y-11100874D01*
X17542140Y-11100873D01*
X17550499Y-11058846D01*
X17550500Y-11058844D01*
X17550500Y-10901155D01*
X17550499Y-10901153D01*
X17545936Y-10878213D01*
X17519737Y-10746503D01*
X17519735Y-10746498D01*
X17459397Y-10600827D01*
X17459390Y-10600814D01*
X17371789Y-10469711D01*
X17371786Y-10469707D01*
X17260292Y-10358213D01*
X17260288Y-10358210D01*
X17129185Y-10270609D01*
X17129172Y-10270602D01*
X16983501Y-10210264D01*
X16983489Y-10210261D01*
X16828845Y-10179500D01*
X16828842Y-10179500D01*
X16671158Y-10179500D01*
X16671155Y-10179500D01*
X16516510Y-10210261D01*
X16516498Y-10210264D01*
X16370827Y-10270602D01*
X16370814Y-10270609D01*
X16239711Y-10358210D01*
X16239706Y-10358214D01*
X16192191Y-10405729D01*
X16130868Y-10439213D01*
X16061176Y-10434228D01*
X16005243Y-10392356D01*
X15980827Y-10326892D01*
X15989949Y-10270596D01*
X16042637Y-10143397D01*
X16073400Y-9988742D01*
X16073400Y-9831058D01*
X16073400Y-9831055D01*
X16073399Y-9831053D01*
X16065560Y-9791642D01*
X16042637Y-9676403D01*
X16031328Y-9649100D01*
X15982297Y-9530727D01*
X15982290Y-9530714D01*
X15894689Y-9399611D01*
X15894686Y-9399607D01*
X15783192Y-9288113D01*
X15783188Y-9288110D01*
X15652085Y-9200509D01*
X15652072Y-9200502D01*
X15506401Y-9140164D01*
X15506389Y-9140161D01*
X15351745Y-9109400D01*
X15351742Y-9109400D01*
X15194058Y-9109400D01*
X15194055Y-9109400D01*
X15039410Y-9140161D01*
X15039398Y-9140164D01*
X14893727Y-9200502D01*
X14893714Y-9200509D01*
X14762611Y-9288110D01*
X14762607Y-9288113D01*
X14651113Y-9399607D01*
X14651110Y-9399611D01*
X14563509Y-9530714D01*
X14563502Y-9530727D01*
X14503164Y-9676398D01*
X14503161Y-9676410D01*
X14472400Y-9831053D01*
X14472400Y-9988746D01*
X14490474Y-10079609D01*
X14484247Y-10149200D01*
X14441384Y-10204378D01*
X14375494Y-10227622D01*
X14368857Y-10227800D01*
X14286655Y-10227800D01*
X14132010Y-10258561D01*
X14131998Y-10258564D01*
X13986327Y-10318902D01*
X13986314Y-10318909D01*
X13855211Y-10406510D01*
X13855207Y-10406513D01*
X13743713Y-10518007D01*
X13743710Y-10518011D01*
X13656109Y-10649114D01*
X13656102Y-10649127D01*
X13595764Y-10794798D01*
X13595761Y-10794810D01*
X13565000Y-10949453D01*
X5449884Y-10949453D01*
X5420037Y-10799403D01*
X5418130Y-10794798D01*
X5359697Y-10653727D01*
X5359690Y-10653714D01*
X5272089Y-10522611D01*
X5272086Y-10522607D01*
X5160592Y-10411113D01*
X5160588Y-10411110D01*
X5029485Y-10323509D01*
X5029472Y-10323502D01*
X4883801Y-10263164D01*
X4883789Y-10263161D01*
X4729145Y-10232400D01*
X4729142Y-10232400D01*
X4571458Y-10232400D01*
X4571455Y-10232400D01*
X4416810Y-10263161D01*
X4416798Y-10263164D01*
X4271127Y-10323502D01*
X4271114Y-10323509D01*
X4140011Y-10411110D01*
X4140007Y-10411113D01*
X4026781Y-10524340D01*
X3965458Y-10557825D01*
X3895766Y-10552841D01*
X3851419Y-10524340D01*
X3735892Y-10408813D01*
X3735888Y-10408810D01*
X3604785Y-10321209D01*
X3604772Y-10321202D01*
X3459101Y-10260864D01*
X3459089Y-10260861D01*
X3304445Y-10230100D01*
X3304442Y-10230100D01*
X3146758Y-10230100D01*
X3146755Y-10230100D01*
X2992110Y-10260861D01*
X2992098Y-10260864D01*
X2846427Y-10321202D01*
X2846414Y-10321209D01*
X2715311Y-10408810D01*
X2715307Y-10408813D01*
X2603813Y-10520307D01*
X2603810Y-10520311D01*
X2516209Y-10651414D01*
X2516202Y-10651427D01*
X2455864Y-10797098D01*
X2455861Y-10797110D01*
X2425100Y-10951753D01*
X300500Y-10951753D01*
X300500Y-8723353D01*
X20511300Y-8723353D01*
X20511300Y-8881046D01*
X20542061Y-9035689D01*
X20542064Y-9035701D01*
X20602402Y-9181372D01*
X20602409Y-9181385D01*
X20690010Y-9312488D01*
X20690013Y-9312492D01*
X20801507Y-9423986D01*
X20801511Y-9423989D01*
X20932614Y-9511590D01*
X20932627Y-9511597D01*
X21078298Y-9571935D01*
X21078303Y-9571937D01*
X21192187Y-9594590D01*
X21232953Y-9602699D01*
X21232956Y-9602700D01*
X21232958Y-9602700D01*
X21390644Y-9602700D01*
X21390645Y-9602699D01*
X21545297Y-9571937D01*
X21690979Y-9511594D01*
X21822089Y-9423989D01*
X21933589Y-9312489D01*
X22021194Y-9181379D01*
X22081537Y-9035697D01*
X22112300Y-8881042D01*
X22112300Y-8723358D01*
X22112300Y-8723355D01*
X22112299Y-8723353D01*
X22090768Y-8615110D01*
X22081537Y-8568703D01*
X22057963Y-8511789D01*
X22021197Y-8423027D01*
X22021190Y-8423014D01*
X21933589Y-8291911D01*
X21933586Y-8291907D01*
X21841132Y-8199453D01*
X26262100Y-8199453D01*
X26262100Y-8357146D01*
X26292861Y-8511789D01*
X26292864Y-8511801D01*
X26353202Y-8657472D01*
X26353209Y-8657485D01*
X26440810Y-8788588D01*
X26440813Y-8788592D01*
X26552310Y-8900089D01*
X26648023Y-8964042D01*
X26683421Y-8987694D01*
X26713165Y-9000014D01*
X26767568Y-9043854D01*
X26787330Y-9090381D01*
X26792962Y-9118694D01*
X26792964Y-9118701D01*
X26853302Y-9264372D01*
X26853309Y-9264385D01*
X26940910Y-9395488D01*
X26940913Y-9395492D01*
X27052407Y-9506986D01*
X27052411Y-9506989D01*
X27183514Y-9594590D01*
X27183527Y-9594597D01*
X27315111Y-9649100D01*
X27329203Y-9654937D01*
X27483853Y-9685699D01*
X27483856Y-9685700D01*
X27483858Y-9685700D01*
X27641544Y-9685700D01*
X27641545Y-9685699D01*
X27796197Y-9654937D01*
X27941879Y-9594594D01*
X28072989Y-9506989D01*
X28184489Y-9395489D01*
X28272094Y-9264379D01*
X28332437Y-9118697D01*
X28363200Y-8964042D01*
X28363200Y-8806358D01*
X28363200Y-8806357D01*
X28359520Y-8787855D01*
X28359520Y-8787853D01*
X28355920Y-8769753D01*
X38110400Y-8769753D01*
X38110400Y-8927446D01*
X38141161Y-9082089D01*
X38141164Y-9082101D01*
X38201502Y-9227772D01*
X38201509Y-9227785D01*
X38289110Y-9358888D01*
X38289113Y-9358892D01*
X38400607Y-9470386D01*
X38400611Y-9470389D01*
X38531714Y-9557990D01*
X38531727Y-9557997D01*
X38677398Y-9618335D01*
X38677403Y-9618337D01*
X38832053Y-9649099D01*
X38832056Y-9649100D01*
X38832058Y-9649100D01*
X38989744Y-9649100D01*
X38989745Y-9649099D01*
X39144397Y-9618337D01*
X39290079Y-9557994D01*
X39421189Y-9470389D01*
X39532689Y-9358889D01*
X39620294Y-9227779D01*
X39680637Y-9082097D01*
X39711400Y-8927442D01*
X39711400Y-8769758D01*
X39711400Y-8769755D01*
X39711399Y-8769753D01*
X39689066Y-8657479D01*
X39680637Y-8615103D01*
X39665639Y-8578894D01*
X39620297Y-8469427D01*
X39620290Y-8469414D01*
X39532689Y-8338311D01*
X39532686Y-8338307D01*
X39421192Y-8226813D01*
X39421188Y-8226810D01*
X39290085Y-8139209D01*
X39290072Y-8139202D01*
X39144401Y-8078864D01*
X39144389Y-8078861D01*
X38989745Y-8048100D01*
X38989742Y-8048100D01*
X38832058Y-8048100D01*
X38832055Y-8048100D01*
X38677410Y-8078861D01*
X38677398Y-8078864D01*
X38531727Y-8139202D01*
X38531714Y-8139209D01*
X38400611Y-8226810D01*
X38400607Y-8226813D01*
X38289113Y-8338307D01*
X38289110Y-8338311D01*
X38201509Y-8469414D01*
X38201502Y-8469427D01*
X38141164Y-8615098D01*
X38141161Y-8615110D01*
X38110400Y-8769753D01*
X28355920Y-8769753D01*
X28332438Y-8651708D01*
X28332437Y-8651707D01*
X28332437Y-8651703D01*
X28302279Y-8578894D01*
X28272097Y-8506027D01*
X28272090Y-8506014D01*
X28184489Y-8374911D01*
X28184486Y-8374907D01*
X28072992Y-8263413D01*
X28072988Y-8263410D01*
X27941885Y-8175809D01*
X27941875Y-8175804D01*
X27912132Y-8163484D01*
X27857728Y-8119643D01*
X27837968Y-8073114D01*
X27832337Y-8044803D01*
X27806945Y-7983501D01*
X27771997Y-7899127D01*
X27769121Y-7893746D01*
X27771562Y-7892440D01*
X27754285Y-7837058D01*
X27772840Y-7769697D01*
X27824868Y-7723061D01*
X27893849Y-7711957D01*
X27902458Y-7713357D01*
X27905767Y-7714015D01*
X27918255Y-7716500D01*
X27918258Y-7716500D01*
X28075944Y-7716500D01*
X28198568Y-7692108D01*
X28229872Y-7685881D01*
X28299464Y-7692108D01*
X28322955Y-7704396D01*
X28447014Y-7787290D01*
X28447027Y-7787297D01*
X28592698Y-7847635D01*
X28592703Y-7847637D01*
X28747353Y-7878399D01*
X28747356Y-7878400D01*
X28747358Y-7878400D01*
X28905044Y-7878400D01*
X28905045Y-7878399D01*
X29059697Y-7847637D01*
X29205379Y-7787294D01*
X29336489Y-7699689D01*
X29411874Y-7624304D01*
X46299000Y-7624304D01*
X46299000Y-7801695D01*
X46333603Y-7975658D01*
X46333606Y-7975667D01*
X46401483Y-8139540D01*
X46401490Y-8139553D01*
X46500035Y-8287034D01*
X46500038Y-8287038D01*
X46625461Y-8412461D01*
X46625465Y-8412464D01*
X46772946Y-8511009D01*
X46772959Y-8511016D01*
X46868284Y-8550500D01*
X46936834Y-8578894D01*
X46936836Y-8578894D01*
X46936841Y-8578896D01*
X47110804Y-8613499D01*
X47110807Y-8613500D01*
X47110809Y-8613500D01*
X47288193Y-8613500D01*
X47288194Y-8613499D01*
X47346182Y-8601964D01*
X47462158Y-8578896D01*
X47462161Y-8578894D01*
X47462166Y-8578894D01*
X47626047Y-8511013D01*
X47773535Y-8412464D01*
X47898964Y-8287035D01*
X47997513Y-8139547D01*
X48065394Y-7975666D01*
X48100000Y-7801691D01*
X48100000Y-7624309D01*
X48100000Y-7624306D01*
X48099999Y-7624304D01*
X48065396Y-7450341D01*
X48065393Y-7450332D01*
X48059450Y-7435985D01*
X48041551Y-7392772D01*
X47997516Y-7286459D01*
X47997509Y-7286446D01*
X47898964Y-7138965D01*
X47898961Y-7138961D01*
X47773538Y-7013538D01*
X47773534Y-7013535D01*
X47626053Y-6914990D01*
X47626040Y-6914983D01*
X47462167Y-6847106D01*
X47462158Y-6847103D01*
X47288194Y-6812500D01*
X47288191Y-6812500D01*
X47110809Y-6812500D01*
X47110806Y-6812500D01*
X46936841Y-6847103D01*
X46936832Y-6847106D01*
X46772959Y-6914983D01*
X46772946Y-6914990D01*
X46625465Y-7013535D01*
X46625461Y-7013538D01*
X46500038Y-7138961D01*
X46500035Y-7138965D01*
X46401490Y-7286446D01*
X46401483Y-7286459D01*
X46333606Y-7450332D01*
X46333603Y-7450341D01*
X46299000Y-7624304D01*
X29411874Y-7624304D01*
X29447989Y-7588189D01*
X29462299Y-7566771D01*
X29473957Y-7549326D01*
X29535590Y-7457085D01*
X29535590Y-7457084D01*
X29535594Y-7457079D01*
X29595937Y-7311397D01*
X29626700Y-7156742D01*
X29626700Y-6999058D01*
X29626700Y-6999055D01*
X29626699Y-6999053D01*
X29608845Y-6909295D01*
X29595937Y-6844403D01*
X29587195Y-6823298D01*
X29535597Y-6698727D01*
X29535590Y-6698714D01*
X29447989Y-6567611D01*
X29447986Y-6567607D01*
X29336492Y-6456113D01*
X29336488Y-6456110D01*
X29205385Y-6368509D01*
X29205372Y-6368502D01*
X29059701Y-6308164D01*
X29059689Y-6308161D01*
X28905045Y-6277400D01*
X28905042Y-6277400D01*
X28747358Y-6277400D01*
X28747353Y-6277400D01*
X28593426Y-6308018D01*
X28523834Y-6301791D01*
X28500344Y-6289503D01*
X28376285Y-6206609D01*
X28376272Y-6206602D01*
X28230601Y-6146264D01*
X28230589Y-6146261D01*
X28075945Y-6115500D01*
X28075942Y-6115500D01*
X27918258Y-6115500D01*
X27918255Y-6115500D01*
X27763610Y-6146261D01*
X27763598Y-6146264D01*
X27617927Y-6206602D01*
X27617914Y-6206609D01*
X27486811Y-6294210D01*
X27486807Y-6294213D01*
X27375313Y-6405707D01*
X27375310Y-6405711D01*
X27287709Y-6536814D01*
X27287702Y-6536827D01*
X27227364Y-6682498D01*
X27227361Y-6682510D01*
X27196600Y-6837153D01*
X27196600Y-6994846D01*
X27227361Y-7149489D01*
X27227364Y-7149501D01*
X27287702Y-7295172D01*
X27290579Y-7300554D01*
X27288151Y-7301851D01*
X27305416Y-7357331D01*
X27286812Y-7424678D01*
X27234751Y-7471276D01*
X27165761Y-7482331D01*
X27157240Y-7480942D01*
X27141444Y-7477800D01*
X27141442Y-7477800D01*
X26983758Y-7477800D01*
X26983755Y-7477800D01*
X26829110Y-7508561D01*
X26829098Y-7508564D01*
X26683427Y-7568902D01*
X26683414Y-7568909D01*
X26552311Y-7656510D01*
X26552305Y-7656515D01*
X26547039Y-7661780D01*
X26546995Y-7661826D01*
X26440811Y-7768011D01*
X26423685Y-7793640D01*
X26423677Y-7793650D01*
X26353212Y-7899109D01*
X26353202Y-7899127D01*
X26292864Y-8044798D01*
X26292861Y-8044810D01*
X26262100Y-8199453D01*
X21841132Y-8199453D01*
X21822092Y-8180413D01*
X21822088Y-8180410D01*
X21690985Y-8092809D01*
X21690972Y-8092802D01*
X21545301Y-8032464D01*
X21545289Y-8032461D01*
X21390645Y-8001700D01*
X21390642Y-8001700D01*
X21232958Y-8001700D01*
X21232955Y-8001700D01*
X21078310Y-8032461D01*
X21078298Y-8032464D01*
X20932627Y-8092802D01*
X20932614Y-8092809D01*
X20801511Y-8180410D01*
X20801507Y-8180413D01*
X20690013Y-8291907D01*
X20690010Y-8291911D01*
X20602409Y-8423014D01*
X20602402Y-8423027D01*
X20542064Y-8568698D01*
X20542061Y-8568710D01*
X20511300Y-8723353D01*
X300500Y-8723353D01*
X300500Y-7671153D01*
X16331100Y-7671153D01*
X16331100Y-7828846D01*
X16361861Y-7983489D01*
X16361864Y-7983501D01*
X16422202Y-8129172D01*
X16422209Y-8129185D01*
X16509810Y-8260288D01*
X16509813Y-8260292D01*
X16621307Y-8371786D01*
X16621311Y-8371789D01*
X16752414Y-8459390D01*
X16752427Y-8459397D01*
X16898098Y-8519735D01*
X16898103Y-8519737D01*
X17052753Y-8550499D01*
X17052756Y-8550500D01*
X17052758Y-8550500D01*
X17210444Y-8550500D01*
X17210445Y-8550499D01*
X17365097Y-8519737D01*
X17486557Y-8469427D01*
X17510772Y-8459397D01*
X17510772Y-8459396D01*
X17510779Y-8459394D01*
X17641889Y-8371789D01*
X17753389Y-8260289D01*
X17840994Y-8129179D01*
X17901337Y-7983497D01*
X17932100Y-7828842D01*
X17932100Y-7671158D01*
X17932100Y-7671155D01*
X17932099Y-7671153D01*
X17929187Y-7656515D01*
X17901337Y-7516503D01*
X17898047Y-7508561D01*
X17840997Y-7370827D01*
X17840990Y-7370814D01*
X17753389Y-7239711D01*
X17753386Y-7239707D01*
X17641892Y-7128213D01*
X17641888Y-7128210D01*
X17562206Y-7074968D01*
X17510785Y-7040609D01*
X17510772Y-7040602D01*
X17365101Y-6980264D01*
X17365089Y-6980261D01*
X17353486Y-6977953D01*
X19737000Y-6977953D01*
X19737000Y-7135646D01*
X19767761Y-7290289D01*
X19767763Y-7290297D01*
X19828102Y-7435972D01*
X19828109Y-7435985D01*
X19915710Y-7567088D01*
X19915713Y-7567092D01*
X20027207Y-7678586D01*
X20027211Y-7678589D01*
X20158314Y-7766190D01*
X20158327Y-7766197D01*
X20273977Y-7814100D01*
X20304003Y-7826537D01*
X20458653Y-7857299D01*
X20458656Y-7857300D01*
X20458658Y-7857300D01*
X20616344Y-7857300D01*
X20616345Y-7857299D01*
X20770997Y-7826537D01*
X20908222Y-7769697D01*
X20916672Y-7766197D01*
X20916672Y-7766196D01*
X20916679Y-7766194D01*
X21047789Y-7678589D01*
X21159289Y-7567089D01*
X21246894Y-7435979D01*
X21307237Y-7290297D01*
X21331523Y-7168205D01*
X21363908Y-7106294D01*
X21424623Y-7071720D01*
X21494393Y-7075459D01*
X21551065Y-7116326D01*
X21574757Y-7168204D01*
X21591861Y-7254191D01*
X21591864Y-7254201D01*
X21652202Y-7399872D01*
X21652209Y-7399885D01*
X21739810Y-7530988D01*
X21739813Y-7530992D01*
X21851307Y-7642486D01*
X21851311Y-7642489D01*
X21982414Y-7730090D01*
X21982427Y-7730097D01*
X22110957Y-7783335D01*
X22128103Y-7790437D01*
X22282753Y-7821199D01*
X22282756Y-7821200D01*
X22282758Y-7821200D01*
X22440444Y-7821200D01*
X22440445Y-7821199D01*
X22595097Y-7790437D01*
X22740779Y-7730094D01*
X22871889Y-7642489D01*
X22983389Y-7530989D01*
X23070994Y-7399879D01*
X23131337Y-7254197D01*
X23162100Y-7099542D01*
X23162100Y-6941858D01*
X23162100Y-6941854D01*
X23160687Y-6934753D01*
X24921000Y-6934753D01*
X24921000Y-7092446D01*
X24951761Y-7247089D01*
X24951764Y-7247101D01*
X25012102Y-7392772D01*
X25012109Y-7392785D01*
X25099710Y-7523888D01*
X25099713Y-7523892D01*
X25211207Y-7635386D01*
X25211211Y-7635389D01*
X25342314Y-7722990D01*
X25342327Y-7722997D01*
X25487998Y-7783335D01*
X25488003Y-7783337D01*
X25642653Y-7814099D01*
X25642656Y-7814100D01*
X25642658Y-7814100D01*
X25800344Y-7814100D01*
X25800345Y-7814099D01*
X25954997Y-7783337D01*
X26100679Y-7722994D01*
X26231789Y-7635389D01*
X26343289Y-7523889D01*
X26430894Y-7392779D01*
X26491237Y-7247097D01*
X26522000Y-7092442D01*
X26522000Y-6934758D01*
X26522000Y-6934755D01*
X26521999Y-6934753D01*
X26504564Y-6847103D01*
X26491237Y-6780103D01*
X26491235Y-6780098D01*
X26430897Y-6634427D01*
X26430890Y-6634414D01*
X26343289Y-6503311D01*
X26343286Y-6503307D01*
X26231792Y-6391813D01*
X26231788Y-6391810D01*
X26100685Y-6304209D01*
X26100672Y-6304202D01*
X25955001Y-6243864D01*
X25954989Y-6243861D01*
X25800345Y-6213100D01*
X25800342Y-6213100D01*
X25642658Y-6213100D01*
X25642655Y-6213100D01*
X25488010Y-6243861D01*
X25487998Y-6243864D01*
X25342327Y-6304202D01*
X25342314Y-6304209D01*
X25211211Y-6391810D01*
X25211207Y-6391813D01*
X25099713Y-6503307D01*
X25099710Y-6503311D01*
X25012109Y-6634414D01*
X25012102Y-6634427D01*
X24951764Y-6780098D01*
X24951761Y-6780110D01*
X24921000Y-6934753D01*
X23160687Y-6934753D01*
X23131338Y-6787210D01*
X23131338Y-6787208D01*
X23131337Y-6787203D01*
X23128394Y-6780098D01*
X23070997Y-6641527D01*
X23070990Y-6641514D01*
X22983389Y-6510411D01*
X22983386Y-6510407D01*
X22871892Y-6398913D01*
X22871888Y-6398910D01*
X22740785Y-6311309D01*
X22740772Y-6311302D01*
X22595101Y-6250964D01*
X22595089Y-6250961D01*
X22440445Y-6220200D01*
X22440442Y-6220200D01*
X22282758Y-6220200D01*
X22282755Y-6220200D01*
X22128110Y-6250961D01*
X22128098Y-6250964D01*
X21982427Y-6311302D01*
X21982414Y-6311309D01*
X21851311Y-6398910D01*
X21851307Y-6398913D01*
X21739813Y-6510407D01*
X21739810Y-6510411D01*
X21652209Y-6641514D01*
X21652202Y-6641527D01*
X21591864Y-6787198D01*
X21591861Y-6787208D01*
X21567576Y-6909295D01*
X21535191Y-6971206D01*
X21474475Y-7005780D01*
X21404705Y-7002039D01*
X21348033Y-6961173D01*
X21324342Y-6909294D01*
X21307238Y-6823310D01*
X21307237Y-6823303D01*
X21289341Y-6780098D01*
X21246897Y-6677627D01*
X21246890Y-6677614D01*
X21174573Y-6569385D01*
X21153695Y-6502708D01*
X21172179Y-6435328D01*
X21205289Y-6401019D01*
X21204985Y-6400649D01*
X21208167Y-6398037D01*
X21208797Y-6397384D01*
X21209689Y-6396789D01*
X21321189Y-6285289D01*
X21408794Y-6154179D01*
X21412073Y-6146264D01*
X21460587Y-6029138D01*
X21469137Y-6008497D01*
X21499900Y-5853842D01*
X21499900Y-5696158D01*
X21499900Y-5696155D01*
X21499899Y-5696153D01*
X21475570Y-5573844D01*
X21469137Y-5541503D01*
X21439641Y-5470292D01*
X21434350Y-5457518D01*
X21417216Y-5416153D01*
X38199500Y-5416153D01*
X38199500Y-5573846D01*
X38230261Y-5728489D01*
X38230264Y-5728501D01*
X38290602Y-5874172D01*
X38290609Y-5874185D01*
X38378210Y-6005288D01*
X38378213Y-6005292D01*
X38489707Y-6116786D01*
X38489711Y-6116789D01*
X38620814Y-6204390D01*
X38620827Y-6204397D01*
X38760892Y-6262413D01*
X38766503Y-6264737D01*
X38914673Y-6294210D01*
X38921153Y-6295499D01*
X38921156Y-6295500D01*
X38921158Y-6295500D01*
X39078844Y-6295500D01*
X39078845Y-6295499D01*
X39233497Y-6264737D01*
X39358161Y-6213100D01*
X39379172Y-6204397D01*
X39379172Y-6204396D01*
X39379179Y-6204394D01*
X39510289Y-6116789D01*
X39621789Y-6005289D01*
X39709394Y-5874179D01*
X39769737Y-5728497D01*
X39800500Y-5573842D01*
X39800500Y-5416158D01*
X39800500Y-5416155D01*
X39800499Y-5416153D01*
X39769738Y-5261510D01*
X39769737Y-5261503D01*
X39768283Y-5257992D01*
X39709397Y-5115827D01*
X39709390Y-5115814D01*
X39621789Y-4984711D01*
X39621786Y-4984707D01*
X39518232Y-4881153D01*
X40699500Y-4881153D01*
X40699500Y-5038846D01*
X40730261Y-5193489D01*
X40730264Y-5193501D01*
X40790602Y-5339172D01*
X40790609Y-5339185D01*
X40878210Y-5470288D01*
X40878213Y-5470292D01*
X40989707Y-5581786D01*
X40989711Y-5581789D01*
X41120814Y-5669390D01*
X41120827Y-5669397D01*
X41263490Y-5728489D01*
X41266503Y-5729737D01*
X41421153Y-5760499D01*
X41421156Y-5760500D01*
X41421158Y-5760500D01*
X41578844Y-5760500D01*
X41578845Y-5760499D01*
X41733497Y-5729737D01*
X41879179Y-5669394D01*
X42010289Y-5581789D01*
X42121789Y-5470289D01*
X42209394Y-5339179D01*
X42209781Y-5338246D01*
X42241570Y-5261498D01*
X42269737Y-5193497D01*
X42300500Y-5038842D01*
X42300500Y-4881158D01*
X42300500Y-4881155D01*
X42300499Y-4881153D01*
X42289637Y-4826546D01*
X42269737Y-4726503D01*
X42232917Y-4637610D01*
X42209397Y-4580827D01*
X42209390Y-4580814D01*
X42121789Y-4449711D01*
X42121786Y-4449707D01*
X42010292Y-4338213D01*
X42010288Y-4338210D01*
X41879185Y-4250609D01*
X41879172Y-4250602D01*
X41733501Y-4190264D01*
X41733489Y-4190261D01*
X41578845Y-4159500D01*
X41578842Y-4159500D01*
X41421158Y-4159500D01*
X41421155Y-4159500D01*
X41266510Y-4190261D01*
X41266498Y-4190264D01*
X41120827Y-4250602D01*
X41120814Y-4250609D01*
X40989711Y-4338210D01*
X40989707Y-4338213D01*
X40878213Y-4449707D01*
X40878210Y-4449711D01*
X40790609Y-4580814D01*
X40790602Y-4580827D01*
X40730264Y-4726498D01*
X40730261Y-4726510D01*
X40699500Y-4881153D01*
X39518232Y-4881153D01*
X39510292Y-4873213D01*
X39510288Y-4873210D01*
X39379185Y-4785609D01*
X39379172Y-4785602D01*
X39233501Y-4725264D01*
X39233489Y-4725261D01*
X39078845Y-4694500D01*
X39078842Y-4694500D01*
X38921158Y-4694500D01*
X38921155Y-4694500D01*
X38766510Y-4725261D01*
X38766498Y-4725264D01*
X38620827Y-4785602D01*
X38620814Y-4785609D01*
X38489711Y-4873210D01*
X38489707Y-4873213D01*
X38378213Y-4984707D01*
X38378210Y-4984711D01*
X38290609Y-5115814D01*
X38290602Y-5115827D01*
X38230264Y-5261498D01*
X38230261Y-5261510D01*
X38199500Y-5416153D01*
X21417216Y-5416153D01*
X21408797Y-5395827D01*
X21408790Y-5395814D01*
X21321189Y-5264711D01*
X21321186Y-5264707D01*
X21209692Y-5153213D01*
X21209688Y-5153210D01*
X21078585Y-5065609D01*
X21078572Y-5065602D01*
X20932901Y-5005264D01*
X20932889Y-5005261D01*
X20778245Y-4974500D01*
X20778242Y-4974500D01*
X20620558Y-4974500D01*
X20620555Y-4974500D01*
X20465910Y-5005261D01*
X20465898Y-5005264D01*
X20320227Y-5065602D01*
X20320214Y-5065609D01*
X20189111Y-5153210D01*
X20189107Y-5153213D01*
X20077613Y-5264707D01*
X20077610Y-5264711D01*
X19990009Y-5395814D01*
X19990002Y-5395827D01*
X19929664Y-5541498D01*
X19929661Y-5541510D01*
X19898900Y-5696153D01*
X19898900Y-5853846D01*
X19929661Y-6008489D01*
X19929664Y-6008501D01*
X19990002Y-6154172D01*
X19990009Y-6154185D01*
X20062325Y-6262413D01*
X20083203Y-6329091D01*
X20064718Y-6396471D01*
X20031617Y-6430779D01*
X20031919Y-6431147D01*
X20028771Y-6433730D01*
X20028129Y-6434396D01*
X20027218Y-6435004D01*
X20027207Y-6435013D01*
X19915713Y-6546507D01*
X19915710Y-6546511D01*
X19828109Y-6677614D01*
X19828102Y-6677627D01*
X19767764Y-6823298D01*
X19767761Y-6823310D01*
X19737000Y-6977953D01*
X17353486Y-6977953D01*
X17210445Y-6949500D01*
X17210442Y-6949500D01*
X17052758Y-6949500D01*
X17052755Y-6949500D01*
X16898110Y-6980261D01*
X16898098Y-6980264D01*
X16752427Y-7040602D01*
X16752414Y-7040609D01*
X16621311Y-7128210D01*
X16621307Y-7128213D01*
X16509813Y-7239707D01*
X16509810Y-7239711D01*
X16422209Y-7370814D01*
X16422202Y-7370827D01*
X16361864Y-7516498D01*
X16361861Y-7516510D01*
X16331100Y-7671153D01*
X300500Y-7671153D01*
X300500Y-3393713D01*
X2149500Y-3393713D01*
X2149500Y-3606286D01*
X2172168Y-3749410D01*
X2182754Y-3816243D01*
X2204541Y-3883297D01*
X2248444Y-4018414D01*
X2344951Y-4207820D01*
X2469890Y-4379786D01*
X2620213Y-4530109D01*
X2792179Y-4655048D01*
X2792181Y-4655049D01*
X2792184Y-4655051D01*
X2981588Y-4751557D01*
X3183757Y-4817246D01*
X3393713Y-4850500D01*
X3393714Y-4850500D01*
X3606286Y-4850500D01*
X3606287Y-4850500D01*
X3816243Y-4817246D01*
X4018412Y-4751557D01*
X4207816Y-4655051D01*
X4231822Y-4637610D01*
X4309015Y-4581527D01*
X4374822Y-4558047D01*
X4442875Y-4573873D01*
X4491570Y-4623979D01*
X4505900Y-4681845D01*
X4505900Y-4826546D01*
X4536661Y-4981189D01*
X4536664Y-4981201D01*
X4597002Y-5126872D01*
X4597009Y-5126885D01*
X4684610Y-5257988D01*
X4684613Y-5257992D01*
X4796107Y-5369486D01*
X4796111Y-5369489D01*
X4927214Y-5457090D01*
X4927227Y-5457097D01*
X5013667Y-5492901D01*
X5072903Y-5517437D01*
X5227553Y-5548199D01*
X5227556Y-5548200D01*
X5227558Y-5548200D01*
X5385244Y-5548200D01*
X5385245Y-5548199D01*
X5539897Y-5517437D01*
X5653726Y-5470288D01*
X5685572Y-5457097D01*
X5685572Y-5457096D01*
X5685579Y-5457094D01*
X5816689Y-5369489D01*
X5928189Y-5257989D01*
X5979930Y-5180553D01*
X17827100Y-5180553D01*
X17827100Y-5338246D01*
X17857861Y-5492889D01*
X17857864Y-5492901D01*
X17918202Y-5638572D01*
X17918209Y-5638585D01*
X18005810Y-5769688D01*
X18005813Y-5769692D01*
X18117307Y-5881186D01*
X18117311Y-5881189D01*
X18248414Y-5968790D01*
X18248427Y-5968797D01*
X18394098Y-6029135D01*
X18394103Y-6029137D01*
X18548753Y-6059899D01*
X18548756Y-6059900D01*
X18548758Y-6059900D01*
X18706444Y-6059900D01*
X18706445Y-6059899D01*
X18861097Y-6029137D01*
X19006779Y-5968794D01*
X19137889Y-5881189D01*
X19249389Y-5769689D01*
X19336994Y-5638579D01*
X19397337Y-5492897D01*
X19428100Y-5338242D01*
X19428100Y-5180558D01*
X19428100Y-5180555D01*
X19428099Y-5180553D01*
X19417424Y-5126885D01*
X19397337Y-5025903D01*
X19378821Y-4981201D01*
X19336997Y-4880227D01*
X19336990Y-4880214D01*
X19249389Y-4749111D01*
X19249386Y-4749107D01*
X19137892Y-4637613D01*
X19137888Y-4637610D01*
X19006785Y-4550009D01*
X19006772Y-4550002D01*
X18861101Y-4489664D01*
X18861089Y-4489661D01*
X18706445Y-4458900D01*
X18706442Y-4458900D01*
X18548758Y-4458900D01*
X18548755Y-4458900D01*
X18394110Y-4489661D01*
X18394098Y-4489664D01*
X18248427Y-4550002D01*
X18248414Y-4550009D01*
X18117311Y-4637610D01*
X18117307Y-4637613D01*
X18005813Y-4749107D01*
X18005810Y-4749111D01*
X17918209Y-4880214D01*
X17918202Y-4880227D01*
X17857864Y-5025898D01*
X17857861Y-5025910D01*
X17827100Y-5180553D01*
X5979930Y-5180553D01*
X6015794Y-5126879D01*
X6020375Y-5115821D01*
X6066168Y-5005264D01*
X6076137Y-4981197D01*
X6106900Y-4826542D01*
X6106900Y-4668858D01*
X6106900Y-4668855D01*
X6106899Y-4668853D01*
X6100685Y-4637613D01*
X6076137Y-4514203D01*
X6049018Y-4448733D01*
X6041550Y-4379267D01*
X6072825Y-4316788D01*
X6094686Y-4298183D01*
X6134489Y-4271589D01*
X6245989Y-4160089D01*
X6333594Y-4028979D01*
X6393937Y-3883297D01*
X6424700Y-3728642D01*
X6424700Y-3570958D01*
X6424700Y-3570955D01*
X6424699Y-3570953D01*
X6393938Y-3416310D01*
X6393937Y-3416303D01*
X6384580Y-3393713D01*
X6333597Y-3270627D01*
X6333590Y-3270614D01*
X6245989Y-3139511D01*
X6245986Y-3139507D01*
X6134492Y-3028013D01*
X6134488Y-3028010D01*
X6003385Y-2940409D01*
X6003372Y-2940402D01*
X5857701Y-2880064D01*
X5857689Y-2880061D01*
X5703045Y-2849300D01*
X5703042Y-2849300D01*
X5545358Y-2849300D01*
X5545355Y-2849300D01*
X5390710Y-2880061D01*
X5390698Y-2880064D01*
X5245027Y-2940402D01*
X5245014Y-2940409D01*
X5113911Y-3028010D01*
X5113907Y-3028013D01*
X4998103Y-3143818D01*
X4997029Y-3142744D01*
X4945460Y-3177861D01*
X4875615Y-3179721D01*
X4815852Y-3143525D01*
X4789438Y-3098174D01*
X4766641Y-3028013D01*
X4751557Y-2981588D01*
X4655051Y-2792184D01*
X4655049Y-2792181D01*
X4655048Y-2792179D01*
X4530109Y-2620213D01*
X4379786Y-2469890D01*
X4207820Y-2344951D01*
X4018414Y-2248444D01*
X4018413Y-2248443D01*
X4018412Y-2248443D01*
X3816243Y-2182754D01*
X3816241Y-2182753D01*
X3816240Y-2182753D01*
X3654957Y-2157208D01*
X3606287Y-2149500D01*
X3393713Y-2149500D01*
X3345042Y-2157208D01*
X3183760Y-2182753D01*
X2981585Y-2248444D01*
X2792179Y-2344951D01*
X2620213Y-2469890D01*
X2469890Y-2620213D01*
X2344951Y-2792179D01*
X2248444Y-2981585D01*
X2182753Y-3183760D01*
X2149500Y-3393713D01*
X300500Y-3393713D01*
X300500Y-2004427D01*
X300816Y-1995581D01*
X317165Y-1766980D01*
X319683Y-1749470D01*
X367457Y-1529852D01*
X372434Y-1512901D01*
X450986Y-1302295D01*
X458325Y-1286226D01*
X566043Y-1088955D01*
X575599Y-1074086D01*
X710293Y-894156D01*
X721867Y-880799D01*
X880799Y-721867D01*
X894156Y-710293D01*
X1074086Y-575599D01*
X1088955Y-566043D01*
X1286226Y-458325D01*
X1302295Y-450986D01*
X1512901Y-372434D01*
X1529852Y-367457D01*
X1749476Y-319681D01*
X1766973Y-317165D01*
X1995582Y-300816D01*
X2004428Y-300500D01*
X2047594Y-300500D01*
X49952405Y-300500D01*
X49995572Y-300500D01*
X50004418Y-300816D01*
G37*
%TD.AperFunction*%
%TD*%
M02*
