%TF.GenerationSoftware,KiCad,Pcbnew,10.0.6*%
%TF.CreationDate,2026-10-05T08:24:12-07:00*%
%TF.ProjectId,plush-toy-v2-A,706c7573-682d-4746-9f79-2d76322d412e,rev?*%
%TF.SameCoordinates,Original*%
%TF.FileFunction,Drillmap*%
%TF.FilePolarity,Positive*%
%FSLAX45Y45*%
G04 Gerber Fmt 4.5, Leading zero omitted, Abs format (unit mm)*
G04 Created by KiCad (PCBNEW 10.0.6) date 2026-10-05 08:24:12*
%MOMM*%
%LPD*%
G01*
G04 APERTURE LIST*
%ADD10C,0.100000*%
%ADD11C,0.200000*%
G04 APERTURE END LIST*
D10*
X0Y-200000D02*
G75*
G02*
X200000Y0I200000J0D01*
G01*
X0Y-4400000D02*
X0Y-200000D01*
X200000Y0D02*
X5200000Y0D01*
X200000Y-4600000D02*
G75*
G02*
X0Y-4400000I0J200000D01*
G01*
X5200000Y0D02*
G75*
G02*
X5400000Y-200000I0J-200000D01*
G01*
X5200000Y-4600000D02*
X200000Y-4600000D01*
X5400000Y-200000D02*
X5400000Y-4400000D01*
X5400000Y-4400000D02*
G75*
G02*
X5200000Y-4600000I-200000J0D01*
G01*
D11*
D10*
X771000Y-2170000D02*
X791000Y-2190000D01*
X791000Y-2170000D02*
X771000Y-2190000D01*
X771000Y-2310000D02*
X791000Y-2330000D01*
X791000Y-2310000D02*
X771000Y-2330000D01*
X841000Y-2100000D02*
X861000Y-2120000D01*
X861000Y-2100000D02*
X841000Y-2120000D01*
X841000Y-2240000D02*
X861000Y-2260000D01*
X861000Y-2240000D02*
X841000Y-2260000D01*
X841000Y-2380000D02*
X861000Y-2400000D01*
X861000Y-2380000D02*
X841000Y-2400000D01*
X911000Y-2170000D02*
X931000Y-2190000D01*
X931000Y-2170000D02*
X911000Y-2190000D01*
X911000Y-2310000D02*
X931000Y-2330000D01*
X931000Y-2310000D02*
X911000Y-2330000D01*
X981000Y-2100000D02*
X1001000Y-2120000D01*
X1001000Y-2100000D02*
X981000Y-2120000D01*
X981000Y-2240000D02*
X1001000Y-2260000D01*
X1001000Y-2240000D02*
X981000Y-2260000D01*
X981000Y-2380000D02*
X1001000Y-2400000D01*
X1001000Y-2380000D02*
X981000Y-2400000D01*
X1051000Y-2170000D02*
X1071000Y-2190000D01*
X1071000Y-2170000D02*
X1051000Y-2190000D01*
X1051000Y-2310000D02*
X1071000Y-2330000D01*
X1071000Y-2310000D02*
X1051000Y-2330000D01*
X3270000Y-3365000D02*
X3290000Y-3385000D01*
X3290000Y-3365000D02*
X3270000Y-3385000D01*
X3270000Y-3475000D02*
X3290000Y-3495000D01*
X3290000Y-3475000D02*
X3270000Y-3495000D01*
X164000Y-1225000D02*
G75*
G02*
X134000Y-1225000I-15000J0D01*
G01*
X134000Y-1225000D02*
G75*
G02*
X164000Y-1225000I15000J0D01*
G01*
X164000Y-2975000D02*
G75*
G02*
X134000Y-2975000I-15000J0D01*
G01*
X134000Y-2975000D02*
G75*
G02*
X164000Y-2975000I15000J0D01*
G01*
X187500Y-3280000D02*
G75*
G02*
X157500Y-3280000I-15000J0D01*
G01*
X157500Y-3280000D02*
G75*
G02*
X187500Y-3280000I15000J0D01*
G01*
X214000Y-3140000D02*
G75*
G02*
X184000Y-3140000I-15000J0D01*
G01*
X184000Y-3140000D02*
G75*
G02*
X214000Y-3140000I15000J0D01*
G01*
X291000Y-1104640D02*
G75*
G02*
X261000Y-1104640I-15000J0D01*
G01*
X261000Y-1104640D02*
G75*
G02*
X291000Y-1104640I15000J0D01*
G01*
X291000Y-2975000D02*
G75*
G02*
X261000Y-2975000I-15000J0D01*
G01*
X261000Y-2975000D02*
G75*
G02*
X291000Y-2975000I15000J0D01*
G01*
X418000Y-1103560D02*
G75*
G02*
X388000Y-1103560I-15000J0D01*
G01*
X388000Y-1103560D02*
G75*
G02*
X418000Y-1103560I15000J0D01*
G01*
X456000Y-3140000D02*
G75*
G02*
X426000Y-3140000I-15000J0D01*
G01*
X426000Y-3140000D02*
G75*
G02*
X456000Y-3140000I15000J0D01*
G01*
X522500Y-3280000D02*
G75*
G02*
X492500Y-3280000I-15000J0D01*
G01*
X492500Y-3280000D02*
G75*
G02*
X522500Y-3280000I15000J0D01*
G01*
X540000Y-600000D02*
G75*
G02*
X510000Y-600000I-15000J0D01*
G01*
X510000Y-600000D02*
G75*
G02*
X540000Y-600000I15000J0D01*
G01*
X628040Y-343080D02*
G75*
G02*
X598040Y-343080I-15000J0D01*
G01*
X598040Y-343080D02*
G75*
G02*
X628040Y-343080I15000J0D01*
G01*
X631570Y-1363070D02*
G75*
G02*
X601570Y-1363070I-15000J0D01*
G01*
X601570Y-1363070D02*
G75*
G02*
X631570Y-1363070I15000J0D01*
G01*
X778290Y-2853480D02*
G75*
G02*
X748290Y-2853480I-15000J0D01*
G01*
X748290Y-2853480D02*
G75*
G02*
X778290Y-2853480I15000J0D01*
G01*
X844090Y-701160D02*
G75*
G02*
X814090Y-701160I-15000J0D01*
G01*
X814090Y-701160D02*
G75*
G02*
X844090Y-701160I15000J0D01*
G01*
X928850Y-3096720D02*
G75*
G02*
X898850Y-3096720I-15000J0D01*
G01*
X898850Y-3096720D02*
G75*
G02*
X928850Y-3096720I15000J0D01*
G01*
X988000Y-3975000D02*
G75*
G02*
X958000Y-3975000I-15000J0D01*
G01*
X958000Y-3975000D02*
G75*
G02*
X988000Y-3975000I15000J0D01*
G01*
X1024730Y-398280D02*
G75*
G02*
X994730Y-398280I-15000J0D01*
G01*
X994730Y-398280D02*
G75*
G02*
X1024730Y-398280I15000J0D01*
G01*
X1073590Y-1345760D02*
G75*
G02*
X1043590Y-1345760I-15000J0D01*
G01*
X1043590Y-1345760D02*
G75*
G02*
X1073590Y-1345760I15000J0D01*
G01*
X1100670Y-711330D02*
G75*
G02*
X1070670Y-711330I-15000J0D01*
G01*
X1070670Y-711330D02*
G75*
G02*
X1100670Y-711330I15000J0D01*
G01*
X1180000Y-1346450D02*
G75*
G02*
X1150000Y-1346450I-15000J0D01*
G01*
X1150000Y-1346450D02*
G75*
G02*
X1180000Y-1346450I15000J0D01*
G01*
X1211000Y-1000000D02*
G75*
G02*
X1181000Y-1000000I-15000J0D01*
G01*
X1181000Y-1000000D02*
G75*
G02*
X1211000Y-1000000I15000J0D01*
G01*
X1217790Y-3111870D02*
G75*
G02*
X1187790Y-3111870I-15000J0D01*
G01*
X1187790Y-3111870D02*
G75*
G02*
X1217790Y-3111870I15000J0D01*
G01*
X1289000Y-898000D02*
G75*
G02*
X1259000Y-898000I-15000J0D01*
G01*
X1259000Y-898000D02*
G75*
G02*
X1289000Y-898000I15000J0D01*
G01*
X1315000Y-3760000D02*
G75*
G02*
X1285000Y-3760000I-15000J0D01*
G01*
X1285000Y-3760000D02*
G75*
G02*
X1315000Y-3760000I15000J0D01*
G01*
X1315810Y-1345500D02*
G75*
G02*
X1285810Y-1345500I-15000J0D01*
G01*
X1285810Y-1345500D02*
G75*
G02*
X1315810Y-1345500I15000J0D01*
G01*
X1344260Y-4051300D02*
G75*
G02*
X1314260Y-4051300I-15000J0D01*
G01*
X1314260Y-4051300D02*
G75*
G02*
X1344260Y-4051300I15000J0D01*
G01*
X1368610Y-627860D02*
G75*
G02*
X1338610Y-627860I-15000J0D01*
G01*
X1338610Y-627860D02*
G75*
G02*
X1368610Y-627860I15000J0D01*
G01*
X1501830Y-2526360D02*
G75*
G02*
X1471830Y-2526360I-15000J0D01*
G01*
X1471830Y-2526360D02*
G75*
G02*
X1501830Y-2526360I15000J0D01*
G01*
X1501960Y-2829440D02*
G75*
G02*
X1471960Y-2829440I-15000J0D01*
G01*
X1471960Y-2829440D02*
G75*
G02*
X1501960Y-2829440I15000J0D01*
G01*
X1530300Y-985520D02*
G75*
G02*
X1500300Y-985520I-15000J0D01*
G01*
X1500300Y-985520D02*
G75*
G02*
X1530300Y-985520I15000J0D01*
G01*
X1590000Y-3152000D02*
G75*
G02*
X1560000Y-3152000I-15000J0D01*
G01*
X1560000Y-3152000D02*
G75*
G02*
X1590000Y-3152000I15000J0D01*
G01*
X1617020Y-3824400D02*
G75*
G02*
X1587020Y-3824400I-15000J0D01*
G01*
X1587020Y-3824400D02*
G75*
G02*
X1617020Y-3824400I15000J0D01*
G01*
X1635080Y-1061320D02*
G75*
G02*
X1605080Y-1061320I-15000J0D01*
G01*
X1605080Y-1061320D02*
G75*
G02*
X1635080Y-1061320I15000J0D01*
G01*
X1672250Y-3379280D02*
G75*
G02*
X1642250Y-3379280I-15000J0D01*
G01*
X1642250Y-3379280D02*
G75*
G02*
X1672250Y-3379280I15000J0D01*
G01*
X1713260Y-3529100D02*
G75*
G02*
X1683260Y-3529100I-15000J0D01*
G01*
X1683260Y-3529100D02*
G75*
G02*
X1713260Y-3529100I15000J0D01*
G01*
X1762220Y-1346120D02*
G75*
G02*
X1732220Y-1346120I-15000J0D01*
G01*
X1732220Y-1346120D02*
G75*
G02*
X1762220Y-1346120I15000J0D01*
G01*
X1815000Y-925000D02*
G75*
G02*
X1785000Y-925000I-15000J0D01*
G01*
X1785000Y-925000D02*
G75*
G02*
X1815000Y-925000I15000J0D01*
G01*
X1819000Y-1050000D02*
G75*
G02*
X1789000Y-1050000I-15000J0D01*
G01*
X1789000Y-1050000D02*
G75*
G02*
X1819000Y-1050000I15000J0D01*
G01*
X1819110Y-1811170D02*
G75*
G02*
X1789110Y-1811170I-15000J0D01*
G01*
X1789110Y-1811170D02*
G75*
G02*
X1819110Y-1811170I15000J0D01*
G01*
X1819750Y-1528500D02*
G75*
G02*
X1789750Y-1528500I-15000J0D01*
G01*
X1789750Y-1528500D02*
G75*
G02*
X1819750Y-1528500I15000J0D01*
G01*
X1823900Y-3133160D02*
G75*
G02*
X1793900Y-3133160I-15000J0D01*
G01*
X1793900Y-3133160D02*
G75*
G02*
X1823900Y-3133160I15000J0D01*
G01*
X1915000Y-700000D02*
G75*
G02*
X1885000Y-700000I-15000J0D01*
G01*
X1885000Y-700000D02*
G75*
G02*
X1915000Y-700000I15000J0D01*
G01*
X1915540Y-1309660D02*
G75*
G02*
X1885540Y-1309660I-15000J0D01*
G01*
X1885540Y-1309660D02*
G75*
G02*
X1915540Y-1309660I15000J0D01*
G01*
X1965000Y-3882500D02*
G75*
G02*
X1935000Y-3882500I-15000J0D01*
G01*
X1935000Y-3882500D02*
G75*
G02*
X1965000Y-3882500I15000J0D01*
G01*
X1976070Y-625170D02*
G75*
G02*
X1946070Y-625170I-15000J0D01*
G01*
X1946070Y-625170D02*
G75*
G02*
X1976070Y-625170I15000J0D01*
G01*
X2061000Y-1050000D02*
G75*
G02*
X2031000Y-1050000I-15000J0D01*
G01*
X2031000Y-1050000D02*
G75*
G02*
X2061000Y-1050000I15000J0D01*
G01*
X2068910Y-2798500D02*
G75*
G02*
X2038910Y-2798500I-15000J0D01*
G01*
X2038910Y-2798500D02*
G75*
G02*
X2068910Y-2798500I15000J0D01*
G01*
X2086000Y-4300000D02*
G75*
G02*
X2056000Y-4300000I-15000J0D01*
G01*
X2056000Y-4300000D02*
G75*
G02*
X2086000Y-4300000I15000J0D01*
G01*
X2093120Y-1124830D02*
G75*
G02*
X2063120Y-1124830I-15000J0D01*
G01*
X2063120Y-1124830D02*
G75*
G02*
X2093120Y-1124830I15000J0D01*
G01*
X2115000Y-4173000D02*
G75*
G02*
X2085000Y-4173000I-15000J0D01*
G01*
X2085000Y-4173000D02*
G75*
G02*
X2115000Y-4173000I15000J0D01*
G01*
X2136000Y-3800000D02*
G75*
G02*
X2106000Y-3800000I-15000J0D01*
G01*
X2106000Y-3800000D02*
G75*
G02*
X2136000Y-3800000I15000J0D01*
G01*
X2182260Y-2886040D02*
G75*
G02*
X2152260Y-2886040I-15000J0D01*
G01*
X2152260Y-2886040D02*
G75*
G02*
X2182260Y-2886040I15000J0D01*
G01*
X2197600Y-985520D02*
G75*
G02*
X2167600Y-985520I-15000J0D01*
G01*
X2167600Y-985520D02*
G75*
G02*
X2197600Y-985520I15000J0D01*
G01*
X2219050Y-1671670D02*
G75*
G02*
X2189050Y-1671670I-15000J0D01*
G01*
X2189050Y-1671670D02*
G75*
G02*
X2219050Y-1671670I15000J0D01*
G01*
X2228510Y-1147250D02*
G75*
G02*
X2198510Y-1147250I-15000J0D01*
G01*
X2198510Y-1147250D02*
G75*
G02*
X2228510Y-1147250I15000J0D01*
G01*
X2235550Y-2671500D02*
G75*
G02*
X2205550Y-2671500I-15000J0D01*
G01*
X2205550Y-2671500D02*
G75*
G02*
X2235550Y-2671500I15000J0D01*
G01*
X2245880Y-1257650D02*
G75*
G02*
X2215880Y-1257650I-15000J0D01*
G01*
X2215880Y-1257650D02*
G75*
G02*
X2245880Y-1257650I15000J0D01*
G01*
X2251160Y-702070D02*
G75*
G02*
X2221160Y-702070I-15000J0D01*
G01*
X2221160Y-702070D02*
G75*
G02*
X2251160Y-702070I15000J0D01*
G01*
X2265000Y-3827000D02*
G75*
G02*
X2235000Y-3827000I-15000J0D01*
G01*
X2235000Y-3827000D02*
G75*
G02*
X2265000Y-3827000I15000J0D01*
G01*
X2269240Y-1925850D02*
G75*
G02*
X2239240Y-1925850I-15000J0D01*
G01*
X2239240Y-1925850D02*
G75*
G02*
X2269240Y-1925850I15000J0D01*
G01*
X2288850Y-1529930D02*
G75*
G02*
X2258850Y-1529930I-15000J0D01*
G01*
X2258850Y-1529930D02*
G75*
G02*
X2288850Y-1529930I15000J0D01*
G01*
X2317000Y-1675000D02*
G75*
G02*
X2287000Y-1675000I-15000J0D01*
G01*
X2287000Y-1675000D02*
G75*
G02*
X2317000Y-1675000I15000J0D01*
G01*
X2335000Y-2499000D02*
G75*
G02*
X2305000Y-2499000I-15000J0D01*
G01*
X2305000Y-2499000D02*
G75*
G02*
X2335000Y-2499000I15000J0D01*
G01*
X2343330Y-4438870D02*
G75*
G02*
X2313330Y-4438870I-15000J0D01*
G01*
X2313330Y-4438870D02*
G75*
G02*
X2343330Y-4438870I15000J0D01*
G01*
X2345470Y-4517900D02*
G75*
G02*
X2315470Y-4517900I-15000J0D01*
G01*
X2315470Y-4517900D02*
G75*
G02*
X2345470Y-4517900I15000J0D01*
G01*
X2350440Y-1317920D02*
G75*
G02*
X2320440Y-1317920I-15000J0D01*
G01*
X2320440Y-1317920D02*
G75*
G02*
X2350440Y-1317920I15000J0D01*
G01*
X2366270Y-1076000D02*
G75*
G02*
X2336270Y-1076000I-15000J0D01*
G01*
X2336270Y-1076000D02*
G75*
G02*
X2366270Y-1076000I15000J0D01*
G01*
X2382810Y-702200D02*
G75*
G02*
X2352810Y-702200I-15000J0D01*
G01*
X2352810Y-702200D02*
G75*
G02*
X2382810Y-702200I15000J0D01*
G01*
X2416530Y-2833870D02*
G75*
G02*
X2386530Y-2833870I-15000J0D01*
G01*
X2386530Y-2833870D02*
G75*
G02*
X2416530Y-2833870I15000J0D01*
G01*
X2429800Y-302160D02*
G75*
G02*
X2399800Y-302160I-15000J0D01*
G01*
X2399800Y-302160D02*
G75*
G02*
X2429800Y-302160I15000J0D01*
G01*
X2465250Y-2047190D02*
G75*
G02*
X2435250Y-2047190I-15000J0D01*
G01*
X2435250Y-2047190D02*
G75*
G02*
X2465250Y-2047190I15000J0D01*
G01*
X2477180Y-701910D02*
G75*
G02*
X2447180Y-701910I-15000J0D01*
G01*
X2447180Y-701910D02*
G75*
G02*
X2477180Y-701910I15000J0D01*
G01*
X2519540Y-1034190D02*
G75*
G02*
X2489540Y-1034190I-15000J0D01*
G01*
X2489540Y-1034190D02*
G75*
G02*
X2519540Y-1034190I15000J0D01*
G01*
X2541290Y-913270D02*
G75*
G02*
X2511290Y-913270I-15000J0D01*
G01*
X2511290Y-913270D02*
G75*
G02*
X2541290Y-913270I15000J0D01*
G01*
X2555480Y-4079790D02*
G75*
G02*
X2525480Y-4079790I-15000J0D01*
G01*
X2525480Y-4079790D02*
G75*
G02*
X2555480Y-4079790I15000J0D01*
G01*
X2561670Y-3265620D02*
G75*
G02*
X2531670Y-3265620I-15000J0D01*
G01*
X2531670Y-3265620D02*
G75*
G02*
X2561670Y-3265620I15000J0D01*
G01*
X2583000Y-1450000D02*
G75*
G02*
X2553000Y-1450000I-15000J0D01*
G01*
X2553000Y-1450000D02*
G75*
G02*
X2583000Y-1450000I15000J0D01*
G01*
X2583000Y-1900000D02*
G75*
G02*
X2553000Y-1900000I-15000J0D01*
G01*
X2553000Y-1900000D02*
G75*
G02*
X2583000Y-1900000I15000J0D01*
G01*
X2585160Y-2587190D02*
G75*
G02*
X2555160Y-2587190I-15000J0D01*
G01*
X2555160Y-2587190D02*
G75*
G02*
X2585160Y-2587190I15000J0D01*
G01*
X2599700Y-3048770D02*
G75*
G02*
X2569700Y-3048770I-15000J0D01*
G01*
X2569700Y-3048770D02*
G75*
G02*
X2599700Y-3048770I15000J0D01*
G01*
X2665000Y-701350D02*
G75*
G02*
X2635000Y-701350I-15000J0D01*
G01*
X2635000Y-701350D02*
G75*
G02*
X2665000Y-701350I15000J0D01*
G01*
X2673100Y-2719910D02*
G75*
G02*
X2643100Y-2719910I-15000J0D01*
G01*
X2643100Y-2719910D02*
G75*
G02*
X2673100Y-2719910I15000J0D01*
G01*
X2691000Y-1146050D02*
G75*
G02*
X2661000Y-1146050I-15000J0D01*
G01*
X2661000Y-1146050D02*
G75*
G02*
X2691000Y-1146050I15000J0D01*
G01*
X2713960Y-1760840D02*
G75*
G02*
X2683960Y-1760840I-15000J0D01*
G01*
X2683960Y-1760840D02*
G75*
G02*
X2713960Y-1760840I15000J0D01*
G01*
X2715000Y-1329000D02*
G75*
G02*
X2685000Y-1329000I-15000J0D01*
G01*
X2685000Y-1329000D02*
G75*
G02*
X2715000Y-1329000I15000J0D01*
G01*
X2719660Y-863040D02*
G75*
G02*
X2689660Y-863040I-15000J0D01*
G01*
X2689660Y-863040D02*
G75*
G02*
X2719660Y-863040I15000J0D01*
G01*
X2720000Y-2375000D02*
G75*
G02*
X2690000Y-2375000I-15000J0D01*
G01*
X2690000Y-2375000D02*
G75*
G02*
X2720000Y-2375000I15000J0D01*
G01*
X2745000Y-3030000D02*
G75*
G02*
X2715000Y-3030000I-15000J0D01*
G01*
X2715000Y-3030000D02*
G75*
G02*
X2745000Y-3030000I15000J0D01*
G01*
X2750000Y-2760000D02*
G75*
G02*
X2720000Y-2760000I-15000J0D01*
G01*
X2720000Y-2760000D02*
G75*
G02*
X2750000Y-2760000I15000J0D01*
G01*
X2776350Y-3850420D02*
G75*
G02*
X2746350Y-3850420I-15000J0D01*
G01*
X2746350Y-3850420D02*
G75*
G02*
X2776350Y-3850420I15000J0D01*
G01*
X2793880Y-4438760D02*
G75*
G02*
X2763880Y-4438760I-15000J0D01*
G01*
X2763880Y-4438760D02*
G75*
G02*
X2793880Y-4438760I15000J0D01*
G01*
X2809860Y-1400000D02*
G75*
G02*
X2779860Y-1400000I-15000J0D01*
G01*
X2779860Y-1400000D02*
G75*
G02*
X2809860Y-1400000I15000J0D01*
G01*
X2888260Y-1329100D02*
G75*
G02*
X2858260Y-1329100I-15000J0D01*
G01*
X2858260Y-1329100D02*
G75*
G02*
X2888260Y-1329100I15000J0D01*
G01*
X2948860Y-3969480D02*
G75*
G02*
X2918860Y-3969480I-15000J0D01*
G01*
X2918860Y-3969480D02*
G75*
G02*
X2948860Y-3969480I15000J0D01*
G01*
X2958450Y-3080770D02*
G75*
G02*
X2928450Y-3080770I-15000J0D01*
G01*
X2928450Y-3080770D02*
G75*
G02*
X2958450Y-3080770I15000J0D01*
G01*
X2974110Y-3848750D02*
G75*
G02*
X2944110Y-3848750I-15000J0D01*
G01*
X2944110Y-3848750D02*
G75*
G02*
X2974110Y-3848750I15000J0D01*
G01*
X3000340Y-468600D02*
G75*
G02*
X2970340Y-468600I-15000J0D01*
G01*
X2970340Y-468600D02*
G75*
G02*
X3000340Y-468600I15000J0D01*
G01*
X3000340Y-946870D02*
G75*
G02*
X2970340Y-946870I-15000J0D01*
G01*
X2970340Y-946870D02*
G75*
G02*
X3000340Y-946870I15000J0D01*
G01*
X3068730Y-3851610D02*
G75*
G02*
X3038730Y-3851610I-15000J0D01*
G01*
X3038730Y-3851610D02*
G75*
G02*
X3068730Y-3851610I15000J0D01*
G01*
X3080000Y-3299000D02*
G75*
G02*
X3050000Y-3299000I-15000J0D01*
G01*
X3050000Y-3299000D02*
G75*
G02*
X3080000Y-3299000I15000J0D01*
G01*
X3115000Y-2900000D02*
G75*
G02*
X3085000Y-2900000I-15000J0D01*
G01*
X3085000Y-2900000D02*
G75*
G02*
X3115000Y-2900000I15000J0D01*
G01*
X3151110Y-1760840D02*
G75*
G02*
X3121110Y-1760840I-15000J0D01*
G01*
X3121110Y-1760840D02*
G75*
G02*
X3151110Y-1760840I15000J0D01*
G01*
X3250000Y-1492500D02*
G75*
G02*
X3220000Y-1492500I-15000J0D01*
G01*
X3220000Y-1492500D02*
G75*
G02*
X3250000Y-1492500I15000J0D01*
G01*
X3250810Y-4047050D02*
G75*
G02*
X3220810Y-4047050I-15000J0D01*
G01*
X3220810Y-4047050D02*
G75*
G02*
X3250810Y-4047050I15000J0D01*
G01*
X3265820Y-2368410D02*
G75*
G02*
X3235820Y-2368410I-15000J0D01*
G01*
X3235820Y-2368410D02*
G75*
G02*
X3265820Y-2368410I15000J0D01*
G01*
X3365000Y-1273000D02*
G75*
G02*
X3335000Y-1273000I-15000J0D01*
G01*
X3335000Y-1273000D02*
G75*
G02*
X3365000Y-1273000I15000J0D01*
G01*
X3374110Y-2485540D02*
G75*
G02*
X3344110Y-2485540I-15000J0D01*
G01*
X3344110Y-2485540D02*
G75*
G02*
X3374110Y-2485540I15000J0D01*
G01*
X3415000Y-549500D02*
G75*
G02*
X3385000Y-549500I-15000J0D01*
G01*
X3385000Y-549500D02*
G75*
G02*
X3415000Y-549500I15000J0D01*
G01*
X3425000Y-3236000D02*
G75*
G02*
X3395000Y-3236000I-15000J0D01*
G01*
X3395000Y-3236000D02*
G75*
G02*
X3425000Y-3236000I15000J0D01*
G01*
X3462000Y-2484340D02*
G75*
G02*
X3432000Y-2484340I-15000J0D01*
G01*
X3432000Y-2484340D02*
G75*
G02*
X3462000Y-2484340I15000J0D01*
G01*
X3530900Y-3226720D02*
G75*
G02*
X3500900Y-3226720I-15000J0D01*
G01*
X3500900Y-3226720D02*
G75*
G02*
X3530900Y-3226720I15000J0D01*
G01*
X3536500Y-3528990D02*
G75*
G02*
X3506500Y-3528990I-15000J0D01*
G01*
X3506500Y-3528990D02*
G75*
G02*
X3536500Y-3528990I15000J0D01*
G01*
X3613170Y-3533080D02*
G75*
G02*
X3583170Y-3533080I-15000J0D01*
G01*
X3583170Y-3533080D02*
G75*
G02*
X3613170Y-3533080I15000J0D01*
G01*
X3640000Y-4125000D02*
G75*
G02*
X3610000Y-4125000I-15000J0D01*
G01*
X3610000Y-4125000D02*
G75*
G02*
X3640000Y-4125000I15000J0D01*
G01*
X3645000Y-2610000D02*
G75*
G02*
X3615000Y-2610000I-15000J0D01*
G01*
X3615000Y-2610000D02*
G75*
G02*
X3645000Y-2610000I15000J0D01*
G01*
X3646000Y-1333000D02*
G75*
G02*
X3616000Y-1333000I-15000J0D01*
G01*
X3616000Y-1333000D02*
G75*
G02*
X3646000Y-1333000I15000J0D01*
G01*
X3651000Y-1870000D02*
G75*
G02*
X3621000Y-1870000I-15000J0D01*
G01*
X3621000Y-1870000D02*
G75*
G02*
X3651000Y-1870000I15000J0D01*
G01*
X3686000Y-4475000D02*
G75*
G02*
X3656000Y-4475000I-15000J0D01*
G01*
X3656000Y-4475000D02*
G75*
G02*
X3686000Y-4475000I15000J0D01*
G01*
X3755570Y-3783070D02*
G75*
G02*
X3725570Y-3783070I-15000J0D01*
G01*
X3725570Y-3783070D02*
G75*
G02*
X3755570Y-3783070I15000J0D01*
G01*
X3810240Y-3168140D02*
G75*
G02*
X3780240Y-3168140I-15000J0D01*
G01*
X3780240Y-3168140D02*
G75*
G02*
X3810240Y-3168140I15000J0D01*
G01*
X3815000Y-549500D02*
G75*
G02*
X3785000Y-549500I-15000J0D01*
G01*
X3785000Y-549500D02*
G75*
G02*
X3815000Y-549500I15000J0D01*
G01*
X3815000Y-3400000D02*
G75*
G02*
X3785000Y-3400000I-15000J0D01*
G01*
X3785000Y-3400000D02*
G75*
G02*
X3815000Y-3400000I15000J0D01*
G01*
X3840000Y-1205000D02*
G75*
G02*
X3810000Y-1205000I-15000J0D01*
G01*
X3810000Y-1205000D02*
G75*
G02*
X3840000Y-1205000I15000J0D01*
G01*
X3894100Y-2351740D02*
G75*
G02*
X3864100Y-2351740I-15000J0D01*
G01*
X3864100Y-2351740D02*
G75*
G02*
X3894100Y-2351740I15000J0D01*
G01*
X3915000Y-549500D02*
G75*
G02*
X3885000Y-549500I-15000J0D01*
G01*
X3885000Y-549500D02*
G75*
G02*
X3915000Y-549500I15000J0D01*
G01*
X3951950Y-1503690D02*
G75*
G02*
X3921950Y-1503690I-15000J0D01*
G01*
X3921950Y-1503690D02*
G75*
G02*
X3951950Y-1503690I15000J0D01*
G01*
X3995000Y-2035000D02*
G75*
G02*
X3965000Y-2035000I-15000J0D01*
G01*
X3965000Y-2035000D02*
G75*
G02*
X3995000Y-2035000I15000J0D01*
G01*
X4006000Y-3675000D02*
G75*
G02*
X3976000Y-3675000I-15000J0D01*
G01*
X3976000Y-3675000D02*
G75*
G02*
X4006000Y-3675000I15000J0D01*
G01*
X4060000Y-1715000D02*
G75*
G02*
X4030000Y-1715000I-15000J0D01*
G01*
X4030000Y-1715000D02*
G75*
G02*
X4060000Y-1715000I15000J0D01*
G01*
X4120000Y-3202500D02*
G75*
G02*
X4090000Y-3202500I-15000J0D01*
G01*
X4090000Y-3202500D02*
G75*
G02*
X4120000Y-3202500I15000J0D01*
G01*
X4165000Y-254000D02*
G75*
G02*
X4135000Y-254000I-15000J0D01*
G01*
X4135000Y-254000D02*
G75*
G02*
X4165000Y-254000I15000J0D01*
G01*
X4165000Y-496000D02*
G75*
G02*
X4135000Y-496000I-15000J0D01*
G01*
X4135000Y-496000D02*
G75*
G02*
X4165000Y-496000I15000J0D01*
G01*
X4165000Y-2377000D02*
G75*
G02*
X4135000Y-2377000I-15000J0D01*
G01*
X4135000Y-2377000D02*
G75*
G02*
X4165000Y-2377000I15000J0D01*
G01*
X4240000Y-1620000D02*
G75*
G02*
X4210000Y-1620000I-15000J0D01*
G01*
X4210000Y-1620000D02*
G75*
G02*
X4240000Y-1620000I15000J0D01*
G01*
X4240000Y-1810000D02*
G75*
G02*
X4210000Y-1810000I-15000J0D01*
G01*
X4210000Y-1810000D02*
G75*
G02*
X4240000Y-1810000I15000J0D01*
G01*
X4335000Y-1375000D02*
G75*
G02*
X4305000Y-1375000I-15000J0D01*
G01*
X4305000Y-1375000D02*
G75*
G02*
X4335000Y-1375000I15000J0D01*
G01*
X4344260Y-917660D02*
G75*
G02*
X4314260Y-917660I-15000J0D01*
G01*
X4314260Y-917660D02*
G75*
G02*
X4344260Y-917660I15000J0D01*
G01*
X4413000Y-1000000D02*
G75*
G02*
X4383000Y-1000000I-15000J0D01*
G01*
X4383000Y-1000000D02*
G75*
G02*
X4413000Y-1000000I15000J0D01*
G01*
X4604990Y-2350290D02*
G75*
G02*
X4574990Y-2350290I-15000J0D01*
G01*
X4574990Y-2350290D02*
G75*
G02*
X4604990Y-2350290I15000J0D01*
G01*
X4755500Y-896000D02*
G75*
G02*
X4725500Y-896000I-15000J0D01*
G01*
X4725500Y-896000D02*
G75*
G02*
X4755500Y-896000I15000J0D01*
G01*
X4755500Y-1746000D02*
G75*
G02*
X4725500Y-1746000I-15000J0D01*
G01*
X4725500Y-1746000D02*
G75*
G02*
X4755500Y-1746000I15000J0D01*
G01*
X4785000Y-650000D02*
G75*
G02*
X4755000Y-650000I-15000J0D01*
G01*
X4755000Y-650000D02*
G75*
G02*
X4785000Y-650000I15000J0D01*
G01*
X4800910Y-3898840D02*
G75*
G02*
X4770910Y-3898840I-15000J0D01*
G01*
X4770910Y-3898840D02*
G75*
G02*
X4800910Y-3898840I15000J0D01*
G01*
X5028680Y-4340680D02*
G75*
G02*
X4998680Y-4340680I-15000J0D01*
G01*
X4998680Y-4340680D02*
G75*
G02*
X5028680Y-4340680I15000J0D01*
G01*
X5176320Y-4337320D02*
G75*
G02*
X5146320Y-4337320I-15000J0D01*
G01*
X5146320Y-4337320D02*
G75*
G02*
X5176320Y-4337320I15000J0D01*
G01*
X805670Y-4156070D02*
X805670Y-4196070D01*
X785670Y-4176070D02*
X825670Y-4176070D01*
X1699570Y-3693000D02*
X1699570Y-3733000D01*
X1679570Y-3713000D02*
X1719570Y-3713000D01*
X1917720Y-3501340D02*
X1917720Y-3541340D01*
X1897720Y-3521340D02*
X1937720Y-3521340D01*
X2085580Y-3040420D02*
X2085580Y-3080420D01*
X2065580Y-3060420D02*
X2105580Y-3060420D01*
X2311170Y-3416280D02*
X2311170Y-3456280D01*
X2291170Y-3436280D02*
X2331170Y-3436280D01*
X2360340Y-3137330D02*
X2360340Y-3177330D01*
X2340340Y-3157330D02*
X2380340Y-3157330D01*
X2515000Y-2355000D02*
X2515000Y-2395000D01*
X2495000Y-2375000D02*
X2535000Y-2375000D01*
X2589880Y-3159150D02*
X2589880Y-3199150D01*
X2569880Y-3179150D02*
X2609880Y-3179150D01*
X2702110Y-2861100D02*
X2702110Y-2901100D01*
X2682110Y-2881100D02*
X2722110Y-2881100D01*
X2735000Y-2550000D02*
X2735000Y-2590000D01*
X2715000Y-2570000D02*
X2755000Y-2570000D01*
X2847750Y-2495680D02*
X2847750Y-2535680D01*
X2827750Y-2515680D02*
X2867750Y-2515680D01*
X3404930Y-3566100D02*
X3404930Y-3606100D01*
X3384930Y-3586100D02*
X3424930Y-3586100D01*
X3527000Y-3080000D02*
X3527000Y-3120000D01*
X3507000Y-3100000D02*
X3547000Y-3100000D01*
X3840040Y-3610230D02*
X3840040Y-3650230D01*
X3820040Y-3630230D02*
X3860040Y-3630230D01*
X3859270Y-3020390D02*
X3859270Y-3060390D01*
X3839270Y-3040390D02*
X3879270Y-3040390D01*
X3941100Y-3544530D02*
X3941100Y-3584530D01*
X3921100Y-3564530D02*
X3961100Y-3564530D01*
X4105000Y-3517500D02*
X4105000Y-3557500D01*
X4085000Y-3537500D02*
X4125000Y-3537500D01*
X4740500Y-1130000D02*
X4740500Y-1170000D01*
X4720500Y-1150000D02*
X4760500Y-1150000D01*
X4740500Y-1980000D02*
X4740500Y-2020000D01*
X4720500Y-2000000D02*
X4760500Y-2000000D01*
X2469213Y-3843713D02*
X2469213Y-3801287D01*
X2426787Y-3801287D01*
X2426787Y-3843713D01*
X2469213Y-3843713D01*
X2418000Y-3767500D02*
X2418000Y-3877500D01*
X2478000Y-3877500D02*
G75*
G02*
X2418000Y-3877500I-30000J0D01*
G01*
X2478000Y-3877500D02*
X2478000Y-3767500D01*
X2478000Y-3767500D02*
G75*
G03*
X2418000Y-3767500I-30000J0D01*
G01*
X2469213Y-4261713D02*
X2469213Y-4219287D01*
X2426787Y-4219287D01*
X2426787Y-4261713D01*
X2469213Y-4261713D01*
X2418000Y-4210500D02*
X2418000Y-4270500D01*
X2478000Y-4270500D02*
G75*
G02*
X2418000Y-4270500I-30000J0D01*
G01*
X2478000Y-4270500D02*
X2478000Y-4210500D01*
X2478000Y-4210500D02*
G75*
G03*
X2418000Y-4210500I-30000J0D01*
G01*
X3333213Y-3843713D02*
X3333213Y-3801287D01*
X3290787Y-3801287D01*
X3290787Y-3843713D01*
X3333213Y-3843713D01*
X3282000Y-3767500D02*
X3282000Y-3877500D01*
X3342000Y-3877500D02*
G75*
G02*
X3282000Y-3877500I-30000J0D01*
G01*
X3342000Y-3877500D02*
X3342000Y-3767500D01*
X3342000Y-3767500D02*
G75*
G03*
X3282000Y-3767500I-30000J0D01*
G01*
X3333213Y-4261713D02*
X3333213Y-4219287D01*
X3290787Y-4219287D01*
X3290787Y-4261713D01*
X3333213Y-4261713D01*
X3282000Y-4210500D02*
X3282000Y-4270500D01*
X3342000Y-4270500D02*
G75*
G02*
X3282000Y-4270500I-30000J0D01*
G01*
X3342000Y-4270500D02*
X3342000Y-4210500D01*
X3342000Y-4210500D02*
G75*
G03*
X3282000Y-4210500I-30000J0D01*
G01*
D11*
X255777Y-4916484D02*
X255777Y-4716484D01*
X255777Y-4716484D02*
X303396Y-4716484D01*
X303396Y-4716484D02*
X331967Y-4726008D01*
X331967Y-4726008D02*
X351015Y-4745055D01*
X351015Y-4745055D02*
X360539Y-4764103D01*
X360539Y-4764103D02*
X370062Y-4802198D01*
X370062Y-4802198D02*
X370062Y-4830770D01*
X370062Y-4830770D02*
X360539Y-4868865D01*
X360539Y-4868865D02*
X351015Y-4887912D01*
X351015Y-4887912D02*
X331967Y-4906960D01*
X331967Y-4906960D02*
X303396Y-4916484D01*
X303396Y-4916484D02*
X255777Y-4916484D01*
X455777Y-4916484D02*
X455777Y-4783150D01*
X455777Y-4821246D02*
X465301Y-4802198D01*
X465301Y-4802198D02*
X474824Y-4792674D01*
X474824Y-4792674D02*
X493872Y-4783150D01*
X493872Y-4783150D02*
X512920Y-4783150D01*
X579586Y-4916484D02*
X579586Y-4783150D01*
X579586Y-4716484D02*
X570063Y-4726008D01*
X570063Y-4726008D02*
X579586Y-4735531D01*
X579586Y-4735531D02*
X589110Y-4726008D01*
X589110Y-4726008D02*
X579586Y-4716484D01*
X579586Y-4716484D02*
X579586Y-4735531D01*
X703396Y-4916484D02*
X684348Y-4906960D01*
X684348Y-4906960D02*
X674824Y-4887912D01*
X674824Y-4887912D02*
X674824Y-4716484D01*
X808158Y-4916484D02*
X789110Y-4906960D01*
X789110Y-4906960D02*
X779586Y-4887912D01*
X779586Y-4887912D02*
X779586Y-4716484D01*
X1036729Y-4916484D02*
X1036729Y-4716484D01*
X1036729Y-4716484D02*
X1103396Y-4859341D01*
X1103396Y-4859341D02*
X1170063Y-4716484D01*
X1170063Y-4716484D02*
X1170063Y-4916484D01*
X1351015Y-4916484D02*
X1351015Y-4811722D01*
X1351015Y-4811722D02*
X1341491Y-4792674D01*
X1341491Y-4792674D02*
X1322444Y-4783150D01*
X1322444Y-4783150D02*
X1284348Y-4783150D01*
X1284348Y-4783150D02*
X1265301Y-4792674D01*
X1351015Y-4906960D02*
X1331967Y-4916484D01*
X1331967Y-4916484D02*
X1284348Y-4916484D01*
X1284348Y-4916484D02*
X1265301Y-4906960D01*
X1265301Y-4906960D02*
X1255777Y-4887912D01*
X1255777Y-4887912D02*
X1255777Y-4868865D01*
X1255777Y-4868865D02*
X1265301Y-4849817D01*
X1265301Y-4849817D02*
X1284348Y-4840293D01*
X1284348Y-4840293D02*
X1331967Y-4840293D01*
X1331967Y-4840293D02*
X1351015Y-4830770D01*
X1446253Y-4783150D02*
X1446253Y-4983150D01*
X1446253Y-4792674D02*
X1465301Y-4783150D01*
X1465301Y-4783150D02*
X1503396Y-4783150D01*
X1503396Y-4783150D02*
X1522443Y-4792674D01*
X1522443Y-4792674D02*
X1531967Y-4802198D01*
X1531967Y-4802198D02*
X1541491Y-4821246D01*
X1541491Y-4821246D02*
X1541491Y-4878389D01*
X1541491Y-4878389D02*
X1531967Y-4897436D01*
X1531967Y-4897436D02*
X1522443Y-4906960D01*
X1522443Y-4906960D02*
X1503396Y-4916484D01*
X1503396Y-4916484D02*
X1465301Y-4916484D01*
X1465301Y-4916484D02*
X1446253Y-4906960D01*
X1627205Y-4897436D02*
X1636729Y-4906960D01*
X1636729Y-4906960D02*
X1627205Y-4916484D01*
X1627205Y-4916484D02*
X1617682Y-4906960D01*
X1617682Y-4906960D02*
X1627205Y-4897436D01*
X1627205Y-4897436D02*
X1627205Y-4916484D01*
X1627205Y-4792674D02*
X1636729Y-4802198D01*
X1636729Y-4802198D02*
X1627205Y-4811722D01*
X1627205Y-4811722D02*
X1617682Y-4802198D01*
X1617682Y-4802198D02*
X1627205Y-4792674D01*
X1627205Y-4792674D02*
X1627205Y-4811722D01*
D10*
X-25000Y-5235000D02*
X-5000Y-5255000D01*
X-5000Y-5235000D02*
X-25000Y-5255000D01*
D11*
X293872Y-5136484D02*
X312920Y-5136484D01*
X312920Y-5136484D02*
X331967Y-5146008D01*
X331967Y-5146008D02*
X341491Y-5155531D01*
X341491Y-5155531D02*
X351015Y-5174579D01*
X351015Y-5174579D02*
X360539Y-5212674D01*
X360539Y-5212674D02*
X360539Y-5260293D01*
X360539Y-5260293D02*
X351015Y-5298389D01*
X351015Y-5298389D02*
X341491Y-5317436D01*
X341491Y-5317436D02*
X331967Y-5326960D01*
X331967Y-5326960D02*
X312920Y-5336484D01*
X312920Y-5336484D02*
X293872Y-5336484D01*
X293872Y-5336484D02*
X274824Y-5326960D01*
X274824Y-5326960D02*
X265301Y-5317436D01*
X265301Y-5317436D02*
X255777Y-5298389D01*
X255777Y-5298389D02*
X246253Y-5260293D01*
X246253Y-5260293D02*
X246253Y-5212674D01*
X246253Y-5212674D02*
X255777Y-5174579D01*
X255777Y-5174579D02*
X265301Y-5155531D01*
X265301Y-5155531D02*
X274824Y-5146008D01*
X274824Y-5146008D02*
X293872Y-5136484D01*
X446253Y-5317436D02*
X455777Y-5326960D01*
X455777Y-5326960D02*
X446253Y-5336484D01*
X446253Y-5336484D02*
X436729Y-5326960D01*
X436729Y-5326960D02*
X446253Y-5317436D01*
X446253Y-5317436D02*
X446253Y-5336484D01*
X531967Y-5155531D02*
X541491Y-5146008D01*
X541491Y-5146008D02*
X560539Y-5136484D01*
X560539Y-5136484D02*
X608158Y-5136484D01*
X608158Y-5136484D02*
X627205Y-5146008D01*
X627205Y-5146008D02*
X636729Y-5155531D01*
X636729Y-5155531D02*
X646253Y-5174579D01*
X646253Y-5174579D02*
X646253Y-5193627D01*
X646253Y-5193627D02*
X636729Y-5222198D01*
X636729Y-5222198D02*
X522443Y-5336484D01*
X522443Y-5336484D02*
X646253Y-5336484D01*
X770062Y-5136484D02*
X789110Y-5136484D01*
X789110Y-5136484D02*
X808158Y-5146008D01*
X808158Y-5146008D02*
X817682Y-5155531D01*
X817682Y-5155531D02*
X827205Y-5174579D01*
X827205Y-5174579D02*
X836729Y-5212674D01*
X836729Y-5212674D02*
X836729Y-5260293D01*
X836729Y-5260293D02*
X827205Y-5298389D01*
X827205Y-5298389D02*
X817682Y-5317436D01*
X817682Y-5317436D02*
X808158Y-5326960D01*
X808158Y-5326960D02*
X789110Y-5336484D01*
X789110Y-5336484D02*
X770062Y-5336484D01*
X770062Y-5336484D02*
X751015Y-5326960D01*
X751015Y-5326960D02*
X741491Y-5317436D01*
X741491Y-5317436D02*
X731967Y-5298389D01*
X731967Y-5298389D02*
X722443Y-5260293D01*
X722443Y-5260293D02*
X722443Y-5212674D01*
X722443Y-5212674D02*
X731967Y-5174579D01*
X731967Y-5174579D02*
X741491Y-5155531D01*
X741491Y-5155531D02*
X751015Y-5146008D01*
X751015Y-5146008D02*
X770062Y-5136484D01*
X960539Y-5136484D02*
X979586Y-5136484D01*
X979586Y-5136484D02*
X998634Y-5146008D01*
X998634Y-5146008D02*
X1008158Y-5155531D01*
X1008158Y-5155531D02*
X1017682Y-5174579D01*
X1017682Y-5174579D02*
X1027205Y-5212674D01*
X1027205Y-5212674D02*
X1027205Y-5260293D01*
X1027205Y-5260293D02*
X1017682Y-5298389D01*
X1017682Y-5298389D02*
X1008158Y-5317436D01*
X1008158Y-5317436D02*
X998634Y-5326960D01*
X998634Y-5326960D02*
X979586Y-5336484D01*
X979586Y-5336484D02*
X960539Y-5336484D01*
X960539Y-5336484D02*
X941491Y-5326960D01*
X941491Y-5326960D02*
X931967Y-5317436D01*
X931967Y-5317436D02*
X922443Y-5298389D01*
X922443Y-5298389D02*
X912920Y-5260293D01*
X912920Y-5260293D02*
X912920Y-5212674D01*
X912920Y-5212674D02*
X922443Y-5174579D01*
X922443Y-5174579D02*
X931967Y-5155531D01*
X931967Y-5155531D02*
X941491Y-5146008D01*
X941491Y-5146008D02*
X960539Y-5136484D01*
X1112920Y-5336484D02*
X1112920Y-5203150D01*
X1112920Y-5222198D02*
X1122444Y-5212674D01*
X1122444Y-5212674D02*
X1141491Y-5203150D01*
X1141491Y-5203150D02*
X1170063Y-5203150D01*
X1170063Y-5203150D02*
X1189110Y-5212674D01*
X1189110Y-5212674D02*
X1198634Y-5231722D01*
X1198634Y-5231722D02*
X1198634Y-5336484D01*
X1198634Y-5231722D02*
X1208158Y-5212674D01*
X1208158Y-5212674D02*
X1227205Y-5203150D01*
X1227205Y-5203150D02*
X1255777Y-5203150D01*
X1255777Y-5203150D02*
X1274825Y-5212674D01*
X1274825Y-5212674D02*
X1284348Y-5231722D01*
X1284348Y-5231722D02*
X1284348Y-5336484D01*
X1379586Y-5336484D02*
X1379586Y-5203150D01*
X1379586Y-5222198D02*
X1389110Y-5212674D01*
X1389110Y-5212674D02*
X1408158Y-5203150D01*
X1408158Y-5203150D02*
X1436729Y-5203150D01*
X1436729Y-5203150D02*
X1455777Y-5212674D01*
X1455777Y-5212674D02*
X1465301Y-5231722D01*
X1465301Y-5231722D02*
X1465301Y-5336484D01*
X1465301Y-5231722D02*
X1474824Y-5212674D01*
X1474824Y-5212674D02*
X1493872Y-5203150D01*
X1493872Y-5203150D02*
X1522443Y-5203150D01*
X1522443Y-5203150D02*
X1541491Y-5212674D01*
X1541491Y-5212674D02*
X1551015Y-5231722D01*
X1551015Y-5231722D02*
X1551015Y-5336484D01*
X1941491Y-5126960D02*
X1770063Y-5384103D01*
X2198634Y-5136484D02*
X2217682Y-5136484D01*
X2217682Y-5136484D02*
X2236729Y-5146008D01*
X2236729Y-5146008D02*
X2246253Y-5155531D01*
X2246253Y-5155531D02*
X2255777Y-5174579D01*
X2255777Y-5174579D02*
X2265301Y-5212674D01*
X2265301Y-5212674D02*
X2265301Y-5260293D01*
X2265301Y-5260293D02*
X2255777Y-5298389D01*
X2255777Y-5298389D02*
X2246253Y-5317436D01*
X2246253Y-5317436D02*
X2236729Y-5326960D01*
X2236729Y-5326960D02*
X2217682Y-5336484D01*
X2217682Y-5336484D02*
X2198634Y-5336484D01*
X2198634Y-5336484D02*
X2179587Y-5326960D01*
X2179587Y-5326960D02*
X2170063Y-5317436D01*
X2170063Y-5317436D02*
X2160539Y-5298389D01*
X2160539Y-5298389D02*
X2151015Y-5260293D01*
X2151015Y-5260293D02*
X2151015Y-5212674D01*
X2151015Y-5212674D02*
X2160539Y-5174579D01*
X2160539Y-5174579D02*
X2170063Y-5155531D01*
X2170063Y-5155531D02*
X2179587Y-5146008D01*
X2179587Y-5146008D02*
X2198634Y-5136484D01*
X2351015Y-5317436D02*
X2360539Y-5326960D01*
X2360539Y-5326960D02*
X2351015Y-5336484D01*
X2351015Y-5336484D02*
X2341491Y-5326960D01*
X2341491Y-5326960D02*
X2351015Y-5317436D01*
X2351015Y-5317436D02*
X2351015Y-5336484D01*
X2484348Y-5136484D02*
X2503396Y-5136484D01*
X2503396Y-5136484D02*
X2522444Y-5146008D01*
X2522444Y-5146008D02*
X2531968Y-5155531D01*
X2531968Y-5155531D02*
X2541491Y-5174579D01*
X2541491Y-5174579D02*
X2551015Y-5212674D01*
X2551015Y-5212674D02*
X2551015Y-5260293D01*
X2551015Y-5260293D02*
X2541491Y-5298389D01*
X2541491Y-5298389D02*
X2531968Y-5317436D01*
X2531968Y-5317436D02*
X2522444Y-5326960D01*
X2522444Y-5326960D02*
X2503396Y-5336484D01*
X2503396Y-5336484D02*
X2484348Y-5336484D01*
X2484348Y-5336484D02*
X2465301Y-5326960D01*
X2465301Y-5326960D02*
X2455777Y-5317436D01*
X2455777Y-5317436D02*
X2446253Y-5298389D01*
X2446253Y-5298389D02*
X2436729Y-5260293D01*
X2436729Y-5260293D02*
X2436729Y-5212674D01*
X2436729Y-5212674D02*
X2446253Y-5174579D01*
X2446253Y-5174579D02*
X2455777Y-5155531D01*
X2455777Y-5155531D02*
X2465301Y-5146008D01*
X2465301Y-5146008D02*
X2484348Y-5136484D01*
X2674825Y-5136484D02*
X2693872Y-5136484D01*
X2693872Y-5136484D02*
X2712920Y-5146008D01*
X2712920Y-5146008D02*
X2722444Y-5155531D01*
X2722444Y-5155531D02*
X2731968Y-5174579D01*
X2731968Y-5174579D02*
X2741491Y-5212674D01*
X2741491Y-5212674D02*
X2741491Y-5260293D01*
X2741491Y-5260293D02*
X2731968Y-5298389D01*
X2731968Y-5298389D02*
X2722444Y-5317436D01*
X2722444Y-5317436D02*
X2712920Y-5326960D01*
X2712920Y-5326960D02*
X2693872Y-5336484D01*
X2693872Y-5336484D02*
X2674825Y-5336484D01*
X2674825Y-5336484D02*
X2655777Y-5326960D01*
X2655777Y-5326960D02*
X2646253Y-5317436D01*
X2646253Y-5317436D02*
X2636729Y-5298389D01*
X2636729Y-5298389D02*
X2627206Y-5260293D01*
X2627206Y-5260293D02*
X2627206Y-5212674D01*
X2627206Y-5212674D02*
X2636729Y-5174579D01*
X2636729Y-5174579D02*
X2646253Y-5155531D01*
X2646253Y-5155531D02*
X2655777Y-5146008D01*
X2655777Y-5146008D02*
X2674825Y-5136484D01*
X2808158Y-5136484D02*
X2941491Y-5136484D01*
X2941491Y-5136484D02*
X2855777Y-5336484D01*
X3027206Y-5336484D02*
X3065301Y-5336484D01*
X3065301Y-5336484D02*
X3084348Y-5326960D01*
X3084348Y-5326960D02*
X3093872Y-5317436D01*
X3093872Y-5317436D02*
X3112920Y-5288865D01*
X3112920Y-5288865D02*
X3122444Y-5250770D01*
X3122444Y-5250770D02*
X3122444Y-5174579D01*
X3122444Y-5174579D02*
X3112920Y-5155531D01*
X3112920Y-5155531D02*
X3103396Y-5146008D01*
X3103396Y-5146008D02*
X3084348Y-5136484D01*
X3084348Y-5136484D02*
X3046253Y-5136484D01*
X3046253Y-5136484D02*
X3027206Y-5146008D01*
X3027206Y-5146008D02*
X3017682Y-5155531D01*
X3017682Y-5155531D02*
X3008158Y-5174579D01*
X3008158Y-5174579D02*
X3008158Y-5222198D01*
X3008158Y-5222198D02*
X3017682Y-5241246D01*
X3017682Y-5241246D02*
X3027206Y-5250770D01*
X3027206Y-5250770D02*
X3046253Y-5260293D01*
X3046253Y-5260293D02*
X3084348Y-5260293D01*
X3084348Y-5260293D02*
X3103396Y-5250770D01*
X3103396Y-5250770D02*
X3112920Y-5241246D01*
X3112920Y-5241246D02*
X3122444Y-5222198D01*
X3198634Y-5136484D02*
X3198634Y-5174579D01*
X3274825Y-5136484D02*
X3274825Y-5174579D01*
X3570063Y-5412674D02*
X3560539Y-5403150D01*
X3560539Y-5403150D02*
X3541491Y-5374579D01*
X3541491Y-5374579D02*
X3531968Y-5355531D01*
X3531968Y-5355531D02*
X3522444Y-5326960D01*
X3522444Y-5326960D02*
X3512920Y-5279341D01*
X3512920Y-5279341D02*
X3512920Y-5241246D01*
X3512920Y-5241246D02*
X3522444Y-5193627D01*
X3522444Y-5193627D02*
X3531968Y-5165055D01*
X3531968Y-5165055D02*
X3541491Y-5146008D01*
X3541491Y-5146008D02*
X3560539Y-5117436D01*
X3560539Y-5117436D02*
X3570063Y-5107912D01*
X3751015Y-5336484D02*
X3636729Y-5336484D01*
X3693872Y-5336484D02*
X3693872Y-5136484D01*
X3693872Y-5136484D02*
X3674825Y-5165055D01*
X3674825Y-5165055D02*
X3655777Y-5184103D01*
X3655777Y-5184103D02*
X3636729Y-5193627D01*
X3922444Y-5203150D02*
X3922444Y-5336484D01*
X3874825Y-5126960D02*
X3827206Y-5269817D01*
X3827206Y-5269817D02*
X3951015Y-5269817D01*
X4179587Y-5336484D02*
X4179587Y-5136484D01*
X4265301Y-5336484D02*
X4265301Y-5231722D01*
X4265301Y-5231722D02*
X4255777Y-5212674D01*
X4255777Y-5212674D02*
X4236730Y-5203150D01*
X4236730Y-5203150D02*
X4208158Y-5203150D01*
X4208158Y-5203150D02*
X4189110Y-5212674D01*
X4189110Y-5212674D02*
X4179587Y-5222198D01*
X4389111Y-5336484D02*
X4370063Y-5326960D01*
X4370063Y-5326960D02*
X4360539Y-5317436D01*
X4360539Y-5317436D02*
X4351015Y-5298389D01*
X4351015Y-5298389D02*
X4351015Y-5241246D01*
X4351015Y-5241246D02*
X4360539Y-5222198D01*
X4360539Y-5222198D02*
X4370063Y-5212674D01*
X4370063Y-5212674D02*
X4389111Y-5203150D01*
X4389111Y-5203150D02*
X4417682Y-5203150D01*
X4417682Y-5203150D02*
X4436730Y-5212674D01*
X4436730Y-5212674D02*
X4446253Y-5222198D01*
X4446253Y-5222198D02*
X4455777Y-5241246D01*
X4455777Y-5241246D02*
X4455777Y-5298389D01*
X4455777Y-5298389D02*
X4446253Y-5317436D01*
X4446253Y-5317436D02*
X4436730Y-5326960D01*
X4436730Y-5326960D02*
X4417682Y-5336484D01*
X4417682Y-5336484D02*
X4389111Y-5336484D01*
X4570063Y-5336484D02*
X4551015Y-5326960D01*
X4551015Y-5326960D02*
X4541492Y-5307912D01*
X4541492Y-5307912D02*
X4541492Y-5136484D01*
X4722444Y-5326960D02*
X4703396Y-5336484D01*
X4703396Y-5336484D02*
X4665301Y-5336484D01*
X4665301Y-5336484D02*
X4646253Y-5326960D01*
X4646253Y-5326960D02*
X4636730Y-5307912D01*
X4636730Y-5307912D02*
X4636730Y-5231722D01*
X4636730Y-5231722D02*
X4646253Y-5212674D01*
X4646253Y-5212674D02*
X4665301Y-5203150D01*
X4665301Y-5203150D02*
X4703396Y-5203150D01*
X4703396Y-5203150D02*
X4722444Y-5212674D01*
X4722444Y-5212674D02*
X4731968Y-5231722D01*
X4731968Y-5231722D02*
X4731968Y-5250770D01*
X4731968Y-5250770D02*
X4636730Y-5269817D01*
X4808158Y-5326960D02*
X4827206Y-5336484D01*
X4827206Y-5336484D02*
X4865301Y-5336484D01*
X4865301Y-5336484D02*
X4884349Y-5326960D01*
X4884349Y-5326960D02*
X4893873Y-5307912D01*
X4893873Y-5307912D02*
X4893873Y-5298389D01*
X4893873Y-5298389D02*
X4884349Y-5279341D01*
X4884349Y-5279341D02*
X4865301Y-5269817D01*
X4865301Y-5269817D02*
X4836730Y-5269817D01*
X4836730Y-5269817D02*
X4817682Y-5260293D01*
X4817682Y-5260293D02*
X4808158Y-5241246D01*
X4808158Y-5241246D02*
X4808158Y-5231722D01*
X4808158Y-5231722D02*
X4817682Y-5212674D01*
X4817682Y-5212674D02*
X4836730Y-5203150D01*
X4836730Y-5203150D02*
X4865301Y-5203150D01*
X4865301Y-5203150D02*
X4884349Y-5212674D01*
X4960539Y-5412674D02*
X4970063Y-5403150D01*
X4970063Y-5403150D02*
X4989111Y-5374579D01*
X4989111Y-5374579D02*
X4998634Y-5355531D01*
X4998634Y-5355531D02*
X5008158Y-5326960D01*
X5008158Y-5326960D02*
X5017682Y-5279341D01*
X5017682Y-5279341D02*
X5017682Y-5241246D01*
X5017682Y-5241246D02*
X5008158Y-5193627D01*
X5008158Y-5193627D02*
X4998634Y-5165055D01*
X4998634Y-5165055D02*
X4989111Y-5146008D01*
X4989111Y-5146008D02*
X4970063Y-5117436D01*
X4970063Y-5117436D02*
X4960539Y-5107912D01*
D10*
X-5000Y-5509000D02*
G75*
G02*
X-35000Y-5509000I-15000J0D01*
G01*
X-35000Y-5509000D02*
G75*
G02*
X-5000Y-5509000I15000J0D01*
G01*
D11*
X293872Y-5400484D02*
X312920Y-5400484D01*
X312920Y-5400484D02*
X331967Y-5410008D01*
X331967Y-5410008D02*
X341491Y-5419531D01*
X341491Y-5419531D02*
X351015Y-5438579D01*
X351015Y-5438579D02*
X360539Y-5476674D01*
X360539Y-5476674D02*
X360539Y-5524293D01*
X360539Y-5524293D02*
X351015Y-5562389D01*
X351015Y-5562389D02*
X341491Y-5581436D01*
X341491Y-5581436D02*
X331967Y-5590960D01*
X331967Y-5590960D02*
X312920Y-5600484D01*
X312920Y-5600484D02*
X293872Y-5600484D01*
X293872Y-5600484D02*
X274824Y-5590960D01*
X274824Y-5590960D02*
X265301Y-5581436D01*
X265301Y-5581436D02*
X255777Y-5562389D01*
X255777Y-5562389D02*
X246253Y-5524293D01*
X246253Y-5524293D02*
X246253Y-5476674D01*
X246253Y-5476674D02*
X255777Y-5438579D01*
X255777Y-5438579D02*
X265301Y-5419531D01*
X265301Y-5419531D02*
X274824Y-5410008D01*
X274824Y-5410008D02*
X293872Y-5400484D01*
X446253Y-5581436D02*
X455777Y-5590960D01*
X455777Y-5590960D02*
X446253Y-5600484D01*
X446253Y-5600484D02*
X436729Y-5590960D01*
X436729Y-5590960D02*
X446253Y-5581436D01*
X446253Y-5581436D02*
X446253Y-5600484D01*
X522443Y-5400484D02*
X646253Y-5400484D01*
X646253Y-5400484D02*
X579586Y-5476674D01*
X579586Y-5476674D02*
X608158Y-5476674D01*
X608158Y-5476674D02*
X627205Y-5486198D01*
X627205Y-5486198D02*
X636729Y-5495722D01*
X636729Y-5495722D02*
X646253Y-5514770D01*
X646253Y-5514770D02*
X646253Y-5562389D01*
X646253Y-5562389D02*
X636729Y-5581436D01*
X636729Y-5581436D02*
X627205Y-5590960D01*
X627205Y-5590960D02*
X608158Y-5600484D01*
X608158Y-5600484D02*
X551015Y-5600484D01*
X551015Y-5600484D02*
X531967Y-5590960D01*
X531967Y-5590960D02*
X522443Y-5581436D01*
X770062Y-5400484D02*
X789110Y-5400484D01*
X789110Y-5400484D02*
X808158Y-5410008D01*
X808158Y-5410008D02*
X817682Y-5419531D01*
X817682Y-5419531D02*
X827205Y-5438579D01*
X827205Y-5438579D02*
X836729Y-5476674D01*
X836729Y-5476674D02*
X836729Y-5524293D01*
X836729Y-5524293D02*
X827205Y-5562389D01*
X827205Y-5562389D02*
X817682Y-5581436D01*
X817682Y-5581436D02*
X808158Y-5590960D01*
X808158Y-5590960D02*
X789110Y-5600484D01*
X789110Y-5600484D02*
X770062Y-5600484D01*
X770062Y-5600484D02*
X751015Y-5590960D01*
X751015Y-5590960D02*
X741491Y-5581436D01*
X741491Y-5581436D02*
X731967Y-5562389D01*
X731967Y-5562389D02*
X722443Y-5524293D01*
X722443Y-5524293D02*
X722443Y-5476674D01*
X722443Y-5476674D02*
X731967Y-5438579D01*
X731967Y-5438579D02*
X741491Y-5419531D01*
X741491Y-5419531D02*
X751015Y-5410008D01*
X751015Y-5410008D02*
X770062Y-5400484D01*
X960539Y-5400484D02*
X979586Y-5400484D01*
X979586Y-5400484D02*
X998634Y-5410008D01*
X998634Y-5410008D02*
X1008158Y-5419531D01*
X1008158Y-5419531D02*
X1017682Y-5438579D01*
X1017682Y-5438579D02*
X1027205Y-5476674D01*
X1027205Y-5476674D02*
X1027205Y-5524293D01*
X1027205Y-5524293D02*
X1017682Y-5562389D01*
X1017682Y-5562389D02*
X1008158Y-5581436D01*
X1008158Y-5581436D02*
X998634Y-5590960D01*
X998634Y-5590960D02*
X979586Y-5600484D01*
X979586Y-5600484D02*
X960539Y-5600484D01*
X960539Y-5600484D02*
X941491Y-5590960D01*
X941491Y-5590960D02*
X931967Y-5581436D01*
X931967Y-5581436D02*
X922443Y-5562389D01*
X922443Y-5562389D02*
X912920Y-5524293D01*
X912920Y-5524293D02*
X912920Y-5476674D01*
X912920Y-5476674D02*
X922443Y-5438579D01*
X922443Y-5438579D02*
X931967Y-5419531D01*
X931967Y-5419531D02*
X941491Y-5410008D01*
X941491Y-5410008D02*
X960539Y-5400484D01*
X1112920Y-5600484D02*
X1112920Y-5467150D01*
X1112920Y-5486198D02*
X1122444Y-5476674D01*
X1122444Y-5476674D02*
X1141491Y-5467150D01*
X1141491Y-5467150D02*
X1170063Y-5467150D01*
X1170063Y-5467150D02*
X1189110Y-5476674D01*
X1189110Y-5476674D02*
X1198634Y-5495722D01*
X1198634Y-5495722D02*
X1198634Y-5600484D01*
X1198634Y-5495722D02*
X1208158Y-5476674D01*
X1208158Y-5476674D02*
X1227205Y-5467150D01*
X1227205Y-5467150D02*
X1255777Y-5467150D01*
X1255777Y-5467150D02*
X1274825Y-5476674D01*
X1274825Y-5476674D02*
X1284348Y-5495722D01*
X1284348Y-5495722D02*
X1284348Y-5600484D01*
X1379586Y-5600484D02*
X1379586Y-5467150D01*
X1379586Y-5486198D02*
X1389110Y-5476674D01*
X1389110Y-5476674D02*
X1408158Y-5467150D01*
X1408158Y-5467150D02*
X1436729Y-5467150D01*
X1436729Y-5467150D02*
X1455777Y-5476674D01*
X1455777Y-5476674D02*
X1465301Y-5495722D01*
X1465301Y-5495722D02*
X1465301Y-5600484D01*
X1465301Y-5495722D02*
X1474824Y-5476674D01*
X1474824Y-5476674D02*
X1493872Y-5467150D01*
X1493872Y-5467150D02*
X1522443Y-5467150D01*
X1522443Y-5467150D02*
X1541491Y-5476674D01*
X1541491Y-5476674D02*
X1551015Y-5495722D01*
X1551015Y-5495722D02*
X1551015Y-5600484D01*
X1941491Y-5390960D02*
X1770063Y-5648103D01*
X2198634Y-5400484D02*
X2217682Y-5400484D01*
X2217682Y-5400484D02*
X2236729Y-5410008D01*
X2236729Y-5410008D02*
X2246253Y-5419531D01*
X2246253Y-5419531D02*
X2255777Y-5438579D01*
X2255777Y-5438579D02*
X2265301Y-5476674D01*
X2265301Y-5476674D02*
X2265301Y-5524293D01*
X2265301Y-5524293D02*
X2255777Y-5562389D01*
X2255777Y-5562389D02*
X2246253Y-5581436D01*
X2246253Y-5581436D02*
X2236729Y-5590960D01*
X2236729Y-5590960D02*
X2217682Y-5600484D01*
X2217682Y-5600484D02*
X2198634Y-5600484D01*
X2198634Y-5600484D02*
X2179587Y-5590960D01*
X2179587Y-5590960D02*
X2170063Y-5581436D01*
X2170063Y-5581436D02*
X2160539Y-5562389D01*
X2160539Y-5562389D02*
X2151015Y-5524293D01*
X2151015Y-5524293D02*
X2151015Y-5476674D01*
X2151015Y-5476674D02*
X2160539Y-5438579D01*
X2160539Y-5438579D02*
X2170063Y-5419531D01*
X2170063Y-5419531D02*
X2179587Y-5410008D01*
X2179587Y-5410008D02*
X2198634Y-5400484D01*
X2351015Y-5581436D02*
X2360539Y-5590960D01*
X2360539Y-5590960D02*
X2351015Y-5600484D01*
X2351015Y-5600484D02*
X2341491Y-5590960D01*
X2341491Y-5590960D02*
X2351015Y-5581436D01*
X2351015Y-5581436D02*
X2351015Y-5600484D01*
X2484348Y-5400484D02*
X2503396Y-5400484D01*
X2503396Y-5400484D02*
X2522444Y-5410008D01*
X2522444Y-5410008D02*
X2531968Y-5419531D01*
X2531968Y-5419531D02*
X2541491Y-5438579D01*
X2541491Y-5438579D02*
X2551015Y-5476674D01*
X2551015Y-5476674D02*
X2551015Y-5524293D01*
X2551015Y-5524293D02*
X2541491Y-5562389D01*
X2541491Y-5562389D02*
X2531968Y-5581436D01*
X2531968Y-5581436D02*
X2522444Y-5590960D01*
X2522444Y-5590960D02*
X2503396Y-5600484D01*
X2503396Y-5600484D02*
X2484348Y-5600484D01*
X2484348Y-5600484D02*
X2465301Y-5590960D01*
X2465301Y-5590960D02*
X2455777Y-5581436D01*
X2455777Y-5581436D02*
X2446253Y-5562389D01*
X2446253Y-5562389D02*
X2436729Y-5524293D01*
X2436729Y-5524293D02*
X2436729Y-5476674D01*
X2436729Y-5476674D02*
X2446253Y-5438579D01*
X2446253Y-5438579D02*
X2455777Y-5419531D01*
X2455777Y-5419531D02*
X2465301Y-5410008D01*
X2465301Y-5410008D02*
X2484348Y-5400484D01*
X2741491Y-5600484D02*
X2627206Y-5600484D01*
X2684348Y-5600484D02*
X2684348Y-5400484D01*
X2684348Y-5400484D02*
X2665301Y-5429055D01*
X2665301Y-5429055D02*
X2646253Y-5448103D01*
X2646253Y-5448103D02*
X2627206Y-5457627D01*
X2931967Y-5600484D02*
X2817682Y-5600484D01*
X2874825Y-5600484D02*
X2874825Y-5400484D01*
X2874825Y-5400484D02*
X2855777Y-5429055D01*
X2855777Y-5429055D02*
X2836729Y-5448103D01*
X2836729Y-5448103D02*
X2817682Y-5457627D01*
X3046253Y-5486198D02*
X3027206Y-5476674D01*
X3027206Y-5476674D02*
X3017682Y-5467150D01*
X3017682Y-5467150D02*
X3008158Y-5448103D01*
X3008158Y-5448103D02*
X3008158Y-5438579D01*
X3008158Y-5438579D02*
X3017682Y-5419531D01*
X3017682Y-5419531D02*
X3027206Y-5410008D01*
X3027206Y-5410008D02*
X3046253Y-5400484D01*
X3046253Y-5400484D02*
X3084348Y-5400484D01*
X3084348Y-5400484D02*
X3103396Y-5410008D01*
X3103396Y-5410008D02*
X3112920Y-5419531D01*
X3112920Y-5419531D02*
X3122444Y-5438579D01*
X3122444Y-5438579D02*
X3122444Y-5448103D01*
X3122444Y-5448103D02*
X3112920Y-5467150D01*
X3112920Y-5467150D02*
X3103396Y-5476674D01*
X3103396Y-5476674D02*
X3084348Y-5486198D01*
X3084348Y-5486198D02*
X3046253Y-5486198D01*
X3046253Y-5486198D02*
X3027206Y-5495722D01*
X3027206Y-5495722D02*
X3017682Y-5505246D01*
X3017682Y-5505246D02*
X3008158Y-5524293D01*
X3008158Y-5524293D02*
X3008158Y-5562389D01*
X3008158Y-5562389D02*
X3017682Y-5581436D01*
X3017682Y-5581436D02*
X3027206Y-5590960D01*
X3027206Y-5590960D02*
X3046253Y-5600484D01*
X3046253Y-5600484D02*
X3084348Y-5600484D01*
X3084348Y-5600484D02*
X3103396Y-5590960D01*
X3103396Y-5590960D02*
X3112920Y-5581436D01*
X3112920Y-5581436D02*
X3122444Y-5562389D01*
X3122444Y-5562389D02*
X3122444Y-5524293D01*
X3122444Y-5524293D02*
X3112920Y-5505246D01*
X3112920Y-5505246D02*
X3103396Y-5495722D01*
X3103396Y-5495722D02*
X3084348Y-5486198D01*
X3198634Y-5400484D02*
X3198634Y-5438579D01*
X3274825Y-5400484D02*
X3274825Y-5438579D01*
X3570063Y-5676674D02*
X3560539Y-5667150D01*
X3560539Y-5667150D02*
X3541491Y-5638579D01*
X3541491Y-5638579D02*
X3531968Y-5619531D01*
X3531968Y-5619531D02*
X3522444Y-5590960D01*
X3522444Y-5590960D02*
X3512920Y-5543341D01*
X3512920Y-5543341D02*
X3512920Y-5505246D01*
X3512920Y-5505246D02*
X3522444Y-5457627D01*
X3522444Y-5457627D02*
X3531968Y-5429055D01*
X3531968Y-5429055D02*
X3541491Y-5410008D01*
X3541491Y-5410008D02*
X3560539Y-5381436D01*
X3560539Y-5381436D02*
X3570063Y-5371912D01*
X3751015Y-5600484D02*
X3636729Y-5600484D01*
X3693872Y-5600484D02*
X3693872Y-5400484D01*
X3693872Y-5400484D02*
X3674825Y-5429055D01*
X3674825Y-5429055D02*
X3655777Y-5448103D01*
X3655777Y-5448103D02*
X3636729Y-5457627D01*
X3922444Y-5467150D02*
X3922444Y-5600484D01*
X3874825Y-5390960D02*
X3827206Y-5533817D01*
X3827206Y-5533817D02*
X3951015Y-5533817D01*
X4122444Y-5400484D02*
X4027206Y-5400484D01*
X4027206Y-5400484D02*
X4017682Y-5495722D01*
X4017682Y-5495722D02*
X4027206Y-5486198D01*
X4027206Y-5486198D02*
X4046253Y-5476674D01*
X4046253Y-5476674D02*
X4093872Y-5476674D01*
X4093872Y-5476674D02*
X4112920Y-5486198D01*
X4112920Y-5486198D02*
X4122444Y-5495722D01*
X4122444Y-5495722D02*
X4131968Y-5514770D01*
X4131968Y-5514770D02*
X4131968Y-5562389D01*
X4131968Y-5562389D02*
X4122444Y-5581436D01*
X4122444Y-5581436D02*
X4112920Y-5590960D01*
X4112920Y-5590960D02*
X4093872Y-5600484D01*
X4093872Y-5600484D02*
X4046253Y-5600484D01*
X4046253Y-5600484D02*
X4027206Y-5590960D01*
X4027206Y-5590960D02*
X4017682Y-5581436D01*
X4370063Y-5600484D02*
X4370063Y-5400484D01*
X4455777Y-5600484D02*
X4455777Y-5495722D01*
X4455777Y-5495722D02*
X4446253Y-5476674D01*
X4446253Y-5476674D02*
X4427206Y-5467150D01*
X4427206Y-5467150D02*
X4398634Y-5467150D01*
X4398634Y-5467150D02*
X4379587Y-5476674D01*
X4379587Y-5476674D02*
X4370063Y-5486198D01*
X4579587Y-5600484D02*
X4560539Y-5590960D01*
X4560539Y-5590960D02*
X4551015Y-5581436D01*
X4551015Y-5581436D02*
X4541492Y-5562389D01*
X4541492Y-5562389D02*
X4541492Y-5505246D01*
X4541492Y-5505246D02*
X4551015Y-5486198D01*
X4551015Y-5486198D02*
X4560539Y-5476674D01*
X4560539Y-5476674D02*
X4579587Y-5467150D01*
X4579587Y-5467150D02*
X4608158Y-5467150D01*
X4608158Y-5467150D02*
X4627206Y-5476674D01*
X4627206Y-5476674D02*
X4636730Y-5486198D01*
X4636730Y-5486198D02*
X4646253Y-5505246D01*
X4646253Y-5505246D02*
X4646253Y-5562389D01*
X4646253Y-5562389D02*
X4636730Y-5581436D01*
X4636730Y-5581436D02*
X4627206Y-5590960D01*
X4627206Y-5590960D02*
X4608158Y-5600484D01*
X4608158Y-5600484D02*
X4579587Y-5600484D01*
X4760539Y-5600484D02*
X4741492Y-5590960D01*
X4741492Y-5590960D02*
X4731968Y-5571912D01*
X4731968Y-5571912D02*
X4731968Y-5400484D01*
X4912920Y-5590960D02*
X4893873Y-5600484D01*
X4893873Y-5600484D02*
X4855777Y-5600484D01*
X4855777Y-5600484D02*
X4836730Y-5590960D01*
X4836730Y-5590960D02*
X4827206Y-5571912D01*
X4827206Y-5571912D02*
X4827206Y-5495722D01*
X4827206Y-5495722D02*
X4836730Y-5476674D01*
X4836730Y-5476674D02*
X4855777Y-5467150D01*
X4855777Y-5467150D02*
X4893873Y-5467150D01*
X4893873Y-5467150D02*
X4912920Y-5476674D01*
X4912920Y-5476674D02*
X4922444Y-5495722D01*
X4922444Y-5495722D02*
X4922444Y-5514770D01*
X4922444Y-5514770D02*
X4827206Y-5533817D01*
X4998634Y-5590960D02*
X5017682Y-5600484D01*
X5017682Y-5600484D02*
X5055777Y-5600484D01*
X5055777Y-5600484D02*
X5074825Y-5590960D01*
X5074825Y-5590960D02*
X5084349Y-5571912D01*
X5084349Y-5571912D02*
X5084349Y-5562389D01*
X5084349Y-5562389D02*
X5074825Y-5543341D01*
X5074825Y-5543341D02*
X5055777Y-5533817D01*
X5055777Y-5533817D02*
X5027206Y-5533817D01*
X5027206Y-5533817D02*
X5008158Y-5524293D01*
X5008158Y-5524293D02*
X4998634Y-5505246D01*
X4998634Y-5505246D02*
X4998634Y-5495722D01*
X4998634Y-5495722D02*
X5008158Y-5476674D01*
X5008158Y-5476674D02*
X5027206Y-5467150D01*
X5027206Y-5467150D02*
X5055777Y-5467150D01*
X5055777Y-5467150D02*
X5074825Y-5476674D01*
X5151015Y-5676674D02*
X5160539Y-5667150D01*
X5160539Y-5667150D02*
X5179587Y-5638579D01*
X5179587Y-5638579D02*
X5189111Y-5619531D01*
X5189111Y-5619531D02*
X5198634Y-5590960D01*
X5198634Y-5590960D02*
X5208158Y-5543341D01*
X5208158Y-5543341D02*
X5208158Y-5505246D01*
X5208158Y-5505246D02*
X5198634Y-5457627D01*
X5198634Y-5457627D02*
X5189111Y-5429055D01*
X5189111Y-5429055D02*
X5179587Y-5410008D01*
X5179587Y-5410008D02*
X5160539Y-5381436D01*
X5160539Y-5381436D02*
X5151015Y-5371912D01*
D10*
X-25000Y-5753000D02*
X-25000Y-5793000D01*
X-45000Y-5773000D02*
X-5000Y-5773000D01*
D11*
X293872Y-5664484D02*
X312920Y-5664484D01*
X312920Y-5664484D02*
X331967Y-5674008D01*
X331967Y-5674008D02*
X341491Y-5683531D01*
X341491Y-5683531D02*
X351015Y-5702579D01*
X351015Y-5702579D02*
X360539Y-5740674D01*
X360539Y-5740674D02*
X360539Y-5788293D01*
X360539Y-5788293D02*
X351015Y-5826388D01*
X351015Y-5826388D02*
X341491Y-5845436D01*
X341491Y-5845436D02*
X331967Y-5854960D01*
X331967Y-5854960D02*
X312920Y-5864484D01*
X312920Y-5864484D02*
X293872Y-5864484D01*
X293872Y-5864484D02*
X274824Y-5854960D01*
X274824Y-5854960D02*
X265301Y-5845436D01*
X265301Y-5845436D02*
X255777Y-5826388D01*
X255777Y-5826388D02*
X246253Y-5788293D01*
X246253Y-5788293D02*
X246253Y-5740674D01*
X246253Y-5740674D02*
X255777Y-5702579D01*
X255777Y-5702579D02*
X265301Y-5683531D01*
X265301Y-5683531D02*
X274824Y-5674008D01*
X274824Y-5674008D02*
X293872Y-5664484D01*
X446253Y-5845436D02*
X455777Y-5854960D01*
X455777Y-5854960D02*
X446253Y-5864484D01*
X446253Y-5864484D02*
X436729Y-5854960D01*
X436729Y-5854960D02*
X446253Y-5845436D01*
X446253Y-5845436D02*
X446253Y-5864484D01*
X627205Y-5731150D02*
X627205Y-5864484D01*
X579586Y-5654960D02*
X531967Y-5797817D01*
X531967Y-5797817D02*
X655777Y-5797817D01*
X770062Y-5664484D02*
X789110Y-5664484D01*
X789110Y-5664484D02*
X808158Y-5674008D01*
X808158Y-5674008D02*
X817682Y-5683531D01*
X817682Y-5683531D02*
X827205Y-5702579D01*
X827205Y-5702579D02*
X836729Y-5740674D01*
X836729Y-5740674D02*
X836729Y-5788293D01*
X836729Y-5788293D02*
X827205Y-5826388D01*
X827205Y-5826388D02*
X817682Y-5845436D01*
X817682Y-5845436D02*
X808158Y-5854960D01*
X808158Y-5854960D02*
X789110Y-5864484D01*
X789110Y-5864484D02*
X770062Y-5864484D01*
X770062Y-5864484D02*
X751015Y-5854960D01*
X751015Y-5854960D02*
X741491Y-5845436D01*
X741491Y-5845436D02*
X731967Y-5826388D01*
X731967Y-5826388D02*
X722443Y-5788293D01*
X722443Y-5788293D02*
X722443Y-5740674D01*
X722443Y-5740674D02*
X731967Y-5702579D01*
X731967Y-5702579D02*
X741491Y-5683531D01*
X741491Y-5683531D02*
X751015Y-5674008D01*
X751015Y-5674008D02*
X770062Y-5664484D01*
X960539Y-5664484D02*
X979586Y-5664484D01*
X979586Y-5664484D02*
X998634Y-5674008D01*
X998634Y-5674008D02*
X1008158Y-5683531D01*
X1008158Y-5683531D02*
X1017682Y-5702579D01*
X1017682Y-5702579D02*
X1027205Y-5740674D01*
X1027205Y-5740674D02*
X1027205Y-5788293D01*
X1027205Y-5788293D02*
X1017682Y-5826388D01*
X1017682Y-5826388D02*
X1008158Y-5845436D01*
X1008158Y-5845436D02*
X998634Y-5854960D01*
X998634Y-5854960D02*
X979586Y-5864484D01*
X979586Y-5864484D02*
X960539Y-5864484D01*
X960539Y-5864484D02*
X941491Y-5854960D01*
X941491Y-5854960D02*
X931967Y-5845436D01*
X931967Y-5845436D02*
X922443Y-5826388D01*
X922443Y-5826388D02*
X912920Y-5788293D01*
X912920Y-5788293D02*
X912920Y-5740674D01*
X912920Y-5740674D02*
X922443Y-5702579D01*
X922443Y-5702579D02*
X931967Y-5683531D01*
X931967Y-5683531D02*
X941491Y-5674008D01*
X941491Y-5674008D02*
X960539Y-5664484D01*
X1112920Y-5864484D02*
X1112920Y-5731150D01*
X1112920Y-5750198D02*
X1122444Y-5740674D01*
X1122444Y-5740674D02*
X1141491Y-5731150D01*
X1141491Y-5731150D02*
X1170063Y-5731150D01*
X1170063Y-5731150D02*
X1189110Y-5740674D01*
X1189110Y-5740674D02*
X1198634Y-5759722D01*
X1198634Y-5759722D02*
X1198634Y-5864484D01*
X1198634Y-5759722D02*
X1208158Y-5740674D01*
X1208158Y-5740674D02*
X1227205Y-5731150D01*
X1227205Y-5731150D02*
X1255777Y-5731150D01*
X1255777Y-5731150D02*
X1274825Y-5740674D01*
X1274825Y-5740674D02*
X1284348Y-5759722D01*
X1284348Y-5759722D02*
X1284348Y-5864484D01*
X1379586Y-5864484D02*
X1379586Y-5731150D01*
X1379586Y-5750198D02*
X1389110Y-5740674D01*
X1389110Y-5740674D02*
X1408158Y-5731150D01*
X1408158Y-5731150D02*
X1436729Y-5731150D01*
X1436729Y-5731150D02*
X1455777Y-5740674D01*
X1455777Y-5740674D02*
X1465301Y-5759722D01*
X1465301Y-5759722D02*
X1465301Y-5864484D01*
X1465301Y-5759722D02*
X1474824Y-5740674D01*
X1474824Y-5740674D02*
X1493872Y-5731150D01*
X1493872Y-5731150D02*
X1522443Y-5731150D01*
X1522443Y-5731150D02*
X1541491Y-5740674D01*
X1541491Y-5740674D02*
X1551015Y-5759722D01*
X1551015Y-5759722D02*
X1551015Y-5864484D01*
X1941491Y-5654960D02*
X1770063Y-5912103D01*
X2198634Y-5664484D02*
X2217682Y-5664484D01*
X2217682Y-5664484D02*
X2236729Y-5674008D01*
X2236729Y-5674008D02*
X2246253Y-5683531D01*
X2246253Y-5683531D02*
X2255777Y-5702579D01*
X2255777Y-5702579D02*
X2265301Y-5740674D01*
X2265301Y-5740674D02*
X2265301Y-5788293D01*
X2265301Y-5788293D02*
X2255777Y-5826388D01*
X2255777Y-5826388D02*
X2246253Y-5845436D01*
X2246253Y-5845436D02*
X2236729Y-5854960D01*
X2236729Y-5854960D02*
X2217682Y-5864484D01*
X2217682Y-5864484D02*
X2198634Y-5864484D01*
X2198634Y-5864484D02*
X2179587Y-5854960D01*
X2179587Y-5854960D02*
X2170063Y-5845436D01*
X2170063Y-5845436D02*
X2160539Y-5826388D01*
X2160539Y-5826388D02*
X2151015Y-5788293D01*
X2151015Y-5788293D02*
X2151015Y-5740674D01*
X2151015Y-5740674D02*
X2160539Y-5702579D01*
X2160539Y-5702579D02*
X2170063Y-5683531D01*
X2170063Y-5683531D02*
X2179587Y-5674008D01*
X2179587Y-5674008D02*
X2198634Y-5664484D01*
X2351015Y-5845436D02*
X2360539Y-5854960D01*
X2360539Y-5854960D02*
X2351015Y-5864484D01*
X2351015Y-5864484D02*
X2341491Y-5854960D01*
X2341491Y-5854960D02*
X2351015Y-5845436D01*
X2351015Y-5845436D02*
X2351015Y-5864484D01*
X2484348Y-5664484D02*
X2503396Y-5664484D01*
X2503396Y-5664484D02*
X2522444Y-5674008D01*
X2522444Y-5674008D02*
X2531968Y-5683531D01*
X2531968Y-5683531D02*
X2541491Y-5702579D01*
X2541491Y-5702579D02*
X2551015Y-5740674D01*
X2551015Y-5740674D02*
X2551015Y-5788293D01*
X2551015Y-5788293D02*
X2541491Y-5826388D01*
X2541491Y-5826388D02*
X2531968Y-5845436D01*
X2531968Y-5845436D02*
X2522444Y-5854960D01*
X2522444Y-5854960D02*
X2503396Y-5864484D01*
X2503396Y-5864484D02*
X2484348Y-5864484D01*
X2484348Y-5864484D02*
X2465301Y-5854960D01*
X2465301Y-5854960D02*
X2455777Y-5845436D01*
X2455777Y-5845436D02*
X2446253Y-5826388D01*
X2446253Y-5826388D02*
X2436729Y-5788293D01*
X2436729Y-5788293D02*
X2436729Y-5740674D01*
X2436729Y-5740674D02*
X2446253Y-5702579D01*
X2446253Y-5702579D02*
X2455777Y-5683531D01*
X2455777Y-5683531D02*
X2465301Y-5674008D01*
X2465301Y-5674008D02*
X2484348Y-5664484D01*
X2741491Y-5864484D02*
X2627206Y-5864484D01*
X2684348Y-5864484D02*
X2684348Y-5664484D01*
X2684348Y-5664484D02*
X2665301Y-5693055D01*
X2665301Y-5693055D02*
X2646253Y-5712103D01*
X2646253Y-5712103D02*
X2627206Y-5721627D01*
X2922444Y-5664484D02*
X2827206Y-5664484D01*
X2827206Y-5664484D02*
X2817682Y-5759722D01*
X2817682Y-5759722D02*
X2827206Y-5750198D01*
X2827206Y-5750198D02*
X2846253Y-5740674D01*
X2846253Y-5740674D02*
X2893872Y-5740674D01*
X2893872Y-5740674D02*
X2912920Y-5750198D01*
X2912920Y-5750198D02*
X2922444Y-5759722D01*
X2922444Y-5759722D02*
X2931967Y-5778769D01*
X2931967Y-5778769D02*
X2931967Y-5826388D01*
X2931967Y-5826388D02*
X2922444Y-5845436D01*
X2922444Y-5845436D02*
X2912920Y-5854960D01*
X2912920Y-5854960D02*
X2893872Y-5864484D01*
X2893872Y-5864484D02*
X2846253Y-5864484D01*
X2846253Y-5864484D02*
X2827206Y-5854960D01*
X2827206Y-5854960D02*
X2817682Y-5845436D01*
X2998634Y-5664484D02*
X3131967Y-5664484D01*
X3131967Y-5664484D02*
X3046253Y-5864484D01*
X3198634Y-5664484D02*
X3198634Y-5702579D01*
X3274825Y-5664484D02*
X3274825Y-5702579D01*
X3570063Y-5940674D02*
X3560539Y-5931150D01*
X3560539Y-5931150D02*
X3541491Y-5902579D01*
X3541491Y-5902579D02*
X3531968Y-5883531D01*
X3531968Y-5883531D02*
X3522444Y-5854960D01*
X3522444Y-5854960D02*
X3512920Y-5807341D01*
X3512920Y-5807341D02*
X3512920Y-5769246D01*
X3512920Y-5769246D02*
X3522444Y-5721627D01*
X3522444Y-5721627D02*
X3531968Y-5693055D01*
X3531968Y-5693055D02*
X3541491Y-5674008D01*
X3541491Y-5674008D02*
X3560539Y-5645436D01*
X3560539Y-5645436D02*
X3570063Y-5635912D01*
X3751015Y-5864484D02*
X3636729Y-5864484D01*
X3693872Y-5864484D02*
X3693872Y-5664484D01*
X3693872Y-5664484D02*
X3674825Y-5693055D01*
X3674825Y-5693055D02*
X3655777Y-5712103D01*
X3655777Y-5712103D02*
X3636729Y-5721627D01*
X3846253Y-5864484D02*
X3884348Y-5864484D01*
X3884348Y-5864484D02*
X3903396Y-5854960D01*
X3903396Y-5854960D02*
X3912920Y-5845436D01*
X3912920Y-5845436D02*
X3931968Y-5816865D01*
X3931968Y-5816865D02*
X3941491Y-5778769D01*
X3941491Y-5778769D02*
X3941491Y-5702579D01*
X3941491Y-5702579D02*
X3931968Y-5683531D01*
X3931968Y-5683531D02*
X3922444Y-5674008D01*
X3922444Y-5674008D02*
X3903396Y-5664484D01*
X3903396Y-5664484D02*
X3865301Y-5664484D01*
X3865301Y-5664484D02*
X3846253Y-5674008D01*
X3846253Y-5674008D02*
X3836729Y-5683531D01*
X3836729Y-5683531D02*
X3827206Y-5702579D01*
X3827206Y-5702579D02*
X3827206Y-5750198D01*
X3827206Y-5750198D02*
X3836729Y-5769246D01*
X3836729Y-5769246D02*
X3846253Y-5778769D01*
X3846253Y-5778769D02*
X3865301Y-5788293D01*
X3865301Y-5788293D02*
X3903396Y-5788293D01*
X3903396Y-5788293D02*
X3922444Y-5778769D01*
X3922444Y-5778769D02*
X3931968Y-5769246D01*
X3931968Y-5769246D02*
X3941491Y-5750198D01*
X4179587Y-5864484D02*
X4179587Y-5664484D01*
X4265301Y-5864484D02*
X4265301Y-5759722D01*
X4265301Y-5759722D02*
X4255777Y-5740674D01*
X4255777Y-5740674D02*
X4236730Y-5731150D01*
X4236730Y-5731150D02*
X4208158Y-5731150D01*
X4208158Y-5731150D02*
X4189110Y-5740674D01*
X4189110Y-5740674D02*
X4179587Y-5750198D01*
X4389111Y-5864484D02*
X4370063Y-5854960D01*
X4370063Y-5854960D02*
X4360539Y-5845436D01*
X4360539Y-5845436D02*
X4351015Y-5826388D01*
X4351015Y-5826388D02*
X4351015Y-5769246D01*
X4351015Y-5769246D02*
X4360539Y-5750198D01*
X4360539Y-5750198D02*
X4370063Y-5740674D01*
X4370063Y-5740674D02*
X4389111Y-5731150D01*
X4389111Y-5731150D02*
X4417682Y-5731150D01*
X4417682Y-5731150D02*
X4436730Y-5740674D01*
X4436730Y-5740674D02*
X4446253Y-5750198D01*
X4446253Y-5750198D02*
X4455777Y-5769246D01*
X4455777Y-5769246D02*
X4455777Y-5826388D01*
X4455777Y-5826388D02*
X4446253Y-5845436D01*
X4446253Y-5845436D02*
X4436730Y-5854960D01*
X4436730Y-5854960D02*
X4417682Y-5864484D01*
X4417682Y-5864484D02*
X4389111Y-5864484D01*
X4570063Y-5864484D02*
X4551015Y-5854960D01*
X4551015Y-5854960D02*
X4541492Y-5835912D01*
X4541492Y-5835912D02*
X4541492Y-5664484D01*
X4722444Y-5854960D02*
X4703396Y-5864484D01*
X4703396Y-5864484D02*
X4665301Y-5864484D01*
X4665301Y-5864484D02*
X4646253Y-5854960D01*
X4646253Y-5854960D02*
X4636730Y-5835912D01*
X4636730Y-5835912D02*
X4636730Y-5759722D01*
X4636730Y-5759722D02*
X4646253Y-5740674D01*
X4646253Y-5740674D02*
X4665301Y-5731150D01*
X4665301Y-5731150D02*
X4703396Y-5731150D01*
X4703396Y-5731150D02*
X4722444Y-5740674D01*
X4722444Y-5740674D02*
X4731968Y-5759722D01*
X4731968Y-5759722D02*
X4731968Y-5778769D01*
X4731968Y-5778769D02*
X4636730Y-5797817D01*
X4808158Y-5854960D02*
X4827206Y-5864484D01*
X4827206Y-5864484D02*
X4865301Y-5864484D01*
X4865301Y-5864484D02*
X4884349Y-5854960D01*
X4884349Y-5854960D02*
X4893873Y-5835912D01*
X4893873Y-5835912D02*
X4893873Y-5826388D01*
X4893873Y-5826388D02*
X4884349Y-5807341D01*
X4884349Y-5807341D02*
X4865301Y-5797817D01*
X4865301Y-5797817D02*
X4836730Y-5797817D01*
X4836730Y-5797817D02*
X4817682Y-5788293D01*
X4817682Y-5788293D02*
X4808158Y-5769246D01*
X4808158Y-5769246D02*
X4808158Y-5759722D01*
X4808158Y-5759722D02*
X4817682Y-5740674D01*
X4817682Y-5740674D02*
X4836730Y-5731150D01*
X4836730Y-5731150D02*
X4865301Y-5731150D01*
X4865301Y-5731150D02*
X4884349Y-5740674D01*
X4960539Y-5940674D02*
X4970063Y-5931150D01*
X4970063Y-5931150D02*
X4989111Y-5902579D01*
X4989111Y-5902579D02*
X4998634Y-5883531D01*
X4998634Y-5883531D02*
X5008158Y-5854960D01*
X5008158Y-5854960D02*
X5017682Y-5807341D01*
X5017682Y-5807341D02*
X5017682Y-5769246D01*
X5017682Y-5769246D02*
X5008158Y-5721627D01*
X5008158Y-5721627D02*
X4998634Y-5693055D01*
X4998634Y-5693055D02*
X4989111Y-5674008D01*
X4989111Y-5674008D02*
X4970063Y-5645436D01*
X4970063Y-5645436D02*
X4960539Y-5635912D01*
D10*
X-13787Y-6058213D02*
X-13787Y-6015787D01*
X-56213Y-6015787D01*
X-56213Y-6058213D01*
X-13787Y-6058213D01*
D11*
X293872Y-5928484D02*
X312920Y-5928484D01*
X312920Y-5928484D02*
X331967Y-5938008D01*
X331967Y-5938008D02*
X341491Y-5947531D01*
X341491Y-5947531D02*
X351015Y-5966579D01*
X351015Y-5966579D02*
X360539Y-6004674D01*
X360539Y-6004674D02*
X360539Y-6052293D01*
X360539Y-6052293D02*
X351015Y-6090388D01*
X351015Y-6090388D02*
X341491Y-6109436D01*
X341491Y-6109436D02*
X331967Y-6118960D01*
X331967Y-6118960D02*
X312920Y-6128484D01*
X312920Y-6128484D02*
X293872Y-6128484D01*
X293872Y-6128484D02*
X274824Y-6118960D01*
X274824Y-6118960D02*
X265301Y-6109436D01*
X265301Y-6109436D02*
X255777Y-6090388D01*
X255777Y-6090388D02*
X246253Y-6052293D01*
X246253Y-6052293D02*
X246253Y-6004674D01*
X246253Y-6004674D02*
X255777Y-5966579D01*
X255777Y-5966579D02*
X265301Y-5947531D01*
X265301Y-5947531D02*
X274824Y-5938008D01*
X274824Y-5938008D02*
X293872Y-5928484D01*
X446253Y-6109436D02*
X455777Y-6118960D01*
X455777Y-6118960D02*
X446253Y-6128484D01*
X446253Y-6128484D02*
X436729Y-6118960D01*
X436729Y-6118960D02*
X446253Y-6109436D01*
X446253Y-6109436D02*
X446253Y-6128484D01*
X627205Y-5928484D02*
X589110Y-5928484D01*
X589110Y-5928484D02*
X570063Y-5938008D01*
X570063Y-5938008D02*
X560539Y-5947531D01*
X560539Y-5947531D02*
X541491Y-5976103D01*
X541491Y-5976103D02*
X531967Y-6014198D01*
X531967Y-6014198D02*
X531967Y-6090388D01*
X531967Y-6090388D02*
X541491Y-6109436D01*
X541491Y-6109436D02*
X551015Y-6118960D01*
X551015Y-6118960D02*
X570063Y-6128484D01*
X570063Y-6128484D02*
X608158Y-6128484D01*
X608158Y-6128484D02*
X627205Y-6118960D01*
X627205Y-6118960D02*
X636729Y-6109436D01*
X636729Y-6109436D02*
X646253Y-6090388D01*
X646253Y-6090388D02*
X646253Y-6042769D01*
X646253Y-6042769D02*
X636729Y-6023722D01*
X636729Y-6023722D02*
X627205Y-6014198D01*
X627205Y-6014198D02*
X608158Y-6004674D01*
X608158Y-6004674D02*
X570063Y-6004674D01*
X570063Y-6004674D02*
X551015Y-6014198D01*
X551015Y-6014198D02*
X541491Y-6023722D01*
X541491Y-6023722D02*
X531967Y-6042769D01*
X770062Y-5928484D02*
X789110Y-5928484D01*
X789110Y-5928484D02*
X808158Y-5938008D01*
X808158Y-5938008D02*
X817682Y-5947531D01*
X817682Y-5947531D02*
X827205Y-5966579D01*
X827205Y-5966579D02*
X836729Y-6004674D01*
X836729Y-6004674D02*
X836729Y-6052293D01*
X836729Y-6052293D02*
X827205Y-6090388D01*
X827205Y-6090388D02*
X817682Y-6109436D01*
X817682Y-6109436D02*
X808158Y-6118960D01*
X808158Y-6118960D02*
X789110Y-6128484D01*
X789110Y-6128484D02*
X770062Y-6128484D01*
X770062Y-6128484D02*
X751015Y-6118960D01*
X751015Y-6118960D02*
X741491Y-6109436D01*
X741491Y-6109436D02*
X731967Y-6090388D01*
X731967Y-6090388D02*
X722443Y-6052293D01*
X722443Y-6052293D02*
X722443Y-6004674D01*
X722443Y-6004674D02*
X731967Y-5966579D01*
X731967Y-5966579D02*
X741491Y-5947531D01*
X741491Y-5947531D02*
X751015Y-5938008D01*
X751015Y-5938008D02*
X770062Y-5928484D01*
X960539Y-5928484D02*
X979586Y-5928484D01*
X979586Y-5928484D02*
X998634Y-5938008D01*
X998634Y-5938008D02*
X1008158Y-5947531D01*
X1008158Y-5947531D02*
X1017682Y-5966579D01*
X1017682Y-5966579D02*
X1027205Y-6004674D01*
X1027205Y-6004674D02*
X1027205Y-6052293D01*
X1027205Y-6052293D02*
X1017682Y-6090388D01*
X1017682Y-6090388D02*
X1008158Y-6109436D01*
X1008158Y-6109436D02*
X998634Y-6118960D01*
X998634Y-6118960D02*
X979586Y-6128484D01*
X979586Y-6128484D02*
X960539Y-6128484D01*
X960539Y-6128484D02*
X941491Y-6118960D01*
X941491Y-6118960D02*
X931967Y-6109436D01*
X931967Y-6109436D02*
X922443Y-6090388D01*
X922443Y-6090388D02*
X912920Y-6052293D01*
X912920Y-6052293D02*
X912920Y-6004674D01*
X912920Y-6004674D02*
X922443Y-5966579D01*
X922443Y-5966579D02*
X931967Y-5947531D01*
X931967Y-5947531D02*
X941491Y-5938008D01*
X941491Y-5938008D02*
X960539Y-5928484D01*
X1112920Y-6128484D02*
X1112920Y-5995150D01*
X1112920Y-6014198D02*
X1122444Y-6004674D01*
X1122444Y-6004674D02*
X1141491Y-5995150D01*
X1141491Y-5995150D02*
X1170063Y-5995150D01*
X1170063Y-5995150D02*
X1189110Y-6004674D01*
X1189110Y-6004674D02*
X1198634Y-6023722D01*
X1198634Y-6023722D02*
X1198634Y-6128484D01*
X1198634Y-6023722D02*
X1208158Y-6004674D01*
X1208158Y-6004674D02*
X1227205Y-5995150D01*
X1227205Y-5995150D02*
X1255777Y-5995150D01*
X1255777Y-5995150D02*
X1274825Y-6004674D01*
X1274825Y-6004674D02*
X1284348Y-6023722D01*
X1284348Y-6023722D02*
X1284348Y-6128484D01*
X1379586Y-6128484D02*
X1379586Y-5995150D01*
X1379586Y-6014198D02*
X1389110Y-6004674D01*
X1389110Y-6004674D02*
X1408158Y-5995150D01*
X1408158Y-5995150D02*
X1436729Y-5995150D01*
X1436729Y-5995150D02*
X1455777Y-6004674D01*
X1455777Y-6004674D02*
X1465301Y-6023722D01*
X1465301Y-6023722D02*
X1465301Y-6128484D01*
X1465301Y-6023722D02*
X1474824Y-6004674D01*
X1474824Y-6004674D02*
X1493872Y-5995150D01*
X1493872Y-5995150D02*
X1522443Y-5995150D01*
X1522443Y-5995150D02*
X1541491Y-6004674D01*
X1541491Y-6004674D02*
X1551015Y-6023722D01*
X1551015Y-6023722D02*
X1551015Y-6128484D01*
X1941491Y-5918960D02*
X1770063Y-6176103D01*
X2198634Y-5928484D02*
X2217682Y-5928484D01*
X2217682Y-5928484D02*
X2236729Y-5938008D01*
X2236729Y-5938008D02*
X2246253Y-5947531D01*
X2246253Y-5947531D02*
X2255777Y-5966579D01*
X2255777Y-5966579D02*
X2265301Y-6004674D01*
X2265301Y-6004674D02*
X2265301Y-6052293D01*
X2265301Y-6052293D02*
X2255777Y-6090388D01*
X2255777Y-6090388D02*
X2246253Y-6109436D01*
X2246253Y-6109436D02*
X2236729Y-6118960D01*
X2236729Y-6118960D02*
X2217682Y-6128484D01*
X2217682Y-6128484D02*
X2198634Y-6128484D01*
X2198634Y-6128484D02*
X2179587Y-6118960D01*
X2179587Y-6118960D02*
X2170063Y-6109436D01*
X2170063Y-6109436D02*
X2160539Y-6090388D01*
X2160539Y-6090388D02*
X2151015Y-6052293D01*
X2151015Y-6052293D02*
X2151015Y-6004674D01*
X2151015Y-6004674D02*
X2160539Y-5966579D01*
X2160539Y-5966579D02*
X2170063Y-5947531D01*
X2170063Y-5947531D02*
X2179587Y-5938008D01*
X2179587Y-5938008D02*
X2198634Y-5928484D01*
X2351015Y-6109436D02*
X2360539Y-6118960D01*
X2360539Y-6118960D02*
X2351015Y-6128484D01*
X2351015Y-6128484D02*
X2341491Y-6118960D01*
X2341491Y-6118960D02*
X2351015Y-6109436D01*
X2351015Y-6109436D02*
X2351015Y-6128484D01*
X2484348Y-5928484D02*
X2503396Y-5928484D01*
X2503396Y-5928484D02*
X2522444Y-5938008D01*
X2522444Y-5938008D02*
X2531968Y-5947531D01*
X2531968Y-5947531D02*
X2541491Y-5966579D01*
X2541491Y-5966579D02*
X2551015Y-6004674D01*
X2551015Y-6004674D02*
X2551015Y-6052293D01*
X2551015Y-6052293D02*
X2541491Y-6090388D01*
X2541491Y-6090388D02*
X2531968Y-6109436D01*
X2531968Y-6109436D02*
X2522444Y-6118960D01*
X2522444Y-6118960D02*
X2503396Y-6128484D01*
X2503396Y-6128484D02*
X2484348Y-6128484D01*
X2484348Y-6128484D02*
X2465301Y-6118960D01*
X2465301Y-6118960D02*
X2455777Y-6109436D01*
X2455777Y-6109436D02*
X2446253Y-6090388D01*
X2446253Y-6090388D02*
X2436729Y-6052293D01*
X2436729Y-6052293D02*
X2436729Y-6004674D01*
X2436729Y-6004674D02*
X2446253Y-5966579D01*
X2446253Y-5966579D02*
X2455777Y-5947531D01*
X2455777Y-5947531D02*
X2465301Y-5938008D01*
X2465301Y-5938008D02*
X2484348Y-5928484D01*
X2627206Y-5947531D02*
X2636729Y-5938008D01*
X2636729Y-5938008D02*
X2655777Y-5928484D01*
X2655777Y-5928484D02*
X2703396Y-5928484D01*
X2703396Y-5928484D02*
X2722444Y-5938008D01*
X2722444Y-5938008D02*
X2731968Y-5947531D01*
X2731968Y-5947531D02*
X2741491Y-5966579D01*
X2741491Y-5966579D02*
X2741491Y-5985627D01*
X2741491Y-5985627D02*
X2731968Y-6014198D01*
X2731968Y-6014198D02*
X2617682Y-6128484D01*
X2617682Y-6128484D02*
X2741491Y-6128484D01*
X2808158Y-5928484D02*
X2931967Y-5928484D01*
X2931967Y-5928484D02*
X2865301Y-6004674D01*
X2865301Y-6004674D02*
X2893872Y-6004674D01*
X2893872Y-6004674D02*
X2912920Y-6014198D01*
X2912920Y-6014198D02*
X2922444Y-6023722D01*
X2922444Y-6023722D02*
X2931967Y-6042769D01*
X2931967Y-6042769D02*
X2931967Y-6090388D01*
X2931967Y-6090388D02*
X2922444Y-6109436D01*
X2922444Y-6109436D02*
X2912920Y-6118960D01*
X2912920Y-6118960D02*
X2893872Y-6128484D01*
X2893872Y-6128484D02*
X2836729Y-6128484D01*
X2836729Y-6128484D02*
X2817682Y-6118960D01*
X2817682Y-6118960D02*
X2808158Y-6109436D01*
X3103396Y-5928484D02*
X3065301Y-5928484D01*
X3065301Y-5928484D02*
X3046253Y-5938008D01*
X3046253Y-5938008D02*
X3036729Y-5947531D01*
X3036729Y-5947531D02*
X3017682Y-5976103D01*
X3017682Y-5976103D02*
X3008158Y-6014198D01*
X3008158Y-6014198D02*
X3008158Y-6090388D01*
X3008158Y-6090388D02*
X3017682Y-6109436D01*
X3017682Y-6109436D02*
X3027206Y-6118960D01*
X3027206Y-6118960D02*
X3046253Y-6128484D01*
X3046253Y-6128484D02*
X3084348Y-6128484D01*
X3084348Y-6128484D02*
X3103396Y-6118960D01*
X3103396Y-6118960D02*
X3112920Y-6109436D01*
X3112920Y-6109436D02*
X3122444Y-6090388D01*
X3122444Y-6090388D02*
X3122444Y-6042769D01*
X3122444Y-6042769D02*
X3112920Y-6023722D01*
X3112920Y-6023722D02*
X3103396Y-6014198D01*
X3103396Y-6014198D02*
X3084348Y-6004674D01*
X3084348Y-6004674D02*
X3046253Y-6004674D01*
X3046253Y-6004674D02*
X3027206Y-6014198D01*
X3027206Y-6014198D02*
X3017682Y-6023722D01*
X3017682Y-6023722D02*
X3008158Y-6042769D01*
X3198634Y-5928484D02*
X3198634Y-5966579D01*
X3274825Y-5928484D02*
X3274825Y-5966579D01*
X3570063Y-6204674D02*
X3560539Y-6195150D01*
X3560539Y-6195150D02*
X3541491Y-6166579D01*
X3541491Y-6166579D02*
X3531968Y-6147531D01*
X3531968Y-6147531D02*
X3522444Y-6118960D01*
X3522444Y-6118960D02*
X3512920Y-6071341D01*
X3512920Y-6071341D02*
X3512920Y-6033246D01*
X3512920Y-6033246D02*
X3522444Y-5985627D01*
X3522444Y-5985627D02*
X3531968Y-5957055D01*
X3531968Y-5957055D02*
X3541491Y-5938008D01*
X3541491Y-5938008D02*
X3560539Y-5909436D01*
X3560539Y-5909436D02*
X3570063Y-5899912D01*
X3684348Y-5928484D02*
X3703396Y-5928484D01*
X3703396Y-5928484D02*
X3722444Y-5938008D01*
X3722444Y-5938008D02*
X3731968Y-5947531D01*
X3731968Y-5947531D02*
X3741491Y-5966579D01*
X3741491Y-5966579D02*
X3751015Y-6004674D01*
X3751015Y-6004674D02*
X3751015Y-6052293D01*
X3751015Y-6052293D02*
X3741491Y-6090388D01*
X3741491Y-6090388D02*
X3731968Y-6109436D01*
X3731968Y-6109436D02*
X3722444Y-6118960D01*
X3722444Y-6118960D02*
X3703396Y-6128484D01*
X3703396Y-6128484D02*
X3684348Y-6128484D01*
X3684348Y-6128484D02*
X3665301Y-6118960D01*
X3665301Y-6118960D02*
X3655777Y-6109436D01*
X3655777Y-6109436D02*
X3646253Y-6090388D01*
X3646253Y-6090388D02*
X3636729Y-6052293D01*
X3636729Y-6052293D02*
X3636729Y-6004674D01*
X3636729Y-6004674D02*
X3646253Y-5966579D01*
X3646253Y-5966579D02*
X3655777Y-5947531D01*
X3655777Y-5947531D02*
X3665301Y-5938008D01*
X3665301Y-5938008D02*
X3684348Y-5928484D01*
X3989110Y-6128484D02*
X3989110Y-5928484D01*
X4074825Y-6128484D02*
X4074825Y-6023722D01*
X4074825Y-6023722D02*
X4065301Y-6004674D01*
X4065301Y-6004674D02*
X4046253Y-5995150D01*
X4046253Y-5995150D02*
X4017682Y-5995150D01*
X4017682Y-5995150D02*
X3998634Y-6004674D01*
X3998634Y-6004674D02*
X3989110Y-6014198D01*
X4198634Y-6128484D02*
X4179587Y-6118960D01*
X4179587Y-6118960D02*
X4170063Y-6109436D01*
X4170063Y-6109436D02*
X4160539Y-6090388D01*
X4160539Y-6090388D02*
X4160539Y-6033246D01*
X4160539Y-6033246D02*
X4170063Y-6014198D01*
X4170063Y-6014198D02*
X4179587Y-6004674D01*
X4179587Y-6004674D02*
X4198634Y-5995150D01*
X4198634Y-5995150D02*
X4227206Y-5995150D01*
X4227206Y-5995150D02*
X4246253Y-6004674D01*
X4246253Y-6004674D02*
X4255777Y-6014198D01*
X4255777Y-6014198D02*
X4265301Y-6033246D01*
X4265301Y-6033246D02*
X4265301Y-6090388D01*
X4265301Y-6090388D02*
X4255777Y-6109436D01*
X4255777Y-6109436D02*
X4246253Y-6118960D01*
X4246253Y-6118960D02*
X4227206Y-6128484D01*
X4227206Y-6128484D02*
X4198634Y-6128484D01*
X4379587Y-6128484D02*
X4360539Y-6118960D01*
X4360539Y-6118960D02*
X4351015Y-6099912D01*
X4351015Y-6099912D02*
X4351015Y-5928484D01*
X4531968Y-6118960D02*
X4512920Y-6128484D01*
X4512920Y-6128484D02*
X4474825Y-6128484D01*
X4474825Y-6128484D02*
X4455777Y-6118960D01*
X4455777Y-6118960D02*
X4446253Y-6099912D01*
X4446253Y-6099912D02*
X4446253Y-6023722D01*
X4446253Y-6023722D02*
X4455777Y-6004674D01*
X4455777Y-6004674D02*
X4474825Y-5995150D01*
X4474825Y-5995150D02*
X4512920Y-5995150D01*
X4512920Y-5995150D02*
X4531968Y-6004674D01*
X4531968Y-6004674D02*
X4541492Y-6023722D01*
X4541492Y-6023722D02*
X4541492Y-6042769D01*
X4541492Y-6042769D02*
X4446253Y-6061817D01*
X4617682Y-6118960D02*
X4636730Y-6128484D01*
X4636730Y-6128484D02*
X4674825Y-6128484D01*
X4674825Y-6128484D02*
X4693873Y-6118960D01*
X4693873Y-6118960D02*
X4703396Y-6099912D01*
X4703396Y-6099912D02*
X4703396Y-6090388D01*
X4703396Y-6090388D02*
X4693873Y-6071341D01*
X4693873Y-6071341D02*
X4674825Y-6061817D01*
X4674825Y-6061817D02*
X4646253Y-6061817D01*
X4646253Y-6061817D02*
X4627206Y-6052293D01*
X4627206Y-6052293D02*
X4617682Y-6033246D01*
X4617682Y-6033246D02*
X4617682Y-6023722D01*
X4617682Y-6023722D02*
X4627206Y-6004674D01*
X4627206Y-6004674D02*
X4646253Y-5995150D01*
X4646253Y-5995150D02*
X4674825Y-5995150D01*
X4674825Y-5995150D02*
X4693873Y-6004674D01*
X4941492Y-6052293D02*
X5093873Y-6052293D01*
X5017682Y-6128484D02*
X5017682Y-5976103D01*
X5427206Y-5995150D02*
X5427206Y-6128484D01*
X5379587Y-5918960D02*
X5331968Y-6061817D01*
X5331968Y-6061817D02*
X5455777Y-6061817D01*
X5674825Y-6118960D02*
X5693873Y-6128484D01*
X5693873Y-6128484D02*
X5731968Y-6128484D01*
X5731968Y-6128484D02*
X5751015Y-6118960D01*
X5751015Y-6118960D02*
X5760539Y-6099912D01*
X5760539Y-6099912D02*
X5760539Y-6090388D01*
X5760539Y-6090388D02*
X5751015Y-6071341D01*
X5751015Y-6071341D02*
X5731968Y-6061817D01*
X5731968Y-6061817D02*
X5703396Y-6061817D01*
X5703396Y-6061817D02*
X5684349Y-6052293D01*
X5684349Y-6052293D02*
X5674825Y-6033246D01*
X5674825Y-6033246D02*
X5674825Y-6023722D01*
X5674825Y-6023722D02*
X5684349Y-6004674D01*
X5684349Y-6004674D02*
X5703396Y-5995150D01*
X5703396Y-5995150D02*
X5731968Y-5995150D01*
X5731968Y-5995150D02*
X5751015Y-6004674D01*
X5874825Y-6128484D02*
X5855777Y-6118960D01*
X5855777Y-6118960D02*
X5846254Y-6099912D01*
X5846254Y-6099912D02*
X5846254Y-5928484D01*
X5979587Y-6128484D02*
X5960539Y-6118960D01*
X5960539Y-6118960D02*
X5951015Y-6109436D01*
X5951015Y-6109436D02*
X5941492Y-6090388D01*
X5941492Y-6090388D02*
X5941492Y-6033246D01*
X5941492Y-6033246D02*
X5951015Y-6014198D01*
X5951015Y-6014198D02*
X5960539Y-6004674D01*
X5960539Y-6004674D02*
X5979587Y-5995150D01*
X5979587Y-5995150D02*
X6008158Y-5995150D01*
X6008158Y-5995150D02*
X6027206Y-6004674D01*
X6027206Y-6004674D02*
X6036730Y-6014198D01*
X6036730Y-6014198D02*
X6046254Y-6033246D01*
X6046254Y-6033246D02*
X6046254Y-6090388D01*
X6046254Y-6090388D02*
X6036730Y-6109436D01*
X6036730Y-6109436D02*
X6027206Y-6118960D01*
X6027206Y-6118960D02*
X6008158Y-6128484D01*
X6008158Y-6128484D02*
X5979587Y-6128484D01*
X6103396Y-5995150D02*
X6179587Y-5995150D01*
X6131968Y-5928484D02*
X6131968Y-6099912D01*
X6131968Y-6099912D02*
X6141492Y-6118960D01*
X6141492Y-6118960D02*
X6160539Y-6128484D01*
X6160539Y-6128484D02*
X6179587Y-6128484D01*
X6236730Y-6118960D02*
X6255777Y-6128484D01*
X6255777Y-6128484D02*
X6293873Y-6128484D01*
X6293873Y-6128484D02*
X6312920Y-6118960D01*
X6312920Y-6118960D02*
X6322444Y-6099912D01*
X6322444Y-6099912D02*
X6322444Y-6090388D01*
X6322444Y-6090388D02*
X6312920Y-6071341D01*
X6312920Y-6071341D02*
X6293873Y-6061817D01*
X6293873Y-6061817D02*
X6265301Y-6061817D01*
X6265301Y-6061817D02*
X6246254Y-6052293D01*
X6246254Y-6052293D02*
X6236730Y-6033246D01*
X6236730Y-6033246D02*
X6236730Y-6023722D01*
X6236730Y-6023722D02*
X6246254Y-6004674D01*
X6246254Y-6004674D02*
X6265301Y-5995150D01*
X6265301Y-5995150D02*
X6293873Y-5995150D01*
X6293873Y-5995150D02*
X6312920Y-6004674D01*
X6389111Y-6204674D02*
X6398635Y-6195150D01*
X6398635Y-6195150D02*
X6417682Y-6166579D01*
X6417682Y-6166579D02*
X6427206Y-6147531D01*
X6427206Y-6147531D02*
X6436730Y-6118960D01*
X6436730Y-6118960D02*
X6446254Y-6071341D01*
X6446254Y-6071341D02*
X6446254Y-6033246D01*
X6446254Y-6033246D02*
X6436730Y-5985627D01*
X6436730Y-5985627D02*
X6427206Y-5957055D01*
X6427206Y-5957055D02*
X6417682Y-5938008D01*
X6417682Y-5938008D02*
X6398635Y-5909436D01*
X6398635Y-5909436D02*
X6389111Y-5899912D01*
M02*
