%TF.GenerationSoftware,KiCad,Pcbnew,10.0.6*%
%TF.CreationDate,2026-10-05T06:08:17-07:00*%
%TF.ProjectId,plush-toy-v2-A,706c7573-682d-4746-9f79-2d76322d412e,rev?*%
%TF.SameCoordinates,Original*%
%TF.FileFunction,Legend,Bot*%
%TF.FilePolarity,Positive*%
%FSLAX46Y46*%
G04 Gerber Fmt 4.6, Leading zero omitted, Abs format (unit mm)*
G04 Created by KiCad (PCBNEW 10.0.6) date 2026-10-05 06:08:17*
%MOMM*%
%LPD*%
G01*
G04 APERTURE LIST*
%ADD10C,0.150000*%
%ADD11C,0.120000*%
%ADD12C,2.200000*%
%ADD13C,0.650000*%
%ADD14O,1.000000X2.100000*%
%ADD15O,1.000000X1.600000*%
%ADD16C,1.000000*%
G04 APERTURE END LIST*
D10*
X43152380Y-24062295D02*
X42695237Y-24062295D01*
X42923809Y-24862295D02*
X42923809Y-24062295D01*
X42428570Y-24862295D02*
X42428570Y-24062295D01*
X42428570Y-24062295D02*
X42123808Y-24062295D01*
X42123808Y-24062295D02*
X42047618Y-24100390D01*
X42047618Y-24100390D02*
X42009523Y-24138485D01*
X42009523Y-24138485D02*
X41971427Y-24214676D01*
X41971427Y-24214676D02*
X41971427Y-24328961D01*
X41971427Y-24328961D02*
X42009523Y-24405152D01*
X42009523Y-24405152D02*
X42047618Y-24443247D01*
X42047618Y-24443247D02*
X42123808Y-24481342D01*
X42123808Y-24481342D02*
X42428570Y-24481342D01*
X41819047Y-24938485D02*
X41209523Y-24938485D01*
X40599999Y-24100390D02*
X40676189Y-24062295D01*
X40676189Y-24062295D02*
X40790475Y-24062295D01*
X40790475Y-24062295D02*
X40904761Y-24100390D01*
X40904761Y-24100390D02*
X40980951Y-24176580D01*
X40980951Y-24176580D02*
X41019046Y-24252771D01*
X41019046Y-24252771D02*
X41057142Y-24405152D01*
X41057142Y-24405152D02*
X41057142Y-24519438D01*
X41057142Y-24519438D02*
X41019046Y-24671819D01*
X41019046Y-24671819D02*
X40980951Y-24748009D01*
X40980951Y-24748009D02*
X40904761Y-24824200D01*
X40904761Y-24824200D02*
X40790475Y-24862295D01*
X40790475Y-24862295D02*
X40714284Y-24862295D01*
X40714284Y-24862295D02*
X40599999Y-24824200D01*
X40599999Y-24824200D02*
X40561903Y-24786104D01*
X40561903Y-24786104D02*
X40561903Y-24519438D01*
X40561903Y-24519438D02*
X40714284Y-24519438D01*
X40219046Y-24862295D02*
X40219046Y-24062295D01*
X40219046Y-24062295D02*
X39761903Y-24862295D01*
X39761903Y-24862295D02*
X39761903Y-24062295D01*
X39380951Y-24862295D02*
X39380951Y-24062295D01*
X39380951Y-24062295D02*
X39190475Y-24062295D01*
X39190475Y-24062295D02*
X39076189Y-24100390D01*
X39076189Y-24100390D02*
X38999999Y-24176580D01*
X38999999Y-24176580D02*
X38961904Y-24252771D01*
X38961904Y-24252771D02*
X38923808Y-24405152D01*
X38923808Y-24405152D02*
X38923808Y-24519438D01*
X38923808Y-24519438D02*
X38961904Y-24671819D01*
X38961904Y-24671819D02*
X38999999Y-24748009D01*
X38999999Y-24748009D02*
X39076189Y-24824200D01*
X39076189Y-24824200D02*
X39190475Y-24862295D01*
X39190475Y-24862295D02*
X39380951Y-24862295D01*
X30483333Y-42812295D02*
X30026190Y-42812295D01*
X30254762Y-43612295D02*
X30254762Y-42812295D01*
X29759523Y-43612295D02*
X29759523Y-42812295D01*
X29759523Y-42812295D02*
X29454761Y-42812295D01*
X29454761Y-42812295D02*
X29378571Y-42850390D01*
X29378571Y-42850390D02*
X29340476Y-42888485D01*
X29340476Y-42888485D02*
X29302380Y-42964676D01*
X29302380Y-42964676D02*
X29302380Y-43078961D01*
X29302380Y-43078961D02*
X29340476Y-43155152D01*
X29340476Y-43155152D02*
X29378571Y-43193247D01*
X29378571Y-43193247D02*
X29454761Y-43231342D01*
X29454761Y-43231342D02*
X29759523Y-43231342D01*
X29150000Y-43688485D02*
X28540476Y-43688485D01*
X27892856Y-43536104D02*
X27930952Y-43574200D01*
X27930952Y-43574200D02*
X28045237Y-43612295D01*
X28045237Y-43612295D02*
X28121428Y-43612295D01*
X28121428Y-43612295D02*
X28235714Y-43574200D01*
X28235714Y-43574200D02*
X28311904Y-43498009D01*
X28311904Y-43498009D02*
X28349999Y-43421819D01*
X28349999Y-43421819D02*
X28388095Y-43269438D01*
X28388095Y-43269438D02*
X28388095Y-43155152D01*
X28388095Y-43155152D02*
X28349999Y-43002771D01*
X28349999Y-43002771D02*
X28311904Y-42926580D01*
X28311904Y-42926580D02*
X28235714Y-42850390D01*
X28235714Y-42850390D02*
X28121428Y-42812295D01*
X28121428Y-42812295D02*
X28045237Y-42812295D01*
X28045237Y-42812295D02*
X27930952Y-42850390D01*
X27930952Y-42850390D02*
X27892856Y-42888485D01*
X27092856Y-43536104D02*
X27130952Y-43574200D01*
X27130952Y-43574200D02*
X27245237Y-43612295D01*
X27245237Y-43612295D02*
X27321428Y-43612295D01*
X27321428Y-43612295D02*
X27435714Y-43574200D01*
X27435714Y-43574200D02*
X27511904Y-43498009D01*
X27511904Y-43498009D02*
X27549999Y-43421819D01*
X27549999Y-43421819D02*
X27588095Y-43269438D01*
X27588095Y-43269438D02*
X27588095Y-43155152D01*
X27588095Y-43155152D02*
X27549999Y-43002771D01*
X27549999Y-43002771D02*
X27511904Y-42926580D01*
X27511904Y-42926580D02*
X27435714Y-42850390D01*
X27435714Y-42850390D02*
X27321428Y-42812295D01*
X27321428Y-42812295D02*
X27245237Y-42812295D01*
X27245237Y-42812295D02*
X27130952Y-42850390D01*
X27130952Y-42850390D02*
X27092856Y-42888485D01*
X37226190Y-31812295D02*
X36769047Y-31812295D01*
X36997619Y-32612295D02*
X36997619Y-31812295D01*
X36502380Y-32612295D02*
X36502380Y-31812295D01*
X36502380Y-31812295D02*
X36197618Y-31812295D01*
X36197618Y-31812295D02*
X36121428Y-31850390D01*
X36121428Y-31850390D02*
X36083333Y-31888485D01*
X36083333Y-31888485D02*
X36045237Y-31964676D01*
X36045237Y-31964676D02*
X36045237Y-32078961D01*
X36045237Y-32078961D02*
X36083333Y-32155152D01*
X36083333Y-32155152D02*
X36121428Y-32193247D01*
X36121428Y-32193247D02*
X36197618Y-32231342D01*
X36197618Y-32231342D02*
X36502380Y-32231342D01*
X35892857Y-32688485D02*
X35283333Y-32688485D01*
X35207142Y-31812295D02*
X34940475Y-32612295D01*
X34940475Y-32612295D02*
X34673809Y-31812295D01*
X34407142Y-31812295D02*
X34407142Y-32459914D01*
X34407142Y-32459914D02*
X34369047Y-32536104D01*
X34369047Y-32536104D02*
X34330952Y-32574200D01*
X34330952Y-32574200D02*
X34254761Y-32612295D01*
X34254761Y-32612295D02*
X34102380Y-32612295D01*
X34102380Y-32612295D02*
X34026190Y-32574200D01*
X34026190Y-32574200D02*
X33988095Y-32536104D01*
X33988095Y-32536104D02*
X33949999Y-32459914D01*
X33949999Y-32459914D02*
X33949999Y-31812295D01*
X33607143Y-32574200D02*
X33492857Y-32612295D01*
X33492857Y-32612295D02*
X33302381Y-32612295D01*
X33302381Y-32612295D02*
X33226190Y-32574200D01*
X33226190Y-32574200D02*
X33188095Y-32536104D01*
X33188095Y-32536104D02*
X33150000Y-32459914D01*
X33150000Y-32459914D02*
X33150000Y-32383723D01*
X33150000Y-32383723D02*
X33188095Y-32307533D01*
X33188095Y-32307533D02*
X33226190Y-32269438D01*
X33226190Y-32269438D02*
X33302381Y-32231342D01*
X33302381Y-32231342D02*
X33454762Y-32193247D01*
X33454762Y-32193247D02*
X33530952Y-32155152D01*
X33530952Y-32155152D02*
X33569047Y-32117057D01*
X33569047Y-32117057D02*
X33607143Y-32040866D01*
X33607143Y-32040866D02*
X33607143Y-31964676D01*
X33607143Y-31964676D02*
X33569047Y-31888485D01*
X33569047Y-31888485D02*
X33530952Y-31850390D01*
X33530952Y-31850390D02*
X33454762Y-31812295D01*
X33454762Y-31812295D02*
X33264285Y-31812295D01*
X33264285Y-31812295D02*
X33150000Y-31850390D01*
X32540476Y-32193247D02*
X32426190Y-32231342D01*
X32426190Y-32231342D02*
X32388095Y-32269438D01*
X32388095Y-32269438D02*
X32349999Y-32345628D01*
X32349999Y-32345628D02*
X32349999Y-32459914D01*
X32349999Y-32459914D02*
X32388095Y-32536104D01*
X32388095Y-32536104D02*
X32426190Y-32574200D01*
X32426190Y-32574200D02*
X32502380Y-32612295D01*
X32502380Y-32612295D02*
X32807142Y-32612295D01*
X32807142Y-32612295D02*
X32807142Y-31812295D01*
X32807142Y-31812295D02*
X32540476Y-31812295D01*
X32540476Y-31812295D02*
X32464285Y-31850390D01*
X32464285Y-31850390D02*
X32426190Y-31888485D01*
X32426190Y-31888485D02*
X32388095Y-31964676D01*
X32388095Y-31964676D02*
X32388095Y-32040866D01*
X32388095Y-32040866D02*
X32426190Y-32117057D01*
X32426190Y-32117057D02*
X32464285Y-32155152D01*
X32464285Y-32155152D02*
X32540476Y-32193247D01*
X32540476Y-32193247D02*
X32807142Y-32193247D01*
X16323809Y-42062295D02*
X15866666Y-42062295D01*
X16095238Y-42862295D02*
X16095238Y-42062295D01*
X15599999Y-42862295D02*
X15599999Y-42062295D01*
X15599999Y-42062295D02*
X15295237Y-42062295D01*
X15295237Y-42062295D02*
X15219047Y-42100390D01*
X15219047Y-42100390D02*
X15180952Y-42138485D01*
X15180952Y-42138485D02*
X15142856Y-42214676D01*
X15142856Y-42214676D02*
X15142856Y-42328961D01*
X15142856Y-42328961D02*
X15180952Y-42405152D01*
X15180952Y-42405152D02*
X15219047Y-42443247D01*
X15219047Y-42443247D02*
X15295237Y-42481342D01*
X15295237Y-42481342D02*
X15599999Y-42481342D01*
X14990476Y-42938485D02*
X14380952Y-42938485D01*
X14304761Y-42062295D02*
X14038094Y-42862295D01*
X14038094Y-42862295D02*
X13771428Y-42062295D01*
X13238095Y-42443247D02*
X13123809Y-42481342D01*
X13123809Y-42481342D02*
X13085714Y-42519438D01*
X13085714Y-42519438D02*
X13047618Y-42595628D01*
X13047618Y-42595628D02*
X13047618Y-42709914D01*
X13047618Y-42709914D02*
X13085714Y-42786104D01*
X13085714Y-42786104D02*
X13123809Y-42824200D01*
X13123809Y-42824200D02*
X13199999Y-42862295D01*
X13199999Y-42862295D02*
X13504761Y-42862295D01*
X13504761Y-42862295D02*
X13504761Y-42062295D01*
X13504761Y-42062295D02*
X13238095Y-42062295D01*
X13238095Y-42062295D02*
X13161904Y-42100390D01*
X13161904Y-42100390D02*
X13123809Y-42138485D01*
X13123809Y-42138485D02*
X13085714Y-42214676D01*
X13085714Y-42214676D02*
X13085714Y-42290866D01*
X13085714Y-42290866D02*
X13123809Y-42367057D01*
X13123809Y-42367057D02*
X13161904Y-42405152D01*
X13161904Y-42405152D02*
X13238095Y-42443247D01*
X13238095Y-42443247D02*
X13504761Y-42443247D01*
X12742857Y-42633723D02*
X12361904Y-42633723D01*
X12819047Y-42862295D02*
X12552380Y-42062295D01*
X12552380Y-42062295D02*
X12285714Y-42862295D01*
X12133333Y-42062295D02*
X11676190Y-42062295D01*
X11904762Y-42862295D02*
X11904762Y-42062295D01*
X35880952Y-26562295D02*
X35423809Y-26562295D01*
X35652381Y-27362295D02*
X35652381Y-26562295D01*
X35157142Y-27362295D02*
X35157142Y-26562295D01*
X35157142Y-26562295D02*
X34852380Y-26562295D01*
X34852380Y-26562295D02*
X34776190Y-26600390D01*
X34776190Y-26600390D02*
X34738095Y-26638485D01*
X34738095Y-26638485D02*
X34699999Y-26714676D01*
X34699999Y-26714676D02*
X34699999Y-26828961D01*
X34699999Y-26828961D02*
X34738095Y-26905152D01*
X34738095Y-26905152D02*
X34776190Y-26943247D01*
X34776190Y-26943247D02*
X34852380Y-26981342D01*
X34852380Y-26981342D02*
X35157142Y-26981342D01*
X34547619Y-27438485D02*
X33938095Y-27438485D01*
X33861904Y-26562295D02*
X33595237Y-27362295D01*
X33595237Y-27362295D02*
X33328571Y-26562295D01*
X33100000Y-27324200D02*
X32985714Y-27362295D01*
X32985714Y-27362295D02*
X32795238Y-27362295D01*
X32795238Y-27362295D02*
X32719047Y-27324200D01*
X32719047Y-27324200D02*
X32680952Y-27286104D01*
X32680952Y-27286104D02*
X32642857Y-27209914D01*
X32642857Y-27209914D02*
X32642857Y-27133723D01*
X32642857Y-27133723D02*
X32680952Y-27057533D01*
X32680952Y-27057533D02*
X32719047Y-27019438D01*
X32719047Y-27019438D02*
X32795238Y-26981342D01*
X32795238Y-26981342D02*
X32947619Y-26943247D01*
X32947619Y-26943247D02*
X33023809Y-26905152D01*
X33023809Y-26905152D02*
X33061904Y-26867057D01*
X33061904Y-26867057D02*
X33100000Y-26790866D01*
X33100000Y-26790866D02*
X33100000Y-26714676D01*
X33100000Y-26714676D02*
X33061904Y-26638485D01*
X33061904Y-26638485D02*
X33023809Y-26600390D01*
X33023809Y-26600390D02*
X32947619Y-26562295D01*
X32947619Y-26562295D02*
X32757142Y-26562295D01*
X32757142Y-26562295D02*
X32642857Y-26600390D01*
X32147618Y-26981342D02*
X32147618Y-27362295D01*
X32414285Y-26562295D02*
X32147618Y-26981342D01*
X32147618Y-26981342D02*
X31880952Y-26562295D01*
X31652381Y-27324200D02*
X31538095Y-27362295D01*
X31538095Y-27362295D02*
X31347619Y-27362295D01*
X31347619Y-27362295D02*
X31271428Y-27324200D01*
X31271428Y-27324200D02*
X31233333Y-27286104D01*
X31233333Y-27286104D02*
X31195238Y-27209914D01*
X31195238Y-27209914D02*
X31195238Y-27133723D01*
X31195238Y-27133723D02*
X31233333Y-27057533D01*
X31233333Y-27057533D02*
X31271428Y-27019438D01*
X31271428Y-27019438D02*
X31347619Y-26981342D01*
X31347619Y-26981342D02*
X31500000Y-26943247D01*
X31500000Y-26943247D02*
X31576190Y-26905152D01*
X31576190Y-26905152D02*
X31614285Y-26867057D01*
X31614285Y-26867057D02*
X31652381Y-26790866D01*
X31652381Y-26790866D02*
X31652381Y-26714676D01*
X31652381Y-26714676D02*
X31614285Y-26638485D01*
X31614285Y-26638485D02*
X31576190Y-26600390D01*
X31576190Y-26600390D02*
X31500000Y-26562295D01*
X31500000Y-26562295D02*
X31309523Y-26562295D01*
X31309523Y-26562295D02*
X31195238Y-26600390D01*
X40538095Y-20062295D02*
X40080952Y-20062295D01*
X40309524Y-20862295D02*
X40309524Y-20062295D01*
X39814285Y-20862295D02*
X39814285Y-20062295D01*
X39814285Y-20062295D02*
X39509523Y-20062295D01*
X39509523Y-20062295D02*
X39433333Y-20100390D01*
X39433333Y-20100390D02*
X39395238Y-20138485D01*
X39395238Y-20138485D02*
X39357142Y-20214676D01*
X39357142Y-20214676D02*
X39357142Y-20328961D01*
X39357142Y-20328961D02*
X39395238Y-20405152D01*
X39395238Y-20405152D02*
X39433333Y-20443247D01*
X39433333Y-20443247D02*
X39509523Y-20481342D01*
X39509523Y-20481342D02*
X39814285Y-20481342D01*
X39204762Y-20938485D02*
X38595238Y-20938485D01*
X38480952Y-20062295D02*
X37985714Y-20062295D01*
X37985714Y-20062295D02*
X38252380Y-20367057D01*
X38252380Y-20367057D02*
X38138095Y-20367057D01*
X38138095Y-20367057D02*
X38061904Y-20405152D01*
X38061904Y-20405152D02*
X38023809Y-20443247D01*
X38023809Y-20443247D02*
X37985714Y-20519438D01*
X37985714Y-20519438D02*
X37985714Y-20709914D01*
X37985714Y-20709914D02*
X38023809Y-20786104D01*
X38023809Y-20786104D02*
X38061904Y-20824200D01*
X38061904Y-20824200D02*
X38138095Y-20862295D01*
X38138095Y-20862295D02*
X38366666Y-20862295D01*
X38366666Y-20862295D02*
X38442857Y-20824200D01*
X38442857Y-20824200D02*
X38480952Y-20786104D01*
X37757142Y-20062295D02*
X37490475Y-20862295D01*
X37490475Y-20862295D02*
X37223809Y-20062295D01*
X37033333Y-20062295D02*
X36538095Y-20062295D01*
X36538095Y-20062295D02*
X36804761Y-20367057D01*
X36804761Y-20367057D02*
X36690476Y-20367057D01*
X36690476Y-20367057D02*
X36614285Y-20405152D01*
X36614285Y-20405152D02*
X36576190Y-20443247D01*
X36576190Y-20443247D02*
X36538095Y-20519438D01*
X36538095Y-20519438D02*
X36538095Y-20709914D01*
X36538095Y-20709914D02*
X36576190Y-20786104D01*
X36576190Y-20786104D02*
X36614285Y-20824200D01*
X36614285Y-20824200D02*
X36690476Y-20862295D01*
X36690476Y-20862295D02*
X36919047Y-20862295D01*
X36919047Y-20862295D02*
X36995238Y-20824200D01*
X36995238Y-20824200D02*
X37033333Y-20786104D01*
X25214285Y-16062295D02*
X24757142Y-16062295D01*
X24985714Y-16862295D02*
X24985714Y-16062295D01*
X24490475Y-16862295D02*
X24490475Y-16062295D01*
X24490475Y-16062295D02*
X24185713Y-16062295D01*
X24185713Y-16062295D02*
X24109523Y-16100390D01*
X24109523Y-16100390D02*
X24071428Y-16138485D01*
X24071428Y-16138485D02*
X24033332Y-16214676D01*
X24033332Y-16214676D02*
X24033332Y-16328961D01*
X24033332Y-16328961D02*
X24071428Y-16405152D01*
X24071428Y-16405152D02*
X24109523Y-16443247D01*
X24109523Y-16443247D02*
X24185713Y-16481342D01*
X24185713Y-16481342D02*
X24490475Y-16481342D01*
X23880952Y-16938485D02*
X23271428Y-16938485D01*
X23080951Y-16443247D02*
X22814285Y-16443247D01*
X22699999Y-16862295D02*
X23080951Y-16862295D01*
X23080951Y-16862295D02*
X23080951Y-16062295D01*
X23080951Y-16062295D02*
X22699999Y-16062295D01*
X22357141Y-16862295D02*
X22357141Y-16062295D01*
X22357141Y-16062295D02*
X21899998Y-16862295D01*
X21899998Y-16862295D02*
X21899998Y-16062295D01*
X25976190Y-20562295D02*
X25519047Y-20562295D01*
X25747619Y-21362295D02*
X25747619Y-20562295D01*
X25252380Y-21362295D02*
X25252380Y-20562295D01*
X25252380Y-20562295D02*
X24947618Y-20562295D01*
X24947618Y-20562295D02*
X24871428Y-20600390D01*
X24871428Y-20600390D02*
X24833333Y-20638485D01*
X24833333Y-20638485D02*
X24795237Y-20714676D01*
X24795237Y-20714676D02*
X24795237Y-20828961D01*
X24795237Y-20828961D02*
X24833333Y-20905152D01*
X24833333Y-20905152D02*
X24871428Y-20943247D01*
X24871428Y-20943247D02*
X24947618Y-20981342D01*
X24947618Y-20981342D02*
X25252380Y-20981342D01*
X24642857Y-21438485D02*
X24033333Y-21438485D01*
X23576190Y-20943247D02*
X23461904Y-20981342D01*
X23461904Y-20981342D02*
X23423809Y-21019438D01*
X23423809Y-21019438D02*
X23385713Y-21095628D01*
X23385713Y-21095628D02*
X23385713Y-21209914D01*
X23385713Y-21209914D02*
X23423809Y-21286104D01*
X23423809Y-21286104D02*
X23461904Y-21324200D01*
X23461904Y-21324200D02*
X23538094Y-21362295D01*
X23538094Y-21362295D02*
X23842856Y-21362295D01*
X23842856Y-21362295D02*
X23842856Y-20562295D01*
X23842856Y-20562295D02*
X23576190Y-20562295D01*
X23576190Y-20562295D02*
X23499999Y-20600390D01*
X23499999Y-20600390D02*
X23461904Y-20638485D01*
X23461904Y-20638485D02*
X23423809Y-20714676D01*
X23423809Y-20714676D02*
X23423809Y-20790866D01*
X23423809Y-20790866D02*
X23461904Y-20867057D01*
X23461904Y-20867057D02*
X23499999Y-20905152D01*
X23499999Y-20905152D02*
X23576190Y-20943247D01*
X23576190Y-20943247D02*
X23842856Y-20943247D01*
X22890475Y-20562295D02*
X22738094Y-20562295D01*
X22738094Y-20562295D02*
X22661904Y-20600390D01*
X22661904Y-20600390D02*
X22585713Y-20676580D01*
X22585713Y-20676580D02*
X22547618Y-20828961D01*
X22547618Y-20828961D02*
X22547618Y-21095628D01*
X22547618Y-21095628D02*
X22585713Y-21248009D01*
X22585713Y-21248009D02*
X22661904Y-21324200D01*
X22661904Y-21324200D02*
X22738094Y-21362295D01*
X22738094Y-21362295D02*
X22890475Y-21362295D01*
X22890475Y-21362295D02*
X22966666Y-21324200D01*
X22966666Y-21324200D02*
X23042856Y-21248009D01*
X23042856Y-21248009D02*
X23080952Y-21095628D01*
X23080952Y-21095628D02*
X23080952Y-20828961D01*
X23080952Y-20828961D02*
X23042856Y-20676580D01*
X23042856Y-20676580D02*
X22966666Y-20600390D01*
X22966666Y-20600390D02*
X22890475Y-20562295D01*
X22052380Y-20562295D02*
X21899999Y-20562295D01*
X21899999Y-20562295D02*
X21823809Y-20600390D01*
X21823809Y-20600390D02*
X21747618Y-20676580D01*
X21747618Y-20676580D02*
X21709523Y-20828961D01*
X21709523Y-20828961D02*
X21709523Y-21095628D01*
X21709523Y-21095628D02*
X21747618Y-21248009D01*
X21747618Y-21248009D02*
X21823809Y-21324200D01*
X21823809Y-21324200D02*
X21899999Y-21362295D01*
X21899999Y-21362295D02*
X22052380Y-21362295D01*
X22052380Y-21362295D02*
X22128571Y-21324200D01*
X22128571Y-21324200D02*
X22204761Y-21248009D01*
X22204761Y-21248009D02*
X22242857Y-21095628D01*
X22242857Y-21095628D02*
X22242857Y-20828961D01*
X22242857Y-20828961D02*
X22204761Y-20676580D01*
X22204761Y-20676580D02*
X22128571Y-20600390D01*
X22128571Y-20600390D02*
X22052380Y-20562295D01*
X21480952Y-20562295D02*
X21023809Y-20562295D01*
X21252381Y-21362295D02*
X21252381Y-20562295D01*
%TO.C,TP_GND*%
D11*
X41700000Y-22500000D02*
G75*
G02*
X40300000Y-22500000I-700000J0D01*
G01*
X40300000Y-22500000D02*
G75*
G02*
X41700000Y-22500000I700000J0D01*
G01*
%TO.C,TP_CC*%
X29450000Y-41250000D02*
G75*
G02*
X28050000Y-41250000I-700000J0D01*
G01*
X28050000Y-41250000D02*
G75*
G02*
X29450000Y-41250000I700000J0D01*
G01*
%TO.C,TP_VUSB*%
X35450000Y-34250000D02*
G75*
G02*
X34050000Y-34250000I-700000J0D01*
G01*
X34050000Y-34250000D02*
G75*
G02*
X35450000Y-34250000I700000J0D01*
G01*
%TO.C,TP_VBAT*%
X14700000Y-40500000D02*
G75*
G02*
X13300000Y-40500000I-700000J0D01*
G01*
X13300000Y-40500000D02*
G75*
G02*
X14700000Y-40500000I700000J0D01*
G01*
%TO.C,TP_VSYS*%
X34200000Y-29000000D02*
G75*
G02*
X32800000Y-29000000I-700000J0D01*
G01*
X32800000Y-29000000D02*
G75*
G02*
X34200000Y-29000000I700000J0D01*
G01*
%TO.C,TP_3V3*%
X39200000Y-22500000D02*
G75*
G02*
X37800000Y-22500000I-700000J0D01*
G01*
X37800000Y-22500000D02*
G75*
G02*
X39200000Y-22500000I700000J0D01*
G01*
%TO.C,TP_EN*%
X24200000Y-14500000D02*
G75*
G02*
X22800000Y-14500000I-700000J0D01*
G01*
X22800000Y-14500000D02*
G75*
G02*
X24200000Y-14500000I700000J0D01*
G01*
%TO.C,TP_BOOT*%
X24200000Y-19000000D02*
G75*
G02*
X22800000Y-19000000I-700000J0D01*
G01*
X22800000Y-19000000D02*
G75*
G02*
X24200000Y-19000000I700000J0D01*
G01*
%TD*%
%LPC*%
D12*
%TO.C,H2*%
X3500000Y-42500000D03*
%TD*%
D13*
%TO.C,J_USB*%
X25910000Y-38755000D03*
X31690000Y-38755000D03*
D14*
X24480000Y-38225000D03*
D15*
X24480000Y-42405000D03*
D14*
X33120000Y-38225000D03*
D15*
X33120000Y-42405000D03*
%TD*%
D12*
%TO.C,H1*%
X3500000Y-3500000D03*
%TD*%
D16*
%TO.C,TP_GND*%
X41000000Y-22500000D03*
%TD*%
%TO.C,TP_CC*%
X28750000Y-41250000D03*
%TD*%
%TO.C,TP_VUSB*%
X34750000Y-34250000D03*
%TD*%
%TO.C,TP_VBAT*%
X14000000Y-40500000D03*
%TD*%
%TO.C,TP_VSYS*%
X33500000Y-29000000D03*
%TD*%
%TO.C,TP_3V3*%
X38500000Y-22500000D03*
%TD*%
%TO.C,TP_EN*%
X23500000Y-14500000D03*
%TD*%
%TO.C,TP_BOOT*%
X23500000Y-19000000D03*
%TD*%
%LPD*%
M02*
