%TF.GenerationSoftware,KiCad,Pcbnew,10.0.6*%
%TF.CreationDate,2026-10-05T08:24:11-07:00*%
%TF.ProjectId,plush-toy-v2-A,706c7573-682d-4746-9f79-2d76322d412e,rev?*%
%TF.SameCoordinates,Original*%
%TF.FileFunction,Paste,Top*%
%TF.FilePolarity,Positive*%
%FSLAX46Y46*%
G04 Gerber Fmt 4.6, Leading zero omitted, Abs format (unit mm)*
G04 Created by KiCad (PCBNEW 10.0.6) date 2026-10-05 08:24:11*
%MOMM*%
%LPD*%
G01*
G04 APERTURE LIST*
G04 Aperture macros list*
%AMRoundRect*
0 Rectangle with rounded corners*
0 $1 Rounding radius*
0 $2 $3 $4 $5 $6 $7 $8 $9 X,Y pos of 4 corners*
0 Add a 4 corners polygon primitive as box body*
4,1,4,$2,$3,$4,$5,$6,$7,$8,$9,$2,$3,0*
0 Add four circle primitives for the rounded corners*
1,1,$1+$1,$2,$3*
1,1,$1+$1,$4,$5*
1,1,$1+$1,$6,$7*
1,1,$1+$1,$8,$9*
0 Add four rect primitives between the rounded corners*
20,1,$1+$1,$2,$3,$4,$5,0*
20,1,$1+$1,$4,$5,$6,$7,0*
20,1,$1+$1,$6,$7,$8,$9,0*
20,1,$1+$1,$8,$9,$2,$3,0*%
G04 Aperture macros list end*
%ADD10R,1.230000X1.860000*%
%ADD11RoundRect,0.135000X-0.135000X-0.185000X0.135000X-0.185000X0.135000X0.185000X-0.135000X0.185000X0*%
%ADD12RoundRect,0.140000X0.170000X-0.140000X0.170000X0.140000X-0.170000X0.140000X-0.170000X-0.140000X0*%
%ADD13RoundRect,0.150000X-0.150000X-0.625000X0.150000X-0.625000X0.150000X0.625000X-0.150000X0.625000X0*%
%ADD14RoundRect,0.250000X-0.350000X-0.650000X0.350000X-0.650000X0.350000X0.650000X-0.350000X0.650000X0*%
%ADD15RoundRect,0.135000X0.185000X-0.135000X0.185000X0.135000X-0.185000X0.135000X-0.185000X-0.135000X0*%
%ADD16R,0.900000X0.900000*%
%ADD17R,0.900000X1.500000*%
%ADD18R,1.500000X0.900000*%
%ADD19RoundRect,0.250000X-0.250000X-0.475000X0.250000X-0.475000X0.250000X0.475000X-0.250000X0.475000X0*%
%ADD20R,0.500000X1.700000*%
%ADD21R,1.200000X2.500000*%
%ADD22RoundRect,0.150000X0.150000X0.625000X-0.150000X0.625000X-0.150000X-0.625000X0.150000X-0.625000X0*%
%ADD23RoundRect,0.250000X0.350000X0.650000X-0.350000X0.650000X-0.350000X-0.650000X0.350000X-0.650000X0*%
%ADD24RoundRect,0.250000X0.475000X-0.250000X0.475000X0.250000X-0.475000X0.250000X-0.475000X-0.250000X0*%
%ADD25R,3.200000X1.020000*%
%ADD26RoundRect,0.050000X-0.100000X-0.250000X0.100000X-0.250000X0.100000X0.250000X-0.100000X0.250000X0*%
%ADD27RoundRect,0.250000X0.250000X0.475000X-0.250000X0.475000X-0.250000X-0.475000X0.250000X-0.475000X0*%
%ADD28RoundRect,0.250000X-0.375000X-0.625000X0.375000X-0.625000X0.375000X0.625000X-0.375000X0.625000X0*%
%ADD29RoundRect,0.150000X0.150000X-0.512500X0.150000X0.512500X-0.150000X0.512500X-0.150000X-0.512500X0*%
%ADD30R,0.280000X0.500000*%
%ADD31R,0.500000X0.280000*%
%ADD32R,1.000000X3.500000*%
%ADD33R,1.800000X4.000000*%
%ADD34R,0.600000X1.200000*%
%ADD35R,2.000000X2.000000*%
%ADD36RoundRect,0.140000X-0.140000X-0.170000X0.140000X-0.170000X0.140000X0.170000X-0.140000X0.170000X0*%
%ADD37R,0.700000X1.750000*%
%ADD38R,1.200000X2.550000*%
%ADD39R,3.500000X1.500000*%
%ADD40RoundRect,0.140000X-0.170000X0.140000X-0.170000X-0.140000X0.170000X-0.140000X0.170000X0.140000X0*%
%ADD41RoundRect,0.150000X0.150000X-0.587500X0.150000X0.587500X-0.150000X0.587500X-0.150000X-0.587500X0*%
%ADD42RoundRect,0.150000X-0.587500X-0.150000X0.587500X-0.150000X0.587500X0.150000X-0.587500X0.150000X0*%
%ADD43RoundRect,0.250000X-0.475000X0.250000X-0.475000X-0.250000X0.475000X-0.250000X0.475000X0.250000X0*%
%ADD44RoundRect,0.225000X-0.225000X-0.250000X0.225000X-0.250000X0.225000X0.250000X-0.225000X0.250000X0*%
%ADD45RoundRect,0.200000X0.275000X-0.200000X0.275000X0.200000X-0.275000X0.200000X-0.275000X-0.200000X0*%
%ADD46RoundRect,0.050000X0.250000X-0.100000X0.250000X0.100000X-0.250000X0.100000X-0.250000X-0.100000X0*%
%ADD47RoundRect,0.150000X-0.150000X-0.575000X0.150000X-0.575000X0.150000X0.575000X-0.150000X0.575000X0*%
%ADD48RoundRect,0.075000X-0.075000X-0.650000X0.075000X-0.650000X0.075000X0.650000X-0.075000X0.650000X0*%
%ADD49RoundRect,0.225000X0.250000X-0.225000X0.250000X0.225000X-0.250000X0.225000X-0.250000X-0.225000X0*%
%ADD50R,1.800000X4.700000*%
%ADD51RoundRect,0.125000X-0.125000X-0.125000X0.125000X-0.125000X0.125000X0.125000X-0.125000X0.125000X0*%
%ADD52RoundRect,0.062500X-0.350000X-0.062500X0.350000X-0.062500X0.350000X0.062500X-0.350000X0.062500X0*%
%ADD53RoundRect,0.062500X-0.062500X-0.350000X0.062500X-0.350000X0.062500X0.350000X-0.062500X0.350000X0*%
%ADD54R,1.100000X3.700000*%
%ADD55RoundRect,0.185000X-0.230000X-0.185000X0.230000X-0.185000X0.230000X0.185000X-0.230000X0.185000X0*%
%ADD56RoundRect,0.062500X-0.237500X-0.062500X0.237500X-0.062500X0.237500X0.062500X-0.237500X0.062500X0*%
G04 APERTURE END LIST*
D10*
%TO.C,SW_RST*%
X21320000Y-14500000D03*
X25680000Y-14500000D03*
%TD*%
D11*
%TO.C,R_BATP_PU*%
X21740000Y-36000000D03*
X22760000Y-36000000D03*
%TD*%
D12*
%TO.C,C_NTC*%
X50750000Y-44980000D03*
X50750000Y-44020000D03*
%TD*%
D13*
%TO.C,J_SPK*%
X40500000Y-40225000D03*
X41500000Y-40225000D03*
D14*
X39200000Y-44100000D03*
X42800000Y-44100000D03*
%TD*%
D15*
%TO.C,R_LCD_BL_OFF*%
X33500000Y-12010000D03*
X33500000Y-10990000D03*
%TD*%
D11*
%TO.C,R_LCD_MOSI*%
X22990000Y-11750000D03*
X24010000Y-11750000D03*
%TD*%
%TO.C,R_FB1*%
X33440000Y-13250000D03*
X34460000Y-13250000D03*
%TD*%
D16*
%TO.C,U1*%
X7810000Y-23900000D03*
X9210000Y-23900000D03*
X10610000Y-23900000D03*
X7810000Y-22500000D03*
X9210000Y-22500000D03*
X10610000Y-22500000D03*
X7810000Y-21100000D03*
X9210000Y-21100000D03*
X10610000Y-21100000D03*
D17*
X1490000Y-29750000D03*
X2760000Y-29750000D03*
X4030000Y-29750000D03*
X5300000Y-29750000D03*
X6570000Y-29750000D03*
X7840000Y-29750000D03*
X9110000Y-29750000D03*
X10380000Y-29750000D03*
X11650000Y-29750000D03*
X12920000Y-29750000D03*
X14190000Y-29750000D03*
X15460000Y-29750000D03*
X16730000Y-29750000D03*
X18000000Y-29750000D03*
D18*
X19250000Y-27985000D03*
X19250000Y-26715000D03*
X19250000Y-25445000D03*
X19250000Y-24175000D03*
X19250000Y-22905000D03*
X19250000Y-21635000D03*
X19250000Y-20365000D03*
X19250000Y-19095000D03*
X19250000Y-17825000D03*
X19250000Y-16555000D03*
X19250000Y-15285000D03*
X19250000Y-14015000D03*
D17*
X18000000Y-12250000D03*
X16730000Y-12250000D03*
X15460000Y-12250000D03*
X14190000Y-12250000D03*
X12920000Y-12250000D03*
X11650000Y-12250000D03*
X10380000Y-12250000D03*
X9110000Y-12250000D03*
X7840000Y-12250000D03*
X6570000Y-12250000D03*
X5300000Y-12250000D03*
X4030000Y-12250000D03*
X2760000Y-12250000D03*
X1490000Y-12250000D03*
%TD*%
D15*
%TO.C,R_NTC*%
X51000000Y-42760000D03*
X51000000Y-41740000D03*
%TD*%
D11*
%TO.C,R_EN*%
X23740000Y-16750000D03*
X24760000Y-16750000D03*
%TD*%
D19*
%TO.C,C_SERVO2*%
X41300000Y-13750000D03*
X43200000Y-13750000D03*
%TD*%
D20*
%TO.C,J_KEY*%
X16200000Y-5150000D03*
X15200000Y-5150000D03*
X14200000Y-5150000D03*
D21*
X17300000Y-1750000D03*
X13100000Y-1750000D03*
%TD*%
D15*
%TO.C,R_CC_SUM1*%
X35000000Y-39760000D03*
X35000000Y-38740000D03*
%TD*%
D19*
%TO.C,C_CHG_BAT*%
X34400000Y-26100000D03*
X36300000Y-26100000D03*
%TD*%
D10*
%TO.C,SW_BOOT*%
X21320000Y-19000000D03*
X25680000Y-19000000D03*
%TD*%
D22*
%TO.C,J_LCD*%
X28500000Y-5775000D03*
X27500000Y-5775000D03*
X26500000Y-5775000D03*
X25500000Y-5775000D03*
X24500000Y-5775000D03*
X23500000Y-5775000D03*
X22500000Y-5775000D03*
X21500000Y-5775000D03*
D23*
X29800000Y-1900000D03*
X20200000Y-1900000D03*
%TD*%
D24*
%TO.C,C_SERVO3*%
X38250000Y-13950000D03*
X38250000Y-12050000D03*
%TD*%
D25*
%TO.C,J_ARM_L*%
X47405000Y-14040000D03*
X47405000Y-11500000D03*
X47405000Y-8960000D03*
%TD*%
D19*
%TO.C,C_SERVO1*%
X45800000Y-6500000D03*
X47700000Y-6500000D03*
%TD*%
D12*
%TO.C,C_MIC*%
X41500000Y-4230000D03*
X41500000Y-3270000D03*
%TD*%
D11*
%TO.C,R_VBAT_BOT*%
X7990000Y-39750000D03*
X9010000Y-39750000D03*
%TD*%
D12*
%TO.C,C_IMU*%
X23200000Y-26680000D03*
X23200000Y-25720000D03*
%TD*%
D11*
%TO.C,R_SERVO_R_PD*%
X42240000Y-10000000D03*
X43260000Y-10000000D03*
%TD*%
%TO.C,R_AMP_SD*%
X35990000Y-31000000D03*
X37010000Y-31000000D03*
%TD*%
D13*
%TO.C,J_NTC*%
X46550000Y-40225000D03*
X47550000Y-40225000D03*
D14*
X45250000Y-44100000D03*
X48850000Y-44100000D03*
%TD*%
D26*
%TO.C,D_ESD_MUTE*%
X16650000Y-9250000D03*
X17350000Y-9250000D03*
%TD*%
D11*
%TO.C,R_BOOT*%
X23740000Y-21250000D03*
X24760000Y-21250000D03*
%TD*%
D15*
%TO.C,R_BAT_NTC*%
X21000000Y-41010000D03*
X21000000Y-39990000D03*
%TD*%
D27*
%TO.C,C_BUCK_OUT2*%
X41700000Y-20350000D03*
X39800000Y-20350000D03*
%TD*%
D11*
%TO.C,R_BATP_BYP*%
X21740000Y-31000000D03*
X22760000Y-31000000D03*
%TD*%
D15*
%TO.C,R_EFUSE_ILM*%
X35050000Y-34560000D03*
X35050000Y-33540000D03*
%TD*%
D11*
%TO.C,R_LCD_BL_GATE*%
X29240000Y-14000000D03*
X30260000Y-14000000D03*
%TD*%
D28*
%TO.C,F_USB*%
X25800000Y-34300000D03*
X28600000Y-34300000D03*
%TD*%
D29*
%TO.C,U_BUCK*%
X34050000Y-17137500D03*
X35000000Y-17137500D03*
X35950000Y-17137500D03*
X35950000Y-14862500D03*
X34050000Y-14862500D03*
%TD*%
D12*
%TO.C,C_FF*%
X35550000Y-13330000D03*
X35550000Y-12370000D03*
%TD*%
D30*
%TO.C,U_IMU*%
X24250000Y-27630000D03*
X24750000Y-27630000D03*
X25250000Y-27630000D03*
X25750000Y-27630000D03*
D31*
X25880000Y-27000000D03*
X25880000Y-26500000D03*
D30*
X25750000Y-25870000D03*
X25250000Y-25870000D03*
X24750000Y-25870000D03*
X24250000Y-25870000D03*
D31*
X24120000Y-26500000D03*
X24120000Y-27000000D03*
%TD*%
D11*
%TO.C,R_SCL*%
X24740000Y-28750000D03*
X25760000Y-28750000D03*
%TD*%
D32*
%TO.C,J_BAT*%
X15000000Y-37600000D03*
X13000000Y-37600000D03*
D33*
X10590000Y-43500000D03*
X17410000Y-43500000D03*
%TD*%
D26*
%TO.C,D_USB_DP*%
X34900000Y-41250000D03*
X35600000Y-41250000D03*
%TD*%
D15*
%TO.C,R_CC_SUM2*%
X22500000Y-45010000D03*
X22500000Y-43990000D03*
%TD*%
D34*
%TO.C,U_CHG*%
X29090000Y-31910000D03*
X30370000Y-31910000D03*
X31640000Y-31910000D03*
X32910000Y-31910000D03*
X32910000Y-26090000D03*
X31640000Y-26090000D03*
X30370000Y-26090000D03*
X29090000Y-26090000D03*
D35*
X31000000Y-29000000D03*
%TD*%
D36*
%TO.C,C_LCD*%
X18770000Y-10500000D03*
X19730000Y-10500000D03*
%TD*%
D24*
%TO.C,C_CHG_VIN*%
X27300000Y-32200000D03*
X27300000Y-30300000D03*
%TD*%
D37*
%TO.C,J_MIC*%
X39000000Y-5495000D03*
X38000000Y-5495000D03*
X37000000Y-5495000D03*
X36000000Y-5495000D03*
X35000000Y-5495000D03*
X34000000Y-5495000D03*
D38*
X32890000Y-1775000D03*
X40110000Y-1775000D03*
%TD*%
D15*
%TO.C,R_SDA*%
X23000000Y-29010000D03*
X23000000Y-27990000D03*
%TD*%
D39*
%TO.C,J_HEAT*%
X44350000Y-30750000D03*
X44350000Y-28250000D03*
X51750000Y-33730000D03*
X51750000Y-25270000D03*
%TD*%
D40*
%TO.C,C_EFUSE_DVDT*%
X34100000Y-30670000D03*
X34100000Y-31630000D03*
%TD*%
D36*
%TO.C,C_VBAT_SENSE*%
X19020000Y-43000000D03*
X19980000Y-43000000D03*
%TD*%
D12*
%TO.C,C_EN*%
X27000000Y-14980000D03*
X27000000Y-14020000D03*
%TD*%
D41*
%TO.C,Q_HEAT*%
X36050000Y-22687500D03*
X37950000Y-22687500D03*
X37000000Y-20812500D03*
%TD*%
D24*
%TO.C,C_BUCK_OUT1*%
X42250000Y-18100000D03*
X42250000Y-16200000D03*
%TD*%
D22*
%TO.C,J_TOUCH*%
X9600000Y-5775000D03*
X8600000Y-5775000D03*
D23*
X10900000Y-1900000D03*
X7300000Y-1900000D03*
%TD*%
D42*
%TO.C,Q_BATN*%
X17812500Y-32550000D03*
X17812500Y-34450000D03*
X19687500Y-33500000D03*
%TD*%
D43*
%TO.C,C_VSYS1*%
X27350000Y-25700000D03*
X27350000Y-27600000D03*
%TD*%
D44*
%TO.C,C_U1_BULK*%
X2625000Y-32800000D03*
X4175000Y-32800000D03*
%TD*%
D15*
%TO.C,R_CC1*%
X22750000Y-42510000D03*
X22750000Y-41490000D03*
%TD*%
D45*
%TO.C,RT_BAT*%
X19500000Y-41325000D03*
X19500000Y-39675000D03*
%TD*%
D46*
%TO.C,D_ESD_TOUCH*%
X5250000Y-7350000D03*
X5250000Y-6650000D03*
%TD*%
D36*
%TO.C,C_BAT_NTC*%
X19520000Y-38000000D03*
X20480000Y-38000000D03*
%TD*%
D47*
%TO.C,J_USB*%
X25550000Y-37310000D03*
X26350000Y-37310000D03*
D48*
X27550000Y-37310000D03*
X28550000Y-37310000D03*
X29050000Y-37310000D03*
X30050000Y-37310000D03*
D47*
X31250000Y-37310000D03*
X32050000Y-37310000D03*
X32050000Y-37310000D03*
X31250000Y-37310000D03*
D48*
X30550000Y-37310000D03*
X29550000Y-37310000D03*
X28050000Y-37310000D03*
X27050000Y-37310000D03*
D47*
X26350000Y-37310000D03*
X25550000Y-37310000D03*
%TD*%
D46*
%TO.C,D_USB_DN*%
X35000000Y-43600000D03*
X35000000Y-42900000D03*
%TD*%
D42*
%TO.C,Q_LCD_BL*%
X29562500Y-10550000D03*
X29562500Y-12450000D03*
X31437500Y-11500000D03*
%TD*%
D19*
%TO.C,C_VSYS2*%
X25150000Y-23750000D03*
X27050000Y-23750000D03*
%TD*%
D36*
%TO.C,C_U1*%
X2720000Y-31400000D03*
X3680000Y-31400000D03*
%TD*%
D15*
%TO.C,R_CC2*%
X22500000Y-40010000D03*
X22500000Y-38990000D03*
%TD*%
D49*
%TO.C,C_AMP_BULK*%
X41050000Y-34475000D03*
X41050000Y-32925000D03*
%TD*%
D44*
%TO.C,C_VUSB*%
X35075000Y-37050000D03*
X36625000Y-37050000D03*
%TD*%
D36*
%TO.C,C_CC_SENSE*%
X35020000Y-44750000D03*
X35980000Y-44750000D03*
%TD*%
D50*
%TO.C,L_CHG*%
X28950000Y-20800000D03*
X33050000Y-20800000D03*
%TD*%
D42*
%TO.C,Q_BATP*%
X21862500Y-32550000D03*
X21862500Y-34450000D03*
X23737500Y-33500000D03*
%TD*%
D12*
%TO.C,C_EFUSE_IN*%
X30650000Y-34680000D03*
X30650000Y-33720000D03*
%TD*%
D15*
%TO.C,R_GATE_PD*%
X41500000Y-25510000D03*
X41500000Y-24490000D03*
%TD*%
D11*
%TO.C,R_GATE*%
X33240000Y-24000000D03*
X34260000Y-24000000D03*
%TD*%
D15*
%TO.C,R_VBAT_TOP*%
X9000000Y-42010000D03*
X9000000Y-40990000D03*
%TD*%
D11*
%TO.C,R_BATN_G*%
X19240000Y-36250000D03*
X20260000Y-36250000D03*
%TD*%
D49*
%TO.C,C_BUCK_IN*%
X32350000Y-17375000D03*
X32350000Y-15825000D03*
%TD*%
D26*
%TO.C,D_ESD_PWR*%
X17650000Y-7000000D03*
X18350000Y-7000000D03*
%TD*%
D11*
%TO.C,R_KEY_MUTE_PU*%
X12740000Y-9750000D03*
X13760000Y-9750000D03*
%TD*%
D15*
%TO.C,R_BATN_PD*%
X15750000Y-33260000D03*
X15750000Y-32240000D03*
%TD*%
D51*
%TO.C,U_AMP*%
X37690000Y-33690000D03*
X37690000Y-34310000D03*
X38310000Y-33690000D03*
X38310000Y-34310000D03*
D52*
X36562500Y-33250000D03*
X36562500Y-33750000D03*
X36562500Y-34250000D03*
X36562500Y-34750000D03*
D53*
X37250000Y-35437500D03*
X37750000Y-35437500D03*
X38250000Y-35437500D03*
X38750000Y-35437500D03*
D52*
X39437500Y-34750000D03*
X39437500Y-34250000D03*
X39437500Y-33750000D03*
X39437500Y-33250000D03*
D53*
X38750000Y-32562500D03*
X38250000Y-32562500D03*
X37750000Y-32562500D03*
X37250000Y-32562500D03*
%TD*%
D36*
%TO.C,C_AMP*%
X38220000Y-36750000D03*
X39180000Y-36750000D03*
%TD*%
D25*
%TO.C,J_ARM_R*%
X47405000Y-22540000D03*
X47405000Y-20000000D03*
X47405000Y-17460000D03*
%TD*%
D36*
%TO.C,C_BUCK_HF*%
X34670000Y-18700000D03*
X35630000Y-18700000D03*
%TD*%
%TO.C,C_TOUCH_FILT*%
X10270000Y-10000000D03*
X11230000Y-10000000D03*
%TD*%
D54*
%TO.C,L_BUCK*%
X37450000Y-17150000D03*
X40450000Y-17150000D03*
%TD*%
D11*
%TO.C,R_LCD_CLK*%
X25740000Y-12250000D03*
X26760000Y-12250000D03*
%TD*%
D55*
%TO.C,U_EFUSE*%
X32800000Y-33900000D03*
X32800000Y-34700000D03*
D56*
X31850000Y-33550000D03*
X31850000Y-34050000D03*
X31850000Y-34550000D03*
X31850000Y-35050000D03*
X33750000Y-35050000D03*
X33750000Y-34550000D03*
X33750000Y-34050000D03*
X33750000Y-33550000D03*
%TD*%
D11*
%TO.C,R_FB2*%
X31590000Y-14400000D03*
X32610000Y-14400000D03*
%TD*%
M02*
