%TF.GenerationSoftware,KiCad,Pcbnew,10.0.6*%
%TF.CreationDate,2026-10-05T18:03:55-07:00*%
%TF.ProjectId,plush-toy-v2-D,706c7573-682d-4746-9f79-2d76322d442e,rev?*%
%TF.SameCoordinates,Original*%
%TF.FileFunction,Soldermask,Top*%
%TF.FilePolarity,Negative*%
%FSLAX46Y46*%
G04 Gerber Fmt 4.6, Leading zero omitted, Abs format (unit mm)*
G04 Created by KiCad (PCBNEW 10.0.6) date 2026-10-05 18:03:55*
%MOMM*%
%LPD*%
G01*
G04 APERTURE LIST*
G04 Aperture macros list*
%AMRoundRect*
0 Rectangle with rounded corners*
0 $1 Rounding radius*
0 $2 $3 $4 $5 $6 $7 $8 $9 X,Y pos of 4 corners*
0 Add a 4 corners polygon primitive as box body*
4,1,4,$2,$3,$4,$5,$6,$7,$8,$9,$2,$3,0*
0 Add four circle primitives for the rounded corners*
1,1,$1+$1,$2,$3*
1,1,$1+$1,$4,$5*
1,1,$1+$1,$6,$7*
1,1,$1+$1,$8,$9*
0 Add four rect primitives between the rounded corners*
20,1,$1+$1,$2,$3,$4,$5,0*
20,1,$1+$1,$4,$5,$6,$7,0*
20,1,$1+$1,$6,$7,$8,$9,0*
20,1,$1+$1,$8,$9,$2,$3,0*%
G04 Aperture macros list end*
%ADD10C,2.200000*%
%ADD11R,1.230000X1.860000*%
%ADD12R,0.500000X1.700000*%
%ADD13R,1.200000X2.500000*%
%ADD14RoundRect,0.150000X0.150000X0.625000X-0.150000X0.625000X-0.150000X-0.625000X0.150000X-0.625000X0*%
%ADD15RoundRect,0.250000X0.350000X0.650000X-0.350000X0.650000X-0.350000X-0.650000X0.350000X-0.650000X0*%
%ADD16R,1.000000X3.500000*%
%ADD17R,1.800000X4.000000*%
%ADD18RoundRect,0.140000X-0.170000X0.140000X-0.170000X-0.140000X0.170000X-0.140000X0.170000X0.140000X0*%
%ADD19R,1.500000X3.500000*%
%ADD20RoundRect,0.140000X-0.140000X-0.170000X0.140000X-0.170000X0.140000X0.170000X-0.140000X0.170000X0*%
%ADD21R,0.300000X1.300000*%
%ADD22R,2.000000X1.600000*%
%ADD23R,3.200000X1.020000*%
%ADD24RoundRect,0.150000X-0.150000X-0.625000X0.150000X-0.625000X0.150000X0.625000X-0.150000X0.625000X0*%
%ADD25RoundRect,0.250000X-0.350000X-0.650000X0.350000X-0.650000X0.350000X0.650000X-0.350000X0.650000X0*%
%ADD26R,0.700000X1.750000*%
%ADD27R,1.200000X2.550000*%
%ADD28C,0.650000*%
%ADD29RoundRect,0.150000X-0.150000X-0.575000X0.150000X-0.575000X0.150000X0.575000X-0.150000X0.575000X0*%
%ADD30RoundRect,0.075000X-0.075000X-0.650000X0.075000X-0.650000X0.075000X0.650000X-0.075000X0.650000X0*%
%ADD31O,1.000000X2.100000*%
%ADD32O,1.000000X1.600000*%
%ADD33RoundRect,0.225000X-0.225000X-0.250000X0.225000X-0.250000X0.225000X0.250000X-0.225000X0.250000X0*%
%ADD34R,0.900000X1.500000*%
%ADD35R,1.500000X0.900000*%
%ADD36C,0.600000*%
%ADD37R,3.900000X3.900000*%
G04 APERTURE END LIST*
D10*
%TO.C,H1*%
X43000000Y-10000000D03*
%TD*%
D11*
%TO.C,SW_BOOT*%
X30820000Y-19000000D03*
X35180000Y-19000000D03*
%TD*%
D12*
%TO.C,J_KEY*%
X61000000Y-5150000D03*
X60000000Y-5150000D03*
X59000000Y-5150000D03*
D13*
X62100000Y-1750000D03*
X57900000Y-1750000D03*
%TD*%
D14*
%TO.C,J_TOUCH*%
X25000000Y-5775000D03*
X24000000Y-5775000D03*
D15*
X26300000Y-1900000D03*
X22700000Y-1900000D03*
%TD*%
D16*
%TO.C,J_BAT*%
X14000000Y-46600000D03*
X12000000Y-46600000D03*
D17*
X9590000Y-52500000D03*
X16410000Y-52500000D03*
%TD*%
D18*
%TO.C,C_CAM_AVDD*%
X11750000Y-7520000D03*
X11750000Y-8480000D03*
%TD*%
D19*
%TO.C,J_HEAT*%
X56750000Y-45350000D03*
X59250000Y-45350000D03*
X53770000Y-52750000D03*
X62230000Y-52750000D03*
%TD*%
D20*
%TO.C,C_U1*%
X2720000Y-40400000D03*
X3680000Y-40400000D03*
%TD*%
D21*
%TO.C,J_CAM*%
X18250000Y-6215000D03*
X17750000Y-6215000D03*
X17250000Y-6215000D03*
X16750000Y-6215000D03*
X16250000Y-6215000D03*
X15750000Y-6215000D03*
X15250000Y-6215000D03*
X14750000Y-6215000D03*
X14250000Y-6215000D03*
X13750000Y-6215000D03*
X13250000Y-6215000D03*
X12750000Y-6215000D03*
X12250000Y-6215000D03*
X11750000Y-6215000D03*
X11250000Y-6215000D03*
X10750000Y-6215000D03*
X10250000Y-6215000D03*
X9750000Y-6215000D03*
X9250000Y-6215000D03*
X8750000Y-6215000D03*
X8250000Y-6215000D03*
X7750000Y-6215000D03*
X7250000Y-6215000D03*
X6750000Y-6215000D03*
D22*
X5050000Y-3555000D03*
X19950000Y-3555000D03*
%TD*%
D23*
%TO.C,J_ARM_L*%
X58405000Y-17040000D03*
X58405000Y-14500000D03*
X58405000Y-11960000D03*
%TD*%
%TO.C,J_ARM_R*%
X58405000Y-28540000D03*
X58405000Y-26000000D03*
X58405000Y-23460000D03*
%TD*%
D18*
%TO.C,C_CAM_DVDD*%
X10500000Y-7520000D03*
X10500000Y-8480000D03*
%TD*%
D24*
%TO.C,J_SPK*%
X43000000Y-49225000D03*
X44000000Y-49225000D03*
D25*
X41700000Y-53100000D03*
X45300000Y-53100000D03*
%TD*%
D26*
%TO.C,J_MIC*%
X51500000Y-5495000D03*
X50500000Y-5495000D03*
X49500000Y-5495000D03*
X48500000Y-5495000D03*
X47500000Y-5495000D03*
X46500000Y-5495000D03*
D27*
X45390000Y-1775000D03*
X52610000Y-1775000D03*
%TD*%
D14*
%TO.C,J_LCD*%
X38500000Y-5775000D03*
X37500000Y-5775000D03*
X36500000Y-5775000D03*
X35500000Y-5775000D03*
X34500000Y-5775000D03*
X33500000Y-5775000D03*
X32500000Y-5775000D03*
X31500000Y-5775000D03*
D15*
X39800000Y-1900000D03*
X30200000Y-1900000D03*
%TD*%
D11*
%TO.C,SW_RST*%
X24820000Y-19000000D03*
X29180000Y-19000000D03*
%TD*%
D28*
%TO.C,J_USB*%
X27110000Y-47755000D03*
X32890000Y-47755000D03*
D29*
X26750000Y-46310000D03*
X27550000Y-46310000D03*
D30*
X28750000Y-46310000D03*
X29750000Y-46310000D03*
X30250000Y-46310000D03*
X31250000Y-46310000D03*
D29*
X32450000Y-46310000D03*
X33250000Y-46310000D03*
X33250000Y-46310000D03*
X32450000Y-46310000D03*
D30*
X31750000Y-46310000D03*
X30750000Y-46310000D03*
X29250000Y-46310000D03*
X28250000Y-46310000D03*
D29*
X27550000Y-46310000D03*
X26750000Y-46310000D03*
D31*
X25680000Y-47225000D03*
D32*
X25680000Y-51405000D03*
D31*
X34320000Y-47225000D03*
D32*
X34320000Y-51405000D03*
%TD*%
D33*
%TO.C,C_U1_BULK*%
X2625000Y-41800000D03*
X4175000Y-41800000D03*
%TD*%
D10*
%TO.C,H2*%
X3500000Y-51500000D03*
%TD*%
D24*
%TO.C,J_NTC*%
X49200000Y-49225000D03*
X50200000Y-49225000D03*
D25*
X47900000Y-53100000D03*
X51500000Y-53100000D03*
%TD*%
D34*
%TO.C,U1*%
X1490000Y-38750000D03*
X2760000Y-38750000D03*
X4030000Y-38750000D03*
X5300000Y-38750000D03*
X6570000Y-38750000D03*
X7840000Y-38750000D03*
X9110000Y-38750000D03*
X10380000Y-38750000D03*
X11650000Y-38750000D03*
X12920000Y-38750000D03*
X14190000Y-38750000D03*
X15460000Y-38750000D03*
X16730000Y-38750000D03*
X18000000Y-38750000D03*
D35*
X19250000Y-36985000D03*
X19250000Y-35715000D03*
X19250000Y-34445000D03*
X19250000Y-33175000D03*
X19250000Y-31905000D03*
X19250000Y-30635000D03*
X19250000Y-29365000D03*
X19250000Y-28095000D03*
X19250000Y-26825000D03*
X19250000Y-25555000D03*
X19250000Y-24285000D03*
X19250000Y-23015000D03*
D34*
X18000000Y-21250000D03*
X16730000Y-21250000D03*
X15460000Y-21250000D03*
X14190000Y-21250000D03*
X12920000Y-21250000D03*
X11650000Y-21250000D03*
X10380000Y-21250000D03*
X9110000Y-21250000D03*
X7840000Y-21250000D03*
X6570000Y-21250000D03*
X5300000Y-21250000D03*
X4030000Y-21250000D03*
X2760000Y-21250000D03*
X1490000Y-21250000D03*
D36*
X8510000Y-32900000D03*
X9910000Y-32900000D03*
X7810000Y-32200000D03*
X9210000Y-32200000D03*
X10610000Y-32200000D03*
X8510000Y-31500000D03*
D37*
X9210000Y-31500000D03*
D36*
X9910000Y-31500000D03*
X7810000Y-30800000D03*
X9210000Y-30800000D03*
X10610000Y-30800000D03*
X8510000Y-30100000D03*
X9910000Y-30100000D03*
%TD*%
M02*
