%TF.GenerationSoftware,KiCad,Pcbnew,10.0.6*%
%TF.CreationDate,2026-10-05T18:03:56-07:00*%
%TF.ProjectId,plush-toy-v2-D,706c7573-682d-4746-9f79-2d76322d442e,rev?*%
%TF.SameCoordinates,Original*%
%TF.FileFunction,Drillmap*%
%TF.FilePolarity,Positive*%
%FSLAX45Y45*%
G04 Gerber Fmt 4.5, Leading zero omitted, Abs format (unit mm)*
G04 Created by KiCad (PCBNEW 10.0.6) date 2026-10-05 18:03:56*
%MOMM*%
%LPD*%
G01*
G04 APERTURE LIST*
%ADD10C,0.100000*%
%ADD11C,0.200000*%
G04 APERTURE END LIST*
D10*
X0Y-200000D02*
G75*
G02*
X200000Y0I200000J0D01*
G01*
X0Y-5300000D02*
X0Y-200000D01*
X200000Y0D02*
X6300000Y0D01*
X200000Y-5500000D02*
G75*
G02*
X0Y-5300000I0J200000D01*
G01*
X6300000Y0D02*
G75*
G02*
X6500000Y-200000I0J-200000D01*
G01*
X6300000Y-5500000D02*
X200000Y-5500000D01*
X6500000Y-200000D02*
X6500000Y-5300000D01*
X6500000Y-5300000D02*
G75*
G02*
X6300000Y-5500000I-200000J0D01*
G01*
D11*
D10*
X771000Y-3070000D02*
X791000Y-3090000D01*
X791000Y-3070000D02*
X771000Y-3090000D01*
X771000Y-3210000D02*
X791000Y-3230000D01*
X791000Y-3210000D02*
X771000Y-3230000D01*
X841000Y-3000000D02*
X861000Y-3020000D01*
X861000Y-3000000D02*
X841000Y-3020000D01*
X841000Y-3140000D02*
X861000Y-3160000D01*
X861000Y-3140000D02*
X841000Y-3160000D01*
X841000Y-3280000D02*
X861000Y-3300000D01*
X861000Y-3280000D02*
X841000Y-3300000D01*
X911000Y-3070000D02*
X931000Y-3090000D01*
X931000Y-3070000D02*
X911000Y-3090000D01*
X911000Y-3210000D02*
X931000Y-3230000D01*
X931000Y-3210000D02*
X911000Y-3230000D01*
X981000Y-3000000D02*
X1001000Y-3020000D01*
X1001000Y-3000000D02*
X981000Y-3020000D01*
X981000Y-3140000D02*
X1001000Y-3160000D01*
X1001000Y-3140000D02*
X981000Y-3160000D01*
X981000Y-3280000D02*
X1001000Y-3300000D01*
X1001000Y-3280000D02*
X981000Y-3300000D01*
X1051000Y-3070000D02*
X1071000Y-3090000D01*
X1071000Y-3070000D02*
X1051000Y-3090000D01*
X1051000Y-3210000D02*
X1071000Y-3230000D01*
X1071000Y-3210000D02*
X1051000Y-3230000D01*
X3490000Y-3935000D02*
X3510000Y-3955000D01*
X3510000Y-3935000D02*
X3490000Y-3955000D01*
X3490000Y-4045000D02*
X3510000Y-4065000D01*
X3510000Y-4045000D02*
X3490000Y-4065000D01*
X164000Y-2125000D02*
G75*
G02*
X134000Y-2125000I-15000J0D01*
G01*
X134000Y-2125000D02*
G75*
G02*
X164000Y-2125000I15000J0D01*
G01*
X164000Y-3875000D02*
G75*
G02*
X134000Y-3875000I-15000J0D01*
G01*
X134000Y-3875000D02*
G75*
G02*
X164000Y-3875000I15000J0D01*
G01*
X187500Y-4180000D02*
G75*
G02*
X157500Y-4180000I-15000J0D01*
G01*
X157500Y-4180000D02*
G75*
G02*
X187500Y-4180000I15000J0D01*
G01*
X214000Y-4040000D02*
G75*
G02*
X184000Y-4040000I-15000J0D01*
G01*
X184000Y-4040000D02*
G75*
G02*
X214000Y-4040000I15000J0D01*
G01*
X291000Y-3875000D02*
G75*
G02*
X261000Y-3875000I-15000J0D01*
G01*
X261000Y-3875000D02*
G75*
G02*
X291000Y-3875000I15000J0D01*
G01*
X357990Y-3595760D02*
G75*
G02*
X327990Y-3595760I-15000J0D01*
G01*
X327990Y-3595760D02*
G75*
G02*
X357990Y-3595760I15000J0D01*
G01*
X439940Y-3752890D02*
G75*
G02*
X409940Y-3752890I-15000J0D01*
G01*
X409940Y-3752890D02*
G75*
G02*
X439940Y-3752890I15000J0D01*
G01*
X456000Y-4040000D02*
G75*
G02*
X426000Y-4040000I-15000J0D01*
G01*
X426000Y-4040000D02*
G75*
G02*
X456000Y-4040000I15000J0D01*
G01*
X487970Y-1994800D02*
G75*
G02*
X457970Y-1994800I-15000J0D01*
G01*
X457970Y-1994800D02*
G75*
G02*
X487970Y-1994800I15000J0D01*
G01*
X520000Y-355500D02*
G75*
G02*
X490000Y-355500I-15000J0D01*
G01*
X490000Y-355500D02*
G75*
G02*
X520000Y-355500I15000J0D01*
G01*
X522500Y-4180000D02*
G75*
G02*
X492500Y-4180000I-15000J0D01*
G01*
X492500Y-4180000D02*
G75*
G02*
X522500Y-4180000I15000J0D01*
G01*
X528250Y-3753940D02*
G75*
G02*
X498250Y-3753940I-15000J0D01*
G01*
X498250Y-3753940D02*
G75*
G02*
X528250Y-3753940I15000J0D01*
G01*
X590000Y-1400000D02*
G75*
G02*
X560000Y-1400000I-15000J0D01*
G01*
X560000Y-1400000D02*
G75*
G02*
X590000Y-1400000I15000J0D01*
G01*
X610680Y-1696320D02*
G75*
G02*
X580680Y-1696320I-15000J0D01*
G01*
X580680Y-1696320D02*
G75*
G02*
X610680Y-1696320I15000J0D01*
G01*
X612920Y-1231230D02*
G75*
G02*
X582920Y-1231230I-15000J0D01*
G01*
X582920Y-1231230D02*
G75*
G02*
X612920Y-1231230I15000J0D01*
G01*
X612920Y-1568770D02*
G75*
G02*
X582920Y-1568770I-15000J0D01*
G01*
X582920Y-1568770D02*
G75*
G02*
X612920Y-1568770I15000J0D01*
G01*
X615000Y-898530D02*
G75*
G02*
X585000Y-898530I-15000J0D01*
G01*
X585000Y-898530D02*
G75*
G02*
X615000Y-898530I15000J0D01*
G01*
X616830Y-3754490D02*
G75*
G02*
X586830Y-3754490I-15000J0D01*
G01*
X586830Y-3754490D02*
G75*
G02*
X616830Y-3754490I15000J0D01*
G01*
X740000Y-750000D02*
G75*
G02*
X710000Y-750000I-15000J0D01*
G01*
X710000Y-750000D02*
G75*
G02*
X740000Y-750000I15000J0D01*
G01*
X824630Y-3752010D02*
G75*
G02*
X794630Y-3752010I-15000J0D01*
G01*
X794630Y-3752010D02*
G75*
G02*
X824630Y-3752010I15000J0D01*
G01*
X829320Y-1696320D02*
G75*
G02*
X799320Y-1696320I-15000J0D01*
G01*
X799320Y-1696320D02*
G75*
G02*
X829320Y-1696320I15000J0D01*
G01*
X851950Y-509360D02*
G75*
G02*
X821950Y-509360I-15000J0D01*
G01*
X821950Y-509360D02*
G75*
G02*
X851950Y-509360I15000J0D01*
G01*
X855620Y-1106880D02*
G75*
G02*
X825620Y-1106880I-15000J0D01*
G01*
X825620Y-1106880D02*
G75*
G02*
X855620Y-1106880I15000J0D01*
G01*
X890000Y-839410D02*
G75*
G02*
X860000Y-839410I-15000J0D01*
G01*
X860000Y-839410D02*
G75*
G02*
X890000Y-839410I15000J0D01*
G01*
X947480Y-2246650D02*
G75*
G02*
X917480Y-2246650I-15000J0D01*
G01*
X917480Y-2246650D02*
G75*
G02*
X947480Y-2246650I15000J0D01*
G01*
X978820Y-508710D02*
G75*
G02*
X948820Y-508710I-15000J0D01*
G01*
X948820Y-508710D02*
G75*
G02*
X978820Y-508710I15000J0D01*
G01*
X987320Y-732670D02*
G75*
G02*
X957320Y-732670I-15000J0D01*
G01*
X957320Y-732670D02*
G75*
G02*
X987320Y-732670I15000J0D01*
G01*
X1065000Y-921000D02*
G75*
G02*
X1035000Y-921000I-15000J0D01*
G01*
X1035000Y-921000D02*
G75*
G02*
X1065000Y-921000I15000J0D01*
G01*
X1066000Y-1635000D02*
G75*
G02*
X1036000Y-1635000I-15000J0D01*
G01*
X1036000Y-1635000D02*
G75*
G02*
X1066000Y-1635000I15000J0D01*
G01*
X1079820Y-509910D02*
G75*
G02*
X1049820Y-509910I-15000J0D01*
G01*
X1049820Y-509910D02*
G75*
G02*
X1079820Y-509910I15000J0D01*
G01*
X1091690Y-433890D02*
G75*
G02*
X1061690Y-433890I-15000J0D01*
G01*
X1061690Y-433890D02*
G75*
G02*
X1091690Y-433890I15000J0D01*
G01*
X1111320Y-3752740D02*
G75*
G02*
X1081320Y-3752740I-15000J0D01*
G01*
X1081320Y-3752740D02*
G75*
G02*
X1111320Y-3752740I15000J0D01*
G01*
X1132950Y-1038540D02*
G75*
G02*
X1102950Y-1038540I-15000J0D01*
G01*
X1102950Y-1038540D02*
G75*
G02*
X1132950Y-1038540I15000J0D01*
G01*
X1165000Y-5027670D02*
G75*
G02*
X1135000Y-5027670I-15000J0D01*
G01*
X1135000Y-5027670D02*
G75*
G02*
X1165000Y-5027670I15000J0D01*
G01*
X1165000Y-5271000D02*
G75*
G02*
X1135000Y-5271000I-15000J0D01*
G01*
X1135000Y-5271000D02*
G75*
G02*
X1165000Y-5271000I15000J0D01*
G01*
X1190000Y-921000D02*
G75*
G02*
X1160000Y-921000I-15000J0D01*
G01*
X1160000Y-921000D02*
G75*
G02*
X1190000Y-921000I15000J0D01*
G01*
X1215000Y-4660000D02*
G75*
G02*
X1185000Y-4660000I-15000J0D01*
G01*
X1185000Y-4660000D02*
G75*
G02*
X1215000Y-4660000I15000J0D01*
G01*
X1260840Y-3752680D02*
G75*
G02*
X1230840Y-3752680I-15000J0D01*
G01*
X1230840Y-3752680D02*
G75*
G02*
X1260840Y-3752680I15000J0D01*
G01*
X1263510Y-434360D02*
G75*
G02*
X1233510Y-434360I-15000J0D01*
G01*
X1233510Y-434360D02*
G75*
G02*
X1263510Y-434360I15000J0D01*
G01*
X1266390Y-351220D02*
G75*
G02*
X1236390Y-351220I-15000J0D01*
G01*
X1236390Y-351220D02*
G75*
G02*
X1266390Y-351220I15000J0D01*
G01*
X1289350Y-3647200D02*
G75*
G02*
X1259350Y-3647200I-15000J0D01*
G01*
X1259350Y-3647200D02*
G75*
G02*
X1289350Y-3647200I15000J0D01*
G01*
X1298630Y-731750D02*
G75*
G02*
X1268630Y-731750I-15000J0D01*
G01*
X1268630Y-731750D02*
G75*
G02*
X1298630Y-731750I15000J0D01*
G01*
X1341000Y-4907000D02*
G75*
G02*
X1311000Y-4907000I-15000J0D01*
G01*
X1311000Y-4907000D02*
G75*
G02*
X1341000Y-4907000I15000J0D01*
G01*
X1377320Y-438680D02*
G75*
G02*
X1347320Y-438680I-15000J0D01*
G01*
X1347320Y-438680D02*
G75*
G02*
X1377320Y-438680I15000J0D01*
G01*
X1386580Y-731880D02*
G75*
G02*
X1356580Y-731880I-15000J0D01*
G01*
X1356580Y-731880D02*
G75*
G02*
X1386580Y-731880I15000J0D01*
G01*
X1388000Y-519000D02*
G75*
G02*
X1358000Y-519000I-15000J0D01*
G01*
X1358000Y-519000D02*
G75*
G02*
X1388000Y-519000I15000J0D01*
G01*
X1390000Y-1400000D02*
G75*
G02*
X1360000Y-1400000I-15000J0D01*
G01*
X1360000Y-1400000D02*
G75*
G02*
X1390000Y-1400000I15000J0D01*
G01*
X1405770Y-1785520D02*
G75*
G02*
X1375770Y-1785520I-15000J0D01*
G01*
X1375770Y-1785520D02*
G75*
G02*
X1405770Y-1785520I15000J0D01*
G01*
X1405770Y-3675060D02*
G75*
G02*
X1375770Y-3675060I-15000J0D01*
G01*
X1375770Y-3675060D02*
G75*
G02*
X1405770Y-3675060I15000J0D01*
G01*
X1410680Y-1696320D02*
G75*
G02*
X1380680Y-1696320I-15000J0D01*
G01*
X1380680Y-1696320D02*
G75*
G02*
X1410680Y-1696320I15000J0D01*
G01*
X1412920Y-1231230D02*
G75*
G02*
X1382920Y-1231230I-15000J0D01*
G01*
X1382920Y-1231230D02*
G75*
G02*
X1412920Y-1231230I15000J0D01*
G01*
X1412920Y-1568770D02*
G75*
G02*
X1382920Y-1568770I-15000J0D01*
G01*
X1382920Y-1568770D02*
G75*
G02*
X1412920Y-1568770I15000J0D01*
G01*
X1427380Y-3752710D02*
G75*
G02*
X1397380Y-3752710I-15000J0D01*
G01*
X1397380Y-3752710D02*
G75*
G02*
X1427380Y-3752710I15000J0D01*
G01*
X1478510Y-1735200D02*
G75*
G02*
X1448510Y-1735200I-15000J0D01*
G01*
X1448510Y-1735200D02*
G75*
G02*
X1478510Y-1735200I15000J0D01*
G01*
X1482500Y-4950000D02*
G75*
G02*
X1452500Y-4950000I-15000J0D01*
G01*
X1452500Y-4950000D02*
G75*
G02*
X1482500Y-4950000I15000J0D01*
G01*
X1524280Y-2549830D02*
G75*
G02*
X1494280Y-2549830I-15000J0D01*
G01*
X1494280Y-2549830D02*
G75*
G02*
X1524280Y-2549830I15000J0D01*
G01*
X1565000Y-4827000D02*
G75*
G02*
X1535000Y-4827000I-15000J0D01*
G01*
X1535000Y-4827000D02*
G75*
G02*
X1565000Y-4827000I15000J0D01*
G01*
X1575430Y-2260830D02*
G75*
G02*
X1545430Y-2260830I-15000J0D01*
G01*
X1545430Y-2260830D02*
G75*
G02*
X1575430Y-2260830I15000J0D01*
G01*
X1579450Y-2459430D02*
G75*
G02*
X1549450Y-2459430I-15000J0D01*
G01*
X1549450Y-2459430D02*
G75*
G02*
X1579450Y-2459430I15000J0D01*
G01*
X1579450Y-4179580D02*
G75*
G02*
X1549450Y-4179580I-15000J0D01*
G01*
X1549450Y-4179580D02*
G75*
G02*
X1579450Y-4179580I15000J0D01*
G01*
X1608570Y-732140D02*
G75*
G02*
X1578570Y-732140I-15000J0D01*
G01*
X1578570Y-732140D02*
G75*
G02*
X1608570Y-732140I15000J0D01*
G01*
X1629320Y-1696320D02*
G75*
G02*
X1599320Y-1696320I-15000J0D01*
G01*
X1599320Y-1696320D02*
G75*
G02*
X1629320Y-1696320I15000J0D01*
G01*
X1638690Y-4958060D02*
G75*
G02*
X1608690Y-4958060I-15000J0D01*
G01*
X1608690Y-4958060D02*
G75*
G02*
X1638690Y-4958060I15000J0D01*
G01*
X1655210Y-4881020D02*
G75*
G02*
X1625210Y-4881020I-15000J0D01*
G01*
X1625210Y-4881020D02*
G75*
G02*
X1655210Y-4881020I15000J0D01*
G01*
X1672360Y-3181500D02*
G75*
G02*
X1642360Y-3181500I-15000J0D01*
G01*
X1642360Y-3181500D02*
G75*
G02*
X1672360Y-3181500I15000J0D01*
G01*
X1729460Y-988220D02*
G75*
G02*
X1699460Y-988220I-15000J0D01*
G01*
X1699460Y-988220D02*
G75*
G02*
X1729460Y-988220I15000J0D01*
G01*
X1735860Y-3063500D02*
G75*
G02*
X1705860Y-3063500I-15000J0D01*
G01*
X1705860Y-3063500D02*
G75*
G02*
X1735860Y-3063500I15000J0D01*
G01*
X1794870Y-2936500D02*
G75*
G02*
X1764870Y-2936500I-15000J0D01*
G01*
X1764870Y-2936500D02*
G75*
G02*
X1794870Y-2936500I15000J0D01*
G01*
X1803730Y-3242310D02*
G75*
G02*
X1773730Y-3242310I-15000J0D01*
G01*
X1773730Y-3242310D02*
G75*
G02*
X1803730Y-3242310I15000J0D01*
G01*
X1818360Y-3317500D02*
G75*
G02*
X1788360Y-3317500I-15000J0D01*
G01*
X1788360Y-3317500D02*
G75*
G02*
X1818360Y-3317500I15000J0D01*
G01*
X1823230Y-733770D02*
G75*
G02*
X1793230Y-733770I-15000J0D01*
G01*
X1793230Y-733770D02*
G75*
G02*
X1823230Y-733770I15000J0D01*
G01*
X1866000Y-1635000D02*
G75*
G02*
X1836000Y-1635000I-15000J0D01*
G01*
X1836000Y-1635000D02*
G75*
G02*
X1866000Y-1635000I15000J0D01*
G01*
X1886630Y-932420D02*
G75*
G02*
X1856630Y-932420I-15000J0D01*
G01*
X1856630Y-932420D02*
G75*
G02*
X1886630Y-932420I15000J0D01*
G01*
X1900500Y-1472420D02*
G75*
G02*
X1870500Y-1472420I-15000J0D01*
G01*
X1870500Y-1472420D02*
G75*
G02*
X1900500Y-1472420I15000J0D01*
G01*
X2010000Y-355500D02*
G75*
G02*
X1980000Y-355500I-15000J0D01*
G01*
X1980000Y-355500D02*
G75*
G02*
X2010000Y-355500I15000J0D01*
G01*
X2015000Y-4971000D02*
G75*
G02*
X1985000Y-4971000I-15000J0D01*
G01*
X1985000Y-4971000D02*
G75*
G02*
X2015000Y-4971000I15000J0D01*
G01*
X2060530Y-2809500D02*
G75*
G02*
X2030530Y-2809500I-15000J0D01*
G01*
X2030530Y-2809500D02*
G75*
G02*
X2060530Y-2809500I15000J0D01*
G01*
X2098510Y-496160D02*
G75*
G02*
X2068510Y-496160I-15000J0D01*
G01*
X2068510Y-496160D02*
G75*
G02*
X2098510Y-496160I15000J0D01*
G01*
X2098880Y-2555500D02*
G75*
G02*
X2068880Y-2555500I-15000J0D01*
G01*
X2068880Y-2555500D02*
G75*
G02*
X2098880Y-2555500I15000J0D01*
G01*
X2134050Y-2301500D02*
G75*
G02*
X2104050Y-2301500I-15000J0D01*
G01*
X2104050Y-2301500D02*
G75*
G02*
X2134050Y-2301500I15000J0D01*
G01*
X2207200Y-3670080D02*
G75*
G02*
X2177200Y-3670080I-15000J0D01*
G01*
X2177200Y-3670080D02*
G75*
G02*
X2207200Y-3670080I15000J0D01*
G01*
X2212350Y-1967310D02*
G75*
G02*
X2182350Y-1967310I-15000J0D01*
G01*
X2182350Y-1967310D02*
G75*
G02*
X2212350Y-1967310I15000J0D01*
G01*
X2266000Y-2727000D02*
G75*
G02*
X2236000Y-2727000I-15000J0D01*
G01*
X2236000Y-2727000D02*
G75*
G02*
X2266000Y-2727000I15000J0D01*
G01*
X2315000Y-3298000D02*
G75*
G02*
X2285000Y-3298000I-15000J0D01*
G01*
X2285000Y-3298000D02*
G75*
G02*
X2315000Y-3298000I15000J0D01*
G01*
X2322920Y-2428500D02*
G75*
G02*
X2292920Y-2428500I-15000J0D01*
G01*
X2292920Y-2428500D02*
G75*
G02*
X2322920Y-2428500I15000J0D01*
G01*
X2384090Y-701160D02*
G75*
G02*
X2354090Y-701160I-15000J0D01*
G01*
X2354090Y-701160D02*
G75*
G02*
X2384090Y-701160I15000J0D01*
G01*
X2398230Y-3224990D02*
G75*
G02*
X2368230Y-3224990I-15000J0D01*
G01*
X2368230Y-3224990D02*
G75*
G02*
X2398230Y-3224990I15000J0D01*
G01*
X2558000Y-2650000D02*
G75*
G02*
X2528000Y-2650000I-15000J0D01*
G01*
X2528000Y-2650000D02*
G75*
G02*
X2558000Y-2650000I15000J0D01*
G01*
X2575000Y-2866390D02*
G75*
G02*
X2545000Y-2866390I-15000J0D01*
G01*
X2545000Y-2866390D02*
G75*
G02*
X2575000Y-2866390I15000J0D01*
G01*
X2576520Y-2573460D02*
G75*
G02*
X2546520Y-2573460I-15000J0D01*
G01*
X2546520Y-2573460D02*
G75*
G02*
X2576520Y-2573460I15000J0D01*
G01*
X2591150Y-501350D02*
G75*
G02*
X2561150Y-501350I-15000J0D01*
G01*
X2561150Y-501350D02*
G75*
G02*
X2591150Y-501350I15000J0D01*
G01*
X2604270Y-1957350D02*
G75*
G02*
X2574270Y-1957350I-15000J0D01*
G01*
X2574270Y-1957350D02*
G75*
G02*
X2604270Y-1957350I15000J0D01*
G01*
X2615000Y-3146080D02*
G75*
G02*
X2585000Y-3146080I-15000J0D01*
G01*
X2585000Y-3146080D02*
G75*
G02*
X2615000Y-3146080I15000J0D01*
G01*
X2627260Y-4128490D02*
G75*
G02*
X2597260Y-4128490I-15000J0D01*
G01*
X2597260Y-4128490D02*
G75*
G02*
X2627260Y-4128490I15000J0D01*
G01*
X2664000Y-1823000D02*
G75*
G02*
X2634000Y-1823000I-15000J0D01*
G01*
X2634000Y-1823000D02*
G75*
G02*
X2664000Y-1823000I15000J0D01*
G01*
X2691000Y-3375000D02*
G75*
G02*
X2661000Y-3375000I-15000J0D01*
G01*
X2661000Y-3375000D02*
G75*
G02*
X2691000Y-3375000I15000J0D01*
G01*
X2694100Y-4173260D02*
G75*
G02*
X2664100Y-4173260I-15000J0D01*
G01*
X2664100Y-4173260D02*
G75*
G02*
X2694100Y-4173260I15000J0D01*
G01*
X2715000Y-800000D02*
G75*
G02*
X2685000Y-800000I-15000J0D01*
G01*
X2685000Y-800000D02*
G75*
G02*
X2715000Y-800000I15000J0D01*
G01*
X2742060Y-2780280D02*
G75*
G02*
X2712060Y-2780280I-15000J0D01*
G01*
X2712060Y-2780280D02*
G75*
G02*
X2742060Y-2780280I15000J0D01*
G01*
X2767170Y-3373150D02*
G75*
G02*
X2737170Y-3373150I-15000J0D01*
G01*
X2737170Y-3373150D02*
G75*
G02*
X2767170Y-3373150I15000J0D01*
G01*
X2771040Y-3244370D02*
G75*
G02*
X2741040Y-3244370I-15000J0D01*
G01*
X2741040Y-3244370D02*
G75*
G02*
X2771040Y-3244370I15000J0D01*
G01*
X2865000Y-5198000D02*
G75*
G02*
X2835000Y-5198000I-15000J0D01*
G01*
X2835000Y-5198000D02*
G75*
G02*
X2865000Y-5198000I15000J0D01*
G01*
X2867870Y-1540480D02*
G75*
G02*
X2837870Y-1540480I-15000J0D01*
G01*
X2837870Y-1540480D02*
G75*
G02*
X2867870Y-1540480I15000J0D01*
G01*
X2890000Y-4748840D02*
G75*
G02*
X2860000Y-4748840I-15000J0D01*
G01*
X2860000Y-4748840D02*
G75*
G02*
X2890000Y-4748840I15000J0D01*
G01*
X2895000Y-3059000D02*
G75*
G02*
X2865000Y-3059000I-15000J0D01*
G01*
X2865000Y-3059000D02*
G75*
G02*
X2895000Y-3059000I15000J0D01*
G01*
X2895000Y-3301000D02*
G75*
G02*
X2865000Y-3301000I-15000J0D01*
G01*
X2865000Y-3301000D02*
G75*
G02*
X2895000Y-3301000I15000J0D01*
G01*
X2908040Y-3544180D02*
G75*
G02*
X2878040Y-3544180I-15000J0D01*
G01*
X2878040Y-3544180D02*
G75*
G02*
X2908040Y-3544180I15000J0D01*
G01*
X2911000Y-2025000D02*
G75*
G02*
X2881000Y-2025000I-15000J0D01*
G01*
X2881000Y-2025000D02*
G75*
G02*
X2911000Y-2025000I15000J0D01*
G01*
X2919600Y-1483080D02*
G75*
G02*
X2889600Y-1483080I-15000J0D01*
G01*
X2889600Y-1483080D02*
G75*
G02*
X2919600Y-1483080I15000J0D01*
G01*
X2933000Y-1900000D02*
G75*
G02*
X2903000Y-1900000I-15000J0D01*
G01*
X2903000Y-1900000D02*
G75*
G02*
X2933000Y-1900000I15000J0D01*
G01*
X2956290Y-3654460D02*
G75*
G02*
X2926290Y-3654460I-15000J0D01*
G01*
X2926290Y-3654460D02*
G75*
G02*
X2956290Y-3654460I15000J0D01*
G01*
X2956790Y-3838260D02*
G75*
G02*
X2926790Y-3838260I-15000J0D01*
G01*
X2926790Y-3838260D02*
G75*
G02*
X2956790Y-3838260I15000J0D01*
G01*
X2962670Y-3739130D02*
G75*
G02*
X2932670Y-3739130I-15000J0D01*
G01*
X2932670Y-3739130D02*
G75*
G02*
X2962670Y-3739130I15000J0D01*
G01*
X2987710Y-5107500D02*
G75*
G02*
X2957710Y-5107500I-15000J0D01*
G01*
X2957710Y-5107500D02*
G75*
G02*
X2987710Y-5107500I15000J0D01*
G01*
X2990370Y-1569360D02*
G75*
G02*
X2960370Y-1569360I-15000J0D01*
G01*
X2960370Y-1569360D02*
G75*
G02*
X2990370Y-1569360I15000J0D01*
G01*
X3046180Y-3411850D02*
G75*
G02*
X3016180Y-3411850I-15000J0D01*
G01*
X3016180Y-3411850D02*
G75*
G02*
X3046180Y-3411850I15000J0D01*
G01*
X3049630Y-1127590D02*
G75*
G02*
X3019630Y-1127590I-15000J0D01*
G01*
X3019630Y-1127590D02*
G75*
G02*
X3049630Y-1127590I15000J0D01*
G01*
X3070090Y-3591900D02*
G75*
G02*
X3040090Y-3591900I-15000J0D01*
G01*
X3040090Y-3591900D02*
G75*
G02*
X3070090Y-3591900I15000J0D01*
G01*
X3090000Y-4751470D02*
G75*
G02*
X3060000Y-4751470I-15000J0D01*
G01*
X3060000Y-4751470D02*
G75*
G02*
X3090000Y-4751470I15000J0D01*
G01*
X3097000Y-2040070D02*
G75*
G02*
X3067000Y-2040070I-15000J0D01*
G01*
X3067000Y-2040070D02*
G75*
G02*
X3097000Y-2040070I15000J0D01*
G01*
X3097100Y-3744910D02*
G75*
G02*
X3067100Y-3744910I-15000J0D01*
G01*
X3067100Y-3744910D02*
G75*
G02*
X3097100Y-3744910I15000J0D01*
G01*
X3102000Y-1427910D02*
G75*
G02*
X3072000Y-1427910I-15000J0D01*
G01*
X3072000Y-1427910D02*
G75*
G02*
X3102000Y-1427910I15000J0D01*
G01*
X3102000Y-1688600D02*
G75*
G02*
X3072000Y-1688600I-15000J0D01*
G01*
X3072000Y-1688600D02*
G75*
G02*
X3102000Y-1688600I15000J0D01*
G01*
X3115000Y-5025000D02*
G75*
G02*
X3085000Y-5025000I-15000J0D01*
G01*
X3085000Y-5025000D02*
G75*
G02*
X3115000Y-5025000I15000J0D01*
G01*
X3140000Y-729000D02*
G75*
G02*
X3110000Y-729000I-15000J0D01*
G01*
X3110000Y-729000D02*
G75*
G02*
X3140000Y-729000I15000J0D01*
G01*
X3140000Y-971000D02*
G75*
G02*
X3110000Y-971000I-15000J0D01*
G01*
X3110000Y-971000D02*
G75*
G02*
X3140000Y-971000I15000J0D01*
G01*
X3159910Y-3591900D02*
G75*
G02*
X3129910Y-3591900I-15000J0D01*
G01*
X3129910Y-3591900D02*
G75*
G02*
X3159910Y-3591900I15000J0D01*
G01*
X3165000Y-5098000D02*
G75*
G02*
X3135000Y-5098000I-15000J0D01*
G01*
X3135000Y-5098000D02*
G75*
G02*
X3165000Y-5098000I15000J0D01*
G01*
X3190000Y-4749700D02*
G75*
G02*
X3160000Y-4749700I-15000J0D01*
G01*
X3160000Y-4749700D02*
G75*
G02*
X3190000Y-4749700I15000J0D01*
G01*
X3190000Y-5175000D02*
G75*
G02*
X3160000Y-5175000I-15000J0D01*
G01*
X3160000Y-5175000D02*
G75*
G02*
X3190000Y-5175000I15000J0D01*
G01*
X3207850Y-3885750D02*
G75*
G02*
X3177850Y-3885750I-15000J0D01*
G01*
X3177850Y-3885750D02*
G75*
G02*
X3207850Y-3885750I15000J0D01*
G01*
X3258640Y-3627580D02*
G75*
G02*
X3228640Y-3627580I-15000J0D01*
G01*
X3228640Y-3627580D02*
G75*
G02*
X3258640Y-3627580I15000J0D01*
G01*
X3264000Y-1823000D02*
G75*
G02*
X3234000Y-1823000I-15000J0D01*
G01*
X3234000Y-1823000D02*
G75*
G02*
X3264000Y-1823000I15000J0D01*
G01*
X3268430Y-1560750D02*
G75*
G02*
X3238430Y-1560750I-15000J0D01*
G01*
X3238430Y-1560750D02*
G75*
G02*
X3268430Y-1560750I15000J0D01*
G01*
X3273100Y-3794910D02*
G75*
G02*
X3243100Y-3794910I-15000J0D01*
G01*
X3243100Y-3794910D02*
G75*
G02*
X3273100Y-3794910I15000J0D01*
G01*
X3280570Y-2722560D02*
G75*
G02*
X3250570Y-2722560I-15000J0D01*
G01*
X3250570Y-2722560D02*
G75*
G02*
X3280570Y-2722560I15000J0D01*
G01*
X3285000Y-3271000D02*
G75*
G02*
X3255000Y-3271000I-15000J0D01*
G01*
X3255000Y-3271000D02*
G75*
G02*
X3285000Y-3271000I15000J0D01*
G01*
X3286000Y-5300000D02*
G75*
G02*
X3256000Y-5300000I-15000J0D01*
G01*
X3256000Y-5300000D02*
G75*
G02*
X3286000Y-5300000I15000J0D01*
G01*
X3289000Y-1185190D02*
G75*
G02*
X3259000Y-1185190I-15000J0D01*
G01*
X3259000Y-1185190D02*
G75*
G02*
X3289000Y-1185190I15000J0D01*
G01*
X3295000Y-3704000D02*
G75*
G02*
X3265000Y-3704000I-15000J0D01*
G01*
X3265000Y-3704000D02*
G75*
G02*
X3295000Y-3704000I15000J0D01*
G01*
X3300000Y-4161000D02*
G75*
G02*
X3270000Y-4161000I-15000J0D01*
G01*
X3270000Y-4161000D02*
G75*
G02*
X3300000Y-4161000I15000J0D01*
G01*
X3309840Y-3533370D02*
G75*
G02*
X3279840Y-3533370I-15000J0D01*
G01*
X3279840Y-3533370D02*
G75*
G02*
X3309840Y-3533370I15000J0D01*
G01*
X3332500Y-3100000D02*
G75*
G02*
X3302500Y-3100000I-15000J0D01*
G01*
X3302500Y-3100000D02*
G75*
G02*
X3332500Y-3100000I15000J0D01*
G01*
X3335000Y-3780000D02*
G75*
G02*
X3305000Y-3780000I-15000J0D01*
G01*
X3305000Y-3780000D02*
G75*
G02*
X3335000Y-3780000I15000J0D01*
G01*
X3336750Y-2846500D02*
G75*
G02*
X3306750Y-2846500I-15000J0D01*
G01*
X3306750Y-2846500D02*
G75*
G02*
X3336750Y-2846500I15000J0D01*
G01*
X3347190Y-452800D02*
G75*
G02*
X3317190Y-452800I-15000J0D01*
G01*
X3317190Y-452800D02*
G75*
G02*
X3347190Y-452800I15000J0D01*
G01*
X3385000Y-4290000D02*
G75*
G02*
X3355000Y-4290000I-15000J0D01*
G01*
X3355000Y-4290000D02*
G75*
G02*
X3385000Y-4290000I15000J0D01*
G01*
X3387740Y-979900D02*
G75*
G02*
X3357740Y-979900I-15000J0D01*
G01*
X3357740Y-979900D02*
G75*
G02*
X3387740Y-979900I15000J0D01*
G01*
X3436540Y-454580D02*
G75*
G02*
X3406540Y-454580I-15000J0D01*
G01*
X3406540Y-454580D02*
G75*
G02*
X3436540Y-454580I15000J0D01*
G01*
X3482370Y-4936010D02*
G75*
G02*
X3452370Y-4936010I-15000J0D01*
G01*
X3452370Y-4936010D02*
G75*
G02*
X3482370Y-4936010I15000J0D01*
G01*
X3488260Y-720900D02*
G75*
G02*
X3458260Y-720900I-15000J0D01*
G01*
X3458260Y-720900D02*
G75*
G02*
X3488260Y-720900I15000J0D01*
G01*
X3521000Y-3873000D02*
G75*
G02*
X3491000Y-3873000I-15000J0D01*
G01*
X3491000Y-3873000D02*
G75*
G02*
X3521000Y-3873000I15000J0D01*
G01*
X3533000Y-1900000D02*
G75*
G02*
X3503000Y-1900000I-15000J0D01*
G01*
X3503000Y-1900000D02*
G75*
G02*
X3533000Y-1900000I15000J0D01*
G01*
X3614980Y-3746040D02*
G75*
G02*
X3584980Y-3746040I-15000J0D01*
G01*
X3584980Y-3746040D02*
G75*
G02*
X3614980Y-3746040I15000J0D01*
G01*
X3685000Y-4590000D02*
G75*
G02*
X3655000Y-4590000I-15000J0D01*
G01*
X3655000Y-4590000D02*
G75*
G02*
X3685000Y-4590000I15000J0D01*
G01*
X3700460Y-260720D02*
G75*
G02*
X3670460Y-260720I-15000J0D01*
G01*
X3670460Y-260720D02*
G75*
G02*
X3700460Y-260720I15000J0D01*
G01*
X3727940Y-1477820D02*
G75*
G02*
X3697940Y-1477820I-15000J0D01*
G01*
X3697940Y-1477820D02*
G75*
G02*
X3727940Y-1477820I15000J0D01*
G01*
X3758000Y-4195000D02*
G75*
G02*
X3728000Y-4195000I-15000J0D01*
G01*
X3728000Y-4195000D02*
G75*
G02*
X3758000Y-4195000I15000J0D01*
G01*
X3759540Y-3159950D02*
G75*
G02*
X3729540Y-3159950I-15000J0D01*
G01*
X3729540Y-3159950D02*
G75*
G02*
X3759540Y-3159950I15000J0D01*
G01*
X3760000Y-4092500D02*
G75*
G02*
X3730000Y-4092500I-15000J0D01*
G01*
X3730000Y-4092500D02*
G75*
G02*
X3760000Y-4092500I15000J0D01*
G01*
X3807510Y-4322520D02*
G75*
G02*
X3777510Y-4322520I-15000J0D01*
G01*
X3777510Y-4322520D02*
G75*
G02*
X3807510Y-4322520I15000J0D01*
G01*
X3843510Y-2481000D02*
G75*
G02*
X3813510Y-2481000I-15000J0D01*
G01*
X3813510Y-2481000D02*
G75*
G02*
X3843510Y-2481000I15000J0D01*
G01*
X3865000Y-300000D02*
G75*
G02*
X3835000Y-300000I-15000J0D01*
G01*
X3835000Y-300000D02*
G75*
G02*
X3865000Y-300000I15000J0D01*
G01*
X3941960Y-577500D02*
G75*
G02*
X3911960Y-577500I-15000J0D01*
G01*
X3911960Y-577500D02*
G75*
G02*
X3941960Y-577500I15000J0D01*
G01*
X3965000Y-777000D02*
G75*
G02*
X3935000Y-777000I-15000J0D01*
G01*
X3935000Y-777000D02*
G75*
G02*
X3965000Y-777000I15000J0D01*
G01*
X3986140Y-2950630D02*
G75*
G02*
X3956140Y-2950630I-15000J0D01*
G01*
X3956140Y-2950630D02*
G75*
G02*
X3986140Y-2950630I15000J0D01*
G01*
X3997500Y-3100000D02*
G75*
G02*
X3967500Y-3100000I-15000J0D01*
G01*
X3967500Y-3100000D02*
G75*
G02*
X3997500Y-3100000I15000J0D01*
G01*
X4015000Y-4450000D02*
G75*
G02*
X3985000Y-4450000I-15000J0D01*
G01*
X3985000Y-4450000D02*
G75*
G02*
X4015000Y-4450000I15000J0D01*
G01*
X4045000Y-3485000D02*
G75*
G02*
X4015000Y-3485000I-15000J0D01*
G01*
X4015000Y-3485000D02*
G75*
G02*
X4045000Y-3485000I15000J0D01*
G01*
X4141000Y-4175000D02*
G75*
G02*
X4111000Y-4175000I-15000J0D01*
G01*
X4111000Y-4175000D02*
G75*
G02*
X4141000Y-4175000I15000J0D01*
G01*
X4213310Y-4716330D02*
G75*
G02*
X4183310Y-4716330I-15000J0D01*
G01*
X4183310Y-4716330D02*
G75*
G02*
X4213310Y-4716330I15000J0D01*
G01*
X4215960Y-4317790D02*
G75*
G02*
X4185960Y-4317790I-15000J0D01*
G01*
X4185960Y-4317790D02*
G75*
G02*
X4215960Y-4317790I15000J0D01*
G01*
X4290000Y-2930000D02*
G75*
G02*
X4260000Y-2930000I-15000J0D01*
G01*
X4260000Y-2930000D02*
G75*
G02*
X4290000Y-2930000I15000J0D01*
G01*
X4320000Y-4472500D02*
G75*
G02*
X4290000Y-4472500I-15000J0D01*
G01*
X4290000Y-4472500D02*
G75*
G02*
X4320000Y-4472500I15000J0D01*
G01*
X4350000Y-3870000D02*
G75*
G02*
X4320000Y-3870000I-15000J0D01*
G01*
X4320000Y-3870000D02*
G75*
G02*
X4350000Y-3870000I15000J0D01*
G01*
X4370460Y-2838040D02*
G75*
G02*
X4340460Y-2838040I-15000J0D01*
G01*
X4340460Y-2838040D02*
G75*
G02*
X4370460Y-2838040I15000J0D01*
G01*
X4371930Y-1905570D02*
G75*
G02*
X4341930Y-1905570I-15000J0D01*
G01*
X4341930Y-1905570D02*
G75*
G02*
X4371930Y-1905570I15000J0D01*
G01*
X4415000Y-300000D02*
G75*
G02*
X4385000Y-300000I-15000J0D01*
G01*
X4385000Y-300000D02*
G75*
G02*
X4415000Y-300000I15000J0D01*
G01*
X4415000Y-3400000D02*
G75*
G02*
X4385000Y-3400000I-15000J0D01*
G01*
X4385000Y-3400000D02*
G75*
G02*
X4415000Y-3400000I15000J0D01*
G01*
X4415000Y-4798130D02*
G75*
G02*
X4385000Y-4798130I-15000J0D01*
G01*
X4385000Y-4798130D02*
G75*
G02*
X4415000Y-4798130I15000J0D01*
G01*
X4470000Y-2138000D02*
G75*
G02*
X4440000Y-2138000I-15000J0D01*
G01*
X4440000Y-2138000D02*
G75*
G02*
X4470000Y-2138000I15000J0D01*
G01*
X4663060Y-2722560D02*
G75*
G02*
X4633060Y-2722560I-15000J0D01*
G01*
X4633060Y-2722560D02*
G75*
G02*
X4663060Y-2722560I15000J0D01*
G01*
X4665000Y-549500D02*
G75*
G02*
X4635000Y-549500I-15000J0D01*
G01*
X4635000Y-549500D02*
G75*
G02*
X4665000Y-549500I15000J0D01*
G01*
X4689320Y-1468680D02*
G75*
G02*
X4659320Y-1468680I-15000J0D01*
G01*
X4659320Y-1468680D02*
G75*
G02*
X4689320Y-1468680I15000J0D01*
G01*
X4715000Y-1575000D02*
G75*
G02*
X4685000Y-1575000I-15000J0D01*
G01*
X4685000Y-1575000D02*
G75*
G02*
X4715000Y-1575000I15000J0D01*
G01*
X4715000Y-3875000D02*
G75*
G02*
X4685000Y-3875000I-15000J0D01*
G01*
X4685000Y-3875000D02*
G75*
G02*
X4715000Y-3875000I15000J0D01*
G01*
X4796470Y-1407630D02*
G75*
G02*
X4766470Y-1407630I-15000J0D01*
G01*
X4766470Y-1407630D02*
G75*
G02*
X4796470Y-1407630I15000J0D01*
G01*
X4819000Y-775000D02*
G75*
G02*
X4789000Y-775000I-15000J0D01*
G01*
X4789000Y-775000D02*
G75*
G02*
X4819000Y-775000I15000J0D01*
G01*
X4867000Y-5125000D02*
G75*
G02*
X4837000Y-5125000I-15000J0D01*
G01*
X4837000Y-5125000D02*
G75*
G02*
X4867000Y-5125000I15000J0D01*
G01*
X4897450Y-367550D02*
G75*
G02*
X4867450Y-367550I-15000J0D01*
G01*
X4867450Y-367550D02*
G75*
G02*
X4897450Y-367550I15000J0D01*
G01*
X4961000Y-2075000D02*
G75*
G02*
X4931000Y-2075000I-15000J0D01*
G01*
X4931000Y-2075000D02*
G75*
G02*
X4961000Y-2075000I15000J0D01*
G01*
X5061000Y-775000D02*
G75*
G02*
X5031000Y-775000I-15000J0D01*
G01*
X5031000Y-775000D02*
G75*
G02*
X5061000Y-775000I15000J0D01*
G01*
X5065000Y-549500D02*
G75*
G02*
X5035000Y-549500I-15000J0D01*
G01*
X5035000Y-549500D02*
G75*
G02*
X5065000Y-549500I15000J0D01*
G01*
X5065910Y-4798840D02*
G75*
G02*
X5035910Y-4798840I-15000J0D01*
G01*
X5035910Y-4798840D02*
G75*
G02*
X5065910Y-4798840I15000J0D01*
G01*
X5094660Y-5062260D02*
G75*
G02*
X5064660Y-5062260I-15000J0D01*
G01*
X5064660Y-5062260D02*
G75*
G02*
X5094660Y-5062260I15000J0D01*
G01*
X5113000Y-5174000D02*
G75*
G02*
X5083000Y-5174000I-15000J0D01*
G01*
X5083000Y-5174000D02*
G75*
G02*
X5113000Y-5174000I15000J0D01*
G01*
X5129080Y-3695070D02*
G75*
G02*
X5099080Y-3695070I-15000J0D01*
G01*
X5099080Y-3695070D02*
G75*
G02*
X5129080Y-3695070I15000J0D01*
G01*
X5165000Y-549500D02*
G75*
G02*
X5135000Y-549500I-15000J0D01*
G01*
X5135000Y-549500D02*
G75*
G02*
X5165000Y-549500I15000J0D01*
G01*
X5195000Y-2005000D02*
G75*
G02*
X5165000Y-2005000I-15000J0D01*
G01*
X5165000Y-2005000D02*
G75*
G02*
X5195000Y-2005000I15000J0D01*
G01*
X5227620Y-4632230D02*
G75*
G02*
X5197620Y-4632230I-15000J0D01*
G01*
X5197620Y-4632230D02*
G75*
G02*
X5227620Y-4632230I15000J0D01*
G01*
X5260000Y-1685000D02*
G75*
G02*
X5230000Y-1685000I-15000J0D01*
G01*
X5230000Y-1685000D02*
G75*
G02*
X5260000Y-1685000I15000J0D01*
G01*
X5385000Y-2005000D02*
G75*
G02*
X5355000Y-2005000I-15000J0D01*
G01*
X5355000Y-2005000D02*
G75*
G02*
X5385000Y-2005000I15000J0D01*
G01*
X5440000Y-1780000D02*
G75*
G02*
X5410000Y-1780000I-15000J0D01*
G01*
X5410000Y-1780000D02*
G75*
G02*
X5440000Y-1780000I15000J0D01*
G01*
X5515000Y-429780D02*
G75*
G02*
X5485000Y-429780I-15000J0D01*
G01*
X5485000Y-429780D02*
G75*
G02*
X5515000Y-429780I15000J0D01*
G01*
X5602310Y-4804210D02*
G75*
G02*
X5572310Y-4804210I-15000J0D01*
G01*
X5572310Y-4804210D02*
G75*
G02*
X5602310Y-4804210I15000J0D01*
G01*
X5742000Y-775000D02*
G75*
G02*
X5712000Y-775000I-15000J0D01*
G01*
X5712000Y-775000D02*
G75*
G02*
X5742000Y-775000I15000J0D01*
G01*
X5791000Y-4757000D02*
G75*
G02*
X5761000Y-4757000I-15000J0D01*
G01*
X5761000Y-4757000D02*
G75*
G02*
X5791000Y-4757000I15000J0D01*
G01*
X5848610Y-627860D02*
G75*
G02*
X5818610Y-627860I-15000J0D01*
G01*
X5818610Y-627860D02*
G75*
G02*
X5848610Y-627860I15000J0D01*
G01*
X5855500Y-1196000D02*
G75*
G02*
X5825500Y-1196000I-15000J0D01*
G01*
X5825500Y-1196000D02*
G75*
G02*
X5855500Y-1196000I15000J0D01*
G01*
X5855500Y-2346000D02*
G75*
G02*
X5825500Y-2346000I-15000J0D01*
G01*
X5825500Y-2346000D02*
G75*
G02*
X5855500Y-2346000I15000J0D01*
G01*
X5888000Y-2425000D02*
G75*
G02*
X5858000Y-2425000I-15000J0D01*
G01*
X5858000Y-2425000D02*
G75*
G02*
X5888000Y-2425000I15000J0D01*
G01*
X5922170Y-2719060D02*
G75*
G02*
X5892170Y-2719060I-15000J0D01*
G01*
X5892170Y-2719060D02*
G75*
G02*
X5922170Y-2719060I15000J0D01*
G01*
X5992580Y-647590D02*
G75*
G02*
X5962580Y-647590I-15000J0D01*
G01*
X5962580Y-647590D02*
G75*
G02*
X5992580Y-647590I15000J0D01*
G01*
X6159320Y-859320D02*
G75*
G02*
X6129320Y-859320I-15000J0D01*
G01*
X6129320Y-859320D02*
G75*
G02*
X6159320Y-859320I15000J0D01*
G01*
X6191550Y-646340D02*
G75*
G02*
X6161550Y-646340I-15000J0D01*
G01*
X6161550Y-646340D02*
G75*
G02*
X6191550Y-646340I15000J0D01*
G01*
X6240000Y-900000D02*
G75*
G02*
X6210000Y-900000I-15000J0D01*
G01*
X6210000Y-900000D02*
G75*
G02*
X6240000Y-900000I15000J0D01*
G01*
X1485990Y-4401330D02*
X1485990Y-4441330D01*
X1465990Y-4421330D02*
X1505990Y-4421330D01*
X1829230Y-4058090D02*
X1829230Y-4098090D01*
X1809230Y-4078090D02*
X1849230Y-4078090D01*
X1898000Y-4795770D02*
X1898000Y-4835770D01*
X1878000Y-4815770D02*
X1918000Y-4815770D01*
X2099000Y-4630660D02*
X2099000Y-4670660D01*
X2079000Y-4650660D02*
X2119000Y-4650660D01*
X2193750Y-4024790D02*
X2193750Y-4064790D01*
X2173750Y-4044790D02*
X2213750Y-4044790D01*
X2200000Y-1278060D02*
X2200000Y-1318060D01*
X2180000Y-1298060D02*
X2220000Y-1298060D01*
X2783360Y-4138550D02*
X2783360Y-4178550D01*
X2763360Y-4158550D02*
X2803360Y-4158550D01*
X2809130Y-751310D02*
X2809130Y-791310D01*
X2789130Y-771310D02*
X2829130Y-771310D01*
X3154120Y-1084960D02*
X3154120Y-1124960D01*
X3134120Y-1104960D02*
X3174120Y-1104960D01*
X3308510Y-1268750D02*
X3308510Y-1308750D01*
X3288510Y-1288750D02*
X3328510Y-1288750D01*
X3581180Y-1642150D02*
X3581180Y-1682150D01*
X3561180Y-1662150D02*
X3601180Y-1662150D01*
X3728420Y-2997810D02*
X3728420Y-3037810D01*
X3708420Y-3017810D02*
X3748420Y-3017810D01*
X3745000Y-3720780D02*
X3745000Y-3760780D01*
X3725000Y-3740780D02*
X3765000Y-3740780D01*
X4024000Y-4807000D02*
X4024000Y-4847000D01*
X4004000Y-4827000D02*
X4044000Y-4827000D01*
X4030000Y-3655000D02*
X4030000Y-3695000D01*
X4010000Y-3675000D02*
X4050000Y-3675000D01*
X4089580Y-4240810D02*
X4089580Y-4280810D01*
X4069580Y-4260810D02*
X4109580Y-4260810D01*
X4107030Y-3341090D02*
X4107030Y-3381090D01*
X4087030Y-3361090D02*
X4127030Y-3361090D01*
X4145000Y-3850000D02*
X4145000Y-3890000D01*
X4125000Y-3870000D02*
X4165000Y-3870000D01*
X4147750Y-3764320D02*
X4147750Y-3804320D01*
X4127750Y-3784320D02*
X4167750Y-3784320D01*
X4305000Y-4117500D02*
X4305000Y-4157500D01*
X4285000Y-4137500D02*
X4325000Y-4137500D01*
X4323880Y-1642150D02*
X4323880Y-1682150D01*
X4303880Y-1662150D02*
X4343880Y-1662150D01*
X4464000Y-3544770D02*
X4464000Y-3584770D01*
X4444000Y-3564770D02*
X4484000Y-3564770D01*
X4482100Y-2967440D02*
X4482100Y-3007440D01*
X4462100Y-2987440D02*
X4502100Y-2987440D01*
X5556170Y-2580000D02*
X5556170Y-2620000D01*
X5536170Y-2600000D02*
X5576170Y-2600000D01*
X5755000Y-1430000D02*
X5755000Y-1470000D01*
X5735000Y-1450000D02*
X5775000Y-1450000D01*
X5840500Y-1430000D02*
X5840500Y-1470000D01*
X5820500Y-1450000D02*
X5860500Y-1450000D01*
X5951530Y-4753110D02*
X5951530Y-4793110D01*
X5931530Y-4773110D02*
X5971530Y-4773110D01*
X2589213Y-4743713D02*
X2589213Y-4701287D01*
X2546787Y-4701287D01*
X2546787Y-4743713D01*
X2589213Y-4743713D01*
X2538000Y-4667500D02*
X2538000Y-4777500D01*
X2598000Y-4777500D02*
G75*
G02*
X2538000Y-4777500I-30000J0D01*
G01*
X2598000Y-4777500D02*
X2598000Y-4667500D01*
X2598000Y-4667500D02*
G75*
G03*
X2538000Y-4667500I-30000J0D01*
G01*
X2589213Y-5161713D02*
X2589213Y-5119287D01*
X2546787Y-5119287D01*
X2546787Y-5161713D01*
X2589213Y-5161713D01*
X2538000Y-5110500D02*
X2538000Y-5170500D01*
X2598000Y-5170500D02*
G75*
G02*
X2538000Y-5170500I-30000J0D01*
G01*
X2598000Y-5170500D02*
X2598000Y-5110500D01*
X2598000Y-5110500D02*
G75*
G03*
X2538000Y-5110500I-30000J0D01*
G01*
X3453213Y-4743713D02*
X3453213Y-4701287D01*
X3410787Y-4701287D01*
X3410787Y-4743713D01*
X3453213Y-4743713D01*
X3402000Y-4667500D02*
X3402000Y-4777500D01*
X3462000Y-4777500D02*
G75*
G02*
X3402000Y-4777500I-30000J0D01*
G01*
X3462000Y-4777500D02*
X3462000Y-4667500D01*
X3462000Y-4667500D02*
G75*
G03*
X3402000Y-4667500I-30000J0D01*
G01*
X3453213Y-5161713D02*
X3453213Y-5119287D01*
X3410787Y-5119287D01*
X3410787Y-5161713D01*
X3453213Y-5161713D01*
X3402000Y-5110500D02*
X3402000Y-5170500D01*
X3462000Y-5170500D02*
G75*
G02*
X3402000Y-5170500I-30000J0D01*
G01*
X3462000Y-5170500D02*
X3462000Y-5110500D01*
X3462000Y-5110500D02*
G75*
G03*
X3402000Y-5110500I-30000J0D01*
G01*
D11*
X255777Y-5816484D02*
X255777Y-5616484D01*
X255777Y-5616484D02*
X303396Y-5616484D01*
X303396Y-5616484D02*
X331967Y-5626008D01*
X331967Y-5626008D02*
X351015Y-5645055D01*
X351015Y-5645055D02*
X360539Y-5664103D01*
X360539Y-5664103D02*
X370062Y-5702198D01*
X370062Y-5702198D02*
X370062Y-5730769D01*
X370062Y-5730769D02*
X360539Y-5768865D01*
X360539Y-5768865D02*
X351015Y-5787912D01*
X351015Y-5787912D02*
X331967Y-5806960D01*
X331967Y-5806960D02*
X303396Y-5816484D01*
X303396Y-5816484D02*
X255777Y-5816484D01*
X455777Y-5816484D02*
X455777Y-5683150D01*
X455777Y-5721246D02*
X465301Y-5702198D01*
X465301Y-5702198D02*
X474824Y-5692674D01*
X474824Y-5692674D02*
X493872Y-5683150D01*
X493872Y-5683150D02*
X512920Y-5683150D01*
X579586Y-5816484D02*
X579586Y-5683150D01*
X579586Y-5616484D02*
X570063Y-5626008D01*
X570063Y-5626008D02*
X579586Y-5635531D01*
X579586Y-5635531D02*
X589110Y-5626008D01*
X589110Y-5626008D02*
X579586Y-5616484D01*
X579586Y-5616484D02*
X579586Y-5635531D01*
X703396Y-5816484D02*
X684348Y-5806960D01*
X684348Y-5806960D02*
X674824Y-5787912D01*
X674824Y-5787912D02*
X674824Y-5616484D01*
X808158Y-5816484D02*
X789110Y-5806960D01*
X789110Y-5806960D02*
X779586Y-5787912D01*
X779586Y-5787912D02*
X779586Y-5616484D01*
X1036729Y-5816484D02*
X1036729Y-5616484D01*
X1036729Y-5616484D02*
X1103396Y-5759341D01*
X1103396Y-5759341D02*
X1170063Y-5616484D01*
X1170063Y-5616484D02*
X1170063Y-5816484D01*
X1351015Y-5816484D02*
X1351015Y-5711722D01*
X1351015Y-5711722D02*
X1341491Y-5692674D01*
X1341491Y-5692674D02*
X1322444Y-5683150D01*
X1322444Y-5683150D02*
X1284348Y-5683150D01*
X1284348Y-5683150D02*
X1265301Y-5692674D01*
X1351015Y-5806960D02*
X1331967Y-5816484D01*
X1331967Y-5816484D02*
X1284348Y-5816484D01*
X1284348Y-5816484D02*
X1265301Y-5806960D01*
X1265301Y-5806960D02*
X1255777Y-5787912D01*
X1255777Y-5787912D02*
X1255777Y-5768865D01*
X1255777Y-5768865D02*
X1265301Y-5749817D01*
X1265301Y-5749817D02*
X1284348Y-5740293D01*
X1284348Y-5740293D02*
X1331967Y-5740293D01*
X1331967Y-5740293D02*
X1351015Y-5730769D01*
X1446253Y-5683150D02*
X1446253Y-5883150D01*
X1446253Y-5692674D02*
X1465301Y-5683150D01*
X1465301Y-5683150D02*
X1503396Y-5683150D01*
X1503396Y-5683150D02*
X1522443Y-5692674D01*
X1522443Y-5692674D02*
X1531967Y-5702198D01*
X1531967Y-5702198D02*
X1541491Y-5721246D01*
X1541491Y-5721246D02*
X1541491Y-5778388D01*
X1541491Y-5778388D02*
X1531967Y-5797436D01*
X1531967Y-5797436D02*
X1522443Y-5806960D01*
X1522443Y-5806960D02*
X1503396Y-5816484D01*
X1503396Y-5816484D02*
X1465301Y-5816484D01*
X1465301Y-5816484D02*
X1446253Y-5806960D01*
X1627205Y-5797436D02*
X1636729Y-5806960D01*
X1636729Y-5806960D02*
X1627205Y-5816484D01*
X1627205Y-5816484D02*
X1617682Y-5806960D01*
X1617682Y-5806960D02*
X1627205Y-5797436D01*
X1627205Y-5797436D02*
X1627205Y-5816484D01*
X1627205Y-5692674D02*
X1636729Y-5702198D01*
X1636729Y-5702198D02*
X1627205Y-5711722D01*
X1627205Y-5711722D02*
X1617682Y-5702198D01*
X1617682Y-5702198D02*
X1627205Y-5692674D01*
X1627205Y-5692674D02*
X1627205Y-5711722D01*
D10*
X-25000Y-6135000D02*
X-5000Y-6155000D01*
X-5000Y-6135000D02*
X-25000Y-6155000D01*
D11*
X293872Y-6036484D02*
X312920Y-6036484D01*
X312920Y-6036484D02*
X331967Y-6046008D01*
X331967Y-6046008D02*
X341491Y-6055531D01*
X341491Y-6055531D02*
X351015Y-6074579D01*
X351015Y-6074579D02*
X360539Y-6112674D01*
X360539Y-6112674D02*
X360539Y-6160293D01*
X360539Y-6160293D02*
X351015Y-6198388D01*
X351015Y-6198388D02*
X341491Y-6217436D01*
X341491Y-6217436D02*
X331967Y-6226960D01*
X331967Y-6226960D02*
X312920Y-6236484D01*
X312920Y-6236484D02*
X293872Y-6236484D01*
X293872Y-6236484D02*
X274824Y-6226960D01*
X274824Y-6226960D02*
X265301Y-6217436D01*
X265301Y-6217436D02*
X255777Y-6198388D01*
X255777Y-6198388D02*
X246253Y-6160293D01*
X246253Y-6160293D02*
X246253Y-6112674D01*
X246253Y-6112674D02*
X255777Y-6074579D01*
X255777Y-6074579D02*
X265301Y-6055531D01*
X265301Y-6055531D02*
X274824Y-6046008D01*
X274824Y-6046008D02*
X293872Y-6036484D01*
X446253Y-6217436D02*
X455777Y-6226960D01*
X455777Y-6226960D02*
X446253Y-6236484D01*
X446253Y-6236484D02*
X436729Y-6226960D01*
X436729Y-6226960D02*
X446253Y-6217436D01*
X446253Y-6217436D02*
X446253Y-6236484D01*
X531967Y-6055531D02*
X541491Y-6046008D01*
X541491Y-6046008D02*
X560539Y-6036484D01*
X560539Y-6036484D02*
X608158Y-6036484D01*
X608158Y-6036484D02*
X627205Y-6046008D01*
X627205Y-6046008D02*
X636729Y-6055531D01*
X636729Y-6055531D02*
X646253Y-6074579D01*
X646253Y-6074579D02*
X646253Y-6093627D01*
X646253Y-6093627D02*
X636729Y-6122198D01*
X636729Y-6122198D02*
X522443Y-6236484D01*
X522443Y-6236484D02*
X646253Y-6236484D01*
X770062Y-6036484D02*
X789110Y-6036484D01*
X789110Y-6036484D02*
X808158Y-6046008D01*
X808158Y-6046008D02*
X817682Y-6055531D01*
X817682Y-6055531D02*
X827205Y-6074579D01*
X827205Y-6074579D02*
X836729Y-6112674D01*
X836729Y-6112674D02*
X836729Y-6160293D01*
X836729Y-6160293D02*
X827205Y-6198388D01*
X827205Y-6198388D02*
X817682Y-6217436D01*
X817682Y-6217436D02*
X808158Y-6226960D01*
X808158Y-6226960D02*
X789110Y-6236484D01*
X789110Y-6236484D02*
X770062Y-6236484D01*
X770062Y-6236484D02*
X751015Y-6226960D01*
X751015Y-6226960D02*
X741491Y-6217436D01*
X741491Y-6217436D02*
X731967Y-6198388D01*
X731967Y-6198388D02*
X722443Y-6160293D01*
X722443Y-6160293D02*
X722443Y-6112674D01*
X722443Y-6112674D02*
X731967Y-6074579D01*
X731967Y-6074579D02*
X741491Y-6055531D01*
X741491Y-6055531D02*
X751015Y-6046008D01*
X751015Y-6046008D02*
X770062Y-6036484D01*
X960539Y-6036484D02*
X979586Y-6036484D01*
X979586Y-6036484D02*
X998634Y-6046008D01*
X998634Y-6046008D02*
X1008158Y-6055531D01*
X1008158Y-6055531D02*
X1017682Y-6074579D01*
X1017682Y-6074579D02*
X1027205Y-6112674D01*
X1027205Y-6112674D02*
X1027205Y-6160293D01*
X1027205Y-6160293D02*
X1017682Y-6198388D01*
X1017682Y-6198388D02*
X1008158Y-6217436D01*
X1008158Y-6217436D02*
X998634Y-6226960D01*
X998634Y-6226960D02*
X979586Y-6236484D01*
X979586Y-6236484D02*
X960539Y-6236484D01*
X960539Y-6236484D02*
X941491Y-6226960D01*
X941491Y-6226960D02*
X931967Y-6217436D01*
X931967Y-6217436D02*
X922443Y-6198388D01*
X922443Y-6198388D02*
X912920Y-6160293D01*
X912920Y-6160293D02*
X912920Y-6112674D01*
X912920Y-6112674D02*
X922443Y-6074579D01*
X922443Y-6074579D02*
X931967Y-6055531D01*
X931967Y-6055531D02*
X941491Y-6046008D01*
X941491Y-6046008D02*
X960539Y-6036484D01*
X1112920Y-6236484D02*
X1112920Y-6103150D01*
X1112920Y-6122198D02*
X1122444Y-6112674D01*
X1122444Y-6112674D02*
X1141491Y-6103150D01*
X1141491Y-6103150D02*
X1170063Y-6103150D01*
X1170063Y-6103150D02*
X1189110Y-6112674D01*
X1189110Y-6112674D02*
X1198634Y-6131722D01*
X1198634Y-6131722D02*
X1198634Y-6236484D01*
X1198634Y-6131722D02*
X1208158Y-6112674D01*
X1208158Y-6112674D02*
X1227205Y-6103150D01*
X1227205Y-6103150D02*
X1255777Y-6103150D01*
X1255777Y-6103150D02*
X1274825Y-6112674D01*
X1274825Y-6112674D02*
X1284348Y-6131722D01*
X1284348Y-6131722D02*
X1284348Y-6236484D01*
X1379586Y-6236484D02*
X1379586Y-6103150D01*
X1379586Y-6122198D02*
X1389110Y-6112674D01*
X1389110Y-6112674D02*
X1408158Y-6103150D01*
X1408158Y-6103150D02*
X1436729Y-6103150D01*
X1436729Y-6103150D02*
X1455777Y-6112674D01*
X1455777Y-6112674D02*
X1465301Y-6131722D01*
X1465301Y-6131722D02*
X1465301Y-6236484D01*
X1465301Y-6131722D02*
X1474824Y-6112674D01*
X1474824Y-6112674D02*
X1493872Y-6103150D01*
X1493872Y-6103150D02*
X1522443Y-6103150D01*
X1522443Y-6103150D02*
X1541491Y-6112674D01*
X1541491Y-6112674D02*
X1551015Y-6131722D01*
X1551015Y-6131722D02*
X1551015Y-6236484D01*
X1941491Y-6026960D02*
X1770063Y-6284103D01*
X2198634Y-6036484D02*
X2217682Y-6036484D01*
X2217682Y-6036484D02*
X2236729Y-6046008D01*
X2236729Y-6046008D02*
X2246253Y-6055531D01*
X2246253Y-6055531D02*
X2255777Y-6074579D01*
X2255777Y-6074579D02*
X2265301Y-6112674D01*
X2265301Y-6112674D02*
X2265301Y-6160293D01*
X2265301Y-6160293D02*
X2255777Y-6198388D01*
X2255777Y-6198388D02*
X2246253Y-6217436D01*
X2246253Y-6217436D02*
X2236729Y-6226960D01*
X2236729Y-6226960D02*
X2217682Y-6236484D01*
X2217682Y-6236484D02*
X2198634Y-6236484D01*
X2198634Y-6236484D02*
X2179587Y-6226960D01*
X2179587Y-6226960D02*
X2170063Y-6217436D01*
X2170063Y-6217436D02*
X2160539Y-6198388D01*
X2160539Y-6198388D02*
X2151015Y-6160293D01*
X2151015Y-6160293D02*
X2151015Y-6112674D01*
X2151015Y-6112674D02*
X2160539Y-6074579D01*
X2160539Y-6074579D02*
X2170063Y-6055531D01*
X2170063Y-6055531D02*
X2179587Y-6046008D01*
X2179587Y-6046008D02*
X2198634Y-6036484D01*
X2351015Y-6217436D02*
X2360539Y-6226960D01*
X2360539Y-6226960D02*
X2351015Y-6236484D01*
X2351015Y-6236484D02*
X2341491Y-6226960D01*
X2341491Y-6226960D02*
X2351015Y-6217436D01*
X2351015Y-6217436D02*
X2351015Y-6236484D01*
X2484348Y-6036484D02*
X2503396Y-6036484D01*
X2503396Y-6036484D02*
X2522444Y-6046008D01*
X2522444Y-6046008D02*
X2531968Y-6055531D01*
X2531968Y-6055531D02*
X2541491Y-6074579D01*
X2541491Y-6074579D02*
X2551015Y-6112674D01*
X2551015Y-6112674D02*
X2551015Y-6160293D01*
X2551015Y-6160293D02*
X2541491Y-6198388D01*
X2541491Y-6198388D02*
X2531968Y-6217436D01*
X2531968Y-6217436D02*
X2522444Y-6226960D01*
X2522444Y-6226960D02*
X2503396Y-6236484D01*
X2503396Y-6236484D02*
X2484348Y-6236484D01*
X2484348Y-6236484D02*
X2465301Y-6226960D01*
X2465301Y-6226960D02*
X2455777Y-6217436D01*
X2455777Y-6217436D02*
X2446253Y-6198388D01*
X2446253Y-6198388D02*
X2436729Y-6160293D01*
X2436729Y-6160293D02*
X2436729Y-6112674D01*
X2436729Y-6112674D02*
X2446253Y-6074579D01*
X2446253Y-6074579D02*
X2455777Y-6055531D01*
X2455777Y-6055531D02*
X2465301Y-6046008D01*
X2465301Y-6046008D02*
X2484348Y-6036484D01*
X2674825Y-6036484D02*
X2693872Y-6036484D01*
X2693872Y-6036484D02*
X2712920Y-6046008D01*
X2712920Y-6046008D02*
X2722444Y-6055531D01*
X2722444Y-6055531D02*
X2731968Y-6074579D01*
X2731968Y-6074579D02*
X2741491Y-6112674D01*
X2741491Y-6112674D02*
X2741491Y-6160293D01*
X2741491Y-6160293D02*
X2731968Y-6198388D01*
X2731968Y-6198388D02*
X2722444Y-6217436D01*
X2722444Y-6217436D02*
X2712920Y-6226960D01*
X2712920Y-6226960D02*
X2693872Y-6236484D01*
X2693872Y-6236484D02*
X2674825Y-6236484D01*
X2674825Y-6236484D02*
X2655777Y-6226960D01*
X2655777Y-6226960D02*
X2646253Y-6217436D01*
X2646253Y-6217436D02*
X2636729Y-6198388D01*
X2636729Y-6198388D02*
X2627206Y-6160293D01*
X2627206Y-6160293D02*
X2627206Y-6112674D01*
X2627206Y-6112674D02*
X2636729Y-6074579D01*
X2636729Y-6074579D02*
X2646253Y-6055531D01*
X2646253Y-6055531D02*
X2655777Y-6046008D01*
X2655777Y-6046008D02*
X2674825Y-6036484D01*
X2808158Y-6036484D02*
X2941491Y-6036484D01*
X2941491Y-6036484D02*
X2855777Y-6236484D01*
X3027206Y-6236484D02*
X3065301Y-6236484D01*
X3065301Y-6236484D02*
X3084348Y-6226960D01*
X3084348Y-6226960D02*
X3093872Y-6217436D01*
X3093872Y-6217436D02*
X3112920Y-6188865D01*
X3112920Y-6188865D02*
X3122444Y-6150769D01*
X3122444Y-6150769D02*
X3122444Y-6074579D01*
X3122444Y-6074579D02*
X3112920Y-6055531D01*
X3112920Y-6055531D02*
X3103396Y-6046008D01*
X3103396Y-6046008D02*
X3084348Y-6036484D01*
X3084348Y-6036484D02*
X3046253Y-6036484D01*
X3046253Y-6036484D02*
X3027206Y-6046008D01*
X3027206Y-6046008D02*
X3017682Y-6055531D01*
X3017682Y-6055531D02*
X3008158Y-6074579D01*
X3008158Y-6074579D02*
X3008158Y-6122198D01*
X3008158Y-6122198D02*
X3017682Y-6141246D01*
X3017682Y-6141246D02*
X3027206Y-6150769D01*
X3027206Y-6150769D02*
X3046253Y-6160293D01*
X3046253Y-6160293D02*
X3084348Y-6160293D01*
X3084348Y-6160293D02*
X3103396Y-6150769D01*
X3103396Y-6150769D02*
X3112920Y-6141246D01*
X3112920Y-6141246D02*
X3122444Y-6122198D01*
X3198634Y-6036484D02*
X3198634Y-6074579D01*
X3274825Y-6036484D02*
X3274825Y-6074579D01*
X3570063Y-6312674D02*
X3560539Y-6303150D01*
X3560539Y-6303150D02*
X3541491Y-6274579D01*
X3541491Y-6274579D02*
X3531968Y-6255531D01*
X3531968Y-6255531D02*
X3522444Y-6226960D01*
X3522444Y-6226960D02*
X3512920Y-6179341D01*
X3512920Y-6179341D02*
X3512920Y-6141246D01*
X3512920Y-6141246D02*
X3522444Y-6093627D01*
X3522444Y-6093627D02*
X3531968Y-6065055D01*
X3531968Y-6065055D02*
X3541491Y-6046008D01*
X3541491Y-6046008D02*
X3560539Y-6017436D01*
X3560539Y-6017436D02*
X3570063Y-6007912D01*
X3751015Y-6236484D02*
X3636729Y-6236484D01*
X3693872Y-6236484D02*
X3693872Y-6036484D01*
X3693872Y-6036484D02*
X3674825Y-6065055D01*
X3674825Y-6065055D02*
X3655777Y-6084103D01*
X3655777Y-6084103D02*
X3636729Y-6093627D01*
X3922444Y-6103150D02*
X3922444Y-6236484D01*
X3874825Y-6026960D02*
X3827206Y-6169817D01*
X3827206Y-6169817D02*
X3951015Y-6169817D01*
X4179587Y-6236484D02*
X4179587Y-6036484D01*
X4265301Y-6236484D02*
X4265301Y-6131722D01*
X4265301Y-6131722D02*
X4255777Y-6112674D01*
X4255777Y-6112674D02*
X4236730Y-6103150D01*
X4236730Y-6103150D02*
X4208158Y-6103150D01*
X4208158Y-6103150D02*
X4189110Y-6112674D01*
X4189110Y-6112674D02*
X4179587Y-6122198D01*
X4389111Y-6236484D02*
X4370063Y-6226960D01*
X4370063Y-6226960D02*
X4360539Y-6217436D01*
X4360539Y-6217436D02*
X4351015Y-6198388D01*
X4351015Y-6198388D02*
X4351015Y-6141246D01*
X4351015Y-6141246D02*
X4360539Y-6122198D01*
X4360539Y-6122198D02*
X4370063Y-6112674D01*
X4370063Y-6112674D02*
X4389111Y-6103150D01*
X4389111Y-6103150D02*
X4417682Y-6103150D01*
X4417682Y-6103150D02*
X4436730Y-6112674D01*
X4436730Y-6112674D02*
X4446253Y-6122198D01*
X4446253Y-6122198D02*
X4455777Y-6141246D01*
X4455777Y-6141246D02*
X4455777Y-6198388D01*
X4455777Y-6198388D02*
X4446253Y-6217436D01*
X4446253Y-6217436D02*
X4436730Y-6226960D01*
X4436730Y-6226960D02*
X4417682Y-6236484D01*
X4417682Y-6236484D02*
X4389111Y-6236484D01*
X4570063Y-6236484D02*
X4551015Y-6226960D01*
X4551015Y-6226960D02*
X4541492Y-6207912D01*
X4541492Y-6207912D02*
X4541492Y-6036484D01*
X4722444Y-6226960D02*
X4703396Y-6236484D01*
X4703396Y-6236484D02*
X4665301Y-6236484D01*
X4665301Y-6236484D02*
X4646253Y-6226960D01*
X4646253Y-6226960D02*
X4636730Y-6207912D01*
X4636730Y-6207912D02*
X4636730Y-6131722D01*
X4636730Y-6131722D02*
X4646253Y-6112674D01*
X4646253Y-6112674D02*
X4665301Y-6103150D01*
X4665301Y-6103150D02*
X4703396Y-6103150D01*
X4703396Y-6103150D02*
X4722444Y-6112674D01*
X4722444Y-6112674D02*
X4731968Y-6131722D01*
X4731968Y-6131722D02*
X4731968Y-6150769D01*
X4731968Y-6150769D02*
X4636730Y-6169817D01*
X4808158Y-6226960D02*
X4827206Y-6236484D01*
X4827206Y-6236484D02*
X4865301Y-6236484D01*
X4865301Y-6236484D02*
X4884349Y-6226960D01*
X4884349Y-6226960D02*
X4893873Y-6207912D01*
X4893873Y-6207912D02*
X4893873Y-6198388D01*
X4893873Y-6198388D02*
X4884349Y-6179341D01*
X4884349Y-6179341D02*
X4865301Y-6169817D01*
X4865301Y-6169817D02*
X4836730Y-6169817D01*
X4836730Y-6169817D02*
X4817682Y-6160293D01*
X4817682Y-6160293D02*
X4808158Y-6141246D01*
X4808158Y-6141246D02*
X4808158Y-6131722D01*
X4808158Y-6131722D02*
X4817682Y-6112674D01*
X4817682Y-6112674D02*
X4836730Y-6103150D01*
X4836730Y-6103150D02*
X4865301Y-6103150D01*
X4865301Y-6103150D02*
X4884349Y-6112674D01*
X4960539Y-6312674D02*
X4970063Y-6303150D01*
X4970063Y-6303150D02*
X4989111Y-6274579D01*
X4989111Y-6274579D02*
X4998634Y-6255531D01*
X4998634Y-6255531D02*
X5008158Y-6226960D01*
X5008158Y-6226960D02*
X5017682Y-6179341D01*
X5017682Y-6179341D02*
X5017682Y-6141246D01*
X5017682Y-6141246D02*
X5008158Y-6093627D01*
X5008158Y-6093627D02*
X4998634Y-6065055D01*
X4998634Y-6065055D02*
X4989111Y-6046008D01*
X4989111Y-6046008D02*
X4970063Y-6017436D01*
X4970063Y-6017436D02*
X4960539Y-6007912D01*
D10*
X-5000Y-6409000D02*
G75*
G02*
X-35000Y-6409000I-15000J0D01*
G01*
X-35000Y-6409000D02*
G75*
G02*
X-5000Y-6409000I15000J0D01*
G01*
D11*
X293872Y-6300484D02*
X312920Y-6300484D01*
X312920Y-6300484D02*
X331967Y-6310008D01*
X331967Y-6310008D02*
X341491Y-6319531D01*
X341491Y-6319531D02*
X351015Y-6338579D01*
X351015Y-6338579D02*
X360539Y-6376674D01*
X360539Y-6376674D02*
X360539Y-6424293D01*
X360539Y-6424293D02*
X351015Y-6462388D01*
X351015Y-6462388D02*
X341491Y-6481436D01*
X341491Y-6481436D02*
X331967Y-6490960D01*
X331967Y-6490960D02*
X312920Y-6500484D01*
X312920Y-6500484D02*
X293872Y-6500484D01*
X293872Y-6500484D02*
X274824Y-6490960D01*
X274824Y-6490960D02*
X265301Y-6481436D01*
X265301Y-6481436D02*
X255777Y-6462388D01*
X255777Y-6462388D02*
X246253Y-6424293D01*
X246253Y-6424293D02*
X246253Y-6376674D01*
X246253Y-6376674D02*
X255777Y-6338579D01*
X255777Y-6338579D02*
X265301Y-6319531D01*
X265301Y-6319531D02*
X274824Y-6310008D01*
X274824Y-6310008D02*
X293872Y-6300484D01*
X446253Y-6481436D02*
X455777Y-6490960D01*
X455777Y-6490960D02*
X446253Y-6500484D01*
X446253Y-6500484D02*
X436729Y-6490960D01*
X436729Y-6490960D02*
X446253Y-6481436D01*
X446253Y-6481436D02*
X446253Y-6500484D01*
X522443Y-6300484D02*
X646253Y-6300484D01*
X646253Y-6300484D02*
X579586Y-6376674D01*
X579586Y-6376674D02*
X608158Y-6376674D01*
X608158Y-6376674D02*
X627205Y-6386198D01*
X627205Y-6386198D02*
X636729Y-6395722D01*
X636729Y-6395722D02*
X646253Y-6414769D01*
X646253Y-6414769D02*
X646253Y-6462388D01*
X646253Y-6462388D02*
X636729Y-6481436D01*
X636729Y-6481436D02*
X627205Y-6490960D01*
X627205Y-6490960D02*
X608158Y-6500484D01*
X608158Y-6500484D02*
X551015Y-6500484D01*
X551015Y-6500484D02*
X531967Y-6490960D01*
X531967Y-6490960D02*
X522443Y-6481436D01*
X770062Y-6300484D02*
X789110Y-6300484D01*
X789110Y-6300484D02*
X808158Y-6310008D01*
X808158Y-6310008D02*
X817682Y-6319531D01*
X817682Y-6319531D02*
X827205Y-6338579D01*
X827205Y-6338579D02*
X836729Y-6376674D01*
X836729Y-6376674D02*
X836729Y-6424293D01*
X836729Y-6424293D02*
X827205Y-6462388D01*
X827205Y-6462388D02*
X817682Y-6481436D01*
X817682Y-6481436D02*
X808158Y-6490960D01*
X808158Y-6490960D02*
X789110Y-6500484D01*
X789110Y-6500484D02*
X770062Y-6500484D01*
X770062Y-6500484D02*
X751015Y-6490960D01*
X751015Y-6490960D02*
X741491Y-6481436D01*
X741491Y-6481436D02*
X731967Y-6462388D01*
X731967Y-6462388D02*
X722443Y-6424293D01*
X722443Y-6424293D02*
X722443Y-6376674D01*
X722443Y-6376674D02*
X731967Y-6338579D01*
X731967Y-6338579D02*
X741491Y-6319531D01*
X741491Y-6319531D02*
X751015Y-6310008D01*
X751015Y-6310008D02*
X770062Y-6300484D01*
X960539Y-6300484D02*
X979586Y-6300484D01*
X979586Y-6300484D02*
X998634Y-6310008D01*
X998634Y-6310008D02*
X1008158Y-6319531D01*
X1008158Y-6319531D02*
X1017682Y-6338579D01*
X1017682Y-6338579D02*
X1027205Y-6376674D01*
X1027205Y-6376674D02*
X1027205Y-6424293D01*
X1027205Y-6424293D02*
X1017682Y-6462388D01*
X1017682Y-6462388D02*
X1008158Y-6481436D01*
X1008158Y-6481436D02*
X998634Y-6490960D01*
X998634Y-6490960D02*
X979586Y-6500484D01*
X979586Y-6500484D02*
X960539Y-6500484D01*
X960539Y-6500484D02*
X941491Y-6490960D01*
X941491Y-6490960D02*
X931967Y-6481436D01*
X931967Y-6481436D02*
X922443Y-6462388D01*
X922443Y-6462388D02*
X912920Y-6424293D01*
X912920Y-6424293D02*
X912920Y-6376674D01*
X912920Y-6376674D02*
X922443Y-6338579D01*
X922443Y-6338579D02*
X931967Y-6319531D01*
X931967Y-6319531D02*
X941491Y-6310008D01*
X941491Y-6310008D02*
X960539Y-6300484D01*
X1112920Y-6500484D02*
X1112920Y-6367150D01*
X1112920Y-6386198D02*
X1122444Y-6376674D01*
X1122444Y-6376674D02*
X1141491Y-6367150D01*
X1141491Y-6367150D02*
X1170063Y-6367150D01*
X1170063Y-6367150D02*
X1189110Y-6376674D01*
X1189110Y-6376674D02*
X1198634Y-6395722D01*
X1198634Y-6395722D02*
X1198634Y-6500484D01*
X1198634Y-6395722D02*
X1208158Y-6376674D01*
X1208158Y-6376674D02*
X1227205Y-6367150D01*
X1227205Y-6367150D02*
X1255777Y-6367150D01*
X1255777Y-6367150D02*
X1274825Y-6376674D01*
X1274825Y-6376674D02*
X1284348Y-6395722D01*
X1284348Y-6395722D02*
X1284348Y-6500484D01*
X1379586Y-6500484D02*
X1379586Y-6367150D01*
X1379586Y-6386198D02*
X1389110Y-6376674D01*
X1389110Y-6376674D02*
X1408158Y-6367150D01*
X1408158Y-6367150D02*
X1436729Y-6367150D01*
X1436729Y-6367150D02*
X1455777Y-6376674D01*
X1455777Y-6376674D02*
X1465301Y-6395722D01*
X1465301Y-6395722D02*
X1465301Y-6500484D01*
X1465301Y-6395722D02*
X1474824Y-6376674D01*
X1474824Y-6376674D02*
X1493872Y-6367150D01*
X1493872Y-6367150D02*
X1522443Y-6367150D01*
X1522443Y-6367150D02*
X1541491Y-6376674D01*
X1541491Y-6376674D02*
X1551015Y-6395722D01*
X1551015Y-6395722D02*
X1551015Y-6500484D01*
X1941491Y-6290960D02*
X1770063Y-6548103D01*
X2198634Y-6300484D02*
X2217682Y-6300484D01*
X2217682Y-6300484D02*
X2236729Y-6310008D01*
X2236729Y-6310008D02*
X2246253Y-6319531D01*
X2246253Y-6319531D02*
X2255777Y-6338579D01*
X2255777Y-6338579D02*
X2265301Y-6376674D01*
X2265301Y-6376674D02*
X2265301Y-6424293D01*
X2265301Y-6424293D02*
X2255777Y-6462388D01*
X2255777Y-6462388D02*
X2246253Y-6481436D01*
X2246253Y-6481436D02*
X2236729Y-6490960D01*
X2236729Y-6490960D02*
X2217682Y-6500484D01*
X2217682Y-6500484D02*
X2198634Y-6500484D01*
X2198634Y-6500484D02*
X2179587Y-6490960D01*
X2179587Y-6490960D02*
X2170063Y-6481436D01*
X2170063Y-6481436D02*
X2160539Y-6462388D01*
X2160539Y-6462388D02*
X2151015Y-6424293D01*
X2151015Y-6424293D02*
X2151015Y-6376674D01*
X2151015Y-6376674D02*
X2160539Y-6338579D01*
X2160539Y-6338579D02*
X2170063Y-6319531D01*
X2170063Y-6319531D02*
X2179587Y-6310008D01*
X2179587Y-6310008D02*
X2198634Y-6300484D01*
X2351015Y-6481436D02*
X2360539Y-6490960D01*
X2360539Y-6490960D02*
X2351015Y-6500484D01*
X2351015Y-6500484D02*
X2341491Y-6490960D01*
X2341491Y-6490960D02*
X2351015Y-6481436D01*
X2351015Y-6481436D02*
X2351015Y-6500484D01*
X2484348Y-6300484D02*
X2503396Y-6300484D01*
X2503396Y-6300484D02*
X2522444Y-6310008D01*
X2522444Y-6310008D02*
X2531968Y-6319531D01*
X2531968Y-6319531D02*
X2541491Y-6338579D01*
X2541491Y-6338579D02*
X2551015Y-6376674D01*
X2551015Y-6376674D02*
X2551015Y-6424293D01*
X2551015Y-6424293D02*
X2541491Y-6462388D01*
X2541491Y-6462388D02*
X2531968Y-6481436D01*
X2531968Y-6481436D02*
X2522444Y-6490960D01*
X2522444Y-6490960D02*
X2503396Y-6500484D01*
X2503396Y-6500484D02*
X2484348Y-6500484D01*
X2484348Y-6500484D02*
X2465301Y-6490960D01*
X2465301Y-6490960D02*
X2455777Y-6481436D01*
X2455777Y-6481436D02*
X2446253Y-6462388D01*
X2446253Y-6462388D02*
X2436729Y-6424293D01*
X2436729Y-6424293D02*
X2436729Y-6376674D01*
X2436729Y-6376674D02*
X2446253Y-6338579D01*
X2446253Y-6338579D02*
X2455777Y-6319531D01*
X2455777Y-6319531D02*
X2465301Y-6310008D01*
X2465301Y-6310008D02*
X2484348Y-6300484D01*
X2741491Y-6500484D02*
X2627206Y-6500484D01*
X2684348Y-6500484D02*
X2684348Y-6300484D01*
X2684348Y-6300484D02*
X2665301Y-6329055D01*
X2665301Y-6329055D02*
X2646253Y-6348103D01*
X2646253Y-6348103D02*
X2627206Y-6357627D01*
X2931967Y-6500484D02*
X2817682Y-6500484D01*
X2874825Y-6500484D02*
X2874825Y-6300484D01*
X2874825Y-6300484D02*
X2855777Y-6329055D01*
X2855777Y-6329055D02*
X2836729Y-6348103D01*
X2836729Y-6348103D02*
X2817682Y-6357627D01*
X3046253Y-6386198D02*
X3027206Y-6376674D01*
X3027206Y-6376674D02*
X3017682Y-6367150D01*
X3017682Y-6367150D02*
X3008158Y-6348103D01*
X3008158Y-6348103D02*
X3008158Y-6338579D01*
X3008158Y-6338579D02*
X3017682Y-6319531D01*
X3017682Y-6319531D02*
X3027206Y-6310008D01*
X3027206Y-6310008D02*
X3046253Y-6300484D01*
X3046253Y-6300484D02*
X3084348Y-6300484D01*
X3084348Y-6300484D02*
X3103396Y-6310008D01*
X3103396Y-6310008D02*
X3112920Y-6319531D01*
X3112920Y-6319531D02*
X3122444Y-6338579D01*
X3122444Y-6338579D02*
X3122444Y-6348103D01*
X3122444Y-6348103D02*
X3112920Y-6367150D01*
X3112920Y-6367150D02*
X3103396Y-6376674D01*
X3103396Y-6376674D02*
X3084348Y-6386198D01*
X3084348Y-6386198D02*
X3046253Y-6386198D01*
X3046253Y-6386198D02*
X3027206Y-6395722D01*
X3027206Y-6395722D02*
X3017682Y-6405246D01*
X3017682Y-6405246D02*
X3008158Y-6424293D01*
X3008158Y-6424293D02*
X3008158Y-6462388D01*
X3008158Y-6462388D02*
X3017682Y-6481436D01*
X3017682Y-6481436D02*
X3027206Y-6490960D01*
X3027206Y-6490960D02*
X3046253Y-6500484D01*
X3046253Y-6500484D02*
X3084348Y-6500484D01*
X3084348Y-6500484D02*
X3103396Y-6490960D01*
X3103396Y-6490960D02*
X3112920Y-6481436D01*
X3112920Y-6481436D02*
X3122444Y-6462388D01*
X3122444Y-6462388D02*
X3122444Y-6424293D01*
X3122444Y-6424293D02*
X3112920Y-6405246D01*
X3112920Y-6405246D02*
X3103396Y-6395722D01*
X3103396Y-6395722D02*
X3084348Y-6386198D01*
X3198634Y-6300484D02*
X3198634Y-6338579D01*
X3274825Y-6300484D02*
X3274825Y-6338579D01*
X3570063Y-6576674D02*
X3560539Y-6567150D01*
X3560539Y-6567150D02*
X3541491Y-6538579D01*
X3541491Y-6538579D02*
X3531968Y-6519531D01*
X3531968Y-6519531D02*
X3522444Y-6490960D01*
X3522444Y-6490960D02*
X3512920Y-6443341D01*
X3512920Y-6443341D02*
X3512920Y-6405246D01*
X3512920Y-6405246D02*
X3522444Y-6357627D01*
X3522444Y-6357627D02*
X3531968Y-6329055D01*
X3531968Y-6329055D02*
X3541491Y-6310008D01*
X3541491Y-6310008D02*
X3560539Y-6281436D01*
X3560539Y-6281436D02*
X3570063Y-6271912D01*
X3636729Y-6319531D02*
X3646253Y-6310008D01*
X3646253Y-6310008D02*
X3665301Y-6300484D01*
X3665301Y-6300484D02*
X3712920Y-6300484D01*
X3712920Y-6300484D02*
X3731968Y-6310008D01*
X3731968Y-6310008D02*
X3741491Y-6319531D01*
X3741491Y-6319531D02*
X3751015Y-6338579D01*
X3751015Y-6338579D02*
X3751015Y-6357627D01*
X3751015Y-6357627D02*
X3741491Y-6386198D01*
X3741491Y-6386198D02*
X3627206Y-6500484D01*
X3627206Y-6500484D02*
X3751015Y-6500484D01*
X3941491Y-6500484D02*
X3827206Y-6500484D01*
X3884348Y-6500484D02*
X3884348Y-6300484D01*
X3884348Y-6300484D02*
X3865301Y-6329055D01*
X3865301Y-6329055D02*
X3846253Y-6348103D01*
X3846253Y-6348103D02*
X3827206Y-6357627D01*
X4112920Y-6300484D02*
X4074825Y-6300484D01*
X4074825Y-6300484D02*
X4055777Y-6310008D01*
X4055777Y-6310008D02*
X4046253Y-6319531D01*
X4046253Y-6319531D02*
X4027206Y-6348103D01*
X4027206Y-6348103D02*
X4017682Y-6386198D01*
X4017682Y-6386198D02*
X4017682Y-6462388D01*
X4017682Y-6462388D02*
X4027206Y-6481436D01*
X4027206Y-6481436D02*
X4036729Y-6490960D01*
X4036729Y-6490960D02*
X4055777Y-6500484D01*
X4055777Y-6500484D02*
X4093872Y-6500484D01*
X4093872Y-6500484D02*
X4112920Y-6490960D01*
X4112920Y-6490960D02*
X4122444Y-6481436D01*
X4122444Y-6481436D02*
X4131968Y-6462388D01*
X4131968Y-6462388D02*
X4131968Y-6414769D01*
X4131968Y-6414769D02*
X4122444Y-6395722D01*
X4122444Y-6395722D02*
X4112920Y-6386198D01*
X4112920Y-6386198D02*
X4093872Y-6376674D01*
X4093872Y-6376674D02*
X4055777Y-6376674D01*
X4055777Y-6376674D02*
X4036729Y-6386198D01*
X4036729Y-6386198D02*
X4027206Y-6395722D01*
X4027206Y-6395722D02*
X4017682Y-6414769D01*
X4370063Y-6500484D02*
X4370063Y-6300484D01*
X4455777Y-6500484D02*
X4455777Y-6395722D01*
X4455777Y-6395722D02*
X4446253Y-6376674D01*
X4446253Y-6376674D02*
X4427206Y-6367150D01*
X4427206Y-6367150D02*
X4398634Y-6367150D01*
X4398634Y-6367150D02*
X4379587Y-6376674D01*
X4379587Y-6376674D02*
X4370063Y-6386198D01*
X4579587Y-6500484D02*
X4560539Y-6490960D01*
X4560539Y-6490960D02*
X4551015Y-6481436D01*
X4551015Y-6481436D02*
X4541492Y-6462388D01*
X4541492Y-6462388D02*
X4541492Y-6405246D01*
X4541492Y-6405246D02*
X4551015Y-6386198D01*
X4551015Y-6386198D02*
X4560539Y-6376674D01*
X4560539Y-6376674D02*
X4579587Y-6367150D01*
X4579587Y-6367150D02*
X4608158Y-6367150D01*
X4608158Y-6367150D02*
X4627206Y-6376674D01*
X4627206Y-6376674D02*
X4636730Y-6386198D01*
X4636730Y-6386198D02*
X4646253Y-6405246D01*
X4646253Y-6405246D02*
X4646253Y-6462388D01*
X4646253Y-6462388D02*
X4636730Y-6481436D01*
X4636730Y-6481436D02*
X4627206Y-6490960D01*
X4627206Y-6490960D02*
X4608158Y-6500484D01*
X4608158Y-6500484D02*
X4579587Y-6500484D01*
X4760539Y-6500484D02*
X4741492Y-6490960D01*
X4741492Y-6490960D02*
X4731968Y-6471912D01*
X4731968Y-6471912D02*
X4731968Y-6300484D01*
X4912920Y-6490960D02*
X4893873Y-6500484D01*
X4893873Y-6500484D02*
X4855777Y-6500484D01*
X4855777Y-6500484D02*
X4836730Y-6490960D01*
X4836730Y-6490960D02*
X4827206Y-6471912D01*
X4827206Y-6471912D02*
X4827206Y-6395722D01*
X4827206Y-6395722D02*
X4836730Y-6376674D01*
X4836730Y-6376674D02*
X4855777Y-6367150D01*
X4855777Y-6367150D02*
X4893873Y-6367150D01*
X4893873Y-6367150D02*
X4912920Y-6376674D01*
X4912920Y-6376674D02*
X4922444Y-6395722D01*
X4922444Y-6395722D02*
X4922444Y-6414769D01*
X4922444Y-6414769D02*
X4827206Y-6433817D01*
X4998634Y-6490960D02*
X5017682Y-6500484D01*
X5017682Y-6500484D02*
X5055777Y-6500484D01*
X5055777Y-6500484D02*
X5074825Y-6490960D01*
X5074825Y-6490960D02*
X5084349Y-6471912D01*
X5084349Y-6471912D02*
X5084349Y-6462388D01*
X5084349Y-6462388D02*
X5074825Y-6443341D01*
X5074825Y-6443341D02*
X5055777Y-6433817D01*
X5055777Y-6433817D02*
X5027206Y-6433817D01*
X5027206Y-6433817D02*
X5008158Y-6424293D01*
X5008158Y-6424293D02*
X4998634Y-6405246D01*
X4998634Y-6405246D02*
X4998634Y-6395722D01*
X4998634Y-6395722D02*
X5008158Y-6376674D01*
X5008158Y-6376674D02*
X5027206Y-6367150D01*
X5027206Y-6367150D02*
X5055777Y-6367150D01*
X5055777Y-6367150D02*
X5074825Y-6376674D01*
X5151015Y-6576674D02*
X5160539Y-6567150D01*
X5160539Y-6567150D02*
X5179587Y-6538579D01*
X5179587Y-6538579D02*
X5189111Y-6519531D01*
X5189111Y-6519531D02*
X5198634Y-6490960D01*
X5198634Y-6490960D02*
X5208158Y-6443341D01*
X5208158Y-6443341D02*
X5208158Y-6405246D01*
X5208158Y-6405246D02*
X5198634Y-6357627D01*
X5198634Y-6357627D02*
X5189111Y-6329055D01*
X5189111Y-6329055D02*
X5179587Y-6310008D01*
X5179587Y-6310008D02*
X5160539Y-6281436D01*
X5160539Y-6281436D02*
X5151015Y-6271912D01*
D10*
X-25000Y-6653000D02*
X-25000Y-6693000D01*
X-45000Y-6673000D02*
X-5000Y-6673000D01*
D11*
X293872Y-6564484D02*
X312920Y-6564484D01*
X312920Y-6564484D02*
X331967Y-6574008D01*
X331967Y-6574008D02*
X341491Y-6583531D01*
X341491Y-6583531D02*
X351015Y-6602579D01*
X351015Y-6602579D02*
X360539Y-6640674D01*
X360539Y-6640674D02*
X360539Y-6688293D01*
X360539Y-6688293D02*
X351015Y-6726388D01*
X351015Y-6726388D02*
X341491Y-6745436D01*
X341491Y-6745436D02*
X331967Y-6754960D01*
X331967Y-6754960D02*
X312920Y-6764484D01*
X312920Y-6764484D02*
X293872Y-6764484D01*
X293872Y-6764484D02*
X274824Y-6754960D01*
X274824Y-6754960D02*
X265301Y-6745436D01*
X265301Y-6745436D02*
X255777Y-6726388D01*
X255777Y-6726388D02*
X246253Y-6688293D01*
X246253Y-6688293D02*
X246253Y-6640674D01*
X246253Y-6640674D02*
X255777Y-6602579D01*
X255777Y-6602579D02*
X265301Y-6583531D01*
X265301Y-6583531D02*
X274824Y-6574008D01*
X274824Y-6574008D02*
X293872Y-6564484D01*
X446253Y-6745436D02*
X455777Y-6754960D01*
X455777Y-6754960D02*
X446253Y-6764484D01*
X446253Y-6764484D02*
X436729Y-6754960D01*
X436729Y-6754960D02*
X446253Y-6745436D01*
X446253Y-6745436D02*
X446253Y-6764484D01*
X627205Y-6631150D02*
X627205Y-6764484D01*
X579586Y-6554960D02*
X531967Y-6697817D01*
X531967Y-6697817D02*
X655777Y-6697817D01*
X770062Y-6564484D02*
X789110Y-6564484D01*
X789110Y-6564484D02*
X808158Y-6574008D01*
X808158Y-6574008D02*
X817682Y-6583531D01*
X817682Y-6583531D02*
X827205Y-6602579D01*
X827205Y-6602579D02*
X836729Y-6640674D01*
X836729Y-6640674D02*
X836729Y-6688293D01*
X836729Y-6688293D02*
X827205Y-6726388D01*
X827205Y-6726388D02*
X817682Y-6745436D01*
X817682Y-6745436D02*
X808158Y-6754960D01*
X808158Y-6754960D02*
X789110Y-6764484D01*
X789110Y-6764484D02*
X770062Y-6764484D01*
X770062Y-6764484D02*
X751015Y-6754960D01*
X751015Y-6754960D02*
X741491Y-6745436D01*
X741491Y-6745436D02*
X731967Y-6726388D01*
X731967Y-6726388D02*
X722443Y-6688293D01*
X722443Y-6688293D02*
X722443Y-6640674D01*
X722443Y-6640674D02*
X731967Y-6602579D01*
X731967Y-6602579D02*
X741491Y-6583531D01*
X741491Y-6583531D02*
X751015Y-6574008D01*
X751015Y-6574008D02*
X770062Y-6564484D01*
X960539Y-6564484D02*
X979586Y-6564484D01*
X979586Y-6564484D02*
X998634Y-6574008D01*
X998634Y-6574008D02*
X1008158Y-6583531D01*
X1008158Y-6583531D02*
X1017682Y-6602579D01*
X1017682Y-6602579D02*
X1027205Y-6640674D01*
X1027205Y-6640674D02*
X1027205Y-6688293D01*
X1027205Y-6688293D02*
X1017682Y-6726388D01*
X1017682Y-6726388D02*
X1008158Y-6745436D01*
X1008158Y-6745436D02*
X998634Y-6754960D01*
X998634Y-6754960D02*
X979586Y-6764484D01*
X979586Y-6764484D02*
X960539Y-6764484D01*
X960539Y-6764484D02*
X941491Y-6754960D01*
X941491Y-6754960D02*
X931967Y-6745436D01*
X931967Y-6745436D02*
X922443Y-6726388D01*
X922443Y-6726388D02*
X912920Y-6688293D01*
X912920Y-6688293D02*
X912920Y-6640674D01*
X912920Y-6640674D02*
X922443Y-6602579D01*
X922443Y-6602579D02*
X931967Y-6583531D01*
X931967Y-6583531D02*
X941491Y-6574008D01*
X941491Y-6574008D02*
X960539Y-6564484D01*
X1112920Y-6764484D02*
X1112920Y-6631150D01*
X1112920Y-6650198D02*
X1122444Y-6640674D01*
X1122444Y-6640674D02*
X1141491Y-6631150D01*
X1141491Y-6631150D02*
X1170063Y-6631150D01*
X1170063Y-6631150D02*
X1189110Y-6640674D01*
X1189110Y-6640674D02*
X1198634Y-6659722D01*
X1198634Y-6659722D02*
X1198634Y-6764484D01*
X1198634Y-6659722D02*
X1208158Y-6640674D01*
X1208158Y-6640674D02*
X1227205Y-6631150D01*
X1227205Y-6631150D02*
X1255777Y-6631150D01*
X1255777Y-6631150D02*
X1274825Y-6640674D01*
X1274825Y-6640674D02*
X1284348Y-6659722D01*
X1284348Y-6659722D02*
X1284348Y-6764484D01*
X1379586Y-6764484D02*
X1379586Y-6631150D01*
X1379586Y-6650198D02*
X1389110Y-6640674D01*
X1389110Y-6640674D02*
X1408158Y-6631150D01*
X1408158Y-6631150D02*
X1436729Y-6631150D01*
X1436729Y-6631150D02*
X1455777Y-6640674D01*
X1455777Y-6640674D02*
X1465301Y-6659722D01*
X1465301Y-6659722D02*
X1465301Y-6764484D01*
X1465301Y-6659722D02*
X1474824Y-6640674D01*
X1474824Y-6640674D02*
X1493872Y-6631150D01*
X1493872Y-6631150D02*
X1522443Y-6631150D01*
X1522443Y-6631150D02*
X1541491Y-6640674D01*
X1541491Y-6640674D02*
X1551015Y-6659722D01*
X1551015Y-6659722D02*
X1551015Y-6764484D01*
X1941491Y-6554960D02*
X1770063Y-6812103D01*
X2198634Y-6564484D02*
X2217682Y-6564484D01*
X2217682Y-6564484D02*
X2236729Y-6574008D01*
X2236729Y-6574008D02*
X2246253Y-6583531D01*
X2246253Y-6583531D02*
X2255777Y-6602579D01*
X2255777Y-6602579D02*
X2265301Y-6640674D01*
X2265301Y-6640674D02*
X2265301Y-6688293D01*
X2265301Y-6688293D02*
X2255777Y-6726388D01*
X2255777Y-6726388D02*
X2246253Y-6745436D01*
X2246253Y-6745436D02*
X2236729Y-6754960D01*
X2236729Y-6754960D02*
X2217682Y-6764484D01*
X2217682Y-6764484D02*
X2198634Y-6764484D01*
X2198634Y-6764484D02*
X2179587Y-6754960D01*
X2179587Y-6754960D02*
X2170063Y-6745436D01*
X2170063Y-6745436D02*
X2160539Y-6726388D01*
X2160539Y-6726388D02*
X2151015Y-6688293D01*
X2151015Y-6688293D02*
X2151015Y-6640674D01*
X2151015Y-6640674D02*
X2160539Y-6602579D01*
X2160539Y-6602579D02*
X2170063Y-6583531D01*
X2170063Y-6583531D02*
X2179587Y-6574008D01*
X2179587Y-6574008D02*
X2198634Y-6564484D01*
X2351015Y-6745436D02*
X2360539Y-6754960D01*
X2360539Y-6754960D02*
X2351015Y-6764484D01*
X2351015Y-6764484D02*
X2341491Y-6754960D01*
X2341491Y-6754960D02*
X2351015Y-6745436D01*
X2351015Y-6745436D02*
X2351015Y-6764484D01*
X2484348Y-6564484D02*
X2503396Y-6564484D01*
X2503396Y-6564484D02*
X2522444Y-6574008D01*
X2522444Y-6574008D02*
X2531968Y-6583531D01*
X2531968Y-6583531D02*
X2541491Y-6602579D01*
X2541491Y-6602579D02*
X2551015Y-6640674D01*
X2551015Y-6640674D02*
X2551015Y-6688293D01*
X2551015Y-6688293D02*
X2541491Y-6726388D01*
X2541491Y-6726388D02*
X2531968Y-6745436D01*
X2531968Y-6745436D02*
X2522444Y-6754960D01*
X2522444Y-6754960D02*
X2503396Y-6764484D01*
X2503396Y-6764484D02*
X2484348Y-6764484D01*
X2484348Y-6764484D02*
X2465301Y-6754960D01*
X2465301Y-6754960D02*
X2455777Y-6745436D01*
X2455777Y-6745436D02*
X2446253Y-6726388D01*
X2446253Y-6726388D02*
X2436729Y-6688293D01*
X2436729Y-6688293D02*
X2436729Y-6640674D01*
X2436729Y-6640674D02*
X2446253Y-6602579D01*
X2446253Y-6602579D02*
X2455777Y-6583531D01*
X2455777Y-6583531D02*
X2465301Y-6574008D01*
X2465301Y-6574008D02*
X2484348Y-6564484D01*
X2741491Y-6764484D02*
X2627206Y-6764484D01*
X2684348Y-6764484D02*
X2684348Y-6564484D01*
X2684348Y-6564484D02*
X2665301Y-6593055D01*
X2665301Y-6593055D02*
X2646253Y-6612103D01*
X2646253Y-6612103D02*
X2627206Y-6621627D01*
X2922444Y-6564484D02*
X2827206Y-6564484D01*
X2827206Y-6564484D02*
X2817682Y-6659722D01*
X2817682Y-6659722D02*
X2827206Y-6650198D01*
X2827206Y-6650198D02*
X2846253Y-6640674D01*
X2846253Y-6640674D02*
X2893872Y-6640674D01*
X2893872Y-6640674D02*
X2912920Y-6650198D01*
X2912920Y-6650198D02*
X2922444Y-6659722D01*
X2922444Y-6659722D02*
X2931967Y-6678769D01*
X2931967Y-6678769D02*
X2931967Y-6726388D01*
X2931967Y-6726388D02*
X2922444Y-6745436D01*
X2922444Y-6745436D02*
X2912920Y-6754960D01*
X2912920Y-6754960D02*
X2893872Y-6764484D01*
X2893872Y-6764484D02*
X2846253Y-6764484D01*
X2846253Y-6764484D02*
X2827206Y-6754960D01*
X2827206Y-6754960D02*
X2817682Y-6745436D01*
X2998634Y-6564484D02*
X3131967Y-6564484D01*
X3131967Y-6564484D02*
X3046253Y-6764484D01*
X3198634Y-6564484D02*
X3198634Y-6602579D01*
X3274825Y-6564484D02*
X3274825Y-6602579D01*
X3570063Y-6840674D02*
X3560539Y-6831150D01*
X3560539Y-6831150D02*
X3541491Y-6802579D01*
X3541491Y-6802579D02*
X3531968Y-6783531D01*
X3531968Y-6783531D02*
X3522444Y-6754960D01*
X3522444Y-6754960D02*
X3512920Y-6707341D01*
X3512920Y-6707341D02*
X3512920Y-6669246D01*
X3512920Y-6669246D02*
X3522444Y-6621627D01*
X3522444Y-6621627D02*
X3531968Y-6593055D01*
X3531968Y-6593055D02*
X3541491Y-6574008D01*
X3541491Y-6574008D02*
X3560539Y-6545436D01*
X3560539Y-6545436D02*
X3570063Y-6535912D01*
X3636729Y-6583531D02*
X3646253Y-6574008D01*
X3646253Y-6574008D02*
X3665301Y-6564484D01*
X3665301Y-6564484D02*
X3712920Y-6564484D01*
X3712920Y-6564484D02*
X3731968Y-6574008D01*
X3731968Y-6574008D02*
X3741491Y-6583531D01*
X3741491Y-6583531D02*
X3751015Y-6602579D01*
X3751015Y-6602579D02*
X3751015Y-6621627D01*
X3751015Y-6621627D02*
X3741491Y-6650198D01*
X3741491Y-6650198D02*
X3627206Y-6764484D01*
X3627206Y-6764484D02*
X3751015Y-6764484D01*
X3817682Y-6564484D02*
X3951015Y-6564484D01*
X3951015Y-6564484D02*
X3865301Y-6764484D01*
X4179587Y-6764484D02*
X4179587Y-6564484D01*
X4265301Y-6764484D02*
X4265301Y-6659722D01*
X4265301Y-6659722D02*
X4255777Y-6640674D01*
X4255777Y-6640674D02*
X4236730Y-6631150D01*
X4236730Y-6631150D02*
X4208158Y-6631150D01*
X4208158Y-6631150D02*
X4189110Y-6640674D01*
X4189110Y-6640674D02*
X4179587Y-6650198D01*
X4389111Y-6764484D02*
X4370063Y-6754960D01*
X4370063Y-6754960D02*
X4360539Y-6745436D01*
X4360539Y-6745436D02*
X4351015Y-6726388D01*
X4351015Y-6726388D02*
X4351015Y-6669246D01*
X4351015Y-6669246D02*
X4360539Y-6650198D01*
X4360539Y-6650198D02*
X4370063Y-6640674D01*
X4370063Y-6640674D02*
X4389111Y-6631150D01*
X4389111Y-6631150D02*
X4417682Y-6631150D01*
X4417682Y-6631150D02*
X4436730Y-6640674D01*
X4436730Y-6640674D02*
X4446253Y-6650198D01*
X4446253Y-6650198D02*
X4455777Y-6669246D01*
X4455777Y-6669246D02*
X4455777Y-6726388D01*
X4455777Y-6726388D02*
X4446253Y-6745436D01*
X4446253Y-6745436D02*
X4436730Y-6754960D01*
X4436730Y-6754960D02*
X4417682Y-6764484D01*
X4417682Y-6764484D02*
X4389111Y-6764484D01*
X4570063Y-6764484D02*
X4551015Y-6754960D01*
X4551015Y-6754960D02*
X4541492Y-6735912D01*
X4541492Y-6735912D02*
X4541492Y-6564484D01*
X4722444Y-6754960D02*
X4703396Y-6764484D01*
X4703396Y-6764484D02*
X4665301Y-6764484D01*
X4665301Y-6764484D02*
X4646253Y-6754960D01*
X4646253Y-6754960D02*
X4636730Y-6735912D01*
X4636730Y-6735912D02*
X4636730Y-6659722D01*
X4636730Y-6659722D02*
X4646253Y-6640674D01*
X4646253Y-6640674D02*
X4665301Y-6631150D01*
X4665301Y-6631150D02*
X4703396Y-6631150D01*
X4703396Y-6631150D02*
X4722444Y-6640674D01*
X4722444Y-6640674D02*
X4731968Y-6659722D01*
X4731968Y-6659722D02*
X4731968Y-6678769D01*
X4731968Y-6678769D02*
X4636730Y-6697817D01*
X4808158Y-6754960D02*
X4827206Y-6764484D01*
X4827206Y-6764484D02*
X4865301Y-6764484D01*
X4865301Y-6764484D02*
X4884349Y-6754960D01*
X4884349Y-6754960D02*
X4893873Y-6735912D01*
X4893873Y-6735912D02*
X4893873Y-6726388D01*
X4893873Y-6726388D02*
X4884349Y-6707341D01*
X4884349Y-6707341D02*
X4865301Y-6697817D01*
X4865301Y-6697817D02*
X4836730Y-6697817D01*
X4836730Y-6697817D02*
X4817682Y-6688293D01*
X4817682Y-6688293D02*
X4808158Y-6669246D01*
X4808158Y-6669246D02*
X4808158Y-6659722D01*
X4808158Y-6659722D02*
X4817682Y-6640674D01*
X4817682Y-6640674D02*
X4836730Y-6631150D01*
X4836730Y-6631150D02*
X4865301Y-6631150D01*
X4865301Y-6631150D02*
X4884349Y-6640674D01*
X4960539Y-6840674D02*
X4970063Y-6831150D01*
X4970063Y-6831150D02*
X4989111Y-6802579D01*
X4989111Y-6802579D02*
X4998634Y-6783531D01*
X4998634Y-6783531D02*
X5008158Y-6754960D01*
X5008158Y-6754960D02*
X5017682Y-6707341D01*
X5017682Y-6707341D02*
X5017682Y-6669246D01*
X5017682Y-6669246D02*
X5008158Y-6621627D01*
X5008158Y-6621627D02*
X4998634Y-6593055D01*
X4998634Y-6593055D02*
X4989111Y-6574008D01*
X4989111Y-6574008D02*
X4970063Y-6545436D01*
X4970063Y-6545436D02*
X4960539Y-6535912D01*
D10*
X-13787Y-6958213D02*
X-13787Y-6915787D01*
X-56213Y-6915787D01*
X-56213Y-6958213D01*
X-13787Y-6958213D01*
D11*
X293872Y-6828484D02*
X312920Y-6828484D01*
X312920Y-6828484D02*
X331967Y-6838008D01*
X331967Y-6838008D02*
X341491Y-6847531D01*
X341491Y-6847531D02*
X351015Y-6866579D01*
X351015Y-6866579D02*
X360539Y-6904674D01*
X360539Y-6904674D02*
X360539Y-6952293D01*
X360539Y-6952293D02*
X351015Y-6990388D01*
X351015Y-6990388D02*
X341491Y-7009436D01*
X341491Y-7009436D02*
X331967Y-7018960D01*
X331967Y-7018960D02*
X312920Y-7028484D01*
X312920Y-7028484D02*
X293872Y-7028484D01*
X293872Y-7028484D02*
X274824Y-7018960D01*
X274824Y-7018960D02*
X265301Y-7009436D01*
X265301Y-7009436D02*
X255777Y-6990388D01*
X255777Y-6990388D02*
X246253Y-6952293D01*
X246253Y-6952293D02*
X246253Y-6904674D01*
X246253Y-6904674D02*
X255777Y-6866579D01*
X255777Y-6866579D02*
X265301Y-6847531D01*
X265301Y-6847531D02*
X274824Y-6838008D01*
X274824Y-6838008D02*
X293872Y-6828484D01*
X446253Y-7009436D02*
X455777Y-7018960D01*
X455777Y-7018960D02*
X446253Y-7028484D01*
X446253Y-7028484D02*
X436729Y-7018960D01*
X436729Y-7018960D02*
X446253Y-7009436D01*
X446253Y-7009436D02*
X446253Y-7028484D01*
X627205Y-6828484D02*
X589110Y-6828484D01*
X589110Y-6828484D02*
X570063Y-6838008D01*
X570063Y-6838008D02*
X560539Y-6847531D01*
X560539Y-6847531D02*
X541491Y-6876103D01*
X541491Y-6876103D02*
X531967Y-6914198D01*
X531967Y-6914198D02*
X531967Y-6990388D01*
X531967Y-6990388D02*
X541491Y-7009436D01*
X541491Y-7009436D02*
X551015Y-7018960D01*
X551015Y-7018960D02*
X570063Y-7028484D01*
X570063Y-7028484D02*
X608158Y-7028484D01*
X608158Y-7028484D02*
X627205Y-7018960D01*
X627205Y-7018960D02*
X636729Y-7009436D01*
X636729Y-7009436D02*
X646253Y-6990388D01*
X646253Y-6990388D02*
X646253Y-6942769D01*
X646253Y-6942769D02*
X636729Y-6923722D01*
X636729Y-6923722D02*
X627205Y-6914198D01*
X627205Y-6914198D02*
X608158Y-6904674D01*
X608158Y-6904674D02*
X570063Y-6904674D01*
X570063Y-6904674D02*
X551015Y-6914198D01*
X551015Y-6914198D02*
X541491Y-6923722D01*
X541491Y-6923722D02*
X531967Y-6942769D01*
X770062Y-6828484D02*
X789110Y-6828484D01*
X789110Y-6828484D02*
X808158Y-6838008D01*
X808158Y-6838008D02*
X817682Y-6847531D01*
X817682Y-6847531D02*
X827205Y-6866579D01*
X827205Y-6866579D02*
X836729Y-6904674D01*
X836729Y-6904674D02*
X836729Y-6952293D01*
X836729Y-6952293D02*
X827205Y-6990388D01*
X827205Y-6990388D02*
X817682Y-7009436D01*
X817682Y-7009436D02*
X808158Y-7018960D01*
X808158Y-7018960D02*
X789110Y-7028484D01*
X789110Y-7028484D02*
X770062Y-7028484D01*
X770062Y-7028484D02*
X751015Y-7018960D01*
X751015Y-7018960D02*
X741491Y-7009436D01*
X741491Y-7009436D02*
X731967Y-6990388D01*
X731967Y-6990388D02*
X722443Y-6952293D01*
X722443Y-6952293D02*
X722443Y-6904674D01*
X722443Y-6904674D02*
X731967Y-6866579D01*
X731967Y-6866579D02*
X741491Y-6847531D01*
X741491Y-6847531D02*
X751015Y-6838008D01*
X751015Y-6838008D02*
X770062Y-6828484D01*
X960539Y-6828484D02*
X979586Y-6828484D01*
X979586Y-6828484D02*
X998634Y-6838008D01*
X998634Y-6838008D02*
X1008158Y-6847531D01*
X1008158Y-6847531D02*
X1017682Y-6866579D01*
X1017682Y-6866579D02*
X1027205Y-6904674D01*
X1027205Y-6904674D02*
X1027205Y-6952293D01*
X1027205Y-6952293D02*
X1017682Y-6990388D01*
X1017682Y-6990388D02*
X1008158Y-7009436D01*
X1008158Y-7009436D02*
X998634Y-7018960D01*
X998634Y-7018960D02*
X979586Y-7028484D01*
X979586Y-7028484D02*
X960539Y-7028484D01*
X960539Y-7028484D02*
X941491Y-7018960D01*
X941491Y-7018960D02*
X931967Y-7009436D01*
X931967Y-7009436D02*
X922443Y-6990388D01*
X922443Y-6990388D02*
X912920Y-6952293D01*
X912920Y-6952293D02*
X912920Y-6904674D01*
X912920Y-6904674D02*
X922443Y-6866579D01*
X922443Y-6866579D02*
X931967Y-6847531D01*
X931967Y-6847531D02*
X941491Y-6838008D01*
X941491Y-6838008D02*
X960539Y-6828484D01*
X1112920Y-7028484D02*
X1112920Y-6895150D01*
X1112920Y-6914198D02*
X1122444Y-6904674D01*
X1122444Y-6904674D02*
X1141491Y-6895150D01*
X1141491Y-6895150D02*
X1170063Y-6895150D01*
X1170063Y-6895150D02*
X1189110Y-6904674D01*
X1189110Y-6904674D02*
X1198634Y-6923722D01*
X1198634Y-6923722D02*
X1198634Y-7028484D01*
X1198634Y-6923722D02*
X1208158Y-6904674D01*
X1208158Y-6904674D02*
X1227205Y-6895150D01*
X1227205Y-6895150D02*
X1255777Y-6895150D01*
X1255777Y-6895150D02*
X1274825Y-6904674D01*
X1274825Y-6904674D02*
X1284348Y-6923722D01*
X1284348Y-6923722D02*
X1284348Y-7028484D01*
X1379586Y-7028484D02*
X1379586Y-6895150D01*
X1379586Y-6914198D02*
X1389110Y-6904674D01*
X1389110Y-6904674D02*
X1408158Y-6895150D01*
X1408158Y-6895150D02*
X1436729Y-6895150D01*
X1436729Y-6895150D02*
X1455777Y-6904674D01*
X1455777Y-6904674D02*
X1465301Y-6923722D01*
X1465301Y-6923722D02*
X1465301Y-7028484D01*
X1465301Y-6923722D02*
X1474824Y-6904674D01*
X1474824Y-6904674D02*
X1493872Y-6895150D01*
X1493872Y-6895150D02*
X1522443Y-6895150D01*
X1522443Y-6895150D02*
X1541491Y-6904674D01*
X1541491Y-6904674D02*
X1551015Y-6923722D01*
X1551015Y-6923722D02*
X1551015Y-7028484D01*
X1941491Y-6818960D02*
X1770063Y-7076103D01*
X2198634Y-6828484D02*
X2217682Y-6828484D01*
X2217682Y-6828484D02*
X2236729Y-6838008D01*
X2236729Y-6838008D02*
X2246253Y-6847531D01*
X2246253Y-6847531D02*
X2255777Y-6866579D01*
X2255777Y-6866579D02*
X2265301Y-6904674D01*
X2265301Y-6904674D02*
X2265301Y-6952293D01*
X2265301Y-6952293D02*
X2255777Y-6990388D01*
X2255777Y-6990388D02*
X2246253Y-7009436D01*
X2246253Y-7009436D02*
X2236729Y-7018960D01*
X2236729Y-7018960D02*
X2217682Y-7028484D01*
X2217682Y-7028484D02*
X2198634Y-7028484D01*
X2198634Y-7028484D02*
X2179587Y-7018960D01*
X2179587Y-7018960D02*
X2170063Y-7009436D01*
X2170063Y-7009436D02*
X2160539Y-6990388D01*
X2160539Y-6990388D02*
X2151015Y-6952293D01*
X2151015Y-6952293D02*
X2151015Y-6904674D01*
X2151015Y-6904674D02*
X2160539Y-6866579D01*
X2160539Y-6866579D02*
X2170063Y-6847531D01*
X2170063Y-6847531D02*
X2179587Y-6838008D01*
X2179587Y-6838008D02*
X2198634Y-6828484D01*
X2351015Y-7009436D02*
X2360539Y-7018960D01*
X2360539Y-7018960D02*
X2351015Y-7028484D01*
X2351015Y-7028484D02*
X2341491Y-7018960D01*
X2341491Y-7018960D02*
X2351015Y-7009436D01*
X2351015Y-7009436D02*
X2351015Y-7028484D01*
X2484348Y-6828484D02*
X2503396Y-6828484D01*
X2503396Y-6828484D02*
X2522444Y-6838008D01*
X2522444Y-6838008D02*
X2531968Y-6847531D01*
X2531968Y-6847531D02*
X2541491Y-6866579D01*
X2541491Y-6866579D02*
X2551015Y-6904674D01*
X2551015Y-6904674D02*
X2551015Y-6952293D01*
X2551015Y-6952293D02*
X2541491Y-6990388D01*
X2541491Y-6990388D02*
X2531968Y-7009436D01*
X2531968Y-7009436D02*
X2522444Y-7018960D01*
X2522444Y-7018960D02*
X2503396Y-7028484D01*
X2503396Y-7028484D02*
X2484348Y-7028484D01*
X2484348Y-7028484D02*
X2465301Y-7018960D01*
X2465301Y-7018960D02*
X2455777Y-7009436D01*
X2455777Y-7009436D02*
X2446253Y-6990388D01*
X2446253Y-6990388D02*
X2436729Y-6952293D01*
X2436729Y-6952293D02*
X2436729Y-6904674D01*
X2436729Y-6904674D02*
X2446253Y-6866579D01*
X2446253Y-6866579D02*
X2455777Y-6847531D01*
X2455777Y-6847531D02*
X2465301Y-6838008D01*
X2465301Y-6838008D02*
X2484348Y-6828484D01*
X2627206Y-6847531D02*
X2636729Y-6838008D01*
X2636729Y-6838008D02*
X2655777Y-6828484D01*
X2655777Y-6828484D02*
X2703396Y-6828484D01*
X2703396Y-6828484D02*
X2722444Y-6838008D01*
X2722444Y-6838008D02*
X2731968Y-6847531D01*
X2731968Y-6847531D02*
X2741491Y-6866579D01*
X2741491Y-6866579D02*
X2741491Y-6885627D01*
X2741491Y-6885627D02*
X2731968Y-6914198D01*
X2731968Y-6914198D02*
X2617682Y-7028484D01*
X2617682Y-7028484D02*
X2741491Y-7028484D01*
X2808158Y-6828484D02*
X2931967Y-6828484D01*
X2931967Y-6828484D02*
X2865301Y-6904674D01*
X2865301Y-6904674D02*
X2893872Y-6904674D01*
X2893872Y-6904674D02*
X2912920Y-6914198D01*
X2912920Y-6914198D02*
X2922444Y-6923722D01*
X2922444Y-6923722D02*
X2931967Y-6942769D01*
X2931967Y-6942769D02*
X2931967Y-6990388D01*
X2931967Y-6990388D02*
X2922444Y-7009436D01*
X2922444Y-7009436D02*
X2912920Y-7018960D01*
X2912920Y-7018960D02*
X2893872Y-7028484D01*
X2893872Y-7028484D02*
X2836729Y-7028484D01*
X2836729Y-7028484D02*
X2817682Y-7018960D01*
X2817682Y-7018960D02*
X2808158Y-7009436D01*
X3103396Y-6828484D02*
X3065301Y-6828484D01*
X3065301Y-6828484D02*
X3046253Y-6838008D01*
X3046253Y-6838008D02*
X3036729Y-6847531D01*
X3036729Y-6847531D02*
X3017682Y-6876103D01*
X3017682Y-6876103D02*
X3008158Y-6914198D01*
X3008158Y-6914198D02*
X3008158Y-6990388D01*
X3008158Y-6990388D02*
X3017682Y-7009436D01*
X3017682Y-7009436D02*
X3027206Y-7018960D01*
X3027206Y-7018960D02*
X3046253Y-7028484D01*
X3046253Y-7028484D02*
X3084348Y-7028484D01*
X3084348Y-7028484D02*
X3103396Y-7018960D01*
X3103396Y-7018960D02*
X3112920Y-7009436D01*
X3112920Y-7009436D02*
X3122444Y-6990388D01*
X3122444Y-6990388D02*
X3122444Y-6942769D01*
X3122444Y-6942769D02*
X3112920Y-6923722D01*
X3112920Y-6923722D02*
X3103396Y-6914198D01*
X3103396Y-6914198D02*
X3084348Y-6904674D01*
X3084348Y-6904674D02*
X3046253Y-6904674D01*
X3046253Y-6904674D02*
X3027206Y-6914198D01*
X3027206Y-6914198D02*
X3017682Y-6923722D01*
X3017682Y-6923722D02*
X3008158Y-6942769D01*
X3198634Y-6828484D02*
X3198634Y-6866579D01*
X3274825Y-6828484D02*
X3274825Y-6866579D01*
X3570063Y-7104674D02*
X3560539Y-7095150D01*
X3560539Y-7095150D02*
X3541491Y-7066579D01*
X3541491Y-7066579D02*
X3531968Y-7047531D01*
X3531968Y-7047531D02*
X3522444Y-7018960D01*
X3522444Y-7018960D02*
X3512920Y-6971341D01*
X3512920Y-6971341D02*
X3512920Y-6933246D01*
X3512920Y-6933246D02*
X3522444Y-6885627D01*
X3522444Y-6885627D02*
X3531968Y-6857055D01*
X3531968Y-6857055D02*
X3541491Y-6838008D01*
X3541491Y-6838008D02*
X3560539Y-6809436D01*
X3560539Y-6809436D02*
X3570063Y-6799912D01*
X3684348Y-6828484D02*
X3703396Y-6828484D01*
X3703396Y-6828484D02*
X3722444Y-6838008D01*
X3722444Y-6838008D02*
X3731968Y-6847531D01*
X3731968Y-6847531D02*
X3741491Y-6866579D01*
X3741491Y-6866579D02*
X3751015Y-6904674D01*
X3751015Y-6904674D02*
X3751015Y-6952293D01*
X3751015Y-6952293D02*
X3741491Y-6990388D01*
X3741491Y-6990388D02*
X3731968Y-7009436D01*
X3731968Y-7009436D02*
X3722444Y-7018960D01*
X3722444Y-7018960D02*
X3703396Y-7028484D01*
X3703396Y-7028484D02*
X3684348Y-7028484D01*
X3684348Y-7028484D02*
X3665301Y-7018960D01*
X3665301Y-7018960D02*
X3655777Y-7009436D01*
X3655777Y-7009436D02*
X3646253Y-6990388D01*
X3646253Y-6990388D02*
X3636729Y-6952293D01*
X3636729Y-6952293D02*
X3636729Y-6904674D01*
X3636729Y-6904674D02*
X3646253Y-6866579D01*
X3646253Y-6866579D02*
X3655777Y-6847531D01*
X3655777Y-6847531D02*
X3665301Y-6838008D01*
X3665301Y-6838008D02*
X3684348Y-6828484D01*
X3989110Y-7028484D02*
X3989110Y-6828484D01*
X4074825Y-7028484D02*
X4074825Y-6923722D01*
X4074825Y-6923722D02*
X4065301Y-6904674D01*
X4065301Y-6904674D02*
X4046253Y-6895150D01*
X4046253Y-6895150D02*
X4017682Y-6895150D01*
X4017682Y-6895150D02*
X3998634Y-6904674D01*
X3998634Y-6904674D02*
X3989110Y-6914198D01*
X4198634Y-7028484D02*
X4179587Y-7018960D01*
X4179587Y-7018960D02*
X4170063Y-7009436D01*
X4170063Y-7009436D02*
X4160539Y-6990388D01*
X4160539Y-6990388D02*
X4160539Y-6933246D01*
X4160539Y-6933246D02*
X4170063Y-6914198D01*
X4170063Y-6914198D02*
X4179587Y-6904674D01*
X4179587Y-6904674D02*
X4198634Y-6895150D01*
X4198634Y-6895150D02*
X4227206Y-6895150D01*
X4227206Y-6895150D02*
X4246253Y-6904674D01*
X4246253Y-6904674D02*
X4255777Y-6914198D01*
X4255777Y-6914198D02*
X4265301Y-6933246D01*
X4265301Y-6933246D02*
X4265301Y-6990388D01*
X4265301Y-6990388D02*
X4255777Y-7009436D01*
X4255777Y-7009436D02*
X4246253Y-7018960D01*
X4246253Y-7018960D02*
X4227206Y-7028484D01*
X4227206Y-7028484D02*
X4198634Y-7028484D01*
X4379587Y-7028484D02*
X4360539Y-7018960D01*
X4360539Y-7018960D02*
X4351015Y-6999912D01*
X4351015Y-6999912D02*
X4351015Y-6828484D01*
X4531968Y-7018960D02*
X4512920Y-7028484D01*
X4512920Y-7028484D02*
X4474825Y-7028484D01*
X4474825Y-7028484D02*
X4455777Y-7018960D01*
X4455777Y-7018960D02*
X4446253Y-6999912D01*
X4446253Y-6999912D02*
X4446253Y-6923722D01*
X4446253Y-6923722D02*
X4455777Y-6904674D01*
X4455777Y-6904674D02*
X4474825Y-6895150D01*
X4474825Y-6895150D02*
X4512920Y-6895150D01*
X4512920Y-6895150D02*
X4531968Y-6904674D01*
X4531968Y-6904674D02*
X4541492Y-6923722D01*
X4541492Y-6923722D02*
X4541492Y-6942769D01*
X4541492Y-6942769D02*
X4446253Y-6961817D01*
X4617682Y-7018960D02*
X4636730Y-7028484D01*
X4636730Y-7028484D02*
X4674825Y-7028484D01*
X4674825Y-7028484D02*
X4693873Y-7018960D01*
X4693873Y-7018960D02*
X4703396Y-6999912D01*
X4703396Y-6999912D02*
X4703396Y-6990388D01*
X4703396Y-6990388D02*
X4693873Y-6971341D01*
X4693873Y-6971341D02*
X4674825Y-6961817D01*
X4674825Y-6961817D02*
X4646253Y-6961817D01*
X4646253Y-6961817D02*
X4627206Y-6952293D01*
X4627206Y-6952293D02*
X4617682Y-6933246D01*
X4617682Y-6933246D02*
X4617682Y-6923722D01*
X4617682Y-6923722D02*
X4627206Y-6904674D01*
X4627206Y-6904674D02*
X4646253Y-6895150D01*
X4646253Y-6895150D02*
X4674825Y-6895150D01*
X4674825Y-6895150D02*
X4693873Y-6904674D01*
X4941492Y-6952293D02*
X5093873Y-6952293D01*
X5017682Y-7028484D02*
X5017682Y-6876103D01*
X5427206Y-6895150D02*
X5427206Y-7028484D01*
X5379587Y-6818960D02*
X5331968Y-6961817D01*
X5331968Y-6961817D02*
X5455777Y-6961817D01*
X5674825Y-7018960D02*
X5693873Y-7028484D01*
X5693873Y-7028484D02*
X5731968Y-7028484D01*
X5731968Y-7028484D02*
X5751015Y-7018960D01*
X5751015Y-7018960D02*
X5760539Y-6999912D01*
X5760539Y-6999912D02*
X5760539Y-6990388D01*
X5760539Y-6990388D02*
X5751015Y-6971341D01*
X5751015Y-6971341D02*
X5731968Y-6961817D01*
X5731968Y-6961817D02*
X5703396Y-6961817D01*
X5703396Y-6961817D02*
X5684349Y-6952293D01*
X5684349Y-6952293D02*
X5674825Y-6933246D01*
X5674825Y-6933246D02*
X5674825Y-6923722D01*
X5674825Y-6923722D02*
X5684349Y-6904674D01*
X5684349Y-6904674D02*
X5703396Y-6895150D01*
X5703396Y-6895150D02*
X5731968Y-6895150D01*
X5731968Y-6895150D02*
X5751015Y-6904674D01*
X5874825Y-7028484D02*
X5855777Y-7018960D01*
X5855777Y-7018960D02*
X5846254Y-6999912D01*
X5846254Y-6999912D02*
X5846254Y-6828484D01*
X5979587Y-7028484D02*
X5960539Y-7018960D01*
X5960539Y-7018960D02*
X5951015Y-7009436D01*
X5951015Y-7009436D02*
X5941492Y-6990388D01*
X5941492Y-6990388D02*
X5941492Y-6933246D01*
X5941492Y-6933246D02*
X5951015Y-6914198D01*
X5951015Y-6914198D02*
X5960539Y-6904674D01*
X5960539Y-6904674D02*
X5979587Y-6895150D01*
X5979587Y-6895150D02*
X6008158Y-6895150D01*
X6008158Y-6895150D02*
X6027206Y-6904674D01*
X6027206Y-6904674D02*
X6036730Y-6914198D01*
X6036730Y-6914198D02*
X6046254Y-6933246D01*
X6046254Y-6933246D02*
X6046254Y-6990388D01*
X6046254Y-6990388D02*
X6036730Y-7009436D01*
X6036730Y-7009436D02*
X6027206Y-7018960D01*
X6027206Y-7018960D02*
X6008158Y-7028484D01*
X6008158Y-7028484D02*
X5979587Y-7028484D01*
X6103396Y-6895150D02*
X6179587Y-6895150D01*
X6131968Y-6828484D02*
X6131968Y-6999912D01*
X6131968Y-6999912D02*
X6141492Y-7018960D01*
X6141492Y-7018960D02*
X6160539Y-7028484D01*
X6160539Y-7028484D02*
X6179587Y-7028484D01*
X6236730Y-7018960D02*
X6255777Y-7028484D01*
X6255777Y-7028484D02*
X6293873Y-7028484D01*
X6293873Y-7028484D02*
X6312920Y-7018960D01*
X6312920Y-7018960D02*
X6322444Y-6999912D01*
X6322444Y-6999912D02*
X6322444Y-6990388D01*
X6322444Y-6990388D02*
X6312920Y-6971341D01*
X6312920Y-6971341D02*
X6293873Y-6961817D01*
X6293873Y-6961817D02*
X6265301Y-6961817D01*
X6265301Y-6961817D02*
X6246254Y-6952293D01*
X6246254Y-6952293D02*
X6236730Y-6933246D01*
X6236730Y-6933246D02*
X6236730Y-6923722D01*
X6236730Y-6923722D02*
X6246254Y-6904674D01*
X6246254Y-6904674D02*
X6265301Y-6895150D01*
X6265301Y-6895150D02*
X6293873Y-6895150D01*
X6293873Y-6895150D02*
X6312920Y-6904674D01*
X6389111Y-7104674D02*
X6398635Y-7095150D01*
X6398635Y-7095150D02*
X6417682Y-7066579D01*
X6417682Y-7066579D02*
X6427206Y-7047531D01*
X6427206Y-7047531D02*
X6436730Y-7018960D01*
X6436730Y-7018960D02*
X6446254Y-6971341D01*
X6446254Y-6971341D02*
X6446254Y-6933246D01*
X6446254Y-6933246D02*
X6436730Y-6885627D01*
X6436730Y-6885627D02*
X6427206Y-6857055D01*
X6427206Y-6857055D02*
X6417682Y-6838008D01*
X6417682Y-6838008D02*
X6398635Y-6809436D01*
X6398635Y-6809436D02*
X6389111Y-6799912D01*
M02*
