%TF.GenerationSoftware,KiCad,Pcbnew,10.0.6*%
%TF.CreationDate,2026-10-05T18:03:55-07:00*%
%TF.ProjectId,plush-toy-v2-D,706c7573-682d-4746-9f79-2d76322d442e,rev?*%
%TF.SameCoordinates,Original*%
%TF.FileFunction,Legend,Top*%
%TF.FilePolarity,Positive*%
%FSLAX46Y46*%
G04 Gerber Fmt 4.6, Leading zero omitted, Abs format (unit mm)*
G04 Created by KiCad (PCBNEW 10.0.6) date 2026-10-05 18:03:55*
%MOMM*%
%LPD*%
G01*
G04 APERTURE LIST*
G04 Aperture macros list*
%AMRoundRect*
0 Rectangle with rounded corners*
0 $1 Rounding radius*
0 $2 $3 $4 $5 $6 $7 $8 $9 X,Y pos of 4 corners*
0 Add a 4 corners polygon primitive as box body*
4,1,4,$2,$3,$4,$5,$6,$7,$8,$9,$2,$3,0*
0 Add four circle primitives for the rounded corners*
1,1,$1+$1,$2,$3*
1,1,$1+$1,$4,$5*
1,1,$1+$1,$6,$7*
1,1,$1+$1,$8,$9*
0 Add four rect primitives between the rounded corners*
20,1,$1+$1,$2,$3,$4,$5,0*
20,1,$1+$1,$4,$5,$6,$7,0*
20,1,$1+$1,$6,$7,$8,$9,0*
20,1,$1+$1,$8,$9,$2,$3,0*%
G04 Aperture macros list end*
%ADD10C,0.150000*%
%ADD11C,0.250000*%
%ADD12C,0.060000*%
%ADD13C,0.000000*%
%ADD14C,0.120000*%
%ADD15C,0.400000*%
%ADD16C,2.200000*%
%ADD17R,1.230000X1.860000*%
%ADD18R,0.500000X1.700000*%
%ADD19R,1.200000X2.500000*%
%ADD20RoundRect,0.150000X0.150000X0.625000X-0.150000X0.625000X-0.150000X-0.625000X0.150000X-0.625000X0*%
%ADD21RoundRect,0.250000X0.350000X0.650000X-0.350000X0.650000X-0.350000X-0.650000X0.350000X-0.650000X0*%
%ADD22R,1.000000X3.500000*%
%ADD23R,1.800000X4.000000*%
%ADD24RoundRect,0.140000X-0.170000X0.140000X-0.170000X-0.140000X0.170000X-0.140000X0.170000X0.140000X0*%
%ADD25R,1.500000X3.500000*%
%ADD26RoundRect,0.140000X-0.140000X-0.170000X0.140000X-0.170000X0.140000X0.170000X-0.140000X0.170000X0*%
%ADD27R,0.300000X1.300000*%
%ADD28R,2.000000X1.600000*%
%ADD29R,3.200000X1.020000*%
%ADD30RoundRect,0.150000X-0.150000X-0.625000X0.150000X-0.625000X0.150000X0.625000X-0.150000X0.625000X0*%
%ADD31RoundRect,0.250000X-0.350000X-0.650000X0.350000X-0.650000X0.350000X0.650000X-0.350000X0.650000X0*%
%ADD32R,0.700000X1.750000*%
%ADD33R,1.200000X2.550000*%
%ADD34C,0.650000*%
%ADD35RoundRect,0.150000X-0.150000X-0.575000X0.150000X-0.575000X0.150000X0.575000X-0.150000X0.575000X0*%
%ADD36RoundRect,0.075000X-0.075000X-0.650000X0.075000X-0.650000X0.075000X0.650000X-0.075000X0.650000X0*%
%ADD37O,1.000000X2.100000*%
%ADD38O,1.000000X1.600000*%
%ADD39RoundRect,0.225000X-0.225000X-0.250000X0.225000X-0.250000X0.225000X0.250000X-0.225000X0.250000X0*%
%ADD40R,0.900000X1.500000*%
%ADD41R,1.500000X0.900000*%
%ADD42C,0.600000*%
%ADD43R,3.900000X3.900000*%
G04 APERTURE END LIST*
D10*
X9409523Y-42593247D02*
X9523809Y-42631342D01*
X9523809Y-42631342D02*
X9561904Y-42669438D01*
X9561904Y-42669438D02*
X9600000Y-42745628D01*
X9600000Y-42745628D02*
X9600000Y-42859914D01*
X9600000Y-42859914D02*
X9561904Y-42936104D01*
X9561904Y-42936104D02*
X9523809Y-42974200D01*
X9523809Y-42974200D02*
X9447619Y-43012295D01*
X9447619Y-43012295D02*
X9142857Y-43012295D01*
X9142857Y-43012295D02*
X9142857Y-42212295D01*
X9142857Y-42212295D02*
X9409523Y-42212295D01*
X9409523Y-42212295D02*
X9485714Y-42250390D01*
X9485714Y-42250390D02*
X9523809Y-42288485D01*
X9523809Y-42288485D02*
X9561904Y-42364676D01*
X9561904Y-42364676D02*
X9561904Y-42440866D01*
X9561904Y-42440866D02*
X9523809Y-42517057D01*
X9523809Y-42517057D02*
X9485714Y-42555152D01*
X9485714Y-42555152D02*
X9409523Y-42593247D01*
X9409523Y-42593247D02*
X9142857Y-42593247D01*
X9904761Y-42783723D02*
X10285714Y-42783723D01*
X9828571Y-43012295D02*
X10095238Y-42212295D01*
X10095238Y-42212295D02*
X10361904Y-43012295D01*
X10514285Y-42212295D02*
X10971428Y-42212295D01*
X10742856Y-43012295D02*
X10742856Y-42212295D01*
X11695238Y-43826283D02*
X12304762Y-43826283D01*
X13695238Y-43826283D02*
X14304762Y-43826283D01*
X14000000Y-44131045D02*
X14000000Y-43521521D01*
X19614286Y-8312295D02*
X20071429Y-8312295D01*
X19842857Y-9112295D02*
X19842857Y-8312295D01*
X20490477Y-8312295D02*
X20642858Y-8312295D01*
X20642858Y-8312295D02*
X20719048Y-8350390D01*
X20719048Y-8350390D02*
X20795239Y-8426580D01*
X20795239Y-8426580D02*
X20833334Y-8578961D01*
X20833334Y-8578961D02*
X20833334Y-8845628D01*
X20833334Y-8845628D02*
X20795239Y-8998009D01*
X20795239Y-8998009D02*
X20719048Y-9074200D01*
X20719048Y-9074200D02*
X20642858Y-9112295D01*
X20642858Y-9112295D02*
X20490477Y-9112295D01*
X20490477Y-9112295D02*
X20414286Y-9074200D01*
X20414286Y-9074200D02*
X20338096Y-8998009D01*
X20338096Y-8998009D02*
X20300000Y-8845628D01*
X20300000Y-8845628D02*
X20300000Y-8578961D01*
X20300000Y-8578961D02*
X20338096Y-8426580D01*
X20338096Y-8426580D02*
X20414286Y-8350390D01*
X20414286Y-8350390D02*
X20490477Y-8312295D01*
X21176191Y-8312295D02*
X21176191Y-8959914D01*
X21176191Y-8959914D02*
X21214286Y-9036104D01*
X21214286Y-9036104D02*
X21252381Y-9074200D01*
X21252381Y-9074200D02*
X21328572Y-9112295D01*
X21328572Y-9112295D02*
X21480953Y-9112295D01*
X21480953Y-9112295D02*
X21557143Y-9074200D01*
X21557143Y-9074200D02*
X21595238Y-9036104D01*
X21595238Y-9036104D02*
X21633334Y-8959914D01*
X21633334Y-8959914D02*
X21633334Y-8312295D01*
X22471429Y-9036104D02*
X22433333Y-9074200D01*
X22433333Y-9074200D02*
X22319048Y-9112295D01*
X22319048Y-9112295D02*
X22242857Y-9112295D01*
X22242857Y-9112295D02*
X22128571Y-9074200D01*
X22128571Y-9074200D02*
X22052381Y-8998009D01*
X22052381Y-8998009D02*
X22014286Y-8921819D01*
X22014286Y-8921819D02*
X21976190Y-8769438D01*
X21976190Y-8769438D02*
X21976190Y-8655152D01*
X21976190Y-8655152D02*
X22014286Y-8502771D01*
X22014286Y-8502771D02*
X22052381Y-8426580D01*
X22052381Y-8426580D02*
X22128571Y-8350390D01*
X22128571Y-8350390D02*
X22242857Y-8312295D01*
X22242857Y-8312295D02*
X22319048Y-8312295D01*
X22319048Y-8312295D02*
X22433333Y-8350390D01*
X22433333Y-8350390D02*
X22471429Y-8388485D01*
X22814286Y-9112295D02*
X22814286Y-8312295D01*
X22814286Y-8693247D02*
X23271429Y-8693247D01*
X23271429Y-9112295D02*
X23271429Y-8312295D01*
X24209523Y-9857355D02*
X24133333Y-9819260D01*
X24133333Y-9819260D02*
X24019047Y-9819260D01*
X24019047Y-9819260D02*
X23904761Y-9857355D01*
X23904761Y-9857355D02*
X23828571Y-9933545D01*
X23828571Y-9933545D02*
X23790476Y-10009736D01*
X23790476Y-10009736D02*
X23752380Y-10162117D01*
X23752380Y-10162117D02*
X23752380Y-10276403D01*
X23752380Y-10276403D02*
X23790476Y-10428784D01*
X23790476Y-10428784D02*
X23828571Y-10504974D01*
X23828571Y-10504974D02*
X23904761Y-10581165D01*
X23904761Y-10581165D02*
X24019047Y-10619260D01*
X24019047Y-10619260D02*
X24095238Y-10619260D01*
X24095238Y-10619260D02*
X24209523Y-10581165D01*
X24209523Y-10581165D02*
X24247619Y-10543069D01*
X24247619Y-10543069D02*
X24247619Y-10276403D01*
X24247619Y-10276403D02*
X24095238Y-10276403D01*
X29447619Y-9112295D02*
X29066667Y-9112295D01*
X29066667Y-9112295D02*
X29066667Y-8312295D01*
X30171429Y-9036104D02*
X30133333Y-9074200D01*
X30133333Y-9074200D02*
X30019048Y-9112295D01*
X30019048Y-9112295D02*
X29942857Y-9112295D01*
X29942857Y-9112295D02*
X29828571Y-9074200D01*
X29828571Y-9074200D02*
X29752381Y-8998009D01*
X29752381Y-8998009D02*
X29714286Y-8921819D01*
X29714286Y-8921819D02*
X29676190Y-8769438D01*
X29676190Y-8769438D02*
X29676190Y-8655152D01*
X29676190Y-8655152D02*
X29714286Y-8502771D01*
X29714286Y-8502771D02*
X29752381Y-8426580D01*
X29752381Y-8426580D02*
X29828571Y-8350390D01*
X29828571Y-8350390D02*
X29942857Y-8312295D01*
X29942857Y-8312295D02*
X30019048Y-8312295D01*
X30019048Y-8312295D02*
X30133333Y-8350390D01*
X30133333Y-8350390D02*
X30171429Y-8388485D01*
X30514286Y-9112295D02*
X30514286Y-8312295D01*
X30514286Y-8312295D02*
X30704762Y-8312295D01*
X30704762Y-8312295D02*
X30819048Y-8350390D01*
X30819048Y-8350390D02*
X30895238Y-8426580D01*
X30895238Y-8426580D02*
X30933333Y-8502771D01*
X30933333Y-8502771D02*
X30971429Y-8655152D01*
X30971429Y-8655152D02*
X30971429Y-8769438D01*
X30971429Y-8769438D02*
X30933333Y-8921819D01*
X30933333Y-8921819D02*
X30895238Y-8998009D01*
X30895238Y-8998009D02*
X30819048Y-9074200D01*
X30819048Y-9074200D02*
X30704762Y-9112295D01*
X30704762Y-9112295D02*
X30514286Y-9112295D01*
X28990476Y-42947295D02*
X28990476Y-43594914D01*
X28990476Y-43594914D02*
X29028571Y-43671104D01*
X29028571Y-43671104D02*
X29066666Y-43709200D01*
X29066666Y-43709200D02*
X29142857Y-43747295D01*
X29142857Y-43747295D02*
X29295238Y-43747295D01*
X29295238Y-43747295D02*
X29371428Y-43709200D01*
X29371428Y-43709200D02*
X29409523Y-43671104D01*
X29409523Y-43671104D02*
X29447619Y-43594914D01*
X29447619Y-43594914D02*
X29447619Y-42947295D01*
X29790475Y-43709200D02*
X29904761Y-43747295D01*
X29904761Y-43747295D02*
X30095237Y-43747295D01*
X30095237Y-43747295D02*
X30171428Y-43709200D01*
X30171428Y-43709200D02*
X30209523Y-43671104D01*
X30209523Y-43671104D02*
X30247618Y-43594914D01*
X30247618Y-43594914D02*
X30247618Y-43518723D01*
X30247618Y-43518723D02*
X30209523Y-43442533D01*
X30209523Y-43442533D02*
X30171428Y-43404438D01*
X30171428Y-43404438D02*
X30095237Y-43366342D01*
X30095237Y-43366342D02*
X29942856Y-43328247D01*
X29942856Y-43328247D02*
X29866666Y-43290152D01*
X29866666Y-43290152D02*
X29828571Y-43252057D01*
X29828571Y-43252057D02*
X29790475Y-43175866D01*
X29790475Y-43175866D02*
X29790475Y-43099676D01*
X29790475Y-43099676D02*
X29828571Y-43023485D01*
X29828571Y-43023485D02*
X29866666Y-42985390D01*
X29866666Y-42985390D02*
X29942856Y-42947295D01*
X29942856Y-42947295D02*
X30133333Y-42947295D01*
X30133333Y-42947295D02*
X30247618Y-42985390D01*
X30857142Y-43328247D02*
X30971428Y-43366342D01*
X30971428Y-43366342D02*
X31009523Y-43404438D01*
X31009523Y-43404438D02*
X31047619Y-43480628D01*
X31047619Y-43480628D02*
X31047619Y-43594914D01*
X31047619Y-43594914D02*
X31009523Y-43671104D01*
X31009523Y-43671104D02*
X30971428Y-43709200D01*
X30971428Y-43709200D02*
X30895238Y-43747295D01*
X30895238Y-43747295D02*
X30590476Y-43747295D01*
X30590476Y-43747295D02*
X30590476Y-42947295D01*
X30590476Y-42947295D02*
X30857142Y-42947295D01*
X30857142Y-42947295D02*
X30933333Y-42985390D01*
X30933333Y-42985390D02*
X30971428Y-43023485D01*
X30971428Y-43023485D02*
X31009523Y-43099676D01*
X31009523Y-43099676D02*
X31009523Y-43175866D01*
X31009523Y-43175866D02*
X30971428Y-43252057D01*
X30971428Y-43252057D02*
X30933333Y-43290152D01*
X30933333Y-43290152D02*
X30857142Y-43328247D01*
X30857142Y-43328247D02*
X30590476Y-43328247D01*
X33709523Y-9933545D02*
X33633333Y-9895450D01*
X33633333Y-9895450D02*
X33519047Y-9895450D01*
X33519047Y-9895450D02*
X33404761Y-9933545D01*
X33404761Y-9933545D02*
X33328571Y-10009735D01*
X33328571Y-10009735D02*
X33290476Y-10085926D01*
X33290476Y-10085926D02*
X33252380Y-10238307D01*
X33252380Y-10238307D02*
X33252380Y-10352593D01*
X33252380Y-10352593D02*
X33290476Y-10504974D01*
X33290476Y-10504974D02*
X33328571Y-10581164D01*
X33328571Y-10581164D02*
X33404761Y-10657355D01*
X33404761Y-10657355D02*
X33519047Y-10695450D01*
X33519047Y-10695450D02*
X33595238Y-10695450D01*
X33595238Y-10695450D02*
X33709523Y-10657355D01*
X33709523Y-10657355D02*
X33747619Y-10619259D01*
X33747619Y-10619259D02*
X33747619Y-10352593D01*
X33747619Y-10352593D02*
X33595238Y-10352593D01*
X39471428Y-46574199D02*
X39585714Y-46612294D01*
X39585714Y-46612294D02*
X39776190Y-46612294D01*
X39776190Y-46612294D02*
X39852381Y-46574199D01*
X39852381Y-46574199D02*
X39890476Y-46536103D01*
X39890476Y-46536103D02*
X39928571Y-46459913D01*
X39928571Y-46459913D02*
X39928571Y-46383722D01*
X39928571Y-46383722D02*
X39890476Y-46307532D01*
X39890476Y-46307532D02*
X39852381Y-46269437D01*
X39852381Y-46269437D02*
X39776190Y-46231341D01*
X39776190Y-46231341D02*
X39623809Y-46193246D01*
X39623809Y-46193246D02*
X39547619Y-46155151D01*
X39547619Y-46155151D02*
X39509524Y-46117056D01*
X39509524Y-46117056D02*
X39471428Y-46040865D01*
X39471428Y-46040865D02*
X39471428Y-45964675D01*
X39471428Y-45964675D02*
X39509524Y-45888484D01*
X39509524Y-45888484D02*
X39547619Y-45850389D01*
X39547619Y-45850389D02*
X39623809Y-45812294D01*
X39623809Y-45812294D02*
X39814286Y-45812294D01*
X39814286Y-45812294D02*
X39928571Y-45850389D01*
X40271429Y-46612294D02*
X40271429Y-45812294D01*
X40271429Y-45812294D02*
X40576191Y-45812294D01*
X40576191Y-45812294D02*
X40652381Y-45850389D01*
X40652381Y-45850389D02*
X40690476Y-45888484D01*
X40690476Y-45888484D02*
X40728572Y-45964675D01*
X40728572Y-45964675D02*
X40728572Y-46078960D01*
X40728572Y-46078960D02*
X40690476Y-46155151D01*
X40690476Y-46155151D02*
X40652381Y-46193246D01*
X40652381Y-46193246D02*
X40576191Y-46231341D01*
X40576191Y-46231341D02*
X40271429Y-46231341D01*
X41071429Y-46612294D02*
X41071429Y-45812294D01*
X41528572Y-46612294D02*
X41185714Y-46155151D01*
X41528572Y-45812294D02*
X41071429Y-46269437D01*
X42695238Y-46876283D02*
X43304762Y-46876283D01*
X43000000Y-47181045D02*
X43000000Y-46571521D01*
X43695238Y-45295807D02*
X44304762Y-45295807D01*
X46709523Y-9089259D02*
X46633333Y-9051164D01*
X46633333Y-9051164D02*
X46519047Y-9051164D01*
X46519047Y-9051164D02*
X46404761Y-9089259D01*
X46404761Y-9089259D02*
X46328571Y-9165449D01*
X46328571Y-9165449D02*
X46290476Y-9241640D01*
X46290476Y-9241640D02*
X46252380Y-9394021D01*
X46252380Y-9394021D02*
X46252380Y-9508307D01*
X46252380Y-9508307D02*
X46290476Y-9660688D01*
X46290476Y-9660688D02*
X46328571Y-9736878D01*
X46328571Y-9736878D02*
X46404761Y-9813069D01*
X46404761Y-9813069D02*
X46519047Y-9851164D01*
X46519047Y-9851164D02*
X46595238Y-9851164D01*
X46595238Y-9851164D02*
X46709523Y-9813069D01*
X46709523Y-9813069D02*
X46747619Y-9774973D01*
X46747619Y-9774973D02*
X46747619Y-9508307D01*
X46747619Y-9508307D02*
X46595238Y-9508307D01*
X45766666Y-46612294D02*
X45766666Y-45812294D01*
X45766666Y-45812294D02*
X46223809Y-46612294D01*
X46223809Y-46612294D02*
X46223809Y-45812294D01*
X46490475Y-45812294D02*
X46947618Y-45812294D01*
X46719046Y-46612294D02*
X46719046Y-45812294D01*
X47671428Y-46536103D02*
X47633332Y-46574199D01*
X47633332Y-46574199D02*
X47519047Y-46612294D01*
X47519047Y-46612294D02*
X47442856Y-46612294D01*
X47442856Y-46612294D02*
X47328570Y-46574199D01*
X47328570Y-46574199D02*
X47252380Y-46498008D01*
X47252380Y-46498008D02*
X47214285Y-46421818D01*
X47214285Y-46421818D02*
X47176189Y-46269437D01*
X47176189Y-46269437D02*
X47176189Y-46155151D01*
X47176189Y-46155151D02*
X47214285Y-46002770D01*
X47214285Y-46002770D02*
X47252380Y-45926579D01*
X47252380Y-45926579D02*
X47328570Y-45850389D01*
X47328570Y-45850389D02*
X47442856Y-45812294D01*
X47442856Y-45812294D02*
X47519047Y-45812294D01*
X47519047Y-45812294D02*
X47633332Y-45850389D01*
X47633332Y-45850389D02*
X47671428Y-45888484D01*
X50409522Y-44381521D02*
X50333332Y-44343426D01*
X50333332Y-44343426D02*
X50219046Y-44343426D01*
X50219046Y-44343426D02*
X50104760Y-44381521D01*
X50104760Y-44381521D02*
X50028570Y-44457711D01*
X50028570Y-44457711D02*
X49990475Y-44533902D01*
X49990475Y-44533902D02*
X49952379Y-44686283D01*
X49952379Y-44686283D02*
X49952379Y-44800569D01*
X49952379Y-44800569D02*
X49990475Y-44952950D01*
X49990475Y-44952950D02*
X50028570Y-45029140D01*
X50028570Y-45029140D02*
X50104760Y-45105331D01*
X50104760Y-45105331D02*
X50219046Y-45143426D01*
X50219046Y-45143426D02*
X50295237Y-45143426D01*
X50295237Y-45143426D02*
X50409522Y-45105331D01*
X50409522Y-45105331D02*
X50447618Y-45067235D01*
X50447618Y-45067235D02*
X50447618Y-44800569D01*
X50447618Y-44800569D02*
X50295237Y-44800569D01*
X50709523Y-9089259D02*
X50633333Y-9051164D01*
X50633333Y-9051164D02*
X50519047Y-9051164D01*
X50519047Y-9051164D02*
X50404761Y-9089259D01*
X50404761Y-9089259D02*
X50328571Y-9165449D01*
X50328571Y-9165449D02*
X50290476Y-9241640D01*
X50290476Y-9241640D02*
X50252380Y-9394021D01*
X50252380Y-9394021D02*
X50252380Y-9508307D01*
X50252380Y-9508307D02*
X50290476Y-9660688D01*
X50290476Y-9660688D02*
X50328571Y-9736878D01*
X50328571Y-9736878D02*
X50404761Y-9813069D01*
X50404761Y-9813069D02*
X50519047Y-9851164D01*
X50519047Y-9851164D02*
X50595238Y-9851164D01*
X50595238Y-9851164D02*
X50709523Y-9813069D01*
X50709523Y-9813069D02*
X50747619Y-9774973D01*
X50747619Y-9774973D02*
X50747619Y-9508307D01*
X50747619Y-9508307D02*
X50595238Y-9508307D01*
X50802855Y-26133723D02*
X51183808Y-26133723D01*
X50726665Y-26362295D02*
X50993332Y-25562295D01*
X50993332Y-25562295D02*
X51259998Y-26362295D01*
X51983808Y-26362295D02*
X51717141Y-25981342D01*
X51526665Y-26362295D02*
X51526665Y-25562295D01*
X51526665Y-25562295D02*
X51831427Y-25562295D01*
X51831427Y-25562295D02*
X51907617Y-25600390D01*
X51907617Y-25600390D02*
X51945712Y-25638485D01*
X51945712Y-25638485D02*
X51983808Y-25714676D01*
X51983808Y-25714676D02*
X51983808Y-25828961D01*
X51983808Y-25828961D02*
X51945712Y-25905152D01*
X51945712Y-25905152D02*
X51907617Y-25943247D01*
X51907617Y-25943247D02*
X51831427Y-25981342D01*
X51831427Y-25981342D02*
X51526665Y-25981342D01*
X52326665Y-26362295D02*
X52326665Y-25562295D01*
X52326665Y-25562295D02*
X52593331Y-26133723D01*
X52593331Y-26133723D02*
X52859998Y-25562295D01*
X52859998Y-25562295D02*
X52859998Y-26362295D01*
X54307618Y-26362295D02*
X54040951Y-25981342D01*
X53850475Y-26362295D02*
X53850475Y-25562295D01*
X53850475Y-25562295D02*
X54155237Y-25562295D01*
X54155237Y-25562295D02*
X54231427Y-25600390D01*
X54231427Y-25600390D02*
X54269522Y-25638485D01*
X54269522Y-25638485D02*
X54307618Y-25714676D01*
X54307618Y-25714676D02*
X54307618Y-25828961D01*
X54307618Y-25828961D02*
X54269522Y-25905152D01*
X54269522Y-25905152D02*
X54231427Y-25943247D01*
X54231427Y-25943247D02*
X54155237Y-25981342D01*
X54155237Y-25981342D02*
X53850475Y-25981342D01*
X50955237Y-14633723D02*
X51336190Y-14633723D01*
X50879047Y-14862295D02*
X51145714Y-14062295D01*
X51145714Y-14062295D02*
X51412380Y-14862295D01*
X52136190Y-14862295D02*
X51869523Y-14481342D01*
X51679047Y-14862295D02*
X51679047Y-14062295D01*
X51679047Y-14062295D02*
X51983809Y-14062295D01*
X51983809Y-14062295D02*
X52059999Y-14100390D01*
X52059999Y-14100390D02*
X52098094Y-14138485D01*
X52098094Y-14138485D02*
X52136190Y-14214676D01*
X52136190Y-14214676D02*
X52136190Y-14328961D01*
X52136190Y-14328961D02*
X52098094Y-14405152D01*
X52098094Y-14405152D02*
X52059999Y-14443247D01*
X52059999Y-14443247D02*
X51983809Y-14481342D01*
X51983809Y-14481342D02*
X51679047Y-14481342D01*
X52479047Y-14862295D02*
X52479047Y-14062295D01*
X52479047Y-14062295D02*
X52745713Y-14633723D01*
X52745713Y-14633723D02*
X53012380Y-14062295D01*
X53012380Y-14062295D02*
X53012380Y-14862295D01*
X54383809Y-14862295D02*
X54002857Y-14862295D01*
X54002857Y-14862295D02*
X54002857Y-14062295D01*
X53142857Y-8932295D02*
X53142857Y-8132295D01*
X53142857Y-8132295D02*
X53409523Y-8703723D01*
X53409523Y-8703723D02*
X53676190Y-8132295D01*
X53676190Y-8132295D02*
X53676190Y-8932295D01*
X54057143Y-8932295D02*
X54057143Y-8132295D01*
X54895238Y-8856104D02*
X54857142Y-8894200D01*
X54857142Y-8894200D02*
X54742857Y-8932295D01*
X54742857Y-8932295D02*
X54666666Y-8932295D01*
X54666666Y-8932295D02*
X54552380Y-8894200D01*
X54552380Y-8894200D02*
X54476190Y-8818009D01*
X54476190Y-8818009D02*
X54438095Y-8741819D01*
X54438095Y-8741819D02*
X54399999Y-8589438D01*
X54399999Y-8589438D02*
X54399999Y-8475152D01*
X54399999Y-8475152D02*
X54438095Y-8322771D01*
X54438095Y-8322771D02*
X54476190Y-8246580D01*
X54476190Y-8246580D02*
X54552380Y-8170390D01*
X54552380Y-8170390D02*
X54666666Y-8132295D01*
X54666666Y-8132295D02*
X54742857Y-8132295D01*
X54742857Y-8132295D02*
X54857142Y-8170390D01*
X54857142Y-8170390D02*
X54895238Y-8208485D01*
X55433809Y-14062295D02*
X55052857Y-14062295D01*
X55052857Y-14062295D02*
X55014761Y-14443247D01*
X55014761Y-14443247D02*
X55052857Y-14405152D01*
X55052857Y-14405152D02*
X55129047Y-14367057D01*
X55129047Y-14367057D02*
X55319523Y-14367057D01*
X55319523Y-14367057D02*
X55395714Y-14405152D01*
X55395714Y-14405152D02*
X55433809Y-14443247D01*
X55433809Y-14443247D02*
X55471904Y-14519438D01*
X55471904Y-14519438D02*
X55471904Y-14709914D01*
X55471904Y-14709914D02*
X55433809Y-14786104D01*
X55433809Y-14786104D02*
X55395714Y-14824200D01*
X55395714Y-14824200D02*
X55319523Y-14862295D01*
X55319523Y-14862295D02*
X55129047Y-14862295D01*
X55129047Y-14862295D02*
X55052857Y-14824200D01*
X55052857Y-14824200D02*
X55014761Y-14786104D01*
X55700476Y-14062295D02*
X55967143Y-14862295D01*
X55967143Y-14862295D02*
X56233809Y-14062295D01*
X55433809Y-25562295D02*
X55052857Y-25562295D01*
X55052857Y-25562295D02*
X55014761Y-25943247D01*
X55014761Y-25943247D02*
X55052857Y-25905152D01*
X55052857Y-25905152D02*
X55129047Y-25867057D01*
X55129047Y-25867057D02*
X55319523Y-25867057D01*
X55319523Y-25867057D02*
X55395714Y-25905152D01*
X55395714Y-25905152D02*
X55433809Y-25943247D01*
X55433809Y-25943247D02*
X55471904Y-26019438D01*
X55471904Y-26019438D02*
X55471904Y-26209914D01*
X55471904Y-26209914D02*
X55433809Y-26286104D01*
X55433809Y-26286104D02*
X55395714Y-26324200D01*
X55395714Y-26324200D02*
X55319523Y-26362295D01*
X55319523Y-26362295D02*
X55129047Y-26362295D01*
X55129047Y-26362295D02*
X55052857Y-26324200D01*
X55052857Y-26324200D02*
X55014761Y-26286104D01*
X55700476Y-25562295D02*
X55967143Y-26362295D01*
X55967143Y-26362295D02*
X56233809Y-25562295D01*
X56119523Y-11560390D02*
X56043333Y-11522295D01*
X56043333Y-11522295D02*
X55929047Y-11522295D01*
X55929047Y-11522295D02*
X55814761Y-11560390D01*
X55814761Y-11560390D02*
X55738571Y-11636580D01*
X55738571Y-11636580D02*
X55700476Y-11712771D01*
X55700476Y-11712771D02*
X55662380Y-11865152D01*
X55662380Y-11865152D02*
X55662380Y-11979438D01*
X55662380Y-11979438D02*
X55700476Y-12131819D01*
X55700476Y-12131819D02*
X55738571Y-12208009D01*
X55738571Y-12208009D02*
X55814761Y-12284200D01*
X55814761Y-12284200D02*
X55929047Y-12322295D01*
X55929047Y-12322295D02*
X56005238Y-12322295D01*
X56005238Y-12322295D02*
X56119523Y-12284200D01*
X56119523Y-12284200D02*
X56157619Y-12246104D01*
X56157619Y-12246104D02*
X56157619Y-11979438D01*
X56157619Y-11979438D02*
X56005238Y-11979438D01*
X56119523Y-23060389D02*
X56043333Y-23022294D01*
X56043333Y-23022294D02*
X55929047Y-23022294D01*
X55929047Y-23022294D02*
X55814761Y-23060389D01*
X55814761Y-23060389D02*
X55738571Y-23136579D01*
X55738571Y-23136579D02*
X55700476Y-23212770D01*
X55700476Y-23212770D02*
X55662380Y-23365151D01*
X55662380Y-23365151D02*
X55662380Y-23479437D01*
X55662380Y-23479437D02*
X55700476Y-23631818D01*
X55700476Y-23631818D02*
X55738571Y-23708008D01*
X55738571Y-23708008D02*
X55814761Y-23784199D01*
X55814761Y-23784199D02*
X55929047Y-23822294D01*
X55929047Y-23822294D02*
X56005238Y-23822294D01*
X56005238Y-23822294D02*
X56119523Y-23784199D01*
X56119523Y-23784199D02*
X56157619Y-23746103D01*
X56157619Y-23746103D02*
X56157619Y-23479437D01*
X56157619Y-23479437D02*
X56005238Y-23479437D01*
X55700475Y-17364200D02*
X55814761Y-17402295D01*
X55814761Y-17402295D02*
X56005237Y-17402295D01*
X56005237Y-17402295D02*
X56081428Y-17364200D01*
X56081428Y-17364200D02*
X56119523Y-17326104D01*
X56119523Y-17326104D02*
X56157618Y-17249914D01*
X56157618Y-17249914D02*
X56157618Y-17173723D01*
X56157618Y-17173723D02*
X56119523Y-17097533D01*
X56119523Y-17097533D02*
X56081428Y-17059438D01*
X56081428Y-17059438D02*
X56005237Y-17021342D01*
X56005237Y-17021342D02*
X55852856Y-16983247D01*
X55852856Y-16983247D02*
X55776666Y-16945152D01*
X55776666Y-16945152D02*
X55738571Y-16907057D01*
X55738571Y-16907057D02*
X55700475Y-16830866D01*
X55700475Y-16830866D02*
X55700475Y-16754676D01*
X55700475Y-16754676D02*
X55738571Y-16678485D01*
X55738571Y-16678485D02*
X55776666Y-16640390D01*
X55776666Y-16640390D02*
X55852856Y-16602295D01*
X55852856Y-16602295D02*
X56043333Y-16602295D01*
X56043333Y-16602295D02*
X56157618Y-16640390D01*
X55700475Y-28864200D02*
X55814761Y-28902295D01*
X55814761Y-28902295D02*
X56005237Y-28902295D01*
X56005237Y-28902295D02*
X56081428Y-28864200D01*
X56081428Y-28864200D02*
X56119523Y-28826104D01*
X56119523Y-28826104D02*
X56157618Y-28749914D01*
X56157618Y-28749914D02*
X56157618Y-28673723D01*
X56157618Y-28673723D02*
X56119523Y-28597533D01*
X56119523Y-28597533D02*
X56081428Y-28559438D01*
X56081428Y-28559438D02*
X56005237Y-28521342D01*
X56005237Y-28521342D02*
X55852856Y-28483247D01*
X55852856Y-28483247D02*
X55776666Y-28445152D01*
X55776666Y-28445152D02*
X55738571Y-28407057D01*
X55738571Y-28407057D02*
X55700475Y-28330866D01*
X55700475Y-28330866D02*
X55700475Y-28254676D01*
X55700475Y-28254676D02*
X55738571Y-28178485D01*
X55738571Y-28178485D02*
X55776666Y-28140390D01*
X55776666Y-28140390D02*
X55852856Y-28102295D01*
X55852856Y-28102295D02*
X56043333Y-28102295D01*
X56043333Y-28102295D02*
X56157618Y-28140390D01*
X56445238Y-42576283D02*
X57054762Y-42576283D01*
X56750000Y-42881045D02*
X56750000Y-42271521D01*
X56085714Y-8562294D02*
X56085714Y-7762294D01*
X56542857Y-8562294D02*
X56199999Y-8105151D01*
X56542857Y-7762294D02*
X56085714Y-8219437D01*
X56885714Y-8143246D02*
X57152380Y-8143246D01*
X57266666Y-8562294D02*
X56885714Y-8562294D01*
X56885714Y-8562294D02*
X56885714Y-7762294D01*
X56885714Y-7762294D02*
X57266666Y-7762294D01*
X57761905Y-8181341D02*
X57761905Y-8562294D01*
X57495238Y-7762294D02*
X57761905Y-8181341D01*
X57761905Y-8181341D02*
X58028571Y-7762294D01*
X56761905Y-39918318D02*
X56761905Y-39118318D01*
X56761905Y-39499270D02*
X57219048Y-39499270D01*
X57219048Y-39918318D02*
X57219048Y-39118318D01*
X57600000Y-39499270D02*
X57866666Y-39499270D01*
X57980952Y-39918318D02*
X57600000Y-39918318D01*
X57600000Y-39918318D02*
X57600000Y-39118318D01*
X57600000Y-39118318D02*
X57980952Y-39118318D01*
X58285714Y-39689746D02*
X58666667Y-39689746D01*
X58209524Y-39918318D02*
X58476191Y-39118318D01*
X58476191Y-39118318D02*
X58742857Y-39918318D01*
X58895238Y-39118318D02*
X59352381Y-39118318D01*
X59123809Y-39918318D02*
X59123809Y-39118318D01*
X54780952Y-41015797D02*
X55771428Y-41015797D01*
X54780952Y-40787225D02*
X54780952Y-41091987D01*
X54819047Y-40672939D02*
X55733333Y-40672939D01*
X54819047Y-40444368D02*
X54819047Y-40672939D01*
X55276190Y-40291987D02*
X55276190Y-41206273D01*
X54780952Y-40787225D02*
X55771428Y-40787225D01*
X55771428Y-40787225D02*
X55771428Y-41091987D01*
X54819047Y-40444368D02*
X55733333Y-40444368D01*
X55733333Y-40444368D02*
X55733333Y-40672939D01*
X56076190Y-41206273D02*
X56076190Y-40406273D01*
X56533333Y-41206273D02*
X56190475Y-40749130D01*
X56533333Y-40406273D02*
X56076190Y-40863416D01*
X56838094Y-41168178D02*
X56952380Y-41206273D01*
X56952380Y-41206273D02*
X57142856Y-41206273D01*
X57142856Y-41206273D02*
X57219047Y-41168178D01*
X57219047Y-41168178D02*
X57257142Y-41130082D01*
X57257142Y-41130082D02*
X57295237Y-41053892D01*
X57295237Y-41053892D02*
X57295237Y-40977701D01*
X57295237Y-40977701D02*
X57257142Y-40901511D01*
X57257142Y-40901511D02*
X57219047Y-40863416D01*
X57219047Y-40863416D02*
X57142856Y-40825320D01*
X57142856Y-40825320D02*
X56990475Y-40787225D01*
X56990475Y-40787225D02*
X56914285Y-40749130D01*
X56914285Y-40749130D02*
X56876190Y-40711035D01*
X56876190Y-40711035D02*
X56838094Y-40634844D01*
X56838094Y-40634844D02*
X56838094Y-40558654D01*
X56838094Y-40558654D02*
X56876190Y-40482463D01*
X56876190Y-40482463D02*
X56914285Y-40444368D01*
X56914285Y-40444368D02*
X56990475Y-40406273D01*
X56990475Y-40406273D02*
X57180952Y-40406273D01*
X57180952Y-40406273D02*
X57295237Y-40444368D01*
X57638095Y-41206273D02*
X57638095Y-40406273D01*
X57638095Y-40406273D02*
X57828571Y-40406273D01*
X57828571Y-40406273D02*
X57942857Y-40444368D01*
X57942857Y-40444368D02*
X58019047Y-40520558D01*
X58019047Y-40520558D02*
X58057142Y-40596749D01*
X58057142Y-40596749D02*
X58095238Y-40749130D01*
X58095238Y-40749130D02*
X58095238Y-40863416D01*
X58095238Y-40863416D02*
X58057142Y-41015797D01*
X58057142Y-41015797D02*
X58019047Y-41091987D01*
X58019047Y-41091987D02*
X57942857Y-41168178D01*
X57942857Y-41168178D02*
X57828571Y-41206273D01*
X57828571Y-41206273D02*
X57638095Y-41206273D01*
X58476190Y-41206273D02*
X58628571Y-41206273D01*
X58628571Y-41206273D02*
X58704761Y-41168178D01*
X58704761Y-41168178D02*
X58742857Y-41130082D01*
X58742857Y-41130082D02*
X58819047Y-41015797D01*
X58819047Y-41015797D02*
X58857142Y-40863416D01*
X58857142Y-40863416D02*
X58857142Y-40558654D01*
X58857142Y-40558654D02*
X58819047Y-40482463D01*
X58819047Y-40482463D02*
X58780952Y-40444368D01*
X58780952Y-40444368D02*
X58704761Y-40406273D01*
X58704761Y-40406273D02*
X58552380Y-40406273D01*
X58552380Y-40406273D02*
X58476190Y-40444368D01*
X58476190Y-40444368D02*
X58438095Y-40482463D01*
X58438095Y-40482463D02*
X58399999Y-40558654D01*
X58399999Y-40558654D02*
X58399999Y-40749130D01*
X58399999Y-40749130D02*
X58438095Y-40825320D01*
X58438095Y-40825320D02*
X58476190Y-40863416D01*
X58476190Y-40863416D02*
X58552380Y-40901511D01*
X58552380Y-40901511D02*
X58704761Y-40901511D01*
X58704761Y-40901511D02*
X58780952Y-40863416D01*
X58780952Y-40863416D02*
X58819047Y-40825320D01*
X58819047Y-40825320D02*
X58857142Y-40749130D01*
X59123809Y-40406273D02*
X59657143Y-40406273D01*
X59657143Y-40406273D02*
X59314285Y-41206273D01*
X60114286Y-40406273D02*
X60190476Y-40406273D01*
X60190476Y-40406273D02*
X60266667Y-40444368D01*
X60266667Y-40444368D02*
X60304762Y-40482463D01*
X60304762Y-40482463D02*
X60342857Y-40558654D01*
X60342857Y-40558654D02*
X60380952Y-40711035D01*
X60380952Y-40711035D02*
X60380952Y-40901511D01*
X60380952Y-40901511D02*
X60342857Y-41053892D01*
X60342857Y-41053892D02*
X60304762Y-41130082D01*
X60304762Y-41130082D02*
X60266667Y-41168178D01*
X60266667Y-41168178D02*
X60190476Y-41206273D01*
X60190476Y-41206273D02*
X60114286Y-41206273D01*
X60114286Y-41206273D02*
X60038095Y-41168178D01*
X60038095Y-41168178D02*
X60000000Y-41130082D01*
X60000000Y-41130082D02*
X59961905Y-41053892D01*
X59961905Y-41053892D02*
X59923809Y-40901511D01*
X59923809Y-40901511D02*
X59923809Y-40711035D01*
X59923809Y-40711035D02*
X59961905Y-40558654D01*
X59961905Y-40558654D02*
X60000000Y-40482463D01*
X60000000Y-40482463D02*
X60038095Y-40444368D01*
X60038095Y-40444368D02*
X60114286Y-40406273D01*
X60876191Y-40406273D02*
X60952381Y-40406273D01*
X60952381Y-40406273D02*
X61028572Y-40444368D01*
X61028572Y-40444368D02*
X61066667Y-40482463D01*
X61066667Y-40482463D02*
X61104762Y-40558654D01*
X61104762Y-40558654D02*
X61142857Y-40711035D01*
X61142857Y-40711035D02*
X61142857Y-40901511D01*
X61142857Y-40901511D02*
X61104762Y-41053892D01*
X61104762Y-41053892D02*
X61066667Y-41130082D01*
X61066667Y-41130082D02*
X61028572Y-41168178D01*
X61028572Y-41168178D02*
X60952381Y-41206273D01*
X60952381Y-41206273D02*
X60876191Y-41206273D01*
X60876191Y-41206273D02*
X60800000Y-41168178D01*
X60800000Y-41168178D02*
X60761905Y-41130082D01*
X60761905Y-41130082D02*
X60723810Y-41053892D01*
X60723810Y-41053892D02*
X60685714Y-40901511D01*
X60685714Y-40901511D02*
X60685714Y-40711035D01*
X60685714Y-40711035D02*
X60723810Y-40558654D01*
X60723810Y-40558654D02*
X60761905Y-40482463D01*
X60761905Y-40482463D02*
X60800000Y-40444368D01*
X60800000Y-40444368D02*
X60876191Y-40406273D01*
X59209523Y-6681639D02*
X59133333Y-6643544D01*
X59133333Y-6643544D02*
X59019047Y-6643544D01*
X59019047Y-6643544D02*
X58904761Y-6681639D01*
X58904761Y-6681639D02*
X58828571Y-6757829D01*
X58828571Y-6757829D02*
X58790476Y-6834020D01*
X58790476Y-6834020D02*
X58752380Y-6986401D01*
X58752380Y-6986401D02*
X58752380Y-7100687D01*
X58752380Y-7100687D02*
X58790476Y-7253068D01*
X58790476Y-7253068D02*
X58828571Y-7329258D01*
X58828571Y-7329258D02*
X58904761Y-7405449D01*
X58904761Y-7405449D02*
X59019047Y-7443544D01*
X59019047Y-7443544D02*
X59095238Y-7443544D01*
X59095238Y-7443544D02*
X59209523Y-7405449D01*
X59209523Y-7405449D02*
X59247619Y-7367353D01*
X59247619Y-7367353D02*
X59247619Y-7100687D01*
X59247619Y-7100687D02*
X59095238Y-7100687D01*
X58945238Y-42576283D02*
X59554762Y-42576283D01*
X24943247Y-8890238D02*
X24943247Y-8623572D01*
X25362295Y-8509286D02*
X25362295Y-8890238D01*
X25362295Y-8890238D02*
X24562295Y-8890238D01*
X24562295Y-8890238D02*
X24562295Y-8509286D01*
X24562295Y-8014047D02*
X24562295Y-7937857D01*
X24562295Y-7937857D02*
X24600390Y-7861666D01*
X24600390Y-7861666D02*
X24638485Y-7823571D01*
X24638485Y-7823571D02*
X24714676Y-7785476D01*
X24714676Y-7785476D02*
X24867057Y-7747381D01*
X24867057Y-7747381D02*
X25057533Y-7747381D01*
X25057533Y-7747381D02*
X25209914Y-7785476D01*
X25209914Y-7785476D02*
X25286104Y-7823571D01*
X25286104Y-7823571D02*
X25324200Y-7861666D01*
X25324200Y-7861666D02*
X25362295Y-7937857D01*
X25362295Y-7937857D02*
X25362295Y-8014047D01*
X25362295Y-8014047D02*
X25324200Y-8090238D01*
X25324200Y-8090238D02*
X25286104Y-8128333D01*
X25286104Y-8128333D02*
X25209914Y-8166428D01*
X25209914Y-8166428D02*
X25057533Y-8204524D01*
X25057533Y-8204524D02*
X24867057Y-8204524D01*
X24867057Y-8204524D02*
X24714676Y-8166428D01*
X24714676Y-8166428D02*
X24638485Y-8128333D01*
X24638485Y-8128333D02*
X24600390Y-8090238D01*
X24600390Y-8090238D02*
X24562295Y-8014047D01*
X31443247Y-10737382D02*
X31481342Y-10623096D01*
X31481342Y-10623096D02*
X31519438Y-10585001D01*
X31519438Y-10585001D02*
X31595628Y-10546905D01*
X31595628Y-10546905D02*
X31709914Y-10546905D01*
X31709914Y-10546905D02*
X31786104Y-10585001D01*
X31786104Y-10585001D02*
X31824200Y-10623096D01*
X31824200Y-10623096D02*
X31862295Y-10699286D01*
X31862295Y-10699286D02*
X31862295Y-11004048D01*
X31862295Y-11004048D02*
X31062295Y-11004048D01*
X31062295Y-11004048D02*
X31062295Y-10737382D01*
X31062295Y-10737382D02*
X31100390Y-10661191D01*
X31100390Y-10661191D02*
X31138485Y-10623096D01*
X31138485Y-10623096D02*
X31214676Y-10585001D01*
X31214676Y-10585001D02*
X31290866Y-10585001D01*
X31290866Y-10585001D02*
X31367057Y-10623096D01*
X31367057Y-10623096D02*
X31405152Y-10661191D01*
X31405152Y-10661191D02*
X31443247Y-10737382D01*
X31443247Y-10737382D02*
X31443247Y-11004048D01*
X31862295Y-9823096D02*
X31862295Y-10204048D01*
X31862295Y-10204048D02*
X31062295Y-10204048D01*
X32062295Y-8928334D02*
X32062295Y-8433096D01*
X32062295Y-8433096D02*
X32367057Y-8699762D01*
X32367057Y-8699762D02*
X32367057Y-8585477D01*
X32367057Y-8585477D02*
X32405152Y-8509286D01*
X32405152Y-8509286D02*
X32443247Y-8471191D01*
X32443247Y-8471191D02*
X32519438Y-8433096D01*
X32519438Y-8433096D02*
X32709914Y-8433096D01*
X32709914Y-8433096D02*
X32786104Y-8471191D01*
X32786104Y-8471191D02*
X32824200Y-8509286D01*
X32824200Y-8509286D02*
X32862295Y-8585477D01*
X32862295Y-8585477D02*
X32862295Y-8814048D01*
X32862295Y-8814048D02*
X32824200Y-8890239D01*
X32824200Y-8890239D02*
X32786104Y-8928334D01*
X32062295Y-8204524D02*
X32862295Y-7937857D01*
X32862295Y-7937857D02*
X32062295Y-7671191D01*
X34786104Y-8547380D02*
X34824200Y-8585476D01*
X34824200Y-8585476D02*
X34862295Y-8699761D01*
X34862295Y-8699761D02*
X34862295Y-8775952D01*
X34862295Y-8775952D02*
X34824200Y-8890238D01*
X34824200Y-8890238D02*
X34748009Y-8966428D01*
X34748009Y-8966428D02*
X34671819Y-9004523D01*
X34671819Y-9004523D02*
X34519438Y-9042619D01*
X34519438Y-9042619D02*
X34405152Y-9042619D01*
X34405152Y-9042619D02*
X34252771Y-9004523D01*
X34252771Y-9004523D02*
X34176580Y-8966428D01*
X34176580Y-8966428D02*
X34100390Y-8890238D01*
X34100390Y-8890238D02*
X34062295Y-8775952D01*
X34062295Y-8775952D02*
X34062295Y-8699761D01*
X34062295Y-8699761D02*
X34100390Y-8585476D01*
X34100390Y-8585476D02*
X34138485Y-8547380D01*
X34862295Y-8204523D02*
X34062295Y-8204523D01*
X34862295Y-7747380D02*
X34405152Y-8090238D01*
X34062295Y-7747380D02*
X34519438Y-8204523D01*
X35862295Y-11042143D02*
X35062295Y-11042143D01*
X35062295Y-11042143D02*
X35062295Y-10851667D01*
X35062295Y-10851667D02*
X35100390Y-10737381D01*
X35100390Y-10737381D02*
X35176580Y-10661191D01*
X35176580Y-10661191D02*
X35252771Y-10623096D01*
X35252771Y-10623096D02*
X35405152Y-10585000D01*
X35405152Y-10585000D02*
X35519438Y-10585000D01*
X35519438Y-10585000D02*
X35671819Y-10623096D01*
X35671819Y-10623096D02*
X35748009Y-10661191D01*
X35748009Y-10661191D02*
X35824200Y-10737381D01*
X35824200Y-10737381D02*
X35862295Y-10851667D01*
X35862295Y-10851667D02*
X35862295Y-11042143D01*
X35633723Y-10280239D02*
X35633723Y-9899286D01*
X35862295Y-10356429D02*
X35062295Y-10089762D01*
X35062295Y-10089762D02*
X35862295Y-9823096D01*
X36862295Y-9004523D02*
X36062295Y-9004523D01*
X36062295Y-9004523D02*
X36062295Y-8814047D01*
X36062295Y-8814047D02*
X36100390Y-8699761D01*
X36100390Y-8699761D02*
X36176580Y-8623571D01*
X36176580Y-8623571D02*
X36252771Y-8585476D01*
X36252771Y-8585476D02*
X36405152Y-8547380D01*
X36405152Y-8547380D02*
X36519438Y-8547380D01*
X36519438Y-8547380D02*
X36671819Y-8585476D01*
X36671819Y-8585476D02*
X36748009Y-8623571D01*
X36748009Y-8623571D02*
X36824200Y-8699761D01*
X36824200Y-8699761D02*
X36862295Y-8814047D01*
X36862295Y-8814047D02*
X36862295Y-9004523D01*
X36786104Y-7747380D02*
X36824200Y-7785476D01*
X36824200Y-7785476D02*
X36862295Y-7899761D01*
X36862295Y-7899761D02*
X36862295Y-7975952D01*
X36862295Y-7975952D02*
X36824200Y-8090238D01*
X36824200Y-8090238D02*
X36748009Y-8166428D01*
X36748009Y-8166428D02*
X36671819Y-8204523D01*
X36671819Y-8204523D02*
X36519438Y-8242619D01*
X36519438Y-8242619D02*
X36405152Y-8242619D01*
X36405152Y-8242619D02*
X36252771Y-8204523D01*
X36252771Y-8204523D02*
X36176580Y-8166428D01*
X36176580Y-8166428D02*
X36100390Y-8090238D01*
X36100390Y-8090238D02*
X36062295Y-7975952D01*
X36062295Y-7975952D02*
X36062295Y-7899761D01*
X36062295Y-7899761D02*
X36100390Y-7785476D01*
X36100390Y-7785476D02*
X36138485Y-7747380D01*
X37786104Y-10661191D02*
X37824200Y-10699287D01*
X37824200Y-10699287D02*
X37862295Y-10813572D01*
X37862295Y-10813572D02*
X37862295Y-10889763D01*
X37862295Y-10889763D02*
X37824200Y-11004049D01*
X37824200Y-11004049D02*
X37748009Y-11080239D01*
X37748009Y-11080239D02*
X37671819Y-11118334D01*
X37671819Y-11118334D02*
X37519438Y-11156430D01*
X37519438Y-11156430D02*
X37405152Y-11156430D01*
X37405152Y-11156430D02*
X37252771Y-11118334D01*
X37252771Y-11118334D02*
X37176580Y-11080239D01*
X37176580Y-11080239D02*
X37100390Y-11004049D01*
X37100390Y-11004049D02*
X37062295Y-10889763D01*
X37062295Y-10889763D02*
X37062295Y-10813572D01*
X37062295Y-10813572D02*
X37100390Y-10699287D01*
X37100390Y-10699287D02*
X37138485Y-10661191D01*
X37824200Y-10356430D02*
X37862295Y-10242144D01*
X37862295Y-10242144D02*
X37862295Y-10051668D01*
X37862295Y-10051668D02*
X37824200Y-9975477D01*
X37824200Y-9975477D02*
X37786104Y-9937382D01*
X37786104Y-9937382D02*
X37709914Y-9899287D01*
X37709914Y-9899287D02*
X37633723Y-9899287D01*
X37633723Y-9899287D02*
X37557533Y-9937382D01*
X37557533Y-9937382D02*
X37519438Y-9975477D01*
X37519438Y-9975477D02*
X37481342Y-10051668D01*
X37481342Y-10051668D02*
X37443247Y-10204049D01*
X37443247Y-10204049D02*
X37405152Y-10280239D01*
X37405152Y-10280239D02*
X37367057Y-10318334D01*
X37367057Y-10318334D02*
X37290866Y-10356430D01*
X37290866Y-10356430D02*
X37214676Y-10356430D01*
X37214676Y-10356430D02*
X37138485Y-10318334D01*
X37138485Y-10318334D02*
X37100390Y-10280239D01*
X37100390Y-10280239D02*
X37062295Y-10204049D01*
X37062295Y-10204049D02*
X37062295Y-10013572D01*
X37062295Y-10013572D02*
X37100390Y-9899287D01*
X38862295Y-8509286D02*
X38481342Y-8775953D01*
X38862295Y-8966429D02*
X38062295Y-8966429D01*
X38062295Y-8966429D02*
X38062295Y-8661667D01*
X38062295Y-8661667D02*
X38100390Y-8585477D01*
X38100390Y-8585477D02*
X38138485Y-8547382D01*
X38138485Y-8547382D02*
X38214676Y-8509286D01*
X38214676Y-8509286D02*
X38328961Y-8509286D01*
X38328961Y-8509286D02*
X38405152Y-8547382D01*
X38405152Y-8547382D02*
X38443247Y-8585477D01*
X38443247Y-8585477D02*
X38481342Y-8661667D01*
X38481342Y-8661667D02*
X38481342Y-8966429D01*
X38824200Y-8204525D02*
X38862295Y-8090239D01*
X38862295Y-8090239D02*
X38862295Y-7899763D01*
X38862295Y-7899763D02*
X38824200Y-7823572D01*
X38824200Y-7823572D02*
X38786104Y-7785477D01*
X38786104Y-7785477D02*
X38709914Y-7747382D01*
X38709914Y-7747382D02*
X38633723Y-7747382D01*
X38633723Y-7747382D02*
X38557533Y-7785477D01*
X38557533Y-7785477D02*
X38519438Y-7823572D01*
X38519438Y-7823572D02*
X38481342Y-7899763D01*
X38481342Y-7899763D02*
X38443247Y-8052144D01*
X38443247Y-8052144D02*
X38405152Y-8128334D01*
X38405152Y-8128334D02*
X38367057Y-8166429D01*
X38367057Y-8166429D02*
X38290866Y-8204525D01*
X38290866Y-8204525D02*
X38214676Y-8204525D01*
X38214676Y-8204525D02*
X38138485Y-8166429D01*
X38138485Y-8166429D02*
X38100390Y-8128334D01*
X38100390Y-8128334D02*
X38062295Y-8052144D01*
X38062295Y-8052144D02*
X38062295Y-7861667D01*
X38062295Y-7861667D02*
X38100390Y-7747382D01*
X47786104Y-7817380D02*
X47824200Y-7855476D01*
X47824200Y-7855476D02*
X47862295Y-7969761D01*
X47862295Y-7969761D02*
X47862295Y-8045952D01*
X47862295Y-8045952D02*
X47824200Y-8160238D01*
X47824200Y-8160238D02*
X47748009Y-8236428D01*
X47748009Y-8236428D02*
X47671819Y-8274523D01*
X47671819Y-8274523D02*
X47519438Y-8312619D01*
X47519438Y-8312619D02*
X47405152Y-8312619D01*
X47405152Y-8312619D02*
X47252771Y-8274523D01*
X47252771Y-8274523D02*
X47176580Y-8236428D01*
X47176580Y-8236428D02*
X47100390Y-8160238D01*
X47100390Y-8160238D02*
X47062295Y-8045952D01*
X47062295Y-8045952D02*
X47062295Y-7969761D01*
X47062295Y-7969761D02*
X47100390Y-7855476D01*
X47100390Y-7855476D02*
X47138485Y-7817380D01*
X47862295Y-7474523D02*
X47062295Y-7474523D01*
X47862295Y-7017380D02*
X47405152Y-7360238D01*
X47062295Y-7017380D02*
X47519438Y-7474523D01*
X48062295Y-10464524D02*
X48862295Y-10274048D01*
X48862295Y-10274048D02*
X48290866Y-10121667D01*
X48290866Y-10121667D02*
X48862295Y-9969286D01*
X48862295Y-9969286D02*
X48062295Y-9778810D01*
X48824200Y-9512143D02*
X48862295Y-9397857D01*
X48862295Y-9397857D02*
X48862295Y-9207381D01*
X48862295Y-9207381D02*
X48824200Y-9131190D01*
X48824200Y-9131190D02*
X48786104Y-9093095D01*
X48786104Y-9093095D02*
X48709914Y-9055000D01*
X48709914Y-9055000D02*
X48633723Y-9055000D01*
X48633723Y-9055000D02*
X48557533Y-9093095D01*
X48557533Y-9093095D02*
X48519438Y-9131190D01*
X48519438Y-9131190D02*
X48481342Y-9207381D01*
X48481342Y-9207381D02*
X48443247Y-9359762D01*
X48443247Y-9359762D02*
X48405152Y-9435952D01*
X48405152Y-9435952D02*
X48367057Y-9474047D01*
X48367057Y-9474047D02*
X48290866Y-9512143D01*
X48290866Y-9512143D02*
X48214676Y-9512143D01*
X48214676Y-9512143D02*
X48138485Y-9474047D01*
X48138485Y-9474047D02*
X48100390Y-9435952D01*
X48100390Y-9435952D02*
X48062295Y-9359762D01*
X48062295Y-9359762D02*
X48062295Y-9169285D01*
X48062295Y-9169285D02*
X48100390Y-9055000D01*
X49562294Y-47214523D02*
X48762294Y-47214523D01*
X48762294Y-47214523D02*
X49562294Y-46757380D01*
X49562294Y-46757380D02*
X48762294Y-46757380D01*
X48762294Y-46490714D02*
X48762294Y-46033571D01*
X49562294Y-46262143D02*
X48762294Y-46262143D01*
X49824200Y-8274524D02*
X49862295Y-8160238D01*
X49862295Y-8160238D02*
X49862295Y-7969762D01*
X49862295Y-7969762D02*
X49824200Y-7893571D01*
X49824200Y-7893571D02*
X49786104Y-7855476D01*
X49786104Y-7855476D02*
X49709914Y-7817381D01*
X49709914Y-7817381D02*
X49633723Y-7817381D01*
X49633723Y-7817381D02*
X49557533Y-7855476D01*
X49557533Y-7855476D02*
X49519438Y-7893571D01*
X49519438Y-7893571D02*
X49481342Y-7969762D01*
X49481342Y-7969762D02*
X49443247Y-8122143D01*
X49443247Y-8122143D02*
X49405152Y-8198333D01*
X49405152Y-8198333D02*
X49367057Y-8236428D01*
X49367057Y-8236428D02*
X49290866Y-8274524D01*
X49290866Y-8274524D02*
X49214676Y-8274524D01*
X49214676Y-8274524D02*
X49138485Y-8236428D01*
X49138485Y-8236428D02*
X49100390Y-8198333D01*
X49100390Y-8198333D02*
X49062295Y-8122143D01*
X49062295Y-8122143D02*
X49062295Y-7931666D01*
X49062295Y-7931666D02*
X49100390Y-7817381D01*
X49862295Y-7474523D02*
X49062295Y-7474523D01*
X49062295Y-7474523D02*
X49062295Y-7284047D01*
X49062295Y-7284047D02*
X49100390Y-7169761D01*
X49100390Y-7169761D02*
X49176580Y-7093571D01*
X49176580Y-7093571D02*
X49252771Y-7055476D01*
X49252771Y-7055476D02*
X49405152Y-7017380D01*
X49405152Y-7017380D02*
X49519438Y-7017380D01*
X49519438Y-7017380D02*
X49671819Y-7055476D01*
X49671819Y-7055476D02*
X49748009Y-7093571D01*
X49748009Y-7093571D02*
X49824200Y-7169761D01*
X49824200Y-7169761D02*
X49862295Y-7284047D01*
X49862295Y-7284047D02*
X49862295Y-7474523D01*
X51062295Y-8198333D02*
X51062295Y-7703095D01*
X51062295Y-7703095D02*
X51367057Y-7969761D01*
X51367057Y-7969761D02*
X51367057Y-7855476D01*
X51367057Y-7855476D02*
X51405152Y-7779285D01*
X51405152Y-7779285D02*
X51443247Y-7741190D01*
X51443247Y-7741190D02*
X51519438Y-7703095D01*
X51519438Y-7703095D02*
X51709914Y-7703095D01*
X51709914Y-7703095D02*
X51786104Y-7741190D01*
X51786104Y-7741190D02*
X51824200Y-7779285D01*
X51824200Y-7779285D02*
X51862295Y-7855476D01*
X51862295Y-7855476D02*
X51862295Y-8084047D01*
X51862295Y-8084047D02*
X51824200Y-8160238D01*
X51824200Y-8160238D02*
X51786104Y-8198333D01*
X51062295Y-7474523D02*
X51862295Y-7207856D01*
X51862295Y-7207856D02*
X51062295Y-6941190D01*
X60362295Y-10361189D02*
X59562295Y-10361189D01*
X59562295Y-10361189D02*
X60133723Y-10094523D01*
X60133723Y-10094523D02*
X59562295Y-9827856D01*
X59562295Y-9827856D02*
X60362295Y-9827856D01*
X59562295Y-9446903D02*
X60209914Y-9446903D01*
X60209914Y-9446903D02*
X60286104Y-9408808D01*
X60286104Y-9408808D02*
X60324200Y-9370713D01*
X60324200Y-9370713D02*
X60362295Y-9294522D01*
X60362295Y-9294522D02*
X60362295Y-9142141D01*
X60362295Y-9142141D02*
X60324200Y-9065951D01*
X60324200Y-9065951D02*
X60286104Y-9027856D01*
X60286104Y-9027856D02*
X60209914Y-8989760D01*
X60209914Y-8989760D02*
X59562295Y-8989760D01*
X61362295Y-8018808D02*
X60562295Y-8018808D01*
X60562295Y-8018808D02*
X60562295Y-7714046D01*
X60562295Y-7714046D02*
X60600390Y-7637856D01*
X60600390Y-7637856D02*
X60638485Y-7599761D01*
X60638485Y-7599761D02*
X60714676Y-7561665D01*
X60714676Y-7561665D02*
X60828961Y-7561665D01*
X60828961Y-7561665D02*
X60905152Y-7599761D01*
X60905152Y-7599761D02*
X60943247Y-7637856D01*
X60943247Y-7637856D02*
X60981342Y-7714046D01*
X60981342Y-7714046D02*
X60981342Y-8018808D01*
X60562295Y-7294999D02*
X61362295Y-7104523D01*
X61362295Y-7104523D02*
X60790866Y-6952142D01*
X60790866Y-6952142D02*
X61362295Y-6799761D01*
X61362295Y-6799761D02*
X60562295Y-6609285D01*
X30466666Y-16909199D02*
X30580952Y-16947294D01*
X30580952Y-16947294D02*
X30771428Y-16947294D01*
X30771428Y-16947294D02*
X30847619Y-16909199D01*
X30847619Y-16909199D02*
X30885714Y-16871103D01*
X30885714Y-16871103D02*
X30923809Y-16794913D01*
X30923809Y-16794913D02*
X30923809Y-16718722D01*
X30923809Y-16718722D02*
X30885714Y-16642532D01*
X30885714Y-16642532D02*
X30847619Y-16604437D01*
X30847619Y-16604437D02*
X30771428Y-16566341D01*
X30771428Y-16566341D02*
X30619047Y-16528246D01*
X30619047Y-16528246D02*
X30542857Y-16490151D01*
X30542857Y-16490151D02*
X30504762Y-16452056D01*
X30504762Y-16452056D02*
X30466666Y-16375865D01*
X30466666Y-16375865D02*
X30466666Y-16299675D01*
X30466666Y-16299675D02*
X30504762Y-16223484D01*
X30504762Y-16223484D02*
X30542857Y-16185389D01*
X30542857Y-16185389D02*
X30619047Y-16147294D01*
X30619047Y-16147294D02*
X30809524Y-16147294D01*
X30809524Y-16147294D02*
X30923809Y-16185389D01*
X31190476Y-16147294D02*
X31380952Y-16947294D01*
X31380952Y-16947294D02*
X31533333Y-16375865D01*
X31533333Y-16375865D02*
X31685714Y-16947294D01*
X31685714Y-16947294D02*
X31876191Y-16147294D01*
X31990477Y-17023484D02*
X32600000Y-17023484D01*
X33057143Y-16528246D02*
X33171429Y-16566341D01*
X33171429Y-16566341D02*
X33209524Y-16604437D01*
X33209524Y-16604437D02*
X33247620Y-16680627D01*
X33247620Y-16680627D02*
X33247620Y-16794913D01*
X33247620Y-16794913D02*
X33209524Y-16871103D01*
X33209524Y-16871103D02*
X33171429Y-16909199D01*
X33171429Y-16909199D02*
X33095239Y-16947294D01*
X33095239Y-16947294D02*
X32790477Y-16947294D01*
X32790477Y-16947294D02*
X32790477Y-16147294D01*
X32790477Y-16147294D02*
X33057143Y-16147294D01*
X33057143Y-16147294D02*
X33133334Y-16185389D01*
X33133334Y-16185389D02*
X33171429Y-16223484D01*
X33171429Y-16223484D02*
X33209524Y-16299675D01*
X33209524Y-16299675D02*
X33209524Y-16375865D01*
X33209524Y-16375865D02*
X33171429Y-16452056D01*
X33171429Y-16452056D02*
X33133334Y-16490151D01*
X33133334Y-16490151D02*
X33057143Y-16528246D01*
X33057143Y-16528246D02*
X32790477Y-16528246D01*
X33742858Y-16147294D02*
X33895239Y-16147294D01*
X33895239Y-16147294D02*
X33971429Y-16185389D01*
X33971429Y-16185389D02*
X34047620Y-16261579D01*
X34047620Y-16261579D02*
X34085715Y-16413960D01*
X34085715Y-16413960D02*
X34085715Y-16680627D01*
X34085715Y-16680627D02*
X34047620Y-16833008D01*
X34047620Y-16833008D02*
X33971429Y-16909199D01*
X33971429Y-16909199D02*
X33895239Y-16947294D01*
X33895239Y-16947294D02*
X33742858Y-16947294D01*
X33742858Y-16947294D02*
X33666667Y-16909199D01*
X33666667Y-16909199D02*
X33590477Y-16833008D01*
X33590477Y-16833008D02*
X33552381Y-16680627D01*
X33552381Y-16680627D02*
X33552381Y-16413960D01*
X33552381Y-16413960D02*
X33590477Y-16261579D01*
X33590477Y-16261579D02*
X33666667Y-16185389D01*
X33666667Y-16185389D02*
X33742858Y-16147294D01*
X34580953Y-16147294D02*
X34733334Y-16147294D01*
X34733334Y-16147294D02*
X34809524Y-16185389D01*
X34809524Y-16185389D02*
X34885715Y-16261579D01*
X34885715Y-16261579D02*
X34923810Y-16413960D01*
X34923810Y-16413960D02*
X34923810Y-16680627D01*
X34923810Y-16680627D02*
X34885715Y-16833008D01*
X34885715Y-16833008D02*
X34809524Y-16909199D01*
X34809524Y-16909199D02*
X34733334Y-16947294D01*
X34733334Y-16947294D02*
X34580953Y-16947294D01*
X34580953Y-16947294D02*
X34504762Y-16909199D01*
X34504762Y-16909199D02*
X34428572Y-16833008D01*
X34428572Y-16833008D02*
X34390476Y-16680627D01*
X34390476Y-16680627D02*
X34390476Y-16413960D01*
X34390476Y-16413960D02*
X34428572Y-16261579D01*
X34428572Y-16261579D02*
X34504762Y-16185389D01*
X34504762Y-16185389D02*
X34580953Y-16147294D01*
X35152381Y-16147294D02*
X35609524Y-16147294D01*
X35380952Y-16947294D02*
X35380952Y-16147294D01*
X9452381Y521752D02*
X9185715Y521752D01*
X9185715Y102704D02*
X9185715Y902704D01*
X9185715Y902704D02*
X9566667Y902704D01*
X9871429Y102704D02*
X9871429Y902704D01*
X9871429Y902704D02*
X10176191Y902704D01*
X10176191Y902704D02*
X10252381Y864609D01*
X10252381Y864609D02*
X10290476Y826514D01*
X10290476Y826514D02*
X10328572Y750323D01*
X10328572Y750323D02*
X10328572Y636038D01*
X10328572Y636038D02*
X10290476Y559847D01*
X10290476Y559847D02*
X10252381Y521752D01*
X10252381Y521752D02*
X10176191Y483657D01*
X10176191Y483657D02*
X9871429Y483657D01*
X11128572Y178895D02*
X11090476Y140800D01*
X11090476Y140800D02*
X10976191Y102704D01*
X10976191Y102704D02*
X10900000Y102704D01*
X10900000Y102704D02*
X10785714Y140800D01*
X10785714Y140800D02*
X10709524Y216990D01*
X10709524Y216990D02*
X10671429Y293180D01*
X10671429Y293180D02*
X10633333Y445561D01*
X10633333Y445561D02*
X10633333Y559847D01*
X10633333Y559847D02*
X10671429Y712228D01*
X10671429Y712228D02*
X10709524Y788419D01*
X10709524Y788419D02*
X10785714Y864609D01*
X10785714Y864609D02*
X10900000Y902704D01*
X10900000Y902704D02*
X10976191Y902704D01*
X10976191Y902704D02*
X11090476Y864609D01*
X11090476Y864609D02*
X11128572Y826514D01*
X11395238Y369371D02*
X11776191Y369371D01*
X11433333Y559847D02*
X11776191Y559847D01*
X11471429Y902704D02*
X11395238Y712228D01*
X11623810Y750323D02*
X11623810Y369371D01*
X11890476Y483657D02*
X12309524Y483657D01*
X11890476Y788419D02*
X11890476Y483657D01*
X11890476Y140800D02*
X12309524Y178895D01*
X12080953Y1016990D02*
X12080953Y178895D01*
X12233333Y369371D02*
X12347619Y102704D01*
X11471429Y902704D02*
X11700000Y902704D01*
X11700000Y902704D02*
X11623810Y750323D01*
X11890476Y788419D02*
X12309524Y788419D01*
X12309524Y788419D02*
X12309524Y483657D01*
X11395238Y750323D02*
X11395238Y369371D01*
X11395238Y369371D02*
X11395238Y216990D01*
X11395238Y216990D02*
X11357143Y102704D01*
X11395238Y750323D02*
X11776191Y750323D01*
X11776191Y750323D02*
X11776191Y102704D01*
X11776191Y102704D02*
X11661905Y102704D01*
X12690476Y255085D02*
X12538095Y102704D01*
X12690476Y407466D02*
X13414285Y407466D01*
X12690476Y674133D02*
X12690476Y407466D01*
X12919047Y255085D02*
X12919047Y102704D01*
X13033333Y864609D02*
X13490476Y864609D01*
X13033333Y1016990D02*
X13033333Y674133D01*
X13147619Y255085D02*
X13223809Y102704D01*
X13376190Y293180D02*
X13528571Y140800D01*
X12690476Y674133D02*
X13414285Y674133D01*
X13414285Y674133D02*
X13414285Y407466D01*
X13719047Y293180D02*
X14252380Y293180D01*
X13719047Y864609D02*
X14214285Y864609D01*
X13757142Y445561D02*
X14176190Y445561D01*
X13757142Y597942D02*
X14176190Y597942D01*
X13757142Y750323D02*
X13757142Y445561D01*
X13985714Y445561D02*
X13985714Y102704D01*
X13985714Y1016990D02*
X13985714Y750323D01*
X14328571Y445561D02*
X14709523Y445561D01*
X14366666Y712228D02*
X14709523Y712228D01*
X14557142Y102704D02*
X14709523Y102704D01*
X13757142Y750323D02*
X14176190Y750323D01*
X14176190Y750323D02*
X14176190Y445561D01*
X14366666Y940800D02*
X14328571Y445561D01*
X14328571Y445561D02*
X14290476Y216990D01*
X14366666Y940800D02*
X14709523Y940800D01*
X14709523Y940800D02*
X14709523Y102704D01*
X14899999Y940800D02*
X15890475Y940800D01*
X15357142Y712228D02*
X15814285Y483657D01*
X15357142Y940800D02*
X15357142Y102704D01*
X24923808Y-16909199D02*
X25038094Y-16947294D01*
X25038094Y-16947294D02*
X25228570Y-16947294D01*
X25228570Y-16947294D02*
X25304761Y-16909199D01*
X25304761Y-16909199D02*
X25342856Y-16871103D01*
X25342856Y-16871103D02*
X25380951Y-16794913D01*
X25380951Y-16794913D02*
X25380951Y-16718722D01*
X25380951Y-16718722D02*
X25342856Y-16642532D01*
X25342856Y-16642532D02*
X25304761Y-16604437D01*
X25304761Y-16604437D02*
X25228570Y-16566341D01*
X25228570Y-16566341D02*
X25076189Y-16528246D01*
X25076189Y-16528246D02*
X24999999Y-16490151D01*
X24999999Y-16490151D02*
X24961904Y-16452056D01*
X24961904Y-16452056D02*
X24923808Y-16375865D01*
X24923808Y-16375865D02*
X24923808Y-16299675D01*
X24923808Y-16299675D02*
X24961904Y-16223484D01*
X24961904Y-16223484D02*
X24999999Y-16185389D01*
X24999999Y-16185389D02*
X25076189Y-16147294D01*
X25076189Y-16147294D02*
X25266666Y-16147294D01*
X25266666Y-16147294D02*
X25380951Y-16185389D01*
X25647618Y-16147294D02*
X25838094Y-16947294D01*
X25838094Y-16947294D02*
X25990475Y-16375865D01*
X25990475Y-16375865D02*
X26142856Y-16947294D01*
X26142856Y-16947294D02*
X26333333Y-16147294D01*
X26447619Y-17023484D02*
X27057142Y-17023484D01*
X27704762Y-16947294D02*
X27438095Y-16566341D01*
X27247619Y-16947294D02*
X27247619Y-16147294D01*
X27247619Y-16147294D02*
X27552381Y-16147294D01*
X27552381Y-16147294D02*
X27628571Y-16185389D01*
X27628571Y-16185389D02*
X27666666Y-16223484D01*
X27666666Y-16223484D02*
X27704762Y-16299675D01*
X27704762Y-16299675D02*
X27704762Y-16413960D01*
X27704762Y-16413960D02*
X27666666Y-16490151D01*
X27666666Y-16490151D02*
X27628571Y-16528246D01*
X27628571Y-16528246D02*
X27552381Y-16566341D01*
X27552381Y-16566341D02*
X27247619Y-16566341D01*
X28009523Y-16909199D02*
X28123809Y-16947294D01*
X28123809Y-16947294D02*
X28314285Y-16947294D01*
X28314285Y-16947294D02*
X28390476Y-16909199D01*
X28390476Y-16909199D02*
X28428571Y-16871103D01*
X28428571Y-16871103D02*
X28466666Y-16794913D01*
X28466666Y-16794913D02*
X28466666Y-16718722D01*
X28466666Y-16718722D02*
X28428571Y-16642532D01*
X28428571Y-16642532D02*
X28390476Y-16604437D01*
X28390476Y-16604437D02*
X28314285Y-16566341D01*
X28314285Y-16566341D02*
X28161904Y-16528246D01*
X28161904Y-16528246D02*
X28085714Y-16490151D01*
X28085714Y-16490151D02*
X28047619Y-16452056D01*
X28047619Y-16452056D02*
X28009523Y-16375865D01*
X28009523Y-16375865D02*
X28009523Y-16299675D01*
X28009523Y-16299675D02*
X28047619Y-16223484D01*
X28047619Y-16223484D02*
X28085714Y-16185389D01*
X28085714Y-16185389D02*
X28161904Y-16147294D01*
X28161904Y-16147294D02*
X28352381Y-16147294D01*
X28352381Y-16147294D02*
X28466666Y-16185389D01*
X28695238Y-16147294D02*
X29152381Y-16147294D01*
X28923809Y-16947294D02*
X28923809Y-16147294D01*
X21690476Y-29562295D02*
X21690476Y-30209914D01*
X21690476Y-30209914D02*
X21728571Y-30286104D01*
X21728571Y-30286104D02*
X21766666Y-30324200D01*
X21766666Y-30324200D02*
X21842857Y-30362295D01*
X21842857Y-30362295D02*
X21995238Y-30362295D01*
X21995238Y-30362295D02*
X22071428Y-30324200D01*
X22071428Y-30324200D02*
X22109523Y-30286104D01*
X22109523Y-30286104D02*
X22147619Y-30209914D01*
X22147619Y-30209914D02*
X22147619Y-29562295D01*
X22947618Y-30362295D02*
X22490475Y-30362295D01*
X22719047Y-30362295D02*
X22719047Y-29562295D01*
X22719047Y-29562295D02*
X22642856Y-29676580D01*
X22642856Y-29676580D02*
X22566666Y-29752771D01*
X22566666Y-29752771D02*
X22490475Y-29790866D01*
%TO.C,SW_BOOT*%
X30970000Y-17460000D02*
X30970000Y-17890000D01*
X30970000Y-20540000D02*
X30970000Y-20110000D01*
X35030000Y-17460000D02*
X30970000Y-17460000D01*
X35030000Y-17460000D02*
X35030000Y-17890000D01*
X35030000Y-20110000D02*
X35030000Y-20540000D01*
X35030000Y-20540000D02*
X30970000Y-20540000D01*
D11*
X33900000Y-19000000D02*
G75*
G02*
X32100000Y-19000000I-900000J0D01*
G01*
X32100000Y-19000000D02*
G75*
G02*
X33900000Y-19000000I900000J0D01*
G01*
D12*
X35530000Y-17530000D02*
G75*
G02*
X35470000Y-17530000I-30000J0D01*
G01*
X35470000Y-17530000D02*
G75*
G02*
X35530000Y-17530000I30000J0D01*
G01*
%TO.C,J_KEY*%
D11*
X57320000Y-5020000D02*
X57320000Y-3170000D01*
X58520000Y-5050000D02*
X57320000Y-5050000D01*
X59520000Y-5050000D02*
X59480000Y-5050000D01*
X60520000Y-5050000D02*
X60480000Y-5050000D01*
X61270000Y-750000D02*
X58730000Y-750000D01*
X61480000Y-5050000D02*
X62680000Y-5050000D01*
X62680000Y-5050000D02*
X62680000Y-3180000D01*
D12*
X62710000Y-5800000D02*
G75*
G02*
X62650000Y-5800000I-30000J0D01*
G01*
X62650000Y-5800000D02*
G75*
G02*
X62710000Y-5800000I30000J0D01*
G01*
D13*
G36*
X61777873Y-5658022D02*
G01*
X61523873Y-5277022D01*
X62031873Y-5277022D01*
X61777873Y-5658022D01*
G37*
%TO.C,J_TOUCH*%
D14*
X22390000Y-3060000D02*
X22390000Y-5560000D01*
X22390000Y-5560000D02*
X23440000Y-5560000D01*
X25440000Y-1090000D02*
X23560000Y-1090000D01*
X25560000Y-5560000D02*
X25560000Y-6550000D01*
X26610000Y-3060000D02*
X26610000Y-5560000D01*
X26610000Y-5560000D02*
X25560000Y-5560000D01*
%TO.C,J_BAT*%
D11*
X9000000Y-46480000D02*
X9000000Y-50270000D01*
X9000000Y-46480000D02*
X9950000Y-46480000D01*
X9950000Y-46480000D02*
X9950000Y-48280000D01*
X9950000Y-48280000D02*
X11270000Y-48280000D01*
X12730000Y-48280000D02*
X13270000Y-48280000D01*
X14730000Y-48280000D02*
X16050000Y-48280000D01*
X15630000Y-54280000D02*
X10370000Y-54280000D01*
X16050000Y-46500000D02*
X17060000Y-46500000D01*
X16050000Y-48280000D02*
X16050000Y-46500000D01*
X17060000Y-46500000D02*
X17060000Y-50270000D01*
D12*
X17030000Y-45480000D02*
G75*
G02*
X16970000Y-45480000I-30000J0D01*
G01*
X16970000Y-45480000D02*
G75*
G02*
X17030000Y-45480000I30000J0D01*
G01*
%TO.C,C_CAM_AVDD*%
D14*
X11390000Y-7892164D02*
X11390000Y-8107836D01*
X12110000Y-7892164D02*
X12110000Y-8107836D01*
%TO.C,J_HEAT*%
D11*
X53000000Y-49550000D02*
X53000000Y-50850000D01*
X54300000Y-46500000D02*
X54300000Y-49550000D01*
X54300000Y-49550000D02*
X53000000Y-49550000D01*
X54750000Y-54260000D02*
X61250000Y-54260000D01*
X55770000Y-46500000D02*
X54300000Y-46500000D01*
X57750000Y-46500000D02*
X58250000Y-46500000D01*
X57890000Y-46500000D02*
X57730000Y-46500000D01*
X58250000Y-46500000D02*
X58270000Y-46500000D01*
X60230000Y-46500000D02*
X61800000Y-46500000D01*
X61800000Y-46500000D02*
X61800000Y-49450000D01*
X61800000Y-49450000D02*
X61800000Y-49550000D01*
X61800000Y-49550000D02*
X63000000Y-49550000D01*
X63000000Y-49550000D02*
X63000000Y-50850000D01*
D12*
X53030000Y-43800000D02*
G75*
G02*
X52970000Y-43800000I-30000J0D01*
G01*
X52970000Y-43800000D02*
G75*
G02*
X53030000Y-43800000I30000J0D01*
G01*
D15*
X55040000Y-45400000D02*
G75*
G02*
X54640000Y-45400000I-200000J0D01*
G01*
X54640000Y-45400000D02*
G75*
G02*
X55040000Y-45400000I200000J0D01*
G01*
%TO.C,C_U1*%
D14*
X3092164Y-40040000D02*
X3307836Y-40040000D01*
X3092164Y-40760000D02*
X3307836Y-40760000D01*
%TO.C,J_CAM*%
D11*
X4240000Y-435000D02*
X4240000Y-565000D01*
X4240000Y-4595000D02*
X4240000Y-5975000D01*
X4240000Y-5975000D02*
X6370000Y-5975000D01*
X4250000Y-535000D02*
X4240000Y-2525000D01*
D10*
X12500000Y-735000D02*
X11300000Y-135000D01*
X12500000Y-735000D02*
X12500000Y-1635000D01*
X13700000Y-135000D02*
X12500000Y-735000D01*
D11*
X18630000Y-5975000D02*
X20760000Y-5975000D01*
X20760000Y-435000D02*
X4240000Y-435000D01*
X20760000Y-2525000D02*
X20760000Y-435000D01*
X20760000Y-5975000D02*
X20760000Y-4595000D01*
D15*
X19250000Y-6585000D02*
G75*
G02*
X18850000Y-6585000I-200000J0D01*
G01*
X18850000Y-6585000D02*
G75*
G02*
X19250000Y-6585000I200000J0D01*
G01*
D12*
X20730000Y-6595000D02*
G75*
G02*
X20670000Y-6595000I-30000J0D01*
G01*
X20670000Y-6595000D02*
G75*
G02*
X20730000Y-6595000I30000J0D01*
G01*
%TO.C,J_ARM_L*%
D11*
X60235000Y-11630000D02*
X62055000Y-11630000D01*
X60235000Y-12280000D02*
X62055000Y-12280000D01*
X60235000Y-14170000D02*
X62055000Y-14170000D01*
X60235000Y-14820000D02*
X62055000Y-14820000D01*
X60235000Y-16710000D02*
X62055000Y-16710000D01*
X60235000Y-17360000D02*
X62055000Y-17360000D01*
X62055000Y-10630000D02*
X62055000Y-18360000D01*
X62055000Y-10630000D02*
X64555000Y-10630000D01*
X62055000Y-18360000D02*
X64555000Y-18360000D01*
X64555000Y-12290000D02*
X70555000Y-12290000D01*
X64555000Y-14830000D02*
X70555000Y-14830000D01*
X64555000Y-17370000D02*
X70555000Y-17370000D01*
X64555000Y-18360000D02*
X64555000Y-10630000D01*
X70555000Y-11630000D02*
X64555000Y-11630000D01*
X70555000Y-12290000D02*
X70555000Y-11630000D01*
X70555000Y-14170000D02*
X64555000Y-14170000D01*
X70555000Y-14830000D02*
X70555000Y-14170000D01*
X70555000Y-16710000D02*
X64555000Y-16710000D01*
X70555000Y-17370000D02*
X70555000Y-16710000D01*
D12*
X70585000Y-18310000D02*
G75*
G02*
X70525000Y-18310000I-30000J0D01*
G01*
X70525000Y-18310000D02*
G75*
G02*
X70585000Y-18310000I30000J0D01*
G01*
%TO.C,J_ARM_R*%
D11*
X60235000Y-23130000D02*
X62055000Y-23130000D01*
X60235000Y-23780000D02*
X62055000Y-23780000D01*
X60235000Y-25670000D02*
X62055000Y-25670000D01*
X60235000Y-26320000D02*
X62055000Y-26320000D01*
X60235000Y-28210000D02*
X62055000Y-28210000D01*
X60235000Y-28860000D02*
X62055000Y-28860000D01*
X62055000Y-22130000D02*
X62055000Y-29860000D01*
X62055000Y-22130000D02*
X64555000Y-22130000D01*
X62055000Y-29860000D02*
X64555000Y-29860000D01*
X64555000Y-23790000D02*
X70555000Y-23790000D01*
X64555000Y-26330000D02*
X70555000Y-26330000D01*
X64555000Y-28870000D02*
X70555000Y-28870000D01*
X64555000Y-29860000D02*
X64555000Y-22130000D01*
X70555000Y-23130000D02*
X64555000Y-23130000D01*
X70555000Y-23790000D02*
X70555000Y-23130000D01*
X70555000Y-25670000D02*
X64555000Y-25670000D01*
X70555000Y-26330000D02*
X70555000Y-25670000D01*
X70555000Y-28210000D02*
X64555000Y-28210000D01*
X70555000Y-28870000D02*
X70555000Y-28210000D01*
D12*
X70585000Y-29810000D02*
G75*
G02*
X70525000Y-29810000I-30000J0D01*
G01*
X70525000Y-29810000D02*
G75*
G02*
X70585000Y-29810000I30000J0D01*
G01*
%TO.C,C_CAM_DVDD*%
D14*
X10140000Y-7892164D02*
X10140000Y-8107836D01*
X10860000Y-7892164D02*
X10860000Y-8107836D01*
%TO.C,J_SPK*%
X41390000Y-49440000D02*
X42440000Y-49440000D01*
X41390000Y-51940000D02*
X41390000Y-49440000D01*
X42440000Y-49440000D02*
X42440000Y-48450000D01*
X42560000Y-53910000D02*
X44440000Y-53910000D01*
X45610000Y-49440000D02*
X44560000Y-49440000D01*
X45610000Y-51940000D02*
X45610000Y-49440000D01*
%TO.C,J_MIC*%
D11*
X44790000Y-5055000D02*
X44790000Y-3405000D01*
X44790000Y-5055000D02*
X45920000Y-5055000D01*
X51680000Y-745000D02*
X46320000Y-745000D01*
X52320000Y-5055000D02*
X53210000Y-5055000D01*
X53210000Y-5055000D02*
X53210000Y-3405000D01*
X52560000Y-5665000D02*
G75*
G02*
X52300000Y-5665000I-130000J0D01*
G01*
X52300000Y-5665000D02*
G75*
G02*
X52560000Y-5665000I130000J0D01*
G01*
D12*
X53180000Y-5795000D02*
G75*
G02*
X53120000Y-5795000I-30000J0D01*
G01*
X53120000Y-5795000D02*
G75*
G02*
X53180000Y-5795000I30000J0D01*
G01*
%TO.C,J_LCD*%
D14*
X29890000Y-3060000D02*
X29890000Y-5560000D01*
X29890000Y-5560000D02*
X30940000Y-5560000D01*
X38940000Y-1090000D02*
X31060000Y-1090000D01*
X39060000Y-5560000D02*
X39060000Y-6550000D01*
X40110000Y-3060000D02*
X40110000Y-5560000D01*
X40110000Y-5560000D02*
X39060000Y-5560000D01*
%TO.C,SW_RST*%
D10*
X24970000Y-17460000D02*
X24970000Y-17890000D01*
X24970000Y-20540000D02*
X24970000Y-20110000D01*
X29030000Y-17460000D02*
X24970000Y-17460000D01*
X29030000Y-17460000D02*
X29030000Y-17890000D01*
X29030000Y-20110000D02*
X29030000Y-20540000D01*
X29030000Y-20540000D02*
X24970000Y-20540000D01*
D11*
X27900000Y-19000000D02*
G75*
G02*
X26100000Y-19000000I-900000J0D01*
G01*
X26100000Y-19000000D02*
G75*
G02*
X27900000Y-19000000I900000J0D01*
G01*
D12*
X29530000Y-17530000D02*
G75*
G02*
X29470000Y-17530000I-30000J0D01*
G01*
X29470000Y-17530000D02*
G75*
G02*
X29530000Y-17530000I30000J0D01*
G01*
%TO.C,J_USB*%
D14*
X25300000Y-48455000D02*
X25300000Y-50455000D01*
X25300000Y-52355000D02*
X25300000Y-54255000D01*
X25300000Y-54255000D02*
X34700000Y-54255000D01*
X34700000Y-48455000D02*
X34700000Y-50455000D01*
X34700000Y-52355000D02*
X34700000Y-54255000D01*
%TO.C,C_U1_BULK*%
X3259420Y-41290000D02*
X3540580Y-41290000D01*
X3259420Y-42310000D02*
X3540580Y-42310000D01*
%TO.C,J_NTC*%
X47590000Y-49440000D02*
X48640000Y-49440000D01*
X47590000Y-51940000D02*
X47590000Y-49440000D01*
X48640000Y-49440000D02*
X48640000Y-48450000D01*
X48760000Y-53910000D02*
X50640000Y-53910000D01*
X51810000Y-49440000D02*
X50760000Y-49440000D01*
X51810000Y-51940000D02*
X51810000Y-49440000D01*
%TO.C,U1*%
X-6150000Y-20800000D02*
X50000Y-20800000D01*
X-6150000Y-39200000D02*
X-6150000Y-20800000D01*
X-6150000Y-39200000D02*
X50000Y-39200000D01*
X18700000Y-39200000D02*
X19700000Y-39200000D01*
X19700000Y-20800000D02*
X18700000Y-20800000D01*
X19700000Y-20800000D02*
X19700000Y-22300000D01*
X19700000Y-39200000D02*
X19700000Y-37700000D01*
X725000Y-39200000D02*
X725000Y-39700000D01*
X225000Y-39200000D01*
X725000Y-39200000D01*
G36*
X725000Y-39700000D02*
G01*
X225000Y-39200000D01*
X725000Y-39200000D01*
X725000Y-39700000D01*
G37*
%TD*%
%LPC*%
D16*
%TO.C,H1*%
X43000000Y-10000000D03*
%TD*%
D17*
%TO.C,SW_BOOT*%
X30820000Y-19000000D03*
X35180000Y-19000000D03*
%TD*%
D18*
%TO.C,J_KEY*%
X61000000Y-5150000D03*
X60000000Y-5150000D03*
X59000000Y-5150000D03*
D19*
X62100000Y-1750000D03*
X57900000Y-1750000D03*
%TD*%
D20*
%TO.C,J_TOUCH*%
X25000000Y-5775000D03*
X24000000Y-5775000D03*
D21*
X26300000Y-1900000D03*
X22700000Y-1900000D03*
%TD*%
D22*
%TO.C,J_BAT*%
X14000000Y-46600000D03*
X12000000Y-46600000D03*
D23*
X9590000Y-52500000D03*
X16410000Y-52500000D03*
%TD*%
D24*
%TO.C,C_CAM_AVDD*%
X11750000Y-7520000D03*
X11750000Y-8480000D03*
%TD*%
D25*
%TO.C,J_HEAT*%
X56750000Y-45350000D03*
X59250000Y-45350000D03*
X53770000Y-52750000D03*
X62230000Y-52750000D03*
%TD*%
D26*
%TO.C,C_U1*%
X2720000Y-40400000D03*
X3680000Y-40400000D03*
%TD*%
D27*
%TO.C,J_CAM*%
X18250000Y-6215000D03*
X17750000Y-6215000D03*
X17250000Y-6215000D03*
X16750000Y-6215000D03*
X16250000Y-6215000D03*
X15750000Y-6215000D03*
X15250000Y-6215000D03*
X14750000Y-6215000D03*
X14250000Y-6215000D03*
X13750000Y-6215000D03*
X13250000Y-6215000D03*
X12750000Y-6215000D03*
X12250000Y-6215000D03*
X11750000Y-6215000D03*
X11250000Y-6215000D03*
X10750000Y-6215000D03*
X10250000Y-6215000D03*
X9750000Y-6215000D03*
X9250000Y-6215000D03*
X8750000Y-6215000D03*
X8250000Y-6215000D03*
X7750000Y-6215000D03*
X7250000Y-6215000D03*
X6750000Y-6215000D03*
D28*
X5050000Y-3555000D03*
X19950000Y-3555000D03*
%TD*%
D29*
%TO.C,J_ARM_L*%
X58405000Y-17040000D03*
X58405000Y-14500000D03*
X58405000Y-11960000D03*
%TD*%
%TO.C,J_ARM_R*%
X58405000Y-28540000D03*
X58405000Y-26000000D03*
X58405000Y-23460000D03*
%TD*%
D24*
%TO.C,C_CAM_DVDD*%
X10500000Y-7520000D03*
X10500000Y-8480000D03*
%TD*%
D30*
%TO.C,J_SPK*%
X43000000Y-49225000D03*
X44000000Y-49225000D03*
D31*
X41700000Y-53100000D03*
X45300000Y-53100000D03*
%TD*%
D32*
%TO.C,J_MIC*%
X51500000Y-5495000D03*
X50500000Y-5495000D03*
X49500000Y-5495000D03*
X48500000Y-5495000D03*
X47500000Y-5495000D03*
X46500000Y-5495000D03*
D33*
X45390000Y-1775000D03*
X52610000Y-1775000D03*
%TD*%
D20*
%TO.C,J_LCD*%
X38500000Y-5775000D03*
X37500000Y-5775000D03*
X36500000Y-5775000D03*
X35500000Y-5775000D03*
X34500000Y-5775000D03*
X33500000Y-5775000D03*
X32500000Y-5775000D03*
X31500000Y-5775000D03*
D21*
X39800000Y-1900000D03*
X30200000Y-1900000D03*
%TD*%
D17*
%TO.C,SW_RST*%
X24820000Y-19000000D03*
X29180000Y-19000000D03*
%TD*%
D34*
%TO.C,J_USB*%
X27110000Y-47755000D03*
X32890000Y-47755000D03*
D35*
X26750000Y-46310000D03*
X27550000Y-46310000D03*
D36*
X28750000Y-46310000D03*
X29750000Y-46310000D03*
X30250000Y-46310000D03*
X31250000Y-46310000D03*
D35*
X32450000Y-46310000D03*
X33250000Y-46310000D03*
X33250000Y-46310000D03*
X32450000Y-46310000D03*
D36*
X31750000Y-46310000D03*
X30750000Y-46310000D03*
X29250000Y-46310000D03*
X28250000Y-46310000D03*
D35*
X27550000Y-46310000D03*
X26750000Y-46310000D03*
D37*
X25680000Y-47225000D03*
D38*
X25680000Y-51405000D03*
D37*
X34320000Y-47225000D03*
D38*
X34320000Y-51405000D03*
%TD*%
D39*
%TO.C,C_U1_BULK*%
X2625000Y-41800000D03*
X4175000Y-41800000D03*
%TD*%
D16*
%TO.C,H2*%
X3500000Y-51500000D03*
%TD*%
D30*
%TO.C,J_NTC*%
X49200000Y-49225000D03*
X50200000Y-49225000D03*
D31*
X47900000Y-53100000D03*
X51500000Y-53100000D03*
%TD*%
D40*
%TO.C,U1*%
X1490000Y-38750000D03*
X2760000Y-38750000D03*
X4030000Y-38750000D03*
X5300000Y-38750000D03*
X6570000Y-38750000D03*
X7840000Y-38750000D03*
X9110000Y-38750000D03*
X10380000Y-38750000D03*
X11650000Y-38750000D03*
X12920000Y-38750000D03*
X14190000Y-38750000D03*
X15460000Y-38750000D03*
X16730000Y-38750000D03*
X18000000Y-38750000D03*
D41*
X19250000Y-36985000D03*
X19250000Y-35715000D03*
X19250000Y-34445000D03*
X19250000Y-33175000D03*
X19250000Y-31905000D03*
X19250000Y-30635000D03*
X19250000Y-29365000D03*
X19250000Y-28095000D03*
X19250000Y-26825000D03*
X19250000Y-25555000D03*
X19250000Y-24285000D03*
X19250000Y-23015000D03*
D40*
X18000000Y-21250000D03*
X16730000Y-21250000D03*
X15460000Y-21250000D03*
X14190000Y-21250000D03*
X12920000Y-21250000D03*
X11650000Y-21250000D03*
X10380000Y-21250000D03*
X9110000Y-21250000D03*
X7840000Y-21250000D03*
X6570000Y-21250000D03*
X5300000Y-21250000D03*
X4030000Y-21250000D03*
X2760000Y-21250000D03*
X1490000Y-21250000D03*
D42*
X8510000Y-32900000D03*
X9910000Y-32900000D03*
X7810000Y-32200000D03*
X9210000Y-32200000D03*
X10610000Y-32200000D03*
X8510000Y-31500000D03*
D43*
X9210000Y-31500000D03*
D42*
X9910000Y-31500000D03*
X7810000Y-30800000D03*
X9210000Y-30800000D03*
X10610000Y-30800000D03*
X8510000Y-30100000D03*
X9910000Y-30100000D03*
%TD*%
%LPD*%
M02*
