%TF.GenerationSoftware,KiCad,Pcbnew,10.0.6*%
%TF.CreationDate,2026-10-05T18:03:55-07:00*%
%TF.ProjectId,plush-toy-v2-D,706c7573-682d-4746-9f79-2d76322d442e,rev?*%
%TF.SameCoordinates,Original*%
%TF.FileFunction,Copper,L4,Bot*%
%TF.FilePolarity,Positive*%
%FSLAX46Y46*%
G04 Gerber Fmt 4.6, Leading zero omitted, Abs format (unit mm)*
G04 Created by KiCad (PCBNEW 10.0.6) date 2026-10-05 18:03:55*
%MOMM*%
%LPD*%
G01*
G04 APERTURE LIST*
G04 Aperture macros list*
%AMRoundRect*
0 Rectangle with rounded corners*
0 $1 Rounding radius*
0 $2 $3 $4 $5 $6 $7 $8 $9 X,Y pos of 4 corners*
0 Add a 4 corners polygon primitive as box body*
4,1,4,$2,$3,$4,$5,$6,$7,$8,$9,$2,$3,0*
0 Add four circle primitives for the rounded corners*
1,1,$1+$1,$2,$3*
1,1,$1+$1,$4,$5*
1,1,$1+$1,$6,$7*
1,1,$1+$1,$8,$9*
0 Add four rect primitives between the rounded corners*
20,1,$1+$1,$2,$3,$4,$5,0*
20,1,$1+$1,$4,$5,$6,$7,0*
20,1,$1+$1,$6,$7,$8,$9,0*
20,1,$1+$1,$8,$9,$2,$3,0*%
%AMFreePoly0*
4,1,14,0.450784,0.088284,0.462500,0.060000,0.462500,0.036569,0.450784,0.008285,0.354215,-0.088284,0.325931,-0.100000,-0.422500,-0.100000,-0.450784,-0.088284,-0.462500,-0.060000,-0.462500,0.060000,-0.450784,0.088284,-0.422500,0.100000,0.422500,0.100000,0.450784,0.088284,0.450784,0.088284,$1*%
%AMFreePoly1*
4,1,14,0.354215,0.088284,0.450784,-0.008285,0.462500,-0.036569,0.462500,-0.060000,0.450784,-0.088284,0.422500,-0.100000,-0.422500,-0.100000,-0.450784,-0.088284,-0.462500,-0.060000,-0.462500,0.060000,-0.450784,0.088284,-0.422500,0.100000,0.325931,0.100000,0.354215,0.088284,0.354215,0.088284,$1*%
%AMFreePoly2*
4,1,14,0.088284,0.450784,0.100000,0.422500,0.100000,-0.422500,0.088284,-0.450784,0.060000,-0.462500,0.036569,-0.462500,0.008285,-0.450784,-0.088284,-0.354215,-0.100000,-0.325931,-0.100000,0.422500,-0.088284,0.450784,-0.060000,0.462500,0.060000,0.462500,0.088284,0.450784,0.088284,0.450784,$1*%
%AMFreePoly3*
4,1,14,0.088284,0.450784,0.100000,0.422500,0.100000,-0.325931,0.088284,-0.354215,-0.008285,-0.450784,-0.036569,-0.462500,-0.060000,-0.462500,-0.088284,-0.450784,-0.100000,-0.422500,-0.100000,0.422500,-0.088284,0.450784,-0.060000,0.462500,0.060000,0.462500,0.088284,0.450784,0.088284,0.450784,$1*%
%AMFreePoly4*
4,1,14,0.450784,0.088284,0.462500,0.060000,0.462500,-0.060000,0.450784,-0.088284,0.422500,-0.100000,-0.422500,-0.100000,-0.450784,-0.088284,-0.462500,-0.060000,-0.462500,-0.036569,-0.450784,-0.008285,-0.354215,0.088284,-0.325931,0.100000,0.422500,0.100000,0.450784,0.088284,0.450784,0.088284,$1*%
%AMFreePoly5*
4,1,14,0.450784,0.088284,0.462500,0.060000,0.462500,-0.060000,0.450784,-0.088284,0.422500,-0.100000,-0.325931,-0.100000,-0.354215,-0.088284,-0.450784,0.008285,-0.462500,0.036569,-0.462500,0.060000,-0.450784,0.088284,-0.422500,0.100000,0.422500,0.100000,0.450784,0.088284,0.450784,0.088284,$1*%
%AMFreePoly6*
4,1,14,-0.008285,0.450784,0.088284,0.354215,0.100000,0.325931,0.100000,-0.422500,0.088284,-0.450784,0.060000,-0.462500,-0.060000,-0.462500,-0.088284,-0.450784,-0.100000,-0.422500,-0.100000,0.422500,-0.088284,0.450784,-0.060000,0.462500,-0.036569,0.462500,-0.008285,0.450784,-0.008285,0.450784,$1*%
%AMFreePoly7*
4,1,14,0.088284,0.450784,0.100000,0.422500,0.100000,-0.422500,0.088284,-0.450784,0.060000,-0.462500,-0.060000,-0.462500,-0.088284,-0.450784,-0.100000,-0.422500,-0.100000,0.325931,-0.088284,0.354215,0.008285,0.450784,0.036569,0.462500,0.060000,0.462500,0.088284,0.450784,0.088284,0.450784,$1*%
G04 Aperture macros list end*
%TA.AperFunction,ComponentPad*%
%ADD10O,1.000000X2.100000*%
%TD*%
%TA.AperFunction,ComponentPad*%
%ADD11O,1.000000X1.600000*%
%TD*%
%TA.AperFunction,HeatsinkPad*%
%ADD12C,0.600000*%
%TD*%
%TA.AperFunction,SMDPad,CuDef*%
%ADD13RoundRect,0.140000X-0.140000X-0.170000X0.140000X-0.170000X0.140000X0.170000X-0.140000X0.170000X0*%
%TD*%
%TA.AperFunction,SMDPad,CuDef*%
%ADD14C,1.000000*%
%TD*%
%TA.AperFunction,SMDPad,CuDef*%
%ADD15RoundRect,0.250000X0.475000X-0.250000X0.475000X0.250000X-0.475000X0.250000X-0.475000X-0.250000X0*%
%TD*%
%TA.AperFunction,SMDPad,CuDef*%
%ADD16RoundRect,0.135000X-0.185000X0.135000X-0.185000X-0.135000X0.185000X-0.135000X0.185000X0.135000X0*%
%TD*%
%TA.AperFunction,SMDPad,CuDef*%
%ADD17RoundRect,0.200000X-0.200000X-0.275000X0.200000X-0.275000X0.200000X0.275000X-0.200000X0.275000X0*%
%TD*%
%TA.AperFunction,SMDPad,CuDef*%
%ADD18RoundRect,0.140000X-0.170000X0.140000X-0.170000X-0.140000X0.170000X-0.140000X0.170000X0.140000X0*%
%TD*%
%TA.AperFunction,SMDPad,CuDef*%
%ADD19RoundRect,0.050000X-0.300000X0.150000X-0.300000X-0.150000X0.300000X-0.150000X0.300000X0.150000X0*%
%TD*%
%TA.AperFunction,SMDPad,CuDef*%
%ADD20R,1.800000X4.700000*%
%TD*%
%TA.AperFunction,SMDPad,CuDef*%
%ADD21RoundRect,0.250000X-0.250000X-0.475000X0.250000X-0.475000X0.250000X0.475000X-0.250000X0.475000X0*%
%TD*%
%TA.AperFunction,SMDPad,CuDef*%
%ADD22RoundRect,0.135000X-0.135000X-0.185000X0.135000X-0.185000X0.135000X0.185000X-0.135000X0.185000X0*%
%TD*%
%TA.AperFunction,SMDPad,CuDef*%
%ADD23RoundRect,0.050000X-0.150000X-0.300000X0.150000X-0.300000X0.150000X0.300000X-0.150000X0.300000X0*%
%TD*%
%TA.AperFunction,SMDPad,CuDef*%
%ADD24RoundRect,0.150000X-0.587500X-0.150000X0.587500X-0.150000X0.587500X0.150000X-0.587500X0.150000X0*%
%TD*%
%TA.AperFunction,SMDPad,CuDef*%
%ADD25RoundRect,0.250000X0.250000X0.475000X-0.250000X0.475000X-0.250000X-0.475000X0.250000X-0.475000X0*%
%TD*%
%TA.AperFunction,SMDPad,CuDef*%
%ADD26RoundRect,0.225000X-0.250000X0.225000X-0.250000X-0.225000X0.250000X-0.225000X0.250000X0.225000X0*%
%TD*%
%TA.AperFunction,SMDPad,CuDef*%
%ADD27RoundRect,0.250000X-0.475000X0.250000X-0.475000X-0.250000X0.475000X-0.250000X0.475000X0.250000X0*%
%TD*%
%TA.AperFunction,SMDPad,CuDef*%
%ADD28RoundRect,0.075000X0.650000X0.075000X-0.650000X0.075000X-0.650000X-0.075000X0.650000X-0.075000X0*%
%TD*%
%TA.AperFunction,SMDPad,CuDef*%
%ADD29RoundRect,0.135000X0.185000X-0.135000X0.185000X0.135000X-0.185000X0.135000X-0.185000X-0.135000X0*%
%TD*%
%TA.AperFunction,SMDPad,CuDef*%
%ADD30FreePoly0,90.000000*%
%TD*%
%TA.AperFunction,SMDPad,CuDef*%
%ADD31RoundRect,0.050000X0.050000X-0.412500X0.050000X0.412500X-0.050000X0.412500X-0.050000X-0.412500X0*%
%TD*%
%TA.AperFunction,SMDPad,CuDef*%
%ADD32FreePoly1,90.000000*%
%TD*%
%TA.AperFunction,SMDPad,CuDef*%
%ADD33FreePoly2,90.000000*%
%TD*%
%TA.AperFunction,SMDPad,CuDef*%
%ADD34RoundRect,0.050000X0.412500X-0.050000X0.412500X0.050000X-0.412500X0.050000X-0.412500X-0.050000X0*%
%TD*%
%TA.AperFunction,SMDPad,CuDef*%
%ADD35FreePoly3,90.000000*%
%TD*%
%TA.AperFunction,SMDPad,CuDef*%
%ADD36FreePoly4,90.000000*%
%TD*%
%TA.AperFunction,SMDPad,CuDef*%
%ADD37FreePoly5,90.000000*%
%TD*%
%TA.AperFunction,SMDPad,CuDef*%
%ADD38FreePoly6,90.000000*%
%TD*%
%TA.AperFunction,SMDPad,CuDef*%
%ADD39FreePoly7,90.000000*%
%TD*%
%TA.AperFunction,SMDPad,CuDef*%
%ADD40R,1.100000X3.700000*%
%TD*%
%TA.AperFunction,SMDPad,CuDef*%
%ADD41RoundRect,0.250000X-0.375000X-0.625000X0.375000X-0.625000X0.375000X0.625000X-0.375000X0.625000X0*%
%TD*%
%TA.AperFunction,SMDPad,CuDef*%
%ADD42RoundRect,0.140000X0.140000X0.170000X-0.140000X0.170000X-0.140000X-0.170000X0.140000X-0.170000X0*%
%TD*%
%TA.AperFunction,SMDPad,CuDef*%
%ADD43R,0.600000X1.200000*%
%TD*%
%TA.AperFunction,SMDPad,CuDef*%
%ADD44R,2.000000X2.000000*%
%TD*%
%TA.AperFunction,SMDPad,CuDef*%
%ADD45RoundRect,0.150000X-0.512500X-0.150000X0.512500X-0.150000X0.512500X0.150000X-0.512500X0.150000X0*%
%TD*%
%TA.AperFunction,SMDPad,CuDef*%
%ADD46RoundRect,0.150000X-0.150000X0.512500X-0.150000X-0.512500X0.150000X-0.512500X0.150000X0.512500X0*%
%TD*%
%TA.AperFunction,SMDPad,CuDef*%
%ADD47RoundRect,0.062500X-0.237500X-0.062500X0.237500X-0.062500X0.237500X0.062500X-0.237500X0.062500X0*%
%TD*%
%TA.AperFunction,HeatsinkPad*%
%ADD48C,0.500000*%
%TD*%
%TA.AperFunction,HeatsinkPad*%
%ADD49R,0.900000X1.600000*%
%TD*%
%TA.AperFunction,SMDPad,CuDef*%
%ADD50R,0.500000X0.280000*%
%TD*%
%TA.AperFunction,SMDPad,CuDef*%
%ADD51R,0.280000X0.500000*%
%TD*%
%TA.AperFunction,SMDPad,CuDef*%
%ADD52RoundRect,0.150000X-0.150000X0.587500X-0.150000X-0.587500X0.150000X-0.587500X0.150000X0.587500X0*%
%TD*%
%TA.AperFunction,SMDPad,CuDef*%
%ADD53RoundRect,0.062500X-0.350000X-0.062500X0.350000X-0.062500X0.350000X0.062500X-0.350000X0.062500X0*%
%TD*%
%TA.AperFunction,SMDPad,CuDef*%
%ADD54RoundRect,0.062500X-0.062500X-0.350000X0.062500X-0.350000X0.062500X0.350000X-0.062500X0.350000X0*%
%TD*%
%TA.AperFunction,HeatsinkPad*%
%ADD55R,1.230000X1.230000*%
%TD*%
%TA.AperFunction,ViaPad*%
%ADD56C,0.600000*%
%TD*%
%TA.AperFunction,ViaPad*%
%ADD57C,0.800000*%
%TD*%
%TA.AperFunction,Conductor*%
%ADD58C,0.200000*%
%TD*%
%TA.AperFunction,Conductor*%
%ADD59C,0.400000*%
%TD*%
%TA.AperFunction,Conductor*%
%ADD60C,0.250000*%
%TD*%
%TA.AperFunction,Conductor*%
%ADD61C,0.280000*%
%TD*%
%TA.AperFunction,Conductor*%
%ADD62C,0.300000*%
%TD*%
%TA.AperFunction,Conductor*%
%ADD63C,0.250200*%
%TD*%
%TA.AperFunction,Conductor*%
%ADD64C,0.200200*%
%TD*%
%TA.AperFunction,Conductor*%
%ADD65C,0.150000*%
%TD*%
%TA.AperFunction,Conductor*%
%ADD66C,0.600000*%
%TD*%
%TA.AperFunction,Conductor*%
%ADD67C,0.450000*%
%TD*%
G04 APERTURE END LIST*
D10*
%TO.P,J_USB,SH*%
%TO.N,GND*%
X25680000Y-47225000D03*
D11*
X25680000Y-51405000D03*
D10*
X34320000Y-47225000D03*
D11*
X34320000Y-51405000D03*
%TD*%
D12*
%TO.P,U1,41*%
%TO.N,GND*%
X8510000Y-32900000D03*
X9910000Y-32900000D03*
X7810000Y-32200000D03*
X9210000Y-32200000D03*
X10610000Y-32200000D03*
X8510000Y-31500000D03*
X9910000Y-31500000D03*
X7810000Y-30800000D03*
X9210000Y-30800000D03*
X10610000Y-30800000D03*
X8510000Y-30100000D03*
X9910000Y-30100000D03*
%TD*%
D13*
%TO.P,C_AMP,1*%
%TO.N,VSYS*%
X39570000Y-41750000D03*
%TO.P,C_AMP,2*%
%TO.N,GND*%
X40530000Y-41750000D03*
%TD*%
D14*
%TO.P,TP_GND,1*%
%TO.N,GND*%
X44000000Y-3000000D03*
%TD*%
D15*
%TO.P,C_VSYS2,1*%
%TO.N,VSYS*%
X40300000Y-36750000D03*
%TO.P,C_VSYS2,2*%
%TO.N,GND*%
X40300000Y-34850000D03*
%TD*%
D16*
%TO.P,R_CC_SUM2,1*%
%TO.N,CC2*%
X33000000Y-49740000D03*
%TO.P,R_CC_SUM2,2*%
%TO.N,CC_SENSE*%
X33000000Y-50760000D03*
%TD*%
D17*
%TO.P,RT_BAT,1*%
%TO.N,BAT_NTC_SENSE*%
X12175000Y-49500000D03*
%TO.P,RT_BAT,2*%
%TO.N,GND*%
X13825000Y-49500000D03*
%TD*%
D13*
%TO.P,C_LDO28_OUT,1*%
%TO.N,+2V8*%
X8820000Y-16350000D03*
%TO.P,C_LDO28_OUT,2*%
%TO.N,GND*%
X9780000Y-16350000D03*
%TD*%
D18*
%TO.P,C_ADC,1*%
%TO.N,+3V3*%
X32700000Y-31020000D03*
%TO.P,C_ADC,2*%
%TO.N,GND*%
X32700000Y-31980000D03*
%TD*%
D19*
%TO.P,D_ESD_MUTE,1*%
%TO.N,KEY_MUTE*%
X62250000Y-7650000D03*
%TO.P,D_ESD_MUTE,2*%
%TO.N,GND*%
X62250000Y-8350000D03*
%TD*%
D20*
%TO.P,L_CHG,1*%
%TO.N,CHG_SW*%
X35950000Y-25000000D03*
%TO.P,L_CHG,2*%
%TO.N,VBAT*%
X40050000Y-25000000D03*
%TD*%
D16*
%TO.P,R_TOUCH_REXT,1*%
%TO.N,TOUCH_REXT*%
X23000000Y-31240000D03*
%TO.P,R_TOUCH_REXT,2*%
%TO.N,GND*%
X23000000Y-32260000D03*
%TD*%
D13*
%TO.P,C_TOUCH_VREG,1*%
%TO.N,TOUCH_VREG*%
X25070000Y-33750000D03*
%TO.P,C_TOUCH_VREG,2*%
%TO.N,GND*%
X26030000Y-33750000D03*
%TD*%
D21*
%TO.P,C_VSYS1,1*%
%TO.N,VSYS*%
X41450000Y-38700000D03*
%TO.P,C_VSYS1,2*%
%TO.N,GND*%
X43350000Y-38700000D03*
%TD*%
D16*
%TO.P,R_CC1,1*%
%TO.N,CC1*%
X28500000Y-50240000D03*
%TO.P,R_CC1,2*%
%TO.N,GND*%
X28500000Y-51260000D03*
%TD*%
D22*
%TO.P,R_BATN_PD,1*%
%TO.N,BATN_GATE*%
X23490000Y-46250000D03*
%TO.P,R_BATN_PD,2*%
%TO.N,GND*%
X24510000Y-46250000D03*
%TD*%
%TO.P,R_VBAT_TOP,1*%
%TO.N,VBAT*%
X12740000Y-51000000D03*
%TO.P,R_VBAT_TOP,2*%
%TO.N,VBAT_SENSE*%
X13760000Y-51000000D03*
%TD*%
%TO.P,R_BATP_BYP,1*%
%TO.N,VBAT*%
X19740000Y-40500000D03*
%TO.P,R_BATP_BYP,2*%
%TO.N,VBAT_PACK*%
X20760000Y-40500000D03*
%TD*%
%TO.P,R_SCL,1*%
%TO.N,I2C_SCL*%
X21490000Y-26500000D03*
%TO.P,R_SCL,2*%
%TO.N,+3V3*%
X22510000Y-26500000D03*
%TD*%
D23*
%TO.P,D_ESD_PWR,1*%
%TO.N,KEY_PWR*%
X60150000Y-8000000D03*
%TO.P,D_ESD_PWR,2*%
%TO.N,GND*%
X60850000Y-8000000D03*
%TD*%
D13*
%TO.P,C_MIC,1*%
%TO.N,+3V3*%
X48770000Y-7750000D03*
%TO.P,C_MIC,2*%
%TO.N,GND*%
X49730000Y-7750000D03*
%TD*%
D16*
%TO.P,R_BATN_G,1*%
%TO.N,VBAT_PACK*%
X27500000Y-42990000D03*
%TO.P,R_BATN_G,2*%
%TO.N,BATN_GATE*%
X27500000Y-44010000D03*
%TD*%
D24*
%TO.P,Q_HEAT,1*%
%TO.N,HEAT_GATE*%
X57062500Y-49950000D03*
%TO.P,Q_HEAT,2*%
%TO.N,GND*%
X57062500Y-48050000D03*
%TO.P,Q_HEAT,3*%
%TO.N,HEAT_LOW*%
X58937500Y-49000000D03*
%TD*%
D22*
%TO.P,R_CAM_PWDN,1*%
%TO.N,CAM_PWDN*%
X11990000Y-5000000D03*
%TO.P,R_CAM_PWDN,2*%
%TO.N,GND*%
X13010000Y-5000000D03*
%TD*%
D16*
%TO.P,R_BAT_NTC,1*%
%TO.N,+3V3*%
X15500000Y-48990000D03*
%TO.P,R_BAT_NTC,2*%
%TO.N,BAT_NTC_SENSE*%
X15500000Y-50010000D03*
%TD*%
D23*
%TO.P,D_ESD_TOUCH,1*%
%TO.N,TOUCH_E0*%
X25650000Y-8000000D03*
%TO.P,D_ESD_TOUCH,2*%
%TO.N,GND*%
X26350000Y-8000000D03*
%TD*%
D13*
%TO.P,C_EN,1*%
%TO.N,EN*%
X27270000Y-20250000D03*
%TO.P,C_EN,2*%
%TO.N,GND*%
X28230000Y-20250000D03*
%TD*%
D25*
%TO.P,C_BUCK_OUT2,1*%
%TO.N,+3V3*%
X53700000Y-20050000D03*
%TO.P,C_BUCK_OUT2,2*%
%TO.N,GND*%
X51800000Y-20050000D03*
%TD*%
D21*
%TO.P,C_SERVO3,1*%
%TO.N,VSYS*%
X58300000Y-28250000D03*
%TO.P,C_SERVO3,2*%
%TO.N,GND*%
X60200000Y-28250000D03*
%TD*%
D26*
%TO.P,C_BUCK_IN,1*%
%TO.N,VSYS*%
X44350000Y-16725000D03*
%TO.P,C_BUCK_IN,2*%
%TO.N,GND*%
X44350000Y-18275000D03*
%TD*%
D22*
%TO.P,R_LCD_CLK,1*%
%TO.N,LCD_CLK*%
X32740000Y-9000000D03*
%TO.P,R_LCD_CLK,2*%
%TO.N,LCD_CLK_S*%
X33760000Y-9000000D03*
%TD*%
D27*
%TO.P,C_BUCK_OUT1,1*%
%TO.N,+3V3*%
X54250000Y-15900000D03*
%TO.P,C_BUCK_OUT1,2*%
%TO.N,GND*%
X54250000Y-17800000D03*
%TD*%
D14*
%TO.P,TP_CC,1*%
%TO.N,CC_SENSE*%
X49500000Y-3000000D03*
%TD*%
D22*
%TO.P,R_KEY_MUTE_PU,1*%
%TO.N,+3V3*%
X57990000Y-7750000D03*
%TO.P,R_KEY_MUTE_PU,2*%
%TO.N,KEY_MUTE*%
X59010000Y-7750000D03*
%TD*%
D13*
%TO.P,C_NTC,1*%
%TO.N,NTC_SENSE*%
X50020000Y-52500000D03*
%TO.P,C_NTC,2*%
%TO.N,GND*%
X50980000Y-52500000D03*
%TD*%
D14*
%TO.P,TP_BOOT,1*%
%TO.N,BOOT*%
X60500000Y-3000000D03*
%TD*%
D22*
%TO.P,R_SERVO_R_PD,1*%
%TO.N,SERVO_R_PWM*%
X56990000Y-24250000D03*
%TO.P,R_SERVO_R_PD,2*%
%TO.N,GND*%
X58010000Y-24250000D03*
%TD*%
%TO.P,R_VBAT_BOT,1*%
%TO.N,VBAT_SENSE*%
X12240000Y-48000000D03*
%TO.P,R_VBAT_BOT,2*%
%TO.N,GND*%
X13260000Y-48000000D03*
%TD*%
D18*
%TO.P,C_VBAT_SENSE,1*%
%TO.N,VBAT_SENSE*%
X11500000Y-51020000D03*
%TO.P,C_VBAT_SENSE,2*%
%TO.N,GND*%
X11500000Y-51980000D03*
%TD*%
D28*
%TO.P,U_ADC,1*%
%TO.N,GND*%
X38650000Y-30000000D03*
%TO.P,U_ADC,2*%
%TO.N,unconnected-(U_ADC-ALERT{slash}RDY-Pad2)*%
X38650000Y-30500000D03*
%TO.P,U_ADC,3*%
%TO.N,GND*%
X38650000Y-31000000D03*
%TO.P,U_ADC,4*%
%TO.N,NTC_SENSE*%
X38650000Y-31500000D03*
%TO.P,U_ADC,5*%
%TO.N,VBAT_SENSE*%
X38650000Y-32000000D03*
%TO.P,U_ADC,6*%
%TO.N,CC_SENSE*%
X34350000Y-32000000D03*
%TO.P,U_ADC,7*%
%TO.N,BAT_NTC_SENSE*%
X34350000Y-31500000D03*
%TO.P,U_ADC,8*%
%TO.N,+3V3*%
X34350000Y-31000000D03*
%TO.P,U_ADC,9*%
%TO.N,I2C_SDA*%
X34350000Y-30500000D03*
%TO.P,U_ADC,10*%
%TO.N,I2C_SCL*%
X34350000Y-30000000D03*
%TD*%
D22*
%TO.P,R_BATP_PU,1*%
%TO.N,VBAT*%
X20990000Y-45500000D03*
%TO.P,R_BATP_PU,2*%
%TO.N,BATP_GATE*%
X22010000Y-45500000D03*
%TD*%
%TO.P,R_EFUSE_ILM,1*%
%TO.N,EFUSE_ILM*%
X35690000Y-41950000D03*
%TO.P,R_EFUSE_ILM,2*%
%TO.N,GND*%
X36710000Y-41950000D03*
%TD*%
D14*
%TO.P,TP_EN,1*%
%TO.N,EN*%
X55000000Y-3000000D03*
%TD*%
D29*
%TO.P,R_SIOC,1*%
%TO.N,CAM_SIOC*%
X8000000Y-9010000D03*
%TO.P,R_SIOC,2*%
%TO.N,+2V8*%
X8000000Y-7990000D03*
%TD*%
D21*
%TO.P,C_SERVO1,1*%
%TO.N,VSYS*%
X57550000Y-14500000D03*
%TO.P,C_SERVO1,2*%
%TO.N,GND*%
X59450000Y-14500000D03*
%TD*%
%TO.P,C_CHG_VIN,1*%
%TO.N,VUSB*%
X40850000Y-29300000D03*
%TO.P,C_CHG_VIN,2*%
%TO.N,GND*%
X42750000Y-29300000D03*
%TD*%
D22*
%TO.P,R_AMP_SD,1*%
%TO.N,VSYS*%
X40240000Y-47500000D03*
%TO.P,R_AMP_SD,2*%
%TO.N,AMP_SD*%
X41260000Y-47500000D03*
%TD*%
%TO.P,R_GATE_PD,1*%
%TO.N,HEAT_GATE*%
X56740000Y-46500000D03*
%TO.P,R_GATE_PD,2*%
%TO.N,GND*%
X57760000Y-46500000D03*
%TD*%
D18*
%TO.P,C_EFUSE_IN,1*%
%TO.N,VBUS_FUSED*%
X32850000Y-39920000D03*
%TO.P,C_EFUSE_IN,2*%
%TO.N,GND*%
X32850000Y-40880000D03*
%TD*%
D30*
%TO.P,U_TOUCH,1*%
%TO.N,unconnected-(U_TOUCH-~{IRQ}-Pad1)*%
X26800000Y-32387500D03*
D31*
%TO.P,U_TOUCH,2*%
%TO.N,I2C_SCL*%
X26400000Y-32387500D03*
%TO.P,U_TOUCH,3*%
%TO.N,I2C_SDA*%
X26000000Y-32387500D03*
%TO.P,U_TOUCH,4*%
%TO.N,GND*%
X25600000Y-32387500D03*
D32*
%TO.P,U_TOUCH,5*%
%TO.N,TOUCH_VREG*%
X25200000Y-32387500D03*
D33*
%TO.P,U_TOUCH,6*%
%TO.N,GND*%
X24612500Y-31800000D03*
D34*
%TO.P,U_TOUCH,7*%
%TO.N,TOUCH_REXT*%
X24612500Y-31400000D03*
%TO.P,U_TOUCH,8*%
%TO.N,TOUCH_E0*%
X24612500Y-31000000D03*
%TO.P,U_TOUCH,9*%
%TO.N,unconnected-(U_TOUCH-ELE1-Pad9)*%
X24612500Y-30600000D03*
D35*
%TO.P,U_TOUCH,10*%
%TO.N,unconnected-(U_TOUCH-ELE2-Pad10)*%
X24612500Y-30200000D03*
D36*
%TO.P,U_TOUCH,11*%
%TO.N,unconnected-(U_TOUCH-ELE3-Pad11)*%
X25200000Y-29612500D03*
D31*
%TO.P,U_TOUCH,12*%
%TO.N,HEAT_GATE_DRV*%
X25600000Y-29612500D03*
%TO.P,U_TOUCH,13*%
%TO.N,KEY_MUTE*%
X26000000Y-29612500D03*
%TO.P,U_TOUCH,14*%
%TO.N,unconnected-(U_TOUCH-LED2{slash}ELE6-Pad14)*%
X26400000Y-29612500D03*
D37*
%TO.P,U_TOUCH,15*%
%TO.N,unconnected-(U_TOUCH-LED3{slash}ELE7-Pad15)*%
X26800000Y-29612500D03*
D38*
%TO.P,U_TOUCH,16*%
%TO.N,unconnected-(U_TOUCH-LED4{slash}ELE8-Pad16)*%
X27387500Y-30200000D03*
D34*
%TO.P,U_TOUCH,17*%
%TO.N,unconnected-(U_TOUCH-LED5{slash}ELE9-Pad17)*%
X27387500Y-30600000D03*
%TO.P,U_TOUCH,18*%
%TO.N,unconnected-(U_TOUCH-LED6{slash}ELE10-Pad18)*%
X27387500Y-31000000D03*
%TO.P,U_TOUCH,19*%
%TO.N,unconnected-(U_TOUCH-LED7{slash}ELE11-Pad19)*%
X27387500Y-31400000D03*
D39*
%TO.P,U_TOUCH,20*%
%TO.N,+3V3*%
X27387500Y-31800000D03*
%TD*%
D16*
%TO.P,R_FB2,1*%
%TO.N,BUCK_FB*%
X44550000Y-19640000D03*
%TO.P,R_FB2,2*%
%TO.N,GND*%
X44550000Y-20660000D03*
%TD*%
D13*
%TO.P,C_BUCK_HF,1*%
%TO.N,VSYS*%
X45170000Y-15300000D03*
%TO.P,C_BUCK_HF,2*%
%TO.N,GND*%
X46130000Y-15300000D03*
%TD*%
D14*
%TO.P,TP_3V3,1*%
%TO.N,+3V3*%
X38500000Y-3000000D03*
%TD*%
D13*
%TO.P,C_CC_SENSE,1*%
%TO.N,CC_SENSE*%
X31020000Y-53000000D03*
%TO.P,C_CC_SENSE,2*%
%TO.N,GND*%
X31980000Y-53000000D03*
%TD*%
D16*
%TO.P,R_LCD_BL_OFF,1*%
%TO.N,+3V3*%
X39500000Y-8490000D03*
%TO.P,R_LCD_BL_OFF,2*%
%TO.N,LCD_BL_GATE*%
X39500000Y-9510000D03*
%TD*%
D24*
%TO.P,Q_LCD_BL,1*%
%TO.N,LCD_BL_GATE*%
X35562500Y-9950000D03*
%TO.P,Q_LCD_BL,2*%
%TO.N,+3V3*%
X35562500Y-8050000D03*
%TO.P,Q_LCD_BL,3*%
%TO.N,LCD_BL*%
X37437500Y-9000000D03*
%TD*%
D13*
%TO.P,C_CAM_RST,1*%
%TO.N,CAM_RESET*%
X12770000Y-6250000D03*
%TO.P,C_CAM_RST,2*%
%TO.N,GND*%
X13730000Y-6250000D03*
%TD*%
D40*
%TO.P,L_BUCK,1*%
%TO.N,BUCK_SW*%
X49450000Y-16850000D03*
%TO.P,L_BUCK,2*%
%TO.N,+3V3*%
X52450000Y-16850000D03*
%TD*%
D16*
%TO.P,R_CC2,1*%
%TO.N,CC2*%
X31500000Y-49240000D03*
%TO.P,R_CC2,2*%
%TO.N,GND*%
X31500000Y-50260000D03*
%TD*%
D41*
%TO.P,F_USB,1*%
%TO.N,VBUS_IN*%
X27600000Y-40000000D03*
%TO.P,F_USB,2*%
%TO.N,VBUS_FUSED*%
X30400000Y-40000000D03*
%TD*%
D42*
%TO.P,C_FF,1*%
%TO.N,+3V3*%
X48730000Y-20750000D03*
%TO.P,C_FF,2*%
%TO.N,BUCK_FB*%
X47770000Y-20750000D03*
%TD*%
D18*
%TO.P,C_LCD,1*%
%TO.N,+3V3*%
X31250000Y-8020000D03*
%TO.P,C_LCD,2*%
%TO.N,GND*%
X31250000Y-8980000D03*
%TD*%
D22*
%TO.P,R_EN,1*%
%TO.N,+3V3*%
X26490000Y-19000000D03*
%TO.P,R_EN,2*%
%TO.N,EN*%
X27510000Y-19000000D03*
%TD*%
D13*
%TO.P,C_LDO15_OUT,1*%
%TO.N,+1V5*%
X16820000Y-16350000D03*
%TO.P,C_LDO15_OUT,2*%
%TO.N,GND*%
X17780000Y-16350000D03*
%TD*%
D43*
%TO.P,U_CHG,1*%
%TO.N,VUSB*%
X42090000Y-31090000D03*
%TO.P,U_CHG,2*%
%TO.N,I2C_SCL*%
X43370000Y-31090000D03*
%TO.P,U_CHG,3*%
%TO.N,I2C_SDA*%
X44640000Y-31090000D03*
%TO.P,U_CHG,4*%
%TO.N,unconnected-(U_CHG-LED3-Pad4)*%
X45910000Y-31090000D03*
%TO.P,U_CHG,5*%
%TO.N,KEY_PWR*%
X45910000Y-36910000D03*
%TO.P,U_CHG,6*%
%TO.N,VBAT*%
X44640000Y-36910000D03*
%TO.P,U_CHG,7*%
%TO.N,CHG_SW*%
X43370000Y-36910000D03*
%TO.P,U_CHG,8*%
%TO.N,VSYS*%
X42090000Y-36910000D03*
D44*
%TO.P,U_CHG,9*%
%TO.N,GND*%
X44000000Y-34000000D03*
%TD*%
D18*
%TO.P,C_IMU,1*%
%TO.N,+3V3*%
X32800000Y-37770000D03*
%TO.P,C_IMU,2*%
%TO.N,GND*%
X32800000Y-38730000D03*
%TD*%
D26*
%TO.P,C_VUSB,1*%
%TO.N,VUSB*%
X37450000Y-38475000D03*
%TO.P,C_VUSB,2*%
%TO.N,GND*%
X37450000Y-40025000D03*
%TD*%
D24*
%TO.P,Q_BATP,1*%
%TO.N,BATP_GATE*%
X20062500Y-43950000D03*
%TO.P,Q_BATP,2*%
%TO.N,VBAT*%
X20062500Y-42050000D03*
%TO.P,Q_BATP,3*%
%TO.N,VBAT_PACK*%
X21937500Y-43000000D03*
%TD*%
D13*
%TO.P,C_EFUSE_DVDT,1*%
%TO.N,EFUSE_DVDT*%
X33620000Y-42050000D03*
%TO.P,C_EFUSE_DVDT,2*%
%TO.N,GND*%
X34580000Y-42050000D03*
%TD*%
D16*
%TO.P,R_CAM_RST,1*%
%TO.N,+2V8*%
X9250000Y-10490000D03*
%TO.P,R_CAM_RST,2*%
%TO.N,CAM_RESET*%
X9250000Y-11510000D03*
%TD*%
D22*
%TO.P,R_BOOT,1*%
%TO.N,+3V3*%
X32490000Y-19000000D03*
%TO.P,R_BOOT,2*%
%TO.N,BOOT*%
X33510000Y-19000000D03*
%TD*%
%TO.P,R_GATE,1*%
%TO.N,HEAT_GATE_DRV*%
X57990000Y-51500000D03*
%TO.P,R_GATE,2*%
%TO.N,HEAT_GATE*%
X59010000Y-51500000D03*
%TD*%
D21*
%TO.P,C_CHG_BAT,1*%
%TO.N,VBAT*%
X45100000Y-38750000D03*
%TO.P,C_CHG_BAT,2*%
%TO.N,GND*%
X47000000Y-38750000D03*
%TD*%
D45*
%TO.P,U_LDO15,1*%
%TO.N,+3V3*%
X14862500Y-14950000D03*
%TO.P,U_LDO15,2*%
%TO.N,GND*%
X14862500Y-14000000D03*
%TO.P,U_LDO15,3*%
%TO.N,+3V3*%
X14862500Y-13050000D03*
%TO.P,U_LDO15,4*%
%TO.N,unconnected-(U_LDO15-NC-Pad4)*%
X17137500Y-13050000D03*
%TO.P,U_LDO15,5*%
%TO.N,+1V5*%
X17137500Y-14950000D03*
%TD*%
D46*
%TO.P,U_BUCK,1*%
%TO.N,VSYS*%
X46050000Y-16862500D03*
%TO.P,U_BUCK,2*%
%TO.N,GND*%
X47000000Y-16862500D03*
%TO.P,U_BUCK,3*%
%TO.N,BUCK_SW*%
X47950000Y-16862500D03*
%TO.P,U_BUCK,4*%
%TO.N,VSYS*%
X47950000Y-19137500D03*
%TO.P,U_BUCK,5*%
%TO.N,BUCK_FB*%
X46050000Y-19137500D03*
%TD*%
D22*
%TO.P,R_SDA,1*%
%TO.N,I2C_SDA*%
X23690000Y-26500000D03*
%TO.P,R_SDA,2*%
%TO.N,+3V3*%
X24710000Y-26500000D03*
%TD*%
%TO.P,R_LCD_MOSI,1*%
%TO.N,LCD_MOSI*%
X32490000Y-7750000D03*
%TO.P,R_LCD_MOSI,2*%
%TO.N,LCD_MOSI_S*%
X33510000Y-7750000D03*
%TD*%
D26*
%TO.P,C_AMP_BULK,1*%
%TO.N,VSYS*%
X43050000Y-42275000D03*
%TO.P,C_AMP_BULK,2*%
%TO.N,GND*%
X43050000Y-43825000D03*
%TD*%
D47*
%TO.P,U_EFUSE,1*%
%TO.N,EFUSE_DVDT*%
X34050000Y-40750000D03*
%TO.P,U_EFUSE,2*%
%TO.N,VBUS_FUSED*%
X34050000Y-40250000D03*
%TO.P,U_EFUSE,3*%
X34050000Y-39750000D03*
%TO.P,U_EFUSE,4*%
X34050000Y-39250000D03*
%TO.P,U_EFUSE,5*%
%TO.N,VUSB*%
X35950000Y-39250000D03*
%TO.P,U_EFUSE,6*%
%TO.N,unconnected-(U_EFUSE-FLT-Pad6)*%
X35950000Y-39750000D03*
%TO.P,U_EFUSE,7*%
%TO.N,EFUSE_ILM*%
X35950000Y-40250000D03*
%TO.P,U_EFUSE,8*%
%TO.N,GND*%
X35950000Y-40750000D03*
D48*
%TO.P,U_EFUSE,9*%
X35000000Y-39450000D03*
D49*
X35000000Y-40000000D03*
D48*
X35000000Y-40550000D03*
%TD*%
D21*
%TO.P,C_SERVO2,1*%
%TO.N,VSYS*%
X57550000Y-26000000D03*
%TO.P,C_SERVO2,2*%
%TO.N,GND*%
X59450000Y-26000000D03*
%TD*%
D16*
%TO.P,R_SIOD,1*%
%TO.N,CAM_SIOD*%
X6000000Y-9990000D03*
%TO.P,R_SIOD,2*%
%TO.N,+2V8*%
X6000000Y-11010000D03*
%TD*%
D14*
%TO.P,TP_VUSB,1*%
%TO.N,VUSB*%
X22000000Y-3000000D03*
%TD*%
D50*
%TO.P,U_IMU,1*%
%TO.N,I2C_SCL*%
X30120000Y-38250000D03*
%TO.P,U_IMU,2*%
%TO.N,+3V3*%
X30120000Y-37750000D03*
%TO.P,U_IMU,3*%
X30120000Y-37250000D03*
%TO.P,U_IMU,4*%
%TO.N,I2C_SDA*%
X30120000Y-36750000D03*
D51*
%TO.P,U_IMU,5*%
%TO.N,GND*%
X30750000Y-36620000D03*
%TO.P,U_IMU,6*%
X31250000Y-36620000D03*
D50*
%TO.P,U_IMU,7*%
X31880000Y-36750000D03*
%TO.P,U_IMU,8*%
X31880000Y-37250000D03*
%TO.P,U_IMU,9*%
%TO.N,+3V3*%
X31880000Y-37750000D03*
%TO.P,U_IMU,10*%
X31880000Y-38250000D03*
D51*
%TO.P,U_IMU,11*%
%TO.N,unconnected-(U_IMU-INT2-Pad11)*%
X31250000Y-38380000D03*
%TO.P,U_IMU,12*%
%TO.N,unconnected-(U_IMU-INT1-Pad12)*%
X30750000Y-38380000D03*
%TD*%
D52*
%TO.P,Q_BATN,1*%
%TO.N,BATN_GATE*%
X24050000Y-42562500D03*
%TO.P,Q_BATN,2*%
%TO.N,GND*%
X25950000Y-42562500D03*
%TO.P,Q_BATN,3*%
%TO.N,BATP_GATE*%
X25000000Y-44437500D03*
%TD*%
D14*
%TO.P,TP_VSYS,1*%
%TO.N,VSYS*%
X27500000Y-3000000D03*
%TD*%
D22*
%TO.P,R_NTC,1*%
%TO.N,+3V3*%
X49240000Y-51250000D03*
%TO.P,R_NTC,2*%
%TO.N,NTC_SENSE*%
X50260000Y-51250000D03*
%TD*%
D23*
%TO.P,D_USB_DN,1*%
%TO.N,USB_DN*%
X30400000Y-51750000D03*
%TO.P,D_USB_DN,2*%
%TO.N,GND*%
X31100000Y-51750000D03*
%TD*%
D14*
%TO.P,TP_VBAT,1*%
%TO.N,VBAT*%
X33000000Y-3000000D03*
%TD*%
D53*
%TO.P,U_AMP,1*%
%TO.N,AMP_DIN*%
X38562500Y-45250000D03*
%TO.P,U_AMP,2*%
%TO.N,unconnected-(U_AMP-GAIN_SLOT-Pad2)*%
X38562500Y-44750000D03*
%TO.P,U_AMP,3*%
%TO.N,GND*%
X38562500Y-44250000D03*
%TO.P,U_AMP,4*%
%TO.N,AMP_SD*%
X38562500Y-43750000D03*
D54*
%TO.P,U_AMP,5*%
%TO.N,unconnected-(U_AMP-NC-Pad5)*%
X39250000Y-43062500D03*
%TO.P,U_AMP,6*%
%TO.N,unconnected-(U_AMP-NC-Pad6)*%
X39750000Y-43062500D03*
%TO.P,U_AMP,7*%
%TO.N,VSYS*%
X40250000Y-43062500D03*
%TO.P,U_AMP,8*%
X40750000Y-43062500D03*
D53*
%TO.P,U_AMP,9*%
%TO.N,SPK_P*%
X41437500Y-43750000D03*
%TO.P,U_AMP,10*%
%TO.N,SPK_N*%
X41437500Y-44250000D03*
%TO.P,U_AMP,11*%
%TO.N,GND*%
X41437500Y-44750000D03*
%TO.P,U_AMP,12*%
%TO.N,unconnected-(U_AMP-NC-Pad12)*%
X41437500Y-45250000D03*
D54*
%TO.P,U_AMP,13*%
%TO.N,unconnected-(U_AMP-NC-Pad13)*%
X40750000Y-45937500D03*
%TO.P,U_AMP,14*%
%TO.N,AMP_LRCLK*%
X40250000Y-45937500D03*
%TO.P,U_AMP,15*%
%TO.N,GND*%
X39750000Y-45937500D03*
%TO.P,U_AMP,16*%
%TO.N,AMP_BCLK*%
X39250000Y-45937500D03*
D55*
%TO.P,U_AMP,17*%
%TO.N,GND*%
X40000000Y-44500000D03*
%TD*%
D13*
%TO.P,C_LDO28_IN,1*%
%TO.N,+3V3*%
X6570000Y-16350000D03*
%TO.P,C_LDO28_IN,2*%
%TO.N,GND*%
X7530000Y-16350000D03*
%TD*%
%TO.P,C_LDO15_IN,1*%
%TO.N,+3V3*%
X14570000Y-16350000D03*
%TO.P,C_LDO15_IN,2*%
%TO.N,GND*%
X15530000Y-16350000D03*
%TD*%
D22*
%TO.P,R_LCD_BL_GATE,1*%
%TO.N,LCD_BL_PWM*%
X36490000Y-11500000D03*
%TO.P,R_LCD_BL_GATE,2*%
%TO.N,LCD_BL_GATE*%
X37510000Y-11500000D03*
%TD*%
D23*
%TO.P,D_USB_DP,1*%
%TO.N,USB_DP*%
X29650000Y-50250000D03*
%TO.P,D_USB_DP,2*%
%TO.N,GND*%
X30350000Y-50250000D03*
%TD*%
D18*
%TO.P,C_BAT_NTC,1*%
%TO.N,BAT_NTC_SENSE*%
X20000000Y-48020000D03*
%TO.P,C_BAT_NTC,2*%
%TO.N,GND*%
X20000000Y-48980000D03*
%TD*%
%TO.P,C_TOUCH,1*%
%TO.N,+3V3*%
X28800000Y-31320000D03*
%TO.P,C_TOUCH,2*%
%TO.N,GND*%
X28800000Y-32280000D03*
%TD*%
D45*
%TO.P,U_LDO28,1*%
%TO.N,+3V3*%
X6862500Y-14950000D03*
%TO.P,U_LDO28,2*%
%TO.N,GND*%
X6862500Y-14000000D03*
%TO.P,U_LDO28,3*%
%TO.N,+3V3*%
X6862500Y-13050000D03*
%TO.P,U_LDO28,4*%
%TO.N,unconnected-(U_LDO28-NC-Pad4)*%
X9137500Y-13050000D03*
%TO.P,U_LDO28,5*%
%TO.N,+2V8*%
X9137500Y-14950000D03*
%TD*%
D22*
%TO.P,R_FB1,1*%
%TO.N,+3V3*%
X45640000Y-20750000D03*
%TO.P,R_FB1,2*%
%TO.N,BUCK_FB*%
X46660000Y-20750000D03*
%TD*%
%TO.P,R_CC_SUM1,1*%
%TO.N,CC1*%
X28240000Y-48750000D03*
%TO.P,R_CC_SUM1,2*%
%TO.N,CC_SENSE*%
X29260000Y-48750000D03*
%TD*%
D56*
%TO.N,BOOT*%
X47814700Y-14076300D03*
X30820000Y-20400700D03*
%TO.N,GND*%
X39711400Y-29506300D03*
X28800000Y-33010000D03*
X5050000Y-3555000D03*
X40000000Y-44500000D03*
X43350000Y-38700000D03*
X35060000Y-38730000D03*
X11500000Y-52710000D03*
X43050000Y-44725000D03*
X23690900Y-7011600D03*
X57760000Y-47570000D03*
X11750000Y-9210000D03*
X23000000Y-32980000D03*
X54250000Y-17800000D03*
X37430000Y-41950000D03*
X4410000Y-40400000D03*
X32850000Y-41610000D03*
X55873100Y-48042100D03*
X31449100Y-35919000D03*
X29180000Y-19000000D03*
X27000000Y-8000000D03*
X1490000Y-21250000D03*
X32948400Y-35333700D03*
X10510000Y-16350000D03*
X13750000Y-14000000D03*
X50509100Y-47988400D03*
X12000000Y-46600000D03*
X62250000Y-9000000D03*
X5750000Y-14000000D03*
X16143200Y-16963200D03*
X26760000Y-33750000D03*
X33321900Y-4528000D03*
X37450000Y-40925000D03*
X51800000Y-20050000D03*
X44000000Y-34000000D03*
X43569300Y-19055700D03*
X50460000Y-7750000D03*
X32710000Y-53000000D03*
X23832300Y-32249900D03*
X58405000Y-11960000D03*
X13730000Y-5190000D03*
X40300000Y-34850000D03*
X47000000Y-38750000D03*
X14675000Y-49500000D03*
X41260000Y-41750000D03*
X13260000Y-49070000D03*
X35180000Y-19000000D03*
X30550900Y-35919000D03*
X20000000Y-49710000D03*
X28960000Y-20250000D03*
X8143200Y-16963200D03*
X28500000Y-51980000D03*
X31500000Y-50980000D03*
X18510000Y-16350000D03*
X58336100Y-6278600D03*
X47000000Y-15750000D03*
X42750000Y-29300000D03*
X61443200Y-8593200D03*
X58405000Y-23460000D03*
X13623200Y-4386800D03*
X26791000Y-41732600D03*
X31250000Y-9710000D03*
X46743200Y-14686800D03*
X5075000Y-41800000D03*
X1490000Y-38750000D03*
X50500000Y-5495000D03*
X10500000Y-9210000D03*
X44000000Y-3000000D03*
X13715800Y-7318800D03*
X32700000Y-32710000D03*
X32436400Y-36275800D03*
X50980000Y-51740000D03*
X31000000Y-50250000D03*
X31750000Y-51750000D03*
X46500000Y-5495000D03*
X58730000Y-24250000D03*
X44550000Y-21380000D03*
X19950000Y-3555000D03*
X39825000Y-31000000D03*
X7250000Y-7500000D03*
%TO.N,KEY_PWR*%
X61765500Y-6463400D03*
%TO.N,KEY_MUTE*%
X27270600Y-27802800D03*
X59775800Y-6475900D03*
%TO.N,TOUCH_E0*%
X25761500Y-5013500D03*
X30346300Y-11275900D03*
D57*
%TO.N,VBAT_PACK*%
X21937500Y-40447900D03*
X14859900Y-44213300D03*
X18292300Y-40780900D03*
X27833600Y-41585500D03*
D56*
%TO.N,+2V8*%
X8369500Y-5093600D03*
X8406200Y-11068800D03*
D57*
%TO.N,VUSB*%
X33085100Y-12887500D03*
X22000000Y-12980600D03*
X37450000Y-37407800D03*
%TO.N,HEAT_LOW*%
X59515300Y-47731100D03*
D56*
%TO.N,+3V3*%
X25430000Y-26500000D03*
X28800000Y-30590000D03*
X34732600Y-7209000D03*
X38500000Y-3000000D03*
X30821000Y-37449100D03*
X33200000Y-37800000D03*
X48520000Y-51250000D03*
X48040000Y-7750000D03*
X31250000Y-7290000D03*
X32581000Y-37949100D03*
X29476700Y-37391300D03*
X22510000Y-27270000D03*
X32490000Y-18230000D03*
X13956800Y-16963200D03*
X33175000Y-31000000D03*
X53700000Y-20050000D03*
X36700000Y-45900000D03*
X51500000Y-5495000D03*
X13979200Y-15687700D03*
X1990000Y-40400000D03*
X26490000Y-18230000D03*
X32800000Y-37040000D03*
X57270000Y-7750000D03*
X27560400Y-32443700D03*
X49460000Y-20750000D03*
X5979200Y-15687700D03*
X31928500Y-38857500D03*
X39500000Y-7770000D03*
X5956800Y-16963200D03*
X15500000Y-48270000D03*
X33700000Y-42900000D03*
X13979200Y-12312300D03*
X1725000Y-41800000D03*
X5979200Y-12312300D03*
X2760000Y-38750000D03*
X52450000Y-16850000D03*
%TO.N,CAM_Y4*%
X13907700Y-17855200D03*
X13907700Y-36750600D03*
%TO.N,CAM_Y3*%
X18082300Y-7337700D03*
X17887300Y-32423100D03*
%TO.N,CAM_Y5*%
X20835100Y-4961600D03*
X18033600Y-33175000D03*
%TO.N,CAM_Y2*%
X15935700Y-7321400D03*
X16573600Y-31815000D03*
%TO.N,CAM_Y6*%
X18716300Y-9324200D03*
X17208600Y-30635000D03*
%TO.N,CAM_PCLK*%
X17798700Y-29365000D03*
X17144600Y-9882200D03*
%TO.N,CAM_Y7*%
X14123800Y-37527100D03*
X14635100Y-17352000D03*
%TO.N,CAM_Y8*%
X12836300Y-7317500D03*
X12458400Y-37526800D03*
%TO.N,CAM_XCLK*%
X12513900Y-3512200D03*
X10963200Y-37527400D03*
%TO.N,CAM_Y9*%
X12485100Y-4343600D03*
X12743500Y-36472000D03*
%TO.N,+1V5*%
X10766900Y-4338900D03*
%TO.N,CAM_HREF*%
X11179500Y-10385400D03*
X8096300Y-37520100D03*
%TO.N,CAM_PWDN*%
X10648200Y-5099100D03*
%TO.N,CAM_VSYNC*%
X3429900Y-35957600D03*
X9638200Y-5087100D03*
%TO.N,CAM_RESET*%
X9723200Y-7326700D03*
%TO.N,CAM_SIOC*%
X8750000Y-8394100D03*
X6018300Y-37544900D03*
%TO.N,CAM_SIOD*%
X5132500Y-37539400D03*
X6000000Y-8985300D03*
%TO.N,SERVO_L_PWM*%
X21922000Y-36700800D03*
X23079200Y-24285000D03*
D57*
%TO.N,VSYS*%
X31541200Y-11049600D03*
D56*
X41450000Y-38700000D03*
X58405000Y-14500000D03*
X57550000Y-14500000D03*
X40240000Y-48270000D03*
D57*
X28091300Y-7713100D03*
X55561700Y-26000000D03*
D56*
X40300000Y-36750000D03*
X40895800Y-42608100D03*
D57*
X43238800Y-16621500D03*
X35811800Y-16621500D03*
D56*
X41477500Y-37843200D03*
X43050000Y-41375000D03*
%TO.N,SERVO_R_PWM*%
X59071700Y-27190600D03*
%TO.N,SPK_P*%
X42009600Y-43177900D03*
%TO.N,SPK_N*%
X44000000Y-47981300D03*
%TO.N,MIC_WS*%
X30870000Y-14279100D03*
X30870000Y-16886000D03*
%TO.N,LCD_RST*%
X38285100Y-24810000D03*
X39269600Y-5775000D03*
%TO.N,LCD_CS*%
X28528700Y-15404800D03*
X21190500Y-23015000D03*
%TO.N,LCD_DC*%
X29046000Y-14830800D03*
X20838800Y-25555000D03*
%TO.N,LCD_MOSI_S*%
X34215400Y-4545800D03*
%TO.N,LCD_CLK_S*%
X33727400Y-9799000D03*
%TO.N,LCD_BL*%
X36854600Y-2607200D03*
%TO.N,EN*%
X4249400Y-37528900D03*
X4729700Y-19948000D03*
X25892700Y-19573500D03*
X29753700Y-15693600D03*
X55000000Y-4297800D03*
%TO.N,VBUS_IN*%
X26122600Y-41284900D03*
%TO.N,CC1*%
X28750000Y-47488400D03*
%TO.N,USB_DP*%
X30750000Y-47514700D03*
%TO.N,USB_DN*%
X29727100Y-51075000D03*
%TO.N,CC2*%
X31750000Y-47497000D03*
%TO.N,NTC_SENSE*%
X50796600Y-50622600D03*
X37445400Y-31599500D03*
X51140800Y-36950700D03*
%TO.N,LCD_MOSI*%
X20455300Y-28095000D03*
%TO.N,LCD_BL_PWM*%
X37129400Y-14778200D03*
%TO.N,LCD_CLK*%
X32740000Y-11851900D03*
X15604300Y-22608300D03*
X18855000Y-14724200D03*
%TO.N,AMP_DIN*%
X15644500Y-24594300D03*
X15644500Y-41795800D03*
X34673700Y-49360100D03*
%TO.N,AMP_BCLK*%
X15092800Y-25498300D03*
%TO.N,AMP_LRCLK*%
X9324800Y-22466500D03*
%TO.N,I2C_SDA*%
X28930400Y-35441800D03*
X26000000Y-31460800D03*
X46480600Y-27225600D03*
X29412900Y-36544600D03*
X32655700Y-27225600D03*
%TO.N,I2C_SCL*%
X27521700Y-33731500D03*
X29417900Y-38382600D03*
X21973500Y-19673100D03*
X43554600Y-28380400D03*
X33217500Y-28465000D03*
X25615200Y-25734600D03*
%TO.N,CC_SENSE*%
X48824500Y-3675500D03*
X32534300Y-15607500D03*
%TO.N,BAT_NTC_SENSE*%
X16236900Y-49580600D03*
X30311800Y-34118500D03*
D57*
%TO.N,CHG_SW*%
X41070300Y-33610900D03*
X37284200Y-30178100D03*
%TO.N,VBAT*%
X44821000Y-29874400D03*
X20990000Y-46506600D03*
X44640000Y-35647700D03*
D56*
X18980000Y-48157700D03*
%TO.N,VBAT_SENSE*%
X16402100Y-48810200D03*
X35999800Y-37460400D03*
X11500000Y-50276700D03*
%TO.N,AMP_SD*%
X41983100Y-47163300D03*
X37925100Y-43225200D03*
%TO.N,HEAT_GATE_DRV*%
X52126200Y-46322300D03*
X25600000Y-28663900D03*
%TD*%
%TO.N,BOOT*%
D58*
X33510000Y-18444200D02*
X32731200Y-17665400D01*
X33510000Y-19000000D02*
X33510000Y-18444200D01*
X30820000Y-19070900D02*
X30820000Y-20400700D01*
X60500000Y-3000000D02*
X58891000Y-3000000D01*
X58891000Y-3000000D02*
X47814700Y-14076300D01*
X32731200Y-17665400D02*
X32225500Y-17665400D01*
X32225500Y-17665400D02*
X30820000Y-19070900D01*
%TO.N,GND*%
D59*
X44350000Y-18275000D02*
X43569300Y-19055700D01*
X35000000Y-40550000D02*
X35175400Y-40725400D01*
X13730000Y-6250000D02*
X13730000Y-5190000D01*
X40000000Y-44500000D02*
X40250000Y-44750000D01*
X44550000Y-20660000D02*
X44550000Y-21380000D01*
X20000000Y-48980000D02*
X20000000Y-49710000D01*
X46900000Y-16800000D02*
X46900000Y-15800000D01*
X25485000Y-47225000D02*
X24510000Y-46250000D01*
X7530000Y-16350000D02*
X8143200Y-16963200D01*
X59450000Y-13005000D02*
X59450000Y-14500000D01*
D60*
X41437500Y-44750000D02*
X40615000Y-44750000D01*
D59*
X47000000Y-16862500D02*
X47000000Y-15750000D01*
X35175400Y-40725400D02*
X35333100Y-40725400D01*
X15530000Y-16350000D02*
X16143200Y-16963200D01*
D60*
X38562500Y-44250000D02*
X39385000Y-44250000D01*
D59*
X40250000Y-44750000D02*
X40615000Y-44750000D01*
X35000000Y-40550000D02*
X35000000Y-41630000D01*
X17780000Y-16350000D02*
X18510000Y-16350000D01*
X58730000Y-24250000D02*
X59450000Y-24970000D01*
X26350000Y-8000000D02*
X27000000Y-8000000D01*
X31980000Y-53000000D02*
X32710000Y-53000000D01*
X13010000Y-5000000D02*
X13623200Y-4386800D01*
X35000000Y-39450000D02*
X35000000Y-40000000D01*
X14862500Y-14000000D02*
X13750000Y-14000000D01*
X57760000Y-46500000D02*
X57760000Y-47570000D01*
X13825000Y-49500000D02*
X14675000Y-49500000D01*
X26030000Y-33750000D02*
X26760000Y-33750000D01*
X57062500Y-48050000D02*
X55873100Y-48042100D01*
X46500000Y-15400000D02*
X46400000Y-15300000D01*
X39635000Y-44500000D02*
X39385000Y-44250000D01*
X60850000Y-8000000D02*
X61443200Y-8593200D01*
X25950000Y-42562500D02*
X26791000Y-41732600D01*
D61*
X31880000Y-37250000D02*
X32948400Y-35333700D01*
D59*
X31100000Y-51750000D02*
X31750000Y-51750000D01*
X43050000Y-43825000D02*
X43050000Y-44725000D01*
D60*
X39750000Y-45937500D02*
X39750000Y-45115000D01*
D59*
X37450000Y-40025000D02*
X37450000Y-40925000D01*
X46600000Y-15500000D02*
X46500000Y-15400000D01*
X13260000Y-48000000D02*
X13260000Y-49070000D01*
X32850000Y-40880000D02*
X32850000Y-41610000D01*
X6862500Y-14000000D02*
X5750000Y-14000000D01*
X50980000Y-52500000D02*
X50980000Y-51740000D01*
D62*
X38650000Y-31000000D02*
X39825000Y-31000000D01*
D59*
X39750000Y-44500000D02*
X39750000Y-45115000D01*
X40000000Y-44500000D02*
X39750000Y-44500000D01*
X23000000Y-32260000D02*
X23000000Y-32980000D01*
X46700000Y-15600000D02*
X46600000Y-15500000D01*
D62*
X38650000Y-30000000D02*
X39711400Y-29506300D01*
D59*
X59450000Y-26000000D02*
X60200000Y-26750000D01*
X26030000Y-33632100D02*
X25600000Y-33202100D01*
X35000000Y-41630000D02*
X34580000Y-42050000D01*
D63*
X35333100Y-40725400D02*
X35925400Y-40725400D01*
D59*
X30350000Y-50250000D02*
X31000000Y-50250000D01*
X62250000Y-8350000D02*
X62250000Y-9000000D01*
X28500000Y-51260000D02*
X28500000Y-51980000D01*
X9780000Y-16350000D02*
X10510000Y-16350000D01*
X49730000Y-7750000D02*
X50460000Y-7750000D01*
D61*
X31880000Y-36750000D02*
X32436400Y-36275800D01*
D59*
X39750000Y-44500000D02*
X39635000Y-44500000D01*
X26030000Y-33750000D02*
X26030000Y-33632100D01*
X28230000Y-20250000D02*
X28960000Y-20250000D01*
X31250000Y-8980000D02*
X31250000Y-9710000D01*
D64*
X25600000Y-33202100D02*
X25600000Y-32387500D01*
D58*
X24612500Y-31800000D02*
X23832300Y-32249900D01*
D63*
X35925400Y-40725400D02*
X35950000Y-40750000D01*
D59*
X36710000Y-41950000D02*
X37430000Y-41950000D01*
D61*
X31250000Y-36620000D02*
X31449100Y-35919000D01*
D59*
X32700000Y-31980000D02*
X32700000Y-32710000D01*
X31500000Y-50260000D02*
X31500000Y-50980000D01*
X46400000Y-15300000D02*
X46130000Y-15300000D01*
X46130000Y-15300000D02*
X46743200Y-14686800D01*
X59450000Y-24970000D02*
X59450000Y-26000000D01*
X46900000Y-15800000D02*
X46700000Y-15600000D01*
X47000000Y-16862500D02*
X46900000Y-16800000D01*
X28800000Y-32280000D02*
X28800000Y-33010000D01*
X25680000Y-47225000D02*
X25485000Y-47225000D01*
X58405000Y-11960000D02*
X59450000Y-13005000D01*
D61*
X30750000Y-36620000D02*
X30550900Y-35919000D01*
D59*
X60200000Y-26750000D02*
X60200000Y-28250000D01*
X32800000Y-38730000D02*
X35060000Y-38730000D01*
X11500000Y-51980000D02*
X11500000Y-52710000D01*
X58010000Y-24250000D02*
X58730000Y-24250000D01*
X40530000Y-41750000D02*
X41260000Y-41750000D01*
%TO.N,KEY_PWR*%
D58*
X61542100Y-9582100D02*
X60150000Y-8190000D01*
X60150000Y-8190000D02*
X60150000Y-8000000D01*
X63263700Y-7963300D02*
X63263700Y-8818400D01*
X45910000Y-36910000D02*
X45910000Y-36484100D01*
X46335800Y-36058300D02*
X53885000Y-36058300D01*
D65*
X63263700Y-7788100D02*
X63263700Y-7963300D01*
D58*
X45910000Y-36484100D02*
X46335800Y-36058300D01*
D65*
X61765500Y-6463400D02*
X61939000Y-6463400D01*
D58*
X63263700Y-8818400D02*
X62500000Y-9582100D01*
D65*
X61939000Y-6463400D02*
X63263700Y-7788100D01*
D58*
X53885000Y-36058300D02*
X61542100Y-28401200D01*
X61542100Y-28401200D02*
X61542100Y-9582100D01*
X62500000Y-9582100D02*
X61542100Y-9582100D01*
%TO.N,KEY_MUTE*%
X60543100Y-7243200D02*
X61843200Y-7243200D01*
X59010000Y-7241700D02*
X59010000Y-7750000D01*
X26000000Y-29612500D02*
X26000000Y-29073400D01*
X59775800Y-6475900D02*
X59010000Y-7241700D01*
X61843200Y-7243200D02*
X62250000Y-7650000D01*
X26000000Y-29073400D02*
X27270600Y-27802800D01*
X59775800Y-6475900D02*
X60543100Y-7243200D01*
%TO.N,TOUCH_E0*%
X30305400Y-15922100D02*
X30305400Y-11316800D01*
X24612500Y-31000000D02*
X24114700Y-31000000D01*
X23862900Y-29546000D02*
X30145300Y-23263600D01*
X30145300Y-23263600D02*
X30145300Y-16082200D01*
X24114700Y-31000000D02*
X23862900Y-30748200D01*
X25650000Y-5125000D02*
X25650000Y-8000000D01*
X30145300Y-16082200D02*
X30305400Y-15922100D01*
X23862900Y-30748200D02*
X23862900Y-29546000D01*
X25761500Y-5013500D02*
X25650000Y-5125000D01*
X30305400Y-11316800D02*
X30346300Y-11275900D01*
%TO.N,VBAT_PACK*%
D66*
X20760000Y-40500000D02*
X21937500Y-40500000D01*
X27500000Y-42990000D02*
X27833600Y-42656400D01*
X14859900Y-44213300D02*
X18292300Y-40780900D01*
X27833600Y-42656400D02*
X27833600Y-41585500D01*
X21937500Y-43000000D02*
X21937500Y-40500000D01*
X21937500Y-40500000D02*
X21937500Y-40447900D01*
%TO.N,+2V8*%
D59*
X8522300Y-10490000D02*
X8522300Y-11068800D01*
X8000000Y-7990000D02*
X7290100Y-8699900D01*
X8369500Y-7620500D02*
X8000000Y-7990000D01*
X8879400Y-12203300D02*
X9703100Y-12203300D01*
X7290100Y-10490000D02*
X8522300Y-10490000D01*
X9703100Y-12203300D02*
X10162400Y-12662600D01*
X8522300Y-11068800D02*
X8406200Y-11068800D01*
X8522300Y-10490000D02*
X9250000Y-10490000D01*
X7290100Y-10490000D02*
X6520000Y-10490000D01*
X7290100Y-8699900D02*
X7290100Y-10490000D01*
X8820000Y-16350000D02*
X8820000Y-15267500D01*
X8522300Y-11068800D02*
X8522300Y-11846200D01*
X10162400Y-12662600D02*
X10162400Y-13925100D01*
X8522300Y-11846200D02*
X8879400Y-12203300D01*
X8369500Y-5093600D02*
X8369500Y-7620500D01*
X10162400Y-13925100D02*
X9137500Y-14950000D01*
X6520000Y-10490000D02*
X6000000Y-11010000D01*
X8820000Y-15267500D02*
X9137500Y-14950000D01*
%TO.N,VUSB*%
D66*
X37450000Y-35879900D02*
X41138200Y-32191700D01*
X42090000Y-30540000D02*
X42090000Y-31090000D01*
X37483400Y-26415700D02*
X37483400Y-17017900D01*
X37450000Y-38475000D02*
X37450000Y-37407800D01*
X41138200Y-32191700D02*
X42090000Y-32191700D01*
X36725000Y-38475000D02*
X36249300Y-38950700D01*
X33353000Y-12887500D02*
X33085100Y-12887500D01*
X39062800Y-27995100D02*
X37483400Y-26415700D01*
X22000000Y-3000000D02*
X22000000Y-12980600D01*
X37450000Y-38475000D02*
X36725000Y-38475000D01*
X42090000Y-31090000D02*
X42090000Y-32191700D01*
D63*
X36249300Y-38950700D02*
X35950000Y-39250000D01*
D66*
X39545100Y-27995100D02*
X39062800Y-27995100D01*
X40850000Y-29300000D02*
X42090000Y-30540000D01*
X37483400Y-17017900D02*
X33353000Y-12887500D01*
X40850000Y-29300000D02*
X39545100Y-27995100D01*
X37450000Y-37407800D02*
X37450000Y-35879900D01*
%TO.N,HEAT_LOW*%
X58937500Y-49000000D02*
X59515300Y-48422200D01*
X59515300Y-48422200D02*
X59515300Y-47731100D01*
%TO.N,+3V3*%
D61*
X31880000Y-38250000D02*
X31928500Y-38857500D01*
D59*
X28800000Y-31320000D02*
X28800000Y-30590000D01*
D58*
X27387500Y-31800000D02*
X27560400Y-32443700D01*
D59*
X14862500Y-14950000D02*
X13979200Y-15687700D01*
X57990000Y-7750000D02*
X57270000Y-7750000D01*
D61*
X30120000Y-37250000D02*
X30821000Y-37449100D01*
D59*
X33175000Y-31000000D02*
X32720000Y-31000000D01*
X14570000Y-16350000D02*
X13956800Y-16963200D01*
X14862500Y-13050000D02*
X13979200Y-12312300D01*
X48730000Y-20750000D02*
X49460000Y-20750000D01*
X46334200Y-21444200D02*
X45640000Y-20750000D01*
X32800000Y-37770000D02*
X32800000Y-37040000D01*
X15500000Y-48990000D02*
X15500000Y-48270000D01*
X32720000Y-31000000D02*
X32700000Y-31020000D01*
X24710000Y-26500000D02*
X25430000Y-26500000D01*
D61*
X31880000Y-37750000D02*
X32581000Y-37949100D01*
X30120000Y-37750000D02*
X29476700Y-37391300D01*
D59*
X33200000Y-37800000D02*
X32799999Y-37770000D01*
X6862500Y-13050000D02*
X5979200Y-12312300D01*
X36700000Y-45900000D02*
X33700000Y-42900000D01*
X48770000Y-7750000D02*
X48040000Y-7750000D01*
X6570000Y-16350000D02*
X5956800Y-16963200D01*
D62*
X34350000Y-31000000D02*
X33175000Y-31000000D01*
D59*
X49460000Y-21032300D02*
X49048100Y-21444200D01*
X31250000Y-8020000D02*
X31250000Y-7290000D01*
X6862500Y-14950000D02*
X5979200Y-15687700D01*
X22510000Y-26500000D02*
X22510000Y-27270000D01*
X26490000Y-19000000D02*
X26490000Y-18230000D01*
X53300000Y-16850000D02*
X54250000Y-15900000D01*
X39500000Y-8490000D02*
X39500000Y-7770000D01*
X52450000Y-16850000D02*
X53300000Y-16850000D01*
X49240000Y-51250000D02*
X48520000Y-51250000D01*
X49460000Y-20750000D02*
X49460000Y-21032300D01*
X32490000Y-19000000D02*
X32490000Y-18230000D01*
X49048100Y-21444200D02*
X46334200Y-21444200D01*
X35562500Y-8050000D02*
X34732600Y-7209000D01*
%TO.N,CAM_Y4*%
D58*
X13907700Y-36750600D02*
X13907700Y-17855200D01*
%TO.N,CAM_Y3*%
X20483400Y-9738800D02*
X20483400Y-17265900D01*
X18380200Y-31930200D02*
X17887300Y-32423100D01*
X18082300Y-7337700D02*
X20483400Y-9738800D01*
X20483400Y-17265900D02*
X18380200Y-19369100D01*
X18380200Y-19369100D02*
X18380200Y-31930200D01*
%TO.N,CAM_Y5*%
X18033600Y-33175000D02*
X18731900Y-32476700D01*
X18731900Y-19514700D02*
X20835100Y-17411500D01*
X18731900Y-32476700D02*
X18731900Y-19514700D01*
X20835100Y-17411500D02*
X20835100Y-4961600D01*
%TO.N,CAM_Y2*%
X19428300Y-16814000D02*
X16573600Y-19668700D01*
X15935700Y-9881800D02*
X19428300Y-13374400D01*
X19428300Y-13374400D02*
X19428300Y-16814000D01*
X15935700Y-7321400D02*
X15935700Y-9881800D01*
X16573600Y-19668700D02*
X16573600Y-31815000D01*
%TO.N,CAM_Y6*%
X17208600Y-19531100D02*
X17208600Y-30635000D01*
X18716300Y-9324200D02*
X19780000Y-10387900D01*
X19780000Y-10387900D02*
X19780000Y-16959700D01*
X19780000Y-16959700D02*
X17208600Y-19531100D01*
%TO.N,CAM_PCLK*%
X20131700Y-17105300D02*
X20131700Y-9910800D01*
X17798700Y-29365000D02*
X17798700Y-19438300D01*
X18952600Y-8731700D02*
X18295100Y-8731700D01*
X20131700Y-9910800D02*
X18952600Y-8731700D01*
X17798700Y-19438300D02*
X20131700Y-17105300D01*
X18295100Y-8731700D02*
X17144600Y-9882200D01*
%TO.N,CAM_Y7*%
X14541100Y-37109800D02*
X14123800Y-37527100D01*
X14541100Y-17446000D02*
X14541100Y-37109800D01*
X14635100Y-17352000D02*
X14541100Y-17446000D01*
%TO.N,CAM_Y8*%
X12836300Y-9005600D02*
X12836300Y-7317500D01*
X12175100Y-9666800D02*
X12836300Y-9005600D01*
X12175100Y-37243500D02*
X12175100Y-9666800D01*
X12458400Y-37526800D02*
X12175100Y-37243500D01*
%TO.N,CAM_XCLK*%
X11546400Y-38110600D02*
X10963200Y-37527400D01*
X14655300Y-4092500D02*
X14655300Y-9272300D01*
X12673100Y-38110600D02*
X11546400Y-38110600D01*
X12590400Y-3435700D02*
X13998500Y-3435700D01*
X14655300Y-9272300D02*
X13150500Y-10777100D01*
X13310800Y-25475200D02*
X13310800Y-37472900D01*
X13998500Y-3435700D02*
X14655300Y-4092500D01*
X13150500Y-10777100D02*
X13150500Y-25314900D01*
X13150500Y-25314900D02*
X13310800Y-25475200D01*
X13310800Y-37472900D02*
X12673100Y-38110600D01*
X12513900Y-3512200D02*
X12590400Y-3435700D01*
%TO.N,CAM_Y9*%
X12743500Y-10290800D02*
X12743500Y-36472000D01*
X12485100Y-4343600D02*
X13004200Y-3824500D01*
X13004200Y-3824500D02*
X13845700Y-3824500D01*
X13845700Y-3824500D02*
X14303600Y-4282400D01*
X14303600Y-8730700D02*
X12743500Y-10290800D01*
X14303600Y-4282400D02*
X14303600Y-8730700D01*
%TO.N,+1V5*%
D62*
X16172700Y-11705600D02*
X15334000Y-10866900D01*
X17137500Y-14950000D02*
X16172700Y-13985200D01*
X16820000Y-16350000D02*
X16820000Y-15267500D01*
X16820000Y-15267500D02*
X17137500Y-14950000D01*
X15334000Y-10866900D02*
X15334000Y-4203200D01*
X16172700Y-13985200D02*
X16172700Y-11705600D01*
X15334000Y-4203200D02*
X13988400Y-2857600D01*
X13988400Y-2857600D02*
X12248200Y-2857600D01*
X12248200Y-2857600D02*
X10766900Y-4338900D01*
%TO.N,CAM_HREF*%
D58*
X8096300Y-37520100D02*
X11179500Y-34436900D01*
X11179500Y-34436900D02*
X11179500Y-10385400D01*
%TO.N,CAM_PWDN*%
X11890900Y-5099100D02*
X10648200Y-5099100D01*
X11990000Y-5000000D02*
X11890900Y-5099100D01*
%TO.N,CAM_VSYNC*%
X9638200Y-4962800D02*
X8821700Y-4146300D01*
X9638200Y-5087100D02*
X9638200Y-4962800D01*
X3429900Y-8740100D02*
X3429900Y-35957600D01*
X8023700Y-4146300D02*
X3429900Y-8740100D01*
X8821700Y-4146300D02*
X8023700Y-4146300D01*
%TO.N,CAM_RESET*%
X11125000Y-9635000D02*
X9250000Y-11510000D01*
X11125000Y-6250000D02*
X11125000Y-7326700D01*
X11125000Y-7326700D02*
X11125000Y-9635000D01*
D65*
X11125000Y-6250000D02*
X12770000Y-6250000D01*
D58*
X11125000Y-7326700D02*
X9723200Y-7326700D01*
%TO.N,CAM_SIOC*%
X3666800Y-37264000D02*
X3666800Y-37801600D01*
X8942800Y-8201300D02*
X8942800Y-4852400D01*
X8588400Y-4498000D02*
X8169300Y-4498000D01*
X3993200Y-36937600D02*
X3666800Y-37264000D01*
X8000000Y-9010000D02*
X8134100Y-9010000D01*
X3666800Y-37801600D02*
X3960200Y-38095000D01*
X3993200Y-8674100D02*
X3993200Y-36937600D01*
X8134100Y-9010000D02*
X8750000Y-8394100D01*
X5468200Y-38095000D02*
X6018300Y-37544900D01*
X8942800Y-4852400D02*
X8588400Y-4498000D01*
X3960200Y-38095000D02*
X5468200Y-38095000D01*
X8169300Y-4498000D02*
X3993200Y-8674100D01*
X8750000Y-8394100D02*
X8942800Y-8201300D01*
%TO.N,CAM_SIOD*%
X5281400Y-37390500D02*
X5281400Y-19719500D01*
X6000000Y-9990000D02*
X6000000Y-8985300D01*
X5132500Y-10857500D02*
X6000000Y-9990000D01*
X5281400Y-19719500D02*
X5132500Y-19570600D01*
X5132500Y-37539400D02*
X5281400Y-37390500D01*
X5132500Y-19570600D02*
X5132500Y-10857500D01*
%TO.N,SERVO_L_PWM*%
X21922000Y-30105500D02*
X21922000Y-36700800D01*
X23079200Y-28948300D02*
X21922000Y-30105500D01*
X23079200Y-24285000D02*
X23079200Y-28948300D01*
%TO.N,VSYS*%
D66*
X28091300Y-3591300D02*
X28091300Y-7713100D01*
D67*
X45170000Y-16862500D02*
X46050000Y-16862500D01*
X46173600Y-18036400D02*
X46561400Y-18036400D01*
D66*
X46848900Y-18036400D02*
X47950000Y-19137500D01*
D67*
X50412400Y-19939300D02*
X48995600Y-19939300D01*
D66*
X57550000Y-26000000D02*
X57550000Y-27500000D01*
X31541200Y-12662400D02*
X35500300Y-16621500D01*
X44350000Y-16725000D02*
X44246500Y-16621500D01*
X39570000Y-40580000D02*
X39570000Y-41750000D01*
X57550000Y-26000000D02*
X55561700Y-26000000D01*
D67*
X46050000Y-17912800D02*
X46173600Y-18036400D01*
D66*
X57448800Y-26000000D02*
X57550000Y-26000000D01*
X46050000Y-17912800D02*
X46050000Y-16862500D01*
X55561700Y-26000000D02*
X50412400Y-20850700D01*
X48156000Y-19343500D02*
X47950000Y-19137500D01*
X27500000Y-3000000D02*
X28091300Y-3591300D01*
X35500300Y-16621500D02*
X35811800Y-16621500D01*
D67*
X44350000Y-16725000D02*
X45170000Y-16725000D01*
D66*
X46561400Y-18036400D02*
X46848900Y-18036400D01*
X41450000Y-38700000D02*
X39570000Y-40580000D01*
X44246500Y-16621500D02*
X43238800Y-16621500D01*
X56207900Y-15842100D02*
X56207900Y-24759100D01*
D59*
X43050000Y-42275000D02*
X43050000Y-41375000D01*
D66*
X57550000Y-14500000D02*
X56207900Y-15842100D01*
X57550000Y-27500000D02*
X58300000Y-28250000D01*
X45170000Y-16725000D02*
X45170000Y-15300000D01*
X45170000Y-16862500D02*
X45170000Y-16725000D01*
D67*
X48995600Y-19939300D02*
X48399800Y-19343500D01*
D66*
X31541200Y-11049600D02*
X31541200Y-12662400D01*
X48399800Y-19343500D02*
X48156000Y-19343500D01*
X50412400Y-20850700D02*
X50412400Y-19939300D01*
D60*
X40250000Y-43062500D02*
X40895800Y-42608100D01*
D59*
X40240000Y-47500000D02*
X40240000Y-48270000D01*
D66*
X56207900Y-24759100D02*
X57448800Y-26000000D01*
D59*
X42090000Y-36910000D02*
X41477500Y-37843200D01*
%TO.N,SERVO_R_PWM*%
D58*
X57997600Y-24939300D02*
X57902800Y-24939300D01*
X58352700Y-26471600D02*
X58352700Y-25294400D01*
X56990000Y-24474500D02*
X56990000Y-24250000D01*
D65*
X57902800Y-24939300D02*
X57454800Y-24939300D01*
D58*
X58352700Y-25294400D02*
X57997600Y-24939300D01*
D65*
X57454800Y-24939300D02*
X56990000Y-24474500D01*
D58*
X59071700Y-27190600D02*
X58352700Y-26471600D01*
%TO.N,SPK_P*%
D62*
X42009600Y-43177900D02*
X41437500Y-43750000D01*
%TO.N,SPK_N*%
X42272400Y-46253700D02*
X42272400Y-44606100D01*
X42272400Y-44606100D02*
X41916300Y-44250000D01*
X44000000Y-47981300D02*
X42272400Y-46253700D01*
X41916300Y-44250000D02*
X41437500Y-44250000D01*
%TO.N,MIC_WS*%
D58*
X30870000Y-14279100D02*
X30870000Y-16886000D01*
%TO.N,LCD_RST*%
X39269600Y-5775000D02*
X40100500Y-6605900D01*
X40100500Y-16968300D02*
X38285100Y-18783700D01*
X40100500Y-6605900D02*
X40100500Y-16968300D01*
X38285100Y-18783700D02*
X38285100Y-24810000D01*
%TO.N,LCD_CS*%
X28528700Y-15404800D02*
X21190500Y-22743000D01*
X21190500Y-22743000D02*
X21190500Y-23015000D01*
%TO.N,LCD_DC*%
X20638700Y-25354900D02*
X20638700Y-22466800D01*
X20838800Y-25555000D02*
X20638700Y-25354900D01*
X28274700Y-14830800D02*
X29046000Y-14830800D01*
X20638700Y-22466800D02*
X28274700Y-14830800D01*
%TO.N,LCD_MOSI_S*%
X33510000Y-5251200D02*
X33510000Y-7750000D01*
X34215400Y-4545800D02*
X33510000Y-5251200D01*
%TO.N,LCD_CLK_S*%
X33727400Y-9799000D02*
X33760000Y-9766400D01*
X33760000Y-9766400D02*
X33760000Y-9000000D01*
%TO.N,LCD_BL*%
D59*
X37437500Y-9000000D02*
X36854600Y-8417100D01*
X36854600Y-8417100D02*
X36854600Y-2607200D01*
%TO.N,EN*%
D58*
X27510000Y-20010000D02*
X27270000Y-20250000D01*
X29753600Y-16756400D02*
X29753600Y-15693600D01*
X55000000Y-3000000D02*
X55000000Y-4297800D01*
X27270000Y-20250000D02*
X26569200Y-20250000D01*
X4729700Y-37048600D02*
X4249400Y-37528900D01*
X4729700Y-19948000D02*
X4729700Y-37048600D01*
X26569200Y-20250000D02*
X25892700Y-19573500D01*
X29753600Y-15693600D02*
X29753700Y-15693600D01*
X27510000Y-19000000D02*
X27510000Y-20010000D01*
X27510000Y-19000000D02*
X29753600Y-16756400D01*
%TO.N,VBUS_IN*%
D59*
X27600000Y-40000000D02*
X27407500Y-40000000D01*
X27407500Y-40000000D02*
X26122600Y-41284900D01*
%TO.N,CC1*%
D58*
X28240000Y-48750000D02*
X28500000Y-49010000D01*
X28500000Y-49010000D02*
X28500000Y-50240000D01*
X28240000Y-48750000D02*
X28750000Y-48240000D01*
X28750000Y-48240000D02*
X28750000Y-47488400D01*
%TO.N,USB_DP*%
X30750000Y-48470600D02*
X30750000Y-47514700D01*
X29650000Y-50250000D02*
X29650000Y-49570600D01*
X29650000Y-49570600D02*
X30750000Y-48470600D01*
%TO.N,USB_DN*%
X29727100Y-51077100D02*
X29727100Y-51075000D01*
X30400000Y-51750000D02*
X29727100Y-51077100D01*
%TO.N,CC2*%
X31750000Y-47497000D02*
X31500000Y-47747000D01*
X32500000Y-49240000D02*
X33000000Y-49740000D01*
X31500000Y-47747000D02*
X31500000Y-49240000D01*
X31500000Y-49240000D02*
X32500000Y-49240000D01*
%TO.N,NTC_SENSE*%
X50260000Y-51250000D02*
X50020000Y-51490000D01*
X50260000Y-51159200D02*
X50260000Y-51250000D01*
X51140800Y-50278400D02*
X51140800Y-36950700D01*
X50796600Y-50622600D02*
X50260000Y-51159200D01*
X50796600Y-50622600D02*
X51140800Y-50278400D01*
D65*
X37445400Y-31599500D02*
X38550500Y-31599500D01*
D58*
X50020000Y-51490000D02*
X50020000Y-52500000D01*
D65*
X38550500Y-31599500D02*
X38650000Y-31500000D01*
%TO.N,LCD_MOSI*%
D58*
X20455300Y-28095000D02*
X19935300Y-27575000D01*
X19935300Y-20887200D02*
X30474600Y-10347900D01*
X31845800Y-9919400D02*
X31845800Y-8394200D01*
X30474600Y-10347900D02*
X31417300Y-10347900D01*
X19935300Y-27575000D02*
X19935300Y-20887200D01*
X31845800Y-8394200D02*
X32490000Y-7750000D01*
X31417300Y-10347900D02*
X31845800Y-9919400D01*
%TO.N,LCD_BL_PWM*%
X37129400Y-12139400D02*
X37129400Y-14778200D01*
X36490000Y-11500000D02*
X37129400Y-12139400D01*
%TO.N,LCD_CLK*%
X19076600Y-16632700D02*
X15604300Y-20105000D01*
X32740000Y-9000000D02*
X32740000Y-11851900D01*
X18855000Y-14724200D02*
X19076600Y-14945800D01*
X15604300Y-20105000D02*
X15604300Y-22608300D01*
X19076600Y-14945800D02*
X19076600Y-16632700D01*
%TO.N,AMP_DIN*%
X15644500Y-24594300D02*
X15644500Y-41795800D01*
X34673700Y-49138800D02*
X34673700Y-49360100D01*
X38562500Y-45250000D02*
X34673700Y-49138800D01*
%TO.N,AMP_BCLK*%
X35536500Y-51620200D02*
X33230800Y-53925900D01*
X35536500Y-49651000D02*
X35536500Y-51620200D01*
X18039900Y-45057800D02*
X14648100Y-45057800D01*
X39250000Y-45937500D02*
X35536500Y-49651000D01*
X26768600Y-53925900D02*
X20610800Y-47768100D01*
X14119200Y-44528900D02*
X14119200Y-42447800D01*
X14648100Y-45057800D02*
X14119200Y-44528900D01*
X15092800Y-41474200D02*
X15092800Y-25498300D01*
X20610800Y-47628700D02*
X18039900Y-45057800D01*
X33230800Y-53925900D02*
X26768600Y-53925900D01*
X20610800Y-47768100D02*
X20610800Y-47628700D01*
X14119200Y-42447800D02*
X15092800Y-41474200D01*
%TO.N,AMP_LRCLK*%
X37245800Y-50408200D02*
X37245800Y-49506400D01*
X9324800Y-22466500D02*
X7224100Y-24567200D01*
X7224100Y-49215700D02*
X12286000Y-54277600D01*
X33376400Y-54277600D02*
X37245800Y-50408200D01*
X37245800Y-49506400D02*
X40250000Y-46502200D01*
X7224100Y-24567200D02*
X7224100Y-49215700D01*
X12286000Y-54277600D02*
X33376400Y-54277600D01*
X40250000Y-46502200D02*
X40250000Y-45937500D01*
%TO.N,I2C_SDA*%
X28930400Y-34757000D02*
X23951100Y-34757000D01*
X44640000Y-31090000D02*
X44640000Y-31941700D01*
X29760100Y-33927300D02*
X28930400Y-34757000D01*
X28930400Y-34757000D02*
X28930400Y-35441800D01*
X33565300Y-30500000D02*
X32940000Y-29874600D01*
X22365000Y-30407300D02*
X23690000Y-29082300D01*
X32655700Y-29590400D02*
X32655700Y-27225600D01*
X29618300Y-36750000D02*
X29412900Y-36544600D01*
X32940000Y-29874600D02*
X32655700Y-29590400D01*
X46480600Y-31775400D02*
X46480600Y-27225600D01*
X23690000Y-29082300D02*
X23690000Y-26500000D01*
X31550600Y-31264000D02*
X31550600Y-32099600D01*
X23951100Y-34757000D02*
X22365000Y-33170900D01*
X30120000Y-36750000D02*
X29618300Y-36750000D01*
X26000000Y-32387500D02*
X26000000Y-31460800D01*
X22365000Y-33170900D02*
X22365000Y-30407300D01*
X34350000Y-30500000D02*
X33565300Y-30500000D01*
X29760100Y-33890100D02*
X29760100Y-33927300D01*
X44640000Y-31941700D02*
X46314300Y-31941700D01*
X31550600Y-32099600D02*
X29760100Y-33890100D01*
X32940000Y-29874600D02*
X31550600Y-31264000D01*
X46314300Y-31941700D02*
X46480600Y-31775400D01*
%TO.N,I2C_SCL*%
X23557900Y-23677300D02*
X25615200Y-25734600D01*
X43554600Y-30053700D02*
X43370000Y-30238300D01*
X21490000Y-26500000D02*
X20969200Y-26500000D01*
X21490000Y-26500000D02*
X21490000Y-25082100D01*
X32447300Y-26640900D02*
X32947900Y-26640900D01*
D65*
X26697900Y-33178400D02*
X26676300Y-33156800D01*
D58*
X26740700Y-33178400D02*
X26968600Y-33178400D01*
X29618300Y-38250000D02*
X29485700Y-38382600D01*
X26968600Y-33178400D02*
X27521700Y-33731500D01*
X22894800Y-23677300D02*
X23557900Y-23677300D01*
X20287000Y-21359600D02*
X21973500Y-19673100D01*
X26400000Y-32993700D02*
X26400000Y-32387500D01*
X34350000Y-30000000D02*
X33217500Y-28867500D01*
X29485700Y-38382600D02*
X29417900Y-38382600D01*
X21490000Y-25082100D02*
X22894800Y-23677300D01*
X33217500Y-26910500D02*
X33217500Y-28465000D01*
X43370000Y-31090000D02*
X43370000Y-30238300D01*
X33217500Y-28867500D02*
X33217500Y-28465000D01*
X29362200Y-33237600D02*
X29362200Y-29726000D01*
X43554600Y-28380400D02*
X43554600Y-30053700D01*
X28868300Y-33731500D02*
X29362200Y-33237600D01*
X30120000Y-38250000D02*
X29618300Y-38250000D01*
X20969200Y-26500000D02*
X20287000Y-25817800D01*
X26563100Y-33156800D02*
X26400000Y-32993700D01*
X20287000Y-25817800D02*
X20287000Y-21359600D01*
D65*
X26740700Y-33178400D02*
X26697900Y-33178400D01*
D58*
X27521700Y-33731500D02*
X28868300Y-33731500D01*
X32947900Y-26640900D02*
X33217500Y-26910500D01*
X26676300Y-33156800D02*
X26563100Y-33156800D01*
X29362200Y-29726000D02*
X32447300Y-26640900D01*
%TO.N,CC_SENSE*%
D65*
X29122700Y-51780900D02*
X29122700Y-51925900D01*
D58*
X29339600Y-48670400D02*
X29339600Y-41506500D01*
X29222300Y-52025500D02*
X29222300Y-52350400D01*
X28809400Y-40976300D02*
X28809400Y-36365600D01*
X31594200Y-53574200D02*
X32916100Y-53574200D01*
X29260000Y-48750000D02*
X29339600Y-48670400D01*
D65*
X30370400Y-52350400D02*
X31020000Y-53000000D01*
D58*
X34059900Y-27257600D02*
X34059900Y-17133100D01*
X29339600Y-41506500D02*
X28809400Y-40976300D01*
X30504800Y-34670200D02*
X32104300Y-34670200D01*
X34350000Y-32000000D02*
X35050700Y-32000000D01*
X48824500Y-3675500D02*
X49500000Y-3000000D01*
X33272900Y-51032900D02*
X33000000Y-50760000D01*
X28809400Y-36365600D02*
X30504800Y-34670200D01*
X35349800Y-28547500D02*
X34059900Y-27257600D01*
X29260000Y-48750000D02*
X29122700Y-48887300D01*
X32916100Y-53574200D02*
X33272900Y-53217400D01*
X31020000Y-53000000D02*
X31594200Y-53574200D01*
X35349800Y-31700900D02*
X35349800Y-28547500D01*
X34350000Y-32424500D02*
X34350000Y-32000000D01*
X33272900Y-53217400D02*
X33272900Y-51032900D01*
X35050700Y-32000000D02*
X35349800Y-31700900D01*
X32104300Y-34670200D02*
X34350000Y-32424500D01*
D65*
X29222300Y-52350400D02*
X30370400Y-52350400D01*
D58*
X29122700Y-48887300D02*
X29122700Y-51780900D01*
X34059900Y-17133100D02*
X32534300Y-15607500D01*
D65*
X29122700Y-51925900D02*
X29222300Y-52025500D01*
%TO.N,BAT_NTC_SENSE*%
D58*
X16236900Y-49580600D02*
X15807500Y-50010000D01*
X12175000Y-49500000D02*
X11400800Y-48725800D01*
X19498500Y-47518500D02*
X16986300Y-47518500D01*
X20000000Y-48020000D02*
X19498500Y-47518500D01*
X15807500Y-50010000D02*
X15500000Y-50010000D01*
X16986300Y-47518500D02*
X16986300Y-49066900D01*
X11802600Y-46014000D02*
X15481800Y-46014000D01*
X15481800Y-46014000D02*
X16986300Y-47518500D01*
X32107700Y-34118500D02*
X30311800Y-34118500D01*
X16986300Y-49066900D02*
X16472600Y-49580600D01*
X33649200Y-31500000D02*
X33368900Y-31780300D01*
X33368900Y-31780300D02*
X33368900Y-32857300D01*
X34350000Y-31500000D02*
X33649200Y-31500000D01*
X11400800Y-48725800D02*
X11400800Y-46415800D01*
X16472600Y-49580600D02*
X16236900Y-49580600D01*
X11400800Y-46415800D02*
X11802600Y-46014000D01*
X33368900Y-32857300D02*
X32107700Y-34118500D01*
%TO.N,CHG_SW*%
D66*
X43370000Y-36910000D02*
X43370000Y-35808300D01*
X37284200Y-29185900D02*
X35950000Y-27851700D01*
X43094800Y-35808300D02*
X41070300Y-33783800D01*
X43370000Y-35808300D02*
X43094800Y-35808300D01*
X35950000Y-25000000D02*
X35950000Y-27851700D01*
X41070300Y-33783800D02*
X41070300Y-33610900D01*
X37284200Y-30178100D02*
X37284200Y-29185900D01*
%TO.N,VBAT*%
X19881000Y-45500000D02*
X18762600Y-44381600D01*
X19740000Y-40500000D02*
X19740000Y-41727500D01*
X45100000Y-38750000D02*
X45100000Y-38471700D01*
X21436800Y-18519000D02*
X21436800Y-15780800D01*
X19740000Y-41727500D02*
X20062500Y-42050000D01*
X18762600Y-43349900D02*
X20062500Y-42050000D01*
X40750900Y-25000000D02*
X40750900Y-3828700D01*
X40750900Y-3828700D02*
X38727700Y-1805500D01*
X12740000Y-51239900D02*
X13335400Y-51835300D01*
X31640700Y-5576900D02*
X31640700Y-4359300D01*
X19333600Y-20622200D02*
X21436800Y-18519000D01*
X41451700Y-25000000D02*
X44821000Y-28369300D01*
X19333600Y-40093600D02*
X19333600Y-20622200D01*
X44821000Y-28369300D02*
X44821000Y-29874400D01*
X13335400Y-51835300D02*
X15302400Y-51835300D01*
X20990000Y-45500000D02*
X19881000Y-45500000D01*
X40050000Y-25000000D02*
X40750900Y-25000000D01*
X38727700Y-1805500D02*
X34194500Y-1805500D01*
X12740000Y-51000000D02*
X12740000Y-51239900D01*
X15302400Y-51835300D02*
X18980000Y-48157700D01*
X44640000Y-36910000D02*
X44640000Y-38011700D01*
X21436800Y-15780800D02*
X31640700Y-5576900D01*
X44640000Y-36910000D02*
X44640000Y-35808300D01*
X45100000Y-38471700D02*
X44640000Y-38011700D01*
X31640700Y-4359300D02*
X33000000Y-3000000D01*
X19740000Y-40500000D02*
X19333600Y-40093600D01*
X18762600Y-44381600D02*
X18762600Y-43349900D01*
X20990000Y-46506600D02*
X20990000Y-45500000D01*
X40750900Y-25000000D02*
X41451700Y-25000000D01*
X44640000Y-35808300D02*
X44640000Y-35647700D01*
X34194500Y-1805500D02*
X33000000Y-3000000D01*
%TO.N,TOUCH_REXT*%
D58*
X23000000Y-31240000D02*
X23000000Y-31350400D01*
D65*
X24562900Y-31350400D02*
X24612500Y-31400000D01*
X23000000Y-31350400D02*
X24562900Y-31350400D01*
%TO.N,TOUCH_VREG*%
D58*
X25200000Y-32387500D02*
X25070000Y-32517500D01*
X25070000Y-32517500D02*
X25070000Y-33750000D01*
%TO.N,BATN_GATE*%
D65*
X25399200Y-43449200D02*
X24936700Y-43449200D01*
D58*
X25960000Y-44868900D02*
X25325500Y-45503400D01*
D65*
X24936700Y-43449200D02*
X24050000Y-42562500D01*
D58*
X24236600Y-45503400D02*
X23490000Y-46250000D01*
X25960000Y-44010000D02*
X25960000Y-44868900D01*
X25399200Y-43449200D02*
X25960000Y-44010000D01*
X25325500Y-45503400D02*
X24236600Y-45503400D01*
X25960000Y-44010000D02*
X27500000Y-44010000D01*
%TO.N,VBAT_SENSE*%
X12838300Y-47401700D02*
X15417800Y-47401700D01*
D65*
X12951800Y-50276700D02*
X13002700Y-50327600D01*
D58*
X35999800Y-37460400D02*
X35999800Y-34650200D01*
X15417800Y-47401700D02*
X16402100Y-48386000D01*
X11500000Y-50276700D02*
X12500200Y-50276700D01*
X13002700Y-50327600D02*
X13002700Y-50327700D01*
X12240000Y-48000000D02*
X12838300Y-47401700D01*
X11500000Y-51020000D02*
X11500000Y-50276700D01*
X13087700Y-50327700D02*
X13760000Y-51000000D01*
X13002700Y-50327700D02*
X13087700Y-50327700D01*
X16402100Y-48386000D02*
X16402100Y-48810200D01*
X35999800Y-34650200D02*
X38650000Y-32000000D01*
D65*
X12500200Y-50276700D02*
X12951800Y-50276700D01*
%TO.N,HEAT_GATE*%
D58*
X57062500Y-49950000D02*
X56984300Y-49950000D01*
X55305800Y-48271500D02*
X55305800Y-47491900D01*
X56984300Y-49950000D02*
X55305800Y-48271500D01*
X57062500Y-50092600D02*
X57062500Y-49950000D01*
D65*
X55748100Y-47491900D02*
X56740000Y-46500000D01*
X57899200Y-50929300D02*
X57062500Y-50092600D01*
X55305800Y-47491900D02*
X55748100Y-47491900D01*
D58*
X59010000Y-51500000D02*
X59010000Y-50929300D01*
D65*
X59010000Y-50929300D02*
X57899200Y-50929300D01*
%TO.N,BATP_GATE*%
D58*
X22010000Y-44879300D02*
X24558200Y-44879300D01*
X22010000Y-45500000D02*
X22010000Y-44879300D01*
D65*
X20899200Y-44879300D02*
X20062500Y-44042600D01*
D58*
X24558200Y-44879300D02*
X25000000Y-44437500D01*
D65*
X22010000Y-44879300D02*
X20899200Y-44879300D01*
D58*
X20062500Y-44042600D02*
X20062500Y-43950000D01*
%TO.N,EFUSE_ILM*%
X36266900Y-40250000D02*
X35950000Y-40250000D01*
X35690000Y-41950000D02*
X36553600Y-41086400D01*
X36553600Y-40536700D02*
X36266900Y-40250000D01*
X36553600Y-41086400D02*
X36553600Y-40536700D01*
%TO.N,AMP_SD*%
X38562500Y-43750000D02*
X38037700Y-43225200D01*
X38037700Y-43225200D02*
X37925100Y-43225200D01*
X41260000Y-47500000D02*
X41646400Y-47500000D01*
X41646400Y-47500000D02*
X41983100Y-47163300D01*
%TO.N,VBUS_FUSED*%
D59*
X34050000Y-39750000D02*
X34050000Y-39920000D01*
X32850000Y-39920000D02*
X34050000Y-39920000D01*
D63*
X34050000Y-39250000D02*
X34050000Y-39750000D01*
D59*
X34050000Y-39920000D02*
X34050000Y-40250000D01*
X30400000Y-40000000D02*
X32770000Y-40000000D01*
X32770000Y-40000000D02*
X32850000Y-39920000D01*
%TO.N,HEAT_GATE_DRV*%
D58*
X57303900Y-51500000D02*
X52126200Y-46322300D01*
X57990000Y-51500000D02*
X57303900Y-51500000D01*
X25600000Y-29612500D02*
X25600000Y-28663900D01*
%TO.N,BUCK_FB*%
X45547500Y-19640000D02*
X46050000Y-19137500D01*
X47268700Y-20248700D02*
X47161300Y-20248700D01*
X47161300Y-20248700D02*
X46660000Y-20750000D01*
X47161300Y-20248700D02*
X46050000Y-19137500D01*
X44550000Y-19640000D02*
X45547500Y-19640000D01*
X47770000Y-20750000D02*
X47268700Y-20248700D01*
%TO.N,LCD_BL_GATE*%
X37510000Y-10929300D02*
X38080700Y-10929300D01*
X38080700Y-10929300D02*
X39500000Y-9510000D01*
X37510000Y-11500000D02*
X37510000Y-10929300D01*
D65*
X36449200Y-10929300D02*
X35562500Y-10042600D01*
X37510000Y-10929300D02*
X36449200Y-10929300D01*
D58*
X35562500Y-10042600D02*
X35562500Y-9950000D01*
%TO.N,BUCK_SW*%
D59*
X49450000Y-16850000D02*
X47962500Y-16850000D01*
X47962500Y-16850000D02*
X47950000Y-16862500D01*
%TO.N,EFUSE_DVDT*%
D58*
X33620000Y-41180000D02*
X34050000Y-40750000D01*
X33620000Y-42050000D02*
X33620000Y-41180000D01*
%TD*%
M02*
