M48
; DRILL file KiCad 10.0.6 date 2026-10-05T18:03:56
; FORMAT={-:-/ absolute / metric / decimal}
; #@! TF.CreationDate,2026-10-05T18:03:56-07:00
; #@! TF.GenerationSoftware,Kicad,Pcbnew,10.0.6
; #@! TF.FileFunction,Plated,1,4,PTH
FMAT,2
METRIC
; #@! TA.AperFunction,Plated,PTH,ComponentDrill
T1C0.200
; #@! TA.AperFunction,Plated,PTH,ViaDrill
T2C0.300
; #@! TA.AperFunction,Plated,PTH,ViaDrill
T3C0.400
; #@! TA.AperFunction,Plated,PTH,ComponentDrill
T4C0.600
%
G90
G05
T1
X7.81Y-30.8
X7.81Y-32.2
X8.51Y-30.1
X8.51Y-31.5
X8.51Y-32.9
X9.21Y-30.8
X9.21Y-32.2
X9.91Y-30.1
X9.91Y-31.5
X9.91Y-32.9
X10.61Y-30.8
X10.61Y-32.2
X35.0Y-39.45
X35.0Y-40.55
T2
X1.49Y-21.25
X1.49Y-38.75
X1.725Y-41.8
X1.99Y-40.4
X2.76Y-38.75
X3.43Y-35.958
X4.249Y-37.529
X4.41Y-40.4
X4.73Y-19.948
X5.05Y-3.555
X5.075Y-41.8
X5.132Y-37.539
X5.75Y-14.0
X5.957Y-16.963
X5.979Y-12.312
X5.979Y-15.688
X6.0Y-8.985
X6.018Y-37.545
X7.25Y-7.5
X8.096Y-37.52
X8.143Y-16.963
X8.37Y-5.094
X8.406Y-11.069
X8.75Y-8.394
X9.325Y-22.466
X9.638Y-5.087
X9.723Y-7.327
X10.5Y-9.21
X10.51Y-16.35
X10.648Y-5.099
X10.767Y-4.339
X10.963Y-37.527
X11.179Y-10.385
X11.5Y-50.277
X11.5Y-52.71
X11.75Y-9.21
X12.0Y-46.6
X12.458Y-37.527
X12.485Y-4.344
X12.514Y-3.512
X12.743Y-36.472
X12.836Y-7.317
X13.26Y-49.07
X13.623Y-4.387
X13.716Y-7.319
X13.73Y-5.19
X13.75Y-14.0
X13.908Y-17.855
X13.908Y-36.751
X13.957Y-16.963
X13.979Y-12.312
X13.979Y-15.688
X14.124Y-37.527
X14.635Y-17.352
X14.675Y-49.5
X15.093Y-25.498
X15.5Y-48.27
X15.604Y-22.608
X15.644Y-24.594
X15.644Y-41.796
X15.936Y-7.321
X16.143Y-16.963
X16.237Y-49.581
X16.402Y-48.81
X16.574Y-31.815
X17.145Y-9.882
X17.209Y-30.635
X17.799Y-29.365
X17.887Y-32.423
X18.034Y-33.175
X18.082Y-7.338
X18.51Y-16.35
X18.716Y-9.324
X18.855Y-14.724
X19.95Y-3.555
X20.0Y-49.71
X20.455Y-28.095
X20.835Y-4.962
X20.839Y-25.555
X21.191Y-23.015
X21.922Y-36.701
X21.973Y-19.673
X22.51Y-27.27
X23.0Y-32.98
X23.079Y-24.285
X23.691Y-7.012
X23.832Y-32.25
X25.43Y-26.5
X25.6Y-28.664
X25.615Y-25.735
X25.761Y-5.013
X25.893Y-19.573
X26.0Y-31.461
X26.123Y-41.285
X26.49Y-18.23
X26.76Y-33.75
X26.791Y-41.733
X27.0Y-8.0
X27.271Y-27.803
X27.522Y-33.731
X27.56Y-32.444
X28.5Y-51.98
X28.529Y-15.405
X28.75Y-47.488
X28.8Y-30.59
X28.8Y-33.01
X28.93Y-35.442
X28.96Y-20.25
X29.046Y-14.831
X29.18Y-19.0
X29.413Y-36.545
X29.418Y-38.383
X29.477Y-37.391
X29.727Y-51.075
X29.754Y-15.694
X30.312Y-34.118
X30.346Y-11.276
X30.551Y-35.919
X30.75Y-47.515
X30.82Y-20.401
X30.821Y-37.449
X30.87Y-14.279
X30.87Y-16.886
X31.0Y-50.25
X31.25Y-7.29
X31.25Y-9.71
X31.449Y-35.919
X31.5Y-50.98
X31.75Y-47.497
X31.75Y-51.75
X31.928Y-38.858
X32.436Y-36.276
X32.49Y-18.23
X32.534Y-15.607
X32.581Y-37.949
X32.656Y-27.226
X32.7Y-32.71
X32.71Y-53.0
X32.74Y-11.852
X32.8Y-37.04
X32.85Y-41.61
X32.948Y-35.334
X33.175Y-31.0
X33.2Y-37.8
X33.218Y-28.465
X33.322Y-4.528
X33.7Y-42.9
X33.727Y-9.799
X34.215Y-4.546
X34.674Y-49.36
X34.733Y-7.209
X35.06Y-38.73
X35.18Y-19.0
X36.0Y-37.46
X36.7Y-45.9
X36.855Y-2.607
X37.129Y-14.778
X37.43Y-41.95
X37.445Y-31.599
X37.45Y-40.925
X37.925Y-43.225
X38.285Y-24.81
X38.5Y-3.0
X39.27Y-5.775
X39.5Y-7.77
X39.711Y-29.506
X39.825Y-31.0
X40.0Y-44.5
X40.3Y-34.85
X41.26Y-41.75
X41.983Y-47.163
X42.01Y-43.178
X42.75Y-29.3
X43.05Y-44.725
X43.35Y-38.7
X43.555Y-28.38
X43.569Y-19.056
X44.0Y-3.0
X44.0Y-34.0
X44.0Y-47.981
X44.55Y-21.38
X46.481Y-27.226
X46.5Y-5.495
X46.743Y-14.687
X47.0Y-15.75
X47.0Y-38.75
X47.815Y-14.076
X48.04Y-7.75
X48.52Y-51.25
X48.825Y-3.675
X49.46Y-20.75
X50.46Y-7.75
X50.5Y-5.495
X50.509Y-47.988
X50.797Y-50.623
X50.98Y-51.74
X51.141Y-36.951
X51.5Y-5.495
X51.8Y-20.05
X52.126Y-46.322
X52.45Y-16.85
X53.7Y-20.05
X54.25Y-17.8
X55.0Y-4.298
X55.873Y-48.042
X57.27Y-7.75
X57.76Y-47.57
X58.336Y-6.279
X58.405Y-11.96
X58.405Y-23.46
X58.73Y-24.25
X59.072Y-27.191
X59.776Y-6.476
X61.443Y-8.593
X61.765Y-6.463
X62.25Y-9.0
T3
X14.86Y-44.213
X18.292Y-40.781
X18.98Y-48.158
X20.99Y-46.507
X21.938Y-40.448
X22.0Y-12.981
X27.834Y-41.585
X28.091Y-7.713
X31.541Y-11.05
X33.085Y-12.887
X35.812Y-16.621
X37.284Y-30.178
X37.45Y-37.408
X40.24Y-48.27
X40.3Y-36.75
X40.896Y-42.608
X41.07Y-33.611
X41.45Y-38.7
X41.477Y-37.843
X43.05Y-41.375
X43.239Y-16.621
X44.64Y-35.648
X44.821Y-29.874
X55.562Y-26.0
X57.55Y-14.5
X58.405Y-14.5
X59.515Y-47.731
T4
X25.68Y-46.675G85X25.68Y-47.775
G05
X25.68Y-51.105G85X25.68Y-51.705
G05
X34.32Y-46.675G85X34.32Y-47.775
G05
X34.32Y-51.105G85X34.32Y-51.705
G05
M30
