%TF.GenerationSoftware,KiCad,Pcbnew,10.0.6*%
%TF.CreationDate,2026-10-05T10:43:20-07:00*%
%TF.ProjectId,plush-toy-v2-B,706c7573-682d-4746-9f79-2d76322d422e,rev?*%
%TF.SameCoordinates,Original*%
%TF.FileFunction,Legend,Bot*%
%TF.FilePolarity,Positive*%
%FSLAX46Y46*%
G04 Gerber Fmt 4.6, Leading zero omitted, Abs format (unit mm)*
G04 Created by KiCad (PCBNEW 10.0.6) date 2026-10-05 10:43:20*
%MOMM*%
%LPD*%
G01*
G04 APERTURE LIST*
G04 Aperture macros list*
%AMRoundRect*
0 Rectangle with rounded corners*
0 $1 Rounding radius*
0 $2 $3 $4 $5 $6 $7 $8 $9 X,Y pos of 4 corners*
0 Add a 4 corners polygon primitive as box body*
4,1,4,$2,$3,$4,$5,$6,$7,$8,$9,$2,$3,0*
0 Add four circle primitives for the rounded corners*
1,1,$1+$1,$2,$3*
1,1,$1+$1,$4,$5*
1,1,$1+$1,$6,$7*
1,1,$1+$1,$8,$9*
0 Add four rect primitives between the rounded corners*
20,1,$1+$1,$2,$3,$4,$5,0*
20,1,$1+$1,$4,$5,$6,$7,0*
20,1,$1+$1,$6,$7,$8,$9,0*
20,1,$1+$1,$8,$9,$2,$3,0*%
G04 Aperture macros list end*
%ADD10C,0.150000*%
%ADD11C,0.120000*%
%ADD12C,0.250000*%
%ADD13C,0.060000*%
%ADD14C,0.100000*%
%ADD15C,0.650000*%
%ADD16O,1.000000X2.100000*%
%ADD17O,1.000000X1.600000*%
%ADD18C,2.200000*%
%ADD19RoundRect,0.135000X-0.135000X-0.185000X0.135000X-0.185000X0.135000X0.185000X-0.135000X0.185000X0*%
%ADD20RoundRect,0.150000X-0.150000X0.587500X-0.150000X-0.587500X0.150000X-0.587500X0.150000X0.587500X0*%
%ADD21RoundRect,0.135000X-0.185000X0.135000X-0.185000X-0.135000X0.185000X-0.135000X0.185000X0.135000X0*%
%ADD22RoundRect,0.250000X-0.475000X0.250000X-0.475000X-0.250000X0.475000X-0.250000X0.475000X0.250000X0*%
%ADD23R,1.100000X3.700000*%
%ADD24RoundRect,0.140000X-0.140000X-0.170000X0.140000X-0.170000X0.140000X0.170000X-0.140000X0.170000X0*%
%ADD25RoundRect,0.050000X-0.150000X-0.300000X0.150000X-0.300000X0.150000X0.300000X-0.150000X0.300000X0*%
%ADD26C,1.000000*%
%ADD27RoundRect,0.225000X-0.225000X-0.250000X0.225000X-0.250000X0.225000X0.250000X-0.225000X0.250000X0*%
%ADD28RoundRect,0.200000X-0.200000X-0.275000X0.200000X-0.275000X0.200000X0.275000X-0.200000X0.275000X0*%
%ADD29RoundRect,0.250000X-0.250000X-0.475000X0.250000X-0.475000X0.250000X0.475000X-0.250000X0.475000X0*%
%ADD30RoundRect,0.250000X-0.375000X-0.625000X0.375000X-0.625000X0.375000X0.625000X-0.375000X0.625000X0*%
%ADD31RoundRect,0.225000X-0.250000X0.225000X-0.250000X-0.225000X0.250000X-0.225000X0.250000X0.225000X0*%
%ADD32RoundRect,0.140000X-0.170000X0.140000X-0.170000X-0.140000X0.170000X-0.140000X0.170000X0.140000X0*%
%ADD33RoundRect,0.150000X-0.587500X-0.150000X0.587500X-0.150000X0.587500X0.150000X-0.587500X0.150000X0*%
%ADD34R,0.600000X1.200000*%
%ADD35R,2.000000X2.000000*%
%ADD36RoundRect,0.062500X-0.350000X-0.062500X0.350000X-0.062500X0.350000X0.062500X-0.350000X0.062500X0*%
%ADD37RoundRect,0.062500X-0.062500X-0.350000X0.062500X-0.350000X0.062500X0.350000X-0.062500X0.350000X0*%
%ADD38R,1.230000X1.230000*%
%ADD39RoundRect,0.250000X0.475000X-0.250000X0.475000X0.250000X-0.475000X0.250000X-0.475000X-0.250000X0*%
%ADD40R,1.800000X4.700000*%
%ADD41R,0.280000X0.500000*%
%ADD42R,0.500000X0.280000*%
%ADD43RoundRect,0.140000X0.140000X0.170000X-0.140000X0.170000X-0.140000X-0.170000X0.140000X-0.170000X0*%
%ADD44RoundRect,0.050000X-0.300000X0.150000X-0.300000X-0.150000X0.300000X-0.150000X0.300000X0.150000X0*%
%ADD45RoundRect,0.250000X0.250000X0.475000X-0.250000X0.475000X-0.250000X-0.475000X0.250000X-0.475000X0*%
%ADD46RoundRect,0.062500X-0.237500X-0.062500X0.237500X-0.062500X0.237500X0.062500X-0.237500X0.062500X0*%
%ADD47R,0.900000X1.600000*%
%ADD48RoundRect,0.150000X-0.150000X0.512500X-0.150000X-0.512500X0.150000X-0.512500X0.150000X0.512500X0*%
G04 APERTURE END LIST*
D10*
X15427379Y-7933485D02*
X15503569Y-7895390D01*
X15503569Y-7895390D02*
X15579760Y-7819200D01*
X15579760Y-7819200D02*
X15694046Y-7704914D01*
X15694046Y-7704914D02*
X15770236Y-7666819D01*
X15770236Y-7666819D02*
X15846427Y-7666819D01*
X15808331Y-7857295D02*
X15884522Y-7819200D01*
X15884522Y-7819200D02*
X15960712Y-7743009D01*
X15960712Y-7743009D02*
X15998808Y-7590628D01*
X15998808Y-7590628D02*
X15998808Y-7323961D01*
X15998808Y-7323961D02*
X15960712Y-7171580D01*
X15960712Y-7171580D02*
X15884522Y-7095390D01*
X15884522Y-7095390D02*
X15808331Y-7057295D01*
X15808331Y-7057295D02*
X15655950Y-7057295D01*
X15655950Y-7057295D02*
X15579760Y-7095390D01*
X15579760Y-7095390D02*
X15503569Y-7171580D01*
X15503569Y-7171580D02*
X15465474Y-7323961D01*
X15465474Y-7323961D02*
X15465474Y-7590628D01*
X15465474Y-7590628D02*
X15503569Y-7743009D01*
X15503569Y-7743009D02*
X15579760Y-7819200D01*
X15579760Y-7819200D02*
X15655950Y-7857295D01*
X15655950Y-7857295D02*
X15808331Y-7857295D01*
X15313094Y-7933485D02*
X14703570Y-7933485D01*
X14132141Y-7857295D02*
X14513093Y-7857295D01*
X14513093Y-7857295D02*
X14513093Y-7057295D01*
X13408331Y-7781104D02*
X13446427Y-7819200D01*
X13446427Y-7819200D02*
X13560712Y-7857295D01*
X13560712Y-7857295D02*
X13636903Y-7857295D01*
X13636903Y-7857295D02*
X13751189Y-7819200D01*
X13751189Y-7819200D02*
X13827379Y-7743009D01*
X13827379Y-7743009D02*
X13865474Y-7666819D01*
X13865474Y-7666819D02*
X13903570Y-7514438D01*
X13903570Y-7514438D02*
X13903570Y-7400152D01*
X13903570Y-7400152D02*
X13865474Y-7247771D01*
X13865474Y-7247771D02*
X13827379Y-7171580D01*
X13827379Y-7171580D02*
X13751189Y-7095390D01*
X13751189Y-7095390D02*
X13636903Y-7057295D01*
X13636903Y-7057295D02*
X13560712Y-7057295D01*
X13560712Y-7057295D02*
X13446427Y-7095390D01*
X13446427Y-7095390D02*
X13408331Y-7133485D01*
X13065474Y-7857295D02*
X13065474Y-7057295D01*
X13065474Y-7057295D02*
X12874998Y-7057295D01*
X12874998Y-7057295D02*
X12760712Y-7095390D01*
X12760712Y-7095390D02*
X12684522Y-7171580D01*
X12684522Y-7171580D02*
X12646427Y-7247771D01*
X12646427Y-7247771D02*
X12608331Y-7400152D01*
X12608331Y-7400152D02*
X12608331Y-7514438D01*
X12608331Y-7514438D02*
X12646427Y-7666819D01*
X12646427Y-7666819D02*
X12684522Y-7743009D01*
X12684522Y-7743009D02*
X12760712Y-7819200D01*
X12760712Y-7819200D02*
X12874998Y-7857295D01*
X12874998Y-7857295D02*
X13065474Y-7857295D01*
X12455951Y-7933485D02*
X11846427Y-7933485D01*
X11389284Y-7438247D02*
X11274998Y-7476342D01*
X11274998Y-7476342D02*
X11236903Y-7514438D01*
X11236903Y-7514438D02*
X11198807Y-7590628D01*
X11198807Y-7590628D02*
X11198807Y-7704914D01*
X11198807Y-7704914D02*
X11236903Y-7781104D01*
X11236903Y-7781104D02*
X11274998Y-7819200D01*
X11274998Y-7819200D02*
X11351188Y-7857295D01*
X11351188Y-7857295D02*
X11655950Y-7857295D01*
X11655950Y-7857295D02*
X11655950Y-7057295D01*
X11655950Y-7057295D02*
X11389284Y-7057295D01*
X11389284Y-7057295D02*
X11313093Y-7095390D01*
X11313093Y-7095390D02*
X11274998Y-7133485D01*
X11274998Y-7133485D02*
X11236903Y-7209676D01*
X11236903Y-7209676D02*
X11236903Y-7285866D01*
X11236903Y-7285866D02*
X11274998Y-7362057D01*
X11274998Y-7362057D02*
X11313093Y-7400152D01*
X11313093Y-7400152D02*
X11389284Y-7438247D01*
X11389284Y-7438247D02*
X11655950Y-7438247D01*
X10474998Y-7857295D02*
X10855950Y-7857295D01*
X10855950Y-7857295D02*
X10855950Y-7057295D01*
X27402380Y-4562295D02*
X26945237Y-4562295D01*
X27173809Y-5362295D02*
X27173809Y-4562295D01*
X26678570Y-5362295D02*
X26678570Y-4562295D01*
X26678570Y-4562295D02*
X26373808Y-4562295D01*
X26373808Y-4562295D02*
X26297618Y-4600390D01*
X26297618Y-4600390D02*
X26259523Y-4638485D01*
X26259523Y-4638485D02*
X26221427Y-4714676D01*
X26221427Y-4714676D02*
X26221427Y-4828961D01*
X26221427Y-4828961D02*
X26259523Y-4905152D01*
X26259523Y-4905152D02*
X26297618Y-4943247D01*
X26297618Y-4943247D02*
X26373808Y-4981342D01*
X26373808Y-4981342D02*
X26678570Y-4981342D01*
X26069047Y-5438485D02*
X25459523Y-5438485D01*
X24849999Y-4600390D02*
X24926189Y-4562295D01*
X24926189Y-4562295D02*
X25040475Y-4562295D01*
X25040475Y-4562295D02*
X25154761Y-4600390D01*
X25154761Y-4600390D02*
X25230951Y-4676580D01*
X25230951Y-4676580D02*
X25269046Y-4752771D01*
X25269046Y-4752771D02*
X25307142Y-4905152D01*
X25307142Y-4905152D02*
X25307142Y-5019438D01*
X25307142Y-5019438D02*
X25269046Y-5171819D01*
X25269046Y-5171819D02*
X25230951Y-5248009D01*
X25230951Y-5248009D02*
X25154761Y-5324200D01*
X25154761Y-5324200D02*
X25040475Y-5362295D01*
X25040475Y-5362295D02*
X24964284Y-5362295D01*
X24964284Y-5362295D02*
X24849999Y-5324200D01*
X24849999Y-5324200D02*
X24811903Y-5286104D01*
X24811903Y-5286104D02*
X24811903Y-5019438D01*
X24811903Y-5019438D02*
X24964284Y-5019438D01*
X24469046Y-5362295D02*
X24469046Y-4562295D01*
X24469046Y-4562295D02*
X24011903Y-5362295D01*
X24011903Y-5362295D02*
X24011903Y-4562295D01*
X23630951Y-5362295D02*
X23630951Y-4562295D01*
X23630951Y-4562295D02*
X23440475Y-4562295D01*
X23440475Y-4562295D02*
X23326189Y-4600390D01*
X23326189Y-4600390D02*
X23249999Y-4676580D01*
X23249999Y-4676580D02*
X23211904Y-4752771D01*
X23211904Y-4752771D02*
X23173808Y-4905152D01*
X23173808Y-4905152D02*
X23173808Y-5019438D01*
X23173808Y-5019438D02*
X23211904Y-5171819D01*
X23211904Y-5171819D02*
X23249999Y-5248009D01*
X23249999Y-5248009D02*
X23326189Y-5324200D01*
X23326189Y-5324200D02*
X23440475Y-5362295D01*
X23440475Y-5362295D02*
X23630951Y-5362295D01*
X38464285Y-4562295D02*
X38007142Y-4562295D01*
X38235714Y-5362295D02*
X38235714Y-4562295D01*
X37740475Y-5362295D02*
X37740475Y-4562295D01*
X37740475Y-4562295D02*
X37435713Y-4562295D01*
X37435713Y-4562295D02*
X37359523Y-4600390D01*
X37359523Y-4600390D02*
X37321428Y-4638485D01*
X37321428Y-4638485D02*
X37283332Y-4714676D01*
X37283332Y-4714676D02*
X37283332Y-4828961D01*
X37283332Y-4828961D02*
X37321428Y-4905152D01*
X37321428Y-4905152D02*
X37359523Y-4943247D01*
X37359523Y-4943247D02*
X37435713Y-4981342D01*
X37435713Y-4981342D02*
X37740475Y-4981342D01*
X37130952Y-5438485D02*
X36521428Y-5438485D01*
X36330951Y-4943247D02*
X36064285Y-4943247D01*
X35949999Y-5362295D02*
X36330951Y-5362295D01*
X36330951Y-5362295D02*
X36330951Y-4562295D01*
X36330951Y-4562295D02*
X35949999Y-4562295D01*
X35607141Y-5362295D02*
X35607141Y-4562295D01*
X35607141Y-4562295D02*
X35149998Y-5362295D01*
X35149998Y-5362295D02*
X35149998Y-4562295D01*
X28466666Y-32683485D02*
X28542856Y-32645390D01*
X28542856Y-32645390D02*
X28619047Y-32569200D01*
X28619047Y-32569200D02*
X28733333Y-32454914D01*
X28733333Y-32454914D02*
X28809523Y-32416819D01*
X28809523Y-32416819D02*
X28885714Y-32416819D01*
X28847618Y-32607295D02*
X28923809Y-32569200D01*
X28923809Y-32569200D02*
X28999999Y-32493009D01*
X28999999Y-32493009D02*
X29038095Y-32340628D01*
X29038095Y-32340628D02*
X29038095Y-32073961D01*
X29038095Y-32073961D02*
X28999999Y-31921580D01*
X28999999Y-31921580D02*
X28923809Y-31845390D01*
X28923809Y-31845390D02*
X28847618Y-31807295D01*
X28847618Y-31807295D02*
X28695237Y-31807295D01*
X28695237Y-31807295D02*
X28619047Y-31845390D01*
X28619047Y-31845390D02*
X28542856Y-31921580D01*
X28542856Y-31921580D02*
X28504761Y-32073961D01*
X28504761Y-32073961D02*
X28504761Y-32340628D01*
X28504761Y-32340628D02*
X28542856Y-32493009D01*
X28542856Y-32493009D02*
X28619047Y-32569200D01*
X28619047Y-32569200D02*
X28695237Y-32607295D01*
X28695237Y-32607295D02*
X28847618Y-32607295D01*
X28352381Y-32683485D02*
X27742857Y-32683485D01*
X27285714Y-32188247D02*
X27171428Y-32226342D01*
X27171428Y-32226342D02*
X27133333Y-32264438D01*
X27133333Y-32264438D02*
X27095237Y-32340628D01*
X27095237Y-32340628D02*
X27095237Y-32454914D01*
X27095237Y-32454914D02*
X27133333Y-32531104D01*
X27133333Y-32531104D02*
X27171428Y-32569200D01*
X27171428Y-32569200D02*
X27247618Y-32607295D01*
X27247618Y-32607295D02*
X27552380Y-32607295D01*
X27552380Y-32607295D02*
X27552380Y-31807295D01*
X27552380Y-31807295D02*
X27285714Y-31807295D01*
X27285714Y-31807295D02*
X27209523Y-31845390D01*
X27209523Y-31845390D02*
X27171428Y-31883485D01*
X27171428Y-31883485D02*
X27133333Y-31959676D01*
X27133333Y-31959676D02*
X27133333Y-32035866D01*
X27133333Y-32035866D02*
X27171428Y-32112057D01*
X27171428Y-32112057D02*
X27209523Y-32150152D01*
X27209523Y-32150152D02*
X27285714Y-32188247D01*
X27285714Y-32188247D02*
X27552380Y-32188247D01*
X26790476Y-32378723D02*
X26409523Y-32378723D01*
X26866666Y-32607295D02*
X26599999Y-31807295D01*
X26599999Y-31807295D02*
X26333333Y-32607295D01*
X26180952Y-31807295D02*
X25723809Y-31807295D01*
X25952381Y-32607295D02*
X25952381Y-31807295D01*
X25457142Y-32607295D02*
X25457142Y-31807295D01*
X25457142Y-31807295D02*
X24999999Y-32607295D01*
X24999999Y-32607295D02*
X24999999Y-31807295D01*
X45428571Y-32263485D02*
X45504761Y-32225390D01*
X45504761Y-32225390D02*
X45580952Y-32149200D01*
X45580952Y-32149200D02*
X45695238Y-32034914D01*
X45695238Y-32034914D02*
X45771428Y-31996819D01*
X45771428Y-31996819D02*
X45847619Y-31996819D01*
X45809523Y-32187295D02*
X45885714Y-32149200D01*
X45885714Y-32149200D02*
X45961904Y-32073009D01*
X45961904Y-32073009D02*
X46000000Y-31920628D01*
X46000000Y-31920628D02*
X46000000Y-31653961D01*
X46000000Y-31653961D02*
X45961904Y-31501580D01*
X45961904Y-31501580D02*
X45885714Y-31425390D01*
X45885714Y-31425390D02*
X45809523Y-31387295D01*
X45809523Y-31387295D02*
X45657142Y-31387295D01*
X45657142Y-31387295D02*
X45580952Y-31425390D01*
X45580952Y-31425390D02*
X45504761Y-31501580D01*
X45504761Y-31501580D02*
X45466666Y-31653961D01*
X45466666Y-31653961D02*
X45466666Y-31920628D01*
X45466666Y-31920628D02*
X45504761Y-32073009D01*
X45504761Y-32073009D02*
X45580952Y-32149200D01*
X45580952Y-32149200D02*
X45657142Y-32187295D01*
X45657142Y-32187295D02*
X45809523Y-32187295D01*
X45314286Y-32263485D02*
X44704762Y-32263485D01*
X44514285Y-32187295D02*
X44514285Y-31387295D01*
X44514285Y-31768247D02*
X44057142Y-31768247D01*
X44057142Y-32187295D02*
X44057142Y-31387295D01*
X43676190Y-31768247D02*
X43409524Y-31768247D01*
X43295238Y-32187295D02*
X43676190Y-32187295D01*
X43676190Y-32187295D02*
X43676190Y-31387295D01*
X43676190Y-31387295D02*
X43295238Y-31387295D01*
X42990476Y-31958723D02*
X42609523Y-31958723D01*
X43066666Y-32187295D02*
X42799999Y-31387295D01*
X42799999Y-31387295D02*
X42533333Y-32187295D01*
X42380952Y-31387295D02*
X41923809Y-31387295D01*
X42152381Y-32187295D02*
X42152381Y-31387295D01*
X24447618Y-31113484D02*
X24523808Y-31075389D01*
X24523808Y-31075389D02*
X24599999Y-30999199D01*
X24599999Y-30999199D02*
X24714285Y-30884913D01*
X24714285Y-30884913D02*
X24790475Y-30846818D01*
X24790475Y-30846818D02*
X24866666Y-30846818D01*
X24828570Y-31037294D02*
X24904761Y-30999199D01*
X24904761Y-30999199D02*
X24980951Y-30923008D01*
X24980951Y-30923008D02*
X25019047Y-30770627D01*
X25019047Y-30770627D02*
X25019047Y-30503960D01*
X25019047Y-30503960D02*
X24980951Y-30351579D01*
X24980951Y-30351579D02*
X24904761Y-30275389D01*
X24904761Y-30275389D02*
X24828570Y-30237294D01*
X24828570Y-30237294D02*
X24676189Y-30237294D01*
X24676189Y-30237294D02*
X24599999Y-30275389D01*
X24599999Y-30275389D02*
X24523808Y-30351579D01*
X24523808Y-30351579D02*
X24485713Y-30503960D01*
X24485713Y-30503960D02*
X24485713Y-30770627D01*
X24485713Y-30770627D02*
X24523808Y-30923008D01*
X24523808Y-30923008D02*
X24599999Y-30999199D01*
X24599999Y-30999199D02*
X24676189Y-31037294D01*
X24676189Y-31037294D02*
X24828570Y-31037294D01*
X24333333Y-31113484D02*
X23723809Y-31113484D01*
X23266666Y-30618246D02*
X23152380Y-30656341D01*
X23152380Y-30656341D02*
X23114285Y-30694437D01*
X23114285Y-30694437D02*
X23076189Y-30770627D01*
X23076189Y-30770627D02*
X23076189Y-30884913D01*
X23076189Y-30884913D02*
X23114285Y-30961103D01*
X23114285Y-30961103D02*
X23152380Y-30999199D01*
X23152380Y-30999199D02*
X23228570Y-31037294D01*
X23228570Y-31037294D02*
X23533332Y-31037294D01*
X23533332Y-31037294D02*
X23533332Y-30237294D01*
X23533332Y-30237294D02*
X23266666Y-30237294D01*
X23266666Y-30237294D02*
X23190475Y-30275389D01*
X23190475Y-30275389D02*
X23152380Y-30313484D01*
X23152380Y-30313484D02*
X23114285Y-30389675D01*
X23114285Y-30389675D02*
X23114285Y-30465865D01*
X23114285Y-30465865D02*
X23152380Y-30542056D01*
X23152380Y-30542056D02*
X23190475Y-30580151D01*
X23190475Y-30580151D02*
X23266666Y-30618246D01*
X23266666Y-30618246D02*
X23533332Y-30618246D01*
X22771428Y-30808722D02*
X22390475Y-30808722D01*
X22847618Y-31037294D02*
X22580951Y-30237294D01*
X22580951Y-30237294D02*
X22314285Y-31037294D01*
X22161904Y-30237294D02*
X21704761Y-30237294D01*
X21933333Y-31037294D02*
X21933333Y-30237294D01*
X21438094Y-31037294D02*
X21438094Y-30237294D01*
X21438094Y-30237294D02*
X21133332Y-30237294D01*
X21133332Y-30237294D02*
X21057142Y-30275389D01*
X21057142Y-30275389D02*
X21019047Y-30313484D01*
X21019047Y-30313484D02*
X20980951Y-30389675D01*
X20980951Y-30389675D02*
X20980951Y-30503960D01*
X20980951Y-30503960D02*
X21019047Y-30580151D01*
X21019047Y-30580151D02*
X21057142Y-30618246D01*
X21057142Y-30618246D02*
X21133332Y-30656341D01*
X21133332Y-30656341D02*
X21438094Y-30656341D01*
X21777380Y-20562295D02*
X21777380Y-21209914D01*
X21777380Y-21209914D02*
X21739285Y-21286104D01*
X21739285Y-21286104D02*
X21701190Y-21324200D01*
X21701190Y-21324200D02*
X21624999Y-21362295D01*
X21624999Y-21362295D02*
X21472618Y-21362295D01*
X21472618Y-21362295D02*
X21396428Y-21324200D01*
X21396428Y-21324200D02*
X21358333Y-21286104D01*
X21358333Y-21286104D02*
X21320237Y-21209914D01*
X21320237Y-21209914D02*
X21320237Y-20562295D01*
X21129762Y-21438485D02*
X20520238Y-21438485D01*
X19872618Y-21286104D02*
X19910714Y-21324200D01*
X19910714Y-21324200D02*
X20024999Y-21362295D01*
X20024999Y-21362295D02*
X20101190Y-21362295D01*
X20101190Y-21362295D02*
X20215476Y-21324200D01*
X20215476Y-21324200D02*
X20291666Y-21248009D01*
X20291666Y-21248009D02*
X20329761Y-21171819D01*
X20329761Y-21171819D02*
X20367857Y-21019438D01*
X20367857Y-21019438D02*
X20367857Y-20905152D01*
X20367857Y-20905152D02*
X20329761Y-20752771D01*
X20329761Y-20752771D02*
X20291666Y-20676580D01*
X20291666Y-20676580D02*
X20215476Y-20600390D01*
X20215476Y-20600390D02*
X20101190Y-20562295D01*
X20101190Y-20562295D02*
X20024999Y-20562295D01*
X20024999Y-20562295D02*
X19910714Y-20600390D01*
X19910714Y-20600390D02*
X19872618Y-20638485D01*
X19529761Y-21362295D02*
X19529761Y-20562295D01*
X19529761Y-20943247D02*
X19072618Y-20943247D01*
X19072618Y-21362295D02*
X19072618Y-20562295D01*
X18272619Y-20600390D02*
X18348809Y-20562295D01*
X18348809Y-20562295D02*
X18463095Y-20562295D01*
X18463095Y-20562295D02*
X18577381Y-20600390D01*
X18577381Y-20600390D02*
X18653571Y-20676580D01*
X18653571Y-20676580D02*
X18691666Y-20752771D01*
X18691666Y-20752771D02*
X18729762Y-20905152D01*
X18729762Y-20905152D02*
X18729762Y-21019438D01*
X18729762Y-21019438D02*
X18691666Y-21171819D01*
X18691666Y-21171819D02*
X18653571Y-21248009D01*
X18653571Y-21248009D02*
X18577381Y-21324200D01*
X18577381Y-21324200D02*
X18463095Y-21362295D01*
X18463095Y-21362295D02*
X18386904Y-21362295D01*
X18386904Y-21362295D02*
X18272619Y-21324200D01*
X18272619Y-21324200D02*
X18234523Y-21286104D01*
X18234523Y-21286104D02*
X18234523Y-21019438D01*
X18234523Y-21019438D02*
X18386904Y-21019438D01*
X44976190Y-4562295D02*
X44519047Y-4562295D01*
X44747619Y-5362295D02*
X44747619Y-4562295D01*
X44252380Y-5362295D02*
X44252380Y-4562295D01*
X44252380Y-4562295D02*
X43947618Y-4562295D01*
X43947618Y-4562295D02*
X43871428Y-4600390D01*
X43871428Y-4600390D02*
X43833333Y-4638485D01*
X43833333Y-4638485D02*
X43795237Y-4714676D01*
X43795237Y-4714676D02*
X43795237Y-4828961D01*
X43795237Y-4828961D02*
X43833333Y-4905152D01*
X43833333Y-4905152D02*
X43871428Y-4943247D01*
X43871428Y-4943247D02*
X43947618Y-4981342D01*
X43947618Y-4981342D02*
X44252380Y-4981342D01*
X43642857Y-5438485D02*
X43033333Y-5438485D01*
X42576190Y-4943247D02*
X42461904Y-4981342D01*
X42461904Y-4981342D02*
X42423809Y-5019438D01*
X42423809Y-5019438D02*
X42385713Y-5095628D01*
X42385713Y-5095628D02*
X42385713Y-5209914D01*
X42385713Y-5209914D02*
X42423809Y-5286104D01*
X42423809Y-5286104D02*
X42461904Y-5324200D01*
X42461904Y-5324200D02*
X42538094Y-5362295D01*
X42538094Y-5362295D02*
X42842856Y-5362295D01*
X42842856Y-5362295D02*
X42842856Y-4562295D01*
X42842856Y-4562295D02*
X42576190Y-4562295D01*
X42576190Y-4562295D02*
X42499999Y-4600390D01*
X42499999Y-4600390D02*
X42461904Y-4638485D01*
X42461904Y-4638485D02*
X42423809Y-4714676D01*
X42423809Y-4714676D02*
X42423809Y-4790866D01*
X42423809Y-4790866D02*
X42461904Y-4867057D01*
X42461904Y-4867057D02*
X42499999Y-4905152D01*
X42499999Y-4905152D02*
X42576190Y-4943247D01*
X42576190Y-4943247D02*
X42842856Y-4943247D01*
X41890475Y-4562295D02*
X41738094Y-4562295D01*
X41738094Y-4562295D02*
X41661904Y-4600390D01*
X41661904Y-4600390D02*
X41585713Y-4676580D01*
X41585713Y-4676580D02*
X41547618Y-4828961D01*
X41547618Y-4828961D02*
X41547618Y-5095628D01*
X41547618Y-5095628D02*
X41585713Y-5248009D01*
X41585713Y-5248009D02*
X41661904Y-5324200D01*
X41661904Y-5324200D02*
X41738094Y-5362295D01*
X41738094Y-5362295D02*
X41890475Y-5362295D01*
X41890475Y-5362295D02*
X41966666Y-5324200D01*
X41966666Y-5324200D02*
X42042856Y-5248009D01*
X42042856Y-5248009D02*
X42080952Y-5095628D01*
X42080952Y-5095628D02*
X42080952Y-4828961D01*
X42080952Y-4828961D02*
X42042856Y-4676580D01*
X42042856Y-4676580D02*
X41966666Y-4600390D01*
X41966666Y-4600390D02*
X41890475Y-4562295D01*
X41052380Y-4562295D02*
X40899999Y-4562295D01*
X40899999Y-4562295D02*
X40823809Y-4600390D01*
X40823809Y-4600390D02*
X40747618Y-4676580D01*
X40747618Y-4676580D02*
X40709523Y-4828961D01*
X40709523Y-4828961D02*
X40709523Y-5095628D01*
X40709523Y-5095628D02*
X40747618Y-5248009D01*
X40747618Y-5248009D02*
X40823809Y-5324200D01*
X40823809Y-5324200D02*
X40899999Y-5362295D01*
X40899999Y-5362295D02*
X41052380Y-5362295D01*
X41052380Y-5362295D02*
X41128571Y-5324200D01*
X41128571Y-5324200D02*
X41204761Y-5248009D01*
X41204761Y-5248009D02*
X41242857Y-5095628D01*
X41242857Y-5095628D02*
X41242857Y-4828961D01*
X41242857Y-4828961D02*
X41204761Y-4676580D01*
X41204761Y-4676580D02*
X41128571Y-4600390D01*
X41128571Y-4600390D02*
X41052380Y-4562295D01*
X40480952Y-4562295D02*
X40023809Y-4562295D01*
X40252381Y-5362295D02*
X40252381Y-4562295D01*
X35540832Y-27487295D02*
X35540832Y-28134914D01*
X35540832Y-28134914D02*
X35502737Y-28211104D01*
X35502737Y-28211104D02*
X35464642Y-28249200D01*
X35464642Y-28249200D02*
X35388451Y-28287295D01*
X35388451Y-28287295D02*
X35236070Y-28287295D01*
X35236070Y-28287295D02*
X35159880Y-28249200D01*
X35159880Y-28249200D02*
X35121785Y-28211104D01*
X35121785Y-28211104D02*
X35083689Y-28134914D01*
X35083689Y-28134914D02*
X35083689Y-27487295D01*
X34893214Y-28363485D02*
X34283690Y-28363485D01*
X34131309Y-28058723D02*
X33750356Y-28058723D01*
X34207499Y-28287295D02*
X33940832Y-27487295D01*
X33940832Y-27487295D02*
X33674166Y-28287295D01*
X33407499Y-28287295D02*
X33407499Y-27487295D01*
X33407499Y-27487295D02*
X33140833Y-28058723D01*
X33140833Y-28058723D02*
X32874166Y-27487295D01*
X32874166Y-27487295D02*
X32874166Y-28287295D01*
X32493213Y-28287295D02*
X32493213Y-27487295D01*
X32493213Y-27487295D02*
X32188451Y-27487295D01*
X32188451Y-27487295D02*
X32112261Y-27525390D01*
X32112261Y-27525390D02*
X32074166Y-27563485D01*
X32074166Y-27563485D02*
X32036070Y-27639676D01*
X32036070Y-27639676D02*
X32036070Y-27753961D01*
X32036070Y-27753961D02*
X32074166Y-27830152D01*
X32074166Y-27830152D02*
X32112261Y-27868247D01*
X32112261Y-27868247D02*
X32188451Y-27906342D01*
X32188451Y-27906342D02*
X32493213Y-27906342D01*
X36526189Y-13362295D02*
X36907141Y-13362295D01*
X36907141Y-13362295D02*
X36907141Y-12562295D01*
X36449999Y-13438485D02*
X35840475Y-13438485D01*
X35192855Y-13286104D02*
X35230951Y-13324200D01*
X35230951Y-13324200D02*
X35345236Y-13362295D01*
X35345236Y-13362295D02*
X35421427Y-13362295D01*
X35421427Y-13362295D02*
X35535713Y-13324200D01*
X35535713Y-13324200D02*
X35611903Y-13248009D01*
X35611903Y-13248009D02*
X35649998Y-13171819D01*
X35649998Y-13171819D02*
X35688094Y-13019438D01*
X35688094Y-13019438D02*
X35688094Y-12905152D01*
X35688094Y-12905152D02*
X35649998Y-12752771D01*
X35649998Y-12752771D02*
X35611903Y-12676580D01*
X35611903Y-12676580D02*
X35535713Y-12600390D01*
X35535713Y-12600390D02*
X35421427Y-12562295D01*
X35421427Y-12562295D02*
X35345236Y-12562295D01*
X35345236Y-12562295D02*
X35230951Y-12600390D01*
X35230951Y-12600390D02*
X35192855Y-12638485D01*
X34849998Y-13362295D02*
X34849998Y-12562295D01*
X34849998Y-12943247D02*
X34392855Y-12943247D01*
X34392855Y-13362295D02*
X34392855Y-12562295D01*
X33592856Y-12600390D02*
X33669046Y-12562295D01*
X33669046Y-12562295D02*
X33783332Y-12562295D01*
X33783332Y-12562295D02*
X33897618Y-12600390D01*
X33897618Y-12600390D02*
X33973808Y-12676580D01*
X33973808Y-12676580D02*
X34011903Y-12752771D01*
X34011903Y-12752771D02*
X34049999Y-12905152D01*
X34049999Y-12905152D02*
X34049999Y-13019438D01*
X34049999Y-13019438D02*
X34011903Y-13171819D01*
X34011903Y-13171819D02*
X33973808Y-13248009D01*
X33973808Y-13248009D02*
X33897618Y-13324200D01*
X33897618Y-13324200D02*
X33783332Y-13362295D01*
X33783332Y-13362295D02*
X33707141Y-13362295D01*
X33707141Y-13362295D02*
X33592856Y-13324200D01*
X33592856Y-13324200D02*
X33554760Y-13286104D01*
X33554760Y-13286104D02*
X33554760Y-13019438D01*
X33554760Y-13019438D02*
X33707141Y-13019438D01*
X21538095Y-4562295D02*
X21080952Y-4562295D01*
X21309524Y-5362295D02*
X21309524Y-4562295D01*
X20814285Y-5362295D02*
X20814285Y-4562295D01*
X20814285Y-4562295D02*
X20509523Y-4562295D01*
X20509523Y-4562295D02*
X20433333Y-4600390D01*
X20433333Y-4600390D02*
X20395238Y-4638485D01*
X20395238Y-4638485D02*
X20357142Y-4714676D01*
X20357142Y-4714676D02*
X20357142Y-4828961D01*
X20357142Y-4828961D02*
X20395238Y-4905152D01*
X20395238Y-4905152D02*
X20433333Y-4943247D01*
X20433333Y-4943247D02*
X20509523Y-4981342D01*
X20509523Y-4981342D02*
X20814285Y-4981342D01*
X20204762Y-5438485D02*
X19595238Y-5438485D01*
X19480952Y-4562295D02*
X18985714Y-4562295D01*
X18985714Y-4562295D02*
X19252380Y-4867057D01*
X19252380Y-4867057D02*
X19138095Y-4867057D01*
X19138095Y-4867057D02*
X19061904Y-4905152D01*
X19061904Y-4905152D02*
X19023809Y-4943247D01*
X19023809Y-4943247D02*
X18985714Y-5019438D01*
X18985714Y-5019438D02*
X18985714Y-5209914D01*
X18985714Y-5209914D02*
X19023809Y-5286104D01*
X19023809Y-5286104D02*
X19061904Y-5324200D01*
X19061904Y-5324200D02*
X19138095Y-5362295D01*
X19138095Y-5362295D02*
X19366666Y-5362295D01*
X19366666Y-5362295D02*
X19442857Y-5324200D01*
X19442857Y-5324200D02*
X19480952Y-5286104D01*
X18757142Y-4562295D02*
X18490475Y-5362295D01*
X18490475Y-5362295D02*
X18223809Y-4562295D01*
X18033333Y-4562295D02*
X17538095Y-4562295D01*
X17538095Y-4562295D02*
X17804761Y-4867057D01*
X17804761Y-4867057D02*
X17690476Y-4867057D01*
X17690476Y-4867057D02*
X17614285Y-4905152D01*
X17614285Y-4905152D02*
X17576190Y-4943247D01*
X17576190Y-4943247D02*
X17538095Y-5019438D01*
X17538095Y-5019438D02*
X17538095Y-5209914D01*
X17538095Y-5209914D02*
X17576190Y-5286104D01*
X17576190Y-5286104D02*
X17614285Y-5324200D01*
X17614285Y-5324200D02*
X17690476Y-5362295D01*
X17690476Y-5362295D02*
X17919047Y-5362295D01*
X17919047Y-5362295D02*
X17995238Y-5324200D01*
X17995238Y-5324200D02*
X18033333Y-5286104D01*
X15823809Y-4562295D02*
X15366666Y-4562295D01*
X15595238Y-5362295D02*
X15595238Y-4562295D01*
X15099999Y-5362295D02*
X15099999Y-4562295D01*
X15099999Y-4562295D02*
X14795237Y-4562295D01*
X14795237Y-4562295D02*
X14719047Y-4600390D01*
X14719047Y-4600390D02*
X14680952Y-4638485D01*
X14680952Y-4638485D02*
X14642856Y-4714676D01*
X14642856Y-4714676D02*
X14642856Y-4828961D01*
X14642856Y-4828961D02*
X14680952Y-4905152D01*
X14680952Y-4905152D02*
X14719047Y-4943247D01*
X14719047Y-4943247D02*
X14795237Y-4981342D01*
X14795237Y-4981342D02*
X15099999Y-4981342D01*
X14490476Y-5438485D02*
X13880952Y-5438485D01*
X13804761Y-4562295D02*
X13538094Y-5362295D01*
X13538094Y-5362295D02*
X13271428Y-4562295D01*
X12738095Y-4943247D02*
X12623809Y-4981342D01*
X12623809Y-4981342D02*
X12585714Y-5019438D01*
X12585714Y-5019438D02*
X12547618Y-5095628D01*
X12547618Y-5095628D02*
X12547618Y-5209914D01*
X12547618Y-5209914D02*
X12585714Y-5286104D01*
X12585714Y-5286104D02*
X12623809Y-5324200D01*
X12623809Y-5324200D02*
X12699999Y-5362295D01*
X12699999Y-5362295D02*
X13004761Y-5362295D01*
X13004761Y-5362295D02*
X13004761Y-4562295D01*
X13004761Y-4562295D02*
X12738095Y-4562295D01*
X12738095Y-4562295D02*
X12661904Y-4600390D01*
X12661904Y-4600390D02*
X12623809Y-4638485D01*
X12623809Y-4638485D02*
X12585714Y-4714676D01*
X12585714Y-4714676D02*
X12585714Y-4790866D01*
X12585714Y-4790866D02*
X12623809Y-4867057D01*
X12623809Y-4867057D02*
X12661904Y-4905152D01*
X12661904Y-4905152D02*
X12738095Y-4943247D01*
X12738095Y-4943247D02*
X13004761Y-4943247D01*
X12242857Y-5133723D02*
X11861904Y-5133723D01*
X12319047Y-5362295D02*
X12052380Y-4562295D01*
X12052380Y-4562295D02*
X11785714Y-5362295D01*
X11633333Y-4562295D02*
X11176190Y-4562295D01*
X11404762Y-5362295D02*
X11404762Y-4562295D01*
X9276190Y-4562295D02*
X8819047Y-4562295D01*
X9047619Y-5362295D02*
X9047619Y-4562295D01*
X8552380Y-5362295D02*
X8552380Y-4562295D01*
X8552380Y-4562295D02*
X8247618Y-4562295D01*
X8247618Y-4562295D02*
X8171428Y-4600390D01*
X8171428Y-4600390D02*
X8133333Y-4638485D01*
X8133333Y-4638485D02*
X8095237Y-4714676D01*
X8095237Y-4714676D02*
X8095237Y-4828961D01*
X8095237Y-4828961D02*
X8133333Y-4905152D01*
X8133333Y-4905152D02*
X8171428Y-4943247D01*
X8171428Y-4943247D02*
X8247618Y-4981342D01*
X8247618Y-4981342D02*
X8552380Y-4981342D01*
X7942857Y-5438485D02*
X7333333Y-5438485D01*
X7257142Y-4562295D02*
X6990475Y-5362295D01*
X6990475Y-5362295D02*
X6723809Y-4562295D01*
X6457142Y-4562295D02*
X6457142Y-5209914D01*
X6457142Y-5209914D02*
X6419047Y-5286104D01*
X6419047Y-5286104D02*
X6380952Y-5324200D01*
X6380952Y-5324200D02*
X6304761Y-5362295D01*
X6304761Y-5362295D02*
X6152380Y-5362295D01*
X6152380Y-5362295D02*
X6076190Y-5324200D01*
X6076190Y-5324200D02*
X6038095Y-5286104D01*
X6038095Y-5286104D02*
X5999999Y-5209914D01*
X5999999Y-5209914D02*
X5999999Y-4562295D01*
X5657143Y-5324200D02*
X5542857Y-5362295D01*
X5542857Y-5362295D02*
X5352381Y-5362295D01*
X5352381Y-5362295D02*
X5276190Y-5324200D01*
X5276190Y-5324200D02*
X5238095Y-5286104D01*
X5238095Y-5286104D02*
X5200000Y-5209914D01*
X5200000Y-5209914D02*
X5200000Y-5133723D01*
X5200000Y-5133723D02*
X5238095Y-5057533D01*
X5238095Y-5057533D02*
X5276190Y-5019438D01*
X5276190Y-5019438D02*
X5352381Y-4981342D01*
X5352381Y-4981342D02*
X5504762Y-4943247D01*
X5504762Y-4943247D02*
X5580952Y-4905152D01*
X5580952Y-4905152D02*
X5619047Y-4867057D01*
X5619047Y-4867057D02*
X5657143Y-4790866D01*
X5657143Y-4790866D02*
X5657143Y-4714676D01*
X5657143Y-4714676D02*
X5619047Y-4638485D01*
X5619047Y-4638485D02*
X5580952Y-4600390D01*
X5580952Y-4600390D02*
X5504762Y-4562295D01*
X5504762Y-4562295D02*
X5314285Y-4562295D01*
X5314285Y-4562295D02*
X5200000Y-4600390D01*
X4590476Y-4943247D02*
X4476190Y-4981342D01*
X4476190Y-4981342D02*
X4438095Y-5019438D01*
X4438095Y-5019438D02*
X4399999Y-5095628D01*
X4399999Y-5095628D02*
X4399999Y-5209914D01*
X4399999Y-5209914D02*
X4438095Y-5286104D01*
X4438095Y-5286104D02*
X4476190Y-5324200D01*
X4476190Y-5324200D02*
X4552380Y-5362295D01*
X4552380Y-5362295D02*
X4857142Y-5362295D01*
X4857142Y-5362295D02*
X4857142Y-4562295D01*
X4857142Y-4562295D02*
X4590476Y-4562295D01*
X4590476Y-4562295D02*
X4514285Y-4600390D01*
X4514285Y-4600390D02*
X4476190Y-4638485D01*
X4476190Y-4638485D02*
X4438095Y-4714676D01*
X4438095Y-4714676D02*
X4438095Y-4790866D01*
X4438095Y-4790866D02*
X4476190Y-4867057D01*
X4476190Y-4867057D02*
X4514285Y-4905152D01*
X4514285Y-4905152D02*
X4590476Y-4943247D01*
X4590476Y-4943247D02*
X4857142Y-4943247D01*
X21599999Y-13157294D02*
X21599999Y-13804913D01*
X21599999Y-13804913D02*
X21561904Y-13881103D01*
X21561904Y-13881103D02*
X21523809Y-13919199D01*
X21523809Y-13919199D02*
X21447618Y-13957294D01*
X21447618Y-13957294D02*
X21295237Y-13957294D01*
X21295237Y-13957294D02*
X21219047Y-13919199D01*
X21219047Y-13919199D02*
X21180952Y-13881103D01*
X21180952Y-13881103D02*
X21142856Y-13804913D01*
X21142856Y-13804913D02*
X21142856Y-13157294D01*
X20952381Y-14033484D02*
X20342857Y-14033484D01*
X20152380Y-13957294D02*
X20152380Y-13157294D01*
X19771428Y-13957294D02*
X19771428Y-13157294D01*
X19771428Y-13157294D02*
X19504762Y-13728722D01*
X19504762Y-13728722D02*
X19238095Y-13157294D01*
X19238095Y-13157294D02*
X19238095Y-13957294D01*
X18857142Y-13157294D02*
X18857142Y-13804913D01*
X18857142Y-13804913D02*
X18819047Y-13881103D01*
X18819047Y-13881103D02*
X18780952Y-13919199D01*
X18780952Y-13919199D02*
X18704761Y-13957294D01*
X18704761Y-13957294D02*
X18552380Y-13957294D01*
X18552380Y-13957294D02*
X18476190Y-13919199D01*
X18476190Y-13919199D02*
X18438095Y-13881103D01*
X18438095Y-13881103D02*
X18399999Y-13804913D01*
X18399999Y-13804913D02*
X18399999Y-13157294D01*
X41924999Y-33552294D02*
X41924999Y-34199913D01*
X41924999Y-34199913D02*
X41886904Y-34276103D01*
X41886904Y-34276103D02*
X41848809Y-34314199D01*
X41848809Y-34314199D02*
X41772618Y-34352294D01*
X41772618Y-34352294D02*
X41620237Y-34352294D01*
X41620237Y-34352294D02*
X41544047Y-34314199D01*
X41544047Y-34314199D02*
X41505952Y-34276103D01*
X41505952Y-34276103D02*
X41467856Y-34199913D01*
X41467856Y-34199913D02*
X41467856Y-33552294D01*
X41277381Y-34428484D02*
X40667857Y-34428484D01*
X40477380Y-33933246D02*
X40210714Y-33933246D01*
X40096428Y-34352294D02*
X40477380Y-34352294D01*
X40477380Y-34352294D02*
X40477380Y-33552294D01*
X40477380Y-33552294D02*
X40096428Y-33552294D01*
X39486904Y-33933246D02*
X39753570Y-33933246D01*
X39753570Y-34352294D02*
X39753570Y-33552294D01*
X39753570Y-33552294D02*
X39372618Y-33552294D01*
X39067856Y-33552294D02*
X39067856Y-34199913D01*
X39067856Y-34199913D02*
X39029761Y-34276103D01*
X39029761Y-34276103D02*
X38991666Y-34314199D01*
X38991666Y-34314199D02*
X38915475Y-34352294D01*
X38915475Y-34352294D02*
X38763094Y-34352294D01*
X38763094Y-34352294D02*
X38686904Y-34314199D01*
X38686904Y-34314199D02*
X38648809Y-34276103D01*
X38648809Y-34276103D02*
X38610713Y-34199913D01*
X38610713Y-34199913D02*
X38610713Y-33552294D01*
X38267857Y-34314199D02*
X38153571Y-34352294D01*
X38153571Y-34352294D02*
X37963095Y-34352294D01*
X37963095Y-34352294D02*
X37886904Y-34314199D01*
X37886904Y-34314199D02*
X37848809Y-34276103D01*
X37848809Y-34276103D02*
X37810714Y-34199913D01*
X37810714Y-34199913D02*
X37810714Y-34123722D01*
X37810714Y-34123722D02*
X37848809Y-34047532D01*
X37848809Y-34047532D02*
X37886904Y-34009437D01*
X37886904Y-34009437D02*
X37963095Y-33971341D01*
X37963095Y-33971341D02*
X38115476Y-33933246D01*
X38115476Y-33933246D02*
X38191666Y-33895151D01*
X38191666Y-33895151D02*
X38229761Y-33857056D01*
X38229761Y-33857056D02*
X38267857Y-33780865D01*
X38267857Y-33780865D02*
X38267857Y-33704675D01*
X38267857Y-33704675D02*
X38229761Y-33628484D01*
X38229761Y-33628484D02*
X38191666Y-33590389D01*
X38191666Y-33590389D02*
X38115476Y-33552294D01*
X38115476Y-33552294D02*
X37924999Y-33552294D01*
X37924999Y-33552294D02*
X37810714Y-33590389D01*
X37467856Y-33933246D02*
X37201190Y-33933246D01*
X37086904Y-34352294D02*
X37467856Y-34352294D01*
X37467856Y-34352294D02*
X37467856Y-33552294D01*
X37467856Y-33552294D02*
X37086904Y-33552294D01*
X32733333Y-4562295D02*
X32276190Y-4562295D01*
X32504762Y-5362295D02*
X32504762Y-4562295D01*
X32009523Y-5362295D02*
X32009523Y-4562295D01*
X32009523Y-4562295D02*
X31704761Y-4562295D01*
X31704761Y-4562295D02*
X31628571Y-4600390D01*
X31628571Y-4600390D02*
X31590476Y-4638485D01*
X31590476Y-4638485D02*
X31552380Y-4714676D01*
X31552380Y-4714676D02*
X31552380Y-4828961D01*
X31552380Y-4828961D02*
X31590476Y-4905152D01*
X31590476Y-4905152D02*
X31628571Y-4943247D01*
X31628571Y-4943247D02*
X31704761Y-4981342D01*
X31704761Y-4981342D02*
X32009523Y-4981342D01*
X31400000Y-5438485D02*
X30790476Y-5438485D01*
X30142856Y-5286104D02*
X30180952Y-5324200D01*
X30180952Y-5324200D02*
X30295237Y-5362295D01*
X30295237Y-5362295D02*
X30371428Y-5362295D01*
X30371428Y-5362295D02*
X30485714Y-5324200D01*
X30485714Y-5324200D02*
X30561904Y-5248009D01*
X30561904Y-5248009D02*
X30599999Y-5171819D01*
X30599999Y-5171819D02*
X30638095Y-5019438D01*
X30638095Y-5019438D02*
X30638095Y-4905152D01*
X30638095Y-4905152D02*
X30599999Y-4752771D01*
X30599999Y-4752771D02*
X30561904Y-4676580D01*
X30561904Y-4676580D02*
X30485714Y-4600390D01*
X30485714Y-4600390D02*
X30371428Y-4562295D01*
X30371428Y-4562295D02*
X30295237Y-4562295D01*
X30295237Y-4562295D02*
X30180952Y-4600390D01*
X30180952Y-4600390D02*
X30142856Y-4638485D01*
X29342856Y-5286104D02*
X29380952Y-5324200D01*
X29380952Y-5324200D02*
X29495237Y-5362295D01*
X29495237Y-5362295D02*
X29571428Y-5362295D01*
X29571428Y-5362295D02*
X29685714Y-5324200D01*
X29685714Y-5324200D02*
X29761904Y-5248009D01*
X29761904Y-5248009D02*
X29799999Y-5171819D01*
X29799999Y-5171819D02*
X29838095Y-5019438D01*
X29838095Y-5019438D02*
X29838095Y-4905152D01*
X29838095Y-4905152D02*
X29799999Y-4752771D01*
X29799999Y-4752771D02*
X29761904Y-4676580D01*
X29761904Y-4676580D02*
X29685714Y-4600390D01*
X29685714Y-4600390D02*
X29571428Y-4562295D01*
X29571428Y-4562295D02*
X29495237Y-4562295D01*
X29495237Y-4562295D02*
X29380952Y-4600390D01*
X29380952Y-4600390D02*
X29342856Y-4638485D01*
X42064880Y-11887295D02*
X42064880Y-12534914D01*
X42064880Y-12534914D02*
X42026785Y-12611104D01*
X42026785Y-12611104D02*
X41988690Y-12649200D01*
X41988690Y-12649200D02*
X41912499Y-12687295D01*
X41912499Y-12687295D02*
X41760118Y-12687295D01*
X41760118Y-12687295D02*
X41683928Y-12649200D01*
X41683928Y-12649200D02*
X41645833Y-12611104D01*
X41645833Y-12611104D02*
X41607737Y-12534914D01*
X41607737Y-12534914D02*
X41607737Y-11887295D01*
X41417262Y-12763485D02*
X40807738Y-12763485D01*
X40350595Y-12268247D02*
X40236309Y-12306342D01*
X40236309Y-12306342D02*
X40198214Y-12344438D01*
X40198214Y-12344438D02*
X40160118Y-12420628D01*
X40160118Y-12420628D02*
X40160118Y-12534914D01*
X40160118Y-12534914D02*
X40198214Y-12611104D01*
X40198214Y-12611104D02*
X40236309Y-12649200D01*
X40236309Y-12649200D02*
X40312499Y-12687295D01*
X40312499Y-12687295D02*
X40617261Y-12687295D01*
X40617261Y-12687295D02*
X40617261Y-11887295D01*
X40617261Y-11887295D02*
X40350595Y-11887295D01*
X40350595Y-11887295D02*
X40274404Y-11925390D01*
X40274404Y-11925390D02*
X40236309Y-11963485D01*
X40236309Y-11963485D02*
X40198214Y-12039676D01*
X40198214Y-12039676D02*
X40198214Y-12115866D01*
X40198214Y-12115866D02*
X40236309Y-12192057D01*
X40236309Y-12192057D02*
X40274404Y-12230152D01*
X40274404Y-12230152D02*
X40350595Y-12268247D01*
X40350595Y-12268247D02*
X40617261Y-12268247D01*
X39817261Y-11887295D02*
X39817261Y-12534914D01*
X39817261Y-12534914D02*
X39779166Y-12611104D01*
X39779166Y-12611104D02*
X39741071Y-12649200D01*
X39741071Y-12649200D02*
X39664880Y-12687295D01*
X39664880Y-12687295D02*
X39512499Y-12687295D01*
X39512499Y-12687295D02*
X39436309Y-12649200D01*
X39436309Y-12649200D02*
X39398214Y-12611104D01*
X39398214Y-12611104D02*
X39360118Y-12534914D01*
X39360118Y-12534914D02*
X39360118Y-11887295D01*
X38522023Y-12611104D02*
X38560119Y-12649200D01*
X38560119Y-12649200D02*
X38674404Y-12687295D01*
X38674404Y-12687295D02*
X38750595Y-12687295D01*
X38750595Y-12687295D02*
X38864881Y-12649200D01*
X38864881Y-12649200D02*
X38941071Y-12573009D01*
X38941071Y-12573009D02*
X38979166Y-12496819D01*
X38979166Y-12496819D02*
X39017262Y-12344438D01*
X39017262Y-12344438D02*
X39017262Y-12230152D01*
X39017262Y-12230152D02*
X38979166Y-12077771D01*
X38979166Y-12077771D02*
X38941071Y-12001580D01*
X38941071Y-12001580D02*
X38864881Y-11925390D01*
X38864881Y-11925390D02*
X38750595Y-11887295D01*
X38750595Y-11887295D02*
X38674404Y-11887295D01*
X38674404Y-11887295D02*
X38560119Y-11925390D01*
X38560119Y-11925390D02*
X38522023Y-11963485D01*
X38179166Y-12687295D02*
X38179166Y-11887295D01*
X37722023Y-12687295D02*
X38064881Y-12230152D01*
X37722023Y-11887295D02*
X38179166Y-12344438D01*
X10130952Y-6162295D02*
X9673809Y-6162295D01*
X9902381Y-6962295D02*
X9902381Y-6162295D01*
X9407142Y-6962295D02*
X9407142Y-6162295D01*
X9407142Y-6162295D02*
X9102380Y-6162295D01*
X9102380Y-6162295D02*
X9026190Y-6200390D01*
X9026190Y-6200390D02*
X8988095Y-6238485D01*
X8988095Y-6238485D02*
X8949999Y-6314676D01*
X8949999Y-6314676D02*
X8949999Y-6428961D01*
X8949999Y-6428961D02*
X8988095Y-6505152D01*
X8988095Y-6505152D02*
X9026190Y-6543247D01*
X9026190Y-6543247D02*
X9102380Y-6581342D01*
X9102380Y-6581342D02*
X9407142Y-6581342D01*
X8797619Y-7038485D02*
X8188095Y-7038485D01*
X8111904Y-6162295D02*
X7845237Y-6962295D01*
X7845237Y-6962295D02*
X7578571Y-6162295D01*
X7350000Y-6924200D02*
X7235714Y-6962295D01*
X7235714Y-6962295D02*
X7045238Y-6962295D01*
X7045238Y-6962295D02*
X6969047Y-6924200D01*
X6969047Y-6924200D02*
X6930952Y-6886104D01*
X6930952Y-6886104D02*
X6892857Y-6809914D01*
X6892857Y-6809914D02*
X6892857Y-6733723D01*
X6892857Y-6733723D02*
X6930952Y-6657533D01*
X6930952Y-6657533D02*
X6969047Y-6619438D01*
X6969047Y-6619438D02*
X7045238Y-6581342D01*
X7045238Y-6581342D02*
X7197619Y-6543247D01*
X7197619Y-6543247D02*
X7273809Y-6505152D01*
X7273809Y-6505152D02*
X7311904Y-6467057D01*
X7311904Y-6467057D02*
X7350000Y-6390866D01*
X7350000Y-6390866D02*
X7350000Y-6314676D01*
X7350000Y-6314676D02*
X7311904Y-6238485D01*
X7311904Y-6238485D02*
X7273809Y-6200390D01*
X7273809Y-6200390D02*
X7197619Y-6162295D01*
X7197619Y-6162295D02*
X7007142Y-6162295D01*
X7007142Y-6162295D02*
X6892857Y-6200390D01*
X6397618Y-6581342D02*
X6397618Y-6962295D01*
X6664285Y-6162295D02*
X6397618Y-6581342D01*
X6397618Y-6581342D02*
X6130952Y-6162295D01*
X5902381Y-6924200D02*
X5788095Y-6962295D01*
X5788095Y-6962295D02*
X5597619Y-6962295D01*
X5597619Y-6962295D02*
X5521428Y-6924200D01*
X5521428Y-6924200D02*
X5483333Y-6886104D01*
X5483333Y-6886104D02*
X5445238Y-6809914D01*
X5445238Y-6809914D02*
X5445238Y-6733723D01*
X5445238Y-6733723D02*
X5483333Y-6657533D01*
X5483333Y-6657533D02*
X5521428Y-6619438D01*
X5521428Y-6619438D02*
X5597619Y-6581342D01*
X5597619Y-6581342D02*
X5750000Y-6543247D01*
X5750000Y-6543247D02*
X5826190Y-6505152D01*
X5826190Y-6505152D02*
X5864285Y-6467057D01*
X5864285Y-6467057D02*
X5902381Y-6390866D01*
X5902381Y-6390866D02*
X5902381Y-6314676D01*
X5902381Y-6314676D02*
X5864285Y-6238485D01*
X5864285Y-6238485D02*
X5826190Y-6200390D01*
X5826190Y-6200390D02*
X5750000Y-6162295D01*
X5750000Y-6162295D02*
X5559523Y-6162295D01*
X5559523Y-6162295D02*
X5445238Y-6200390D01*
%TO.C,R_BOOT*%
D11*
X26846359Y-8620000D02*
X27153641Y-8620000D01*
X26846359Y-9380000D02*
X27153641Y-9380000D01*
%TO.C,Q_LCD_BL*%
X13440000Y-9490000D02*
X13440000Y-11010000D01*
X13440000Y-11010000D02*
X14440000Y-11010000D01*
X13490000Y-9490000D02*
X13440000Y-9490000D01*
X15390000Y-9490000D02*
X14610000Y-9490000D01*
X15560000Y-11010000D02*
X16560000Y-11010000D01*
X16560000Y-9490000D02*
X16510000Y-9490000D01*
X16560000Y-11010000D02*
X16560000Y-9490000D01*
X14620000Y-8950000D02*
X14950000Y-9190000D01*
X14950000Y-8710000D01*
X14620000Y-8950000D01*
G36*
X14950000Y-9190000D02*
G01*
X14620000Y-8950000D01*
X14950000Y-8710000D01*
X14950000Y-9190000D01*
G37*
%TO.C,R_CC_SUM1*%
X34096359Y-42620000D02*
X34403641Y-42620000D01*
X34096359Y-43380000D02*
X34403641Y-43380000D01*
%TO.C,R_NTC*%
X11846359Y-41870000D02*
X12153641Y-41870000D01*
X11846359Y-42630000D02*
X12153641Y-42630000D01*
%TO.C,R_CC2*%
X36620000Y-40596359D02*
X36620000Y-40903641D01*
X37380000Y-40596359D02*
X37380000Y-40903641D01*
%TO.C,C_CHG_VIN*%
X27965000Y-23638748D02*
X27965000Y-24161252D01*
X29435000Y-23638748D02*
X29435000Y-24161252D01*
%TO.C,L_BUCK*%
D12*
X43050000Y-13850000D02*
X44850000Y-13850000D01*
X43050000Y-17850000D02*
X44850000Y-17850000D01*
D13*
X41980000Y-13850000D02*
G75*
G02*
X41920000Y-13850000I-30000J0D01*
G01*
X41920000Y-13850000D02*
G75*
G02*
X41980000Y-13850000I30000J0D01*
G01*
%TO.C,R_FB1*%
D11*
X38996359Y-19370000D02*
X39303641Y-19370000D01*
X38996359Y-20130000D02*
X39303641Y-20130000D01*
%TO.C,C_EFUSE_IN*%
X37392164Y-31540000D02*
X37607836Y-31540000D01*
X37392164Y-32260000D02*
X37607836Y-32260000D01*
%TO.C,D_USB_DP*%
X34690000Y-40640000D02*
X36000000Y-40640000D01*
X34690000Y-41860000D02*
X34690000Y-40640000D01*
X34690000Y-41860000D02*
X36000000Y-41860000D01*
%TO.C,C_MIC*%
X24392164Y-8390000D02*
X24607836Y-8390000D01*
X24392164Y-9110000D02*
X24607836Y-9110000D01*
%TO.C,TP_GND*%
X25950000Y-3000000D02*
G75*
G02*
X24550000Y-3000000I-700000J0D01*
G01*
X24550000Y-3000000D02*
G75*
G02*
X25950000Y-3000000I700000J0D01*
G01*
%TO.C,C_BUCK_OUT1*%
X46515000Y-15588748D02*
X46515000Y-16111252D01*
X47985000Y-15588748D02*
X47985000Y-16111252D01*
%TO.C,R_SERVO_R_PD*%
X46620000Y-21096359D02*
X46620000Y-21403641D01*
X47380000Y-21096359D02*
X47380000Y-21403641D01*
%TO.C,C_AMP_BULK*%
X33909420Y-20340000D02*
X34190580Y-20340000D01*
X33909420Y-21360000D02*
X34190580Y-21360000D01*
%TO.C,RT_BAT*%
X25262742Y-39977500D02*
X25737258Y-39977500D01*
X25262742Y-41022500D02*
X25737258Y-41022500D01*
%TO.C,C_SERVO2*%
X44238748Y-20515000D02*
X44761252Y-20515000D01*
X44238748Y-21985000D02*
X44761252Y-21985000D01*
%TO.C,R_BATP_PU*%
X23346359Y-37120000D02*
X23653641Y-37120000D01*
X23346359Y-37880000D02*
X23653641Y-37880000D01*
%TO.C,R_BATN_G*%
X29120000Y-34846359D02*
X29120000Y-35153641D01*
X29880000Y-34846359D02*
X29880000Y-35153641D01*
%TO.C,F_USB*%
X32397936Y-29090000D02*
X33602064Y-29090000D01*
X32397936Y-30910000D02*
X33602064Y-30910000D01*
%TO.C,R_AMP_SD*%
X36620000Y-24846359D02*
X36620000Y-25153641D01*
X37380000Y-24846359D02*
X37380000Y-25153641D01*
%TO.C,C_SERVO3*%
X40488748Y-20765000D02*
X41011252Y-20765000D01*
X40488748Y-22235000D02*
X41011252Y-22235000D01*
%TO.C,C_VUSB*%
X39940000Y-29109420D02*
X39940000Y-29390580D01*
X40960000Y-29109420D02*
X40960000Y-29390580D01*
%TO.C,C_CC_SENSE*%
X38140000Y-41142164D02*
X38140000Y-41357836D01*
X38860000Y-41142164D02*
X38860000Y-41357836D01*
%TO.C,TP_EN*%
X37450000Y-3000000D02*
G75*
G02*
X36050000Y-3000000I-700000J0D01*
G01*
X36050000Y-3000000D02*
G75*
G02*
X37450000Y-3000000I700000J0D01*
G01*
%TO.C,D_ESD_TOUCH*%
X5690000Y-8390000D02*
X7000000Y-8390000D01*
X5690000Y-9610000D02*
X5690000Y-8390000D01*
X5690000Y-9610000D02*
X7000000Y-9610000D01*
%TO.C,R_EN*%
X24346359Y-9620000D02*
X24653641Y-9620000D01*
X24346359Y-10380000D02*
X24653641Y-10380000D01*
%TO.C,Q_BATN*%
X25440000Y-34240000D02*
X25440000Y-35760000D01*
X25440000Y-35760000D02*
X26440000Y-35760000D01*
X25490000Y-34240000D02*
X25440000Y-34240000D01*
X27390000Y-34240000D02*
X26610000Y-34240000D01*
X27560000Y-35760000D02*
X28560000Y-35760000D01*
X28560000Y-34240000D02*
X28510000Y-34240000D01*
X28560000Y-35760000D02*
X28560000Y-34240000D01*
X26620000Y-33700000D02*
X26950000Y-33940000D01*
X26950000Y-33460000D01*
X26620000Y-33700000D01*
G36*
X26950000Y-33940000D02*
G01*
X26620000Y-33700000D01*
X26950000Y-33460000D01*
X26950000Y-33940000D01*
G37*
%TO.C,Q_HEAT*%
X43240000Y-25940000D02*
X43240000Y-25990000D01*
X43240000Y-27110000D02*
X43240000Y-27890000D01*
X43240000Y-29010000D02*
X43240000Y-29060000D01*
X43240000Y-29060000D02*
X44760000Y-29060000D01*
X44760000Y-25940000D02*
X43240000Y-25940000D01*
X44760000Y-26940000D02*
X44760000Y-25940000D01*
X44760000Y-29060000D02*
X44760000Y-28060000D01*
X42700000Y-27880000D02*
X42940000Y-27550000D01*
X42460000Y-27550000D01*
X42700000Y-27880000D01*
G36*
X42700000Y-27880000D02*
G01*
X42460000Y-27550000D01*
X42940000Y-27550000D01*
X42700000Y-27880000D01*
G37*
%TO.C,Q_BATP*%
X22240000Y-33440000D02*
X22240000Y-33490000D01*
X22240000Y-34610000D02*
X22240000Y-35390000D01*
X22240000Y-36510000D02*
X22240000Y-36560000D01*
X22240000Y-36560000D02*
X23760000Y-36560000D01*
X23760000Y-33440000D02*
X22240000Y-33440000D01*
X23760000Y-34440000D02*
X23760000Y-33440000D01*
X23760000Y-36560000D02*
X23760000Y-35560000D01*
X21700000Y-35380000D02*
X21940000Y-35050000D01*
X21460000Y-35050000D01*
X21700000Y-35380000D01*
G36*
X21700000Y-35380000D02*
G01*
X21460000Y-35050000D01*
X21940000Y-35050000D01*
X21700000Y-35380000D01*
G37*
%TO.C,C_VBAT_SENSE*%
X19140000Y-35892164D02*
X19140000Y-36107836D01*
X19860000Y-35892164D02*
X19860000Y-36107836D01*
%TO.C,R_SCL*%
X21846359Y-11620000D02*
X22153641Y-11620000D01*
X21846359Y-12380000D02*
X22153641Y-12380000D01*
%TO.C,U_CHG*%
D12*
X22450000Y-18950000D02*
X22450000Y-23050000D01*
X22450000Y-23050000D02*
X27550000Y-23050000D01*
X27550000Y-18950000D02*
X22450000Y-18950000D01*
X27550000Y-20200000D02*
X27550000Y-18950000D01*
X27550000Y-21800000D02*
X27550000Y-23050000D01*
X27500000Y-21800000D02*
G75*
G02*
X27507773Y-20196354I380000J800000D01*
G01*
D13*
X27480000Y-23950000D02*
G75*
G02*
X27420000Y-23950000I-30000J0D01*
G01*
X27420000Y-23950000D02*
G75*
G02*
X27480000Y-23950000I30000J0D01*
G01*
D12*
X28200000Y-23500000D02*
G75*
G02*
X27860000Y-23500000I-170000J0D01*
G01*
X27860000Y-23500000D02*
G75*
G02*
X28200000Y-23500000I170000J0D01*
G01*
%TO.C,C_TOUCH_FILT*%
D11*
X4142164Y-8390000D02*
X4357836Y-8390000D01*
X4142164Y-9110000D02*
X4357836Y-9110000D01*
%TO.C,TP_BOOT*%
X43200000Y-3000000D02*
G75*
G02*
X41800000Y-3000000I-700000J0D01*
G01*
X41800000Y-3000000D02*
G75*
G02*
X43200000Y-3000000I700000J0D01*
G01*
%TO.C,U_AMP*%
X32390000Y-23390000D02*
X32390000Y-23865000D01*
X32390000Y-26135000D02*
X32390000Y-26610000D01*
X32390000Y-26610000D02*
X32865000Y-26610000D01*
X32865000Y-23390000D02*
X32390000Y-23390000D01*
X35135000Y-26610000D02*
X35610000Y-26610000D01*
X35610000Y-23390000D02*
X35135000Y-23390000D01*
X35610000Y-23865000D02*
X35610000Y-23390000D01*
X35610000Y-26610000D02*
X35610000Y-26135000D01*
X31880000Y-25750000D02*
X31550000Y-25510000D01*
X31550000Y-25990000D01*
X31880000Y-25750000D01*
G36*
X31880000Y-25750000D02*
G01*
X31550000Y-25990000D01*
X31550000Y-25510000D01*
X31880000Y-25750000D01*
G37*
%TO.C,C_CHG_BAT*%
X23625000Y-15811252D02*
X23625000Y-15288748D01*
X25095000Y-15811252D02*
X25095000Y-15288748D01*
%TO.C,L_CHG*%
D12*
X27500000Y-10400000D02*
X32500000Y-10400000D01*
X27500000Y-15600000D02*
X32500000Y-15600000D01*
D13*
X27530000Y-10500000D02*
G75*
G02*
X27470000Y-10500000I-30000J0D01*
G01*
X27470000Y-10500000D02*
G75*
G02*
X27530000Y-10500000I30000J0D01*
G01*
%TO.C,R_EFUSE_ILM*%
D11*
X39396359Y-31570000D02*
X39703641Y-31570000D01*
X39396359Y-32330000D02*
X39703641Y-32330000D01*
%TO.C,R_LCD_BL_OFF*%
X17846359Y-9870000D02*
X18153641Y-9870000D01*
X17846359Y-10630000D02*
X18153641Y-10630000D01*
%TO.C,C_NTC*%
X12642164Y-43140000D02*
X12857836Y-43140000D01*
X12642164Y-43860000D02*
X12857836Y-43860000D01*
%TO.C,C_BUCK_IN*%
X36840000Y-16359420D02*
X36840000Y-16640580D01*
X37860000Y-16359420D02*
X37860000Y-16640580D01*
%TO.C,C_LCD*%
X9890000Y-9142164D02*
X9890000Y-9357836D01*
X10610000Y-9142164D02*
X10610000Y-9357836D01*
%TO.C,R_LCD_MOSI*%
X11846359Y-8620000D02*
X12153641Y-8620000D01*
X11846359Y-9380000D02*
X12153641Y-9380000D01*
%TO.C,R_GATE*%
X44346359Y-29620000D02*
X44653641Y-29620000D01*
X44346359Y-30380000D02*
X44653641Y-30380000D01*
%TO.C,R_VBAT_BOT*%
X17346359Y-35620000D02*
X17653641Y-35620000D01*
X17346359Y-36380000D02*
X17653641Y-36380000D01*
%TO.C,C_BUCK_HF*%
X38542164Y-13940000D02*
X38757836Y-13940000D01*
X38542164Y-14660000D02*
X38757836Y-14660000D01*
%TO.C,TP_3V3*%
X20200000Y-3000000D02*
G75*
G02*
X18800000Y-3000000I-700000J0D01*
G01*
X18800000Y-3000000D02*
G75*
G02*
X20200000Y-3000000I700000J0D01*
G01*
%TO.C,C_VSYS1*%
X27965000Y-17838748D02*
X27965000Y-18361252D01*
X29435000Y-17838748D02*
X29435000Y-18361252D01*
%TO.C,D_USB_DN*%
X35440000Y-42140000D02*
X36750000Y-42140000D01*
X35440000Y-43360000D02*
X35440000Y-42140000D01*
X35440000Y-43360000D02*
X36750000Y-43360000D01*
%TO.C,TP_VBAT*%
X14200000Y-3000000D02*
G75*
G02*
X12800000Y-3000000I-700000J0D01*
G01*
X12800000Y-3000000D02*
G75*
G02*
X14200000Y-3000000I700000J0D01*
G01*
%TO.C,C_EN*%
X22142164Y-15640000D02*
X22357836Y-15640000D01*
X22142164Y-16360000D02*
X22357836Y-16360000D01*
%TO.C,R_BAT_NTC*%
X25596359Y-41620000D02*
X25903641Y-41620000D01*
X25596359Y-42380000D02*
X25903641Y-42380000D01*
%TO.C,R_KEY_MUTE_PU*%
X29846359Y-8370000D02*
X30153641Y-8370000D01*
X29846359Y-9130000D02*
X30153641Y-9130000D01*
%TO.C,C_AMP*%
X33942164Y-21890000D02*
X34157836Y-21890000D01*
X33942164Y-22610000D02*
X34157836Y-22610000D01*
%TO.C,R_LCD_CLK*%
X18096359Y-8370000D02*
X18403641Y-8370000D01*
X18096359Y-9130000D02*
X18403641Y-9130000D01*
%TO.C,TP_VUSB*%
X2700000Y-3000000D02*
G75*
G02*
X1300000Y-3000000I-700000J0D01*
G01*
X1300000Y-3000000D02*
G75*
G02*
X2700000Y-3000000I700000J0D01*
G01*
%TO.C,C_IMU*%
X19142164Y-17440000D02*
X19357836Y-17440000D01*
X19142164Y-18160000D02*
X19357836Y-18160000D01*
%TO.C,C_EFUSE_DVDT*%
X35490000Y-32242164D02*
X35490000Y-32457836D01*
X36210000Y-32242164D02*
X36210000Y-32457836D01*
%TO.C,U_IMU*%
D14*
X18730000Y-14860000D02*
X18960000Y-14860000D01*
X18730000Y-15490000D02*
X18730000Y-14860000D01*
X18730000Y-17140000D02*
X18730000Y-16510000D01*
X18980000Y-17140000D02*
X18730000Y-17140000D01*
X21020000Y-17140000D02*
X21270000Y-17140000D01*
X21270000Y-14860000D02*
X21020000Y-14860000D01*
X21270000Y-15490000D02*
X21270000Y-14860000D01*
X21270000Y-17140000D02*
X21270000Y-16510000D01*
D13*
X19030000Y-15000000D02*
G75*
G02*
X18970000Y-15000000I-30000J0D01*
G01*
X18970000Y-15000000D02*
G75*
G02*
X19030000Y-15000000I30000J0D01*
G01*
D10*
X19320000Y-14540000D02*
G75*
G02*
X19180000Y-14540000I-70000J0D01*
G01*
X19180000Y-14540000D02*
G75*
G02*
X19320000Y-14540000I70000J0D01*
G01*
%TO.C,C_FF*%
D11*
X41357836Y-19390000D02*
X41142164Y-19390000D01*
X41357836Y-20110000D02*
X41142164Y-20110000D01*
%TO.C,R_VBAT_TOP*%
X17346359Y-33620000D02*
X17653641Y-33620000D01*
X17346359Y-34380000D02*
X17653641Y-34380000D01*
%TO.C,D_ESD_PWR*%
X31190000Y-8390000D02*
X32500000Y-8390000D01*
X31190000Y-9610000D02*
X31190000Y-8390000D01*
X31190000Y-9610000D02*
X32500000Y-9610000D01*
%TO.C,C_VSYS2*%
X30765000Y-17838748D02*
X30765000Y-18361252D01*
X32235000Y-17838748D02*
X32235000Y-18361252D01*
%TO.C,D_ESD_MUTE*%
X33140000Y-8190000D02*
X33140000Y-9500000D01*
X33140000Y-8190000D02*
X34360000Y-8190000D01*
X34360000Y-8190000D02*
X34360000Y-9500000D01*
%TO.C,R_GATE_PD*%
X43096359Y-24620000D02*
X43403641Y-24620000D01*
X43096359Y-25380000D02*
X43403641Y-25380000D01*
%TO.C,R_SDA*%
X17846359Y-11620000D02*
X18153641Y-11620000D01*
X17846359Y-12380000D02*
X18153641Y-12380000D01*
%TO.C,C_BAT_NTC*%
X25142164Y-38640000D02*
X25357836Y-38640000D01*
X25142164Y-39360000D02*
X25357836Y-39360000D01*
%TO.C,R_CC_SUM2*%
X34596359Y-39120000D02*
X34903641Y-39120000D01*
X34596359Y-39880000D02*
X34903641Y-39880000D01*
%TO.C,R_LCD_BL_GATE*%
X12120000Y-10846359D02*
X12120000Y-11153641D01*
X12880000Y-10846359D02*
X12880000Y-11153641D01*
%TO.C,C_BUCK_OUT2*%
X46011252Y-18315000D02*
X45488748Y-18315000D01*
X46011252Y-19785000D02*
X45488748Y-19785000D01*
%TO.C,R_CC1*%
X33620000Y-41096359D02*
X33620000Y-41403641D01*
X34380000Y-41096359D02*
X34380000Y-41403641D01*
%TO.C,R_BATN_PD*%
X27846359Y-37370000D02*
X28153641Y-37370000D01*
X27846359Y-38130000D02*
X28153641Y-38130000D01*
%TO.C,R_BATP_BYP*%
X22096359Y-32120000D02*
X22403641Y-32120000D01*
X22096359Y-32880000D02*
X22403641Y-32880000D01*
%TO.C,U_EFUSE*%
X37304432Y-31135000D02*
X39110000Y-31135000D01*
X39110000Y-28865000D02*
X36890000Y-28865000D01*
X37010000Y-31140000D02*
X36870000Y-31330000D01*
X37150000Y-31330000D01*
X37010000Y-31140000D01*
G36*
X37150000Y-31330000D02*
G01*
X36870000Y-31330000D01*
X37010000Y-31140000D01*
X37150000Y-31330000D01*
G37*
%TO.C,TP_CC*%
X31700000Y-3000000D02*
G75*
G02*
X30300000Y-3000000I-700000J0D01*
G01*
X30300000Y-3000000D02*
G75*
G02*
X31700000Y-3000000I700000J0D01*
G01*
%TO.C,C_SERVO1*%
X43238748Y-9265000D02*
X43761252Y-9265000D01*
X43238748Y-10735000D02*
X43761252Y-10735000D01*
%TO.C,U_BUCK*%
X38440000Y-16090000D02*
X38440000Y-17910000D01*
X38440000Y-17910000D02*
X38490000Y-17910000D01*
X38490000Y-16090000D02*
X38440000Y-16090000D01*
X39610000Y-17910000D02*
X40390000Y-17910000D01*
X41510000Y-17910000D02*
X41560000Y-17910000D01*
X41560000Y-16090000D02*
X41510000Y-16090000D01*
X41560000Y-17910000D02*
X41560000Y-16090000D01*
X38490000Y-15550000D02*
X38160000Y-15310000D01*
X38160000Y-15790000D01*
X38490000Y-15550000D01*
G36*
X38490000Y-15550000D02*
G01*
X38160000Y-15790000D01*
X38160000Y-15310000D01*
X38490000Y-15550000D01*
G37*
%TO.C,TP_VSYS*%
X8450000Y-3000000D02*
G75*
G02*
X7050000Y-3000000I-700000J0D01*
G01*
X7050000Y-3000000D02*
G75*
G02*
X8450000Y-3000000I700000J0D01*
G01*
%TO.C,R_FB2*%
X37170000Y-18996359D02*
X37170000Y-19303641D01*
X37930000Y-18996359D02*
X37930000Y-19303641D01*
%TD*%
%LPC*%
D15*
%TO.C,J_USB*%
X32710000Y-38755000D03*
X38490000Y-38755000D03*
D16*
X31280000Y-38225000D03*
D17*
X31280000Y-42405000D03*
D16*
X39920000Y-38225000D03*
D17*
X39920000Y-42405000D03*
%TD*%
D18*
%TO.C,H2*%
X23000000Y-27000000D03*
%TD*%
%TO.C,H1*%
X28200000Y-27000000D03*
%TD*%
D19*
%TO.C,R_BOOT*%
X26490000Y-9000000D03*
X27510000Y-9000000D03*
%TD*%
D20*
%TO.C,Q_LCD_BL*%
X14050000Y-9312500D03*
X15950000Y-9312500D03*
X15000000Y-11187500D03*
%TD*%
D19*
%TO.C,R_CC_SUM1*%
X33740000Y-43000000D03*
X34760000Y-43000000D03*
%TD*%
%TO.C,R_NTC*%
X11490000Y-42250000D03*
X12510000Y-42250000D03*
%TD*%
D21*
%TO.C,R_CC2*%
X37000000Y-40240000D03*
X37000000Y-41260000D03*
%TD*%
D22*
%TO.C,C_CHG_VIN*%
X28700000Y-22950000D03*
X28700000Y-24850000D03*
%TD*%
D23*
%TO.C,L_BUCK*%
X42450000Y-15850000D03*
X45450000Y-15850000D03*
%TD*%
D19*
%TO.C,R_FB1*%
X38640000Y-19750000D03*
X39660000Y-19750000D03*
%TD*%
D24*
%TO.C,C_EFUSE_IN*%
X37020000Y-31900000D03*
X37980000Y-31900000D03*
%TD*%
D25*
%TO.C,D_USB_DP*%
X35150000Y-41250000D03*
X35850000Y-41250000D03*
%TD*%
D24*
%TO.C,C_MIC*%
X24020000Y-8750000D03*
X24980000Y-8750000D03*
%TD*%
D26*
%TO.C,TP_GND*%
X25250000Y-3000000D03*
%TD*%
D22*
%TO.C,C_BUCK_OUT1*%
X47250000Y-14900000D03*
X47250000Y-16800000D03*
%TD*%
D21*
%TO.C,R_SERVO_R_PD*%
X47000000Y-20740000D03*
X47000000Y-21760000D03*
%TD*%
D27*
%TO.C,C_AMP_BULK*%
X33275000Y-20850000D03*
X34825000Y-20850000D03*
%TD*%
D28*
%TO.C,RT_BAT*%
X24675000Y-40500000D03*
X26325000Y-40500000D03*
%TD*%
D29*
%TO.C,C_SERVO2*%
X43550000Y-21250000D03*
X45450000Y-21250000D03*
%TD*%
D19*
%TO.C,R_BATP_PU*%
X22990000Y-37500000D03*
X24010000Y-37500000D03*
%TD*%
D21*
%TO.C,R_BATN_G*%
X29500000Y-34490000D03*
X29500000Y-35510000D03*
%TD*%
D30*
%TO.C,F_USB*%
X31600000Y-30000000D03*
X34400000Y-30000000D03*
%TD*%
D21*
%TO.C,R_AMP_SD*%
X37000000Y-24490000D03*
X37000000Y-25510000D03*
%TD*%
D29*
%TO.C,C_SERVO3*%
X39800000Y-21500000D03*
X41700000Y-21500000D03*
%TD*%
D31*
%TO.C,C_VUSB*%
X40450000Y-28475000D03*
X40450000Y-30025000D03*
%TD*%
D32*
%TO.C,C_CC_SENSE*%
X38500000Y-40770000D03*
X38500000Y-41730000D03*
%TD*%
D26*
%TO.C,TP_EN*%
X36750000Y-3000000D03*
%TD*%
D25*
%TO.C,D_ESD_TOUCH*%
X6150000Y-9000000D03*
X6850000Y-9000000D03*
%TD*%
D19*
%TO.C,R_EN*%
X23990000Y-10000000D03*
X25010000Y-10000000D03*
%TD*%
D20*
%TO.C,Q_BATN*%
X26050000Y-34062500D03*
X27950000Y-34062500D03*
X27000000Y-35937500D03*
%TD*%
D33*
%TO.C,Q_HEAT*%
X43062500Y-28450000D03*
X43062500Y-26550000D03*
X44937500Y-27500000D03*
%TD*%
%TO.C,Q_BATP*%
X22062500Y-35950000D03*
X22062500Y-34050000D03*
X23937500Y-35000000D03*
%TD*%
D32*
%TO.C,C_VBAT_SENSE*%
X19500000Y-35520000D03*
X19500000Y-36480000D03*
%TD*%
D19*
%TO.C,R_SCL*%
X21490000Y-12000000D03*
X22510000Y-12000000D03*
%TD*%
D34*
%TO.C,U_CHG*%
X26910000Y-23910000D03*
X25630000Y-23910000D03*
X24360000Y-23910000D03*
X23090000Y-23910000D03*
X23090000Y-18090000D03*
X24360000Y-18090000D03*
X25630000Y-18090000D03*
X26910000Y-18090000D03*
D35*
X25000000Y-21000000D03*
%TD*%
D24*
%TO.C,C_TOUCH_FILT*%
X3770000Y-8750000D03*
X4730000Y-8750000D03*
%TD*%
D26*
%TO.C,TP_BOOT*%
X42500000Y-3000000D03*
%TD*%
D36*
%TO.C,U_AMP*%
X32562500Y-25750000D03*
X32562500Y-25250000D03*
X32562500Y-24750000D03*
X32562500Y-24250000D03*
D37*
X33250000Y-23562500D03*
X33750000Y-23562500D03*
X34250000Y-23562500D03*
X34750000Y-23562500D03*
D36*
X35437500Y-24250000D03*
X35437500Y-24750000D03*
X35437500Y-25250000D03*
X35437500Y-25750000D03*
D37*
X34750000Y-26437500D03*
X34250000Y-26437500D03*
X33750000Y-26437500D03*
X33250000Y-26437500D03*
D38*
X34000000Y-25000000D03*
%TD*%
D39*
%TO.C,C_CHG_BAT*%
X24360000Y-16500000D03*
X24360000Y-14600000D03*
%TD*%
D40*
%TO.C,L_CHG*%
X27950000Y-13000000D03*
X32050000Y-13000000D03*
%TD*%
D19*
%TO.C,R_EFUSE_ILM*%
X39040000Y-31950000D03*
X40060000Y-31950000D03*
%TD*%
%TO.C,R_LCD_BL_OFF*%
X17490000Y-10250000D03*
X18510000Y-10250000D03*
%TD*%
D24*
%TO.C,C_NTC*%
X12270000Y-43500000D03*
X13230000Y-43500000D03*
%TD*%
D31*
%TO.C,C_BUCK_IN*%
X37350000Y-15725000D03*
X37350000Y-17275000D03*
%TD*%
D32*
%TO.C,C_LCD*%
X10250000Y-8770000D03*
X10250000Y-9730000D03*
%TD*%
D19*
%TO.C,R_LCD_MOSI*%
X11490000Y-9000000D03*
X12510000Y-9000000D03*
%TD*%
%TO.C,R_GATE*%
X43990000Y-30000000D03*
X45010000Y-30000000D03*
%TD*%
%TO.C,R_VBAT_BOT*%
X16990000Y-36000000D03*
X18010000Y-36000000D03*
%TD*%
D24*
%TO.C,C_BUCK_HF*%
X38170000Y-14300000D03*
X39130000Y-14300000D03*
%TD*%
D26*
%TO.C,TP_3V3*%
X19500000Y-3000000D03*
%TD*%
D22*
%TO.C,C_VSYS1*%
X28700000Y-17150000D03*
X28700000Y-19050000D03*
%TD*%
D25*
%TO.C,D_USB_DN*%
X35900000Y-42750000D03*
X36600000Y-42750000D03*
%TD*%
D26*
%TO.C,TP_VBAT*%
X13500000Y-3000000D03*
%TD*%
D24*
%TO.C,C_EN*%
X21770000Y-16000000D03*
X22730000Y-16000000D03*
%TD*%
D19*
%TO.C,R_BAT_NTC*%
X25240000Y-42000000D03*
X26260000Y-42000000D03*
%TD*%
%TO.C,R_KEY_MUTE_PU*%
X29490000Y-8750000D03*
X30510000Y-8750000D03*
%TD*%
D24*
%TO.C,C_AMP*%
X33570000Y-22250000D03*
X34530000Y-22250000D03*
%TD*%
D19*
%TO.C,R_LCD_CLK*%
X17740000Y-8750000D03*
X18760000Y-8750000D03*
%TD*%
D26*
%TO.C,TP_VUSB*%
X2000000Y-3000000D03*
%TD*%
D24*
%TO.C,C_IMU*%
X18770000Y-17800000D03*
X19730000Y-17800000D03*
%TD*%
D32*
%TO.C,C_EFUSE_DVDT*%
X35850000Y-31870000D03*
X35850000Y-32830000D03*
%TD*%
D41*
%TO.C,U_IMU*%
X19250000Y-15120000D03*
X19750000Y-15120000D03*
X20250000Y-15120000D03*
X20750000Y-15120000D03*
D42*
X20880000Y-15750000D03*
X20880000Y-16250000D03*
D41*
X20750000Y-16880000D03*
X20250000Y-16880000D03*
X19750000Y-16880000D03*
X19250000Y-16880000D03*
D42*
X19120000Y-16250000D03*
X19120000Y-15750000D03*
%TD*%
D43*
%TO.C,C_FF*%
X41730000Y-19750000D03*
X40770000Y-19750000D03*
%TD*%
D19*
%TO.C,R_VBAT_TOP*%
X16990000Y-34000000D03*
X18010000Y-34000000D03*
%TD*%
D25*
%TO.C,D_ESD_PWR*%
X31650000Y-9000000D03*
X32350000Y-9000000D03*
%TD*%
D22*
%TO.C,C_VSYS2*%
X31500000Y-17150000D03*
X31500000Y-19050000D03*
%TD*%
D44*
%TO.C,D_ESD_MUTE*%
X33750000Y-8650000D03*
X33750000Y-9350000D03*
%TD*%
D19*
%TO.C,R_GATE_PD*%
X42740000Y-25000000D03*
X43760000Y-25000000D03*
%TD*%
%TO.C,R_SDA*%
X17490000Y-12000000D03*
X18510000Y-12000000D03*
%TD*%
D24*
%TO.C,C_BAT_NTC*%
X24770000Y-39000000D03*
X25730000Y-39000000D03*
%TD*%
D19*
%TO.C,R_CC_SUM2*%
X34240000Y-39500000D03*
X35260000Y-39500000D03*
%TD*%
D21*
%TO.C,R_LCD_BL_GATE*%
X12500000Y-10490000D03*
X12500000Y-11510000D03*
%TD*%
D45*
%TO.C,C_BUCK_OUT2*%
X46700000Y-19050000D03*
X44800000Y-19050000D03*
%TD*%
D21*
%TO.C,R_CC1*%
X34000000Y-40740000D03*
X34000000Y-41760000D03*
%TD*%
D19*
%TO.C,R_BATN_PD*%
X27490000Y-37750000D03*
X28510000Y-37750000D03*
%TD*%
%TO.C,R_BATP_BYP*%
X21740000Y-32500000D03*
X22760000Y-32500000D03*
%TD*%
D46*
%TO.C,U_EFUSE*%
X37050000Y-30750000D03*
X37050000Y-30250000D03*
X37050000Y-29750000D03*
X37050000Y-29250000D03*
X38950000Y-29250000D03*
X38950000Y-29750000D03*
X38950000Y-30250000D03*
X38950000Y-30750000D03*
D47*
X38000000Y-30000000D03*
%TD*%
D26*
%TO.C,TP_CC*%
X31000000Y-3000000D03*
%TD*%
D29*
%TO.C,C_SERVO1*%
X42550000Y-10000000D03*
X44450000Y-10000000D03*
%TD*%
D48*
%TO.C,U_BUCK*%
X39050000Y-15862500D03*
X40000000Y-15862500D03*
X40950000Y-15862500D03*
X40950000Y-18137500D03*
X39050000Y-18137500D03*
%TD*%
D26*
%TO.C,TP_VSYS*%
X7750000Y-3000000D03*
%TD*%
D21*
%TO.C,R_FB2*%
X37550000Y-18640000D03*
X37550000Y-19660000D03*
%TD*%
%LPD*%
M02*
