%TF.GenerationSoftware,KiCad,Pcbnew,10.0.6*%
%TF.CreationDate,2026-10-05T10:43:20-07:00*%
%TF.ProjectId,plush-toy-v2-B,706c7573-682d-4746-9f79-2d76322d422e,rev?*%
%TF.SameCoordinates,Original*%
%TF.FileFunction,Copper,L4,Bot*%
%TF.FilePolarity,Positive*%
%FSLAX46Y46*%
G04 Gerber Fmt 4.6, Leading zero omitted, Abs format (unit mm)*
G04 Created by KiCad (PCBNEW 10.0.6) date 2026-10-05 10:43:20*
%MOMM*%
%LPD*%
G01*
G04 APERTURE LIST*
G04 Aperture macros list*
%AMRoundRect*
0 Rectangle with rounded corners*
0 $1 Rounding radius*
0 $2 $3 $4 $5 $6 $7 $8 $9 X,Y pos of 4 corners*
0 Add a 4 corners polygon primitive as box body*
4,1,4,$2,$3,$4,$5,$6,$7,$8,$9,$2,$3,0*
0 Add four circle primitives for the rounded corners*
1,1,$1+$1,$2,$3*
1,1,$1+$1,$4,$5*
1,1,$1+$1,$6,$7*
1,1,$1+$1,$8,$9*
0 Add four rect primitives between the rounded corners*
20,1,$1+$1,$2,$3,$4,$5,0*
20,1,$1+$1,$4,$5,$6,$7,0*
20,1,$1+$1,$6,$7,$8,$9,0*
20,1,$1+$1,$8,$9,$2,$3,0*%
G04 Aperture macros list end*
%TA.AperFunction,HeatsinkPad*%
%ADD10C,0.600000*%
%TD*%
%TA.AperFunction,ComponentPad*%
%ADD11O,1.000000X2.100000*%
%TD*%
%TA.AperFunction,ComponentPad*%
%ADD12O,1.000000X1.600000*%
%TD*%
%TA.AperFunction,SMDPad,CuDef*%
%ADD13RoundRect,0.135000X-0.135000X-0.185000X0.135000X-0.185000X0.135000X0.185000X-0.135000X0.185000X0*%
%TD*%
%TA.AperFunction,SMDPad,CuDef*%
%ADD14RoundRect,0.150000X-0.150000X0.587500X-0.150000X-0.587500X0.150000X-0.587500X0.150000X0.587500X0*%
%TD*%
%TA.AperFunction,SMDPad,CuDef*%
%ADD15RoundRect,0.135000X-0.185000X0.135000X-0.185000X-0.135000X0.185000X-0.135000X0.185000X0.135000X0*%
%TD*%
%TA.AperFunction,SMDPad,CuDef*%
%ADD16RoundRect,0.250000X-0.475000X0.250000X-0.475000X-0.250000X0.475000X-0.250000X0.475000X0.250000X0*%
%TD*%
%TA.AperFunction,SMDPad,CuDef*%
%ADD17R,1.100000X3.700000*%
%TD*%
%TA.AperFunction,SMDPad,CuDef*%
%ADD18RoundRect,0.140000X-0.140000X-0.170000X0.140000X-0.170000X0.140000X0.170000X-0.140000X0.170000X0*%
%TD*%
%TA.AperFunction,SMDPad,CuDef*%
%ADD19RoundRect,0.050000X-0.150000X-0.300000X0.150000X-0.300000X0.150000X0.300000X-0.150000X0.300000X0*%
%TD*%
%TA.AperFunction,SMDPad,CuDef*%
%ADD20C,1.000000*%
%TD*%
%TA.AperFunction,SMDPad,CuDef*%
%ADD21RoundRect,0.225000X-0.225000X-0.250000X0.225000X-0.250000X0.225000X0.250000X-0.225000X0.250000X0*%
%TD*%
%TA.AperFunction,SMDPad,CuDef*%
%ADD22RoundRect,0.200000X-0.200000X-0.275000X0.200000X-0.275000X0.200000X0.275000X-0.200000X0.275000X0*%
%TD*%
%TA.AperFunction,SMDPad,CuDef*%
%ADD23RoundRect,0.250000X-0.250000X-0.475000X0.250000X-0.475000X0.250000X0.475000X-0.250000X0.475000X0*%
%TD*%
%TA.AperFunction,SMDPad,CuDef*%
%ADD24RoundRect,0.250000X-0.375000X-0.625000X0.375000X-0.625000X0.375000X0.625000X-0.375000X0.625000X0*%
%TD*%
%TA.AperFunction,SMDPad,CuDef*%
%ADD25RoundRect,0.225000X-0.250000X0.225000X-0.250000X-0.225000X0.250000X-0.225000X0.250000X0.225000X0*%
%TD*%
%TA.AperFunction,SMDPad,CuDef*%
%ADD26RoundRect,0.140000X-0.170000X0.140000X-0.170000X-0.140000X0.170000X-0.140000X0.170000X0.140000X0*%
%TD*%
%TA.AperFunction,SMDPad,CuDef*%
%ADD27RoundRect,0.150000X-0.587500X-0.150000X0.587500X-0.150000X0.587500X0.150000X-0.587500X0.150000X0*%
%TD*%
%TA.AperFunction,SMDPad,CuDef*%
%ADD28R,0.600000X1.200000*%
%TD*%
%TA.AperFunction,SMDPad,CuDef*%
%ADD29R,2.000000X2.000000*%
%TD*%
%TA.AperFunction,SMDPad,CuDef*%
%ADD30RoundRect,0.062500X-0.350000X-0.062500X0.350000X-0.062500X0.350000X0.062500X-0.350000X0.062500X0*%
%TD*%
%TA.AperFunction,SMDPad,CuDef*%
%ADD31RoundRect,0.062500X-0.062500X-0.350000X0.062500X-0.350000X0.062500X0.350000X-0.062500X0.350000X0*%
%TD*%
%TA.AperFunction,HeatsinkPad*%
%ADD32R,1.230000X1.230000*%
%TD*%
%TA.AperFunction,SMDPad,CuDef*%
%ADD33RoundRect,0.250000X0.475000X-0.250000X0.475000X0.250000X-0.475000X0.250000X-0.475000X-0.250000X0*%
%TD*%
%TA.AperFunction,SMDPad,CuDef*%
%ADD34R,1.800000X4.700000*%
%TD*%
%TA.AperFunction,SMDPad,CuDef*%
%ADD35R,0.280000X0.500000*%
%TD*%
%TA.AperFunction,SMDPad,CuDef*%
%ADD36R,0.500000X0.280000*%
%TD*%
%TA.AperFunction,SMDPad,CuDef*%
%ADD37RoundRect,0.140000X0.140000X0.170000X-0.140000X0.170000X-0.140000X-0.170000X0.140000X-0.170000X0*%
%TD*%
%TA.AperFunction,SMDPad,CuDef*%
%ADD38RoundRect,0.050000X-0.300000X0.150000X-0.300000X-0.150000X0.300000X-0.150000X0.300000X0.150000X0*%
%TD*%
%TA.AperFunction,SMDPad,CuDef*%
%ADD39RoundRect,0.250000X0.250000X0.475000X-0.250000X0.475000X-0.250000X-0.475000X0.250000X-0.475000X0*%
%TD*%
%TA.AperFunction,SMDPad,CuDef*%
%ADD40RoundRect,0.062500X-0.237500X-0.062500X0.237500X-0.062500X0.237500X0.062500X-0.237500X0.062500X0*%
%TD*%
%TA.AperFunction,HeatsinkPad*%
%ADD41C,0.500000*%
%TD*%
%TA.AperFunction,HeatsinkPad*%
%ADD42R,0.900000X1.600000*%
%TD*%
%TA.AperFunction,SMDPad,CuDef*%
%ADD43RoundRect,0.150000X-0.150000X0.512500X-0.150000X-0.512500X0.150000X-0.512500X0.150000X0.512500X0*%
%TD*%
%TA.AperFunction,ViaPad*%
%ADD44C,0.600000*%
%TD*%
%TA.AperFunction,ViaPad*%
%ADD45C,0.800000*%
%TD*%
%TA.AperFunction,Conductor*%
%ADD46C,0.400000*%
%TD*%
%TA.AperFunction,Conductor*%
%ADD47C,0.280000*%
%TD*%
%TA.AperFunction,Conductor*%
%ADD48C,0.300000*%
%TD*%
%TA.AperFunction,Conductor*%
%ADD49C,0.250200*%
%TD*%
%TA.AperFunction,Conductor*%
%ADD50C,0.250000*%
%TD*%
%TA.AperFunction,Conductor*%
%ADD51C,0.200000*%
%TD*%
%TA.AperFunction,Conductor*%
%ADD52C,0.150000*%
%TD*%
%TA.AperFunction,Conductor*%
%ADD53C,0.600000*%
%TD*%
%TA.AperFunction,Conductor*%
%ADD54C,0.540800*%
%TD*%
%TA.AperFunction,Conductor*%
%ADD55C,0.450000*%
%TD*%
G04 APERTURE END LIST*
D10*
%TO.P,U1,41*%
%TO.N,GND*%
X8510000Y-24900000D03*
X9910000Y-24900000D03*
X7810000Y-24200000D03*
X9210000Y-24200000D03*
X10610000Y-24200000D03*
X8510000Y-23500000D03*
X9910000Y-23500000D03*
X7810000Y-22800000D03*
X9210000Y-22800000D03*
X10610000Y-22800000D03*
X8510000Y-22100000D03*
X9910000Y-22100000D03*
%TD*%
D11*
%TO.P,J_USB,SH*%
%TO.N,GND*%
X31280000Y-38225000D03*
D12*
X31280000Y-42405000D03*
D11*
X39920000Y-38225000D03*
D12*
X39920000Y-42405000D03*
%TD*%
D13*
%TO.P,R_BOOT,1*%
%TO.N,+3V3*%
X26490000Y-9000000D03*
%TO.P,R_BOOT,2*%
%TO.N,BOOT*%
X27510000Y-9000000D03*
%TD*%
D14*
%TO.P,Q_LCD_BL,1*%
%TO.N,LCD_BL_GATE*%
X14050000Y-9312500D03*
%TO.P,Q_LCD_BL,2*%
%TO.N,+3V3*%
X15950000Y-9312500D03*
%TO.P,Q_LCD_BL,3*%
%TO.N,LCD_BL*%
X15000000Y-11187500D03*
%TD*%
D13*
%TO.P,R_CC_SUM1,1*%
%TO.N,CC1*%
X33740000Y-43000000D03*
%TO.P,R_CC_SUM1,2*%
%TO.N,CC_SENSE*%
X34760000Y-43000000D03*
%TD*%
%TO.P,R_NTC,1*%
%TO.N,+3V3*%
X11490000Y-42250000D03*
%TO.P,R_NTC,2*%
%TO.N,NTC_SENSE*%
X12510000Y-42250000D03*
%TD*%
D15*
%TO.P,R_CC2,1*%
%TO.N,CC2*%
X37000000Y-40240000D03*
%TO.P,R_CC2,2*%
%TO.N,GND*%
X37000000Y-41260000D03*
%TD*%
D16*
%TO.P,C_CHG_VIN,1*%
%TO.N,VUSB*%
X28700000Y-22950000D03*
%TO.P,C_CHG_VIN,2*%
%TO.N,GND*%
X28700000Y-24850000D03*
%TD*%
D17*
%TO.P,L_BUCK,1*%
%TO.N,BUCK_SW*%
X42450000Y-15850000D03*
%TO.P,L_BUCK,2*%
%TO.N,+3V3*%
X45450000Y-15850000D03*
%TD*%
D13*
%TO.P,R_FB1,1*%
%TO.N,+3V3*%
X38640000Y-19750000D03*
%TO.P,R_FB1,2*%
%TO.N,BUCK_FB*%
X39660000Y-19750000D03*
%TD*%
D18*
%TO.P,C_EFUSE_IN,1*%
%TO.N,VBUS_FUSED*%
X37020000Y-31900000D03*
%TO.P,C_EFUSE_IN,2*%
%TO.N,GND*%
X37980000Y-31900000D03*
%TD*%
D19*
%TO.P,D_USB_DP,1*%
%TO.N,USB_DP*%
X35150000Y-41250000D03*
%TO.P,D_USB_DP,2*%
%TO.N,GND*%
X35850000Y-41250000D03*
%TD*%
D18*
%TO.P,C_MIC,1*%
%TO.N,+3V3*%
X24020000Y-8750000D03*
%TO.P,C_MIC,2*%
%TO.N,GND*%
X24980000Y-8750000D03*
%TD*%
D20*
%TO.P,TP_GND,1*%
%TO.N,GND*%
X25250000Y-3000000D03*
%TD*%
D16*
%TO.P,C_BUCK_OUT1,1*%
%TO.N,+3V3*%
X47250000Y-14900000D03*
%TO.P,C_BUCK_OUT1,2*%
%TO.N,GND*%
X47250000Y-16800000D03*
%TD*%
D15*
%TO.P,R_SERVO_R_PD,1*%
%TO.N,SERVO_R_PWM*%
X47000000Y-20740000D03*
%TO.P,R_SERVO_R_PD,2*%
%TO.N,GND*%
X47000000Y-21760000D03*
%TD*%
D21*
%TO.P,C_AMP_BULK,1*%
%TO.N,VSYS*%
X33275000Y-20850000D03*
%TO.P,C_AMP_BULK,2*%
%TO.N,GND*%
X34825000Y-20850000D03*
%TD*%
D22*
%TO.P,RT_BAT,1*%
%TO.N,BAT_NTC_SENSE*%
X24675000Y-40500000D03*
%TO.P,RT_BAT,2*%
%TO.N,GND*%
X26325000Y-40500000D03*
%TD*%
D23*
%TO.P,C_SERVO2,1*%
%TO.N,VSYS*%
X43550000Y-21250000D03*
%TO.P,C_SERVO2,2*%
%TO.N,GND*%
X45450000Y-21250000D03*
%TD*%
D13*
%TO.P,R_BATP_PU,1*%
%TO.N,VBAT*%
X22990000Y-37500000D03*
%TO.P,R_BATP_PU,2*%
%TO.N,BATP_GATE*%
X24010000Y-37500000D03*
%TD*%
D15*
%TO.P,R_BATN_G,1*%
%TO.N,VBAT_PACK*%
X29500000Y-34490000D03*
%TO.P,R_BATN_G,2*%
%TO.N,BATN_GATE*%
X29500000Y-35510000D03*
%TD*%
D24*
%TO.P,F_USB,1*%
%TO.N,VBUS_IN*%
X31600000Y-30000000D03*
%TO.P,F_USB,2*%
%TO.N,VBUS_FUSED*%
X34400000Y-30000000D03*
%TD*%
D15*
%TO.P,R_AMP_SD,1*%
%TO.N,VSYS*%
X37000000Y-24490000D03*
%TO.P,R_AMP_SD,2*%
%TO.N,AMP_SD*%
X37000000Y-25510000D03*
%TD*%
D23*
%TO.P,C_SERVO3,1*%
%TO.N,VSYS*%
X39800000Y-21500000D03*
%TO.P,C_SERVO3,2*%
%TO.N,GND*%
X41700000Y-21500000D03*
%TD*%
D25*
%TO.P,C_VUSB,1*%
%TO.N,VUSB*%
X40450000Y-28475000D03*
%TO.P,C_VUSB,2*%
%TO.N,GND*%
X40450000Y-30025000D03*
%TD*%
D26*
%TO.P,C_CC_SENSE,1*%
%TO.N,CC_SENSE*%
X38500000Y-40770000D03*
%TO.P,C_CC_SENSE,2*%
%TO.N,GND*%
X38500000Y-41730000D03*
%TD*%
D20*
%TO.P,TP_EN,1*%
%TO.N,EN*%
X36750000Y-3000000D03*
%TD*%
D19*
%TO.P,D_ESD_TOUCH,1*%
%TO.N,TOUCH_E0*%
X6150000Y-9000000D03*
%TO.P,D_ESD_TOUCH,2*%
%TO.N,GND*%
X6850000Y-9000000D03*
%TD*%
D13*
%TO.P,R_EN,1*%
%TO.N,+3V3*%
X23990000Y-10000000D03*
%TO.P,R_EN,2*%
%TO.N,EN*%
X25010000Y-10000000D03*
%TD*%
D14*
%TO.P,Q_BATN,1*%
%TO.N,BATN_GATE*%
X26050000Y-34062500D03*
%TO.P,Q_BATN,2*%
%TO.N,GND*%
X27950000Y-34062500D03*
%TO.P,Q_BATN,3*%
%TO.N,BATP_GATE*%
X27000000Y-35937500D03*
%TD*%
D27*
%TO.P,Q_HEAT,1*%
%TO.N,HEAT_GATE*%
X43062500Y-28450000D03*
%TO.P,Q_HEAT,2*%
%TO.N,GND*%
X43062500Y-26550000D03*
%TO.P,Q_HEAT,3*%
%TO.N,HEAT_LOW*%
X44937500Y-27500000D03*
%TD*%
%TO.P,Q_BATP,1*%
%TO.N,BATP_GATE*%
X22062500Y-35950000D03*
%TO.P,Q_BATP,2*%
%TO.N,VBAT*%
X22062500Y-34050000D03*
%TO.P,Q_BATP,3*%
%TO.N,VBAT_PACK*%
X23937500Y-35000000D03*
%TD*%
D26*
%TO.P,C_VBAT_SENSE,1*%
%TO.N,VBAT_SENSE*%
X19500000Y-35520000D03*
%TO.P,C_VBAT_SENSE,2*%
%TO.N,GND*%
X19500000Y-36480000D03*
%TD*%
D13*
%TO.P,R_SCL,1*%
%TO.N,I2C_SCL*%
X21490000Y-12000000D03*
%TO.P,R_SCL,2*%
%TO.N,+3V3*%
X22510000Y-12000000D03*
%TD*%
D28*
%TO.P,U_CHG,1*%
%TO.N,VUSB*%
X26910000Y-23910000D03*
%TO.P,U_CHG,2*%
%TO.N,I2C_SCL*%
X25630000Y-23910000D03*
%TO.P,U_CHG,3*%
%TO.N,I2C_SDA*%
X24360000Y-23910000D03*
%TO.P,U_CHG,4*%
%TO.N,unconnected-(U_CHG-LED3-Pad4)*%
X23090000Y-23910000D03*
%TO.P,U_CHG,5*%
%TO.N,KEY_PWR*%
X23090000Y-18090000D03*
%TO.P,U_CHG,6*%
%TO.N,VBAT*%
X24360000Y-18090000D03*
%TO.P,U_CHG,7*%
%TO.N,CHG_SW*%
X25630000Y-18090000D03*
%TO.P,U_CHG,8*%
%TO.N,VSYS*%
X26910000Y-18090000D03*
D29*
%TO.P,U_CHG,9*%
%TO.N,GND*%
X25000000Y-21000000D03*
%TD*%
D18*
%TO.P,C_TOUCH_FILT,1*%
%TO.N,TOUCH_E0*%
X3770000Y-8750000D03*
%TO.P,C_TOUCH_FILT,2*%
%TO.N,GND*%
X4730000Y-8750000D03*
%TD*%
D20*
%TO.P,TP_BOOT,1*%
%TO.N,BOOT*%
X42500000Y-3000000D03*
%TD*%
D30*
%TO.P,U_AMP,1*%
%TO.N,AMP_DIN*%
X32562500Y-25750000D03*
%TO.P,U_AMP,2*%
%TO.N,unconnected-(U_AMP-GAIN_SLOT-Pad2)*%
X32562500Y-25250000D03*
%TO.P,U_AMP,3*%
%TO.N,GND*%
X32562500Y-24750000D03*
%TO.P,U_AMP,4*%
%TO.N,AMP_SD*%
X32562500Y-24250000D03*
D31*
%TO.P,U_AMP,5*%
%TO.N,unconnected-(U_AMP-NC-Pad5)*%
X33250000Y-23562500D03*
%TO.P,U_AMP,6*%
%TO.N,unconnected-(U_AMP-NC-Pad6)*%
X33750000Y-23562500D03*
%TO.P,U_AMP,7*%
%TO.N,VSYS*%
X34250000Y-23562500D03*
%TO.P,U_AMP,8*%
X34750000Y-23562500D03*
D30*
%TO.P,U_AMP,9*%
%TO.N,SPK_P*%
X35437500Y-24250000D03*
%TO.P,U_AMP,10*%
%TO.N,SPK_N*%
X35437500Y-24750000D03*
%TO.P,U_AMP,11*%
%TO.N,GND*%
X35437500Y-25250000D03*
%TO.P,U_AMP,12*%
%TO.N,unconnected-(U_AMP-NC-Pad12)*%
X35437500Y-25750000D03*
D31*
%TO.P,U_AMP,13*%
%TO.N,unconnected-(U_AMP-NC-Pad13)*%
X34750000Y-26437500D03*
%TO.P,U_AMP,14*%
%TO.N,AMP_LRCLK*%
X34250000Y-26437500D03*
%TO.P,U_AMP,15*%
%TO.N,GND*%
X33750000Y-26437500D03*
%TO.P,U_AMP,16*%
%TO.N,AMP_BCLK*%
X33250000Y-26437500D03*
D32*
%TO.P,U_AMP,17*%
%TO.N,GND*%
X34000000Y-25000000D03*
%TD*%
D33*
%TO.P,C_CHG_BAT,1*%
%TO.N,VBAT*%
X24360000Y-16500000D03*
%TO.P,C_CHG_BAT,2*%
%TO.N,GND*%
X24360000Y-14600000D03*
%TD*%
D34*
%TO.P,L_CHG,1*%
%TO.N,CHG_SW*%
X27950000Y-13000000D03*
%TO.P,L_CHG,2*%
%TO.N,VBAT*%
X32050000Y-13000000D03*
%TD*%
D13*
%TO.P,R_EFUSE_ILM,1*%
%TO.N,EFUSE_ILM*%
X39040000Y-31950000D03*
%TO.P,R_EFUSE_ILM,2*%
%TO.N,GND*%
X40060000Y-31950000D03*
%TD*%
%TO.P,R_LCD_BL_OFF,1*%
%TO.N,+3V3*%
X17490000Y-10250000D03*
%TO.P,R_LCD_BL_OFF,2*%
%TO.N,LCD_BL_GATE*%
X18510000Y-10250000D03*
%TD*%
D18*
%TO.P,C_NTC,1*%
%TO.N,NTC_SENSE*%
X12270000Y-43500000D03*
%TO.P,C_NTC,2*%
%TO.N,GND*%
X13230000Y-43500000D03*
%TD*%
D25*
%TO.P,C_BUCK_IN,1*%
%TO.N,VSYS*%
X37350000Y-15725000D03*
%TO.P,C_BUCK_IN,2*%
%TO.N,GND*%
X37350000Y-17275000D03*
%TD*%
D26*
%TO.P,C_LCD,1*%
%TO.N,+3V3*%
X10250000Y-8770000D03*
%TO.P,C_LCD,2*%
%TO.N,GND*%
X10250000Y-9730000D03*
%TD*%
D13*
%TO.P,R_LCD_MOSI,1*%
%TO.N,LCD_MOSI*%
X11490000Y-9000000D03*
%TO.P,R_LCD_MOSI,2*%
%TO.N,LCD_MOSI_S*%
X12510000Y-9000000D03*
%TD*%
%TO.P,R_GATE,1*%
%TO.N,HEAT_GATE_DRV*%
X43990000Y-30000000D03*
%TO.P,R_GATE,2*%
%TO.N,HEAT_GATE*%
X45010000Y-30000000D03*
%TD*%
%TO.P,R_VBAT_BOT,1*%
%TO.N,VBAT_SENSE*%
X16990000Y-36000000D03*
%TO.P,R_VBAT_BOT,2*%
%TO.N,GND*%
X18010000Y-36000000D03*
%TD*%
D18*
%TO.P,C_BUCK_HF,1*%
%TO.N,VSYS*%
X38170000Y-14300000D03*
%TO.P,C_BUCK_HF,2*%
%TO.N,GND*%
X39130000Y-14300000D03*
%TD*%
D20*
%TO.P,TP_3V3,1*%
%TO.N,+3V3*%
X19500000Y-3000000D03*
%TD*%
D16*
%TO.P,C_VSYS1,1*%
%TO.N,VSYS*%
X28700000Y-17150000D03*
%TO.P,C_VSYS1,2*%
%TO.N,GND*%
X28700000Y-19050000D03*
%TD*%
D19*
%TO.P,D_USB_DN,1*%
%TO.N,USB_DN*%
X35900000Y-42750000D03*
%TO.P,D_USB_DN,2*%
%TO.N,GND*%
X36600000Y-42750000D03*
%TD*%
D20*
%TO.P,TP_VBAT,1*%
%TO.N,VBAT*%
X13500000Y-3000000D03*
%TD*%
D18*
%TO.P,C_EN,1*%
%TO.N,EN*%
X21770000Y-16000000D03*
%TO.P,C_EN,2*%
%TO.N,GND*%
X22730000Y-16000000D03*
%TD*%
D13*
%TO.P,R_BAT_NTC,1*%
%TO.N,+3V3*%
X25240000Y-42000000D03*
%TO.P,R_BAT_NTC,2*%
%TO.N,BAT_NTC_SENSE*%
X26260000Y-42000000D03*
%TD*%
%TO.P,R_KEY_MUTE_PU,1*%
%TO.N,+3V3*%
X29490000Y-8750000D03*
%TO.P,R_KEY_MUTE_PU,2*%
%TO.N,KEY_MUTE*%
X30510000Y-8750000D03*
%TD*%
D18*
%TO.P,C_AMP,1*%
%TO.N,VSYS*%
X33570000Y-22250000D03*
%TO.P,C_AMP,2*%
%TO.N,GND*%
X34530000Y-22250000D03*
%TD*%
D13*
%TO.P,R_LCD_CLK,1*%
%TO.N,LCD_CLK*%
X17740000Y-8750000D03*
%TO.P,R_LCD_CLK,2*%
%TO.N,LCD_CLK_S*%
X18760000Y-8750000D03*
%TD*%
D20*
%TO.P,TP_VUSB,1*%
%TO.N,VUSB*%
X2000000Y-3000000D03*
%TD*%
D18*
%TO.P,C_IMU,1*%
%TO.N,+3V3*%
X18770000Y-17800000D03*
%TO.P,C_IMU,2*%
%TO.N,GND*%
X19730000Y-17800000D03*
%TD*%
D26*
%TO.P,C_EFUSE_DVDT,1*%
%TO.N,EFUSE_DVDT*%
X35850000Y-31870000D03*
%TO.P,C_EFUSE_DVDT,2*%
%TO.N,GND*%
X35850000Y-32830000D03*
%TD*%
D35*
%TO.P,U_IMU,1*%
%TO.N,I2C_SCL*%
X19250000Y-15120000D03*
%TO.P,U_IMU,2*%
%TO.N,+3V3*%
X19750000Y-15120000D03*
%TO.P,U_IMU,3*%
X20250000Y-15120000D03*
%TO.P,U_IMU,4*%
%TO.N,I2C_SDA*%
X20750000Y-15120000D03*
D36*
%TO.P,U_IMU,5*%
%TO.N,GND*%
X20880000Y-15750000D03*
%TO.P,U_IMU,6*%
X20880000Y-16250000D03*
D35*
%TO.P,U_IMU,7*%
X20750000Y-16880000D03*
%TO.P,U_IMU,8*%
X20250000Y-16880000D03*
%TO.P,U_IMU,9*%
%TO.N,+3V3*%
X19750000Y-16880000D03*
%TO.P,U_IMU,10*%
X19250000Y-16880000D03*
D36*
%TO.P,U_IMU,11*%
%TO.N,unconnected-(U_IMU-INT2-Pad11)*%
X19120000Y-16250000D03*
%TO.P,U_IMU,12*%
%TO.N,unconnected-(U_IMU-INT1-Pad12)*%
X19120000Y-15750000D03*
%TD*%
D37*
%TO.P,C_FF,1*%
%TO.N,+3V3*%
X41730000Y-19750000D03*
%TO.P,C_FF,2*%
%TO.N,BUCK_FB*%
X40770000Y-19750000D03*
%TD*%
D13*
%TO.P,R_VBAT_TOP,1*%
%TO.N,VBAT*%
X16990000Y-34000000D03*
%TO.P,R_VBAT_TOP,2*%
%TO.N,VBAT_SENSE*%
X18010000Y-34000000D03*
%TD*%
D19*
%TO.P,D_ESD_PWR,1*%
%TO.N,KEY_PWR*%
X31650000Y-9000000D03*
%TO.P,D_ESD_PWR,2*%
%TO.N,GND*%
X32350000Y-9000000D03*
%TD*%
D16*
%TO.P,C_VSYS2,1*%
%TO.N,VSYS*%
X31500000Y-17150000D03*
%TO.P,C_VSYS2,2*%
%TO.N,GND*%
X31500000Y-19050000D03*
%TD*%
D38*
%TO.P,D_ESD_MUTE,1*%
%TO.N,KEY_MUTE*%
X33750000Y-8650000D03*
%TO.P,D_ESD_MUTE,2*%
%TO.N,GND*%
X33750000Y-9350000D03*
%TD*%
D13*
%TO.P,R_GATE_PD,1*%
%TO.N,HEAT_GATE*%
X42740000Y-25000000D03*
%TO.P,R_GATE_PD,2*%
%TO.N,GND*%
X43760000Y-25000000D03*
%TD*%
%TO.P,R_SDA,1*%
%TO.N,I2C_SDA*%
X17490000Y-12000000D03*
%TO.P,R_SDA,2*%
%TO.N,+3V3*%
X18510000Y-12000000D03*
%TD*%
D18*
%TO.P,C_BAT_NTC,1*%
%TO.N,BAT_NTC_SENSE*%
X24770000Y-39000000D03*
%TO.P,C_BAT_NTC,2*%
%TO.N,GND*%
X25730000Y-39000000D03*
%TD*%
D13*
%TO.P,R_CC_SUM2,1*%
%TO.N,CC2*%
X34240000Y-39500000D03*
%TO.P,R_CC_SUM2,2*%
%TO.N,CC_SENSE*%
X35260000Y-39500000D03*
%TD*%
D15*
%TO.P,R_LCD_BL_GATE,1*%
%TO.N,LCD_BL_PWM*%
X12500000Y-10490000D03*
%TO.P,R_LCD_BL_GATE,2*%
%TO.N,LCD_BL_GATE*%
X12500000Y-11510000D03*
%TD*%
D39*
%TO.P,C_BUCK_OUT2,1*%
%TO.N,+3V3*%
X46700000Y-19050000D03*
%TO.P,C_BUCK_OUT2,2*%
%TO.N,GND*%
X44800000Y-19050000D03*
%TD*%
D15*
%TO.P,R_CC1,1*%
%TO.N,CC1*%
X34000000Y-40740000D03*
%TO.P,R_CC1,2*%
%TO.N,GND*%
X34000000Y-41760000D03*
%TD*%
D13*
%TO.P,R_BATN_PD,1*%
%TO.N,BATN_GATE*%
X27490000Y-37750000D03*
%TO.P,R_BATN_PD,2*%
%TO.N,GND*%
X28510000Y-37750000D03*
%TD*%
%TO.P,R_BATP_BYP,1*%
%TO.N,VBAT*%
X21740000Y-32500000D03*
%TO.P,R_BATP_BYP,2*%
%TO.N,VBAT_PACK*%
X22760000Y-32500000D03*
%TD*%
D40*
%TO.P,U_EFUSE,1*%
%TO.N,EFUSE_DVDT*%
X37050000Y-30750000D03*
%TO.P,U_EFUSE,2*%
%TO.N,VBUS_FUSED*%
X37050000Y-30250000D03*
%TO.P,U_EFUSE,3*%
X37050000Y-29750000D03*
%TO.P,U_EFUSE,4*%
X37050000Y-29250000D03*
%TO.P,U_EFUSE,5*%
%TO.N,VUSB*%
X38950000Y-29250000D03*
%TO.P,U_EFUSE,6*%
%TO.N,unconnected-(U_EFUSE-FLT-Pad6)*%
X38950000Y-29750000D03*
%TO.P,U_EFUSE,7*%
%TO.N,EFUSE_ILM*%
X38950000Y-30250000D03*
%TO.P,U_EFUSE,8*%
%TO.N,GND*%
X38950000Y-30750000D03*
D41*
%TO.P,U_EFUSE,9*%
X38000000Y-29450000D03*
D42*
X38000000Y-30000000D03*
D41*
X38000000Y-30550000D03*
%TD*%
D20*
%TO.P,TP_CC,1*%
%TO.N,CC_SENSE*%
X31000000Y-3000000D03*
%TD*%
D23*
%TO.P,C_SERVO1,1*%
%TO.N,VSYS*%
X42550000Y-10000000D03*
%TO.P,C_SERVO1,2*%
%TO.N,GND*%
X44450000Y-10000000D03*
%TD*%
D43*
%TO.P,U_BUCK,1*%
%TO.N,VSYS*%
X39050000Y-15862500D03*
%TO.P,U_BUCK,2*%
%TO.N,GND*%
X40000000Y-15862500D03*
%TO.P,U_BUCK,3*%
%TO.N,BUCK_SW*%
X40950000Y-15862500D03*
%TO.P,U_BUCK,4*%
%TO.N,VSYS*%
X40950000Y-18137500D03*
%TO.P,U_BUCK,5*%
%TO.N,BUCK_FB*%
X39050000Y-18137500D03*
%TD*%
D20*
%TO.P,TP_VSYS,1*%
%TO.N,VSYS*%
X7750000Y-3000000D03*
%TD*%
D15*
%TO.P,R_FB2,1*%
%TO.N,BUCK_FB*%
X37550000Y-18640000D03*
%TO.P,R_FB2,2*%
%TO.N,GND*%
X37550000Y-19660000D03*
%TD*%
D44*
%TO.N,+3V3*%
X38600000Y-13400000D03*
X37100000Y-10300000D03*
X24520000Y-42000000D03*
X1725000Y-33800000D03*
X10770000Y-42250000D03*
X2760000Y-30750000D03*
X1990000Y-32400000D03*
X10250000Y-8040000D03*
X26800000Y-5495000D03*
X19599200Y-13952600D03*
X11301600Y-7020700D03*
X16791000Y-8482600D03*
X23230000Y-12000000D03*
X23290000Y-8750000D03*
X38600000Y-21700000D03*
X28770000Y-8750000D03*
X16770000Y-10250000D03*
X29700000Y-8800000D03*
X23270000Y-10000000D03*
X20400800Y-13952600D03*
X19230000Y-12000000D03*
X41700000Y-19800000D03*
X45600000Y-17800000D03*
X26490000Y-8230000D03*
%TO.N,GND*%
X43405000Y-7560000D03*
X29796100Y-6278600D03*
X24360000Y-14600000D03*
X21800000Y-5495000D03*
X22191900Y-18603000D03*
X36569300Y-18055700D03*
X40450000Y-30925000D03*
X5460000Y-8750000D03*
X28700000Y-19050000D03*
X21468400Y-17821000D03*
X35725000Y-20850000D03*
X43067500Y-25795100D03*
X37000000Y-41980000D03*
X47250000Y-16800000D03*
X25800000Y-5495000D03*
X5075000Y-33800000D03*
X12809100Y-38988400D03*
X27175000Y-40500000D03*
X40780000Y-31950000D03*
X25250000Y-3000000D03*
X20460000Y-17800000D03*
X7500000Y-9000000D03*
X35850000Y-33560000D03*
X37550000Y-20380000D03*
X45600000Y-21800000D03*
X31500000Y-19050000D03*
X1490000Y-30750000D03*
X35260000Y-22250000D03*
X10250000Y-10460000D03*
X31380000Y-16000000D03*
X28791000Y-33232600D03*
X12618100Y-7022000D03*
X42200000Y-22000000D03*
X32943200Y-9593200D03*
X1490000Y-13250000D03*
X20995700Y-19504900D03*
X4090900Y-7011600D03*
X23343200Y-15386800D03*
X28700000Y-24850000D03*
X33750000Y-10000000D03*
X25710000Y-8750000D03*
X25000000Y-21000000D03*
X33230000Y-41760000D03*
X13230000Y-42740000D03*
X36500000Y-41250000D03*
X40000000Y-14750000D03*
X19500000Y-37210000D03*
X37250000Y-42750000D03*
X25730000Y-40060000D03*
X18730000Y-36000000D03*
X46230000Y-21760000D03*
X34000000Y-25000000D03*
X4410000Y-32400000D03*
X20614000Y-18584900D03*
X44480000Y-25000000D03*
X29230000Y-37750000D03*
X39743200Y-13686800D03*
%TO.N,EN*%
X36750000Y-3958700D03*
X22118000Y-14769600D03*
X17575100Y-20091300D03*
X24161400Y-12897700D03*
%TO.N,NTC_SENSE*%
X13057500Y-41636800D03*
X6196500Y-31954700D03*
%TO.N,VBAT_SENSE*%
X15936900Y-33914200D03*
%TO.N,CC_SENSE*%
X33022600Y-40850000D03*
X39264500Y-40655600D03*
%TO.N,BAT_NTC_SENSE*%
X23535700Y-39135200D03*
%TO.N,HEAT_GATE_DRV*%
X43990000Y-32544800D03*
%TO.N,KEY_MUTE*%
X31282800Y-6471800D03*
X14190000Y-29543400D03*
%TO.N,TOUCH_E0*%
X15460000Y-29534900D03*
X6155200Y-5775000D03*
%TO.N,USB_DN*%
X35900000Y-43572100D03*
%TO.N,USB_DP*%
X33511700Y-33746300D03*
X35993300Y-39086800D03*
%TO.N,SERVO_L_PWM*%
X41329900Y-12640000D03*
X43015500Y-32343700D03*
%TO.N,SERVO_R_PWM*%
X47803800Y-20940000D03*
%TO.N,LCD_MOSI*%
X14007200Y-19564600D03*
%TO.N,LCD_RST*%
X15622800Y-18636500D03*
X16632100Y-11007200D03*
%TO.N,LCD_DC*%
X14919300Y-17471700D03*
X14231200Y-10979600D03*
%TO.N,LCD_BL_PWM*%
X11891200Y-16784200D03*
%TO.N,LCD_CS*%
X18712300Y-4929900D03*
X20171800Y-11101200D03*
%TO.N,BOOT*%
X28117500Y-16000000D03*
X36430100Y-14553200D03*
%TO.N,LCD_CLK*%
X19249200Y-10179100D03*
%TO.N,AMP_DIN*%
X31280600Y-25486900D03*
X12393000Y-14504000D03*
X21011400Y-24262100D03*
%TO.N,AMP_BCLK*%
X13680600Y-14967000D03*
X32639400Y-26331100D03*
X20454400Y-23710400D03*
%TO.N,AMP_LRCLK*%
X32677900Y-29600000D03*
X22048700Y-29600000D03*
X7477400Y-14846200D03*
%TO.N,I2C_SDA*%
X16388300Y-15530000D03*
X21478200Y-13564400D03*
X24150400Y-22852500D03*
%TO.N,I2C_SCL*%
X17673200Y-16078500D03*
%TO.N,MIC_SCK*%
X7963800Y-11637900D03*
X19026900Y-6285000D03*
%TO.N,MIC_WS*%
X19848100Y-7478900D03*
X11613300Y-9882100D03*
%TO.N,VBUS_IN*%
X32840100Y-36123700D03*
%TO.N,CC1*%
X33292200Y-39635600D03*
%TO.N,CC2*%
X37350000Y-38491600D03*
X38393800Y-35315900D03*
X33322000Y-35390400D03*
D45*
%TO.N,VUSB*%
X37916800Y-27664700D03*
X26345000Y-26088700D03*
%TO.N,HEAT_LOW*%
X45302300Y-24070300D03*
D44*
%TO.N,LCD_MOSI_S*%
X14694800Y-7006100D03*
%TO.N,LCD_CLK_S*%
X18392500Y-7763600D03*
%TO.N,LCD_BL*%
X15000000Y-9796800D03*
%TO.N,VSYS*%
X34895800Y-23108100D03*
X43405000Y-10100000D03*
X37556800Y-13686800D03*
X32375000Y-20850000D03*
X41754800Y-18209800D03*
X43405000Y-18400000D03*
X37350000Y-14825000D03*
X32840000Y-22250000D03*
D45*
X28595300Y-7472300D03*
D44*
X28700000Y-17150000D03*
X38312300Y-14979200D03*
X37000000Y-23770000D03*
X27757600Y-17914200D03*
X39800000Y-21500000D03*
X42550000Y-10000000D03*
%TO.N,VBAT_PACK*%
X25201700Y-35000000D03*
X28550400Y-35348300D03*
%TO.N,SPK_P*%
X28666500Y-38926500D03*
X17500000Y-38965200D03*
X35021300Y-34764100D03*
%TO.N,SPK_N*%
X42271200Y-30295600D03*
X35447700Y-27768900D03*
X29268200Y-39847800D03*
%TO.N,KEY_PWR*%
X23090000Y-21705600D03*
X32071300Y-6640400D03*
X29764300Y-16317700D03*
D45*
%TO.N,VBAT*%
X30499700Y-13150200D03*
X25598700Y-13150200D03*
X13500000Y-4115500D03*
D44*
%TO.N,AMP_SD*%
X37712900Y-25039600D03*
X32562500Y-23671500D03*
%TD*%
%TO.N,+3V3*%
D46*
X26490000Y-9000000D02*
X26490000Y-8230000D01*
X29490000Y-8750000D02*
X29700000Y-8800000D01*
X41730000Y-19750000D02*
X41730000Y-19844500D01*
D47*
X19750000Y-15120000D02*
X20400800Y-13952600D01*
D46*
X24020000Y-8750000D02*
X23290000Y-8750000D01*
X23990000Y-10000000D02*
X23270000Y-10000000D01*
X45450000Y-15850000D02*
X46300000Y-15850000D01*
X46300000Y-15850000D02*
X47250000Y-14900000D01*
X37100000Y-10300000D02*
X38600000Y-13400000D01*
X18770000Y-17360000D02*
X18770000Y-17800000D01*
X39261200Y-22636500D02*
X38640000Y-22015300D01*
X23290000Y-8750000D02*
X19500000Y-4960000D01*
D47*
X20250000Y-15120000D02*
X19599200Y-13952600D01*
D46*
X25240000Y-42000000D02*
X24520000Y-42000000D01*
D48*
X40775000Y-20799500D02*
X41196600Y-20377900D01*
D46*
X19750000Y-15120000D02*
X19750000Y-16880000D01*
X45462500Y-17812500D02*
X46700000Y-19050000D01*
X38640000Y-22015300D02*
X38640000Y-19750000D01*
X15950000Y-9312500D02*
X16791000Y-8482600D01*
X17490000Y-10250000D02*
X16770000Y-10250000D01*
D48*
X40775000Y-21239100D02*
X40775000Y-20799500D01*
D46*
X18510000Y-12000000D02*
X19230000Y-12000000D01*
X10250000Y-8770000D02*
X10250000Y-8040000D01*
X29490000Y-8750000D02*
X28770000Y-8750000D01*
X40775000Y-22184100D02*
X40322600Y-22636500D01*
X40322600Y-22636500D02*
X39261200Y-22636500D01*
X19500000Y-4960000D02*
X19500000Y-3000000D01*
X19750000Y-16880000D02*
X19250000Y-16880000D01*
X45450000Y-15850000D02*
X45450000Y-17812500D01*
X40775000Y-21239100D02*
X40775000Y-22184100D01*
X38600000Y-21700000D02*
X38640000Y-22015300D01*
X19250000Y-16880000D02*
X18770000Y-17360000D01*
X41730000Y-19844500D02*
X41196600Y-20377900D01*
X45450000Y-17812500D02*
X45462500Y-17812500D01*
X22510000Y-12000000D02*
X23230000Y-12000000D01*
X11490000Y-42250000D02*
X10770000Y-42250000D01*
X45450000Y-17812500D02*
X45600000Y-17800000D01*
%TO.N,GND*%
X36600000Y-42750000D02*
X37250000Y-42750000D01*
X34825000Y-20850000D02*
X35725000Y-20850000D01*
X34000000Y-41760000D02*
X33230000Y-41760000D01*
X13230000Y-43500000D02*
X13230000Y-42740000D01*
X34530000Y-22250000D02*
X35260000Y-22250000D01*
X39500000Y-14500000D02*
X39400000Y-14400000D01*
X28510000Y-37750000D02*
X29230000Y-37750000D01*
D47*
X20750000Y-16880000D02*
X20614000Y-18584900D01*
D46*
X45450000Y-21250000D02*
X45450000Y-19700000D01*
X38087700Y-30725400D02*
X38333100Y-30725400D01*
X43405000Y-7560000D02*
X44450000Y-8605000D01*
D49*
X38925400Y-30725400D02*
X38950000Y-30750000D01*
D46*
X43062500Y-26550000D02*
X43067500Y-25795100D01*
X45960000Y-21760000D02*
X45600000Y-21800000D01*
X38087700Y-30725400D02*
X38087700Y-31792300D01*
X39900000Y-15800000D02*
X39800000Y-15700000D01*
X39800000Y-15700000D02*
X39800000Y-14800000D01*
D47*
X20880000Y-15750000D02*
X21468400Y-17821000D01*
D46*
X33750000Y-24750000D02*
X33385000Y-24750000D01*
X25730000Y-39000000D02*
X25730000Y-40060000D01*
X6850000Y-9000000D02*
X7500000Y-9000000D01*
X45960000Y-21760000D02*
X45450000Y-21250000D01*
X35850000Y-41250000D02*
X36500000Y-41250000D01*
X22730000Y-16000000D02*
X23343200Y-15386800D01*
X37550000Y-19660000D02*
X37550000Y-20380000D01*
X44450000Y-8605000D02*
X44450000Y-10000000D01*
X33750000Y-25250000D02*
X33750000Y-25615000D01*
X37250000Y-42750000D02*
X37480000Y-42750000D01*
X38087700Y-31792300D02*
X37980000Y-31900000D01*
X35850000Y-32830000D02*
X35850000Y-33560000D01*
D49*
X38333100Y-30725400D02*
X38925400Y-30725400D01*
D46*
X10250000Y-9730000D02*
X10250000Y-10460000D01*
X27950000Y-34062500D02*
X28791000Y-33232600D01*
X37000000Y-41260000D02*
X37000000Y-41980000D01*
X33750000Y-9350000D02*
X33750000Y-10000000D01*
D47*
X20250000Y-16880000D02*
X20995700Y-19504900D01*
D46*
X40450000Y-30025000D02*
X40450000Y-30925000D01*
X34000000Y-25000000D02*
X34250000Y-25250000D01*
D50*
X35437500Y-25250000D02*
X34615000Y-25250000D01*
D46*
X34000000Y-25000000D02*
X33750000Y-25250000D01*
X38000000Y-29450000D02*
X38000000Y-30000000D01*
X39400000Y-14400000D02*
X39300000Y-14300000D01*
X39600000Y-14600000D02*
X39500000Y-14500000D01*
X40000000Y-15862500D02*
X39900000Y-15800000D01*
X34250000Y-25250000D02*
X34615000Y-25250000D01*
X39800000Y-14800000D02*
X39600000Y-14600000D01*
X4730000Y-8750000D02*
X5460000Y-8750000D01*
X42200000Y-22000000D02*
X41700000Y-21500000D01*
X24980000Y-8750000D02*
X25710000Y-8750000D01*
X34000000Y-25000000D02*
X33750000Y-24750000D01*
X37350000Y-17275000D02*
X36569300Y-18055700D01*
X19730000Y-17800000D02*
X20460000Y-17800000D01*
X38087700Y-30637700D02*
X38087700Y-30725400D01*
X46230000Y-21760000D02*
X45960000Y-21760000D01*
X40000000Y-15862500D02*
X40000000Y-14750000D01*
D50*
X33750000Y-26437500D02*
X33750000Y-25615000D01*
D46*
X45450000Y-19700000D02*
X44800000Y-19050000D01*
D50*
X32562500Y-24750000D02*
X33385000Y-24750000D01*
D46*
X40060000Y-31950000D02*
X40780000Y-31950000D01*
X43760000Y-25000000D02*
X44480000Y-25000000D01*
X26325000Y-40500000D02*
X27175000Y-40500000D01*
X38000000Y-30550000D02*
X38087700Y-30637700D01*
X47000000Y-21760000D02*
X46230000Y-21760000D01*
X39130000Y-14300000D02*
X39743200Y-13686800D01*
X18010000Y-36000000D02*
X18730000Y-36000000D01*
X32350000Y-9000000D02*
X32943200Y-9593200D01*
X19500000Y-36480000D02*
X19500000Y-37210000D01*
X39300000Y-14300000D02*
X39130000Y-14300000D01*
D47*
X20880000Y-16250000D02*
X22191900Y-18603000D01*
D46*
X37480000Y-42750000D02*
X38500000Y-41730000D01*
%TO.N,EN*%
D51*
X17112900Y-19629100D02*
X17112900Y-15124900D01*
X36750000Y-3000000D02*
X36750000Y-3958700D01*
X22118000Y-14769600D02*
X23779700Y-13107900D01*
D52*
X23830200Y-12086500D02*
X23980200Y-11936500D01*
D51*
X23441400Y-11397700D02*
X23980200Y-11936500D01*
X17112900Y-15124900D02*
X20840100Y-11397700D01*
D52*
X23990400Y-12897700D02*
X24161400Y-12897700D01*
D51*
X24161400Y-12726700D02*
X24161400Y-12897700D01*
D52*
X24161400Y-12726700D02*
X24315900Y-12572200D01*
D51*
X23779700Y-13107900D02*
X23780200Y-13107900D01*
X21770000Y-15117600D02*
X22118000Y-14769600D01*
X20840100Y-11397700D02*
X23441400Y-11397700D01*
D52*
X23780200Y-13107900D02*
X23990400Y-12897700D01*
X23980200Y-11936500D02*
X24335500Y-11581200D01*
D51*
X23830200Y-12086500D02*
X24315900Y-12572200D01*
X25010000Y-10906700D02*
X25010000Y-10000000D01*
X17575100Y-20091300D02*
X17112900Y-19629100D01*
X24335500Y-11581200D02*
X25010000Y-10906700D01*
X21770000Y-16000000D02*
X21770000Y-15117600D01*
%TO.N,NTC_SENSE*%
X12510000Y-42184300D02*
X12510000Y-42250000D01*
X12270000Y-42490000D02*
X12270000Y-43500000D01*
X6196500Y-34775800D02*
X6196500Y-31954700D01*
X12510000Y-42250000D02*
X12270000Y-42490000D01*
X13057500Y-41636800D02*
X6196500Y-34775800D01*
X13057500Y-41636800D02*
X12510000Y-42184300D01*
%TO.N,VBAT_SENSE*%
D52*
X16389800Y-33881000D02*
X16389800Y-34445500D01*
X16309400Y-33800600D02*
X16389800Y-33881000D01*
D51*
X18010000Y-34980000D02*
X16990000Y-36000000D01*
X18010000Y-34000000D02*
X18010000Y-34980000D01*
X19500000Y-35520000D02*
X18960000Y-34980000D01*
X18960000Y-34980000D02*
X18010000Y-34980000D01*
X16389800Y-34445500D02*
X16389800Y-35399800D01*
X16389800Y-35399800D02*
X16990000Y-36000000D01*
X16050500Y-33800600D02*
X15936900Y-33914200D01*
X16309400Y-33800600D02*
X16050500Y-33800600D01*
%TO.N,CC_SENSE*%
X41369000Y-25383000D02*
X35347400Y-19361400D01*
X33404700Y-43578700D02*
X34181300Y-43578700D01*
X35260000Y-39500000D02*
X34677100Y-40082900D01*
X39150100Y-40770000D02*
X39264500Y-40655600D01*
X38500000Y-40770000D02*
X39150100Y-40770000D01*
X39264500Y-40655600D02*
X39761800Y-40655600D01*
X34181300Y-43578700D02*
X34760000Y-43000000D01*
X39761800Y-40655600D02*
X41369000Y-39048400D01*
X33022600Y-40850000D02*
X32678300Y-41194300D01*
X33787600Y-40082900D02*
X33022600Y-40847900D01*
X35347400Y-7347400D02*
X31000000Y-3000000D01*
X32678300Y-41194300D02*
X32678300Y-42852300D01*
X32678300Y-42852300D02*
X33404700Y-43578700D01*
X34677100Y-40082900D02*
X33787600Y-40082900D01*
X41369000Y-39048400D02*
X41369000Y-25383000D01*
X33022600Y-40847900D02*
X33022600Y-40850000D01*
X35347400Y-19361400D02*
X35347400Y-7347400D01*
%TO.N,BAT_NTC_SENSE*%
X24675000Y-39095000D02*
X24770000Y-39000000D01*
X26175000Y-42000000D02*
X26260000Y-42000000D01*
X23535700Y-39135200D02*
X24675000Y-39135200D01*
X24675000Y-40500000D02*
X24675000Y-39135200D01*
X24675000Y-40500000D02*
X26175000Y-42000000D01*
X24675000Y-39135200D02*
X24675000Y-39095000D01*
%TO.N,HEAT_GATE_DRV*%
X43990000Y-30000000D02*
X43990000Y-32544800D01*
%TO.N,KEY_MUTE*%
X31675400Y-6079200D02*
X31282800Y-6471800D01*
X30705000Y-37058500D02*
X30705000Y-21355900D01*
X34398500Y-17662400D02*
X34398500Y-9098900D01*
X34398500Y-9098900D02*
X33949600Y-8650000D01*
X31282800Y-6471800D02*
X31282800Y-7977200D01*
X33750000Y-7489300D02*
X32339900Y-6079200D01*
X29412100Y-38351400D02*
X30705000Y-37058500D01*
X32339900Y-6079200D02*
X31675400Y-6079200D01*
X33750000Y-8650000D02*
X33750000Y-7489300D01*
X30705000Y-21355900D02*
X34398500Y-17662400D01*
X14190000Y-29543400D02*
X14190000Y-34125300D01*
X14190000Y-34125300D02*
X18416100Y-38351400D01*
X18416100Y-38351400D02*
X29412100Y-38351400D01*
X31282800Y-7977200D02*
X30510000Y-8750000D01*
X33949600Y-8650000D02*
X33750000Y-8650000D01*
%TO.N,TOUCH_E0*%
X15460000Y-26331700D02*
X15460000Y-29534900D01*
X3770000Y-8750000D02*
X4376600Y-8143400D01*
X3072600Y-2907800D02*
X2299100Y-2134300D01*
X6155200Y-6364800D02*
X6155200Y-5775000D01*
X5031000Y-7489000D02*
X6155200Y-6364800D01*
X4376600Y-8143400D02*
X3072600Y-6839400D01*
X1728100Y-2134300D02*
X1145800Y-2716600D01*
X6150000Y-8608100D02*
X6150000Y-9000000D01*
X1145800Y-12017500D02*
X15460000Y-26331700D01*
X5031000Y-7489000D02*
X6150000Y-8608100D01*
X1145800Y-2716600D02*
X1145800Y-12017500D01*
X4376600Y-8143400D02*
X5031000Y-7489000D01*
X2299100Y-2134300D02*
X1728100Y-2134300D01*
X3072600Y-6839400D02*
X3072600Y-2907800D01*
%TO.N,USB_DN*%
X35900000Y-42750000D02*
X35900000Y-43572100D01*
%TO.N,USB_DP*%
X35846700Y-37134900D02*
X33511800Y-34800000D01*
X35150000Y-40699500D02*
X35846700Y-40002800D01*
X33511800Y-34800000D02*
X33511700Y-34800000D01*
X35846700Y-39086800D02*
X35993300Y-39086800D01*
X33511700Y-34800000D02*
X33511700Y-33746300D01*
X35846700Y-39086800D02*
X35846700Y-37134900D01*
X35150000Y-41250000D02*
X35150000Y-40699500D01*
X35846700Y-40002800D02*
X35846700Y-39086800D01*
%TO.N,SERVO_L_PWM*%
X44219600Y-33096500D02*
X43674100Y-33096500D01*
X41329900Y-12640000D02*
X42058200Y-12640000D01*
X43015500Y-32437900D02*
X43015500Y-32343700D01*
X42058200Y-12640000D02*
X44027000Y-14608800D01*
X46015800Y-23304300D02*
X46015800Y-31300300D01*
X43674100Y-33096500D02*
X43015500Y-32437900D01*
X44525000Y-20379100D02*
X44525000Y-21813500D01*
X44027000Y-19881100D02*
X44525000Y-20379100D01*
X44525000Y-21813500D02*
X46015800Y-23304300D01*
X44027000Y-14608800D02*
X44027000Y-19881100D01*
X46015800Y-31300300D02*
X44219600Y-33096500D01*
%TO.N,SERVO_R_PWM*%
X47200000Y-20940000D02*
X47000000Y-20740000D01*
X47803800Y-20940000D02*
X47200000Y-20940000D01*
%TO.N,LCD_MOSI*%
X11061600Y-9428400D02*
X11061600Y-16734700D01*
X11490000Y-9000000D02*
X11061600Y-9428400D01*
X13891500Y-19564600D02*
X14007200Y-19564600D01*
X11061600Y-16734700D02*
X13891500Y-19564600D01*
%TO.N,LCD_RST*%
X15622800Y-18636500D02*
X15622800Y-12016500D01*
X15622800Y-12016500D02*
X16632100Y-11007200D01*
%TO.N,LCD_DC*%
X14919300Y-14879400D02*
X14919300Y-17471700D01*
X14231200Y-10979600D02*
X14231200Y-14191300D01*
X14231200Y-14191300D02*
X14919300Y-14879400D01*
%TO.N,LCD_BL_PWM*%
X11841300Y-16734300D02*
X11891200Y-16784200D01*
X12500000Y-10490000D02*
X11841300Y-11148700D01*
X11841300Y-11148700D02*
X11841300Y-16734300D01*
%TO.N,LCD_CS*%
X20424300Y-6641900D02*
X18712300Y-4929900D01*
X20424300Y-10848700D02*
X20424300Y-6641900D01*
X20171800Y-11101200D02*
X20424300Y-10848700D01*
%TO.N,BOOT*%
X42500000Y-3000000D02*
X36430100Y-9069900D01*
X27663200Y-9000000D02*
X27510000Y-9000000D01*
X29175000Y-15451700D02*
X29175000Y-10511800D01*
X29175000Y-10511800D02*
X27663200Y-9000000D01*
X28626700Y-16000000D02*
X29175000Y-15451700D01*
X28117500Y-16000000D02*
X28626700Y-16000000D01*
X36430100Y-9069900D02*
X36430100Y-14553200D01*
%TO.N,LCD_CLK*%
X19249200Y-10120000D02*
X19249200Y-10179100D01*
X17879200Y-8750000D02*
X19249200Y-10120000D01*
X17740000Y-8750000D02*
X17879200Y-8750000D01*
%TO.N,AMP_DIN*%
X12393000Y-14504000D02*
X13130400Y-15241400D01*
X13130400Y-15241400D02*
X13130400Y-17534400D01*
X19858100Y-24262100D02*
X21011400Y-24262100D01*
X31543700Y-25750000D02*
X31280600Y-25486900D01*
X32562500Y-25750000D02*
X31543700Y-25750000D01*
X13130400Y-17534400D02*
X19858100Y-24262100D01*
%TO.N,AMP_BCLK*%
X13680600Y-17583500D02*
X19807500Y-23710400D01*
X13680600Y-14967000D02*
X13680600Y-17583500D01*
X32745800Y-26437500D02*
X32639400Y-26331100D01*
X19807500Y-23710400D02*
X20454400Y-23710400D01*
X33250000Y-26437500D02*
X32745800Y-26437500D01*
%TO.N,AMP_LRCLK*%
X34250000Y-27096800D02*
X32677900Y-28668900D01*
X7477400Y-15028700D02*
X22048700Y-29600000D01*
X34250000Y-26437500D02*
X34250000Y-27096800D01*
X7477400Y-14846200D02*
X7477400Y-15028700D01*
X32677900Y-28668900D02*
X32677900Y-29600000D01*
%TO.N,I2C_SDA*%
X20750000Y-15120000D02*
X20750000Y-14618300D01*
X24150400Y-22852500D02*
X19524900Y-22852500D01*
X16647500Y-19975100D02*
X16647500Y-15530000D01*
X24154200Y-22852500D02*
X24150400Y-22852500D01*
X19524900Y-22852500D02*
X16647500Y-19975100D01*
X21478200Y-13890100D02*
X21478200Y-13564400D01*
X16647500Y-15530000D02*
X16647500Y-12842500D01*
X24360000Y-23910000D02*
X24360000Y-23058300D01*
X24360000Y-23058300D02*
X24154200Y-22852500D01*
X20750000Y-14618300D02*
X21478200Y-13890100D01*
X16647500Y-12842500D02*
X17490000Y-12000000D01*
X16647500Y-15530000D02*
X16388300Y-15530000D01*
%TO.N,I2C_SCL*%
X18233500Y-18140300D02*
X18233500Y-16078500D01*
X24306900Y-22273400D02*
X22366600Y-22273400D01*
X22366600Y-22273400D02*
X18233500Y-18140300D01*
X20757200Y-12000000D02*
X21490000Y-12000000D01*
X18233500Y-16078500D02*
X18233500Y-15634800D01*
X19024300Y-14392600D02*
X19024300Y-13732900D01*
X18233500Y-16078500D02*
X17673200Y-16078500D01*
X25630000Y-23910000D02*
X25630000Y-23058300D01*
X25138200Y-23058300D02*
X25630000Y-23058300D01*
D52*
X24306900Y-22273400D02*
X24353300Y-22273400D01*
D51*
X19250000Y-14618300D02*
X19024300Y-14392600D01*
X24465400Y-22385500D02*
X25138200Y-23058300D01*
D52*
X24353300Y-22273400D02*
X24465400Y-22385500D01*
D51*
X18233500Y-15634800D02*
X19250000Y-14618300D01*
X19024300Y-13732900D02*
X20757200Y-12000000D01*
X19250000Y-15120000D02*
X19250000Y-14618300D01*
%TO.N,MIC_SCK*%
X7963800Y-11637900D02*
X7963800Y-9532200D01*
X7963800Y-9532200D02*
X11211000Y-6285000D01*
X11211000Y-6285000D02*
X19026900Y-6285000D01*
%TO.N,MIC_WS*%
X12547500Y-9882000D02*
X13216800Y-9212700D01*
X13216800Y-8807600D02*
X14420400Y-7604000D01*
X13216800Y-9212700D02*
X13216800Y-8807600D01*
X11613300Y-9882000D02*
X12547500Y-9882000D01*
X14923200Y-7604000D02*
X15679700Y-6847500D01*
X11613300Y-9882100D02*
X11613300Y-9882000D01*
X19216700Y-6847500D02*
X19848100Y-7478900D01*
X14420400Y-7604000D02*
X14923200Y-7604000D01*
X15679700Y-6847500D02*
X19216700Y-6847500D01*
%TO.N,VBUS_IN*%
D46*
X31600000Y-30000000D02*
X31600000Y-34883600D01*
X31600000Y-34883600D02*
X32840100Y-36123700D01*
%TO.N,CC1*%
D51*
X35351900Y-42974100D02*
X35351900Y-43281700D01*
X32287200Y-40640600D02*
X33292200Y-39635600D01*
D52*
X35351900Y-42743600D02*
X34889000Y-42280700D01*
X34889000Y-42280700D02*
X34671800Y-42280700D01*
D51*
X34684500Y-43949100D02*
X33277800Y-43949100D01*
X33740000Y-42809500D02*
X33740000Y-43000000D01*
X34239300Y-42310200D02*
X33740000Y-42809500D01*
D52*
X34268800Y-42280700D02*
X34239300Y-42310200D01*
X34570700Y-41401600D02*
X34570700Y-41545600D01*
X34671800Y-42280700D02*
X34268800Y-42280700D01*
D51*
X35351900Y-43281700D02*
X34684500Y-43949100D01*
X34000000Y-40740000D02*
X34570700Y-41310700D01*
D52*
X35351900Y-42974100D02*
X35351900Y-42743600D01*
X34570700Y-41545600D02*
X34671800Y-41646700D01*
D51*
X33277800Y-43949100D02*
X32287200Y-42958500D01*
X32287200Y-42958500D02*
X32287200Y-40640600D01*
X34570700Y-41310700D02*
X34570700Y-41401600D01*
X34671800Y-42280700D02*
X34671800Y-41646700D01*
%TO.N,CC2*%
X37350000Y-39890000D02*
X37350000Y-39586800D01*
X37350000Y-39586800D02*
X37350000Y-38491600D01*
X37350000Y-39586800D02*
X40209500Y-39586800D01*
X40720600Y-37373500D02*
X38663000Y-35315900D01*
X38663000Y-35315900D02*
X38393800Y-35315900D01*
X34240000Y-36308400D02*
X34240000Y-39500000D01*
X40209500Y-39586800D02*
X40720600Y-39075700D01*
X40720600Y-39075700D02*
X40720600Y-37373500D01*
X37000000Y-40240000D02*
X37350000Y-39890000D01*
X33322000Y-35390400D02*
X34240000Y-36308400D01*
%TO.N,VUSB*%
D49*
X39249300Y-28950700D02*
X38950200Y-28950700D01*
D53*
X26910000Y-23910000D02*
X26910000Y-24460800D01*
D49*
X38950200Y-28698100D02*
X38950200Y-28950700D01*
X38950200Y-28950700D02*
X38950200Y-29249800D01*
X38950200Y-29249800D02*
X38950000Y-29250000D01*
D53*
X26910000Y-25011700D02*
X26910000Y-25523700D01*
X26910000Y-25523700D02*
X26345000Y-26088700D01*
X8279100Y-14514100D02*
X2000000Y-8235000D01*
X28700000Y-22950000D02*
X28558300Y-22808300D01*
X26856400Y-25063800D02*
X18363400Y-25063800D01*
X26910000Y-25010200D02*
X26910000Y-25011700D01*
X26910000Y-25010200D02*
X26856400Y-25063800D01*
X18363400Y-25063800D02*
X8279100Y-14979500D01*
X28558300Y-22808300D02*
X26910000Y-22808300D01*
X40450000Y-28475000D02*
X39725000Y-28475000D01*
X37916800Y-27664700D02*
X38950200Y-28698100D01*
X39725000Y-28475000D02*
X39249300Y-28950700D01*
X26910000Y-24984700D02*
X26910000Y-25010200D01*
X8279100Y-14979500D02*
X8279100Y-14514100D01*
X26910000Y-23910000D02*
X26910000Y-22808300D01*
X26910000Y-24460800D02*
X26910000Y-24984700D01*
X2000000Y-8235000D02*
X2000000Y-3000000D01*
%TO.N,HEAT_LOW*%
X44937500Y-27500000D02*
X45302300Y-27135200D01*
X45302300Y-27135200D02*
X45302300Y-24070300D01*
%TO.N,LCD_MOSI_S*%
D51*
X14503900Y-7006100D02*
X14694800Y-7006100D01*
X12510000Y-9000000D02*
X14503900Y-7006100D01*
%TO.N,LCD_CLK_S*%
X18760000Y-8750000D02*
X18760000Y-8131100D01*
X18760000Y-8131100D02*
X18392500Y-7763600D01*
%TO.N,LCD_BL*%
D46*
X15000000Y-11187500D02*
X15000000Y-9796800D01*
%TO.N,VSYS*%
D53*
X20508300Y-1959600D02*
X25952500Y-7403800D01*
X43405000Y-18400000D02*
X43405000Y-21105000D01*
D46*
X38170000Y-14300000D02*
X37556800Y-13686800D01*
X37350000Y-15725000D02*
X37350000Y-14825000D01*
D50*
X34250000Y-23562500D02*
X34895800Y-23108100D01*
D53*
X7750000Y-3000000D02*
X8790400Y-1959600D01*
X25952500Y-7403800D02*
X28526800Y-7403800D01*
X28526800Y-7403800D02*
X28595300Y-7472300D01*
D46*
X33570000Y-22250000D02*
X32840000Y-22250000D01*
X33275000Y-20850000D02*
X32375000Y-20850000D01*
D53*
X28700000Y-17150000D02*
X31500000Y-17150000D01*
D46*
X26910000Y-18090000D02*
X27757600Y-17914200D01*
X40950000Y-18137500D02*
X41754800Y-18209800D01*
D53*
X8790400Y-1959600D02*
X20508300Y-1959600D01*
X43405000Y-21105000D02*
X43550000Y-21250000D01*
D46*
X37000000Y-24490000D02*
X37000000Y-23770000D01*
X39050000Y-15862500D02*
X38312300Y-14979200D01*
%TO.N,VBAT_PACK*%
D53*
X28550400Y-35300700D02*
X28550400Y-35240600D01*
X23937500Y-35000000D02*
X25201700Y-35000000D01*
X23937500Y-33677500D02*
X23937500Y-35000000D01*
D54*
X29301000Y-34490000D02*
X29500000Y-34490000D01*
X28550400Y-35240600D02*
X29301000Y-34490000D01*
D53*
X22760000Y-32500000D02*
X23937500Y-33677500D01*
D55*
X28550400Y-35300700D02*
X28550400Y-35348300D01*
%TO.N,SPK_P*%
D48*
X36596800Y-23090700D02*
X35437500Y-24250000D01*
X35696900Y-28370600D02*
X38369800Y-25697700D01*
X35021300Y-34764100D02*
X35021300Y-34387900D01*
X37255500Y-23090700D02*
X36596800Y-23090700D01*
X28666500Y-40543200D02*
X28666500Y-38926500D01*
X33472300Y-29120300D02*
X34222000Y-28370600D01*
X26554300Y-42655400D02*
X28666500Y-40543200D01*
X17500000Y-38965200D02*
X21190200Y-42655400D01*
X38369800Y-25697700D02*
X38369800Y-24205000D01*
X21190200Y-42655400D02*
X26554300Y-42655400D01*
X38369800Y-24205000D02*
X37255500Y-23090700D01*
X35021300Y-34387900D02*
X33472300Y-32838900D01*
X33472300Y-32838900D02*
X33472300Y-29120300D01*
X34222000Y-28370600D02*
X35696900Y-28370600D01*
%TO.N,SPK_N*%
D49*
X36116900Y-24824600D02*
X35512100Y-24824600D01*
D48*
X31804500Y-44363300D02*
X29268200Y-41827000D01*
X36178100Y-27038500D02*
X36178100Y-24885800D01*
X35447700Y-27768900D02*
X36178100Y-27038500D01*
D49*
X35512100Y-24824600D02*
X35437500Y-24750000D01*
D48*
X42271200Y-41494400D02*
X39402300Y-44363300D01*
X39402300Y-44363300D02*
X31804500Y-44363300D01*
X29268200Y-41827000D02*
X29268200Y-39847800D01*
X42271200Y-30295600D02*
X42271200Y-41494400D01*
X36178100Y-24885800D02*
X36116900Y-24824600D01*
%TO.N,KEY_PWR*%
D51*
X23090000Y-18090000D02*
X23090000Y-18941700D01*
X29764300Y-10885700D02*
X29764300Y-16317700D01*
X31650000Y-9000000D02*
X29764300Y-10885700D01*
X23090000Y-18941700D02*
X23090000Y-21705600D01*
X31650000Y-7061700D02*
X32071300Y-6640400D01*
X31650000Y-9000000D02*
X31650000Y-7061700D01*
%TO.N,LCD_BL_GATE*%
D52*
X15574400Y-8324200D02*
X15749600Y-8149000D01*
D51*
X19825900Y-10382600D02*
X19477700Y-10730800D01*
X19477700Y-10730800D02*
X18990800Y-10730800D01*
X14050000Y-9312500D02*
X15038300Y-8324200D01*
X18990800Y-10730800D02*
X18510000Y-10250000D01*
X19825900Y-8394900D02*
X19825900Y-10382600D01*
X16550800Y-7199900D02*
X18630900Y-7199900D01*
X12500000Y-11510000D02*
X14050000Y-9960000D01*
X18630900Y-7199900D02*
X19825900Y-8394900D01*
X15749600Y-8001100D02*
X16550800Y-7199900D01*
X14050000Y-9960000D02*
X14050000Y-9312500D01*
D52*
X15749600Y-8149000D02*
X15749600Y-8001100D01*
D51*
X15038300Y-8324200D02*
X15574400Y-8324200D01*
%TO.N,BUCK_SW*%
D46*
X42450000Y-15850000D02*
X40962500Y-15850000D01*
X40962500Y-15850000D02*
X40950000Y-15862500D01*
%TO.N,BUCK_FB*%
D51*
X39660000Y-18747500D02*
X39050000Y-18137500D01*
X39660000Y-19750000D02*
X39660000Y-18747500D01*
X37550000Y-18640000D02*
X38547500Y-18640000D01*
X38547500Y-18640000D02*
X39050000Y-18137500D01*
X40770000Y-19750000D02*
X39660000Y-19750000D01*
%TO.N,VBUS_FUSED*%
D46*
X35185200Y-33842400D02*
X35185200Y-30280400D01*
X34400000Y-30000000D02*
X34904800Y-30000000D01*
X37020000Y-31900000D02*
X37020000Y-33347700D01*
X35571800Y-34229000D02*
X35185200Y-33842400D01*
X37050000Y-29750000D02*
X37050000Y-30250000D01*
X36138700Y-34229000D02*
X35571800Y-34229000D01*
X35215600Y-30250000D02*
X37050000Y-30250000D01*
X34904800Y-30000000D02*
X35185200Y-30280400D01*
X37050000Y-29750000D02*
X37050000Y-29250000D01*
X35185200Y-30280400D02*
X35215600Y-30250000D01*
X37020000Y-33347700D02*
X36138700Y-34229000D01*
%TO.N,VBAT*%
D53*
X20318300Y-35149200D02*
X21740000Y-33727500D01*
X24360000Y-16071000D02*
X24360000Y-16500000D01*
X30499700Y-13148600D02*
X30499700Y-13150200D01*
X16990000Y-33720900D02*
X16990000Y-34000000D01*
X26731100Y-19191700D02*
X24360000Y-19191700D01*
X21740000Y-32500000D02*
X21740000Y-32288900D01*
D55*
X25230000Y-15601200D02*
X24829800Y-15601200D01*
D53*
X18210900Y-32500000D02*
X16990000Y-33720900D01*
X30648300Y-13000000D02*
X30499700Y-13148600D01*
X25598700Y-15232500D02*
X25598700Y-13150200D01*
X22990000Y-37500000D02*
X21714300Y-37500000D01*
D55*
X20531200Y-36316900D02*
X20318300Y-36104000D01*
X24829800Y-15601200D02*
X24360000Y-16071000D01*
D53*
X23102000Y-30926900D02*
X26914600Y-30926900D01*
X21714300Y-37500000D02*
X20531200Y-36316900D01*
X21740000Y-32500000D02*
X18210900Y-32500000D01*
X24360000Y-18090000D02*
X24360000Y-19191700D01*
X26914600Y-30926900D02*
X30066300Y-27775200D01*
X30066300Y-22526900D02*
X26731100Y-19191700D01*
D55*
X20318300Y-36104000D02*
X20318300Y-35149200D01*
D53*
X13500000Y-3000000D02*
X13500000Y-4115500D01*
X21740000Y-32500000D02*
X21740000Y-33727500D01*
X30066300Y-27775200D02*
X30066300Y-22526900D01*
X21740000Y-33727500D02*
X22062500Y-34050000D01*
X25230000Y-15601200D02*
X25598700Y-15232500D01*
X21740000Y-32288900D02*
X23102000Y-30926900D01*
X24360000Y-16500000D02*
X24360000Y-18090000D01*
X32050000Y-13000000D02*
X30648300Y-13000000D01*
%TO.N,BATP_GATE*%
D52*
X24010000Y-36879300D02*
X22899200Y-36879300D01*
D51*
X24010000Y-37500000D02*
X25437500Y-37500000D01*
X22062500Y-36042600D02*
X22062500Y-35950000D01*
X24010000Y-37500000D02*
X24010000Y-36879300D01*
D52*
X22899200Y-36879300D02*
X22062500Y-36042600D01*
D51*
X25437500Y-37500000D02*
X27000000Y-35937500D01*
%TO.N,BATN_GATE*%
X27425400Y-34975400D02*
X27399200Y-34949200D01*
D52*
X27934600Y-36040300D02*
X28623400Y-36040300D01*
D51*
X27934600Y-35473500D02*
X27934600Y-36040300D01*
X28969700Y-36040300D02*
X29500000Y-35510000D01*
X27450400Y-34975400D02*
X27425400Y-34975400D01*
D52*
X26936700Y-34949200D02*
X26050000Y-34062500D01*
X27399200Y-34949200D02*
X26936700Y-34949200D01*
X27450400Y-34975400D02*
X27934600Y-35459600D01*
D51*
X27934600Y-36040300D02*
X27934600Y-37305400D01*
D52*
X27934600Y-35459600D02*
X27934600Y-35473500D01*
D51*
X27934600Y-37305400D02*
X27490000Y-37750000D01*
X28623400Y-36040300D02*
X28969700Y-36040300D01*
%TO.N,AMP_SD*%
X37242500Y-25510000D02*
X37712900Y-25039600D01*
X32562500Y-24250000D02*
X32562500Y-23671500D01*
X37000000Y-25510000D02*
X37242500Y-25510000D01*
%TO.N,HEAT_GATE*%
X45010000Y-30000000D02*
X45010000Y-29429300D01*
X43062500Y-28450000D02*
X42022800Y-27410300D01*
X43062500Y-28592600D02*
X43062500Y-28450000D01*
X42022800Y-27410300D02*
X42022800Y-25717200D01*
D52*
X43899200Y-29429300D02*
X43062500Y-28592600D01*
D51*
X42022800Y-25717200D02*
X42740000Y-25000000D01*
D52*
X45010000Y-29429300D02*
X43899200Y-29429300D01*
%TO.N,CHG_SW*%
D55*
X26601900Y-13918200D02*
X26325400Y-14194700D01*
D53*
X26686700Y-13000000D02*
X26601900Y-13084800D01*
X27950000Y-13000000D02*
X26686700Y-13000000D01*
X26325400Y-16333100D02*
X25670200Y-16988300D01*
D55*
X26325400Y-14194700D02*
X26325400Y-16333100D01*
D53*
X25670200Y-16988300D02*
X25630000Y-16988300D01*
X25630000Y-18090000D02*
X25630000Y-16988300D01*
X26601900Y-13084800D02*
X26601900Y-13918200D01*
%TO.N,EFUSE_ILM*%
D51*
X39553600Y-31436400D02*
X39553600Y-30536700D01*
X39040000Y-31950000D02*
X39553600Y-31436400D01*
X39553600Y-30536700D02*
X39266900Y-30250000D01*
X39266900Y-30250000D02*
X38950000Y-30250000D01*
%TO.N,EFUSE_DVDT*%
X36970000Y-30750000D02*
X37050000Y-30750000D01*
X35850000Y-31870000D02*
X36970000Y-30750000D01*
%TD*%
M02*
