%TF.GenerationSoftware,KiCad,Pcbnew,10.0.6*%
%TF.CreationDate,2026-10-05T10:43:21-07:00*%
%TF.ProjectId,plush-toy-v2-B,706c7573-682d-4746-9f79-2d76322d422e,rev?*%
%TF.SameCoordinates,Original*%
%TF.FileFunction,Drillmap*%
%TF.FilePolarity,Positive*%
%FSLAX45Y45*%
G04 Gerber Fmt 4.5, Leading zero omitted, Abs format (unit mm)*
G04 Created by KiCad (PCBNEW 10.0.6) date 2026-10-05 10:43:21*
%MOMM*%
%LPD*%
G01*
G04 APERTURE LIST*
%ADD10C,0.100000*%
%ADD11C,0.200000*%
G04 APERTURE END LIST*
D10*
X0Y-200000D02*
G75*
G02*
X200000Y0I200000J0D01*
G01*
X0Y-4400000D02*
X0Y-200000D01*
X200000Y0D02*
X4800000Y0D01*
X200000Y-4600000D02*
G75*
G02*
X0Y-4400000I0J200000D01*
G01*
X4800000Y0D02*
G75*
G02*
X5000000Y-200000I0J-200000D01*
G01*
X4800000Y-4600000D02*
X200000Y-4600000D01*
X5000000Y-200000D02*
X5000000Y-4400000D01*
X5000000Y-4400000D02*
G75*
G02*
X4800000Y-4600000I-200000J0D01*
G01*
D11*
D10*
X771000Y-2270000D02*
X791000Y-2290000D01*
X791000Y-2270000D02*
X771000Y-2290000D01*
X771000Y-2410000D02*
X791000Y-2430000D01*
X791000Y-2410000D02*
X771000Y-2430000D01*
X841000Y-2200000D02*
X861000Y-2220000D01*
X861000Y-2200000D02*
X841000Y-2220000D01*
X841000Y-2340000D02*
X861000Y-2360000D01*
X861000Y-2340000D02*
X841000Y-2360000D01*
X841000Y-2480000D02*
X861000Y-2500000D01*
X861000Y-2480000D02*
X841000Y-2500000D01*
X911000Y-2270000D02*
X931000Y-2290000D01*
X931000Y-2270000D02*
X911000Y-2290000D01*
X911000Y-2410000D02*
X931000Y-2430000D01*
X931000Y-2410000D02*
X911000Y-2430000D01*
X981000Y-2200000D02*
X1001000Y-2220000D01*
X1001000Y-2200000D02*
X981000Y-2220000D01*
X981000Y-2340000D02*
X1001000Y-2360000D01*
X1001000Y-2340000D02*
X981000Y-2360000D01*
X981000Y-2480000D02*
X1001000Y-2500000D01*
X1001000Y-2480000D02*
X981000Y-2500000D01*
X1051000Y-2270000D02*
X1071000Y-2290000D01*
X1071000Y-2270000D02*
X1051000Y-2290000D01*
X1051000Y-2410000D02*
X1071000Y-2430000D01*
X1071000Y-2410000D02*
X1051000Y-2430000D01*
X3790000Y-2935000D02*
X3810000Y-2955000D01*
X3810000Y-2935000D02*
X3790000Y-2955000D01*
X3790000Y-3045000D02*
X3810000Y-3065000D01*
X3810000Y-3045000D02*
X3790000Y-3065000D01*
X164000Y-1325000D02*
G75*
G02*
X134000Y-1325000I-15000J0D01*
G01*
X134000Y-1325000D02*
G75*
G02*
X164000Y-1325000I15000J0D01*
G01*
X164000Y-3075000D02*
G75*
G02*
X134000Y-3075000I-15000J0D01*
G01*
X134000Y-3075000D02*
G75*
G02*
X164000Y-3075000I15000J0D01*
G01*
X187500Y-3380000D02*
G75*
G02*
X157500Y-3380000I-15000J0D01*
G01*
X157500Y-3380000D02*
G75*
G02*
X187500Y-3380000I15000J0D01*
G01*
X214000Y-3240000D02*
G75*
G02*
X184000Y-3240000I-15000J0D01*
G01*
X184000Y-3240000D02*
G75*
G02*
X214000Y-3240000I15000J0D01*
G01*
X291000Y-3075000D02*
G75*
G02*
X261000Y-3075000I-15000J0D01*
G01*
X261000Y-3075000D02*
G75*
G02*
X291000Y-3075000I15000J0D01*
G01*
X424090Y-701160D02*
G75*
G02*
X394090Y-701160I-15000J0D01*
G01*
X394090Y-701160D02*
G75*
G02*
X424090Y-701160I15000J0D01*
G01*
X456000Y-3240000D02*
G75*
G02*
X426000Y-3240000I-15000J0D01*
G01*
X426000Y-3240000D02*
G75*
G02*
X456000Y-3240000I15000J0D01*
G01*
X522500Y-3380000D02*
G75*
G02*
X492500Y-3380000I-15000J0D01*
G01*
X492500Y-3380000D02*
G75*
G02*
X522500Y-3380000I15000J0D01*
G01*
X561000Y-875000D02*
G75*
G02*
X531000Y-875000I-15000J0D01*
G01*
X531000Y-875000D02*
G75*
G02*
X561000Y-875000I15000J0D01*
G01*
X630520Y-577500D02*
G75*
G02*
X600520Y-577500I-15000J0D01*
G01*
X600520Y-577500D02*
G75*
G02*
X630520Y-577500I15000J0D01*
G01*
X634650Y-3195470D02*
G75*
G02*
X604650Y-3195470I-15000J0D01*
G01*
X604650Y-3195470D02*
G75*
G02*
X634650Y-3195470I15000J0D01*
G01*
X762740Y-1484620D02*
G75*
G02*
X732740Y-1484620I-15000J0D01*
G01*
X732740Y-1484620D02*
G75*
G02*
X762740Y-1484620I15000J0D01*
G01*
X765000Y-900000D02*
G75*
G02*
X735000Y-900000I-15000J0D01*
G01*
X735000Y-900000D02*
G75*
G02*
X765000Y-900000I15000J0D01*
G01*
X811380Y-1163790D02*
G75*
G02*
X781380Y-1163790I-15000J0D01*
G01*
X781380Y-1163790D02*
G75*
G02*
X811380Y-1163790I15000J0D01*
G01*
X1040000Y-804000D02*
G75*
G02*
X1010000Y-804000I-15000J0D01*
G01*
X1010000Y-804000D02*
G75*
G02*
X1040000Y-804000I15000J0D01*
G01*
X1040000Y-1046000D02*
G75*
G02*
X1010000Y-1046000I-15000J0D01*
G01*
X1010000Y-1046000D02*
G75*
G02*
X1040000Y-1046000I15000J0D01*
G01*
X1092000Y-4225000D02*
G75*
G02*
X1062000Y-4225000I-15000J0D01*
G01*
X1062000Y-4225000D02*
G75*
G02*
X1092000Y-4225000I15000J0D01*
G01*
X1145160Y-702070D02*
G75*
G02*
X1115160Y-702070I-15000J0D01*
G01*
X1115160Y-702070D02*
G75*
G02*
X1145160Y-702070I15000J0D01*
G01*
X1176330Y-988210D02*
G75*
G02*
X1146330Y-988210I-15000J0D01*
G01*
X1146330Y-988210D02*
G75*
G02*
X1176330Y-988210I15000J0D01*
G01*
X1204120Y-1678420D02*
G75*
G02*
X1174120Y-1678420I-15000J0D01*
G01*
X1174120Y-1678420D02*
G75*
G02*
X1204120Y-1678420I15000J0D01*
G01*
X1254300Y-1450400D02*
G75*
G02*
X1224300Y-1450400I-15000J0D01*
G01*
X1224300Y-1450400D02*
G75*
G02*
X1254300Y-1450400I15000J0D01*
G01*
X1276810Y-702200D02*
G75*
G02*
X1246810Y-702200I-15000J0D01*
G01*
X1246810Y-702200D02*
G75*
G02*
X1276810Y-702200I15000J0D01*
G01*
X1295910Y-3898840D02*
G75*
G02*
X1265910Y-3898840I-15000J0D01*
G01*
X1265910Y-3898840D02*
G75*
G02*
X1295910Y-3898840I15000J0D01*
G01*
X1320750Y-4163680D02*
G75*
G02*
X1290750Y-4163680I-15000J0D01*
G01*
X1290750Y-4163680D02*
G75*
G02*
X1320750Y-4163680I15000J0D01*
G01*
X1338000Y-4274000D02*
G75*
G02*
X1308000Y-4274000I-15000J0D01*
G01*
X1308000Y-4274000D02*
G75*
G02*
X1338000Y-4274000I15000J0D01*
G01*
X1383060Y-1496700D02*
G75*
G02*
X1353060Y-1496700I-15000J0D01*
G01*
X1353060Y-1496700D02*
G75*
G02*
X1383060Y-1496700I15000J0D01*
G01*
X1415720Y-1956460D02*
G75*
G02*
X1385720Y-1956460I-15000J0D01*
G01*
X1385720Y-1956460D02*
G75*
G02*
X1415720Y-1956460I15000J0D01*
G01*
X1434000Y-2954340D02*
G75*
G02*
X1404000Y-2954340I-15000J0D01*
G01*
X1404000Y-2954340D02*
G75*
G02*
X1434000Y-2954340I15000J0D01*
G01*
X1438120Y-1097960D02*
G75*
G02*
X1408120Y-1097960I-15000J0D01*
G01*
X1408120Y-1097960D02*
G75*
G02*
X1438120Y-1097960I15000J0D01*
G01*
X1484480Y-700610D02*
G75*
G02*
X1454480Y-700610I-15000J0D01*
G01*
X1454480Y-700610D02*
G75*
G02*
X1484480Y-700610I15000J0D01*
G01*
X1506930Y-1747170D02*
G75*
G02*
X1476930Y-1747170I-15000J0D01*
G01*
X1476930Y-1747170D02*
G75*
G02*
X1506930Y-1747170I15000J0D01*
G01*
X1515000Y-979680D02*
G75*
G02*
X1485000Y-979680I-15000J0D01*
G01*
X1485000Y-979680D02*
G75*
G02*
X1515000Y-979680I15000J0D01*
G01*
X1561000Y-2953490D02*
G75*
G02*
X1531000Y-2953490I-15000J0D01*
G01*
X1531000Y-2953490D02*
G75*
G02*
X1561000Y-2953490I15000J0D01*
G01*
X1577280Y-1863650D02*
G75*
G02*
X1547280Y-1863650I-15000J0D01*
G01*
X1547280Y-1863650D02*
G75*
G02*
X1577280Y-1863650I15000J0D01*
G01*
X1608690Y-3391420D02*
G75*
G02*
X1578690Y-3391420I-15000J0D01*
G01*
X1578690Y-3391420D02*
G75*
G02*
X1608690Y-3391420I15000J0D01*
G01*
X1653830Y-1553000D02*
G75*
G02*
X1623830Y-1553000I-15000J0D01*
G01*
X1623830Y-1553000D02*
G75*
G02*
X1653830Y-1553000I15000J0D01*
G01*
X1678210Y-1100720D02*
G75*
G02*
X1648210Y-1100720I-15000J0D01*
G01*
X1648210Y-1100720D02*
G75*
G02*
X1678210Y-1100720I15000J0D01*
G01*
X1692000Y-1025000D02*
G75*
G02*
X1662000Y-1025000I-15000J0D01*
G01*
X1662000Y-1025000D02*
G75*
G02*
X1692000Y-1025000I15000J0D01*
G01*
X1694100Y-848260D02*
G75*
G02*
X1664100Y-848260I-15000J0D01*
G01*
X1664100Y-848260D02*
G75*
G02*
X1694100Y-848260I15000J0D01*
G01*
X1765000Y-3896520D02*
G75*
G02*
X1735000Y-3896520I-15000J0D01*
G01*
X1735000Y-3896520D02*
G75*
G02*
X1765000Y-3896520I15000J0D01*
G01*
X1772510Y-2009130D02*
G75*
G02*
X1742510Y-2009130I-15000J0D01*
G01*
X1742510Y-2009130D02*
G75*
G02*
X1772510Y-2009130I15000J0D01*
G01*
X1782320Y-1607850D02*
G75*
G02*
X1752320Y-1607850I-15000J0D01*
G01*
X1752320Y-1607850D02*
G75*
G02*
X1782320Y-1607850I15000J0D01*
G01*
X1854250Y-776360D02*
G75*
G02*
X1824250Y-776360I-15000J0D01*
G01*
X1824250Y-776360D02*
G75*
G02*
X1854250Y-776360I15000J0D01*
G01*
X1886230Y-492990D02*
G75*
G02*
X1856230Y-492990I-15000J0D01*
G01*
X1856230Y-492990D02*
G75*
G02*
X1886230Y-492990I15000J0D01*
G01*
X1888000Y-3600000D02*
G75*
G02*
X1858000Y-3600000I-15000J0D01*
G01*
X1858000Y-3600000D02*
G75*
G02*
X1888000Y-3600000I15000J0D01*
G01*
X1917690Y-628500D02*
G75*
G02*
X1887690Y-628500I-15000J0D01*
G01*
X1887690Y-628500D02*
G75*
G02*
X1917690Y-628500I15000J0D01*
G01*
X1938000Y-1200000D02*
G75*
G02*
X1908000Y-1200000I-15000J0D01*
G01*
X1908000Y-1200000D02*
G75*
G02*
X1938000Y-1200000I15000J0D01*
G01*
X1939920Y-1017910D02*
G75*
G02*
X1909920Y-1017910I-15000J0D01*
G01*
X1909920Y-1017910D02*
G75*
G02*
X1939920Y-1017910I15000J0D01*
G01*
X1965000Y-3721000D02*
G75*
G02*
X1935000Y-3721000I-15000J0D01*
G01*
X1935000Y-3721000D02*
G75*
G02*
X1965000Y-3721000I15000J0D01*
G01*
X1974920Y-1395260D02*
G75*
G02*
X1944920Y-1395260I-15000J0D01*
G01*
X1944920Y-1395260D02*
G75*
G02*
X1974920Y-1395260I15000J0D01*
G01*
X1999810Y-747890D02*
G75*
G02*
X1969810Y-747890I-15000J0D01*
G01*
X1969810Y-747890D02*
G75*
G02*
X1999810Y-747890I15000J0D01*
G01*
X2032180Y-1110120D02*
G75*
G02*
X2002180Y-1110120I-15000J0D01*
G01*
X2002180Y-1110120D02*
G75*
G02*
X2032180Y-1110120I15000J0D01*
G01*
X2055080Y-1395260D02*
G75*
G02*
X2025080Y-1395260I-15000J0D01*
G01*
X2025080Y-1395260D02*
G75*
G02*
X2055080Y-1395260I15000J0D01*
G01*
X2060440Y-2371040D02*
G75*
G02*
X2030440Y-2371040I-15000J0D01*
G01*
X2030440Y-2371040D02*
G75*
G02*
X2060440Y-2371040I15000J0D01*
G01*
X2061000Y-1780000D02*
G75*
G02*
X2031000Y-1780000I-15000J0D01*
G01*
X2031000Y-1780000D02*
G75*
G02*
X2061000Y-1780000I15000J0D01*
G01*
X2076400Y-1858490D02*
G75*
G02*
X2046400Y-1858490I-15000J0D01*
G01*
X2046400Y-1858490D02*
G75*
G02*
X2076400Y-1858490I15000J0D01*
G01*
X2114570Y-1950490D02*
G75*
G02*
X2084570Y-1950490I-15000J0D01*
G01*
X2084570Y-1950490D02*
G75*
G02*
X2114570Y-1950490I15000J0D01*
G01*
X2116140Y-2426210D02*
G75*
G02*
X2086140Y-2426210I-15000J0D01*
G01*
X2086140Y-2426210D02*
G75*
G02*
X2116140Y-2426210I15000J0D01*
G01*
X2161840Y-1782100D02*
G75*
G02*
X2131840Y-1782100I-15000J0D01*
G01*
X2131840Y-1782100D02*
G75*
G02*
X2161840Y-1782100I15000J0D01*
G01*
X2162820Y-1356440D02*
G75*
G02*
X2132820Y-1356440I-15000J0D01*
G01*
X2132820Y-1356440D02*
G75*
G02*
X2162820Y-1356440I15000J0D01*
G01*
X2195000Y-549500D02*
G75*
G02*
X2165000Y-549500I-15000J0D01*
G01*
X2165000Y-549500D02*
G75*
G02*
X2195000Y-549500I15000J0D01*
G01*
X2219870Y-2960000D02*
G75*
G02*
X2189870Y-2960000I-15000J0D01*
G01*
X2189870Y-2960000D02*
G75*
G02*
X2219870Y-2960000I15000J0D01*
G01*
X2226800Y-1476960D02*
G75*
G02*
X2196800Y-1476960I-15000J0D01*
G01*
X2196800Y-1476960D02*
G75*
G02*
X2226800Y-1476960I15000J0D01*
G01*
X2234190Y-1860300D02*
G75*
G02*
X2204190Y-1860300I-15000J0D01*
G01*
X2204190Y-1860300D02*
G75*
G02*
X2234190Y-1860300I15000J0D01*
G01*
X2324000Y-2170560D02*
G75*
G02*
X2294000Y-2170560I-15000J0D01*
G01*
X2294000Y-2170560D02*
G75*
G02*
X2324000Y-2170560I15000J0D01*
G01*
X2338000Y-1200000D02*
G75*
G02*
X2308000Y-1200000I-15000J0D01*
G01*
X2308000Y-1200000D02*
G75*
G02*
X2338000Y-1200000I15000J0D01*
G01*
X2342000Y-1000000D02*
G75*
G02*
X2312000Y-1000000I-15000J0D01*
G01*
X2312000Y-1000000D02*
G75*
G02*
X2342000Y-1000000I15000J0D01*
G01*
X2344000Y-875000D02*
G75*
G02*
X2314000Y-875000I-15000J0D01*
G01*
X2314000Y-875000D02*
G75*
G02*
X2344000Y-875000I15000J0D01*
G01*
X2349320Y-1538680D02*
G75*
G02*
X2319320Y-1538680I-15000J0D01*
G01*
X2319320Y-1538680D02*
G75*
G02*
X2349320Y-1538680I15000J0D01*
G01*
X2368570Y-3913520D02*
G75*
G02*
X2338570Y-3913520I-15000J0D01*
G01*
X2338570Y-3913520D02*
G75*
G02*
X2368570Y-3913520I15000J0D01*
G01*
X2430040Y-2285250D02*
G75*
G02*
X2400040Y-2285250I-15000J0D01*
G01*
X2400040Y-2285250D02*
G75*
G02*
X2430040Y-2285250I15000J0D01*
G01*
X2431140Y-1289770D02*
G75*
G02*
X2401140Y-1289770I-15000J0D01*
G01*
X2401140Y-1289770D02*
G75*
G02*
X2431140Y-1289770I15000J0D01*
G01*
X2451000Y-1460000D02*
G75*
G02*
X2421000Y-1460000I-15000J0D01*
G01*
X2421000Y-1460000D02*
G75*
G02*
X2451000Y-1460000I15000J0D01*
G01*
X2467000Y-4200000D02*
G75*
G02*
X2437000Y-4200000I-15000J0D01*
G01*
X2437000Y-4200000D02*
G75*
G02*
X2467000Y-4200000I15000J0D01*
G01*
X2515000Y-2100000D02*
G75*
G02*
X2485000Y-2100000I-15000J0D01*
G01*
X2485000Y-2100000D02*
G75*
G02*
X2515000Y-2100000I15000J0D01*
G01*
X2540000Y-300000D02*
G75*
G02*
X2510000Y-300000I-15000J0D01*
G01*
X2510000Y-300000D02*
G75*
G02*
X2540000Y-300000I15000J0D01*
G01*
X2586000Y-875000D02*
G75*
G02*
X2556000Y-875000I-15000J0D01*
G01*
X2556000Y-875000D02*
G75*
G02*
X2586000Y-875000I15000J0D01*
G01*
X2588000Y-4006000D02*
G75*
G02*
X2558000Y-4006000I-15000J0D01*
G01*
X2558000Y-4006000D02*
G75*
G02*
X2588000Y-4006000I15000J0D01*
G01*
X2595000Y-549500D02*
G75*
G02*
X2565000Y-549500I-15000J0D01*
G01*
X2565000Y-549500D02*
G75*
G02*
X2595000Y-549500I15000J0D01*
G01*
X2664000Y-823000D02*
G75*
G02*
X2634000Y-823000I-15000J0D01*
G01*
X2634000Y-823000D02*
G75*
G02*
X2664000Y-823000I15000J0D01*
G01*
X2695000Y-549500D02*
G75*
G02*
X2665000Y-549500I-15000J0D01*
G01*
X2665000Y-549500D02*
G75*
G02*
X2695000Y-549500I15000J0D01*
G01*
X2732500Y-4050000D02*
G75*
G02*
X2702500Y-4050000I-15000J0D01*
G01*
X2702500Y-4050000D02*
G75*
G02*
X2732500Y-4050000I15000J0D01*
G01*
X2826750Y-1600000D02*
G75*
G02*
X2796750Y-1600000I-15000J0D01*
G01*
X2796750Y-1600000D02*
G75*
G02*
X2826750Y-1600000I15000J0D01*
G01*
X2881650Y-3892650D02*
G75*
G02*
X2851650Y-3892650I-15000J0D01*
G01*
X2851650Y-3892650D02*
G75*
G02*
X2881650Y-3892650I15000J0D01*
G01*
X2885000Y-1905000D02*
G75*
G02*
X2855000Y-1905000I-15000J0D01*
G01*
X2855000Y-1905000D02*
G75*
G02*
X2885000Y-1905000I15000J0D01*
G01*
X2885000Y-2485000D02*
G75*
G02*
X2855000Y-2485000I-15000J0D01*
G01*
X2855000Y-2485000D02*
G75*
G02*
X2885000Y-2485000I15000J0D01*
G01*
X2892000Y-875000D02*
G75*
G02*
X2862000Y-875000I-15000J0D01*
G01*
X2862000Y-875000D02*
G75*
G02*
X2892000Y-875000I15000J0D01*
G01*
X2894100Y-3323260D02*
G75*
G02*
X2864100Y-3323260I-15000J0D01*
G01*
X2864100Y-3323260D02*
G75*
G02*
X2894100Y-3323260I15000J0D01*
G01*
X2938000Y-3775000D02*
G75*
G02*
X2908000Y-3775000I-15000J0D01*
G01*
X2908000Y-3775000D02*
G75*
G02*
X2938000Y-3775000I15000J0D01*
G01*
X2941820Y-3984780D02*
G75*
G02*
X2911820Y-3984780I-15000J0D01*
G01*
X2911820Y-3984780D02*
G75*
G02*
X2941820Y-3984780I15000J0D01*
G01*
X2985000Y-880000D02*
G75*
G02*
X2955000Y-880000I-15000J0D01*
G01*
X2955000Y-880000D02*
G75*
G02*
X2985000Y-880000I15000J0D01*
G01*
X2991430Y-1631770D02*
G75*
G02*
X2961430Y-1631770I-15000J0D01*
G01*
X2961430Y-1631770D02*
G75*
G02*
X2991430Y-1631770I15000J0D01*
G01*
X2994610Y-627860D02*
G75*
G02*
X2964610Y-627860I-15000J0D01*
G01*
X2964610Y-627860D02*
G75*
G02*
X2994610Y-627860I15000J0D01*
G01*
X3143060Y-2548690D02*
G75*
G02*
X3113060Y-2548690I-15000J0D01*
G01*
X3113060Y-2548690D02*
G75*
G02*
X3143060Y-2548690I15000J0D01*
G01*
X3143280Y-647180D02*
G75*
G02*
X3113280Y-647180I-15000J0D01*
G01*
X3113280Y-647180D02*
G75*
G02*
X3143280Y-647180I15000J0D01*
G01*
X3153000Y-1600000D02*
G75*
G02*
X3123000Y-1600000I-15000J0D01*
G01*
X3123000Y-1600000D02*
G75*
G02*
X3153000Y-1600000I15000J0D01*
G01*
X3165000Y-1905000D02*
G75*
G02*
X3135000Y-1905000I-15000J0D01*
G01*
X3135000Y-1905000D02*
G75*
G02*
X3165000Y-1905000I15000J0D01*
G01*
X3222130Y-664040D02*
G75*
G02*
X3192130Y-664040I-15000J0D01*
G01*
X3192130Y-664040D02*
G75*
G02*
X3222130Y-664040I15000J0D01*
G01*
X3271250Y-2367150D02*
G75*
G02*
X3241250Y-2367150I-15000J0D01*
G01*
X3241250Y-2367150D02*
G75*
G02*
X3271250Y-2367150I15000J0D01*
G01*
X3278940Y-2633110D02*
G75*
G02*
X3248940Y-2633110I-15000J0D01*
G01*
X3248940Y-2633110D02*
G75*
G02*
X3278940Y-2633110I15000J0D01*
G01*
X3282790Y-2960000D02*
G75*
G02*
X3252790Y-2960000I-15000J0D01*
G01*
X3252790Y-2960000D02*
G75*
G02*
X3282790Y-2960000I15000J0D01*
G01*
X3299010Y-3612370D02*
G75*
G02*
X3269010Y-3612370I-15000J0D01*
G01*
X3269010Y-3612370D02*
G75*
G02*
X3299010Y-3612370I15000J0D01*
G01*
X3309320Y-959320D02*
G75*
G02*
X3279320Y-959320I-15000J0D01*
G01*
X3279320Y-959320D02*
G75*
G02*
X3309320Y-959320I15000J0D01*
G01*
X3317260Y-4085000D02*
G75*
G02*
X3287260Y-4085000I-15000J0D01*
G01*
X3287260Y-4085000D02*
G75*
G02*
X3317260Y-4085000I15000J0D01*
G01*
X3338000Y-4176000D02*
G75*
G02*
X3308000Y-4176000I-15000J0D01*
G01*
X3308000Y-4176000D02*
G75*
G02*
X3338000Y-4176000I15000J0D01*
G01*
X3344220Y-3963560D02*
G75*
G02*
X3314220Y-3963560I-15000J0D01*
G01*
X3314220Y-3963560D02*
G75*
G02*
X3344220Y-3963560I15000J0D01*
G01*
X3347200Y-3539040D02*
G75*
G02*
X3317200Y-3539040I-15000J0D01*
G01*
X3317200Y-3539040D02*
G75*
G02*
X3347200Y-3539040I15000J0D01*
G01*
X3366170Y-3374630D02*
G75*
G02*
X3336170Y-3374630I-15000J0D01*
G01*
X3336170Y-3374630D02*
G75*
G02*
X3366170Y-3374630I15000J0D01*
G01*
X3390000Y-1000000D02*
G75*
G02*
X3360000Y-1000000I-15000J0D01*
G01*
X3360000Y-1000000D02*
G75*
G02*
X3390000Y-1000000I15000J0D01*
G01*
X3415000Y-2500000D02*
G75*
G02*
X3385000Y-2500000I-15000J0D01*
G01*
X3385000Y-2500000D02*
G75*
G02*
X3415000Y-2500000I15000J0D01*
G01*
X3517130Y-3476410D02*
G75*
G02*
X3487130Y-3476410I-15000J0D01*
G01*
X3487130Y-3476410D02*
G75*
G02*
X3517130Y-3476410I15000J0D01*
G01*
X3541000Y-2225000D02*
G75*
G02*
X3511000Y-2225000I-15000J0D01*
G01*
X3511000Y-2225000D02*
G75*
G02*
X3541000Y-2225000I15000J0D01*
G01*
X3559770Y-2776890D02*
G75*
G02*
X3529770Y-2776890I-15000J0D01*
G01*
X3529770Y-2776890D02*
G75*
G02*
X3559770Y-2776890I15000J0D01*
G01*
X3587500Y-2085000D02*
G75*
G02*
X3557500Y-2085000I-15000J0D01*
G01*
X3557500Y-2085000D02*
G75*
G02*
X3587500Y-2085000I15000J0D01*
G01*
X3600000Y-3356000D02*
G75*
G02*
X3570000Y-3356000I-15000J0D01*
G01*
X3570000Y-3356000D02*
G75*
G02*
X3600000Y-3356000I15000J0D01*
G01*
X3605000Y-4357210D02*
G75*
G02*
X3575000Y-4357210I-15000J0D01*
G01*
X3575000Y-4357210D02*
G75*
G02*
X3605000Y-4357210I15000J0D01*
G01*
X3614330Y-3908680D02*
G75*
G02*
X3584330Y-3908680I-15000J0D01*
G01*
X3584330Y-3908680D02*
G75*
G02*
X3614330Y-3908680I15000J0D01*
G01*
X3658010Y-1455320D02*
G75*
G02*
X3628010Y-1455320I-15000J0D01*
G01*
X3628010Y-1455320D02*
G75*
G02*
X3658010Y-1455320I15000J0D01*
G01*
X3665000Y-4125000D02*
G75*
G02*
X3635000Y-4125000I-15000J0D01*
G01*
X3635000Y-4125000D02*
G75*
G02*
X3665000Y-4125000I15000J0D01*
G01*
X3671930Y-1805570D02*
G75*
G02*
X3641930Y-1805570I-15000J0D01*
G01*
X3641930Y-1805570D02*
G75*
G02*
X3671930Y-1805570I15000J0D01*
G01*
X3690000Y-395870D02*
G75*
G02*
X3660000Y-395870I-15000J0D01*
G01*
X3660000Y-395870D02*
G75*
G02*
X3690000Y-395870I15000J0D01*
G01*
X3715000Y-4198000D02*
G75*
G02*
X3685000Y-4198000I-15000J0D01*
G01*
X3685000Y-4198000D02*
G75*
G02*
X3715000Y-4198000I15000J0D01*
G01*
X3725000Y-1030000D02*
G75*
G02*
X3695000Y-1030000I-15000J0D01*
G01*
X3695000Y-1030000D02*
G75*
G02*
X3725000Y-1030000I15000J0D01*
G01*
X3740000Y-4275000D02*
G75*
G02*
X3710000Y-4275000I-15000J0D01*
G01*
X3710000Y-4275000D02*
G75*
G02*
X3740000Y-4275000I15000J0D01*
G01*
X3750000Y-3849160D02*
G75*
G02*
X3720000Y-3849160I-15000J0D01*
G01*
X3720000Y-3849160D02*
G75*
G02*
X3750000Y-3849160I15000J0D01*
G01*
X3770000Y-2038000D02*
G75*
G02*
X3740000Y-2038000I-15000J0D01*
G01*
X3740000Y-2038000D02*
G75*
G02*
X3770000Y-2038000I15000J0D01*
G01*
X3786290Y-2503960D02*
G75*
G02*
X3756290Y-2503960I-15000J0D01*
G01*
X3756290Y-2503960D02*
G75*
G02*
X3786290Y-2503960I15000J0D01*
G01*
X3854380Y-3531590D02*
G75*
G02*
X3824380Y-3531590I-15000J0D01*
G01*
X3824380Y-3531590D02*
G75*
G02*
X3854380Y-3531590I15000J0D01*
G01*
X3875000Y-1340000D02*
G75*
G02*
X3845000Y-1340000I-15000J0D01*
G01*
X3845000Y-1340000D02*
G75*
G02*
X3875000Y-1340000I15000J0D01*
G01*
X3875000Y-2170000D02*
G75*
G02*
X3845000Y-2170000I-15000J0D01*
G01*
X3845000Y-2170000D02*
G75*
G02*
X3875000Y-2170000I15000J0D01*
G01*
X3941450Y-4065560D02*
G75*
G02*
X3911450Y-4065560I-15000J0D01*
G01*
X3911450Y-4065560D02*
G75*
G02*
X3941450Y-4065560I15000J0D01*
G01*
X3989320Y-1368680D02*
G75*
G02*
X3959320Y-1368680I-15000J0D01*
G01*
X3959320Y-1368680D02*
G75*
G02*
X3989320Y-1368680I15000J0D01*
G01*
X4015000Y-1475000D02*
G75*
G02*
X3985000Y-1475000I-15000J0D01*
G01*
X3985000Y-1475000D02*
G75*
G02*
X4015000Y-1475000I15000J0D01*
G01*
X4060000Y-3092500D02*
G75*
G02*
X4030000Y-3092500I-15000J0D01*
G01*
X4030000Y-3092500D02*
G75*
G02*
X4060000Y-3092500I15000J0D01*
G01*
X4093000Y-3195000D02*
G75*
G02*
X4063000Y-3195000I-15000J0D01*
G01*
X4063000Y-3195000D02*
G75*
G02*
X4093000Y-3195000I15000J0D01*
G01*
X4147990Y-1264000D02*
G75*
G02*
X4117990Y-1264000I-15000J0D01*
G01*
X4117990Y-1264000D02*
G75*
G02*
X4147990Y-1264000I15000J0D01*
G01*
X4185000Y-1980000D02*
G75*
G02*
X4155000Y-1980000I-15000J0D01*
G01*
X4155000Y-1980000D02*
G75*
G02*
X4185000Y-1980000I15000J0D01*
G01*
X4235000Y-2200000D02*
G75*
G02*
X4205000Y-2200000I-15000J0D01*
G01*
X4205000Y-2200000D02*
G75*
G02*
X4235000Y-2200000I15000J0D01*
G01*
X4242120Y-3029560D02*
G75*
G02*
X4212120Y-3029560I-15000J0D01*
G01*
X4212120Y-3029560D02*
G75*
G02*
X4242120Y-3029560I15000J0D01*
G01*
X4316550Y-3234370D02*
G75*
G02*
X4286550Y-3234370I-15000J0D01*
G01*
X4286550Y-3234370D02*
G75*
G02*
X4316550Y-3234370I15000J0D01*
G01*
X4321750Y-2579510D02*
G75*
G02*
X4291750Y-2579510I-15000J0D01*
G01*
X4291750Y-2579510D02*
G75*
G02*
X4321750Y-2579510I15000J0D01*
G01*
X4355500Y-756000D02*
G75*
G02*
X4325500Y-756000I-15000J0D01*
G01*
X4325500Y-756000D02*
G75*
G02*
X4355500Y-756000I15000J0D01*
G01*
X4414000Y-3254480D02*
G75*
G02*
X4384000Y-3254480I-15000J0D01*
G01*
X4384000Y-3254480D02*
G75*
G02*
X4414000Y-3254480I15000J0D01*
G01*
X4463000Y-2500000D02*
G75*
G02*
X4433000Y-2500000I-15000J0D01*
G01*
X4433000Y-2500000D02*
G75*
G02*
X4463000Y-2500000I15000J0D01*
G01*
X4575000Y-1780000D02*
G75*
G02*
X4545000Y-1780000I-15000J0D01*
G01*
X4545000Y-1780000D02*
G75*
G02*
X4575000Y-1780000I15000J0D01*
G01*
X4575000Y-2180000D02*
G75*
G02*
X4545000Y-2180000I-15000J0D01*
G01*
X4545000Y-2180000D02*
G75*
G02*
X4575000Y-2180000I15000J0D01*
G01*
X4638000Y-2176000D02*
G75*
G02*
X4608000Y-2176000I-15000J0D01*
G01*
X4608000Y-2176000D02*
G75*
G02*
X4638000Y-2176000I15000J0D01*
G01*
X4740000Y-1680000D02*
G75*
G02*
X4710000Y-1680000I-15000J0D01*
G01*
X4710000Y-1680000D02*
G75*
G02*
X4740000Y-1680000I15000J0D01*
G01*
X4795380Y-2094000D02*
G75*
G02*
X4765380Y-2094000I-15000J0D01*
G01*
X4765380Y-2094000D02*
G75*
G02*
X4795380Y-2094000I15000J0D01*
G01*
X1350000Y-391550D02*
X1350000Y-431550D01*
X1330000Y-411550D02*
X1370000Y-411550D01*
X2520170Y-3480000D02*
X2520170Y-3520000D01*
X2500170Y-3500000D02*
X2540170Y-3500000D01*
X2559870Y-1295020D02*
X2559870Y-1335020D01*
X2539870Y-1315020D02*
X2579870Y-1315020D01*
X2634500Y-2588870D02*
X2634500Y-2628870D01*
X2614500Y-2608870D02*
X2654500Y-2608870D01*
X2775760Y-1771420D02*
X2775760Y-1811420D01*
X2755760Y-1791420D02*
X2795760Y-1791420D01*
X2855040Y-3514830D02*
X2855040Y-3554830D01*
X2835040Y-3534830D02*
X2875040Y-3534830D01*
X2859530Y-727230D02*
X2859530Y-767230D01*
X2839530Y-747230D02*
X2879530Y-747230D01*
X2870000Y-1695000D02*
X2870000Y-1735000D01*
X2850000Y-1715000D02*
X2890000Y-1715000D01*
X3049970Y-1295020D02*
X3049970Y-1335020D01*
X3029970Y-1315020D02*
X3069970Y-1315020D01*
X3237500Y-2065000D02*
X3237500Y-2105000D01*
X3217500Y-2085000D02*
X3257500Y-2085000D01*
X3284000Y-2205000D02*
X3284000Y-2245000D01*
X3264000Y-2225000D02*
X3304000Y-2225000D01*
X3489580Y-2290810D02*
X3489580Y-2330810D01*
X3469580Y-2310810D02*
X3509580Y-2310810D01*
X3700000Y-2357000D02*
X3700000Y-2397000D01*
X3680000Y-2377000D02*
X3720000Y-2377000D01*
X3735000Y-1462500D02*
X3735000Y-1502500D01*
X3715000Y-1482500D02*
X3755000Y-1482500D01*
X3755680Y-1348680D02*
X3755680Y-1388680D01*
X3735680Y-1368680D02*
X3775680Y-1368680D01*
X3791680Y-2746470D02*
X3791680Y-2786470D01*
X3771680Y-2766470D02*
X3811680Y-2766470D01*
X3831230Y-1477920D02*
X3831230Y-1517920D01*
X3811230Y-1497920D02*
X3851230Y-1497920D01*
X3980000Y-2130000D02*
X3980000Y-2170000D01*
X3960000Y-2150000D02*
X4000000Y-2150000D01*
X4175480Y-1800980D02*
X4175480Y-1840980D01*
X4155480Y-1820980D02*
X4195480Y-1820980D01*
X4255000Y-980000D02*
X4255000Y-1020000D01*
X4235000Y-1000000D02*
X4275000Y-1000000D01*
X4340500Y-990000D02*
X4340500Y-1030000D01*
X4320500Y-1010000D02*
X4360500Y-1010000D01*
X4340500Y-1820000D02*
X4340500Y-1860000D01*
X4320500Y-1840000D02*
X4360500Y-1840000D01*
X4530230Y-2387030D02*
X4530230Y-2427030D01*
X4510230Y-2407030D02*
X4550230Y-2407030D01*
X3149213Y-3843713D02*
X3149213Y-3801287D01*
X3106787Y-3801287D01*
X3106787Y-3843713D01*
X3149213Y-3843713D01*
X3098000Y-3767500D02*
X3098000Y-3877500D01*
X3158000Y-3877500D02*
G75*
G02*
X3098000Y-3877500I-30000J0D01*
G01*
X3158000Y-3877500D02*
X3158000Y-3767500D01*
X3158000Y-3767500D02*
G75*
G03*
X3098000Y-3767500I-30000J0D01*
G01*
X3149213Y-4261713D02*
X3149213Y-4219287D01*
X3106787Y-4219287D01*
X3106787Y-4261713D01*
X3149213Y-4261713D01*
X3098000Y-4210500D02*
X3098000Y-4270500D01*
X3158000Y-4270500D02*
G75*
G02*
X3098000Y-4270500I-30000J0D01*
G01*
X3158000Y-4270500D02*
X3158000Y-4210500D01*
X3158000Y-4210500D02*
G75*
G03*
X3098000Y-4210500I-30000J0D01*
G01*
X4013213Y-3843713D02*
X4013213Y-3801287D01*
X3970787Y-3801287D01*
X3970787Y-3843713D01*
X4013213Y-3843713D01*
X3962000Y-3767500D02*
X3962000Y-3877500D01*
X4022000Y-3877500D02*
G75*
G02*
X3962000Y-3877500I-30000J0D01*
G01*
X4022000Y-3877500D02*
X4022000Y-3767500D01*
X4022000Y-3767500D02*
G75*
G03*
X3962000Y-3767500I-30000J0D01*
G01*
X4013213Y-4261713D02*
X4013213Y-4219287D01*
X3970787Y-4219287D01*
X3970787Y-4261713D01*
X4013213Y-4261713D01*
X3962000Y-4210500D02*
X3962000Y-4270500D01*
X4022000Y-4270500D02*
G75*
G02*
X3962000Y-4270500I-30000J0D01*
G01*
X4022000Y-4270500D02*
X4022000Y-4210500D01*
X4022000Y-4210500D02*
G75*
G03*
X3962000Y-4210500I-30000J0D01*
G01*
D11*
X255777Y-4916484D02*
X255777Y-4716484D01*
X255777Y-4716484D02*
X303396Y-4716484D01*
X303396Y-4716484D02*
X331967Y-4726008D01*
X331967Y-4726008D02*
X351015Y-4745055D01*
X351015Y-4745055D02*
X360539Y-4764103D01*
X360539Y-4764103D02*
X370062Y-4802198D01*
X370062Y-4802198D02*
X370062Y-4830770D01*
X370062Y-4830770D02*
X360539Y-4868865D01*
X360539Y-4868865D02*
X351015Y-4887912D01*
X351015Y-4887912D02*
X331967Y-4906960D01*
X331967Y-4906960D02*
X303396Y-4916484D01*
X303396Y-4916484D02*
X255777Y-4916484D01*
X455777Y-4916484D02*
X455777Y-4783150D01*
X455777Y-4821246D02*
X465301Y-4802198D01*
X465301Y-4802198D02*
X474824Y-4792674D01*
X474824Y-4792674D02*
X493872Y-4783150D01*
X493872Y-4783150D02*
X512920Y-4783150D01*
X579586Y-4916484D02*
X579586Y-4783150D01*
X579586Y-4716484D02*
X570063Y-4726008D01*
X570063Y-4726008D02*
X579586Y-4735531D01*
X579586Y-4735531D02*
X589110Y-4726008D01*
X589110Y-4726008D02*
X579586Y-4716484D01*
X579586Y-4716484D02*
X579586Y-4735531D01*
X703396Y-4916484D02*
X684348Y-4906960D01*
X684348Y-4906960D02*
X674824Y-4887912D01*
X674824Y-4887912D02*
X674824Y-4716484D01*
X808158Y-4916484D02*
X789110Y-4906960D01*
X789110Y-4906960D02*
X779586Y-4887912D01*
X779586Y-4887912D02*
X779586Y-4716484D01*
X1036729Y-4916484D02*
X1036729Y-4716484D01*
X1036729Y-4716484D02*
X1103396Y-4859341D01*
X1103396Y-4859341D02*
X1170063Y-4716484D01*
X1170063Y-4716484D02*
X1170063Y-4916484D01*
X1351015Y-4916484D02*
X1351015Y-4811722D01*
X1351015Y-4811722D02*
X1341491Y-4792674D01*
X1341491Y-4792674D02*
X1322444Y-4783150D01*
X1322444Y-4783150D02*
X1284348Y-4783150D01*
X1284348Y-4783150D02*
X1265301Y-4792674D01*
X1351015Y-4906960D02*
X1331967Y-4916484D01*
X1331967Y-4916484D02*
X1284348Y-4916484D01*
X1284348Y-4916484D02*
X1265301Y-4906960D01*
X1265301Y-4906960D02*
X1255777Y-4887912D01*
X1255777Y-4887912D02*
X1255777Y-4868865D01*
X1255777Y-4868865D02*
X1265301Y-4849817D01*
X1265301Y-4849817D02*
X1284348Y-4840293D01*
X1284348Y-4840293D02*
X1331967Y-4840293D01*
X1331967Y-4840293D02*
X1351015Y-4830770D01*
X1446253Y-4783150D02*
X1446253Y-4983150D01*
X1446253Y-4792674D02*
X1465301Y-4783150D01*
X1465301Y-4783150D02*
X1503396Y-4783150D01*
X1503396Y-4783150D02*
X1522443Y-4792674D01*
X1522443Y-4792674D02*
X1531967Y-4802198D01*
X1531967Y-4802198D02*
X1541491Y-4821246D01*
X1541491Y-4821246D02*
X1541491Y-4878389D01*
X1541491Y-4878389D02*
X1531967Y-4897436D01*
X1531967Y-4897436D02*
X1522443Y-4906960D01*
X1522443Y-4906960D02*
X1503396Y-4916484D01*
X1503396Y-4916484D02*
X1465301Y-4916484D01*
X1465301Y-4916484D02*
X1446253Y-4906960D01*
X1627205Y-4897436D02*
X1636729Y-4906960D01*
X1636729Y-4906960D02*
X1627205Y-4916484D01*
X1627205Y-4916484D02*
X1617682Y-4906960D01*
X1617682Y-4906960D02*
X1627205Y-4897436D01*
X1627205Y-4897436D02*
X1627205Y-4916484D01*
X1627205Y-4792674D02*
X1636729Y-4802198D01*
X1636729Y-4802198D02*
X1627205Y-4811722D01*
X1627205Y-4811722D02*
X1617682Y-4802198D01*
X1617682Y-4802198D02*
X1627205Y-4792674D01*
X1627205Y-4792674D02*
X1627205Y-4811722D01*
D10*
X-25000Y-5235000D02*
X-5000Y-5255000D01*
X-5000Y-5235000D02*
X-25000Y-5255000D01*
D11*
X293872Y-5136484D02*
X312920Y-5136484D01*
X312920Y-5136484D02*
X331967Y-5146008D01*
X331967Y-5146008D02*
X341491Y-5155531D01*
X341491Y-5155531D02*
X351015Y-5174579D01*
X351015Y-5174579D02*
X360539Y-5212674D01*
X360539Y-5212674D02*
X360539Y-5260293D01*
X360539Y-5260293D02*
X351015Y-5298389D01*
X351015Y-5298389D02*
X341491Y-5317436D01*
X341491Y-5317436D02*
X331967Y-5326960D01*
X331967Y-5326960D02*
X312920Y-5336484D01*
X312920Y-5336484D02*
X293872Y-5336484D01*
X293872Y-5336484D02*
X274824Y-5326960D01*
X274824Y-5326960D02*
X265301Y-5317436D01*
X265301Y-5317436D02*
X255777Y-5298389D01*
X255777Y-5298389D02*
X246253Y-5260293D01*
X246253Y-5260293D02*
X246253Y-5212674D01*
X246253Y-5212674D02*
X255777Y-5174579D01*
X255777Y-5174579D02*
X265301Y-5155531D01*
X265301Y-5155531D02*
X274824Y-5146008D01*
X274824Y-5146008D02*
X293872Y-5136484D01*
X446253Y-5317436D02*
X455777Y-5326960D01*
X455777Y-5326960D02*
X446253Y-5336484D01*
X446253Y-5336484D02*
X436729Y-5326960D01*
X436729Y-5326960D02*
X446253Y-5317436D01*
X446253Y-5317436D02*
X446253Y-5336484D01*
X531967Y-5155531D02*
X541491Y-5146008D01*
X541491Y-5146008D02*
X560539Y-5136484D01*
X560539Y-5136484D02*
X608158Y-5136484D01*
X608158Y-5136484D02*
X627205Y-5146008D01*
X627205Y-5146008D02*
X636729Y-5155531D01*
X636729Y-5155531D02*
X646253Y-5174579D01*
X646253Y-5174579D02*
X646253Y-5193627D01*
X646253Y-5193627D02*
X636729Y-5222198D01*
X636729Y-5222198D02*
X522443Y-5336484D01*
X522443Y-5336484D02*
X646253Y-5336484D01*
X770062Y-5136484D02*
X789110Y-5136484D01*
X789110Y-5136484D02*
X808158Y-5146008D01*
X808158Y-5146008D02*
X817682Y-5155531D01*
X817682Y-5155531D02*
X827205Y-5174579D01*
X827205Y-5174579D02*
X836729Y-5212674D01*
X836729Y-5212674D02*
X836729Y-5260293D01*
X836729Y-5260293D02*
X827205Y-5298389D01*
X827205Y-5298389D02*
X817682Y-5317436D01*
X817682Y-5317436D02*
X808158Y-5326960D01*
X808158Y-5326960D02*
X789110Y-5336484D01*
X789110Y-5336484D02*
X770062Y-5336484D01*
X770062Y-5336484D02*
X751015Y-5326960D01*
X751015Y-5326960D02*
X741491Y-5317436D01*
X741491Y-5317436D02*
X731967Y-5298389D01*
X731967Y-5298389D02*
X722443Y-5260293D01*
X722443Y-5260293D02*
X722443Y-5212674D01*
X722443Y-5212674D02*
X731967Y-5174579D01*
X731967Y-5174579D02*
X741491Y-5155531D01*
X741491Y-5155531D02*
X751015Y-5146008D01*
X751015Y-5146008D02*
X770062Y-5136484D01*
X960539Y-5136484D02*
X979586Y-5136484D01*
X979586Y-5136484D02*
X998634Y-5146008D01*
X998634Y-5146008D02*
X1008158Y-5155531D01*
X1008158Y-5155531D02*
X1017682Y-5174579D01*
X1017682Y-5174579D02*
X1027205Y-5212674D01*
X1027205Y-5212674D02*
X1027205Y-5260293D01*
X1027205Y-5260293D02*
X1017682Y-5298389D01*
X1017682Y-5298389D02*
X1008158Y-5317436D01*
X1008158Y-5317436D02*
X998634Y-5326960D01*
X998634Y-5326960D02*
X979586Y-5336484D01*
X979586Y-5336484D02*
X960539Y-5336484D01*
X960539Y-5336484D02*
X941491Y-5326960D01*
X941491Y-5326960D02*
X931967Y-5317436D01*
X931967Y-5317436D02*
X922443Y-5298389D01*
X922443Y-5298389D02*
X912920Y-5260293D01*
X912920Y-5260293D02*
X912920Y-5212674D01*
X912920Y-5212674D02*
X922443Y-5174579D01*
X922443Y-5174579D02*
X931967Y-5155531D01*
X931967Y-5155531D02*
X941491Y-5146008D01*
X941491Y-5146008D02*
X960539Y-5136484D01*
X1112920Y-5336484D02*
X1112920Y-5203150D01*
X1112920Y-5222198D02*
X1122444Y-5212674D01*
X1122444Y-5212674D02*
X1141491Y-5203150D01*
X1141491Y-5203150D02*
X1170063Y-5203150D01*
X1170063Y-5203150D02*
X1189110Y-5212674D01*
X1189110Y-5212674D02*
X1198634Y-5231722D01*
X1198634Y-5231722D02*
X1198634Y-5336484D01*
X1198634Y-5231722D02*
X1208158Y-5212674D01*
X1208158Y-5212674D02*
X1227205Y-5203150D01*
X1227205Y-5203150D02*
X1255777Y-5203150D01*
X1255777Y-5203150D02*
X1274825Y-5212674D01*
X1274825Y-5212674D02*
X1284348Y-5231722D01*
X1284348Y-5231722D02*
X1284348Y-5336484D01*
X1379586Y-5336484D02*
X1379586Y-5203150D01*
X1379586Y-5222198D02*
X1389110Y-5212674D01*
X1389110Y-5212674D02*
X1408158Y-5203150D01*
X1408158Y-5203150D02*
X1436729Y-5203150D01*
X1436729Y-5203150D02*
X1455777Y-5212674D01*
X1455777Y-5212674D02*
X1465301Y-5231722D01*
X1465301Y-5231722D02*
X1465301Y-5336484D01*
X1465301Y-5231722D02*
X1474824Y-5212674D01*
X1474824Y-5212674D02*
X1493872Y-5203150D01*
X1493872Y-5203150D02*
X1522443Y-5203150D01*
X1522443Y-5203150D02*
X1541491Y-5212674D01*
X1541491Y-5212674D02*
X1551015Y-5231722D01*
X1551015Y-5231722D02*
X1551015Y-5336484D01*
X1941491Y-5126960D02*
X1770063Y-5384103D01*
X2198634Y-5136484D02*
X2217682Y-5136484D01*
X2217682Y-5136484D02*
X2236729Y-5146008D01*
X2236729Y-5146008D02*
X2246253Y-5155531D01*
X2246253Y-5155531D02*
X2255777Y-5174579D01*
X2255777Y-5174579D02*
X2265301Y-5212674D01*
X2265301Y-5212674D02*
X2265301Y-5260293D01*
X2265301Y-5260293D02*
X2255777Y-5298389D01*
X2255777Y-5298389D02*
X2246253Y-5317436D01*
X2246253Y-5317436D02*
X2236729Y-5326960D01*
X2236729Y-5326960D02*
X2217682Y-5336484D01*
X2217682Y-5336484D02*
X2198634Y-5336484D01*
X2198634Y-5336484D02*
X2179587Y-5326960D01*
X2179587Y-5326960D02*
X2170063Y-5317436D01*
X2170063Y-5317436D02*
X2160539Y-5298389D01*
X2160539Y-5298389D02*
X2151015Y-5260293D01*
X2151015Y-5260293D02*
X2151015Y-5212674D01*
X2151015Y-5212674D02*
X2160539Y-5174579D01*
X2160539Y-5174579D02*
X2170063Y-5155531D01*
X2170063Y-5155531D02*
X2179587Y-5146008D01*
X2179587Y-5146008D02*
X2198634Y-5136484D01*
X2351015Y-5317436D02*
X2360539Y-5326960D01*
X2360539Y-5326960D02*
X2351015Y-5336484D01*
X2351015Y-5336484D02*
X2341491Y-5326960D01*
X2341491Y-5326960D02*
X2351015Y-5317436D01*
X2351015Y-5317436D02*
X2351015Y-5336484D01*
X2484348Y-5136484D02*
X2503396Y-5136484D01*
X2503396Y-5136484D02*
X2522444Y-5146008D01*
X2522444Y-5146008D02*
X2531968Y-5155531D01*
X2531968Y-5155531D02*
X2541491Y-5174579D01*
X2541491Y-5174579D02*
X2551015Y-5212674D01*
X2551015Y-5212674D02*
X2551015Y-5260293D01*
X2551015Y-5260293D02*
X2541491Y-5298389D01*
X2541491Y-5298389D02*
X2531968Y-5317436D01*
X2531968Y-5317436D02*
X2522444Y-5326960D01*
X2522444Y-5326960D02*
X2503396Y-5336484D01*
X2503396Y-5336484D02*
X2484348Y-5336484D01*
X2484348Y-5336484D02*
X2465301Y-5326960D01*
X2465301Y-5326960D02*
X2455777Y-5317436D01*
X2455777Y-5317436D02*
X2446253Y-5298389D01*
X2446253Y-5298389D02*
X2436729Y-5260293D01*
X2436729Y-5260293D02*
X2436729Y-5212674D01*
X2436729Y-5212674D02*
X2446253Y-5174579D01*
X2446253Y-5174579D02*
X2455777Y-5155531D01*
X2455777Y-5155531D02*
X2465301Y-5146008D01*
X2465301Y-5146008D02*
X2484348Y-5136484D01*
X2674825Y-5136484D02*
X2693872Y-5136484D01*
X2693872Y-5136484D02*
X2712920Y-5146008D01*
X2712920Y-5146008D02*
X2722444Y-5155531D01*
X2722444Y-5155531D02*
X2731968Y-5174579D01*
X2731968Y-5174579D02*
X2741491Y-5212674D01*
X2741491Y-5212674D02*
X2741491Y-5260293D01*
X2741491Y-5260293D02*
X2731968Y-5298389D01*
X2731968Y-5298389D02*
X2722444Y-5317436D01*
X2722444Y-5317436D02*
X2712920Y-5326960D01*
X2712920Y-5326960D02*
X2693872Y-5336484D01*
X2693872Y-5336484D02*
X2674825Y-5336484D01*
X2674825Y-5336484D02*
X2655777Y-5326960D01*
X2655777Y-5326960D02*
X2646253Y-5317436D01*
X2646253Y-5317436D02*
X2636729Y-5298389D01*
X2636729Y-5298389D02*
X2627206Y-5260293D01*
X2627206Y-5260293D02*
X2627206Y-5212674D01*
X2627206Y-5212674D02*
X2636729Y-5174579D01*
X2636729Y-5174579D02*
X2646253Y-5155531D01*
X2646253Y-5155531D02*
X2655777Y-5146008D01*
X2655777Y-5146008D02*
X2674825Y-5136484D01*
X2808158Y-5136484D02*
X2941491Y-5136484D01*
X2941491Y-5136484D02*
X2855777Y-5336484D01*
X3027206Y-5336484D02*
X3065301Y-5336484D01*
X3065301Y-5336484D02*
X3084348Y-5326960D01*
X3084348Y-5326960D02*
X3093872Y-5317436D01*
X3093872Y-5317436D02*
X3112920Y-5288865D01*
X3112920Y-5288865D02*
X3122444Y-5250770D01*
X3122444Y-5250770D02*
X3122444Y-5174579D01*
X3122444Y-5174579D02*
X3112920Y-5155531D01*
X3112920Y-5155531D02*
X3103396Y-5146008D01*
X3103396Y-5146008D02*
X3084348Y-5136484D01*
X3084348Y-5136484D02*
X3046253Y-5136484D01*
X3046253Y-5136484D02*
X3027206Y-5146008D01*
X3027206Y-5146008D02*
X3017682Y-5155531D01*
X3017682Y-5155531D02*
X3008158Y-5174579D01*
X3008158Y-5174579D02*
X3008158Y-5222198D01*
X3008158Y-5222198D02*
X3017682Y-5241246D01*
X3017682Y-5241246D02*
X3027206Y-5250770D01*
X3027206Y-5250770D02*
X3046253Y-5260293D01*
X3046253Y-5260293D02*
X3084348Y-5260293D01*
X3084348Y-5260293D02*
X3103396Y-5250770D01*
X3103396Y-5250770D02*
X3112920Y-5241246D01*
X3112920Y-5241246D02*
X3122444Y-5222198D01*
X3198634Y-5136484D02*
X3198634Y-5174579D01*
X3274825Y-5136484D02*
X3274825Y-5174579D01*
X3570063Y-5412674D02*
X3560539Y-5403150D01*
X3560539Y-5403150D02*
X3541491Y-5374579D01*
X3541491Y-5374579D02*
X3531968Y-5355531D01*
X3531968Y-5355531D02*
X3522444Y-5326960D01*
X3522444Y-5326960D02*
X3512920Y-5279341D01*
X3512920Y-5279341D02*
X3512920Y-5241246D01*
X3512920Y-5241246D02*
X3522444Y-5193627D01*
X3522444Y-5193627D02*
X3531968Y-5165055D01*
X3531968Y-5165055D02*
X3541491Y-5146008D01*
X3541491Y-5146008D02*
X3560539Y-5117436D01*
X3560539Y-5117436D02*
X3570063Y-5107912D01*
X3751015Y-5336484D02*
X3636729Y-5336484D01*
X3693872Y-5336484D02*
X3693872Y-5136484D01*
X3693872Y-5136484D02*
X3674825Y-5165055D01*
X3674825Y-5165055D02*
X3655777Y-5184103D01*
X3655777Y-5184103D02*
X3636729Y-5193627D01*
X3922444Y-5203150D02*
X3922444Y-5336484D01*
X3874825Y-5126960D02*
X3827206Y-5269817D01*
X3827206Y-5269817D02*
X3951015Y-5269817D01*
X4179587Y-5336484D02*
X4179587Y-5136484D01*
X4265301Y-5336484D02*
X4265301Y-5231722D01*
X4265301Y-5231722D02*
X4255777Y-5212674D01*
X4255777Y-5212674D02*
X4236730Y-5203150D01*
X4236730Y-5203150D02*
X4208158Y-5203150D01*
X4208158Y-5203150D02*
X4189110Y-5212674D01*
X4189110Y-5212674D02*
X4179587Y-5222198D01*
X4389111Y-5336484D02*
X4370063Y-5326960D01*
X4370063Y-5326960D02*
X4360539Y-5317436D01*
X4360539Y-5317436D02*
X4351015Y-5298389D01*
X4351015Y-5298389D02*
X4351015Y-5241246D01*
X4351015Y-5241246D02*
X4360539Y-5222198D01*
X4360539Y-5222198D02*
X4370063Y-5212674D01*
X4370063Y-5212674D02*
X4389111Y-5203150D01*
X4389111Y-5203150D02*
X4417682Y-5203150D01*
X4417682Y-5203150D02*
X4436730Y-5212674D01*
X4436730Y-5212674D02*
X4446253Y-5222198D01*
X4446253Y-5222198D02*
X4455777Y-5241246D01*
X4455777Y-5241246D02*
X4455777Y-5298389D01*
X4455777Y-5298389D02*
X4446253Y-5317436D01*
X4446253Y-5317436D02*
X4436730Y-5326960D01*
X4436730Y-5326960D02*
X4417682Y-5336484D01*
X4417682Y-5336484D02*
X4389111Y-5336484D01*
X4570063Y-5336484D02*
X4551015Y-5326960D01*
X4551015Y-5326960D02*
X4541492Y-5307912D01*
X4541492Y-5307912D02*
X4541492Y-5136484D01*
X4722444Y-5326960D02*
X4703396Y-5336484D01*
X4703396Y-5336484D02*
X4665301Y-5336484D01*
X4665301Y-5336484D02*
X4646253Y-5326960D01*
X4646253Y-5326960D02*
X4636730Y-5307912D01*
X4636730Y-5307912D02*
X4636730Y-5231722D01*
X4636730Y-5231722D02*
X4646253Y-5212674D01*
X4646253Y-5212674D02*
X4665301Y-5203150D01*
X4665301Y-5203150D02*
X4703396Y-5203150D01*
X4703396Y-5203150D02*
X4722444Y-5212674D01*
X4722444Y-5212674D02*
X4731968Y-5231722D01*
X4731968Y-5231722D02*
X4731968Y-5250770D01*
X4731968Y-5250770D02*
X4636730Y-5269817D01*
X4808158Y-5326960D02*
X4827206Y-5336484D01*
X4827206Y-5336484D02*
X4865301Y-5336484D01*
X4865301Y-5336484D02*
X4884349Y-5326960D01*
X4884349Y-5326960D02*
X4893873Y-5307912D01*
X4893873Y-5307912D02*
X4893873Y-5298389D01*
X4893873Y-5298389D02*
X4884349Y-5279341D01*
X4884349Y-5279341D02*
X4865301Y-5269817D01*
X4865301Y-5269817D02*
X4836730Y-5269817D01*
X4836730Y-5269817D02*
X4817682Y-5260293D01*
X4817682Y-5260293D02*
X4808158Y-5241246D01*
X4808158Y-5241246D02*
X4808158Y-5231722D01*
X4808158Y-5231722D02*
X4817682Y-5212674D01*
X4817682Y-5212674D02*
X4836730Y-5203150D01*
X4836730Y-5203150D02*
X4865301Y-5203150D01*
X4865301Y-5203150D02*
X4884349Y-5212674D01*
X4960539Y-5412674D02*
X4970063Y-5403150D01*
X4970063Y-5403150D02*
X4989111Y-5374579D01*
X4989111Y-5374579D02*
X4998634Y-5355531D01*
X4998634Y-5355531D02*
X5008158Y-5326960D01*
X5008158Y-5326960D02*
X5017682Y-5279341D01*
X5017682Y-5279341D02*
X5017682Y-5241246D01*
X5017682Y-5241246D02*
X5008158Y-5193627D01*
X5008158Y-5193627D02*
X4998634Y-5165055D01*
X4998634Y-5165055D02*
X4989111Y-5146008D01*
X4989111Y-5146008D02*
X4970063Y-5117436D01*
X4970063Y-5117436D02*
X4960539Y-5107912D01*
D10*
X-5000Y-5509000D02*
G75*
G02*
X-35000Y-5509000I-15000J0D01*
G01*
X-35000Y-5509000D02*
G75*
G02*
X-5000Y-5509000I15000J0D01*
G01*
D11*
X293872Y-5400484D02*
X312920Y-5400484D01*
X312920Y-5400484D02*
X331967Y-5410008D01*
X331967Y-5410008D02*
X341491Y-5419531D01*
X341491Y-5419531D02*
X351015Y-5438579D01*
X351015Y-5438579D02*
X360539Y-5476674D01*
X360539Y-5476674D02*
X360539Y-5524293D01*
X360539Y-5524293D02*
X351015Y-5562389D01*
X351015Y-5562389D02*
X341491Y-5581436D01*
X341491Y-5581436D02*
X331967Y-5590960D01*
X331967Y-5590960D02*
X312920Y-5600484D01*
X312920Y-5600484D02*
X293872Y-5600484D01*
X293872Y-5600484D02*
X274824Y-5590960D01*
X274824Y-5590960D02*
X265301Y-5581436D01*
X265301Y-5581436D02*
X255777Y-5562389D01*
X255777Y-5562389D02*
X246253Y-5524293D01*
X246253Y-5524293D02*
X246253Y-5476674D01*
X246253Y-5476674D02*
X255777Y-5438579D01*
X255777Y-5438579D02*
X265301Y-5419531D01*
X265301Y-5419531D02*
X274824Y-5410008D01*
X274824Y-5410008D02*
X293872Y-5400484D01*
X446253Y-5581436D02*
X455777Y-5590960D01*
X455777Y-5590960D02*
X446253Y-5600484D01*
X446253Y-5600484D02*
X436729Y-5590960D01*
X436729Y-5590960D02*
X446253Y-5581436D01*
X446253Y-5581436D02*
X446253Y-5600484D01*
X522443Y-5400484D02*
X646253Y-5400484D01*
X646253Y-5400484D02*
X579586Y-5476674D01*
X579586Y-5476674D02*
X608158Y-5476674D01*
X608158Y-5476674D02*
X627205Y-5486198D01*
X627205Y-5486198D02*
X636729Y-5495722D01*
X636729Y-5495722D02*
X646253Y-5514770D01*
X646253Y-5514770D02*
X646253Y-5562389D01*
X646253Y-5562389D02*
X636729Y-5581436D01*
X636729Y-5581436D02*
X627205Y-5590960D01*
X627205Y-5590960D02*
X608158Y-5600484D01*
X608158Y-5600484D02*
X551015Y-5600484D01*
X551015Y-5600484D02*
X531967Y-5590960D01*
X531967Y-5590960D02*
X522443Y-5581436D01*
X770062Y-5400484D02*
X789110Y-5400484D01*
X789110Y-5400484D02*
X808158Y-5410008D01*
X808158Y-5410008D02*
X817682Y-5419531D01*
X817682Y-5419531D02*
X827205Y-5438579D01*
X827205Y-5438579D02*
X836729Y-5476674D01*
X836729Y-5476674D02*
X836729Y-5524293D01*
X836729Y-5524293D02*
X827205Y-5562389D01*
X827205Y-5562389D02*
X817682Y-5581436D01*
X817682Y-5581436D02*
X808158Y-5590960D01*
X808158Y-5590960D02*
X789110Y-5600484D01*
X789110Y-5600484D02*
X770062Y-5600484D01*
X770062Y-5600484D02*
X751015Y-5590960D01*
X751015Y-5590960D02*
X741491Y-5581436D01*
X741491Y-5581436D02*
X731967Y-5562389D01*
X731967Y-5562389D02*
X722443Y-5524293D01*
X722443Y-5524293D02*
X722443Y-5476674D01*
X722443Y-5476674D02*
X731967Y-5438579D01*
X731967Y-5438579D02*
X741491Y-5419531D01*
X741491Y-5419531D02*
X751015Y-5410008D01*
X751015Y-5410008D02*
X770062Y-5400484D01*
X960539Y-5400484D02*
X979586Y-5400484D01*
X979586Y-5400484D02*
X998634Y-5410008D01*
X998634Y-5410008D02*
X1008158Y-5419531D01*
X1008158Y-5419531D02*
X1017682Y-5438579D01*
X1017682Y-5438579D02*
X1027205Y-5476674D01*
X1027205Y-5476674D02*
X1027205Y-5524293D01*
X1027205Y-5524293D02*
X1017682Y-5562389D01*
X1017682Y-5562389D02*
X1008158Y-5581436D01*
X1008158Y-5581436D02*
X998634Y-5590960D01*
X998634Y-5590960D02*
X979586Y-5600484D01*
X979586Y-5600484D02*
X960539Y-5600484D01*
X960539Y-5600484D02*
X941491Y-5590960D01*
X941491Y-5590960D02*
X931967Y-5581436D01*
X931967Y-5581436D02*
X922443Y-5562389D01*
X922443Y-5562389D02*
X912920Y-5524293D01*
X912920Y-5524293D02*
X912920Y-5476674D01*
X912920Y-5476674D02*
X922443Y-5438579D01*
X922443Y-5438579D02*
X931967Y-5419531D01*
X931967Y-5419531D02*
X941491Y-5410008D01*
X941491Y-5410008D02*
X960539Y-5400484D01*
X1112920Y-5600484D02*
X1112920Y-5467150D01*
X1112920Y-5486198D02*
X1122444Y-5476674D01*
X1122444Y-5476674D02*
X1141491Y-5467150D01*
X1141491Y-5467150D02*
X1170063Y-5467150D01*
X1170063Y-5467150D02*
X1189110Y-5476674D01*
X1189110Y-5476674D02*
X1198634Y-5495722D01*
X1198634Y-5495722D02*
X1198634Y-5600484D01*
X1198634Y-5495722D02*
X1208158Y-5476674D01*
X1208158Y-5476674D02*
X1227205Y-5467150D01*
X1227205Y-5467150D02*
X1255777Y-5467150D01*
X1255777Y-5467150D02*
X1274825Y-5476674D01*
X1274825Y-5476674D02*
X1284348Y-5495722D01*
X1284348Y-5495722D02*
X1284348Y-5600484D01*
X1379586Y-5600484D02*
X1379586Y-5467150D01*
X1379586Y-5486198D02*
X1389110Y-5476674D01*
X1389110Y-5476674D02*
X1408158Y-5467150D01*
X1408158Y-5467150D02*
X1436729Y-5467150D01*
X1436729Y-5467150D02*
X1455777Y-5476674D01*
X1455777Y-5476674D02*
X1465301Y-5495722D01*
X1465301Y-5495722D02*
X1465301Y-5600484D01*
X1465301Y-5495722D02*
X1474824Y-5476674D01*
X1474824Y-5476674D02*
X1493872Y-5467150D01*
X1493872Y-5467150D02*
X1522443Y-5467150D01*
X1522443Y-5467150D02*
X1541491Y-5476674D01*
X1541491Y-5476674D02*
X1551015Y-5495722D01*
X1551015Y-5495722D02*
X1551015Y-5600484D01*
X1941491Y-5390960D02*
X1770063Y-5648103D01*
X2198634Y-5400484D02*
X2217682Y-5400484D01*
X2217682Y-5400484D02*
X2236729Y-5410008D01*
X2236729Y-5410008D02*
X2246253Y-5419531D01*
X2246253Y-5419531D02*
X2255777Y-5438579D01*
X2255777Y-5438579D02*
X2265301Y-5476674D01*
X2265301Y-5476674D02*
X2265301Y-5524293D01*
X2265301Y-5524293D02*
X2255777Y-5562389D01*
X2255777Y-5562389D02*
X2246253Y-5581436D01*
X2246253Y-5581436D02*
X2236729Y-5590960D01*
X2236729Y-5590960D02*
X2217682Y-5600484D01*
X2217682Y-5600484D02*
X2198634Y-5600484D01*
X2198634Y-5600484D02*
X2179587Y-5590960D01*
X2179587Y-5590960D02*
X2170063Y-5581436D01*
X2170063Y-5581436D02*
X2160539Y-5562389D01*
X2160539Y-5562389D02*
X2151015Y-5524293D01*
X2151015Y-5524293D02*
X2151015Y-5476674D01*
X2151015Y-5476674D02*
X2160539Y-5438579D01*
X2160539Y-5438579D02*
X2170063Y-5419531D01*
X2170063Y-5419531D02*
X2179587Y-5410008D01*
X2179587Y-5410008D02*
X2198634Y-5400484D01*
X2351015Y-5581436D02*
X2360539Y-5590960D01*
X2360539Y-5590960D02*
X2351015Y-5600484D01*
X2351015Y-5600484D02*
X2341491Y-5590960D01*
X2341491Y-5590960D02*
X2351015Y-5581436D01*
X2351015Y-5581436D02*
X2351015Y-5600484D01*
X2484348Y-5400484D02*
X2503396Y-5400484D01*
X2503396Y-5400484D02*
X2522444Y-5410008D01*
X2522444Y-5410008D02*
X2531968Y-5419531D01*
X2531968Y-5419531D02*
X2541491Y-5438579D01*
X2541491Y-5438579D02*
X2551015Y-5476674D01*
X2551015Y-5476674D02*
X2551015Y-5524293D01*
X2551015Y-5524293D02*
X2541491Y-5562389D01*
X2541491Y-5562389D02*
X2531968Y-5581436D01*
X2531968Y-5581436D02*
X2522444Y-5590960D01*
X2522444Y-5590960D02*
X2503396Y-5600484D01*
X2503396Y-5600484D02*
X2484348Y-5600484D01*
X2484348Y-5600484D02*
X2465301Y-5590960D01*
X2465301Y-5590960D02*
X2455777Y-5581436D01*
X2455777Y-5581436D02*
X2446253Y-5562389D01*
X2446253Y-5562389D02*
X2436729Y-5524293D01*
X2436729Y-5524293D02*
X2436729Y-5476674D01*
X2436729Y-5476674D02*
X2446253Y-5438579D01*
X2446253Y-5438579D02*
X2455777Y-5419531D01*
X2455777Y-5419531D02*
X2465301Y-5410008D01*
X2465301Y-5410008D02*
X2484348Y-5400484D01*
X2741491Y-5600484D02*
X2627206Y-5600484D01*
X2684348Y-5600484D02*
X2684348Y-5400484D01*
X2684348Y-5400484D02*
X2665301Y-5429055D01*
X2665301Y-5429055D02*
X2646253Y-5448103D01*
X2646253Y-5448103D02*
X2627206Y-5457627D01*
X2931967Y-5600484D02*
X2817682Y-5600484D01*
X2874825Y-5600484D02*
X2874825Y-5400484D01*
X2874825Y-5400484D02*
X2855777Y-5429055D01*
X2855777Y-5429055D02*
X2836729Y-5448103D01*
X2836729Y-5448103D02*
X2817682Y-5457627D01*
X3046253Y-5486198D02*
X3027206Y-5476674D01*
X3027206Y-5476674D02*
X3017682Y-5467150D01*
X3017682Y-5467150D02*
X3008158Y-5448103D01*
X3008158Y-5448103D02*
X3008158Y-5438579D01*
X3008158Y-5438579D02*
X3017682Y-5419531D01*
X3017682Y-5419531D02*
X3027206Y-5410008D01*
X3027206Y-5410008D02*
X3046253Y-5400484D01*
X3046253Y-5400484D02*
X3084348Y-5400484D01*
X3084348Y-5400484D02*
X3103396Y-5410008D01*
X3103396Y-5410008D02*
X3112920Y-5419531D01*
X3112920Y-5419531D02*
X3122444Y-5438579D01*
X3122444Y-5438579D02*
X3122444Y-5448103D01*
X3122444Y-5448103D02*
X3112920Y-5467150D01*
X3112920Y-5467150D02*
X3103396Y-5476674D01*
X3103396Y-5476674D02*
X3084348Y-5486198D01*
X3084348Y-5486198D02*
X3046253Y-5486198D01*
X3046253Y-5486198D02*
X3027206Y-5495722D01*
X3027206Y-5495722D02*
X3017682Y-5505246D01*
X3017682Y-5505246D02*
X3008158Y-5524293D01*
X3008158Y-5524293D02*
X3008158Y-5562389D01*
X3008158Y-5562389D02*
X3017682Y-5581436D01*
X3017682Y-5581436D02*
X3027206Y-5590960D01*
X3027206Y-5590960D02*
X3046253Y-5600484D01*
X3046253Y-5600484D02*
X3084348Y-5600484D01*
X3084348Y-5600484D02*
X3103396Y-5590960D01*
X3103396Y-5590960D02*
X3112920Y-5581436D01*
X3112920Y-5581436D02*
X3122444Y-5562389D01*
X3122444Y-5562389D02*
X3122444Y-5524293D01*
X3122444Y-5524293D02*
X3112920Y-5505246D01*
X3112920Y-5505246D02*
X3103396Y-5495722D01*
X3103396Y-5495722D02*
X3084348Y-5486198D01*
X3198634Y-5400484D02*
X3198634Y-5438579D01*
X3274825Y-5400484D02*
X3274825Y-5438579D01*
X3570063Y-5676674D02*
X3560539Y-5667150D01*
X3560539Y-5667150D02*
X3541491Y-5638579D01*
X3541491Y-5638579D02*
X3531968Y-5619531D01*
X3531968Y-5619531D02*
X3522444Y-5590960D01*
X3522444Y-5590960D02*
X3512920Y-5543341D01*
X3512920Y-5543341D02*
X3512920Y-5505246D01*
X3512920Y-5505246D02*
X3522444Y-5457627D01*
X3522444Y-5457627D02*
X3531968Y-5429055D01*
X3531968Y-5429055D02*
X3541491Y-5410008D01*
X3541491Y-5410008D02*
X3560539Y-5381436D01*
X3560539Y-5381436D02*
X3570063Y-5371912D01*
X3751015Y-5600484D02*
X3636729Y-5600484D01*
X3693872Y-5600484D02*
X3693872Y-5400484D01*
X3693872Y-5400484D02*
X3674825Y-5429055D01*
X3674825Y-5429055D02*
X3655777Y-5448103D01*
X3655777Y-5448103D02*
X3636729Y-5457627D01*
X3922444Y-5467150D02*
X3922444Y-5600484D01*
X3874825Y-5390960D02*
X3827206Y-5533817D01*
X3827206Y-5533817D02*
X3951015Y-5533817D01*
X4036729Y-5600484D02*
X4074825Y-5600484D01*
X4074825Y-5600484D02*
X4093872Y-5590960D01*
X4093872Y-5590960D02*
X4103396Y-5581436D01*
X4103396Y-5581436D02*
X4122444Y-5552865D01*
X4122444Y-5552865D02*
X4131968Y-5514770D01*
X4131968Y-5514770D02*
X4131968Y-5438579D01*
X4131968Y-5438579D02*
X4122444Y-5419531D01*
X4122444Y-5419531D02*
X4112920Y-5410008D01*
X4112920Y-5410008D02*
X4093872Y-5400484D01*
X4093872Y-5400484D02*
X4055777Y-5400484D01*
X4055777Y-5400484D02*
X4036729Y-5410008D01*
X4036729Y-5410008D02*
X4027206Y-5419531D01*
X4027206Y-5419531D02*
X4017682Y-5438579D01*
X4017682Y-5438579D02*
X4017682Y-5486198D01*
X4017682Y-5486198D02*
X4027206Y-5505246D01*
X4027206Y-5505246D02*
X4036729Y-5514770D01*
X4036729Y-5514770D02*
X4055777Y-5524293D01*
X4055777Y-5524293D02*
X4093872Y-5524293D01*
X4093872Y-5524293D02*
X4112920Y-5514770D01*
X4112920Y-5514770D02*
X4122444Y-5505246D01*
X4122444Y-5505246D02*
X4131968Y-5486198D01*
X4370063Y-5600484D02*
X4370063Y-5400484D01*
X4455777Y-5600484D02*
X4455777Y-5495722D01*
X4455777Y-5495722D02*
X4446253Y-5476674D01*
X4446253Y-5476674D02*
X4427206Y-5467150D01*
X4427206Y-5467150D02*
X4398634Y-5467150D01*
X4398634Y-5467150D02*
X4379587Y-5476674D01*
X4379587Y-5476674D02*
X4370063Y-5486198D01*
X4579587Y-5600484D02*
X4560539Y-5590960D01*
X4560539Y-5590960D02*
X4551015Y-5581436D01*
X4551015Y-5581436D02*
X4541492Y-5562389D01*
X4541492Y-5562389D02*
X4541492Y-5505246D01*
X4541492Y-5505246D02*
X4551015Y-5486198D01*
X4551015Y-5486198D02*
X4560539Y-5476674D01*
X4560539Y-5476674D02*
X4579587Y-5467150D01*
X4579587Y-5467150D02*
X4608158Y-5467150D01*
X4608158Y-5467150D02*
X4627206Y-5476674D01*
X4627206Y-5476674D02*
X4636730Y-5486198D01*
X4636730Y-5486198D02*
X4646253Y-5505246D01*
X4646253Y-5505246D02*
X4646253Y-5562389D01*
X4646253Y-5562389D02*
X4636730Y-5581436D01*
X4636730Y-5581436D02*
X4627206Y-5590960D01*
X4627206Y-5590960D02*
X4608158Y-5600484D01*
X4608158Y-5600484D02*
X4579587Y-5600484D01*
X4760539Y-5600484D02*
X4741492Y-5590960D01*
X4741492Y-5590960D02*
X4731968Y-5571912D01*
X4731968Y-5571912D02*
X4731968Y-5400484D01*
X4912920Y-5590960D02*
X4893873Y-5600484D01*
X4893873Y-5600484D02*
X4855777Y-5600484D01*
X4855777Y-5600484D02*
X4836730Y-5590960D01*
X4836730Y-5590960D02*
X4827206Y-5571912D01*
X4827206Y-5571912D02*
X4827206Y-5495722D01*
X4827206Y-5495722D02*
X4836730Y-5476674D01*
X4836730Y-5476674D02*
X4855777Y-5467150D01*
X4855777Y-5467150D02*
X4893873Y-5467150D01*
X4893873Y-5467150D02*
X4912920Y-5476674D01*
X4912920Y-5476674D02*
X4922444Y-5495722D01*
X4922444Y-5495722D02*
X4922444Y-5514770D01*
X4922444Y-5514770D02*
X4827206Y-5533817D01*
X4998634Y-5590960D02*
X5017682Y-5600484D01*
X5017682Y-5600484D02*
X5055777Y-5600484D01*
X5055777Y-5600484D02*
X5074825Y-5590960D01*
X5074825Y-5590960D02*
X5084349Y-5571912D01*
X5084349Y-5571912D02*
X5084349Y-5562389D01*
X5084349Y-5562389D02*
X5074825Y-5543341D01*
X5074825Y-5543341D02*
X5055777Y-5533817D01*
X5055777Y-5533817D02*
X5027206Y-5533817D01*
X5027206Y-5533817D02*
X5008158Y-5524293D01*
X5008158Y-5524293D02*
X4998634Y-5505246D01*
X4998634Y-5505246D02*
X4998634Y-5495722D01*
X4998634Y-5495722D02*
X5008158Y-5476674D01*
X5008158Y-5476674D02*
X5027206Y-5467150D01*
X5027206Y-5467150D02*
X5055777Y-5467150D01*
X5055777Y-5467150D02*
X5074825Y-5476674D01*
X5151015Y-5676674D02*
X5160539Y-5667150D01*
X5160539Y-5667150D02*
X5179587Y-5638579D01*
X5179587Y-5638579D02*
X5189111Y-5619531D01*
X5189111Y-5619531D02*
X5198634Y-5590960D01*
X5198634Y-5590960D02*
X5208158Y-5543341D01*
X5208158Y-5543341D02*
X5208158Y-5505246D01*
X5208158Y-5505246D02*
X5198634Y-5457627D01*
X5198634Y-5457627D02*
X5189111Y-5429055D01*
X5189111Y-5429055D02*
X5179587Y-5410008D01*
X5179587Y-5410008D02*
X5160539Y-5381436D01*
X5160539Y-5381436D02*
X5151015Y-5371912D01*
D10*
X-25000Y-5753000D02*
X-25000Y-5793000D01*
X-45000Y-5773000D02*
X-5000Y-5773000D01*
D11*
X293872Y-5664484D02*
X312920Y-5664484D01*
X312920Y-5664484D02*
X331967Y-5674008D01*
X331967Y-5674008D02*
X341491Y-5683531D01*
X341491Y-5683531D02*
X351015Y-5702579D01*
X351015Y-5702579D02*
X360539Y-5740674D01*
X360539Y-5740674D02*
X360539Y-5788293D01*
X360539Y-5788293D02*
X351015Y-5826388D01*
X351015Y-5826388D02*
X341491Y-5845436D01*
X341491Y-5845436D02*
X331967Y-5854960D01*
X331967Y-5854960D02*
X312920Y-5864484D01*
X312920Y-5864484D02*
X293872Y-5864484D01*
X293872Y-5864484D02*
X274824Y-5854960D01*
X274824Y-5854960D02*
X265301Y-5845436D01*
X265301Y-5845436D02*
X255777Y-5826388D01*
X255777Y-5826388D02*
X246253Y-5788293D01*
X246253Y-5788293D02*
X246253Y-5740674D01*
X246253Y-5740674D02*
X255777Y-5702579D01*
X255777Y-5702579D02*
X265301Y-5683531D01*
X265301Y-5683531D02*
X274824Y-5674008D01*
X274824Y-5674008D02*
X293872Y-5664484D01*
X446253Y-5845436D02*
X455777Y-5854960D01*
X455777Y-5854960D02*
X446253Y-5864484D01*
X446253Y-5864484D02*
X436729Y-5854960D01*
X436729Y-5854960D02*
X446253Y-5845436D01*
X446253Y-5845436D02*
X446253Y-5864484D01*
X627205Y-5731150D02*
X627205Y-5864484D01*
X579586Y-5654960D02*
X531967Y-5797817D01*
X531967Y-5797817D02*
X655777Y-5797817D01*
X770062Y-5664484D02*
X789110Y-5664484D01*
X789110Y-5664484D02*
X808158Y-5674008D01*
X808158Y-5674008D02*
X817682Y-5683531D01*
X817682Y-5683531D02*
X827205Y-5702579D01*
X827205Y-5702579D02*
X836729Y-5740674D01*
X836729Y-5740674D02*
X836729Y-5788293D01*
X836729Y-5788293D02*
X827205Y-5826388D01*
X827205Y-5826388D02*
X817682Y-5845436D01*
X817682Y-5845436D02*
X808158Y-5854960D01*
X808158Y-5854960D02*
X789110Y-5864484D01*
X789110Y-5864484D02*
X770062Y-5864484D01*
X770062Y-5864484D02*
X751015Y-5854960D01*
X751015Y-5854960D02*
X741491Y-5845436D01*
X741491Y-5845436D02*
X731967Y-5826388D01*
X731967Y-5826388D02*
X722443Y-5788293D01*
X722443Y-5788293D02*
X722443Y-5740674D01*
X722443Y-5740674D02*
X731967Y-5702579D01*
X731967Y-5702579D02*
X741491Y-5683531D01*
X741491Y-5683531D02*
X751015Y-5674008D01*
X751015Y-5674008D02*
X770062Y-5664484D01*
X960539Y-5664484D02*
X979586Y-5664484D01*
X979586Y-5664484D02*
X998634Y-5674008D01*
X998634Y-5674008D02*
X1008158Y-5683531D01*
X1008158Y-5683531D02*
X1017682Y-5702579D01*
X1017682Y-5702579D02*
X1027205Y-5740674D01*
X1027205Y-5740674D02*
X1027205Y-5788293D01*
X1027205Y-5788293D02*
X1017682Y-5826388D01*
X1017682Y-5826388D02*
X1008158Y-5845436D01*
X1008158Y-5845436D02*
X998634Y-5854960D01*
X998634Y-5854960D02*
X979586Y-5864484D01*
X979586Y-5864484D02*
X960539Y-5864484D01*
X960539Y-5864484D02*
X941491Y-5854960D01*
X941491Y-5854960D02*
X931967Y-5845436D01*
X931967Y-5845436D02*
X922443Y-5826388D01*
X922443Y-5826388D02*
X912920Y-5788293D01*
X912920Y-5788293D02*
X912920Y-5740674D01*
X912920Y-5740674D02*
X922443Y-5702579D01*
X922443Y-5702579D02*
X931967Y-5683531D01*
X931967Y-5683531D02*
X941491Y-5674008D01*
X941491Y-5674008D02*
X960539Y-5664484D01*
X1112920Y-5864484D02*
X1112920Y-5731150D01*
X1112920Y-5750198D02*
X1122444Y-5740674D01*
X1122444Y-5740674D02*
X1141491Y-5731150D01*
X1141491Y-5731150D02*
X1170063Y-5731150D01*
X1170063Y-5731150D02*
X1189110Y-5740674D01*
X1189110Y-5740674D02*
X1198634Y-5759722D01*
X1198634Y-5759722D02*
X1198634Y-5864484D01*
X1198634Y-5759722D02*
X1208158Y-5740674D01*
X1208158Y-5740674D02*
X1227205Y-5731150D01*
X1227205Y-5731150D02*
X1255777Y-5731150D01*
X1255777Y-5731150D02*
X1274825Y-5740674D01*
X1274825Y-5740674D02*
X1284348Y-5759722D01*
X1284348Y-5759722D02*
X1284348Y-5864484D01*
X1379586Y-5864484D02*
X1379586Y-5731150D01*
X1379586Y-5750198D02*
X1389110Y-5740674D01*
X1389110Y-5740674D02*
X1408158Y-5731150D01*
X1408158Y-5731150D02*
X1436729Y-5731150D01*
X1436729Y-5731150D02*
X1455777Y-5740674D01*
X1455777Y-5740674D02*
X1465301Y-5759722D01*
X1465301Y-5759722D02*
X1465301Y-5864484D01*
X1465301Y-5759722D02*
X1474824Y-5740674D01*
X1474824Y-5740674D02*
X1493872Y-5731150D01*
X1493872Y-5731150D02*
X1522443Y-5731150D01*
X1522443Y-5731150D02*
X1541491Y-5740674D01*
X1541491Y-5740674D02*
X1551015Y-5759722D01*
X1551015Y-5759722D02*
X1551015Y-5864484D01*
X1941491Y-5654960D02*
X1770063Y-5912103D01*
X2198634Y-5664484D02*
X2217682Y-5664484D01*
X2217682Y-5664484D02*
X2236729Y-5674008D01*
X2236729Y-5674008D02*
X2246253Y-5683531D01*
X2246253Y-5683531D02*
X2255777Y-5702579D01*
X2255777Y-5702579D02*
X2265301Y-5740674D01*
X2265301Y-5740674D02*
X2265301Y-5788293D01*
X2265301Y-5788293D02*
X2255777Y-5826388D01*
X2255777Y-5826388D02*
X2246253Y-5845436D01*
X2246253Y-5845436D02*
X2236729Y-5854960D01*
X2236729Y-5854960D02*
X2217682Y-5864484D01*
X2217682Y-5864484D02*
X2198634Y-5864484D01*
X2198634Y-5864484D02*
X2179587Y-5854960D01*
X2179587Y-5854960D02*
X2170063Y-5845436D01*
X2170063Y-5845436D02*
X2160539Y-5826388D01*
X2160539Y-5826388D02*
X2151015Y-5788293D01*
X2151015Y-5788293D02*
X2151015Y-5740674D01*
X2151015Y-5740674D02*
X2160539Y-5702579D01*
X2160539Y-5702579D02*
X2170063Y-5683531D01*
X2170063Y-5683531D02*
X2179587Y-5674008D01*
X2179587Y-5674008D02*
X2198634Y-5664484D01*
X2351015Y-5845436D02*
X2360539Y-5854960D01*
X2360539Y-5854960D02*
X2351015Y-5864484D01*
X2351015Y-5864484D02*
X2341491Y-5854960D01*
X2341491Y-5854960D02*
X2351015Y-5845436D01*
X2351015Y-5845436D02*
X2351015Y-5864484D01*
X2484348Y-5664484D02*
X2503396Y-5664484D01*
X2503396Y-5664484D02*
X2522444Y-5674008D01*
X2522444Y-5674008D02*
X2531968Y-5683531D01*
X2531968Y-5683531D02*
X2541491Y-5702579D01*
X2541491Y-5702579D02*
X2551015Y-5740674D01*
X2551015Y-5740674D02*
X2551015Y-5788293D01*
X2551015Y-5788293D02*
X2541491Y-5826388D01*
X2541491Y-5826388D02*
X2531968Y-5845436D01*
X2531968Y-5845436D02*
X2522444Y-5854960D01*
X2522444Y-5854960D02*
X2503396Y-5864484D01*
X2503396Y-5864484D02*
X2484348Y-5864484D01*
X2484348Y-5864484D02*
X2465301Y-5854960D01*
X2465301Y-5854960D02*
X2455777Y-5845436D01*
X2455777Y-5845436D02*
X2446253Y-5826388D01*
X2446253Y-5826388D02*
X2436729Y-5788293D01*
X2436729Y-5788293D02*
X2436729Y-5740674D01*
X2436729Y-5740674D02*
X2446253Y-5702579D01*
X2446253Y-5702579D02*
X2455777Y-5683531D01*
X2455777Y-5683531D02*
X2465301Y-5674008D01*
X2465301Y-5674008D02*
X2484348Y-5664484D01*
X2741491Y-5864484D02*
X2627206Y-5864484D01*
X2684348Y-5864484D02*
X2684348Y-5664484D01*
X2684348Y-5664484D02*
X2665301Y-5693055D01*
X2665301Y-5693055D02*
X2646253Y-5712103D01*
X2646253Y-5712103D02*
X2627206Y-5721627D01*
X2922444Y-5664484D02*
X2827206Y-5664484D01*
X2827206Y-5664484D02*
X2817682Y-5759722D01*
X2817682Y-5759722D02*
X2827206Y-5750198D01*
X2827206Y-5750198D02*
X2846253Y-5740674D01*
X2846253Y-5740674D02*
X2893872Y-5740674D01*
X2893872Y-5740674D02*
X2912920Y-5750198D01*
X2912920Y-5750198D02*
X2922444Y-5759722D01*
X2922444Y-5759722D02*
X2931967Y-5778769D01*
X2931967Y-5778769D02*
X2931967Y-5826388D01*
X2931967Y-5826388D02*
X2922444Y-5845436D01*
X2922444Y-5845436D02*
X2912920Y-5854960D01*
X2912920Y-5854960D02*
X2893872Y-5864484D01*
X2893872Y-5864484D02*
X2846253Y-5864484D01*
X2846253Y-5864484D02*
X2827206Y-5854960D01*
X2827206Y-5854960D02*
X2817682Y-5845436D01*
X2998634Y-5664484D02*
X3131967Y-5664484D01*
X3131967Y-5664484D02*
X3046253Y-5864484D01*
X3198634Y-5664484D02*
X3198634Y-5702579D01*
X3274825Y-5664484D02*
X3274825Y-5702579D01*
X3570063Y-5940674D02*
X3560539Y-5931150D01*
X3560539Y-5931150D02*
X3541491Y-5902579D01*
X3541491Y-5902579D02*
X3531968Y-5883531D01*
X3531968Y-5883531D02*
X3522444Y-5854960D01*
X3522444Y-5854960D02*
X3512920Y-5807341D01*
X3512920Y-5807341D02*
X3512920Y-5769246D01*
X3512920Y-5769246D02*
X3522444Y-5721627D01*
X3522444Y-5721627D02*
X3531968Y-5693055D01*
X3531968Y-5693055D02*
X3541491Y-5674008D01*
X3541491Y-5674008D02*
X3560539Y-5645436D01*
X3560539Y-5645436D02*
X3570063Y-5635912D01*
X3636729Y-5683531D02*
X3646253Y-5674008D01*
X3646253Y-5674008D02*
X3665301Y-5664484D01*
X3665301Y-5664484D02*
X3712920Y-5664484D01*
X3712920Y-5664484D02*
X3731968Y-5674008D01*
X3731968Y-5674008D02*
X3741491Y-5683531D01*
X3741491Y-5683531D02*
X3751015Y-5702579D01*
X3751015Y-5702579D02*
X3751015Y-5721627D01*
X3751015Y-5721627D02*
X3741491Y-5750198D01*
X3741491Y-5750198D02*
X3627206Y-5864484D01*
X3627206Y-5864484D02*
X3751015Y-5864484D01*
X3817682Y-5664484D02*
X3941491Y-5664484D01*
X3941491Y-5664484D02*
X3874825Y-5740674D01*
X3874825Y-5740674D02*
X3903396Y-5740674D01*
X3903396Y-5740674D02*
X3922444Y-5750198D01*
X3922444Y-5750198D02*
X3931968Y-5759722D01*
X3931968Y-5759722D02*
X3941491Y-5778769D01*
X3941491Y-5778769D02*
X3941491Y-5826388D01*
X3941491Y-5826388D02*
X3931968Y-5845436D01*
X3931968Y-5845436D02*
X3922444Y-5854960D01*
X3922444Y-5854960D02*
X3903396Y-5864484D01*
X3903396Y-5864484D02*
X3846253Y-5864484D01*
X3846253Y-5864484D02*
X3827206Y-5854960D01*
X3827206Y-5854960D02*
X3817682Y-5845436D01*
X4179587Y-5864484D02*
X4179587Y-5664484D01*
X4265301Y-5864484D02*
X4265301Y-5759722D01*
X4265301Y-5759722D02*
X4255777Y-5740674D01*
X4255777Y-5740674D02*
X4236730Y-5731150D01*
X4236730Y-5731150D02*
X4208158Y-5731150D01*
X4208158Y-5731150D02*
X4189110Y-5740674D01*
X4189110Y-5740674D02*
X4179587Y-5750198D01*
X4389111Y-5864484D02*
X4370063Y-5854960D01*
X4370063Y-5854960D02*
X4360539Y-5845436D01*
X4360539Y-5845436D02*
X4351015Y-5826388D01*
X4351015Y-5826388D02*
X4351015Y-5769246D01*
X4351015Y-5769246D02*
X4360539Y-5750198D01*
X4360539Y-5750198D02*
X4370063Y-5740674D01*
X4370063Y-5740674D02*
X4389111Y-5731150D01*
X4389111Y-5731150D02*
X4417682Y-5731150D01*
X4417682Y-5731150D02*
X4436730Y-5740674D01*
X4436730Y-5740674D02*
X4446253Y-5750198D01*
X4446253Y-5750198D02*
X4455777Y-5769246D01*
X4455777Y-5769246D02*
X4455777Y-5826388D01*
X4455777Y-5826388D02*
X4446253Y-5845436D01*
X4446253Y-5845436D02*
X4436730Y-5854960D01*
X4436730Y-5854960D02*
X4417682Y-5864484D01*
X4417682Y-5864484D02*
X4389111Y-5864484D01*
X4570063Y-5864484D02*
X4551015Y-5854960D01*
X4551015Y-5854960D02*
X4541492Y-5835912D01*
X4541492Y-5835912D02*
X4541492Y-5664484D01*
X4722444Y-5854960D02*
X4703396Y-5864484D01*
X4703396Y-5864484D02*
X4665301Y-5864484D01*
X4665301Y-5864484D02*
X4646253Y-5854960D01*
X4646253Y-5854960D02*
X4636730Y-5835912D01*
X4636730Y-5835912D02*
X4636730Y-5759722D01*
X4636730Y-5759722D02*
X4646253Y-5740674D01*
X4646253Y-5740674D02*
X4665301Y-5731150D01*
X4665301Y-5731150D02*
X4703396Y-5731150D01*
X4703396Y-5731150D02*
X4722444Y-5740674D01*
X4722444Y-5740674D02*
X4731968Y-5759722D01*
X4731968Y-5759722D02*
X4731968Y-5778769D01*
X4731968Y-5778769D02*
X4636730Y-5797817D01*
X4808158Y-5854960D02*
X4827206Y-5864484D01*
X4827206Y-5864484D02*
X4865301Y-5864484D01*
X4865301Y-5864484D02*
X4884349Y-5854960D01*
X4884349Y-5854960D02*
X4893873Y-5835912D01*
X4893873Y-5835912D02*
X4893873Y-5826388D01*
X4893873Y-5826388D02*
X4884349Y-5807341D01*
X4884349Y-5807341D02*
X4865301Y-5797817D01*
X4865301Y-5797817D02*
X4836730Y-5797817D01*
X4836730Y-5797817D02*
X4817682Y-5788293D01*
X4817682Y-5788293D02*
X4808158Y-5769246D01*
X4808158Y-5769246D02*
X4808158Y-5759722D01*
X4808158Y-5759722D02*
X4817682Y-5740674D01*
X4817682Y-5740674D02*
X4836730Y-5731150D01*
X4836730Y-5731150D02*
X4865301Y-5731150D01*
X4865301Y-5731150D02*
X4884349Y-5740674D01*
X4960539Y-5940674D02*
X4970063Y-5931150D01*
X4970063Y-5931150D02*
X4989111Y-5902579D01*
X4989111Y-5902579D02*
X4998634Y-5883531D01*
X4998634Y-5883531D02*
X5008158Y-5854960D01*
X5008158Y-5854960D02*
X5017682Y-5807341D01*
X5017682Y-5807341D02*
X5017682Y-5769246D01*
X5017682Y-5769246D02*
X5008158Y-5721627D01*
X5008158Y-5721627D02*
X4998634Y-5693055D01*
X4998634Y-5693055D02*
X4989111Y-5674008D01*
X4989111Y-5674008D02*
X4970063Y-5645436D01*
X4970063Y-5645436D02*
X4960539Y-5635912D01*
D10*
X-13787Y-6058213D02*
X-13787Y-6015787D01*
X-56213Y-6015787D01*
X-56213Y-6058213D01*
X-13787Y-6058213D01*
D11*
X293872Y-5928484D02*
X312920Y-5928484D01*
X312920Y-5928484D02*
X331967Y-5938008D01*
X331967Y-5938008D02*
X341491Y-5947531D01*
X341491Y-5947531D02*
X351015Y-5966579D01*
X351015Y-5966579D02*
X360539Y-6004674D01*
X360539Y-6004674D02*
X360539Y-6052293D01*
X360539Y-6052293D02*
X351015Y-6090388D01*
X351015Y-6090388D02*
X341491Y-6109436D01*
X341491Y-6109436D02*
X331967Y-6118960D01*
X331967Y-6118960D02*
X312920Y-6128484D01*
X312920Y-6128484D02*
X293872Y-6128484D01*
X293872Y-6128484D02*
X274824Y-6118960D01*
X274824Y-6118960D02*
X265301Y-6109436D01*
X265301Y-6109436D02*
X255777Y-6090388D01*
X255777Y-6090388D02*
X246253Y-6052293D01*
X246253Y-6052293D02*
X246253Y-6004674D01*
X246253Y-6004674D02*
X255777Y-5966579D01*
X255777Y-5966579D02*
X265301Y-5947531D01*
X265301Y-5947531D02*
X274824Y-5938008D01*
X274824Y-5938008D02*
X293872Y-5928484D01*
X446253Y-6109436D02*
X455777Y-6118960D01*
X455777Y-6118960D02*
X446253Y-6128484D01*
X446253Y-6128484D02*
X436729Y-6118960D01*
X436729Y-6118960D02*
X446253Y-6109436D01*
X446253Y-6109436D02*
X446253Y-6128484D01*
X627205Y-5928484D02*
X589110Y-5928484D01*
X589110Y-5928484D02*
X570063Y-5938008D01*
X570063Y-5938008D02*
X560539Y-5947531D01*
X560539Y-5947531D02*
X541491Y-5976103D01*
X541491Y-5976103D02*
X531967Y-6014198D01*
X531967Y-6014198D02*
X531967Y-6090388D01*
X531967Y-6090388D02*
X541491Y-6109436D01*
X541491Y-6109436D02*
X551015Y-6118960D01*
X551015Y-6118960D02*
X570063Y-6128484D01*
X570063Y-6128484D02*
X608158Y-6128484D01*
X608158Y-6128484D02*
X627205Y-6118960D01*
X627205Y-6118960D02*
X636729Y-6109436D01*
X636729Y-6109436D02*
X646253Y-6090388D01*
X646253Y-6090388D02*
X646253Y-6042769D01*
X646253Y-6042769D02*
X636729Y-6023722D01*
X636729Y-6023722D02*
X627205Y-6014198D01*
X627205Y-6014198D02*
X608158Y-6004674D01*
X608158Y-6004674D02*
X570063Y-6004674D01*
X570063Y-6004674D02*
X551015Y-6014198D01*
X551015Y-6014198D02*
X541491Y-6023722D01*
X541491Y-6023722D02*
X531967Y-6042769D01*
X770062Y-5928484D02*
X789110Y-5928484D01*
X789110Y-5928484D02*
X808158Y-5938008D01*
X808158Y-5938008D02*
X817682Y-5947531D01*
X817682Y-5947531D02*
X827205Y-5966579D01*
X827205Y-5966579D02*
X836729Y-6004674D01*
X836729Y-6004674D02*
X836729Y-6052293D01*
X836729Y-6052293D02*
X827205Y-6090388D01*
X827205Y-6090388D02*
X817682Y-6109436D01*
X817682Y-6109436D02*
X808158Y-6118960D01*
X808158Y-6118960D02*
X789110Y-6128484D01*
X789110Y-6128484D02*
X770062Y-6128484D01*
X770062Y-6128484D02*
X751015Y-6118960D01*
X751015Y-6118960D02*
X741491Y-6109436D01*
X741491Y-6109436D02*
X731967Y-6090388D01*
X731967Y-6090388D02*
X722443Y-6052293D01*
X722443Y-6052293D02*
X722443Y-6004674D01*
X722443Y-6004674D02*
X731967Y-5966579D01*
X731967Y-5966579D02*
X741491Y-5947531D01*
X741491Y-5947531D02*
X751015Y-5938008D01*
X751015Y-5938008D02*
X770062Y-5928484D01*
X960539Y-5928484D02*
X979586Y-5928484D01*
X979586Y-5928484D02*
X998634Y-5938008D01*
X998634Y-5938008D02*
X1008158Y-5947531D01*
X1008158Y-5947531D02*
X1017682Y-5966579D01*
X1017682Y-5966579D02*
X1027205Y-6004674D01*
X1027205Y-6004674D02*
X1027205Y-6052293D01*
X1027205Y-6052293D02*
X1017682Y-6090388D01*
X1017682Y-6090388D02*
X1008158Y-6109436D01*
X1008158Y-6109436D02*
X998634Y-6118960D01*
X998634Y-6118960D02*
X979586Y-6128484D01*
X979586Y-6128484D02*
X960539Y-6128484D01*
X960539Y-6128484D02*
X941491Y-6118960D01*
X941491Y-6118960D02*
X931967Y-6109436D01*
X931967Y-6109436D02*
X922443Y-6090388D01*
X922443Y-6090388D02*
X912920Y-6052293D01*
X912920Y-6052293D02*
X912920Y-6004674D01*
X912920Y-6004674D02*
X922443Y-5966579D01*
X922443Y-5966579D02*
X931967Y-5947531D01*
X931967Y-5947531D02*
X941491Y-5938008D01*
X941491Y-5938008D02*
X960539Y-5928484D01*
X1112920Y-6128484D02*
X1112920Y-5995150D01*
X1112920Y-6014198D02*
X1122444Y-6004674D01*
X1122444Y-6004674D02*
X1141491Y-5995150D01*
X1141491Y-5995150D02*
X1170063Y-5995150D01*
X1170063Y-5995150D02*
X1189110Y-6004674D01*
X1189110Y-6004674D02*
X1198634Y-6023722D01*
X1198634Y-6023722D02*
X1198634Y-6128484D01*
X1198634Y-6023722D02*
X1208158Y-6004674D01*
X1208158Y-6004674D02*
X1227205Y-5995150D01*
X1227205Y-5995150D02*
X1255777Y-5995150D01*
X1255777Y-5995150D02*
X1274825Y-6004674D01*
X1274825Y-6004674D02*
X1284348Y-6023722D01*
X1284348Y-6023722D02*
X1284348Y-6128484D01*
X1379586Y-6128484D02*
X1379586Y-5995150D01*
X1379586Y-6014198D02*
X1389110Y-6004674D01*
X1389110Y-6004674D02*
X1408158Y-5995150D01*
X1408158Y-5995150D02*
X1436729Y-5995150D01*
X1436729Y-5995150D02*
X1455777Y-6004674D01*
X1455777Y-6004674D02*
X1465301Y-6023722D01*
X1465301Y-6023722D02*
X1465301Y-6128484D01*
X1465301Y-6023722D02*
X1474824Y-6004674D01*
X1474824Y-6004674D02*
X1493872Y-5995150D01*
X1493872Y-5995150D02*
X1522443Y-5995150D01*
X1522443Y-5995150D02*
X1541491Y-6004674D01*
X1541491Y-6004674D02*
X1551015Y-6023722D01*
X1551015Y-6023722D02*
X1551015Y-6128484D01*
X1941491Y-5918960D02*
X1770063Y-6176103D01*
X2198634Y-5928484D02*
X2217682Y-5928484D01*
X2217682Y-5928484D02*
X2236729Y-5938008D01*
X2236729Y-5938008D02*
X2246253Y-5947531D01*
X2246253Y-5947531D02*
X2255777Y-5966579D01*
X2255777Y-5966579D02*
X2265301Y-6004674D01*
X2265301Y-6004674D02*
X2265301Y-6052293D01*
X2265301Y-6052293D02*
X2255777Y-6090388D01*
X2255777Y-6090388D02*
X2246253Y-6109436D01*
X2246253Y-6109436D02*
X2236729Y-6118960D01*
X2236729Y-6118960D02*
X2217682Y-6128484D01*
X2217682Y-6128484D02*
X2198634Y-6128484D01*
X2198634Y-6128484D02*
X2179587Y-6118960D01*
X2179587Y-6118960D02*
X2170063Y-6109436D01*
X2170063Y-6109436D02*
X2160539Y-6090388D01*
X2160539Y-6090388D02*
X2151015Y-6052293D01*
X2151015Y-6052293D02*
X2151015Y-6004674D01*
X2151015Y-6004674D02*
X2160539Y-5966579D01*
X2160539Y-5966579D02*
X2170063Y-5947531D01*
X2170063Y-5947531D02*
X2179587Y-5938008D01*
X2179587Y-5938008D02*
X2198634Y-5928484D01*
X2351015Y-6109436D02*
X2360539Y-6118960D01*
X2360539Y-6118960D02*
X2351015Y-6128484D01*
X2351015Y-6128484D02*
X2341491Y-6118960D01*
X2341491Y-6118960D02*
X2351015Y-6109436D01*
X2351015Y-6109436D02*
X2351015Y-6128484D01*
X2484348Y-5928484D02*
X2503396Y-5928484D01*
X2503396Y-5928484D02*
X2522444Y-5938008D01*
X2522444Y-5938008D02*
X2531968Y-5947531D01*
X2531968Y-5947531D02*
X2541491Y-5966579D01*
X2541491Y-5966579D02*
X2551015Y-6004674D01*
X2551015Y-6004674D02*
X2551015Y-6052293D01*
X2551015Y-6052293D02*
X2541491Y-6090388D01*
X2541491Y-6090388D02*
X2531968Y-6109436D01*
X2531968Y-6109436D02*
X2522444Y-6118960D01*
X2522444Y-6118960D02*
X2503396Y-6128484D01*
X2503396Y-6128484D02*
X2484348Y-6128484D01*
X2484348Y-6128484D02*
X2465301Y-6118960D01*
X2465301Y-6118960D02*
X2455777Y-6109436D01*
X2455777Y-6109436D02*
X2446253Y-6090388D01*
X2446253Y-6090388D02*
X2436729Y-6052293D01*
X2436729Y-6052293D02*
X2436729Y-6004674D01*
X2436729Y-6004674D02*
X2446253Y-5966579D01*
X2446253Y-5966579D02*
X2455777Y-5947531D01*
X2455777Y-5947531D02*
X2465301Y-5938008D01*
X2465301Y-5938008D02*
X2484348Y-5928484D01*
X2627206Y-5947531D02*
X2636729Y-5938008D01*
X2636729Y-5938008D02*
X2655777Y-5928484D01*
X2655777Y-5928484D02*
X2703396Y-5928484D01*
X2703396Y-5928484D02*
X2722444Y-5938008D01*
X2722444Y-5938008D02*
X2731968Y-5947531D01*
X2731968Y-5947531D02*
X2741491Y-5966579D01*
X2741491Y-5966579D02*
X2741491Y-5985627D01*
X2741491Y-5985627D02*
X2731968Y-6014198D01*
X2731968Y-6014198D02*
X2617682Y-6128484D01*
X2617682Y-6128484D02*
X2741491Y-6128484D01*
X2808158Y-5928484D02*
X2931967Y-5928484D01*
X2931967Y-5928484D02*
X2865301Y-6004674D01*
X2865301Y-6004674D02*
X2893872Y-6004674D01*
X2893872Y-6004674D02*
X2912920Y-6014198D01*
X2912920Y-6014198D02*
X2922444Y-6023722D01*
X2922444Y-6023722D02*
X2931967Y-6042769D01*
X2931967Y-6042769D02*
X2931967Y-6090388D01*
X2931967Y-6090388D02*
X2922444Y-6109436D01*
X2922444Y-6109436D02*
X2912920Y-6118960D01*
X2912920Y-6118960D02*
X2893872Y-6128484D01*
X2893872Y-6128484D02*
X2836729Y-6128484D01*
X2836729Y-6128484D02*
X2817682Y-6118960D01*
X2817682Y-6118960D02*
X2808158Y-6109436D01*
X3103396Y-5928484D02*
X3065301Y-5928484D01*
X3065301Y-5928484D02*
X3046253Y-5938008D01*
X3046253Y-5938008D02*
X3036729Y-5947531D01*
X3036729Y-5947531D02*
X3017682Y-5976103D01*
X3017682Y-5976103D02*
X3008158Y-6014198D01*
X3008158Y-6014198D02*
X3008158Y-6090388D01*
X3008158Y-6090388D02*
X3017682Y-6109436D01*
X3017682Y-6109436D02*
X3027206Y-6118960D01*
X3027206Y-6118960D02*
X3046253Y-6128484D01*
X3046253Y-6128484D02*
X3084348Y-6128484D01*
X3084348Y-6128484D02*
X3103396Y-6118960D01*
X3103396Y-6118960D02*
X3112920Y-6109436D01*
X3112920Y-6109436D02*
X3122444Y-6090388D01*
X3122444Y-6090388D02*
X3122444Y-6042769D01*
X3122444Y-6042769D02*
X3112920Y-6023722D01*
X3112920Y-6023722D02*
X3103396Y-6014198D01*
X3103396Y-6014198D02*
X3084348Y-6004674D01*
X3084348Y-6004674D02*
X3046253Y-6004674D01*
X3046253Y-6004674D02*
X3027206Y-6014198D01*
X3027206Y-6014198D02*
X3017682Y-6023722D01*
X3017682Y-6023722D02*
X3008158Y-6042769D01*
X3198634Y-5928484D02*
X3198634Y-5966579D01*
X3274825Y-5928484D02*
X3274825Y-5966579D01*
X3570063Y-6204674D02*
X3560539Y-6195150D01*
X3560539Y-6195150D02*
X3541491Y-6166579D01*
X3541491Y-6166579D02*
X3531968Y-6147531D01*
X3531968Y-6147531D02*
X3522444Y-6118960D01*
X3522444Y-6118960D02*
X3512920Y-6071341D01*
X3512920Y-6071341D02*
X3512920Y-6033246D01*
X3512920Y-6033246D02*
X3522444Y-5985627D01*
X3522444Y-5985627D02*
X3531968Y-5957055D01*
X3531968Y-5957055D02*
X3541491Y-5938008D01*
X3541491Y-5938008D02*
X3560539Y-5909436D01*
X3560539Y-5909436D02*
X3570063Y-5899912D01*
X3684348Y-5928484D02*
X3703396Y-5928484D01*
X3703396Y-5928484D02*
X3722444Y-5938008D01*
X3722444Y-5938008D02*
X3731968Y-5947531D01*
X3731968Y-5947531D02*
X3741491Y-5966579D01*
X3741491Y-5966579D02*
X3751015Y-6004674D01*
X3751015Y-6004674D02*
X3751015Y-6052293D01*
X3751015Y-6052293D02*
X3741491Y-6090388D01*
X3741491Y-6090388D02*
X3731968Y-6109436D01*
X3731968Y-6109436D02*
X3722444Y-6118960D01*
X3722444Y-6118960D02*
X3703396Y-6128484D01*
X3703396Y-6128484D02*
X3684348Y-6128484D01*
X3684348Y-6128484D02*
X3665301Y-6118960D01*
X3665301Y-6118960D02*
X3655777Y-6109436D01*
X3655777Y-6109436D02*
X3646253Y-6090388D01*
X3646253Y-6090388D02*
X3636729Y-6052293D01*
X3636729Y-6052293D02*
X3636729Y-6004674D01*
X3636729Y-6004674D02*
X3646253Y-5966579D01*
X3646253Y-5966579D02*
X3655777Y-5947531D01*
X3655777Y-5947531D02*
X3665301Y-5938008D01*
X3665301Y-5938008D02*
X3684348Y-5928484D01*
X3989110Y-6128484D02*
X3989110Y-5928484D01*
X4074825Y-6128484D02*
X4074825Y-6023722D01*
X4074825Y-6023722D02*
X4065301Y-6004674D01*
X4065301Y-6004674D02*
X4046253Y-5995150D01*
X4046253Y-5995150D02*
X4017682Y-5995150D01*
X4017682Y-5995150D02*
X3998634Y-6004674D01*
X3998634Y-6004674D02*
X3989110Y-6014198D01*
X4198634Y-6128484D02*
X4179587Y-6118960D01*
X4179587Y-6118960D02*
X4170063Y-6109436D01*
X4170063Y-6109436D02*
X4160539Y-6090388D01*
X4160539Y-6090388D02*
X4160539Y-6033246D01*
X4160539Y-6033246D02*
X4170063Y-6014198D01*
X4170063Y-6014198D02*
X4179587Y-6004674D01*
X4179587Y-6004674D02*
X4198634Y-5995150D01*
X4198634Y-5995150D02*
X4227206Y-5995150D01*
X4227206Y-5995150D02*
X4246253Y-6004674D01*
X4246253Y-6004674D02*
X4255777Y-6014198D01*
X4255777Y-6014198D02*
X4265301Y-6033246D01*
X4265301Y-6033246D02*
X4265301Y-6090388D01*
X4265301Y-6090388D02*
X4255777Y-6109436D01*
X4255777Y-6109436D02*
X4246253Y-6118960D01*
X4246253Y-6118960D02*
X4227206Y-6128484D01*
X4227206Y-6128484D02*
X4198634Y-6128484D01*
X4379587Y-6128484D02*
X4360539Y-6118960D01*
X4360539Y-6118960D02*
X4351015Y-6099912D01*
X4351015Y-6099912D02*
X4351015Y-5928484D01*
X4531968Y-6118960D02*
X4512920Y-6128484D01*
X4512920Y-6128484D02*
X4474825Y-6128484D01*
X4474825Y-6128484D02*
X4455777Y-6118960D01*
X4455777Y-6118960D02*
X4446253Y-6099912D01*
X4446253Y-6099912D02*
X4446253Y-6023722D01*
X4446253Y-6023722D02*
X4455777Y-6004674D01*
X4455777Y-6004674D02*
X4474825Y-5995150D01*
X4474825Y-5995150D02*
X4512920Y-5995150D01*
X4512920Y-5995150D02*
X4531968Y-6004674D01*
X4531968Y-6004674D02*
X4541492Y-6023722D01*
X4541492Y-6023722D02*
X4541492Y-6042769D01*
X4541492Y-6042769D02*
X4446253Y-6061817D01*
X4617682Y-6118960D02*
X4636730Y-6128484D01*
X4636730Y-6128484D02*
X4674825Y-6128484D01*
X4674825Y-6128484D02*
X4693873Y-6118960D01*
X4693873Y-6118960D02*
X4703396Y-6099912D01*
X4703396Y-6099912D02*
X4703396Y-6090388D01*
X4703396Y-6090388D02*
X4693873Y-6071341D01*
X4693873Y-6071341D02*
X4674825Y-6061817D01*
X4674825Y-6061817D02*
X4646253Y-6061817D01*
X4646253Y-6061817D02*
X4627206Y-6052293D01*
X4627206Y-6052293D02*
X4617682Y-6033246D01*
X4617682Y-6033246D02*
X4617682Y-6023722D01*
X4617682Y-6023722D02*
X4627206Y-6004674D01*
X4627206Y-6004674D02*
X4646253Y-5995150D01*
X4646253Y-5995150D02*
X4674825Y-5995150D01*
X4674825Y-5995150D02*
X4693873Y-6004674D01*
X4941492Y-6052293D02*
X5093873Y-6052293D01*
X5017682Y-6128484D02*
X5017682Y-5976103D01*
X5427206Y-5995150D02*
X5427206Y-6128484D01*
X5379587Y-5918960D02*
X5331968Y-6061817D01*
X5331968Y-6061817D02*
X5455777Y-6061817D01*
X5674825Y-6118960D02*
X5693873Y-6128484D01*
X5693873Y-6128484D02*
X5731968Y-6128484D01*
X5731968Y-6128484D02*
X5751015Y-6118960D01*
X5751015Y-6118960D02*
X5760539Y-6099912D01*
X5760539Y-6099912D02*
X5760539Y-6090388D01*
X5760539Y-6090388D02*
X5751015Y-6071341D01*
X5751015Y-6071341D02*
X5731968Y-6061817D01*
X5731968Y-6061817D02*
X5703396Y-6061817D01*
X5703396Y-6061817D02*
X5684349Y-6052293D01*
X5684349Y-6052293D02*
X5674825Y-6033246D01*
X5674825Y-6033246D02*
X5674825Y-6023722D01*
X5674825Y-6023722D02*
X5684349Y-6004674D01*
X5684349Y-6004674D02*
X5703396Y-5995150D01*
X5703396Y-5995150D02*
X5731968Y-5995150D01*
X5731968Y-5995150D02*
X5751015Y-6004674D01*
X5874825Y-6128484D02*
X5855777Y-6118960D01*
X5855777Y-6118960D02*
X5846254Y-6099912D01*
X5846254Y-6099912D02*
X5846254Y-5928484D01*
X5979587Y-6128484D02*
X5960539Y-6118960D01*
X5960539Y-6118960D02*
X5951015Y-6109436D01*
X5951015Y-6109436D02*
X5941492Y-6090388D01*
X5941492Y-6090388D02*
X5941492Y-6033246D01*
X5941492Y-6033246D02*
X5951015Y-6014198D01*
X5951015Y-6014198D02*
X5960539Y-6004674D01*
X5960539Y-6004674D02*
X5979587Y-5995150D01*
X5979587Y-5995150D02*
X6008158Y-5995150D01*
X6008158Y-5995150D02*
X6027206Y-6004674D01*
X6027206Y-6004674D02*
X6036730Y-6014198D01*
X6036730Y-6014198D02*
X6046254Y-6033246D01*
X6046254Y-6033246D02*
X6046254Y-6090388D01*
X6046254Y-6090388D02*
X6036730Y-6109436D01*
X6036730Y-6109436D02*
X6027206Y-6118960D01*
X6027206Y-6118960D02*
X6008158Y-6128484D01*
X6008158Y-6128484D02*
X5979587Y-6128484D01*
X6103396Y-5995150D02*
X6179587Y-5995150D01*
X6131968Y-5928484D02*
X6131968Y-6099912D01*
X6131968Y-6099912D02*
X6141492Y-6118960D01*
X6141492Y-6118960D02*
X6160539Y-6128484D01*
X6160539Y-6128484D02*
X6179587Y-6128484D01*
X6236730Y-6118960D02*
X6255777Y-6128484D01*
X6255777Y-6128484D02*
X6293873Y-6128484D01*
X6293873Y-6128484D02*
X6312920Y-6118960D01*
X6312920Y-6118960D02*
X6322444Y-6099912D01*
X6322444Y-6099912D02*
X6322444Y-6090388D01*
X6322444Y-6090388D02*
X6312920Y-6071341D01*
X6312920Y-6071341D02*
X6293873Y-6061817D01*
X6293873Y-6061817D02*
X6265301Y-6061817D01*
X6265301Y-6061817D02*
X6246254Y-6052293D01*
X6246254Y-6052293D02*
X6236730Y-6033246D01*
X6236730Y-6033246D02*
X6236730Y-6023722D01*
X6236730Y-6023722D02*
X6246254Y-6004674D01*
X6246254Y-6004674D02*
X6265301Y-5995150D01*
X6265301Y-5995150D02*
X6293873Y-5995150D01*
X6293873Y-5995150D02*
X6312920Y-6004674D01*
X6389111Y-6204674D02*
X6398635Y-6195150D01*
X6398635Y-6195150D02*
X6417682Y-6166579D01*
X6417682Y-6166579D02*
X6427206Y-6147531D01*
X6427206Y-6147531D02*
X6436730Y-6118960D01*
X6436730Y-6118960D02*
X6446254Y-6071341D01*
X6446254Y-6071341D02*
X6446254Y-6033246D01*
X6446254Y-6033246D02*
X6436730Y-5985627D01*
X6436730Y-5985627D02*
X6427206Y-5957055D01*
X6427206Y-5957055D02*
X6417682Y-5938008D01*
X6417682Y-5938008D02*
X6398635Y-5909436D01*
X6398635Y-5909436D02*
X6389111Y-5899912D01*
M02*
