%TF.GenerationSoftware,KiCad,Pcbnew,10.0.6*%
%TF.CreationDate,2026-10-05T10:43:20-07:00*%
%TF.ProjectId,plush-toy-v2-B,706c7573-682d-4746-9f79-2d76322d422e,rev?*%
%TF.SameCoordinates,Original*%
%TF.FileFunction,Copper,L1,Top*%
%TF.FilePolarity,Positive*%
%FSLAX46Y46*%
G04 Gerber Fmt 4.6, Leading zero omitted, Abs format (unit mm)*
G04 Created by KiCad (PCBNEW 10.0.6) date 2026-10-05 10:43:20*
%MOMM*%
%LPD*%
G01*
G04 APERTURE LIST*
G04 Aperture macros list*
%AMRoundRect*
0 Rectangle with rounded corners*
0 $1 Rounding radius*
0 $2 $3 $4 $5 $6 $7 $8 $9 X,Y pos of 4 corners*
0 Add a 4 corners polygon primitive as box body*
4,1,4,$2,$3,$4,$5,$6,$7,$8,$9,$2,$3,0*
0 Add four circle primitives for the rounded corners*
1,1,$1+$1,$2,$3*
1,1,$1+$1,$4,$5*
1,1,$1+$1,$6,$7*
1,1,$1+$1,$8,$9*
0 Add four rect primitives between the rounded corners*
20,1,$1+$1,$2,$3,$4,$5,0*
20,1,$1+$1,$4,$5,$6,$7,0*
20,1,$1+$1,$6,$7,$8,$9,0*
20,1,$1+$1,$8,$9,$2,$3,0*%
G04 Aperture macros list end*
%TA.AperFunction,SMDPad,CuDef*%
%ADD10RoundRect,0.140000X-0.140000X-0.170000X0.140000X-0.170000X0.140000X0.170000X-0.140000X0.170000X0*%
%TD*%
%TA.AperFunction,SMDPad,CuDef*%
%ADD11R,0.900000X1.500000*%
%TD*%
%TA.AperFunction,SMDPad,CuDef*%
%ADD12R,1.500000X0.900000*%
%TD*%
%TA.AperFunction,HeatsinkPad*%
%ADD13C,0.600000*%
%TD*%
%TA.AperFunction,HeatsinkPad*%
%ADD14R,3.900000X3.900000*%
%TD*%
%TA.AperFunction,SMDPad,CuDef*%
%ADD15R,1.230000X1.860000*%
%TD*%
%TA.AperFunction,SMDPad,CuDef*%
%ADD16R,0.700000X1.750000*%
%TD*%
%TA.AperFunction,SMDPad,CuDef*%
%ADD17R,1.200000X2.550000*%
%TD*%
%TA.AperFunction,SMDPad,CuDef*%
%ADD18RoundRect,0.150000X-0.150000X-0.575000X0.150000X-0.575000X0.150000X0.575000X-0.150000X0.575000X0*%
%TD*%
%TA.AperFunction,SMDPad,CuDef*%
%ADD19RoundRect,0.075000X-0.075000X-0.650000X0.075000X-0.650000X0.075000X0.650000X-0.075000X0.650000X0*%
%TD*%
%TA.AperFunction,ComponentPad*%
%ADD20O,1.000000X2.100000*%
%TD*%
%TA.AperFunction,ComponentPad*%
%ADD21O,1.000000X1.600000*%
%TD*%
%TA.AperFunction,SMDPad,CuDef*%
%ADD22R,3.500000X1.500000*%
%TD*%
%TA.AperFunction,SMDPad,CuDef*%
%ADD23RoundRect,0.150000X0.150000X0.625000X-0.150000X0.625000X-0.150000X-0.625000X0.150000X-0.625000X0*%
%TD*%
%TA.AperFunction,SMDPad,CuDef*%
%ADD24RoundRect,0.250000X0.350000X0.650000X-0.350000X0.650000X-0.350000X-0.650000X0.350000X-0.650000X0*%
%TD*%
%TA.AperFunction,SMDPad,CuDef*%
%ADD25R,3.200000X1.020000*%
%TD*%
%TA.AperFunction,SMDPad,CuDef*%
%ADD26R,1.000000X3.500000*%
%TD*%
%TA.AperFunction,SMDPad,CuDef*%
%ADD27R,1.800000X4.000000*%
%TD*%
%TA.AperFunction,SMDPad,CuDef*%
%ADD28RoundRect,0.150000X-0.150000X-0.625000X0.150000X-0.625000X0.150000X0.625000X-0.150000X0.625000X0*%
%TD*%
%TA.AperFunction,SMDPad,CuDef*%
%ADD29RoundRect,0.250000X-0.350000X-0.650000X0.350000X-0.650000X0.350000X0.650000X-0.350000X0.650000X0*%
%TD*%
%TA.AperFunction,SMDPad,CuDef*%
%ADD30R,0.500000X1.700000*%
%TD*%
%TA.AperFunction,SMDPad,CuDef*%
%ADD31R,1.200000X2.500000*%
%TD*%
%TA.AperFunction,SMDPad,CuDef*%
%ADD32RoundRect,0.225000X-0.225000X-0.250000X0.225000X-0.250000X0.225000X0.250000X-0.225000X0.250000X0*%
%TD*%
%TA.AperFunction,HeatsinkPad*%
%ADD33C,0.500000*%
%TD*%
%TA.AperFunction,HeatsinkPad*%
%ADD34R,0.500000X1.600000*%
%TD*%
%TA.AperFunction,ViaPad*%
%ADD35C,0.600000*%
%TD*%
%TA.AperFunction,ViaPad*%
%ADD36C,0.800000*%
%TD*%
%TA.AperFunction,Conductor*%
%ADD37C,0.400000*%
%TD*%
%TA.AperFunction,Conductor*%
%ADD38C,0.200000*%
%TD*%
%TA.AperFunction,Conductor*%
%ADD39C,0.150000*%
%TD*%
%TA.AperFunction,Conductor*%
%ADD40C,0.600000*%
%TD*%
%TA.AperFunction,Conductor*%
%ADD41C,0.300000*%
%TD*%
G04 APERTURE END LIST*
D10*
%TO.P,C_U1,1*%
%TO.N,+3V3*%
X2720000Y-32400000D03*
%TO.P,C_U1,2*%
%TO.N,GND*%
X3680000Y-32400000D03*
%TD*%
D11*
%TO.P,U1,1*%
%TO.N,GND*%
X1490000Y-30750000D03*
%TO.P,U1,2*%
%TO.N,+3V3*%
X2760000Y-30750000D03*
%TO.P,U1,3*%
%TO.N,EN*%
X4030000Y-30750000D03*
%TO.P,U1,4*%
%TO.N,NTC_SENSE*%
X5300000Y-30750000D03*
%TO.P,U1,5*%
%TO.N,VBAT_SENSE*%
X6570000Y-30750000D03*
%TO.P,U1,6*%
%TO.N,CC_SENSE*%
X7840000Y-30750000D03*
%TO.P,U1,7*%
%TO.N,BAT_NTC_SENSE*%
X9110000Y-30750000D03*
%TO.P,U1,8*%
%TO.N,unconnected-(U1-IO15-Pad8)*%
X10380000Y-30750000D03*
%TO.P,U1,9*%
%TO.N,unconnected-(U1-IO16-Pad9)*%
X11650000Y-30750000D03*
%TO.P,U1,10*%
%TO.N,HEAT_GATE_DRV*%
X12920000Y-30750000D03*
%TO.P,U1,11*%
%TO.N,KEY_MUTE*%
X14190000Y-30750000D03*
%TO.P,U1,12*%
%TO.N,TOUCH_E0*%
X15460000Y-30750000D03*
%TO.P,U1,13*%
%TO.N,USB_DN*%
X16730000Y-30750000D03*
%TO.P,U1,14*%
%TO.N,USB_DP*%
X18000000Y-30750000D03*
D12*
%TO.P,U1,15*%
%TO.N,SERVO_L_PWM*%
X19250000Y-28985000D03*
%TO.P,U1,16*%
%TO.N,SERVO_R_PWM*%
X19250000Y-27715000D03*
%TO.P,U1,17*%
%TO.N,unconnected-(U1-IO9-Pad17)*%
X19250000Y-26445000D03*
%TO.P,U1,18*%
%TO.N,unconnected-(U1-IO10-Pad18)*%
X19250000Y-25175000D03*
%TO.P,U1,19*%
%TO.N,unconnected-(U1-IO11-Pad19)*%
X19250000Y-23905000D03*
%TO.P,U1,20*%
%TO.N,unconnected-(U1-IO12-Pad20)*%
X19250000Y-22635000D03*
%TO.P,U1,21*%
%TO.N,unconnected-(U1-IO13-Pad21)*%
X19250000Y-21365000D03*
%TO.P,U1,22*%
%TO.N,LCD_MOSI*%
X19250000Y-20095000D03*
%TO.P,U1,23*%
%TO.N,LCD_RST*%
X19250000Y-18825000D03*
%TO.P,U1,24*%
%TO.N,LCD_DC*%
X19250000Y-17555000D03*
%TO.P,U1,25*%
%TO.N,LCD_BL_PWM*%
X19250000Y-16285000D03*
%TO.P,U1,26*%
%TO.N,LCD_CS*%
X19250000Y-15015000D03*
D11*
%TO.P,U1,27*%
%TO.N,BOOT*%
X18000000Y-13250000D03*
%TO.P,U1,28*%
%TO.N,unconnected-(U1-IO35-Pad28)*%
X16730000Y-13250000D03*
%TO.P,U1,29*%
%TO.N,unconnected-(U1-IO36-Pad29)*%
X15460000Y-13250000D03*
%TO.P,U1,30*%
%TO.N,unconnected-(U1-IO37-Pad30)*%
X14190000Y-13250000D03*
%TO.P,U1,31*%
%TO.N,LCD_CLK*%
X12920000Y-13250000D03*
%TO.P,U1,32*%
%TO.N,AMP_DIN*%
X11650000Y-13250000D03*
%TO.P,U1,33*%
%TO.N,AMP_BCLK*%
X10380000Y-13250000D03*
%TO.P,U1,34*%
%TO.N,AMP_LRCLK*%
X9110000Y-13250000D03*
%TO.P,U1,35*%
%TO.N,MIC_SD*%
X7840000Y-13250000D03*
%TO.P,U1,36*%
%TO.N,I2C_SDA*%
X6570000Y-13250000D03*
%TO.P,U1,37*%
%TO.N,I2C_SCL*%
X5300000Y-13250000D03*
%TO.P,U1,38*%
%TO.N,MIC_SCK*%
X4030000Y-13250000D03*
%TO.P,U1,39*%
%TO.N,MIC_WS*%
X2760000Y-13250000D03*
%TO.P,U1,40*%
%TO.N,GND*%
X1490000Y-13250000D03*
D13*
%TO.P,U1,41*%
X8510000Y-24900000D03*
X9910000Y-24900000D03*
X7810000Y-24200000D03*
X9210000Y-24200000D03*
X10610000Y-24200000D03*
X8510000Y-23500000D03*
D14*
X9210000Y-23500000D03*
D13*
X9910000Y-23500000D03*
X7810000Y-22800000D03*
X9210000Y-22800000D03*
X10610000Y-22800000D03*
X8510000Y-22100000D03*
X9910000Y-22100000D03*
%TD*%
D15*
%TO.P,SW_RST,1*%
%TO.N,EN*%
X21120000Y-16000000D03*
%TO.P,SW_RST,2*%
%TO.N,GND*%
X25480000Y-16000000D03*
%TD*%
D16*
%TO.P,J_MIC,1*%
%TO.N,+3V3*%
X26800000Y-5495000D03*
%TO.P,J_MIC,2*%
%TO.N,GND*%
X25800000Y-5495000D03*
%TO.P,J_MIC,3*%
%TO.N,MIC_SD*%
X24800000Y-5495000D03*
%TO.P,J_MIC,4*%
%TO.N,MIC_WS*%
X23800000Y-5495000D03*
%TO.P,J_MIC,5*%
%TO.N,MIC_SCK*%
X22800000Y-5495000D03*
%TO.P,J_MIC,6*%
%TO.N,GND*%
X21800000Y-5495000D03*
D17*
%TO.P,J_MIC,7*%
%TO.N,unconnected-(J_MIC-Pad7)*%
X20690000Y-1775000D03*
%TO.P,J_MIC,8*%
%TO.N,unconnected-(J_MIC-Pad8)*%
X27910000Y-1775000D03*
%TD*%
D18*
%TO.P,J_USB,A1*%
%TO.N,GND*%
X32350000Y-37310000D03*
%TO.P,J_USB,A4*%
%TO.N,VBUS_IN*%
X33150000Y-37310000D03*
D19*
%TO.P,J_USB,A5*%
%TO.N,CC1*%
X34350000Y-37310000D03*
%TO.P,J_USB,A6*%
%TO.N,USB_DP*%
X35350000Y-37310000D03*
%TO.P,J_USB,A7*%
%TO.N,USB_DN*%
X35850000Y-37310000D03*
%TO.P,J_USB,A8*%
%TO.N,unconnected-(J_USB-SBU1-PadA8)*%
X36850000Y-37310000D03*
D18*
%TO.P,J_USB,A9*%
%TO.N,VBUS_IN*%
X38050000Y-37310000D03*
%TO.P,J_USB,A12*%
%TO.N,GND*%
X38850000Y-37310000D03*
%TO.P,J_USB,B1*%
X38850000Y-37310000D03*
%TO.P,J_USB,B4*%
%TO.N,VBUS_IN*%
X38050000Y-37310000D03*
D19*
%TO.P,J_USB,B5*%
%TO.N,CC2*%
X37350000Y-37310000D03*
%TO.P,J_USB,B6*%
%TO.N,USB_DP*%
X36350000Y-37310000D03*
%TO.P,J_USB,B7*%
%TO.N,USB_DN*%
X34850000Y-37310000D03*
%TO.P,J_USB,B8*%
%TO.N,unconnected-(J_USB-SBU2-PadB8)*%
X33850000Y-37310000D03*
D18*
%TO.P,J_USB,B9*%
%TO.N,VBUS_IN*%
X33150000Y-37310000D03*
%TO.P,J_USB,B12*%
%TO.N,GND*%
X32350000Y-37310000D03*
D20*
%TO.P,J_USB,SH*%
X31280000Y-38225000D03*
D21*
X31280000Y-42405000D03*
D20*
X39920000Y-38225000D03*
D21*
X39920000Y-42405000D03*
%TD*%
D22*
%TO.P,J_HEAT,1*%
%TO.N,VUSB*%
X40350000Y-28700000D03*
%TO.P,J_HEAT,2*%
%TO.N,HEAT_LOW*%
X40350000Y-26200000D03*
%TO.P,J_HEAT,3*%
%TO.N,unconnected-(J_HEAT-Pad3)*%
X47750000Y-31680000D03*
%TO.P,J_HEAT,4*%
%TO.N,unconnected-(J_HEAT-Pad4)*%
X47750000Y-23220000D03*
%TD*%
D23*
%TO.P,J_TOUCH,1*%
%TO.N,TOUCH_E0*%
X5400000Y-5775000D03*
%TO.P,J_TOUCH,2*%
%TO.N,GND*%
X4400000Y-5775000D03*
D24*
%TO.P,J_TOUCH,MP*%
%TO.N,N/C*%
X6700000Y-1900000D03*
X3100000Y-1900000D03*
%TD*%
D23*
%TO.P,J_LCD,1*%
%TO.N,LCD_RST*%
X17440000Y-5775000D03*
%TO.P,J_LCD,2*%
%TO.N,LCD_CS*%
X16440000Y-5775000D03*
%TO.P,J_LCD,3*%
%TO.N,LCD_DC*%
X15440000Y-5775000D03*
%TO.P,J_LCD,4*%
%TO.N,LCD_MOSI_S*%
X14440000Y-5775000D03*
%TO.P,J_LCD,5*%
%TO.N,LCD_CLK_S*%
X13440000Y-5775000D03*
%TO.P,J_LCD,6*%
%TO.N,GND*%
X12440000Y-5775000D03*
%TO.P,J_LCD,7*%
%TO.N,+3V3*%
X11440000Y-5775000D03*
%TO.P,J_LCD,8*%
%TO.N,LCD_BL*%
X10440000Y-5775000D03*
D24*
%TO.P,J_LCD,MP*%
%TO.N,N/C*%
X18740000Y-1900000D03*
X9140000Y-1900000D03*
%TD*%
D25*
%TO.P,J_ARM_R,1*%
%TO.N,SERVO_R_PWM*%
X43405000Y-20940000D03*
%TO.P,J_ARM_R,2*%
%TO.N,VSYS*%
X43405000Y-18400000D03*
%TO.P,J_ARM_R,3*%
%TO.N,GND*%
X43405000Y-15860000D03*
%TD*%
%TO.P,J_ARM_L,1*%
%TO.N,SERVO_L_PWM*%
X43405000Y-12640000D03*
%TO.P,J_ARM_L,2*%
%TO.N,VSYS*%
X43405000Y-10100000D03*
%TO.P,J_ARM_L,3*%
%TO.N,GND*%
X43405000Y-7560000D03*
%TD*%
D26*
%TO.P,J_BAT,1*%
%TO.N,VBAT_PACK*%
X26500000Y-37600000D03*
%TO.P,J_BAT,2*%
%TO.N,GND*%
X24500000Y-37600000D03*
D27*
%TO.P,J_BAT,3*%
%TO.N,N/C*%
X22090000Y-43500000D03*
%TO.P,J_BAT,4*%
X28910000Y-43500000D03*
%TD*%
D28*
%TO.P,J_NTC,1*%
%TO.N,NTC_SENSE*%
X11500000Y-40225000D03*
%TO.P,J_NTC,2*%
%TO.N,GND*%
X12500000Y-40225000D03*
D29*
%TO.P,J_NTC,MP*%
%TO.N,N/C*%
X10200000Y-44100000D03*
X13800000Y-44100000D03*
%TD*%
D28*
%TO.P,J_SPK,1*%
%TO.N,SPK_P*%
X17500000Y-40225000D03*
%TO.P,J_SPK,2*%
%TO.N,SPK_N*%
X18500000Y-40225000D03*
D29*
%TO.P,J_SPK,MP*%
%TO.N,N/C*%
X16200000Y-44100000D03*
X19800000Y-44100000D03*
%TD*%
D30*
%TO.P,J_KEY,1*%
%TO.N,KEY_PWR*%
X32460000Y-5150000D03*
%TO.P,J_KEY,2*%
%TO.N,KEY_MUTE*%
X31460000Y-5150000D03*
%TO.P,J_KEY,3*%
%TO.N,GND*%
X30460000Y-5150000D03*
D31*
%TO.P,J_KEY,4*%
%TO.N,unconnected-(J_KEY-Pad4)*%
X33560000Y-1750000D03*
%TO.P,J_KEY,5*%
%TO.N,unconnected-(J_KEY-Pad5)*%
X29360000Y-1750000D03*
%TD*%
D15*
%TO.P,SW_BOOT,1*%
%TO.N,BOOT*%
X27020000Y-16000000D03*
%TO.P,SW_BOOT,2*%
%TO.N,GND*%
X31380000Y-16000000D03*
%TD*%
D32*
%TO.P,C_U1_BULK,1*%
%TO.N,+3V3*%
X2625000Y-33800000D03*
%TO.P,C_U1_BULK,2*%
%TO.N,GND*%
X4175000Y-33800000D03*
%TD*%
D33*
%TO.P,U_EFUSE,9*%
%TO.N,GND*%
X38000000Y-29450000D03*
D34*
X38000000Y-30000000D03*
D33*
X38000000Y-30550000D03*
%TD*%
D35*
%TO.N,+3V3*%
X38600000Y-13400000D03*
X37100000Y-10300000D03*
X24520000Y-42000000D03*
X1725000Y-33800000D03*
X10770000Y-42250000D03*
X2760000Y-30750000D03*
X1990000Y-32400000D03*
X10250000Y-8040000D03*
X26800000Y-5495000D03*
X19599200Y-13952600D03*
X11301600Y-7020700D03*
X16791000Y-8482600D03*
X23230000Y-12000000D03*
X23290000Y-8750000D03*
X38600000Y-21700000D03*
X28770000Y-8750000D03*
X16770000Y-10250000D03*
X29700000Y-8800000D03*
X23270000Y-10000000D03*
X20400800Y-13952600D03*
X19230000Y-12000000D03*
X41700000Y-19800000D03*
X45600000Y-17800000D03*
X26490000Y-8230000D03*
%TO.N,GND*%
X43405000Y-7560000D03*
X29796100Y-6278600D03*
X24360000Y-14600000D03*
X21800000Y-5495000D03*
X22191900Y-18603000D03*
X36569300Y-18055700D03*
X40450000Y-30925000D03*
X5460000Y-8750000D03*
X28700000Y-19050000D03*
X21468400Y-17821000D03*
X35725000Y-20850000D03*
X43067500Y-25795100D03*
X37000000Y-41980000D03*
X47250000Y-16800000D03*
X25800000Y-5495000D03*
X5075000Y-33800000D03*
X12809100Y-38988400D03*
X27175000Y-40500000D03*
X40780000Y-31950000D03*
X25250000Y-3000000D03*
X20460000Y-17800000D03*
X7500000Y-9000000D03*
X35850000Y-33560000D03*
X37550000Y-20380000D03*
X45600000Y-21800000D03*
X31500000Y-19050000D03*
X1490000Y-30750000D03*
X35260000Y-22250000D03*
X10250000Y-10460000D03*
X31380000Y-16000000D03*
X28791000Y-33232600D03*
X12618100Y-7022000D03*
X42200000Y-22000000D03*
X32943200Y-9593200D03*
X1490000Y-13250000D03*
X20995700Y-19504900D03*
X4090900Y-7011600D03*
X23343200Y-15386800D03*
X28700000Y-24850000D03*
X33750000Y-10000000D03*
X25710000Y-8750000D03*
X25000000Y-21000000D03*
X33230000Y-41760000D03*
X13230000Y-42740000D03*
X36500000Y-41250000D03*
X40000000Y-14750000D03*
X19500000Y-37210000D03*
X37250000Y-42750000D03*
X25730000Y-40060000D03*
X18730000Y-36000000D03*
X46230000Y-21760000D03*
X34000000Y-25000000D03*
X4410000Y-32400000D03*
X20614000Y-18584900D03*
X44480000Y-25000000D03*
X29230000Y-37750000D03*
X39743200Y-13686800D03*
%TO.N,EN*%
X36750000Y-3958700D03*
X22118000Y-14769600D03*
X17575100Y-20091300D03*
X24161400Y-12897700D03*
%TO.N,NTC_SENSE*%
X13057500Y-41636800D03*
X6196500Y-31954700D03*
%TO.N,VBAT_SENSE*%
X15936900Y-33914200D03*
%TO.N,CC_SENSE*%
X33022600Y-40850000D03*
X39264500Y-40655600D03*
%TO.N,BAT_NTC_SENSE*%
X23535700Y-39135200D03*
%TO.N,HEAT_GATE_DRV*%
X43990000Y-32544800D03*
%TO.N,KEY_MUTE*%
X31282800Y-6471800D03*
X14190000Y-29543400D03*
%TO.N,TOUCH_E0*%
X15460000Y-29534900D03*
X6155200Y-5775000D03*
%TO.N,USB_DN*%
X35900000Y-43572100D03*
%TO.N,USB_DP*%
X33511700Y-33746300D03*
X35993300Y-39086800D03*
%TO.N,SERVO_L_PWM*%
X41329900Y-12640000D03*
X43015500Y-32343700D03*
%TO.N,SERVO_R_PWM*%
X47803800Y-20940000D03*
%TO.N,LCD_MOSI*%
X14007200Y-19564600D03*
%TO.N,LCD_RST*%
X15622800Y-18636500D03*
X16632100Y-11007200D03*
%TO.N,LCD_DC*%
X14919300Y-17471700D03*
X14231200Y-10979600D03*
%TO.N,LCD_BL_PWM*%
X11891200Y-16784200D03*
%TO.N,LCD_CS*%
X18712300Y-4929900D03*
X20171800Y-11101200D03*
%TO.N,BOOT*%
X28117500Y-16000000D03*
X36430100Y-14553200D03*
%TO.N,LCD_CLK*%
X19249200Y-10179100D03*
%TO.N,AMP_DIN*%
X31280600Y-25486900D03*
X12393000Y-14504000D03*
X21011400Y-24262100D03*
%TO.N,AMP_BCLK*%
X13680600Y-14967000D03*
X32639400Y-26331100D03*
X20454400Y-23710400D03*
%TO.N,AMP_LRCLK*%
X32677900Y-29600000D03*
X22048700Y-29600000D03*
X7477400Y-14846200D03*
%TO.N,I2C_SDA*%
X16388300Y-15530000D03*
X21478200Y-13564400D03*
X24150400Y-22852500D03*
%TO.N,I2C_SCL*%
X17673200Y-16078500D03*
%TO.N,MIC_SCK*%
X7963800Y-11637900D03*
X19026900Y-6285000D03*
%TO.N,MIC_WS*%
X19848100Y-7478900D03*
X11613300Y-9882100D03*
%TO.N,VBUS_IN*%
X32840100Y-36123700D03*
%TO.N,CC1*%
X33292200Y-39635600D03*
%TO.N,CC2*%
X37350000Y-38491600D03*
X38393800Y-35315900D03*
X33322000Y-35390400D03*
D36*
%TO.N,VUSB*%
X37916800Y-27664700D03*
X26345000Y-26088700D03*
%TO.N,HEAT_LOW*%
X45302300Y-24070300D03*
D35*
%TO.N,LCD_MOSI_S*%
X14694800Y-7006100D03*
%TO.N,LCD_CLK_S*%
X18392500Y-7763600D03*
%TO.N,LCD_BL*%
X15000000Y-9796800D03*
%TO.N,VSYS*%
X34895800Y-23108100D03*
X43405000Y-10100000D03*
X37556800Y-13686800D03*
X32375000Y-20850000D03*
X41754800Y-18209800D03*
X43405000Y-18400000D03*
X37350000Y-14825000D03*
X32840000Y-22250000D03*
D36*
X28595300Y-7472300D03*
D35*
X28700000Y-17150000D03*
X38312300Y-14979200D03*
X37000000Y-23770000D03*
X27757600Y-17914200D03*
X39800000Y-21500000D03*
X42550000Y-10000000D03*
%TO.N,VBAT_PACK*%
X25201700Y-35000000D03*
X28550400Y-35348300D03*
%TO.N,SPK_P*%
X28666500Y-38926500D03*
X17500000Y-38965200D03*
X35021300Y-34764100D03*
%TO.N,SPK_N*%
X42271200Y-30295600D03*
X35447700Y-27768900D03*
X29268200Y-39847800D03*
%TO.N,KEY_PWR*%
X23090000Y-21705600D03*
X32071300Y-6640400D03*
X29764300Y-16317700D03*
D36*
%TO.N,VBAT*%
X30499700Y-13150200D03*
X25598700Y-13150200D03*
X13500000Y-4115500D03*
D35*
%TO.N,AMP_SD*%
X37712900Y-25039600D03*
X32562500Y-23671500D03*
%TD*%
%TO.N,+3V3*%
D37*
X39100000Y-15000000D02*
X38600000Y-21700000D01*
X44600000Y-19800000D02*
X41700000Y-19800000D01*
X11440000Y-5775000D02*
X11301600Y-7020700D01*
X2625000Y-33800000D02*
X1725000Y-33800000D01*
X45500000Y-19300000D02*
X44600000Y-19800000D01*
X33000000Y-8800000D02*
X37100000Y-10300000D01*
X38600000Y-13400000D02*
X39100000Y-15000000D01*
X2720000Y-32400000D02*
X1990000Y-32400000D01*
X45600000Y-17800000D02*
X45500000Y-19300000D01*
X29700000Y-8800000D02*
X33000000Y-8800000D01*
%TO.N,GND*%
X43405000Y-15860000D02*
X41453300Y-15860000D01*
X4400000Y-5775000D02*
X4090900Y-7011600D01*
X39920000Y-36823300D02*
X39336700Y-36823300D01*
X31280000Y-36823300D02*
X31863300Y-36823300D01*
X23900100Y-15386800D02*
X24513300Y-16000000D01*
X24500000Y-37600000D02*
X24500000Y-35498300D01*
X45400000Y-21900000D02*
X42200000Y-22000000D01*
X19500000Y-37210000D02*
X21211700Y-35498300D01*
X21211700Y-35498300D02*
X24500000Y-35498300D01*
X38000000Y-29450000D02*
X38000000Y-30000000D01*
X40000000Y-14750000D02*
X40343300Y-14750000D01*
X39336700Y-36823300D02*
X38850000Y-37310000D01*
X31863300Y-36823300D02*
X32350000Y-37310000D01*
X8510000Y-23500000D02*
X9210000Y-23500000D01*
X3680000Y-32400000D02*
X4410000Y-32400000D01*
X40343300Y-14750000D02*
X41453300Y-15860000D01*
X12440000Y-5775000D02*
X12618100Y-7022000D01*
X39920000Y-38225000D02*
X39920000Y-36823300D01*
X25480000Y-16000000D02*
X24513300Y-16000000D01*
X31280000Y-38225000D02*
X31280000Y-36823300D01*
X30460000Y-5150000D02*
X29796100Y-6278600D01*
X4175000Y-33800000D02*
X5075000Y-33800000D01*
X23343200Y-15386800D02*
X23900100Y-15386800D01*
X45600000Y-21800000D02*
X45400000Y-21900000D01*
X12500000Y-40225000D02*
X12809100Y-38988400D01*
%TO.N,EN*%
D38*
X21986700Y-16000000D02*
X21986700Y-14900900D01*
X25295500Y-13860800D02*
X24332400Y-12897700D01*
X30799700Y-13860800D02*
X25295500Y-13860800D01*
X24332400Y-12897700D02*
X24161400Y-12897700D01*
X21120000Y-16000000D02*
X21986700Y-16000000D01*
X42303500Y-3958700D02*
X45306700Y-6961900D01*
X36750000Y-3958700D02*
X42303500Y-3958700D01*
X33703200Y-10957300D02*
X30799700Y-13860800D01*
X45106200Y-10957300D02*
X33703200Y-10957300D01*
X45306700Y-6961900D02*
X45306700Y-10756800D01*
X45306700Y-10756800D02*
X45106200Y-10957300D01*
X7918100Y-29748300D02*
X17575100Y-20091300D01*
X4030000Y-30750000D02*
X4030000Y-29748300D01*
X4030000Y-29748300D02*
X7918100Y-29748300D01*
X21986700Y-14900900D02*
X22118000Y-14769600D01*
%TO.N,NTC_SENSE*%
X5993500Y-31751700D02*
X5300000Y-31751700D01*
X5300000Y-30750000D02*
X5300000Y-31751700D01*
X6196500Y-31954700D02*
X5993500Y-31751700D01*
X11500000Y-40609600D02*
X11500000Y-40225000D01*
X12527200Y-41636800D02*
X11500000Y-40609600D01*
X13057500Y-41636800D02*
X12527200Y-41636800D01*
%TO.N,VBAT_SENSE*%
X9435700Y-33914200D02*
X15936900Y-33914200D01*
X6570000Y-31048500D02*
X9435700Y-33914200D01*
X6570000Y-30750000D02*
X6570000Y-31048500D01*
%TO.N,CC_SENSE*%
X15345900Y-32503100D02*
X16754500Y-33911700D01*
X8591400Y-32503100D02*
X15345900Y-32503100D01*
X17194700Y-41264600D02*
X19518900Y-41264600D01*
X19535200Y-41248300D02*
X32624300Y-41248300D01*
X33217000Y-40655600D02*
X33022600Y-40850000D01*
X16754500Y-40824400D02*
X17194700Y-41264600D01*
X7840000Y-31751700D02*
X8591400Y-32503100D01*
X39264500Y-40655600D02*
X33217000Y-40655600D01*
X32624300Y-41248300D02*
X33022600Y-40850000D01*
X16754500Y-33911700D02*
X16754500Y-40824400D01*
X7840000Y-30750000D02*
X7840000Y-31751700D01*
X19518900Y-41264600D02*
X19535200Y-41248300D01*
%TO.N,BAT_NTC_SENSE*%
X23535700Y-39135200D02*
X20572800Y-39135200D01*
X18169600Y-36732000D02*
X18169600Y-34823400D01*
X9110000Y-30750000D02*
X9110000Y-31751700D01*
X20572800Y-39135200D02*
X18169600Y-36732000D01*
X15097900Y-31751700D02*
X9110000Y-31751700D01*
X18169600Y-34823400D02*
X15097900Y-31751700D01*
%TO.N,HEAT_GATE_DRV*%
X16551200Y-29726000D02*
X20750500Y-29726000D01*
X21928300Y-30903800D02*
X35534900Y-30903800D01*
X43636700Y-32898100D02*
X43990000Y-32544800D01*
X12920000Y-29748300D02*
X13721300Y-28947000D01*
X35534900Y-30903800D02*
X37529200Y-32898100D01*
X20750500Y-29726000D02*
X21928300Y-30903800D01*
X15772200Y-28947000D02*
X16551200Y-29726000D01*
X37529200Y-32898100D02*
X43636700Y-32898100D01*
X13721300Y-28947000D02*
X15772200Y-28947000D01*
X12920000Y-30750000D02*
X12920000Y-29748300D01*
%TO.N,KEY_MUTE*%
X14190000Y-30750000D02*
X14190000Y-29543400D01*
X31460000Y-6294600D02*
X31282800Y-6471800D01*
X31460000Y-5150000D02*
X31460000Y-6294600D01*
%TO.N,TOUCH_E0*%
X5400000Y-5775000D02*
X6155200Y-5775000D01*
X15460000Y-30750000D02*
X15460000Y-29534900D01*
%TO.N,USB_DN*%
X35739900Y-39674500D02*
X34850000Y-38784600D01*
X35900000Y-43572100D02*
X37242300Y-43572100D01*
X16730000Y-30750000D02*
X16730000Y-31751700D01*
X36567400Y-39674500D02*
X35739900Y-39674500D01*
X40677000Y-39105700D02*
X40677000Y-36818900D01*
X39840400Y-40974000D02*
X39840400Y-40133100D01*
X19284100Y-34305800D02*
X16730000Y-31751700D01*
X33844300Y-34305800D02*
X19284100Y-34305800D01*
X39745000Y-40037700D02*
X40677000Y-39105700D01*
X40677000Y-36818900D02*
X38070500Y-34212400D01*
X37242300Y-43572100D02*
X39840400Y-40974000D01*
X38070500Y-34212400D02*
X33937700Y-34212400D01*
X36567400Y-39674500D02*
X36930600Y-40037700D01*
X39840400Y-40133100D02*
X39745000Y-40037700D01*
X33937700Y-34212400D02*
X33844300Y-34305800D01*
X36930600Y-40037700D02*
X39745000Y-40037700D01*
X36567400Y-38762100D02*
X36567400Y-39674500D01*
X35850000Y-37310000D02*
X35850000Y-38044700D01*
X34850000Y-38784600D02*
X34850000Y-37310000D01*
X35850000Y-38044700D02*
X36567400Y-38762100D01*
%TO.N,USB_DP*%
X35993300Y-39086800D02*
X35350000Y-38443500D01*
X36083100Y-36299600D02*
X36350000Y-36566500D01*
X35661700Y-36299600D02*
X36083100Y-36299600D01*
X36350000Y-36566500D02*
X36350000Y-37310000D01*
X18000000Y-31751700D02*
X20056700Y-33808400D01*
X35350000Y-38443500D02*
X35350000Y-37310000D01*
X35350000Y-36611300D02*
X35661700Y-36299600D01*
X35350000Y-37310000D02*
X35350000Y-36611300D01*
X20056700Y-33808400D02*
X33449600Y-33808400D01*
X18000000Y-30750000D02*
X18000000Y-31751700D01*
X33449600Y-33808400D02*
X33511700Y-33746300D01*
%TO.N,SERVO_L_PWM*%
X35833100Y-30531500D02*
X37848000Y-32546400D01*
X43405000Y-12640000D02*
X41329900Y-12640000D01*
X20251700Y-28985000D02*
X20594500Y-28985000D01*
X37848000Y-32546400D02*
X42812800Y-32546400D01*
X42812800Y-32546400D02*
X43015500Y-32343700D01*
X20594500Y-28985000D02*
X22141000Y-30531500D01*
X22141000Y-30531500D02*
X35833100Y-30531500D01*
X19250000Y-28985000D02*
X20251700Y-28985000D01*
%TO.N,SERVO_R_PWM*%
X25359700Y-26921300D02*
X23659900Y-28621100D01*
X19250000Y-27715000D02*
X20251700Y-27715000D01*
X33373400Y-26914600D02*
X31544800Y-26914600D01*
X33922500Y-26365500D02*
X33373400Y-26914600D01*
X41553300Y-20940000D02*
X41553300Y-21988100D01*
X31544800Y-26914600D02*
X28928500Y-24298300D01*
X37175900Y-26365500D02*
X33922500Y-26365500D01*
X47803800Y-20940000D02*
X43405000Y-20940000D01*
X27121000Y-24298300D02*
X25359700Y-26059600D01*
X25359700Y-26059600D02*
X25359700Y-26921300D01*
X23659900Y-28621100D02*
X21157800Y-28621100D01*
X21157800Y-28621100D02*
X20251700Y-27715000D01*
X43405000Y-20940000D02*
X41553300Y-20940000D01*
X28928500Y-24298300D02*
X27121000Y-24298300D01*
X41553300Y-21988100D02*
X37175900Y-26365500D01*
%TO.N,LCD_MOSI*%
D39*
X19250000Y-20095000D02*
X18273300Y-20095000D01*
X18273300Y-20044600D02*
X17793300Y-19564600D01*
X18273300Y-20095000D02*
X18273300Y-20044600D01*
X17793300Y-19564600D02*
X14007200Y-19564600D01*
%TO.N,LCD_RST*%
D38*
X19296400Y-7343200D02*
X19296400Y-8517500D01*
X16806700Y-11007200D02*
X16632100Y-11007200D01*
X19296400Y-8517500D02*
X16806700Y-11007200D01*
X17728200Y-5775000D02*
X19296400Y-7343200D01*
X19250000Y-18825000D02*
X18248300Y-18825000D01*
X18248300Y-18825000D02*
X18059800Y-18636500D01*
X17440000Y-5775000D02*
X17728200Y-5775000D01*
X18059800Y-18636500D02*
X15622800Y-18636500D01*
%TO.N,LCD_DC*%
X18248300Y-17555000D02*
X18165000Y-17471700D01*
X18944200Y-7992200D02*
X18944200Y-7531600D01*
X15440000Y-6200200D02*
X15440000Y-5775000D01*
X19250000Y-17555000D02*
X18248300Y-17555000D01*
X18165000Y-17471700D02*
X14919300Y-17471700D01*
X15072200Y-10979600D02*
X16675000Y-9376800D01*
X16675000Y-9376800D02*
X17559600Y-9376800D01*
X14231200Y-10979600D02*
X15072200Y-10979600D01*
X18605800Y-7193200D02*
X16433000Y-7193200D01*
X18944200Y-7531600D02*
X18605800Y-7193200D01*
X16433000Y-7193200D02*
X15440000Y-6200200D01*
X17559600Y-9376800D02*
X18944200Y-7992200D01*
%TO.N,LCD_BL_PWM*%
X17749100Y-16784200D02*
X11891200Y-16784200D01*
X18248300Y-16285000D02*
X17749100Y-16784200D01*
X19250000Y-16285000D02*
X18248300Y-16285000D01*
%TO.N,LCD_CS*%
X18651400Y-12251500D02*
X18651400Y-11737800D01*
X18248300Y-14391600D02*
X18326600Y-14313300D01*
X16440000Y-5373600D02*
X17081200Y-4732400D01*
X18561500Y-14313300D02*
X18707200Y-14167600D01*
X18248300Y-15015000D02*
X18248300Y-14391600D01*
X18326600Y-14313300D02*
X18561500Y-14313300D01*
X18514800Y-4732400D02*
X18712300Y-4929900D01*
X19288000Y-11101200D02*
X20171800Y-11101200D01*
X16440000Y-5775000D02*
X16440000Y-5373600D01*
X18707200Y-12307300D02*
X18651400Y-12251500D01*
X19250000Y-15015000D02*
X18248300Y-15015000D01*
X17081200Y-4732400D02*
X18514800Y-4732400D01*
X18707200Y-14167600D02*
X18707200Y-12307300D01*
X18651400Y-11737800D02*
X19288000Y-11101200D01*
%TO.N,BOOT*%
X24317300Y-13476300D02*
X25394200Y-14553200D01*
X18000000Y-13250000D02*
X18000000Y-11882500D01*
X19946400Y-10544900D02*
X20395900Y-10544900D01*
X23327300Y-13476300D02*
X24317300Y-13476300D01*
X28117500Y-14553200D02*
X36430100Y-14553200D01*
X18000000Y-11882500D02*
X19151700Y-10730800D01*
X20395900Y-10544900D02*
X23327300Y-13476300D01*
X19760500Y-10730800D02*
X19946400Y-10544900D01*
X28117500Y-16000000D02*
X28117500Y-14553200D01*
X25394200Y-14553200D02*
X28117500Y-14553200D01*
X19151700Y-10730800D02*
X19760500Y-10730800D01*
X28117500Y-16000000D02*
X27020000Y-16000000D01*
%TO.N,LCD_CLK*%
X12920000Y-12248300D02*
X17127900Y-12248300D01*
X19197100Y-10179100D02*
X19249200Y-10179100D01*
X12920000Y-13250000D02*
X12920000Y-12248300D01*
X17127900Y-12248300D02*
X19197100Y-10179100D01*
%TO.N,AMP_DIN*%
X26775000Y-23937500D02*
X29731200Y-23937500D01*
X29731200Y-23937500D02*
X31280600Y-25486900D01*
X21011400Y-24262100D02*
X26450400Y-24262100D01*
X12393000Y-14504000D02*
X12140700Y-14251700D01*
X26450400Y-24262100D02*
X26775000Y-23937500D01*
X11650000Y-13250000D02*
X11650000Y-14251700D01*
X12140700Y-14251700D02*
X11650000Y-14251700D01*
%TO.N,AMP_BCLK*%
X10380000Y-14251700D02*
X11260800Y-15132500D01*
X22011700Y-23761000D02*
X21961100Y-23710400D01*
X32639400Y-26331100D02*
X32639400Y-26065500D01*
X26279000Y-23761000D02*
X22011700Y-23761000D01*
X30137900Y-23564000D02*
X26476000Y-23564000D01*
X32639400Y-26065500D02*
X30137900Y-23564000D01*
X10380000Y-13250000D02*
X10380000Y-14251700D01*
X11260800Y-15132500D02*
X13515100Y-15132500D01*
X21961100Y-23710400D02*
X20454400Y-23710400D01*
X13515100Y-15132500D02*
X13680600Y-14967000D01*
X26476000Y-23564000D02*
X26279000Y-23761000D01*
%TO.N,AMP_LRCLK*%
X8071900Y-14251700D02*
X9110000Y-14251700D01*
X9110000Y-13250000D02*
X9110000Y-14251700D01*
X7477400Y-14846200D02*
X8071900Y-14251700D01*
X32677900Y-29600000D02*
X22048700Y-29600000D01*
%TO.N,MIC_SD*%
X7840000Y-12248300D02*
X8133600Y-12248300D01*
X24800000Y-5495000D02*
X24800000Y-6621700D01*
X8537900Y-11844000D02*
X16575700Y-11844000D01*
X16575700Y-11844000D02*
X19968900Y-8450800D01*
X22429000Y-8450800D02*
X24258100Y-6621700D01*
X24258100Y-6621700D02*
X24800000Y-6621700D01*
X19968900Y-8450800D02*
X22429000Y-8450800D01*
X7840000Y-13250000D02*
X7840000Y-12248300D01*
X8133600Y-12248300D02*
X8537900Y-11844000D01*
%TO.N,I2C_SDA*%
X7381100Y-15530000D02*
X16388300Y-15530000D01*
X6570000Y-13250000D02*
X6570000Y-14251700D01*
X24150400Y-22852500D02*
X24150400Y-16974200D01*
X21741700Y-13564400D02*
X21478200Y-13564400D01*
X6570000Y-14251700D02*
X6570000Y-14718900D01*
X22791500Y-14614200D02*
X21741700Y-13564400D01*
X6570000Y-14718900D02*
X7381100Y-15530000D01*
X22791500Y-15615300D02*
X22791500Y-14614200D01*
X24150400Y-16974200D02*
X22791500Y-15615300D01*
%TO.N,I2C_SCL*%
X17596300Y-16155400D02*
X17673200Y-16078500D01*
X5300000Y-14251700D02*
X7203700Y-16155400D01*
X5300000Y-13250000D02*
X5300000Y-14251700D01*
X7203700Y-16155400D02*
X17596300Y-16155400D01*
%TO.N,MIC_SCK*%
X4030000Y-12248300D02*
X4640400Y-11637900D01*
X22308000Y-6621700D02*
X19363600Y-6621700D01*
X22800000Y-5495000D02*
X22800000Y-6129700D01*
X19363600Y-6621700D02*
X19026900Y-6285000D01*
X22800000Y-6129700D02*
X22308000Y-6621700D01*
X4640400Y-11637900D02*
X7963800Y-11637900D01*
X4030000Y-13250000D02*
X4030000Y-12248300D01*
%TO.N,MIC_WS*%
X23800000Y-6118100D02*
X22439200Y-7478900D01*
X2760000Y-12248300D02*
X5126200Y-9882100D01*
X22439200Y-7478900D02*
X19848100Y-7478900D01*
X2760000Y-13250000D02*
X2760000Y-12248300D01*
X23800000Y-5495000D02*
X23800000Y-6118100D01*
X5126200Y-9882100D02*
X11613300Y-9882100D01*
%TO.N,VBUS_IN*%
D37*
X37207900Y-35770500D02*
X38050000Y-36612600D01*
X32840100Y-36123700D02*
X33510300Y-36123700D01*
X32840100Y-36123700D02*
X33150000Y-36433600D01*
X38050000Y-36612600D02*
X38050000Y-37310000D01*
X33150000Y-36433600D02*
X33150000Y-37310000D01*
X33863500Y-35770500D02*
X37207900Y-35770500D01*
X33510300Y-36123700D02*
X33863500Y-35770500D01*
%TO.N,CC1*%
D38*
X34350000Y-38484800D02*
X34350000Y-37310000D01*
X33605000Y-39229800D02*
X34350000Y-38484800D01*
D39*
X33292200Y-39405000D02*
X33467400Y-39229800D01*
X33467400Y-39229800D02*
X33605000Y-39229800D01*
D38*
X33292200Y-39405000D02*
X33292200Y-39635600D01*
%TO.N,CC2*%
X38393800Y-35315900D02*
X33396500Y-35315900D01*
X33396500Y-35315900D02*
X33322000Y-35390400D01*
X37350000Y-38491600D02*
X37350000Y-37310000D01*
%TO.N,VUSB*%
D40*
X39314700Y-27664700D02*
X40350000Y-28700000D01*
X35115700Y-26967200D02*
X34792200Y-27290700D01*
X37916800Y-27664700D02*
X39314700Y-27664700D01*
X37219300Y-26967200D02*
X35115700Y-26967200D01*
X33848200Y-27290700D02*
X32281400Y-28857500D01*
X37916800Y-27664700D02*
X37219300Y-26967200D01*
X27435800Y-28857500D02*
X26345000Y-27766700D01*
X34792200Y-27290700D02*
X33848200Y-27290700D01*
X26345000Y-27766700D02*
X26345000Y-26088700D01*
X32281400Y-28857500D02*
X27435800Y-28857500D01*
%TO.N,HEAT_LOW*%
X42479700Y-24070300D02*
X45302300Y-24070300D01*
X40350000Y-26200000D02*
X42479700Y-24070300D01*
%TO.N,LCD_MOSI_S*%
D38*
X14694800Y-6029800D02*
X14440000Y-5775000D01*
X14694800Y-7006100D02*
X14694800Y-6029800D01*
%TO.N,LCD_CLK_S*%
X13440000Y-5775000D02*
X13440000Y-6577600D01*
X14626000Y-7763600D02*
X18392500Y-7763600D01*
X13440000Y-6577600D02*
X14626000Y-7763600D01*
%TO.N,LCD_BL*%
D37*
X10440000Y-7105700D02*
X13131100Y-9796800D01*
X13131100Y-9796800D02*
X15000000Y-9796800D01*
X10440000Y-5775000D02*
X10440000Y-7105700D01*
%TO.N,VSYS*%
D40*
X40022300Y-7472300D02*
X28595300Y-7472300D01*
X42550000Y-10000000D02*
X40022300Y-7472300D01*
%TO.N,VBAT_PACK*%
X26500000Y-37600000D02*
X26500000Y-35348300D01*
X26151700Y-35000000D02*
X26500000Y-35348300D01*
X25201700Y-35000000D02*
X26151700Y-35000000D01*
X26500000Y-35348300D02*
X28550400Y-35348300D01*
%TO.N,SPK_P*%
D41*
X30404600Y-37500200D02*
X30404600Y-36945500D01*
X28978300Y-38926500D02*
X30404600Y-37500200D01*
X32586000Y-34764100D02*
X35021300Y-34764100D01*
X17500000Y-40225000D02*
X17500000Y-38965200D01*
X28666500Y-38926500D02*
X28978300Y-38926500D01*
X30404600Y-36945500D02*
X32586000Y-34764100D01*
%TO.N,SPK_N*%
X18500000Y-40225000D02*
X18939000Y-40664000D01*
X38338000Y-31138700D02*
X37641400Y-31138700D01*
X42271200Y-30295600D02*
X39181100Y-30295600D01*
X26957600Y-39847800D02*
X29268200Y-39847800D01*
X18939000Y-40664000D02*
X26141400Y-40664000D01*
X26141400Y-40664000D02*
X26957600Y-39847800D01*
X37641400Y-31138700D02*
X35447700Y-28945000D01*
X35447700Y-28945000D02*
X35447700Y-27768900D01*
X39181100Y-30295600D02*
X38338000Y-31138700D01*
%TO.N,KEY_PWR*%
D38*
X24377600Y-23405800D02*
X25551700Y-22231700D01*
X23090000Y-22633700D02*
X23862100Y-23405800D01*
X25551700Y-22231700D02*
X25551700Y-21351200D01*
X25551700Y-21351200D02*
X29764200Y-17138700D01*
X29764200Y-17138700D02*
X29764200Y-16317700D01*
X32460000Y-6251700D02*
X32071300Y-6640400D01*
X23090000Y-21705600D02*
X23090000Y-22633700D01*
X32460000Y-5150000D02*
X32460000Y-6251700D01*
X29764200Y-16317700D02*
X29764300Y-16317700D01*
X23862100Y-23405800D02*
X24377600Y-23405800D01*
%TO.N,VBAT*%
D40*
X27651700Y-13150200D02*
X27651700Y-4376900D01*
X27651700Y-4376900D02*
X27390300Y-4115500D01*
X27390300Y-4115500D02*
X13500000Y-4115500D01*
X27651700Y-13150200D02*
X30499700Y-13150200D01*
X27651700Y-13150200D02*
X25598700Y-13150200D01*
%TO.N,AMP_SD*%
D38*
X33748000Y-23671500D02*
X32562500Y-23671500D01*
X35116100Y-25039600D02*
X33748000Y-23671500D01*
X37712900Y-25039600D02*
X35116100Y-25039600D01*
%TD*%
M02*
