%TF.GenerationSoftware,KiCad,Pcbnew,10.0.6*%
%TF.CreationDate,2026-10-05T10:43:20-07:00*%
%TF.ProjectId,plush-toy-v2-B,706c7573-682d-4746-9f79-2d76322d422e,rev?*%
%TF.SameCoordinates,Original*%
%TF.FileFunction,Legend,Top*%
%TF.FilePolarity,Positive*%
%FSLAX46Y46*%
G04 Gerber Fmt 4.6, Leading zero omitted, Abs format (unit mm)*
G04 Created by KiCad (PCBNEW 10.0.6) date 2026-10-05 10:43:20*
%MOMM*%
%LPD*%
G01*
G04 APERTURE LIST*
G04 Aperture macros list*
%AMRoundRect*
0 Rectangle with rounded corners*
0 $1 Rounding radius*
0 $2 $3 $4 $5 $6 $7 $8 $9 X,Y pos of 4 corners*
0 Add a 4 corners polygon primitive as box body*
4,1,4,$2,$3,$4,$5,$6,$7,$8,$9,$2,$3,0*
0 Add four circle primitives for the rounded corners*
1,1,$1+$1,$2,$3*
1,1,$1+$1,$4,$5*
1,1,$1+$1,$6,$7*
1,1,$1+$1,$8,$9*
0 Add four rect primitives between the rounded corners*
20,1,$1+$1,$2,$3,$4,$5,0*
20,1,$1+$1,$4,$5,$6,$7,0*
20,1,$1+$1,$6,$7,$8,$9,0*
20,1,$1+$1,$8,$9,$2,$3,0*%
G04 Aperture macros list end*
%ADD10C,0.150000*%
%ADD11C,0.120000*%
%ADD12C,0.250000*%
%ADD13C,0.060000*%
%ADD14C,0.400000*%
%ADD15C,0.000000*%
%ADD16RoundRect,0.140000X-0.140000X-0.170000X0.140000X-0.170000X0.140000X0.170000X-0.140000X0.170000X0*%
%ADD17R,0.900000X1.500000*%
%ADD18R,1.500000X0.900000*%
%ADD19C,0.600000*%
%ADD20R,3.900000X3.900000*%
%ADD21R,1.230000X1.860000*%
%ADD22R,0.700000X1.750000*%
%ADD23R,1.200000X2.550000*%
%ADD24C,0.650000*%
%ADD25RoundRect,0.150000X-0.150000X-0.575000X0.150000X-0.575000X0.150000X0.575000X-0.150000X0.575000X0*%
%ADD26RoundRect,0.075000X-0.075000X-0.650000X0.075000X-0.650000X0.075000X0.650000X-0.075000X0.650000X0*%
%ADD27O,1.000000X2.100000*%
%ADD28O,1.000000X1.600000*%
%ADD29R,3.500000X1.500000*%
%ADD30RoundRect,0.150000X0.150000X0.625000X-0.150000X0.625000X-0.150000X-0.625000X0.150000X-0.625000X0*%
%ADD31RoundRect,0.250000X0.350000X0.650000X-0.350000X0.650000X-0.350000X-0.650000X0.350000X-0.650000X0*%
%ADD32C,2.200000*%
%ADD33R,3.200000X1.020000*%
%ADD34R,1.000000X3.500000*%
%ADD35R,1.800000X4.000000*%
%ADD36RoundRect,0.150000X-0.150000X-0.625000X0.150000X-0.625000X0.150000X0.625000X-0.150000X0.625000X0*%
%ADD37RoundRect,0.250000X-0.350000X-0.650000X0.350000X-0.650000X0.350000X0.650000X-0.350000X0.650000X0*%
%ADD38R,0.500000X1.700000*%
%ADD39R,1.200000X2.500000*%
%ADD40RoundRect,0.225000X-0.225000X-0.250000X0.225000X-0.250000X0.225000X0.250000X-0.225000X0.250000X0*%
G04 APERTURE END LIST*
D10*
X4609522Y-9857355D02*
X4533332Y-9819260D01*
X4533332Y-9819260D02*
X4419046Y-9819260D01*
X4419046Y-9819260D02*
X4304760Y-9857355D01*
X4304760Y-9857355D02*
X4228570Y-9933545D01*
X4228570Y-9933545D02*
X4190475Y-10009736D01*
X4190475Y-10009736D02*
X4152379Y-10162117D01*
X4152379Y-10162117D02*
X4152379Y-10276403D01*
X4152379Y-10276403D02*
X4190475Y-10428784D01*
X4190475Y-10428784D02*
X4228570Y-10504974D01*
X4228570Y-10504974D02*
X4304760Y-10581165D01*
X4304760Y-10581165D02*
X4419046Y-10619260D01*
X4419046Y-10619260D02*
X4495237Y-10619260D01*
X4495237Y-10619260D02*
X4609522Y-10581165D01*
X4609522Y-10581165D02*
X4647618Y-10543069D01*
X4647618Y-10543069D02*
X4647618Y-10276403D01*
X4647618Y-10276403D02*
X4495237Y-10276403D01*
X8387619Y-9112295D02*
X8006667Y-9112295D01*
X8006667Y-9112295D02*
X8006667Y-8312295D01*
X9111429Y-9036104D02*
X9073333Y-9074200D01*
X9073333Y-9074200D02*
X8959048Y-9112295D01*
X8959048Y-9112295D02*
X8882857Y-9112295D01*
X8882857Y-9112295D02*
X8768571Y-9074200D01*
X8768571Y-9074200D02*
X8692381Y-8998009D01*
X8692381Y-8998009D02*
X8654286Y-8921819D01*
X8654286Y-8921819D02*
X8616190Y-8769438D01*
X8616190Y-8769438D02*
X8616190Y-8655152D01*
X8616190Y-8655152D02*
X8654286Y-8502771D01*
X8654286Y-8502771D02*
X8692381Y-8426580D01*
X8692381Y-8426580D02*
X8768571Y-8350390D01*
X8768571Y-8350390D02*
X8882857Y-8312295D01*
X8882857Y-8312295D02*
X8959048Y-8312295D01*
X8959048Y-8312295D02*
X9073333Y-8350390D01*
X9073333Y-8350390D02*
X9111429Y-8388485D01*
X9454286Y-9112295D02*
X9454286Y-8312295D01*
X9454286Y-8312295D02*
X9644762Y-8312295D01*
X9644762Y-8312295D02*
X9759048Y-8350390D01*
X9759048Y-8350390D02*
X9835238Y-8426580D01*
X9835238Y-8426580D02*
X9873333Y-8502771D01*
X9873333Y-8502771D02*
X9911429Y-8655152D01*
X9911429Y-8655152D02*
X9911429Y-8769438D01*
X9911429Y-8769438D02*
X9873333Y-8921819D01*
X9873333Y-8921819D02*
X9835238Y-8998009D01*
X9835238Y-8998009D02*
X9759048Y-9074200D01*
X9759048Y-9074200D02*
X9644762Y-9112295D01*
X9644762Y-9112295D02*
X9454286Y-9112295D01*
X8066667Y-37612294D02*
X8066667Y-36812294D01*
X8066667Y-36812294D02*
X8523810Y-37612294D01*
X8523810Y-37612294D02*
X8523810Y-36812294D01*
X8790476Y-36812294D02*
X9247619Y-36812294D01*
X9019047Y-37612294D02*
X9019047Y-36812294D01*
X9971429Y-37536103D02*
X9933333Y-37574199D01*
X9933333Y-37574199D02*
X9819048Y-37612294D01*
X9819048Y-37612294D02*
X9742857Y-37612294D01*
X9742857Y-37612294D02*
X9628571Y-37574199D01*
X9628571Y-37574199D02*
X9552381Y-37498008D01*
X9552381Y-37498008D02*
X9514286Y-37421818D01*
X9514286Y-37421818D02*
X9476190Y-37269437D01*
X9476190Y-37269437D02*
X9476190Y-37155151D01*
X9476190Y-37155151D02*
X9514286Y-37002770D01*
X9514286Y-37002770D02*
X9552381Y-36926579D01*
X9552381Y-36926579D02*
X9628571Y-36850389D01*
X9628571Y-36850389D02*
X9742857Y-36812294D01*
X9742857Y-36812294D02*
X9819048Y-36812294D01*
X9819048Y-36812294D02*
X9933333Y-36850389D01*
X9933333Y-36850389D02*
X9971429Y-36888484D01*
X12649523Y-9933545D02*
X12573333Y-9895450D01*
X12573333Y-9895450D02*
X12459047Y-9895450D01*
X12459047Y-9895450D02*
X12344761Y-9933545D01*
X12344761Y-9933545D02*
X12268571Y-10009735D01*
X12268571Y-10009735D02*
X12230476Y-10085926D01*
X12230476Y-10085926D02*
X12192380Y-10238307D01*
X12192380Y-10238307D02*
X12192380Y-10352593D01*
X12192380Y-10352593D02*
X12230476Y-10504974D01*
X12230476Y-10504974D02*
X12268571Y-10581164D01*
X12268571Y-10581164D02*
X12344761Y-10657355D01*
X12344761Y-10657355D02*
X12459047Y-10695450D01*
X12459047Y-10695450D02*
X12535238Y-10695450D01*
X12535238Y-10695450D02*
X12649523Y-10657355D01*
X12649523Y-10657355D02*
X12687619Y-10619259D01*
X12687619Y-10619259D02*
X12687619Y-10352593D01*
X12687619Y-10352593D02*
X12535238Y-10352593D01*
X12709523Y-35381521D02*
X12633333Y-35343426D01*
X12633333Y-35343426D02*
X12519047Y-35343426D01*
X12519047Y-35343426D02*
X12404761Y-35381521D01*
X12404761Y-35381521D02*
X12328571Y-35457711D01*
X12328571Y-35457711D02*
X12290476Y-35533902D01*
X12290476Y-35533902D02*
X12252380Y-35686283D01*
X12252380Y-35686283D02*
X12252380Y-35800569D01*
X12252380Y-35800569D02*
X12290476Y-35952950D01*
X12290476Y-35952950D02*
X12328571Y-36029140D01*
X12328571Y-36029140D02*
X12404761Y-36105331D01*
X12404761Y-36105331D02*
X12519047Y-36143426D01*
X12519047Y-36143426D02*
X12595238Y-36143426D01*
X12595238Y-36143426D02*
X12709523Y-36105331D01*
X12709523Y-36105331D02*
X12747619Y-36067235D01*
X12747619Y-36067235D02*
X12747619Y-35800569D01*
X12747619Y-35800569D02*
X12595238Y-35800569D01*
X13971428Y-37574199D02*
X14085714Y-37612294D01*
X14085714Y-37612294D02*
X14276190Y-37612294D01*
X14276190Y-37612294D02*
X14352381Y-37574199D01*
X14352381Y-37574199D02*
X14390476Y-37536103D01*
X14390476Y-37536103D02*
X14428571Y-37459913D01*
X14428571Y-37459913D02*
X14428571Y-37383722D01*
X14428571Y-37383722D02*
X14390476Y-37307532D01*
X14390476Y-37307532D02*
X14352381Y-37269437D01*
X14352381Y-37269437D02*
X14276190Y-37231341D01*
X14276190Y-37231341D02*
X14123809Y-37193246D01*
X14123809Y-37193246D02*
X14047619Y-37155151D01*
X14047619Y-37155151D02*
X14009524Y-37117056D01*
X14009524Y-37117056D02*
X13971428Y-37040865D01*
X13971428Y-37040865D02*
X13971428Y-36964675D01*
X13971428Y-36964675D02*
X14009524Y-36888484D01*
X14009524Y-36888484D02*
X14047619Y-36850389D01*
X14047619Y-36850389D02*
X14123809Y-36812294D01*
X14123809Y-36812294D02*
X14314286Y-36812294D01*
X14314286Y-36812294D02*
X14428571Y-36850389D01*
X14771429Y-37612294D02*
X14771429Y-36812294D01*
X14771429Y-36812294D02*
X15076191Y-36812294D01*
X15076191Y-36812294D02*
X15152381Y-36850389D01*
X15152381Y-36850389D02*
X15190476Y-36888484D01*
X15190476Y-36888484D02*
X15228572Y-36964675D01*
X15228572Y-36964675D02*
X15228572Y-37078960D01*
X15228572Y-37078960D02*
X15190476Y-37155151D01*
X15190476Y-37155151D02*
X15152381Y-37193246D01*
X15152381Y-37193246D02*
X15076191Y-37231341D01*
X15076191Y-37231341D02*
X14771429Y-37231341D01*
X15571429Y-37612294D02*
X15571429Y-36812294D01*
X16028572Y-37612294D02*
X15685714Y-37155151D01*
X16028572Y-36812294D02*
X15571429Y-37269437D01*
X17195238Y-37876283D02*
X17804762Y-37876283D01*
X17500000Y-38181045D02*
X17500000Y-37571521D01*
X18195238Y-36295807D02*
X18804762Y-36295807D01*
X22009523Y-9089259D02*
X21933333Y-9051164D01*
X21933333Y-9051164D02*
X21819047Y-9051164D01*
X21819047Y-9051164D02*
X21704761Y-9089259D01*
X21704761Y-9089259D02*
X21628571Y-9165449D01*
X21628571Y-9165449D02*
X21590476Y-9241640D01*
X21590476Y-9241640D02*
X21552380Y-9394021D01*
X21552380Y-9394021D02*
X21552380Y-9508307D01*
X21552380Y-9508307D02*
X21590476Y-9660688D01*
X21590476Y-9660688D02*
X21628571Y-9736878D01*
X21628571Y-9736878D02*
X21704761Y-9813069D01*
X21704761Y-9813069D02*
X21819047Y-9851164D01*
X21819047Y-9851164D02*
X21895238Y-9851164D01*
X21895238Y-9851164D02*
X22009523Y-9813069D01*
X22009523Y-9813069D02*
X22047619Y-9774973D01*
X22047619Y-9774973D02*
X22047619Y-9508307D01*
X22047619Y-9508307D02*
X21895238Y-9508307D01*
X21909523Y-33593247D02*
X22023809Y-33631342D01*
X22023809Y-33631342D02*
X22061904Y-33669438D01*
X22061904Y-33669438D02*
X22100000Y-33745628D01*
X22100000Y-33745628D02*
X22100000Y-33859914D01*
X22100000Y-33859914D02*
X22061904Y-33936104D01*
X22061904Y-33936104D02*
X22023809Y-33974200D01*
X22023809Y-33974200D02*
X21947619Y-34012295D01*
X21947619Y-34012295D02*
X21642857Y-34012295D01*
X21642857Y-34012295D02*
X21642857Y-33212295D01*
X21642857Y-33212295D02*
X21909523Y-33212295D01*
X21909523Y-33212295D02*
X21985714Y-33250390D01*
X21985714Y-33250390D02*
X22023809Y-33288485D01*
X22023809Y-33288485D02*
X22061904Y-33364676D01*
X22061904Y-33364676D02*
X22061904Y-33440866D01*
X22061904Y-33440866D02*
X22023809Y-33517057D01*
X22023809Y-33517057D02*
X21985714Y-33555152D01*
X21985714Y-33555152D02*
X21909523Y-33593247D01*
X21909523Y-33593247D02*
X21642857Y-33593247D01*
X22404761Y-33783723D02*
X22785714Y-33783723D01*
X22328571Y-34012295D02*
X22595238Y-33212295D01*
X22595238Y-33212295D02*
X22861904Y-34012295D01*
X23014285Y-33212295D02*
X23471428Y-33212295D01*
X23242856Y-34012295D02*
X23242856Y-33212295D01*
X24195238Y-34826283D02*
X24804762Y-34826283D01*
X26009522Y-9089259D02*
X25933332Y-9051164D01*
X25933332Y-9051164D02*
X25819046Y-9051164D01*
X25819046Y-9051164D02*
X25704760Y-9089259D01*
X25704760Y-9089259D02*
X25628570Y-9165449D01*
X25628570Y-9165449D02*
X25590475Y-9241640D01*
X25590475Y-9241640D02*
X25552379Y-9394021D01*
X25552379Y-9394021D02*
X25552379Y-9508307D01*
X25552379Y-9508307D02*
X25590475Y-9660688D01*
X25590475Y-9660688D02*
X25628570Y-9736878D01*
X25628570Y-9736878D02*
X25704760Y-9813069D01*
X25704760Y-9813069D02*
X25819046Y-9851164D01*
X25819046Y-9851164D02*
X25895237Y-9851164D01*
X25895237Y-9851164D02*
X26009522Y-9813069D01*
X26009522Y-9813069D02*
X26047618Y-9774973D01*
X26047618Y-9774973D02*
X26047618Y-9508307D01*
X26047618Y-9508307D02*
X25895237Y-9508307D01*
X26195238Y-34826283D02*
X26804762Y-34826283D01*
X26500000Y-35131045D02*
X26500000Y-34521521D01*
X27442856Y-10132295D02*
X27442856Y-9332295D01*
X27442856Y-9332295D02*
X27709522Y-9903723D01*
X27709522Y-9903723D02*
X27976189Y-9332295D01*
X27976189Y-9332295D02*
X27976189Y-10132295D01*
X28357142Y-10132295D02*
X28357142Y-9332295D01*
X29195237Y-10056104D02*
X29157141Y-10094200D01*
X29157141Y-10094200D02*
X29042856Y-10132295D01*
X29042856Y-10132295D02*
X28966665Y-10132295D01*
X28966665Y-10132295D02*
X28852379Y-10094200D01*
X28852379Y-10094200D02*
X28776189Y-10018009D01*
X28776189Y-10018009D02*
X28738094Y-9941819D01*
X28738094Y-9941819D02*
X28699998Y-9789438D01*
X28699998Y-9789438D02*
X28699998Y-9675152D01*
X28699998Y-9675152D02*
X28738094Y-9522771D01*
X28738094Y-9522771D02*
X28776189Y-9446580D01*
X28776189Y-9446580D02*
X28852379Y-9370390D01*
X28852379Y-9370390D02*
X28966665Y-9332295D01*
X28966665Y-9332295D02*
X29042856Y-9332295D01*
X29042856Y-9332295D02*
X29157141Y-9370390D01*
X29157141Y-9370390D02*
X29195237Y-9408485D01*
X30669522Y-6681639D02*
X30593332Y-6643544D01*
X30593332Y-6643544D02*
X30479046Y-6643544D01*
X30479046Y-6643544D02*
X30364760Y-6681639D01*
X30364760Y-6681639D02*
X30288570Y-6757829D01*
X30288570Y-6757829D02*
X30250475Y-6834020D01*
X30250475Y-6834020D02*
X30212379Y-6986401D01*
X30212379Y-6986401D02*
X30212379Y-7100687D01*
X30212379Y-7100687D02*
X30250475Y-7253068D01*
X30250475Y-7253068D02*
X30288570Y-7329258D01*
X30288570Y-7329258D02*
X30364760Y-7405449D01*
X30364760Y-7405449D02*
X30479046Y-7443544D01*
X30479046Y-7443544D02*
X30555237Y-7443544D01*
X30555237Y-7443544D02*
X30669522Y-7405449D01*
X30669522Y-7405449D02*
X30707618Y-7367353D01*
X30707618Y-7367353D02*
X30707618Y-7100687D01*
X30707618Y-7100687D02*
X30555237Y-7100687D01*
X31721666Y-31168318D02*
X31721666Y-30368318D01*
X31721666Y-30749270D02*
X32178809Y-30749270D01*
X32178809Y-31168318D02*
X32178809Y-30368318D01*
X32559761Y-30749270D02*
X32826427Y-30749270D01*
X32940713Y-31168318D02*
X32559761Y-31168318D01*
X32559761Y-31168318D02*
X32559761Y-30368318D01*
X32559761Y-30368318D02*
X32940713Y-30368318D01*
X33245475Y-30939746D02*
X33626428Y-30939746D01*
X33169285Y-31168318D02*
X33435952Y-30368318D01*
X33435952Y-30368318D02*
X33702618Y-31168318D01*
X33854999Y-30368318D02*
X34312142Y-30368318D01*
X34083570Y-31168318D02*
X34083570Y-30368318D01*
X29740713Y-32265797D02*
X30731189Y-32265797D01*
X29740713Y-32037225D02*
X29740713Y-32341987D01*
X29778808Y-31922939D02*
X30693094Y-31922939D01*
X29778808Y-31694368D02*
X29778808Y-31922939D01*
X30235951Y-31541987D02*
X30235951Y-32456273D01*
X29740713Y-32037225D02*
X30731189Y-32037225D01*
X30731189Y-32037225D02*
X30731189Y-32341987D01*
X29778808Y-31694368D02*
X30693094Y-31694368D01*
X30693094Y-31694368D02*
X30693094Y-31922939D01*
X31035951Y-32456273D02*
X31035951Y-31656273D01*
X31493094Y-32456273D02*
X31150236Y-31999130D01*
X31493094Y-31656273D02*
X31035951Y-32113416D01*
X31797855Y-32418178D02*
X31912141Y-32456273D01*
X31912141Y-32456273D02*
X32102617Y-32456273D01*
X32102617Y-32456273D02*
X32178808Y-32418178D01*
X32178808Y-32418178D02*
X32216903Y-32380082D01*
X32216903Y-32380082D02*
X32254998Y-32303892D01*
X32254998Y-32303892D02*
X32254998Y-32227701D01*
X32254998Y-32227701D02*
X32216903Y-32151511D01*
X32216903Y-32151511D02*
X32178808Y-32113416D01*
X32178808Y-32113416D02*
X32102617Y-32075320D01*
X32102617Y-32075320D02*
X31950236Y-32037225D01*
X31950236Y-32037225D02*
X31874046Y-31999130D01*
X31874046Y-31999130D02*
X31835951Y-31961035D01*
X31835951Y-31961035D02*
X31797855Y-31884844D01*
X31797855Y-31884844D02*
X31797855Y-31808654D01*
X31797855Y-31808654D02*
X31835951Y-31732463D01*
X31835951Y-31732463D02*
X31874046Y-31694368D01*
X31874046Y-31694368D02*
X31950236Y-31656273D01*
X31950236Y-31656273D02*
X32140713Y-31656273D01*
X32140713Y-31656273D02*
X32254998Y-31694368D01*
X32597856Y-32456273D02*
X32597856Y-31656273D01*
X32597856Y-31656273D02*
X32788332Y-31656273D01*
X32788332Y-31656273D02*
X32902618Y-31694368D01*
X32902618Y-31694368D02*
X32978808Y-31770558D01*
X32978808Y-31770558D02*
X33016903Y-31846749D01*
X33016903Y-31846749D02*
X33054999Y-31999130D01*
X33054999Y-31999130D02*
X33054999Y-32113416D01*
X33054999Y-32113416D02*
X33016903Y-32265797D01*
X33016903Y-32265797D02*
X32978808Y-32341987D01*
X32978808Y-32341987D02*
X32902618Y-32418178D01*
X32902618Y-32418178D02*
X32788332Y-32456273D01*
X32788332Y-32456273D02*
X32597856Y-32456273D01*
X33435951Y-32456273D02*
X33588332Y-32456273D01*
X33588332Y-32456273D02*
X33664522Y-32418178D01*
X33664522Y-32418178D02*
X33702618Y-32380082D01*
X33702618Y-32380082D02*
X33778808Y-32265797D01*
X33778808Y-32265797D02*
X33816903Y-32113416D01*
X33816903Y-32113416D02*
X33816903Y-31808654D01*
X33816903Y-31808654D02*
X33778808Y-31732463D01*
X33778808Y-31732463D02*
X33740713Y-31694368D01*
X33740713Y-31694368D02*
X33664522Y-31656273D01*
X33664522Y-31656273D02*
X33512141Y-31656273D01*
X33512141Y-31656273D02*
X33435951Y-31694368D01*
X33435951Y-31694368D02*
X33397856Y-31732463D01*
X33397856Y-31732463D02*
X33359760Y-31808654D01*
X33359760Y-31808654D02*
X33359760Y-31999130D01*
X33359760Y-31999130D02*
X33397856Y-32075320D01*
X33397856Y-32075320D02*
X33435951Y-32113416D01*
X33435951Y-32113416D02*
X33512141Y-32151511D01*
X33512141Y-32151511D02*
X33664522Y-32151511D01*
X33664522Y-32151511D02*
X33740713Y-32113416D01*
X33740713Y-32113416D02*
X33778808Y-32075320D01*
X33778808Y-32075320D02*
X33816903Y-31999130D01*
X34083570Y-31656273D02*
X34616904Y-31656273D01*
X34616904Y-31656273D02*
X34274046Y-32456273D01*
X35074047Y-31656273D02*
X35150237Y-31656273D01*
X35150237Y-31656273D02*
X35226428Y-31694368D01*
X35226428Y-31694368D02*
X35264523Y-31732463D01*
X35264523Y-31732463D02*
X35302618Y-31808654D01*
X35302618Y-31808654D02*
X35340713Y-31961035D01*
X35340713Y-31961035D02*
X35340713Y-32151511D01*
X35340713Y-32151511D02*
X35302618Y-32303892D01*
X35302618Y-32303892D02*
X35264523Y-32380082D01*
X35264523Y-32380082D02*
X35226428Y-32418178D01*
X35226428Y-32418178D02*
X35150237Y-32456273D01*
X35150237Y-32456273D02*
X35074047Y-32456273D01*
X35074047Y-32456273D02*
X34997856Y-32418178D01*
X34997856Y-32418178D02*
X34959761Y-32380082D01*
X34959761Y-32380082D02*
X34921666Y-32303892D01*
X34921666Y-32303892D02*
X34883570Y-32151511D01*
X34883570Y-32151511D02*
X34883570Y-31961035D01*
X34883570Y-31961035D02*
X34921666Y-31808654D01*
X34921666Y-31808654D02*
X34959761Y-31732463D01*
X34959761Y-31732463D02*
X34997856Y-31694368D01*
X34997856Y-31694368D02*
X35074047Y-31656273D01*
X35835952Y-31656273D02*
X35912142Y-31656273D01*
X35912142Y-31656273D02*
X35988333Y-31694368D01*
X35988333Y-31694368D02*
X36026428Y-31732463D01*
X36026428Y-31732463D02*
X36064523Y-31808654D01*
X36064523Y-31808654D02*
X36102618Y-31961035D01*
X36102618Y-31961035D02*
X36102618Y-32151511D01*
X36102618Y-32151511D02*
X36064523Y-32303892D01*
X36064523Y-32303892D02*
X36026428Y-32380082D01*
X36026428Y-32380082D02*
X35988333Y-32418178D01*
X35988333Y-32418178D02*
X35912142Y-32456273D01*
X35912142Y-32456273D02*
X35835952Y-32456273D01*
X35835952Y-32456273D02*
X35759761Y-32418178D01*
X35759761Y-32418178D02*
X35721666Y-32380082D01*
X35721666Y-32380082D02*
X35683571Y-32303892D01*
X35683571Y-32303892D02*
X35645475Y-32151511D01*
X35645475Y-32151511D02*
X35645475Y-31961035D01*
X35645475Y-31961035D02*
X35683571Y-31808654D01*
X35683571Y-31808654D02*
X35721666Y-31732463D01*
X35721666Y-31732463D02*
X35759761Y-31694368D01*
X35759761Y-31694368D02*
X35835952Y-31656273D01*
X33545713Y-8562294D02*
X33545713Y-7762294D01*
X34002856Y-8562294D02*
X33659998Y-8105151D01*
X34002856Y-7762294D02*
X33545713Y-8219437D01*
X34345713Y-8143246D02*
X34612379Y-8143246D01*
X34726665Y-8562294D02*
X34345713Y-8562294D01*
X34345713Y-8562294D02*
X34345713Y-7762294D01*
X34345713Y-7762294D02*
X34726665Y-7762294D01*
X35221904Y-8181341D02*
X35221904Y-8562294D01*
X34955237Y-7762294D02*
X35221904Y-8181341D01*
X35221904Y-8181341D02*
X35488570Y-7762294D01*
X34590476Y-33947295D02*
X34590476Y-34594914D01*
X34590476Y-34594914D02*
X34628571Y-34671104D01*
X34628571Y-34671104D02*
X34666666Y-34709200D01*
X34666666Y-34709200D02*
X34742857Y-34747295D01*
X34742857Y-34747295D02*
X34895238Y-34747295D01*
X34895238Y-34747295D02*
X34971428Y-34709200D01*
X34971428Y-34709200D02*
X35009523Y-34671104D01*
X35009523Y-34671104D02*
X35047619Y-34594914D01*
X35047619Y-34594914D02*
X35047619Y-33947295D01*
X35390475Y-34709200D02*
X35504761Y-34747295D01*
X35504761Y-34747295D02*
X35695237Y-34747295D01*
X35695237Y-34747295D02*
X35771428Y-34709200D01*
X35771428Y-34709200D02*
X35809523Y-34671104D01*
X35809523Y-34671104D02*
X35847618Y-34594914D01*
X35847618Y-34594914D02*
X35847618Y-34518723D01*
X35847618Y-34518723D02*
X35809523Y-34442533D01*
X35809523Y-34442533D02*
X35771428Y-34404438D01*
X35771428Y-34404438D02*
X35695237Y-34366342D01*
X35695237Y-34366342D02*
X35542856Y-34328247D01*
X35542856Y-34328247D02*
X35466666Y-34290152D01*
X35466666Y-34290152D02*
X35428571Y-34252057D01*
X35428571Y-34252057D02*
X35390475Y-34175866D01*
X35390475Y-34175866D02*
X35390475Y-34099676D01*
X35390475Y-34099676D02*
X35428571Y-34023485D01*
X35428571Y-34023485D02*
X35466666Y-33985390D01*
X35466666Y-33985390D02*
X35542856Y-33947295D01*
X35542856Y-33947295D02*
X35733333Y-33947295D01*
X35733333Y-33947295D02*
X35847618Y-33985390D01*
X36457142Y-34328247D02*
X36571428Y-34366342D01*
X36571428Y-34366342D02*
X36609523Y-34404438D01*
X36609523Y-34404438D02*
X36647619Y-34480628D01*
X36647619Y-34480628D02*
X36647619Y-34594914D01*
X36647619Y-34594914D02*
X36609523Y-34671104D01*
X36609523Y-34671104D02*
X36571428Y-34709200D01*
X36571428Y-34709200D02*
X36495238Y-34747295D01*
X36495238Y-34747295D02*
X36190476Y-34747295D01*
X36190476Y-34747295D02*
X36190476Y-33947295D01*
X36190476Y-33947295D02*
X36457142Y-33947295D01*
X36457142Y-33947295D02*
X36533333Y-33985390D01*
X36533333Y-33985390D02*
X36571428Y-34023485D01*
X36571428Y-34023485D02*
X36609523Y-34099676D01*
X36609523Y-34099676D02*
X36609523Y-34175866D01*
X36609523Y-34175866D02*
X36571428Y-34252057D01*
X36571428Y-34252057D02*
X36533333Y-34290152D01*
X36533333Y-34290152D02*
X36457142Y-34328247D01*
X36457142Y-34328247D02*
X36190476Y-34328247D01*
X35802855Y-18533723D02*
X36183808Y-18533723D01*
X35726665Y-18762295D02*
X35993332Y-17962295D01*
X35993332Y-17962295D02*
X36259998Y-18762295D01*
X36983808Y-18762295D02*
X36717141Y-18381342D01*
X36526665Y-18762295D02*
X36526665Y-17962295D01*
X36526665Y-17962295D02*
X36831427Y-17962295D01*
X36831427Y-17962295D02*
X36907617Y-18000390D01*
X36907617Y-18000390D02*
X36945712Y-18038485D01*
X36945712Y-18038485D02*
X36983808Y-18114676D01*
X36983808Y-18114676D02*
X36983808Y-18228961D01*
X36983808Y-18228961D02*
X36945712Y-18305152D01*
X36945712Y-18305152D02*
X36907617Y-18343247D01*
X36907617Y-18343247D02*
X36831427Y-18381342D01*
X36831427Y-18381342D02*
X36526665Y-18381342D01*
X37326665Y-18762295D02*
X37326665Y-17962295D01*
X37326665Y-17962295D02*
X37593331Y-18533723D01*
X37593331Y-18533723D02*
X37859998Y-17962295D01*
X37859998Y-17962295D02*
X37859998Y-18762295D01*
X39307618Y-18762295D02*
X39040951Y-18381342D01*
X38850475Y-18762295D02*
X38850475Y-17962295D01*
X38850475Y-17962295D02*
X39155237Y-17962295D01*
X39155237Y-17962295D02*
X39231427Y-18000390D01*
X39231427Y-18000390D02*
X39269522Y-18038485D01*
X39269522Y-18038485D02*
X39307618Y-18114676D01*
X39307618Y-18114676D02*
X39307618Y-18228961D01*
X39307618Y-18228961D02*
X39269522Y-18305152D01*
X39269522Y-18305152D02*
X39231427Y-18343247D01*
X39231427Y-18343247D02*
X39155237Y-18381342D01*
X39155237Y-18381342D02*
X38850475Y-18381342D01*
X37305000Y-26257533D02*
X37914524Y-26257533D01*
X37305000Y-28757533D02*
X37914524Y-28757533D01*
X37609762Y-29062295D02*
X37609762Y-28452771D01*
X35955237Y-10233723D02*
X36336190Y-10233723D01*
X35879047Y-10462295D02*
X36145714Y-9662295D01*
X36145714Y-9662295D02*
X36412380Y-10462295D01*
X37136190Y-10462295D02*
X36869523Y-10081342D01*
X36679047Y-10462295D02*
X36679047Y-9662295D01*
X36679047Y-9662295D02*
X36983809Y-9662295D01*
X36983809Y-9662295D02*
X37059999Y-9700390D01*
X37059999Y-9700390D02*
X37098094Y-9738485D01*
X37098094Y-9738485D02*
X37136190Y-9814676D01*
X37136190Y-9814676D02*
X37136190Y-9928961D01*
X37136190Y-9928961D02*
X37098094Y-10005152D01*
X37098094Y-10005152D02*
X37059999Y-10043247D01*
X37059999Y-10043247D02*
X36983809Y-10081342D01*
X36983809Y-10081342D02*
X36679047Y-10081342D01*
X37479047Y-10462295D02*
X37479047Y-9662295D01*
X37479047Y-9662295D02*
X37745713Y-10233723D01*
X37745713Y-10233723D02*
X38012380Y-9662295D01*
X38012380Y-9662295D02*
X38012380Y-10462295D01*
X39383809Y-10462295D02*
X39002857Y-10462295D01*
X39002857Y-10462295D02*
X39002857Y-9662295D01*
X40433809Y-9662295D02*
X40052857Y-9662295D01*
X40052857Y-9662295D02*
X40014761Y-10043247D01*
X40014761Y-10043247D02*
X40052857Y-10005152D01*
X40052857Y-10005152D02*
X40129047Y-9967057D01*
X40129047Y-9967057D02*
X40319523Y-9967057D01*
X40319523Y-9967057D02*
X40395714Y-10005152D01*
X40395714Y-10005152D02*
X40433809Y-10043247D01*
X40433809Y-10043247D02*
X40471904Y-10119438D01*
X40471904Y-10119438D02*
X40471904Y-10309914D01*
X40471904Y-10309914D02*
X40433809Y-10386104D01*
X40433809Y-10386104D02*
X40395714Y-10424200D01*
X40395714Y-10424200D02*
X40319523Y-10462295D01*
X40319523Y-10462295D02*
X40129047Y-10462295D01*
X40129047Y-10462295D02*
X40052857Y-10424200D01*
X40052857Y-10424200D02*
X40014761Y-10386104D01*
X40700476Y-9662295D02*
X40967143Y-10462295D01*
X40967143Y-10462295D02*
X41233809Y-9662295D01*
X40433809Y-17962295D02*
X40052857Y-17962295D01*
X40052857Y-17962295D02*
X40014761Y-18343247D01*
X40014761Y-18343247D02*
X40052857Y-18305152D01*
X40052857Y-18305152D02*
X40129047Y-18267057D01*
X40129047Y-18267057D02*
X40319523Y-18267057D01*
X40319523Y-18267057D02*
X40395714Y-18305152D01*
X40395714Y-18305152D02*
X40433809Y-18343247D01*
X40433809Y-18343247D02*
X40471904Y-18419438D01*
X40471904Y-18419438D02*
X40471904Y-18609914D01*
X40471904Y-18609914D02*
X40433809Y-18686104D01*
X40433809Y-18686104D02*
X40395714Y-18724200D01*
X40395714Y-18724200D02*
X40319523Y-18762295D01*
X40319523Y-18762295D02*
X40129047Y-18762295D01*
X40129047Y-18762295D02*
X40052857Y-18724200D01*
X40052857Y-18724200D02*
X40014761Y-18686104D01*
X40700476Y-17962295D02*
X40967143Y-18762295D01*
X40967143Y-18762295D02*
X41233809Y-17962295D01*
X41119523Y-7160390D02*
X41043333Y-7122295D01*
X41043333Y-7122295D02*
X40929047Y-7122295D01*
X40929047Y-7122295D02*
X40814761Y-7160390D01*
X40814761Y-7160390D02*
X40738571Y-7236580D01*
X40738571Y-7236580D02*
X40700476Y-7312771D01*
X40700476Y-7312771D02*
X40662380Y-7465152D01*
X40662380Y-7465152D02*
X40662380Y-7579438D01*
X40662380Y-7579438D02*
X40700476Y-7731819D01*
X40700476Y-7731819D02*
X40738571Y-7808009D01*
X40738571Y-7808009D02*
X40814761Y-7884200D01*
X40814761Y-7884200D02*
X40929047Y-7922295D01*
X40929047Y-7922295D02*
X41005238Y-7922295D01*
X41005238Y-7922295D02*
X41119523Y-7884200D01*
X41119523Y-7884200D02*
X41157619Y-7846104D01*
X41157619Y-7846104D02*
X41157619Y-7579438D01*
X41157619Y-7579438D02*
X41005238Y-7579438D01*
X41119523Y-15460390D02*
X41043333Y-15422295D01*
X41043333Y-15422295D02*
X40929047Y-15422295D01*
X40929047Y-15422295D02*
X40814761Y-15460390D01*
X40814761Y-15460390D02*
X40738571Y-15536580D01*
X40738571Y-15536580D02*
X40700476Y-15612771D01*
X40700476Y-15612771D02*
X40662380Y-15765152D01*
X40662380Y-15765152D02*
X40662380Y-15879438D01*
X40662380Y-15879438D02*
X40700476Y-16031819D01*
X40700476Y-16031819D02*
X40738571Y-16108009D01*
X40738571Y-16108009D02*
X40814761Y-16184200D01*
X40814761Y-16184200D02*
X40929047Y-16222295D01*
X40929047Y-16222295D02*
X41005238Y-16222295D01*
X41005238Y-16222295D02*
X41119523Y-16184200D01*
X41119523Y-16184200D02*
X41157619Y-16146104D01*
X41157619Y-16146104D02*
X41157619Y-15879438D01*
X41157619Y-15879438D02*
X41005238Y-15879438D01*
X40700475Y-12964199D02*
X40814761Y-13002294D01*
X40814761Y-13002294D02*
X41005237Y-13002294D01*
X41005237Y-13002294D02*
X41081428Y-12964199D01*
X41081428Y-12964199D02*
X41119523Y-12926103D01*
X41119523Y-12926103D02*
X41157618Y-12849913D01*
X41157618Y-12849913D02*
X41157618Y-12773722D01*
X41157618Y-12773722D02*
X41119523Y-12697532D01*
X41119523Y-12697532D02*
X41081428Y-12659437D01*
X41081428Y-12659437D02*
X41005237Y-12621341D01*
X41005237Y-12621341D02*
X40852856Y-12583246D01*
X40852856Y-12583246D02*
X40776666Y-12545151D01*
X40776666Y-12545151D02*
X40738571Y-12507056D01*
X40738571Y-12507056D02*
X40700475Y-12430865D01*
X40700475Y-12430865D02*
X40700475Y-12354675D01*
X40700475Y-12354675D02*
X40738571Y-12278484D01*
X40738571Y-12278484D02*
X40776666Y-12240389D01*
X40776666Y-12240389D02*
X40852856Y-12202294D01*
X40852856Y-12202294D02*
X41043333Y-12202294D01*
X41043333Y-12202294D02*
X41157618Y-12240389D01*
X40700475Y-21264199D02*
X40814761Y-21302294D01*
X40814761Y-21302294D02*
X41005237Y-21302294D01*
X41005237Y-21302294D02*
X41081428Y-21264199D01*
X41081428Y-21264199D02*
X41119523Y-21226103D01*
X41119523Y-21226103D02*
X41157618Y-21149913D01*
X41157618Y-21149913D02*
X41157618Y-21073722D01*
X41157618Y-21073722D02*
X41119523Y-20997532D01*
X41119523Y-20997532D02*
X41081428Y-20959437D01*
X41081428Y-20959437D02*
X41005237Y-20921341D01*
X41005237Y-20921341D02*
X40852856Y-20883246D01*
X40852856Y-20883246D02*
X40776666Y-20845151D01*
X40776666Y-20845151D02*
X40738571Y-20807056D01*
X40738571Y-20807056D02*
X40700475Y-20730865D01*
X40700475Y-20730865D02*
X40700475Y-20654675D01*
X40700475Y-20654675D02*
X40738571Y-20578484D01*
X40738571Y-20578484D02*
X40776666Y-20540389D01*
X40776666Y-20540389D02*
X40852856Y-20502294D01*
X40852856Y-20502294D02*
X41043333Y-20502294D01*
X41043333Y-20502294D02*
X41157618Y-20540389D01*
X2462295Y-11835713D02*
X2462295Y-11378570D01*
X3262295Y-11607142D02*
X2462295Y-11607142D01*
X2462295Y-10959522D02*
X2462295Y-10807141D01*
X2462295Y-10807141D02*
X2500390Y-10730951D01*
X2500390Y-10730951D02*
X2576580Y-10654760D01*
X2576580Y-10654760D02*
X2728961Y-10616665D01*
X2728961Y-10616665D02*
X2995628Y-10616665D01*
X2995628Y-10616665D02*
X3148009Y-10654760D01*
X3148009Y-10654760D02*
X3224200Y-10730951D01*
X3224200Y-10730951D02*
X3262295Y-10807141D01*
X3262295Y-10807141D02*
X3262295Y-10959522D01*
X3262295Y-10959522D02*
X3224200Y-11035713D01*
X3224200Y-11035713D02*
X3148009Y-11111903D01*
X3148009Y-11111903D02*
X2995628Y-11149999D01*
X2995628Y-11149999D02*
X2728961Y-11149999D01*
X2728961Y-11149999D02*
X2576580Y-11111903D01*
X2576580Y-11111903D02*
X2500390Y-11035713D01*
X2500390Y-11035713D02*
X2462295Y-10959522D01*
X2462295Y-10273808D02*
X3109914Y-10273808D01*
X3109914Y-10273808D02*
X3186104Y-10235713D01*
X3186104Y-10235713D02*
X3224200Y-10197618D01*
X3224200Y-10197618D02*
X3262295Y-10121427D01*
X3262295Y-10121427D02*
X3262295Y-9969046D01*
X3262295Y-9969046D02*
X3224200Y-9892856D01*
X3224200Y-9892856D02*
X3186104Y-9854761D01*
X3186104Y-9854761D02*
X3109914Y-9816665D01*
X3109914Y-9816665D02*
X2462295Y-9816665D01*
X3186104Y-8978570D02*
X3224200Y-9016666D01*
X3224200Y-9016666D02*
X3262295Y-9130951D01*
X3262295Y-9130951D02*
X3262295Y-9207142D01*
X3262295Y-9207142D02*
X3224200Y-9321428D01*
X3224200Y-9321428D02*
X3148009Y-9397618D01*
X3148009Y-9397618D02*
X3071819Y-9435713D01*
X3071819Y-9435713D02*
X2919438Y-9473809D01*
X2919438Y-9473809D02*
X2805152Y-9473809D01*
X2805152Y-9473809D02*
X2652771Y-9435713D01*
X2652771Y-9435713D02*
X2576580Y-9397618D01*
X2576580Y-9397618D02*
X2500390Y-9321428D01*
X2500390Y-9321428D02*
X2462295Y-9207142D01*
X2462295Y-9207142D02*
X2462295Y-9130951D01*
X2462295Y-9130951D02*
X2500390Y-9016666D01*
X2500390Y-9016666D02*
X2538485Y-8978570D01*
X3262295Y-8635713D02*
X2462295Y-8635713D01*
X2843247Y-8635713D02*
X2843247Y-8178570D01*
X3262295Y-8178570D02*
X2462295Y-8178570D01*
X5343246Y-8890238D02*
X5343246Y-8623572D01*
X5762294Y-8509286D02*
X5762294Y-8890238D01*
X5762294Y-8890238D02*
X4962294Y-8890238D01*
X4962294Y-8890238D02*
X4962294Y-8509286D01*
X4962294Y-8014047D02*
X4962294Y-7937857D01*
X4962294Y-7937857D02*
X5000389Y-7861666D01*
X5000389Y-7861666D02*
X5038484Y-7823571D01*
X5038484Y-7823571D02*
X5114675Y-7785476D01*
X5114675Y-7785476D02*
X5267056Y-7747381D01*
X5267056Y-7747381D02*
X5457532Y-7747381D01*
X5457532Y-7747381D02*
X5609913Y-7785476D01*
X5609913Y-7785476D02*
X5686103Y-7823571D01*
X5686103Y-7823571D02*
X5724199Y-7861666D01*
X5724199Y-7861666D02*
X5762294Y-7937857D01*
X5762294Y-7937857D02*
X5762294Y-8014047D01*
X5762294Y-8014047D02*
X5724199Y-8090238D01*
X5724199Y-8090238D02*
X5686103Y-8128333D01*
X5686103Y-8128333D02*
X5609913Y-8166428D01*
X5609913Y-8166428D02*
X5457532Y-8204524D01*
X5457532Y-8204524D02*
X5267056Y-8204524D01*
X5267056Y-8204524D02*
X5114675Y-8166428D01*
X5114675Y-8166428D02*
X5038484Y-8128333D01*
X5038484Y-8128333D02*
X5000389Y-8090238D01*
X5000389Y-8090238D02*
X4962294Y-8014047D01*
X10383247Y-10737382D02*
X10421342Y-10623096D01*
X10421342Y-10623096D02*
X10459438Y-10585001D01*
X10459438Y-10585001D02*
X10535628Y-10546905D01*
X10535628Y-10546905D02*
X10649914Y-10546905D01*
X10649914Y-10546905D02*
X10726104Y-10585001D01*
X10726104Y-10585001D02*
X10764200Y-10623096D01*
X10764200Y-10623096D02*
X10802295Y-10699286D01*
X10802295Y-10699286D02*
X10802295Y-11004048D01*
X10802295Y-11004048D02*
X10002295Y-11004048D01*
X10002295Y-11004048D02*
X10002295Y-10737382D01*
X10002295Y-10737382D02*
X10040390Y-10661191D01*
X10040390Y-10661191D02*
X10078485Y-10623096D01*
X10078485Y-10623096D02*
X10154676Y-10585001D01*
X10154676Y-10585001D02*
X10230866Y-10585001D01*
X10230866Y-10585001D02*
X10307057Y-10623096D01*
X10307057Y-10623096D02*
X10345152Y-10661191D01*
X10345152Y-10661191D02*
X10383247Y-10737382D01*
X10383247Y-10737382D02*
X10383247Y-11004048D01*
X10802295Y-9823096D02*
X10802295Y-10204048D01*
X10802295Y-10204048D02*
X10002295Y-10204048D01*
X11002295Y-8928334D02*
X11002295Y-8433096D01*
X11002295Y-8433096D02*
X11307057Y-8699762D01*
X11307057Y-8699762D02*
X11307057Y-8585477D01*
X11307057Y-8585477D02*
X11345152Y-8509286D01*
X11345152Y-8509286D02*
X11383247Y-8471191D01*
X11383247Y-8471191D02*
X11459438Y-8433096D01*
X11459438Y-8433096D02*
X11649914Y-8433096D01*
X11649914Y-8433096D02*
X11726104Y-8471191D01*
X11726104Y-8471191D02*
X11764200Y-8509286D01*
X11764200Y-8509286D02*
X11802295Y-8585477D01*
X11802295Y-8585477D02*
X11802295Y-8814048D01*
X11802295Y-8814048D02*
X11764200Y-8890239D01*
X11764200Y-8890239D02*
X11726104Y-8928334D01*
X11002295Y-8204524D02*
X11802295Y-7937857D01*
X11802295Y-7937857D02*
X11002295Y-7671191D01*
X11862295Y-38214523D02*
X11062295Y-38214523D01*
X11062295Y-38214523D02*
X11862295Y-37757380D01*
X11862295Y-37757380D02*
X11062295Y-37757380D01*
X11062295Y-37490714D02*
X11062295Y-37033571D01*
X11862295Y-37262143D02*
X11062295Y-37262143D01*
X13726104Y-8547380D02*
X13764200Y-8585476D01*
X13764200Y-8585476D02*
X13802295Y-8699761D01*
X13802295Y-8699761D02*
X13802295Y-8775952D01*
X13802295Y-8775952D02*
X13764200Y-8890238D01*
X13764200Y-8890238D02*
X13688009Y-8966428D01*
X13688009Y-8966428D02*
X13611819Y-9004523D01*
X13611819Y-9004523D02*
X13459438Y-9042619D01*
X13459438Y-9042619D02*
X13345152Y-9042619D01*
X13345152Y-9042619D02*
X13192771Y-9004523D01*
X13192771Y-9004523D02*
X13116580Y-8966428D01*
X13116580Y-8966428D02*
X13040390Y-8890238D01*
X13040390Y-8890238D02*
X13002295Y-8775952D01*
X13002295Y-8775952D02*
X13002295Y-8699761D01*
X13002295Y-8699761D02*
X13040390Y-8585476D01*
X13040390Y-8585476D02*
X13078485Y-8547380D01*
X13802295Y-8204523D02*
X13002295Y-8204523D01*
X13802295Y-7747380D02*
X13345152Y-8090238D01*
X13002295Y-7747380D02*
X13459438Y-8204523D01*
X14802295Y-11042143D02*
X14002295Y-11042143D01*
X14002295Y-11042143D02*
X14002295Y-10851667D01*
X14002295Y-10851667D02*
X14040390Y-10737381D01*
X14040390Y-10737381D02*
X14116580Y-10661191D01*
X14116580Y-10661191D02*
X14192771Y-10623096D01*
X14192771Y-10623096D02*
X14345152Y-10585000D01*
X14345152Y-10585000D02*
X14459438Y-10585000D01*
X14459438Y-10585000D02*
X14611819Y-10623096D01*
X14611819Y-10623096D02*
X14688009Y-10661191D01*
X14688009Y-10661191D02*
X14764200Y-10737381D01*
X14764200Y-10737381D02*
X14802295Y-10851667D01*
X14802295Y-10851667D02*
X14802295Y-11042143D01*
X14573723Y-10280239D02*
X14573723Y-9899286D01*
X14802295Y-10356429D02*
X14002295Y-10089762D01*
X14002295Y-10089762D02*
X14802295Y-9823096D01*
X15802295Y-9004523D02*
X15002295Y-9004523D01*
X15002295Y-9004523D02*
X15002295Y-8814047D01*
X15002295Y-8814047D02*
X15040390Y-8699761D01*
X15040390Y-8699761D02*
X15116580Y-8623571D01*
X15116580Y-8623571D02*
X15192771Y-8585476D01*
X15192771Y-8585476D02*
X15345152Y-8547380D01*
X15345152Y-8547380D02*
X15459438Y-8547380D01*
X15459438Y-8547380D02*
X15611819Y-8585476D01*
X15611819Y-8585476D02*
X15688009Y-8623571D01*
X15688009Y-8623571D02*
X15764200Y-8699761D01*
X15764200Y-8699761D02*
X15802295Y-8814047D01*
X15802295Y-8814047D02*
X15802295Y-9004523D01*
X15726104Y-7747380D02*
X15764200Y-7785476D01*
X15764200Y-7785476D02*
X15802295Y-7899761D01*
X15802295Y-7899761D02*
X15802295Y-7975952D01*
X15802295Y-7975952D02*
X15764200Y-8090238D01*
X15764200Y-8090238D02*
X15688009Y-8166428D01*
X15688009Y-8166428D02*
X15611819Y-8204523D01*
X15611819Y-8204523D02*
X15459438Y-8242619D01*
X15459438Y-8242619D02*
X15345152Y-8242619D01*
X15345152Y-8242619D02*
X15192771Y-8204523D01*
X15192771Y-8204523D02*
X15116580Y-8166428D01*
X15116580Y-8166428D02*
X15040390Y-8090238D01*
X15040390Y-8090238D02*
X15002295Y-7975952D01*
X15002295Y-7975952D02*
X15002295Y-7899761D01*
X15002295Y-7899761D02*
X15040390Y-7785476D01*
X15040390Y-7785476D02*
X15078485Y-7747380D01*
X16726103Y-10661191D02*
X16764199Y-10699287D01*
X16764199Y-10699287D02*
X16802294Y-10813572D01*
X16802294Y-10813572D02*
X16802294Y-10889763D01*
X16802294Y-10889763D02*
X16764199Y-11004049D01*
X16764199Y-11004049D02*
X16688008Y-11080239D01*
X16688008Y-11080239D02*
X16611818Y-11118334D01*
X16611818Y-11118334D02*
X16459437Y-11156430D01*
X16459437Y-11156430D02*
X16345151Y-11156430D01*
X16345151Y-11156430D02*
X16192770Y-11118334D01*
X16192770Y-11118334D02*
X16116579Y-11080239D01*
X16116579Y-11080239D02*
X16040389Y-11004049D01*
X16040389Y-11004049D02*
X16002294Y-10889763D01*
X16002294Y-10889763D02*
X16002294Y-10813572D01*
X16002294Y-10813572D02*
X16040389Y-10699287D01*
X16040389Y-10699287D02*
X16078484Y-10661191D01*
X16764199Y-10356430D02*
X16802294Y-10242144D01*
X16802294Y-10242144D02*
X16802294Y-10051668D01*
X16802294Y-10051668D02*
X16764199Y-9975477D01*
X16764199Y-9975477D02*
X16726103Y-9937382D01*
X16726103Y-9937382D02*
X16649913Y-9899287D01*
X16649913Y-9899287D02*
X16573722Y-9899287D01*
X16573722Y-9899287D02*
X16497532Y-9937382D01*
X16497532Y-9937382D02*
X16459437Y-9975477D01*
X16459437Y-9975477D02*
X16421341Y-10051668D01*
X16421341Y-10051668D02*
X16383246Y-10204049D01*
X16383246Y-10204049D02*
X16345151Y-10280239D01*
X16345151Y-10280239D02*
X16307056Y-10318334D01*
X16307056Y-10318334D02*
X16230865Y-10356430D01*
X16230865Y-10356430D02*
X16154675Y-10356430D01*
X16154675Y-10356430D02*
X16078484Y-10318334D01*
X16078484Y-10318334D02*
X16040389Y-10280239D01*
X16040389Y-10280239D02*
X16002294Y-10204049D01*
X16002294Y-10204049D02*
X16002294Y-10013572D01*
X16002294Y-10013572D02*
X16040389Y-9899287D01*
X17802294Y-8509286D02*
X17421341Y-8775953D01*
X17802294Y-8966429D02*
X17002294Y-8966429D01*
X17002294Y-8966429D02*
X17002294Y-8661667D01*
X17002294Y-8661667D02*
X17040389Y-8585477D01*
X17040389Y-8585477D02*
X17078484Y-8547382D01*
X17078484Y-8547382D02*
X17154675Y-8509286D01*
X17154675Y-8509286D02*
X17268960Y-8509286D01*
X17268960Y-8509286D02*
X17345151Y-8547382D01*
X17345151Y-8547382D02*
X17383246Y-8585477D01*
X17383246Y-8585477D02*
X17421341Y-8661667D01*
X17421341Y-8661667D02*
X17421341Y-8966429D01*
X17764199Y-8204525D02*
X17802294Y-8090239D01*
X17802294Y-8090239D02*
X17802294Y-7899763D01*
X17802294Y-7899763D02*
X17764199Y-7823572D01*
X17764199Y-7823572D02*
X17726103Y-7785477D01*
X17726103Y-7785477D02*
X17649913Y-7747382D01*
X17649913Y-7747382D02*
X17573722Y-7747382D01*
X17573722Y-7747382D02*
X17497532Y-7785477D01*
X17497532Y-7785477D02*
X17459437Y-7823572D01*
X17459437Y-7823572D02*
X17421341Y-7899763D01*
X17421341Y-7899763D02*
X17383246Y-8052144D01*
X17383246Y-8052144D02*
X17345151Y-8128334D01*
X17345151Y-8128334D02*
X17307056Y-8166429D01*
X17307056Y-8166429D02*
X17230865Y-8204525D01*
X17230865Y-8204525D02*
X17154675Y-8204525D01*
X17154675Y-8204525D02*
X17078484Y-8166429D01*
X17078484Y-8166429D02*
X17040389Y-8128334D01*
X17040389Y-8128334D02*
X17002294Y-8052144D01*
X17002294Y-8052144D02*
X17002294Y-7861667D01*
X17002294Y-7861667D02*
X17040389Y-7747382D01*
X23086104Y-7817380D02*
X23124200Y-7855476D01*
X23124200Y-7855476D02*
X23162295Y-7969761D01*
X23162295Y-7969761D02*
X23162295Y-8045952D01*
X23162295Y-8045952D02*
X23124200Y-8160238D01*
X23124200Y-8160238D02*
X23048009Y-8236428D01*
X23048009Y-8236428D02*
X22971819Y-8274523D01*
X22971819Y-8274523D02*
X22819438Y-8312619D01*
X22819438Y-8312619D02*
X22705152Y-8312619D01*
X22705152Y-8312619D02*
X22552771Y-8274523D01*
X22552771Y-8274523D02*
X22476580Y-8236428D01*
X22476580Y-8236428D02*
X22400390Y-8160238D01*
X22400390Y-8160238D02*
X22362295Y-8045952D01*
X22362295Y-8045952D02*
X22362295Y-7969761D01*
X22362295Y-7969761D02*
X22400390Y-7855476D01*
X22400390Y-7855476D02*
X22438485Y-7817380D01*
X23162295Y-7474523D02*
X22362295Y-7474523D01*
X23162295Y-7017380D02*
X22705152Y-7360238D01*
X22362295Y-7017380D02*
X22819438Y-7474523D01*
X23362294Y-10464524D02*
X24162294Y-10274048D01*
X24162294Y-10274048D02*
X23590865Y-10121667D01*
X23590865Y-10121667D02*
X24162294Y-9969286D01*
X24162294Y-9969286D02*
X23362294Y-9778810D01*
X24124199Y-9512143D02*
X24162294Y-9397857D01*
X24162294Y-9397857D02*
X24162294Y-9207381D01*
X24162294Y-9207381D02*
X24124199Y-9131190D01*
X24124199Y-9131190D02*
X24086103Y-9093095D01*
X24086103Y-9093095D02*
X24009913Y-9055000D01*
X24009913Y-9055000D02*
X23933722Y-9055000D01*
X23933722Y-9055000D02*
X23857532Y-9093095D01*
X23857532Y-9093095D02*
X23819437Y-9131190D01*
X23819437Y-9131190D02*
X23781341Y-9207381D01*
X23781341Y-9207381D02*
X23743246Y-9359762D01*
X23743246Y-9359762D02*
X23705151Y-9435952D01*
X23705151Y-9435952D02*
X23667056Y-9474047D01*
X23667056Y-9474047D02*
X23590865Y-9512143D01*
X23590865Y-9512143D02*
X23514675Y-9512143D01*
X23514675Y-9512143D02*
X23438484Y-9474047D01*
X23438484Y-9474047D02*
X23400389Y-9435952D01*
X23400389Y-9435952D02*
X23362294Y-9359762D01*
X23362294Y-9359762D02*
X23362294Y-9169285D01*
X23362294Y-9169285D02*
X23400389Y-9055000D01*
X25124199Y-8274524D02*
X25162294Y-8160238D01*
X25162294Y-8160238D02*
X25162294Y-7969762D01*
X25162294Y-7969762D02*
X25124199Y-7893571D01*
X25124199Y-7893571D02*
X25086103Y-7855476D01*
X25086103Y-7855476D02*
X25009913Y-7817381D01*
X25009913Y-7817381D02*
X24933722Y-7817381D01*
X24933722Y-7817381D02*
X24857532Y-7855476D01*
X24857532Y-7855476D02*
X24819437Y-7893571D01*
X24819437Y-7893571D02*
X24781341Y-7969762D01*
X24781341Y-7969762D02*
X24743246Y-8122143D01*
X24743246Y-8122143D02*
X24705151Y-8198333D01*
X24705151Y-8198333D02*
X24667056Y-8236428D01*
X24667056Y-8236428D02*
X24590865Y-8274524D01*
X24590865Y-8274524D02*
X24514675Y-8274524D01*
X24514675Y-8274524D02*
X24438484Y-8236428D01*
X24438484Y-8236428D02*
X24400389Y-8198333D01*
X24400389Y-8198333D02*
X24362294Y-8122143D01*
X24362294Y-8122143D02*
X24362294Y-7931666D01*
X24362294Y-7931666D02*
X24400389Y-7817381D01*
X25162294Y-7474523D02*
X24362294Y-7474523D01*
X24362294Y-7474523D02*
X24362294Y-7284047D01*
X24362294Y-7284047D02*
X24400389Y-7169761D01*
X24400389Y-7169761D02*
X24476579Y-7093571D01*
X24476579Y-7093571D02*
X24552770Y-7055476D01*
X24552770Y-7055476D02*
X24705151Y-7017380D01*
X24705151Y-7017380D02*
X24819437Y-7017380D01*
X24819437Y-7017380D02*
X24971818Y-7055476D01*
X24971818Y-7055476D02*
X25048008Y-7093571D01*
X25048008Y-7093571D02*
X25124199Y-7169761D01*
X25124199Y-7169761D02*
X25162294Y-7284047D01*
X25162294Y-7284047D02*
X25162294Y-7474523D01*
X26362294Y-8198333D02*
X26362294Y-7703095D01*
X26362294Y-7703095D02*
X26667056Y-7969761D01*
X26667056Y-7969761D02*
X26667056Y-7855476D01*
X26667056Y-7855476D02*
X26705151Y-7779285D01*
X26705151Y-7779285D02*
X26743246Y-7741190D01*
X26743246Y-7741190D02*
X26819437Y-7703095D01*
X26819437Y-7703095D02*
X27009913Y-7703095D01*
X27009913Y-7703095D02*
X27086103Y-7741190D01*
X27086103Y-7741190D02*
X27124199Y-7779285D01*
X27124199Y-7779285D02*
X27162294Y-7855476D01*
X27162294Y-7855476D02*
X27162294Y-8084047D01*
X27162294Y-8084047D02*
X27124199Y-8160238D01*
X27124199Y-8160238D02*
X27086103Y-8198333D01*
X26362294Y-7474523D02*
X27162294Y-7207856D01*
X27162294Y-7207856D02*
X26362294Y-6941190D01*
X31822294Y-10361189D02*
X31022294Y-10361189D01*
X31022294Y-10361189D02*
X31593722Y-10094523D01*
X31593722Y-10094523D02*
X31022294Y-9827856D01*
X31022294Y-9827856D02*
X31822294Y-9827856D01*
X31022294Y-9446903D02*
X31669913Y-9446903D01*
X31669913Y-9446903D02*
X31746103Y-9408808D01*
X31746103Y-9408808D02*
X31784199Y-9370713D01*
X31784199Y-9370713D02*
X31822294Y-9294522D01*
X31822294Y-9294522D02*
X31822294Y-9142141D01*
X31822294Y-9142141D02*
X31784199Y-9065951D01*
X31784199Y-9065951D02*
X31746103Y-9027856D01*
X31746103Y-9027856D02*
X31669913Y-8989760D01*
X31669913Y-8989760D02*
X31022294Y-8989760D01*
X32822295Y-8018808D02*
X32022295Y-8018808D01*
X32022295Y-8018808D02*
X32022295Y-7714046D01*
X32022295Y-7714046D02*
X32060390Y-7637856D01*
X32060390Y-7637856D02*
X32098485Y-7599761D01*
X32098485Y-7599761D02*
X32174676Y-7561665D01*
X32174676Y-7561665D02*
X32288961Y-7561665D01*
X32288961Y-7561665D02*
X32365152Y-7599761D01*
X32365152Y-7599761D02*
X32403247Y-7637856D01*
X32403247Y-7637856D02*
X32441342Y-7714046D01*
X32441342Y-7714046D02*
X32441342Y-8018808D01*
X32022295Y-7294999D02*
X32822295Y-7104523D01*
X32822295Y-7104523D02*
X32250866Y-6952142D01*
X32250866Y-6952142D02*
X32822295Y-6799761D01*
X32822295Y-6799761D02*
X32022295Y-6609285D01*
X21690476Y-21562295D02*
X21690476Y-22209914D01*
X21690476Y-22209914D02*
X21728571Y-22286104D01*
X21728571Y-22286104D02*
X21766666Y-22324200D01*
X21766666Y-22324200D02*
X21842857Y-22362295D01*
X21842857Y-22362295D02*
X21995238Y-22362295D01*
X21995238Y-22362295D02*
X22071428Y-22324200D01*
X22071428Y-22324200D02*
X22109523Y-22286104D01*
X22109523Y-22286104D02*
X22147619Y-22209914D01*
X22147619Y-22209914D02*
X22147619Y-21562295D01*
X22947618Y-22362295D02*
X22490475Y-22362295D01*
X22719047Y-22362295D02*
X22719047Y-21562295D01*
X22719047Y-21562295D02*
X22642856Y-21676580D01*
X22642856Y-21676580D02*
X22566666Y-21752771D01*
X22566666Y-21752771D02*
X22490475Y-21790866D01*
X21223807Y-13909200D02*
X21338093Y-13947295D01*
X21338093Y-13947295D02*
X21528569Y-13947295D01*
X21528569Y-13947295D02*
X21604760Y-13909200D01*
X21604760Y-13909200D02*
X21642855Y-13871104D01*
X21642855Y-13871104D02*
X21680950Y-13794914D01*
X21680950Y-13794914D02*
X21680950Y-13718723D01*
X21680950Y-13718723D02*
X21642855Y-13642533D01*
X21642855Y-13642533D02*
X21604760Y-13604438D01*
X21604760Y-13604438D02*
X21528569Y-13566342D01*
X21528569Y-13566342D02*
X21376188Y-13528247D01*
X21376188Y-13528247D02*
X21299998Y-13490152D01*
X21299998Y-13490152D02*
X21261903Y-13452057D01*
X21261903Y-13452057D02*
X21223807Y-13375866D01*
X21223807Y-13375866D02*
X21223807Y-13299676D01*
X21223807Y-13299676D02*
X21261903Y-13223485D01*
X21261903Y-13223485D02*
X21299998Y-13185390D01*
X21299998Y-13185390D02*
X21376188Y-13147295D01*
X21376188Y-13147295D02*
X21566665Y-13147295D01*
X21566665Y-13147295D02*
X21680950Y-13185390D01*
X21947617Y-13147295D02*
X22138093Y-13947295D01*
X22138093Y-13947295D02*
X22290474Y-13375866D01*
X22290474Y-13375866D02*
X22442855Y-13947295D01*
X22442855Y-13947295D02*
X22633332Y-13147295D01*
X22747618Y-14023485D02*
X23357141Y-14023485D01*
X24004761Y-13947295D02*
X23738094Y-13566342D01*
X23547618Y-13947295D02*
X23547618Y-13147295D01*
X23547618Y-13147295D02*
X23852380Y-13147295D01*
X23852380Y-13147295D02*
X23928570Y-13185390D01*
X23928570Y-13185390D02*
X23966665Y-13223485D01*
X23966665Y-13223485D02*
X24004761Y-13299676D01*
X24004761Y-13299676D02*
X24004761Y-13413961D01*
X24004761Y-13413961D02*
X23966665Y-13490152D01*
X23966665Y-13490152D02*
X23928570Y-13528247D01*
X23928570Y-13528247D02*
X23852380Y-13566342D01*
X23852380Y-13566342D02*
X23547618Y-13566342D01*
X24309522Y-13909200D02*
X24423808Y-13947295D01*
X24423808Y-13947295D02*
X24614284Y-13947295D01*
X24614284Y-13947295D02*
X24690475Y-13909200D01*
X24690475Y-13909200D02*
X24728570Y-13871104D01*
X24728570Y-13871104D02*
X24766665Y-13794914D01*
X24766665Y-13794914D02*
X24766665Y-13718723D01*
X24766665Y-13718723D02*
X24728570Y-13642533D01*
X24728570Y-13642533D02*
X24690475Y-13604438D01*
X24690475Y-13604438D02*
X24614284Y-13566342D01*
X24614284Y-13566342D02*
X24461903Y-13528247D01*
X24461903Y-13528247D02*
X24385713Y-13490152D01*
X24385713Y-13490152D02*
X24347618Y-13452057D01*
X24347618Y-13452057D02*
X24309522Y-13375866D01*
X24309522Y-13375866D02*
X24309522Y-13299676D01*
X24309522Y-13299676D02*
X24347618Y-13223485D01*
X24347618Y-13223485D02*
X24385713Y-13185390D01*
X24385713Y-13185390D02*
X24461903Y-13147295D01*
X24461903Y-13147295D02*
X24652380Y-13147295D01*
X24652380Y-13147295D02*
X24766665Y-13185390D01*
X24995237Y-13147295D02*
X25452380Y-13147295D01*
X25223808Y-13947295D02*
X25223808Y-13147295D01*
X26666665Y-13909200D02*
X26780951Y-13947295D01*
X26780951Y-13947295D02*
X26971427Y-13947295D01*
X26971427Y-13947295D02*
X27047618Y-13909200D01*
X27047618Y-13909200D02*
X27085713Y-13871104D01*
X27085713Y-13871104D02*
X27123808Y-13794914D01*
X27123808Y-13794914D02*
X27123808Y-13718723D01*
X27123808Y-13718723D02*
X27085713Y-13642533D01*
X27085713Y-13642533D02*
X27047618Y-13604438D01*
X27047618Y-13604438D02*
X26971427Y-13566342D01*
X26971427Y-13566342D02*
X26819046Y-13528247D01*
X26819046Y-13528247D02*
X26742856Y-13490152D01*
X26742856Y-13490152D02*
X26704761Y-13452057D01*
X26704761Y-13452057D02*
X26666665Y-13375866D01*
X26666665Y-13375866D02*
X26666665Y-13299676D01*
X26666665Y-13299676D02*
X26704761Y-13223485D01*
X26704761Y-13223485D02*
X26742856Y-13185390D01*
X26742856Y-13185390D02*
X26819046Y-13147295D01*
X26819046Y-13147295D02*
X27009523Y-13147295D01*
X27009523Y-13147295D02*
X27123808Y-13185390D01*
X27390475Y-13147295D02*
X27580951Y-13947295D01*
X27580951Y-13947295D02*
X27733332Y-13375866D01*
X27733332Y-13375866D02*
X27885713Y-13947295D01*
X27885713Y-13947295D02*
X28076190Y-13147295D01*
X28190476Y-14023485D02*
X28799999Y-14023485D01*
X29257142Y-13528247D02*
X29371428Y-13566342D01*
X29371428Y-13566342D02*
X29409523Y-13604438D01*
X29409523Y-13604438D02*
X29447619Y-13680628D01*
X29447619Y-13680628D02*
X29447619Y-13794914D01*
X29447619Y-13794914D02*
X29409523Y-13871104D01*
X29409523Y-13871104D02*
X29371428Y-13909200D01*
X29371428Y-13909200D02*
X29295238Y-13947295D01*
X29295238Y-13947295D02*
X28990476Y-13947295D01*
X28990476Y-13947295D02*
X28990476Y-13147295D01*
X28990476Y-13147295D02*
X29257142Y-13147295D01*
X29257142Y-13147295D02*
X29333333Y-13185390D01*
X29333333Y-13185390D02*
X29371428Y-13223485D01*
X29371428Y-13223485D02*
X29409523Y-13299676D01*
X29409523Y-13299676D02*
X29409523Y-13375866D01*
X29409523Y-13375866D02*
X29371428Y-13452057D01*
X29371428Y-13452057D02*
X29333333Y-13490152D01*
X29333333Y-13490152D02*
X29257142Y-13528247D01*
X29257142Y-13528247D02*
X28990476Y-13528247D01*
X29942857Y-13147295D02*
X30095238Y-13147295D01*
X30095238Y-13147295D02*
X30171428Y-13185390D01*
X30171428Y-13185390D02*
X30247619Y-13261580D01*
X30247619Y-13261580D02*
X30285714Y-13413961D01*
X30285714Y-13413961D02*
X30285714Y-13680628D01*
X30285714Y-13680628D02*
X30247619Y-13833009D01*
X30247619Y-13833009D02*
X30171428Y-13909200D01*
X30171428Y-13909200D02*
X30095238Y-13947295D01*
X30095238Y-13947295D02*
X29942857Y-13947295D01*
X29942857Y-13947295D02*
X29866666Y-13909200D01*
X29866666Y-13909200D02*
X29790476Y-13833009D01*
X29790476Y-13833009D02*
X29752380Y-13680628D01*
X29752380Y-13680628D02*
X29752380Y-13413961D01*
X29752380Y-13413961D02*
X29790476Y-13261580D01*
X29790476Y-13261580D02*
X29866666Y-13185390D01*
X29866666Y-13185390D02*
X29942857Y-13147295D01*
X30780952Y-13147295D02*
X30933333Y-13147295D01*
X30933333Y-13147295D02*
X31009523Y-13185390D01*
X31009523Y-13185390D02*
X31085714Y-13261580D01*
X31085714Y-13261580D02*
X31123809Y-13413961D01*
X31123809Y-13413961D02*
X31123809Y-13680628D01*
X31123809Y-13680628D02*
X31085714Y-13833009D01*
X31085714Y-13833009D02*
X31009523Y-13909200D01*
X31009523Y-13909200D02*
X30933333Y-13947295D01*
X30933333Y-13947295D02*
X30780952Y-13947295D01*
X30780952Y-13947295D02*
X30704761Y-13909200D01*
X30704761Y-13909200D02*
X30628571Y-13833009D01*
X30628571Y-13833009D02*
X30590475Y-13680628D01*
X30590475Y-13680628D02*
X30590475Y-13413961D01*
X30590475Y-13413961D02*
X30628571Y-13261580D01*
X30628571Y-13261580D02*
X30704761Y-13185390D01*
X30704761Y-13185390D02*
X30780952Y-13147295D01*
X31352380Y-13147295D02*
X31809523Y-13147295D01*
X31580951Y-13947295D02*
X31580951Y-13147295D01*
%TO.C,C_U1*%
D11*
X3092164Y-32040000D02*
X3307836Y-32040000D01*
X3092164Y-32760000D02*
X3307836Y-32760000D01*
%TO.C,U1*%
X-6150000Y-12800000D02*
X50000Y-12800000D01*
X-6150000Y-31200000D02*
X-6150000Y-12800000D01*
X-6150000Y-31200000D02*
X50000Y-31200000D01*
X18700000Y-31200000D02*
X19700000Y-31200000D01*
X19700000Y-12800000D02*
X18700000Y-12800000D01*
X19700000Y-12800000D02*
X19700000Y-14300000D01*
X19700000Y-31200000D02*
X19700000Y-29700000D01*
X725000Y-31200000D02*
X725000Y-31700000D01*
X225000Y-31200000D01*
X725000Y-31200000D01*
G36*
X725000Y-31700000D02*
G01*
X225000Y-31200000D01*
X725000Y-31200000D01*
X725000Y-31700000D01*
G37*
%TO.C,SW_RST*%
D10*
X21270000Y-14460000D02*
X21270000Y-14890000D01*
X21270000Y-17540000D02*
X21270000Y-17110000D01*
X25330000Y-14460000D02*
X21270000Y-14460000D01*
X25330000Y-14460000D02*
X25330000Y-14890000D01*
X25330000Y-17110000D02*
X25330000Y-17540000D01*
X25330000Y-17540000D02*
X21270000Y-17540000D01*
D12*
X24200000Y-16000000D02*
G75*
G02*
X22400000Y-16000000I-900000J0D01*
G01*
X22400000Y-16000000D02*
G75*
G02*
X24200000Y-16000000I900000J0D01*
G01*
D13*
X25830000Y-14530000D02*
G75*
G02*
X25770000Y-14530000I-30000J0D01*
G01*
X25770000Y-14530000D02*
G75*
G02*
X25830000Y-14530000I30000J0D01*
G01*
%TO.C,J_MIC*%
D12*
X20090000Y-5055000D02*
X20090000Y-3405000D01*
X20090000Y-5055000D02*
X21220000Y-5055000D01*
X26980000Y-745000D02*
X21620000Y-745000D01*
X27620000Y-5055000D02*
X28510000Y-5055000D01*
X28510000Y-5055000D02*
X28510000Y-3405000D01*
X27860000Y-5665000D02*
G75*
G02*
X27600000Y-5665000I-130000J0D01*
G01*
X27600000Y-5665000D02*
G75*
G02*
X27860000Y-5665000I130000J0D01*
G01*
D13*
X28480000Y-5795000D02*
G75*
G02*
X28420000Y-5795000I-30000J0D01*
G01*
X28420000Y-5795000D02*
G75*
G02*
X28480000Y-5795000I30000J0D01*
G01*
%TO.C,J_USB*%
D11*
X30900000Y-39455000D02*
X30900000Y-41455000D01*
X30900000Y-43355000D02*
X30900000Y-45255000D01*
X30900000Y-45255000D02*
X40300000Y-45255000D01*
X40300000Y-39455000D02*
X40300000Y-41455000D01*
X40300000Y-43355000D02*
X40300000Y-45255000D01*
%TO.C,J_HEAT*%
D12*
X41500000Y-23650000D02*
X44450000Y-23650000D01*
X41500000Y-25220000D02*
X41500000Y-23650000D01*
X41500000Y-27200000D02*
X41500000Y-27180000D01*
X41500000Y-27560000D02*
X41500000Y-27720000D01*
X41500000Y-27700000D02*
X41500000Y-27200000D01*
X41500000Y-29680000D02*
X41500000Y-31150000D01*
X41500000Y-31150000D02*
X44550000Y-31150000D01*
X44450000Y-23650000D02*
X44550000Y-23650000D01*
X44550000Y-22450000D02*
X45850000Y-22450000D01*
X44550000Y-23650000D02*
X44550000Y-22450000D01*
X44550000Y-31150000D02*
X44550000Y-32450000D01*
X44550000Y-32450000D02*
X45850000Y-32450000D01*
X49260000Y-30700000D02*
X49260000Y-24200000D01*
D13*
X38830000Y-32450000D02*
G75*
G02*
X38770000Y-32450000I-30000J0D01*
G01*
X38770000Y-32450000D02*
G75*
G02*
X38830000Y-32450000I30000J0D01*
G01*
D14*
X40600000Y-30610000D02*
G75*
G02*
X40200000Y-30610000I-200000J0D01*
G01*
X40200000Y-30610000D02*
G75*
G02*
X40600000Y-30610000I200000J0D01*
G01*
%TO.C,J_TOUCH*%
D11*
X2790000Y-3060000D02*
X2790000Y-5560000D01*
X2790000Y-5560000D02*
X3840000Y-5560000D01*
X5840000Y-1090000D02*
X3960000Y-1090000D01*
X5960000Y-5560000D02*
X5960000Y-6550000D01*
X7010000Y-3060000D02*
X7010000Y-5560000D01*
X7010000Y-5560000D02*
X5960000Y-5560000D01*
%TO.C,J_LCD*%
X8830000Y-3060000D02*
X8830000Y-5560000D01*
X8830000Y-5560000D02*
X9880000Y-5560000D01*
X17880000Y-1090000D02*
X10000000Y-1090000D01*
X18000000Y-5560000D02*
X18000000Y-6550000D01*
X19050000Y-3060000D02*
X19050000Y-5560000D01*
X19050000Y-5560000D02*
X18000000Y-5560000D01*
%TO.C,J_ARM_R*%
D12*
X45235000Y-15530000D02*
X47055000Y-15530000D01*
X45235000Y-16180000D02*
X47055000Y-16180000D01*
X45235000Y-18070000D02*
X47055000Y-18070000D01*
X45235000Y-18720000D02*
X47055000Y-18720000D01*
X45235000Y-20610000D02*
X47055000Y-20610000D01*
X45235000Y-21260000D02*
X47055000Y-21260000D01*
X47055000Y-14530000D02*
X47055000Y-22260000D01*
X47055000Y-14530000D02*
X49555000Y-14530000D01*
X47055000Y-22260000D02*
X49555000Y-22260000D01*
X49555000Y-16190000D02*
X55555000Y-16190000D01*
X49555000Y-18730000D02*
X55555000Y-18730000D01*
X49555000Y-21270000D02*
X55555000Y-21270000D01*
X49555000Y-22260000D02*
X49555000Y-14530000D01*
X55555000Y-15530000D02*
X49555000Y-15530000D01*
X55555000Y-16190000D02*
X55555000Y-15530000D01*
X55555000Y-18070000D02*
X49555000Y-18070000D01*
X55555000Y-18730000D02*
X55555000Y-18070000D01*
X55555000Y-20610000D02*
X49555000Y-20610000D01*
X55555000Y-21270000D02*
X55555000Y-20610000D01*
D13*
X55585000Y-22210000D02*
G75*
G02*
X55525000Y-22210000I-30000J0D01*
G01*
X55525000Y-22210000D02*
G75*
G02*
X55585000Y-22210000I30000J0D01*
G01*
%TO.C,J_ARM_L*%
D12*
X45235000Y-7230000D02*
X47055000Y-7230000D01*
X45235000Y-7880000D02*
X47055000Y-7880000D01*
X45235000Y-9770000D02*
X47055000Y-9770000D01*
X45235000Y-10420000D02*
X47055000Y-10420000D01*
X45235000Y-12310000D02*
X47055000Y-12310000D01*
X45235000Y-12960000D02*
X47055000Y-12960000D01*
X47055000Y-6230000D02*
X47055000Y-13960000D01*
X47055000Y-6230000D02*
X49555000Y-6230000D01*
X47055000Y-13960000D02*
X49555000Y-13960000D01*
X49555000Y-7890000D02*
X55555000Y-7890000D01*
X49555000Y-10430000D02*
X55555000Y-10430000D01*
X49555000Y-12970000D02*
X55555000Y-12970000D01*
X49555000Y-13960000D02*
X49555000Y-6230000D01*
X55555000Y-7230000D02*
X49555000Y-7230000D01*
X55555000Y-7890000D02*
X55555000Y-7230000D01*
X55555000Y-9770000D02*
X49555000Y-9770000D01*
X55555000Y-10430000D02*
X55555000Y-9770000D01*
X55555000Y-12310000D02*
X49555000Y-12310000D01*
X55555000Y-12970000D02*
X55555000Y-12310000D01*
D13*
X55585000Y-13910000D02*
G75*
G02*
X55525000Y-13910000I-30000J0D01*
G01*
X55525000Y-13910000D02*
G75*
G02*
X55585000Y-13910000I30000J0D01*
G01*
%TO.C,J_BAT*%
D12*
X21500000Y-37480000D02*
X21500000Y-41270000D01*
X21500000Y-37480000D02*
X22450000Y-37480000D01*
X22450000Y-37480000D02*
X22450000Y-39280000D01*
X22450000Y-39280000D02*
X23770000Y-39280000D01*
X25230000Y-39280000D02*
X25770000Y-39280000D01*
X27230000Y-39280000D02*
X28550000Y-39280000D01*
X28130000Y-45280000D02*
X22870000Y-45280000D01*
X28550000Y-37500000D02*
X29560000Y-37500000D01*
X28550000Y-39280000D02*
X28550000Y-37500000D01*
X29560000Y-37500000D02*
X29560000Y-41270000D01*
D13*
X29530000Y-36480000D02*
G75*
G02*
X29470000Y-36480000I-30000J0D01*
G01*
X29470000Y-36480000D02*
G75*
G02*
X29530000Y-36480000I30000J0D01*
G01*
%TO.C,J_NTC*%
D11*
X9890000Y-40440000D02*
X10940000Y-40440000D01*
X9890000Y-42940000D02*
X9890000Y-40440000D01*
X10940000Y-40440000D02*
X10940000Y-39450000D01*
X11060000Y-44910000D02*
X12940000Y-44910000D01*
X14110000Y-40440000D02*
X13060000Y-40440000D01*
X14110000Y-42940000D02*
X14110000Y-40440000D01*
%TO.C,J_SPK*%
X15890000Y-40440000D02*
X16940000Y-40440000D01*
X15890000Y-42940000D02*
X15890000Y-40440000D01*
X16940000Y-40440000D02*
X16940000Y-39450000D01*
X17060000Y-44910000D02*
X18940000Y-44910000D01*
X20110000Y-40440000D02*
X19060000Y-40440000D01*
X20110000Y-42940000D02*
X20110000Y-40440000D01*
%TO.C,J_KEY*%
D12*
X28780000Y-5020000D02*
X28780000Y-3170000D01*
X29980000Y-5050000D02*
X28780000Y-5050000D01*
X30980000Y-5050000D02*
X30940000Y-5050000D01*
X31980000Y-5050000D02*
X31940000Y-5050000D01*
X32730000Y-750000D02*
X30190000Y-750000D01*
X32940000Y-5050000D02*
X34140000Y-5050000D01*
X34140000Y-5050000D02*
X34140000Y-3180000D01*
D13*
X34170000Y-5800000D02*
G75*
G02*
X34110000Y-5800000I-30000J0D01*
G01*
X34110000Y-5800000D02*
G75*
G02*
X34170000Y-5800000I30000J0D01*
G01*
D15*
G36*
X33237873Y-5658022D02*
G01*
X32983873Y-5277022D01*
X33491873Y-5277022D01*
X33237873Y-5658022D01*
G37*
%TO.C,SW_BOOT*%
D10*
X27170000Y-14460000D02*
X27170000Y-14890000D01*
X27170000Y-17540000D02*
X27170000Y-17110000D01*
X31230000Y-14460000D02*
X27170000Y-14460000D01*
X31230000Y-14460000D02*
X31230000Y-14890000D01*
X31230000Y-17110000D02*
X31230000Y-17540000D01*
X31230000Y-17540000D02*
X27170000Y-17540000D01*
D12*
X30100000Y-16000000D02*
G75*
G02*
X28300000Y-16000000I-900000J0D01*
G01*
X28300000Y-16000000D02*
G75*
G02*
X30100000Y-16000000I900000J0D01*
G01*
D13*
X31730000Y-14530000D02*
G75*
G02*
X31670000Y-14530000I-30000J0D01*
G01*
X31670000Y-14530000D02*
G75*
G02*
X31730000Y-14530000I30000J0D01*
G01*
%TO.C,C_U1_BULK*%
D11*
X3259420Y-33290000D02*
X3540580Y-33290000D01*
X3259420Y-34310000D02*
X3540580Y-34310000D01*
%TD*%
%LPC*%
D16*
%TO.C,C_U1*%
X2720000Y-32400000D03*
X3680000Y-32400000D03*
%TD*%
D17*
%TO.C,U1*%
X1490000Y-30750000D03*
X2760000Y-30750000D03*
X4030000Y-30750000D03*
X5300000Y-30750000D03*
X6570000Y-30750000D03*
X7840000Y-30750000D03*
X9110000Y-30750000D03*
X10380000Y-30750000D03*
X11650000Y-30750000D03*
X12920000Y-30750000D03*
X14190000Y-30750000D03*
X15460000Y-30750000D03*
X16730000Y-30750000D03*
X18000000Y-30750000D03*
D18*
X19250000Y-28985000D03*
X19250000Y-27715000D03*
X19250000Y-26445000D03*
X19250000Y-25175000D03*
X19250000Y-23905000D03*
X19250000Y-22635000D03*
X19250000Y-21365000D03*
X19250000Y-20095000D03*
X19250000Y-18825000D03*
X19250000Y-17555000D03*
X19250000Y-16285000D03*
X19250000Y-15015000D03*
D17*
X18000000Y-13250000D03*
X16730000Y-13250000D03*
X15460000Y-13250000D03*
X14190000Y-13250000D03*
X12920000Y-13250000D03*
X11650000Y-13250000D03*
X10380000Y-13250000D03*
X9110000Y-13250000D03*
X7840000Y-13250000D03*
X6570000Y-13250000D03*
X5300000Y-13250000D03*
X4030000Y-13250000D03*
X2760000Y-13250000D03*
X1490000Y-13250000D03*
D19*
X8510000Y-24900000D03*
X9910000Y-24900000D03*
X7810000Y-24200000D03*
X9210000Y-24200000D03*
X10610000Y-24200000D03*
X8510000Y-23500000D03*
D20*
X9210000Y-23500000D03*
D19*
X9910000Y-23500000D03*
X7810000Y-22800000D03*
X9210000Y-22800000D03*
X10610000Y-22800000D03*
X8510000Y-22100000D03*
X9910000Y-22100000D03*
%TD*%
D21*
%TO.C,SW_RST*%
X21120000Y-16000000D03*
X25480000Y-16000000D03*
%TD*%
D22*
%TO.C,J_MIC*%
X26800000Y-5495000D03*
X25800000Y-5495000D03*
X24800000Y-5495000D03*
X23800000Y-5495000D03*
X22800000Y-5495000D03*
X21800000Y-5495000D03*
D23*
X20690000Y-1775000D03*
X27910000Y-1775000D03*
%TD*%
D24*
%TO.C,J_USB*%
X32710000Y-38755000D03*
X38490000Y-38755000D03*
D25*
X32350000Y-37310000D03*
X33150000Y-37310000D03*
D26*
X34350000Y-37310000D03*
X35350000Y-37310000D03*
X35850000Y-37310000D03*
X36850000Y-37310000D03*
D25*
X38050000Y-37310000D03*
X38850000Y-37310000D03*
X38850000Y-37310000D03*
X38050000Y-37310000D03*
D26*
X37350000Y-37310000D03*
X36350000Y-37310000D03*
X34850000Y-37310000D03*
X33850000Y-37310000D03*
D25*
X33150000Y-37310000D03*
X32350000Y-37310000D03*
D27*
X31280000Y-38225000D03*
D28*
X31280000Y-42405000D03*
D27*
X39920000Y-38225000D03*
D28*
X39920000Y-42405000D03*
%TD*%
D29*
%TO.C,J_HEAT*%
X40350000Y-28700000D03*
X40350000Y-26200000D03*
X47750000Y-31680000D03*
X47750000Y-23220000D03*
%TD*%
D30*
%TO.C,J_TOUCH*%
X5400000Y-5775000D03*
X4400000Y-5775000D03*
D31*
X6700000Y-1900000D03*
X3100000Y-1900000D03*
%TD*%
D32*
%TO.C,H2*%
X23000000Y-27000000D03*
%TD*%
D30*
%TO.C,J_LCD*%
X17440000Y-5775000D03*
X16440000Y-5775000D03*
X15440000Y-5775000D03*
X14440000Y-5775000D03*
X13440000Y-5775000D03*
X12440000Y-5775000D03*
X11440000Y-5775000D03*
X10440000Y-5775000D03*
D31*
X18740000Y-1900000D03*
X9140000Y-1900000D03*
%TD*%
D33*
%TO.C,J_ARM_R*%
X43405000Y-20940000D03*
X43405000Y-18400000D03*
X43405000Y-15860000D03*
%TD*%
%TO.C,J_ARM_L*%
X43405000Y-12640000D03*
X43405000Y-10100000D03*
X43405000Y-7560000D03*
%TD*%
D34*
%TO.C,J_BAT*%
X26500000Y-37600000D03*
X24500000Y-37600000D03*
D35*
X22090000Y-43500000D03*
X28910000Y-43500000D03*
%TD*%
D36*
%TO.C,J_NTC*%
X11500000Y-40225000D03*
X12500000Y-40225000D03*
D37*
X10200000Y-44100000D03*
X13800000Y-44100000D03*
%TD*%
D36*
%TO.C,J_SPK*%
X17500000Y-40225000D03*
X18500000Y-40225000D03*
D37*
X16200000Y-44100000D03*
X19800000Y-44100000D03*
%TD*%
D38*
%TO.C,J_KEY*%
X32460000Y-5150000D03*
X31460000Y-5150000D03*
X30460000Y-5150000D03*
D39*
X33560000Y-1750000D03*
X29360000Y-1750000D03*
%TD*%
D21*
%TO.C,SW_BOOT*%
X27020000Y-16000000D03*
X31380000Y-16000000D03*
%TD*%
D40*
%TO.C,C_U1_BULK*%
X2625000Y-33800000D03*
X4175000Y-33800000D03*
%TD*%
D32*
%TO.C,H1*%
X28200000Y-27000000D03*
%TD*%
%LPD*%
M02*
