M48
; DRILL file KiCad 10.0.6 date 2026-10-05T10:43:21
; FORMAT={-:-/ absolute / metric / decimal}
; #@! TF.CreationDate,2026-10-05T10:43:21-07:00
; #@! TF.GenerationSoftware,Kicad,Pcbnew,10.0.6
; #@! TF.FileFunction,Plated,1,4,PTH
FMAT,2
METRIC
; #@! TA.AperFunction,Plated,PTH,ComponentDrill
T1C0.200
; #@! TA.AperFunction,Plated,PTH,ViaDrill
T2C0.300
; #@! TA.AperFunction,Plated,PTH,ViaDrill
T3C0.400
; #@! TA.AperFunction,Plated,PTH,ComponentDrill
T4C0.600
%
G90
G05
T1
X7.81Y-22.8
X7.81Y-24.2
X8.51Y-22.1
X8.51Y-23.5
X8.51Y-24.9
X9.21Y-22.8
X9.21Y-24.2
X9.91Y-22.1
X9.91Y-23.5
X9.91Y-24.9
X10.61Y-22.8
X10.61Y-24.2
X38.0Y-29.45
X38.0Y-30.55
T2
X1.49Y-13.25
X1.49Y-30.75
X1.725Y-33.8
X1.99Y-32.4
X2.76Y-30.75
X4.091Y-7.012
X4.41Y-32.4
X5.075Y-33.8
X5.46Y-8.75
X6.155Y-5.775
X6.196Y-31.955
X7.477Y-14.846
X7.5Y-9.0
X7.964Y-11.638
X10.25Y-8.04
X10.25Y-10.46
X10.77Y-42.25
X11.302Y-7.021
X11.613Y-9.882
X11.891Y-16.784
X12.393Y-14.504
X12.618Y-7.022
X12.809Y-38.988
X13.057Y-41.637
X13.23Y-42.74
X13.681Y-14.967
X14.007Y-19.565
X14.19Y-29.543
X14.231Y-10.98
X14.695Y-7.006
X14.919Y-17.472
X15.0Y-9.797
X15.46Y-29.535
X15.623Y-18.636
X15.937Y-33.914
X16.388Y-15.53
X16.632Y-11.007
X16.77Y-10.25
X16.791Y-8.483
X17.5Y-38.965
X17.575Y-20.091
X17.673Y-16.078
X18.392Y-7.764
X18.712Y-4.93
X18.73Y-36.0
X19.027Y-6.285
X19.23Y-12.0
X19.249Y-10.179
X19.5Y-37.21
X19.599Y-13.953
X19.848Y-7.479
X20.172Y-11.101
X20.401Y-13.953
X20.454Y-23.71
X20.46Y-17.8
X20.614Y-18.585
X20.996Y-19.505
X21.011Y-24.262
X21.468Y-17.821
X21.478Y-13.564
X21.8Y-5.495
X22.049Y-29.6
X22.118Y-14.77
X22.192Y-18.603
X23.09Y-21.706
X23.23Y-12.0
X23.27Y-10.0
X23.29Y-8.75
X23.343Y-15.387
X23.536Y-39.135
X24.15Y-22.852
X24.161Y-12.898
X24.36Y-14.6
X24.52Y-42.0
X25.0Y-21.0
X25.25Y-3.0
X25.71Y-8.75
X25.73Y-40.06
X25.8Y-5.495
X26.49Y-8.23
X26.8Y-5.495
X27.175Y-40.5
X28.117Y-16.0
X28.666Y-38.926
X28.7Y-19.05
X28.7Y-24.85
X28.77Y-8.75
X28.791Y-33.233
X29.23Y-37.75
X29.268Y-39.848
X29.7Y-8.8
X29.764Y-16.318
X29.796Y-6.279
X31.281Y-25.487
X31.283Y-6.472
X31.38Y-16.0
X31.5Y-19.05
X32.071Y-6.64
X32.562Y-23.671
X32.639Y-26.331
X32.678Y-29.6
X32.84Y-36.124
X32.943Y-9.593
X33.023Y-40.85
X33.23Y-41.76
X33.292Y-39.636
X33.322Y-35.39
X33.512Y-33.746
X33.75Y-10.0
X34.0Y-25.0
X35.021Y-34.764
X35.26Y-22.25
X35.448Y-27.769
X35.725Y-20.85
X35.85Y-33.56
X35.9Y-43.572
X35.993Y-39.087
X36.43Y-14.553
X36.5Y-41.25
X36.569Y-18.056
X36.75Y-3.959
X37.0Y-41.98
X37.1Y-10.3
X37.25Y-42.75
X37.35Y-38.492
X37.55Y-20.38
X37.713Y-25.04
X38.394Y-35.316
X38.6Y-13.4
X38.6Y-21.7
X39.264Y-40.656
X39.743Y-13.687
X40.0Y-14.75
X40.45Y-30.925
X40.78Y-31.95
X41.33Y-12.64
X41.7Y-19.8
X42.2Y-22.0
X42.271Y-30.296
X43.015Y-32.344
X43.067Y-25.795
X43.405Y-7.56
X43.99Y-32.545
X44.48Y-25.0
X45.6Y-17.8
X45.6Y-21.8
X46.23Y-21.76
X47.25Y-16.8
X47.804Y-20.94
T3
X13.5Y-4.115
X25.202Y-35.0
X25.599Y-13.15
X26.345Y-26.089
X27.758Y-17.914
X28.55Y-35.348
X28.595Y-7.472
X28.7Y-17.15
X30.5Y-13.15
X32.375Y-20.85
X32.84Y-22.25
X34.896Y-23.108
X37.0Y-23.77
X37.35Y-14.825
X37.557Y-13.687
X37.917Y-27.665
X38.312Y-14.979
X39.8Y-21.5
X41.755Y-18.21
X42.55Y-10.0
X43.405Y-10.1
X43.405Y-18.4
X45.302Y-24.07
T4
X31.28Y-37.675G85X31.28Y-38.775
G05
X31.28Y-42.105G85X31.28Y-42.705
G05
X39.92Y-37.675G85X39.92Y-38.775
G05
X39.92Y-42.105G85X39.92Y-42.705
G05
M30
