%TF.GenerationSoftware,KiCad,Pcbnew,10.0.6*%
%TF.CreationDate,2026-10-05T10:43:20-07:00*%
%TF.ProjectId,plush-toy-v2-B,706c7573-682d-4746-9f79-2d76322d422e,rev?*%
%TF.SameCoordinates,Original*%
%TF.FileFunction,Paste,Top*%
%TF.FilePolarity,Positive*%
%FSLAX46Y46*%
G04 Gerber Fmt 4.6, Leading zero omitted, Abs format (unit mm)*
G04 Created by KiCad (PCBNEW 10.0.6) date 2026-10-05 10:43:20*
%MOMM*%
%LPD*%
G01*
G04 APERTURE LIST*
G04 Aperture macros list*
%AMRoundRect*
0 Rectangle with rounded corners*
0 $1 Rounding radius*
0 $2 $3 $4 $5 $6 $7 $8 $9 X,Y pos of 4 corners*
0 Add a 4 corners polygon primitive as box body*
4,1,4,$2,$3,$4,$5,$6,$7,$8,$9,$2,$3,0*
0 Add four circle primitives for the rounded corners*
1,1,$1+$1,$2,$3*
1,1,$1+$1,$4,$5*
1,1,$1+$1,$6,$7*
1,1,$1+$1,$8,$9*
0 Add four rect primitives between the rounded corners*
20,1,$1+$1,$2,$3,$4,$5,0*
20,1,$1+$1,$4,$5,$6,$7,0*
20,1,$1+$1,$6,$7,$8,$9,0*
20,1,$1+$1,$8,$9,$2,$3,0*%
G04 Aperture macros list end*
%ADD10RoundRect,0.140000X-0.140000X-0.170000X0.140000X-0.170000X0.140000X0.170000X-0.140000X0.170000X0*%
%ADD11R,0.900000X0.900000*%
%ADD12R,0.900000X1.500000*%
%ADD13R,1.500000X0.900000*%
%ADD14R,1.230000X1.860000*%
%ADD15R,0.700000X1.750000*%
%ADD16R,1.200000X2.550000*%
%ADD17RoundRect,0.150000X-0.150000X-0.575000X0.150000X-0.575000X0.150000X0.575000X-0.150000X0.575000X0*%
%ADD18RoundRect,0.075000X-0.075000X-0.650000X0.075000X-0.650000X0.075000X0.650000X-0.075000X0.650000X0*%
%ADD19R,3.500000X1.500000*%
%ADD20RoundRect,0.150000X0.150000X0.625000X-0.150000X0.625000X-0.150000X-0.625000X0.150000X-0.625000X0*%
%ADD21RoundRect,0.250000X0.350000X0.650000X-0.350000X0.650000X-0.350000X-0.650000X0.350000X-0.650000X0*%
%ADD22R,3.200000X1.020000*%
%ADD23R,1.000000X3.500000*%
%ADD24R,1.800000X4.000000*%
%ADD25RoundRect,0.150000X-0.150000X-0.625000X0.150000X-0.625000X0.150000X0.625000X-0.150000X0.625000X0*%
%ADD26RoundRect,0.250000X-0.350000X-0.650000X0.350000X-0.650000X0.350000X0.650000X-0.350000X0.650000X0*%
%ADD27R,0.500000X1.700000*%
%ADD28R,1.200000X2.500000*%
%ADD29RoundRect,0.225000X-0.225000X-0.250000X0.225000X-0.250000X0.225000X0.250000X-0.225000X0.250000X0*%
G04 APERTURE END LIST*
D10*
%TO.C,C_U1*%
X2720000Y-32400000D03*
X3680000Y-32400000D03*
%TD*%
D11*
%TO.C,U1*%
X7810000Y-24900000D03*
X9210000Y-24900000D03*
X10610000Y-24900000D03*
X7810000Y-23500000D03*
X9210000Y-23500000D03*
X10610000Y-23500000D03*
X7810000Y-22100000D03*
X9210000Y-22100000D03*
X10610000Y-22100000D03*
D12*
X1490000Y-30750000D03*
X2760000Y-30750000D03*
X4030000Y-30750000D03*
X5300000Y-30750000D03*
X6570000Y-30750000D03*
X7840000Y-30750000D03*
X9110000Y-30750000D03*
X10380000Y-30750000D03*
X11650000Y-30750000D03*
X12920000Y-30750000D03*
X14190000Y-30750000D03*
X15460000Y-30750000D03*
X16730000Y-30750000D03*
X18000000Y-30750000D03*
D13*
X19250000Y-28985000D03*
X19250000Y-27715000D03*
X19250000Y-26445000D03*
X19250000Y-25175000D03*
X19250000Y-23905000D03*
X19250000Y-22635000D03*
X19250000Y-21365000D03*
X19250000Y-20095000D03*
X19250000Y-18825000D03*
X19250000Y-17555000D03*
X19250000Y-16285000D03*
X19250000Y-15015000D03*
D12*
X18000000Y-13250000D03*
X16730000Y-13250000D03*
X15460000Y-13250000D03*
X14190000Y-13250000D03*
X12920000Y-13250000D03*
X11650000Y-13250000D03*
X10380000Y-13250000D03*
X9110000Y-13250000D03*
X7840000Y-13250000D03*
X6570000Y-13250000D03*
X5300000Y-13250000D03*
X4030000Y-13250000D03*
X2760000Y-13250000D03*
X1490000Y-13250000D03*
%TD*%
D14*
%TO.C,SW_RST*%
X21120000Y-16000000D03*
X25480000Y-16000000D03*
%TD*%
D15*
%TO.C,J_MIC*%
X26800000Y-5495000D03*
X25800000Y-5495000D03*
X24800000Y-5495000D03*
X23800000Y-5495000D03*
X22800000Y-5495000D03*
X21800000Y-5495000D03*
D16*
X20690000Y-1775000D03*
X27910000Y-1775000D03*
%TD*%
D17*
%TO.C,J_USB*%
X32350000Y-37310000D03*
X33150000Y-37310000D03*
D18*
X34350000Y-37310000D03*
X35350000Y-37310000D03*
X35850000Y-37310000D03*
X36850000Y-37310000D03*
D17*
X38050000Y-37310000D03*
X38850000Y-37310000D03*
X38850000Y-37310000D03*
X38050000Y-37310000D03*
D18*
X37350000Y-37310000D03*
X36350000Y-37310000D03*
X34850000Y-37310000D03*
X33850000Y-37310000D03*
D17*
X33150000Y-37310000D03*
X32350000Y-37310000D03*
%TD*%
D19*
%TO.C,J_HEAT*%
X40350000Y-28700000D03*
X40350000Y-26200000D03*
X47750000Y-31680000D03*
X47750000Y-23220000D03*
%TD*%
D20*
%TO.C,J_TOUCH*%
X5400000Y-5775000D03*
X4400000Y-5775000D03*
D21*
X6700000Y-1900000D03*
X3100000Y-1900000D03*
%TD*%
D20*
%TO.C,J_LCD*%
X17440000Y-5775000D03*
X16440000Y-5775000D03*
X15440000Y-5775000D03*
X14440000Y-5775000D03*
X13440000Y-5775000D03*
X12440000Y-5775000D03*
X11440000Y-5775000D03*
X10440000Y-5775000D03*
D21*
X18740000Y-1900000D03*
X9140000Y-1900000D03*
%TD*%
D22*
%TO.C,J_ARM_R*%
X43405000Y-20940000D03*
X43405000Y-18400000D03*
X43405000Y-15860000D03*
%TD*%
%TO.C,J_ARM_L*%
X43405000Y-12640000D03*
X43405000Y-10100000D03*
X43405000Y-7560000D03*
%TD*%
D23*
%TO.C,J_BAT*%
X26500000Y-37600000D03*
X24500000Y-37600000D03*
D24*
X22090000Y-43500000D03*
X28910000Y-43500000D03*
%TD*%
D25*
%TO.C,J_NTC*%
X11500000Y-40225000D03*
X12500000Y-40225000D03*
D26*
X10200000Y-44100000D03*
X13800000Y-44100000D03*
%TD*%
D25*
%TO.C,J_SPK*%
X17500000Y-40225000D03*
X18500000Y-40225000D03*
D26*
X16200000Y-44100000D03*
X19800000Y-44100000D03*
%TD*%
D27*
%TO.C,J_KEY*%
X32460000Y-5150000D03*
X31460000Y-5150000D03*
X30460000Y-5150000D03*
D28*
X33560000Y-1750000D03*
X29360000Y-1750000D03*
%TD*%
D14*
%TO.C,SW_BOOT*%
X27020000Y-16000000D03*
X31380000Y-16000000D03*
%TD*%
D29*
%TO.C,C_U1_BULK*%
X2625000Y-33800000D03*
X4175000Y-33800000D03*
%TD*%
M02*
