M48
; DRILL file KiCad 10.0.6 date 2026-10-05T18:02:17
; FORMAT={-:-/ absolute / metric / decimal}
; #@! TF.CreationDate,2026-10-05T18:02:17-07:00
; #@! TF.GenerationSoftware,Kicad,Pcbnew,10.0.6
; #@! TF.FileFunction,Plated,1,4,PTH
FMAT,2
METRIC
; #@! TA.AperFunction,Plated,PTH,ComponentDrill
T1C0.200
; #@! TA.AperFunction,Plated,PTH,ViaDrill
T2C0.300
; #@! TA.AperFunction,Plated,PTH,ViaDrill
T3C0.400
; #@! TA.AperFunction,Plated,PTH,ComponentDrill
T4C0.600
%
G90
G05
T1
X7.81Y-30.8
X7.81Y-32.2
X8.51Y-30.1
X8.51Y-31.5
X8.51Y-32.9
X9.21Y-30.8
X9.21Y-32.2
X9.91Y-30.1
X9.91Y-31.5
X9.91Y-32.9
X10.61Y-30.8
X10.61Y-32.2
X35.0Y-39.45
X35.0Y-40.55
T2
X1.49Y-21.25
X1.49Y-38.75
X1.725Y-41.8
X1.99Y-40.4
X2.76Y-38.75
X4.41Y-40.4
X4.687Y-12.357
X5.05Y-3.555
X5.075Y-41.8
X5.3Y-14.66
X5.979Y-12.312
X5.979Y-15.688
X6.434Y-39.956
X7.003Y-36.045
X7.222Y-37.543
X7.25Y-7.5
X7.395Y-35.203
X7.414Y-9.596
X7.975Y-14.0
X8.464Y-5.096
X8.464Y-11.01
X8.73Y-48.75
X9.147Y-19.362
X9.25Y-5.083
X9.721Y-7.327
X10.25Y-5.015
X10.5Y-9.21
X10.75Y-11.84
X11.072Y-5.112
X11.217Y-37.541
X11.75Y-9.21
X12.0Y-46.6
X12.39Y-37.526
X12.75Y-5.105
X12.99Y-8.53
X13.323Y-37.543
X13.44Y-11.65
X13.606Y-9.959
X13.716Y-7.319
X13.75Y-14.0
X13.979Y-12.312
X13.979Y-15.688
X13.983Y-39.975
X14.025Y-5.11
X14.412Y-37.526
X15.077Y-8.981
X15.115Y-5.1
X15.539Y-27.5
X15.743Y-12.263
X16.173Y-37.528
X16.295Y-8.523
X16.416Y-4.817
X17.164Y-22.986
X17.21Y-7.75
X17.261Y-24.8
X18.017Y-33.323
X18.11Y-11.65
X18.25Y-51.29
X18.5Y-47.825
X18.724Y-7.19
X18.791Y-44.267
X19.756Y-5.313
X19.761Y-20.248
X19.95Y-3.555
X19.98Y-45.5
X20.0Y-47.29
X20.0Y-51.98
X20.461Y-9.119
X20.461Y-29.951
X20.482Y-34.319
X20.584Y-4.828
X21.125Y-30.773
X21.29Y-33.5
X21.594Y-27.307
X21.769Y-4.534
X21.769Y-22.252
X21.877Y-30.6
X22.322Y-17.5
X22.51Y-27.27
X22.514Y-28.095
X23.64Y-28.25
X23.691Y-7.012
X23.8Y-31.4
X24.0Y-49.5
X24.156Y-23.65
X24.182Y-36.232
X24.182Y-44.826
X24.556Y-29.44
X24.75Y-33.168
X25.306Y-27.37
X25.43Y-26.5
X25.565Y-44.811
X25.59Y-23.015
X25.909Y-31.463
X26.06Y-28.25
X26.446Y-5.775
X26.467Y-30.722
X26.52Y-21.25
X27.0Y-20.261
X27.21Y-16.75
X27.27Y-36.985
X27.308Y-34.624
X27.55Y-41.353
X27.55Y-44.799
X27.754Y-25.555
X27.836Y-36.347
X27.866Y-32.371
X28.25Y-3.75
X28.265Y-29.429
X28.481Y-26.117
X28.58Y-50.242
X28.75Y-47.996
X28.799Y-33.943
X29.0Y-29.77
X29.036Y-43.518
X29.048Y-53.38
X29.072Y-23.65
X29.18Y-19.0
X29.338Y-32.962
X29.477Y-37.609
X29.78Y-49.264
X29.941Y-35.293
X30.815Y-34.213
X30.821Y-37.551
X30.99Y-31.0
X31.378Y-38.558
X31.413Y-43.419
X31.75Y-47.512
X32.04Y-36.83
X32.152Y-43.03
X32.237Y-38.807
X32.362Y-7.021
X32.52Y-21.25
X32.8Y-35.14
X32.817Y-7.995
X33.175Y-31.0
X33.193Y-11.421
X33.672Y-24.285
X33.678Y-7.022
X33.889Y-48.733
X33.978Y-49.778
X33.985Y-12.995
X34.839Y-21.829
X34.857Y-8.124
X34.9Y-38.8
X35.18Y-19.0
X35.542Y-30.067
X35.733Y-15.291
X36.307Y-29.409
X36.598Y-15.427
X36.612Y-4.537
X36.9Y-36.8
X37.19Y-7.447
X37.25Y-38.52
X37.466Y-30.0
X37.5Y-50.25
X37.577Y-43.933
X37.875Y-42.25
X37.968Y-7.572
X38.55Y-46.725
X38.83Y-42.122
X39.711Y-32.494
X39.825Y-31.0
X39.982Y-4.09
X40.0Y-44.5
X40.5Y-15.23
X41.04Y-5.75
X41.61Y-47.25
X42.75Y-29.3
X42.89Y-15.15
X42.9Y-40.9
X43.35Y-38.7
X43.46Y-5.75
X43.569Y-17.794
X44.0Y-34.0
X44.7Y-29.4
X45.2Y-41.8
X45.7Y-28.647
X46.5Y-5.495
X46.9Y-27.5
X47.0Y-18.0
X47.0Y-20.25
X47.38Y-15.25
X49.98Y-47.26
X50.412Y-39.578
X50.483Y-43.291
X50.5Y-5.495
X50.509Y-47.988
X50.6Y-47.1
X51.5Y-5.495
X51.75Y-15.95
X51.75Y-43.27
X52.596Y-7.026
X52.613Y-45.657
X53.5Y-19.15
X53.65Y-15.95
X53.75Y-28.05
X54.0Y-2.54
X54.0Y-4.96
X54.25Y-22.77
X55.3Y-18.8
X56.5Y-3.25
X56.553Y-17.958
X58.336Y-6.279
X58.405Y-11.96
X58.405Y-23.46
X60.2Y-19.5
X60.2Y-31.0
X61.72Y-5.15
X63.5Y-2.5
X63.5Y-6.73
T3
X7.062Y-50.761
X14.659Y-44.114
X19.091Y-39.851
X21.302Y-41.454
X21.465Y-44.574
X36.092Y-27.978
X40.85Y-29.3
X40.896Y-46.392
X41.28Y-32.192
X41.449Y-40.128
X41.477Y-30.157
X42.655Y-21.837
X44.7Y-27.5
X44.802Y-32.305
X46.5Y-34.0
X48.942Y-16.863
X54.369Y-42.165
X58.28Y-42.979
X58.3Y-19.5
X58.405Y-14.5
T4
X25.68Y-46.675G85X25.68Y-47.775
G05
X25.68Y-51.105G85X25.68Y-51.705
G05
X34.32Y-46.675G85X34.32Y-47.775
G05
X34.32Y-51.105G85X34.32Y-51.705
G05
M30
