%TF.GenerationSoftware,KiCad,Pcbnew,10.0.6*%
%TF.CreationDate,2026-10-05T18:02:17-07:00*%
%TF.ProjectId,plush-toy-v2-C,706c7573-682d-4746-9f79-2d76322d432e,rev?*%
%TF.SameCoordinates,Original*%
%TF.FileFunction,Copper,L4,Bot*%
%TF.FilePolarity,Positive*%
%FSLAX46Y46*%
G04 Gerber Fmt 4.6, Leading zero omitted, Abs format (unit mm)*
G04 Created by KiCad (PCBNEW 10.0.6) date 2026-10-05 18:02:17*
%MOMM*%
%LPD*%
G01*
G04 APERTURE LIST*
%TA.AperFunction,ComponentPad*%
%ADD10O,1.000000X2.100000*%
%TD*%
%TA.AperFunction,ComponentPad*%
%ADD11O,1.000000X1.600000*%
%TD*%
%TA.AperFunction,HeatsinkPad*%
%ADD12C,0.600000*%
%TD*%
%TA.AperFunction,HeatsinkPad*%
%ADD13C,0.500000*%
%TD*%
%TA.AperFunction,HeatsinkPad*%
%ADD14R,0.500000X1.600000*%
%TD*%
%TA.AperFunction,SMDPad,CuDef*%
%ADD15C,1.000000*%
%TD*%
%TA.AperFunction,ViaPad*%
%ADD16C,0.600000*%
%TD*%
%TA.AperFunction,ViaPad*%
%ADD17C,0.800000*%
%TD*%
%TA.AperFunction,Conductor*%
%ADD18C,0.200000*%
%TD*%
%TA.AperFunction,Conductor*%
%ADD19C,0.400000*%
%TD*%
%TA.AperFunction,Conductor*%
%ADD20C,0.600000*%
%TD*%
G04 APERTURE END LIST*
D10*
%TO.P,J_USB,SH*%
%TO.N,GND*%
X25680000Y-47225000D03*
D11*
X25680000Y-51405000D03*
D10*
X34320000Y-47225000D03*
D11*
X34320000Y-51405000D03*
%TD*%
D12*
%TO.P,U1,41*%
%TO.N,GND*%
X8510000Y-32900000D03*
X9910000Y-32900000D03*
X7810000Y-32200000D03*
X9210000Y-32200000D03*
X10610000Y-32200000D03*
X8510000Y-31500000D03*
X9910000Y-31500000D03*
X7810000Y-30800000D03*
X9210000Y-30800000D03*
X10610000Y-30800000D03*
X8510000Y-30100000D03*
X9910000Y-30100000D03*
%TD*%
D13*
%TO.P,U_EFUSE,9*%
%TO.N,GND*%
X35000000Y-39450000D03*
D14*
X35000000Y-40000000D03*
D13*
X35000000Y-40550000D03*
%TD*%
D15*
%TO.P,TP_EN,1*%
%TO.N,EN*%
X27000000Y-19000000D03*
%TD*%
%TO.P,TP_VUSB,1*%
%TO.N,VUSB*%
X37000000Y-40000000D03*
%TD*%
%TO.P,TP_3V3,1*%
%TO.N,+3V3*%
X47000000Y-18000000D03*
%TD*%
%TO.P,TP_VBAT,1*%
%TO.N,VBAT*%
X13250000Y-50000000D03*
%TD*%
%TO.P,TP_GND,1*%
%TO.N,GND*%
X47750000Y-20250000D03*
%TD*%
%TO.P,TP_CC,1*%
%TO.N,CC_SENSE*%
X30000000Y-50250000D03*
%TD*%
%TO.P,TP_BOOT,1*%
%TO.N,BOOT*%
X33000000Y-19000000D03*
%TD*%
%TO.P,TP_VSYS,1*%
%TO.N,VSYS*%
X46500000Y-34000000D03*
%TD*%
D16*
%TO.N,LCD_CLK*%
X21768800Y-4534100D03*
X21768800Y-22251700D03*
%TO.N,GND*%
X37875000Y-42250000D03*
X46900000Y-27500000D03*
X13750000Y-14000000D03*
X8730000Y-48750000D03*
X51750000Y-15950000D03*
X29000000Y-29770000D03*
X39825000Y-31000000D03*
X24000000Y-49500000D03*
X46500000Y-5495000D03*
X26060000Y-28250000D03*
X32800000Y-35140000D03*
X52613200Y-45656800D03*
X30990000Y-31000000D03*
X10500000Y-9210000D03*
X42750000Y-29300000D03*
X18791000Y-44267400D03*
X44000000Y-34000000D03*
X29180000Y-19000000D03*
X35180000Y-19000000D03*
X47000000Y-20250000D03*
X19980000Y-45500000D03*
X54250000Y-22770000D03*
X47380000Y-15250000D03*
X4686800Y-12356800D03*
X50500000Y-5495000D03*
X58336100Y-6278600D03*
X11750000Y-9210000D03*
X40000000Y-44500000D03*
X18110000Y-11650000D03*
X38550000Y-46725000D03*
X23800000Y-31400000D03*
X19950000Y-3555000D03*
X20000000Y-47290000D03*
X33678100Y-7022000D03*
X43569300Y-17794300D03*
X17210000Y-7750000D03*
X1490000Y-38750000D03*
X23690900Y-7011600D03*
X44700000Y-29400000D03*
X7975000Y-14000000D03*
X60200000Y-19500000D03*
X41610000Y-47250000D03*
X34900000Y-38800000D03*
X32236800Y-38806800D03*
X10750000Y-11840000D03*
X37250000Y-38520000D03*
X4410000Y-40400000D03*
X43460000Y-5750000D03*
X63500000Y-2500000D03*
X54000000Y-2540000D03*
X56500000Y-3250000D03*
X50509100Y-47988400D03*
X18250000Y-51290000D03*
X5075000Y-41800000D03*
X58405000Y-23460000D03*
X39711400Y-32493700D03*
X43350000Y-38700000D03*
X1490000Y-21250000D03*
X13715800Y-7318800D03*
X58405000Y-11960000D03*
X12000000Y-46600000D03*
X24750100Y-33167700D03*
X31378100Y-38558400D03*
X60200000Y-31000000D03*
X5050000Y-3555000D03*
X7250000Y-7500000D03*
X27210000Y-16750000D03*
X21290000Y-33500000D03*
X55300000Y-18800000D03*
X50482600Y-43291000D03*
X51750000Y-43270000D03*
X28250000Y-3750000D03*
X37500000Y-50250000D03*
X53750000Y-28050000D03*
X15743200Y-12263200D03*
X18500000Y-47825000D03*
%TO.N,VSYS*%
X58405000Y-14500000D03*
X41477500Y-30156800D03*
X40895800Y-46391900D03*
X46500000Y-34000000D03*
D17*
X48942400Y-16862500D03*
X42654600Y-21837200D03*
D16*
X58300000Y-19500000D03*
X40850000Y-29300000D03*
X44700000Y-27500000D03*
%TO.N,BAT_NTC_SENSE*%
X29941100Y-35293200D03*
X35541800Y-30066600D03*
X24181600Y-44826200D03*
X24181600Y-36231800D03*
%TO.N,+3V3*%
X22510000Y-27270000D03*
X63500000Y-6730000D03*
X36900000Y-36800000D03*
X13979200Y-12312300D03*
X49980000Y-47260000D03*
X42890000Y-15150000D03*
X33175000Y-31000000D03*
X47000000Y-18000000D03*
X51500000Y-5495000D03*
X2760000Y-38750000D03*
X53500000Y-19150000D03*
X42900000Y-40900000D03*
X5979200Y-15687700D03*
X35732600Y-15291000D03*
X32520000Y-21250000D03*
X1725000Y-41800000D03*
X41040000Y-5750000D03*
X45200000Y-41800000D03*
X53650000Y-15950000D03*
X30821000Y-37550900D03*
X23640000Y-28250000D03*
X50600000Y-47100000D03*
X1990000Y-40400000D03*
X25430000Y-26500000D03*
X5300000Y-14660000D03*
X32040000Y-36830000D03*
X24556300Y-29439600D03*
X26520000Y-21250000D03*
X29476700Y-37608700D03*
X13440000Y-11650000D03*
X32361600Y-7020700D03*
X54000000Y-4960000D03*
X13979200Y-15687700D03*
X40500000Y-15230000D03*
X5979200Y-12312300D03*
X20000000Y-51980000D03*
%TO.N,HEAT_GATE_DRV*%
X30814800Y-34213200D03*
X50412100Y-39577900D03*
X27865900Y-32370900D03*
X28798800Y-33942800D03*
%TO.N,CAM_RESET*%
X16294800Y-8522700D03*
X9250000Y-5083000D03*
%TO.N,LCD_RST*%
X28481000Y-26116600D03*
X37189800Y-7446800D03*
%TO.N,LCD_CS*%
X25589700Y-23015000D03*
X32817000Y-7994700D03*
%TO.N,LCD_DC*%
X36611600Y-4537000D03*
X27753700Y-25555000D03*
%TO.N,CC2*%
X29779600Y-49263600D03*
X31750000Y-47511900D03*
%TO.N,VBUS_IN*%
X27550000Y-41352700D03*
X27550000Y-44799000D03*
X29036100Y-43517800D03*
%TO.N,EN*%
X27000000Y-20260700D03*
X7394800Y-35202500D03*
X9147000Y-19361700D03*
D17*
%TO.N,VUSB*%
X41448900Y-40127900D03*
D16*
%TO.N,I2C_SCL*%
X27308000Y-34623900D03*
X22321900Y-17500200D03*
X21876900Y-30600000D03*
X21594200Y-27307300D03*
%TO.N,I2C_SDA*%
X26467000Y-30721600D03*
X25306300Y-27369700D03*
X27836200Y-36347500D03*
X29337600Y-32961800D03*
%TO.N,KEY_PWR*%
X61720100Y-5150000D03*
X45700400Y-28647300D03*
D17*
%TO.N,VBAT*%
X7062500Y-50760700D03*
X21465300Y-44573800D03*
X44801700Y-32304900D03*
D16*
X19091300Y-39851300D03*
D17*
%TO.N,CHG_SW*%
X36092000Y-27978000D03*
X41280200Y-32191700D03*
D16*
%TO.N,SERVO_L_PWM*%
X56553300Y-17958000D03*
X27270000Y-36985000D03*
%TO.N,KEY_MUTE*%
X52596500Y-7025700D03*
X28264900Y-29428800D03*
%TO.N,TOUCH_E0*%
X26445700Y-5775000D03*
X25908600Y-31462900D03*
%TO.N,CC1*%
X33977800Y-49777800D03*
X28750000Y-47996100D03*
%TO.N,CAM_SIOD*%
X8463600Y-11010000D03*
X7003400Y-36044900D03*
X8463600Y-5096000D03*
%TO.N,CAM_SIOC*%
X6433900Y-39956200D03*
X7414100Y-9595900D03*
%TO.N,CAM_VSYNC*%
X7221900Y-37542600D03*
X9720900Y-7327400D03*
%TO.N,CAM_HREF*%
X11071600Y-5112500D03*
X11217200Y-37541500D03*
%TO.N,CAM_XCLK*%
X12750000Y-5105100D03*
X13982800Y-39975100D03*
%TO.N,CAM_Y9*%
X13606000Y-9958900D03*
X12390200Y-37526400D03*
%TO.N,CAM_Y8*%
X13322800Y-37543300D03*
X14025000Y-5110000D03*
%TO.N,CAM_Y7*%
X14411900Y-37526400D03*
X15076600Y-8981300D03*
%TO.N,CAM_Y4*%
X16173400Y-37528400D03*
X18723600Y-7190200D03*
%TO.N,CAM_Y3*%
X19755700Y-5313300D03*
X20482200Y-34318900D03*
%TO.N,CAM_Y5*%
X16416500Y-4816600D03*
X18016500Y-33323500D03*
%TO.N,CAM_Y2*%
X20584000Y-4827900D03*
X21125100Y-30773300D03*
%TO.N,CAM_Y6*%
X20460600Y-29951400D03*
X20460600Y-9118800D03*
%TO.N,CAM_PCLK*%
X15115300Y-5099800D03*
X15538700Y-27499600D03*
%TO.N,LCD_MOSI*%
X29072300Y-23650000D03*
X39982200Y-4089800D03*
X22513900Y-28095000D03*
X24156400Y-23650000D03*
%TO.N,LCD_BL_PWM*%
X36598000Y-15426800D03*
X33671700Y-24285000D03*
%TO.N,BOOT*%
X34839300Y-21829300D03*
%TO.N,AMP_DIN*%
X31413400Y-43419100D03*
X17164400Y-22986200D03*
%TO.N,AMP_BCLK*%
X19761100Y-20248300D03*
X32152500Y-43030000D03*
%TO.N,AMP_LRCLK*%
X38829900Y-42121600D03*
X17261100Y-24799900D03*
%TO.N,MIC_SCK*%
X33984800Y-12995500D03*
X37967900Y-7572200D03*
%TO.N,MIC_WS*%
X34857100Y-8123900D03*
X33192600Y-11420900D03*
D17*
%TO.N,HEAT_LOW*%
X54368700Y-42164700D03*
X58280100Y-42979400D03*
%TO.N,VBAT_PACK*%
X21302300Y-41454100D03*
X14659300Y-44114400D03*
D16*
%TO.N,CAM_PWDN*%
X10250000Y-5014600D03*
X12990000Y-8530300D03*
%TO.N,VBAT_SENSE*%
X37465900Y-30000000D03*
X25565000Y-44811100D03*
%TO.N,CC_SENSE*%
X28579600Y-50242200D03*
X33889200Y-48733100D03*
X29047800Y-53379800D03*
X36307200Y-29409200D03*
X37576600Y-43933400D03*
%TD*%
%TO.N,LCD_CLK*%
D18*
X21768800Y-4534100D02*
X21768800Y-22251700D01*
%TO.N,GND*%
D19*
X35000000Y-39450000D02*
X35000000Y-40000000D01*
X47000000Y-20250000D02*
X47750000Y-20250000D01*
%TO.N,VSYS*%
D20*
X46657900Y-16862600D02*
X48942400Y-16862600D01*
X42654600Y-21837200D02*
X42654600Y-20865900D01*
X42654600Y-20865900D02*
X46657900Y-16862600D01*
X48942400Y-16862600D02*
X48942400Y-16862500D01*
%TO.N,BAT_NTC_SENSE*%
D18*
X29941100Y-35293200D02*
X30515000Y-35293200D01*
X30515000Y-35293200D02*
X35541800Y-30266400D01*
X35541800Y-30266400D02*
X35541800Y-30066600D01*
X24181600Y-44826200D02*
X24181600Y-36231800D01*
%TO.N,+3V3*%
D19*
X39400000Y-36800000D02*
X36900000Y-36800000D01*
X42300000Y-39700000D02*
X39400000Y-36800000D01*
X50600000Y-47100000D02*
X45200000Y-41800000D01*
X42900000Y-40900000D02*
X42300000Y-39700000D01*
%TO.N,HEAT_GATE_DRV*%
D18*
X39915700Y-31803600D02*
X40544700Y-32432600D01*
X27865900Y-33009900D02*
X27865900Y-32370900D01*
X38924200Y-30629500D02*
X38924200Y-30928300D01*
X38924200Y-30928300D02*
X39799500Y-31803600D01*
X40544700Y-32553100D02*
X40904100Y-32912500D01*
X28798800Y-33942800D02*
X27865900Y-33009900D01*
X40904100Y-32912500D02*
X42838300Y-32912500D01*
X50412100Y-36717800D02*
X50412100Y-39577900D01*
X44221400Y-31529400D02*
X45223700Y-31529400D01*
X34866000Y-29912400D02*
X35959700Y-28818700D01*
X42838300Y-32912500D02*
X44221400Y-31529400D01*
X34866000Y-30162000D02*
X34866000Y-29912400D01*
X35959700Y-28818700D02*
X37113400Y-28818700D01*
X40544700Y-32432600D02*
X40544700Y-32553100D01*
X30814800Y-34213200D02*
X34866000Y-30162000D01*
X37113400Y-28818700D02*
X38924200Y-30629500D01*
X39799500Y-31803600D02*
X39915700Y-31803600D01*
X45223700Y-31529400D02*
X50412100Y-36717800D01*
%TO.N,CAM_RESET*%
X10163600Y-4169400D02*
X14977100Y-4169400D01*
X16294800Y-5487100D02*
X16294800Y-8522700D01*
X14977100Y-4169400D02*
X16294800Y-5487100D01*
X9250000Y-5083000D02*
X10163600Y-4169400D01*
%TO.N,LCD_RST*%
X37189800Y-9010300D02*
X28481000Y-17719100D01*
X37189800Y-7446800D02*
X37189800Y-9010300D01*
X28481000Y-17719100D02*
X28481000Y-26116600D01*
%TO.N,LCD_CS*%
X25589700Y-15222000D02*
X25589700Y-23015000D01*
X32817000Y-7994700D02*
X25589700Y-15222000D01*
%TO.N,LCD_DC*%
X36611600Y-8926900D02*
X27753700Y-17784800D01*
X27753700Y-17784800D02*
X27753700Y-25555000D01*
X36611600Y-4537000D02*
X36611600Y-8926900D01*
%TO.N,CC2*%
X29998300Y-49263600D02*
X31750000Y-47511900D01*
X29779600Y-49263600D02*
X29998300Y-49263600D01*
%TO.N,VBUS_IN*%
D19*
X27550000Y-43517800D02*
X29036100Y-43517800D01*
X27550000Y-43517800D02*
X27550000Y-44799000D01*
X27550000Y-43517800D02*
X27550000Y-41352700D01*
%TO.N,EN*%
D18*
X9147000Y-19361700D02*
X9147000Y-27890200D01*
X7224700Y-29812500D02*
X7224700Y-35032400D01*
X27000000Y-19000000D02*
X27000000Y-20260700D01*
X7224700Y-35032400D02*
X7394800Y-35202500D01*
X9147000Y-27890200D02*
X7224700Y-29812500D01*
%TO.N,VUSB*%
D20*
X37000000Y-40000000D02*
X37127800Y-40127800D01*
X41448900Y-40127800D02*
X41448900Y-40127900D01*
X37127800Y-40127800D02*
X41448900Y-40127800D01*
%TO.N,I2C_SCL*%
D18*
X21876900Y-27590000D02*
X21876900Y-30600000D01*
X22321900Y-26579600D02*
X22321900Y-17500200D01*
X21594200Y-27307300D02*
X22321900Y-26579600D01*
X21594200Y-27307300D02*
X21876900Y-27590000D01*
X23767000Y-32490100D02*
X21876900Y-30600000D01*
X25174200Y-32490100D02*
X23767000Y-32490100D01*
X27308000Y-34623900D02*
X25174200Y-32490100D01*
%TO.N,I2C_SDA*%
X27836200Y-35690200D02*
X29355100Y-34171300D01*
X26467000Y-30031800D02*
X25306300Y-28871100D01*
X27836200Y-36347500D02*
X27836200Y-35690200D01*
X27097400Y-30721600D02*
X29337600Y-32961800D01*
X29355100Y-32979300D02*
X29337600Y-32961800D01*
X26467000Y-30721600D02*
X26467000Y-30031800D01*
X29355100Y-34171300D02*
X29355100Y-32979300D01*
X25306300Y-28871100D02*
X25306300Y-27369700D01*
X26467000Y-30721600D02*
X27097400Y-30721600D01*
%TO.N,KEY_PWR*%
X45700400Y-28647300D02*
X45700400Y-24851100D01*
X56550900Y-14000600D02*
X56550900Y-10319200D01*
X56550900Y-10319200D02*
X61720100Y-5150000D01*
X45700400Y-24851100D02*
X56550900Y-14000600D01*
%TO.N,VBAT*%
D20*
X7823200Y-50000000D02*
X7062500Y-50760700D01*
X23849600Y-45627900D02*
X40079800Y-45627900D01*
X13250000Y-50000000D02*
X7823200Y-50000000D01*
X19091300Y-39851300D02*
X17563300Y-39851300D01*
X22241100Y-41110600D02*
X22241100Y-44019400D01*
X17563300Y-39851300D02*
X13250000Y-44164600D01*
X22241100Y-44019400D02*
X23849600Y-45627900D01*
X20981800Y-39851300D02*
X22241100Y-41110600D01*
X22241100Y-44019400D02*
X22019700Y-44019400D01*
X44801700Y-40906000D02*
X44801700Y-32304900D01*
X13250000Y-44164600D02*
X13250000Y-50000000D01*
X22019700Y-44019400D02*
X21465300Y-44573800D01*
X19091300Y-39851300D02*
X20981800Y-39851300D01*
X40079800Y-45627900D02*
X44801700Y-40906000D01*
%TO.N,CHG_SW*%
X37936900Y-27978000D02*
X36092000Y-27978000D01*
X41280200Y-32191700D02*
X41280200Y-31321300D01*
X41280200Y-31321300D02*
X37936900Y-27978000D01*
%TO.N,SERVO_L_PWM*%
D18*
X56553300Y-18702300D02*
X46048200Y-29207400D01*
X35841600Y-27236200D02*
X30241400Y-32836400D01*
X30241400Y-32836400D02*
X30241400Y-34212800D01*
X56553300Y-17958000D02*
X56553300Y-18702300D01*
X29389400Y-35064800D02*
X29389400Y-35593500D01*
X27997900Y-36985000D02*
X27270000Y-36985000D01*
X45287700Y-29207400D02*
X43316500Y-27236200D01*
X46048200Y-29207400D02*
X45287700Y-29207400D01*
X29389400Y-35593500D02*
X27997900Y-36985000D01*
X30241400Y-34212800D02*
X29389400Y-35064800D01*
X43316500Y-27236200D02*
X35841600Y-27236200D01*
%TO.N,KEY_MUTE*%
X30417700Y-29204500D02*
X28489200Y-29204500D01*
X52596500Y-7025700D02*
X30417700Y-29204500D01*
X28489200Y-29204500D02*
X28264900Y-29428800D01*
%TO.N,TOUCH_E0*%
X24754600Y-28816700D02*
X25908600Y-29970700D01*
X24754600Y-7466100D02*
X24754600Y-28816700D01*
X25908600Y-29970700D02*
X25908600Y-31462900D01*
X26445700Y-5775000D02*
X24754600Y-7466100D01*
%TO.N,CC1*%
X28026700Y-48719400D02*
X28026700Y-53154300D01*
X28827100Y-53954700D02*
X29800900Y-53954700D01*
X29800900Y-53954700D02*
X33977800Y-49777800D01*
X28026700Y-53154300D02*
X28827100Y-53954700D01*
X28750000Y-47996100D02*
X28026700Y-48719400D01*
%TO.N,CAM_SIOD*%
X8463600Y-11010000D02*
X7137200Y-12336400D01*
X8463600Y-11010000D02*
X8463600Y-5096000D01*
X7137200Y-12336400D02*
X7137200Y-29227500D01*
X7137200Y-29227500D02*
X6837000Y-29527700D01*
X6837000Y-35878500D02*
X7003400Y-36044900D01*
X6837000Y-29527700D02*
X6837000Y-35878500D01*
%TO.N,CAM_SIOC*%
X6570100Y-10439900D02*
X6570100Y-29297300D01*
X6570100Y-29297300D02*
X6433900Y-29433500D01*
X6433900Y-29433500D02*
X6433900Y-39956200D01*
X7414100Y-9595900D02*
X6570100Y-10439900D01*
%TO.N,CAM_VSYNC*%
X11217200Y-28150300D02*
X11217200Y-33131300D01*
X9720900Y-7327400D02*
X9720900Y-26654000D01*
X11217200Y-33131300D02*
X7221900Y-37126600D01*
X9720900Y-26654000D02*
X11217200Y-28150300D01*
X7221900Y-37126600D02*
X7221900Y-37542600D01*
%TO.N,CAM_HREF*%
X11568900Y-33452100D02*
X11568900Y-11750100D01*
X11217200Y-33803800D02*
X11568900Y-33452100D01*
X11217200Y-37541500D02*
X11217200Y-33803800D01*
X11568900Y-11750100D02*
X11071600Y-11252800D01*
X11071600Y-11252800D02*
X11071600Y-5112500D01*
%TO.N,CAM_XCLK*%
X11823200Y-37815500D02*
X13982800Y-39975100D01*
X11823200Y-33695100D02*
X11823200Y-37815500D01*
X11920600Y-10855300D02*
X11920600Y-33597700D01*
X13554200Y-9221700D02*
X11920600Y-10855300D01*
X12750000Y-5105100D02*
X13164100Y-5519200D01*
X11920600Y-33597700D02*
X11823200Y-33695100D01*
X13164100Y-7547200D02*
X13554200Y-7937300D01*
X13554200Y-7937300D02*
X13554200Y-9221700D01*
X13164100Y-5519200D02*
X13164100Y-7547200D01*
%TO.N,CAM_Y9*%
X12390200Y-37526400D02*
X12390200Y-11174700D01*
X12390200Y-11174700D02*
X13606000Y-9958900D01*
%TO.N,CAM_Y8*%
X14544000Y-26948200D02*
X13322800Y-28169400D01*
X14025000Y-5110000D02*
X14524800Y-5609800D01*
X14524800Y-5609800D02*
X14524800Y-9211200D01*
X13322800Y-28169400D02*
X13322800Y-37543300D01*
X14544000Y-9230400D02*
X14544000Y-26948200D01*
X14524800Y-9211200D02*
X14544000Y-9230400D01*
%TO.N,CAM_Y7*%
X14411900Y-27577600D02*
X15076600Y-26912900D01*
X14411900Y-37526400D02*
X14411900Y-27577600D01*
X15076600Y-26912900D02*
X15076600Y-8981300D01*
%TO.N,CAM_Y4*%
X16260900Y-22319100D02*
X18723600Y-19856400D01*
X16459000Y-25275500D02*
X16260900Y-25077400D01*
X16260900Y-25077400D02*
X16260900Y-22319100D01*
X18723600Y-19856400D02*
X18723600Y-7190200D01*
X16173400Y-37528400D02*
X16459000Y-37242800D01*
X16459000Y-37242800D02*
X16459000Y-25275500D01*
%TO.N,CAM_Y3*%
X16612600Y-24931800D02*
X16612600Y-22464700D01*
X16876800Y-30713500D02*
X16876800Y-25196000D01*
X16612600Y-22464700D02*
X19755700Y-19321600D01*
X19755700Y-19321600D02*
X19755700Y-5313300D01*
X16876800Y-25196000D02*
X16612600Y-24931800D01*
X20482200Y-34318900D02*
X16876800Y-30713500D01*
%TO.N,CAM_Y5*%
X15946800Y-38082400D02*
X15570200Y-37705800D01*
X16422500Y-38082400D02*
X15946800Y-38082400D01*
X15909200Y-25223000D02*
X15909200Y-22173500D01*
X16107300Y-25421100D02*
X15909200Y-25223000D01*
X15909200Y-22173500D02*
X16989200Y-21093500D01*
X17803300Y-9366000D02*
X17803300Y-6203400D01*
X18016500Y-36488400D02*
X16422500Y-38082400D01*
X15570200Y-29029500D02*
X16107300Y-28492400D01*
X15570200Y-37705800D02*
X15570200Y-29029500D01*
X16989200Y-21093500D02*
X16989200Y-10180100D01*
X18016500Y-33323500D02*
X18016500Y-36488400D01*
X16989200Y-10180100D02*
X17803300Y-9366000D01*
X16107300Y-28492400D02*
X16107300Y-25421100D01*
X17803300Y-6203400D02*
X16416500Y-4816600D01*
%TO.N,CAM_Y2*%
X21125100Y-29661900D02*
X21010800Y-29547600D01*
X21050500Y-10183000D02*
X21050500Y-5294400D01*
X21010800Y-29547600D02*
X21010800Y-10222700D01*
X21010800Y-10222700D02*
X21050500Y-10183000D01*
X21125100Y-30773300D02*
X21125100Y-29661900D01*
X21050500Y-5294400D02*
X20584000Y-4827900D01*
%TO.N,CAM_Y6*%
X20460600Y-29951400D02*
X20460600Y-9118800D01*
%TO.N,CAM_PCLK*%
X16316200Y-9436100D02*
X16316200Y-21269200D01*
X15538700Y-22046700D02*
X15538700Y-27499600D01*
X15115300Y-5099800D02*
X15115300Y-8235200D01*
X16316200Y-21269200D02*
X15538700Y-22046700D01*
X15115300Y-8235200D02*
X16316200Y-9436100D01*
%TO.N,LCD_MOSI*%
X29072300Y-20059400D02*
X29072300Y-23650000D01*
X39982200Y-9149500D02*
X29072300Y-20059400D01*
X39982200Y-4089800D02*
X39982200Y-9149500D01*
X24156400Y-23650000D02*
X24156400Y-26452500D01*
X24156400Y-26452500D02*
X22513900Y-28095000D01*
%TO.N,LCD_BL_PWM*%
X36598000Y-21358700D02*
X33671700Y-24285000D01*
X36598000Y-15426800D02*
X36598000Y-21358700D01*
%TO.N,BOOT*%
X34839300Y-21829300D02*
X33000000Y-19990000D01*
X33000000Y-19990000D02*
X33000000Y-19000000D01*
%TO.N,AMP_DIN*%
X19409400Y-30337100D02*
X24400700Y-35328400D01*
X24679900Y-35328400D02*
X25426300Y-36074800D01*
X24400700Y-35328400D02*
X24679900Y-35328400D01*
X31413400Y-42838500D02*
X31413400Y-43419100D01*
X25426300Y-36074800D02*
X25426300Y-36851400D01*
X19409400Y-25231200D02*
X19409400Y-30337100D01*
X25426300Y-36851400D02*
X31413400Y-42838500D01*
X17164400Y-22986200D02*
X19409400Y-25231200D01*
%TO.N,AMP_BCLK*%
X24826300Y-34976700D02*
X25778000Y-35928400D01*
X25778000Y-35928400D02*
X25778000Y-36655500D01*
X19761100Y-30189600D02*
X24548200Y-34976700D01*
X25778000Y-36655500D02*
X32152500Y-43030000D01*
X19761100Y-20248300D02*
X19761100Y-30189600D01*
X24548200Y-34976700D02*
X24826300Y-34976700D01*
%TO.N,AMP_LRCLK*%
X37569800Y-43381700D02*
X37348200Y-43381700D01*
X24255100Y-35680100D02*
X17261100Y-28686100D01*
X24751400Y-35928200D02*
X24503300Y-35680100D01*
X17261100Y-28686100D02*
X17261100Y-24799900D01*
X31144100Y-43971600D02*
X29761300Y-42588800D01*
X29761300Y-41718400D02*
X24751400Y-36708500D01*
X24751400Y-36708500D02*
X24751400Y-35928200D01*
X24503300Y-35680100D02*
X24255100Y-35680100D01*
X29761300Y-42588800D02*
X29761300Y-41718400D01*
X37348200Y-43381700D02*
X36758300Y-43971600D01*
X36758300Y-43971600D02*
X31144100Y-43971600D01*
X38829900Y-42121600D02*
X37569800Y-43381700D01*
%TO.N,MIC_SCK*%
X37967900Y-7572200D02*
X37967900Y-9012400D01*
X37967900Y-9012400D02*
X33984800Y-12995500D01*
%TO.N,MIC_WS*%
X34857100Y-9756400D02*
X34857100Y-8123900D01*
X33192600Y-11420900D02*
X34857100Y-9756400D01*
%TO.N,HEAT_LOW*%
D20*
X57347100Y-43912400D02*
X56116400Y-43912400D01*
X58280100Y-42979400D02*
X57347100Y-43912400D01*
X56116400Y-43912400D02*
X54368700Y-42164700D01*
%TO.N,VBAT_PACK*%
X17319600Y-41454100D02*
X21302300Y-41454100D01*
X14659300Y-44114400D02*
X17319600Y-41454100D01*
%TO.N,CAM_PWDN*%
D18*
X10731000Y-4533600D02*
X11307900Y-4533600D01*
X12812400Y-8352700D02*
X12990000Y-8530300D01*
X12812400Y-6038100D02*
X12812400Y-8352700D01*
X11307900Y-4533600D02*
X12812400Y-6038100D01*
X10250000Y-5014600D02*
X10731000Y-4533600D01*
%TO.N,VBAT_SENSE*%
X36196800Y-40348700D02*
X36196800Y-31269100D01*
X27251900Y-40751600D02*
X27744700Y-40751600D01*
X25565000Y-44811100D02*
X25565000Y-42438500D01*
X36196800Y-31269100D02*
X37465900Y-30000000D01*
X37060200Y-41212100D02*
X36196800Y-40348700D01*
X25565000Y-42438500D02*
X27251900Y-40751600D01*
X39801500Y-42488700D02*
X39801500Y-41809200D01*
X28145800Y-41152700D02*
X28145800Y-41517400D01*
X31113500Y-44485100D02*
X37805100Y-44485100D01*
X37805100Y-44485100D02*
X39801500Y-42488700D01*
X28145800Y-41517400D02*
X31113500Y-44485100D01*
X39204400Y-41212100D02*
X37060200Y-41212100D01*
X39801500Y-41809200D02*
X39204400Y-41212100D01*
X27744700Y-40751600D02*
X28145800Y-41152700D01*
%TO.N,CC_SENSE*%
X39058900Y-41563900D02*
X36838700Y-41563900D01*
X39449800Y-41954800D02*
X39058900Y-41563900D01*
X32372300Y-50250000D02*
X33889200Y-48733100D01*
X29047800Y-50250000D02*
X28587400Y-50250000D01*
X35845100Y-30551300D02*
X36307200Y-30089200D01*
X29047800Y-50250000D02*
X30000000Y-50250000D01*
X28587400Y-50250000D02*
X28579600Y-50242200D01*
X35845100Y-40570300D02*
X35845100Y-30551300D01*
X39449800Y-42313300D02*
X39449800Y-41954800D01*
X37576600Y-43933400D02*
X37829700Y-43933400D01*
X30000000Y-50250000D02*
X32372300Y-50250000D01*
X36838700Y-41563900D02*
X35845100Y-40570300D01*
X36307200Y-30089200D02*
X36307200Y-29409200D01*
X29047800Y-50250000D02*
X29047800Y-53379800D01*
X37829700Y-43933400D02*
X39449800Y-42313300D01*
%TD*%
M02*
