%TF.GenerationSoftware,KiCad,Pcbnew,10.0.6*%
%TF.CreationDate,2026-10-05T18:02:17-07:00*%
%TF.ProjectId,plush-toy-v2-C,706c7573-682d-4746-9f79-2d76322d432e,rev?*%
%TF.SameCoordinates,Original*%
%TF.FileFunction,Soldermask,Top*%
%TF.FilePolarity,Negative*%
%FSLAX46Y46*%
G04 Gerber Fmt 4.6, Leading zero omitted, Abs format (unit mm)*
G04 Created by KiCad (PCBNEW 10.0.6) date 2026-10-05 18:02:17*
%MOMM*%
%LPD*%
G01*
G04 APERTURE LIST*
G04 Aperture macros list*
%AMRoundRect*
0 Rectangle with rounded corners*
0 $1 Rounding radius*
0 $2 $3 $4 $5 $6 $7 $8 $9 X,Y pos of 4 corners*
0 Add a 4 corners polygon primitive as box body*
4,1,4,$2,$3,$4,$5,$6,$7,$8,$9,$2,$3,0*
0 Add four circle primitives for the rounded corners*
1,1,$1+$1,$2,$3*
1,1,$1+$1,$4,$5*
1,1,$1+$1,$6,$7*
1,1,$1+$1,$8,$9*
0 Add four rect primitives between the rounded corners*
20,1,$1+$1,$2,$3,$4,$5,0*
20,1,$1+$1,$4,$5,$6,$7,0*
20,1,$1+$1,$6,$7,$8,$9,0*
20,1,$1+$1,$8,$9,$2,$3,0*%
%AMFreePoly0*
4,1,14,0.354215,0.088284,0.450784,-0.008285,0.462500,-0.036569,0.462500,-0.060000,0.450784,-0.088284,0.422500,-0.100000,-0.422500,-0.100000,-0.450784,-0.088284,-0.462500,-0.060000,-0.462500,0.060000,-0.450784,0.088284,-0.422500,0.100000,0.325931,0.100000,0.354215,0.088284,0.354215,0.088284,$1*%
%AMFreePoly1*
4,1,14,0.450784,0.088284,0.462500,0.060000,0.462500,0.036569,0.450784,0.008285,0.354215,-0.088284,0.325931,-0.100000,-0.422500,-0.100000,-0.450784,-0.088284,-0.462500,-0.060000,-0.462500,0.060000,-0.450784,0.088284,-0.422500,0.100000,0.422500,0.100000,0.450784,0.088284,0.450784,0.088284,$1*%
%AMFreePoly2*
4,1,14,0.088284,0.450784,0.100000,0.422500,0.100000,-0.422500,0.088284,-0.450784,0.060000,-0.462500,-0.060000,-0.462500,-0.088284,-0.450784,-0.100000,-0.422500,-0.100000,0.325931,-0.088284,0.354215,0.008285,0.450784,0.036569,0.462500,0.060000,0.462500,0.088284,0.450784,0.088284,0.450784,$1*%
%AMFreePoly3*
4,1,14,-0.008285,0.450784,0.088284,0.354215,0.100000,0.325931,0.100000,-0.422500,0.088284,-0.450784,0.060000,-0.462500,-0.060000,-0.462500,-0.088284,-0.450784,-0.100000,-0.422500,-0.100000,0.422500,-0.088284,0.450784,-0.060000,0.462500,-0.036569,0.462500,-0.008285,0.450784,-0.008285,0.450784,$1*%
%AMFreePoly4*
4,1,14,0.450784,0.088284,0.462500,0.060000,0.462500,-0.060000,0.450784,-0.088284,0.422500,-0.100000,-0.325931,-0.100000,-0.354215,-0.088284,-0.450784,0.008285,-0.462500,0.036569,-0.462500,0.060000,-0.450784,0.088284,-0.422500,0.100000,0.422500,0.100000,0.450784,0.088284,0.450784,0.088284,$1*%
%AMFreePoly5*
4,1,14,0.450784,0.088284,0.462500,0.060000,0.462500,-0.060000,0.450784,-0.088284,0.422500,-0.100000,-0.422500,-0.100000,-0.450784,-0.088284,-0.462500,-0.060000,-0.462500,-0.036569,-0.450784,-0.008285,-0.354215,0.088284,-0.325931,0.100000,0.422500,0.100000,0.450784,0.088284,0.450784,0.088284,$1*%
%AMFreePoly6*
4,1,14,0.088284,0.450784,0.100000,0.422500,0.100000,-0.325931,0.088284,-0.354215,-0.008285,-0.450784,-0.036569,-0.462500,-0.060000,-0.462500,-0.088284,-0.450784,-0.100000,-0.422500,-0.100000,0.422500,-0.088284,0.450784,-0.060000,0.462500,0.060000,0.462500,0.088284,0.450784,0.088284,0.450784,$1*%
%AMFreePoly7*
4,1,14,0.088284,0.450784,0.100000,0.422500,0.100000,-0.422500,0.088284,-0.450784,0.060000,-0.462500,0.036569,-0.462500,0.008285,-0.450784,-0.088284,-0.354215,-0.100000,-0.325931,-0.100000,0.422500,-0.088284,0.450784,-0.060000,0.462500,0.060000,0.462500,0.088284,0.450784,0.088284,0.450784,$1*%
G04 Aperture macros list end*
%ADD10RoundRect,0.135000X0.185000X-0.135000X0.185000X0.135000X-0.185000X0.135000X-0.185000X-0.135000X0*%
%ADD11RoundRect,0.250000X-0.250000X-0.475000X0.250000X-0.475000X0.250000X0.475000X-0.250000X0.475000X0*%
%ADD12RoundRect,0.140000X0.170000X-0.140000X0.170000X0.140000X-0.170000X0.140000X-0.170000X-0.140000X0*%
%ADD13RoundRect,0.140000X-0.140000X-0.170000X0.140000X-0.170000X0.140000X0.170000X-0.140000X0.170000X0*%
%ADD14RoundRect,0.135000X-0.135000X-0.185000X0.135000X-0.185000X0.135000X0.185000X-0.135000X0.185000X0*%
%ADD15RoundRect,0.150000X0.150000X0.625000X-0.150000X0.625000X-0.150000X-0.625000X0.150000X-0.625000X0*%
%ADD16RoundRect,0.250000X0.350000X0.650000X-0.350000X0.650000X-0.350000X-0.650000X0.350000X-0.650000X0*%
%ADD17RoundRect,0.150000X-0.512500X-0.150000X0.512500X-0.150000X0.512500X0.150000X-0.512500X0.150000X0*%
%ADD18R,3.200000X1.020000*%
%ADD19RoundRect,0.200000X0.275000X-0.200000X0.275000X0.200000X-0.275000X0.200000X-0.275000X-0.200000X0*%
%ADD20RoundRect,0.225000X0.250000X-0.225000X0.250000X0.225000X-0.250000X0.225000X-0.250000X-0.225000X0*%
%ADD21RoundRect,0.250000X-0.375000X-0.625000X0.375000X-0.625000X0.375000X0.625000X-0.375000X0.625000X0*%
%ADD22R,1.230000X1.860000*%
%ADD23R,1.100000X3.700000*%
%ADD24R,0.600000X1.200000*%
%ADD25R,2.000000X2.000000*%
%ADD26C,2.200000*%
%ADD27RoundRect,0.250000X0.250000X0.475000X-0.250000X0.475000X-0.250000X-0.475000X0.250000X-0.475000X0*%
%ADD28RoundRect,0.050000X0.300000X-0.150000X0.300000X0.150000X-0.300000X0.150000X-0.300000X-0.150000X0*%
%ADD29RoundRect,0.250000X0.475000X-0.250000X0.475000X0.250000X-0.475000X0.250000X-0.475000X-0.250000X0*%
%ADD30FreePoly0,0.000000*%
%ADD31RoundRect,0.050000X-0.412500X-0.050000X0.412500X-0.050000X0.412500X0.050000X-0.412500X0.050000X0*%
%ADD32FreePoly1,0.000000*%
%ADD33FreePoly2,0.000000*%
%ADD34RoundRect,0.050000X-0.050000X-0.412500X0.050000X-0.412500X0.050000X0.412500X-0.050000X0.412500X0*%
%ADD35FreePoly3,0.000000*%
%ADD36FreePoly4,0.000000*%
%ADD37FreePoly5,0.000000*%
%ADD38FreePoly6,0.000000*%
%ADD39FreePoly7,0.000000*%
%ADD40C,0.650000*%
%ADD41RoundRect,0.150000X-0.150000X-0.575000X0.150000X-0.575000X0.150000X0.575000X-0.150000X0.575000X0*%
%ADD42RoundRect,0.075000X-0.075000X-0.650000X0.075000X-0.650000X0.075000X0.650000X-0.075000X0.650000X0*%
%ADD43O,1.000000X2.100000*%
%ADD44O,1.000000X1.600000*%
%ADD45R,0.900000X1.500000*%
%ADD46R,1.500000X0.900000*%
%ADD47C,0.600000*%
%ADD48R,3.900000X3.900000*%
%ADD49R,1.500000X3.500000*%
%ADD50R,0.500000X0.280000*%
%ADD51R,0.280000X0.500000*%
%ADD52RoundRect,0.140000X-0.170000X0.140000X-0.170000X-0.140000X0.170000X-0.140000X0.170000X0.140000X0*%
%ADD53RoundRect,0.150000X-0.150000X-0.625000X0.150000X-0.625000X0.150000X0.625000X-0.150000X0.625000X0*%
%ADD54RoundRect,0.250000X-0.350000X-0.650000X0.350000X-0.650000X0.350000X0.650000X-0.350000X0.650000X0*%
%ADD55RoundRect,0.225000X-0.225000X-0.250000X0.225000X-0.250000X0.225000X0.250000X-0.225000X0.250000X0*%
%ADD56RoundRect,0.140000X0.140000X0.170000X-0.140000X0.170000X-0.140000X-0.170000X0.140000X-0.170000X0*%
%ADD57R,0.700000X1.750000*%
%ADD58R,1.200000X2.550000*%
%ADD59R,1.000000X3.500000*%
%ADD60R,1.800000X4.000000*%
%ADD61R,0.500000X1.700000*%
%ADD62R,1.200000X2.500000*%
%ADD63RoundRect,0.062500X-0.237500X-0.062500X0.237500X-0.062500X0.237500X0.062500X-0.237500X0.062500X0*%
%ADD64R,0.900000X1.600000*%
%ADD65R,0.300000X1.300000*%
%ADD66R,2.000000X1.600000*%
%ADD67RoundRect,0.250000X-0.475000X0.250000X-0.475000X-0.250000X0.475000X-0.250000X0.475000X0.250000X0*%
%ADD68RoundRect,0.150000X-0.587500X-0.150000X0.587500X-0.150000X0.587500X0.150000X-0.587500X0.150000X0*%
%ADD69RoundRect,0.062500X-0.350000X-0.062500X0.350000X-0.062500X0.350000X0.062500X-0.350000X0.062500X0*%
%ADD70RoundRect,0.062500X-0.062500X-0.350000X0.062500X-0.350000X0.062500X0.350000X-0.062500X0.350000X0*%
%ADD71R,1.230000X1.230000*%
%ADD72RoundRect,0.075000X0.650000X0.075000X-0.650000X0.075000X-0.650000X-0.075000X0.650000X-0.075000X0*%
%ADD73RoundRect,0.150000X0.150000X-0.512500X0.150000X0.512500X-0.150000X0.512500X-0.150000X-0.512500X0*%
%ADD74R,1.800000X4.700000*%
%ADD75RoundRect,0.150000X0.150000X-0.587500X0.150000X0.587500X-0.150000X0.587500X-0.150000X-0.587500X0*%
%ADD76RoundRect,0.050000X-0.150000X-0.300000X0.150000X-0.300000X0.150000X0.300000X-0.150000X0.300000X0*%
G04 APERTURE END LIST*
D10*
%TO.C,R_LCD_CLK*%
X28250000Y-2510000D03*
X28250000Y-1490000D03*
%TD*%
%TO.C,R_SERVO_R_PD*%
X54250000Y-24510000D03*
X54250000Y-23490000D03*
%TD*%
D11*
%TO.C,C_SERVO1*%
X58300000Y-19500000D03*
X60200000Y-19500000D03*
%TD*%
D12*
%TO.C,C_BAT_NTC*%
X20000000Y-48980000D03*
X20000000Y-48020000D03*
%TD*%
D13*
%TO.C,C_U1*%
X2720000Y-40400000D03*
X3680000Y-40400000D03*
%TD*%
D12*
%TO.C,C_NTC*%
X52000000Y-47230000D03*
X52000000Y-46270000D03*
%TD*%
D14*
%TO.C,R_GATE*%
X50990000Y-39000000D03*
X52010000Y-39000000D03*
%TD*%
%TO.C,R_FB2*%
X45640000Y-15250000D03*
X46660000Y-15250000D03*
%TD*%
D13*
%TO.C,C_CAM_RST*%
X15520000Y-7750000D03*
X16480000Y-7750000D03*
%TD*%
D15*
%TO.C,J_LCD*%
X38500000Y-5775000D03*
X37500000Y-5775000D03*
X36500000Y-5775000D03*
X35500000Y-5775000D03*
X34500000Y-5775000D03*
X33500000Y-5775000D03*
X32500000Y-5775000D03*
X31500000Y-5775000D03*
D16*
X39800000Y-1900000D03*
X30200000Y-1900000D03*
%TD*%
D17*
%TO.C,U_LDO28*%
X6862500Y-13050000D03*
X6862500Y-14000000D03*
X6862500Y-14950000D03*
X9137500Y-14950000D03*
X9137500Y-13050000D03*
%TD*%
D18*
%TO.C,J_ARM_R*%
X58405000Y-28540000D03*
X58405000Y-26000000D03*
X58405000Y-23460000D03*
%TD*%
D19*
%TO.C,RT_BAT*%
X18500000Y-50325000D03*
X18500000Y-48675000D03*
%TD*%
D13*
%TO.C,C_TOUCH*%
X24370000Y-28250000D03*
X25330000Y-28250000D03*
%TD*%
D14*
%TO.C,R_BATN_PD*%
X18240000Y-45500000D03*
X19260000Y-45500000D03*
%TD*%
D20*
%TO.C,C_AMP_BULK*%
X38550000Y-49175000D03*
X38550000Y-47625000D03*
%TD*%
D14*
%TO.C,R_CC2*%
X22990000Y-49000000D03*
X24010000Y-49000000D03*
%TD*%
D21*
%TO.C,F_USB*%
X27600000Y-40000000D03*
X30400000Y-40000000D03*
%TD*%
D22*
%TO.C,SW_RST*%
X24820000Y-19000000D03*
X29180000Y-19000000D03*
%TD*%
D23*
%TO.C,L_BUCK*%
X50500000Y-19150000D03*
X53500000Y-19150000D03*
%TD*%
D24*
%TO.C,U_CHG*%
X42090000Y-36910000D03*
X43370000Y-36910000D03*
X44640000Y-36910000D03*
X45910000Y-36910000D03*
X45910000Y-31090000D03*
X44640000Y-31090000D03*
X43370000Y-31090000D03*
X42090000Y-31090000D03*
D25*
X44000000Y-34000000D03*
%TD*%
D10*
%TO.C,R_FB1*%
X44550000Y-17260000D03*
X44550000Y-16240000D03*
%TD*%
D18*
%TO.C,J_ARM_L*%
X58405000Y-17040000D03*
X58405000Y-14500000D03*
X58405000Y-11960000D03*
%TD*%
D26*
%TO.C,H2*%
X3500000Y-51500000D03*
%TD*%
D10*
%TO.C,R_TOUCH_REXT*%
X29000000Y-31510000D03*
X29000000Y-30490000D03*
%TD*%
D27*
%TO.C,C_BUCK_OUT2*%
X53650000Y-15950000D03*
X51750000Y-15950000D03*
%TD*%
D28*
%TO.C,D_USB_DN*%
X36250000Y-52600000D03*
X36250000Y-51900000D03*
%TD*%
%TO.C,D_ESD_MUTE*%
X56500000Y-4600000D03*
X56500000Y-3900000D03*
%TD*%
D29*
%TO.C,C_SERVO3*%
X53750000Y-29950000D03*
X53750000Y-28050000D03*
%TD*%
D30*
%TO.C,U_TOUCH*%
X24612500Y-30200000D03*
D31*
X24612500Y-30600000D03*
X24612500Y-31000000D03*
X24612500Y-31400000D03*
D32*
X24612500Y-31800000D03*
D33*
X25200000Y-32387500D03*
D34*
X25600000Y-32387500D03*
X26000000Y-32387500D03*
X26400000Y-32387500D03*
D35*
X26800000Y-32387500D03*
D36*
X27387500Y-31800000D03*
D31*
X27387500Y-31400000D03*
X27387500Y-31000000D03*
X27387500Y-30600000D03*
D37*
X27387500Y-30200000D03*
D38*
X26800000Y-29612500D03*
D34*
X26400000Y-29612500D03*
X26000000Y-29612500D03*
X25600000Y-29612500D03*
D39*
X25200000Y-29612500D03*
%TD*%
D12*
%TO.C,C_EFUSE_IN*%
X32850000Y-40380000D03*
X32850000Y-39420000D03*
%TD*%
D40*
%TO.C,J_USB*%
X27110000Y-47755000D03*
X32890000Y-47755000D03*
D41*
X26750000Y-46310000D03*
X27550000Y-46310000D03*
D42*
X28750000Y-46310000D03*
X29750000Y-46310000D03*
X30250000Y-46310000D03*
X31250000Y-46310000D03*
D41*
X32450000Y-46310000D03*
X33250000Y-46310000D03*
X33250000Y-46310000D03*
X32450000Y-46310000D03*
D42*
X31750000Y-46310000D03*
X30750000Y-46310000D03*
X29250000Y-46310000D03*
X28250000Y-46310000D03*
D41*
X27550000Y-46310000D03*
X26750000Y-46310000D03*
D43*
X25680000Y-47225000D03*
D44*
X25680000Y-51405000D03*
D43*
X34320000Y-47225000D03*
D44*
X34320000Y-51405000D03*
%TD*%
D10*
%TO.C,R_LCD_BL_OFF*%
X40500000Y-14510000D03*
X40500000Y-13490000D03*
%TD*%
%TO.C,R_EFUSE_ILM*%
X37250000Y-40260000D03*
X37250000Y-39240000D03*
%TD*%
D45*
%TO.C,U1*%
X1490000Y-38750000D03*
X2760000Y-38750000D03*
X4030000Y-38750000D03*
X5300000Y-38750000D03*
X6570000Y-38750000D03*
X7840000Y-38750000D03*
X9110000Y-38750000D03*
X10380000Y-38750000D03*
X11650000Y-38750000D03*
X12920000Y-38750000D03*
X14190000Y-38750000D03*
X15460000Y-38750000D03*
X16730000Y-38750000D03*
X18000000Y-38750000D03*
D46*
X19250000Y-36985000D03*
X19250000Y-35715000D03*
X19250000Y-34445000D03*
X19250000Y-33175000D03*
X19250000Y-31905000D03*
X19250000Y-30635000D03*
X19250000Y-29365000D03*
X19250000Y-28095000D03*
X19250000Y-26825000D03*
X19250000Y-25555000D03*
X19250000Y-24285000D03*
X19250000Y-23015000D03*
D45*
X18000000Y-21250000D03*
X16730000Y-21250000D03*
X15460000Y-21250000D03*
X14190000Y-21250000D03*
X12920000Y-21250000D03*
X11650000Y-21250000D03*
X10380000Y-21250000D03*
X9110000Y-21250000D03*
X7840000Y-21250000D03*
X6570000Y-21250000D03*
X5300000Y-21250000D03*
X4030000Y-21250000D03*
X2760000Y-21250000D03*
X1490000Y-21250000D03*
D47*
X8510000Y-32900000D03*
X9910000Y-32900000D03*
X7810000Y-32200000D03*
X9210000Y-32200000D03*
X10610000Y-32200000D03*
X8510000Y-31500000D03*
D48*
X9210000Y-31500000D03*
D47*
X9910000Y-31500000D03*
X7810000Y-30800000D03*
X9210000Y-30800000D03*
X10610000Y-30800000D03*
X8510000Y-30100000D03*
X9910000Y-30100000D03*
%TD*%
D26*
%TO.C,H1*%
X43000000Y-10000000D03*
%TD*%
D49*
%TO.C,J_HEAT*%
X56750000Y-45350000D03*
X59250000Y-45350000D03*
X53770000Y-52750000D03*
X62230000Y-52750000D03*
%TD*%
D14*
%TO.C,R_EN*%
X27240000Y-21250000D03*
X28260000Y-21250000D03*
%TD*%
D11*
%TO.C,C_CHG_VIN*%
X41450000Y-38700000D03*
X43350000Y-38700000D03*
%TD*%
D12*
%TO.C,C_IMU*%
X32800000Y-36830000D03*
X32800000Y-35870000D03*
%TD*%
D50*
%TO.C,U_IMU*%
X30120000Y-36750000D03*
X30120000Y-37250000D03*
X30120000Y-37750000D03*
X30120000Y-38250000D03*
D51*
X30750000Y-38380000D03*
X31250000Y-38380000D03*
D50*
X31880000Y-38250000D03*
X31880000Y-37750000D03*
X31880000Y-37250000D03*
X31880000Y-36750000D03*
D51*
X31250000Y-36620000D03*
X30750000Y-36620000D03*
%TD*%
D10*
%TO.C,R_SIOD*%
X6000000Y-11010000D03*
X6000000Y-9990000D03*
%TD*%
D52*
%TO.C,C_CAM_AVDD*%
X11750000Y-7520000D03*
X11750000Y-8480000D03*
%TD*%
D53*
%TO.C,J_SPK*%
X43000000Y-49225000D03*
X44000000Y-49225000D03*
D54*
X41700000Y-53100000D03*
X45300000Y-53100000D03*
%TD*%
D55*
%TO.C,C_VUSB*%
X35425000Y-42250000D03*
X36975000Y-42250000D03*
%TD*%
D13*
%TO.C,C_LDO15_IN*%
X14170000Y-11650000D03*
X15130000Y-11650000D03*
%TD*%
D14*
%TO.C,R_LCD_BL_GATE*%
X37490000Y-16000000D03*
X38510000Y-16000000D03*
%TD*%
D55*
%TO.C,C_U1_BULK*%
X2625000Y-41800000D03*
X4175000Y-41800000D03*
%TD*%
D56*
%TO.C,C_TOUCH_VREG*%
X22980000Y-33500000D03*
X22020000Y-33500000D03*
%TD*%
D57*
%TO.C,J_MIC*%
X51500000Y-5495000D03*
X50500000Y-5495000D03*
X49500000Y-5495000D03*
X48500000Y-5495000D03*
X47500000Y-5495000D03*
X46500000Y-5495000D03*
D58*
X45390000Y-1775000D03*
X52610000Y-1775000D03*
%TD*%
D59*
%TO.C,J_BAT*%
X14000000Y-46600000D03*
X12000000Y-46600000D03*
D60*
X9590000Y-52500000D03*
X16410000Y-52500000D03*
%TD*%
D61*
%TO.C,J_KEY*%
X61000000Y-5150000D03*
X60000000Y-5150000D03*
X59000000Y-5150000D03*
D62*
X62100000Y-1750000D03*
X57900000Y-1750000D03*
%TD*%
D63*
%TO.C,U_EFUSE*%
X34050000Y-39250000D03*
X34050000Y-39750000D03*
X34050000Y-40250000D03*
X34050000Y-40750000D03*
X35950000Y-40750000D03*
X35950000Y-40250000D03*
X35950000Y-39750000D03*
X35950000Y-39250000D03*
D64*
X35000000Y-40000000D03*
%TD*%
D29*
%TO.C,C_BUCK_OUT1*%
X55300000Y-20700000D03*
X55300000Y-18800000D03*
%TD*%
D56*
%TO.C,C_ADC*%
X32680000Y-31000000D03*
X31720000Y-31000000D03*
%TD*%
D14*
%TO.C,R_BATP_PU*%
X20990000Y-45500000D03*
X22010000Y-45500000D03*
%TD*%
D52*
%TO.C,C_CAM_DVDD*%
X10500000Y-7520000D03*
X10500000Y-8480000D03*
%TD*%
D65*
%TO.C,J_CAM*%
X18250000Y-6215000D03*
X17750000Y-6215000D03*
X17250000Y-6215000D03*
X16750000Y-6215000D03*
X16250000Y-6215000D03*
X15750000Y-6215000D03*
X15250000Y-6215000D03*
X14750000Y-6215000D03*
X14250000Y-6215000D03*
X13750000Y-6215000D03*
X13250000Y-6215000D03*
X12750000Y-6215000D03*
X12250000Y-6215000D03*
X11750000Y-6215000D03*
X11250000Y-6215000D03*
X10750000Y-6215000D03*
X10250000Y-6215000D03*
X9750000Y-6215000D03*
X9250000Y-6215000D03*
X8750000Y-6215000D03*
X8250000Y-6215000D03*
X7750000Y-6215000D03*
X7250000Y-6215000D03*
X6750000Y-6215000D03*
D66*
X5050000Y-3555000D03*
X19950000Y-3555000D03*
%TD*%
D12*
%TO.C,C_LDO28_OUT*%
X10750000Y-13530000D03*
X10750000Y-12570000D03*
%TD*%
D10*
%TO.C,R_GATE_PD*%
X51750000Y-45010000D03*
X51750000Y-43990000D03*
%TD*%
D67*
%TO.C,C_VSYS2*%
X44700000Y-27500000D03*
X44700000Y-29400000D03*
%TD*%
D13*
%TO.C,C_AMP*%
X39920000Y-47250000D03*
X40880000Y-47250000D03*
%TD*%
D29*
%TO.C,C_CHG_BAT*%
X46900000Y-29400000D03*
X46900000Y-27500000D03*
%TD*%
D12*
%TO.C,C_VBAT_SENSE*%
X18250000Y-52980000D03*
X18250000Y-52020000D03*
%TD*%
D28*
%TO.C,D_ESD_PWR*%
X63500000Y-3850000D03*
X63500000Y-3150000D03*
%TD*%
D10*
%TO.C,R_CC_SUM1*%
X36000000Y-48510000D03*
X36000000Y-47490000D03*
%TD*%
D68*
%TO.C,Q_HEAT*%
X51312500Y-40550000D03*
X51312500Y-42450000D03*
X53187500Y-41500000D03*
%TD*%
%TO.C,Q_LCD_BL*%
X36562500Y-12550000D03*
X36562500Y-14450000D03*
X38437500Y-13500000D03*
%TD*%
D14*
%TO.C,R_SDA*%
X23690000Y-26500000D03*
X24710000Y-26500000D03*
%TD*%
%TO.C,R_CAM_PWDN*%
X12990000Y-7750000D03*
X14010000Y-7750000D03*
%TD*%
D10*
%TO.C,R_AMP_SD*%
X37000000Y-45760000D03*
X37000000Y-44740000D03*
%TD*%
D14*
%TO.C,R_BATP_BYP*%
X19740000Y-40500000D03*
X20760000Y-40500000D03*
%TD*%
D10*
%TO.C,R_SIOC*%
X8000000Y-9010000D03*
X8000000Y-7990000D03*
%TD*%
D13*
%TO.C,C_EN*%
X25520000Y-16750000D03*
X26480000Y-16750000D03*
%TD*%
D15*
%TO.C,J_TOUCH*%
X25000000Y-5775000D03*
X24000000Y-5775000D03*
D16*
X26300000Y-1900000D03*
X22700000Y-1900000D03*
%TD*%
D14*
%TO.C,R_BOOT*%
X33240000Y-21250000D03*
X34260000Y-21250000D03*
%TD*%
D17*
%TO.C,U_LDO15*%
X14862500Y-13050000D03*
X14862500Y-14000000D03*
X14862500Y-14950000D03*
X17137500Y-14950000D03*
X17137500Y-13050000D03*
%TD*%
D69*
%TO.C,U_AMP*%
X38562500Y-43750000D03*
X38562500Y-44250000D03*
X38562500Y-44750000D03*
X38562500Y-45250000D03*
D70*
X39250000Y-45937500D03*
X39750000Y-45937500D03*
X40250000Y-45937500D03*
X40750000Y-45937500D03*
D69*
X41437500Y-45250000D03*
X41437500Y-44750000D03*
X41437500Y-44250000D03*
X41437500Y-43750000D03*
D70*
X40750000Y-43062500D03*
X40250000Y-43062500D03*
X39750000Y-43062500D03*
X39250000Y-43062500D03*
D71*
X40000000Y-44500000D03*
%TD*%
D11*
%TO.C,C_VSYS1*%
X40850000Y-29300000D03*
X42750000Y-29300000D03*
%TD*%
D53*
%TO.C,J_NTC*%
X49200000Y-49225000D03*
X50200000Y-49225000D03*
D54*
X47900000Y-53100000D03*
X51500000Y-53100000D03*
%TD*%
D10*
%TO.C,R_LCD_MOSI*%
X42000000Y-4260000D03*
X42000000Y-3240000D03*
%TD*%
%TO.C,R_KEY_MUTE_PU*%
X63500000Y-6010000D03*
X63500000Y-4990000D03*
%TD*%
%TO.C,R_BAT_NTC*%
X20000000Y-51260000D03*
X20000000Y-50240000D03*
%TD*%
D20*
%TO.C,C_BUCK_IN*%
X44350000Y-20125000D03*
X44350000Y-18575000D03*
%TD*%
D10*
%TO.C,R_CC_SUM2*%
X23750000Y-54010000D03*
X23750000Y-52990000D03*
%TD*%
D28*
%TO.C,D_ESD_TOUCH*%
X28250000Y-5100000D03*
X28250000Y-4400000D03*
%TD*%
D10*
%TO.C,R_BATN_G*%
X14500000Y-42260000D03*
X14500000Y-41240000D03*
%TD*%
%TO.C,R_CAM_RST*%
X9250000Y-11510000D03*
X9250000Y-10490000D03*
%TD*%
%TO.C,R_CC1*%
X24000000Y-51510000D03*
X24000000Y-50490000D03*
%TD*%
D13*
%TO.C,C_FF*%
X43620000Y-15150000D03*
X44580000Y-15150000D03*
%TD*%
D12*
%TO.C,C_LDO28_IN*%
X5300000Y-13930000D03*
X5300000Y-12970000D03*
%TD*%
D10*
%TO.C,R_NTC*%
X50750000Y-47260000D03*
X50750000Y-46240000D03*
%TD*%
D13*
%TO.C,C_EFUSE_DVDT*%
X33270000Y-38100000D03*
X34230000Y-38100000D03*
%TD*%
D11*
%TO.C,C_SERVO2*%
X58300000Y-31000000D03*
X60200000Y-31000000D03*
%TD*%
D13*
%TO.C,C_CC_SENSE*%
X23020000Y-47750000D03*
X23980000Y-47750000D03*
%TD*%
D14*
%TO.C,R_SCL*%
X21490000Y-26500000D03*
X22510000Y-26500000D03*
%TD*%
%TO.C,R_VBAT_BOT*%
X6990000Y-48750000D03*
X8010000Y-48750000D03*
%TD*%
D10*
%TO.C,R_VBAT_TOP*%
X8000000Y-51010000D03*
X8000000Y-49990000D03*
%TD*%
D72*
%TO.C,U_ADC*%
X38650000Y-32000000D03*
X38650000Y-31500000D03*
X38650000Y-31000000D03*
X38650000Y-30500000D03*
X38650000Y-30000000D03*
X34350000Y-30000000D03*
X34350000Y-30500000D03*
X34350000Y-31000000D03*
X34350000Y-31500000D03*
X34350000Y-32000000D03*
%TD*%
D73*
%TO.C,U_BUCK*%
X46050000Y-19137500D03*
X47000000Y-19137500D03*
X47950000Y-19137500D03*
X47950000Y-16862500D03*
X46050000Y-16862500D03*
%TD*%
D68*
%TO.C,Q_BATP*%
X20062500Y-42050000D03*
X20062500Y-43950000D03*
X21937500Y-43000000D03*
%TD*%
D74*
%TO.C,L_CHG*%
X35950000Y-25000000D03*
X40050000Y-25000000D03*
%TD*%
D13*
%TO.C,C_LCD*%
X41770000Y-5750000D03*
X42730000Y-5750000D03*
%TD*%
D75*
%TO.C,Q_BATN*%
X16050000Y-43437500D03*
X17950000Y-43437500D03*
X17000000Y-41562500D03*
%TD*%
D22*
%TO.C,SW_BOOT*%
X30820000Y-19000000D03*
X35180000Y-19000000D03*
%TD*%
D13*
%TO.C,C_BUCK_HF*%
X45970000Y-20700000D03*
X46930000Y-20700000D03*
%TD*%
%TO.C,C_LDO15_OUT*%
X16420000Y-11650000D03*
X17380000Y-11650000D03*
%TD*%
D76*
%TO.C,D_USB_DP*%
X36150000Y-50250000D03*
X36850000Y-50250000D03*
%TD*%
D12*
%TO.C,C_MIC*%
X54000000Y-4230000D03*
X54000000Y-3270000D03*
%TD*%
M02*
