%TF.GenerationSoftware,KiCad,Pcbnew,10.0.6*%
%TF.CreationDate,2026-10-05T18:02:17-07:00*%
%TF.ProjectId,plush-toy-v2-C,706c7573-682d-4746-9f79-2d76322d432e,rev?*%
%TF.SameCoordinates,Original*%
%TF.FileFunction,Legend,Top*%
%TF.FilePolarity,Positive*%
%FSLAX46Y46*%
G04 Gerber Fmt 4.6, Leading zero omitted, Abs format (unit mm)*
G04 Created by KiCad (PCBNEW 10.0.6) date 2026-10-05 18:02:17*
%MOMM*%
%LPD*%
G01*
G04 APERTURE LIST*
G04 Aperture macros list*
%AMRoundRect*
0 Rectangle with rounded corners*
0 $1 Rounding radius*
0 $2 $3 $4 $5 $6 $7 $8 $9 X,Y pos of 4 corners*
0 Add a 4 corners polygon primitive as box body*
4,1,4,$2,$3,$4,$5,$6,$7,$8,$9,$2,$3,0*
0 Add four circle primitives for the rounded corners*
1,1,$1+$1,$2,$3*
1,1,$1+$1,$4,$5*
1,1,$1+$1,$6,$7*
1,1,$1+$1,$8,$9*
0 Add four rect primitives between the rounded corners*
20,1,$1+$1,$2,$3,$4,$5,0*
20,1,$1+$1,$4,$5,$6,$7,0*
20,1,$1+$1,$6,$7,$8,$9,0*
20,1,$1+$1,$8,$9,$2,$3,0*%
%AMFreePoly0*
4,1,14,0.354215,0.088284,0.450784,-0.008285,0.462500,-0.036569,0.462500,-0.060000,0.450784,-0.088284,0.422500,-0.100000,-0.422500,-0.100000,-0.450784,-0.088284,-0.462500,-0.060000,-0.462500,0.060000,-0.450784,0.088284,-0.422500,0.100000,0.325931,0.100000,0.354215,0.088284,0.354215,0.088284,$1*%
%AMFreePoly1*
4,1,14,0.450784,0.088284,0.462500,0.060000,0.462500,0.036569,0.450784,0.008285,0.354215,-0.088284,0.325931,-0.100000,-0.422500,-0.100000,-0.450784,-0.088284,-0.462500,-0.060000,-0.462500,0.060000,-0.450784,0.088284,-0.422500,0.100000,0.422500,0.100000,0.450784,0.088284,0.450784,0.088284,$1*%
%AMFreePoly2*
4,1,14,0.088284,0.450784,0.100000,0.422500,0.100000,-0.422500,0.088284,-0.450784,0.060000,-0.462500,-0.060000,-0.462500,-0.088284,-0.450784,-0.100000,-0.422500,-0.100000,0.325931,-0.088284,0.354215,0.008285,0.450784,0.036569,0.462500,0.060000,0.462500,0.088284,0.450784,0.088284,0.450784,$1*%
%AMFreePoly3*
4,1,14,-0.008285,0.450784,0.088284,0.354215,0.100000,0.325931,0.100000,-0.422500,0.088284,-0.450784,0.060000,-0.462500,-0.060000,-0.462500,-0.088284,-0.450784,-0.100000,-0.422500,-0.100000,0.422500,-0.088284,0.450784,-0.060000,0.462500,-0.036569,0.462500,-0.008285,0.450784,-0.008285,0.450784,$1*%
%AMFreePoly4*
4,1,14,0.450784,0.088284,0.462500,0.060000,0.462500,-0.060000,0.450784,-0.088284,0.422500,-0.100000,-0.325931,-0.100000,-0.354215,-0.088284,-0.450784,0.008285,-0.462500,0.036569,-0.462500,0.060000,-0.450784,0.088284,-0.422500,0.100000,0.422500,0.100000,0.450784,0.088284,0.450784,0.088284,$1*%
%AMFreePoly5*
4,1,14,0.450784,0.088284,0.462500,0.060000,0.462500,-0.060000,0.450784,-0.088284,0.422500,-0.100000,-0.422500,-0.100000,-0.450784,-0.088284,-0.462500,-0.060000,-0.462500,-0.036569,-0.450784,-0.008285,-0.354215,0.088284,-0.325931,0.100000,0.422500,0.100000,0.450784,0.088284,0.450784,0.088284,$1*%
%AMFreePoly6*
4,1,14,0.088284,0.450784,0.100000,0.422500,0.100000,-0.325931,0.088284,-0.354215,-0.008285,-0.450784,-0.036569,-0.462500,-0.060000,-0.462500,-0.088284,-0.450784,-0.100000,-0.422500,-0.100000,0.422500,-0.088284,0.450784,-0.060000,0.462500,0.060000,0.462500,0.088284,0.450784,0.088284,0.450784,$1*%
%AMFreePoly7*
4,1,14,0.088284,0.450784,0.100000,0.422500,0.100000,-0.422500,0.088284,-0.450784,0.060000,-0.462500,0.036569,-0.462500,0.008285,-0.450784,-0.088284,-0.354215,-0.100000,-0.325931,-0.100000,0.422500,-0.088284,0.450784,-0.060000,0.462500,0.060000,0.462500,0.088284,0.450784,0.088284,0.450784,$1*%
G04 Aperture macros list end*
%ADD10C,0.150000*%
%ADD11C,0.120000*%
%ADD12C,0.250000*%
%ADD13C,0.060000*%
%ADD14C,0.400000*%
%ADD15C,0.100000*%
%ADD16C,0.000000*%
%ADD17RoundRect,0.135000X0.185000X-0.135000X0.185000X0.135000X-0.185000X0.135000X-0.185000X-0.135000X0*%
%ADD18RoundRect,0.250000X-0.250000X-0.475000X0.250000X-0.475000X0.250000X0.475000X-0.250000X0.475000X0*%
%ADD19RoundRect,0.140000X0.170000X-0.140000X0.170000X0.140000X-0.170000X0.140000X-0.170000X-0.140000X0*%
%ADD20RoundRect,0.140000X-0.140000X-0.170000X0.140000X-0.170000X0.140000X0.170000X-0.140000X0.170000X0*%
%ADD21RoundRect,0.135000X-0.135000X-0.185000X0.135000X-0.185000X0.135000X0.185000X-0.135000X0.185000X0*%
%ADD22RoundRect,0.150000X0.150000X0.625000X-0.150000X0.625000X-0.150000X-0.625000X0.150000X-0.625000X0*%
%ADD23RoundRect,0.250000X0.350000X0.650000X-0.350000X0.650000X-0.350000X-0.650000X0.350000X-0.650000X0*%
%ADD24RoundRect,0.150000X-0.512500X-0.150000X0.512500X-0.150000X0.512500X0.150000X-0.512500X0.150000X0*%
%ADD25R,3.200000X1.020000*%
%ADD26RoundRect,0.200000X0.275000X-0.200000X0.275000X0.200000X-0.275000X0.200000X-0.275000X-0.200000X0*%
%ADD27RoundRect,0.225000X0.250000X-0.225000X0.250000X0.225000X-0.250000X0.225000X-0.250000X-0.225000X0*%
%ADD28RoundRect,0.250000X-0.375000X-0.625000X0.375000X-0.625000X0.375000X0.625000X-0.375000X0.625000X0*%
%ADD29R,1.230000X1.860000*%
%ADD30R,1.100000X3.700000*%
%ADD31R,0.600000X1.200000*%
%ADD32R,2.000000X2.000000*%
%ADD33C,2.200000*%
%ADD34RoundRect,0.250000X0.250000X0.475000X-0.250000X0.475000X-0.250000X-0.475000X0.250000X-0.475000X0*%
%ADD35RoundRect,0.050000X0.300000X-0.150000X0.300000X0.150000X-0.300000X0.150000X-0.300000X-0.150000X0*%
%ADD36RoundRect,0.250000X0.475000X-0.250000X0.475000X0.250000X-0.475000X0.250000X-0.475000X-0.250000X0*%
%ADD37FreePoly0,0.000000*%
%ADD38RoundRect,0.050000X-0.412500X-0.050000X0.412500X-0.050000X0.412500X0.050000X-0.412500X0.050000X0*%
%ADD39FreePoly1,0.000000*%
%ADD40FreePoly2,0.000000*%
%ADD41RoundRect,0.050000X-0.050000X-0.412500X0.050000X-0.412500X0.050000X0.412500X-0.050000X0.412500X0*%
%ADD42FreePoly3,0.000000*%
%ADD43FreePoly4,0.000000*%
%ADD44FreePoly5,0.000000*%
%ADD45FreePoly6,0.000000*%
%ADD46FreePoly7,0.000000*%
%ADD47C,0.650000*%
%ADD48RoundRect,0.150000X-0.150000X-0.575000X0.150000X-0.575000X0.150000X0.575000X-0.150000X0.575000X0*%
%ADD49RoundRect,0.075000X-0.075000X-0.650000X0.075000X-0.650000X0.075000X0.650000X-0.075000X0.650000X0*%
%ADD50O,1.000000X2.100000*%
%ADD51O,1.000000X1.600000*%
%ADD52R,0.900000X1.500000*%
%ADD53R,1.500000X0.900000*%
%ADD54C,0.600000*%
%ADD55R,3.900000X3.900000*%
%ADD56R,1.500000X3.500000*%
%ADD57R,0.500000X0.280000*%
%ADD58R,0.280000X0.500000*%
%ADD59RoundRect,0.140000X-0.170000X0.140000X-0.170000X-0.140000X0.170000X-0.140000X0.170000X0.140000X0*%
%ADD60RoundRect,0.150000X-0.150000X-0.625000X0.150000X-0.625000X0.150000X0.625000X-0.150000X0.625000X0*%
%ADD61RoundRect,0.250000X-0.350000X-0.650000X0.350000X-0.650000X0.350000X0.650000X-0.350000X0.650000X0*%
%ADD62RoundRect,0.225000X-0.225000X-0.250000X0.225000X-0.250000X0.225000X0.250000X-0.225000X0.250000X0*%
%ADD63RoundRect,0.140000X0.140000X0.170000X-0.140000X0.170000X-0.140000X-0.170000X0.140000X-0.170000X0*%
%ADD64R,0.700000X1.750000*%
%ADD65R,1.200000X2.550000*%
%ADD66R,1.000000X3.500000*%
%ADD67R,1.800000X4.000000*%
%ADD68R,0.500000X1.700000*%
%ADD69R,1.200000X2.500000*%
%ADD70RoundRect,0.062500X-0.237500X-0.062500X0.237500X-0.062500X0.237500X0.062500X-0.237500X0.062500X0*%
%ADD71R,0.900000X1.600000*%
%ADD72R,0.300000X1.300000*%
%ADD73R,2.000000X1.600000*%
%ADD74RoundRect,0.250000X-0.475000X0.250000X-0.475000X-0.250000X0.475000X-0.250000X0.475000X0.250000X0*%
%ADD75RoundRect,0.150000X-0.587500X-0.150000X0.587500X-0.150000X0.587500X0.150000X-0.587500X0.150000X0*%
%ADD76RoundRect,0.062500X-0.350000X-0.062500X0.350000X-0.062500X0.350000X0.062500X-0.350000X0.062500X0*%
%ADD77RoundRect,0.062500X-0.062500X-0.350000X0.062500X-0.350000X0.062500X0.350000X-0.062500X0.350000X0*%
%ADD78R,1.230000X1.230000*%
%ADD79RoundRect,0.075000X0.650000X0.075000X-0.650000X0.075000X-0.650000X-0.075000X0.650000X-0.075000X0*%
%ADD80RoundRect,0.150000X0.150000X-0.512500X0.150000X0.512500X-0.150000X0.512500X-0.150000X-0.512500X0*%
%ADD81R,1.800000X4.700000*%
%ADD82RoundRect,0.150000X0.150000X-0.587500X0.150000X0.587500X-0.150000X0.587500X-0.150000X-0.587500X0*%
%ADD83RoundRect,0.050000X-0.150000X-0.300000X0.150000X-0.300000X0.150000X0.300000X-0.150000X0.300000X0*%
G04 APERTURE END LIST*
D10*
X9409523Y-42593247D02*
X9523809Y-42631342D01*
X9523809Y-42631342D02*
X9561904Y-42669438D01*
X9561904Y-42669438D02*
X9600000Y-42745628D01*
X9600000Y-42745628D02*
X9600000Y-42859914D01*
X9600000Y-42859914D02*
X9561904Y-42936104D01*
X9561904Y-42936104D02*
X9523809Y-42974200D01*
X9523809Y-42974200D02*
X9447619Y-43012295D01*
X9447619Y-43012295D02*
X9142857Y-43012295D01*
X9142857Y-43012295D02*
X9142857Y-42212295D01*
X9142857Y-42212295D02*
X9409523Y-42212295D01*
X9409523Y-42212295D02*
X9485714Y-42250390D01*
X9485714Y-42250390D02*
X9523809Y-42288485D01*
X9523809Y-42288485D02*
X9561904Y-42364676D01*
X9561904Y-42364676D02*
X9561904Y-42440866D01*
X9561904Y-42440866D02*
X9523809Y-42517057D01*
X9523809Y-42517057D02*
X9485714Y-42555152D01*
X9485714Y-42555152D02*
X9409523Y-42593247D01*
X9409523Y-42593247D02*
X9142857Y-42593247D01*
X9904761Y-42783723D02*
X10285714Y-42783723D01*
X9828571Y-43012295D02*
X10095238Y-42212295D01*
X10095238Y-42212295D02*
X10361904Y-43012295D01*
X10514285Y-42212295D02*
X10971428Y-42212295D01*
X10742856Y-43012295D02*
X10742856Y-42212295D01*
X11695238Y-43826283D02*
X12304762Y-43826283D01*
X13695238Y-43826283D02*
X14304762Y-43826283D01*
X14000000Y-44131045D02*
X14000000Y-43521521D01*
X19614286Y-8312295D02*
X20071429Y-8312295D01*
X19842857Y-9112295D02*
X19842857Y-8312295D01*
X20490477Y-8312295D02*
X20642858Y-8312295D01*
X20642858Y-8312295D02*
X20719048Y-8350390D01*
X20719048Y-8350390D02*
X20795239Y-8426580D01*
X20795239Y-8426580D02*
X20833334Y-8578961D01*
X20833334Y-8578961D02*
X20833334Y-8845628D01*
X20833334Y-8845628D02*
X20795239Y-8998009D01*
X20795239Y-8998009D02*
X20719048Y-9074200D01*
X20719048Y-9074200D02*
X20642858Y-9112295D01*
X20642858Y-9112295D02*
X20490477Y-9112295D01*
X20490477Y-9112295D02*
X20414286Y-9074200D01*
X20414286Y-9074200D02*
X20338096Y-8998009D01*
X20338096Y-8998009D02*
X20300000Y-8845628D01*
X20300000Y-8845628D02*
X20300000Y-8578961D01*
X20300000Y-8578961D02*
X20338096Y-8426580D01*
X20338096Y-8426580D02*
X20414286Y-8350390D01*
X20414286Y-8350390D02*
X20490477Y-8312295D01*
X21176191Y-8312295D02*
X21176191Y-8959914D01*
X21176191Y-8959914D02*
X21214286Y-9036104D01*
X21214286Y-9036104D02*
X21252381Y-9074200D01*
X21252381Y-9074200D02*
X21328572Y-9112295D01*
X21328572Y-9112295D02*
X21480953Y-9112295D01*
X21480953Y-9112295D02*
X21557143Y-9074200D01*
X21557143Y-9074200D02*
X21595238Y-9036104D01*
X21595238Y-9036104D02*
X21633334Y-8959914D01*
X21633334Y-8959914D02*
X21633334Y-8312295D01*
X22471429Y-9036104D02*
X22433333Y-9074200D01*
X22433333Y-9074200D02*
X22319048Y-9112295D01*
X22319048Y-9112295D02*
X22242857Y-9112295D01*
X22242857Y-9112295D02*
X22128571Y-9074200D01*
X22128571Y-9074200D02*
X22052381Y-8998009D01*
X22052381Y-8998009D02*
X22014286Y-8921819D01*
X22014286Y-8921819D02*
X21976190Y-8769438D01*
X21976190Y-8769438D02*
X21976190Y-8655152D01*
X21976190Y-8655152D02*
X22014286Y-8502771D01*
X22014286Y-8502771D02*
X22052381Y-8426580D01*
X22052381Y-8426580D02*
X22128571Y-8350390D01*
X22128571Y-8350390D02*
X22242857Y-8312295D01*
X22242857Y-8312295D02*
X22319048Y-8312295D01*
X22319048Y-8312295D02*
X22433333Y-8350390D01*
X22433333Y-8350390D02*
X22471429Y-8388485D01*
X22814286Y-9112295D02*
X22814286Y-8312295D01*
X22814286Y-8693247D02*
X23271429Y-8693247D01*
X23271429Y-9112295D02*
X23271429Y-8312295D01*
X24209523Y-9857355D02*
X24133333Y-9819260D01*
X24133333Y-9819260D02*
X24019047Y-9819260D01*
X24019047Y-9819260D02*
X23904761Y-9857355D01*
X23904761Y-9857355D02*
X23828571Y-9933545D01*
X23828571Y-9933545D02*
X23790476Y-10009736D01*
X23790476Y-10009736D02*
X23752380Y-10162117D01*
X23752380Y-10162117D02*
X23752380Y-10276403D01*
X23752380Y-10276403D02*
X23790476Y-10428784D01*
X23790476Y-10428784D02*
X23828571Y-10504974D01*
X23828571Y-10504974D02*
X23904761Y-10581165D01*
X23904761Y-10581165D02*
X24019047Y-10619260D01*
X24019047Y-10619260D02*
X24095238Y-10619260D01*
X24095238Y-10619260D02*
X24209523Y-10581165D01*
X24209523Y-10581165D02*
X24247619Y-10543069D01*
X24247619Y-10543069D02*
X24247619Y-10276403D01*
X24247619Y-10276403D02*
X24095238Y-10276403D01*
X29447619Y-9112295D02*
X29066667Y-9112295D01*
X29066667Y-9112295D02*
X29066667Y-8312295D01*
X30171429Y-9036104D02*
X30133333Y-9074200D01*
X30133333Y-9074200D02*
X30019048Y-9112295D01*
X30019048Y-9112295D02*
X29942857Y-9112295D01*
X29942857Y-9112295D02*
X29828571Y-9074200D01*
X29828571Y-9074200D02*
X29752381Y-8998009D01*
X29752381Y-8998009D02*
X29714286Y-8921819D01*
X29714286Y-8921819D02*
X29676190Y-8769438D01*
X29676190Y-8769438D02*
X29676190Y-8655152D01*
X29676190Y-8655152D02*
X29714286Y-8502771D01*
X29714286Y-8502771D02*
X29752381Y-8426580D01*
X29752381Y-8426580D02*
X29828571Y-8350390D01*
X29828571Y-8350390D02*
X29942857Y-8312295D01*
X29942857Y-8312295D02*
X30019048Y-8312295D01*
X30019048Y-8312295D02*
X30133333Y-8350390D01*
X30133333Y-8350390D02*
X30171429Y-8388485D01*
X30514286Y-9112295D02*
X30514286Y-8312295D01*
X30514286Y-8312295D02*
X30704762Y-8312295D01*
X30704762Y-8312295D02*
X30819048Y-8350390D01*
X30819048Y-8350390D02*
X30895238Y-8426580D01*
X30895238Y-8426580D02*
X30933333Y-8502771D01*
X30933333Y-8502771D02*
X30971429Y-8655152D01*
X30971429Y-8655152D02*
X30971429Y-8769438D01*
X30971429Y-8769438D02*
X30933333Y-8921819D01*
X30933333Y-8921819D02*
X30895238Y-8998009D01*
X30895238Y-8998009D02*
X30819048Y-9074200D01*
X30819048Y-9074200D02*
X30704762Y-9112295D01*
X30704762Y-9112295D02*
X30514286Y-9112295D01*
X28990476Y-42947295D02*
X28990476Y-43594914D01*
X28990476Y-43594914D02*
X29028571Y-43671104D01*
X29028571Y-43671104D02*
X29066666Y-43709200D01*
X29066666Y-43709200D02*
X29142857Y-43747295D01*
X29142857Y-43747295D02*
X29295238Y-43747295D01*
X29295238Y-43747295D02*
X29371428Y-43709200D01*
X29371428Y-43709200D02*
X29409523Y-43671104D01*
X29409523Y-43671104D02*
X29447619Y-43594914D01*
X29447619Y-43594914D02*
X29447619Y-42947295D01*
X29790475Y-43709200D02*
X29904761Y-43747295D01*
X29904761Y-43747295D02*
X30095237Y-43747295D01*
X30095237Y-43747295D02*
X30171428Y-43709200D01*
X30171428Y-43709200D02*
X30209523Y-43671104D01*
X30209523Y-43671104D02*
X30247618Y-43594914D01*
X30247618Y-43594914D02*
X30247618Y-43518723D01*
X30247618Y-43518723D02*
X30209523Y-43442533D01*
X30209523Y-43442533D02*
X30171428Y-43404438D01*
X30171428Y-43404438D02*
X30095237Y-43366342D01*
X30095237Y-43366342D02*
X29942856Y-43328247D01*
X29942856Y-43328247D02*
X29866666Y-43290152D01*
X29866666Y-43290152D02*
X29828571Y-43252057D01*
X29828571Y-43252057D02*
X29790475Y-43175866D01*
X29790475Y-43175866D02*
X29790475Y-43099676D01*
X29790475Y-43099676D02*
X29828571Y-43023485D01*
X29828571Y-43023485D02*
X29866666Y-42985390D01*
X29866666Y-42985390D02*
X29942856Y-42947295D01*
X29942856Y-42947295D02*
X30133333Y-42947295D01*
X30133333Y-42947295D02*
X30247618Y-42985390D01*
X30857142Y-43328247D02*
X30971428Y-43366342D01*
X30971428Y-43366342D02*
X31009523Y-43404438D01*
X31009523Y-43404438D02*
X31047619Y-43480628D01*
X31047619Y-43480628D02*
X31047619Y-43594914D01*
X31047619Y-43594914D02*
X31009523Y-43671104D01*
X31009523Y-43671104D02*
X30971428Y-43709200D01*
X30971428Y-43709200D02*
X30895238Y-43747295D01*
X30895238Y-43747295D02*
X30590476Y-43747295D01*
X30590476Y-43747295D02*
X30590476Y-42947295D01*
X30590476Y-42947295D02*
X30857142Y-42947295D01*
X30857142Y-42947295D02*
X30933333Y-42985390D01*
X30933333Y-42985390D02*
X30971428Y-43023485D01*
X30971428Y-43023485D02*
X31009523Y-43099676D01*
X31009523Y-43099676D02*
X31009523Y-43175866D01*
X31009523Y-43175866D02*
X30971428Y-43252057D01*
X30971428Y-43252057D02*
X30933333Y-43290152D01*
X30933333Y-43290152D02*
X30857142Y-43328247D01*
X30857142Y-43328247D02*
X30590476Y-43328247D01*
X33709523Y-9933545D02*
X33633333Y-9895450D01*
X33633333Y-9895450D02*
X33519047Y-9895450D01*
X33519047Y-9895450D02*
X33404761Y-9933545D01*
X33404761Y-9933545D02*
X33328571Y-10009735D01*
X33328571Y-10009735D02*
X33290476Y-10085926D01*
X33290476Y-10085926D02*
X33252380Y-10238307D01*
X33252380Y-10238307D02*
X33252380Y-10352593D01*
X33252380Y-10352593D02*
X33290476Y-10504974D01*
X33290476Y-10504974D02*
X33328571Y-10581164D01*
X33328571Y-10581164D02*
X33404761Y-10657355D01*
X33404761Y-10657355D02*
X33519047Y-10695450D01*
X33519047Y-10695450D02*
X33595238Y-10695450D01*
X33595238Y-10695450D02*
X33709523Y-10657355D01*
X33709523Y-10657355D02*
X33747619Y-10619259D01*
X33747619Y-10619259D02*
X33747619Y-10352593D01*
X33747619Y-10352593D02*
X33595238Y-10352593D01*
X42695238Y-46876283D02*
X43304762Y-46876283D01*
X43000000Y-47181045D02*
X43000000Y-46571521D01*
X43695238Y-45295807D02*
X44304762Y-45295807D01*
X46709523Y-9089259D02*
X46633333Y-9051164D01*
X46633333Y-9051164D02*
X46519047Y-9051164D01*
X46519047Y-9051164D02*
X46404761Y-9089259D01*
X46404761Y-9089259D02*
X46328571Y-9165449D01*
X46328571Y-9165449D02*
X46290476Y-9241640D01*
X46290476Y-9241640D02*
X46252380Y-9394021D01*
X46252380Y-9394021D02*
X46252380Y-9508307D01*
X46252380Y-9508307D02*
X46290476Y-9660688D01*
X46290476Y-9660688D02*
X46328571Y-9736878D01*
X46328571Y-9736878D02*
X46404761Y-9813069D01*
X46404761Y-9813069D02*
X46519047Y-9851164D01*
X46519047Y-9851164D02*
X46595238Y-9851164D01*
X46595238Y-9851164D02*
X46709523Y-9813069D01*
X46709523Y-9813069D02*
X46747619Y-9774973D01*
X46747619Y-9774973D02*
X46747619Y-9508307D01*
X46747619Y-9508307D02*
X46595238Y-9508307D01*
X45471428Y-46574199D02*
X45585714Y-46612294D01*
X45585714Y-46612294D02*
X45776190Y-46612294D01*
X45776190Y-46612294D02*
X45852381Y-46574199D01*
X45852381Y-46574199D02*
X45890476Y-46536103D01*
X45890476Y-46536103D02*
X45928571Y-46459913D01*
X45928571Y-46459913D02*
X45928571Y-46383722D01*
X45928571Y-46383722D02*
X45890476Y-46307532D01*
X45890476Y-46307532D02*
X45852381Y-46269437D01*
X45852381Y-46269437D02*
X45776190Y-46231341D01*
X45776190Y-46231341D02*
X45623809Y-46193246D01*
X45623809Y-46193246D02*
X45547619Y-46155151D01*
X45547619Y-46155151D02*
X45509524Y-46117056D01*
X45509524Y-46117056D02*
X45471428Y-46040865D01*
X45471428Y-46040865D02*
X45471428Y-45964675D01*
X45471428Y-45964675D02*
X45509524Y-45888484D01*
X45509524Y-45888484D02*
X45547619Y-45850389D01*
X45547619Y-45850389D02*
X45623809Y-45812294D01*
X45623809Y-45812294D02*
X45814286Y-45812294D01*
X45814286Y-45812294D02*
X45928571Y-45850389D01*
X46271429Y-46612294D02*
X46271429Y-45812294D01*
X46271429Y-45812294D02*
X46576191Y-45812294D01*
X46576191Y-45812294D02*
X46652381Y-45850389D01*
X46652381Y-45850389D02*
X46690476Y-45888484D01*
X46690476Y-45888484D02*
X46728572Y-45964675D01*
X46728572Y-45964675D02*
X46728572Y-46078960D01*
X46728572Y-46078960D02*
X46690476Y-46155151D01*
X46690476Y-46155151D02*
X46652381Y-46193246D01*
X46652381Y-46193246D02*
X46576191Y-46231341D01*
X46576191Y-46231341D02*
X46271429Y-46231341D01*
X47071429Y-46612294D02*
X47071429Y-45812294D01*
X47528572Y-46612294D02*
X47185714Y-46155151D01*
X47528572Y-45812294D02*
X47071429Y-46269437D01*
X46766666Y-44612294D02*
X46766666Y-43812294D01*
X46766666Y-43812294D02*
X47223809Y-44612294D01*
X47223809Y-44612294D02*
X47223809Y-43812294D01*
X47490475Y-43812294D02*
X47947618Y-43812294D01*
X47719046Y-44612294D02*
X47719046Y-43812294D01*
X48671428Y-44536103D02*
X48633332Y-44574199D01*
X48633332Y-44574199D02*
X48519047Y-44612294D01*
X48519047Y-44612294D02*
X48442856Y-44612294D01*
X48442856Y-44612294D02*
X48328570Y-44574199D01*
X48328570Y-44574199D02*
X48252380Y-44498008D01*
X48252380Y-44498008D02*
X48214285Y-44421818D01*
X48214285Y-44421818D02*
X48176189Y-44269437D01*
X48176189Y-44269437D02*
X48176189Y-44155151D01*
X48176189Y-44155151D02*
X48214285Y-44002770D01*
X48214285Y-44002770D02*
X48252380Y-43926579D01*
X48252380Y-43926579D02*
X48328570Y-43850389D01*
X48328570Y-43850389D02*
X48442856Y-43812294D01*
X48442856Y-43812294D02*
X48519047Y-43812294D01*
X48519047Y-43812294D02*
X48633332Y-43850389D01*
X48633332Y-43850389D02*
X48671428Y-43888484D01*
X50409522Y-44381521D02*
X50333332Y-44343426D01*
X50333332Y-44343426D02*
X50219046Y-44343426D01*
X50219046Y-44343426D02*
X50104760Y-44381521D01*
X50104760Y-44381521D02*
X50028570Y-44457711D01*
X50028570Y-44457711D02*
X49990475Y-44533902D01*
X49990475Y-44533902D02*
X49952379Y-44686283D01*
X49952379Y-44686283D02*
X49952379Y-44800569D01*
X49952379Y-44800569D02*
X49990475Y-44952950D01*
X49990475Y-44952950D02*
X50028570Y-45029140D01*
X50028570Y-45029140D02*
X50104760Y-45105331D01*
X50104760Y-45105331D02*
X50219046Y-45143426D01*
X50219046Y-45143426D02*
X50295237Y-45143426D01*
X50295237Y-45143426D02*
X50409522Y-45105331D01*
X50409522Y-45105331D02*
X50447618Y-45067235D01*
X50447618Y-45067235D02*
X50447618Y-44800569D01*
X50447618Y-44800569D02*
X50295237Y-44800569D01*
X50709523Y-9089259D02*
X50633333Y-9051164D01*
X50633333Y-9051164D02*
X50519047Y-9051164D01*
X50519047Y-9051164D02*
X50404761Y-9089259D01*
X50404761Y-9089259D02*
X50328571Y-9165449D01*
X50328571Y-9165449D02*
X50290476Y-9241640D01*
X50290476Y-9241640D02*
X50252380Y-9394021D01*
X50252380Y-9394021D02*
X50252380Y-9508307D01*
X50252380Y-9508307D02*
X50290476Y-9660688D01*
X50290476Y-9660688D02*
X50328571Y-9736878D01*
X50328571Y-9736878D02*
X50404761Y-9813069D01*
X50404761Y-9813069D02*
X50519047Y-9851164D01*
X50519047Y-9851164D02*
X50595238Y-9851164D01*
X50595238Y-9851164D02*
X50709523Y-9813069D01*
X50709523Y-9813069D02*
X50747619Y-9774973D01*
X50747619Y-9774973D02*
X50747619Y-9508307D01*
X50747619Y-9508307D02*
X50595238Y-9508307D01*
X50802855Y-26133723D02*
X51183808Y-26133723D01*
X50726665Y-26362295D02*
X50993332Y-25562295D01*
X50993332Y-25562295D02*
X51259998Y-26362295D01*
X51983808Y-26362295D02*
X51717141Y-25981342D01*
X51526665Y-26362295D02*
X51526665Y-25562295D01*
X51526665Y-25562295D02*
X51831427Y-25562295D01*
X51831427Y-25562295D02*
X51907617Y-25600390D01*
X51907617Y-25600390D02*
X51945712Y-25638485D01*
X51945712Y-25638485D02*
X51983808Y-25714676D01*
X51983808Y-25714676D02*
X51983808Y-25828961D01*
X51983808Y-25828961D02*
X51945712Y-25905152D01*
X51945712Y-25905152D02*
X51907617Y-25943247D01*
X51907617Y-25943247D02*
X51831427Y-25981342D01*
X51831427Y-25981342D02*
X51526665Y-25981342D01*
X52326665Y-26362295D02*
X52326665Y-25562295D01*
X52326665Y-25562295D02*
X52593331Y-26133723D01*
X52593331Y-26133723D02*
X52859998Y-25562295D01*
X52859998Y-25562295D02*
X52859998Y-26362295D01*
X54307618Y-26362295D02*
X54040951Y-25981342D01*
X53850475Y-26362295D02*
X53850475Y-25562295D01*
X53850475Y-25562295D02*
X54155237Y-25562295D01*
X54155237Y-25562295D02*
X54231427Y-25600390D01*
X54231427Y-25600390D02*
X54269522Y-25638485D01*
X54269522Y-25638485D02*
X54307618Y-25714676D01*
X54307618Y-25714676D02*
X54307618Y-25828961D01*
X54307618Y-25828961D02*
X54269522Y-25905152D01*
X54269522Y-25905152D02*
X54231427Y-25943247D01*
X54231427Y-25943247D02*
X54155237Y-25981342D01*
X54155237Y-25981342D02*
X53850475Y-25981342D01*
X50955237Y-13633723D02*
X51336190Y-13633723D01*
X50879047Y-13862295D02*
X51145714Y-13062295D01*
X51145714Y-13062295D02*
X51412380Y-13862295D01*
X52136190Y-13862295D02*
X51869523Y-13481342D01*
X51679047Y-13862295D02*
X51679047Y-13062295D01*
X51679047Y-13062295D02*
X51983809Y-13062295D01*
X51983809Y-13062295D02*
X52059999Y-13100390D01*
X52059999Y-13100390D02*
X52098094Y-13138485D01*
X52098094Y-13138485D02*
X52136190Y-13214676D01*
X52136190Y-13214676D02*
X52136190Y-13328961D01*
X52136190Y-13328961D02*
X52098094Y-13405152D01*
X52098094Y-13405152D02*
X52059999Y-13443247D01*
X52059999Y-13443247D02*
X51983809Y-13481342D01*
X51983809Y-13481342D02*
X51679047Y-13481342D01*
X52479047Y-13862295D02*
X52479047Y-13062295D01*
X52479047Y-13062295D02*
X52745713Y-13633723D01*
X52745713Y-13633723D02*
X53012380Y-13062295D01*
X53012380Y-13062295D02*
X53012380Y-13862295D01*
X54383809Y-13862295D02*
X54002857Y-13862295D01*
X54002857Y-13862295D02*
X54002857Y-13062295D01*
X53142857Y-8932295D02*
X53142857Y-8132295D01*
X53142857Y-8132295D02*
X53409523Y-8703723D01*
X53409523Y-8703723D02*
X53676190Y-8132295D01*
X53676190Y-8132295D02*
X53676190Y-8932295D01*
X54057143Y-8932295D02*
X54057143Y-8132295D01*
X54895238Y-8856104D02*
X54857142Y-8894200D01*
X54857142Y-8894200D02*
X54742857Y-8932295D01*
X54742857Y-8932295D02*
X54666666Y-8932295D01*
X54666666Y-8932295D02*
X54552380Y-8894200D01*
X54552380Y-8894200D02*
X54476190Y-8818009D01*
X54476190Y-8818009D02*
X54438095Y-8741819D01*
X54438095Y-8741819D02*
X54399999Y-8589438D01*
X54399999Y-8589438D02*
X54399999Y-8475152D01*
X54399999Y-8475152D02*
X54438095Y-8322771D01*
X54438095Y-8322771D02*
X54476190Y-8246580D01*
X54476190Y-8246580D02*
X54552380Y-8170390D01*
X54552380Y-8170390D02*
X54666666Y-8132295D01*
X54666666Y-8132295D02*
X54742857Y-8132295D01*
X54742857Y-8132295D02*
X54857142Y-8170390D01*
X54857142Y-8170390D02*
X54895238Y-8208485D01*
X55433809Y-14062295D02*
X55052857Y-14062295D01*
X55052857Y-14062295D02*
X55014761Y-14443247D01*
X55014761Y-14443247D02*
X55052857Y-14405152D01*
X55052857Y-14405152D02*
X55129047Y-14367057D01*
X55129047Y-14367057D02*
X55319523Y-14367057D01*
X55319523Y-14367057D02*
X55395714Y-14405152D01*
X55395714Y-14405152D02*
X55433809Y-14443247D01*
X55433809Y-14443247D02*
X55471904Y-14519438D01*
X55471904Y-14519438D02*
X55471904Y-14709914D01*
X55471904Y-14709914D02*
X55433809Y-14786104D01*
X55433809Y-14786104D02*
X55395714Y-14824200D01*
X55395714Y-14824200D02*
X55319523Y-14862295D01*
X55319523Y-14862295D02*
X55129047Y-14862295D01*
X55129047Y-14862295D02*
X55052857Y-14824200D01*
X55052857Y-14824200D02*
X55014761Y-14786104D01*
X55700476Y-14062295D02*
X55967143Y-14862295D01*
X55967143Y-14862295D02*
X56233809Y-14062295D01*
X55433809Y-25562295D02*
X55052857Y-25562295D01*
X55052857Y-25562295D02*
X55014761Y-25943247D01*
X55014761Y-25943247D02*
X55052857Y-25905152D01*
X55052857Y-25905152D02*
X55129047Y-25867057D01*
X55129047Y-25867057D02*
X55319523Y-25867057D01*
X55319523Y-25867057D02*
X55395714Y-25905152D01*
X55395714Y-25905152D02*
X55433809Y-25943247D01*
X55433809Y-25943247D02*
X55471904Y-26019438D01*
X55471904Y-26019438D02*
X55471904Y-26209914D01*
X55471904Y-26209914D02*
X55433809Y-26286104D01*
X55433809Y-26286104D02*
X55395714Y-26324200D01*
X55395714Y-26324200D02*
X55319523Y-26362295D01*
X55319523Y-26362295D02*
X55129047Y-26362295D01*
X55129047Y-26362295D02*
X55052857Y-26324200D01*
X55052857Y-26324200D02*
X55014761Y-26286104D01*
X55700476Y-25562295D02*
X55967143Y-26362295D01*
X55967143Y-26362295D02*
X56233809Y-25562295D01*
X56119523Y-11560390D02*
X56043333Y-11522295D01*
X56043333Y-11522295D02*
X55929047Y-11522295D01*
X55929047Y-11522295D02*
X55814761Y-11560390D01*
X55814761Y-11560390D02*
X55738571Y-11636580D01*
X55738571Y-11636580D02*
X55700476Y-11712771D01*
X55700476Y-11712771D02*
X55662380Y-11865152D01*
X55662380Y-11865152D02*
X55662380Y-11979438D01*
X55662380Y-11979438D02*
X55700476Y-12131819D01*
X55700476Y-12131819D02*
X55738571Y-12208009D01*
X55738571Y-12208009D02*
X55814761Y-12284200D01*
X55814761Y-12284200D02*
X55929047Y-12322295D01*
X55929047Y-12322295D02*
X56005238Y-12322295D01*
X56005238Y-12322295D02*
X56119523Y-12284200D01*
X56119523Y-12284200D02*
X56157619Y-12246104D01*
X56157619Y-12246104D02*
X56157619Y-11979438D01*
X56157619Y-11979438D02*
X56005238Y-11979438D01*
X56119523Y-23060389D02*
X56043333Y-23022294D01*
X56043333Y-23022294D02*
X55929047Y-23022294D01*
X55929047Y-23022294D02*
X55814761Y-23060389D01*
X55814761Y-23060389D02*
X55738571Y-23136579D01*
X55738571Y-23136579D02*
X55700476Y-23212770D01*
X55700476Y-23212770D02*
X55662380Y-23365151D01*
X55662380Y-23365151D02*
X55662380Y-23479437D01*
X55662380Y-23479437D02*
X55700476Y-23631818D01*
X55700476Y-23631818D02*
X55738571Y-23708008D01*
X55738571Y-23708008D02*
X55814761Y-23784199D01*
X55814761Y-23784199D02*
X55929047Y-23822294D01*
X55929047Y-23822294D02*
X56005238Y-23822294D01*
X56005238Y-23822294D02*
X56119523Y-23784199D01*
X56119523Y-23784199D02*
X56157619Y-23746103D01*
X56157619Y-23746103D02*
X56157619Y-23479437D01*
X56157619Y-23479437D02*
X56005238Y-23479437D01*
X55700475Y-17364200D02*
X55814761Y-17402295D01*
X55814761Y-17402295D02*
X56005237Y-17402295D01*
X56005237Y-17402295D02*
X56081428Y-17364200D01*
X56081428Y-17364200D02*
X56119523Y-17326104D01*
X56119523Y-17326104D02*
X56157618Y-17249914D01*
X56157618Y-17249914D02*
X56157618Y-17173723D01*
X56157618Y-17173723D02*
X56119523Y-17097533D01*
X56119523Y-17097533D02*
X56081428Y-17059438D01*
X56081428Y-17059438D02*
X56005237Y-17021342D01*
X56005237Y-17021342D02*
X55852856Y-16983247D01*
X55852856Y-16983247D02*
X55776666Y-16945152D01*
X55776666Y-16945152D02*
X55738571Y-16907057D01*
X55738571Y-16907057D02*
X55700475Y-16830866D01*
X55700475Y-16830866D02*
X55700475Y-16754676D01*
X55700475Y-16754676D02*
X55738571Y-16678485D01*
X55738571Y-16678485D02*
X55776666Y-16640390D01*
X55776666Y-16640390D02*
X55852856Y-16602295D01*
X55852856Y-16602295D02*
X56043333Y-16602295D01*
X56043333Y-16602295D02*
X56157618Y-16640390D01*
X55700475Y-28864200D02*
X55814761Y-28902295D01*
X55814761Y-28902295D02*
X56005237Y-28902295D01*
X56005237Y-28902295D02*
X56081428Y-28864200D01*
X56081428Y-28864200D02*
X56119523Y-28826104D01*
X56119523Y-28826104D02*
X56157618Y-28749914D01*
X56157618Y-28749914D02*
X56157618Y-28673723D01*
X56157618Y-28673723D02*
X56119523Y-28597533D01*
X56119523Y-28597533D02*
X56081428Y-28559438D01*
X56081428Y-28559438D02*
X56005237Y-28521342D01*
X56005237Y-28521342D02*
X55852856Y-28483247D01*
X55852856Y-28483247D02*
X55776666Y-28445152D01*
X55776666Y-28445152D02*
X55738571Y-28407057D01*
X55738571Y-28407057D02*
X55700475Y-28330866D01*
X55700475Y-28330866D02*
X55700475Y-28254676D01*
X55700475Y-28254676D02*
X55738571Y-28178485D01*
X55738571Y-28178485D02*
X55776666Y-28140390D01*
X55776666Y-28140390D02*
X55852856Y-28102295D01*
X55852856Y-28102295D02*
X56043333Y-28102295D01*
X56043333Y-28102295D02*
X56157618Y-28140390D01*
X56445238Y-42576283D02*
X57054762Y-42576283D01*
X56750000Y-42881045D02*
X56750000Y-42271521D01*
X56085714Y-8562294D02*
X56085714Y-7762294D01*
X56542857Y-8562294D02*
X56199999Y-8105151D01*
X56542857Y-7762294D02*
X56085714Y-8219437D01*
X56885714Y-8143246D02*
X57152380Y-8143246D01*
X57266666Y-8562294D02*
X56885714Y-8562294D01*
X56885714Y-8562294D02*
X56885714Y-7762294D01*
X56885714Y-7762294D02*
X57266666Y-7762294D01*
X57761905Y-8181341D02*
X57761905Y-8562294D01*
X57495238Y-7762294D02*
X57761905Y-8181341D01*
X57761905Y-8181341D02*
X58028571Y-7762294D01*
X56761905Y-39918318D02*
X56761905Y-39118318D01*
X56761905Y-39499270D02*
X57219048Y-39499270D01*
X57219048Y-39918318D02*
X57219048Y-39118318D01*
X57600000Y-39499270D02*
X57866666Y-39499270D01*
X57980952Y-39918318D02*
X57600000Y-39918318D01*
X57600000Y-39918318D02*
X57600000Y-39118318D01*
X57600000Y-39118318D02*
X57980952Y-39118318D01*
X58285714Y-39689746D02*
X58666667Y-39689746D01*
X58209524Y-39918318D02*
X58476191Y-39118318D01*
X58476191Y-39118318D02*
X58742857Y-39918318D01*
X58895238Y-39118318D02*
X59352381Y-39118318D01*
X59123809Y-39918318D02*
X59123809Y-39118318D01*
X54780952Y-41015797D02*
X55771428Y-41015797D01*
X54780952Y-40787225D02*
X54780952Y-41091987D01*
X54819047Y-40672939D02*
X55733333Y-40672939D01*
X54819047Y-40444368D02*
X54819047Y-40672939D01*
X55276190Y-40291987D02*
X55276190Y-41206273D01*
X54780952Y-40787225D02*
X55771428Y-40787225D01*
X55771428Y-40787225D02*
X55771428Y-41091987D01*
X54819047Y-40444368D02*
X55733333Y-40444368D01*
X55733333Y-40444368D02*
X55733333Y-40672939D01*
X56076190Y-41206273D02*
X56076190Y-40406273D01*
X56533333Y-41206273D02*
X56190475Y-40749130D01*
X56533333Y-40406273D02*
X56076190Y-40863416D01*
X56838094Y-41168178D02*
X56952380Y-41206273D01*
X56952380Y-41206273D02*
X57142856Y-41206273D01*
X57142856Y-41206273D02*
X57219047Y-41168178D01*
X57219047Y-41168178D02*
X57257142Y-41130082D01*
X57257142Y-41130082D02*
X57295237Y-41053892D01*
X57295237Y-41053892D02*
X57295237Y-40977701D01*
X57295237Y-40977701D02*
X57257142Y-40901511D01*
X57257142Y-40901511D02*
X57219047Y-40863416D01*
X57219047Y-40863416D02*
X57142856Y-40825320D01*
X57142856Y-40825320D02*
X56990475Y-40787225D01*
X56990475Y-40787225D02*
X56914285Y-40749130D01*
X56914285Y-40749130D02*
X56876190Y-40711035D01*
X56876190Y-40711035D02*
X56838094Y-40634844D01*
X56838094Y-40634844D02*
X56838094Y-40558654D01*
X56838094Y-40558654D02*
X56876190Y-40482463D01*
X56876190Y-40482463D02*
X56914285Y-40444368D01*
X56914285Y-40444368D02*
X56990475Y-40406273D01*
X56990475Y-40406273D02*
X57180952Y-40406273D01*
X57180952Y-40406273D02*
X57295237Y-40444368D01*
X57638095Y-41206273D02*
X57638095Y-40406273D01*
X57638095Y-40406273D02*
X57828571Y-40406273D01*
X57828571Y-40406273D02*
X57942857Y-40444368D01*
X57942857Y-40444368D02*
X58019047Y-40520558D01*
X58019047Y-40520558D02*
X58057142Y-40596749D01*
X58057142Y-40596749D02*
X58095238Y-40749130D01*
X58095238Y-40749130D02*
X58095238Y-40863416D01*
X58095238Y-40863416D02*
X58057142Y-41015797D01*
X58057142Y-41015797D02*
X58019047Y-41091987D01*
X58019047Y-41091987D02*
X57942857Y-41168178D01*
X57942857Y-41168178D02*
X57828571Y-41206273D01*
X57828571Y-41206273D02*
X57638095Y-41206273D01*
X58476190Y-41206273D02*
X58628571Y-41206273D01*
X58628571Y-41206273D02*
X58704761Y-41168178D01*
X58704761Y-41168178D02*
X58742857Y-41130082D01*
X58742857Y-41130082D02*
X58819047Y-41015797D01*
X58819047Y-41015797D02*
X58857142Y-40863416D01*
X58857142Y-40863416D02*
X58857142Y-40558654D01*
X58857142Y-40558654D02*
X58819047Y-40482463D01*
X58819047Y-40482463D02*
X58780952Y-40444368D01*
X58780952Y-40444368D02*
X58704761Y-40406273D01*
X58704761Y-40406273D02*
X58552380Y-40406273D01*
X58552380Y-40406273D02*
X58476190Y-40444368D01*
X58476190Y-40444368D02*
X58438095Y-40482463D01*
X58438095Y-40482463D02*
X58399999Y-40558654D01*
X58399999Y-40558654D02*
X58399999Y-40749130D01*
X58399999Y-40749130D02*
X58438095Y-40825320D01*
X58438095Y-40825320D02*
X58476190Y-40863416D01*
X58476190Y-40863416D02*
X58552380Y-40901511D01*
X58552380Y-40901511D02*
X58704761Y-40901511D01*
X58704761Y-40901511D02*
X58780952Y-40863416D01*
X58780952Y-40863416D02*
X58819047Y-40825320D01*
X58819047Y-40825320D02*
X58857142Y-40749130D01*
X59123809Y-40406273D02*
X59657143Y-40406273D01*
X59657143Y-40406273D02*
X59314285Y-41206273D01*
X60114286Y-40406273D02*
X60190476Y-40406273D01*
X60190476Y-40406273D02*
X60266667Y-40444368D01*
X60266667Y-40444368D02*
X60304762Y-40482463D01*
X60304762Y-40482463D02*
X60342857Y-40558654D01*
X60342857Y-40558654D02*
X60380952Y-40711035D01*
X60380952Y-40711035D02*
X60380952Y-40901511D01*
X60380952Y-40901511D02*
X60342857Y-41053892D01*
X60342857Y-41053892D02*
X60304762Y-41130082D01*
X60304762Y-41130082D02*
X60266667Y-41168178D01*
X60266667Y-41168178D02*
X60190476Y-41206273D01*
X60190476Y-41206273D02*
X60114286Y-41206273D01*
X60114286Y-41206273D02*
X60038095Y-41168178D01*
X60038095Y-41168178D02*
X60000000Y-41130082D01*
X60000000Y-41130082D02*
X59961905Y-41053892D01*
X59961905Y-41053892D02*
X59923809Y-40901511D01*
X59923809Y-40901511D02*
X59923809Y-40711035D01*
X59923809Y-40711035D02*
X59961905Y-40558654D01*
X59961905Y-40558654D02*
X60000000Y-40482463D01*
X60000000Y-40482463D02*
X60038095Y-40444368D01*
X60038095Y-40444368D02*
X60114286Y-40406273D01*
X60876191Y-40406273D02*
X60952381Y-40406273D01*
X60952381Y-40406273D02*
X61028572Y-40444368D01*
X61028572Y-40444368D02*
X61066667Y-40482463D01*
X61066667Y-40482463D02*
X61104762Y-40558654D01*
X61104762Y-40558654D02*
X61142857Y-40711035D01*
X61142857Y-40711035D02*
X61142857Y-40901511D01*
X61142857Y-40901511D02*
X61104762Y-41053892D01*
X61104762Y-41053892D02*
X61066667Y-41130082D01*
X61066667Y-41130082D02*
X61028572Y-41168178D01*
X61028572Y-41168178D02*
X60952381Y-41206273D01*
X60952381Y-41206273D02*
X60876191Y-41206273D01*
X60876191Y-41206273D02*
X60800000Y-41168178D01*
X60800000Y-41168178D02*
X60761905Y-41130082D01*
X60761905Y-41130082D02*
X60723810Y-41053892D01*
X60723810Y-41053892D02*
X60685714Y-40901511D01*
X60685714Y-40901511D02*
X60685714Y-40711035D01*
X60685714Y-40711035D02*
X60723810Y-40558654D01*
X60723810Y-40558654D02*
X60761905Y-40482463D01*
X60761905Y-40482463D02*
X60800000Y-40444368D01*
X60800000Y-40444368D02*
X60876191Y-40406273D01*
X59209523Y-6681639D02*
X59133333Y-6643544D01*
X59133333Y-6643544D02*
X59019047Y-6643544D01*
X59019047Y-6643544D02*
X58904761Y-6681639D01*
X58904761Y-6681639D02*
X58828571Y-6757829D01*
X58828571Y-6757829D02*
X58790476Y-6834020D01*
X58790476Y-6834020D02*
X58752380Y-6986401D01*
X58752380Y-6986401D02*
X58752380Y-7100687D01*
X58752380Y-7100687D02*
X58790476Y-7253068D01*
X58790476Y-7253068D02*
X58828571Y-7329258D01*
X58828571Y-7329258D02*
X58904761Y-7405449D01*
X58904761Y-7405449D02*
X59019047Y-7443544D01*
X59019047Y-7443544D02*
X59095238Y-7443544D01*
X59095238Y-7443544D02*
X59209523Y-7405449D01*
X59209523Y-7405449D02*
X59247619Y-7367353D01*
X59247619Y-7367353D02*
X59247619Y-7100687D01*
X59247619Y-7100687D02*
X59095238Y-7100687D01*
X58945238Y-42576283D02*
X59554762Y-42576283D01*
X24943247Y-8890238D02*
X24943247Y-8623572D01*
X25362295Y-8509286D02*
X25362295Y-8890238D01*
X25362295Y-8890238D02*
X24562295Y-8890238D01*
X24562295Y-8890238D02*
X24562295Y-8509286D01*
X24562295Y-8014047D02*
X24562295Y-7937857D01*
X24562295Y-7937857D02*
X24600390Y-7861666D01*
X24600390Y-7861666D02*
X24638485Y-7823571D01*
X24638485Y-7823571D02*
X24714676Y-7785476D01*
X24714676Y-7785476D02*
X24867057Y-7747381D01*
X24867057Y-7747381D02*
X25057533Y-7747381D01*
X25057533Y-7747381D02*
X25209914Y-7785476D01*
X25209914Y-7785476D02*
X25286104Y-7823571D01*
X25286104Y-7823571D02*
X25324200Y-7861666D01*
X25324200Y-7861666D02*
X25362295Y-7937857D01*
X25362295Y-7937857D02*
X25362295Y-8014047D01*
X25362295Y-8014047D02*
X25324200Y-8090238D01*
X25324200Y-8090238D02*
X25286104Y-8128333D01*
X25286104Y-8128333D02*
X25209914Y-8166428D01*
X25209914Y-8166428D02*
X25057533Y-8204524D01*
X25057533Y-8204524D02*
X24867057Y-8204524D01*
X24867057Y-8204524D02*
X24714676Y-8166428D01*
X24714676Y-8166428D02*
X24638485Y-8128333D01*
X24638485Y-8128333D02*
X24600390Y-8090238D01*
X24600390Y-8090238D02*
X24562295Y-8014047D01*
X31443247Y-10737382D02*
X31481342Y-10623096D01*
X31481342Y-10623096D02*
X31519438Y-10585001D01*
X31519438Y-10585001D02*
X31595628Y-10546905D01*
X31595628Y-10546905D02*
X31709914Y-10546905D01*
X31709914Y-10546905D02*
X31786104Y-10585001D01*
X31786104Y-10585001D02*
X31824200Y-10623096D01*
X31824200Y-10623096D02*
X31862295Y-10699286D01*
X31862295Y-10699286D02*
X31862295Y-11004048D01*
X31862295Y-11004048D02*
X31062295Y-11004048D01*
X31062295Y-11004048D02*
X31062295Y-10737382D01*
X31062295Y-10737382D02*
X31100390Y-10661191D01*
X31100390Y-10661191D02*
X31138485Y-10623096D01*
X31138485Y-10623096D02*
X31214676Y-10585001D01*
X31214676Y-10585001D02*
X31290866Y-10585001D01*
X31290866Y-10585001D02*
X31367057Y-10623096D01*
X31367057Y-10623096D02*
X31405152Y-10661191D01*
X31405152Y-10661191D02*
X31443247Y-10737382D01*
X31443247Y-10737382D02*
X31443247Y-11004048D01*
X31862295Y-9823096D02*
X31862295Y-10204048D01*
X31862295Y-10204048D02*
X31062295Y-10204048D01*
X32062295Y-8928334D02*
X32062295Y-8433096D01*
X32062295Y-8433096D02*
X32367057Y-8699762D01*
X32367057Y-8699762D02*
X32367057Y-8585477D01*
X32367057Y-8585477D02*
X32405152Y-8509286D01*
X32405152Y-8509286D02*
X32443247Y-8471191D01*
X32443247Y-8471191D02*
X32519438Y-8433096D01*
X32519438Y-8433096D02*
X32709914Y-8433096D01*
X32709914Y-8433096D02*
X32786104Y-8471191D01*
X32786104Y-8471191D02*
X32824200Y-8509286D01*
X32824200Y-8509286D02*
X32862295Y-8585477D01*
X32862295Y-8585477D02*
X32862295Y-8814048D01*
X32862295Y-8814048D02*
X32824200Y-8890239D01*
X32824200Y-8890239D02*
X32786104Y-8928334D01*
X32062295Y-8204524D02*
X32862295Y-7937857D01*
X32862295Y-7937857D02*
X32062295Y-7671191D01*
X34786104Y-8547380D02*
X34824200Y-8585476D01*
X34824200Y-8585476D02*
X34862295Y-8699761D01*
X34862295Y-8699761D02*
X34862295Y-8775952D01*
X34862295Y-8775952D02*
X34824200Y-8890238D01*
X34824200Y-8890238D02*
X34748009Y-8966428D01*
X34748009Y-8966428D02*
X34671819Y-9004523D01*
X34671819Y-9004523D02*
X34519438Y-9042619D01*
X34519438Y-9042619D02*
X34405152Y-9042619D01*
X34405152Y-9042619D02*
X34252771Y-9004523D01*
X34252771Y-9004523D02*
X34176580Y-8966428D01*
X34176580Y-8966428D02*
X34100390Y-8890238D01*
X34100390Y-8890238D02*
X34062295Y-8775952D01*
X34062295Y-8775952D02*
X34062295Y-8699761D01*
X34062295Y-8699761D02*
X34100390Y-8585476D01*
X34100390Y-8585476D02*
X34138485Y-8547380D01*
X34862295Y-8204523D02*
X34062295Y-8204523D01*
X34862295Y-7747380D02*
X34405152Y-8090238D01*
X34062295Y-7747380D02*
X34519438Y-8204523D01*
X35862295Y-11042143D02*
X35062295Y-11042143D01*
X35062295Y-11042143D02*
X35062295Y-10851667D01*
X35062295Y-10851667D02*
X35100390Y-10737381D01*
X35100390Y-10737381D02*
X35176580Y-10661191D01*
X35176580Y-10661191D02*
X35252771Y-10623096D01*
X35252771Y-10623096D02*
X35405152Y-10585000D01*
X35405152Y-10585000D02*
X35519438Y-10585000D01*
X35519438Y-10585000D02*
X35671819Y-10623096D01*
X35671819Y-10623096D02*
X35748009Y-10661191D01*
X35748009Y-10661191D02*
X35824200Y-10737381D01*
X35824200Y-10737381D02*
X35862295Y-10851667D01*
X35862295Y-10851667D02*
X35862295Y-11042143D01*
X35633723Y-10280239D02*
X35633723Y-9899286D01*
X35862295Y-10356429D02*
X35062295Y-10089762D01*
X35062295Y-10089762D02*
X35862295Y-9823096D01*
X36862295Y-9004523D02*
X36062295Y-9004523D01*
X36062295Y-9004523D02*
X36062295Y-8814047D01*
X36062295Y-8814047D02*
X36100390Y-8699761D01*
X36100390Y-8699761D02*
X36176580Y-8623571D01*
X36176580Y-8623571D02*
X36252771Y-8585476D01*
X36252771Y-8585476D02*
X36405152Y-8547380D01*
X36405152Y-8547380D02*
X36519438Y-8547380D01*
X36519438Y-8547380D02*
X36671819Y-8585476D01*
X36671819Y-8585476D02*
X36748009Y-8623571D01*
X36748009Y-8623571D02*
X36824200Y-8699761D01*
X36824200Y-8699761D02*
X36862295Y-8814047D01*
X36862295Y-8814047D02*
X36862295Y-9004523D01*
X36786104Y-7747380D02*
X36824200Y-7785476D01*
X36824200Y-7785476D02*
X36862295Y-7899761D01*
X36862295Y-7899761D02*
X36862295Y-7975952D01*
X36862295Y-7975952D02*
X36824200Y-8090238D01*
X36824200Y-8090238D02*
X36748009Y-8166428D01*
X36748009Y-8166428D02*
X36671819Y-8204523D01*
X36671819Y-8204523D02*
X36519438Y-8242619D01*
X36519438Y-8242619D02*
X36405152Y-8242619D01*
X36405152Y-8242619D02*
X36252771Y-8204523D01*
X36252771Y-8204523D02*
X36176580Y-8166428D01*
X36176580Y-8166428D02*
X36100390Y-8090238D01*
X36100390Y-8090238D02*
X36062295Y-7975952D01*
X36062295Y-7975952D02*
X36062295Y-7899761D01*
X36062295Y-7899761D02*
X36100390Y-7785476D01*
X36100390Y-7785476D02*
X36138485Y-7747380D01*
X37786104Y-10661191D02*
X37824200Y-10699287D01*
X37824200Y-10699287D02*
X37862295Y-10813572D01*
X37862295Y-10813572D02*
X37862295Y-10889763D01*
X37862295Y-10889763D02*
X37824200Y-11004049D01*
X37824200Y-11004049D02*
X37748009Y-11080239D01*
X37748009Y-11080239D02*
X37671819Y-11118334D01*
X37671819Y-11118334D02*
X37519438Y-11156430D01*
X37519438Y-11156430D02*
X37405152Y-11156430D01*
X37405152Y-11156430D02*
X37252771Y-11118334D01*
X37252771Y-11118334D02*
X37176580Y-11080239D01*
X37176580Y-11080239D02*
X37100390Y-11004049D01*
X37100390Y-11004049D02*
X37062295Y-10889763D01*
X37062295Y-10889763D02*
X37062295Y-10813572D01*
X37062295Y-10813572D02*
X37100390Y-10699287D01*
X37100390Y-10699287D02*
X37138485Y-10661191D01*
X37824200Y-10356430D02*
X37862295Y-10242144D01*
X37862295Y-10242144D02*
X37862295Y-10051668D01*
X37862295Y-10051668D02*
X37824200Y-9975477D01*
X37824200Y-9975477D02*
X37786104Y-9937382D01*
X37786104Y-9937382D02*
X37709914Y-9899287D01*
X37709914Y-9899287D02*
X37633723Y-9899287D01*
X37633723Y-9899287D02*
X37557533Y-9937382D01*
X37557533Y-9937382D02*
X37519438Y-9975477D01*
X37519438Y-9975477D02*
X37481342Y-10051668D01*
X37481342Y-10051668D02*
X37443247Y-10204049D01*
X37443247Y-10204049D02*
X37405152Y-10280239D01*
X37405152Y-10280239D02*
X37367057Y-10318334D01*
X37367057Y-10318334D02*
X37290866Y-10356430D01*
X37290866Y-10356430D02*
X37214676Y-10356430D01*
X37214676Y-10356430D02*
X37138485Y-10318334D01*
X37138485Y-10318334D02*
X37100390Y-10280239D01*
X37100390Y-10280239D02*
X37062295Y-10204049D01*
X37062295Y-10204049D02*
X37062295Y-10013572D01*
X37062295Y-10013572D02*
X37100390Y-9899287D01*
X38862295Y-8509286D02*
X38481342Y-8775953D01*
X38862295Y-8966429D02*
X38062295Y-8966429D01*
X38062295Y-8966429D02*
X38062295Y-8661667D01*
X38062295Y-8661667D02*
X38100390Y-8585477D01*
X38100390Y-8585477D02*
X38138485Y-8547382D01*
X38138485Y-8547382D02*
X38214676Y-8509286D01*
X38214676Y-8509286D02*
X38328961Y-8509286D01*
X38328961Y-8509286D02*
X38405152Y-8547382D01*
X38405152Y-8547382D02*
X38443247Y-8585477D01*
X38443247Y-8585477D02*
X38481342Y-8661667D01*
X38481342Y-8661667D02*
X38481342Y-8966429D01*
X38824200Y-8204525D02*
X38862295Y-8090239D01*
X38862295Y-8090239D02*
X38862295Y-7899763D01*
X38862295Y-7899763D02*
X38824200Y-7823572D01*
X38824200Y-7823572D02*
X38786104Y-7785477D01*
X38786104Y-7785477D02*
X38709914Y-7747382D01*
X38709914Y-7747382D02*
X38633723Y-7747382D01*
X38633723Y-7747382D02*
X38557533Y-7785477D01*
X38557533Y-7785477D02*
X38519438Y-7823572D01*
X38519438Y-7823572D02*
X38481342Y-7899763D01*
X38481342Y-7899763D02*
X38443247Y-8052144D01*
X38443247Y-8052144D02*
X38405152Y-8128334D01*
X38405152Y-8128334D02*
X38367057Y-8166429D01*
X38367057Y-8166429D02*
X38290866Y-8204525D01*
X38290866Y-8204525D02*
X38214676Y-8204525D01*
X38214676Y-8204525D02*
X38138485Y-8166429D01*
X38138485Y-8166429D02*
X38100390Y-8128334D01*
X38100390Y-8128334D02*
X38062295Y-8052144D01*
X38062295Y-8052144D02*
X38062295Y-7861667D01*
X38062295Y-7861667D02*
X38100390Y-7747382D01*
X47786104Y-7817380D02*
X47824200Y-7855476D01*
X47824200Y-7855476D02*
X47862295Y-7969761D01*
X47862295Y-7969761D02*
X47862295Y-8045952D01*
X47862295Y-8045952D02*
X47824200Y-8160238D01*
X47824200Y-8160238D02*
X47748009Y-8236428D01*
X47748009Y-8236428D02*
X47671819Y-8274523D01*
X47671819Y-8274523D02*
X47519438Y-8312619D01*
X47519438Y-8312619D02*
X47405152Y-8312619D01*
X47405152Y-8312619D02*
X47252771Y-8274523D01*
X47252771Y-8274523D02*
X47176580Y-8236428D01*
X47176580Y-8236428D02*
X47100390Y-8160238D01*
X47100390Y-8160238D02*
X47062295Y-8045952D01*
X47062295Y-8045952D02*
X47062295Y-7969761D01*
X47062295Y-7969761D02*
X47100390Y-7855476D01*
X47100390Y-7855476D02*
X47138485Y-7817380D01*
X47862295Y-7474523D02*
X47062295Y-7474523D01*
X47862295Y-7017380D02*
X47405152Y-7360238D01*
X47062295Y-7017380D02*
X47519438Y-7474523D01*
X48062295Y-10464524D02*
X48862295Y-10274048D01*
X48862295Y-10274048D02*
X48290866Y-10121667D01*
X48290866Y-10121667D02*
X48862295Y-9969286D01*
X48862295Y-9969286D02*
X48062295Y-9778810D01*
X48824200Y-9512143D02*
X48862295Y-9397857D01*
X48862295Y-9397857D02*
X48862295Y-9207381D01*
X48862295Y-9207381D02*
X48824200Y-9131190D01*
X48824200Y-9131190D02*
X48786104Y-9093095D01*
X48786104Y-9093095D02*
X48709914Y-9055000D01*
X48709914Y-9055000D02*
X48633723Y-9055000D01*
X48633723Y-9055000D02*
X48557533Y-9093095D01*
X48557533Y-9093095D02*
X48519438Y-9131190D01*
X48519438Y-9131190D02*
X48481342Y-9207381D01*
X48481342Y-9207381D02*
X48443247Y-9359762D01*
X48443247Y-9359762D02*
X48405152Y-9435952D01*
X48405152Y-9435952D02*
X48367057Y-9474047D01*
X48367057Y-9474047D02*
X48290866Y-9512143D01*
X48290866Y-9512143D02*
X48214676Y-9512143D01*
X48214676Y-9512143D02*
X48138485Y-9474047D01*
X48138485Y-9474047D02*
X48100390Y-9435952D01*
X48100390Y-9435952D02*
X48062295Y-9359762D01*
X48062295Y-9359762D02*
X48062295Y-9169285D01*
X48062295Y-9169285D02*
X48100390Y-9055000D01*
X49562294Y-47214523D02*
X48762294Y-47214523D01*
X48762294Y-47214523D02*
X49562294Y-46757380D01*
X49562294Y-46757380D02*
X48762294Y-46757380D01*
X48762294Y-46490714D02*
X48762294Y-46033571D01*
X49562294Y-46262143D02*
X48762294Y-46262143D01*
X49824200Y-8274524D02*
X49862295Y-8160238D01*
X49862295Y-8160238D02*
X49862295Y-7969762D01*
X49862295Y-7969762D02*
X49824200Y-7893571D01*
X49824200Y-7893571D02*
X49786104Y-7855476D01*
X49786104Y-7855476D02*
X49709914Y-7817381D01*
X49709914Y-7817381D02*
X49633723Y-7817381D01*
X49633723Y-7817381D02*
X49557533Y-7855476D01*
X49557533Y-7855476D02*
X49519438Y-7893571D01*
X49519438Y-7893571D02*
X49481342Y-7969762D01*
X49481342Y-7969762D02*
X49443247Y-8122143D01*
X49443247Y-8122143D02*
X49405152Y-8198333D01*
X49405152Y-8198333D02*
X49367057Y-8236428D01*
X49367057Y-8236428D02*
X49290866Y-8274524D01*
X49290866Y-8274524D02*
X49214676Y-8274524D01*
X49214676Y-8274524D02*
X49138485Y-8236428D01*
X49138485Y-8236428D02*
X49100390Y-8198333D01*
X49100390Y-8198333D02*
X49062295Y-8122143D01*
X49062295Y-8122143D02*
X49062295Y-7931666D01*
X49062295Y-7931666D02*
X49100390Y-7817381D01*
X49862295Y-7474523D02*
X49062295Y-7474523D01*
X49062295Y-7474523D02*
X49062295Y-7284047D01*
X49062295Y-7284047D02*
X49100390Y-7169761D01*
X49100390Y-7169761D02*
X49176580Y-7093571D01*
X49176580Y-7093571D02*
X49252771Y-7055476D01*
X49252771Y-7055476D02*
X49405152Y-7017380D01*
X49405152Y-7017380D02*
X49519438Y-7017380D01*
X49519438Y-7017380D02*
X49671819Y-7055476D01*
X49671819Y-7055476D02*
X49748009Y-7093571D01*
X49748009Y-7093571D02*
X49824200Y-7169761D01*
X49824200Y-7169761D02*
X49862295Y-7284047D01*
X49862295Y-7284047D02*
X49862295Y-7474523D01*
X51062295Y-8198333D02*
X51062295Y-7703095D01*
X51062295Y-7703095D02*
X51367057Y-7969761D01*
X51367057Y-7969761D02*
X51367057Y-7855476D01*
X51367057Y-7855476D02*
X51405152Y-7779285D01*
X51405152Y-7779285D02*
X51443247Y-7741190D01*
X51443247Y-7741190D02*
X51519438Y-7703095D01*
X51519438Y-7703095D02*
X51709914Y-7703095D01*
X51709914Y-7703095D02*
X51786104Y-7741190D01*
X51786104Y-7741190D02*
X51824200Y-7779285D01*
X51824200Y-7779285D02*
X51862295Y-7855476D01*
X51862295Y-7855476D02*
X51862295Y-8084047D01*
X51862295Y-8084047D02*
X51824200Y-8160238D01*
X51824200Y-8160238D02*
X51786104Y-8198333D01*
X51062295Y-7474523D02*
X51862295Y-7207856D01*
X51862295Y-7207856D02*
X51062295Y-6941190D01*
X60362295Y-10361189D02*
X59562295Y-10361189D01*
X59562295Y-10361189D02*
X60133723Y-10094523D01*
X60133723Y-10094523D02*
X59562295Y-9827856D01*
X59562295Y-9827856D02*
X60362295Y-9827856D01*
X59562295Y-9446903D02*
X60209914Y-9446903D01*
X60209914Y-9446903D02*
X60286104Y-9408808D01*
X60286104Y-9408808D02*
X60324200Y-9370713D01*
X60324200Y-9370713D02*
X60362295Y-9294522D01*
X60362295Y-9294522D02*
X60362295Y-9142141D01*
X60362295Y-9142141D02*
X60324200Y-9065951D01*
X60324200Y-9065951D02*
X60286104Y-9027856D01*
X60286104Y-9027856D02*
X60209914Y-8989760D01*
X60209914Y-8989760D02*
X59562295Y-8989760D01*
X61362295Y-8018808D02*
X60562295Y-8018808D01*
X60562295Y-8018808D02*
X60562295Y-7714046D01*
X60562295Y-7714046D02*
X60600390Y-7637856D01*
X60600390Y-7637856D02*
X60638485Y-7599761D01*
X60638485Y-7599761D02*
X60714676Y-7561665D01*
X60714676Y-7561665D02*
X60828961Y-7561665D01*
X60828961Y-7561665D02*
X60905152Y-7599761D01*
X60905152Y-7599761D02*
X60943247Y-7637856D01*
X60943247Y-7637856D02*
X60981342Y-7714046D01*
X60981342Y-7714046D02*
X60981342Y-8018808D01*
X60562295Y-7294999D02*
X61362295Y-7104523D01*
X61362295Y-7104523D02*
X60790866Y-6952142D01*
X60790866Y-6952142D02*
X61362295Y-6799761D01*
X61362295Y-6799761D02*
X60562295Y-6609285D01*
X5561905Y-16087294D02*
X5561905Y-16734913D01*
X5561905Y-16734913D02*
X5600000Y-16811103D01*
X5600000Y-16811103D02*
X5638095Y-16849199D01*
X5638095Y-16849199D02*
X5714286Y-16887294D01*
X5714286Y-16887294D02*
X5866667Y-16887294D01*
X5866667Y-16887294D02*
X5942857Y-16849199D01*
X5942857Y-16849199D02*
X5980952Y-16811103D01*
X5980952Y-16811103D02*
X6019048Y-16734913D01*
X6019048Y-16734913D02*
X6019048Y-16087294D01*
X6209524Y-16963484D02*
X6819047Y-16963484D01*
X7390476Y-16887294D02*
X7009524Y-16887294D01*
X7009524Y-16887294D02*
X7009524Y-16087294D01*
X7657143Y-16887294D02*
X7657143Y-16087294D01*
X7657143Y-16087294D02*
X7847619Y-16087294D01*
X7847619Y-16087294D02*
X7961905Y-16125389D01*
X7961905Y-16125389D02*
X8038095Y-16201579D01*
X8038095Y-16201579D02*
X8076190Y-16277770D01*
X8076190Y-16277770D02*
X8114286Y-16430151D01*
X8114286Y-16430151D02*
X8114286Y-16544437D01*
X8114286Y-16544437D02*
X8076190Y-16696818D01*
X8076190Y-16696818D02*
X8038095Y-16773008D01*
X8038095Y-16773008D02*
X7961905Y-16849199D01*
X7961905Y-16849199D02*
X7847619Y-16887294D01*
X7847619Y-16887294D02*
X7657143Y-16887294D01*
X8609524Y-16087294D02*
X8761905Y-16087294D01*
X8761905Y-16087294D02*
X8838095Y-16125389D01*
X8838095Y-16125389D02*
X8914286Y-16201579D01*
X8914286Y-16201579D02*
X8952381Y-16353960D01*
X8952381Y-16353960D02*
X8952381Y-16620627D01*
X8952381Y-16620627D02*
X8914286Y-16773008D01*
X8914286Y-16773008D02*
X8838095Y-16849199D01*
X8838095Y-16849199D02*
X8761905Y-16887294D01*
X8761905Y-16887294D02*
X8609524Y-16887294D01*
X8609524Y-16887294D02*
X8533333Y-16849199D01*
X8533333Y-16849199D02*
X8457143Y-16773008D01*
X8457143Y-16773008D02*
X8419047Y-16620627D01*
X8419047Y-16620627D02*
X8419047Y-16353960D01*
X8419047Y-16353960D02*
X8457143Y-16201579D01*
X8457143Y-16201579D02*
X8533333Y-16125389D01*
X8533333Y-16125389D02*
X8609524Y-16087294D01*
X9257142Y-16163484D02*
X9295238Y-16125389D01*
X9295238Y-16125389D02*
X9371428Y-16087294D01*
X9371428Y-16087294D02*
X9561904Y-16087294D01*
X9561904Y-16087294D02*
X9638095Y-16125389D01*
X9638095Y-16125389D02*
X9676190Y-16163484D01*
X9676190Y-16163484D02*
X9714285Y-16239675D01*
X9714285Y-16239675D02*
X9714285Y-16315865D01*
X9714285Y-16315865D02*
X9676190Y-16430151D01*
X9676190Y-16430151D02*
X9219047Y-16887294D01*
X9219047Y-16887294D02*
X9714285Y-16887294D01*
X10171428Y-16430151D02*
X10095238Y-16392056D01*
X10095238Y-16392056D02*
X10057143Y-16353960D01*
X10057143Y-16353960D02*
X10019047Y-16277770D01*
X10019047Y-16277770D02*
X10019047Y-16239675D01*
X10019047Y-16239675D02*
X10057143Y-16163484D01*
X10057143Y-16163484D02*
X10095238Y-16125389D01*
X10095238Y-16125389D02*
X10171428Y-16087294D01*
X10171428Y-16087294D02*
X10323809Y-16087294D01*
X10323809Y-16087294D02*
X10400000Y-16125389D01*
X10400000Y-16125389D02*
X10438095Y-16163484D01*
X10438095Y-16163484D02*
X10476190Y-16239675D01*
X10476190Y-16239675D02*
X10476190Y-16277770D01*
X10476190Y-16277770D02*
X10438095Y-16353960D01*
X10438095Y-16353960D02*
X10400000Y-16392056D01*
X10400000Y-16392056D02*
X10323809Y-16430151D01*
X10323809Y-16430151D02*
X10171428Y-16430151D01*
X10171428Y-16430151D02*
X10095238Y-16468246D01*
X10095238Y-16468246D02*
X10057143Y-16506341D01*
X10057143Y-16506341D02*
X10019047Y-16582532D01*
X10019047Y-16582532D02*
X10019047Y-16734913D01*
X10019047Y-16734913D02*
X10057143Y-16811103D01*
X10057143Y-16811103D02*
X10095238Y-16849199D01*
X10095238Y-16849199D02*
X10171428Y-16887294D01*
X10171428Y-16887294D02*
X10323809Y-16887294D01*
X10323809Y-16887294D02*
X10400000Y-16849199D01*
X10400000Y-16849199D02*
X10438095Y-16811103D01*
X10438095Y-16811103D02*
X10476190Y-16734913D01*
X10476190Y-16734913D02*
X10476190Y-16582532D01*
X10476190Y-16582532D02*
X10438095Y-16506341D01*
X10438095Y-16506341D02*
X10400000Y-16468246D01*
X10400000Y-16468246D02*
X10323809Y-16430151D01*
X27718808Y-16909199D02*
X27833094Y-16947294D01*
X27833094Y-16947294D02*
X28023570Y-16947294D01*
X28023570Y-16947294D02*
X28099761Y-16909199D01*
X28099761Y-16909199D02*
X28137856Y-16871103D01*
X28137856Y-16871103D02*
X28175951Y-16794913D01*
X28175951Y-16794913D02*
X28175951Y-16718722D01*
X28175951Y-16718722D02*
X28137856Y-16642532D01*
X28137856Y-16642532D02*
X28099761Y-16604437D01*
X28099761Y-16604437D02*
X28023570Y-16566341D01*
X28023570Y-16566341D02*
X27871189Y-16528246D01*
X27871189Y-16528246D02*
X27794999Y-16490151D01*
X27794999Y-16490151D02*
X27756904Y-16452056D01*
X27756904Y-16452056D02*
X27718808Y-16375865D01*
X27718808Y-16375865D02*
X27718808Y-16299675D01*
X27718808Y-16299675D02*
X27756904Y-16223484D01*
X27756904Y-16223484D02*
X27794999Y-16185389D01*
X27794999Y-16185389D02*
X27871189Y-16147294D01*
X27871189Y-16147294D02*
X28061666Y-16147294D01*
X28061666Y-16147294D02*
X28175951Y-16185389D01*
X28442618Y-16147294D02*
X28633094Y-16947294D01*
X28633094Y-16947294D02*
X28785475Y-16375865D01*
X28785475Y-16375865D02*
X28937856Y-16947294D01*
X28937856Y-16947294D02*
X29128333Y-16147294D01*
X29242619Y-17023484D02*
X29852142Y-17023484D01*
X30499762Y-16947294D02*
X30233095Y-16566341D01*
X30042619Y-16947294D02*
X30042619Y-16147294D01*
X30042619Y-16147294D02*
X30347381Y-16147294D01*
X30347381Y-16147294D02*
X30423571Y-16185389D01*
X30423571Y-16185389D02*
X30461666Y-16223484D01*
X30461666Y-16223484D02*
X30499762Y-16299675D01*
X30499762Y-16299675D02*
X30499762Y-16413960D01*
X30499762Y-16413960D02*
X30461666Y-16490151D01*
X30461666Y-16490151D02*
X30423571Y-16528246D01*
X30423571Y-16528246D02*
X30347381Y-16566341D01*
X30347381Y-16566341D02*
X30042619Y-16566341D01*
X30804523Y-16909199D02*
X30918809Y-16947294D01*
X30918809Y-16947294D02*
X31109285Y-16947294D01*
X31109285Y-16947294D02*
X31185476Y-16909199D01*
X31185476Y-16909199D02*
X31223571Y-16871103D01*
X31223571Y-16871103D02*
X31261666Y-16794913D01*
X31261666Y-16794913D02*
X31261666Y-16718722D01*
X31261666Y-16718722D02*
X31223571Y-16642532D01*
X31223571Y-16642532D02*
X31185476Y-16604437D01*
X31185476Y-16604437D02*
X31109285Y-16566341D01*
X31109285Y-16566341D02*
X30956904Y-16528246D01*
X30956904Y-16528246D02*
X30880714Y-16490151D01*
X30880714Y-16490151D02*
X30842619Y-16452056D01*
X30842619Y-16452056D02*
X30804523Y-16375865D01*
X30804523Y-16375865D02*
X30804523Y-16299675D01*
X30804523Y-16299675D02*
X30842619Y-16223484D01*
X30842619Y-16223484D02*
X30880714Y-16185389D01*
X30880714Y-16185389D02*
X30956904Y-16147294D01*
X30956904Y-16147294D02*
X31147381Y-16147294D01*
X31147381Y-16147294D02*
X31261666Y-16185389D01*
X31490238Y-16147294D02*
X31947381Y-16147294D01*
X31718809Y-16947294D02*
X31718809Y-16147294D01*
X36622619Y-33562295D02*
X36622619Y-34209914D01*
X36622619Y-34209914D02*
X36660714Y-34286104D01*
X36660714Y-34286104D02*
X36698809Y-34324200D01*
X36698809Y-34324200D02*
X36775000Y-34362295D01*
X36775000Y-34362295D02*
X36927381Y-34362295D01*
X36927381Y-34362295D02*
X37003571Y-34324200D01*
X37003571Y-34324200D02*
X37041666Y-34286104D01*
X37041666Y-34286104D02*
X37079762Y-34209914D01*
X37079762Y-34209914D02*
X37079762Y-33562295D01*
X37270238Y-34438485D02*
X37879761Y-34438485D01*
X38527381Y-34286104D02*
X38489285Y-34324200D01*
X38489285Y-34324200D02*
X38375000Y-34362295D01*
X38375000Y-34362295D02*
X38298809Y-34362295D01*
X38298809Y-34362295D02*
X38184523Y-34324200D01*
X38184523Y-34324200D02*
X38108333Y-34248009D01*
X38108333Y-34248009D02*
X38070238Y-34171819D01*
X38070238Y-34171819D02*
X38032142Y-34019438D01*
X38032142Y-34019438D02*
X38032142Y-33905152D01*
X38032142Y-33905152D02*
X38070238Y-33752771D01*
X38070238Y-33752771D02*
X38108333Y-33676580D01*
X38108333Y-33676580D02*
X38184523Y-33600390D01*
X38184523Y-33600390D02*
X38298809Y-33562295D01*
X38298809Y-33562295D02*
X38375000Y-33562295D01*
X38375000Y-33562295D02*
X38489285Y-33600390D01*
X38489285Y-33600390D02*
X38527381Y-33638485D01*
X38870238Y-34362295D02*
X38870238Y-33562295D01*
X38870238Y-33943247D02*
X39327381Y-33943247D01*
X39327381Y-34362295D02*
X39327381Y-33562295D01*
X40127380Y-33600390D02*
X40051190Y-33562295D01*
X40051190Y-33562295D02*
X39936904Y-33562295D01*
X39936904Y-33562295D02*
X39822618Y-33600390D01*
X39822618Y-33600390D02*
X39746428Y-33676580D01*
X39746428Y-33676580D02*
X39708333Y-33752771D01*
X39708333Y-33752771D02*
X39670237Y-33905152D01*
X39670237Y-33905152D02*
X39670237Y-34019438D01*
X39670237Y-34019438D02*
X39708333Y-34171819D01*
X39708333Y-34171819D02*
X39746428Y-34248009D01*
X39746428Y-34248009D02*
X39822618Y-34324200D01*
X39822618Y-34324200D02*
X39936904Y-34362295D01*
X39936904Y-34362295D02*
X40013095Y-34362295D01*
X40013095Y-34362295D02*
X40127380Y-34324200D01*
X40127380Y-34324200D02*
X40165476Y-34286104D01*
X40165476Y-34286104D02*
X40165476Y-34019438D01*
X40165476Y-34019438D02*
X40013095Y-34019438D01*
X25629762Y-33487295D02*
X25629762Y-34134914D01*
X25629762Y-34134914D02*
X25667857Y-34211104D01*
X25667857Y-34211104D02*
X25705952Y-34249200D01*
X25705952Y-34249200D02*
X25782143Y-34287295D01*
X25782143Y-34287295D02*
X25934524Y-34287295D01*
X25934524Y-34287295D02*
X26010714Y-34249200D01*
X26010714Y-34249200D02*
X26048809Y-34211104D01*
X26048809Y-34211104D02*
X26086905Y-34134914D01*
X26086905Y-34134914D02*
X26086905Y-33487295D01*
X26277381Y-34363485D02*
X26886904Y-34363485D01*
X26963095Y-33487295D02*
X27420238Y-33487295D01*
X27191666Y-34287295D02*
X27191666Y-33487295D01*
X27839286Y-33487295D02*
X27991667Y-33487295D01*
X27991667Y-33487295D02*
X28067857Y-33525390D01*
X28067857Y-33525390D02*
X28144048Y-33601580D01*
X28144048Y-33601580D02*
X28182143Y-33753961D01*
X28182143Y-33753961D02*
X28182143Y-34020628D01*
X28182143Y-34020628D02*
X28144048Y-34173009D01*
X28144048Y-34173009D02*
X28067857Y-34249200D01*
X28067857Y-34249200D02*
X27991667Y-34287295D01*
X27991667Y-34287295D02*
X27839286Y-34287295D01*
X27839286Y-34287295D02*
X27763095Y-34249200D01*
X27763095Y-34249200D02*
X27686905Y-34173009D01*
X27686905Y-34173009D02*
X27648809Y-34020628D01*
X27648809Y-34020628D02*
X27648809Y-33753961D01*
X27648809Y-33753961D02*
X27686905Y-33601580D01*
X27686905Y-33601580D02*
X27763095Y-33525390D01*
X27763095Y-33525390D02*
X27839286Y-33487295D01*
X28525000Y-33487295D02*
X28525000Y-34134914D01*
X28525000Y-34134914D02*
X28563095Y-34211104D01*
X28563095Y-34211104D02*
X28601190Y-34249200D01*
X28601190Y-34249200D02*
X28677381Y-34287295D01*
X28677381Y-34287295D02*
X28829762Y-34287295D01*
X28829762Y-34287295D02*
X28905952Y-34249200D01*
X28905952Y-34249200D02*
X28944047Y-34211104D01*
X28944047Y-34211104D02*
X28982143Y-34134914D01*
X28982143Y-34134914D02*
X28982143Y-33487295D01*
X29820238Y-34211104D02*
X29782142Y-34249200D01*
X29782142Y-34249200D02*
X29667857Y-34287295D01*
X29667857Y-34287295D02*
X29591666Y-34287295D01*
X29591666Y-34287295D02*
X29477380Y-34249200D01*
X29477380Y-34249200D02*
X29401190Y-34173009D01*
X29401190Y-34173009D02*
X29363095Y-34096819D01*
X29363095Y-34096819D02*
X29324999Y-33944438D01*
X29324999Y-33944438D02*
X29324999Y-33830152D01*
X29324999Y-33830152D02*
X29363095Y-33677771D01*
X29363095Y-33677771D02*
X29401190Y-33601580D01*
X29401190Y-33601580D02*
X29477380Y-33525390D01*
X29477380Y-33525390D02*
X29591666Y-33487295D01*
X29591666Y-33487295D02*
X29667857Y-33487295D01*
X29667857Y-33487295D02*
X29782142Y-33525390D01*
X29782142Y-33525390D02*
X29820238Y-33563485D01*
X30163095Y-34287295D02*
X30163095Y-33487295D01*
X30163095Y-33868247D02*
X30620238Y-33868247D01*
X30620238Y-34287295D02*
X30620238Y-33487295D01*
X21690476Y-29562295D02*
X21690476Y-30209914D01*
X21690476Y-30209914D02*
X21728571Y-30286104D01*
X21728571Y-30286104D02*
X21766666Y-30324200D01*
X21766666Y-30324200D02*
X21842857Y-30362295D01*
X21842857Y-30362295D02*
X21995238Y-30362295D01*
X21995238Y-30362295D02*
X22071428Y-30324200D01*
X22071428Y-30324200D02*
X22109523Y-30286104D01*
X22109523Y-30286104D02*
X22147619Y-30209914D01*
X22147619Y-30209914D02*
X22147619Y-29562295D01*
X22947618Y-30362295D02*
X22490475Y-30362295D01*
X22719047Y-30362295D02*
X22719047Y-29562295D01*
X22719047Y-29562295D02*
X22642856Y-29676580D01*
X22642856Y-29676580D02*
X22566666Y-29752771D01*
X22566666Y-29752771D02*
X22490475Y-29790866D01*
X25495000Y-37062295D02*
X25495000Y-37709914D01*
X25495000Y-37709914D02*
X25533095Y-37786104D01*
X25533095Y-37786104D02*
X25571190Y-37824200D01*
X25571190Y-37824200D02*
X25647381Y-37862295D01*
X25647381Y-37862295D02*
X25799762Y-37862295D01*
X25799762Y-37862295D02*
X25875952Y-37824200D01*
X25875952Y-37824200D02*
X25914047Y-37786104D01*
X25914047Y-37786104D02*
X25952143Y-37709914D01*
X25952143Y-37709914D02*
X25952143Y-37062295D01*
X26142619Y-37938485D02*
X26752142Y-37938485D01*
X26942619Y-37862295D02*
X26942619Y-37062295D01*
X27323571Y-37862295D02*
X27323571Y-37062295D01*
X27323571Y-37062295D02*
X27590237Y-37633723D01*
X27590237Y-37633723D02*
X27856904Y-37062295D01*
X27856904Y-37062295D02*
X27856904Y-37862295D01*
X28237857Y-37062295D02*
X28237857Y-37709914D01*
X28237857Y-37709914D02*
X28275952Y-37786104D01*
X28275952Y-37786104D02*
X28314047Y-37824200D01*
X28314047Y-37824200D02*
X28390238Y-37862295D01*
X28390238Y-37862295D02*
X28542619Y-37862295D01*
X28542619Y-37862295D02*
X28618809Y-37824200D01*
X28618809Y-37824200D02*
X28656904Y-37786104D01*
X28656904Y-37786104D02*
X28695000Y-37709914D01*
X28695000Y-37709914D02*
X28695000Y-37062295D01*
X34125000Y-35572295D02*
X34125000Y-36219914D01*
X34125000Y-36219914D02*
X34163095Y-36296104D01*
X34163095Y-36296104D02*
X34201190Y-36334200D01*
X34201190Y-36334200D02*
X34277381Y-36372295D01*
X34277381Y-36372295D02*
X34429762Y-36372295D01*
X34429762Y-36372295D02*
X34505952Y-36334200D01*
X34505952Y-36334200D02*
X34544047Y-36296104D01*
X34544047Y-36296104D02*
X34582143Y-36219914D01*
X34582143Y-36219914D02*
X34582143Y-35572295D01*
X34772619Y-36448485D02*
X35382142Y-36448485D01*
X35572619Y-35953247D02*
X35839285Y-35953247D01*
X35953571Y-36372295D02*
X35572619Y-36372295D01*
X35572619Y-36372295D02*
X35572619Y-35572295D01*
X35572619Y-35572295D02*
X35953571Y-35572295D01*
X36563095Y-35953247D02*
X36296429Y-35953247D01*
X36296429Y-36372295D02*
X36296429Y-35572295D01*
X36296429Y-35572295D02*
X36677381Y-35572295D01*
X36982143Y-35572295D02*
X36982143Y-36219914D01*
X36982143Y-36219914D02*
X37020238Y-36296104D01*
X37020238Y-36296104D02*
X37058333Y-36334200D01*
X37058333Y-36334200D02*
X37134524Y-36372295D01*
X37134524Y-36372295D02*
X37286905Y-36372295D01*
X37286905Y-36372295D02*
X37363095Y-36334200D01*
X37363095Y-36334200D02*
X37401190Y-36296104D01*
X37401190Y-36296104D02*
X37439286Y-36219914D01*
X37439286Y-36219914D02*
X37439286Y-35572295D01*
X37782142Y-36334200D02*
X37896428Y-36372295D01*
X37896428Y-36372295D02*
X38086904Y-36372295D01*
X38086904Y-36372295D02*
X38163095Y-36334200D01*
X38163095Y-36334200D02*
X38201190Y-36296104D01*
X38201190Y-36296104D02*
X38239285Y-36219914D01*
X38239285Y-36219914D02*
X38239285Y-36143723D01*
X38239285Y-36143723D02*
X38201190Y-36067533D01*
X38201190Y-36067533D02*
X38163095Y-36029438D01*
X38163095Y-36029438D02*
X38086904Y-35991342D01*
X38086904Y-35991342D02*
X37934523Y-35953247D01*
X37934523Y-35953247D02*
X37858333Y-35915152D01*
X37858333Y-35915152D02*
X37820238Y-35877057D01*
X37820238Y-35877057D02*
X37782142Y-35800866D01*
X37782142Y-35800866D02*
X37782142Y-35724676D01*
X37782142Y-35724676D02*
X37820238Y-35648485D01*
X37820238Y-35648485D02*
X37858333Y-35610390D01*
X37858333Y-35610390D02*
X37934523Y-35572295D01*
X37934523Y-35572295D02*
X38125000Y-35572295D01*
X38125000Y-35572295D02*
X38239285Y-35610390D01*
X38582143Y-35953247D02*
X38848809Y-35953247D01*
X38963095Y-36372295D02*
X38582143Y-36372295D01*
X38582143Y-36372295D02*
X38582143Y-35572295D01*
X38582143Y-35572295D02*
X38963095Y-35572295D01*
X9452381Y521752D02*
X9185715Y521752D01*
X9185715Y102704D02*
X9185715Y902704D01*
X9185715Y902704D02*
X9566667Y902704D01*
X9871429Y102704D02*
X9871429Y902704D01*
X9871429Y902704D02*
X10176191Y902704D01*
X10176191Y902704D02*
X10252381Y864609D01*
X10252381Y864609D02*
X10290476Y826514D01*
X10290476Y826514D02*
X10328572Y750323D01*
X10328572Y750323D02*
X10328572Y636038D01*
X10328572Y636038D02*
X10290476Y559847D01*
X10290476Y559847D02*
X10252381Y521752D01*
X10252381Y521752D02*
X10176191Y483657D01*
X10176191Y483657D02*
X9871429Y483657D01*
X11128572Y178895D02*
X11090476Y140800D01*
X11090476Y140800D02*
X10976191Y102704D01*
X10976191Y102704D02*
X10900000Y102704D01*
X10900000Y102704D02*
X10785714Y140800D01*
X10785714Y140800D02*
X10709524Y216990D01*
X10709524Y216990D02*
X10671429Y293180D01*
X10671429Y293180D02*
X10633333Y445561D01*
X10633333Y445561D02*
X10633333Y559847D01*
X10633333Y559847D02*
X10671429Y712228D01*
X10671429Y712228D02*
X10709524Y788419D01*
X10709524Y788419D02*
X10785714Y864609D01*
X10785714Y864609D02*
X10900000Y902704D01*
X10900000Y902704D02*
X10976191Y902704D01*
X10976191Y902704D02*
X11090476Y864609D01*
X11090476Y864609D02*
X11128572Y826514D01*
X11395238Y369371D02*
X11776191Y369371D01*
X11433333Y559847D02*
X11776191Y559847D01*
X11471429Y902704D02*
X11395238Y712228D01*
X11623810Y750323D02*
X11623810Y369371D01*
X11890476Y483657D02*
X12309524Y483657D01*
X11890476Y788419D02*
X11890476Y483657D01*
X11890476Y140800D02*
X12309524Y178895D01*
X12080953Y1016990D02*
X12080953Y178895D01*
X12233333Y369371D02*
X12347619Y102704D01*
X11471429Y902704D02*
X11700000Y902704D01*
X11700000Y902704D02*
X11623810Y750323D01*
X11890476Y788419D02*
X12309524Y788419D01*
X12309524Y788419D02*
X12309524Y483657D01*
X11395238Y750323D02*
X11395238Y369371D01*
X11395238Y369371D02*
X11395238Y216990D01*
X11395238Y216990D02*
X11357143Y102704D01*
X11395238Y750323D02*
X11776191Y750323D01*
X11776191Y750323D02*
X11776191Y102704D01*
X11776191Y102704D02*
X11661905Y102704D01*
X12690476Y255085D02*
X12538095Y102704D01*
X12690476Y407466D02*
X13414285Y407466D01*
X12690476Y674133D02*
X12690476Y407466D01*
X12919047Y255085D02*
X12919047Y102704D01*
X13033333Y864609D02*
X13490476Y864609D01*
X13033333Y1016990D02*
X13033333Y674133D01*
X13147619Y255085D02*
X13223809Y102704D01*
X13376190Y293180D02*
X13528571Y140800D01*
X12690476Y674133D02*
X13414285Y674133D01*
X13414285Y674133D02*
X13414285Y407466D01*
X13719047Y293180D02*
X14252380Y293180D01*
X13719047Y864609D02*
X14214285Y864609D01*
X13757142Y445561D02*
X14176190Y445561D01*
X13757142Y597942D02*
X14176190Y597942D01*
X13757142Y750323D02*
X13757142Y445561D01*
X13985714Y445561D02*
X13985714Y102704D01*
X13985714Y1016990D02*
X13985714Y750323D01*
X14328571Y445561D02*
X14709523Y445561D01*
X14366666Y712228D02*
X14709523Y712228D01*
X14557142Y102704D02*
X14709523Y102704D01*
X13757142Y750323D02*
X14176190Y750323D01*
X14176190Y750323D02*
X14176190Y445561D01*
X14366666Y940800D02*
X14328571Y445561D01*
X14328571Y445561D02*
X14290476Y216990D01*
X14366666Y940800D02*
X14709523Y940800D01*
X14709523Y940800D02*
X14709523Y102704D01*
X14899999Y940800D02*
X15890475Y940800D01*
X15357142Y712228D02*
X15814285Y483657D01*
X15357142Y940800D02*
X15357142Y102704D01*
X45766427Y-41938485D02*
X45690237Y-41900390D01*
X45690237Y-41900390D02*
X45614046Y-41824200D01*
X45614046Y-41824200D02*
X45499760Y-41709914D01*
X45499760Y-41709914D02*
X45423570Y-41671819D01*
X45423570Y-41671819D02*
X45347379Y-41671819D01*
X45385475Y-41862295D02*
X45309284Y-41824200D01*
X45309284Y-41824200D02*
X45233094Y-41748009D01*
X45233094Y-41748009D02*
X45194998Y-41595628D01*
X45194998Y-41595628D02*
X45194998Y-41328961D01*
X45194998Y-41328961D02*
X45233094Y-41176580D01*
X45233094Y-41176580D02*
X45309284Y-41100390D01*
X45309284Y-41100390D02*
X45385475Y-41062295D01*
X45385475Y-41062295D02*
X45537856Y-41062295D01*
X45537856Y-41062295D02*
X45614046Y-41100390D01*
X45614046Y-41100390D02*
X45690237Y-41176580D01*
X45690237Y-41176580D02*
X45728332Y-41328961D01*
X45728332Y-41328961D02*
X45728332Y-41595628D01*
X45728332Y-41595628D02*
X45690237Y-41748009D01*
X45690237Y-41748009D02*
X45614046Y-41824200D01*
X45614046Y-41824200D02*
X45537856Y-41862295D01*
X45537856Y-41862295D02*
X45385475Y-41862295D01*
X45880713Y-41938485D02*
X46490236Y-41938485D01*
X46680713Y-41862295D02*
X46680713Y-41062295D01*
X46680713Y-41443247D02*
X47137856Y-41443247D01*
X47137856Y-41862295D02*
X47137856Y-41062295D01*
X47518808Y-41443247D02*
X47785474Y-41443247D01*
X47899760Y-41862295D02*
X47518808Y-41862295D01*
X47518808Y-41862295D02*
X47518808Y-41062295D01*
X47518808Y-41062295D02*
X47899760Y-41062295D01*
X48204522Y-41633723D02*
X48585475Y-41633723D01*
X48128332Y-41862295D02*
X48394999Y-41062295D01*
X48394999Y-41062295D02*
X48661665Y-41862295D01*
X48814046Y-41062295D02*
X49271189Y-41062295D01*
X49042617Y-41862295D02*
X49042617Y-41062295D01*
X30292619Y-13938485D02*
X30216429Y-13900390D01*
X30216429Y-13900390D02*
X30140238Y-13824200D01*
X30140238Y-13824200D02*
X30025952Y-13709914D01*
X30025952Y-13709914D02*
X29949762Y-13671819D01*
X29949762Y-13671819D02*
X29873571Y-13671819D01*
X29911667Y-13862295D02*
X29835476Y-13824200D01*
X29835476Y-13824200D02*
X29759286Y-13748009D01*
X29759286Y-13748009D02*
X29721190Y-13595628D01*
X29721190Y-13595628D02*
X29721190Y-13328961D01*
X29721190Y-13328961D02*
X29759286Y-13176580D01*
X29759286Y-13176580D02*
X29835476Y-13100390D01*
X29835476Y-13100390D02*
X29911667Y-13062295D01*
X29911667Y-13062295D02*
X30064048Y-13062295D01*
X30064048Y-13062295D02*
X30140238Y-13100390D01*
X30140238Y-13100390D02*
X30216429Y-13176580D01*
X30216429Y-13176580D02*
X30254524Y-13328961D01*
X30254524Y-13328961D02*
X30254524Y-13595628D01*
X30254524Y-13595628D02*
X30216429Y-13748009D01*
X30216429Y-13748009D02*
X30140238Y-13824200D01*
X30140238Y-13824200D02*
X30064048Y-13862295D01*
X30064048Y-13862295D02*
X29911667Y-13862295D01*
X30406905Y-13938485D02*
X31016428Y-13938485D01*
X31587857Y-13862295D02*
X31206905Y-13862295D01*
X31206905Y-13862295D02*
X31206905Y-13062295D01*
X32311667Y-13786104D02*
X32273571Y-13824200D01*
X32273571Y-13824200D02*
X32159286Y-13862295D01*
X32159286Y-13862295D02*
X32083095Y-13862295D01*
X32083095Y-13862295D02*
X31968809Y-13824200D01*
X31968809Y-13824200D02*
X31892619Y-13748009D01*
X31892619Y-13748009D02*
X31854524Y-13671819D01*
X31854524Y-13671819D02*
X31816428Y-13519438D01*
X31816428Y-13519438D02*
X31816428Y-13405152D01*
X31816428Y-13405152D02*
X31854524Y-13252771D01*
X31854524Y-13252771D02*
X31892619Y-13176580D01*
X31892619Y-13176580D02*
X31968809Y-13100390D01*
X31968809Y-13100390D02*
X32083095Y-13062295D01*
X32083095Y-13062295D02*
X32159286Y-13062295D01*
X32159286Y-13062295D02*
X32273571Y-13100390D01*
X32273571Y-13100390D02*
X32311667Y-13138485D01*
X32654524Y-13862295D02*
X32654524Y-13062295D01*
X32654524Y-13062295D02*
X32845000Y-13062295D01*
X32845000Y-13062295D02*
X32959286Y-13100390D01*
X32959286Y-13100390D02*
X33035476Y-13176580D01*
X33035476Y-13176580D02*
X33073571Y-13252771D01*
X33073571Y-13252771D02*
X33111667Y-13405152D01*
X33111667Y-13405152D02*
X33111667Y-13519438D01*
X33111667Y-13519438D02*
X33073571Y-13671819D01*
X33073571Y-13671819D02*
X33035476Y-13748009D01*
X33035476Y-13748009D02*
X32959286Y-13824200D01*
X32959286Y-13824200D02*
X32845000Y-13862295D01*
X32845000Y-13862295D02*
X32654524Y-13862295D01*
X33264048Y-13938485D02*
X33873571Y-13938485D01*
X34330714Y-13443247D02*
X34445000Y-13481342D01*
X34445000Y-13481342D02*
X34483095Y-13519438D01*
X34483095Y-13519438D02*
X34521191Y-13595628D01*
X34521191Y-13595628D02*
X34521191Y-13709914D01*
X34521191Y-13709914D02*
X34483095Y-13786104D01*
X34483095Y-13786104D02*
X34445000Y-13824200D01*
X34445000Y-13824200D02*
X34368810Y-13862295D01*
X34368810Y-13862295D02*
X34064048Y-13862295D01*
X34064048Y-13862295D02*
X34064048Y-13062295D01*
X34064048Y-13062295D02*
X34330714Y-13062295D01*
X34330714Y-13062295D02*
X34406905Y-13100390D01*
X34406905Y-13100390D02*
X34445000Y-13138485D01*
X34445000Y-13138485D02*
X34483095Y-13214676D01*
X34483095Y-13214676D02*
X34483095Y-13290866D01*
X34483095Y-13290866D02*
X34445000Y-13367057D01*
X34445000Y-13367057D02*
X34406905Y-13405152D01*
X34406905Y-13405152D02*
X34330714Y-13443247D01*
X34330714Y-13443247D02*
X34064048Y-13443247D01*
X35245000Y-13862295D02*
X34864048Y-13862295D01*
X34864048Y-13862295D02*
X34864048Y-13062295D01*
X13561905Y-16087294D02*
X13561905Y-16734913D01*
X13561905Y-16734913D02*
X13600000Y-16811103D01*
X13600000Y-16811103D02*
X13638095Y-16849199D01*
X13638095Y-16849199D02*
X13714286Y-16887294D01*
X13714286Y-16887294D02*
X13866667Y-16887294D01*
X13866667Y-16887294D02*
X13942857Y-16849199D01*
X13942857Y-16849199D02*
X13980952Y-16811103D01*
X13980952Y-16811103D02*
X14019048Y-16734913D01*
X14019048Y-16734913D02*
X14019048Y-16087294D01*
X14209524Y-16963484D02*
X14819047Y-16963484D01*
X15390476Y-16887294D02*
X15009524Y-16887294D01*
X15009524Y-16887294D02*
X15009524Y-16087294D01*
X15657143Y-16887294D02*
X15657143Y-16087294D01*
X15657143Y-16087294D02*
X15847619Y-16087294D01*
X15847619Y-16087294D02*
X15961905Y-16125389D01*
X15961905Y-16125389D02*
X16038095Y-16201579D01*
X16038095Y-16201579D02*
X16076190Y-16277770D01*
X16076190Y-16277770D02*
X16114286Y-16430151D01*
X16114286Y-16430151D02*
X16114286Y-16544437D01*
X16114286Y-16544437D02*
X16076190Y-16696818D01*
X16076190Y-16696818D02*
X16038095Y-16773008D01*
X16038095Y-16773008D02*
X15961905Y-16849199D01*
X15961905Y-16849199D02*
X15847619Y-16887294D01*
X15847619Y-16887294D02*
X15657143Y-16887294D01*
X16609524Y-16087294D02*
X16761905Y-16087294D01*
X16761905Y-16087294D02*
X16838095Y-16125389D01*
X16838095Y-16125389D02*
X16914286Y-16201579D01*
X16914286Y-16201579D02*
X16952381Y-16353960D01*
X16952381Y-16353960D02*
X16952381Y-16620627D01*
X16952381Y-16620627D02*
X16914286Y-16773008D01*
X16914286Y-16773008D02*
X16838095Y-16849199D01*
X16838095Y-16849199D02*
X16761905Y-16887294D01*
X16761905Y-16887294D02*
X16609524Y-16887294D01*
X16609524Y-16887294D02*
X16533333Y-16849199D01*
X16533333Y-16849199D02*
X16457143Y-16773008D01*
X16457143Y-16773008D02*
X16419047Y-16620627D01*
X16419047Y-16620627D02*
X16419047Y-16353960D01*
X16419047Y-16353960D02*
X16457143Y-16201579D01*
X16457143Y-16201579D02*
X16533333Y-16125389D01*
X16533333Y-16125389D02*
X16609524Y-16087294D01*
X17714285Y-16887294D02*
X17257142Y-16887294D01*
X17485714Y-16887294D02*
X17485714Y-16087294D01*
X17485714Y-16087294D02*
X17409523Y-16201579D01*
X17409523Y-16201579D02*
X17333333Y-16277770D01*
X17333333Y-16277770D02*
X17257142Y-16315865D01*
X18438095Y-16087294D02*
X18057143Y-16087294D01*
X18057143Y-16087294D02*
X18019047Y-16468246D01*
X18019047Y-16468246D02*
X18057143Y-16430151D01*
X18057143Y-16430151D02*
X18133333Y-16392056D01*
X18133333Y-16392056D02*
X18323809Y-16392056D01*
X18323809Y-16392056D02*
X18400000Y-16430151D01*
X18400000Y-16430151D02*
X18438095Y-16468246D01*
X18438095Y-16468246D02*
X18476190Y-16544437D01*
X18476190Y-16544437D02*
X18476190Y-16734913D01*
X18476190Y-16734913D02*
X18438095Y-16811103D01*
X18438095Y-16811103D02*
X18400000Y-16849199D01*
X18400000Y-16849199D02*
X18323809Y-16887294D01*
X18323809Y-16887294D02*
X18133333Y-16887294D01*
X18133333Y-16887294D02*
X18057143Y-16849199D01*
X18057143Y-16849199D02*
X18019047Y-16811103D01*
X38074167Y-41137295D02*
X38074167Y-41784914D01*
X38074167Y-41784914D02*
X38112262Y-41861104D01*
X38112262Y-41861104D02*
X38150357Y-41899200D01*
X38150357Y-41899200D02*
X38226548Y-41937295D01*
X38226548Y-41937295D02*
X38378929Y-41937295D01*
X38378929Y-41937295D02*
X38455119Y-41899200D01*
X38455119Y-41899200D02*
X38493214Y-41861104D01*
X38493214Y-41861104D02*
X38531310Y-41784914D01*
X38531310Y-41784914D02*
X38531310Y-41137295D01*
X38721786Y-42013485D02*
X39331309Y-42013485D01*
X39483690Y-41708723D02*
X39864643Y-41708723D01*
X39407500Y-41937295D02*
X39674167Y-41137295D01*
X39674167Y-41137295D02*
X39940833Y-41937295D01*
X40207500Y-41937295D02*
X40207500Y-41137295D01*
X40207500Y-41137295D02*
X40474166Y-41708723D01*
X40474166Y-41708723D02*
X40740833Y-41137295D01*
X40740833Y-41137295D02*
X40740833Y-41937295D01*
X41121786Y-41937295D02*
X41121786Y-41137295D01*
X41121786Y-41137295D02*
X41426548Y-41137295D01*
X41426548Y-41137295D02*
X41502738Y-41175390D01*
X41502738Y-41175390D02*
X41540833Y-41213485D01*
X41540833Y-41213485D02*
X41578929Y-41289676D01*
X41578929Y-41289676D02*
X41578929Y-41403961D01*
X41578929Y-41403961D02*
X41540833Y-41480152D01*
X41540833Y-41480152D02*
X41502738Y-41518247D01*
X41502738Y-41518247D02*
X41426548Y-41556342D01*
X41426548Y-41556342D02*
X41121786Y-41556342D01*
X31668810Y-27987294D02*
X31668810Y-28634913D01*
X31668810Y-28634913D02*
X31706905Y-28711103D01*
X31706905Y-28711103D02*
X31745000Y-28749199D01*
X31745000Y-28749199D02*
X31821191Y-28787294D01*
X31821191Y-28787294D02*
X31973572Y-28787294D01*
X31973572Y-28787294D02*
X32049762Y-28749199D01*
X32049762Y-28749199D02*
X32087857Y-28711103D01*
X32087857Y-28711103D02*
X32125953Y-28634913D01*
X32125953Y-28634913D02*
X32125953Y-27987294D01*
X32316429Y-28863484D02*
X32925952Y-28863484D01*
X33078333Y-28558722D02*
X33459286Y-28558722D01*
X33002143Y-28787294D02*
X33268810Y-27987294D01*
X33268810Y-27987294D02*
X33535476Y-28787294D01*
X33802143Y-28787294D02*
X33802143Y-27987294D01*
X33802143Y-27987294D02*
X33992619Y-27987294D01*
X33992619Y-27987294D02*
X34106905Y-28025389D01*
X34106905Y-28025389D02*
X34183095Y-28101579D01*
X34183095Y-28101579D02*
X34221190Y-28177770D01*
X34221190Y-28177770D02*
X34259286Y-28330151D01*
X34259286Y-28330151D02*
X34259286Y-28444437D01*
X34259286Y-28444437D02*
X34221190Y-28596818D01*
X34221190Y-28596818D02*
X34183095Y-28673008D01*
X34183095Y-28673008D02*
X34106905Y-28749199D01*
X34106905Y-28749199D02*
X33992619Y-28787294D01*
X33992619Y-28787294D02*
X33802143Y-28787294D01*
X35059286Y-28711103D02*
X35021190Y-28749199D01*
X35021190Y-28749199D02*
X34906905Y-28787294D01*
X34906905Y-28787294D02*
X34830714Y-28787294D01*
X34830714Y-28787294D02*
X34716428Y-28749199D01*
X34716428Y-28749199D02*
X34640238Y-28673008D01*
X34640238Y-28673008D02*
X34602143Y-28596818D01*
X34602143Y-28596818D02*
X34564047Y-28444437D01*
X34564047Y-28444437D02*
X34564047Y-28330151D01*
X34564047Y-28330151D02*
X34602143Y-28177770D01*
X34602143Y-28177770D02*
X34640238Y-28101579D01*
X34640238Y-28101579D02*
X34716428Y-28025389D01*
X34716428Y-28025389D02*
X34830714Y-27987294D01*
X34830714Y-27987294D02*
X34906905Y-27987294D01*
X34906905Y-27987294D02*
X35021190Y-28025389D01*
X35021190Y-28025389D02*
X35059286Y-28063484D01*
X44760118Y-12887295D02*
X44760118Y-13534914D01*
X44760118Y-13534914D02*
X44798213Y-13611104D01*
X44798213Y-13611104D02*
X44836308Y-13649200D01*
X44836308Y-13649200D02*
X44912499Y-13687295D01*
X44912499Y-13687295D02*
X45064880Y-13687295D01*
X45064880Y-13687295D02*
X45141070Y-13649200D01*
X45141070Y-13649200D02*
X45179165Y-13611104D01*
X45179165Y-13611104D02*
X45217261Y-13534914D01*
X45217261Y-13534914D02*
X45217261Y-12887295D01*
X45407737Y-13763485D02*
X46017260Y-13763485D01*
X46474403Y-13268247D02*
X46588689Y-13306342D01*
X46588689Y-13306342D02*
X46626784Y-13344438D01*
X46626784Y-13344438D02*
X46664880Y-13420628D01*
X46664880Y-13420628D02*
X46664880Y-13534914D01*
X46664880Y-13534914D02*
X46626784Y-13611104D01*
X46626784Y-13611104D02*
X46588689Y-13649200D01*
X46588689Y-13649200D02*
X46512499Y-13687295D01*
X46512499Y-13687295D02*
X46207737Y-13687295D01*
X46207737Y-13687295D02*
X46207737Y-12887295D01*
X46207737Y-12887295D02*
X46474403Y-12887295D01*
X46474403Y-12887295D02*
X46550594Y-12925390D01*
X46550594Y-12925390D02*
X46588689Y-12963485D01*
X46588689Y-12963485D02*
X46626784Y-13039676D01*
X46626784Y-13039676D02*
X46626784Y-13115866D01*
X46626784Y-13115866D02*
X46588689Y-13192057D01*
X46588689Y-13192057D02*
X46550594Y-13230152D01*
X46550594Y-13230152D02*
X46474403Y-13268247D01*
X46474403Y-13268247D02*
X46207737Y-13268247D01*
X47007737Y-12887295D02*
X47007737Y-13534914D01*
X47007737Y-13534914D02*
X47045832Y-13611104D01*
X47045832Y-13611104D02*
X47083927Y-13649200D01*
X47083927Y-13649200D02*
X47160118Y-13687295D01*
X47160118Y-13687295D02*
X47312499Y-13687295D01*
X47312499Y-13687295D02*
X47388689Y-13649200D01*
X47388689Y-13649200D02*
X47426784Y-13611104D01*
X47426784Y-13611104D02*
X47464880Y-13534914D01*
X47464880Y-13534914D02*
X47464880Y-12887295D01*
X48302975Y-13611104D02*
X48264879Y-13649200D01*
X48264879Y-13649200D02*
X48150594Y-13687295D01*
X48150594Y-13687295D02*
X48074403Y-13687295D01*
X48074403Y-13687295D02*
X47960117Y-13649200D01*
X47960117Y-13649200D02*
X47883927Y-13573009D01*
X47883927Y-13573009D02*
X47845832Y-13496819D01*
X47845832Y-13496819D02*
X47807736Y-13344438D01*
X47807736Y-13344438D02*
X47807736Y-13230152D01*
X47807736Y-13230152D02*
X47845832Y-13077771D01*
X47845832Y-13077771D02*
X47883927Y-13001580D01*
X47883927Y-13001580D02*
X47960117Y-12925390D01*
X47960117Y-12925390D02*
X48074403Y-12887295D01*
X48074403Y-12887295D02*
X48150594Y-12887295D01*
X48150594Y-12887295D02*
X48264879Y-12925390D01*
X48264879Y-12925390D02*
X48302975Y-12963485D01*
X48645832Y-13687295D02*
X48645832Y-12887295D01*
X49102975Y-13687295D02*
X48760117Y-13230152D01*
X49102975Y-12887295D02*
X48645832Y-13344438D01*
X24607381Y-43438485D02*
X24531191Y-43400390D01*
X24531191Y-43400390D02*
X24455000Y-43324200D01*
X24455000Y-43324200D02*
X24340714Y-43209914D01*
X24340714Y-43209914D02*
X24264524Y-43171819D01*
X24264524Y-43171819D02*
X24188333Y-43171819D01*
X24226429Y-43362295D02*
X24150238Y-43324200D01*
X24150238Y-43324200D02*
X24074048Y-43248009D01*
X24074048Y-43248009D02*
X24035952Y-43095628D01*
X24035952Y-43095628D02*
X24035952Y-42828961D01*
X24035952Y-42828961D02*
X24074048Y-42676580D01*
X24074048Y-42676580D02*
X24150238Y-42600390D01*
X24150238Y-42600390D02*
X24226429Y-42562295D01*
X24226429Y-42562295D02*
X24378810Y-42562295D01*
X24378810Y-42562295D02*
X24455000Y-42600390D01*
X24455000Y-42600390D02*
X24531191Y-42676580D01*
X24531191Y-42676580D02*
X24569286Y-42828961D01*
X24569286Y-42828961D02*
X24569286Y-43095628D01*
X24569286Y-43095628D02*
X24531191Y-43248009D01*
X24531191Y-43248009D02*
X24455000Y-43324200D01*
X24455000Y-43324200D02*
X24378810Y-43362295D01*
X24378810Y-43362295D02*
X24226429Y-43362295D01*
X24721667Y-43438485D02*
X25331190Y-43438485D01*
X25788333Y-42943247D02*
X25902619Y-42981342D01*
X25902619Y-42981342D02*
X25940714Y-43019438D01*
X25940714Y-43019438D02*
X25978810Y-43095628D01*
X25978810Y-43095628D02*
X25978810Y-43209914D01*
X25978810Y-43209914D02*
X25940714Y-43286104D01*
X25940714Y-43286104D02*
X25902619Y-43324200D01*
X25902619Y-43324200D02*
X25826429Y-43362295D01*
X25826429Y-43362295D02*
X25521667Y-43362295D01*
X25521667Y-43362295D02*
X25521667Y-42562295D01*
X25521667Y-42562295D02*
X25788333Y-42562295D01*
X25788333Y-42562295D02*
X25864524Y-42600390D01*
X25864524Y-42600390D02*
X25902619Y-42638485D01*
X25902619Y-42638485D02*
X25940714Y-42714676D01*
X25940714Y-42714676D02*
X25940714Y-42790866D01*
X25940714Y-42790866D02*
X25902619Y-42867057D01*
X25902619Y-42867057D02*
X25864524Y-42905152D01*
X25864524Y-42905152D02*
X25788333Y-42943247D01*
X25788333Y-42943247D02*
X25521667Y-42943247D01*
X26283571Y-43133723D02*
X26664524Y-43133723D01*
X26207381Y-43362295D02*
X26474048Y-42562295D01*
X26474048Y-42562295D02*
X26740714Y-43362295D01*
X26893095Y-42562295D02*
X27350238Y-42562295D01*
X27121666Y-43362295D02*
X27121666Y-42562295D01*
X27616905Y-43362295D02*
X27616905Y-42562295D01*
X27616905Y-42562295D02*
X27921667Y-42562295D01*
X27921667Y-42562295D02*
X27997857Y-42600390D01*
X27997857Y-42600390D02*
X28035952Y-42638485D01*
X28035952Y-42638485D02*
X28074048Y-42714676D01*
X28074048Y-42714676D02*
X28074048Y-42828961D01*
X28074048Y-42828961D02*
X28035952Y-42905152D01*
X28035952Y-42905152D02*
X27997857Y-42943247D01*
X27997857Y-42943247D02*
X27921667Y-42981342D01*
X27921667Y-42981342D02*
X27616905Y-42981342D01*
X36723809Y-21837294D02*
X36342857Y-21837294D01*
X36342857Y-21837294D02*
X36342857Y-21037294D01*
X36800000Y-21913484D02*
X37409523Y-21913484D01*
X38057143Y-21761103D02*
X38019047Y-21799199D01*
X38019047Y-21799199D02*
X37904762Y-21837294D01*
X37904762Y-21837294D02*
X37828571Y-21837294D01*
X37828571Y-21837294D02*
X37714285Y-21799199D01*
X37714285Y-21799199D02*
X37638095Y-21723008D01*
X37638095Y-21723008D02*
X37600000Y-21646818D01*
X37600000Y-21646818D02*
X37561904Y-21494437D01*
X37561904Y-21494437D02*
X37561904Y-21380151D01*
X37561904Y-21380151D02*
X37600000Y-21227770D01*
X37600000Y-21227770D02*
X37638095Y-21151579D01*
X37638095Y-21151579D02*
X37714285Y-21075389D01*
X37714285Y-21075389D02*
X37828571Y-21037294D01*
X37828571Y-21037294D02*
X37904762Y-21037294D01*
X37904762Y-21037294D02*
X38019047Y-21075389D01*
X38019047Y-21075389D02*
X38057143Y-21113484D01*
X38400000Y-21837294D02*
X38400000Y-21037294D01*
X38400000Y-21418246D02*
X38857143Y-21418246D01*
X38857143Y-21837294D02*
X38857143Y-21037294D01*
X39657142Y-21075389D02*
X39580952Y-21037294D01*
X39580952Y-21037294D02*
X39466666Y-21037294D01*
X39466666Y-21037294D02*
X39352380Y-21075389D01*
X39352380Y-21075389D02*
X39276190Y-21151579D01*
X39276190Y-21151579D02*
X39238095Y-21227770D01*
X39238095Y-21227770D02*
X39199999Y-21380151D01*
X39199999Y-21380151D02*
X39199999Y-21494437D01*
X39199999Y-21494437D02*
X39238095Y-21646818D01*
X39238095Y-21646818D02*
X39276190Y-21723008D01*
X39276190Y-21723008D02*
X39352380Y-21799199D01*
X39352380Y-21799199D02*
X39466666Y-21837294D01*
X39466666Y-21837294D02*
X39542857Y-21837294D01*
X39542857Y-21837294D02*
X39657142Y-21799199D01*
X39657142Y-21799199D02*
X39695238Y-21761103D01*
X39695238Y-21761103D02*
X39695238Y-21494437D01*
X39695238Y-21494437D02*
X39542857Y-21494437D01*
X36361666Y-19324200D02*
X36475952Y-19362295D01*
X36475952Y-19362295D02*
X36666428Y-19362295D01*
X36666428Y-19362295D02*
X36742619Y-19324200D01*
X36742619Y-19324200D02*
X36780714Y-19286104D01*
X36780714Y-19286104D02*
X36818809Y-19209914D01*
X36818809Y-19209914D02*
X36818809Y-19133723D01*
X36818809Y-19133723D02*
X36780714Y-19057533D01*
X36780714Y-19057533D02*
X36742619Y-19019438D01*
X36742619Y-19019438D02*
X36666428Y-18981342D01*
X36666428Y-18981342D02*
X36514047Y-18943247D01*
X36514047Y-18943247D02*
X36437857Y-18905152D01*
X36437857Y-18905152D02*
X36399762Y-18867057D01*
X36399762Y-18867057D02*
X36361666Y-18790866D01*
X36361666Y-18790866D02*
X36361666Y-18714676D01*
X36361666Y-18714676D02*
X36399762Y-18638485D01*
X36399762Y-18638485D02*
X36437857Y-18600390D01*
X36437857Y-18600390D02*
X36514047Y-18562295D01*
X36514047Y-18562295D02*
X36704524Y-18562295D01*
X36704524Y-18562295D02*
X36818809Y-18600390D01*
X37085476Y-18562295D02*
X37275952Y-19362295D01*
X37275952Y-19362295D02*
X37428333Y-18790866D01*
X37428333Y-18790866D02*
X37580714Y-19362295D01*
X37580714Y-19362295D02*
X37771191Y-18562295D01*
X37885477Y-19438485D02*
X38495000Y-19438485D01*
X38952143Y-18943247D02*
X39066429Y-18981342D01*
X39066429Y-18981342D02*
X39104524Y-19019438D01*
X39104524Y-19019438D02*
X39142620Y-19095628D01*
X39142620Y-19095628D02*
X39142620Y-19209914D01*
X39142620Y-19209914D02*
X39104524Y-19286104D01*
X39104524Y-19286104D02*
X39066429Y-19324200D01*
X39066429Y-19324200D02*
X38990239Y-19362295D01*
X38990239Y-19362295D02*
X38685477Y-19362295D01*
X38685477Y-19362295D02*
X38685477Y-18562295D01*
X38685477Y-18562295D02*
X38952143Y-18562295D01*
X38952143Y-18562295D02*
X39028334Y-18600390D01*
X39028334Y-18600390D02*
X39066429Y-18638485D01*
X39066429Y-18638485D02*
X39104524Y-18714676D01*
X39104524Y-18714676D02*
X39104524Y-18790866D01*
X39104524Y-18790866D02*
X39066429Y-18867057D01*
X39066429Y-18867057D02*
X39028334Y-18905152D01*
X39028334Y-18905152D02*
X38952143Y-18943247D01*
X38952143Y-18943247D02*
X38685477Y-18943247D01*
X39637858Y-18562295D02*
X39790239Y-18562295D01*
X39790239Y-18562295D02*
X39866429Y-18600390D01*
X39866429Y-18600390D02*
X39942620Y-18676580D01*
X39942620Y-18676580D02*
X39980715Y-18828961D01*
X39980715Y-18828961D02*
X39980715Y-19095628D01*
X39980715Y-19095628D02*
X39942620Y-19248009D01*
X39942620Y-19248009D02*
X39866429Y-19324200D01*
X39866429Y-19324200D02*
X39790239Y-19362295D01*
X39790239Y-19362295D02*
X39637858Y-19362295D01*
X39637858Y-19362295D02*
X39561667Y-19324200D01*
X39561667Y-19324200D02*
X39485477Y-19248009D01*
X39485477Y-19248009D02*
X39447381Y-19095628D01*
X39447381Y-19095628D02*
X39447381Y-18828961D01*
X39447381Y-18828961D02*
X39485477Y-18676580D01*
X39485477Y-18676580D02*
X39561667Y-18600390D01*
X39561667Y-18600390D02*
X39637858Y-18562295D01*
X40475953Y-18562295D02*
X40628334Y-18562295D01*
X40628334Y-18562295D02*
X40704524Y-18600390D01*
X40704524Y-18600390D02*
X40780715Y-18676580D01*
X40780715Y-18676580D02*
X40818810Y-18828961D01*
X40818810Y-18828961D02*
X40818810Y-19095628D01*
X40818810Y-19095628D02*
X40780715Y-19248009D01*
X40780715Y-19248009D02*
X40704524Y-19324200D01*
X40704524Y-19324200D02*
X40628334Y-19362295D01*
X40628334Y-19362295D02*
X40475953Y-19362295D01*
X40475953Y-19362295D02*
X40399762Y-19324200D01*
X40399762Y-19324200D02*
X40323572Y-19248009D01*
X40323572Y-19248009D02*
X40285476Y-19095628D01*
X40285476Y-19095628D02*
X40285476Y-18828961D01*
X40285476Y-18828961D02*
X40323572Y-18676580D01*
X40323572Y-18676580D02*
X40399762Y-18600390D01*
X40399762Y-18600390D02*
X40475953Y-18562295D01*
X41047381Y-18562295D02*
X41504524Y-18562295D01*
X41275952Y-19362295D02*
X41275952Y-18562295D01*
%TO.C,R_LCD_CLK*%
D11*
X27870000Y-2153641D02*
X27870000Y-1846359D01*
X28630000Y-2153641D02*
X28630000Y-1846359D01*
%TO.C,R_SERVO_R_PD*%
X53870000Y-24153641D02*
X53870000Y-23846359D01*
X54630000Y-24153641D02*
X54630000Y-23846359D01*
%TO.C,C_SERVO1*%
X58988748Y-18765000D02*
X59511252Y-18765000D01*
X58988748Y-20235000D02*
X59511252Y-20235000D01*
%TO.C,C_BAT_NTC*%
X19640000Y-48607836D02*
X19640000Y-48392164D01*
X20360000Y-48607836D02*
X20360000Y-48392164D01*
%TO.C,C_U1*%
X3092164Y-40040000D02*
X3307836Y-40040000D01*
X3092164Y-40760000D02*
X3307836Y-40760000D01*
%TO.C,C_NTC*%
X51640000Y-46857836D02*
X51640000Y-46642164D01*
X52360000Y-46857836D02*
X52360000Y-46642164D01*
%TO.C,R_GATE*%
X51346359Y-38620000D02*
X51653641Y-38620000D01*
X51346359Y-39380000D02*
X51653641Y-39380000D01*
%TO.C,R_FB2*%
X45996359Y-14870000D02*
X46303641Y-14870000D01*
X45996359Y-15630000D02*
X46303641Y-15630000D01*
%TO.C,C_CAM_RST*%
X15892164Y-7390000D02*
X16107836Y-7390000D01*
X15892164Y-8110000D02*
X16107836Y-8110000D01*
%TO.C,J_LCD*%
X29890000Y-3060000D02*
X29890000Y-5560000D01*
X29890000Y-5560000D02*
X30940000Y-5560000D01*
X38940000Y-1090000D02*
X31060000Y-1090000D01*
X39060000Y-5560000D02*
X39060000Y-6550000D01*
X40110000Y-3060000D02*
X40110000Y-5560000D01*
X40110000Y-5560000D02*
X39060000Y-5560000D01*
%TO.C,U_LDO28*%
X7090000Y-12440000D02*
X8910000Y-12440000D01*
X7090000Y-12490000D02*
X7090000Y-12440000D01*
X7090000Y-15560000D02*
X7090000Y-15510000D01*
X8910000Y-12440000D02*
X8910000Y-12490000D01*
X8910000Y-13610000D02*
X8910000Y-14390000D01*
X8910000Y-15510000D02*
X8910000Y-15560000D01*
X8910000Y-15560000D02*
X7090000Y-15560000D01*
X6550000Y-12490000D02*
X6310000Y-12160000D01*
X6790000Y-12160000D01*
X6550000Y-12490000D01*
G36*
X6550000Y-12490000D02*
G01*
X6310000Y-12160000D01*
X6790000Y-12160000D01*
X6550000Y-12490000D01*
G37*
%TO.C,J_ARM_R*%
D12*
X60235000Y-23130000D02*
X62055000Y-23130000D01*
X60235000Y-23780000D02*
X62055000Y-23780000D01*
X60235000Y-25670000D02*
X62055000Y-25670000D01*
X60235000Y-26320000D02*
X62055000Y-26320000D01*
X60235000Y-28210000D02*
X62055000Y-28210000D01*
X60235000Y-28860000D02*
X62055000Y-28860000D01*
X62055000Y-22130000D02*
X62055000Y-29860000D01*
X62055000Y-22130000D02*
X64555000Y-22130000D01*
X62055000Y-29860000D02*
X64555000Y-29860000D01*
X64555000Y-23790000D02*
X70555000Y-23790000D01*
X64555000Y-26330000D02*
X70555000Y-26330000D01*
X64555000Y-28870000D02*
X70555000Y-28870000D01*
X64555000Y-29860000D02*
X64555000Y-22130000D01*
X70555000Y-23130000D02*
X64555000Y-23130000D01*
X70555000Y-23790000D02*
X70555000Y-23130000D01*
X70555000Y-25670000D02*
X64555000Y-25670000D01*
X70555000Y-26330000D02*
X70555000Y-25670000D01*
X70555000Y-28210000D02*
X64555000Y-28210000D01*
X70555000Y-28870000D02*
X70555000Y-28210000D01*
D13*
X70585000Y-29810000D02*
G75*
G02*
X70525000Y-29810000I-30000J0D01*
G01*
X70525000Y-29810000D02*
G75*
G02*
X70585000Y-29810000I30000J0D01*
G01*
%TO.C,RT_BAT*%
D11*
X17977500Y-49737258D02*
X17977500Y-49262742D01*
X19022500Y-49737258D02*
X19022500Y-49262742D01*
%TO.C,C_TOUCH*%
X24742164Y-27890000D02*
X24957836Y-27890000D01*
X24742164Y-28610000D02*
X24957836Y-28610000D01*
%TO.C,R_BATN_PD*%
X18596359Y-45120000D02*
X18903641Y-45120000D01*
X18596359Y-45880000D02*
X18903641Y-45880000D01*
%TO.C,C_AMP_BULK*%
X38040000Y-48540580D02*
X38040000Y-48259420D01*
X39060000Y-48540580D02*
X39060000Y-48259420D01*
%TO.C,R_CC2*%
X23346359Y-48620000D02*
X23653641Y-48620000D01*
X23346359Y-49380000D02*
X23653641Y-49380000D01*
%TO.C,F_USB*%
X28397936Y-39090000D02*
X29602064Y-39090000D01*
X28397936Y-40910000D02*
X29602064Y-40910000D01*
%TO.C,SW_RST*%
D10*
X24970000Y-17460000D02*
X24970000Y-17890000D01*
X24970000Y-20540000D02*
X24970000Y-20110000D01*
X29030000Y-17460000D02*
X24970000Y-17460000D01*
X29030000Y-17460000D02*
X29030000Y-17890000D01*
X29030000Y-20110000D02*
X29030000Y-20540000D01*
X29030000Y-20540000D02*
X24970000Y-20540000D01*
D12*
X27900000Y-19000000D02*
G75*
G02*
X26100000Y-19000000I-900000J0D01*
G01*
X26100000Y-19000000D02*
G75*
G02*
X27900000Y-19000000I900000J0D01*
G01*
D13*
X29530000Y-17530000D02*
G75*
G02*
X29470000Y-17530000I-30000J0D01*
G01*
X29470000Y-17530000D02*
G75*
G02*
X29530000Y-17530000I30000J0D01*
G01*
%TO.C,L_BUCK*%
D12*
X51100000Y-17150000D02*
X52900000Y-17150000D01*
X51100000Y-21150000D02*
X52900000Y-21150000D01*
D13*
X50030000Y-21150000D02*
G75*
G02*
X49970000Y-21150000I-30000J0D01*
G01*
X49970000Y-21150000D02*
G75*
G02*
X50030000Y-21150000I30000J0D01*
G01*
%TO.C,U_CHG*%
D12*
X41450000Y-31950000D02*
X46550000Y-31950000D01*
X41450000Y-33200000D02*
X41450000Y-31950000D01*
X41450000Y-34800000D02*
X41450000Y-36050000D01*
X46550000Y-31950000D02*
X46550000Y-36050000D01*
X46550000Y-36050000D02*
X41450000Y-36050000D01*
X41492227Y-33196354D02*
G75*
G02*
X41500000Y-34800000I-372227J-803646D01*
G01*
X41140000Y-36500000D02*
G75*
G02*
X40800000Y-36500000I-170000J0D01*
G01*
X40800000Y-36500000D02*
G75*
G02*
X41140000Y-36500000I170000J0D01*
G01*
D13*
X41580000Y-36950000D02*
G75*
G02*
X41520000Y-36950000I-30000J0D01*
G01*
X41520000Y-36950000D02*
G75*
G02*
X41580000Y-36950000I30000J0D01*
G01*
%TO.C,R_FB1*%
D11*
X44170000Y-16903641D02*
X44170000Y-16596359D01*
X44930000Y-16903641D02*
X44930000Y-16596359D01*
%TO.C,J_ARM_L*%
D12*
X60235000Y-11630000D02*
X62055000Y-11630000D01*
X60235000Y-12280000D02*
X62055000Y-12280000D01*
X60235000Y-14170000D02*
X62055000Y-14170000D01*
X60235000Y-14820000D02*
X62055000Y-14820000D01*
X60235000Y-16710000D02*
X62055000Y-16710000D01*
X60235000Y-17360000D02*
X62055000Y-17360000D01*
X62055000Y-10630000D02*
X62055000Y-18360000D01*
X62055000Y-10630000D02*
X64555000Y-10630000D01*
X62055000Y-18360000D02*
X64555000Y-18360000D01*
X64555000Y-12290000D02*
X70555000Y-12290000D01*
X64555000Y-14830000D02*
X70555000Y-14830000D01*
X64555000Y-17370000D02*
X70555000Y-17370000D01*
X64555000Y-18360000D02*
X64555000Y-10630000D01*
X70555000Y-11630000D02*
X64555000Y-11630000D01*
X70555000Y-12290000D02*
X70555000Y-11630000D01*
X70555000Y-14170000D02*
X64555000Y-14170000D01*
X70555000Y-14830000D02*
X70555000Y-14170000D01*
X70555000Y-16710000D02*
X64555000Y-16710000D01*
X70555000Y-17370000D02*
X70555000Y-16710000D01*
D13*
X70585000Y-18310000D02*
G75*
G02*
X70525000Y-18310000I-30000J0D01*
G01*
X70525000Y-18310000D02*
G75*
G02*
X70585000Y-18310000I30000J0D01*
G01*
%TO.C,R_TOUCH_REXT*%
D11*
X28620000Y-31153641D02*
X28620000Y-30846359D01*
X29380000Y-31153641D02*
X29380000Y-30846359D01*
%TO.C,C_BUCK_OUT2*%
X52961252Y-15215000D02*
X52438748Y-15215000D01*
X52961252Y-16685000D02*
X52438748Y-16685000D01*
%TO.C,D_USB_DN*%
X35640000Y-53060000D02*
X35640000Y-51750000D01*
X35640000Y-53060000D02*
X36860000Y-53060000D01*
X36860000Y-53060000D02*
X36860000Y-51750000D01*
%TO.C,D_ESD_MUTE*%
X55890000Y-5060000D02*
X55890000Y-3750000D01*
X55890000Y-5060000D02*
X57110000Y-5060000D01*
X57110000Y-5060000D02*
X57110000Y-3750000D01*
%TO.C,C_SERVO3*%
X53015000Y-29261252D02*
X53015000Y-28738748D01*
X54485000Y-29261252D02*
X54485000Y-28738748D01*
%TO.C,U_TOUCH*%
X24390000Y-29390000D02*
X24840000Y-29390000D01*
X24390000Y-29840000D02*
X24390000Y-29390000D01*
X24390000Y-32610000D02*
X24390000Y-32160000D01*
X24840000Y-32610000D02*
X24390000Y-32610000D01*
X27160000Y-29390000D02*
X27610000Y-29390000D01*
X27610000Y-29390000D02*
X27610000Y-29840000D01*
X27610000Y-32160000D02*
X27610000Y-32610000D01*
X27610000Y-32610000D02*
X27160000Y-32610000D01*
X23880000Y-30200000D02*
X23550000Y-30440000D01*
X23550000Y-29960000D01*
X23880000Y-30200000D01*
G36*
X23880000Y-30200000D02*
G01*
X23550000Y-30440000D01*
X23550000Y-29960000D01*
X23880000Y-30200000D01*
G37*
%TO.C,C_EFUSE_IN*%
X32490000Y-40007836D02*
X32490000Y-39792164D01*
X33210000Y-40007836D02*
X33210000Y-39792164D01*
%TO.C,J_USB*%
X25300000Y-48455000D02*
X25300000Y-50455000D01*
X25300000Y-52355000D02*
X25300000Y-54255000D01*
X25300000Y-54255000D02*
X34700000Y-54255000D01*
X34700000Y-48455000D02*
X34700000Y-50455000D01*
X34700000Y-52355000D02*
X34700000Y-54255000D01*
%TO.C,R_LCD_BL_OFF*%
X40120000Y-14153641D02*
X40120000Y-13846359D01*
X40880000Y-14153641D02*
X40880000Y-13846359D01*
%TO.C,R_EFUSE_ILM*%
X36870000Y-39903641D02*
X36870000Y-39596359D01*
X37630000Y-39903641D02*
X37630000Y-39596359D01*
%TO.C,U1*%
X-6150000Y-20800000D02*
X50000Y-20800000D01*
X-6150000Y-39200000D02*
X-6150000Y-20800000D01*
X-6150000Y-39200000D02*
X50000Y-39200000D01*
X18700000Y-39200000D02*
X19700000Y-39200000D01*
X19700000Y-20800000D02*
X18700000Y-20800000D01*
X19700000Y-20800000D02*
X19700000Y-22300000D01*
X19700000Y-39200000D02*
X19700000Y-37700000D01*
X725000Y-39200000D02*
X725000Y-39700000D01*
X225000Y-39200000D01*
X725000Y-39200000D01*
G36*
X725000Y-39700000D02*
G01*
X225000Y-39200000D01*
X725000Y-39200000D01*
X725000Y-39700000D01*
G37*
%TO.C,J_HEAT*%
D12*
X53000000Y-49550000D02*
X53000000Y-50850000D01*
X54300000Y-46500000D02*
X54300000Y-49550000D01*
X54300000Y-49550000D02*
X53000000Y-49550000D01*
X54750000Y-54260000D02*
X61250000Y-54260000D01*
X55770000Y-46500000D02*
X54300000Y-46500000D01*
X57750000Y-46500000D02*
X58250000Y-46500000D01*
X57890000Y-46500000D02*
X57730000Y-46500000D01*
X58250000Y-46500000D02*
X58270000Y-46500000D01*
X60230000Y-46500000D02*
X61800000Y-46500000D01*
X61800000Y-46500000D02*
X61800000Y-49450000D01*
X61800000Y-49450000D02*
X61800000Y-49550000D01*
X61800000Y-49550000D02*
X63000000Y-49550000D01*
X63000000Y-49550000D02*
X63000000Y-50850000D01*
D13*
X53030000Y-43800000D02*
G75*
G02*
X52970000Y-43800000I-30000J0D01*
G01*
X52970000Y-43800000D02*
G75*
G02*
X53030000Y-43800000I30000J0D01*
G01*
D14*
X55040000Y-45400000D02*
G75*
G02*
X54640000Y-45400000I-200000J0D01*
G01*
X54640000Y-45400000D02*
G75*
G02*
X55040000Y-45400000I200000J0D01*
G01*
%TO.C,R_EN*%
D11*
X27596359Y-20870000D02*
X27903641Y-20870000D01*
X27596359Y-21630000D02*
X27903641Y-21630000D01*
%TO.C,C_CHG_VIN*%
X42138748Y-37965000D02*
X42661252Y-37965000D01*
X42138748Y-39435000D02*
X42661252Y-39435000D01*
%TO.C,C_IMU*%
X32440000Y-36457836D02*
X32440000Y-36242164D01*
X33160000Y-36457836D02*
X33160000Y-36242164D01*
%TO.C,U_IMU*%
D15*
X29860000Y-36230000D02*
X29860000Y-36460000D01*
X29860000Y-38770000D02*
X29860000Y-38520000D01*
X30490000Y-36230000D02*
X29860000Y-36230000D01*
X30490000Y-38770000D02*
X29860000Y-38770000D01*
X32140000Y-36230000D02*
X31510000Y-36230000D01*
X32140000Y-36480000D02*
X32140000Y-36230000D01*
X32140000Y-38520000D02*
X32140000Y-38770000D01*
X32140000Y-38770000D02*
X31510000Y-38770000D01*
D10*
X29610000Y-36750000D02*
G75*
G02*
X29470000Y-36750000I-70000J0D01*
G01*
X29470000Y-36750000D02*
G75*
G02*
X29610000Y-36750000I70000J0D01*
G01*
D13*
X30030000Y-36500000D02*
G75*
G02*
X29970000Y-36500000I-30000J0D01*
G01*
X29970000Y-36500000D02*
G75*
G02*
X30030000Y-36500000I30000J0D01*
G01*
%TO.C,R_SIOD*%
D11*
X5620000Y-10653641D02*
X5620000Y-10346359D01*
X6380000Y-10653641D02*
X6380000Y-10346359D01*
%TO.C,C_CAM_AVDD*%
X11390000Y-7892164D02*
X11390000Y-8107836D01*
X12110000Y-7892164D02*
X12110000Y-8107836D01*
%TO.C,J_SPK*%
X41390000Y-49440000D02*
X42440000Y-49440000D01*
X41390000Y-51940000D02*
X41390000Y-49440000D01*
X42440000Y-49440000D02*
X42440000Y-48450000D01*
X42560000Y-53910000D02*
X44440000Y-53910000D01*
X45610000Y-49440000D02*
X44560000Y-49440000D01*
X45610000Y-51940000D02*
X45610000Y-49440000D01*
%TO.C,C_VUSB*%
X36059420Y-41740000D02*
X36340580Y-41740000D01*
X36059420Y-42760000D02*
X36340580Y-42760000D01*
%TO.C,C_LDO15_IN*%
X14542164Y-11290000D02*
X14757836Y-11290000D01*
X14542164Y-12010000D02*
X14757836Y-12010000D01*
%TO.C,R_LCD_BL_GATE*%
X37846359Y-15620000D02*
X38153641Y-15620000D01*
X37846359Y-16380000D02*
X38153641Y-16380000D01*
%TO.C,C_U1_BULK*%
X3259420Y-41290000D02*
X3540580Y-41290000D01*
X3259420Y-42310000D02*
X3540580Y-42310000D01*
%TO.C,C_TOUCH_VREG*%
X22607836Y-33140000D02*
X22392164Y-33140000D01*
X22607836Y-33860000D02*
X22392164Y-33860000D01*
%TO.C,J_MIC*%
D12*
X44790000Y-5055000D02*
X44790000Y-3405000D01*
X44790000Y-5055000D02*
X45920000Y-5055000D01*
X51680000Y-745000D02*
X46320000Y-745000D01*
X52320000Y-5055000D02*
X53210000Y-5055000D01*
X53210000Y-5055000D02*
X53210000Y-3405000D01*
X52560000Y-5665000D02*
G75*
G02*
X52300000Y-5665000I-130000J0D01*
G01*
X52300000Y-5665000D02*
G75*
G02*
X52560000Y-5665000I130000J0D01*
G01*
D13*
X53180000Y-5795000D02*
G75*
G02*
X53120000Y-5795000I-30000J0D01*
G01*
X53120000Y-5795000D02*
G75*
G02*
X53180000Y-5795000I30000J0D01*
G01*
%TO.C,J_BAT*%
D12*
X9000000Y-46480000D02*
X9000000Y-50270000D01*
X9000000Y-46480000D02*
X9950000Y-46480000D01*
X9950000Y-46480000D02*
X9950000Y-48280000D01*
X9950000Y-48280000D02*
X11270000Y-48280000D01*
X12730000Y-48280000D02*
X13270000Y-48280000D01*
X14730000Y-48280000D02*
X16050000Y-48280000D01*
X15630000Y-54280000D02*
X10370000Y-54280000D01*
X16050000Y-46500000D02*
X17060000Y-46500000D01*
X16050000Y-48280000D02*
X16050000Y-46500000D01*
X17060000Y-46500000D02*
X17060000Y-50270000D01*
D13*
X17030000Y-45480000D02*
G75*
G02*
X16970000Y-45480000I-30000J0D01*
G01*
X16970000Y-45480000D02*
G75*
G02*
X17030000Y-45480000I30000J0D01*
G01*
%TO.C,J_KEY*%
D12*
X57320000Y-5020000D02*
X57320000Y-3170000D01*
X58520000Y-5050000D02*
X57320000Y-5050000D01*
X59520000Y-5050000D02*
X59480000Y-5050000D01*
X60520000Y-5050000D02*
X60480000Y-5050000D01*
X61270000Y-750000D02*
X58730000Y-750000D01*
X61480000Y-5050000D02*
X62680000Y-5050000D01*
X62680000Y-5050000D02*
X62680000Y-3180000D01*
D13*
X62710000Y-5800000D02*
G75*
G02*
X62650000Y-5800000I-30000J0D01*
G01*
X62650000Y-5800000D02*
G75*
G02*
X62710000Y-5800000I30000J0D01*
G01*
D16*
G36*
X61777873Y-5658022D02*
G01*
X61523873Y-5277022D01*
X62031873Y-5277022D01*
X61777873Y-5658022D01*
G37*
%TO.C,U_EFUSE*%
D11*
X34304432Y-38865000D02*
X36110000Y-38865000D01*
X36110000Y-41135000D02*
X33890000Y-41135000D01*
X34010000Y-38860000D02*
X33870000Y-38670000D01*
X34150000Y-38670000D01*
X34010000Y-38860000D01*
G36*
X34010000Y-38860000D02*
G01*
X33870000Y-38670000D01*
X34150000Y-38670000D01*
X34010000Y-38860000D01*
G37*
%TO.C,C_BUCK_OUT1*%
X54565000Y-20011252D02*
X54565000Y-19488748D01*
X56035000Y-20011252D02*
X56035000Y-19488748D01*
%TO.C,C_ADC*%
X32307836Y-30640000D02*
X32092164Y-30640000D01*
X32307836Y-31360000D02*
X32092164Y-31360000D01*
%TO.C,R_BATP_PU*%
X21346359Y-45120000D02*
X21653641Y-45120000D01*
X21346359Y-45880000D02*
X21653641Y-45880000D01*
%TO.C,C_CAM_DVDD*%
X10140000Y-7892164D02*
X10140000Y-8107836D01*
X10860000Y-7892164D02*
X10860000Y-8107836D01*
%TO.C,J_CAM*%
D12*
X4240000Y-435000D02*
X4240000Y-565000D01*
X4240000Y-4595000D02*
X4240000Y-5975000D01*
X4240000Y-5975000D02*
X6370000Y-5975000D01*
X4250000Y-535000D02*
X4240000Y-2525000D01*
D10*
X12500000Y-735000D02*
X11300000Y-135000D01*
X12500000Y-735000D02*
X12500000Y-1635000D01*
X13700000Y-135000D02*
X12500000Y-735000D01*
D12*
X18630000Y-5975000D02*
X20760000Y-5975000D01*
X20760000Y-435000D02*
X4240000Y-435000D01*
X20760000Y-2525000D02*
X20760000Y-435000D01*
X20760000Y-5975000D02*
X20760000Y-4595000D01*
D14*
X19250000Y-6585000D02*
G75*
G02*
X18850000Y-6585000I-200000J0D01*
G01*
X18850000Y-6585000D02*
G75*
G02*
X19250000Y-6585000I200000J0D01*
G01*
D13*
X20730000Y-6595000D02*
G75*
G02*
X20670000Y-6595000I-30000J0D01*
G01*
X20670000Y-6595000D02*
G75*
G02*
X20730000Y-6595000I30000J0D01*
G01*
%TO.C,C_LDO28_OUT*%
D11*
X10390000Y-13157836D02*
X10390000Y-12942164D01*
X11110000Y-13157836D02*
X11110000Y-12942164D01*
%TO.C,R_GATE_PD*%
X51370000Y-44653641D02*
X51370000Y-44346359D01*
X52130000Y-44653641D02*
X52130000Y-44346359D01*
%TO.C,C_VSYS2*%
X43965000Y-28188748D02*
X43965000Y-28711252D01*
X45435000Y-28188748D02*
X45435000Y-28711252D01*
%TO.C,C_AMP*%
X40292164Y-46890000D02*
X40507836Y-46890000D01*
X40292164Y-47610000D02*
X40507836Y-47610000D01*
%TO.C,C_CHG_BAT*%
X46165000Y-28711252D02*
X46165000Y-28188748D01*
X47635000Y-28711252D02*
X47635000Y-28188748D01*
%TO.C,C_VBAT_SENSE*%
X17890000Y-52607836D02*
X17890000Y-52392164D01*
X18610000Y-52607836D02*
X18610000Y-52392164D01*
%TO.C,D_ESD_PWR*%
X62890000Y-4310000D02*
X62890000Y-3000000D01*
X62890000Y-4310000D02*
X64110000Y-4310000D01*
X64110000Y-4310000D02*
X64110000Y-3000000D01*
%TO.C,R_CC_SUM1*%
X35620000Y-48153641D02*
X35620000Y-47846359D01*
X36380000Y-48153641D02*
X36380000Y-47846359D01*
%TO.C,Q_HEAT*%
X51490000Y-39940000D02*
X53010000Y-39940000D01*
X51490000Y-39990000D02*
X51490000Y-39940000D01*
X51490000Y-41890000D02*
X51490000Y-41110000D01*
X51490000Y-43060000D02*
X51490000Y-43010000D01*
X53010000Y-39940000D02*
X53010000Y-40940000D01*
X53010000Y-42060000D02*
X53010000Y-43060000D01*
X53010000Y-43060000D02*
X51490000Y-43060000D01*
X50950000Y-41120000D02*
X51190000Y-41450000D01*
X50710000Y-41450000D01*
X50950000Y-41120000D01*
G36*
X51190000Y-41450000D02*
G01*
X50710000Y-41450000D01*
X50950000Y-41120000D01*
X51190000Y-41450000D01*
G37*
%TO.C,Q_LCD_BL*%
X36740000Y-11940000D02*
X38260000Y-11940000D01*
X36740000Y-11990000D02*
X36740000Y-11940000D01*
X36740000Y-13890000D02*
X36740000Y-13110000D01*
X36740000Y-15060000D02*
X36740000Y-15010000D01*
X38260000Y-11940000D02*
X38260000Y-12940000D01*
X38260000Y-14060000D02*
X38260000Y-15060000D01*
X38260000Y-15060000D02*
X36740000Y-15060000D01*
X36200000Y-13120000D02*
X36440000Y-13450000D01*
X35960000Y-13450000D01*
X36200000Y-13120000D01*
G36*
X36440000Y-13450000D02*
G01*
X35960000Y-13450000D01*
X36200000Y-13120000D01*
X36440000Y-13450000D01*
G37*
%TO.C,R_SDA*%
X24046359Y-26120000D02*
X24353641Y-26120000D01*
X24046359Y-26880000D02*
X24353641Y-26880000D01*
%TO.C,R_CAM_PWDN*%
X13346359Y-7370000D02*
X13653641Y-7370000D01*
X13346359Y-8130000D02*
X13653641Y-8130000D01*
%TO.C,R_AMP_SD*%
X36620000Y-45403641D02*
X36620000Y-45096359D01*
X37380000Y-45403641D02*
X37380000Y-45096359D01*
%TO.C,R_BATP_BYP*%
X20096359Y-40120000D02*
X20403641Y-40120000D01*
X20096359Y-40880000D02*
X20403641Y-40880000D01*
%TO.C,R_SIOC*%
X7620000Y-8653641D02*
X7620000Y-8346359D01*
X8380000Y-8653641D02*
X8380000Y-8346359D01*
%TO.C,C_EN*%
X25892164Y-16390000D02*
X26107836Y-16390000D01*
X25892164Y-17110000D02*
X26107836Y-17110000D01*
%TO.C,J_TOUCH*%
X22390000Y-3060000D02*
X22390000Y-5560000D01*
X22390000Y-5560000D02*
X23440000Y-5560000D01*
X25440000Y-1090000D02*
X23560000Y-1090000D01*
X25560000Y-5560000D02*
X25560000Y-6550000D01*
X26610000Y-3060000D02*
X26610000Y-5560000D01*
X26610000Y-5560000D02*
X25560000Y-5560000D01*
%TO.C,R_BOOT*%
X33596359Y-20870000D02*
X33903641Y-20870000D01*
X33596359Y-21630000D02*
X33903641Y-21630000D01*
%TO.C,U_LDO15*%
X15090000Y-12440000D02*
X16910000Y-12440000D01*
X15090000Y-12490000D02*
X15090000Y-12440000D01*
X15090000Y-15560000D02*
X15090000Y-15510000D01*
X16910000Y-12440000D02*
X16910000Y-12490000D01*
X16910000Y-13610000D02*
X16910000Y-14390000D01*
X16910000Y-15510000D02*
X16910000Y-15560000D01*
X16910000Y-15560000D02*
X15090000Y-15560000D01*
X14550000Y-12490000D02*
X14310000Y-12160000D01*
X14790000Y-12160000D01*
X14550000Y-12490000D01*
G36*
X14550000Y-12490000D02*
G01*
X14310000Y-12160000D01*
X14790000Y-12160000D01*
X14550000Y-12490000D01*
G37*
%TO.C,U_AMP*%
X38390000Y-42890000D02*
X38865000Y-42890000D01*
X38390000Y-43365000D02*
X38390000Y-42890000D01*
X38390000Y-46110000D02*
X38390000Y-45635000D01*
X38865000Y-46110000D02*
X38390000Y-46110000D01*
X41135000Y-42890000D02*
X41610000Y-42890000D01*
X41610000Y-42890000D02*
X41610000Y-43365000D01*
X41610000Y-45635000D02*
X41610000Y-46110000D01*
X41610000Y-46110000D02*
X41135000Y-46110000D01*
X37880000Y-43750000D02*
X37550000Y-43990000D01*
X37550000Y-43510000D01*
X37880000Y-43750000D01*
G36*
X37880000Y-43750000D02*
G01*
X37550000Y-43990000D01*
X37550000Y-43510000D01*
X37880000Y-43750000D01*
G37*
%TO.C,C_VSYS1*%
X41538748Y-28565000D02*
X42061252Y-28565000D01*
X41538748Y-30035000D02*
X42061252Y-30035000D01*
%TO.C,J_NTC*%
X47590000Y-49440000D02*
X48640000Y-49440000D01*
X47590000Y-51940000D02*
X47590000Y-49440000D01*
X48640000Y-49440000D02*
X48640000Y-48450000D01*
X48760000Y-53910000D02*
X50640000Y-53910000D01*
X51810000Y-49440000D02*
X50760000Y-49440000D01*
X51810000Y-51940000D02*
X51810000Y-49440000D01*
%TO.C,R_LCD_MOSI*%
X41620000Y-3903641D02*
X41620000Y-3596359D01*
X42380000Y-3903641D02*
X42380000Y-3596359D01*
%TO.C,R_KEY_MUTE_PU*%
X63120000Y-5653641D02*
X63120000Y-5346359D01*
X63880000Y-5653641D02*
X63880000Y-5346359D01*
%TO.C,R_BAT_NTC*%
X19620000Y-50903641D02*
X19620000Y-50596359D01*
X20380000Y-50903641D02*
X20380000Y-50596359D01*
%TO.C,C_BUCK_IN*%
X43840000Y-19490580D02*
X43840000Y-19209420D01*
X44860000Y-19490580D02*
X44860000Y-19209420D01*
%TO.C,R_CC_SUM2*%
X23370000Y-53653641D02*
X23370000Y-53346359D01*
X24130000Y-53653641D02*
X24130000Y-53346359D01*
%TO.C,D_ESD_TOUCH*%
X27640000Y-5560000D02*
X27640000Y-4250000D01*
X27640000Y-5560000D02*
X28860000Y-5560000D01*
X28860000Y-5560000D02*
X28860000Y-4250000D01*
%TO.C,R_BATN_G*%
X14120000Y-41903641D02*
X14120000Y-41596359D01*
X14880000Y-41903641D02*
X14880000Y-41596359D01*
%TO.C,R_CAM_RST*%
X8870000Y-11153641D02*
X8870000Y-10846359D01*
X9630000Y-11153641D02*
X9630000Y-10846359D01*
%TO.C,R_CC1*%
X23620000Y-51153641D02*
X23620000Y-50846359D01*
X24380000Y-51153641D02*
X24380000Y-50846359D01*
%TO.C,C_FF*%
X43992164Y-14790000D02*
X44207836Y-14790000D01*
X43992164Y-15510000D02*
X44207836Y-15510000D01*
%TO.C,C_LDO28_IN*%
X4940000Y-13557836D02*
X4940000Y-13342164D01*
X5660000Y-13557836D02*
X5660000Y-13342164D01*
%TO.C,R_NTC*%
X50370000Y-46903641D02*
X50370000Y-46596359D01*
X51130000Y-46903641D02*
X51130000Y-46596359D01*
%TO.C,C_EFUSE_DVDT*%
X33642164Y-37740000D02*
X33857836Y-37740000D01*
X33642164Y-38460000D02*
X33857836Y-38460000D01*
%TO.C,C_SERVO2*%
X58988748Y-30265000D02*
X59511252Y-30265000D01*
X58988748Y-31735000D02*
X59511252Y-31735000D01*
%TO.C,C_CC_SENSE*%
X23392164Y-47390000D02*
X23607836Y-47390000D01*
X23392164Y-48110000D02*
X23607836Y-48110000D01*
%TO.C,R_SCL*%
X21846359Y-26120000D02*
X22153641Y-26120000D01*
X21846359Y-26880000D02*
X22153641Y-26880000D01*
%TO.C,R_VBAT_BOT*%
X7346359Y-48370000D02*
X7653641Y-48370000D01*
X7346359Y-49130000D02*
X7653641Y-49130000D01*
%TO.C,R_VBAT_TOP*%
X7620000Y-50653641D02*
X7620000Y-50346359D01*
X8380000Y-50653641D02*
X8380000Y-50346359D01*
%TO.C,U_ADC*%
X34890000Y-29390000D02*
X38110000Y-29390000D01*
X34890000Y-29590000D02*
X34890000Y-29390000D01*
X34890000Y-32610000D02*
X34890000Y-32410000D01*
X38110000Y-29390000D02*
X38110000Y-29590000D01*
X38110000Y-32410000D02*
X38110000Y-32610000D01*
X38110000Y-32610000D02*
X34890000Y-32610000D01*
X38660000Y-32410000D02*
X38900000Y-32740000D01*
X38420000Y-32740000D01*
X38660000Y-32410000D01*
G36*
X38900000Y-32740000D02*
G01*
X38420000Y-32740000D01*
X38660000Y-32410000D01*
X38900000Y-32740000D01*
G37*
%TO.C,U_BUCK*%
X45440000Y-17090000D02*
X45490000Y-17090000D01*
X45440000Y-18910000D02*
X45440000Y-17090000D01*
X45490000Y-18910000D02*
X45440000Y-18910000D01*
X46610000Y-17090000D02*
X47390000Y-17090000D01*
X48510000Y-17090000D02*
X48560000Y-17090000D01*
X48560000Y-17090000D02*
X48560000Y-18910000D01*
X48560000Y-18910000D02*
X48510000Y-18910000D01*
X45490000Y-19450000D02*
X45160000Y-19690000D01*
X45160000Y-19210000D01*
X45490000Y-19450000D01*
G36*
X45490000Y-19450000D02*
G01*
X45160000Y-19690000D01*
X45160000Y-19210000D01*
X45490000Y-19450000D01*
G37*
%TO.C,Q_BATP*%
X20240000Y-41440000D02*
X21760000Y-41440000D01*
X20240000Y-41490000D02*
X20240000Y-41440000D01*
X20240000Y-43390000D02*
X20240000Y-42610000D01*
X20240000Y-44560000D02*
X20240000Y-44510000D01*
X21760000Y-41440000D02*
X21760000Y-42440000D01*
X21760000Y-43560000D02*
X21760000Y-44560000D01*
X21760000Y-44560000D02*
X20240000Y-44560000D01*
X19700000Y-42620000D02*
X19940000Y-42950000D01*
X19460000Y-42950000D01*
X19700000Y-42620000D01*
G36*
X19940000Y-42950000D02*
G01*
X19460000Y-42950000D01*
X19700000Y-42620000D01*
X19940000Y-42950000D01*
G37*
%TO.C,L_CHG*%
D12*
X35500000Y-22400000D02*
X40500000Y-22400000D01*
X35500000Y-27600000D02*
X40500000Y-27600000D01*
D13*
X35530000Y-27500000D02*
G75*
G02*
X35470000Y-27500000I-30000J0D01*
G01*
X35470000Y-27500000D02*
G75*
G02*
X35530000Y-27500000I30000J0D01*
G01*
%TO.C,C_LCD*%
D11*
X42142164Y-5390000D02*
X42357836Y-5390000D01*
X42142164Y-6110000D02*
X42357836Y-6110000D01*
%TO.C,Q_BATN*%
X15440000Y-41740000D02*
X16440000Y-41740000D01*
X15440000Y-43260000D02*
X15440000Y-41740000D01*
X15490000Y-43260000D02*
X15440000Y-43260000D01*
X17390000Y-43260000D02*
X16610000Y-43260000D01*
X17560000Y-41740000D02*
X18560000Y-41740000D01*
X18560000Y-41740000D02*
X18560000Y-43260000D01*
X18560000Y-43260000D02*
X18510000Y-43260000D01*
X16620000Y-43800000D02*
X16950000Y-43560000D01*
X16950000Y-44040000D01*
X16620000Y-43800000D01*
G36*
X16950000Y-44040000D02*
G01*
X16620000Y-43800000D01*
X16950000Y-43560000D01*
X16950000Y-44040000D01*
G37*
%TO.C,SW_BOOT*%
D10*
X30970000Y-17460000D02*
X30970000Y-17890000D01*
X30970000Y-20540000D02*
X30970000Y-20110000D01*
X35030000Y-17460000D02*
X30970000Y-17460000D01*
X35030000Y-17460000D02*
X35030000Y-17890000D01*
X35030000Y-20110000D02*
X35030000Y-20540000D01*
X35030000Y-20540000D02*
X30970000Y-20540000D01*
D12*
X33900000Y-19000000D02*
G75*
G02*
X32100000Y-19000000I-900000J0D01*
G01*
X32100000Y-19000000D02*
G75*
G02*
X33900000Y-19000000I900000J0D01*
G01*
D13*
X35530000Y-17530000D02*
G75*
G02*
X35470000Y-17530000I-30000J0D01*
G01*
X35470000Y-17530000D02*
G75*
G02*
X35530000Y-17530000I30000J0D01*
G01*
%TO.C,C_BUCK_HF*%
D11*
X46342164Y-20340000D02*
X46557836Y-20340000D01*
X46342164Y-21060000D02*
X46557836Y-21060000D01*
%TO.C,C_LDO15_OUT*%
X16792164Y-11290000D02*
X17007836Y-11290000D01*
X16792164Y-12010000D02*
X17007836Y-12010000D01*
%TO.C,D_USB_DP*%
X35690000Y-49640000D02*
X35690000Y-50860000D01*
X35690000Y-49640000D02*
X37000000Y-49640000D01*
X35690000Y-50860000D02*
X37000000Y-50860000D01*
%TO.C,C_MIC*%
X53640000Y-3857836D02*
X53640000Y-3642164D01*
X54360000Y-3857836D02*
X54360000Y-3642164D01*
%TD*%
%LPC*%
D17*
%TO.C,R_LCD_CLK*%
X28250000Y-2510000D03*
X28250000Y-1490000D03*
%TD*%
%TO.C,R_SERVO_R_PD*%
X54250000Y-24510000D03*
X54250000Y-23490000D03*
%TD*%
D18*
%TO.C,C_SERVO1*%
X58300000Y-19500000D03*
X60200000Y-19500000D03*
%TD*%
D19*
%TO.C,C_BAT_NTC*%
X20000000Y-48980000D03*
X20000000Y-48020000D03*
%TD*%
D20*
%TO.C,C_U1*%
X2720000Y-40400000D03*
X3680000Y-40400000D03*
%TD*%
D19*
%TO.C,C_NTC*%
X52000000Y-47230000D03*
X52000000Y-46270000D03*
%TD*%
D21*
%TO.C,R_GATE*%
X50990000Y-39000000D03*
X52010000Y-39000000D03*
%TD*%
%TO.C,R_FB2*%
X45640000Y-15250000D03*
X46660000Y-15250000D03*
%TD*%
D20*
%TO.C,C_CAM_RST*%
X15520000Y-7750000D03*
X16480000Y-7750000D03*
%TD*%
D22*
%TO.C,J_LCD*%
X38500000Y-5775000D03*
X37500000Y-5775000D03*
X36500000Y-5775000D03*
X35500000Y-5775000D03*
X34500000Y-5775000D03*
X33500000Y-5775000D03*
X32500000Y-5775000D03*
X31500000Y-5775000D03*
D23*
X39800000Y-1900000D03*
X30200000Y-1900000D03*
%TD*%
D24*
%TO.C,U_LDO28*%
X6862500Y-13050000D03*
X6862500Y-14000000D03*
X6862500Y-14950000D03*
X9137500Y-14950000D03*
X9137500Y-13050000D03*
%TD*%
D25*
%TO.C,J_ARM_R*%
X58405000Y-28540000D03*
X58405000Y-26000000D03*
X58405000Y-23460000D03*
%TD*%
D26*
%TO.C,RT_BAT*%
X18500000Y-50325000D03*
X18500000Y-48675000D03*
%TD*%
D20*
%TO.C,C_TOUCH*%
X24370000Y-28250000D03*
X25330000Y-28250000D03*
%TD*%
D21*
%TO.C,R_BATN_PD*%
X18240000Y-45500000D03*
X19260000Y-45500000D03*
%TD*%
D27*
%TO.C,C_AMP_BULK*%
X38550000Y-49175000D03*
X38550000Y-47625000D03*
%TD*%
D21*
%TO.C,R_CC2*%
X22990000Y-49000000D03*
X24010000Y-49000000D03*
%TD*%
D28*
%TO.C,F_USB*%
X27600000Y-40000000D03*
X30400000Y-40000000D03*
%TD*%
D29*
%TO.C,SW_RST*%
X24820000Y-19000000D03*
X29180000Y-19000000D03*
%TD*%
D30*
%TO.C,L_BUCK*%
X50500000Y-19150000D03*
X53500000Y-19150000D03*
%TD*%
D31*
%TO.C,U_CHG*%
X42090000Y-36910000D03*
X43370000Y-36910000D03*
X44640000Y-36910000D03*
X45910000Y-36910000D03*
X45910000Y-31090000D03*
X44640000Y-31090000D03*
X43370000Y-31090000D03*
X42090000Y-31090000D03*
D32*
X44000000Y-34000000D03*
%TD*%
D17*
%TO.C,R_FB1*%
X44550000Y-17260000D03*
X44550000Y-16240000D03*
%TD*%
D25*
%TO.C,J_ARM_L*%
X58405000Y-17040000D03*
X58405000Y-14500000D03*
X58405000Y-11960000D03*
%TD*%
D33*
%TO.C,H2*%
X3500000Y-51500000D03*
%TD*%
D17*
%TO.C,R_TOUCH_REXT*%
X29000000Y-31510000D03*
X29000000Y-30490000D03*
%TD*%
D34*
%TO.C,C_BUCK_OUT2*%
X53650000Y-15950000D03*
X51750000Y-15950000D03*
%TD*%
D35*
%TO.C,D_USB_DN*%
X36250000Y-52600000D03*
X36250000Y-51900000D03*
%TD*%
%TO.C,D_ESD_MUTE*%
X56500000Y-4600000D03*
X56500000Y-3900000D03*
%TD*%
D36*
%TO.C,C_SERVO3*%
X53750000Y-29950000D03*
X53750000Y-28050000D03*
%TD*%
D37*
%TO.C,U_TOUCH*%
X24612500Y-30200000D03*
D38*
X24612500Y-30600000D03*
X24612500Y-31000000D03*
X24612500Y-31400000D03*
D39*
X24612500Y-31800000D03*
D40*
X25200000Y-32387500D03*
D41*
X25600000Y-32387500D03*
X26000000Y-32387500D03*
X26400000Y-32387500D03*
D42*
X26800000Y-32387500D03*
D43*
X27387500Y-31800000D03*
D38*
X27387500Y-31400000D03*
X27387500Y-31000000D03*
X27387500Y-30600000D03*
D44*
X27387500Y-30200000D03*
D45*
X26800000Y-29612500D03*
D41*
X26400000Y-29612500D03*
X26000000Y-29612500D03*
X25600000Y-29612500D03*
D46*
X25200000Y-29612500D03*
%TD*%
D19*
%TO.C,C_EFUSE_IN*%
X32850000Y-40380000D03*
X32850000Y-39420000D03*
%TD*%
D47*
%TO.C,J_USB*%
X27110000Y-47755000D03*
X32890000Y-47755000D03*
D48*
X26750000Y-46310000D03*
X27550000Y-46310000D03*
D49*
X28750000Y-46310000D03*
X29750000Y-46310000D03*
X30250000Y-46310000D03*
X31250000Y-46310000D03*
D48*
X32450000Y-46310000D03*
X33250000Y-46310000D03*
X33250000Y-46310000D03*
X32450000Y-46310000D03*
D49*
X31750000Y-46310000D03*
X30750000Y-46310000D03*
X29250000Y-46310000D03*
X28250000Y-46310000D03*
D48*
X27550000Y-46310000D03*
X26750000Y-46310000D03*
D50*
X25680000Y-47225000D03*
D51*
X25680000Y-51405000D03*
D50*
X34320000Y-47225000D03*
D51*
X34320000Y-51405000D03*
%TD*%
D17*
%TO.C,R_LCD_BL_OFF*%
X40500000Y-14510000D03*
X40500000Y-13490000D03*
%TD*%
%TO.C,R_EFUSE_ILM*%
X37250000Y-40260000D03*
X37250000Y-39240000D03*
%TD*%
D52*
%TO.C,U1*%
X1490000Y-38750000D03*
X2760000Y-38750000D03*
X4030000Y-38750000D03*
X5300000Y-38750000D03*
X6570000Y-38750000D03*
X7840000Y-38750000D03*
X9110000Y-38750000D03*
X10380000Y-38750000D03*
X11650000Y-38750000D03*
X12920000Y-38750000D03*
X14190000Y-38750000D03*
X15460000Y-38750000D03*
X16730000Y-38750000D03*
X18000000Y-38750000D03*
D53*
X19250000Y-36985000D03*
X19250000Y-35715000D03*
X19250000Y-34445000D03*
X19250000Y-33175000D03*
X19250000Y-31905000D03*
X19250000Y-30635000D03*
X19250000Y-29365000D03*
X19250000Y-28095000D03*
X19250000Y-26825000D03*
X19250000Y-25555000D03*
X19250000Y-24285000D03*
X19250000Y-23015000D03*
D52*
X18000000Y-21250000D03*
X16730000Y-21250000D03*
X15460000Y-21250000D03*
X14190000Y-21250000D03*
X12920000Y-21250000D03*
X11650000Y-21250000D03*
X10380000Y-21250000D03*
X9110000Y-21250000D03*
X7840000Y-21250000D03*
X6570000Y-21250000D03*
X5300000Y-21250000D03*
X4030000Y-21250000D03*
X2760000Y-21250000D03*
X1490000Y-21250000D03*
D54*
X8510000Y-32900000D03*
X9910000Y-32900000D03*
X7810000Y-32200000D03*
X9210000Y-32200000D03*
X10610000Y-32200000D03*
X8510000Y-31500000D03*
D55*
X9210000Y-31500000D03*
D54*
X9910000Y-31500000D03*
X7810000Y-30800000D03*
X9210000Y-30800000D03*
X10610000Y-30800000D03*
X8510000Y-30100000D03*
X9910000Y-30100000D03*
%TD*%
D33*
%TO.C,H1*%
X43000000Y-10000000D03*
%TD*%
D56*
%TO.C,J_HEAT*%
X56750000Y-45350000D03*
X59250000Y-45350000D03*
X53770000Y-52750000D03*
X62230000Y-52750000D03*
%TD*%
D21*
%TO.C,R_EN*%
X27240000Y-21250000D03*
X28260000Y-21250000D03*
%TD*%
D18*
%TO.C,C_CHG_VIN*%
X41450000Y-38700000D03*
X43350000Y-38700000D03*
%TD*%
D19*
%TO.C,C_IMU*%
X32800000Y-36830000D03*
X32800000Y-35870000D03*
%TD*%
D57*
%TO.C,U_IMU*%
X30120000Y-36750000D03*
X30120000Y-37250000D03*
X30120000Y-37750000D03*
X30120000Y-38250000D03*
D58*
X30750000Y-38380000D03*
X31250000Y-38380000D03*
D57*
X31880000Y-38250000D03*
X31880000Y-37750000D03*
X31880000Y-37250000D03*
X31880000Y-36750000D03*
D58*
X31250000Y-36620000D03*
X30750000Y-36620000D03*
%TD*%
D17*
%TO.C,R_SIOD*%
X6000000Y-11010000D03*
X6000000Y-9990000D03*
%TD*%
D59*
%TO.C,C_CAM_AVDD*%
X11750000Y-7520000D03*
X11750000Y-8480000D03*
%TD*%
D60*
%TO.C,J_SPK*%
X43000000Y-49225000D03*
X44000000Y-49225000D03*
D61*
X41700000Y-53100000D03*
X45300000Y-53100000D03*
%TD*%
D62*
%TO.C,C_VUSB*%
X35425000Y-42250000D03*
X36975000Y-42250000D03*
%TD*%
D20*
%TO.C,C_LDO15_IN*%
X14170000Y-11650000D03*
X15130000Y-11650000D03*
%TD*%
D21*
%TO.C,R_LCD_BL_GATE*%
X37490000Y-16000000D03*
X38510000Y-16000000D03*
%TD*%
D62*
%TO.C,C_U1_BULK*%
X2625000Y-41800000D03*
X4175000Y-41800000D03*
%TD*%
D63*
%TO.C,C_TOUCH_VREG*%
X22980000Y-33500000D03*
X22020000Y-33500000D03*
%TD*%
D64*
%TO.C,J_MIC*%
X51500000Y-5495000D03*
X50500000Y-5495000D03*
X49500000Y-5495000D03*
X48500000Y-5495000D03*
X47500000Y-5495000D03*
X46500000Y-5495000D03*
D65*
X45390000Y-1775000D03*
X52610000Y-1775000D03*
%TD*%
D66*
%TO.C,J_BAT*%
X14000000Y-46600000D03*
X12000000Y-46600000D03*
D67*
X9590000Y-52500000D03*
X16410000Y-52500000D03*
%TD*%
D68*
%TO.C,J_KEY*%
X61000000Y-5150000D03*
X60000000Y-5150000D03*
X59000000Y-5150000D03*
D69*
X62100000Y-1750000D03*
X57900000Y-1750000D03*
%TD*%
D70*
%TO.C,U_EFUSE*%
X34050000Y-39250000D03*
X34050000Y-39750000D03*
X34050000Y-40250000D03*
X34050000Y-40750000D03*
X35950000Y-40750000D03*
X35950000Y-40250000D03*
X35950000Y-39750000D03*
X35950000Y-39250000D03*
D71*
X35000000Y-40000000D03*
%TD*%
D36*
%TO.C,C_BUCK_OUT1*%
X55300000Y-20700000D03*
X55300000Y-18800000D03*
%TD*%
D63*
%TO.C,C_ADC*%
X32680000Y-31000000D03*
X31720000Y-31000000D03*
%TD*%
D21*
%TO.C,R_BATP_PU*%
X20990000Y-45500000D03*
X22010000Y-45500000D03*
%TD*%
D59*
%TO.C,C_CAM_DVDD*%
X10500000Y-7520000D03*
X10500000Y-8480000D03*
%TD*%
D72*
%TO.C,J_CAM*%
X18250000Y-6215000D03*
X17750000Y-6215000D03*
X17250000Y-6215000D03*
X16750000Y-6215000D03*
X16250000Y-6215000D03*
X15750000Y-6215000D03*
X15250000Y-6215000D03*
X14750000Y-6215000D03*
X14250000Y-6215000D03*
X13750000Y-6215000D03*
X13250000Y-6215000D03*
X12750000Y-6215000D03*
X12250000Y-6215000D03*
X11750000Y-6215000D03*
X11250000Y-6215000D03*
X10750000Y-6215000D03*
X10250000Y-6215000D03*
X9750000Y-6215000D03*
X9250000Y-6215000D03*
X8750000Y-6215000D03*
X8250000Y-6215000D03*
X7750000Y-6215000D03*
X7250000Y-6215000D03*
X6750000Y-6215000D03*
D73*
X5050000Y-3555000D03*
X19950000Y-3555000D03*
%TD*%
D19*
%TO.C,C_LDO28_OUT*%
X10750000Y-13530000D03*
X10750000Y-12570000D03*
%TD*%
D17*
%TO.C,R_GATE_PD*%
X51750000Y-45010000D03*
X51750000Y-43990000D03*
%TD*%
D74*
%TO.C,C_VSYS2*%
X44700000Y-27500000D03*
X44700000Y-29400000D03*
%TD*%
D20*
%TO.C,C_AMP*%
X39920000Y-47250000D03*
X40880000Y-47250000D03*
%TD*%
D36*
%TO.C,C_CHG_BAT*%
X46900000Y-29400000D03*
X46900000Y-27500000D03*
%TD*%
D19*
%TO.C,C_VBAT_SENSE*%
X18250000Y-52980000D03*
X18250000Y-52020000D03*
%TD*%
D35*
%TO.C,D_ESD_PWR*%
X63500000Y-3850000D03*
X63500000Y-3150000D03*
%TD*%
D17*
%TO.C,R_CC_SUM1*%
X36000000Y-48510000D03*
X36000000Y-47490000D03*
%TD*%
D75*
%TO.C,Q_HEAT*%
X51312500Y-40550000D03*
X51312500Y-42450000D03*
X53187500Y-41500000D03*
%TD*%
%TO.C,Q_LCD_BL*%
X36562500Y-12550000D03*
X36562500Y-14450000D03*
X38437500Y-13500000D03*
%TD*%
D21*
%TO.C,R_SDA*%
X23690000Y-26500000D03*
X24710000Y-26500000D03*
%TD*%
%TO.C,R_CAM_PWDN*%
X12990000Y-7750000D03*
X14010000Y-7750000D03*
%TD*%
D17*
%TO.C,R_AMP_SD*%
X37000000Y-45760000D03*
X37000000Y-44740000D03*
%TD*%
D21*
%TO.C,R_BATP_BYP*%
X19740000Y-40500000D03*
X20760000Y-40500000D03*
%TD*%
D17*
%TO.C,R_SIOC*%
X8000000Y-9010000D03*
X8000000Y-7990000D03*
%TD*%
D20*
%TO.C,C_EN*%
X25520000Y-16750000D03*
X26480000Y-16750000D03*
%TD*%
D22*
%TO.C,J_TOUCH*%
X25000000Y-5775000D03*
X24000000Y-5775000D03*
D23*
X26300000Y-1900000D03*
X22700000Y-1900000D03*
%TD*%
D21*
%TO.C,R_BOOT*%
X33240000Y-21250000D03*
X34260000Y-21250000D03*
%TD*%
D24*
%TO.C,U_LDO15*%
X14862500Y-13050000D03*
X14862500Y-14000000D03*
X14862500Y-14950000D03*
X17137500Y-14950000D03*
X17137500Y-13050000D03*
%TD*%
D76*
%TO.C,U_AMP*%
X38562500Y-43750000D03*
X38562500Y-44250000D03*
X38562500Y-44750000D03*
X38562500Y-45250000D03*
D77*
X39250000Y-45937500D03*
X39750000Y-45937500D03*
X40250000Y-45937500D03*
X40750000Y-45937500D03*
D76*
X41437500Y-45250000D03*
X41437500Y-44750000D03*
X41437500Y-44250000D03*
X41437500Y-43750000D03*
D77*
X40750000Y-43062500D03*
X40250000Y-43062500D03*
X39750000Y-43062500D03*
X39250000Y-43062500D03*
D78*
X40000000Y-44500000D03*
%TD*%
D18*
%TO.C,C_VSYS1*%
X40850000Y-29300000D03*
X42750000Y-29300000D03*
%TD*%
D60*
%TO.C,J_NTC*%
X49200000Y-49225000D03*
X50200000Y-49225000D03*
D61*
X47900000Y-53100000D03*
X51500000Y-53100000D03*
%TD*%
D17*
%TO.C,R_LCD_MOSI*%
X42000000Y-4260000D03*
X42000000Y-3240000D03*
%TD*%
%TO.C,R_KEY_MUTE_PU*%
X63500000Y-6010000D03*
X63500000Y-4990000D03*
%TD*%
%TO.C,R_BAT_NTC*%
X20000000Y-51260000D03*
X20000000Y-50240000D03*
%TD*%
D27*
%TO.C,C_BUCK_IN*%
X44350000Y-20125000D03*
X44350000Y-18575000D03*
%TD*%
D17*
%TO.C,R_CC_SUM2*%
X23750000Y-54010000D03*
X23750000Y-52990000D03*
%TD*%
D35*
%TO.C,D_ESD_TOUCH*%
X28250000Y-5100000D03*
X28250000Y-4400000D03*
%TD*%
D17*
%TO.C,R_BATN_G*%
X14500000Y-42260000D03*
X14500000Y-41240000D03*
%TD*%
%TO.C,R_CAM_RST*%
X9250000Y-11510000D03*
X9250000Y-10490000D03*
%TD*%
%TO.C,R_CC1*%
X24000000Y-51510000D03*
X24000000Y-50490000D03*
%TD*%
D20*
%TO.C,C_FF*%
X43620000Y-15150000D03*
X44580000Y-15150000D03*
%TD*%
D19*
%TO.C,C_LDO28_IN*%
X5300000Y-13930000D03*
X5300000Y-12970000D03*
%TD*%
D17*
%TO.C,R_NTC*%
X50750000Y-47260000D03*
X50750000Y-46240000D03*
%TD*%
D20*
%TO.C,C_EFUSE_DVDT*%
X33270000Y-38100000D03*
X34230000Y-38100000D03*
%TD*%
D18*
%TO.C,C_SERVO2*%
X58300000Y-31000000D03*
X60200000Y-31000000D03*
%TD*%
D20*
%TO.C,C_CC_SENSE*%
X23020000Y-47750000D03*
X23980000Y-47750000D03*
%TD*%
D21*
%TO.C,R_SCL*%
X21490000Y-26500000D03*
X22510000Y-26500000D03*
%TD*%
%TO.C,R_VBAT_BOT*%
X6990000Y-48750000D03*
X8010000Y-48750000D03*
%TD*%
D17*
%TO.C,R_VBAT_TOP*%
X8000000Y-51010000D03*
X8000000Y-49990000D03*
%TD*%
D79*
%TO.C,U_ADC*%
X38650000Y-32000000D03*
X38650000Y-31500000D03*
X38650000Y-31000000D03*
X38650000Y-30500000D03*
X38650000Y-30000000D03*
X34350000Y-30000000D03*
X34350000Y-30500000D03*
X34350000Y-31000000D03*
X34350000Y-31500000D03*
X34350000Y-32000000D03*
%TD*%
D80*
%TO.C,U_BUCK*%
X46050000Y-19137500D03*
X47000000Y-19137500D03*
X47950000Y-19137500D03*
X47950000Y-16862500D03*
X46050000Y-16862500D03*
%TD*%
D75*
%TO.C,Q_BATP*%
X20062500Y-42050000D03*
X20062500Y-43950000D03*
X21937500Y-43000000D03*
%TD*%
D81*
%TO.C,L_CHG*%
X35950000Y-25000000D03*
X40050000Y-25000000D03*
%TD*%
D20*
%TO.C,C_LCD*%
X41770000Y-5750000D03*
X42730000Y-5750000D03*
%TD*%
D82*
%TO.C,Q_BATN*%
X16050000Y-43437500D03*
X17950000Y-43437500D03*
X17000000Y-41562500D03*
%TD*%
D29*
%TO.C,SW_BOOT*%
X30820000Y-19000000D03*
X35180000Y-19000000D03*
%TD*%
D20*
%TO.C,C_BUCK_HF*%
X45970000Y-20700000D03*
X46930000Y-20700000D03*
%TD*%
%TO.C,C_LDO15_OUT*%
X16420000Y-11650000D03*
X17380000Y-11650000D03*
%TD*%
D83*
%TO.C,D_USB_DP*%
X36150000Y-50250000D03*
X36850000Y-50250000D03*
%TD*%
D19*
%TO.C,C_MIC*%
X54000000Y-4230000D03*
X54000000Y-3270000D03*
%TD*%
%LPD*%
M02*
