#VRML V2.0 utf8
# 3D model generated by easyeda2kicad.py (https://github.com/uPesy/easyeda2kicad.py)

Shape{
    appearance Appearance {
        material  Material 	{
            diffuseColor 1.0 0.9411764705882353 0.8117647058823529
            specularColor 0.30196078431372547 0.2823529411764706 0.24313725490196078
            ambientIntensity 0.944
            transparency 0.0
            shininess 0.5
        }
    }
    geometry IndexedFaceSet {
        ccw TRUE
        solid FALSE
        coord DEF co Coordinate {
            point [
                1.2795 1.4075 1.0748, 1.2795 1.6044 1.0748, 1.0039 1.6044 1.0748, 1.5748 1.0138 1.0748, 1.5748 1.4075 1.0748, 0.9252 1.0138 1.0748, 0.9252 1.5256 1.0748, -1.2795 1.4075 1.0748, -1.5748 1.4075 1.0748, -1.5748 1.0138 1.0748, -1.0039 1.6044 1.0748, -1.2795 1.6044 1.0748, -0.9252 1.5256 1.0748, -0.9252 1.0138 1.0748, -0.06 -0.7578 0.0118, -0.2756 -0.7578 0.0118, -0.06 -0.3615 0.0118, -0.2756 -0.6004 0.0118, -0.5118 -0.6004 0.0118, -1.1811 -1.3878 0.0118, -1.5748 -1.3878 0.0118, -1.1811 -0.7578 0.0118, -1.5748 -0.3615 0.0118, -0.5118 -0.7578 0.0118, 1.5748 -1.3878 0.0118, 1.1811 -1.3878 0.0118, 1.5748 -0.3615 0.0118, 1.1811 -0.7578 0.0118, 0.1441 -0.3615 0.0118, 0.152 -0.3626 0.0118, 0.2756 -0.6004 0.0118, 0.1574 -0.3627 0.0118, 0.169 -0.3615 0.0118, 0.5118 -0.6004 0.0118, 0.5118 -0.7578 0.0118, -0.036 -0.1635 0.0118, -0.036 -0.1851 0.0118, -0.0408 -0.3387 0.0118, 0.1032 -0.3501 0.0118, 0.0648 -0.3603 0.0118, 0.1032 -0.3285 0.0118, 0.0648 -0.1635 0.0118, 0.2756 -0.7578 0.0118, 0.1242 -0.3587 0.0118, -0.06 1.6044 0.0118, 1.2795 1.6044 0.0118, 1.2795 1.5592 0.0118, -0.0408 -0.3603 0.0118, 0.0384 -0.2715 0.0118, 0.0384 -0.3387 0.0118, -0.0312 -0.2715 0.0118, -0.0312 -0.2499 0.0118, 0.0384 -0.2499 0.0118, 0.0384 -0.1851 0.0118, 1.5748 0.4233 0.0118, 0.3673 -0.3603 0.0118, 0.2665 -0.3603 0.0118, 0.1817 -0.3602 0.0118, 0.2007 -0.3536 0.0118, 0.1687 -0.1849 0.0118, 0.1835 -0.1902 0.0118, 0.1068 -0.3305 0.0118, 0.1971 -0.1993 0.0118, 0.209 -0.2124 0.0118, 0.2233 -0.264 0.0118, 0.2213 -0.2853 0.0118, 0.2159 -0.3022 0.0118, 0.1721 -0.3391 0.0118, 0.1538 -0.3411 0.0118, 0.1865 -0.3338 0.0118, 0.1985 -0.3256 0.0118, 0.2078 -0.3159 0.0118, 0.1276 -0.3382 0.0118, 1.2795 1.3452 0.0118, 1.2795 1.2059 0.0118, 1.2795 0.492 0.0118, 0.2277 -0.1969 0.0118, 0.21 -0.1798 0.0118, 0.2171 -0.2276 0.0118, 0.2223 -0.2487 0.0118, 0.2393 -0.2153 0.0118, 0.3409 -0.1635 0.0118, 0.3673 -0.1635 0.0118, 1.2795 0.4233 0.0118, 0.2166 -0.3435 0.0118, 0.2314 -0.328 0.0118, 0.2665 -0.3387 0.0118, 0.2418 -0.3092 0.0118, 0.3409 -0.3387 0.0118, 0.2478 -0.2884 0.0118, 0.2497 -0.2656 0.0118, 0.2468 -0.2376 0.0118, 0.1913 -0.1691 0.0118, 0.1693 -0.1627 0.0118, 0.1496 -0.1611 0.0118, 0.126 -0.1627 0.0118, 0.1032 -0.1689 0.0118, 0.1032 -0.1953 0.0118, 0.1254 -0.1858 0.0118, 0.1493 -0.1827 0.0118, -0.2521 -0.3603 0.0118, -0.2278 -0.3064 0.0118, -0.2165 -0.324 0.0118, -0.1632 -0.1665 0.0118, -0.1862 -0.1746 0.0118, -0.4297 -0.3603 0.0118, -0.4009 -0.3603 0.0118, -0.2003 -0.3395 0.0118, -0.1798 -0.3514 0.0118, -0.1571 -0.3582 0.0118, -0.1327 -0.3603 0.0118, -0.0792 -0.3603 0.0118, -0.0792 -0.1635 0.0118, -0.1348 -0.1635 0.0118, -1.2795 1.2059 0.0118, -1.2795 1.3452 0.0118, -1.2795 1.5592 0.0118, -1.2795 1.6044 0.0118, -1.5748 0.4233 0.0118, -1.2795 0.4233 0.0118, -0.3529 -0.1635 0.0118, -1.2795 0.492 0.0118, -0.2809 -0.3603 0.0118, -0.2997 -0.3051 0.0118, -0.381 -0.3051 0.0118, -0.2077 -0.189 0.0118, -0.2079 -0.1891 0.0118, -0.3265 -0.1635 0.0118, -0.2218 -0.2046 0.0118, -0.2309 -0.2215 0.0118, -0.2362 -0.2409 0.0118, -0.2377 -0.2594 0.0118, -0.2349 -0.2858 0.0118, -1.063 -0.7578 1.0354, -0.5118 -0.7578 1.0354, -0.5118 -0.7578 1.3898, -1.5748 -0.7578 2.1772, -1.5748 -0.7578 1.5771, -1.1811 -0.7578 1.5771, -0.5118 -0.7578 0.4055, -0.2756 -0.7578 1.3898, 1.5748 -0.7578 2.1772, -1.063 -0.7578 0.4055, 1.1811 -0.7578 1.5771, 1.5748 -0.7578 1.5771, 0.5118 -0.7578 1.3898, 0.5118 -0.7578 1.0354, 1.063 -0.7578 1.0354, 0.5118 -0.7578 0.4055, 1.063 -0.7578 0.4055, 0.2756 -0.7578 1.3898, 0.2756 -0.7578 1.0354, -0.2756 -0.7578 1.0354, 0.2756 -0.7578 0.4055, -0.2756 -0.7578 0.4055, 0.2756 -0.6004 1.3898, 0.2756 -0.6004 1.0354, 0.5118 -0.6004 1.3898, 0.5118 -0.6004 1.0354, -0.5118 -0.6004 1.3898, -0.5118 -0.6004 1.0354, -0.2756 -0.6004 1.3898, -0.2756 -0.6004 1.0354, -1.2795 1.3253 0.0178, -1.2795 1.2258 0.0178, -1.2795 1.2755 0.0239, -1.2795 0.4574 0.0584, -1.2795 0.4653 0.0394, -1.2795 0.4778 0.0231, -1.2795 0.4233 0.3268, -1.2795 0.4548 0.3268, -1.2795 0.4548 0.0787, 1.2795 1.2755 0.0239, 1.2795 1.2258 0.0178, 1.2795 1.3253 0.0178, 1.2795 1.5938 0.0584, 1.2795 1.5859 0.0394, 1.2795 1.5734 0.0231, 1.2795 1.5381 0.947, 1.2795 1.5571 0.9391, 1.2795 1.5734 0.9266, 1.2795 1.5859 0.9103, 1.2795 1.5938 0.8913, 1.2795 1.5965 0.8709, 1.2795 1.5965 0.0787, 1.2795 1.4075 0.9497, 1.2795 1.5177 0.9497, 1.2795 0.4233 0.3268, 1.2795 0.4548 0.3268, 1.3976 0.4548 0.3268, 1.3976 1.4075 0.3268, 1.5748 1.4075 0.3268, 1.5748 0.4233 0.3268, 1.3976 1.4075 0.9497, 0.3347 1.5256 1.9213, 0.3347 -0.0885 1.9213, -0.3346 1.5256 1.9213, 0.1476 -0.0885 1.9213, -0.3346 -0.0885 1.9213, -0.1476 -0.0885 1.9213, -0.1476 -0.1673 1.9213, 0.1476 -0.1673 1.9213, -0.9252 -0.1673 1.7835, -0.6398 -0.1673 1.7835, -0.9252 -0.1673 0.248, -0.6398 -0.1673 0.8976, 0.9252 -0.1673 0.248, -0.1476 -0.1673 0.8976, 0.6398 -0.1673 1.7835, 0.9252 -0.1673 1.7835, 0.6398 -0.1673 0.8976, 0.1476 -0.1673 0.8976, -0.3346 1.5256 1.7835, -0.3346 -0.0885 1.7835, -0.6398 -0.0885 1.7835, -0.9252 1.5256 1.7835, 0.6398 -0.0885 1.7835, 0.3347 -0.0885 1.7835, 0.3347 1.5256 1.7835, 0.9252 1.5256 1.7835, -1.1811 -1.3878 1.1929, -1.5748 -1.3878 1.1929, -0.9252 1.5256 1.3898, -0.9252 1.0138 1.3898, -1.0039 1.6044 1.3898, -1.5748 1.0138 1.3898, -1.5748 1.6044 1.3898, 0.9252 1.0138 1.3898, 0.9252 1.5256 1.3898, 1.5748 1.0138 1.3898, 1.0039 1.6044 1.3898, 1.5748 1.6044 1.3898, -1.0039 1.6044 1.8622, -1.5748 1.6044 2.1772, -0.4134 1.6044 1.8622, 1.5748 1.6044 2.1772, 1.0039 1.6044 1.8622, -0.4134 1.6044 2.0, 0.4134 1.6044 2.0, 0.4134 1.6044 1.8622, 1.5748 -1.3878 1.1929, 1.0039 1.6044 0.1693, -1.0039 1.6044 0.1693, -1.5748 1.4075 0.3268, -1.5748 0.4233 0.3268, 1.1811 -1.3878 1.1929, -1.2795 1.5734 0.0231, -1.2795 1.5859 0.0394, -1.2795 1.5938 0.0584, -1.2795 1.5859 0.9103, -1.2795 1.5734 0.9266, -1.2795 1.5571 0.9391, -1.2795 1.5965 0.0787, -1.2795 1.5965 0.8709, -1.2795 1.5938 0.8913, -1.2795 1.4075 0.9497, -1.2795 1.5177 0.9497, -1.2795 1.5381 0.947, -1.3976 1.4075 0.3268, -1.3976 1.4075 0.9497, -1.3976 0.4548 0.3268, 1.2795 0.4653 0.0394, 1.2795 0.4778 0.0231, 1.2795 0.4548 0.0787, 1.2795 0.4574 0.0584, -0.9252 1.5256 0.248, 0.9252 1.5256 0.248, 0.2756 -0.6004 0.4055, 0.5118 -0.6004 0.4055, 0.4921 -0.6004 1.1339, -1.063 -0.6004 1.0354, -1.063 -0.6004 0.4055, -0.5118 -0.6004 0.4055, -0.2953 -0.6004 1.1339, -0.4921 -0.6004 1.1339, 0.2953 -0.6004 1.1339, 0.2953 -0.6004 1.3307, 0.4921 -0.6004 1.3307, -0.2756 -0.6004 0.4055, 1.063 -0.6004 0.4055, 1.063 -0.6004 1.0354, -0.4921 -0.6004 1.3307, -0.2953 -0.6004 1.3307
            ]
        }
        coordIndex [
            0,1,2,-1,3,4,5,-1,5,4,0,-1,5,0,6,-1,6,0,2,-1,7,8,9,-1,10,11,12,-1,12,11,7,-1,12,7,13,-1,13,7,9,-1,14,15,16,-1,16,15,17,-1,16,17,18,-1,19,20,21,-1,21,20,22,-1,21,22,23,-1,23,22,18,-1,24,25,26,-1,26,25,27,-1,28,29,30,-1,29,31,30,-1,30,31,32,-1,30,32,33,-1,33,32,26,-1,33,26,34,-1,34,26,27,-1,35,36,37,-1,38,39,40,-1,40,39,41,-1,42,14,30,-1,30,14,16,-1,30,16,28,-1,28,16,39,-1,28,39,43,-1,43,39,38,-1,44,45,46,-1,41,35,44,-1,44,35,37,-1,44,37,16,-1,16,37,47,-1,16,47,39,-1,48,49,50,-1,50,49,37,-1,50,37,51,-1,51,37,36,-1,51,36,52,-1,52,36,53,-1,54,26,55,-1,55,26,32,-1,55,32,56,-1,56,32,57,-1,56,57,58,-1,59,60,61,-1,61,60,62,-1,61,62,63,-1,64,65,61,-1,61,65,66,-1,67,68,69,-1,69,68,70,-1,66,71,61,-1,61,71,70,-1,61,70,72,-1,72,70,68,-1,46,73,44,-1,44,73,74,-1,44,74,75,-1,76,77,44,-1,63,78,61,-1,61,78,79,-1,61,79,64,-1,80,76,81,-1,81,76,44,-1,81,44,82,-1,82,44,75,-1,82,75,55,-1,55,75,83,-1,55,83,54,-1,58,84,56,-1,56,84,85,-1,56,85,86,-1,86,85,87,-1,86,87,88,-1,87,89,88,-1,88,89,90,-1,88,90,81,-1,81,90,91,-1,81,91,80,-1,77,92,44,-1,44,92,93,-1,44,93,94,-1,94,95,44,-1,44,95,96,-1,44,96,41,-1,41,96,97,-1,41,97,40,-1,40,97,98,-1,40,98,61,-1,61,98,99,-1,61,99,59,-1,100,101,102,-1,103,104,44,-1,18,22,16,-1,16,22,105,-1,16,105,106,-1,102,107,100,-1,100,107,108,-1,100,108,109,-1,110,111,16,-1,16,111,112,-1,16,112,44,-1,44,112,113,-1,44,113,103,-1,114,115,44,-1,44,115,116,-1,44,116,117,-1,22,118,105,-1,105,118,119,-1,105,119,120,-1,120,119,121,-1,109,110,100,-1,100,110,16,-1,100,16,122,-1,122,16,106,-1,122,106,123,-1,123,106,124,-1,125,126,127,-1,127,126,128,-1,127,128,129,-1,121,114,120,-1,120,114,44,-1,120,44,127,-1,127,44,104,-1,127,104,125,-1,129,130,127,-1,127,130,131,-1,127,131,100,-1,100,131,132,-1,100,132,101,-1,133,134,135,-1,136,137,138,-1,21,23,139,-1,135,140,141,-1,139,142,21,-1,21,142,133,-1,21,133,138,-1,138,133,135,-1,138,135,136,-1,136,135,141,-1,143,144,141,-1,145,146,147,-1,148,34,149,-1,149,34,27,-1,149,27,147,-1,147,27,143,-1,147,143,145,-1,145,143,141,-1,145,141,150,-1,150,141,140,-1,150,140,151,-1,151,140,152,-1,42,153,14,-1,14,153,154,-1,14,154,15,-1,155,150,156,-1,156,150,151,-1,145,157,146,-1,146,157,158,-1,159,135,160,-1,160,135,134,-1,140,161,152,-1,152,161,162,-1,115,114,163,-1,163,114,164,-1,163,164,165,-1,166,167,119,-1,119,167,168,-1,119,168,121,-1,169,170,119,-1,119,170,171,-1,119,171,166,-1,172,173,174,-1,174,173,74,-1,174,74,73,-1,175,176,45,-1,45,176,177,-1,45,177,46,-1,178,179,1,-1,1,179,180,-1,1,180,181,-1,181,182,1,-1,1,182,183,-1,1,183,45,-1,45,183,184,-1,45,184,175,-1,0,185,1,-1,1,185,186,-1,1,186,178,-1,187,188,189,-1,190,191,189,-1,189,191,192,-1,189,192,187,-1,185,0,193,-1,193,0,4,-1,193,4,190,-1,190,4,191,-1,194,195,196,-1,196,195,197,-1,198,196,199,-1,199,196,197,-1,199,197,200,-1,200,197,201,-1,202,203,204,-1,204,203,205,-1,204,205,206,-1,206,205,207,-1,208,209,210,-1,210,209,206,-1,210,206,211,-1,211,206,207,-1,211,207,201,-1,201,207,200,-1,196,198,212,-1,212,198,213,-1,203,202,214,-1,214,202,215,-1,214,215,213,-1,213,215,212,-1,209,208,216,-1,217,218,216,-1,216,218,219,-1,216,219,209,-1,218,217,194,-1,194,217,195,-1,220,221,19,-1,19,221,20,-1,138,137,220,-1,220,137,221,-1,222,223,224,-1,224,223,225,-1,224,225,226,-1,13,9,223,-1,223,9,225,-1,227,228,229,-1,229,228,230,-1,229,230,231,-1,227,229,5,-1,5,229,3,-1,224,226,232,-1,232,226,233,-1,232,233,234,-1,231,230,235,-1,235,230,236,-1,234,233,237,-1,237,233,235,-1,237,235,238,-1,238,235,236,-1,238,236,239,-1,240,24,144,-1,144,24,26,-1,191,4,192,-1,192,4,3,-1,231,235,229,-1,229,235,141,-1,229,141,3,-1,3,141,144,-1,3,144,192,-1,192,144,26,-1,192,26,54,-1,241,2,1,-1,1,45,241,-1,241,45,44,-1,241,44,242,-1,242,44,117,-1,242,117,10,-1,10,117,11,-1,233,136,235,-1,235,136,141,-1,22,20,221,-1,233,226,136,-1,136,226,225,-1,136,225,137,-1,137,225,9,-1,137,9,221,-1,8,243,9,-1,9,243,244,-1,9,244,221,-1,221,244,118,-1,221,118,22,-1,25,24,245,-1,245,24,240,-1,245,240,143,-1,143,240,144,-1,116,246,117,-1,117,246,247,-1,117,247,248,-1,249,250,11,-1,11,250,251,-1,248,252,117,-1,117,252,253,-1,117,253,11,-1,11,253,254,-1,11,254,249,-1,255,7,256,-1,256,7,11,-1,256,11,257,-1,257,11,251,-1,258,243,259,-1,259,243,8,-1,259,8,255,-1,255,8,7,-1,170,169,260,-1,260,169,244,-1,260,244,258,-1,258,244,243,-1,169,119,244,-1,244,119,118,-1,261,83,262,-1,262,83,75,-1,188,187,263,-1,263,187,83,-1,263,83,264,-1,264,83,261,-1,83,187,54,-1,54,187,192,-1,222,215,223,-1,223,215,202,-1,223,202,13,-1,13,202,204,-1,13,204,12,-1,12,204,265,-1,6,266,5,-1,5,266,206,-1,5,206,227,-1,227,206,209,-1,227,209,228,-1,228,209,219,-1,265,204,266,-1,266,204,206,-1,21,138,19,-1,19,138,220,-1,25,245,27,-1,27,245,143,-1,153,42,267,-1,267,42,30,-1,268,33,148,-1,148,33,34,-1,269,158,157,-1,267,30,33,-1,270,271,160,-1,160,271,272,-1,161,273,162,-1,162,273,274,-1,156,275,155,-1,155,275,276,-1,155,276,157,-1,157,276,277,-1,157,277,269,-1,18,17,272,-1,272,17,278,-1,272,278,160,-1,160,278,267,-1,160,267,268,-1,268,267,33,-1,279,280,268,-1,268,280,158,-1,269,275,158,-1,158,275,156,-1,158,156,268,-1,268,156,162,-1,268,162,160,-1,160,162,274,-1,160,274,159,-1,159,274,281,-1,159,281,161,-1,161,281,282,-1,161,282,273,-1,157,145,155,-1,155,145,150,-1,
        ]
    }
}
Shape{
    appearance Appearance {
        material  Material 	{
            diffuseColor 0.6666666666666666 0.6980392156862745 0.7686274509803922
            specularColor 0.3333333333333333 0.34901960784313724 0.3843137254901961
            ambientIntensity 0.6967
            transparency 0.0
            shininess 0.5
        }
    }
    geometry IndexedFaceSet {
        ccw TRUE
        solid FALSE
        coord DEF co Coordinate {
            point [
                0.4921 -0.6397 1.3307, 0.2953 -0.6397 1.3307, 0.2953 -0.7162 1.3206, 0.4921 -0.7162 1.3206, 0.2953 -0.7874 1.2911, 0.4921 -0.7874 1.2911, 0.2953 -0.8485 1.2442, 0.4921 -0.8485 1.2442, 0.2953 -0.8954 1.1831, 0.4921 -0.8954 1.1831, 0.2953 -0.9249 1.1119, 0.4921 -0.9249 1.1119, 0.2953 -0.935 1.0354, 0.4921 -0.935 1.0354, 0.4921 -0.935 0.2165, 0.2953 -0.935 0.2165, 0.4921 -0.9357 0.2114, 0.2953 -0.9357 0.2114, 0.4921 -0.9376 0.2067, 0.2953 -0.9376 0.2067, 0.4921 -0.9408 0.2026, 0.2953 -0.9408 0.2026, 0.4921 -0.9448 0.1995, 0.2953 -0.9448 0.1995, 0.4921 -0.9496 0.1975, 0.2953 -0.9496 0.1975, 0.4921 -0.9547 0.1969, 0.2953 -0.9547 0.1969, 0.4921 -1.7027 0.1969, 0.2953 -1.7027 0.1969, 0.3407 -1.7815 0.1514, 0.3407 -1.7815 0.0455, 0.4467 -1.7815 0.1514, 0.4467 -1.7815 0.0455, 0.2953 -1.7027 0.0, 0.2953 -0.9547 0.0, 0.4921 -1.7027 0.0, 0.4921 -0.9547 0.0, 0.2953 -0.8986 0.0074, 0.4921 -0.8986 0.0074, 0.2953 -0.8464 0.029, 0.4921 -0.8464 0.029, 0.2953 -0.8016 0.0634, 0.4921 -0.8016 0.0634, 0.2953 -0.7672 0.1083, 0.4921 -0.7672 0.1083, 0.2953 -0.7455 0.1605, 0.4921 -0.7455 0.1605, 0.2953 -0.7382 0.2165, 0.4921 -0.7382 0.2165, 0.4921 -0.7382 1.0354, 0.2953 -0.7382 1.0354, 0.4921 -0.7348 1.0609, 0.2953 -0.7348 1.0609, 0.4921 -0.725 1.0846, 0.2953 -0.725 1.0846, 0.4921 -0.7093 1.105, 0.2953 -0.7093 1.105, 0.4921 -0.6889 1.1207, 0.2953 -0.6889 1.1207, 0.4921 -0.6652 1.1305, 0.2953 -0.6652 1.1305, 0.4921 -0.6397 1.1339, 0.2953 -0.6397 1.1339, 0.2953 -0.6004 1.1339, 0.2953 -0.6004 1.3307, 0.4921 -0.6004 1.3307, 0.4921 -0.6004 1.1339
            ]
        }
        coordIndex [
            0,1,2,-1,0,2,3,-1,3,2,4,-1,3,4,5,-1,5,4,6,-1,5,6,7,-1,7,6,8,-1,7,8,9,-1,9,8,10,-1,9,10,11,-1,11,10,12,-1,11,12,13,-1,14,13,15,-1,15,13,12,-1,14,15,16,-1,16,15,17,-1,16,17,18,-1,18,17,19,-1,18,19,20,-1,20,19,21,-1,20,21,22,-1,22,21,23,-1,22,23,24,-1,24,23,25,-1,24,25,26,-1,26,25,27,-1,28,26,29,-1,29,26,27,-1,30,31,32,-1,32,31,33,-1,34,35,36,-1,36,35,37,-1,37,35,38,-1,37,38,39,-1,39,38,40,-1,39,40,41,-1,41,40,42,-1,41,42,43,-1,43,42,44,-1,43,44,45,-1,45,44,46,-1,45,46,47,-1,47,46,48,-1,47,48,49,-1,50,49,51,-1,51,49,48,-1,50,51,52,-1,52,51,53,-1,52,53,54,-1,54,53,55,-1,54,55,56,-1,56,55,57,-1,56,57,58,-1,58,57,59,-1,58,59,60,-1,60,59,61,-1,60,61,62,-1,62,61,63,-1,34,29,35,-1,35,29,27,-1,35,27,38,-1,38,27,25,-1,38,25,40,-1,40,25,23,-1,40,23,42,-1,42,23,21,-1,42,21,44,-1,44,21,19,-1,44,19,46,-1,46,19,17,-1,46,17,48,-1,48,17,15,-1,48,15,51,-1,51,15,12,-1,51,12,53,-1,53,12,10,-1,53,10,55,-1,55,10,8,-1,55,8,57,-1,57,8,6,-1,57,6,59,-1,59,6,4,-1,59,4,61,-1,61,4,2,-1,61,2,63,-1,63,2,1,-1,63,1,64,-1,64,1,65,-1,28,36,26,-1,26,36,37,-1,26,37,24,-1,24,37,39,-1,24,39,22,-1,22,39,41,-1,22,41,20,-1,20,41,43,-1,20,43,18,-1,18,43,45,-1,18,45,16,-1,16,45,47,-1,16,47,14,-1,14,47,49,-1,14,49,13,-1,13,49,50,-1,13,50,11,-1,11,50,52,-1,11,52,9,-1,9,52,54,-1,9,54,7,-1,7,54,56,-1,7,56,5,-1,5,56,58,-1,5,58,3,-1,3,58,60,-1,3,60,0,-1,0,60,62,-1,0,62,66,-1,66,62,67,-1,65,1,66,-1,66,1,0,-1,62,63,67,-1,67,63,64,-1,36,33,34,-1,34,33,31,-1,28,32,36,-1,36,32,33,-1,30,29,31,-1,31,29,34,-1,29,30,28,-1,28,30,32,-1,
        ]
    }
}
Shape{
    appearance Appearance {
        material  Material 	{
            diffuseColor 1.0 0.9411764705882353 0.8117647058823529
            specularColor 0.30196078431372547 0.2823529411764706 0.24313725490196078
            ambientIntensity 0.944
            transparency 0.0
            shininess 0.5
        }
    }
    geometry IndexedFaceSet {
        ccw TRUE
        solid FALSE
        coord DEF co Coordinate {
            point [
                0.6398 -0.0885 0.9764, 0.6398 -0.0885 1.7835, 0.6398 -0.1673 0.8976, 0.6398 -0.1673 1.7835, 0.1476 -0.0885 1.9213, 0.3347 -0.0885 1.9213, 0.3347 -0.0885 1.7835, 0.1476 -0.0885 0.9764, 0.2953 -0.0885 1.3307, 0.4921 -0.0885 1.3307, 0.4921 -0.0885 1.1339, 0.2953 -0.0885 1.1339, 0.1476 -0.1673 0.8976, 0.1476 -0.1673 1.9213
            ]
        }
        coordIndex [
            0,1,2,-1,2,1,3,-1,4,5,6,-1,7,4,8,-1,8,4,6,-1,8,6,9,-1,9,6,1,-1,9,1,10,-1,10,1,0,-1,10,0,11,-1,11,0,7,-1,11,7,8,-1,12,13,7,-1,7,13,4,-1,
        ]
    }
}
Shape{
    appearance Appearance {
        material  Material 	{
            diffuseColor 0.6666666666666666 0.6980392156862745 0.7686274509803922
            specularColor 0.3333333333333333 0.34901960784313724 0.3843137254901961
            ambientIntensity 0.6967
            transparency 0.0
            shininess 0.5
        }
    }
    geometry IndexedFaceSet {
        ccw TRUE
        solid FALSE
        coord DEF co Coordinate {
            point [
                0.3407 1.1713 1.1793, 0.3407 1.1713 1.2852, 0.4467 1.1713 1.1793, 0.4467 1.1713 1.2852, 0.2953 1.0926 1.1339, 0.4921 1.0926 1.1339, 0.4921 1.0926 1.3307, 0.2953 1.0926 1.3307, 0.2953 -0.0885 1.3307, 0.2953 -0.0885 1.1339, 0.4921 -0.0885 1.1339, 0.4921 -0.0885 1.3307
            ]
        }
        coordIndex [
            0,1,2,-1,2,1,3,-1,4,0,5,-1,5,0,2,-1,6,3,7,-1,7,3,1,-1,5,2,6,-1,6,2,3,-1,0,4,1,-1,1,4,7,-1,7,4,8,-1,8,4,9,-1,10,5,11,-1,11,5,6,-1,6,7,11,-1,11,7,8,-1,9,4,10,-1,10,4,5,-1,
        ]
    }
}
Shape{
    appearance Appearance {
        material  Material 	{
            diffuseColor 1.0 0.9411764705882353 0.8117647058823529
            specularColor 0.30196078431372547 0.2823529411764706 0.24313725490196078
            ambientIntensity 0.944
            transparency 0.0
            shininess 0.5
        }
    }
    geometry IndexedFaceSet {
        ccw TRUE
        solid FALSE
        coord DEF co Coordinate {
            point [
                0.1476 -0.1673 0.8976, 0.1476 -0.0885 0.9764, 0.6398 -0.1673 0.8976, 0.6398 -0.0885 0.9764, -0.5118 -0.7578 0.4055, -0.5118 -0.7578 0.0118, -0.5118 -0.6004 0.4055, -0.5118 -0.6004 0.0118, -0.2756 -0.6004 0.4055, -0.2756 -0.6004 0.0118, -0.2756 -0.7578 0.4055, -0.2756 -0.7578 0.0118, -0.2756 -0.6004 1.3898, -0.2756 -0.7578 1.3898, -0.5118 -0.6004 1.3898, -0.5118 -0.7578 1.3898
            ]
        }
        coordIndex [
            0,1,2,-1,2,1,3,-1,4,5,6,-1,6,5,7,-1,8,9,10,-1,10,9,11,-1,12,13,14,-1,14,13,15,-1,
        ]
    }
}
Shape{
    appearance Appearance {
        material  Material 	{
            diffuseColor 0.6666666666666666 0.6980392156862745 0.7686274509803922
            specularColor 0.3333333333333333 0.34901960784313724 0.3843137254901961
            ambientIntensity 0.6967
            transparency 0.0
            shininess 0.5
        }
    }
    geometry IndexedFaceSet {
        ccw TRUE
        solid FALSE
        coord DEF co Coordinate {
            point [
                -0.2953 -0.6397 1.3307, -0.4921 -0.6397 1.3307, -0.4921 -0.7162 1.3206, -0.2953 -0.7162 1.3206, -0.4921 -0.7874 1.2911, -0.2953 -0.7874 1.2911, -0.4921 -0.8485 1.2442, -0.2953 -0.8485 1.2442, -0.4921 -0.8954 1.1831, -0.2953 -0.8954 1.1831, -0.4921 -0.9249 1.1119, -0.2953 -0.9249 1.1119, -0.4921 -0.935 1.0354, -0.2953 -0.935 1.0354, -0.2953 -0.935 0.2165, -0.4921 -0.935 0.2165, -0.2953 -0.9357 0.2114, -0.4921 -0.9357 0.2114, -0.2953 -0.9376 0.2067, -0.4921 -0.9376 0.2067, -0.2953 -0.9408 0.2026, -0.4921 -0.9408 0.2026, -0.2953 -0.9448 0.1995, -0.4921 -0.9448 0.1995, -0.2953 -0.9496 0.1975, -0.4921 -0.9496 0.1975, -0.2953 -0.9547 0.1969, -0.4921 -0.9547 0.1969, -0.2953 -1.7027 0.1969, -0.4921 -1.7027 0.1969, -0.4467 -1.7815 0.1514, -0.4467 -1.7815 0.0455, -0.3407 -1.7815 0.1514, -0.3407 -1.7815 0.0455, -0.4921 -1.7027 0.0, -0.4921 -0.9547 0.0, -0.2953 -1.7027 0.0, -0.2953 -0.9547 0.0, -0.4921 -0.8986 0.0074, -0.2953 -0.8986 0.0074, -0.4921 -0.8464 0.029, -0.2953 -0.8464 0.029, -0.4921 -0.8016 0.0634, -0.2953 -0.8016 0.0634, -0.4921 -0.7672 0.1083, -0.2953 -0.7672 0.1083, -0.4921 -0.7455 0.1605, -0.2953 -0.7455 0.1605, -0.4921 -0.7382 0.2165, -0.2953 -0.7382 0.2165, -0.2953 -0.7382 1.0354, -0.4921 -0.7382 1.0354, -0.2953 -0.7348 1.0609, -0.4921 -0.7348 1.0609, -0.2953 -0.725 1.0846, -0.4921 -0.725 1.0846, -0.2953 -0.7093 1.105, -0.4921 -0.7093 1.105, -0.2953 -0.6889 1.1207, -0.4921 -0.6889 1.1207, -0.2953 -0.6652 1.1305, -0.4921 -0.6652 1.1305, -0.2953 -0.6397 1.1339, -0.4921 -0.6397 1.1339, -0.4921 -0.6004 1.1339, -0.4921 -0.6004 1.3307, -0.2953 -0.6004 1.3307, -0.2953 -0.6004 1.1339
            ]
        }
        coordIndex [
            0,1,2,-1,0,2,3,-1,3,2,4,-1,3,4,5,-1,5,4,6,-1,5,6,7,-1,7,6,8,-1,7,8,9,-1,9,8,10,-1,9,10,11,-1,11,10,12,-1,11,12,13,-1,14,13,15,-1,15,13,12,-1,14,15,16,-1,16,15,17,-1,16,17,18,-1,18,17,19,-1,18,19,20,-1,20,19,21,-1,20,21,22,-1,22,21,23,-1,22,23,24,-1,24,23,25,-1,24,25,26,-1,26,25,27,-1,28,26,29,-1,29,26,27,-1,30,31,32,-1,32,31,33,-1,34,35,36,-1,36,35,37,-1,37,35,38,-1,37,38,39,-1,39,38,40,-1,39,40,41,-1,41,40,42,-1,41,42,43,-1,43,42,44,-1,43,44,45,-1,45,44,46,-1,45,46,47,-1,47,46,48,-1,47,48,49,-1,50,49,51,-1,51,49,48,-1,50,51,52,-1,52,51,53,-1,52,53,54,-1,54,53,55,-1,54,55,56,-1,56,55,57,-1,56,57,58,-1,58,57,59,-1,58,59,60,-1,60,59,61,-1,60,61,62,-1,62,61,63,-1,34,29,35,-1,35,29,27,-1,35,27,38,-1,38,27,25,-1,38,25,40,-1,40,25,23,-1,40,23,42,-1,42,23,21,-1,42,21,44,-1,44,21,19,-1,44,19,46,-1,46,19,17,-1,46,17,48,-1,48,17,15,-1,48,15,51,-1,51,15,12,-1,51,12,53,-1,53,12,10,-1,53,10,55,-1,55,10,8,-1,55,8,57,-1,57,8,6,-1,57,6,59,-1,59,6,4,-1,59,4,61,-1,61,4,2,-1,61,2,63,-1,63,2,1,-1,63,1,64,-1,64,1,65,-1,28,36,26,-1,26,36,37,-1,26,37,24,-1,24,37,39,-1,24,39,22,-1,22,39,41,-1,22,41,20,-1,20,41,43,-1,20,43,18,-1,18,43,45,-1,18,45,16,-1,16,45,47,-1,16,47,14,-1,14,47,49,-1,14,49,13,-1,13,49,50,-1,13,50,11,-1,11,50,52,-1,11,52,9,-1,9,52,54,-1,9,54,7,-1,7,54,56,-1,7,56,5,-1,5,56,58,-1,5,58,3,-1,3,58,60,-1,3,60,0,-1,0,60,62,-1,0,62,66,-1,66,62,67,-1,65,1,66,-1,66,1,0,-1,62,63,67,-1,67,63,64,-1,36,33,34,-1,34,33,31,-1,28,32,36,-1,36,32,33,-1,30,29,31,-1,31,29,34,-1,29,30,28,-1,28,30,32,-1,
        ]
    }
}
Shape{
    appearance Appearance {
        material  Material 	{
            diffuseColor 1.0 0.9411764705882353 0.8117647058823529
            specularColor 0.30196078431372547 0.2823529411764706 0.24313725490196078
            ambientIntensity 0.944
            transparency 0.0
            shininess 0.5
        }
    }
    geometry IndexedFaceSet {
        ccw TRUE
        solid FALSE
        coord DEF co Coordinate {
            point [
                -0.6398 -0.1673 0.8976, -0.6398 -0.1673 1.7835, -0.6398 -0.0885 0.9764, -0.6398 -0.0885 1.7835, -0.2953 -0.0885 1.3307, -0.1476 -0.0885 1.9213, -0.1476 -0.0885 0.9764, -0.3346 -0.0885 1.9213, -0.3346 -0.0885 1.7835, -0.4921 -0.0885 1.3307, -0.4921 -0.0885 1.1339, -0.2953 -0.0885 1.1339, -0.1476 -0.1673 0.8976, -0.1476 -0.1673 1.9213
            ]
        }
        coordIndex [
            0,1,2,-1,2,1,3,-1,4,5,6,-1,7,5,8,-1,8,5,4,-1,8,4,3,-1,3,4,9,-1,3,9,2,-1,2,9,10,-1,2,10,6,-1,6,10,11,-1,6,11,4,-1,6,5,12,-1,12,5,13,-1,
        ]
    }
}
Shape{
    appearance Appearance {
        material  Material 	{
            diffuseColor 0.6666666666666666 0.6980392156862745 0.7686274509803922
            specularColor 0.3333333333333333 0.34901960784313724 0.3843137254901961
            ambientIntensity 0.6967
            transparency 0.0
            shininess 0.5
        }
    }
    geometry IndexedFaceSet {
        ccw TRUE
        solid FALSE
        coord DEF co Coordinate {
            point [
                -0.4467 1.1713 1.1793, -0.4467 1.1713 1.2852, -0.3407 1.1713 1.1793, -0.3407 1.1713 1.2852, -0.4921 1.0926 1.1339, -0.2953 1.0926 1.1339, -0.2953 1.0926 1.3307, -0.4921 1.0926 1.3307, -0.4921 -0.0885 1.3307, -0.4921 -0.0885 1.1339, -0.2953 -0.0885 1.1339, -0.2953 -0.0885 1.3307
            ]
        }
        coordIndex [
            0,1,2,-1,2,1,3,-1,4,0,5,-1,5,0,2,-1,6,3,7,-1,7,3,1,-1,5,2,6,-1,6,2,3,-1,0,4,1,-1,1,4,7,-1,7,4,8,-1,8,4,9,-1,10,5,11,-1,11,5,6,-1,6,7,11,-1,11,7,8,-1,9,4,10,-1,10,4,5,-1,
        ]
    }
}
Shape{
    appearance Appearance {
        material  Material 	{
            diffuseColor 1.0 0.9411764705882353 0.8117647058823529
            specularColor 0.30196078431372547 0.2823529411764706 0.24313725490196078
            ambientIntensity 0.944
            transparency 0.0
            shininess 0.5
        }
    }
    geometry IndexedFaceSet {
        ccw TRUE
        solid FALSE
        coord DEF co Coordinate {
            point [
                -0.6398 -0.1673 0.8976, -0.6398 -0.0885 0.9764, -0.1476 -0.1673 0.8976, -0.1476 -0.0885 0.9764
            ]
        }
        coordIndex [
            0,1,2,-1,2,1,3,-1,
        ]
    }
}
Shape{
    appearance Appearance {
        material  Material 	{
            diffuseColor 0.6666666666666666 0.6980392156862745 0.7686274509803922
            specularColor 0.3333333333333333 0.34901960784313724 0.3843137254901961
            ambientIntensity 0.6967
            transparency 0.0
            shininess 0.5
        }
    }
    geometry IndexedFaceSet {
        ccw TRUE
        solid FALSE
        coord DEF co Coordinate {
            point [
                1.2795 1.2059 0.0118, 1.2795 1.179 0.0, 1.2795 0.5335 0.0, 1.2795 0.5131 0.0027, 1.2795 0.4941 0.0105, 1.2795 0.492 0.0118, 1.2795 1.5571 0.0105, 1.2795 1.5381 0.0027, 1.2795 1.5177 0.0, 1.2795 1.3721 0.0, 1.2795 1.3452 0.0118, 1.2795 1.5592 0.0118, 1.3976 1.179 0.0, 1.3976 1.2258 0.0178, 1.2795 1.2258 0.0178, 1.3976 1.2755 0.0239, 1.2795 1.2755 0.0239, 1.3976 1.3253 0.0178, 1.3976 1.3721 0.0, 1.2795 1.3253 0.0178, 1.3976 1.5177 0.0, 1.3976 1.5381 0.0027, 1.3976 1.5571 0.0105, 1.3976 1.5734 0.0231, 1.2795 1.5734 0.0231, 1.2795 1.5859 0.0394, 1.3976 1.5859 0.0394, 1.2795 1.5938 0.0584, 1.3976 1.5938 0.0584, 1.2795 1.5965 0.0787, 1.3976 1.5965 0.0787, 1.3976 1.5965 0.8709, 1.2795 1.5965 0.8709, 1.2795 1.5938 0.8913, 1.3976 1.5938 0.8913, 1.2795 1.5859 0.9103, 1.3976 1.5859 0.9103, 1.2795 1.5734 0.9266, 1.3976 1.5734 0.9266, 1.2795 1.5571 0.9391, 1.3976 1.5571 0.9391, 1.2795 1.5381 0.947, 1.3976 1.5381 0.947, 1.2795 1.5177 0.9497, 1.3976 1.5177 0.9497, 1.3976 1.4075 0.9497, 1.2795 1.4075 0.9497, 1.2795 0.4548 0.0787, 1.3976 0.4548 0.0787, 1.2795 0.4548 0.3268, 1.3976 0.4548 0.3268, 1.2795 0.4574 0.0584, 1.3976 0.4574 0.0584, 1.2795 0.4653 0.0394, 1.3976 0.4653 0.0394, 1.2795 0.4778 0.0231, 1.3976 0.4778 0.0231, 1.3976 0.4941 0.0105, 1.3976 0.5131 0.0027, 1.3976 0.5335 0.0, 1.3976 1.4075 0.3268, -1.2795 1.5177 0.9497, -1.3976 1.5177 0.9497, -1.2795 1.4075 0.9497, -1.3976 1.4075 0.9497, -1.3976 0.4548 0.0787, -1.2795 0.4548 0.0787, -1.3976 0.4548 0.3268, -1.2795 0.4548 0.3268, -1.3976 1.4075 0.3268, -1.3976 1.3253 0.0178, -1.3976 1.2755 0.0239, -1.3976 1.5965 0.8709, -1.3976 1.5381 0.947, -1.3976 1.5965 0.0787, -1.3976 1.5938 0.0584, -1.3976 1.5859 0.0394, -1.3976 1.5734 0.0231, -1.3976 1.5571 0.0105, -1.3976 1.3721 0.0, -1.3976 1.5177 0.0, -1.3976 1.5381 0.0027, -1.3976 0.4574 0.0584, -1.3976 0.5335 0.0, -1.3976 1.179 0.0, -1.3976 1.2258 0.0178, -1.3976 0.4941 0.0105, -1.3976 0.4778 0.0231, -1.3976 0.4653 0.0394, -1.3976 1.5571 0.9391, -1.3976 1.5734 0.9266, -1.3976 1.5938 0.8913, -1.3976 1.5859 0.9103, -1.3976 0.5131 0.0027, -1.2795 1.3452 0.0118, -1.2795 1.3721 0.0, -1.2795 1.5177 0.0, -1.2795 1.5381 0.0027, -1.2795 1.5571 0.0105, -1.2795 1.5592 0.0118, -1.2795 0.4941 0.0105, -1.2795 0.5131 0.0027, -1.2795 0.5335 0.0, -1.2795 1.179 0.0, -1.2795 1.2059 0.0118, -1.2795 0.492 0.0118, -1.2795 1.3253 0.0178, -1.2795 1.2755 0.0239, -1.2795 1.2258 0.0178, -1.2795 0.4778 0.0231, -1.2795 0.4653 0.0394, -1.2795 0.4574 0.0584, -1.2795 1.5381 0.947, -1.2795 1.5571 0.9391, -1.2795 1.5734 0.9266, -1.2795 1.5859 0.9103, -1.2795 1.5938 0.8913, -1.2795 1.5965 0.8709, -1.2795 1.5965 0.0787, -1.2795 1.5938 0.0584, -1.2795 1.5859 0.0394, -1.2795 1.5734 0.0231
            ]
        }
        coordIndex [
            0,1,2,-1,3,4,2,-1,2,4,5,-1,2,5,0,-1,6,7,8,-1,9,10,8,-1,8,10,11,-1,8,11,6,-1,12,1,0,-1,12,0,13,-1,13,0,14,-1,13,14,15,-1,15,14,16,-1,15,16,17,-1,9,18,10,-1,10,18,17,-1,10,17,19,-1,19,17,16,-1,20,18,8,-1,8,18,9,-1,20,8,7,-1,20,7,21,-1,21,7,6,-1,21,6,22,-1,22,6,11,-1,22,11,23,-1,11,24,23,-1,23,24,25,-1,23,25,26,-1,26,25,27,-1,26,27,28,-1,28,27,29,-1,28,29,30,-1,31,30,32,-1,32,30,29,-1,31,32,33,-1,31,33,34,-1,34,33,35,-1,34,35,36,-1,36,35,37,-1,36,37,38,-1,38,37,39,-1,38,39,40,-1,40,39,41,-1,40,41,42,-1,42,41,43,-1,42,43,44,-1,44,43,45,-1,45,43,46,-1,47,48,49,-1,49,48,50,-1,48,47,51,-1,48,51,52,-1,52,51,53,-1,52,53,54,-1,54,53,55,-1,54,55,56,-1,56,55,5,-1,56,5,57,-1,5,4,57,-1,57,4,3,-1,57,3,58,-1,58,3,2,-1,58,2,59,-1,12,59,1,-1,1,59,2,-1,28,30,60,-1,60,30,45,-1,45,30,31,-1,45,31,44,-1,13,60,50,-1,13,15,60,-1,60,15,17,-1,60,17,18,-1,50,48,13,-1,13,48,59,-1,13,59,12,-1,18,20,60,-1,60,20,21,-1,60,21,22,-1,36,38,34,-1,34,38,40,-1,34,40,31,-1,31,40,42,-1,31,42,44,-1,54,56,57,-1,22,23,60,-1,60,23,26,-1,60,26,28,-1,48,52,59,-1,59,52,54,-1,59,54,58,-1,58,54,57,-1,61,62,63,-1,63,62,64,-1,65,66,67,-1,67,66,68,-1,69,70,71,-1,64,62,72,-1,72,62,73,-1,64,72,69,-1,69,72,74,-1,69,74,75,-1,75,76,69,-1,69,76,77,-1,69,77,78,-1,79,70,80,-1,80,70,69,-1,80,69,81,-1,81,69,78,-1,82,65,83,-1,83,65,67,-1,83,67,84,-1,84,67,69,-1,84,69,85,-1,85,69,71,-1,86,87,88,-1,73,89,72,-1,72,89,90,-1,72,90,91,-1,91,90,92,-1,82,83,88,-1,88,83,93,-1,88,93,86,-1,94,95,96,-1,97,98,96,-1,96,98,99,-1,96,99,94,-1,100,101,102,-1,103,104,102,-1,102,104,105,-1,102,105,100,-1,79,95,94,-1,79,94,70,-1,70,94,106,-1,70,106,71,-1,71,106,107,-1,71,107,85,-1,103,84,104,-1,104,84,85,-1,104,85,108,-1,108,85,107,-1,83,84,102,-1,102,84,103,-1,83,102,101,-1,83,101,93,-1,93,101,100,-1,93,100,86,-1,86,100,105,-1,86,105,87,-1,105,109,87,-1,87,109,110,-1,87,110,88,-1,88,110,111,-1,88,111,82,-1,82,111,66,-1,82,66,65,-1,62,61,112,-1,62,112,73,-1,73,112,113,-1,73,113,89,-1,89,113,114,-1,89,114,90,-1,90,114,115,-1,90,115,92,-1,92,115,116,-1,92,116,91,-1,91,116,117,-1,91,117,72,-1,74,72,118,-1,118,72,117,-1,74,118,119,-1,74,119,75,-1,75,119,120,-1,75,120,76,-1,76,120,121,-1,76,121,77,-1,77,121,99,-1,77,99,78,-1,99,98,78,-1,78,98,97,-1,78,97,81,-1,81,97,96,-1,81,96,80,-1,79,80,95,-1,95,80,96,-1,
        ]
    }
}
Shape{
    appearance Appearance {
        material  Material 	{
            diffuseColor 1.0 0.9411764705882353 0.8117647058823529
            specularColor 0.30196078431372547 0.2823529411764706 0.24313725490196078
            ambientIntensity 0.944
            transparency 0.0
            shininess 0.5
        }
    }
    geometry IndexedFaceSet {
        ccw TRUE
        solid FALSE
        coord DEF co Coordinate {
            point [
                -0.2756 -0.6004 1.0354, 0.2756 -0.6004 1.0354, -0.2756 -0.7578 1.0354, 0.2756 -0.7578 1.0354, 0.2756 -0.6004 0.4055, -0.2756 -0.6004 0.4055, 0.2756 -0.7578 0.4055, -0.2756 -0.7578 0.4055, -1.063 -0.6004 1.0354, -0.5118 -0.6004 1.0354, -1.063 -0.7578 1.0354, -0.5118 -0.7578 1.0354, -0.5118 -0.6004 0.4055, -1.063 -0.6004 0.4055, -0.5118 -0.7578 0.4055, -1.063 -0.7578 0.4055, 0.5118 -0.6004 1.0354, 1.063 -0.6004 1.0354, 0.5118 -0.7578 1.0354, 1.063 -0.7578 1.0354, 1.063 -0.6004 0.4055, 1.063 -0.7578 0.4055, 0.5118 -0.6004 0.4055, 0.5118 -0.7578 0.4055
            ]
        }
        coordIndex [
            0,1,2,-1,2,1,3,-1,4,5,6,-1,6,5,7,-1,8,9,10,-1,10,9,11,-1,12,13,14,-1,14,13,15,-1,13,8,15,-1,15,8,10,-1,16,17,18,-1,18,17,19,-1,17,20,19,-1,19,20,21,-1,20,22,21,-1,21,22,23,-1,
        ]
    }
}
Shape{
    appearance Appearance {
        material  Material 	{
            diffuseColor 0.25098039215686274 0.25098039215686274 0.25098039215686274
            specularColor 0.12549019607843137 0.12549019607843137 0.12549019607843137
            ambientIntensity 0.251
            transparency 0.0
            shininess 0.5
        }
    }
    geometry IndexedFaceSet {
        ccw TRUE
        solid FALSE
        coord DEF co Coordinate {
            point [
                -0.3529 -0.1635 0.0122, -0.4297 -0.3603 0.0122, -0.3529 -0.1635 0.0118, -0.4297 -0.3603 0.0118, -0.4009 -0.3603 0.0122, -0.4009 -0.3603 0.0118, -0.381 -0.3051 0.0122, -0.381 -0.3051 0.0118, -0.2997 -0.3051 0.0122, -0.2997 -0.3051 0.0118, -0.2809 -0.3603 0.0122, -0.2809 -0.3603 0.0118, -0.2521 -0.3603 0.0122, -0.2521 -0.3603 0.0118, -0.3265 -0.1635 0.0122, -0.3265 -0.1635 0.0118, -0.3063 -0.2835 0.0122, -0.3721 -0.2835 0.0122, -0.3357 -0.2013 0.0122, -0.3376 -0.1945 0.0122, -0.3388 -0.1875 0.0122, -0.3395 -0.1875 0.0122, -0.3407 -0.1944 0.0122, -0.3425 -0.2013 0.0122, -0.3063 -0.2835 0.0118, -0.3721 -0.2835 0.0118, -0.3357 -0.2013 0.0118, -0.3376 -0.1945 0.0118, -0.3388 -0.1875 0.0118, -0.3395 -0.1875 0.0118, -0.3407 -0.1944 0.0118, -0.3425 -0.2013 0.0118, -0.1327 -0.3603 0.0122, -0.0792 -0.3603 0.0122, -0.1327 -0.3603 0.0118, -0.0792 -0.3603 0.0118, -0.0792 -0.1635 0.0122, -0.0792 -0.1635 0.0118, -0.1348 -0.1635 0.0122, -0.1348 -0.1635 0.0118, -0.2377 -0.2594 0.0122, -0.2377 -0.2594 0.0118, -0.2362 -0.2409 0.0118, -0.2362 -0.2409 0.0122, -0.2309 -0.2215 0.0118, -0.2309 -0.2215 0.0122, -0.2218 -0.2046 0.0118, -0.2218 -0.2046 0.0122, -0.2079 -0.1891 0.0118, -0.2079 -0.1891 0.0122, -0.2077 -0.189 0.0118, -0.2077 -0.189 0.0122, -0.1862 -0.1746 0.0118, -0.1862 -0.1746 0.0122, -0.1632 -0.1665 0.0118, -0.1632 -0.1665 0.0122, -0.1571 -0.3582 0.0118, -0.1571 -0.3582 0.0122, -0.1798 -0.3514 0.0118, -0.1798 -0.3514 0.0122, -0.2003 -0.3395 0.0118, -0.2003 -0.3395 0.0122, -0.2165 -0.324 0.0118, -0.2165 -0.324 0.0122, -0.2278 -0.3064 0.0118, -0.2278 -0.3064 0.0122, -0.2349 -0.2858 0.0118, -0.2349 -0.2858 0.0122, -0.1981 -0.2127 0.0122, -0.1886 -0.2025 0.0122, -0.1742 -0.1932 0.0122, -0.1579 -0.1876 0.0122, -0.1346 -0.1851 0.0122, -0.1056 -0.1851 0.0122, -0.1056 -0.3387 0.0122, -0.1336 -0.3387 0.0122, -0.1543 -0.3368 0.0122, -0.1709 -0.3316 0.0122, -0.1843 -0.3236 0.0122, -0.1954 -0.3127 0.0122, -0.2037 -0.2992 0.0122, -0.2094 -0.2807 0.0122, -0.2112 -0.26 0.0122, -0.2096 -0.2404 0.0122, -0.205 -0.2248 0.0122, -0.1346 -0.1851 0.0118, -0.1056 -0.1851 0.0118, -0.1579 -0.1876 0.0118, -0.1742 -0.1932 0.0118, -0.1886 -0.2025 0.0118, -0.1981 -0.2127 0.0118, -0.205 -0.2248 0.0118, -0.2096 -0.2404 0.0118, -0.2112 -0.26 0.0118, -0.2094 -0.2807 0.0118, -0.2037 -0.2992 0.0118, -0.1954 -0.3127 0.0118, -0.1843 -0.3236 0.0118, -0.1709 -0.3316 0.0118, -0.1543 -0.3368 0.0118, -0.1336 -0.3387 0.0118, -0.1056 -0.3387 0.0118, -0.0408 -0.3387 0.0122, -0.0408 -0.3603 0.0122, -0.0408 -0.3387 0.0118, -0.0408 -0.3603 0.0118, 0.0648 -0.3603 0.0122, 0.0648 -0.3603 0.0118, 0.0648 -0.1635 0.0122, 0.0648 -0.1635 0.0118, -0.036 -0.1635 0.0122, -0.036 -0.1635 0.0118, -0.036 -0.1851 0.0122, -0.036 -0.1851 0.0118, 0.0384 -0.1851 0.0122, 0.0384 -0.1851 0.0118, 0.0384 -0.2499 0.0122, 0.0384 -0.2499 0.0118, -0.0312 -0.2499 0.0122, -0.0312 -0.2499 0.0118, -0.0312 -0.2715 0.0122, -0.0312 -0.2715 0.0118, 0.0384 -0.2715 0.0122, 0.0384 -0.2715 0.0118, 0.0384 -0.3387 0.0122, 0.0384 -0.3387 0.0118, 0.1032 -0.3285 0.0122, 0.1032 -0.3501 0.0122, 0.1032 -0.3285 0.0118, 0.1032 -0.3501 0.0118, 0.1242 -0.3587 0.0122, 0.1574 -0.3627 0.0122, 0.1574 -0.3627 0.0118, 0.152 -0.3626 0.0118, 0.152 -0.3626 0.0122, 0.1441 -0.3615 0.0118, 0.1242 -0.3587 0.0118, 0.169 -0.3615 0.0118, 0.1817 -0.3602 0.0122, 0.1817 -0.3602 0.0118, 0.2007 -0.3536 0.0122, 0.2007 -0.3536 0.0118, 0.2166 -0.3435 0.0122, 0.2166 -0.3435 0.0118, 0.2314 -0.328 0.0122, 0.2314 -0.328 0.0118, 0.2418 -0.3092 0.0122, 0.2418 -0.3092 0.0118, 0.2478 -0.2884 0.0122, 0.2478 -0.2884 0.0118, 0.2497 -0.2656 0.0122, 0.2497 -0.2656 0.0118, 0.1496 -0.1611 0.0122, 0.1496 -0.1611 0.0118, 0.1693 -0.1627 0.0118, 0.1693 -0.1627 0.0122, 0.1913 -0.1691 0.0118, 0.1913 -0.1691 0.0122, 0.21 -0.1798 0.0118, 0.21 -0.1798 0.0122, 0.2277 -0.1969 0.0118, 0.2277 -0.1969 0.0122, 0.2393 -0.2153 0.0118, 0.2393 -0.2153 0.0122, 0.2468 -0.2376 0.0118, 0.2468 -0.2376 0.0122, 0.1032 -0.1689 0.0122, 0.1032 -0.1689 0.0118, 0.126 -0.1627 0.0118, 0.126 -0.1627 0.0122, 0.1032 -0.1953 0.0122, 0.1032 -0.1953 0.0118, 0.1493 -0.1827 0.0122, 0.1493 -0.1827 0.0118, 0.1254 -0.1858 0.0118, 0.1254 -0.1858 0.0122, 0.2233 -0.264 0.0122, 0.2233 -0.264 0.0118, 0.2223 -0.2487 0.0118, 0.2223 -0.2487 0.0122, 0.2171 -0.2276 0.0118, 0.2171 -0.2276 0.0122, 0.209 -0.2124 0.0118, 0.209 -0.2124 0.0122, 0.1971 -0.1993 0.0118, 0.1971 -0.1993 0.0122, 0.1835 -0.1902 0.0118, 0.1835 -0.1902 0.0122, 0.1687 -0.1849 0.0118, 0.1687 -0.1849 0.0122, 0.1538 -0.3411 0.0122, 0.1538 -0.3411 0.0118, 0.1721 -0.3391 0.0118, 0.1721 -0.3391 0.0122, 0.1865 -0.3338 0.0118, 0.1865 -0.3338 0.0122, 0.1985 -0.3256 0.0118, 0.1985 -0.3256 0.0122, 0.2078 -0.3159 0.0118, 0.2078 -0.3159 0.0122, 0.2159 -0.3022 0.0118, 0.2159 -0.3022 0.0122, 0.2213 -0.2853 0.0118, 0.2213 -0.2853 0.0122, 0.1068 -0.3305 0.0118, 0.1068 -0.3305 0.0122, 0.1276 -0.3382 0.0118, 0.1276 -0.3382 0.0122, 0.2665 -0.3387 0.0122, 0.2665 -0.3603 0.0122, 0.2665 -0.3387 0.0118, 0.2665 -0.3603 0.0118, 0.3673 -0.3603 0.0122, 0.3673 -0.3603 0.0118, 0.3673 -0.1635 0.0122, 0.3673 -0.1635 0.0118, 0.3409 -0.1635 0.0122, 0.3409 -0.1635 0.0118, 0.3409 -0.3387 0.0122, 0.3409 -0.3387 0.0118
            ]
        }
        coordIndex [
            0,1,2,-1,2,1,3,-1,1,4,3,-1,3,4,5,-1,4,6,5,-1,5,6,7,-1,6,8,7,-1,7,8,9,-1,8,10,9,-1,9,10,11,-1,10,12,11,-1,11,12,13,-1,12,14,13,-1,13,14,15,-1,14,0,15,-1,15,0,2,-1,16,8,17,-1,17,8,6,-1,18,14,16,-1,16,14,12,-1,16,12,8,-1,8,12,10,-1,18,19,14,-1,14,19,20,-1,14,20,0,-1,0,20,21,-1,0,21,22,-1,22,23,0,-1,0,23,17,-1,0,17,1,-1,1,17,6,-1,1,6,4,-1,16,17,24,-1,24,17,25,-1,18,16,26,-1,26,16,24,-1,18,26,27,-1,18,27,19,-1,19,27,28,-1,19,28,20,-1,21,20,29,-1,29,20,28,-1,21,29,30,-1,21,30,22,-1,22,30,31,-1,22,31,23,-1,17,23,25,-1,25,23,31,-1,32,33,34,-1,34,33,35,-1,33,36,35,-1,35,36,37,-1,36,38,37,-1,37,38,39,-1,40,41,42,-1,40,42,43,-1,43,42,44,-1,43,44,45,-1,45,44,46,-1,45,46,47,-1,47,46,48,-1,47,48,49,-1,49,48,50,-1,49,50,51,-1,51,50,52,-1,51,52,53,-1,53,52,54,-1,53,54,55,-1,55,54,39,-1,55,39,38,-1,32,34,56,-1,32,56,57,-1,57,56,58,-1,57,58,59,-1,59,58,60,-1,59,60,61,-1,61,60,62,-1,61,62,63,-1,63,62,64,-1,63,64,65,-1,65,64,66,-1,65,66,67,-1,67,66,41,-1,67,41,40,-1,45,47,68,-1,68,47,49,-1,68,49,69,-1,69,49,51,-1,69,51,70,-1,70,51,53,-1,70,53,71,-1,71,53,55,-1,71,55,72,-1,72,55,38,-1,72,38,73,-1,73,38,36,-1,73,36,74,-1,74,36,33,-1,74,33,75,-1,75,33,32,-1,75,32,76,-1,76,32,57,-1,76,57,77,-1,77,57,59,-1,77,59,78,-1,78,59,61,-1,78,61,79,-1,79,61,63,-1,79,63,80,-1,80,63,65,-1,80,65,81,-1,81,65,67,-1,81,67,82,-1,82,67,40,-1,82,40,83,-1,83,40,43,-1,83,43,84,-1,84,43,45,-1,84,45,68,-1,72,73,85,-1,85,73,86,-1,72,85,87,-1,72,87,71,-1,71,87,88,-1,71,88,70,-1,70,88,89,-1,70,89,69,-1,69,89,90,-1,69,90,68,-1,68,90,91,-1,68,91,84,-1,84,91,92,-1,84,92,83,-1,83,92,93,-1,83,93,82,-1,82,93,94,-1,82,94,81,-1,81,94,95,-1,81,95,80,-1,80,95,96,-1,80,96,79,-1,79,96,97,-1,79,97,78,-1,78,97,98,-1,78,98,77,-1,77,98,99,-1,77,99,76,-1,76,99,100,-1,76,100,75,-1,74,75,101,-1,101,75,100,-1,73,74,86,-1,86,74,101,-1,102,103,104,-1,104,103,105,-1,103,106,105,-1,105,106,107,-1,106,108,107,-1,107,108,109,-1,108,110,109,-1,109,110,111,-1,110,112,111,-1,111,112,113,-1,112,114,113,-1,113,114,115,-1,114,116,115,-1,115,116,117,-1,116,118,117,-1,117,118,119,-1,118,120,119,-1,119,120,121,-1,120,122,121,-1,121,122,123,-1,122,124,123,-1,123,124,125,-1,124,102,125,-1,125,102,104,-1,106,103,102,-1,102,124,106,-1,106,124,122,-1,106,122,108,-1,112,110,114,-1,114,110,108,-1,114,108,116,-1,116,108,122,-1,116,122,118,-1,118,122,120,-1,126,127,128,-1,128,127,129,-1,129,127,130,-1,131,132,133,-1,131,133,134,-1,134,133,135,-1,134,135,130,-1,130,135,136,-1,130,136,129,-1,132,131,137,-1,137,131,138,-1,137,138,139,-1,139,138,140,-1,139,140,141,-1,141,140,142,-1,141,142,143,-1,143,142,144,-1,143,144,145,-1,145,144,146,-1,145,146,147,-1,147,146,148,-1,147,148,149,-1,149,148,150,-1,149,150,151,-1,152,153,154,-1,152,154,155,-1,155,154,156,-1,155,156,157,-1,157,156,158,-1,157,158,159,-1,159,158,160,-1,159,160,161,-1,161,160,162,-1,161,162,163,-1,163,162,164,-1,163,164,165,-1,165,164,151,-1,165,151,150,-1,166,167,168,-1,166,168,169,-1,169,168,153,-1,169,153,152,-1,166,170,167,-1,167,170,171,-1,172,173,174,-1,172,174,175,-1,175,174,171,-1,175,171,170,-1,176,177,178,-1,176,178,179,-1,179,178,180,-1,179,180,181,-1,181,180,182,-1,181,182,183,-1,183,182,184,-1,183,184,185,-1,185,184,186,-1,185,186,187,-1,187,186,188,-1,187,188,189,-1,189,188,173,-1,189,173,172,-1,190,191,192,-1,190,192,193,-1,193,192,194,-1,193,194,195,-1,195,194,196,-1,195,196,197,-1,197,196,198,-1,197,198,199,-1,199,198,200,-1,199,200,201,-1,201,200,202,-1,201,202,203,-1,203,202,177,-1,203,177,176,-1,126,128,204,-1,126,204,205,-1,205,204,206,-1,205,206,207,-1,207,206,191,-1,207,191,190,-1,193,131,190,-1,190,131,134,-1,190,134,207,-1,207,134,130,-1,207,130,205,-1,205,130,127,-1,205,127,126,-1,170,166,175,-1,175,166,169,-1,175,169,172,-1,172,169,152,-1,172,152,189,-1,189,152,155,-1,189,155,187,-1,187,155,157,-1,187,157,185,-1,185,157,159,-1,185,159,183,-1,183,159,161,-1,183,161,181,-1,181,161,163,-1,181,163,179,-1,179,163,165,-1,179,165,176,-1,176,165,150,-1,176,150,203,-1,203,150,148,-1,203,148,201,-1,201,148,146,-1,201,146,199,-1,199,146,144,-1,199,144,197,-1,197,144,142,-1,197,142,195,-1,195,142,140,-1,195,140,193,-1,193,140,138,-1,193,138,131,-1,208,209,210,-1,210,209,211,-1,209,212,211,-1,211,212,213,-1,212,214,213,-1,213,214,215,-1,214,216,215,-1,215,216,217,-1,216,218,217,-1,217,218,219,-1,218,208,219,-1,219,208,210,-1,216,214,218,-1,218,214,212,-1,218,212,208,-1,208,212,209,-1,
        ]
    }
}
Shape{
    appearance Appearance {
        material  Material 	{
            diffuseColor 1.0 0.9411764705882353 0.8117647058823529
            specularColor 0.30196078431372547 0.2823529411764706 0.24313725490196078
            ambientIntensity 0.944
            transparency 0.0
            shininess 0.5
        }
    }
    geometry IndexedFaceSet {
        ccw TRUE
        solid FALSE
        coord DEF co Coordinate {
            point [
                -0.3063 -0.2835 0.0118, -0.3721 -0.2835 0.0118, -0.3357 -0.2013 0.0118, -0.3425 -0.2013 0.0118, -0.3376 -0.1945 0.0118, -0.3407 -0.1944 0.0118, -0.3388 -0.1875 0.0118, -0.3395 -0.1875 0.0118, -0.1056 -0.1851 0.0118, -0.1056 -0.3387 0.0118, -0.1346 -0.1851 0.0118, -0.1336 -0.3387 0.0118, -0.1543 -0.3368 0.0118, -0.2112 -0.26 0.0118, -0.2096 -0.2404 0.0118, -0.205 -0.2248 0.0118, -0.1579 -0.1876 0.0118, -0.1709 -0.3316 0.0118, -0.1843 -0.3236 0.0118, -0.1954 -0.3127 0.0118, -0.2037 -0.2992 0.0118, -0.2094 -0.2807 0.0118, -0.1981 -0.2127 0.0118, -0.1886 -0.2025 0.0118, -0.1742 -0.1932 0.0118, 1.0039 1.6044 0.1693, 0.9252 1.5256 0.248, 1.0039 1.6044 1.0748, 0.9252 1.5256 1.0748, -1.0039 1.6044 0.1693, -0.9252 1.5256 0.248, -1.0039 1.6044 1.0748, -0.9252 1.5256 1.0748, 0.9252 1.5256 1.7835, 1.0039 1.6044 1.8622, 0.9252 1.5256 1.3898, 1.0039 1.6044 1.3898, 0.3347 1.5256 1.7835, 0.4134 1.6044 1.8622, 0.3347 1.5256 1.9213, 0.4134 1.6044 2.0, -0.3346 1.5256 1.9213, -0.4134 1.6044 2.0, -0.3346 1.5256 1.7835, -0.4134 1.6044 1.8622, -0.9252 1.5256 1.7835, -1.0039 1.6044 1.8622, -1.0039 1.6044 1.3898, -0.9252 1.5256 1.3898
            ]
        }
        coordIndex [
            0,1,2,-1,2,1,3,-1,2,3,4,-1,4,3,5,-1,4,5,6,-1,6,5,7,-1,8,9,10,-1,10,9,11,-1,10,11,12,-1,13,14,10,-1,10,14,15,-1,10,15,16,-1,12,17,10,-1,10,17,18,-1,10,18,19,-1,19,20,10,-1,10,20,21,-1,10,21,13,-1,22,23,15,-1,15,23,24,-1,15,24,16,-1,25,26,27,-1,27,26,28,-1,29,30,25,-1,25,30,26,-1,31,32,29,-1,29,32,30,-1,33,34,35,-1,35,34,36,-1,37,38,33,-1,33,38,34,-1,39,40,37,-1,37,40,38,-1,41,42,39,-1,39,42,40,-1,43,44,41,-1,41,44,42,-1,45,46,43,-1,43,46,44,-1,46,45,47,-1,47,45,48,-1,
        ]
    }
}