#VRML V2.0 utf8
# 3D model generated by easyeda2kicad.py (https://github.com/uPesy/easyeda2kicad.py)

Shape{
    appearance Appearance {
        material  Material 	{
            diffuseColor 0.7529411764705882 0.7529411764705882 0.7529411764705882
            specularColor 0.3764705882352941 0.3764705882352941 0.3764705882352941
            ambientIntensity 0.7529
            transparency 0.0
            shininess 0.5
        }
    }
    geometry IndexedFaceSet {
        ccw TRUE
        solid FALSE
        coord DEF co Coordinate {
            point [
                -1.4213 -1.1148 0.1493, -1.4213 -1.0137 0.2504, -1.5197 -1.1148 0.1493, -1.5197 -1.0137 0.2504, -1.5197 -1.0137 0.9591, -1.4213 -1.0137 0.9591, -1.5197 0.199 0.9591, -1.4213 0.199 0.9591, -1.5197 0.199 1.0394, -1.4213 0.199 1.0394, -1.5197 0.2777 1.1181, -1.4213 0.2777 1.1181, -1.5197 0.4726 1.1181, -1.4213 0.4726 1.1181, -1.4213 0.4908 1.1137, -1.4213 0.5296 1.0935, -1.5197 0.4908 1.1137, -1.5197 0.5296 1.0935, -1.4213 0.5508 1.0586, -1.4213 0.5508 0.5879, -1.5197 0.5508 1.0586, -1.5197 0.5508 0.5879, -1.4213 0.5299 0.5531, -1.4213 0.5114 0.5433, -1.5197 0.5299 0.5531, -1.5197 0.5114 0.5433, -1.5197 0.5114 0.0551, -1.4213 0.5114 0.0551, -1.5197 -0.3923 0.0551, -1.4213 -0.3923 0.0551, -1.5197 -0.5437 0.0, -1.4213 -0.5437 0.0, -1.5197 -1.0904 0.0, -1.4213 -1.0904 0.0, -1.5197 -1.1264 0.1215, -1.5197 -1.1264 0.036, -1.4213 -1.1264 0.1215, -1.4213 -1.1264 0.036, -1.5197 0.5499 1.0671, -1.5197 -1.1252 0.0266, -1.5197 0.5367 1.0888, -1.5197 0.5499 0.5795, -1.5197 0.5472 0.5714, -1.5197 0.5428 0.5641, -1.5197 0.5369 0.5579, -1.5197 -1.1087 0.0045, -1.5197 -1.1165 0.0099, -1.5197 -1.1219 0.0177, -1.5197 0.482 1.117, -1.5197 -1.125 0.1317, -1.5197 -1.1211 0.1412, -1.5197 0.5426 1.0826, -1.5197 0.5471 1.0752, -1.5197 -1.0998 0.0011, -1.4213 0.5471 1.0752, -1.4213 0.5426 1.0826, -1.4213 0.5367 1.0888, -1.4213 0.482 1.117, -1.4213 0.5499 1.0671, -1.4213 0.5369 0.5579, -1.4213 0.5428 0.5641, -1.4213 0.5472 0.5714, -1.4213 0.5499 0.5795, -1.4213 -1.1211 0.1412, -1.4213 -1.1252 0.0266, -1.4213 -1.1219 0.0177, -1.4213 -1.125 0.1317, -1.4213 -1.1165 0.0099, -1.4213 -1.1087 0.0045, -1.4213 -1.0998 0.0011, 1.4213 -1.0137 0.2504, 1.4213 -1.1148 0.1493, 1.5197 -1.0137 0.2504, 1.5197 -1.1148 0.1493, 1.5197 -1.0137 0.9591, 1.4213 -1.0137 0.9591, 1.5197 0.199 0.9591, 1.4213 0.199 0.9591, 1.5197 0.199 1.0394, 1.4213 0.199 1.0394, 1.5197 0.2777 1.1181, 1.4213 0.2777 1.1181, 1.4213 0.4726 1.1181, 1.5197 0.4726 1.1181, 1.4213 0.5296 1.0935, 1.4213 0.4908 1.1137, 1.5197 0.5296 1.0935, 1.5197 0.4908 1.1137, 1.4213 0.5508 0.5879, 1.4213 0.5508 1.0586, 1.5197 0.5508 0.5879, 1.5197 0.5508 1.0586, 1.4213 0.5114 0.5433, 1.4213 0.5299 0.5531, 1.5197 0.5114 0.5433, 1.5197 0.5299 0.5531, 1.5197 0.5114 0.0551, 1.4213 0.5114 0.0551, 1.5197 -0.3923 0.0551, 1.4213 -0.3923 0.0551, 1.5197 -0.5437 0.0, 1.4213 -0.5437 0.0, 1.5197 -1.0904 0.0, 1.4213 -1.0904 0.0, 1.5197 -1.1264 0.036, 1.5197 -1.1264 0.1215, 1.4213 -1.1264 0.036, 1.4213 -1.1264 0.1215, 1.5197 0.5471 1.0752, 1.5197 0.5426 1.0826, 1.5197 0.5367 1.0888, 1.5197 0.482 1.117, 1.5197 0.5499 0.5795, 1.5197 0.5369 0.5579, 1.5197 0.5499 1.0671, 1.5197 0.5428 0.5641, 1.5197 0.5472 0.5714, 1.5197 -1.1197 0.1434, 1.5197 -1.1234 0.1366, 1.5197 -1.1256 0.1292, 1.5197 -1.1252 0.0266, 1.5197 -1.1219 0.0177, 1.5197 -1.1165 0.0099, 1.5197 -1.1087 0.0045, 1.5197 -1.0998 0.0011, 1.4213 0.5367 1.0888, 1.4213 0.5426 1.0826, 1.4213 0.5471 1.0752, 1.4213 0.5472 0.5714, 1.4213 0.5499 0.5795, 1.4213 0.482 1.117, 1.4213 0.5499 1.0671, 1.4213 0.5428 0.5641, 1.4213 0.5369 0.5579, 1.4213 -1.1256 0.1292, 1.4213 -1.1252 0.0266, 1.4213 -1.1087 0.0045, 1.4213 -1.1165 0.0099, 1.4213 -1.1219 0.0177, 1.4213 -1.1234 0.1366, 1.4213 -1.1197 0.1434, 1.4213 -1.0998 0.0011
            ]
        }
        coordIndex [
            0,1,2,-1,2,1,3,-1,4,3,5,-1,5,3,1,-1,6,4,7,-1,7,4,5,-1,8,6,9,-1,9,6,7,-1,10,8,11,-1,11,8,9,-1,12,10,13,-1,13,10,11,-1,14,15,16,-1,16,15,17,-1,18,19,20,-1,20,19,21,-1,22,23,24,-1,24,23,25,-1,26,25,27,-1,27,25,23,-1,28,26,29,-1,29,26,27,-1,30,28,31,-1,31,28,29,-1,32,30,33,-1,33,30,31,-1,34,35,36,-1,36,35,37,-1,38,20,8,-1,25,4,24,-1,24,4,6,-1,39,35,32,-1,8,17,40,-1,41,42,6,-1,25,26,4,-1,4,26,28,-1,4,28,3,-1,8,10,12,-1,8,20,6,-1,6,20,21,-1,6,21,41,-1,42,43,6,-1,6,43,44,-1,6,44,24,-1,32,35,30,-1,45,46,47,-1,12,48,8,-1,8,48,16,-1,8,16,17,-1,49,50,28,-1,28,50,2,-1,28,2,3,-1,40,51,8,-1,8,51,52,-1,8,52,38,-1,39,32,47,-1,47,32,53,-1,47,53,45,-1,30,35,28,-1,28,35,34,-1,28,34,49,-1,33,31,29,-1,54,55,56,-1,23,22,7,-1,19,14,57,-1,11,9,13,-1,13,9,7,-1,7,5,23,-1,23,5,29,-1,23,29,27,-1,14,19,15,-1,15,19,18,-1,15,18,56,-1,56,18,58,-1,56,58,54,-1,22,59,7,-1,7,59,60,-1,7,60,61,-1,57,13,19,-1,19,13,7,-1,19,7,62,-1,62,7,61,-1,5,1,29,-1,29,1,0,-1,29,0,63,-1,29,37,33,-1,33,37,64,-1,33,64,65,-1,63,66,29,-1,29,66,36,-1,29,36,37,-1,67,68,65,-1,65,68,69,-1,65,69,33,-1,12,13,57,-1,12,57,48,-1,48,57,14,-1,48,14,16,-1,17,15,56,-1,17,56,40,-1,40,56,55,-1,40,55,51,-1,51,55,54,-1,51,54,52,-1,52,54,58,-1,52,58,38,-1,38,58,18,-1,38,18,20,-1,21,19,62,-1,21,62,41,-1,41,62,61,-1,41,61,42,-1,42,61,60,-1,42,60,43,-1,43,60,59,-1,43,59,44,-1,44,59,22,-1,44,22,24,-1,34,36,66,-1,34,66,49,-1,49,66,63,-1,49,63,50,-1,50,63,0,-1,50,0,2,-1,32,33,69,-1,32,69,53,-1,53,69,68,-1,53,68,45,-1,45,68,67,-1,45,67,46,-1,46,67,65,-1,46,65,47,-1,47,65,64,-1,47,64,39,-1,39,64,37,-1,39,37,35,-1,70,71,72,-1,72,71,73,-1,72,74,70,-1,70,74,75,-1,74,76,75,-1,75,76,77,-1,76,78,77,-1,77,78,79,-1,78,80,79,-1,79,80,81,-1,82,81,83,-1,83,81,80,-1,84,85,86,-1,86,85,87,-1,88,89,90,-1,90,89,91,-1,92,93,94,-1,94,93,95,-1,94,96,92,-1,92,96,97,-1,96,98,97,-1,97,98,99,-1,98,100,99,-1,99,100,101,-1,100,102,101,-1,101,102,103,-1,104,105,106,-1,106,105,107,-1,98,96,94,-1,108,109,110,-1,83,90,111,-1,111,90,87,-1,80,78,83,-1,83,78,76,-1,83,76,90,-1,90,76,112,-1,73,100,72,-1,72,100,98,-1,72,98,74,-1,74,98,94,-1,74,94,76,-1,76,94,95,-1,76,95,113,-1,87,90,86,-1,86,90,91,-1,86,91,110,-1,110,91,114,-1,110,114,108,-1,113,115,76,-1,76,115,116,-1,76,116,112,-1,73,117,100,-1,100,117,118,-1,100,118,119,-1,119,105,100,-1,100,105,104,-1,100,104,102,-1,102,104,120,-1,102,120,121,-1,122,123,121,-1,121,123,124,-1,121,124,102,-1,89,88,84,-1,84,88,85,-1,92,75,93,-1,93,75,77,-1,125,126,127,-1,128,77,129,-1,129,77,88,-1,99,101,71,-1,92,97,75,-1,75,97,99,-1,75,99,70,-1,70,99,71,-1,79,81,77,-1,77,81,82,-1,77,82,88,-1,88,82,130,-1,88,130,85,-1,125,127,84,-1,84,127,131,-1,84,131,89,-1,128,132,77,-1,77,132,133,-1,77,133,93,-1,101,107,134,-1,107,101,106,-1,106,101,103,-1,106,103,135,-1,136,137,138,-1,134,139,101,-1,101,139,140,-1,101,140,71,-1,135,103,138,-1,138,103,141,-1,138,141,136,-1,87,85,130,-1,87,130,111,-1,111,130,82,-1,111,82,83,-1,91,89,131,-1,91,131,114,-1,114,131,127,-1,114,127,108,-1,108,127,126,-1,108,126,109,-1,109,126,125,-1,109,125,110,-1,110,125,84,-1,110,84,86,-1,95,93,133,-1,95,133,113,-1,113,133,132,-1,113,132,115,-1,115,132,128,-1,115,128,116,-1,116,128,129,-1,116,129,112,-1,112,129,88,-1,112,88,90,-1,73,71,140,-1,73,140,117,-1,117,140,139,-1,117,139,118,-1,118,139,134,-1,118,134,119,-1,119,134,107,-1,119,107,105,-1,122,137,136,-1,122,136,123,-1,123,136,141,-1,123,141,124,-1,124,141,103,-1,124,103,102,-1,104,106,135,-1,104,135,120,-1,120,135,138,-1,120,138,121,-1,121,138,137,-1,121,137,122,-1,
        ]
    }
}
Shape{
    appearance Appearance {
        material  Material 	{
            diffuseColor 1.0 0.9764705882352941 0.9058823529411765
            specularColor 0.5019607843137255 0.48627450980392156 0.45098039215686275
            ambientIntensity 0.9755
            transparency 0.0
            shininess 0.5
        }
    }
    geometry IndexedFaceSet {
        ccw TRUE
        solid FALSE
        coord DEF co Coordinate {
            point [
                -1.6339 0.3106 0.1654, -1.6339 -1.1461 0.1654, -1.6339 0.3106 0.1654, -1.6339 -1.1461 1.2362, -1.6339 0.3106 1.2362, -1.4213 -1.1264 0.1654, -1.4213 -1.1461 0.1654, -1.5197 -1.1264 0.1654, -1.5197 0.3106 0.1654, -1.5197 0.3106 1.189, -1.5197 -1.1264 1.189, -1.5197 0.3106 0.1654, 0.0907 -0.3528 0.0354, 0.0663 -0.3431 0.0354, 0.1222 -0.2 0.0354, 0.0949 -0.1768 0.0354, 0.0891 -0.1772 0.0354, 0.0279 -0.178 0.0354, 0.0663 -0.1834 0.0354, 0.0663 -0.2098 0.0354, 0.1169 -0.3557 0.0354, -0.0969 -0.1768 0.0354, -0.0729 -0.178 0.0354, -0.0729 -0.1996 0.0354, 0.0015 -0.1996 0.0354, 0.0015 -0.2644 0.0354, -0.0681 -0.2644 0.0354, -0.0681 -0.2861 0.0354, 0.1664 -0.2207 0.0354, 0.1733 -0.2288 0.0354, 0.1389 -0.3505 0.0354, 0.1786 -0.2392 0.0354, 0.1829 -0.2544 0.0354, 0.1864 -0.2786 0.0354, 0.1817 -0.3025 0.0354, 0.1527 -0.3454 0.0354, 0.1545 -0.2124 0.0354, 0.1748 -0.3232 0.0354, 0.1681 -0.3337 0.0354, 0.1621 -0.3397 0.0354, 0.1124 -0.1972 0.0354, 0.0886 -0.2003 0.0354, 0.0279 -0.3749 0.0354, 0.0663 -0.3647 0.0354, -0.0969 -1.1461 0.0354, -0.0777 -0.3749 0.0354, -0.0777 -0.3533 0.0354, 0.0015 -0.3533 0.0354, 0.0015 -0.2861 0.0354, 0.304 -0.3533 0.0354, 0.2128 -0.2802 0.0354, 0.304 -0.178 0.0354, 0.2104 -0.269 0.0354, 0.1966 -0.2238 0.0354, 0.0927 -0.3745 0.0354, 0.1205 -0.3773 0.0354, 0.1361 -0.3732 0.0354, 0.1867 -0.2072 0.0354, 0.1767 -0.1973 0.0354, 0.1635 -0.1893 0.0354, 0.1733 -0.3596 0.0354, 0.2296 -0.3749 0.0354, 1.4213 -1.1461 0.0354, 0.3304 -0.3749 0.0354, 1.4213 -0.1768 0.0354, 0.3304 -0.178 0.0354, 0.1182 -0.1768 0.0354, 0.1439 -0.1824 0.0354, 0.1875 -0.3499 0.0354, 0.1961 -0.3403 0.0354, 0.2296 -0.3533 0.0354, 0.2026 -0.3278 0.0354, 0.2081 -0.3093 0.0354, 0.1526 0.3106 0.0354, 0.2411 0.3106 0.0354, 0.5463 0.3106 0.0354, 0.6348 0.3106 0.0354, 0.94 0.3106 0.0354, 1.4213 0.3106 0.0354, -0.3898 -0.178 0.0354, -0.4666 -0.3749 0.0354, -1.4213 -1.1461 0.0354, -0.4179 -0.3197 0.0354, -0.3366 -0.3197 0.0354, -0.4378 -0.3749 0.0354, -0.3178 -0.3749 0.0354, -0.289 -0.3749 0.0354, -0.1852 -0.1807 0.0354, -0.2274 -0.1932 0.0354, -0.3634 -0.178 0.0354, -1.4213 -0.1768 0.0354, -0.1717 -0.178 0.0354, -0.2434 -0.2026 0.0354, -0.2531 -0.2122 0.0354, -0.2609 -0.2249 0.0354, -0.2561 -0.33 0.0354, -0.2454 -0.3461 0.0354, -0.235 -0.3557 0.0354, -0.2214 -0.3631 0.0354, -0.2678 -0.2438 0.0354, -0.2746 -0.274 0.0354, -0.2715 -0.2857 0.0354, -0.2014 -0.3693 0.0354, -0.1696 -0.3749 0.0354, -0.1161 -0.3749 0.0354, -0.1161 -0.178 0.0354, -1.4213 0.3106 0.0354, -1.3287 0.3106 0.0354, -0.94 0.3106 0.0354, -0.6348 0.3106 0.0354, -0.5463 0.3106 0.0354, 0.1127 -0.1756 0.0354, -0.0969 0.3106 0.0354, -0.1526 0.3106 0.0354, -1.2992 -1.087 0.9114, -1.2992 -0.0043 0.9114, -1.2992 -1.087 1.0295, -1.2992 -0.0043 1.0295, 1.2992 -0.0043 0.2421, 1.2992 -1.087 0.2421, 1.2992 -0.0043 0.2936, 1.2992 -1.087 0.6358, 1.2992 -0.0043 0.6219, 1.2992 -0.0043 0.6358, 1.4213 -1.1461 0.1654, 1.4213 -1.1264 0.1654, 1.5197 -1.1264 0.1654, 1.5197 0.3106 0.1654, 1.6339 0.3106 0.1654, 1.6339 -1.1461 0.1654, 1.4213 0.5075 1.1181, 1.4213 0.5075 0.0748, 1.0728 0.5075 1.1181, 1.0728 0.5075 0.0748, 0.8957 0.5075 1.1181, 0.8957 0.5075 0.0748, 0.6791 0.5075 1.1181, 0.6791 0.5075 0.0748, 1.0335 0.4393 0.0748, 1.4213 0.3106 0.0748, 1.0335 0.3106 0.0748, 0.6398 0.4393 0.0748, 0.935 0.4393 0.0748, 0.6398 0.3106 0.0748, 0.935 0.3106 0.0748, -0.6791 0.5075 1.1181, -0.6791 0.5075 0.0748, -0.8957 0.5075 1.1181, -0.8957 0.5075 0.0748, -0.2854 0.5075 1.1181, -0.2854 0.5075 0.0748, -0.502 0.5075 1.1181, -0.502 0.5075 0.0748, 0.1083 0.5075 1.1181, 0.1083 0.5075 0.0748, -0.1083 0.5075 1.1181, -0.1083 0.5075 0.0748, -0.6398 0.3106 0.0748, -0.935 0.3106 0.0748, -0.935 0.4393 0.0748, -0.6398 0.4393 0.0748, -0.5413 0.4393 0.0748, -0.2461 0.4393 0.0748, -0.5413 0.3106 0.0748, -0.2461 0.3106 0.0748, 0.1476 0.3106 0.0748, -0.1476 0.3106 0.0748, -0.1476 0.4393 0.0748, 0.1476 0.4393 0.0748, 0.502 0.5075 1.1181, 0.502 0.5075 0.0748, 0.2854 0.5075 1.1181, 0.2854 0.5075 0.0748, 0.2461 0.4393 0.0748, 0.5413 0.4393 0.0748, 0.2461 0.3106 0.0748, 0.5413 0.3106 0.0748, -1.0728 0.5075 1.1181, -1.0728 0.5075 0.0748, -1.4213 0.5075 1.1181, -1.4213 0.5075 0.0748, 1.6339 0.3106 1.2362, 1.6339 -1.1461 1.2362, 1.6339 0.3106 0.1654, 0.94 0.3106 1.2362, 0.6348 0.3106 1.2362, 0.5463 0.3106 1.2362, 0.2411 0.3106 1.2362, 0.1526 0.3106 1.2362, -0.1526 0.3106 1.2362, -0.5463 0.3106 1.2362, -0.6348 0.3106 1.2362, -0.94 0.3106 1.2362, -1.3287 0.3106 1.2362, -1.4764 -1.1461 0.9705, -1.4764 -1.1461 0.5768, -1.3583 -1.1461 0.5768, -1.3583 -1.1461 0.1831, 1.3583 -1.1461 0.1831, -1.3583 -1.1461 0.9705, -1.3583 -1.1461 1.0886, 1.3583 -1.1461 1.0886, 1.3583 -1.1461 0.9705, 1.4764 -1.1461 0.9705, 1.4764 -1.1461 0.5768, 1.3583 -1.1461 0.5768, -1.4213 0.3106 1.1181, -1.4213 0.3106 0.0748, -1.4213 -1.1264 1.189, -1.4213 0.3106 1.189, 1.4213 0.3106 1.1181, 1.4213 0.3106 1.189, 1.4213 -1.1264 1.189, -1.3287 0.3106 0.0748, -1.0335 0.4393 0.0748, -1.0335 0.3106 0.0748, -0.6348 0.3106 0.1654, 0.1526 0.3106 0.1654, 0.5463 0.3106 0.1654, 1.5197 0.3106 0.1654, 1.5197 0.3106 1.189, 1.0236 0.3106 1.0075, 0.9449 0.3106 1.0075, 1.0335 0.3106 0.1654, 0.94 0.3106 0.1654, 0.9449 0.3106 0.2559, 1.0335 0.3106 1.1181, 1.0236 0.3106 0.2559, -0.9449 0.3106 1.0075, -0.94 0.3106 0.1654, -1.0335 0.3106 1.1181, -1.3287 0.3106 1.1181, -1.0236 0.3106 1.0075, -1.0335 0.3106 0.1654, -1.0236 0.3106 0.2559, -0.9449 0.3106 0.2559, 0.6398 0.3106 1.1181, 0.935 0.3106 1.1181, 0.6398 0.3106 0.1654, 0.6348 0.3106 0.1654, 0.2461 0.3106 1.1181, 0.5413 0.3106 1.1181, 0.2461 0.3106 0.1654, 0.2411 0.3106 0.1654, 0.1476 0.3106 1.1181, 0.1476 0.3106 0.1654, -0.1526 0.3106 0.1654, -0.1476 0.3106 1.1181, -0.1476 0.3106 0.1654, -0.1575 0.3106 1.0075, -0.2362 0.3106 1.0075, -0.2461 0.3106 1.1181, -0.2461 0.3106 0.1654, -0.2362 0.3106 0.2559, -0.1575 0.3106 0.2559, -0.5413 0.3106 1.1181, -0.5413 0.3106 0.1654, -0.5463 0.3106 0.1654, -0.6398 0.3106 1.1181, -0.6398 0.3106 0.1654, -0.935 0.3106 1.1181, -0.935 0.3106 0.1654, 0.935 0.3106 0.1654, 0.5413 0.3106 0.1654, 0.6299 0.3106 1.0075, 0.5512 0.3106 1.0075, 0.5512 0.3106 0.2559, 0.6299 0.3106 0.2559, 0.2362 0.3106 1.0075, 0.1575 0.3106 1.0075, 0.1575 0.3106 0.2559, 0.2362 0.3106 0.2559, -0.5512 0.3106 1.0075, -0.6299 0.3106 1.0075, -0.6299 0.3106 0.2559, -0.5512 0.3106 0.2559, 0.2461 0.4393 1.1181, 0.1476 0.4393 1.1181, 0.6398 0.4393 1.1181, 0.5413 0.4393 1.1181, 1.0335 0.4393 1.1181, 0.935 0.4393 1.1181, -0.1476 0.4393 1.1181, -0.2461 0.4393 1.1181, -0.5413 0.4393 1.1181, -0.6398 0.4393 1.1181, -0.935 0.4393 1.1181, -1.0335 0.4393 1.1181, 1.5197 -1.1264 1.189, -1.2992 -0.0043 0.6219, -1.2992 -0.0043 0.6358, -1.2992 -1.087 0.6358, -1.2992 -0.0043 0.2936, -1.2992 -1.087 0.2421, -1.2992 -0.0043 0.2421, -0.7874 -0.0043 1.0295, -0.3937 -0.0043 1.0295, 1.2992 -1.087 1.0295, 0.0 -0.0043 1.0295, 0.3937 -0.0043 1.0295, 0.7874 -0.0043 1.0295, 1.2205 -0.0043 1.0295, 1.2992 -0.0043 1.0295, 1.2992 -1.087 0.9114, 1.2992 -0.0043 0.9114, -0.7874 -0.0043 0.2421, 1.2205 -0.0043 0.2421, 0.7874 -0.0043 0.2421, 0.3937 -0.0043 0.2421, 0.0 -0.0043 0.2421, -0.3937 -0.0043 0.2421, 1.4173 -0.0043 0.6358, 1.4173 -0.0043 0.9114, 1.2205 -0.0043 0.6219, 1.2205 -0.0043 0.2936, -0.7874 -0.0043 0.2936, -0.9449 -0.0043 0.345, -1.0236 -0.0043 0.345, -1.0236 -0.0043 0.5235, -0.9449 -0.0043 0.5235, -0.7874 -0.0043 0.6219, -1.4173 -0.0043 0.9114, -1.4173 -0.0043 0.6358, -1.0236 -0.0043 0.7203, -1.0236 -0.0043 0.8778, -0.9449 -0.0043 0.8778, -0.9449 -0.0043 0.7203, 0.7874 -0.0043 0.2936, 0.3937 -0.0043 0.2936, 0.0 -0.0043 0.2936, -0.3937 -0.0043 0.2936, -0.5512 -0.0043 0.5235, -0.3937 -0.0043 0.6219, -0.6299 -0.0043 0.5235, -0.6299 -0.0043 0.345, -0.5512 -0.0043 0.345, -0.1575 -0.0043 0.5235, 0.0 -0.0043 0.6219, -0.2362 -0.0043 0.5235, -0.2362 -0.0043 0.345, -0.1575 -0.0043 0.345, 0.2362 -0.0043 0.5235, 0.3937 -0.0043 0.6219, 0.1575 -0.0043 0.5235, 0.1575 -0.0043 0.345, 0.2362 -0.0043 0.345, 0.6299 -0.0043 0.5235, 0.7874 -0.0043 0.6219, 0.5512 -0.0043 0.5235, 0.5512 -0.0043 0.345, 0.6299 -0.0043 0.345, 1.0236 -0.0043 0.5235, 0.9449 -0.0043 0.5235, 0.9449 -0.0043 0.345, 1.0236 -0.0043 0.345, -0.5512 -0.0043 0.8778, -0.6299 -0.0043 0.8778, -0.6299 -0.0043 0.7203, -0.5512 -0.0043 0.7203, -0.1575 -0.0043 0.8778, -0.2362 -0.0043 0.8778, -0.2362 -0.0043 0.7203, -0.1575 -0.0043 0.7203, 0.2362 -0.0043 0.8778, 0.1575 -0.0043 0.8778, 0.1575 -0.0043 0.7203, 0.2362 -0.0043 0.7203, 0.6299 -0.0043 0.8778, 0.5512 -0.0043 0.8778, 0.5512 -0.0043 0.7203, 0.6299 -0.0043 0.7203, 1.0236 -0.0043 0.8778, 0.9449 -0.0043 0.8778, 0.9449 -0.0043 0.7203, 1.0236 -0.0043 0.7203, 1.4173 -1.087 0.6358, 1.4173 -1.087 0.9114, -1.4173 -1.087 0.9114, -1.4173 -1.087 0.6358
            ]
        }
        coordIndex [
            0,1,2,-1,2,1,3,-1,2,3,4,-1,5,6,7,-1,7,6,1,-1,7,1,8,-1,8,1,0,-1,9,10,11,-1,11,10,7,-1,11,7,8,-1,12,13,14,-1,15,16,17,-1,17,16,18,-1,17,18,19,-1,12,14,20,-1,15,17,21,-1,21,17,22,-1,21,22,23,-1,24,25,23,-1,23,25,26,-1,23,26,21,-1,21,26,27,-1,28,29,30,-1,30,29,31,-1,30,31,32,-1,32,33,30,-1,30,33,34,-1,30,34,35,-1,20,14,30,-1,30,14,36,-1,30,36,28,-1,37,38,34,-1,34,38,39,-1,34,39,35,-1,40,14,41,-1,41,14,13,-1,41,13,19,-1,19,13,42,-1,19,42,17,-1,13,43,42,-1,42,43,44,-1,42,44,45,-1,45,44,21,-1,45,21,46,-1,46,21,27,-1,46,27,47,-1,47,27,48,-1,49,50,51,-1,51,50,52,-1,51,52,53,-1,43,54,44,-1,44,54,55,-1,44,55,56,-1,53,57,51,-1,51,57,58,-1,51,58,59,-1,56,60,44,-1,44,60,61,-1,44,61,62,-1,62,61,63,-1,62,63,64,-1,64,63,65,-1,64,65,66,-1,66,65,51,-1,66,51,67,-1,67,51,59,-1,60,68,61,-1,61,68,69,-1,61,69,70,-1,70,69,71,-1,70,71,49,-1,49,71,72,-1,49,72,50,-1,73,74,66,-1,74,75,66,-1,66,75,76,-1,66,76,64,-1,64,76,77,-1,64,77,78,-1,79,80,81,-1,82,83,84,-1,84,83,85,-1,80,84,81,-1,81,84,85,-1,81,85,44,-1,44,85,86,-1,87,88,89,-1,81,90,79,-1,79,90,21,-1,79,21,89,-1,89,21,91,-1,89,91,87,-1,88,92,89,-1,89,92,93,-1,89,93,94,-1,95,96,86,-1,86,96,97,-1,86,97,98,-1,94,99,89,-1,89,99,100,-1,89,100,86,-1,86,100,101,-1,86,101,95,-1,98,102,86,-1,86,102,103,-1,86,103,44,-1,44,103,104,-1,44,104,21,-1,21,104,105,-1,21,105,91,-1,106,107,90,-1,90,107,108,-1,90,108,21,-1,21,108,109,-1,21,109,110,-1,66,111,73,-1,73,111,15,-1,73,15,112,-1,112,15,21,-1,112,21,113,-1,113,21,110,-1,114,115,116,-1,116,115,117,-1,118,119,120,-1,120,119,121,-1,120,121,122,-1,122,121,123,-1,124,125,126,-1,127,128,126,-1,126,128,129,-1,126,129,124,-1,130,131,132,-1,132,131,133,-1,134,135,136,-1,136,135,137,-1,133,131,138,-1,138,131,139,-1,138,139,140,-1,137,135,141,-1,141,135,142,-1,141,142,143,-1,143,142,144,-1,145,146,147,-1,147,146,148,-1,149,150,151,-1,151,150,152,-1,153,154,155,-1,155,154,156,-1,157,158,159,-1,148,146,159,-1,159,146,160,-1,159,160,157,-1,152,150,161,-1,161,150,162,-1,161,162,163,-1,163,162,164,-1,165,166,167,-1,156,154,167,-1,167,154,168,-1,167,168,165,-1,169,170,171,-1,171,170,172,-1,172,170,173,-1,173,170,174,-1,173,174,175,-1,175,174,176,-1,177,178,179,-1,179,178,180,-1,181,182,183,-1,183,182,129,-1,183,129,128,-1,181,184,182,-1,182,184,185,-1,182,185,186,-1,186,187,182,-1,182,187,188,-1,182,188,3,-1,188,189,3,-1,3,189,190,-1,3,190,191,-1,191,192,3,-1,3,192,193,-1,3,193,4,-1,194,3,195,-1,195,3,1,-1,195,1,196,-1,196,1,6,-1,196,6,197,-1,6,81,197,-1,197,81,44,-1,197,44,198,-1,198,44,62,-1,198,62,124,-1,194,199,3,-1,3,199,200,-1,3,200,182,-1,182,200,201,-1,201,202,182,-1,182,202,203,-1,182,203,129,-1,129,203,204,-1,129,204,124,-1,124,204,205,-1,124,205,198,-1,179,180,206,-1,206,180,207,-1,208,209,5,-1,5,209,206,-1,6,5,81,-1,81,5,206,-1,81,206,90,-1,90,206,207,-1,90,207,106,-1,131,130,139,-1,139,130,210,-1,78,139,64,-1,64,139,210,-1,64,210,62,-1,211,212,210,-1,210,212,125,-1,210,125,62,-1,62,125,124,-1,213,207,180,-1,180,178,213,-1,213,178,214,-1,213,214,215,-1,110,109,216,-1,74,73,217,-1,76,75,218,-1,128,127,219,-1,106,207,107,-1,107,207,213,-1,107,213,108,-1,108,213,215,-1,184,181,211,-1,211,181,220,-1,221,222,184,-1,139,78,140,-1,140,78,77,-1,140,77,223,-1,223,77,224,-1,223,224,225,-1,211,210,184,-1,184,210,226,-1,184,226,221,-1,221,226,223,-1,221,223,227,-1,227,223,225,-1,220,181,219,-1,219,181,183,-1,219,183,128,-1,0,2,8,-1,8,2,11,-1,11,2,9,-1,9,2,4,-1,9,4,209,-1,209,4,193,-1,209,193,206,-1,228,192,229,-1,192,230,193,-1,193,230,231,-1,193,231,206,-1,192,228,230,-1,230,228,232,-1,230,232,233,-1,233,232,234,-1,233,234,229,-1,229,234,235,-1,229,235,228,-1,236,185,237,-1,237,185,184,-1,237,184,224,-1,224,184,222,-1,224,222,225,-1,236,238,239,-1,239,238,143,-1,240,187,241,-1,241,187,186,-1,241,186,218,-1,240,242,243,-1,243,242,175,-1,188,217,244,-1,244,217,245,-1,166,113,246,-1,188,244,189,-1,189,244,247,-1,189,247,246,-1,246,247,248,-1,246,248,166,-1,245,217,165,-1,165,217,73,-1,165,73,166,-1,166,73,112,-1,166,112,113,-1,249,250,251,-1,251,250,252,-1,253,254,246,-1,246,254,249,-1,246,249,189,-1,189,249,251,-1,189,251,190,-1,190,251,255,-1,255,256,257,-1,257,256,163,-1,191,216,258,-1,258,216,259,-1,191,258,192,-1,192,258,260,-1,192,260,229,-1,229,260,261,-1,229,261,158,-1,259,216,157,-1,157,216,109,-1,157,109,158,-1,158,109,108,-1,158,108,229,-1,229,108,215,-1,229,215,233,-1,218,239,76,-1,76,239,143,-1,76,143,77,-1,77,143,144,-1,77,144,224,-1,224,144,262,-1,224,262,237,-1,217,243,74,-1,74,243,175,-1,74,175,75,-1,75,175,176,-1,75,176,218,-1,218,176,263,-1,218,263,241,-1,250,253,252,-1,252,253,246,-1,252,246,164,-1,164,246,113,-1,164,113,163,-1,163,113,110,-1,163,110,257,-1,257,110,216,-1,236,239,185,-1,185,239,264,-1,185,264,186,-1,186,264,265,-1,186,265,218,-1,218,265,266,-1,218,266,239,-1,239,266,267,-1,239,267,264,-1,240,243,187,-1,187,243,268,-1,187,268,188,-1,188,268,269,-1,188,269,217,-1,217,269,270,-1,217,270,243,-1,243,270,271,-1,243,271,268,-1,255,257,190,-1,190,257,272,-1,190,272,191,-1,191,272,273,-1,191,273,216,-1,216,273,274,-1,216,274,257,-1,257,274,275,-1,257,275,272,-1,240,276,242,-1,242,276,173,-1,242,173,175,-1,277,244,168,-1,168,244,245,-1,168,245,165,-1,172,173,171,-1,171,173,276,-1,168,154,277,-1,277,154,153,-1,236,278,238,-1,238,278,141,-1,238,141,143,-1,279,241,174,-1,174,241,263,-1,174,263,176,-1,226,280,223,-1,223,280,138,-1,223,138,140,-1,281,237,142,-1,142,237,262,-1,142,262,144,-1,247,282,248,-1,248,282,167,-1,248,167,166,-1,283,251,162,-1,162,251,252,-1,162,252,164,-1,255,284,256,-1,256,284,161,-1,256,161,163,-1,285,258,160,-1,160,258,259,-1,160,259,157,-1,260,286,261,-1,261,286,159,-1,261,159,158,-1,287,230,214,-1,214,230,233,-1,214,233,215,-1,137,141,136,-1,136,141,278,-1,174,170,279,-1,279,170,169,-1,133,138,132,-1,132,138,280,-1,142,135,281,-1,281,135,134,-1,156,167,155,-1,155,167,282,-1,162,150,283,-1,283,150,149,-1,152,161,151,-1,151,161,284,-1,160,146,285,-1,285,146,145,-1,148,159,147,-1,147,159,286,-1,214,178,287,-1,287,178,177,-1,10,208,7,-1,7,208,5,-1,208,10,209,-1,209,10,9,-1,212,288,125,-1,125,288,126,-1,127,126,219,-1,219,126,288,-1,219,288,220,-1,288,212,220,-1,220,212,211,-1,289,290,291,-1,289,291,292,-1,292,291,293,-1,292,293,294,-1,117,295,116,-1,116,295,296,-1,116,296,297,-1,297,296,298,-1,297,298,299,-1,299,300,297,-1,297,300,301,-1,297,301,302,-1,297,302,303,-1,303,302,304,-1,305,294,293,-1,118,306,119,-1,119,306,307,-1,307,308,119,-1,119,308,309,-1,119,309,293,-1,293,309,310,-1,293,310,305,-1,123,311,312,-1,302,301,304,-1,304,301,313,-1,312,304,123,-1,123,304,313,-1,123,313,122,-1,122,313,314,-1,122,314,120,-1,315,316,317,-1,318,289,317,-1,317,289,292,-1,317,292,315,-1,316,315,319,-1,319,315,320,-1,319,320,318,-1,321,322,290,-1,115,323,117,-1,117,323,324,-1,117,324,295,-1,295,324,325,-1,295,325,320,-1,320,325,326,-1,320,326,323,-1,318,320,289,-1,289,320,323,-1,289,323,290,-1,290,323,115,-1,290,115,321,-1,118,120,306,-1,306,120,314,-1,306,314,307,-1,307,314,327,-1,307,327,308,-1,308,327,328,-1,308,328,309,-1,309,328,329,-1,309,329,310,-1,310,329,330,-1,310,330,305,-1,305,330,315,-1,305,315,294,-1,294,315,292,-1,331,332,333,-1,333,332,320,-1,333,320,334,-1,334,320,315,-1,334,315,335,-1,335,315,330,-1,335,330,331,-1,331,330,332,-1,336,337,338,-1,338,337,332,-1,338,332,339,-1,339,332,330,-1,339,330,340,-1,340,330,329,-1,340,329,336,-1,336,329,337,-1,341,342,343,-1,343,342,337,-1,343,337,344,-1,344,337,329,-1,344,329,345,-1,345,329,328,-1,345,328,341,-1,341,328,342,-1,346,347,348,-1,348,347,342,-1,348,342,349,-1,349,342,328,-1,349,328,350,-1,350,328,327,-1,350,327,346,-1,346,327,347,-1,351,313,352,-1,352,313,347,-1,352,347,353,-1,353,347,327,-1,353,327,354,-1,354,327,314,-1,354,314,351,-1,351,314,313,-1,355,296,356,-1,356,296,295,-1,356,295,357,-1,357,295,320,-1,357,320,358,-1,358,320,332,-1,358,332,355,-1,355,332,296,-1,359,298,360,-1,360,298,296,-1,360,296,361,-1,361,296,332,-1,361,332,362,-1,362,332,337,-1,362,337,359,-1,359,337,298,-1,363,299,364,-1,364,299,298,-1,364,298,365,-1,365,298,337,-1,365,337,366,-1,366,337,342,-1,366,342,363,-1,363,342,299,-1,367,300,368,-1,368,300,299,-1,368,299,369,-1,369,299,342,-1,369,342,370,-1,370,342,347,-1,370,347,367,-1,367,347,300,-1,371,301,372,-1,372,301,300,-1,372,300,373,-1,373,300,347,-1,373,347,374,-1,374,347,313,-1,374,313,371,-1,371,313,301,-1,375,311,121,-1,121,311,123,-1,376,312,375,-1,375,312,311,-1,303,304,376,-1,376,304,312,-1,377,321,114,-1,114,321,115,-1,378,322,377,-1,377,322,321,-1,291,290,378,-1,378,290,322,-1,203,376,204,-1,204,376,375,-1,202,303,203,-1,203,303,376,-1,121,205,375,-1,375,205,204,-1,201,297,202,-1,202,297,303,-1,119,198,121,-1,121,198,205,-1,200,116,201,-1,201,116,297,-1,293,197,119,-1,119,197,198,-1,199,114,200,-1,200,114,116,-1,291,196,293,-1,293,196,197,-1,194,377,199,-1,199,377,114,-1,378,195,291,-1,291,195,196,-1,195,378,194,-1,194,378,377,-1,
        ]
    }
}
Shape{
    appearance Appearance {
        material  Material 	{
            diffuseColor 0.7529411764705882 0.7529411764705882 0.7529411764705882
            specularColor 0.3764705882352941 0.3764705882352941 0.3764705882352941
            ambientIntensity 0.7529
            transparency 0.0
            shininess 0.5
        }
    }
    geometry IndexedFaceSet {
        ccw TRUE
        solid FALSE
        coord DEF co Coordinate {
            point [
                -0.1861 -0.7642 0.7489, -0.1861 -0.7642 0.8491, -0.2076 -0.7642 0.7489, -0.2076 -0.7642 0.8491, -0.1575 -0.6854 0.7203, -0.1575 -0.0043 0.7203, -0.1575 -0.6854 0.8778, -0.1575 -0.0043 0.8778, -0.2362 -0.6854 0.8778, -0.2362 -0.0043 0.8778, -0.2362 -0.6854 0.7203, -0.2362 -0.0043 0.7203, -0.2362 -0.0441 0.5235, -0.2362 -0.0441 0.345, -0.1575 -0.0441 0.5235, -0.1575 -0.0441 0.345, -0.2362 -0.0043 0.345, -0.2362 -0.0043 0.5235, -0.1575 -0.0043 0.5235, -0.1575 -0.0043 0.345, -0.2362 0.3106 1.0075, -0.1575 0.3106 1.0075, -0.1575 0.322 1.0208, -0.2362 0.322 1.0208, -0.1575 0.3362 1.0309, -0.2362 0.3362 1.0309, -0.1575 0.3525 1.0372, -0.2362 0.3525 1.0372, -0.1575 0.3699 1.0394, -0.2362 0.3699 1.0394, -0.1575 0.3182 0.2464, -0.1575 0.3106 0.2559, -0.2362 0.3182 0.2464, -0.2362 0.3106 0.2559, -0.2362 0.4585 0.2466, -0.2362 0.4563 0.2643, -0.2362 0.4651 0.23, -0.2362 0.4757 0.2155, -0.2362 0.5391 0.0123, -0.2362 0.5746 0.1108, -0.2362 0.5806 0.1055, -0.2362 0.5452 0.0071, -0.2362 0.5876 0.1016, -0.2362 0.5522 0.0032, -0.2362 0.5952 0.0992, -0.2362 0.8421 0.0394, -0.2362 0.6032 0.0984, -0.2362 0.8421 0.0591, -0.2362 0.8028 0.0984, -0.2362 0.8224 0.0053, -0.2362 0.8129 0.0013, -0.2362 0.8028 0.0, -0.2362 0.5678 0.0, -0.2362 0.5598 0.0008, -0.2362 0.3852 1.0394, -0.2362 0.4563 0.9683, -0.2362 0.4036 1.0369, -0.2362 0.4208 1.0299, -0.2362 0.8306 0.0115, -0.2362 0.8408 0.0292, -0.2362 0.8369 0.0197, -0.2362 0.4355 1.0186, -0.2362 0.4468 1.0038, -0.2362 0.4539 0.9867, -0.2362 0.8224 0.0932, -0.2362 0.8306 0.0869, -0.2362 0.8129 0.0971, -0.2362 0.8369 0.0787, -0.2362 0.8408 0.0692, -0.1575 0.6032 0.0984, -0.1575 0.5952 0.0992, -0.1575 0.5678 0.0, -0.1575 0.5598 0.0008, -0.1575 0.8028 0.0984, -0.1575 0.8421 0.0591, -0.1575 0.8421 0.0394, -0.1575 0.5391 0.0123, -0.1575 0.5452 0.0071, -0.1575 0.5876 0.1016, -0.1575 0.4036 1.0369, -0.1575 0.3852 1.0394, -0.1575 0.4563 0.9683, -0.1575 0.4563 0.2643, -0.1575 0.5522 0.0032, -0.1575 0.4757 0.2155, -0.1575 0.5746 0.1108, -0.1575 0.5806 0.1055, -0.1575 0.8028 0.0, -0.1575 0.8129 0.0013, -0.1575 0.4468 1.0038, -0.1575 0.4355 1.0186, -0.1575 0.4208 1.0299, -0.1575 0.4585 0.2466, -0.1575 0.4651 0.23, -0.1575 0.8224 0.0053, -0.1575 0.8306 0.0115, -0.1575 0.8408 0.0292, -0.1575 0.8369 0.0197, -0.1575 0.8408 0.0692, -0.1575 0.8369 0.0787, -0.1575 0.8129 0.0971, -0.1575 0.8306 0.0869, -0.1575 0.8224 0.0932, -0.1575 0.4539 0.9867, -0.5798 -0.7642 0.7489, -0.5798 -0.7642 0.8491, -0.6013 -0.7642 0.7489, -0.6013 -0.7642 0.8491, -0.5512 -0.6854 0.7203, -0.5512 -0.0043 0.7203, -0.5512 -0.6854 0.8778, -0.5512 -0.0043 0.8778, -0.6299 -0.6854 0.8778, -0.6299 -0.0043 0.8778, -0.6299 -0.6854 0.7203, -0.6299 -0.0043 0.7203, -0.6299 -0.0441 0.5235, -0.6299 -0.0441 0.345, -0.5512 -0.0441 0.5235, -0.5512 -0.0441 0.345, -0.6299 -0.0043 0.345, -0.6299 -0.0043 0.5235, -0.5512 -0.0043 0.5235, -0.5512 -0.0043 0.345, -0.6299 0.3106 1.0075, -0.5512 0.3106 1.0075, -0.5512 0.322 1.0208, -0.6299 0.322 1.0208, -0.5512 0.3362 1.0309, -0.6299 0.3362 1.0309, -0.5512 0.3525 1.0372, -0.6299 0.3525 1.0372, -0.5512 0.3699 1.0394, -0.6299 0.3699 1.0394, -0.5512 0.3182 0.2464, -0.5512 0.3106 0.2559, -0.6299 0.3182 0.2464, -0.6299 0.3106 0.2559, -0.6299 0.4585 0.2466, -0.6299 0.4563 0.2643, -0.6299 0.4651 0.23, -0.6299 0.4757 0.2155, -0.6299 0.5391 0.0123, -0.6299 0.5746 0.1108, -0.6299 0.5806 0.1055, -0.6299 0.5452 0.0071, -0.6299 0.5876 0.1016, -0.6299 0.5522 0.0032, -0.6299 0.5952 0.0992, -0.6299 0.5598 0.0008, -0.6299 0.8421 0.0591, -0.6299 0.8421 0.0394, -0.6299 0.8028 0.0, -0.6299 0.8411 0.0306, -0.6299 0.8115 0.001, -0.6299 0.5678 0.0, -0.6299 0.6032 0.0984, -0.6299 0.8028 0.0984, -0.6299 0.8382 0.0223, -0.6299 0.8335 0.0148, -0.6299 0.8273 0.0086, -0.6299 0.3852 1.0394, -0.6299 0.4563 0.9683, -0.6299 0.4036 1.0369, -0.6299 0.4208 1.0299, -0.6299 0.4355 1.0186, -0.6299 0.4468 1.0038, -0.6299 0.4539 0.9867, -0.6299 0.8224 0.0932, -0.6299 0.8306 0.0869, -0.6299 0.8129 0.0971, -0.6299 0.8369 0.0787, -0.6299 0.8408 0.0692, -0.6299 0.8198 0.0039, -0.5512 0.5678 0.0, -0.5512 0.8028 0.0, -0.5512 0.8028 0.0984, -0.5512 0.4036 1.0369, -0.5512 0.3852 1.0394, -0.5512 0.4563 0.9683, -0.5512 0.4563 0.2643, -0.5512 0.5522 0.0032, -0.5512 0.5952 0.0992, -0.5512 0.5452 0.0071, -0.5512 0.5876 0.1016, -0.5512 0.5391 0.0123, -0.5512 0.6032 0.0984, -0.5512 0.5598 0.0008, -0.5512 0.4757 0.2155, -0.5512 0.5746 0.1108, -0.5512 0.5806 0.1055, -0.5512 0.4468 1.0038, -0.5512 0.4355 1.0186, -0.5512 0.4208 1.0299, -0.5512 0.4585 0.2466, -0.5512 0.4651 0.23, -0.5512 0.8335 0.0148, -0.5512 0.8382 0.0223, -0.5512 0.8273 0.0086, -0.5512 0.8411 0.0306, -0.5512 0.8198 0.0039, -0.5512 0.8421 0.0591, -0.5512 0.8421 0.0394, -0.5512 0.8115 0.001, -0.5512 0.8408 0.0692, -0.5512 0.8369 0.0787, -0.5512 0.8129 0.0971, -0.5512 0.8306 0.0869, -0.5512 0.8224 0.0932, -0.5512 0.4539 0.9867, -0.9735 -0.7642 0.7489, -0.9735 -0.7642 0.8491, -0.995 -0.7642 0.7489, -0.995 -0.7642 0.8491, -0.9449 -0.6854 0.7203, -0.9449 -0.0043 0.7203, -0.9449 -0.6854 0.8778, -0.9449 -0.0043 0.8778, -1.0236 -0.6854 0.8778, -1.0236 -0.0043 0.8778, -1.0236 -0.6854 0.7203, -1.0236 -0.0043 0.7203, -1.0236 -0.0441 0.5235, -1.0236 -0.0441 0.345, -0.9449 -0.0441 0.5235, -0.9449 -0.0441 0.345, -1.0236 -0.0043 0.345, -1.0236 -0.0043 0.5235, -0.9449 -0.0043 0.5235, -0.9449 -0.0043 0.345, -1.0236 0.3106 1.0075, -0.9449 0.3106 1.0075, -0.9449 0.322 1.0208, -1.0236 0.322 1.0208, -0.9449 0.3362 1.0309, -1.0236 0.3362 1.0309, -0.9449 0.3525 1.0372, -1.0236 0.3525 1.0372, -0.9449 0.3699 1.0394, -1.0236 0.3699 1.0394, -0.9449 0.3182 0.2464, -0.9449 0.3106 0.2559, -1.0236 0.3182 0.2464, -1.0236 0.3106 0.2559, -1.0236 0.4585 0.2466, -1.0236 0.4563 0.2643, -1.0236 0.4651 0.23, -1.0236 0.4757 0.2155, -1.0236 0.5391 0.0123, -1.0236 0.5746 0.1108, -1.0236 0.5806 0.1055, -1.0236 0.5452 0.0071, -1.0236 0.5876 0.1016, -1.0236 0.5522 0.0032, -1.0236 0.5952 0.0992, -1.0236 0.5598 0.0008, -1.0236 0.8421 0.0591, -1.0236 0.8421 0.0394, -1.0236 0.8028 0.0, -1.0236 0.8411 0.0306, -1.0236 0.8115 0.001, -1.0236 0.5678 0.0, -1.0236 0.6032 0.0984, -1.0236 0.8028 0.0984, -1.0236 0.8382 0.0223, -1.0236 0.8335 0.0148, -1.0236 0.8273 0.0086, -1.0236 0.3852 1.0394, -1.0236 0.4563 0.9683, -1.0236 0.4036 1.0369, -1.0236 0.4208 1.0299, -1.0236 0.4355 1.0186, -1.0236 0.4468 1.0038, -1.0236 0.4539 0.9867, -1.0236 0.8224 0.0932, -1.0236 0.8306 0.0869, -1.0236 0.8129 0.0971, -1.0236 0.8369 0.0787, -1.0236 0.8408 0.0692, -1.0236 0.8198 0.0039, -0.9449 0.5678 0.0, -0.9449 0.8028 0.0, -0.9449 0.8028 0.0984, -0.9449 0.4036 1.0369, -0.9449 0.3852 1.0394, -0.9449 0.4563 0.9683, -0.9449 0.4563 0.2643, -0.9449 0.5522 0.0032, -0.9449 0.5952 0.0992, -0.9449 0.5452 0.0071, -0.9449 0.5876 0.1016, -0.9449 0.5391 0.0123, -0.9449 0.6032 0.0984, -0.9449 0.5598 0.0008, -0.9449 0.4757 0.2155, -0.9449 0.5746 0.1108, -0.9449 0.5806 0.1055, -0.9449 0.4468 1.0038, -0.9449 0.4355 1.0186, -0.9449 0.4208 1.0299, -0.9449 0.4585 0.2466, -0.9449 0.4651 0.23, -0.9449 0.8335 0.0148, -0.9449 0.8382 0.0223, -0.9449 0.8273 0.0086, -0.9449 0.8411 0.0306, -0.9449 0.8198 0.0039, -0.9449 0.8421 0.0591, -0.9449 0.8421 0.0394, -0.9449 0.8115 0.001, -0.9449 0.8408 0.0692, -0.9449 0.8369 0.0787, -0.9449 0.8129 0.0971, -0.9449 0.8306 0.0869, -0.9449 0.8224 0.0932, -0.9449 0.4539 0.9867, 0.2076 -0.7642 0.7489, 0.2076 -0.7642 0.8491, 0.1861 -0.7642 0.7489, 0.1861 -0.7642 0.8491, 0.2362 -0.6854 0.7203, 0.2362 -0.0043 0.7203, 0.2362 -0.6854 0.8778, 0.2362 -0.0043 0.8778, 0.1575 -0.6854 0.8778, 0.1575 -0.0043 0.8778, 0.1575 -0.6854 0.7203, 0.1575 -0.0043 0.7203, 0.1575 -0.0441 0.5235, 0.1575 -0.0441 0.345, 0.2362 -0.0441 0.5235, 0.2362 -0.0441 0.345, 0.1575 -0.0043 0.345, 0.1575 -0.0043 0.5235, 0.2362 -0.0043 0.5235, 0.2362 -0.0043 0.345, 0.1575 0.3106 1.0075, 0.2362 0.3106 1.0075, 0.2362 0.322 1.0208, 0.1575 0.322 1.0208, 0.2362 0.3362 1.0309, 0.1575 0.3362 1.0309, 0.2362 0.3525 1.0372, 0.1575 0.3525 1.0372, 0.2362 0.3699 1.0394, 0.1575 0.3699 1.0394, 0.2362 0.3182 0.2464, 0.2362 0.3106 0.2559, 0.1575 0.3182 0.2464, 0.1575 0.3106 0.2559, 0.1575 0.4585 0.2466, 0.1575 0.4563 0.2643, 0.1575 0.4651 0.23, 0.1575 0.4757 0.2155, 0.1575 0.5391 0.0123, 0.1575 0.5746 0.1108, 0.1575 0.5806 0.1055, 0.1575 0.5452 0.0071, 0.1575 0.5876 0.1016, 0.1575 0.5522 0.0032, 0.1575 0.5952 0.0992, 0.1575 0.5598 0.0008, 0.1575 0.8421 0.0591, 0.1575 0.8421 0.0394, 0.1575 0.8028 0.0, 0.1575 0.8411 0.0306, 0.1575 0.8115 0.001, 0.1575 0.5678 0.0, 0.1575 0.6032 0.0984, 0.1575 0.8028 0.0984, 0.1575 0.8382 0.0223, 0.1575 0.8335 0.0148, 0.1575 0.8273 0.0086, 0.1575 0.3852 1.0394, 0.1575 0.4563 0.9683, 0.1575 0.4036 1.0369, 0.1575 0.4208 1.0299, 0.1575 0.4355 1.0186, 0.1575 0.4468 1.0038, 0.1575 0.4539 0.9867, 0.1575 0.8224 0.0932, 0.1575 0.8306 0.0869, 0.1575 0.8129 0.0971, 0.1575 0.8369 0.0787, 0.1575 0.8408 0.0692, 0.1575 0.8198 0.0039, 0.2362 0.5678 0.0, 0.2362 0.8028 0.0, 0.2362 0.8028 0.0984, 0.2362 0.4036 1.0369, 0.2362 0.3852 1.0394, 0.2362 0.4563 0.9683, 0.2362 0.4563 0.2643, 0.2362 0.5522 0.0032, 0.2362 0.5952 0.0992, 0.2362 0.5452 0.0071, 0.2362 0.5876 0.1016, 0.2362 0.5391 0.0123, 0.2362 0.6032 0.0984, 0.2362 0.5598 0.0008, 0.2362 0.4757 0.2155, 0.2362 0.5746 0.1108, 0.2362 0.5806 0.1055, 0.2362 0.4468 1.0038, 0.2362 0.4355 1.0186, 0.2362 0.4208 1.0299, 0.2362 0.4585 0.2466, 0.2362 0.4651 0.23, 0.2362 0.8335 0.0148, 0.2362 0.8382 0.0223, 0.2362 0.8273 0.0086, 0.2362 0.8411 0.0306, 0.2362 0.8198 0.0039, 0.2362 0.8421 0.0591, 0.2362 0.8421 0.0394, 0.2362 0.8115 0.001, 0.2362 0.8408 0.0692, 0.2362 0.8369 0.0787, 0.2362 0.8129 0.0971, 0.2362 0.8306 0.0869, 0.2362 0.8224 0.0932, 0.2362 0.4539 0.9867, 0.6013 -0.7642 0.7489, 0.6013 -0.7642 0.8491, 0.5798 -0.7642 0.7489, 0.5798 -0.7642 0.8491, 0.6299 -0.6854 0.7203, 0.6299 -0.0043 0.7203, 0.6299 -0.6854 0.8778, 0.6299 -0.0043 0.8778, 0.5512 -0.6854 0.8778, 0.5512 -0.0043 0.8778, 0.5512 -0.6854 0.7203, 0.5512 -0.0043 0.7203, 0.5512 -0.0441 0.5235, 0.5512 -0.0441 0.345, 0.6299 -0.0441 0.5235, 0.6299 -0.0441 0.345, 0.5512 -0.0043 0.345, 0.5512 -0.0043 0.5235, 0.6299 -0.0043 0.5235, 0.6299 -0.0043 0.345, 0.5512 0.3106 1.0075, 0.6299 0.3106 1.0075, 0.6299 0.322 1.0208, 0.5512 0.322 1.0208, 0.6299 0.3362 1.0309, 0.5512 0.3362 1.0309, 0.6299 0.3525 1.0372, 0.5512 0.3525 1.0372, 0.6299 0.3699 1.0394, 0.5512 0.3699 1.0394, 0.6299 0.3182 0.2464, 0.6299 0.3106 0.2559, 0.5512 0.3182 0.2464, 0.5512 0.3106 0.2559, 0.5512 0.4585 0.2466, 0.5512 0.4563 0.2643, 0.5512 0.4651 0.23, 0.5512 0.4757 0.2155, 0.5512 0.5391 0.0123, 0.5512 0.5746 0.1108, 0.5512 0.5806 0.1055, 0.5512 0.5452 0.0071, 0.5512 0.5876 0.1016, 0.5512 0.5522 0.0032, 0.5512 0.5952 0.0992, 0.5512 0.5598 0.0008, 0.5512 0.8421 0.0591, 0.5512 0.8421 0.0394, 0.5512 0.8028 0.0, 0.5512 0.8411 0.0306, 0.5512 0.8115 0.001, 0.5512 0.5678 0.0, 0.5512 0.6032 0.0984, 0.5512 0.8028 0.0984, 0.5512 0.8382 0.0223, 0.5512 0.8335 0.0148, 0.5512 0.8273 0.0086, 0.5512 0.3852 1.0394, 0.5512 0.4563 0.9683, 0.5512 0.4036 1.0369, 0.5512 0.4208 1.0299, 0.5512 0.4355 1.0186, 0.5512 0.4468 1.0038, 0.5512 0.4539 0.9867, 0.5512 0.8224 0.0932, 0.5512 0.8306 0.0869, 0.5512 0.8129 0.0971, 0.5512 0.8369 0.0787, 0.5512 0.8408 0.0692, 0.5512 0.8198 0.0039, 0.6299 0.5678 0.0, 0.6299 0.8028 0.0, 0.6299 0.8028 0.0984, 0.6299 0.4036 1.0369, 0.6299 0.3852 1.0394, 0.6299 0.4563 0.9683, 0.6299 0.4563 0.2643, 0.6299 0.5522 0.0032, 0.6299 0.5952 0.0992, 0.6299 0.5452 0.0071, 0.6299 0.5876 0.1016, 0.6299 0.5391 0.0123, 0.6299 0.6032 0.0984, 0.6299 0.5598 0.0008, 0.6299 0.4757 0.2155, 0.6299 0.5746 0.1108, 0.6299 0.5806 0.1055, 0.6299 0.4468 1.0038, 0.6299 0.4355 1.0186, 0.6299 0.4208 1.0299, 0.6299 0.4585 0.2466, 0.6299 0.4651 0.23, 0.6299 0.8335 0.0148, 0.6299 0.8382 0.0223, 0.6299 0.8273 0.0086, 0.6299 0.8411 0.0306, 0.6299 0.8198 0.0039, 0.6299 0.8421 0.0591, 0.6299 0.8421 0.0394, 0.6299 0.8115 0.001, 0.6299 0.8408 0.0692, 0.6299 0.8369 0.0787, 0.6299 0.8129 0.0971, 0.6299 0.8306 0.0869, 0.6299 0.8224 0.0932, 0.6299 0.4539 0.9867, 0.995 -0.7642 0.7489, 0.995 -0.7642 0.8491, 0.9735 -0.7642 0.7489, 0.9735 -0.7642 0.8491, 1.0236 -0.6854 0.7203, 1.0236 -0.0043 0.7203, 1.0236 -0.6854 0.8778, 1.0236 -0.0043 0.8778, 0.9449 -0.6854 0.8778, 0.9449 -0.0043 0.8778, 0.9449 -0.6854 0.7203, 0.9449 -0.0043 0.7203, 0.9449 -0.0441 0.5235, 0.9449 -0.0441 0.345, 1.0236 -0.0441 0.5235, 1.0236 -0.0441 0.345, 0.9449 -0.0043 0.345, 0.9449 -0.0043 0.5235, 1.0236 -0.0043 0.5235, 1.0236 -0.0043 0.345, 0.9449 0.3106 1.0075, 1.0236 0.3106 1.0075, 1.0236 0.322 1.0208, 0.9449 0.322 1.0208, 1.0236 0.3362 1.0309, 0.9449 0.3362 1.0309, 1.0236 0.3525 1.0372, 0.9449 0.3525 1.0372, 1.0236 0.3699 1.0394, 0.9449 0.3699 1.0394, 1.0236 0.3182 0.2464, 1.0236 0.3106 0.2559, 0.9449 0.3182 0.2464, 0.9449 0.3106 0.2559, 0.9449 0.4585 0.2466, 0.9449 0.4563 0.2643, 0.9449 0.4651 0.23, 0.9449 0.4757 0.2155, 0.9449 0.5391 0.0123, 0.9449 0.5746 0.1108, 0.9449 0.5806 0.1055, 0.9449 0.5452 0.0071, 0.9449 0.5876 0.1016, 0.9449 0.5522 0.0032, 0.9449 0.5952 0.0992, 0.9449 0.5598 0.0008, 0.9449 0.8421 0.0591, 0.9449 0.8421 0.0394, 0.9449 0.8028 0.0, 0.9449 0.8411 0.0306, 0.9449 0.8115 0.001, 0.9449 0.5678 0.0, 0.9449 0.6032 0.0984, 0.9449 0.8028 0.0984, 0.9449 0.8382 0.0223, 0.9449 0.8335 0.0148, 0.9449 0.8273 0.0086, 0.9449 0.3852 1.0394, 0.9449 0.4563 0.9683, 0.9449 0.4036 1.0369, 0.9449 0.4208 1.0299, 0.9449 0.4355 1.0186, 0.9449 0.4468 1.0038, 0.9449 0.4539 0.9867, 0.9449 0.8224 0.0932, 0.9449 0.8306 0.0869, 0.9449 0.8129 0.0971, 0.9449 0.8369 0.0787, 0.9449 0.8408 0.0692, 0.9449 0.8198 0.0039, 1.0236 0.5678 0.0, 1.0236 0.8028 0.0, 1.0236 0.8028 0.0984, 1.0236 0.4036 1.0369, 1.0236 0.3852 1.0394, 1.0236 0.4563 0.9683, 1.0236 0.4563 0.2643, 1.0236 0.5522 0.0032, 1.0236 0.5952 0.0992, 1.0236 0.5452 0.0071, 1.0236 0.5876 0.1016, 1.0236 0.5391 0.0123, 1.0236 0.6032 0.0984, 1.0236 0.5598 0.0008, 1.0236 0.4757 0.2155, 1.0236 0.5746 0.1108, 1.0236 0.5806 0.1055, 1.0236 0.4468 1.0038, 1.0236 0.4355 1.0186, 1.0236 0.4208 1.0299, 1.0236 0.4585 0.2466, 1.0236 0.4651 0.23, 1.0236 0.8335 0.0148, 1.0236 0.8382 0.0223, 1.0236 0.8273 0.0086, 1.0236 0.8411 0.0306, 1.0236 0.8198 0.0039, 1.0236 0.8421 0.0591, 1.0236 0.8421 0.0394, 1.0236 0.8115 0.001, 1.0236 0.8408 0.0692, 1.0236 0.8369 0.0787, 1.0236 0.8129 0.0971, 1.0236 0.8306 0.0869, 1.0236 0.8224 0.0932, 1.0236 0.4539 0.9867
            ]
        }
        coordIndex [
            0,1,2,-1,2,1,3,-1,4,5,6,-1,6,5,7,-1,8,9,10,-1,10,9,11,-1,10,11,4,-1,4,11,5,-1,6,7,8,-1,8,7,9,-1,12,13,14,-1,14,13,15,-1,13,12,16,-1,16,12,17,-1,18,14,19,-1,19,14,15,-1,17,12,18,-1,18,12,14,-1,19,15,16,-1,16,15,13,-1,20,21,22,-1,20,22,23,-1,23,22,24,-1,23,24,25,-1,25,24,26,-1,25,26,27,-1,27,26,28,-1,27,28,29,-1,30,31,32,-1,32,31,33,-1,34,32,35,-1,35,32,33,-1,34,36,32,-1,32,36,37,-1,32,37,38,-1,35,25,27,-1,37,39,38,-1,38,39,40,-1,38,40,41,-1,41,40,42,-1,41,42,43,-1,43,42,44,-1,45,46,47,-1,47,46,48,-1,33,20,35,-1,35,20,23,-1,35,23,25,-1,49,50,45,-1,45,50,51,-1,45,51,46,-1,46,51,52,-1,46,52,44,-1,44,52,53,-1,44,53,43,-1,27,29,35,-1,35,29,54,-1,35,54,55,-1,55,54,56,-1,55,56,57,-1,49,45,58,-1,58,45,59,-1,58,59,60,-1,61,62,57,-1,57,62,63,-1,57,63,55,-1,64,65,66,-1,66,65,67,-1,66,67,48,-1,48,67,68,-1,48,68,47,-1,22,21,31,-1,69,70,71,-1,71,70,72,-1,73,69,74,-1,74,69,75,-1,76,77,78,-1,79,80,81,-1,26,24,82,-1,78,77,70,-1,70,77,83,-1,70,83,72,-1,84,30,85,-1,85,30,76,-1,85,76,86,-1,86,76,78,-1,81,80,82,-1,82,80,28,-1,82,28,26,-1,69,71,75,-1,75,71,87,-1,75,87,88,-1,89,90,91,-1,24,22,82,-1,82,22,31,-1,82,31,92,-1,92,31,30,-1,92,30,93,-1,93,30,84,-1,88,94,75,-1,75,94,95,-1,75,95,96,-1,96,95,97,-1,74,98,73,-1,73,98,99,-1,73,99,100,-1,100,99,101,-1,100,101,102,-1,79,81,91,-1,91,81,103,-1,91,103,89,-1,54,29,80,-1,80,29,28,-1,54,80,79,-1,54,79,56,-1,56,79,91,-1,56,91,57,-1,57,91,90,-1,57,90,61,-1,61,90,89,-1,61,89,62,-1,62,89,103,-1,62,103,63,-1,63,103,81,-1,63,81,55,-1,35,55,82,-1,82,55,81,-1,35,82,34,-1,34,82,92,-1,34,92,36,-1,36,92,93,-1,36,93,37,-1,37,93,84,-1,39,37,85,-1,85,37,84,-1,69,73,46,-1,46,73,48,-1,45,47,75,-1,75,47,74,-1,52,51,71,-1,71,51,87,-1,76,30,38,-1,38,30,32,-1,69,46,70,-1,70,46,44,-1,70,44,78,-1,78,44,42,-1,78,42,86,-1,86,42,40,-1,86,40,85,-1,85,40,39,-1,52,71,72,-1,52,72,53,-1,53,72,83,-1,53,83,43,-1,43,83,77,-1,43,77,41,-1,41,77,76,-1,41,76,38,-1,45,75,96,-1,45,96,59,-1,59,96,97,-1,59,97,60,-1,60,97,95,-1,60,95,58,-1,58,95,94,-1,58,94,49,-1,49,94,88,-1,49,88,50,-1,50,88,87,-1,50,87,51,-1,48,73,100,-1,48,100,66,-1,66,100,102,-1,66,102,64,-1,64,102,101,-1,64,101,65,-1,65,101,99,-1,65,99,67,-1,67,99,98,-1,67,98,68,-1,68,98,74,-1,68,74,47,-1,8,3,6,-1,6,3,1,-1,10,2,8,-1,8,2,3,-1,0,4,1,-1,1,4,6,-1,4,0,10,-1,10,0,2,-1,104,105,106,-1,106,105,107,-1,108,109,110,-1,110,109,111,-1,112,113,114,-1,114,113,115,-1,114,115,108,-1,108,115,109,-1,110,111,112,-1,112,111,113,-1,116,117,118,-1,118,117,119,-1,117,116,120,-1,120,116,121,-1,122,118,123,-1,123,118,119,-1,121,116,122,-1,122,116,118,-1,123,119,120,-1,120,119,117,-1,124,125,126,-1,124,126,127,-1,127,126,128,-1,127,128,129,-1,129,128,130,-1,129,130,131,-1,131,130,132,-1,131,132,133,-1,134,135,136,-1,136,135,137,-1,138,136,139,-1,139,136,137,-1,138,140,136,-1,136,140,141,-1,136,141,142,-1,139,129,131,-1,141,143,142,-1,142,143,144,-1,142,144,145,-1,145,144,146,-1,145,146,147,-1,147,146,148,-1,147,148,149,-1,150,151,152,-1,152,151,153,-1,152,153,154,-1,137,124,139,-1,139,124,127,-1,139,127,129,-1,149,148,155,-1,155,148,156,-1,155,156,152,-1,152,156,157,-1,152,157,150,-1,158,159,160,-1,131,133,139,-1,139,133,161,-1,139,161,162,-1,162,161,163,-1,162,163,164,-1,165,166,164,-1,164,166,167,-1,164,167,162,-1,168,169,170,-1,170,169,171,-1,170,171,157,-1,157,171,172,-1,157,172,150,-1,158,160,153,-1,153,160,173,-1,153,173,154,-1,126,125,135,-1,174,175,176,-1,177,178,179,-1,130,128,180,-1,181,182,183,-1,183,182,184,-1,183,184,185,-1,176,186,174,-1,174,186,182,-1,174,182,187,-1,187,182,181,-1,188,134,189,-1,189,134,185,-1,189,185,190,-1,190,185,184,-1,179,178,180,-1,180,178,132,-1,180,132,130,-1,191,192,193,-1,128,126,180,-1,180,126,135,-1,180,135,194,-1,194,135,134,-1,194,134,195,-1,195,134,188,-1,196,197,198,-1,198,197,199,-1,198,199,200,-1,201,176,202,-1,202,176,175,-1,202,175,199,-1,199,175,203,-1,199,203,200,-1,201,204,176,-1,176,204,205,-1,176,205,206,-1,206,205,207,-1,206,207,208,-1,177,179,193,-1,193,179,209,-1,193,209,191,-1,161,133,178,-1,178,133,132,-1,161,178,177,-1,161,177,163,-1,163,177,193,-1,163,193,164,-1,164,193,192,-1,164,192,165,-1,165,192,191,-1,165,191,166,-1,166,191,209,-1,166,209,167,-1,167,209,179,-1,167,179,162,-1,139,162,180,-1,180,162,179,-1,139,180,138,-1,138,180,194,-1,138,194,140,-1,140,194,195,-1,140,195,141,-1,141,195,188,-1,143,141,189,-1,189,141,188,-1,186,176,156,-1,156,176,157,-1,151,150,202,-1,202,150,201,-1,155,152,174,-1,174,152,175,-1,185,134,142,-1,142,134,136,-1,210,211,212,-1,212,211,213,-1,214,215,216,-1,216,215,217,-1,218,219,220,-1,220,219,221,-1,220,221,214,-1,214,221,215,-1,216,217,218,-1,218,217,219,-1,222,223,224,-1,224,223,225,-1,223,222,226,-1,226,222,227,-1,228,224,229,-1,229,224,225,-1,227,222,228,-1,228,222,224,-1,229,225,226,-1,226,225,223,-1,230,231,232,-1,230,232,233,-1,233,232,234,-1,233,234,235,-1,235,234,236,-1,235,236,237,-1,237,236,238,-1,237,238,239,-1,240,241,242,-1,242,241,243,-1,244,242,245,-1,245,242,243,-1,244,246,242,-1,242,246,247,-1,242,247,248,-1,245,235,237,-1,247,249,248,-1,248,249,250,-1,248,250,251,-1,251,250,252,-1,251,252,253,-1,253,252,254,-1,253,254,255,-1,256,257,258,-1,258,257,259,-1,258,259,260,-1,243,230,245,-1,245,230,233,-1,245,233,235,-1,255,254,261,-1,261,254,262,-1,261,262,258,-1,258,262,263,-1,258,263,256,-1,264,265,266,-1,237,239,245,-1,245,239,267,-1,245,267,268,-1,268,267,269,-1,268,269,270,-1,271,272,270,-1,270,272,273,-1,270,273,268,-1,274,275,276,-1,276,275,277,-1,276,277,263,-1,263,277,278,-1,263,278,256,-1,264,266,259,-1,259,266,279,-1,259,279,260,-1,232,231,241,-1,280,281,282,-1,283,284,285,-1,236,234,286,-1,287,288,289,-1,289,288,290,-1,289,290,291,-1,282,292,280,-1,280,292,288,-1,280,288,293,-1,293,288,287,-1,294,240,295,-1,295,240,291,-1,295,291,296,-1,296,291,290,-1,285,284,286,-1,286,284,238,-1,286,238,236,-1,297,298,299,-1,234,232,286,-1,286,232,241,-1,286,241,300,-1,300,241,240,-1,300,240,301,-1,301,240,294,-1,302,303,304,-1,304,303,305,-1,304,305,306,-1,307,282,308,-1,308,282,281,-1,308,281,305,-1,305,281,309,-1,305,309,306,-1,307,310,282,-1,282,310,311,-1,282,311,312,-1,312,311,313,-1,312,313,314,-1,283,285,299,-1,299,285,315,-1,299,315,297,-1,267,239,284,-1,284,239,238,-1,267,284,283,-1,267,283,269,-1,269,283,299,-1,269,299,270,-1,270,299,298,-1,270,298,271,-1,271,298,297,-1,271,297,272,-1,272,297,315,-1,272,315,273,-1,273,315,285,-1,273,285,268,-1,245,268,286,-1,286,268,285,-1,245,286,244,-1,244,286,300,-1,244,300,246,-1,246,300,301,-1,246,301,247,-1,247,301,294,-1,249,247,295,-1,295,247,294,-1,292,282,262,-1,262,282,263,-1,257,256,308,-1,308,256,307,-1,261,258,280,-1,280,258,281,-1,291,240,248,-1,248,240,242,-1,316,317,318,-1,318,317,319,-1,320,321,322,-1,322,321,323,-1,324,325,326,-1,326,325,327,-1,326,327,320,-1,320,327,321,-1,322,323,324,-1,324,323,325,-1,328,329,330,-1,330,329,331,-1,329,328,332,-1,332,328,333,-1,334,330,335,-1,335,330,331,-1,333,328,334,-1,334,328,330,-1,335,331,332,-1,332,331,329,-1,336,337,338,-1,336,338,339,-1,339,338,340,-1,339,340,341,-1,341,340,342,-1,341,342,343,-1,343,342,344,-1,343,344,345,-1,346,347,348,-1,348,347,349,-1,350,348,351,-1,351,348,349,-1,350,352,348,-1,348,352,353,-1,348,353,354,-1,351,341,343,-1,353,355,354,-1,354,355,356,-1,354,356,357,-1,357,356,358,-1,357,358,359,-1,359,358,360,-1,359,360,361,-1,362,363,364,-1,364,363,365,-1,364,365,366,-1,349,336,351,-1,351,336,339,-1,351,339,341,-1,361,360,367,-1,367,360,368,-1,367,368,364,-1,364,368,369,-1,364,369,362,-1,370,371,372,-1,343,345,351,-1,351,345,373,-1,351,373,374,-1,374,373,375,-1,374,375,376,-1,377,378,376,-1,376,378,379,-1,376,379,374,-1,380,381,382,-1,382,381,383,-1,382,383,369,-1,369,383,384,-1,369,384,362,-1,370,372,365,-1,365,372,385,-1,365,385,366,-1,338,337,347,-1,386,387,388,-1,389,390,391,-1,342,340,392,-1,393,394,395,-1,395,394,396,-1,395,396,397,-1,388,398,386,-1,386,398,394,-1,386,394,399,-1,399,394,393,-1,400,346,401,-1,401,346,397,-1,401,397,402,-1,402,397,396,-1,391,390,392,-1,392,390,344,-1,392,344,342,-1,403,404,405,-1,340,338,392,-1,392,338,347,-1,392,347,406,-1,406,347,346,-1,406,346,407,-1,407,346,400,-1,408,409,410,-1,410,409,411,-1,410,411,412,-1,413,388,414,-1,414,388,387,-1,414,387,411,-1,411,387,415,-1,411,415,412,-1,413,416,388,-1,388,416,417,-1,388,417,418,-1,418,417,419,-1,418,419,420,-1,389,391,405,-1,405,391,421,-1,405,421,403,-1,373,345,390,-1,390,345,344,-1,373,390,389,-1,373,389,375,-1,375,389,405,-1,375,405,376,-1,376,405,404,-1,376,404,377,-1,377,404,403,-1,377,403,378,-1,378,403,421,-1,378,421,379,-1,379,421,391,-1,379,391,374,-1,351,374,392,-1,392,374,391,-1,351,392,350,-1,350,392,406,-1,350,406,352,-1,352,406,407,-1,352,407,353,-1,353,407,400,-1,355,353,401,-1,401,353,400,-1,398,388,368,-1,368,388,369,-1,363,362,414,-1,414,362,413,-1,367,364,386,-1,386,364,387,-1,397,346,354,-1,354,346,348,-1,422,423,424,-1,424,423,425,-1,426,427,428,-1,428,427,429,-1,430,431,432,-1,432,431,433,-1,432,433,426,-1,426,433,427,-1,428,429,430,-1,430,429,431,-1,434,435,436,-1,436,435,437,-1,435,434,438,-1,438,434,439,-1,440,436,441,-1,441,436,437,-1,439,434,440,-1,440,434,436,-1,441,437,438,-1,438,437,435,-1,442,443,444,-1,442,444,445,-1,445,444,446,-1,445,446,447,-1,447,446,448,-1,447,448,449,-1,449,448,450,-1,449,450,451,-1,452,453,454,-1,454,453,455,-1,456,454,457,-1,457,454,455,-1,456,458,454,-1,454,458,459,-1,454,459,460,-1,457,447,449,-1,459,461,460,-1,460,461,462,-1,460,462,463,-1,463,462,464,-1,463,464,465,-1,465,464,466,-1,465,466,467,-1,468,469,470,-1,470,469,471,-1,470,471,472,-1,455,442,457,-1,457,442,445,-1,457,445,447,-1,467,466,473,-1,473,466,474,-1,473,474,470,-1,470,474,475,-1,470,475,468,-1,476,477,478,-1,449,451,457,-1,457,451,479,-1,457,479,480,-1,480,479,481,-1,480,481,482,-1,483,484,482,-1,482,484,485,-1,482,485,480,-1,486,487,488,-1,488,487,489,-1,488,489,475,-1,475,489,490,-1,475,490,468,-1,476,478,471,-1,471,478,491,-1,471,491,472,-1,444,443,453,-1,492,493,494,-1,495,496,497,-1,448,446,498,-1,499,500,501,-1,501,500,502,-1,501,502,503,-1,494,504,492,-1,492,504,500,-1,492,500,505,-1,505,500,499,-1,506,452,507,-1,507,452,503,-1,507,503,508,-1,508,503,502,-1,497,496,498,-1,498,496,450,-1,498,450,448,-1,509,510,511,-1,446,444,498,-1,498,444,453,-1,498,453,512,-1,512,453,452,-1,512,452,513,-1,513,452,506,-1,514,515,516,-1,516,515,517,-1,516,517,518,-1,519,494,520,-1,520,494,493,-1,520,493,517,-1,517,493,521,-1,517,521,518,-1,519,522,494,-1,494,522,523,-1,494,523,524,-1,524,523,525,-1,524,525,526,-1,495,497,511,-1,511,497,527,-1,511,527,509,-1,479,451,496,-1,496,451,450,-1,479,496,495,-1,479,495,481,-1,481,495,511,-1,481,511,482,-1,482,511,510,-1,482,510,483,-1,483,510,509,-1,483,509,484,-1,484,509,527,-1,484,527,485,-1,485,527,497,-1,485,497,480,-1,457,480,498,-1,498,480,497,-1,457,498,456,-1,456,498,512,-1,456,512,458,-1,458,512,513,-1,458,513,459,-1,459,513,506,-1,461,459,507,-1,507,459,506,-1,504,494,474,-1,474,494,475,-1,469,468,520,-1,520,468,519,-1,473,470,492,-1,492,470,493,-1,503,452,460,-1,460,452,454,-1,528,529,530,-1,530,529,531,-1,532,533,534,-1,534,533,535,-1,536,537,538,-1,538,537,539,-1,538,539,532,-1,532,539,533,-1,534,535,536,-1,536,535,537,-1,540,541,542,-1,542,541,543,-1,541,540,544,-1,544,540,545,-1,546,542,547,-1,547,542,543,-1,545,540,546,-1,546,540,542,-1,547,543,544,-1,544,543,541,-1,548,549,550,-1,548,550,551,-1,551,550,552,-1,551,552,553,-1,553,552,554,-1,553,554,555,-1,555,554,556,-1,555,556,557,-1,558,559,560,-1,560,559,561,-1,562,560,563,-1,563,560,561,-1,562,564,560,-1,560,564,565,-1,560,565,566,-1,563,553,555,-1,565,567,566,-1,566,567,568,-1,566,568,569,-1,569,568,570,-1,569,570,571,-1,571,570,572,-1,571,572,573,-1,574,575,576,-1,576,575,577,-1,576,577,578,-1,561,548,563,-1,563,548,551,-1,563,551,553,-1,573,572,579,-1,579,572,580,-1,579,580,576,-1,576,580,581,-1,576,581,574,-1,582,583,584,-1,555,557,563,-1,563,557,585,-1,563,585,586,-1,586,585,587,-1,586,587,588,-1,589,590,588,-1,588,590,591,-1,588,591,586,-1,592,593,594,-1,594,593,595,-1,594,595,581,-1,581,595,596,-1,581,596,574,-1,582,584,577,-1,577,584,597,-1,577,597,578,-1,550,549,559,-1,598,599,600,-1,601,602,603,-1,554,552,604,-1,605,606,607,-1,607,606,608,-1,607,608,609,-1,600,610,598,-1,598,610,606,-1,598,606,611,-1,611,606,605,-1,612,558,613,-1,613,558,609,-1,613,609,614,-1,614,609,608,-1,603,602,604,-1,604,602,556,-1,604,556,554,-1,615,616,617,-1,552,550,604,-1,604,550,559,-1,604,559,618,-1,618,559,558,-1,618,558,619,-1,619,558,612,-1,620,621,622,-1,622,621,623,-1,622,623,624,-1,625,600,626,-1,626,600,599,-1,626,599,623,-1,623,599,627,-1,623,627,624,-1,625,628,600,-1,600,628,629,-1,600,629,630,-1,630,629,631,-1,630,631,632,-1,601,603,617,-1,617,603,633,-1,617,633,615,-1,585,557,602,-1,602,557,556,-1,585,602,601,-1,585,601,587,-1,587,601,617,-1,587,617,588,-1,588,617,616,-1,588,616,589,-1,589,616,615,-1,589,615,590,-1,590,615,633,-1,590,633,591,-1,591,633,603,-1,591,603,586,-1,563,586,604,-1,604,586,603,-1,563,604,562,-1,562,604,618,-1,562,618,564,-1,564,618,619,-1,564,619,565,-1,565,619,612,-1,567,565,613,-1,613,565,612,-1,610,600,580,-1,580,600,581,-1,575,574,626,-1,626,574,625,-1,579,576,598,-1,598,576,599,-1,609,558,566,-1,566,558,560,-1,186,156,182,-1,182,156,148,-1,182,148,184,-1,184,148,146,-1,184,146,190,-1,190,146,144,-1,190,144,189,-1,189,144,143,-1,155,174,187,-1,155,187,149,-1,149,187,181,-1,149,181,147,-1,147,181,183,-1,147,183,145,-1,145,183,185,-1,145,185,142,-1,151,202,199,-1,151,199,153,-1,153,199,197,-1,153,197,158,-1,158,197,196,-1,158,196,159,-1,159,196,198,-1,159,198,160,-1,160,198,200,-1,160,200,173,-1,173,200,203,-1,173,203,154,-1,154,203,175,-1,154,175,152,-1,157,176,206,-1,157,206,170,-1,170,206,208,-1,170,208,168,-1,168,208,207,-1,168,207,169,-1,169,207,205,-1,169,205,171,-1,171,205,204,-1,171,204,172,-1,172,204,201,-1,172,201,150,-1,292,262,288,-1,288,262,254,-1,288,254,290,-1,290,254,252,-1,290,252,296,-1,296,252,250,-1,296,250,295,-1,295,250,249,-1,261,280,293,-1,261,293,255,-1,255,293,287,-1,255,287,253,-1,253,287,289,-1,253,289,251,-1,251,289,291,-1,251,291,248,-1,257,308,305,-1,257,305,259,-1,259,305,303,-1,259,303,264,-1,264,303,302,-1,264,302,265,-1,265,302,304,-1,265,304,266,-1,266,304,306,-1,266,306,279,-1,279,306,309,-1,279,309,260,-1,260,309,281,-1,260,281,258,-1,263,282,312,-1,263,312,276,-1,276,312,314,-1,276,314,274,-1,274,314,313,-1,274,313,275,-1,275,313,311,-1,275,311,277,-1,277,311,310,-1,277,310,278,-1,278,310,307,-1,278,307,256,-1,398,368,394,-1,394,368,360,-1,394,360,396,-1,396,360,358,-1,396,358,402,-1,402,358,356,-1,402,356,401,-1,401,356,355,-1,367,386,399,-1,367,399,361,-1,361,399,393,-1,361,393,359,-1,359,393,395,-1,359,395,357,-1,357,395,397,-1,357,397,354,-1,363,414,411,-1,363,411,365,-1,365,411,409,-1,365,409,370,-1,370,409,408,-1,370,408,371,-1,371,408,410,-1,371,410,372,-1,372,410,412,-1,372,412,385,-1,385,412,415,-1,385,415,366,-1,366,415,387,-1,366,387,364,-1,369,388,418,-1,369,418,382,-1,382,418,420,-1,382,420,380,-1,380,420,419,-1,380,419,381,-1,381,419,417,-1,381,417,383,-1,383,417,416,-1,383,416,384,-1,384,416,413,-1,384,413,362,-1,504,474,500,-1,500,474,466,-1,500,466,502,-1,502,466,464,-1,502,464,508,-1,508,464,462,-1,508,462,507,-1,507,462,461,-1,473,492,505,-1,473,505,467,-1,467,505,499,-1,467,499,465,-1,465,499,501,-1,465,501,463,-1,463,501,503,-1,463,503,460,-1,469,520,517,-1,469,517,471,-1,471,517,515,-1,471,515,476,-1,476,515,514,-1,476,514,477,-1,477,514,516,-1,477,516,478,-1,478,516,518,-1,478,518,491,-1,491,518,521,-1,491,521,472,-1,472,521,493,-1,472,493,470,-1,475,494,524,-1,475,524,488,-1,488,524,526,-1,488,526,486,-1,486,526,525,-1,486,525,487,-1,487,525,523,-1,487,523,489,-1,489,523,522,-1,489,522,490,-1,490,522,519,-1,490,519,468,-1,610,580,606,-1,606,580,572,-1,606,572,608,-1,608,572,570,-1,608,570,614,-1,614,570,568,-1,614,568,613,-1,613,568,567,-1,579,598,611,-1,579,611,573,-1,573,611,605,-1,573,605,571,-1,571,605,607,-1,571,607,569,-1,569,607,609,-1,569,609,566,-1,575,626,623,-1,575,623,577,-1,577,623,621,-1,577,621,582,-1,582,621,620,-1,582,620,583,-1,583,620,622,-1,583,622,584,-1,584,622,624,-1,584,624,597,-1,597,624,627,-1,597,627,578,-1,578,627,599,-1,578,599,576,-1,581,600,630,-1,581,630,594,-1,594,630,632,-1,594,632,592,-1,592,632,631,-1,592,631,593,-1,593,631,629,-1,593,629,595,-1,595,629,628,-1,595,628,596,-1,596,628,625,-1,596,625,574,-1,112,107,110,-1,110,107,105,-1,114,106,112,-1,112,106,107,-1,104,108,105,-1,105,108,110,-1,108,104,114,-1,114,104,106,-1,218,213,216,-1,216,213,211,-1,220,212,218,-1,218,212,213,-1,210,214,211,-1,211,214,216,-1,214,210,220,-1,220,210,212,-1,324,319,322,-1,322,319,317,-1,326,318,324,-1,324,318,319,-1,316,320,317,-1,317,320,322,-1,320,316,326,-1,326,316,318,-1,430,425,428,-1,428,425,423,-1,432,424,430,-1,430,424,425,-1,422,426,423,-1,423,426,428,-1,426,422,432,-1,432,422,424,-1,536,531,534,-1,534,531,529,-1,538,530,536,-1,536,530,531,-1,528,532,529,-1,529,532,534,-1,532,528,538,-1,538,528,530,-1,
        ]
    }
}
Shape{
    appearance Appearance {
        material  Material 	{
            diffuseColor 0.25098039215686274 0.25098039215686274 0.25098039215686274
            specularColor 0.12549019607843137 0.12549019607843137 0.12549019607843137
            ambientIntensity 0.251
            transparency 0.0
            shininess 0.5
        }
    }
    geometry IndexedFaceSet {
        ccw TRUE
        solid FALSE
        coord DEF co Coordinate {
            point [
                -0.3366 -0.3197 0.0354, -0.3366 -0.3197 0.0394, -0.3178 -0.3749 0.0354, -0.3178 -0.3749 0.0394, -0.4179 -0.3197 0.0354, -0.4179 -0.3197 0.0394, -0.4378 -0.3749 0.0354, -0.4378 -0.3749 0.0394, -0.4666 -0.3749 0.0354, -0.4666 -0.3749 0.0394, -0.3898 -0.178 0.0354, -0.3898 -0.178 0.0394, -0.3634 -0.178 0.0354, -0.3634 -0.178 0.0394, -0.289 -0.3749 0.0354, -0.289 -0.3749 0.0394, -0.3432 -0.2981 0.0394, -0.3726 -0.2158 0.0394, -0.3777 -0.2089 0.0394, -0.3757 -0.202 0.0394, -0.3745 -0.209 0.0394, -0.3794 -0.2158 0.0394, -0.409 -0.2981 0.0394, -0.3432 -0.2981 0.0354, -0.3726 -0.2158 0.0354, -0.409 -0.2981 0.0354, -0.3794 -0.2158 0.0354, -0.3777 -0.2089 0.0354, -0.3757 -0.202 0.0354, -0.3745 -0.209 0.0354, -0.1161 -0.3749 0.0354, -0.1161 -0.3749 0.0394, -0.1161 -0.178 0.0354, -0.1161 -0.178 0.0394, -0.1696 -0.3749 0.0354, -0.1696 -0.3749 0.0394, -0.2746 -0.274 0.0354, -0.2746 -0.274 0.0394, -0.2715 -0.2857 0.0394, -0.2715 -0.2857 0.0354, -0.2561 -0.33 0.0394, -0.2561 -0.33 0.0354, -0.2454 -0.3461 0.0394, -0.2454 -0.3461 0.0354, -0.235 -0.3557 0.0394, -0.235 -0.3557 0.0354, -0.2214 -0.3631 0.0394, -0.2214 -0.3631 0.0354, -0.2014 -0.3693 0.0394, -0.2014 -0.3693 0.0354, -0.1717 -0.178 0.0354, -0.1717 -0.178 0.0394, -0.1852 -0.1807 0.0394, -0.1852 -0.1807 0.0354, -0.2274 -0.1932 0.0394, -0.2274 -0.1932 0.0354, -0.2434 -0.2026 0.0394, -0.2434 -0.2026 0.0354, -0.2531 -0.2122 0.0394, -0.2531 -0.2122 0.0354, -0.2609 -0.2249 0.0394, -0.2609 -0.2249 0.0354, -0.2678 -0.2438 0.0394, -0.2678 -0.2438 0.0354, -0.2092 -0.2073 0.0394, -0.2192 -0.2123 0.0394, -0.2264 -0.2184 0.0394, -0.2336 -0.2284 0.0394, -0.2416 -0.2479 0.0394, -0.2481 -0.2745 0.0394, -0.2445 -0.2982 0.0394, -0.2402 -0.3133 0.0394, -0.235 -0.3236 0.0394, -0.2286 -0.3311 0.0394, -0.2183 -0.3385 0.0394, -0.1981 -0.3466 0.0394, -0.1946 -0.2032 0.0394, -0.1716 -0.1996 0.0394, -0.1425 -0.1996 0.0394, -0.1425 -0.3533 0.0394, -0.1705 -0.3533 0.0394, -0.2481 -0.2745 0.0354, -0.2416 -0.2479 0.0354, -0.2336 -0.2284 0.0354, -0.2264 -0.2184 0.0354, -0.2192 -0.2123 0.0354, -0.2092 -0.2073 0.0354, -0.1946 -0.2032 0.0354, -0.1716 -0.1996 0.0354, -0.1425 -0.1996 0.0354, -0.1425 -0.3533 0.0354, -0.1705 -0.3533 0.0354, -0.1981 -0.3466 0.0354, -0.2183 -0.3385 0.0354, -0.2286 -0.3311 0.0354, -0.235 -0.3236 0.0354, -0.2402 -0.3133 0.0354, -0.2445 -0.2982 0.0354, -0.0681 -0.2644 0.0354, -0.0681 -0.2644 0.0394, -0.0681 -0.2861 0.0354, -0.0681 -0.2861 0.0394, 0.0015 -0.2644 0.0354, 0.0015 -0.2644 0.0394, 0.0015 -0.1996 0.0354, 0.0015 -0.1996 0.0394, -0.0729 -0.1996 0.0354, -0.0729 -0.1996 0.0394, -0.0729 -0.178 0.0354, -0.0729 -0.178 0.0394, 0.0279 -0.178 0.0354, 0.0279 -0.178 0.0394, 0.0279 -0.3749 0.0354, 0.0279 -0.3749 0.0394, -0.0777 -0.3749 0.0354, -0.0777 -0.3749 0.0394, -0.0777 -0.3533 0.0354, -0.0777 -0.3533 0.0394, 0.0015 -0.3533 0.0354, 0.0015 -0.3533 0.0394, 0.0015 -0.2861 0.0354, 0.0015 -0.2861 0.0394, 0.0663 -0.2098 0.0354, 0.0663 -0.2098 0.0394, 0.0886 -0.2003 0.0394, 0.0886 -0.2003 0.0354, 0.1124 -0.1972 0.0394, 0.1124 -0.1972 0.0354, 0.0663 -0.1834 0.0354, 0.0663 -0.1834 0.0394, 0.1127 -0.1756 0.0354, 0.1127 -0.1756 0.0394, 0.0949 -0.1768 0.0354, 0.0891 -0.1772 0.0394, 0.0891 -0.1772 0.0354, 0.2128 -0.2802 0.0354, 0.2128 -0.2802 0.0394, 0.2104 -0.269 0.0394, 0.2104 -0.269 0.0354, 0.1966 -0.2238 0.0394, 0.1966 -0.2238 0.0354, 0.1867 -0.2072 0.0394, 0.1867 -0.2072 0.0354, 0.1767 -0.1973 0.0394, 0.1767 -0.1973 0.0354, 0.1635 -0.1893 0.0394, 0.1635 -0.1893 0.0354, 0.1439 -0.1824 0.0394, 0.1439 -0.1824 0.0354, 0.1182 -0.1768 0.0354, 0.1205 -0.3773 0.0354, 0.1205 -0.3773 0.0394, 0.1361 -0.3732 0.0394, 0.1361 -0.3732 0.0354, 0.1733 -0.3596 0.0394, 0.1733 -0.3596 0.0354, 0.1875 -0.3499 0.0394, 0.1875 -0.3499 0.0354, 0.1961 -0.3403 0.0394, 0.1961 -0.3403 0.0354, 0.2026 -0.3278 0.0394, 0.2026 -0.3278 0.0354, 0.2081 -0.3093 0.0394, 0.2081 -0.3093 0.0354, 0.0663 -0.3647 0.0354, 0.0663 -0.3647 0.0394, 0.0927 -0.3745 0.0394, 0.0927 -0.3745 0.0354, 0.0663 -0.3431 0.0354, 0.0663 -0.3431 0.0394, 0.1169 -0.3557 0.0354, 0.1169 -0.3557 0.0394, 0.0907 -0.3528 0.0394, 0.0907 -0.3528 0.0354, 0.1864 -0.2786 0.0354, 0.1864 -0.2786 0.0394, 0.1817 -0.3025 0.0394, 0.1817 -0.3025 0.0354, 0.1748 -0.3232 0.0394, 0.1748 -0.3232 0.0354, 0.1681 -0.3337 0.0394, 0.1681 -0.3337 0.0354, 0.1621 -0.3397 0.0394, 0.1621 -0.3397 0.0354, 0.1527 -0.3454 0.0394, 0.1527 -0.3454 0.0354, 0.1389 -0.3505 0.0394, 0.1389 -0.3505 0.0354, 0.1222 -0.2 0.0394, 0.1222 -0.2 0.0354, 0.1545 -0.2124 0.0394, 0.1545 -0.2124 0.0354, 0.1664 -0.2207 0.0394, 0.1664 -0.2207 0.0354, 0.1733 -0.2288 0.0394, 0.1733 -0.2288 0.0354, 0.1786 -0.2392 0.0394, 0.1786 -0.2392 0.0354, 0.1829 -0.2544 0.0394, 0.1829 -0.2544 0.0354, 0.3304 -0.3749 0.0354, 0.3304 -0.3749 0.0394, 0.3304 -0.178 0.0354, 0.3304 -0.178 0.0394, 0.2296 -0.3749 0.0354, 0.2296 -0.3749 0.0394, 0.2296 -0.3533 0.0354, 0.2296 -0.3533 0.0394, 0.304 -0.3533 0.0354, 0.304 -0.3533 0.0394, 0.304 -0.178 0.0354, 0.304 -0.178 0.0394
            ]
        }
        coordIndex [
            0,1,2,-1,2,1,3,-1,4,5,0,-1,0,5,1,-1,6,7,4,-1,4,7,5,-1,8,9,6,-1,6,9,7,-1,10,11,8,-1,8,11,9,-1,12,13,10,-1,10,13,11,-1,14,15,12,-1,12,15,13,-1,14,2,15,-1,15,2,3,-1,16,17,13,-1,15,3,1,-1,18,11,19,-1,19,11,13,-1,19,13,20,-1,20,13,17,-1,18,21,11,-1,11,21,22,-1,11,22,9,-1,7,9,5,-1,5,9,22,-1,5,22,1,-1,1,22,16,-1,1,16,15,-1,15,16,13,-1,16,23,17,-1,17,23,24,-1,22,25,16,-1,16,25,23,-1,21,26,22,-1,22,26,25,-1,26,21,18,-1,26,18,27,-1,27,18,19,-1,27,19,28,-1,28,19,20,-1,28,20,29,-1,29,20,17,-1,29,17,24,-1,30,31,32,-1,32,31,33,-1,34,35,30,-1,30,35,31,-1,36,37,38,-1,36,38,39,-1,39,38,40,-1,39,40,41,-1,41,40,42,-1,41,42,43,-1,43,42,44,-1,43,44,45,-1,45,44,46,-1,45,46,47,-1,47,46,48,-1,47,48,49,-1,49,48,35,-1,49,35,34,-1,50,51,52,-1,50,52,53,-1,53,52,54,-1,53,54,55,-1,55,54,56,-1,55,56,57,-1,57,56,58,-1,57,58,59,-1,59,58,60,-1,59,60,61,-1,61,60,62,-1,61,62,63,-1,63,62,37,-1,63,37,36,-1,50,32,51,-1,51,32,33,-1,64,65,54,-1,54,65,56,-1,56,65,66,-1,56,66,58,-1,58,66,67,-1,58,67,60,-1,60,67,68,-1,60,68,62,-1,62,68,37,-1,37,68,69,-1,37,69,38,-1,38,69,70,-1,38,70,40,-1,70,71,40,-1,40,71,72,-1,40,72,42,-1,42,72,73,-1,42,73,44,-1,44,73,74,-1,44,74,46,-1,46,74,75,-1,64,54,76,-1,76,54,52,-1,76,52,77,-1,77,52,51,-1,77,51,78,-1,78,51,33,-1,78,33,79,-1,79,33,31,-1,79,31,80,-1,80,31,35,-1,80,35,75,-1,75,35,48,-1,75,48,46,-1,81,69,68,-1,81,68,82,-1,82,68,67,-1,82,67,83,-1,83,67,66,-1,83,66,84,-1,84,66,65,-1,84,65,85,-1,85,65,64,-1,85,64,86,-1,86,64,76,-1,86,76,87,-1,87,76,77,-1,87,77,88,-1,78,89,77,-1,77,89,88,-1,79,90,78,-1,78,90,89,-1,80,91,79,-1,79,91,90,-1,91,80,75,-1,91,75,92,-1,92,75,74,-1,92,74,93,-1,93,74,73,-1,93,73,94,-1,94,73,72,-1,94,72,95,-1,95,72,71,-1,95,71,96,-1,96,71,70,-1,96,70,97,-1,97,70,69,-1,97,69,81,-1,98,99,100,-1,100,99,101,-1,102,103,98,-1,98,103,99,-1,104,105,102,-1,102,105,103,-1,106,107,104,-1,104,107,105,-1,108,109,106,-1,106,109,107,-1,110,111,108,-1,108,111,109,-1,112,113,110,-1,110,113,111,-1,114,115,112,-1,112,115,113,-1,116,117,114,-1,114,117,115,-1,118,119,116,-1,116,119,117,-1,120,121,118,-1,118,121,119,-1,120,100,121,-1,121,100,101,-1,107,109,105,-1,105,109,111,-1,105,111,103,-1,115,117,113,-1,113,117,119,-1,113,119,121,-1,101,99,121,-1,121,99,103,-1,121,103,113,-1,113,103,111,-1,122,123,124,-1,122,124,125,-1,125,124,126,-1,125,126,127,-1,128,129,122,-1,122,129,123,-1,130,131,132,-1,132,131,133,-1,132,133,134,-1,134,133,129,-1,134,129,128,-1,135,136,137,-1,135,137,138,-1,138,137,139,-1,138,139,140,-1,140,139,141,-1,140,141,142,-1,142,141,143,-1,142,143,144,-1,144,143,145,-1,144,145,146,-1,146,145,147,-1,146,147,148,-1,148,147,149,-1,149,147,131,-1,149,131,130,-1,150,151,152,-1,150,152,153,-1,153,152,154,-1,153,154,155,-1,155,154,156,-1,155,156,157,-1,157,156,158,-1,157,158,159,-1,159,158,160,-1,159,160,161,-1,161,160,162,-1,161,162,163,-1,163,162,136,-1,163,136,135,-1,164,165,166,-1,164,166,167,-1,167,166,151,-1,167,151,150,-1,168,169,164,-1,164,169,165,-1,170,171,172,-1,170,172,173,-1,173,172,169,-1,173,169,168,-1,174,175,176,-1,174,176,177,-1,177,176,178,-1,177,178,179,-1,179,178,180,-1,179,180,181,-1,181,180,182,-1,181,182,183,-1,183,182,184,-1,183,184,185,-1,185,184,186,-1,185,186,187,-1,187,186,171,-1,187,171,170,-1,127,126,188,-1,127,188,189,-1,189,188,190,-1,189,190,191,-1,191,190,192,-1,191,192,193,-1,193,192,194,-1,193,194,195,-1,195,194,196,-1,195,196,197,-1,197,196,198,-1,197,198,199,-1,199,198,175,-1,199,175,174,-1,123,129,124,-1,124,129,133,-1,124,133,126,-1,126,133,131,-1,126,131,188,-1,188,131,147,-1,188,147,190,-1,176,160,178,-1,178,160,158,-1,178,158,180,-1,180,158,156,-1,180,156,182,-1,182,156,154,-1,147,145,190,-1,190,145,143,-1,190,143,192,-1,192,143,141,-1,192,141,194,-1,194,141,139,-1,194,139,196,-1,165,169,166,-1,166,169,172,-1,166,172,151,-1,151,172,171,-1,151,171,152,-1,152,171,186,-1,152,186,154,-1,154,186,184,-1,154,184,182,-1,196,139,198,-1,198,139,137,-1,198,137,175,-1,175,137,136,-1,175,136,176,-1,176,136,162,-1,176,162,160,-1,200,201,202,-1,202,201,203,-1,204,205,200,-1,200,205,201,-1,206,207,204,-1,204,207,205,-1,208,209,206,-1,206,209,207,-1,210,211,208,-1,208,211,209,-1,210,202,211,-1,211,202,203,-1,211,203,209,-1,209,203,201,-1,209,201,207,-1,207,201,205,-1,
        ]
    }
}
Shape{
    appearance Appearance {
        material  Material 	{
            diffuseColor 1.0 0.9764705882352941 0.9058823529411765
            specularColor 0.5019607843137255 0.48627450980392156 0.45098039215686275
            ambientIntensity 0.9755
            transparency 0.0
            shininess 0.5
        }
    }
    geometry IndexedFaceSet {
        ccw TRUE
        solid FALSE
        coord DEF co Coordinate {
            point [
                -0.3432 -0.2981 0.0354, -0.409 -0.2981 0.0354, -0.3726 -0.2158 0.0354, -0.3794 -0.2158 0.0354, -0.3745 -0.209 0.0354, -0.3777 -0.2089 0.0354, -0.3757 -0.202 0.0354, -0.1716 -0.1996 0.0354, -0.1425 -0.1996 0.0354, -0.2445 -0.2982 0.0354, -0.2402 -0.3133 0.0354, -0.2092 -0.2073 0.0354, -0.1946 -0.2032 0.0354, -0.2416 -0.2479 0.0354, -0.2481 -0.2745 0.0354, -0.1425 -0.3533 0.0354, -0.1705 -0.3533 0.0354, -0.1981 -0.3466 0.0354, -0.2183 -0.3385 0.0354, -0.2286 -0.3311 0.0354, -0.235 -0.3236 0.0354, -0.2192 -0.2123 0.0354, -0.2336 -0.2284 0.0354, -0.2264 -0.2184 0.0354, 1.4213 0.5075 1.1181, 1.0728 0.5075 1.1181, 1.4213 0.3106 1.1181, 1.0335 0.4393 1.1181, 1.0335 0.3106 1.1181, -1.4213 0.5075 1.1181, -1.4213 0.3106 1.1181, -1.3287 0.3106 1.1181, -1.0728 0.5075 1.1181, -1.0335 0.4393 1.1181, -1.0335 0.3106 1.1181, -0.935 0.3106 1.1181, -0.6398 0.3106 1.1181, -0.6398 0.4393 1.1181, -0.6791 0.5075 1.1181, -0.8957 0.5075 1.1181, -0.935 0.4393 1.1181, -0.5413 0.3106 1.1181, -0.2461 0.3106 1.1181, -0.2461 0.4393 1.1181, -0.2854 0.5075 1.1181, -0.502 0.5075 1.1181, -0.5413 0.4393 1.1181, -0.1476 0.3106 1.1181, 0.1476 0.3106 1.1181, 0.1476 0.4393 1.1181, 0.1083 0.5075 1.1181, -0.1083 0.5075 1.1181, -0.1476 0.4393 1.1181, 0.6398 0.3106 1.1181, 0.935 0.3106 1.1181, 0.935 0.4393 1.1181, 0.8957 0.5075 1.1181, 0.6791 0.5075 1.1181, 0.6398 0.4393 1.1181, 0.2461 0.3106 1.1181, 0.5413 0.3106 1.1181, 0.5413 0.4393 1.1181, 0.502 0.5075 1.1181, 0.2854 0.5075 1.1181, 0.2461 0.4393 1.1181
            ]
        }
        coordIndex [
            0,1,2,-1,2,1,3,-1,2,3,4,-1,4,3,5,-1,4,5,6,-1,7,8,9,-1,9,8,10,-1,11,12,13,-1,7,9,12,-1,12,9,14,-1,12,14,13,-1,15,16,8,-1,8,16,17,-1,8,17,18,-1,18,19,8,-1,8,19,20,-1,8,20,10,-1,11,13,21,-1,21,13,22,-1,21,22,23,-1,24,25,26,-1,26,25,27,-1,26,27,28,-1,29,30,31,-1,32,29,33,-1,33,29,31,-1,33,31,34,-1,35,36,37,-1,38,39,37,-1,37,39,40,-1,37,40,35,-1,41,42,43,-1,44,45,43,-1,43,45,46,-1,43,46,41,-1,47,48,49,-1,50,51,49,-1,49,51,52,-1,49,52,47,-1,53,54,55,-1,56,57,55,-1,55,57,58,-1,55,58,53,-1,59,60,61,-1,62,63,61,-1,61,63,64,-1,61,64,59,-1,
        ]
    }
}