#VRML V2.0 utf8
# 3D model generated by easyeda2kicad.py (https://github.com/uPesy/easyeda2kicad.py)

Shape{
    appearance Appearance {
        material  Material 	{
            diffuseColor 0.25098039215686274 0.25098039215686274 0.25098039215686274
            specularColor 0.12549019607843137 0.12549019607843137 0.12549019607843137
            ambientIntensity 0.251
            transparency 0.0
            shininess 0.5
        }
    }
    geometry IndexedFaceSet {
        ccw TRUE
        solid FALSE
        coord DEF co Coordinate {
            point [
                0.6827 -0.597 0.0591, 0.675 -0.6016 0.0591, 0.6827 -0.5884 0.0591, 0.675 -0.5219 0.0591, 0.6943 -0.5219 0.0591, 0.6918 -0.5221 0.0591, 0.6827 -0.5245 0.0591, 0.6827 -0.5351 0.0591, 0.6916 -0.5313 0.0591, 0.6841 -0.5892 0.0591, 0.7012 -0.5301 0.0591, 0.7089 -0.5309 0.0591, 0.7148 -0.5331 0.0591, 0.7203 -0.5367 0.0591, 0.725 -0.542 0.0591, 0.7307 -0.5626 0.0591, 0.7299 -0.5711 0.0591, 0.7278 -0.5779 0.0591, 0.7103 -0.5926 0.0591, 0.7029 -0.5934 0.0591, 0.716 -0.5905 0.0591, 0.7208 -0.5872 0.0591, 0.7245 -0.5834 0.0591, 0.6925 -0.5923 0.0591, 0.7283 -0.548 0.0591, 0.7304 -0.5565 0.0591, 0.7012 -0.5214 0.0591, 0.675 0.6948 0.0591, 0.7071 -0.5219 0.0591, 0.7447 0.6948 0.0591, 0.7371 -0.5431 0.0591, 0.7325 -0.5358 0.0591, 0.7447 -0.5219 0.0591, 0.7281 -0.5944 0.0591, 0.734 -0.5882 0.0591, 0.7447 -0.6016 0.0591, 0.7382 -0.5807 0.0591, 0.709 -0.6016 0.0591, 0.7141 -0.6011 0.0591, 0.7217 -0.5985 0.0591, 0.7254 -0.5289 0.0591, 0.7179 -0.5246 0.0591, 0.7092 -0.5221 0.0591, 0.7405 -0.5724 0.0591, 0.7413 -0.5632 0.0591, 0.7402 -0.552 0.0591, 0.7022 -0.602 0.0591, 0.675 -0.6948 0.0591, 0.6991 -0.6016 0.0591, 0.6911 -0.6005 0.0591, 0.7447 -0.6948 0.0591, 0.7044 -0.6021 0.0591, -0.9255 -0.6948 0.0591, -0.9258 -0.69 0.0591, -0.6598 -0.6948 0.0591, -0.6598 -0.6016 0.0591, 0.4316 -0.6948 0.0591, 0.4316 -0.6016 0.0591, 0.5435 -0.6948 0.0591, 0.5435 -0.6016 0.0591, 0.6174 -0.6948 0.0591, 0.6174 -0.6016 0.0591, 0.748 -0.5925 0.0591, 0.748 -0.6011 0.0591, 0.7883 -0.6011 0.0591, 0.7778 -0.5925 0.0591, 0.7778 -0.5224 0.0591, 0.7883 -0.5224 0.0591, 0.8916 -0.5219 0.0591, 0.8916 -0.6016 0.0591, 0.8916 -0.6948 0.0591, 0.627 -0.5224 0.0591, 0.6174 -0.5219 0.0591, 0.6674 -0.6011 0.0591, 0.6674 -0.5224 0.0591, 0.627 -0.531 0.0591, 0.6251 -0.5925 0.0591, 0.6251 -0.6011 0.0591, 0.6568 -0.5656 0.0591, 0.6568 -0.5925 0.0591, 0.6289 -0.5656 0.0591, 0.6289 -0.557 0.0591, 0.6568 -0.557 0.0591, 0.6568 -0.531 0.0591, 0.5503 -0.5795 0.0591, 0.5548 -0.5866 0.0591, 0.5613 -0.5928 0.0591, 0.5695 -0.5976 0.0591, 0.5875 -0.5224 0.0591, 0.5435 -0.5219 0.0591, 0.5761 -0.5236 0.0591, 0.5669 -0.5268 0.0591, 0.5584 -0.5326 0.0591, 0.5583 -0.5327 0.0591, 0.5527 -0.5388 0.0591, 0.5491 -0.5456 0.0591, 0.5786 -0.6003 0.0591, 0.5883 -0.6011 0.0591, 0.6097 -0.6011 0.0591, 0.6097 -0.5224 0.0591, 0.5469 -0.5534 0.0591, 0.5464 -0.5608 0.0591, 0.5475 -0.5713 0.0591, 0.489 -0.579 0.0591, 0.5216 -0.579 0.0591, 0.4811 -0.6011 0.0591, 0.5291 -0.6011 0.0591, 0.4695 -0.6011 0.0591, 0.5003 -0.5224 0.0591, 0.4316 -0.5219 0.0591, 0.5108 -0.5224 0.0591, 0.5406 -0.6011 0.0591, -0.6598 -0.5219 0.0591, -0.9255 0.6948 0.0591, -0.6598 0.6948 0.0591, -0.9258 0.69 0.0591, -0.9258 -0.5219 0.0591, -0.9258 -0.6016 0.0591, 0.8916 0.6948 0.0591, 0.6174 0.6948 0.0591, 0.5435 0.6948 0.0591, 0.4316 0.6948 0.0591, 0.3937 0.3937 0.0591, -0.3937 0.3937 0.0591, -0.3937 -0.3937 0.0591, 0.3937 -0.3937 0.0591, -0.9256 0.7677 0.3346, -0.8346 0.7677 0.3346, -0.8346 0.7622 0.2953, -0.8916 0.7337 0.0929, -0.6654 0.7622 0.2953, 0.8916 0.7337 0.0929, -0.1654 0.7622 0.2953, -0.1654 0.7677 0.3346, 0.1654 0.7677 0.3346, 0.1654 0.7622 0.2953, 0.3346 0.7622 0.2953, -0.3346 0.7622 0.2953, -0.3346 0.7677 0.3346, -0.6654 0.7677 0.3346, 0.8346 0.7677 0.3346, 0.9256 0.7677 0.3346, 0.8346 0.7622 0.2953, 0.6654 0.7622 0.2953, 0.6654 0.7677 0.3346, 0.3346 0.7677 0.3346, -0.3346 0.7616 0.378, 0.8346 0.7616 0.378, -0.8346 0.7616 0.378, -0.8916 0.7337 0.5763, -0.6654 0.7616 0.378, 0.6654 0.7616 0.378, 0.3346 0.7616 0.378, 0.8916 0.7337 0.5763, 0.1654 0.7616 0.378, -0.1654 0.7616 0.378, 0.9256 -0.7677 0.3346, 0.8346 -0.7677 0.3346, 0.8346 -0.7622 0.2953, 0.6654 -0.7677 0.3346, 0.3346 -0.7677 0.3346, 0.6654 -0.7622 0.2953, 0.3346 -0.7622 0.2953, 0.8916 -0.7337 0.0929, -0.8916 -0.7337 0.0929, 0.1654 -0.7622 0.2953, 0.1654 -0.7677 0.3346, -0.1654 -0.7677 0.3346, -0.1654 -0.7622 0.2953, -0.3346 -0.7622 0.2953, -0.8346 -0.7677 0.3346, -0.9256 -0.7677 0.3346, -0.8346 -0.7622 0.2953, -0.6654 -0.7622 0.2953, -0.6654 -0.7677 0.3346, -0.3346 -0.7677 0.3346, -0.9056 -0.7477 0.4771, -0.8346 -0.7616 0.378, -0.6654 -0.7616 0.378, 0.9056 -0.7477 0.4771, -0.1654 -0.7616 0.378, 0.1654 -0.7616 0.378, 0.3346 -0.7616 0.378, -0.3346 -0.7616 0.378, 0.8346 -0.7616 0.378, 0.6654 -0.7616 0.378, 0.9306 -0.6948 0.0929, 0.9306 0.6948 0.0929, 0.9646 -0.7287 0.3346, 0.9646 0.7287 0.3346, -0.9646 -0.7287 0.3346, -0.9646 0.7287 0.3346, 0.9306 0.6948 0.5763, 0.9306 -0.577 0.5763, 0.9445 -0.7087 0.4771, -0.9306 0.6948 0.5763, -0.9306 -0.577 0.5763, -0.9445 -0.7087 0.4771, -0.612 -0.3511 0.6102, 0.8916 -0.577 0.6102, -0.6151 -0.3279 0.6102, 0.8916 0.6948 0.6102, -0.624 -0.3064 0.6102, -0.6383 -0.2878 0.6102, -0.7247 -0.4376 0.6102, -0.7463 -0.4286 0.6102, -0.8916 -0.577 0.6102, -0.6151 -0.3743 0.6102, -0.624 -0.3959 0.6102, -0.6383 -0.4144 0.6102, -0.6568 -0.4286 0.6102, -0.6784 -0.4376 0.6102, -0.7015 -0.4406 0.6102, -0.7648 -0.4144 0.6102, -0.7791 -0.3959 0.6102, -0.788 -0.3743 0.6102, -0.791 -0.3511 0.6102, -0.788 -0.3279 0.6102, -0.8916 0.6948 0.6102, -0.7791 -0.3064 0.6102, -0.7648 -0.2878 0.6102, -0.7463 -0.2736 0.6102, -0.7247 -0.2647 0.6102, -0.7015 -0.2616 0.6102, -0.6784 -0.2647 0.6102, -0.6568 -0.2736 0.6102
            ]
        }
        coordIndex [
            0,1,2,-1,2,1,3,-1,3,4,5,-1,5,6,3,-1,3,6,7,-1,3,7,2,-1,2,7,8,-1,2,8,9,-1,9,8,10,-1,9,10,11,-1,11,12,9,-1,9,12,13,-1,9,13,14,-1,15,16,9,-1,9,16,17,-1,18,19,20,-1,20,19,21,-1,17,22,9,-1,9,22,21,-1,9,21,23,-1,23,21,19,-1,14,24,9,-1,9,24,25,-1,9,25,15,-1,26,27,28,-1,28,27,29,-1,30,31,32,-1,33,34,35,-1,35,34,36,-1,37,38,35,-1,35,38,39,-1,35,39,33,-1,31,40,32,-1,32,40,41,-1,32,41,42,-1,36,43,35,-1,35,43,44,-1,35,44,32,-1,32,44,45,-1,32,45,30,-1,46,47,48,-1,48,47,1,-1,48,1,49,-1,49,1,0,-1,35,50,37,-1,37,50,47,-1,37,47,51,-1,51,47,46,-1,52,53,54,-1,54,53,55,-1,54,55,56,-1,56,57,58,-1,58,57,59,-1,58,59,60,-1,60,59,61,-1,60,61,47,-1,32,62,35,-1,35,62,63,-1,35,63,64,-1,65,62,66,-1,66,62,32,-1,66,32,67,-1,67,32,68,-1,67,68,64,-1,64,68,69,-1,64,69,35,-1,35,69,70,-1,35,70,50,-1,71,72,3,-1,47,61,1,-1,1,61,73,-1,1,73,3,-1,3,73,74,-1,3,74,71,-1,71,75,72,-1,72,75,76,-1,72,76,61,-1,61,76,77,-1,61,77,73,-1,78,79,80,-1,80,79,76,-1,80,76,81,-1,81,76,75,-1,81,75,82,-1,82,75,83,-1,84,85,59,-1,59,85,86,-1,59,86,87,-1,88,89,72,-1,88,90,89,-1,89,90,91,-1,89,91,92,-1,92,93,89,-1,89,93,94,-1,89,94,95,-1,87,96,59,-1,59,96,97,-1,59,97,61,-1,61,97,98,-1,61,98,72,-1,72,98,99,-1,72,99,88,-1,95,100,89,-1,89,100,101,-1,89,101,59,-1,59,101,102,-1,59,102,84,-1,103,104,105,-1,105,104,106,-1,107,57,108,-1,108,57,109,-1,110,89,111,-1,111,89,59,-1,111,59,106,-1,106,59,57,-1,106,57,105,-1,105,57,107,-1,56,55,57,-1,57,55,112,-1,57,112,109,-1,113,114,115,-1,115,114,112,-1,115,112,116,-1,116,112,55,-1,116,55,117,-1,117,55,53,-1,42,28,32,-1,32,28,29,-1,32,29,68,-1,68,29,118,-1,26,4,27,-1,27,4,3,-1,27,3,119,-1,119,3,72,-1,119,72,120,-1,120,72,89,-1,120,89,121,-1,110,108,89,-1,89,108,109,-1,89,109,121,-1,121,109,122,-1,121,122,114,-1,114,122,123,-1,114,123,112,-1,112,123,124,-1,112,124,109,-1,109,124,125,-1,109,125,122,-1,126,127,128,-1,126,128,129,-1,129,128,130,-1,129,130,131,-1,132,133,134,-1,135,136,131,-1,134,135,132,-1,132,135,131,-1,132,131,137,-1,137,131,130,-1,137,130,138,-1,138,130,139,-1,140,141,142,-1,142,141,131,-1,142,131,143,-1,143,131,136,-1,143,136,144,-1,144,136,145,-1,146,138,139,-1,141,140,147,-1,127,126,148,-1,148,126,149,-1,148,149,150,-1,144,145,151,-1,151,145,152,-1,141,147,153,-1,153,147,151,-1,153,151,149,-1,149,151,152,-1,149,152,154,-1,139,150,146,-1,146,150,149,-1,146,149,155,-1,155,149,154,-1,155,154,133,-1,133,154,134,-1,156,157,158,-1,159,160,161,-1,161,160,162,-1,156,158,163,-1,163,158,161,-1,163,161,164,-1,164,161,162,-1,164,162,165,-1,166,167,165,-1,165,167,168,-1,165,168,164,-1,164,168,169,-1,170,171,172,-1,172,171,164,-1,172,164,173,-1,173,164,169,-1,173,169,174,-1,174,169,175,-1,176,171,170,-1,170,177,176,-1,176,177,178,-1,176,178,179,-1,180,167,166,-1,181,182,179,-1,166,181,180,-1,180,181,179,-1,180,179,183,-1,183,179,178,-1,183,178,175,-1,175,178,174,-1,157,156,184,-1,184,156,179,-1,184,179,185,-1,185,179,182,-1,185,182,159,-1,159,182,160,-1,186,187,188,-1,188,187,189,-1,190,191,115,-1,115,116,190,-1,190,116,117,-1,190,117,53,-1,189,192,188,-1,188,192,193,-1,188,193,194,-1,195,191,196,-1,196,191,190,-1,196,190,197,-1,198,199,200,-1,200,199,201,-1,200,201,202,-1,202,201,203,-1,204,205,206,-1,198,207,199,-1,199,207,208,-1,199,208,209,-1,209,210,199,-1,199,210,211,-1,199,211,206,-1,206,211,212,-1,206,212,204,-1,205,213,206,-1,206,213,214,-1,206,214,215,-1,215,216,206,-1,206,216,217,-1,206,217,218,-1,218,217,219,-1,219,220,218,-1,218,220,221,-1,218,221,222,-1,222,223,218,-1,218,223,224,-1,218,224,201,-1,201,224,225,-1,201,225,203,-1,
        ]
    }
}
Shape{
    appearance Appearance {
        material  Material 	{
            diffuseColor 0.0 0.0 0.0
            specularColor 0.0 0.0 0.0
            ambientIntensity 0.0
            transparency 0.0
            shininess 0.5
        }
    }
    geometry IndexedFaceSet {
        ccw TRUE
        solid FALSE
        coord DEF co Coordinate {
            point [
                -0.612 -0.3511 0.6098, -0.612 -0.3511 0.6102, -0.6151 -0.3279 0.6098, -0.6151 -0.3279 0.6102, -0.624 -0.3064 0.6098, -0.624 -0.3064 0.6102, -0.6383 -0.2878 0.6098, -0.6383 -0.2878 0.6102, -0.6568 -0.2736 0.6098, -0.6568 -0.2736 0.6102, -0.6784 -0.2647 0.6098, -0.6784 -0.2647 0.6102, -0.7015 -0.2616 0.6098, -0.7015 -0.2616 0.6102, -0.7247 -0.2647 0.6098, -0.7247 -0.2647 0.6102, -0.7463 -0.2736 0.6098, -0.7463 -0.2736 0.6102, -0.7648 -0.2878 0.6098, -0.7648 -0.2878 0.6102, -0.7791 -0.3064 0.6098, -0.7791 -0.3064 0.6102, -0.788 -0.3279 0.6098, -0.788 -0.3279 0.6102, -0.791 -0.3511 0.6098, -0.791 -0.3511 0.6102, -0.788 -0.3743 0.6098, -0.788 -0.3743 0.6102, -0.7791 -0.3959 0.6098, -0.7791 -0.3959 0.6102, -0.7648 -0.4144 0.6098, -0.7648 -0.4144 0.6102, -0.7463 -0.4286 0.6098, -0.7463 -0.4286 0.6102, -0.7247 -0.4376 0.6098, -0.7247 -0.4376 0.6102, -0.7015 -0.4406 0.6098, -0.7015 -0.4406 0.6102, -0.6784 -0.4376 0.6098, -0.6784 -0.4376 0.6102, -0.6568 -0.4286 0.6098, -0.6568 -0.4286 0.6102, -0.6383 -0.4144 0.6098, -0.6383 -0.4144 0.6102, -0.624 -0.3959 0.6098, -0.624 -0.3959 0.6102, -0.6151 -0.3743 0.6098, -0.6151 -0.3743 0.6102, -0.7015 -0.3511 0.6098
            ]
        }
        coordIndex [
            0,1,2,-1,2,1,3,-1,2,3,4,-1,4,3,5,-1,4,5,6,-1,6,5,7,-1,6,7,8,-1,8,7,9,-1,8,9,10,-1,10,9,11,-1,10,11,12,-1,12,11,13,-1,12,13,14,-1,14,13,15,-1,14,15,16,-1,16,15,17,-1,16,17,18,-1,18,17,19,-1,18,19,20,-1,20,19,21,-1,20,21,22,-1,22,21,23,-1,22,23,24,-1,24,23,25,-1,24,25,26,-1,26,25,27,-1,26,27,28,-1,28,27,29,-1,28,29,30,-1,30,29,31,-1,30,31,32,-1,32,31,33,-1,32,33,34,-1,34,33,35,-1,34,35,36,-1,36,35,37,-1,36,37,38,-1,38,37,39,-1,38,39,40,-1,40,39,41,-1,40,41,42,-1,42,41,43,-1,42,43,44,-1,44,43,45,-1,44,45,46,-1,46,45,47,-1,46,47,0,-1,0,47,1,-1,44,46,48,-1,48,46,0,-1,48,0,2,-1,38,40,48,-1,48,40,42,-1,48,42,44,-1,32,34,48,-1,48,34,36,-1,48,36,38,-1,26,28,48,-1,48,28,30,-1,48,30,32,-1,20,22,48,-1,48,22,24,-1,48,24,26,-1,14,16,48,-1,48,16,18,-1,48,18,20,-1,8,10,48,-1,48,10,12,-1,48,12,14,-1,2,4,48,-1,48,4,6,-1,48,6,8,-1,
        ]
    }
}
Shape{
    appearance Appearance {
        material  Material 	{
            diffuseColor 0.25098039215686274 0.25098039215686274 0.25098039215686274
            specularColor 0.12549019607843137 0.12549019607843137 0.12549019607843137
            ambientIntensity 0.251
            transparency 0.0
            shininess 0.5
        }
    }
    geometry IndexedFaceSet {
        ccw TRUE
        solid FALSE
        coord DEF co Coordinate {
            point [
                -0.8916 -0.6007 0.6023, -0.9056 -0.7324 0.5031, 0.8916 -0.6007 0.6023, 0.9056 -0.7324 0.5031
            ]
        }
        coordIndex [
            0,1,2,-1,2,1,3,-1,
        ]
    }
}
Shape{
    appearance Appearance {
        material  Material 	{
            diffuseColor 1.0 1.0 1.0
            specularColor 0.5019607843137255 0.5019607843137255 0.5019607843137255
            ambientIntensity 1.0
            transparency 0.0
            shininess 0.5
        }
    }
    geometry IndexedFaceSet {
        ccw TRUE
        solid FALSE
        coord DEF co Coordinate {
            point [
                0.1654 -0.7616 0.378, 0.1654 -0.8796 0.378, 0.3346 -0.7616 0.378, 0.3346 -0.8796 0.378, 0.3346 -1.1811 0.0827, 0.3346 -1.0275 0.0827, 0.1654 -1.1811 0.0827, 0.1654 -1.0275 0.0827, 0.3346 -1.1811 0.0, 0.1654 -1.1811 0.0, 0.3346 -1.0275 0.0, 0.1654 -1.0275 0.0, 0.1654 -1.0048 0.0027, 0.3346 -1.0048 0.0027, 0.1654 -0.9833 0.0105, 0.3346 -0.9833 0.0105, 0.1654 -0.9642 0.023, 0.3346 -0.9642 0.023, 0.1654 -0.9485 0.0396, 0.3346 -0.9485 0.0396, 0.1654 -0.9371 0.0594, 0.3346 -0.9371 0.0594, 0.1654 -0.9305 0.0813, 0.3346 -0.9305 0.0813, 0.3346 -0.8951 0.2823, 0.1654 -0.8951 0.2823, 0.3346 -0.8941 0.2858, 0.1654 -0.8941 0.2858, 0.3346 -0.8922 0.2889, 0.1654 -0.8922 0.2889, 0.3346 -0.8897 0.2916, 0.1654 -0.8897 0.2916, 0.3346 -0.8867 0.2936, 0.1654 -0.8867 0.2936, 0.3346 -0.8832 0.2949, 0.1654 -0.8832 0.2949, 0.3346 -0.8796 0.2953, 0.1654 -0.8796 0.2953, 0.3346 -0.7622 0.2953, 0.1654 -0.7622 0.2953, 0.1654 -0.9023 0.3753, 0.3346 -0.9023 0.3753, 0.1654 -0.9238 0.3675, 0.3346 -0.9238 0.3675, 0.1654 -0.9429 0.3549, 0.3346 -0.9429 0.3549, 0.1654 -0.9586 0.3383, 0.3346 -0.9586 0.3383, 0.1654 -0.97 0.3185, 0.3346 -0.97 0.3185, 0.1654 -0.9765 0.2966, 0.3346 -0.9765 0.2966, 0.3346 -1.012 0.0957, 0.1654 -1.012 0.0957, 0.3346 -1.013 0.0922, 0.1654 -1.013 0.0922, 0.3346 -1.0148 0.089, 0.1654 -1.0148 0.089, 0.3346 -1.0173 0.0864, 0.1654 -1.0173 0.0864, 0.3346 -1.0204 0.0844, 0.1654 -1.0204 0.0844, 0.3346 -1.0238 0.0831, 0.1654 -1.0238 0.0831, 0.3346 -0.7677 0.3346, 0.1654 -0.7677 0.3346, 0.8346 -1.1811 0.0827, 0.8346 -1.0275 0.0827, 0.6654 -1.1811 0.0827, 0.6654 -1.0275 0.0827, 0.8346 -1.1811 0.0, 0.6654 -1.1811 0.0, 0.8346 -1.0275 0.0, 0.6654 -1.0275 0.0, 0.6654 -1.0048 0.0027, 0.8346 -1.0048 0.0027, 0.6654 -0.9833 0.0105, 0.8346 -0.9833 0.0105, 0.6654 -0.9642 0.023, 0.8346 -0.9642 0.023, 0.6654 -0.9485 0.0396, 0.8346 -0.9485 0.0396, 0.6654 -0.9371 0.0594, 0.8346 -0.9371 0.0594, 0.6654 -0.9305 0.0813, 0.8346 -0.9305 0.0813, 0.8346 -0.8951 0.2823, 0.6654 -0.8951 0.2823, 0.8346 -0.8941 0.2858, 0.6654 -0.8941 0.2858, 0.8346 -0.8922 0.2889, 0.6654 -0.8922 0.2889, 0.8346 -0.8897 0.2916, 0.6654 -0.8897 0.2916, 0.8346 -0.8867 0.2936, 0.6654 -0.8867 0.2936, 0.8346 -0.8832 0.2949, 0.6654 -0.8832 0.2949, 0.8346 -0.8796 0.2953, 0.6654 -0.8796 0.2953, 0.8346 -0.7622 0.2953, 0.6654 -0.7622 0.2953, 0.6654 -0.7616 0.378, 0.6654 -0.8796 0.378, 0.8346 -0.7616 0.378, 0.8346 -0.8796 0.378, 0.6654 -0.9023 0.3753, 0.8346 -0.9023 0.3753, 0.6654 -0.9238 0.3675, 0.8346 -0.9238 0.3675, 0.6654 -0.9429 0.3549, 0.8346 -0.9429 0.3549, 0.6654 -0.9586 0.3383, 0.8346 -0.9586 0.3383, 0.6654 -0.97 0.3185, 0.8346 -0.97 0.3185, 0.6654 -0.9765 0.2966, 0.8346 -0.9765 0.2966, 0.8346 -1.012 0.0957, 0.6654 -1.012 0.0957, 0.8346 -0.7677 0.3346, 0.8346 -1.0238 0.0831, 0.8346 -1.0204 0.0844, 0.8346 -1.0173 0.0864, 0.8346 -1.0148 0.089, 0.8346 -1.013 0.0922, 0.6654 -1.013 0.0922, 0.6654 -1.0148 0.089, 0.6654 -1.0173 0.0864, 0.6654 -1.0204 0.0844, 0.6654 -1.0238 0.0831, 0.6654 -0.7677 0.3346, -0.1654 -1.1811 0.0827, -0.1654 -1.0275 0.0827, -0.3346 -1.1811 0.0827, -0.3346 -1.0275 0.0827, -0.1654 -1.1811 0.0, -0.3346 -1.1811 0.0, -0.1654 -1.0275 0.0, -0.3346 -1.0275 0.0, -0.3346 -1.0048 0.0027, -0.1654 -1.0048 0.0027, -0.3346 -0.9833 0.0105, -0.1654 -0.9833 0.0105, -0.3346 -0.9642 0.023, -0.1654 -0.9642 0.023, -0.3346 -0.9485 0.0396, -0.1654 -0.9485 0.0396, -0.3346 -0.9371 0.0594, -0.1654 -0.9371 0.0594, -0.3346 -0.9305 0.0813, -0.1654 -0.9305 0.0813, -0.1654 -0.8951 0.2823, -0.3346 -0.8951 0.2823, -0.1654 -0.8941 0.2858, -0.3346 -0.8941 0.2858, -0.1654 -0.8922 0.2889, -0.3346 -0.8922 0.2889, -0.1654 -0.8897 0.2916, -0.3346 -0.8897 0.2916, -0.1654 -0.8867 0.2936, -0.3346 -0.8867 0.2936, -0.1654 -0.8832 0.2949, -0.3346 -0.8832 0.2949, -0.1654 -0.8796 0.2953, -0.3346 -0.8796 0.2953, -0.1654 -0.7622 0.2953, -0.3346 -0.7622 0.2953, -0.3346 -0.7616 0.378, -0.3346 -0.8796 0.378, -0.1654 -0.7616 0.378, -0.1654 -0.8796 0.378, -0.3346 -0.9023 0.3753, -0.1654 -0.9023 0.3753, -0.3346 -0.9238 0.3675, -0.1654 -0.9238 0.3675, -0.3346 -0.9429 0.3549, -0.1654 -0.9429 0.3549, -0.3346 -0.9586 0.3383, -0.1654 -0.9586 0.3383, -0.3346 -0.97 0.3185, -0.1654 -0.97 0.3185, -0.3346 -0.9765 0.2966, -0.1654 -0.9765 0.2966, -0.1654 -1.012 0.0957, -0.3346 -1.012 0.0957, -0.1654 -0.7677 0.3346, -0.1654 -1.0238 0.0831, -0.1654 -1.0204 0.0844, -0.1654 -1.0173 0.0864, -0.1654 -1.0148 0.089, -0.1654 -1.013 0.0922, -0.3346 -1.013 0.0922, -0.3346 -1.0148 0.089, -0.3346 -1.0173 0.0864, -0.3346 -1.0204 0.0844, -0.3346 -1.0238 0.0831, -0.3346 -0.7677 0.3346, -0.6654 -1.1811 0.0827, -0.6654 -1.0275 0.0827, -0.8346 -1.1811 0.0827, -0.8346 -1.0275 0.0827, -0.6654 -1.1811 0.0, -0.8346 -1.1811 0.0, -0.6654 -1.0275 0.0, -0.8346 -1.0275 0.0, -0.8346 -1.0048 0.0027, -0.6654 -1.0048 0.0027, -0.8346 -0.9833 0.0105, -0.6654 -0.9833 0.0105, -0.8346 -0.9642 0.023, -0.6654 -0.9642 0.023, -0.8346 -0.9485 0.0396, -0.6654 -0.9485 0.0396, -0.8346 -0.9371 0.0594, -0.6654 -0.9371 0.0594, -0.8346 -0.9305 0.0813, -0.6654 -0.9305 0.0813, -0.6654 -0.8951 0.2823, -0.8346 -0.8951 0.2823, -0.6654 -0.8941 0.2858, -0.8346 -0.8941 0.2858, -0.6654 -0.8922 0.2889, -0.8346 -0.8922 0.2889, -0.6654 -0.8897 0.2916, -0.8346 -0.8897 0.2916, -0.6654 -0.8867 0.2936, -0.8346 -0.8867 0.2936, -0.6654 -0.8832 0.2949, -0.8346 -0.8832 0.2949, -0.6654 -0.8796 0.2953, -0.8346 -0.8796 0.2953, -0.6654 -0.7622 0.2953, -0.8346 -0.7622 0.2953, -0.8346 -0.7616 0.378, -0.8346 -0.8796 0.378, -0.6654 -0.7616 0.378, -0.6654 -0.8796 0.378, -0.8346 -0.9023 0.3753, -0.6654 -0.9023 0.3753, -0.8346 -0.9238 0.3675, -0.6654 -0.9238 0.3675, -0.8346 -0.9429 0.3549, -0.6654 -0.9429 0.3549, -0.8346 -0.9586 0.3383, -0.6654 -0.9586 0.3383, -0.8346 -0.97 0.3185, -0.6654 -0.97 0.3185, -0.8346 -0.9765 0.2966, -0.6654 -0.9765 0.2966, -0.6654 -1.012 0.0957, -0.8346 -1.012 0.0957, -0.6654 -0.7677 0.3346, -0.6654 -1.0238 0.0831, -0.6654 -1.0204 0.0844, -0.6654 -1.0173 0.0864, -0.6654 -1.0148 0.089, -0.6654 -1.013 0.0922, -0.8346 -1.013 0.0922, -0.8346 -1.0148 0.089, -0.8346 -1.0173 0.0864, -0.8346 -1.0204 0.0844, -0.8346 -1.0238 0.0831, -0.8346 -0.7677 0.3346, 0.3346 1.0275 0.0827, 0.3346 1.1811 0.0827, 0.1654 1.0275 0.0827, 0.1654 1.1811 0.0827, 0.3346 1.1811 0.0, 0.1654 1.1811 0.0, 0.3346 1.0275 0.0, 0.1654 1.0275 0.0, 0.3346 0.9305 0.0813, 0.1654 0.9305 0.0813, 0.1654 0.9371 0.0594, 0.3346 0.9371 0.0594, 0.1654 0.9485 0.0396, 0.3346 0.9485 0.0396, 0.1654 0.9642 0.023, 0.3346 0.9642 0.023, 0.1654 0.9833 0.0105, 0.3346 0.9833 0.0105, 0.1654 1.0048 0.0027, 0.3346 1.0048 0.0027, 0.3346 0.8951 0.2823, 0.1654 0.8951 0.2823, 0.3346 0.8796 0.2953, 0.1654 0.8796 0.2953, 0.3346 0.8832 0.2949, 0.1654 0.8832 0.2949, 0.3346 0.8867 0.2936, 0.1654 0.8867 0.2936, 0.3346 0.8897 0.2916, 0.1654 0.8897 0.2916, 0.3346 0.8922 0.2889, 0.1654 0.8922 0.2889, 0.3346 0.8941 0.2858, 0.1654 0.8941 0.2858, 0.3346 0.7622 0.2953, 0.1654 0.7622 0.2953, 0.1654 0.8796 0.378, 0.1654 0.7616 0.378, 0.3346 0.8796 0.378, 0.3346 0.7616 0.378, 0.3346 0.9765 0.2966, 0.1654 0.9765 0.2966, 0.1654 0.97 0.3185, 0.3346 0.97 0.3185, 0.1654 0.9586 0.3383, 0.3346 0.9586 0.3383, 0.1654 0.9429 0.3549, 0.3346 0.9429 0.3549, 0.1654 0.9238 0.3675, 0.3346 0.9238 0.3675, 0.1654 0.9023 0.3753, 0.3346 0.9023 0.3753, 0.3346 1.012 0.0957, 0.1654 1.012 0.0957, 0.3346 0.7677 0.3346, 0.3346 1.013 0.0922, 0.3346 1.0148 0.089, 0.3346 1.0173 0.0864, 0.3346 1.0204 0.0844, 0.3346 1.0238 0.0831, 0.1654 1.0238 0.0831, 0.1654 1.0204 0.0844, 0.1654 1.0173 0.0864, 0.1654 1.0148 0.089, 0.1654 1.013 0.0922, 0.1654 0.7677 0.3346, 0.8346 1.0275 0.0827, 0.8346 1.1811 0.0827, 0.6654 1.0275 0.0827, 0.6654 1.1811 0.0827, 0.8346 1.1811 0.0, 0.6654 1.1811 0.0, 0.8346 1.0275 0.0, 0.6654 1.0275 0.0, 0.8346 0.9305 0.0813, 0.6654 0.9305 0.0813, 0.6654 0.9371 0.0594, 0.8346 0.9371 0.0594, 0.6654 0.9485 0.0396, 0.8346 0.9485 0.0396, 0.6654 0.9642 0.023, 0.8346 0.9642 0.023, 0.6654 0.9833 0.0105, 0.8346 0.9833 0.0105, 0.6654 1.0048 0.0027, 0.8346 1.0048 0.0027, 0.8346 0.8951 0.2823, 0.6654 0.8951 0.2823, 0.8346 0.8796 0.2953, 0.6654 0.8796 0.2953, 0.8346 0.8832 0.2949, 0.6654 0.8832 0.2949, 0.8346 0.8867 0.2936, 0.6654 0.8867 0.2936, 0.8346 0.8897 0.2916, 0.6654 0.8897 0.2916, 0.8346 0.8922 0.2889, 0.6654 0.8922 0.2889, 0.8346 0.8941 0.2858, 0.6654 0.8941 0.2858, 0.8346 0.7622 0.2953, 0.6654 0.7622 0.2953, 0.6654 0.8796 0.378, 0.6654 0.7616 0.378, 0.8346 0.8796 0.378, 0.8346 0.7616 0.378, 0.8346 0.9765 0.2966, 0.6654 0.9765 0.2966, 0.6654 0.97 0.3185, 0.8346 0.97 0.3185, 0.6654 0.9586 0.3383, 0.8346 0.9586 0.3383, 0.6654 0.9429 0.3549, 0.8346 0.9429 0.3549, 0.6654 0.9238 0.3675, 0.8346 0.9238 0.3675, 0.6654 0.9023 0.3753, 0.8346 0.9023 0.3753, 0.8346 1.012 0.0957, 0.6654 1.012 0.0957, 0.8346 0.7677 0.3346, 0.8346 1.013 0.0922, 0.8346 1.0148 0.089, 0.8346 1.0173 0.0864, 0.8346 1.0204 0.0844, 0.8346 1.0238 0.0831, 0.6654 1.0238 0.0831, 0.6654 1.0204 0.0844, 0.6654 1.0173 0.0864, 0.6654 1.0148 0.089, 0.6654 1.013 0.0922, 0.6654 0.7677 0.3346, -0.1654 1.0275 0.0827, -0.1654 1.1811 0.0827, -0.3346 1.0275 0.0827, -0.3346 1.1811 0.0827, -0.1654 1.1811 0.0, -0.3346 1.1811 0.0, -0.1654 1.0275 0.0, -0.3346 1.0275 0.0, -0.1654 0.9305 0.0813, -0.3346 0.9305 0.0813, -0.3346 0.9371 0.0594, -0.1654 0.9371 0.0594, -0.3346 0.9485 0.0396, -0.1654 0.9485 0.0396, -0.3346 0.9642 0.023, -0.1654 0.9642 0.023, -0.3346 0.9833 0.0105, -0.1654 0.9833 0.0105, -0.3346 1.0048 0.0027, -0.1654 1.0048 0.0027, -0.1654 0.8951 0.2823, -0.3346 0.8951 0.2823, -0.1654 0.8796 0.2953, -0.3346 0.8796 0.2953, -0.1654 0.8832 0.2949, -0.3346 0.8832 0.2949, -0.1654 0.8867 0.2936, -0.3346 0.8867 0.2936, -0.1654 0.8897 0.2916, -0.3346 0.8897 0.2916, -0.1654 0.8922 0.2889, -0.3346 0.8922 0.2889, -0.1654 0.8941 0.2858, -0.3346 0.8941 0.2858, -0.1654 0.7622 0.2953, -0.3346 0.7622 0.2953, -0.3346 0.8796 0.378, -0.3346 0.7616 0.378, -0.1654 0.8796 0.378, -0.1654 0.7616 0.378, -0.1654 0.9765 0.2966, -0.3346 0.9765 0.2966, -0.3346 0.97 0.3185, -0.1654 0.97 0.3185, -0.3346 0.9586 0.3383, -0.1654 0.9586 0.3383, -0.3346 0.9429 0.3549, -0.1654 0.9429 0.3549, -0.3346 0.9238 0.3675, -0.1654 0.9238 0.3675, -0.3346 0.9023 0.3753, -0.1654 0.9023 0.3753, -0.1654 1.012 0.0957, -0.3346 1.012 0.0957, -0.1654 0.7677 0.3346, -0.1654 1.013 0.0922, -0.1654 1.0148 0.089, -0.1654 1.0173 0.0864, -0.1654 1.0204 0.0844, -0.1654 1.0238 0.0831, -0.3346 1.0238 0.0831, -0.3346 1.0204 0.0844, -0.3346 1.0173 0.0864, -0.3346 1.0148 0.089, -0.3346 1.013 0.0922, -0.3346 0.7677 0.3346, -0.6654 1.0275 0.0827, -0.6654 1.1811 0.0827, -0.8346 1.0275 0.0827, -0.8346 1.1811 0.0827, -0.6654 1.1811 0.0, -0.8346 1.1811 0.0, -0.6654 1.0275 0.0, -0.8346 1.0275 0.0, -0.6654 0.9305 0.0813, -0.8346 0.9305 0.0813, -0.8346 0.9371 0.0594, -0.6654 0.9371 0.0594, -0.8346 0.9485 0.0396, -0.6654 0.9485 0.0396, -0.8346 0.9642 0.023, -0.6654 0.9642 0.023, -0.8346 0.9833 0.0105, -0.6654 0.9833 0.0105, -0.8346 1.0048 0.0027, -0.6654 1.0048 0.0027, -0.6654 0.8951 0.2823, -0.8346 0.8951 0.2823, -0.6654 0.8796 0.2953, -0.8346 0.8796 0.2953, -0.6654 0.8832 0.2949, -0.8346 0.8832 0.2949, -0.6654 0.8867 0.2936, -0.8346 0.8867 0.2936, -0.6654 0.8897 0.2916, -0.8346 0.8897 0.2916, -0.6654 0.8922 0.2889, -0.8346 0.8922 0.2889, -0.6654 0.8941 0.2858, -0.8346 0.8941 0.2858, -0.6654 0.7622 0.2953, -0.8346 0.7622 0.2953, -0.8346 0.8796 0.378, -0.8346 0.7616 0.378, -0.6654 0.8796 0.378, -0.6654 0.7616 0.378, -0.6654 0.9765 0.2966, -0.8346 0.9765 0.2966, -0.8346 0.97 0.3185, -0.6654 0.97 0.3185, -0.8346 0.9586 0.3383, -0.6654 0.9586 0.3383, -0.8346 0.9429 0.3549, -0.6654 0.9429 0.3549, -0.8346 0.9238 0.3675, -0.6654 0.9238 0.3675, -0.8346 0.9023 0.3753, -0.6654 0.9023 0.3753, -0.6654 1.012 0.0957, -0.8346 1.012 0.0957, -0.6654 0.7677 0.3346, -0.6654 1.013 0.0922, -0.6654 1.0148 0.089, -0.6654 1.0173 0.0864, -0.6654 1.0204 0.0844, -0.6654 1.0238 0.0831, -0.8346 1.0238 0.0831, -0.8346 1.0204 0.0844, -0.8346 1.0173 0.0864, -0.8346 1.0148 0.089, -0.8346 1.013 0.0922, -0.8346 0.7677 0.3346
            ]
        }
        coordIndex [
            0,1,2,-1,2,1,3,-1,4,5,6,-1,6,5,7,-1,8,4,9,-1,9,4,6,-1,10,8,11,-1,11,8,9,-1,10,11,12,-1,10,12,13,-1,13,12,14,-1,13,14,15,-1,15,14,16,-1,15,16,17,-1,17,16,18,-1,17,18,19,-1,19,18,20,-1,19,20,21,-1,21,20,22,-1,21,22,23,-1,24,23,25,-1,25,23,22,-1,24,25,26,-1,26,25,27,-1,26,27,28,-1,28,27,29,-1,28,29,30,-1,30,29,31,-1,30,31,32,-1,32,31,33,-1,32,33,34,-1,34,33,35,-1,34,35,36,-1,36,35,37,-1,38,36,39,-1,39,36,37,-1,3,1,40,-1,3,40,41,-1,41,40,42,-1,41,42,43,-1,43,42,44,-1,43,44,45,-1,45,44,46,-1,45,46,47,-1,47,46,48,-1,47,48,49,-1,49,48,50,-1,49,50,51,-1,52,51,53,-1,53,51,50,-1,52,53,54,-1,54,53,55,-1,54,55,56,-1,56,55,57,-1,56,57,58,-1,58,57,59,-1,58,59,60,-1,60,59,61,-1,60,61,62,-1,62,61,63,-1,62,63,5,-1,5,63,7,-1,2,3,64,-1,64,3,41,-1,47,30,32,-1,38,64,36,-1,36,64,47,-1,36,47,34,-1,34,47,32,-1,41,43,64,-1,64,43,45,-1,64,45,47,-1,4,8,5,-1,5,8,10,-1,5,10,62,-1,62,10,13,-1,62,13,60,-1,60,13,15,-1,60,15,58,-1,58,15,17,-1,58,17,56,-1,56,17,19,-1,56,19,54,-1,54,19,21,-1,54,21,52,-1,52,21,23,-1,52,23,51,-1,51,23,24,-1,51,24,49,-1,49,24,26,-1,49,26,47,-1,47,26,28,-1,47,28,30,-1,1,0,65,-1,37,35,46,-1,46,35,33,-1,44,42,65,-1,65,42,40,-1,65,40,1,-1,44,65,46,-1,46,65,39,-1,46,39,37,-1,33,31,46,-1,46,31,29,-1,46,29,48,-1,48,29,27,-1,48,27,50,-1,50,27,25,-1,50,25,53,-1,53,25,22,-1,53,22,55,-1,55,22,20,-1,55,20,57,-1,57,20,18,-1,57,18,59,-1,59,18,16,-1,59,16,61,-1,61,16,14,-1,61,14,63,-1,63,14,12,-1,63,12,7,-1,7,12,11,-1,7,11,6,-1,6,11,9,-1,66,67,68,-1,68,67,69,-1,70,66,71,-1,71,66,68,-1,72,70,73,-1,73,70,71,-1,72,73,74,-1,72,74,75,-1,75,74,76,-1,75,76,77,-1,77,76,78,-1,77,78,79,-1,79,78,80,-1,79,80,81,-1,81,80,82,-1,81,82,83,-1,83,82,84,-1,83,84,85,-1,86,85,87,-1,87,85,84,-1,86,87,88,-1,88,87,89,-1,88,89,90,-1,90,89,91,-1,90,91,92,-1,92,91,93,-1,92,93,94,-1,94,93,95,-1,94,95,96,-1,96,95,97,-1,96,97,98,-1,98,97,99,-1,100,98,101,-1,101,98,99,-1,102,103,104,-1,104,103,105,-1,105,103,106,-1,105,106,107,-1,107,106,108,-1,107,108,109,-1,109,108,110,-1,109,110,111,-1,111,110,112,-1,111,112,113,-1,113,112,114,-1,113,114,115,-1,115,114,116,-1,115,116,117,-1,118,117,119,-1,119,117,116,-1,104,105,120,-1,120,105,107,-1,113,92,94,-1,100,120,98,-1,98,120,113,-1,98,113,96,-1,96,113,94,-1,107,109,120,-1,120,109,111,-1,120,111,113,-1,66,70,67,-1,67,70,72,-1,67,72,121,-1,121,72,75,-1,121,75,122,-1,122,75,77,-1,122,77,123,-1,123,77,79,-1,123,79,124,-1,124,79,81,-1,124,81,125,-1,125,81,83,-1,125,83,118,-1,118,83,85,-1,118,85,117,-1,117,85,86,-1,117,86,115,-1,115,86,88,-1,115,88,113,-1,113,88,90,-1,113,90,92,-1,118,119,125,-1,125,119,126,-1,125,126,124,-1,124,126,127,-1,124,127,123,-1,123,127,128,-1,123,128,122,-1,122,128,129,-1,122,129,121,-1,121,129,130,-1,121,130,67,-1,67,130,69,-1,103,102,131,-1,99,97,112,-1,112,97,95,-1,110,108,131,-1,131,108,106,-1,131,106,103,-1,110,131,112,-1,112,131,101,-1,112,101,99,-1,95,93,112,-1,112,93,91,-1,112,91,114,-1,114,91,89,-1,114,89,116,-1,116,89,87,-1,116,87,119,-1,119,87,84,-1,119,84,126,-1,126,84,82,-1,126,82,127,-1,127,82,80,-1,127,80,128,-1,128,80,78,-1,128,78,129,-1,129,78,76,-1,129,76,130,-1,130,76,74,-1,130,74,69,-1,69,74,73,-1,69,73,68,-1,68,73,71,-1,132,133,134,-1,134,133,135,-1,136,132,137,-1,137,132,134,-1,138,136,139,-1,139,136,137,-1,138,139,140,-1,138,140,141,-1,141,140,142,-1,141,142,143,-1,143,142,144,-1,143,144,145,-1,145,144,146,-1,145,146,147,-1,147,146,148,-1,147,148,149,-1,149,148,150,-1,149,150,151,-1,152,151,153,-1,153,151,150,-1,152,153,154,-1,154,153,155,-1,154,155,156,-1,156,155,157,-1,156,157,158,-1,158,157,159,-1,158,159,160,-1,160,159,161,-1,160,161,162,-1,162,161,163,-1,162,163,164,-1,164,163,165,-1,166,164,167,-1,167,164,165,-1,168,169,170,-1,170,169,171,-1,171,169,172,-1,171,172,173,-1,173,172,174,-1,173,174,175,-1,175,174,176,-1,175,176,177,-1,177,176,178,-1,177,178,179,-1,179,178,180,-1,179,180,181,-1,181,180,182,-1,181,182,183,-1,184,183,185,-1,185,183,182,-1,170,171,186,-1,186,171,173,-1,179,158,160,-1,166,186,164,-1,164,186,179,-1,164,179,162,-1,162,179,160,-1,173,175,186,-1,186,175,177,-1,186,177,179,-1,132,136,133,-1,133,136,138,-1,133,138,187,-1,187,138,141,-1,187,141,188,-1,188,141,143,-1,188,143,189,-1,189,143,145,-1,189,145,190,-1,190,145,147,-1,190,147,191,-1,191,147,149,-1,191,149,184,-1,184,149,151,-1,184,151,183,-1,183,151,152,-1,183,152,181,-1,181,152,154,-1,181,154,179,-1,179,154,156,-1,179,156,158,-1,184,185,191,-1,191,185,192,-1,191,192,190,-1,190,192,193,-1,190,193,189,-1,189,193,194,-1,189,194,188,-1,188,194,195,-1,188,195,187,-1,187,195,196,-1,187,196,133,-1,133,196,135,-1,169,168,197,-1,165,163,178,-1,178,163,161,-1,176,174,197,-1,197,174,172,-1,197,172,169,-1,176,197,178,-1,178,197,167,-1,178,167,165,-1,161,159,178,-1,178,159,157,-1,178,157,180,-1,180,157,155,-1,180,155,182,-1,182,155,153,-1,182,153,185,-1,185,153,150,-1,185,150,192,-1,192,150,148,-1,192,148,193,-1,193,148,146,-1,193,146,194,-1,194,146,144,-1,194,144,195,-1,195,144,142,-1,195,142,196,-1,196,142,140,-1,196,140,135,-1,135,140,139,-1,135,139,134,-1,134,139,137,-1,198,199,200,-1,200,199,201,-1,202,198,203,-1,203,198,200,-1,204,202,205,-1,205,202,203,-1,204,205,206,-1,204,206,207,-1,207,206,208,-1,207,208,209,-1,209,208,210,-1,209,210,211,-1,211,210,212,-1,211,212,213,-1,213,212,214,-1,213,214,215,-1,215,214,216,-1,215,216,217,-1,218,217,219,-1,219,217,216,-1,218,219,220,-1,220,219,221,-1,220,221,222,-1,222,221,223,-1,222,223,224,-1,224,223,225,-1,224,225,226,-1,226,225,227,-1,226,227,228,-1,228,227,229,-1,228,229,230,-1,230,229,231,-1,232,230,233,-1,233,230,231,-1,234,235,236,-1,236,235,237,-1,237,235,238,-1,237,238,239,-1,239,238,240,-1,239,240,241,-1,241,240,242,-1,241,242,243,-1,243,242,244,-1,243,244,245,-1,245,244,246,-1,245,246,247,-1,247,246,248,-1,247,248,249,-1,250,249,251,-1,251,249,248,-1,236,237,252,-1,252,237,239,-1,245,224,226,-1,232,252,230,-1,230,252,245,-1,230,245,228,-1,228,245,226,-1,239,241,252,-1,252,241,243,-1,252,243,245,-1,198,202,199,-1,199,202,204,-1,199,204,253,-1,253,204,207,-1,253,207,254,-1,254,207,209,-1,254,209,255,-1,255,209,211,-1,255,211,256,-1,256,211,213,-1,256,213,257,-1,257,213,215,-1,257,215,250,-1,250,215,217,-1,250,217,249,-1,249,217,218,-1,249,218,247,-1,247,218,220,-1,247,220,245,-1,245,220,222,-1,245,222,224,-1,250,251,257,-1,257,251,258,-1,257,258,256,-1,256,258,259,-1,256,259,255,-1,255,259,260,-1,255,260,254,-1,254,260,261,-1,254,261,253,-1,253,261,262,-1,253,262,199,-1,199,262,201,-1,235,234,263,-1,231,229,244,-1,244,229,227,-1,242,240,263,-1,263,240,238,-1,263,238,235,-1,242,263,244,-1,244,263,233,-1,244,233,231,-1,227,225,244,-1,244,225,223,-1,244,223,246,-1,246,223,221,-1,246,221,248,-1,248,221,219,-1,248,219,251,-1,251,219,216,-1,251,216,258,-1,258,216,214,-1,258,214,259,-1,259,214,212,-1,259,212,260,-1,260,212,210,-1,260,210,261,-1,261,210,208,-1,261,208,262,-1,262,208,206,-1,262,206,201,-1,201,206,205,-1,201,205,200,-1,200,205,203,-1,264,265,266,-1,266,265,267,-1,265,268,267,-1,267,268,269,-1,268,270,269,-1,269,270,271,-1,272,273,274,-1,272,274,275,-1,275,274,276,-1,275,276,277,-1,277,276,278,-1,277,278,279,-1,279,278,280,-1,279,280,281,-1,281,280,282,-1,281,282,283,-1,283,282,271,-1,283,271,270,-1,272,284,273,-1,273,284,285,-1,286,287,288,-1,288,287,289,-1,288,289,290,-1,290,289,291,-1,290,291,292,-1,292,291,293,-1,292,293,294,-1,294,293,295,-1,294,295,296,-1,296,295,297,-1,296,297,284,-1,284,297,285,-1,286,298,287,-1,287,298,299,-1,300,301,302,-1,302,301,303,-1,304,305,306,-1,304,306,307,-1,307,306,308,-1,307,308,309,-1,309,308,310,-1,309,310,311,-1,311,310,312,-1,311,312,313,-1,313,312,314,-1,313,314,315,-1,315,314,300,-1,315,300,302,-1,304,316,305,-1,305,316,317,-1,302,303,318,-1,311,313,318,-1,318,313,315,-1,318,315,302,-1,286,288,309,-1,309,288,290,-1,311,318,309,-1,309,318,298,-1,309,298,286,-1,290,292,309,-1,309,292,294,-1,309,294,307,-1,307,294,296,-1,307,296,304,-1,304,296,284,-1,304,284,316,-1,316,284,272,-1,316,272,319,-1,319,272,275,-1,319,275,320,-1,320,275,277,-1,320,277,321,-1,321,277,279,-1,321,279,322,-1,322,279,281,-1,322,281,323,-1,323,281,283,-1,323,283,264,-1,264,283,270,-1,264,270,265,-1,265,270,268,-1,264,266,323,-1,323,266,324,-1,323,324,322,-1,322,324,325,-1,322,325,321,-1,321,325,326,-1,321,326,320,-1,320,326,327,-1,320,327,319,-1,319,327,328,-1,319,328,316,-1,316,328,317,-1,299,329,287,-1,287,329,308,-1,301,300,329,-1,329,300,314,-1,293,291,308,-1,308,291,289,-1,308,289,287,-1,314,312,329,-1,329,312,310,-1,329,310,308,-1,267,269,266,-1,266,269,271,-1,266,271,324,-1,324,271,282,-1,324,282,325,-1,325,282,280,-1,325,280,326,-1,326,280,278,-1,326,278,327,-1,327,278,276,-1,327,276,328,-1,328,276,274,-1,328,274,317,-1,317,274,273,-1,317,273,305,-1,305,273,285,-1,305,285,306,-1,306,285,297,-1,306,297,308,-1,308,297,295,-1,308,295,293,-1,330,331,332,-1,332,331,333,-1,331,334,333,-1,333,334,335,-1,334,336,335,-1,335,336,337,-1,338,339,340,-1,338,340,341,-1,341,340,342,-1,341,342,343,-1,343,342,344,-1,343,344,345,-1,345,344,346,-1,345,346,347,-1,347,346,348,-1,347,348,349,-1,349,348,337,-1,349,337,336,-1,338,350,339,-1,339,350,351,-1,352,353,354,-1,354,353,355,-1,354,355,356,-1,356,355,357,-1,356,357,358,-1,358,357,359,-1,358,359,360,-1,360,359,361,-1,360,361,362,-1,362,361,363,-1,362,363,350,-1,350,363,351,-1,352,364,353,-1,353,364,365,-1,366,367,368,-1,368,367,369,-1,370,371,372,-1,370,372,373,-1,373,372,374,-1,373,374,375,-1,375,374,376,-1,375,376,377,-1,377,376,378,-1,377,378,379,-1,379,378,380,-1,379,380,381,-1,381,380,366,-1,381,366,368,-1,370,382,371,-1,371,382,383,-1,368,369,384,-1,377,379,384,-1,384,379,381,-1,384,381,368,-1,352,354,375,-1,375,354,356,-1,377,384,375,-1,375,384,364,-1,375,364,352,-1,356,358,375,-1,375,358,360,-1,375,360,373,-1,373,360,362,-1,373,362,370,-1,370,362,350,-1,370,350,382,-1,382,350,338,-1,382,338,385,-1,385,338,341,-1,385,341,386,-1,386,341,343,-1,386,343,387,-1,387,343,345,-1,387,345,388,-1,388,345,347,-1,388,347,389,-1,389,347,349,-1,389,349,330,-1,330,349,336,-1,330,336,331,-1,331,336,334,-1,330,332,389,-1,389,332,390,-1,389,390,388,-1,388,390,391,-1,388,391,387,-1,387,391,392,-1,387,392,386,-1,386,392,393,-1,386,393,385,-1,385,393,394,-1,385,394,382,-1,382,394,383,-1,365,395,353,-1,353,395,374,-1,367,366,395,-1,395,366,380,-1,359,357,374,-1,374,357,355,-1,374,355,353,-1,380,378,395,-1,395,378,376,-1,395,376,374,-1,333,335,332,-1,332,335,337,-1,332,337,390,-1,390,337,348,-1,390,348,391,-1,391,348,346,-1,391,346,392,-1,392,346,344,-1,392,344,393,-1,393,344,342,-1,393,342,394,-1,394,342,340,-1,394,340,383,-1,383,340,339,-1,383,339,371,-1,371,339,351,-1,371,351,372,-1,372,351,363,-1,372,363,374,-1,374,363,361,-1,374,361,359,-1,396,397,398,-1,398,397,399,-1,397,400,399,-1,399,400,401,-1,400,402,401,-1,401,402,403,-1,404,405,406,-1,404,406,407,-1,407,406,408,-1,407,408,409,-1,409,408,410,-1,409,410,411,-1,411,410,412,-1,411,412,413,-1,413,412,414,-1,413,414,415,-1,415,414,403,-1,415,403,402,-1,404,416,405,-1,405,416,417,-1,418,419,420,-1,420,419,421,-1,420,421,422,-1,422,421,423,-1,422,423,424,-1,424,423,425,-1,424,425,426,-1,426,425,427,-1,426,427,428,-1,428,427,429,-1,428,429,416,-1,416,429,417,-1,418,430,419,-1,419,430,431,-1,432,433,434,-1,434,433,435,-1,436,437,438,-1,436,438,439,-1,439,438,440,-1,439,440,441,-1,441,440,442,-1,441,442,443,-1,443,442,444,-1,443,444,445,-1,445,444,446,-1,445,446,447,-1,447,446,432,-1,447,432,434,-1,436,448,437,-1,437,448,449,-1,434,435,450,-1,443,445,450,-1,450,445,447,-1,450,447,434,-1,418,420,441,-1,441,420,422,-1,443,450,441,-1,441,450,430,-1,441,430,418,-1,422,424,441,-1,441,424,426,-1,441,426,439,-1,439,426,428,-1,439,428,436,-1,436,428,416,-1,436,416,448,-1,448,416,404,-1,448,404,451,-1,451,404,407,-1,451,407,452,-1,452,407,409,-1,452,409,453,-1,453,409,411,-1,453,411,454,-1,454,411,413,-1,454,413,455,-1,455,413,415,-1,455,415,396,-1,396,415,402,-1,396,402,397,-1,397,402,400,-1,396,398,455,-1,455,398,456,-1,455,456,454,-1,454,456,457,-1,454,457,453,-1,453,457,458,-1,453,458,452,-1,452,458,459,-1,452,459,451,-1,451,459,460,-1,451,460,448,-1,448,460,449,-1,431,461,419,-1,419,461,440,-1,433,432,461,-1,461,432,446,-1,425,423,440,-1,440,423,421,-1,440,421,419,-1,446,444,461,-1,461,444,442,-1,461,442,440,-1,399,401,398,-1,398,401,403,-1,398,403,456,-1,456,403,414,-1,456,414,457,-1,457,414,412,-1,457,412,458,-1,458,412,410,-1,458,410,459,-1,459,410,408,-1,459,408,460,-1,460,408,406,-1,460,406,449,-1,449,406,405,-1,449,405,437,-1,437,405,417,-1,437,417,438,-1,438,417,429,-1,438,429,440,-1,440,429,427,-1,440,427,425,-1,462,463,464,-1,464,463,465,-1,463,466,465,-1,465,466,467,-1,466,468,467,-1,467,468,469,-1,470,471,472,-1,470,472,473,-1,473,472,474,-1,473,474,475,-1,475,474,476,-1,475,476,477,-1,477,476,478,-1,477,478,479,-1,479,478,480,-1,479,480,481,-1,481,480,469,-1,481,469,468,-1,470,482,471,-1,471,482,483,-1,484,485,486,-1,486,485,487,-1,486,487,488,-1,488,487,489,-1,488,489,490,-1,490,489,491,-1,490,491,492,-1,492,491,493,-1,492,493,494,-1,494,493,495,-1,494,495,482,-1,482,495,483,-1,484,496,485,-1,485,496,497,-1,498,499,500,-1,500,499,501,-1,502,503,504,-1,502,504,505,-1,505,504,506,-1,505,506,507,-1,507,506,508,-1,507,508,509,-1,509,508,510,-1,509,510,511,-1,511,510,512,-1,511,512,513,-1,513,512,498,-1,513,498,500,-1,502,514,503,-1,503,514,515,-1,500,501,516,-1,509,511,516,-1,516,511,513,-1,516,513,500,-1,484,486,507,-1,507,486,488,-1,509,516,507,-1,507,516,496,-1,507,496,484,-1,488,490,507,-1,507,490,492,-1,507,492,505,-1,505,492,494,-1,505,494,502,-1,502,494,482,-1,502,482,514,-1,514,482,470,-1,514,470,517,-1,517,470,473,-1,517,473,518,-1,518,473,475,-1,518,475,519,-1,519,475,477,-1,519,477,520,-1,520,477,479,-1,520,479,521,-1,521,479,481,-1,521,481,462,-1,462,481,468,-1,462,468,463,-1,463,468,466,-1,462,464,521,-1,521,464,522,-1,521,522,520,-1,520,522,523,-1,520,523,519,-1,519,523,524,-1,519,524,518,-1,518,524,525,-1,518,525,517,-1,517,525,526,-1,517,526,514,-1,514,526,515,-1,497,527,485,-1,485,527,506,-1,499,498,527,-1,527,498,512,-1,491,489,506,-1,506,489,487,-1,506,487,485,-1,512,510,527,-1,527,510,508,-1,527,508,506,-1,465,467,464,-1,464,467,469,-1,464,469,522,-1,522,469,480,-1,522,480,523,-1,523,480,478,-1,523,478,524,-1,524,478,476,-1,524,476,525,-1,525,476,474,-1,525,474,526,-1,526,474,472,-1,526,472,515,-1,515,472,471,-1,515,471,503,-1,503,471,483,-1,503,483,504,-1,504,483,495,-1,504,495,506,-1,506,495,493,-1,506,493,491,-1,
        ]
    }
}
Shape{
    appearance Appearance {
        material  Material 	{
            diffuseColor 0.0 0.0 0.0
            specularColor 0.0 0.0 0.0
            ambientIntensity 0.0
            transparency 0.0
            shininess 0.5
        }
    }
    geometry IndexedFaceSet {
        ccw TRUE
        solid FALSE
        coord DEF co Coordinate {
            point [
                0.5003 -0.5224 0.0594, 0.4695 -0.6011 0.0594, 0.5003 -0.5224 0.0591, 0.4695 -0.6011 0.0591, 0.4811 -0.6011 0.0594, 0.4811 -0.6011 0.0591, 0.489 -0.579 0.0594, 0.489 -0.579 0.0591, 0.5216 -0.579 0.0594, 0.5216 -0.579 0.0591, 0.5291 -0.6011 0.0594, 0.5291 -0.6011 0.0591, 0.5406 -0.6011 0.0594, 0.5406 -0.6011 0.0591, 0.5108 -0.5224 0.0594, 0.5108 -0.5224 0.0591, 0.5189 -0.5704 0.0594, 0.4926 -0.5704 0.0594, 0.5072 -0.5375 0.0594, 0.5064 -0.5348 0.0594, 0.5059 -0.532 0.0594, 0.5056 -0.532 0.0594, 0.5051 -0.5348 0.0594, 0.5044 -0.5375 0.0594, 0.5189 -0.5704 0.0591, 0.4926 -0.5704 0.0591, 0.5072 -0.5375 0.0591, 0.5064 -0.5348 0.0591, 0.5059 -0.532 0.0591, 0.5056 -0.532 0.0591, 0.5051 -0.5348 0.0591, 0.5044 -0.5375 0.0591, 0.5883 -0.6011 0.0594, 0.6097 -0.6011 0.0594, 0.5883 -0.6011 0.0591, 0.6097 -0.6011 0.0591, 0.6097 -0.5224 0.0594, 0.6097 -0.5224 0.0591, 0.5875 -0.5224 0.0594, 0.5875 -0.5224 0.0591, 0.5464 -0.5608 0.0594, 0.5464 -0.5608 0.0591, 0.5469 -0.5534 0.0591, 0.5469 -0.5534 0.0594, 0.5491 -0.5456 0.0591, 0.5491 -0.5456 0.0594, 0.5527 -0.5388 0.0591, 0.5527 -0.5388 0.0594, 0.5583 -0.5327 0.0591, 0.5583 -0.5327 0.0594, 0.5584 -0.5326 0.0591, 0.5584 -0.5326 0.0594, 0.5669 -0.5268 0.0591, 0.5669 -0.5268 0.0594, 0.5761 -0.5236 0.0591, 0.5761 -0.5236 0.0594, 0.5786 -0.6003 0.0591, 0.5786 -0.6003 0.0594, 0.5695 -0.5976 0.0591, 0.5695 -0.5976 0.0594, 0.5613 -0.5928 0.0591, 0.5613 -0.5928 0.0594, 0.5548 -0.5866 0.0591, 0.5548 -0.5866 0.0594, 0.5503 -0.5795 0.0591, 0.5503 -0.5795 0.0594, 0.5475 -0.5713 0.0591, 0.5475 -0.5713 0.0594, 0.5622 -0.5421 0.0594, 0.566 -0.538 0.0594, 0.5717 -0.5343 0.0594, 0.5782 -0.532 0.0594, 0.5876 -0.531 0.0594, 0.5992 -0.531 0.0594, 0.5992 -0.5925 0.0594, 0.588 -0.5925 0.0594, 0.5797 -0.5917 0.0594, 0.5731 -0.5896 0.0594, 0.5677 -0.5865 0.0594, 0.5633 -0.5821 0.0594, 0.56 -0.5767 0.0594, 0.5576 -0.5693 0.0594, 0.5569 -0.561 0.0594, 0.5576 -0.5532 0.0594, 0.5594 -0.5469 0.0594, 0.5876 -0.531 0.0591, 0.5992 -0.531 0.0591, 0.5782 -0.532 0.0591, 0.5717 -0.5343 0.0591, 0.566 -0.538 0.0591, 0.5622 -0.5421 0.0591, 0.5594 -0.5469 0.0591, 0.5576 -0.5532 0.0591, 0.5569 -0.561 0.0591, 0.5576 -0.5693 0.0591, 0.56 -0.5767 0.0591, 0.5633 -0.5821 0.0591, 0.5677 -0.5865 0.0591, 0.5731 -0.5896 0.0591, 0.5797 -0.5917 0.0591, 0.588 -0.5925 0.0591, 0.5992 -0.5925 0.0591, 0.6251 -0.5925 0.0594, 0.6251 -0.6011 0.0594, 0.6251 -0.5925 0.0591, 0.6251 -0.6011 0.0591, 0.6674 -0.6011 0.0594, 0.6674 -0.6011 0.0591, 0.6674 -0.5224 0.0594, 0.6674 -0.5224 0.0591, 0.627 -0.5224 0.0594, 0.627 -0.5224 0.0591, 0.627 -0.531 0.0594, 0.627 -0.531 0.0591, 0.6568 -0.531 0.0594, 0.6568 -0.531 0.0591, 0.6568 -0.557 0.0594, 0.6568 -0.557 0.0591, 0.6289 -0.557 0.0594, 0.6289 -0.557 0.0591, 0.6289 -0.5656 0.0594, 0.6289 -0.5656 0.0591, 0.6568 -0.5656 0.0594, 0.6568 -0.5656 0.0591, 0.6568 -0.5925 0.0594, 0.6568 -0.5925 0.0591, 0.6827 -0.5884 0.0594, 0.6827 -0.597 0.0594, 0.6827 -0.5884 0.0591, 0.6827 -0.597 0.0591, 0.6911 -0.6005 0.0594, 0.7044 -0.6021 0.0594, 0.7044 -0.6021 0.0591, 0.7022 -0.602 0.0591, 0.7022 -0.602 0.0594, 0.6991 -0.6016 0.0591, 0.6911 -0.6005 0.0591, 0.709 -0.6016 0.0591, 0.7141 -0.6011 0.0594, 0.7141 -0.6011 0.0591, 0.7217 -0.5985 0.0594, 0.7217 -0.5985 0.0591, 0.7281 -0.5944 0.0594, 0.7281 -0.5944 0.0591, 0.734 -0.5882 0.0594, 0.734 -0.5882 0.0591, 0.7382 -0.5807 0.0594, 0.7382 -0.5807 0.0591, 0.7405 -0.5724 0.0594, 0.7405 -0.5724 0.0591, 0.7413 -0.5632 0.0594, 0.7413 -0.5632 0.0591, 0.7012 -0.5214 0.0594, 0.7012 -0.5214 0.0591, 0.7092 -0.5221 0.0591, 0.7092 -0.5221 0.0594, 0.7179 -0.5246 0.0591, 0.7179 -0.5246 0.0594, 0.7254 -0.5289 0.0591, 0.7254 -0.5289 0.0594, 0.7325 -0.5358 0.0591, 0.7325 -0.5358 0.0594, 0.7371 -0.5431 0.0591, 0.7371 -0.5431 0.0594, 0.7402 -0.552 0.0591, 0.7402 -0.552 0.0594, 0.6827 -0.5245 0.0594, 0.6827 -0.5245 0.0591, 0.6918 -0.5221 0.0591, 0.6918 -0.5221 0.0594, 0.6827 -0.5351 0.0594, 0.6827 -0.5351 0.0591, 0.7012 -0.5301 0.0594, 0.7012 -0.5301 0.0591, 0.6916 -0.5313 0.0591, 0.6916 -0.5313 0.0594, 0.7307 -0.5626 0.0594, 0.7307 -0.5626 0.0591, 0.7304 -0.5565 0.0591, 0.7304 -0.5565 0.0594, 0.7283 -0.548 0.0591, 0.7283 -0.548 0.0594, 0.725 -0.542 0.0591, 0.725 -0.542 0.0594, 0.7203 -0.5367 0.0591, 0.7203 -0.5367 0.0594, 0.7148 -0.5331 0.0591, 0.7148 -0.5331 0.0594, 0.7089 -0.5309 0.0591, 0.7089 -0.5309 0.0594, 0.7029 -0.5934 0.0594, 0.7029 -0.5934 0.0591, 0.7103 -0.5926 0.0591, 0.7103 -0.5926 0.0594, 0.716 -0.5905 0.0591, 0.716 -0.5905 0.0594, 0.7208 -0.5872 0.0591, 0.7208 -0.5872 0.0594, 0.7245 -0.5834 0.0591, 0.7245 -0.5834 0.0594, 0.7278 -0.5779 0.0591, 0.7278 -0.5779 0.0594, 0.7299 -0.5711 0.0591, 0.7299 -0.5711 0.0594, 0.6841 -0.5892 0.0591, 0.6841 -0.5892 0.0594, 0.6925 -0.5923 0.0591, 0.6925 -0.5923 0.0594, 0.748 -0.5925 0.0594, 0.748 -0.6011 0.0594, 0.748 -0.5925 0.0591, 0.748 -0.6011 0.0591, 0.7883 -0.6011 0.0594, 0.7883 -0.6011 0.0591, 0.7883 -0.5224 0.0594, 0.7883 -0.5224 0.0591, 0.7778 -0.5224 0.0594, 0.7778 -0.5224 0.0591, 0.7778 -0.5925 0.0594, 0.7778 -0.5925 0.0591
            ]
        }
        coordIndex [
            0,1,2,-1,2,1,3,-1,1,4,3,-1,3,4,5,-1,4,6,5,-1,5,6,7,-1,6,8,7,-1,7,8,9,-1,8,10,9,-1,9,10,11,-1,10,12,11,-1,11,12,13,-1,12,14,13,-1,13,14,15,-1,14,0,15,-1,15,0,2,-1,16,8,17,-1,17,8,6,-1,18,14,16,-1,16,14,12,-1,16,12,8,-1,8,12,10,-1,18,19,14,-1,14,19,20,-1,14,20,0,-1,0,20,21,-1,0,21,22,-1,22,23,0,-1,0,23,17,-1,0,17,1,-1,1,17,6,-1,1,6,4,-1,16,17,24,-1,24,17,25,-1,18,16,26,-1,26,16,24,-1,18,26,27,-1,18,27,19,-1,19,27,28,-1,19,28,20,-1,21,20,29,-1,29,20,28,-1,21,29,30,-1,21,30,22,-1,22,30,31,-1,22,31,23,-1,17,23,25,-1,25,23,31,-1,32,33,34,-1,34,33,35,-1,33,36,35,-1,35,36,37,-1,36,38,37,-1,37,38,39,-1,40,41,42,-1,40,42,43,-1,43,42,44,-1,43,44,45,-1,45,44,46,-1,45,46,47,-1,47,46,48,-1,47,48,49,-1,49,48,50,-1,49,50,51,-1,51,50,52,-1,51,52,53,-1,53,52,54,-1,53,54,55,-1,55,54,39,-1,55,39,38,-1,32,34,56,-1,32,56,57,-1,57,56,58,-1,57,58,59,-1,59,58,60,-1,59,60,61,-1,61,60,62,-1,61,62,63,-1,63,62,64,-1,63,64,65,-1,65,64,66,-1,65,66,67,-1,67,66,41,-1,67,41,40,-1,45,47,68,-1,68,47,49,-1,68,49,69,-1,69,49,51,-1,69,51,70,-1,70,51,53,-1,70,53,71,-1,71,53,55,-1,71,55,72,-1,72,55,38,-1,72,38,73,-1,73,38,36,-1,73,36,74,-1,74,36,33,-1,74,33,75,-1,75,33,32,-1,75,32,76,-1,76,32,57,-1,76,57,77,-1,77,57,59,-1,77,59,78,-1,78,59,61,-1,78,61,79,-1,79,61,63,-1,79,63,80,-1,80,63,65,-1,80,65,81,-1,81,65,67,-1,81,67,82,-1,82,67,40,-1,82,40,83,-1,83,40,43,-1,83,43,84,-1,84,43,45,-1,84,45,68,-1,72,73,85,-1,85,73,86,-1,72,85,87,-1,72,87,71,-1,71,87,88,-1,71,88,70,-1,70,88,89,-1,70,89,69,-1,69,89,90,-1,69,90,68,-1,68,90,91,-1,68,91,84,-1,84,91,92,-1,84,92,83,-1,83,92,93,-1,83,93,82,-1,82,93,94,-1,82,94,81,-1,81,94,95,-1,81,95,80,-1,80,95,96,-1,80,96,79,-1,79,96,97,-1,79,97,78,-1,78,97,98,-1,78,98,77,-1,77,98,99,-1,77,99,76,-1,76,99,100,-1,76,100,75,-1,74,75,101,-1,101,75,100,-1,73,74,86,-1,86,74,101,-1,102,103,104,-1,104,103,105,-1,103,106,105,-1,105,106,107,-1,106,108,107,-1,107,108,109,-1,108,110,109,-1,109,110,111,-1,110,112,111,-1,111,112,113,-1,112,114,113,-1,113,114,115,-1,114,116,115,-1,115,116,117,-1,116,118,117,-1,117,118,119,-1,118,120,119,-1,119,120,121,-1,120,122,121,-1,121,122,123,-1,122,124,123,-1,123,124,125,-1,124,102,125,-1,125,102,104,-1,106,103,102,-1,102,124,106,-1,106,124,122,-1,106,122,108,-1,112,110,114,-1,114,110,108,-1,114,108,116,-1,116,108,122,-1,116,122,118,-1,118,122,120,-1,126,127,128,-1,128,127,129,-1,129,127,130,-1,131,132,133,-1,131,133,134,-1,134,133,135,-1,134,135,130,-1,130,135,136,-1,130,136,129,-1,132,131,137,-1,137,131,138,-1,137,138,139,-1,139,138,140,-1,139,140,141,-1,141,140,142,-1,141,142,143,-1,143,142,144,-1,143,144,145,-1,145,144,146,-1,145,146,147,-1,147,146,148,-1,147,148,149,-1,149,148,150,-1,149,150,151,-1,152,153,154,-1,152,154,155,-1,155,154,156,-1,155,156,157,-1,157,156,158,-1,157,158,159,-1,159,158,160,-1,159,160,161,-1,161,160,162,-1,161,162,163,-1,163,162,164,-1,163,164,165,-1,165,164,151,-1,165,151,150,-1,166,167,168,-1,166,168,169,-1,169,168,153,-1,169,153,152,-1,166,170,167,-1,167,170,171,-1,172,173,174,-1,172,174,175,-1,175,174,171,-1,175,171,170,-1,176,177,178,-1,176,178,179,-1,179,178,180,-1,179,180,181,-1,181,180,182,-1,181,182,183,-1,183,182,184,-1,183,184,185,-1,185,184,186,-1,185,186,187,-1,187,186,188,-1,187,188,189,-1,189,188,173,-1,189,173,172,-1,190,191,192,-1,190,192,193,-1,193,192,194,-1,193,194,195,-1,195,194,196,-1,195,196,197,-1,197,196,198,-1,197,198,199,-1,199,198,200,-1,199,200,201,-1,201,200,202,-1,201,202,203,-1,203,202,177,-1,203,177,176,-1,126,128,204,-1,126,204,205,-1,205,204,206,-1,205,206,207,-1,207,206,191,-1,207,191,190,-1,193,131,190,-1,190,131,134,-1,190,134,207,-1,207,134,130,-1,207,130,205,-1,205,130,127,-1,205,127,126,-1,170,166,175,-1,175,166,169,-1,175,169,172,-1,172,169,152,-1,172,152,189,-1,189,152,155,-1,189,155,187,-1,187,155,157,-1,187,157,185,-1,185,157,159,-1,185,159,183,-1,183,159,161,-1,183,161,181,-1,181,161,163,-1,181,163,179,-1,179,163,165,-1,179,165,176,-1,176,165,150,-1,176,150,203,-1,203,150,148,-1,203,148,201,-1,201,148,146,-1,201,146,199,-1,199,146,144,-1,199,144,197,-1,197,144,142,-1,197,142,195,-1,195,142,140,-1,195,140,193,-1,193,140,138,-1,193,138,131,-1,208,209,210,-1,210,209,211,-1,209,212,211,-1,211,212,213,-1,212,214,213,-1,213,214,215,-1,214,216,215,-1,215,216,217,-1,216,218,217,-1,217,218,219,-1,218,208,219,-1,219,208,210,-1,216,214,218,-1,218,214,212,-1,218,212,208,-1,208,212,209,-1,
        ]
    }
}
Shape{
    appearance Appearance {
        material  Material 	{
            diffuseColor 0.25098039215686274 0.25098039215686274 0.25098039215686274
            specularColor 0.12549019607843137 0.12549019607843137 0.12549019607843137
            ambientIntensity 0.251
            transparency 0.0
            shininess 0.5
        }
    }
    geometry IndexedFaceSet {
        ccw TRUE
        solid FALSE
        coord DEF co Coordinate {
            point [
                0.5189 -0.5704 0.0591, 0.4926 -0.5704 0.0591, 0.5072 -0.5375 0.0591, 0.5044 -0.5375 0.0591, 0.5064 -0.5348 0.0591, 0.5051 -0.5348 0.0591, 0.5059 -0.532 0.0591, 0.5056 -0.532 0.0591, 0.5992 -0.531 0.0591, 0.5992 -0.5925 0.0591, 0.5876 -0.531 0.0591, 0.588 -0.5925 0.0591, 0.5797 -0.5917 0.0591, 0.5569 -0.561 0.0591, 0.5576 -0.5532 0.0591, 0.5594 -0.5469 0.0591, 0.5782 -0.532 0.0591, 0.5731 -0.5896 0.0591, 0.5677 -0.5865 0.0591, 0.5633 -0.5821 0.0591, 0.56 -0.5767 0.0591, 0.5576 -0.5693 0.0591, 0.5622 -0.5421 0.0591, 0.566 -0.538 0.0591, 0.5717 -0.5343 0.0591
            ]
        }
        coordIndex [
            0,1,2,-1,2,1,3,-1,2,3,4,-1,4,3,5,-1,4,5,6,-1,6,5,7,-1,8,9,10,-1,10,9,11,-1,10,11,12,-1,13,14,10,-1,10,14,15,-1,10,15,16,-1,12,17,10,-1,10,17,18,-1,10,18,19,-1,19,20,10,-1,10,20,21,-1,10,21,13,-1,22,23,15,-1,15,23,24,-1,15,24,16,-1,
        ]
    }
}
Shape{
    appearance Appearance {
        material  Material 	{
            diffuseColor 1.0 1.0 1.0
            specularColor 0.5019607843137255 0.5019607843137255 0.5019607843137255
            ambientIntensity 1.0
            transparency 0.0
            shininess 0.5
        }
    }
    geometry IndexedFaceSet {
        ccw TRUE
        solid FALSE
        coord DEF co Coordinate {
            point [
                -0.3937 0.3937 0.0, -0.3937 -0.3937 0.0, -0.3937 0.3937 0.0591, -0.3937 -0.3937 0.0591, 0.3937 0.3937 0.0, 0.3937 0.3937 0.0591, 0.3937 -0.3937 0.0, 0.3937 -0.3937 0.0591
            ]
        }
        coordIndex [
            0,1,2,-1,2,1,3,-1,4,0,5,-1,5,0,2,-1,6,4,7,-1,7,4,5,-1,1,6,3,-1,3,6,7,-1,4,6,0,-1,0,6,1,-1,
        ]
    }
}
Shape{
    appearance Appearance {
        material  Material 	{
            diffuseColor 0.25098039215686274 0.25098039215686274 0.25098039215686274
            specularColor 0.12549019607843137 0.12549019607843137 0.12549019607843137
            ambientIntensity 0.251
            transparency 0.0
            shininess 0.5
        }
    }
    geometry IndexedFaceSet {
        ccw TRUE
        solid FALSE
        coord DEF co Coordinate {
            point [
                0.8916 -0.5219 0.0591, 0.8916 0.6948 0.0591, 0.9009 0.6948 0.0602, 0.9009 -0.6948 0.0602, 0.8916 -0.6948 0.0591, 0.8916 -0.6016 0.0591, 0.901 -0.6948 0.0602, 0.901 0.6948 0.0602, 0.9097 -0.6948 0.0635, 0.9097 0.6948 0.0635, 0.9098 -0.6948 0.0635, 0.9098 0.6948 0.0635, 0.9174 -0.6948 0.0687, 0.9174 0.6948 0.0687, 0.9176 -0.6948 0.0688, 0.9176 0.6948 0.0688, 0.9237 -0.6948 0.0757, 0.9237 0.6948 0.0757, 0.9239 -0.6948 0.0758, 0.9239 0.6948 0.0758, 0.9282 -0.6948 0.0839, 0.9282 0.6948 0.0839, 0.9283 -0.6948 0.0842, 0.9283 0.6948 0.0842, 0.9306 -0.6948 0.0929, 0.9306 0.6948 0.0929, -0.9255 -0.6948 0.0591, -0.6598 -0.6948 0.0591, -0.9246 -0.7002 0.0594, -0.9235 -0.7041 0.0602, 0.4316 -0.6948 0.0591, 0.5435 -0.6948 0.0591, 0.8916 -0.7041 0.0602, 0.6174 -0.6948 0.0591, 0.675 -0.6948 0.0591, 0.7447 -0.6948 0.0591, -0.9211 -0.71 0.0621, 0.8916 -0.7041 0.0602, -0.9196 -0.7128 0.0635, 0.8916 -0.7128 0.0635, -0.9155 -0.7186 0.0674, -0.9141 -0.7206 0.0687, 0.8916 -0.7129 0.0635, 0.8916 -0.7206 0.0687, -0.9085 -0.7258 0.0745, -0.9073 -0.7269 0.0757, 0.8916 -0.7207 0.0688, 0.8916 -0.7269 0.0757, -0.9003 -0.731 0.0832, -0.8997 -0.7313 0.0839, 0.8916 -0.727 0.0758, 0.8916 -0.7313 0.0839, -0.8916 -0.7337 0.0929, 0.8916 -0.7315 0.0842, 0.8916 -0.7337 0.0929, -0.8997 0.7313 0.0839, -0.8916 0.7337 0.0929, 0.8916 0.7337 0.0929, 0.8916 0.7315 0.0842, 0.8916 0.7313 0.0839, -0.9004 0.7311 0.0832, 0.8916 0.727 0.0758, -0.9073 0.7267 0.0757, 0.8916 0.7269 0.0757, -0.9086 0.7259 0.0744, 0.8916 0.7207 0.0688, -0.914 0.7204 0.0689, 0.8916 0.7206 0.0687, -0.9156 0.7188 0.0672, 0.8916 0.7129 0.0635, -0.9196 0.7128 0.0635, 0.8916 0.7128 0.0635, -0.9211 0.71 0.0621, 0.8916 0.7041 0.0602, -0.9235 0.7041 0.0602, 0.8916 0.7041 0.0602, 0.7447 0.6948 0.0591, 0.675 0.6948 0.0591, 0.6174 0.6948 0.0591, 0.5435 0.6948 0.0591, 0.4316 0.6948 0.0591, -0.6598 0.6948 0.0591, -0.9246 0.7002 0.0594, -0.9255 0.6948 0.0591, 0.9006 0.6972 0.0602, 0.8963 0.7123 0.0635, 0.8983 0.7198 0.0688, 0.9 0.7259 0.0758, 0.9011 0.7302 0.0842, 0.91 0.7265 0.0842, 0.9291 0.7047 0.0918, 0.9251 0.714 0.091, 0.9291 0.7048 0.0917, 0.9271 0.7043 0.0842, 0.9016 0.7323 0.0918, 0.9016 0.7322 0.0917, 0.9109 0.7283 0.091, 0.9109 0.7282 0.091, 0.9189 0.7221 0.0908, 0.9228 0.7031 0.0758, 0.9077 0.7227 0.0758, 0.9176 0.7207 0.0842, 0.9167 0.7015 0.0688, 0.9046 0.7172 0.0688, 0.9144 0.7176 0.0758, 0.9092 0.6995 0.0635, 0.91 0.7131 0.0688, 0.9007 0.7105 0.0635, 0.894 0.7038 0.0602, 0.9251 0.7141 0.091, 0.9234 0.7131 0.0842, 0.9195 0.7109 0.0758, 0.9141 0.7077 0.0688, 0.9074 0.7038 0.0635, 0.8997 0.6994 0.0602, 0.9045 0.7076 0.0635, 0.8963 0.7029 0.0602, 0.8982 0.7014 0.0602, 0.894 -0.7038 0.0602, 0.9092 -0.6995 0.0635, 0.9167 -0.7015 0.0688, 0.9228 -0.7031 0.0758, 0.9271 -0.7043 0.0842, 0.9234 -0.7131 0.0842, 0.9016 -0.7323 0.0918, 0.9109 -0.7283 0.091, 0.9016 -0.7322 0.0917, 0.9011 -0.7302 0.0842, 0.9291 -0.7047 0.0918, 0.9291 -0.7048 0.0917, 0.9251 -0.714 0.091, 0.9251 -0.7141 0.091, 0.9189 -0.7221 0.0908, 0.9 -0.7259 0.0758, 0.9195 -0.7109 0.0758, 0.9176 -0.7207 0.0842, 0.8983 -0.7198 0.0688, 0.9141 -0.7077 0.0688, 0.9144 -0.7176 0.0758, 0.8963 -0.7123 0.0635, 0.91 -0.7131 0.0688, 0.9074 -0.7038 0.0635, 0.9006 -0.6972 0.0602, 0.9109 -0.7282 0.091, 0.91 -0.7265 0.0842, 0.9077 -0.7227 0.0758, 0.9046 -0.7172 0.0688, 0.9007 -0.7105 0.0635, 0.8963 -0.7029 0.0602, 0.9045 -0.7076 0.0635, 0.8997 -0.6994 0.0602, 0.8982 -0.7014 0.0602, -0.9646 -0.7287 0.3346, -0.9258 -0.69 0.0591, -0.9632 -0.7389 0.3346, -0.9616 -0.7437 0.3346, -0.9594 -0.7483 0.3346, -0.9565 -0.7525 0.3346, -0.9532 -0.7563 0.3346, -0.9494 -0.7597 0.3346, -0.9451 -0.7625 0.3346, -0.9406 -0.7648 0.3346, -0.9357 -0.7664 0.3346, -0.9256 -0.7677 0.3346, -0.9258 0.69 0.0591, -0.9646 0.7287 0.3346, -0.9632 0.7389 0.3346, -0.9357 0.7664 0.3346, -0.9256 0.7677 0.3346, -0.9406 0.7648 0.3346, -0.9451 0.7625 0.3346, -0.9494 0.7597 0.3346, -0.9532 0.7563 0.3346, -0.9565 0.7525 0.3346, -0.9594 0.7483 0.3346, -0.9616 0.7437 0.3346, 0.9646 0.7287 0.3346, 0.9632 0.7389 0.3346, 0.9616 0.7437 0.3346, 0.9594 0.7483 0.3346, 0.9565 0.7525 0.3346, 0.9532 0.7563 0.3346, 0.9494 0.7597 0.3346, 0.9451 0.7625 0.3346, 0.9406 0.7648 0.3346, 0.9357 0.7664 0.3346, 0.9256 0.7677 0.3346, 0.9256 -0.7677 0.3346, 0.9357 -0.7664 0.3346, 0.9406 -0.7648 0.3346, 0.9451 -0.7625 0.3346, 0.9494 -0.7597 0.3346, 0.9532 -0.7563 0.3346, 0.9565 -0.7525 0.3346, 0.9594 -0.7483 0.3346, 0.9616 -0.7437 0.3346, 0.9632 -0.7389 0.3346, 0.9646 -0.7287 0.3346, -0.9056 -0.7477 0.4771, -0.9142 -0.7464 0.4782, -0.9155 -0.7462 0.4783, -0.9223 -0.7433 0.4789, -0.9248 -0.7422 0.4791, -0.9296 -0.7386 0.4792, -0.9329 -0.736 0.4793, -0.9356 -0.7324 0.4792, -0.9391 -0.728 0.4791, -0.9403 -0.7252 0.4788, -0.9445 -0.7087 0.4771, -0.9433 -0.717 0.4781, -0.9431 -0.7187 0.4783, -0.9306 0.6948 0.5763, -0.9291 0.7047 0.5775, -0.9291 0.7048 0.5775, -0.9251 0.714 0.5783, -0.9251 0.7141 0.5783, -0.9189 0.7221 0.5785, -0.9109 0.7282 0.5783, -0.9109 0.7283 0.5783, -0.9016 0.7322 0.5775, -0.9016 0.7323 0.5775, -0.8916 0.7337 0.5763, 0.8916 0.7337 0.5763, 0.8916 0.7315 0.5851, -0.8916 0.7315 0.5851, 0.8916 0.7313 0.5854, -0.8916 0.7313 0.5854, 0.8916 0.727 0.5935, -0.8916 0.727 0.5935, 0.8916 0.7269 0.5936, -0.8916 0.7269 0.5936, 0.8916 0.7207 0.6005, -0.8916 0.7207 0.6005, 0.8916 0.7206 0.6006, -0.8916 0.7206 0.6006, 0.8916 0.7129 0.6058, -0.8916 0.7129 0.6058, 0.8916 0.7128 0.6058, -0.8916 0.7128 0.6058, 0.8916 0.7041 0.6091, -0.8916 0.7041 0.6091, 0.8916 0.7041 0.6091, -0.8916 0.7041 0.6091, -0.8916 0.6948 0.6102, 0.8916 0.6948 0.6102, 0.9002 0.7325 0.5774, 0.9016 0.7323 0.5775, 0.9083 0.7294 0.5781, 0.9109 0.7283 0.5783, 0.9155 0.7247 0.5784, 0.9189 0.7221 0.5785, 0.9216 0.7186 0.5784, 0.9251 0.714 0.5783, 0.9262 0.7114 0.5781, 0.9306 0.6948 0.5763, 0.9293 0.7034 0.5774, 0.9291 0.7047 0.5775, 0.9445 -0.7087 0.4771, 0.9433 -0.717 0.4781, 0.9431 -0.7187 0.4783, 0.9403 -0.7252 0.4788, 0.9391 -0.728 0.4791, 0.9356 -0.7324 0.4792, 0.9329 -0.736 0.4793, 0.9296 -0.7386 0.4792, 0.9248 -0.7422 0.4791, 0.9223 -0.7433 0.4789, 0.9056 -0.7477 0.4771, 0.9142 -0.7464 0.4782, 0.9155 -0.7462 0.4783, 0.9056 -0.7324 0.5031, -0.9056 -0.7324 0.5031, 0.9056 -0.738 0.498, -0.9056 -0.738 0.498, 0.9056 -0.7396 0.4958, -0.9056 -0.7396 0.4958, 0.9056 -0.7426 0.4917, -0.9056 -0.7426 0.4917, 0.9056 -0.7448 0.487, -0.9056 -0.7448 0.487, 0.9056 -0.7459 0.4846, -0.9056 -0.7459 0.4846, -0.9286 -0.7261 0.498, -0.9283 -0.7266 0.4978, -0.9282 -0.7263 0.4982, -0.9372 -0.7204 0.4917, -0.9362 -0.7232 0.4917, -0.9347 -0.7223 0.4938, -0.9423 -0.7145 0.4846, -0.9419 -0.7167 0.4846, -0.9408 -0.7164 0.4867, -0.9423 -0.7144 0.4844, -0.938 -0.7199 0.491, -0.9392 -0.7246 0.4846, -0.9317 -0.7246 0.4964, -0.9322 -0.7297 0.4917, -0.9239 -0.7284 0.5004, -0.9239 -0.7315 0.498, -0.922 -0.729 0.5009, -0.9183 -0.735 0.498, -0.9163 -0.7307 0.5023, -0.915 -0.7311 0.5026, -0.9121 -0.7372 0.498, -0.9109 -0.7316 0.5028, -0.9139 -0.745 0.4846, -0.9218 -0.7422 0.4846, -0.9289 -0.7377 0.4846, -0.9348 -0.7317 0.4846, -0.9131 -0.7417 0.4917, -0.9268 -0.7351 0.4917, -0.9203 -0.7392 0.4917, -0.9237 0.6948 0.5936, -0.9176 0.6948 0.6005, -0.9167 0.7015 0.6005, -0.9092 0.6995 0.6058, -0.9006 0.6972 0.6091, -0.8997 0.6994 0.6091, -0.8963 0.7029 0.6091, -0.8982 0.7014 0.6091, -0.894 0.7038 0.6091, -0.9009 0.6948 0.6091, -0.9271 0.7043 0.5851, -0.9234 0.7131 0.5851, -0.9176 0.7207 0.5851, -0.91 0.7265 0.5851, -0.9011 0.7302 0.5851, -0.9174 0.6948 0.6006, -0.9098 0.6948 0.6058, -0.9097 0.6948 0.6058, -0.901 0.6948 0.6091, -0.9074 0.7038 0.6058, -0.9045 0.7076 0.6058, -0.9007 0.7105 0.6058, -0.8963 0.7123 0.6058, -0.9141 0.7077 0.6005, -0.91 0.7131 0.6005, -0.9046 0.7172 0.6005, -0.8983 0.7198 0.6005, -0.9282 0.6948 0.5854, -0.9239 0.6948 0.5935, -0.9228 0.7031 0.5935, -0.9195 0.7109 0.5935, -0.9144 0.7176 0.5935, -0.9077 0.7227 0.5935, -0.9 0.7259 0.5935, -0.9283 0.6948 0.5851, 0.8988 0.7262 0.5935, 0.8974 0.7201 0.6005, 0.8957 0.7125 0.6058, 0.8937 0.7039 0.6091, 0.8957 0.7032 0.6091, 0.9 0.6988 0.6091, 0.8989 0.7006 0.6091, 0.9007 0.6968 0.6091, 0.8998 0.7305 0.5851, 0.9075 0.7278 0.5851, 0.9145 0.7234 0.5851, 0.9203 0.7176 0.5851, 0.9247 0.7107 0.5851, 0.9274 0.7029 0.5851, 0.9283 0.6948 0.5851, 0.9009 0.6948 0.6091, 0.9029 0.709 0.6058, 0.9058 0.7061 0.6058, 0.908 0.7026 0.6058, 0.9093 0.6988 0.6058, 0.8995 0.7111 0.6058, 0.8974 0.7021 0.6091, 0.901 0.6948 0.6091, 0.9097 0.6948 0.6058, 0.9098 0.6948 0.6058, 0.9174 0.6948 0.6006, 0.9029 0.7181 0.6005, 0.9078 0.7151 0.6005, 0.9119 0.7109 0.6005, 0.915 0.706 0.6005, 0.9169 0.7005 0.6005, 0.9056 0.7238 0.5935, 0.9117 0.72 0.5935, 0.9168 0.7149 0.5935, 0.9207 0.7088 0.5935, 0.9231 0.7019 0.5935, 0.9176 0.6948 0.6005, 0.9237 0.6948 0.5936, 0.9239 0.6948 0.5935, 0.9282 0.6948 0.5854, 0.9317 -0.7246 0.4964, 0.9286 -0.7261 0.498, 0.9283 -0.7266 0.4978, 0.9239 -0.7315 0.498, 0.9163 -0.7307 0.5023, 0.9183 -0.735 0.498, 0.915 -0.7311 0.5026, 0.9121 -0.7372 0.498, 0.9109 -0.7316 0.5028, 0.9282 -0.7263 0.4982, 0.9239 -0.7284 0.5004, 0.922 -0.729 0.5009, 0.938 -0.7199 0.491, 0.9372 -0.7204 0.4917, 0.9362 -0.7232 0.4917, 0.9347 -0.7223 0.4938, 0.9322 -0.7297 0.4917, 0.9423 -0.7144 0.4844, 0.9423 -0.7145 0.4846, 0.9419 -0.7167 0.4846, 0.9408 -0.7164 0.4867, 0.9392 -0.7246 0.4846, 0.9348 -0.7317 0.4846, 0.9289 -0.7377 0.4846, 0.9218 -0.7422 0.4846, 0.9139 -0.745 0.4846, 0.9268 -0.7351 0.4917, 0.9203 -0.7392 0.4917, 0.9131 -0.7417 0.4917, -0.9306 -0.577 0.5763, -0.9284 -0.5828 0.5837, -0.924 -0.5882 0.5902, -0.9267 -0.5849 0.5863, -0.9274 -0.584 0.5851, -0.9206 -0.5908 0.5932, -0.9203 -0.591 0.5934, -0.9178 -0.5929 0.5956, -0.9141 -0.5947 0.5975, -0.91 -0.5967 0.5996, -0.908 -0.5973 0.6001, -0.8916 -0.6007 0.6023, -0.8969 -0.6 0.6021, -0.9011 -0.5994 0.6019, -0.9022 -0.599 0.6016, -0.9065 -0.5978 0.6005, -0.9283 -0.577 0.5851, -0.9282 -0.577 0.5854, -0.9239 -0.577 0.5935, -0.9237 -0.577 0.5936, -0.9176 -0.577 0.6005, -0.9174 -0.577 0.6006, -0.9098 -0.577 0.6058, -0.9097 -0.577 0.6058, -0.901 -0.577 0.6091, -0.9009 -0.577 0.6091, -0.8916 -0.577 0.6102, 0.9306 -0.577 0.5763, 0.9283 -0.577 0.5851, 0.9282 -0.577 0.5854, 0.9239 -0.577 0.5935, 0.9237 -0.577 0.5936, 0.9176 -0.577 0.6005, 0.9174 -0.577 0.6006, 0.9098 -0.577 0.6058, 0.9097 -0.577 0.6058, 0.901 -0.577 0.6091, 0.9009 -0.577 0.6091, 0.8916 -0.577 0.6102, 0.91 -0.5967 0.5996, 0.9284 -0.5828 0.5837, 0.9274 -0.584 0.5851, 0.9267 -0.5849 0.5863, 0.924 -0.5882 0.5902, 0.9206 -0.5908 0.5932, 0.9203 -0.591 0.5934, 0.9178 -0.5929 0.5956, 0.9141 -0.5947 0.5975, 0.908 -0.5973 0.6001, 0.9065 -0.5978 0.6005, 0.9022 -0.599 0.6016, 0.9011 -0.5994 0.6019, 0.8969 -0.6 0.6021, 0.8916 -0.6007 0.6023, -0.9093 -0.5811 0.6058, -0.908 -0.5849 0.6058, -0.9 -0.5811 0.6091, -0.9007 -0.5791 0.6091, -0.8995 -0.5934 0.6058, -0.8957 -0.5855 0.6091, -0.8974 -0.5844 0.6091, -0.9119 -0.5932 0.6005, -0.8957 -0.5948 0.6058, -0.9077 -0.597 0.6004, -0.9029 -0.5912 0.6058, -0.915 -0.5883 0.6005, -0.9231 -0.5842 0.5935, -0.8916 -0.5952 0.6058, -0.8916 -0.5934 0.6065, -0.8937 -0.5862 0.6091, -0.8916 -0.5864 0.6091, -0.8916 -0.5854 0.6092, -0.9058 -0.5884 0.6058, -0.8989 -0.5829 0.6091, -0.9169 -0.5828 0.6005, 0.9093 -0.5811 0.6058, 0.9007 -0.5791 0.6091, 0.9 -0.5811 0.6091, 0.9077 -0.597 0.6004, 0.9119 -0.5932 0.6005, 0.915 -0.5883 0.6005, 0.9231 -0.5842 0.5935, 0.8937 -0.5862 0.6091, 0.8916 -0.5854 0.6092, 0.8957 -0.5855 0.6091, 0.8995 -0.5934 0.6058, 0.9029 -0.5912 0.6058, 0.8916 -0.5952 0.6058, 0.8957 -0.5948 0.6058, 0.8916 -0.5934 0.6065, 0.8916 -0.5864 0.6091, 0.9169 -0.5828 0.6005, 0.908 -0.5849 0.6058, 0.8989 -0.5829 0.6091, 0.8974 -0.5844 0.6091, 0.9058 -0.5884 0.6058
            ]
        }
        coordIndex [
            0,1,2,-1,3,4,5,-1,5,0,3,-1,3,0,2,-1,3,2,6,-1,6,2,7,-1,6,7,8,-1,8,7,9,-1,8,9,10,-1,10,9,11,-1,10,11,12,-1,12,11,13,-1,12,13,14,-1,14,13,15,-1,14,15,16,-1,16,15,17,-1,16,17,18,-1,18,17,19,-1,18,19,20,-1,20,19,21,-1,20,21,22,-1,22,21,23,-1,22,23,24,-1,24,23,25,-1,26,27,28,-1,28,27,29,-1,30,31,32,-1,32,31,33,-1,33,34,32,-1,32,34,35,-1,32,35,4,-1,27,30,29,-1,29,30,32,-1,29,32,36,-1,36,32,37,-1,36,37,38,-1,38,37,39,-1,38,39,40,-1,40,39,41,-1,39,42,41,-1,41,42,43,-1,41,43,44,-1,44,43,45,-1,43,46,45,-1,45,46,47,-1,45,47,48,-1,48,47,49,-1,47,50,49,-1,49,50,51,-1,49,51,52,-1,52,51,53,-1,52,53,54,-1,55,56,57,-1,57,58,55,-1,55,58,59,-1,55,59,60,-1,60,59,61,-1,60,61,62,-1,62,61,63,-1,62,63,64,-1,64,63,65,-1,64,65,66,-1,66,65,67,-1,66,67,68,-1,68,67,69,-1,68,69,70,-1,70,69,71,-1,70,71,72,-1,72,71,73,-1,72,73,74,-1,74,73,75,-1,1,76,75,-1,75,76,77,-1,75,77,78,-1,78,79,75,-1,75,79,80,-1,75,80,74,-1,74,80,81,-1,74,81,82,-1,82,81,83,-1,2,1,84,-1,71,69,85,-1,67,65,86,-1,87,88,89,-1,90,25,23,-1,91,92,93,-1,93,92,90,-1,94,95,88,-1,88,95,96,-1,88,96,89,-1,89,96,97,-1,89,97,98,-1,57,94,58,-1,58,94,88,-1,58,88,59,-1,59,88,87,-1,59,87,61,-1,61,87,63,-1,90,23,93,-1,93,23,21,-1,93,21,99,-1,65,63,86,-1,86,63,87,-1,86,87,100,-1,100,87,89,-1,100,89,101,-1,101,89,98,-1,21,19,99,-1,99,19,17,-1,99,17,102,-1,69,67,85,-1,85,67,86,-1,85,86,103,-1,103,86,100,-1,103,100,104,-1,104,100,101,-1,17,15,102,-1,102,15,13,-1,102,13,105,-1,104,106,103,-1,103,106,107,-1,103,107,85,-1,85,107,108,-1,85,108,71,-1,109,91,110,-1,110,91,93,-1,110,93,111,-1,111,93,99,-1,111,99,112,-1,112,99,102,-1,112,102,113,-1,113,102,105,-1,113,105,114,-1,114,105,84,-1,114,84,1,-1,1,75,108,-1,108,75,73,-1,108,73,71,-1,106,115,107,-1,107,115,116,-1,107,116,108,-1,108,116,1,-1,115,117,116,-1,116,117,1,-1,13,11,105,-1,105,11,9,-1,105,9,84,-1,84,9,7,-1,84,7,2,-1,98,109,101,-1,101,109,110,-1,101,110,104,-1,104,110,111,-1,104,111,106,-1,106,111,112,-1,106,112,115,-1,115,112,113,-1,115,113,117,-1,117,113,114,-1,117,114,1,-1,32,4,118,-1,8,10,119,-1,12,14,120,-1,121,122,123,-1,124,54,53,-1,125,126,127,-1,127,126,124,-1,128,129,122,-1,122,129,130,-1,122,130,123,-1,123,130,131,-1,123,131,132,-1,24,128,22,-1,22,128,122,-1,22,122,20,-1,20,122,121,-1,20,121,18,-1,18,121,16,-1,124,53,127,-1,127,53,51,-1,127,51,133,-1,14,16,120,-1,120,16,121,-1,120,121,134,-1,134,121,123,-1,134,123,135,-1,135,123,132,-1,51,50,133,-1,133,50,47,-1,133,47,136,-1,10,12,119,-1,119,12,120,-1,119,120,137,-1,137,120,134,-1,137,134,138,-1,138,134,135,-1,47,46,136,-1,136,46,43,-1,136,43,139,-1,138,140,137,-1,137,140,141,-1,137,141,119,-1,119,141,142,-1,119,142,8,-1,143,125,144,-1,144,125,127,-1,144,127,145,-1,145,127,133,-1,145,133,146,-1,146,133,136,-1,146,136,147,-1,147,136,139,-1,147,139,148,-1,148,139,118,-1,148,118,4,-1,4,3,142,-1,142,3,6,-1,142,6,8,-1,140,149,141,-1,141,149,150,-1,141,150,142,-1,142,150,4,-1,149,151,150,-1,150,151,4,-1,43,42,139,-1,139,42,39,-1,139,39,118,-1,118,39,37,-1,118,37,32,-1,132,143,135,-1,135,143,144,-1,135,144,138,-1,138,144,145,-1,138,145,140,-1,140,145,146,-1,140,146,149,-1,149,146,147,-1,149,147,151,-1,151,147,148,-1,151,148,4,-1,152,153,26,-1,152,26,154,-1,26,28,154,-1,154,28,29,-1,154,29,155,-1,155,29,36,-1,155,36,156,-1,156,36,38,-1,156,38,157,-1,157,38,40,-1,157,40,158,-1,158,40,159,-1,159,40,41,-1,159,41,160,-1,160,41,44,-1,160,44,161,-1,161,44,45,-1,161,45,162,-1,52,163,49,-1,49,163,162,-1,49,162,48,-1,48,162,45,-1,164,165,83,-1,83,165,166,-1,167,168,56,-1,56,55,167,-1,167,55,60,-1,167,60,169,-1,169,60,62,-1,169,62,170,-1,170,62,64,-1,170,64,171,-1,171,64,66,-1,171,66,172,-1,172,66,68,-1,172,68,173,-1,173,68,70,-1,173,70,174,-1,174,70,72,-1,174,72,175,-1,175,72,74,-1,175,74,166,-1,166,74,82,-1,166,82,83,-1,25,90,176,-1,176,90,177,-1,177,90,178,-1,178,90,92,-1,178,92,179,-1,179,92,91,-1,179,91,180,-1,180,91,109,-1,180,109,181,-1,181,109,98,-1,181,98,182,-1,182,98,97,-1,182,97,183,-1,183,97,96,-1,183,96,184,-1,184,96,95,-1,184,95,185,-1,95,94,185,-1,185,94,57,-1,185,57,186,-1,54,124,187,-1,187,124,188,-1,188,124,189,-1,189,124,126,-1,189,126,190,-1,190,126,125,-1,190,125,191,-1,191,125,143,-1,191,143,192,-1,192,143,132,-1,192,132,193,-1,193,132,131,-1,193,131,194,-1,194,131,130,-1,194,130,195,-1,195,130,129,-1,195,129,196,-1,129,128,196,-1,196,128,24,-1,196,24,197,-1,163,198,199,-1,163,199,162,-1,162,199,200,-1,162,200,161,-1,161,200,201,-1,161,201,160,-1,160,201,202,-1,160,202,159,-1,159,202,203,-1,159,203,158,-1,158,203,204,-1,158,204,157,-1,157,204,205,-1,157,205,156,-1,156,205,206,-1,156,206,155,-1,155,206,207,-1,155,207,154,-1,208,152,209,-1,209,152,154,-1,209,154,210,-1,210,154,207,-1,211,212,165,-1,165,212,166,-1,166,212,175,-1,175,212,213,-1,175,213,174,-1,174,213,214,-1,174,214,173,-1,173,214,215,-1,173,215,172,-1,172,215,216,-1,172,216,171,-1,171,216,217,-1,171,217,170,-1,170,217,218,-1,170,218,169,-1,169,218,219,-1,169,219,167,-1,219,220,167,-1,167,220,221,-1,167,221,168,-1,222,221,223,-1,223,221,224,-1,223,224,225,-1,225,224,226,-1,225,226,227,-1,227,226,228,-1,227,228,229,-1,229,228,230,-1,229,230,231,-1,231,230,232,-1,231,232,233,-1,233,232,234,-1,233,234,235,-1,235,234,236,-1,235,236,237,-1,237,236,238,-1,237,238,239,-1,239,238,240,-1,239,240,241,-1,240,242,241,-1,241,242,243,-1,241,243,244,-1,186,222,245,-1,186,245,185,-1,185,245,246,-1,185,246,184,-1,184,246,247,-1,184,247,183,-1,183,247,248,-1,183,248,182,-1,182,248,249,-1,182,249,181,-1,181,249,250,-1,181,250,180,-1,180,250,251,-1,180,251,179,-1,179,251,252,-1,179,252,178,-1,178,252,253,-1,178,253,177,-1,254,176,255,-1,255,176,177,-1,255,177,256,-1,256,177,253,-1,197,257,258,-1,197,258,196,-1,196,258,259,-1,196,259,195,-1,195,259,260,-1,195,260,194,-1,194,260,261,-1,194,261,193,-1,193,261,262,-1,193,262,192,-1,192,262,263,-1,192,263,191,-1,191,263,264,-1,191,264,190,-1,190,264,265,-1,190,265,189,-1,189,265,266,-1,189,266,188,-1,267,187,268,-1,268,187,188,-1,268,188,269,-1,269,188,266,-1,270,271,272,-1,272,271,273,-1,272,273,274,-1,274,273,275,-1,274,275,276,-1,276,275,277,-1,276,277,278,-1,278,277,279,-1,278,279,280,-1,280,279,281,-1,280,281,267,-1,267,281,198,-1,282,283,284,-1,285,286,287,-1,288,289,290,-1,291,208,209,-1,290,289,292,-1,292,289,293,-1,292,293,285,-1,287,286,294,-1,294,286,295,-1,294,295,282,-1,284,283,296,-1,296,283,297,-1,296,297,298,-1,298,297,299,-1,298,299,300,-1,300,299,301,-1,301,299,302,-1,301,302,303,-1,303,302,273,-1,303,273,271,-1,199,304,200,-1,200,304,305,-1,204,203,306,-1,306,203,202,-1,306,202,305,-1,305,202,201,-1,305,201,200,-1,204,306,205,-1,205,306,307,-1,205,307,206,-1,206,307,293,-1,206,293,207,-1,207,293,210,-1,210,293,289,-1,210,289,209,-1,209,289,288,-1,209,288,291,-1,308,277,275,-1,282,295,283,-1,283,295,309,-1,283,309,297,-1,297,309,310,-1,297,310,299,-1,299,310,308,-1,299,308,302,-1,302,308,275,-1,302,275,273,-1,199,198,304,-1,304,198,281,-1,304,281,279,-1,285,293,286,-1,286,293,307,-1,286,307,295,-1,295,307,306,-1,295,306,309,-1,309,306,305,-1,309,305,310,-1,310,305,304,-1,310,304,308,-1,308,304,279,-1,308,279,277,-1,311,312,313,-1,314,315,316,-1,243,317,318,-1,319,317,243,-1,316,315,243,-1,320,243,315,-1,321,213,212,-1,213,321,214,-1,214,321,322,-1,214,322,215,-1,215,322,323,-1,215,323,216,-1,216,323,324,-1,216,324,217,-1,217,324,218,-1,218,324,325,-1,218,325,219,-1,219,325,220,-1,220,325,224,-1,220,224,221,-1,242,319,243,-1,326,327,314,-1,314,327,328,-1,314,328,315,-1,315,328,329,-1,315,329,320,-1,330,318,331,-1,331,318,317,-1,331,317,332,-1,332,317,319,-1,332,319,333,-1,242,240,319,-1,319,240,238,-1,319,238,333,-1,333,238,236,-1,333,236,234,-1,313,330,334,-1,334,330,331,-1,334,331,335,-1,335,331,332,-1,335,332,336,-1,336,332,333,-1,336,333,337,-1,337,333,234,-1,338,339,340,-1,340,339,311,-1,311,313,340,-1,340,313,334,-1,340,334,341,-1,341,334,335,-1,341,335,342,-1,342,335,336,-1,342,336,343,-1,343,336,337,-1,343,337,344,-1,312,326,313,-1,313,326,314,-1,313,314,330,-1,330,314,316,-1,330,316,318,-1,318,316,243,-1,338,321,345,-1,345,321,212,-1,345,212,211,-1,234,232,337,-1,337,232,230,-1,337,230,344,-1,344,230,228,-1,344,228,226,-1,338,340,321,-1,321,340,341,-1,321,341,322,-1,322,341,342,-1,322,342,323,-1,323,342,343,-1,323,343,324,-1,324,343,344,-1,324,344,325,-1,325,344,226,-1,325,226,224,-1,225,227,346,-1,229,231,347,-1,348,349,350,-1,244,351,352,-1,353,351,244,-1,350,349,244,-1,241,244,349,-1,245,354,246,-1,246,354,355,-1,246,355,247,-1,247,355,248,-1,248,355,356,-1,248,356,249,-1,249,356,250,-1,250,356,357,-1,250,357,251,-1,251,357,252,-1,252,357,358,-1,252,358,253,-1,253,358,256,-1,256,358,359,-1,256,359,255,-1,255,359,360,-1,255,360,254,-1,361,353,244,-1,233,235,348,-1,348,235,237,-1,348,237,349,-1,349,237,239,-1,349,239,241,-1,362,352,363,-1,363,352,351,-1,363,351,364,-1,364,351,353,-1,364,353,365,-1,231,233,347,-1,347,233,348,-1,347,348,366,-1,366,348,350,-1,366,350,367,-1,367,350,244,-1,361,368,353,-1,353,368,369,-1,353,369,365,-1,365,369,370,-1,365,370,371,-1,372,362,373,-1,373,362,363,-1,373,363,374,-1,374,363,364,-1,374,364,375,-1,375,364,365,-1,375,365,376,-1,376,365,371,-1,346,372,377,-1,377,372,373,-1,377,373,378,-1,378,373,374,-1,378,374,379,-1,379,374,375,-1,379,375,380,-1,380,375,376,-1,380,376,381,-1,227,229,346,-1,346,229,347,-1,346,347,372,-1,372,347,366,-1,372,366,362,-1,362,366,367,-1,362,367,352,-1,352,367,244,-1,245,222,354,-1,354,222,223,-1,354,223,225,-1,371,382,376,-1,376,382,383,-1,376,383,381,-1,381,383,384,-1,381,384,385,-1,225,346,354,-1,354,346,377,-1,354,377,355,-1,355,377,378,-1,355,378,356,-1,356,378,379,-1,356,379,357,-1,357,379,380,-1,357,380,358,-1,358,380,381,-1,358,381,359,-1,359,381,385,-1,359,385,360,-1,386,387,388,-1,389,390,391,-1,391,390,392,-1,391,392,393,-1,393,392,394,-1,393,394,270,-1,387,395,388,-1,388,395,396,-1,388,396,389,-1,389,396,397,-1,389,397,390,-1,398,399,400,-1,400,399,401,-1,400,401,402,-1,402,401,386,-1,403,404,405,-1,405,404,406,-1,405,406,407,-1,407,406,398,-1,257,403,258,-1,258,403,405,-1,258,405,259,-1,259,405,407,-1,259,407,260,-1,260,407,261,-1,261,407,408,-1,261,408,262,-1,262,408,263,-1,263,408,409,-1,263,409,264,-1,264,409,265,-1,265,409,410,-1,265,410,266,-1,266,410,269,-1,269,410,411,-1,269,411,268,-1,268,411,280,-1,268,280,267,-1,386,388,402,-1,402,388,389,-1,402,389,412,-1,412,389,391,-1,412,391,413,-1,413,391,393,-1,413,393,414,-1,270,272,393,-1,393,272,274,-1,393,274,414,-1,414,274,276,-1,414,276,278,-1,398,400,407,-1,407,400,402,-1,407,402,408,-1,408,402,412,-1,408,412,409,-1,409,412,413,-1,409,413,410,-1,410,413,414,-1,410,414,411,-1,411,414,278,-1,411,278,280,-1,208,291,415,-1,415,291,416,-1,417,418,290,-1,290,418,419,-1,416,291,419,-1,419,291,288,-1,419,288,290,-1,290,292,417,-1,417,292,285,-1,417,285,420,-1,420,285,287,-1,420,287,421,-1,421,287,294,-1,421,294,422,-1,422,294,282,-1,422,282,423,-1,423,282,284,-1,423,284,424,-1,424,284,296,-1,424,296,425,-1,425,296,298,-1,271,426,303,-1,303,426,427,-1,303,427,301,-1,301,427,428,-1,301,428,300,-1,300,428,429,-1,300,429,298,-1,298,429,430,-1,298,430,425,-1,211,415,345,-1,345,415,431,-1,345,431,338,-1,338,431,432,-1,338,432,339,-1,339,432,433,-1,339,433,311,-1,311,433,434,-1,311,434,312,-1,312,434,435,-1,312,435,326,-1,326,435,436,-1,326,436,327,-1,327,436,437,-1,327,437,328,-1,328,437,438,-1,328,438,329,-1,329,438,439,-1,329,439,320,-1,439,440,320,-1,320,440,441,-1,320,441,243,-1,442,254,443,-1,443,254,360,-1,443,360,444,-1,444,360,385,-1,444,385,445,-1,445,385,384,-1,445,384,446,-1,446,384,383,-1,446,383,447,-1,447,383,382,-1,447,382,448,-1,448,382,371,-1,448,371,449,-1,449,371,370,-1,449,370,450,-1,450,370,369,-1,450,369,451,-1,451,369,368,-1,451,368,452,-1,368,361,452,-1,452,361,244,-1,452,244,453,-1,397,396,454,-1,442,455,257,-1,257,455,403,-1,403,455,404,-1,404,455,456,-1,404,456,406,-1,406,456,457,-1,406,457,398,-1,398,457,458,-1,398,458,399,-1,399,458,459,-1,399,459,401,-1,401,459,386,-1,386,459,460,-1,386,460,461,-1,454,396,462,-1,462,396,395,-1,462,395,461,-1,461,395,387,-1,461,387,386,-1,454,463,397,-1,397,463,464,-1,397,464,390,-1,390,464,465,-1,390,465,392,-1,392,465,466,-1,392,466,394,-1,394,466,467,-1,394,467,270,-1,270,467,468,-1,438,437,469,-1,470,471,472,-1,473,474,475,-1,475,474,441,-1,422,423,476,-1,430,429,473,-1,428,427,477,-1,477,427,426,-1,424,425,478,-1,478,425,430,-1,478,430,479,-1,480,420,421,-1,481,418,417,-1,439,472,440,-1,440,472,441,-1,471,441,472,-1,426,482,477,-1,477,482,483,-1,477,483,484,-1,484,483,485,-1,484,485,486,-1,429,428,473,-1,473,428,477,-1,473,477,474,-1,474,477,484,-1,474,484,441,-1,486,441,484,-1,439,438,472,-1,472,438,469,-1,472,469,470,-1,470,469,480,-1,423,424,476,-1,476,424,478,-1,476,478,487,-1,487,478,479,-1,487,479,488,-1,421,422,480,-1,480,422,476,-1,480,476,470,-1,470,476,487,-1,470,487,471,-1,471,487,488,-1,471,488,441,-1,417,420,481,-1,481,420,480,-1,481,480,489,-1,489,480,469,-1,489,469,436,-1,436,469,437,-1,415,416,431,-1,431,416,419,-1,431,419,432,-1,432,419,418,-1,432,418,433,-1,433,418,481,-1,433,481,434,-1,434,481,489,-1,434,489,435,-1,435,489,436,-1,430,473,479,-1,479,473,475,-1,479,475,488,-1,488,475,441,-1,490,491,492,-1,492,491,453,-1,452,453,491,-1,463,493,464,-1,454,462,494,-1,460,459,495,-1,458,457,496,-1,460,495,461,-1,497,453,498,-1,448,449,490,-1,490,449,450,-1,490,450,491,-1,491,450,451,-1,491,451,452,-1,499,500,501,-1,468,467,502,-1,502,467,503,-1,502,503,504,-1,504,503,497,-1,504,497,505,-1,505,497,498,-1,447,448,506,-1,506,448,490,-1,506,490,507,-1,507,490,492,-1,507,492,508,-1,508,492,453,-1,453,499,509,-1,509,499,501,-1,509,501,510,-1,510,501,494,-1,510,494,495,-1,495,494,462,-1,495,462,461,-1,466,465,500,-1,500,465,464,-1,500,464,501,-1,501,464,493,-1,501,493,494,-1,494,493,463,-1,494,463,454,-1,447,506,446,-1,446,506,496,-1,446,496,445,-1,445,496,457,-1,445,457,444,-1,444,457,456,-1,444,456,443,-1,443,456,455,-1,443,455,442,-1,458,496,459,-1,459,496,506,-1,459,506,495,-1,495,506,507,-1,495,507,510,-1,510,507,508,-1,510,508,509,-1,509,508,453,-1,467,466,503,-1,503,466,500,-1,503,500,497,-1,497,500,499,-1,497,499,453,-1,453,441,486,-1,426,468,482,-1,482,468,502,-1,482,502,483,-1,483,502,504,-1,483,504,485,-1,485,504,505,-1,485,505,486,-1,486,505,498,-1,486,498,453,-1,
        ]
    }
}